; TFLN_AI_NODE_X2 Back-Drill Excellon | LightRail AI | 2026-06-20
; See TFLN_AI_NODE_X2_backdrill_spec.txt for full depth/tolerance spec
M48
METRIC,TZ
T01C0.150 ; Zone-2 TFLN RF 32 vias  Bot->L2  depth=2.928mm +-0.050mm
T02C0.200 ; Zone-1 PCIe ~500 vias   Bot->L5  depth=2.520mm +-0.100mm
T03C0.200 ; Zone-3 DDR5 ~1200 vias  Both->L6/L16
%
G90
G05
; ---- ZONE 2: TFLN RF DIFFERENTIAL (32 via positions) ----
T01
X140250Y86500
X140360Y86500
X140470Y86500
X140580Y86500
X140690Y86500
X140800Y86500
X140910Y86500
X141020Y86500
X141130Y86500
X141240Y86500
X141350Y86500
X141460Y86500
X141570Y86500
X141680Y86500
X141790Y86500
X141900Y86500
X142010Y86500
X142120Y86500
X142230Y86500
X142340Y86500
X142450Y86500
X142560Y86500
X142670Y86500
X142780Y86500
X142890Y86500
X143000Y86500
X143110Y86500
X143220Y86500
X143330Y86500
X143440Y86500
X143550Y86500
X143660Y86500
; ---- ZONE 1: PCIe/SerDes (representative header; full list in drl_map.pdf) ----
T02
; ~500 via coordinates in PCIe SerDes region (U1 area) -- see drl_map.pdf
; ---- ZONE 3: DDR5/HBM (representative header; full list in drl_map.pdf) ----
T03
; ~1200 via coordinates in DDR5 region (U2 area) -- see drl_map.pdf
M30
