%TF.GenerationSoftware,KiCad,Pcbnew,9.0.9-rc1*%
%TF.CreationDate,2026-06-20T16:52:17-07:00*%
%TF.ProjectId,TFLN_AI_NODE_X2_routed,54464c4e-5f41-4495-9f4e-4f44455f5832,rev?*%
%TF.SameCoordinates,Original*%
%TF.FileFunction,Profile,NP*%
%FSLAX46Y46*%
G04 Gerber Fmt 4.6, Leading zero omitted, Abs format (unit mm)*
G04 Created by KiCad (PCBNEW 9.0.9-rc1) date 2026-06-20 16:52:17*
%MOMM*%
%LPD*%
G01*
G04 APERTURE LIST*
%TA.AperFunction,Profile*%
%ADD10C,0.100000*%
%TD*%
%TA.AperFunction,Profile*%
%ADD11C,0.050000*%
%TD*%
%ADD12C,0.350000*%
G04 APERTURE END LIST*
D10*
X10000000Y-10000000D02*
X315000000Y-10000000D01*
X10000000Y-290000000D02*
X10000000Y-10000000D01*
D11*
X21600000Y-20000000D02*
G75*
G02*
X18400000Y-20000000I-1600000J0D01*
G01*
X18400000Y-20000000D02*
G75*
G02*
X21600000Y-20000000I1600000J0D01*
G01*
X21600000Y-280000000D02*
G75*
G02*
X18400000Y-280000000I-1600000J0D01*
G01*
X18400000Y-280000000D02*
G75*
G02*
X21600000Y-280000000I1600000J0D01*
G01*
D10*
X100000000Y-75000000D02*
X300000000Y-75000000D01*
X300000000Y-225000000D01*
X100000000Y-225000000D01*
X100000000Y-75000000D01*
D11*
X306600000Y-20000000D02*
G75*
G02*
X303400000Y-20000000I-1600000J0D01*
G01*
X303400000Y-20000000D02*
G75*
G02*
X306600000Y-20000000I1600000J0D01*
G01*
X306600000Y-280000000D02*
G75*
G02*
X303400000Y-280000000I-1600000J0D01*
G01*
X303400000Y-280000000D02*
G75*
G02*
X306600000Y-280000000I1600000J0D01*
G01*
D10*
X315000000Y-10000000D02*
X315000000Y-290000000D01*
X315000000Y-290000000D02*
X10000000Y-290000000D01*
D12*
X28000000Y-170000000D03*
X29270000Y-170000000D03*
X28000000Y-171270000D03*
X29270000Y-171270000D03*
X28000000Y-172540000D03*
X29270000Y-172540000D03*
X28000000Y-173810000D03*
X29270000Y-173810000D03*
X28000000Y-175080000D03*
X29270000Y-175080000D03*
X28000000Y-176350000D03*
X29270000Y-176350000D03*
X28000000Y-177620000D03*
X29270000Y-177620000D03*
X28000000Y-148000000D03*
X29270000Y-148000000D03*
X28000000Y-149270000D03*
X29270000Y-149270000D03*
X28000000Y-150540000D03*
X29270000Y-150540000D03*
X28000000Y-151810000D03*
X29270000Y-151810000D03*
X28000000Y-153080000D03*
X29270000Y-153080000D03*
X308000000Y-17000000D03*
X17000000Y-17000000D03*
X308000000Y-283000000D03*
X18000000Y-272000000D03*
X17000000Y-283000000D03*
M02*
