%TF.GenerationSoftware,KiCad,Pcbnew,9.0.9-rc1*%
%TF.CreationDate,2026-06-20T16:22:38-07:00*%
%TF.ProjectId,TFLN_AI_NODE_X2,54464c4e-5f41-4495-9f4e-4f44455f5832,rev?*%
%TF.SameCoordinates,Original*%
%TF.FileFunction,Copper,L21,Inr*%
%TF.FilePolarity,Positive*%
%FSLAX46Y46*%
G04 Gerber Fmt 4.6, Leading zero omitted, Abs format (unit mm)*
G04 Created by KiCad (PCBNEW 9.0.9-rc1) date 2026-06-20 16:22:38*
%MOMM*%
%LPD*%
G01*
G04 APERTURE LIST*
%TA.AperFunction,ComponentPad*%
%ADD10R,1.000000X1.000000*%
%TD*%
%TA.AperFunction,ComponentPad*%
%ADD11O,1.000000X1.000000*%
%TD*%
%TA.AperFunction,ViaPad*%
%ADD12C,0.400000*%
%TD*%
%TA.AperFunction,ViaPad*%
%ADD13C,0.300000*%
%TD*%
%ADD14C,0.200000*%
%ADD15C,0.150000*%
%ADD16C,0.350000*%
G04 APERTURE END LIST*
D10*
%TO.N,+3V3*%
%TO.C,J6*%
X296700000Y-159333333D03*
D11*
%TO.N,GND*%
X296700000Y-158063333D03*
%TO.N,FPGA_GPIO0*%
X297970000Y-159333333D03*
%TO.N,FPGA_GPIO1*%
X297970000Y-158063333D03*
%TO.N,FPGA_GPIO2*%
X299240000Y-159333333D03*
%TO.N,FPGA_GPIO3*%
X299240000Y-158063333D03*
%TO.N,N/C*%
X300510000Y-159333333D03*
X300510000Y-158063333D03*
X301780000Y-159333333D03*
X301780000Y-158063333D03*
X303050000Y-159333333D03*
X303050000Y-158063333D03*
%TO.N,I2C_SCL*%
X304320000Y-159333333D03*
%TO.N,I2C_SDA*%
X304320000Y-158063333D03*
%TD*%
D10*
%TO.N,JTAG_TCK*%
%TO.C,J5*%
X296700000Y-122000000D03*
D11*
%TO.N,GND*%
X296700000Y-120730000D03*
%TO.N,JTAG_TDO*%
X297970000Y-122000000D03*
%TO.N,+3V3*%
X297970000Y-120730000D03*
%TO.N,JTAG_TMS*%
X299240000Y-122000000D03*
%TO.N,GND*%
X299240000Y-120730000D03*
%TO.N,N/C*%
X300510000Y-122000000D03*
X300510000Y-120730000D03*
%TO.N,JTAG_TDI*%
X301780000Y-122000000D03*
%TO.N,JTAG_TRST*%
X301780000Y-120730000D03*
%TD*%
D12*
%TO.N,+1V8*%
X158000000Y-163000000D03*
X83000000Y-243000000D03*
X78000000Y-243000000D03*
%TO.N,+3V3*%
X73000000Y-243000000D03*
X193000000Y-78000000D03*
X103000000Y-253000000D03*
X118000000Y-253000000D03*
%TO.N,+5V*%
X73000000Y-268000000D03*
X88000000Y-253000000D03*
X73000000Y-263000000D03*
%TO.N,AXI_ACLK*%
X163000000Y-163000000D03*
%TO.N,AXI_RDATA*%
X118000000Y-123000000D03*
X113000000Y-123000000D03*
X133000000Y-123000000D03*
X143000000Y-123000000D03*
X123000000Y-123000000D03*
X148000000Y-123000000D03*
X138000000Y-123000000D03*
X153000000Y-123000000D03*
X128000000Y-123000000D03*
X158000000Y-123000000D03*
%TO.N,FPGA_GPIO1*%
X298000000Y-158000000D03*
%TO.N,GND*%
X198000000Y-33000000D03*
X273000000Y-18000000D03*
X138000000Y-133000000D03*
X113000000Y-193000000D03*
X108000000Y-253000000D03*
X288000000Y-178000000D03*
X143000000Y-68000000D03*
X238000000Y-53000000D03*
X113000000Y-133000000D03*
X263000000Y-208000000D03*
X128000000Y-183000000D03*
X113000000Y-63000000D03*
X173000000Y-238000000D03*
X113000000Y-83000000D03*
X153000000Y-53000000D03*
X273000000Y-188000000D03*
X138000000Y-68000000D03*
X178000000Y-268000000D03*
X58000000Y-228000000D03*
X303000000Y-58000000D03*
X73000000Y-198000000D03*
X43000000Y-88000000D03*
X298000000Y-238000000D03*
X143000000Y-138000000D03*
X83000000Y-258000000D03*
X83000000Y-158000000D03*
X283000000Y-193000000D03*
X233000000Y-268000000D03*
X278000000Y-43000000D03*
X18000000Y-163000000D03*
X188000000Y-248000000D03*
X143000000Y-273000000D03*
X108000000Y-18000000D03*
X58000000Y-183000000D03*
X53000000Y-198000000D03*
X213000000Y-193000000D03*
X188000000Y-278000000D03*
X38000000Y-83000000D03*
X193000000Y-213000000D03*
X83000000Y-188000000D03*
X233000000Y-133000000D03*
X123000000Y-163000000D03*
X188000000Y-203000000D03*
X78000000Y-138000000D03*
X263000000Y-43000000D03*
X98000000Y-133000000D03*
X103000000Y-223000000D03*
X268000000Y-213000000D03*
X198000000Y-238000000D03*
X108000000Y-53000000D03*
X123000000Y-93000000D03*
X283000000Y-128000000D03*
X128000000Y-128000000D03*
X183000000Y-163000000D03*
X298000000Y-23000000D03*
X123000000Y-133000000D03*
X288000000Y-68000000D03*
X78000000Y-23000000D03*
X143000000Y-18000000D03*
X78000000Y-18000000D03*
X123000000Y-173000000D03*
X28000000Y-233000000D03*
X88000000Y-163000000D03*
X248000000Y-148000000D03*
D13*
X160600000Y-81033333D03*
D12*
X258000000Y-148000000D03*
X98000000Y-258000000D03*
X228000000Y-188000000D03*
X233000000Y-253000000D03*
X63000000Y-233000000D03*
X38000000Y-143000000D03*
X123000000Y-108000000D03*
X178000000Y-253000000D03*
X213000000Y-213000000D03*
X143000000Y-73000000D03*
X48000000Y-53000000D03*
X143000000Y-193000000D03*
X43000000Y-158000000D03*
X303000000Y-93000000D03*
X218000000Y-83000000D03*
X248000000Y-178000000D03*
X198000000Y-248000000D03*
X98000000Y-278000000D03*
X238000000Y-148000000D03*
X48000000Y-173000000D03*
X108000000Y-143000000D03*
X73000000Y-278000000D03*
X118000000Y-23000000D03*
X278000000Y-38000000D03*
X238000000Y-268000000D03*
X168000000Y-128000000D03*
X128000000Y-28000000D03*
X183000000Y-83000000D03*
X108000000Y-48000000D03*
X278000000Y-123000000D03*
X138000000Y-148000000D03*
X38000000Y-78000000D03*
X233000000Y-23000000D03*
X123000000Y-48000000D03*
X298000000Y-68000000D03*
X218000000Y-43000000D03*
X88000000Y-103000000D03*
X83000000Y-163000000D03*
X98000000Y-88000000D03*
X278000000Y-48000000D03*
X238000000Y-123000000D03*
X148000000Y-263000000D03*
X273000000Y-213000000D03*
X268000000Y-118000000D03*
D13*
X161600000Y-84033333D03*
D12*
X298000000Y-88000000D03*
D13*
X161600000Y-80033333D03*
D12*
X33000000Y-93000000D03*
X173000000Y-108000000D03*
X63000000Y-53000000D03*
X88000000Y-193000000D03*
X53000000Y-43000000D03*
X248000000Y-203000000D03*
X158000000Y-183000000D03*
X253000000Y-78000000D03*
X148000000Y-88000000D03*
X233000000Y-98000000D03*
X198000000Y-123000000D03*
X218000000Y-198000000D03*
X258000000Y-173000000D03*
X63000000Y-123000000D03*
X88000000Y-158000000D03*
X113000000Y-43000000D03*
X133000000Y-263000000D03*
X58000000Y-143000000D03*
X33000000Y-258000000D03*
X103000000Y-213000000D03*
X198000000Y-258000000D03*
X208000000Y-138000000D03*
X128000000Y-138000000D03*
X88000000Y-93000000D03*
X233000000Y-228000000D03*
X178000000Y-228000000D03*
X113000000Y-28000000D03*
X258000000Y-18000000D03*
X93000000Y-273000000D03*
X63000000Y-33000000D03*
X228000000Y-78000000D03*
X218000000Y-68000000D03*
X193000000Y-228000000D03*
X183000000Y-93000000D03*
X128000000Y-83000000D03*
X233000000Y-218000000D03*
X78000000Y-213000000D03*
X303000000Y-98000000D03*
X173000000Y-178000000D03*
X243000000Y-183000000D03*
X123000000Y-223000000D03*
X33000000Y-48000000D03*
X268000000Y-163000000D03*
X178000000Y-163000000D03*
X48000000Y-143000000D03*
X108000000Y-103000000D03*
X303000000Y-188000000D03*
X168000000Y-103000000D03*
X53000000Y-18000000D03*
X198000000Y-113000000D03*
X233000000Y-118000000D03*
X173000000Y-128000000D03*
X303000000Y-233000000D03*
X213000000Y-123000000D03*
X268000000Y-98000000D03*
X193000000Y-123000000D03*
X168000000Y-138000000D03*
X43000000Y-203000000D03*
X173000000Y-213000000D03*
X248000000Y-188000000D03*
X233000000Y-78000000D03*
X173000000Y-248000000D03*
X178000000Y-73000000D03*
X283000000Y-223000000D03*
X263000000Y-248000000D03*
X278000000Y-248000000D03*
X88000000Y-118000000D03*
X288000000Y-223000000D03*
X303000000Y-263000000D03*
X253000000Y-193000000D03*
X188000000Y-68000000D03*
X68000000Y-38000000D03*
X263000000Y-263000000D03*
X108000000Y-83000000D03*
X253000000Y-43000000D03*
X258000000Y-208000000D03*
X18000000Y-193000000D03*
X293000000Y-33000000D03*
X108000000Y-243000000D03*
X23000000Y-168000000D03*
X228000000Y-118000000D03*
X78000000Y-203000000D03*
X68000000Y-98000000D03*
X168000000Y-193000000D03*
X288000000Y-218000000D03*
X158000000Y-193000000D03*
X108000000Y-98000000D03*
X53000000Y-208000000D03*
X123000000Y-38000000D03*
X223000000Y-33000000D03*
X218000000Y-193000000D03*
X38000000Y-153000000D03*
X293000000Y-133000000D03*
X113000000Y-113000000D03*
D13*
X163549999Y-85033333D03*
D12*
X168000000Y-143000000D03*
X228000000Y-103000000D03*
X58000000Y-148000000D03*
D13*
X161600000Y-79033333D03*
X161600000Y-83033333D03*
D12*
X253000000Y-28000000D03*
X48000000Y-128000000D03*
X268000000Y-158000000D03*
X113000000Y-78000000D03*
X48000000Y-198000000D03*
X48000000Y-103000000D03*
X178000000Y-248000000D03*
X98000000Y-58000000D03*
X253000000Y-98000000D03*
X228000000Y-213000000D03*
X243000000Y-68000000D03*
X208000000Y-113000000D03*
X263000000Y-73000000D03*
X168000000Y-228000000D03*
X38000000Y-33000000D03*
X63000000Y-48000000D03*
X58000000Y-23000000D03*
X173000000Y-273000000D03*
X253000000Y-273000000D03*
X283000000Y-178000000D03*
X243000000Y-278000000D03*
X153000000Y-88000000D03*
X288000000Y-168000000D03*
X133000000Y-223000000D03*
X183000000Y-218000000D03*
X73000000Y-173000000D03*
X88000000Y-278000000D03*
X158000000Y-168000000D03*
X258000000Y-23000000D03*
X103000000Y-193000000D03*
X133000000Y-163000000D03*
X273000000Y-228000000D03*
X173000000Y-133000000D03*
X118000000Y-153000000D03*
X68000000Y-238000000D03*
X73000000Y-48000000D03*
X233000000Y-173000000D03*
X113000000Y-23000000D03*
X78000000Y-183000000D03*
X28000000Y-73000000D03*
X68000000Y-203000000D03*
X263000000Y-118000000D03*
X143000000Y-223000000D03*
X73000000Y-63000000D03*
X293000000Y-28000000D03*
D13*
X163600000Y-79033333D03*
D12*
X58000000Y-73000000D03*
X133000000Y-228000000D03*
X118000000Y-263000000D03*
X123000000Y-158000000D03*
X23000000Y-98000000D03*
X238000000Y-68000000D03*
X253000000Y-263000000D03*
X153000000Y-258000000D03*
X293000000Y-228000000D03*
X88000000Y-113000000D03*
X113000000Y-33000000D03*
X213000000Y-178000000D03*
X33000000Y-278000000D03*
X43000000Y-193000000D03*
X68000000Y-193000000D03*
X248000000Y-133000000D03*
X178000000Y-168000000D03*
X178000000Y-178000000D03*
X148000000Y-128000000D03*
X303000000Y-278000000D03*
X148000000Y-178000000D03*
X243000000Y-238000000D03*
X98000000Y-113000000D03*
X133000000Y-78000000D03*
X43000000Y-118000000D03*
X113000000Y-38000000D03*
X43000000Y-53000000D03*
X143000000Y-173000000D03*
X158000000Y-33000000D03*
X88000000Y-153000000D03*
X133000000Y-183000000D03*
X298000000Y-133000000D03*
X103000000Y-173000000D03*
X213000000Y-263000000D03*
X218000000Y-213000000D03*
X283000000Y-63000000D03*
X93000000Y-248000000D03*
X178000000Y-193000000D03*
X143000000Y-83000000D03*
X268000000Y-28000000D03*
X178000000Y-83000000D03*
X83000000Y-168000000D03*
X18000000Y-88000000D03*
X233000000Y-143000000D03*
X68000000Y-53000000D03*
X43000000Y-268000000D03*
X93000000Y-83000000D03*
X88000000Y-68000000D03*
X93000000Y-73000000D03*
X273000000Y-233000000D03*
X108000000Y-153000000D03*
X193000000Y-73000000D03*
X218000000Y-128000000D03*
X53000000Y-58000000D03*
X283000000Y-258000000D03*
X53000000Y-193000000D03*
X268000000Y-273000000D03*
X78000000Y-173000000D03*
X278000000Y-268000000D03*
X78000000Y-38000000D03*
X268000000Y-193000000D03*
X63000000Y-73000000D03*
X263000000Y-103000000D03*
X58000000Y-33000000D03*
X143000000Y-78000000D03*
X158000000Y-53000000D03*
X58000000Y-128000000D03*
X293000000Y-93000000D03*
X208000000Y-178000000D03*
X43000000Y-163000000D03*
X138000000Y-18000000D03*
X303000000Y-178000000D03*
X23000000Y-238000000D03*
X148000000Y-28000000D03*
X288000000Y-203000000D03*
X203000000Y-143000000D03*
X43000000Y-113000000D03*
X188000000Y-93000000D03*
X223000000Y-193000000D03*
X48000000Y-213000000D03*
D13*
X164549999Y-85033333D03*
D12*
X98000000Y-63000000D03*
X188000000Y-23000000D03*
X298000000Y-278000000D03*
X283000000Y-158000000D03*
X63000000Y-133000000D03*
X38000000Y-168000000D03*
X193000000Y-183000000D03*
X38000000Y-183000000D03*
X58000000Y-243000000D03*
X123000000Y-88000000D03*
X203000000Y-103000000D03*
X43000000Y-233000000D03*
X208000000Y-133000000D03*
X208000000Y-163000000D03*
X303000000Y-88000000D03*
X198000000Y-218000000D03*
X53000000Y-183000000D03*
X28000000Y-58000000D03*
X33000000Y-198000000D03*
X118000000Y-83000000D03*
X18000000Y-68000000D03*
X298000000Y-213000000D03*
X163000000Y-213000000D03*
X158000000Y-233000000D03*
X108000000Y-58000000D03*
X198000000Y-28000000D03*
X248000000Y-213000000D03*
X223000000Y-208000000D03*
D13*
X164549999Y-82033333D03*
D12*
X188000000Y-163000000D03*
X193000000Y-48000000D03*
X298000000Y-83000000D03*
X193000000Y-38000000D03*
X73000000Y-163000000D03*
X43000000Y-108000000D03*
X223000000Y-218000000D03*
X253000000Y-23000000D03*
X238000000Y-203000000D03*
X253000000Y-258000000D03*
X23000000Y-108000000D03*
X153000000Y-158000000D03*
X293000000Y-108000000D03*
X153000000Y-73000000D03*
X78000000Y-193000000D03*
X93000000Y-88000000D03*
X168000000Y-23000000D03*
X88000000Y-213000000D03*
X88000000Y-43000000D03*
X218000000Y-93000000D03*
X68000000Y-23000000D03*
X68000000Y-63000000D03*
X188000000Y-118000000D03*
X68000000Y-253000000D03*
X143000000Y-228000000D03*
X273000000Y-88000000D03*
X283000000Y-173000000D03*
X188000000Y-128000000D03*
X173000000Y-53000000D03*
X213000000Y-198000000D03*
X103000000Y-183000000D03*
X188000000Y-183000000D03*
X93000000Y-268000000D03*
X103000000Y-248000000D03*
X18000000Y-178000000D03*
X73000000Y-158000000D03*
X108000000Y-128000000D03*
X268000000Y-128000000D03*
X263000000Y-23000000D03*
X288000000Y-38000000D03*
X163000000Y-238000000D03*
X243000000Y-208000000D03*
X18000000Y-118000000D03*
X298000000Y-33000000D03*
X78000000Y-268000000D03*
X33000000Y-23000000D03*
X43000000Y-33000000D03*
X163000000Y-78000000D03*
X83000000Y-38000000D03*
X103000000Y-188000000D03*
X53000000Y-253000000D03*
X298000000Y-93000000D03*
X228000000Y-228000000D03*
X213000000Y-23000000D03*
X278000000Y-18000000D03*
X108000000Y-178000000D03*
X178000000Y-243000000D03*
X138000000Y-223000000D03*
X223000000Y-123000000D03*
X283000000Y-118000000D03*
X208000000Y-188000000D03*
X53000000Y-228000000D03*
X168000000Y-183000000D03*
X278000000Y-118000000D03*
X188000000Y-268000000D03*
X283000000Y-18000000D03*
X163000000Y-228000000D03*
X88000000Y-88000000D03*
X248000000Y-253000000D03*
X33000000Y-108000000D03*
X63000000Y-253000000D03*
X248000000Y-33000000D03*
D13*
X161549999Y-86033333D03*
D12*
X173000000Y-73000000D03*
X268000000Y-223000000D03*
X63000000Y-208000000D03*
X138000000Y-258000000D03*
D13*
X161549999Y-84033333D03*
D12*
X193000000Y-168000000D03*
X153000000Y-133000000D03*
X193000000Y-18000000D03*
X83000000Y-93000000D03*
X118000000Y-158000000D03*
D13*
X162600000Y-83033333D03*
D12*
X18000000Y-158000000D03*
X273000000Y-58000000D03*
X268000000Y-188000000D03*
X98000000Y-108000000D03*
X263000000Y-63000000D03*
X158000000Y-143000000D03*
X108000000Y-238000000D03*
X243000000Y-213000000D03*
X303000000Y-223000000D03*
X63000000Y-28000000D03*
X228000000Y-23000000D03*
X238000000Y-188000000D03*
X138000000Y-163000000D03*
X33000000Y-28000000D03*
X198000000Y-108000000D03*
X68000000Y-278000000D03*
X173000000Y-188000000D03*
D13*
X163600000Y-80033333D03*
D12*
X208000000Y-268000000D03*
X93000000Y-33000000D03*
X243000000Y-78000000D03*
X263000000Y-173000000D03*
X158000000Y-243000000D03*
X98000000Y-143000000D03*
X68000000Y-68000000D03*
X293000000Y-278000000D03*
X143000000Y-58000000D03*
X88000000Y-143000000D03*
X263000000Y-183000000D03*
X128000000Y-73000000D03*
X303000000Y-168000000D03*
X28000000Y-263000000D03*
X288000000Y-23000000D03*
X73000000Y-258000000D03*
X98000000Y-148000000D03*
X98000000Y-198000000D03*
X148000000Y-158000000D03*
X58000000Y-158000000D03*
X288000000Y-108000000D03*
X213000000Y-238000000D03*
X18000000Y-43000000D03*
X133000000Y-83000000D03*
X38000000Y-208000000D03*
X223000000Y-268000000D03*
X203000000Y-43000000D03*
X253000000Y-223000000D03*
X208000000Y-68000000D03*
X188000000Y-103000000D03*
D13*
X160600000Y-84033333D03*
D12*
X58000000Y-48000000D03*
X198000000Y-208000000D03*
X253000000Y-118000000D03*
X73000000Y-18000000D03*
X173000000Y-78000000D03*
X18000000Y-23000000D03*
X163000000Y-273000000D03*
X138000000Y-98000000D03*
X108000000Y-138000000D03*
X73000000Y-123000000D03*
X158000000Y-88000000D03*
X118000000Y-198000000D03*
X173000000Y-113000000D03*
X143000000Y-143000000D03*
X278000000Y-223000000D03*
X68000000Y-208000000D03*
X223000000Y-188000000D03*
X253000000Y-53000000D03*
X183000000Y-198000000D03*
X93000000Y-233000000D03*
X283000000Y-253000000D03*
X298000000Y-193000000D03*
X248000000Y-123000000D03*
X43000000Y-103000000D03*
X158000000Y-128000000D03*
X23000000Y-258000000D03*
X273000000Y-123000000D03*
X38000000Y-163000000D03*
X28000000Y-83000000D03*
X23000000Y-148000000D03*
X148000000Y-93000000D03*
X288000000Y-28000000D03*
X168000000Y-163000000D03*
X98000000Y-183000000D03*
X53000000Y-223000000D03*
X183000000Y-173000000D03*
X273000000Y-33000000D03*
X128000000Y-248000000D03*
X168000000Y-118000000D03*
X113000000Y-218000000D03*
X133000000Y-138000000D03*
X213000000Y-118000000D03*
X253000000Y-268000000D03*
X18000000Y-53000000D03*
X103000000Y-143000000D03*
X53000000Y-178000000D03*
X108000000Y-78000000D03*
X258000000Y-158000000D03*
X233000000Y-203000000D03*
X278000000Y-128000000D03*
X208000000Y-233000000D03*
X178000000Y-188000000D03*
X58000000Y-273000000D03*
X168000000Y-93000000D03*
X18000000Y-213000000D03*
X213000000Y-78000000D03*
X298000000Y-58000000D03*
X103000000Y-43000000D03*
X248000000Y-83000000D03*
X168000000Y-63000000D03*
X223000000Y-223000000D03*
X173000000Y-43000000D03*
X263000000Y-158000000D03*
X253000000Y-278000000D03*
X238000000Y-173000000D03*
D13*
X163549999Y-79033333D03*
D12*
X218000000Y-273000000D03*
X263000000Y-168000000D03*
X78000000Y-63000000D03*
X138000000Y-88000000D03*
X213000000Y-188000000D03*
X28000000Y-218000000D03*
X78000000Y-68000000D03*
X38000000Y-113000000D03*
X153000000Y-138000000D03*
X173000000Y-158000000D03*
X233000000Y-53000000D03*
X268000000Y-143000000D03*
X128000000Y-58000000D03*
D13*
X163549999Y-83033333D03*
D12*
X233000000Y-28000000D03*
X293000000Y-218000000D03*
X28000000Y-243000000D03*
X148000000Y-163000000D03*
X78000000Y-73000000D03*
X38000000Y-88000000D03*
X138000000Y-208000000D03*
X78000000Y-233000000D03*
X283000000Y-23000000D03*
X248000000Y-233000000D03*
X23000000Y-278000000D03*
X193000000Y-193000000D03*
X283000000Y-93000000D03*
X18000000Y-148000000D03*
X273000000Y-223000000D03*
X78000000Y-238000000D03*
X293000000Y-183000000D03*
X273000000Y-158000000D03*
X118000000Y-53000000D03*
X293000000Y-88000000D03*
X43000000Y-98000000D03*
X193000000Y-278000000D03*
X28000000Y-78000000D03*
X223000000Y-108000000D03*
X33000000Y-38000000D03*
X233000000Y-73000000D03*
X143000000Y-63000000D03*
X28000000Y-198000000D03*
X43000000Y-228000000D03*
X103000000Y-133000000D03*
X263000000Y-83000000D03*
X73000000Y-113000000D03*
X48000000Y-158000000D03*
X208000000Y-248000000D03*
X68000000Y-113000000D03*
X143000000Y-263000000D03*
X113000000Y-198000000D03*
X203000000Y-173000000D03*
X208000000Y-43000000D03*
X143000000Y-213000000D03*
X293000000Y-148000000D03*
X238000000Y-63000000D03*
X223000000Y-228000000D03*
X143000000Y-268000000D03*
X298000000Y-38000000D03*
X98000000Y-73000000D03*
X28000000Y-23000000D03*
X143000000Y-38000000D03*
X53000000Y-258000000D03*
X263000000Y-48000000D03*
X163000000Y-143000000D03*
X48000000Y-223000000D03*
X173000000Y-58000000D03*
X158000000Y-208000000D03*
X168000000Y-53000000D03*
X38000000Y-233000000D03*
X278000000Y-178000000D03*
X228000000Y-128000000D03*
X33000000Y-153000000D03*
X18000000Y-183000000D03*
X133000000Y-133000000D03*
X73000000Y-253000000D03*
X88000000Y-238000000D03*
X193000000Y-28000000D03*
X198000000Y-58000000D03*
X268000000Y-83000000D03*
X138000000Y-58000000D03*
X223000000Y-143000000D03*
X48000000Y-183000000D03*
X193000000Y-233000000D03*
X88000000Y-168000000D03*
X283000000Y-233000000D03*
X128000000Y-178000000D03*
X208000000Y-58000000D03*
X198000000Y-233000000D03*
X183000000Y-88000000D03*
X173000000Y-218000000D03*
X288000000Y-118000000D03*
X118000000Y-98000000D03*
X198000000Y-103000000D03*
X88000000Y-183000000D03*
X138000000Y-83000000D03*
X83000000Y-203000000D03*
X258000000Y-88000000D03*
X198000000Y-268000000D03*
X103000000Y-118000000D03*
X168000000Y-148000000D03*
X238000000Y-213000000D03*
X68000000Y-188000000D03*
X163000000Y-158000000D03*
X283000000Y-28000000D03*
X163000000Y-133000000D03*
X203000000Y-218000000D03*
X213000000Y-168000000D03*
X63000000Y-203000000D03*
X138000000Y-268000000D03*
X233000000Y-43000000D03*
X23000000Y-213000000D03*
X218000000Y-158000000D03*
X23000000Y-198000000D03*
X128000000Y-228000000D03*
X33000000Y-243000000D03*
X258000000Y-188000000D03*
X163000000Y-123000000D03*
X108000000Y-73000000D03*
X253000000Y-128000000D03*
X48000000Y-218000000D03*
X273000000Y-108000000D03*
X43000000Y-63000000D03*
X238000000Y-128000000D03*
X283000000Y-53000000D03*
X168000000Y-73000000D03*
X143000000Y-258000000D03*
X53000000Y-63000000D03*
X38000000Y-228000000D03*
X23000000Y-253000000D03*
X248000000Y-273000000D03*
X163000000Y-258000000D03*
X83000000Y-63000000D03*
X148000000Y-33000000D03*
X268000000Y-68000000D03*
X178000000Y-43000000D03*
X43000000Y-183000000D03*
X278000000Y-113000000D03*
X303000000Y-228000000D03*
X128000000Y-48000000D03*
X98000000Y-193000000D03*
X238000000Y-258000000D03*
X233000000Y-103000000D03*
X98000000Y-273000000D03*
X133000000Y-28000000D03*
X48000000Y-133000000D03*
X263000000Y-193000000D03*
X83000000Y-98000000D03*
X78000000Y-263000000D03*
X53000000Y-218000000D03*
X263000000Y-113000000D03*
X118000000Y-33000000D03*
X113000000Y-143000000D03*
X118000000Y-88000000D03*
X73000000Y-33000000D03*
X263000000Y-223000000D03*
X98000000Y-173000000D03*
X223000000Y-48000000D03*
D13*
X164549999Y-79033333D03*
D12*
X283000000Y-218000000D03*
X53000000Y-23000000D03*
X113000000Y-183000000D03*
X288000000Y-88000000D03*
X223000000Y-263000000D03*
X138000000Y-233000000D03*
X83000000Y-33000000D03*
X188000000Y-188000000D03*
X173000000Y-278000000D03*
X273000000Y-258000000D03*
X273000000Y-28000000D03*
X38000000Y-278000000D03*
X253000000Y-183000000D03*
X273000000Y-63000000D03*
X188000000Y-28000000D03*
X208000000Y-143000000D03*
X253000000Y-73000000D03*
X298000000Y-103000000D03*
X153000000Y-38000000D03*
X243000000Y-268000000D03*
X68000000Y-223000000D03*
X58000000Y-93000000D03*
X63000000Y-248000000D03*
X298000000Y-153000000D03*
X118000000Y-48000000D03*
X293000000Y-273000000D03*
X138000000Y-213000000D03*
X208000000Y-273000000D03*
X58000000Y-278000000D03*
X258000000Y-143000000D03*
X253000000Y-133000000D03*
X88000000Y-108000000D03*
X293000000Y-123000000D03*
X78000000Y-278000000D03*
X73000000Y-193000000D03*
X238000000Y-58000000D03*
X183000000Y-103000000D03*
X43000000Y-23000000D03*
X148000000Y-138000000D03*
X238000000Y-253000000D03*
X278000000Y-68000000D03*
X233000000Y-128000000D03*
X158000000Y-278000000D03*
X83000000Y-83000000D03*
X103000000Y-78000000D03*
X218000000Y-63000000D03*
X248000000Y-268000000D03*
X178000000Y-53000000D03*
X208000000Y-78000000D03*
X118000000Y-113000000D03*
X148000000Y-238000000D03*
X53000000Y-118000000D03*
X98000000Y-213000000D03*
X28000000Y-38000000D03*
X183000000Y-123000000D03*
X28000000Y-183000000D03*
X23000000Y-163000000D03*
X163000000Y-128000000D03*
X133000000Y-58000000D03*
X23000000Y-38000000D03*
X303000000Y-163000000D03*
X213000000Y-33000000D03*
X58000000Y-83000000D03*
X118000000Y-73000000D03*
X268000000Y-88000000D03*
X268000000Y-203000000D03*
X23000000Y-153000000D03*
X103000000Y-83000000D03*
X203000000Y-18000000D03*
X73000000Y-93000000D03*
X38000000Y-18000000D03*
X93000000Y-238000000D03*
X98000000Y-48000000D03*
X98000000Y-163000000D03*
X28000000Y-43000000D03*
X138000000Y-63000000D03*
X273000000Y-113000000D03*
X43000000Y-188000000D03*
X213000000Y-58000000D03*
X133000000Y-113000000D03*
X193000000Y-243000000D03*
X63000000Y-118000000D03*
X193000000Y-273000000D03*
X263000000Y-33000000D03*
X183000000Y-78000000D03*
X68000000Y-118000000D03*
X73000000Y-58000000D03*
X93000000Y-53000000D03*
X273000000Y-203000000D03*
X128000000Y-43000000D03*
X228000000Y-253000000D03*
X88000000Y-98000000D03*
X113000000Y-128000000D03*
X223000000Y-98000000D03*
X158000000Y-268000000D03*
X218000000Y-258000000D03*
X303000000Y-23000000D03*
X113000000Y-163000000D03*
X198000000Y-63000000D03*
X298000000Y-248000000D03*
X43000000Y-218000000D03*
X188000000Y-243000000D03*
X243000000Y-118000000D03*
X253000000Y-153000000D03*
X18000000Y-263000000D03*
X168000000Y-218000000D03*
X78000000Y-258000000D03*
X38000000Y-48000000D03*
D13*
X162600000Y-84033333D03*
D12*
X43000000Y-153000000D03*
X283000000Y-78000000D03*
X268000000Y-38000000D03*
X243000000Y-218000000D03*
X268000000Y-18000000D03*
X128000000Y-153000000D03*
X228000000Y-173000000D03*
X168000000Y-173000000D03*
X173000000Y-253000000D03*
X298000000Y-203000000D03*
X298000000Y-208000000D03*
X258000000Y-153000000D03*
X18000000Y-78000000D03*
X303000000Y-68000000D03*
X138000000Y-73000000D03*
X223000000Y-148000000D03*
X213000000Y-48000000D03*
X28000000Y-238000000D03*
X203000000Y-118000000D03*
X228000000Y-48000000D03*
X268000000Y-168000000D03*
X138000000Y-113000000D03*
X128000000Y-238000000D03*
X103000000Y-218000000D03*
X23000000Y-28000000D03*
X183000000Y-273000000D03*
X223000000Y-153000000D03*
X128000000Y-193000000D03*
X123000000Y-268000000D03*
X48000000Y-113000000D03*
X23000000Y-123000000D03*
X293000000Y-68000000D03*
X78000000Y-98000000D03*
X153000000Y-48000000D03*
X158000000Y-43000000D03*
X133000000Y-73000000D03*
X218000000Y-103000000D03*
X273000000Y-93000000D03*
X273000000Y-163000000D03*
X238000000Y-158000000D03*
X33000000Y-178000000D03*
X88000000Y-188000000D03*
X218000000Y-48000000D03*
X58000000Y-118000000D03*
X228000000Y-93000000D03*
X178000000Y-63000000D03*
X283000000Y-138000000D03*
X48000000Y-193000000D03*
X293000000Y-153000000D03*
X173000000Y-148000000D03*
X233000000Y-258000000D03*
X238000000Y-93000000D03*
X43000000Y-243000000D03*
X148000000Y-168000000D03*
X58000000Y-188000000D03*
X78000000Y-253000000D03*
X183000000Y-63000000D03*
X108000000Y-218000000D03*
X298000000Y-123000000D03*
X93000000Y-223000000D03*
X218000000Y-183000000D03*
X213000000Y-98000000D03*
X118000000Y-238000000D03*
X238000000Y-133000000D03*
X23000000Y-138000000D03*
X223000000Y-113000000D03*
X283000000Y-98000000D03*
X133000000Y-168000000D03*
X33000000Y-63000000D03*
X118000000Y-163000000D03*
X28000000Y-268000000D03*
X43000000Y-133000000D03*
X108000000Y-123000000D03*
X98000000Y-238000000D03*
X173000000Y-63000000D03*
X288000000Y-78000000D03*
X298000000Y-53000000D03*
X218000000Y-238000000D03*
X93000000Y-158000000D03*
X38000000Y-273000000D03*
X163000000Y-33000000D03*
X263000000Y-273000000D03*
X123000000Y-28000000D03*
X48000000Y-23000000D03*
X168000000Y-203000000D03*
X243000000Y-178000000D03*
X33000000Y-193000000D03*
X168000000Y-178000000D03*
X153000000Y-63000000D03*
X288000000Y-193000000D03*
X248000000Y-218000000D03*
X288000000Y-268000000D03*
X223000000Y-253000000D03*
X163000000Y-58000000D03*
X198000000Y-188000000D03*
X33000000Y-183000000D03*
X228000000Y-203000000D03*
X143000000Y-168000000D03*
X258000000Y-163000000D03*
X113000000Y-248000000D03*
X83000000Y-233000000D03*
X233000000Y-248000000D03*
X288000000Y-63000000D03*
X233000000Y-243000000D03*
X173000000Y-223000000D03*
X203000000Y-268000000D03*
X243000000Y-33000000D03*
X53000000Y-83000000D03*
X243000000Y-93000000D03*
X58000000Y-263000000D03*
X233000000Y-233000000D03*
X83000000Y-68000000D03*
X228000000Y-83000000D03*
X273000000Y-138000000D03*
X43000000Y-83000000D03*
X258000000Y-123000000D03*
X108000000Y-273000000D03*
X243000000Y-43000000D03*
X103000000Y-278000000D03*
X218000000Y-138000000D03*
X238000000Y-273000000D03*
X83000000Y-28000000D03*
X158000000Y-253000000D03*
X228000000Y-98000000D03*
X83000000Y-173000000D03*
X28000000Y-33000000D03*
X63000000Y-198000000D03*
X73000000Y-218000000D03*
X28000000Y-63000000D03*
X18000000Y-93000000D03*
X78000000Y-93000000D03*
X258000000Y-53000000D03*
X208000000Y-203000000D03*
X183000000Y-28000000D03*
X118000000Y-248000000D03*
X68000000Y-243000000D03*
X263000000Y-268000000D03*
X153000000Y-228000000D03*
X248000000Y-238000000D03*
X288000000Y-213000000D03*
X283000000Y-248000000D03*
X23000000Y-63000000D03*
X263000000Y-138000000D03*
X253000000Y-248000000D03*
X293000000Y-243000000D03*
X163000000Y-198000000D03*
X213000000Y-268000000D03*
X198000000Y-48000000D03*
X148000000Y-278000000D03*
X133000000Y-193000000D03*
X238000000Y-48000000D03*
X268000000Y-58000000D03*
X208000000Y-128000000D03*
X88000000Y-218000000D03*
X73000000Y-273000000D03*
X48000000Y-18000000D03*
D13*
X163600000Y-84033333D03*
D12*
X243000000Y-133000000D03*
X298000000Y-183000000D03*
X278000000Y-98000000D03*
X123000000Y-273000000D03*
X193000000Y-23000000D03*
X28000000Y-148000000D03*
X93000000Y-148000000D03*
X143000000Y-88000000D03*
X243000000Y-253000000D03*
X263000000Y-218000000D03*
X183000000Y-168000000D03*
X243000000Y-263000000D03*
X28000000Y-18000000D03*
X233000000Y-148000000D03*
X68000000Y-73000000D03*
X188000000Y-73000000D03*
X218000000Y-148000000D03*
X28000000Y-28000000D03*
X163000000Y-193000000D03*
X293000000Y-173000000D03*
X158000000Y-173000000D03*
X103000000Y-208000000D03*
X273000000Y-98000000D03*
X123000000Y-278000000D03*
X88000000Y-133000000D03*
X28000000Y-143000000D03*
X183000000Y-153000000D03*
X103000000Y-243000000D03*
X53000000Y-138000000D03*
X238000000Y-88000000D03*
X53000000Y-33000000D03*
D13*
X161600000Y-86033333D03*
D12*
X93000000Y-123000000D03*
X158000000Y-63000000D03*
X103000000Y-48000000D03*
X293000000Y-53000000D03*
X293000000Y-233000000D03*
X18000000Y-123000000D03*
X163000000Y-68000000D03*
X273000000Y-118000000D03*
X118000000Y-128000000D03*
X223000000Y-118000000D03*
X18000000Y-38000000D03*
X68000000Y-58000000D03*
X218000000Y-263000000D03*
X53000000Y-108000000D03*
X258000000Y-28000000D03*
X263000000Y-228000000D03*
X158000000Y-228000000D03*
X158000000Y-258000000D03*
X143000000Y-113000000D03*
X133000000Y-38000000D03*
X263000000Y-123000000D03*
X133000000Y-93000000D03*
X108000000Y-33000000D03*
X293000000Y-193000000D03*
X228000000Y-73000000D03*
X213000000Y-258000000D03*
X303000000Y-238000000D03*
X33000000Y-118000000D03*
X133000000Y-253000000D03*
D13*
X161549999Y-80033333D03*
D12*
X148000000Y-118000000D03*
X218000000Y-33000000D03*
D13*
X164549999Y-80033333D03*
D12*
X163000000Y-63000000D03*
X233000000Y-88000000D03*
X198000000Y-18000000D03*
X78000000Y-113000000D03*
X133000000Y-108000000D03*
X283000000Y-123000000D03*
X268000000Y-63000000D03*
X198000000Y-273000000D03*
X168000000Y-108000000D03*
X153000000Y-213000000D03*
X263000000Y-133000000D03*
X238000000Y-228000000D03*
X53000000Y-73000000D03*
X88000000Y-33000000D03*
X288000000Y-128000000D03*
X223000000Y-213000000D03*
X288000000Y-138000000D03*
X248000000Y-28000000D03*
X263000000Y-143000000D03*
X228000000Y-243000000D03*
X288000000Y-123000000D03*
X258000000Y-228000000D03*
X268000000Y-243000000D03*
X113000000Y-278000000D03*
X48000000Y-168000000D03*
X218000000Y-168000000D03*
X288000000Y-58000000D03*
X103000000Y-88000000D03*
X203000000Y-108000000D03*
X218000000Y-23000000D03*
X293000000Y-168000000D03*
X188000000Y-98000000D03*
X258000000Y-38000000D03*
X83000000Y-23000000D03*
X278000000Y-133000000D03*
X148000000Y-48000000D03*
X38000000Y-198000000D03*
X273000000Y-148000000D03*
X188000000Y-48000000D03*
X268000000Y-208000000D03*
X223000000Y-63000000D03*
X213000000Y-88000000D03*
X38000000Y-268000000D03*
X23000000Y-78000000D03*
X303000000Y-153000000D03*
X103000000Y-268000000D03*
X198000000Y-253000000D03*
X43000000Y-43000000D03*
X128000000Y-68000000D03*
X138000000Y-143000000D03*
X98000000Y-53000000D03*
X73000000Y-138000000D03*
X148000000Y-228000000D03*
X258000000Y-98000000D03*
X113000000Y-168000000D03*
X278000000Y-53000000D03*
X178000000Y-263000000D03*
X138000000Y-108000000D03*
X118000000Y-43000000D03*
X38000000Y-223000000D03*
X188000000Y-133000000D03*
X293000000Y-38000000D03*
X113000000Y-268000000D03*
X298000000Y-108000000D03*
X83000000Y-148000000D03*
X128000000Y-233000000D03*
X33000000Y-128000000D03*
X278000000Y-238000000D03*
X58000000Y-203000000D03*
X143000000Y-108000000D03*
X63000000Y-163000000D03*
X243000000Y-148000000D03*
X183000000Y-128000000D03*
X228000000Y-248000000D03*
X243000000Y-243000000D03*
X43000000Y-173000000D03*
X23000000Y-73000000D03*
X78000000Y-148000000D03*
X143000000Y-183000000D03*
X198000000Y-163000000D03*
X33000000Y-203000000D03*
X108000000Y-193000000D03*
X133000000Y-178000000D03*
X183000000Y-58000000D03*
X28000000Y-53000000D03*
X148000000Y-173000000D03*
X273000000Y-128000000D03*
X118000000Y-203000000D03*
X208000000Y-218000000D03*
X93000000Y-258000000D03*
X178000000Y-108000000D03*
X288000000Y-113000000D03*
X148000000Y-253000000D03*
X48000000Y-118000000D03*
X33000000Y-73000000D03*
X168000000Y-223000000D03*
X233000000Y-63000000D03*
X88000000Y-243000000D03*
X23000000Y-158000000D03*
X288000000Y-248000000D03*
X208000000Y-83000000D03*
X158000000Y-48000000D03*
X93000000Y-58000000D03*
X223000000Y-158000000D03*
X98000000Y-203000000D03*
X193000000Y-248000000D03*
X243000000Y-273000000D03*
X48000000Y-253000000D03*
X263000000Y-108000000D03*
X28000000Y-98000000D03*
X48000000Y-48000000D03*
X208000000Y-253000000D03*
X78000000Y-248000000D03*
X193000000Y-218000000D03*
X108000000Y-28000000D03*
X228000000Y-183000000D03*
X118000000Y-193000000D03*
X53000000Y-53000000D03*
X18000000Y-278000000D03*
X23000000Y-188000000D03*
D13*
X162549999Y-84033333D03*
D12*
X163000000Y-103000000D03*
X288000000Y-243000000D03*
X268000000Y-123000000D03*
X58000000Y-238000000D03*
X48000000Y-108000000D03*
X213000000Y-28000000D03*
X108000000Y-118000000D03*
X163000000Y-218000000D03*
X93000000Y-43000000D03*
X173000000Y-263000000D03*
X223000000Y-273000000D03*
X68000000Y-28000000D03*
X133000000Y-213000000D03*
X58000000Y-253000000D03*
X298000000Y-263000000D03*
X193000000Y-148000000D03*
X138000000Y-33000000D03*
X183000000Y-23000000D03*
X158000000Y-203000000D03*
X83000000Y-248000000D03*
X88000000Y-268000000D03*
X293000000Y-43000000D03*
X143000000Y-188000000D03*
X188000000Y-43000000D03*
X193000000Y-253000000D03*
X18000000Y-208000000D03*
X173000000Y-38000000D03*
X268000000Y-233000000D03*
X18000000Y-138000000D03*
X268000000Y-148000000D03*
X268000000Y-73000000D03*
X283000000Y-33000000D03*
X83000000Y-108000000D03*
X268000000Y-93000000D03*
X263000000Y-153000000D03*
X248000000Y-113000000D03*
X278000000Y-23000000D03*
X83000000Y-73000000D03*
X238000000Y-18000000D03*
X83000000Y-128000000D03*
X103000000Y-103000000D03*
X18000000Y-33000000D03*
X103000000Y-28000000D03*
X188000000Y-213000000D03*
X143000000Y-208000000D03*
X198000000Y-193000000D03*
X248000000Y-153000000D03*
X128000000Y-148000000D03*
X163000000Y-253000000D03*
X193000000Y-138000000D03*
X53000000Y-133000000D03*
X73000000Y-153000000D03*
X223000000Y-43000000D03*
X153000000Y-273000000D03*
X303000000Y-28000000D03*
X303000000Y-218000000D03*
X108000000Y-183000000D03*
X158000000Y-273000000D03*
X158000000Y-113000000D03*
X248000000Y-163000000D03*
X18000000Y-223000000D03*
X98000000Y-208000000D03*
X208000000Y-28000000D03*
X138000000Y-38000000D03*
X258000000Y-213000000D03*
X278000000Y-263000000D03*
X63000000Y-258000000D03*
X163000000Y-183000000D03*
X83000000Y-88000000D03*
X238000000Y-263000000D03*
D13*
X162549999Y-83033333D03*
D12*
X223000000Y-198000000D03*
X138000000Y-188000000D03*
X138000000Y-218000000D03*
X18000000Y-168000000D03*
X298000000Y-218000000D03*
X33000000Y-143000000D03*
X38000000Y-43000000D03*
X213000000Y-163000000D03*
X63000000Y-168000000D03*
X73000000Y-233000000D03*
X53000000Y-238000000D03*
X178000000Y-128000000D03*
X138000000Y-193000000D03*
X218000000Y-228000000D03*
X258000000Y-203000000D03*
X173000000Y-258000000D03*
X238000000Y-118000000D03*
X208000000Y-63000000D03*
X243000000Y-58000000D03*
X168000000Y-98000000D03*
X223000000Y-103000000D03*
X168000000Y-38000000D03*
X158000000Y-248000000D03*
X183000000Y-188000000D03*
X223000000Y-68000000D03*
X128000000Y-113000000D03*
X248000000Y-108000000D03*
X143000000Y-278000000D03*
X238000000Y-78000000D03*
X283000000Y-73000000D03*
X188000000Y-63000000D03*
X108000000Y-188000000D03*
X38000000Y-28000000D03*
X63000000Y-153000000D03*
X28000000Y-203000000D03*
X238000000Y-103000000D03*
X73000000Y-38000000D03*
X108000000Y-23000000D03*
X83000000Y-43000000D03*
X158000000Y-133000000D03*
X238000000Y-198000000D03*
X168000000Y-88000000D03*
X53000000Y-98000000D03*
X223000000Y-163000000D03*
X263000000Y-233000000D03*
X18000000Y-113000000D03*
X83000000Y-223000000D03*
X203000000Y-48000000D03*
X63000000Y-273000000D03*
D13*
X162600000Y-82033333D03*
D12*
X193000000Y-263000000D03*
X138000000Y-178000000D03*
X98000000Y-153000000D03*
X178000000Y-143000000D03*
X143000000Y-118000000D03*
X298000000Y-43000000D03*
X83000000Y-268000000D03*
X213000000Y-133000000D03*
X153000000Y-153000000D03*
X273000000Y-103000000D03*
X283000000Y-88000000D03*
X33000000Y-113000000D03*
X138000000Y-278000000D03*
X203000000Y-63000000D03*
X153000000Y-183000000D03*
X228000000Y-63000000D03*
X173000000Y-83000000D03*
X278000000Y-213000000D03*
X148000000Y-83000000D03*
X203000000Y-238000000D03*
X38000000Y-258000000D03*
X288000000Y-18000000D03*
X178000000Y-133000000D03*
X283000000Y-208000000D03*
X163000000Y-188000000D03*
X78000000Y-223000000D03*
X168000000Y-278000000D03*
X73000000Y-188000000D03*
X143000000Y-53000000D03*
X198000000Y-228000000D03*
X183000000Y-43000000D03*
X83000000Y-213000000D03*
X28000000Y-253000000D03*
X38000000Y-148000000D03*
X58000000Y-258000000D03*
X108000000Y-258000000D03*
X38000000Y-178000000D03*
X53000000Y-88000000D03*
X148000000Y-213000000D03*
X93000000Y-208000000D03*
X23000000Y-248000000D03*
X108000000Y-228000000D03*
X33000000Y-88000000D03*
X213000000Y-68000000D03*
X173000000Y-143000000D03*
X63000000Y-128000000D03*
X178000000Y-138000000D03*
X218000000Y-248000000D03*
X148000000Y-63000000D03*
X203000000Y-263000000D03*
X263000000Y-28000000D03*
X248000000Y-48000000D03*
X103000000Y-98000000D03*
X198000000Y-173000000D03*
X18000000Y-28000000D03*
X153000000Y-248000000D03*
X163000000Y-43000000D03*
X38000000Y-158000000D03*
X223000000Y-128000000D03*
X108000000Y-248000000D03*
X188000000Y-158000000D03*
X98000000Y-268000000D03*
X138000000Y-168000000D03*
X163000000Y-38000000D03*
X118000000Y-58000000D03*
X243000000Y-233000000D03*
X33000000Y-133000000D03*
X293000000Y-18000000D03*
X158000000Y-73000000D03*
X173000000Y-208000000D03*
X293000000Y-223000000D03*
X283000000Y-83000000D03*
X33000000Y-43000000D03*
X213000000Y-253000000D03*
X98000000Y-253000000D03*
X288000000Y-258000000D03*
X278000000Y-63000000D03*
X158000000Y-58000000D03*
X203000000Y-113000000D03*
X133000000Y-158000000D03*
X128000000Y-18000000D03*
X253000000Y-158000000D03*
X248000000Y-198000000D03*
X93000000Y-138000000D03*
X233000000Y-48000000D03*
X68000000Y-178000000D03*
X18000000Y-253000000D03*
X238000000Y-183000000D03*
X303000000Y-48000000D03*
X43000000Y-178000000D03*
X113000000Y-223000000D03*
X238000000Y-143000000D03*
X18000000Y-18000000D03*
X283000000Y-278000000D03*
X103000000Y-158000000D03*
X243000000Y-73000000D03*
X273000000Y-198000000D03*
X153000000Y-278000000D03*
X98000000Y-218000000D03*
X18000000Y-248000000D03*
X228000000Y-208000000D03*
X223000000Y-258000000D03*
X143000000Y-33000000D03*
X118000000Y-268000000D03*
X238000000Y-218000000D03*
X28000000Y-68000000D03*
X138000000Y-128000000D03*
X248000000Y-18000000D03*
X78000000Y-198000000D03*
X118000000Y-188000000D03*
X63000000Y-108000000D03*
X53000000Y-78000000D03*
X203000000Y-208000000D03*
X228000000Y-38000000D03*
X118000000Y-118000000D03*
X208000000Y-198000000D03*
X53000000Y-163000000D03*
X243000000Y-53000000D03*
X233000000Y-168000000D03*
X98000000Y-263000000D03*
X263000000Y-203000000D03*
X93000000Y-28000000D03*
X188000000Y-253000000D03*
X248000000Y-103000000D03*
X103000000Y-128000000D03*
X233000000Y-18000000D03*
X63000000Y-143000000D03*
X33000000Y-233000000D03*
X288000000Y-133000000D03*
X173000000Y-18000000D03*
X278000000Y-218000000D03*
X303000000Y-83000000D03*
D13*
X162549999Y-85033333D03*
D12*
X128000000Y-253000000D03*
X23000000Y-203000000D03*
X118000000Y-183000000D03*
X273000000Y-173000000D03*
X288000000Y-228000000D03*
X218000000Y-133000000D03*
X228000000Y-168000000D03*
X208000000Y-98000000D03*
X283000000Y-148000000D03*
X198000000Y-73000000D03*
X48000000Y-93000000D03*
X208000000Y-123000000D03*
X43000000Y-143000000D03*
X248000000Y-183000000D03*
X168000000Y-28000000D03*
X108000000Y-88000000D03*
X63000000Y-63000000D03*
X233000000Y-193000000D03*
X243000000Y-223000000D03*
X198000000Y-88000000D03*
X218000000Y-203000000D03*
X98000000Y-178000000D03*
X183000000Y-248000000D03*
X43000000Y-68000000D03*
X68000000Y-263000000D03*
X178000000Y-278000000D03*
X108000000Y-148000000D03*
X33000000Y-68000000D03*
X283000000Y-48000000D03*
X98000000Y-138000000D03*
X163000000Y-233000000D03*
X28000000Y-108000000D03*
X93000000Y-118000000D03*
X183000000Y-143000000D03*
X58000000Y-223000000D03*
X153000000Y-238000000D03*
X253000000Y-88000000D03*
X68000000Y-258000000D03*
X118000000Y-138000000D03*
X28000000Y-188000000D03*
X243000000Y-173000000D03*
X243000000Y-143000000D03*
X18000000Y-228000000D03*
X228000000Y-143000000D03*
X103000000Y-138000000D03*
X83000000Y-53000000D03*
X188000000Y-273000000D03*
X223000000Y-183000000D03*
X118000000Y-168000000D03*
X253000000Y-253000000D03*
X258000000Y-238000000D03*
X218000000Y-153000000D03*
X33000000Y-228000000D03*
X53000000Y-188000000D03*
X268000000Y-108000000D03*
X43000000Y-48000000D03*
X193000000Y-143000000D03*
X48000000Y-58000000D03*
X273000000Y-268000000D03*
X188000000Y-153000000D03*
X303000000Y-18000000D03*
X253000000Y-68000000D03*
X233000000Y-263000000D03*
D13*
X160600000Y-83033333D03*
D12*
X33000000Y-188000000D03*
X63000000Y-18000000D03*
X63000000Y-88000000D03*
X158000000Y-68000000D03*
X298000000Y-28000000D03*
X168000000Y-33000000D03*
X178000000Y-33000000D03*
X218000000Y-253000000D03*
X18000000Y-63000000D03*
X298000000Y-228000000D03*
X153000000Y-233000000D03*
X128000000Y-188000000D03*
X288000000Y-53000000D03*
X23000000Y-113000000D03*
X253000000Y-48000000D03*
X298000000Y-18000000D03*
X83000000Y-198000000D03*
X123000000Y-98000000D03*
X208000000Y-158000000D03*
X113000000Y-108000000D03*
X68000000Y-88000000D03*
D13*
X161600000Y-82033333D03*
D12*
X203000000Y-128000000D03*
X68000000Y-128000000D03*
X133000000Y-188000000D03*
X248000000Y-138000000D03*
X133000000Y-88000000D03*
X303000000Y-33000000D03*
X123000000Y-18000000D03*
X133000000Y-248000000D03*
X83000000Y-253000000D03*
X303000000Y-243000000D03*
X173000000Y-68000000D03*
X218000000Y-113000000D03*
X288000000Y-143000000D03*
X183000000Y-223000000D03*
X78000000Y-33000000D03*
D13*
X161549999Y-82033333D03*
D12*
X263000000Y-58000000D03*
X188000000Y-78000000D03*
X183000000Y-73000000D03*
X123000000Y-248000000D03*
X118000000Y-208000000D03*
X173000000Y-203000000D03*
X38000000Y-123000000D03*
X58000000Y-218000000D03*
X128000000Y-63000000D03*
X53000000Y-248000000D03*
X128000000Y-38000000D03*
X133000000Y-148000000D03*
X203000000Y-198000000D03*
X198000000Y-178000000D03*
X118000000Y-108000000D03*
X68000000Y-33000000D03*
X298000000Y-143000000D03*
X73000000Y-83000000D03*
X168000000Y-133000000D03*
X243000000Y-138000000D03*
X123000000Y-33000000D03*
X243000000Y-203000000D03*
X83000000Y-143000000D03*
D13*
X163549999Y-84033333D03*
D12*
X303000000Y-138000000D03*
X68000000Y-198000000D03*
X108000000Y-108000000D03*
X38000000Y-188000000D03*
X48000000Y-268000000D03*
X298000000Y-78000000D03*
X188000000Y-88000000D03*
X178000000Y-48000000D03*
X68000000Y-103000000D03*
X103000000Y-93000000D03*
X18000000Y-48000000D03*
X58000000Y-58000000D03*
X28000000Y-213000000D03*
X253000000Y-38000000D03*
X278000000Y-153000000D03*
X293000000Y-113000000D03*
X58000000Y-68000000D03*
X83000000Y-208000000D03*
X283000000Y-43000000D03*
X158000000Y-93000000D03*
X58000000Y-103000000D03*
X288000000Y-208000000D03*
X123000000Y-263000000D03*
X78000000Y-28000000D03*
X128000000Y-23000000D03*
X153000000Y-193000000D03*
X178000000Y-58000000D03*
X198000000Y-98000000D03*
X128000000Y-218000000D03*
X93000000Y-188000000D03*
X188000000Y-113000000D03*
X198000000Y-203000000D03*
X303000000Y-133000000D03*
X303000000Y-148000000D03*
X83000000Y-123000000D03*
X148000000Y-103000000D03*
X48000000Y-248000000D03*
X103000000Y-273000000D03*
X128000000Y-208000000D03*
X48000000Y-68000000D03*
X53000000Y-278000000D03*
X173000000Y-173000000D03*
X233000000Y-183000000D03*
X63000000Y-38000000D03*
X218000000Y-53000000D03*
X158000000Y-158000000D03*
X83000000Y-48000000D03*
X178000000Y-68000000D03*
X228000000Y-133000000D03*
X53000000Y-203000000D03*
X248000000Y-263000000D03*
X178000000Y-28000000D03*
X33000000Y-163000000D03*
X63000000Y-68000000D03*
X238000000Y-138000000D03*
X63000000Y-243000000D03*
X143000000Y-93000000D03*
X238000000Y-38000000D03*
X48000000Y-88000000D03*
X88000000Y-263000000D03*
X138000000Y-158000000D03*
X168000000Y-198000000D03*
X88000000Y-83000000D03*
X18000000Y-188000000D03*
X293000000Y-248000000D03*
X298000000Y-148000000D03*
X253000000Y-108000000D03*
X283000000Y-273000000D03*
X178000000Y-258000000D03*
D13*
X161549999Y-81033333D03*
D12*
X113000000Y-118000000D03*
X108000000Y-113000000D03*
X23000000Y-133000000D03*
X258000000Y-48000000D03*
X78000000Y-133000000D03*
X163000000Y-93000000D03*
X203000000Y-233000000D03*
X58000000Y-88000000D03*
X53000000Y-153000000D03*
X248000000Y-43000000D03*
X168000000Y-273000000D03*
X203000000Y-278000000D03*
X53000000Y-263000000D03*
X118000000Y-173000000D03*
X68000000Y-143000000D03*
X58000000Y-133000000D03*
X33000000Y-53000000D03*
X43000000Y-58000000D03*
X33000000Y-103000000D03*
X278000000Y-103000000D03*
X223000000Y-138000000D03*
X118000000Y-223000000D03*
X253000000Y-163000000D03*
X58000000Y-208000000D03*
X93000000Y-23000000D03*
X273000000Y-238000000D03*
X278000000Y-168000000D03*
X78000000Y-158000000D03*
X158000000Y-213000000D03*
X253000000Y-228000000D03*
D13*
X163600000Y-86033333D03*
D12*
X38000000Y-138000000D03*
X128000000Y-98000000D03*
X63000000Y-93000000D03*
X163000000Y-48000000D03*
X73000000Y-228000000D03*
X168000000Y-213000000D03*
X68000000Y-108000000D03*
X258000000Y-233000000D03*
X58000000Y-38000000D03*
X138000000Y-28000000D03*
X288000000Y-158000000D03*
X223000000Y-88000000D03*
X153000000Y-103000000D03*
X113000000Y-213000000D03*
X138000000Y-173000000D03*
X88000000Y-233000000D03*
X293000000Y-143000000D03*
X23000000Y-208000000D03*
X293000000Y-48000000D03*
X188000000Y-33000000D03*
X73000000Y-168000000D03*
X233000000Y-198000000D03*
X83000000Y-238000000D03*
X83000000Y-263000000D03*
X103000000Y-33000000D03*
X258000000Y-258000000D03*
X153000000Y-28000000D03*
X148000000Y-23000000D03*
X163000000Y-53000000D03*
X68000000Y-123000000D03*
X48000000Y-278000000D03*
X78000000Y-178000000D03*
X98000000Y-83000000D03*
X28000000Y-158000000D03*
X38000000Y-203000000D03*
X43000000Y-78000000D03*
X293000000Y-253000000D03*
X183000000Y-98000000D03*
X258000000Y-243000000D03*
X83000000Y-133000000D03*
X208000000Y-23000000D03*
X298000000Y-178000000D03*
X168000000Y-208000000D03*
X213000000Y-228000000D03*
X158000000Y-238000000D03*
X68000000Y-138000000D03*
X298000000Y-233000000D03*
X238000000Y-83000000D03*
X258000000Y-43000000D03*
X223000000Y-83000000D03*
X78000000Y-168000000D03*
X273000000Y-178000000D03*
X68000000Y-43000000D03*
X263000000Y-18000000D03*
X258000000Y-133000000D03*
X173000000Y-168000000D03*
X183000000Y-233000000D03*
X58000000Y-18000000D03*
X253000000Y-143000000D03*
X18000000Y-153000000D03*
X183000000Y-193000000D03*
X203000000Y-153000000D03*
X198000000Y-93000000D03*
X108000000Y-223000000D03*
X158000000Y-223000000D03*
X293000000Y-118000000D03*
X98000000Y-43000000D03*
D13*
X160600000Y-82033333D03*
D12*
X173000000Y-193000000D03*
X73000000Y-28000000D03*
X98000000Y-128000000D03*
X108000000Y-198000000D03*
X278000000Y-243000000D03*
X268000000Y-138000000D03*
X218000000Y-178000000D03*
X183000000Y-18000000D03*
X118000000Y-278000000D03*
X53000000Y-268000000D03*
X98000000Y-103000000D03*
X133000000Y-18000000D03*
X98000000Y-158000000D03*
X223000000Y-28000000D03*
X73000000Y-53000000D03*
X283000000Y-243000000D03*
X223000000Y-243000000D03*
X78000000Y-43000000D03*
X293000000Y-258000000D03*
X293000000Y-203000000D03*
X143000000Y-23000000D03*
X183000000Y-203000000D03*
X223000000Y-53000000D03*
X153000000Y-83000000D03*
X28000000Y-133000000D03*
X248000000Y-88000000D03*
X173000000Y-243000000D03*
X143000000Y-178000000D03*
D13*
X164549999Y-81033333D03*
D12*
X148000000Y-153000000D03*
X278000000Y-138000000D03*
X123000000Y-58000000D03*
X58000000Y-268000000D03*
X123000000Y-68000000D03*
X258000000Y-93000000D03*
X123000000Y-198000000D03*
X163000000Y-248000000D03*
X88000000Y-23000000D03*
X168000000Y-243000000D03*
X148000000Y-188000000D03*
X23000000Y-183000000D03*
X148000000Y-148000000D03*
X248000000Y-278000000D03*
X63000000Y-223000000D03*
X38000000Y-98000000D03*
X88000000Y-208000000D03*
X28000000Y-223000000D03*
X278000000Y-233000000D03*
X173000000Y-98000000D03*
X298000000Y-188000000D03*
X168000000Y-248000000D03*
X258000000Y-278000000D03*
X168000000Y-153000000D03*
X38000000Y-118000000D03*
X278000000Y-83000000D03*
X18000000Y-243000000D03*
X63000000Y-158000000D03*
X93000000Y-93000000D03*
X18000000Y-173000000D03*
X28000000Y-138000000D03*
X188000000Y-18000000D03*
X88000000Y-138000000D03*
X48000000Y-138000000D03*
X273000000Y-193000000D03*
X43000000Y-213000000D03*
X118000000Y-78000000D03*
X213000000Y-248000000D03*
X58000000Y-113000000D03*
X103000000Y-148000000D03*
X133000000Y-68000000D03*
X213000000Y-73000000D03*
X288000000Y-73000000D03*
X253000000Y-238000000D03*
X248000000Y-248000000D03*
X183000000Y-208000000D03*
D13*
X160600000Y-79033333D03*
D12*
X123000000Y-183000000D03*
X193000000Y-63000000D03*
X283000000Y-153000000D03*
X118000000Y-233000000D03*
X223000000Y-18000000D03*
X103000000Y-38000000D03*
X33000000Y-83000000D03*
X43000000Y-238000000D03*
X133000000Y-53000000D03*
X298000000Y-98000000D03*
X98000000Y-243000000D03*
X203000000Y-83000000D03*
X113000000Y-138000000D03*
X293000000Y-58000000D03*
X253000000Y-123000000D03*
X183000000Y-178000000D03*
X123000000Y-243000000D03*
X93000000Y-63000000D03*
X38000000Y-263000000D03*
X233000000Y-93000000D03*
X53000000Y-168000000D03*
X128000000Y-163000000D03*
X133000000Y-233000000D03*
X223000000Y-23000000D03*
X138000000Y-43000000D03*
X38000000Y-238000000D03*
X178000000Y-238000000D03*
X33000000Y-213000000D03*
X213000000Y-223000000D03*
X218000000Y-173000000D03*
X113000000Y-173000000D03*
X28000000Y-103000000D03*
X268000000Y-48000000D03*
X273000000Y-243000000D03*
X148000000Y-203000000D03*
X143000000Y-158000000D03*
X203000000Y-28000000D03*
X218000000Y-78000000D03*
X68000000Y-148000000D03*
X238000000Y-178000000D03*
X138000000Y-248000000D03*
X73000000Y-103000000D03*
X298000000Y-253000000D03*
X198000000Y-183000000D03*
X303000000Y-123000000D03*
X178000000Y-118000000D03*
X248000000Y-168000000D03*
X153000000Y-128000000D03*
X148000000Y-273000000D03*
X208000000Y-278000000D03*
X58000000Y-53000000D03*
X173000000Y-88000000D03*
X18000000Y-143000000D03*
X93000000Y-78000000D03*
X123000000Y-143000000D03*
X198000000Y-23000000D03*
X123000000Y-203000000D03*
D13*
X163549999Y-82033333D03*
D12*
X298000000Y-268000000D03*
X23000000Y-43000000D03*
X243000000Y-168000000D03*
X163000000Y-138000000D03*
X213000000Y-183000000D03*
X293000000Y-63000000D03*
X173000000Y-28000000D03*
X168000000Y-18000000D03*
X88000000Y-73000000D03*
X303000000Y-158000000D03*
X18000000Y-233000000D03*
X218000000Y-233000000D03*
X113000000Y-148000000D03*
X123000000Y-138000000D03*
X218000000Y-163000000D03*
X23000000Y-233000000D03*
X158000000Y-78000000D03*
X223000000Y-93000000D03*
X228000000Y-268000000D03*
X228000000Y-178000000D03*
X68000000Y-18000000D03*
X58000000Y-123000000D03*
X133000000Y-258000000D03*
D13*
X162549999Y-79033333D03*
D12*
X208000000Y-38000000D03*
X238000000Y-28000000D03*
X223000000Y-203000000D03*
X228000000Y-88000000D03*
X173000000Y-228000000D03*
X153000000Y-68000000D03*
X228000000Y-238000000D03*
X58000000Y-63000000D03*
X48000000Y-228000000D03*
X148000000Y-193000000D03*
X193000000Y-158000000D03*
X258000000Y-118000000D03*
X188000000Y-58000000D03*
X53000000Y-233000000D03*
X103000000Y-153000000D03*
X43000000Y-73000000D03*
X63000000Y-183000000D03*
X73000000Y-133000000D03*
X253000000Y-63000000D03*
X118000000Y-143000000D03*
X213000000Y-108000000D03*
X33000000Y-78000000D03*
X28000000Y-208000000D03*
X48000000Y-238000000D03*
X108000000Y-268000000D03*
X148000000Y-258000000D03*
X263000000Y-88000000D03*
X268000000Y-248000000D03*
X283000000Y-183000000D03*
X263000000Y-148000000D03*
X163000000Y-208000000D03*
X188000000Y-208000000D03*
X278000000Y-88000000D03*
X278000000Y-258000000D03*
X103000000Y-233000000D03*
X23000000Y-223000000D03*
X233000000Y-163000000D03*
X68000000Y-78000000D03*
X128000000Y-173000000D03*
X18000000Y-238000000D03*
X273000000Y-168000000D03*
X68000000Y-133000000D03*
X178000000Y-158000000D03*
X208000000Y-238000000D03*
X38000000Y-133000000D03*
X278000000Y-173000000D03*
X283000000Y-203000000D03*
X193000000Y-178000000D03*
X38000000Y-103000000D03*
X58000000Y-43000000D03*
X263000000Y-38000000D03*
X203000000Y-138000000D03*
X128000000Y-133000000D03*
X243000000Y-113000000D03*
X193000000Y-103000000D03*
X168000000Y-233000000D03*
X263000000Y-198000000D03*
X203000000Y-258000000D03*
X238000000Y-33000000D03*
X238000000Y-43000000D03*
X38000000Y-193000000D03*
X303000000Y-108000000D03*
X298000000Y-168000000D03*
X123000000Y-153000000D03*
X133000000Y-98000000D03*
X63000000Y-173000000D03*
X103000000Y-63000000D03*
X238000000Y-233000000D03*
X278000000Y-198000000D03*
D13*
X164549999Y-84033333D03*
D12*
X83000000Y-103000000D03*
X78000000Y-228000000D03*
X28000000Y-193000000D03*
X18000000Y-103000000D03*
X148000000Y-98000000D03*
X198000000Y-68000000D03*
X113000000Y-73000000D03*
X288000000Y-233000000D03*
X23000000Y-218000000D03*
X113000000Y-88000000D03*
X133000000Y-63000000D03*
X163000000Y-243000000D03*
X33000000Y-173000000D03*
X188000000Y-238000000D03*
X228000000Y-148000000D03*
X203000000Y-158000000D03*
X153000000Y-163000000D03*
X143000000Y-48000000D03*
X53000000Y-243000000D03*
X218000000Y-188000000D03*
X93000000Y-218000000D03*
X198000000Y-153000000D03*
X128000000Y-103000000D03*
X73000000Y-248000000D03*
X153000000Y-253000000D03*
X153000000Y-58000000D03*
X293000000Y-188000000D03*
X83000000Y-113000000D03*
X233000000Y-113000000D03*
X243000000Y-103000000D03*
X168000000Y-263000000D03*
X28000000Y-123000000D03*
X143000000Y-233000000D03*
X158000000Y-38000000D03*
X228000000Y-113000000D03*
X123000000Y-78000000D03*
X203000000Y-183000000D03*
X178000000Y-88000000D03*
X28000000Y-113000000D03*
X68000000Y-233000000D03*
X168000000Y-68000000D03*
X178000000Y-98000000D03*
X18000000Y-258000000D03*
X273000000Y-183000000D03*
X213000000Y-103000000D03*
X58000000Y-173000000D03*
X278000000Y-278000000D03*
X248000000Y-143000000D03*
X203000000Y-98000000D03*
X208000000Y-228000000D03*
X148000000Y-78000000D03*
X93000000Y-18000000D03*
X298000000Y-118000000D03*
X128000000Y-78000000D03*
X163000000Y-173000000D03*
X273000000Y-278000000D03*
X93000000Y-128000000D03*
X113000000Y-53000000D03*
X88000000Y-78000000D03*
X273000000Y-43000000D03*
X158000000Y-188000000D03*
X188000000Y-263000000D03*
X63000000Y-43000000D03*
X128000000Y-268000000D03*
D13*
X163600000Y-81033333D03*
X163549999Y-81033333D03*
D12*
X153000000Y-23000000D03*
X33000000Y-98000000D03*
X213000000Y-148000000D03*
X213000000Y-158000000D03*
X228000000Y-198000000D03*
X183000000Y-33000000D03*
X203000000Y-73000000D03*
X183000000Y-148000000D03*
X83000000Y-193000000D03*
X273000000Y-53000000D03*
X93000000Y-278000000D03*
X93000000Y-243000000D03*
X273000000Y-208000000D03*
X303000000Y-38000000D03*
X113000000Y-233000000D03*
X133000000Y-198000000D03*
X128000000Y-53000000D03*
X243000000Y-63000000D03*
X168000000Y-253000000D03*
X68000000Y-273000000D03*
X113000000Y-258000000D03*
X83000000Y-153000000D03*
X213000000Y-233000000D03*
X208000000Y-108000000D03*
X18000000Y-58000000D03*
X238000000Y-23000000D03*
X173000000Y-268000000D03*
X93000000Y-143000000D03*
X63000000Y-78000000D03*
X48000000Y-98000000D03*
X108000000Y-233000000D03*
X48000000Y-148000000D03*
X53000000Y-128000000D03*
X123000000Y-118000000D03*
X193000000Y-98000000D03*
X303000000Y-113000000D03*
X163000000Y-153000000D03*
X118000000Y-178000000D03*
X163000000Y-23000000D03*
X88000000Y-123000000D03*
X128000000Y-143000000D03*
X23000000Y-18000000D03*
X213000000Y-43000000D03*
X53000000Y-103000000D03*
X73000000Y-78000000D03*
X248000000Y-63000000D03*
X103000000Y-108000000D03*
X88000000Y-38000000D03*
X153000000Y-263000000D03*
X253000000Y-113000000D03*
X108000000Y-203000000D03*
X18000000Y-203000000D03*
X133000000Y-278000000D03*
X258000000Y-193000000D03*
X168000000Y-168000000D03*
X28000000Y-248000000D03*
X78000000Y-108000000D03*
X88000000Y-273000000D03*
X148000000Y-183000000D03*
X288000000Y-148000000D03*
X33000000Y-218000000D03*
X303000000Y-128000000D03*
X248000000Y-93000000D03*
X253000000Y-148000000D03*
X283000000Y-168000000D03*
X233000000Y-68000000D03*
X288000000Y-273000000D03*
X173000000Y-33000000D03*
X198000000Y-213000000D03*
X213000000Y-173000000D03*
X183000000Y-228000000D03*
X233000000Y-138000000D03*
X248000000Y-223000000D03*
X118000000Y-28000000D03*
X183000000Y-278000000D03*
X303000000Y-173000000D03*
X83000000Y-78000000D03*
X38000000Y-218000000D03*
X258000000Y-268000000D03*
X73000000Y-23000000D03*
X93000000Y-213000000D03*
X23000000Y-193000000D03*
X263000000Y-93000000D03*
X153000000Y-173000000D03*
X248000000Y-118000000D03*
X193000000Y-113000000D03*
X203000000Y-68000000D03*
X233000000Y-123000000D03*
X198000000Y-278000000D03*
X123000000Y-83000000D03*
X23000000Y-33000000D03*
X183000000Y-48000000D03*
X253000000Y-58000000D03*
X93000000Y-183000000D03*
X38000000Y-108000000D03*
X213000000Y-243000000D03*
X268000000Y-173000000D03*
X153000000Y-113000000D03*
X273000000Y-133000000D03*
X93000000Y-228000000D03*
X268000000Y-278000000D03*
X288000000Y-198000000D03*
X113000000Y-93000000D03*
X23000000Y-58000000D03*
X78000000Y-128000000D03*
X23000000Y-128000000D03*
X63000000Y-213000000D03*
X133000000Y-203000000D03*
X98000000Y-248000000D03*
X268000000Y-133000000D03*
X203000000Y-133000000D03*
X203000000Y-23000000D03*
X28000000Y-273000000D03*
X233000000Y-278000000D03*
X143000000Y-163000000D03*
X218000000Y-123000000D03*
X173000000Y-138000000D03*
X63000000Y-178000000D03*
X98000000Y-168000000D03*
X273000000Y-143000000D03*
X233000000Y-273000000D03*
X183000000Y-138000000D03*
X293000000Y-23000000D03*
X118000000Y-213000000D03*
X293000000Y-238000000D03*
X168000000Y-268000000D03*
X228000000Y-258000000D03*
X188000000Y-83000000D03*
X28000000Y-178000000D03*
X188000000Y-258000000D03*
X143000000Y-253000000D03*
D13*
X162600000Y-79033333D03*
D12*
X283000000Y-103000000D03*
X143000000Y-28000000D03*
X123000000Y-253000000D03*
X213000000Y-128000000D03*
X303000000Y-118000000D03*
X258000000Y-103000000D03*
X233000000Y-38000000D03*
X83000000Y-118000000D03*
X158000000Y-18000000D03*
X73000000Y-43000000D03*
X88000000Y-18000000D03*
X88000000Y-53000000D03*
X43000000Y-248000000D03*
X188000000Y-168000000D03*
X183000000Y-158000000D03*
X183000000Y-118000000D03*
X223000000Y-233000000D03*
X93000000Y-103000000D03*
X148000000Y-133000000D03*
X228000000Y-43000000D03*
X268000000Y-53000000D03*
X268000000Y-103000000D03*
X198000000Y-198000000D03*
X43000000Y-273000000D03*
X193000000Y-58000000D03*
X258000000Y-223000000D03*
D13*
X163600000Y-82033333D03*
D12*
X243000000Y-98000000D03*
X198000000Y-133000000D03*
X248000000Y-58000000D03*
X198000000Y-243000000D03*
X118000000Y-258000000D03*
X83000000Y-218000000D03*
X113000000Y-188000000D03*
X73000000Y-73000000D03*
X178000000Y-113000000D03*
X148000000Y-113000000D03*
X258000000Y-73000000D03*
X248000000Y-158000000D03*
X18000000Y-73000000D03*
X138000000Y-183000000D03*
X48000000Y-243000000D03*
X68000000Y-158000000D03*
X288000000Y-43000000D03*
X148000000Y-68000000D03*
D13*
X164549999Y-86033333D03*
D12*
X248000000Y-228000000D03*
X193000000Y-173000000D03*
X148000000Y-58000000D03*
X238000000Y-108000000D03*
X288000000Y-103000000D03*
X113000000Y-243000000D03*
X103000000Y-18000000D03*
X98000000Y-38000000D03*
X133000000Y-243000000D03*
X273000000Y-248000000D03*
X263000000Y-78000000D03*
X63000000Y-228000000D03*
X303000000Y-193000000D03*
X158000000Y-178000000D03*
X198000000Y-53000000D03*
X73000000Y-98000000D03*
X238000000Y-113000000D03*
X58000000Y-153000000D03*
X103000000Y-53000000D03*
X258000000Y-128000000D03*
X218000000Y-143000000D03*
X53000000Y-273000000D03*
X73000000Y-213000000D03*
X158000000Y-118000000D03*
X268000000Y-43000000D03*
X23000000Y-268000000D03*
X203000000Y-88000000D03*
X148000000Y-223000000D03*
X163000000Y-278000000D03*
X73000000Y-183000000D03*
X178000000Y-208000000D03*
X108000000Y-208000000D03*
X243000000Y-198000000D03*
X258000000Y-168000000D03*
X228000000Y-278000000D03*
X208000000Y-258000000D03*
X103000000Y-168000000D03*
X298000000Y-198000000D03*
X68000000Y-163000000D03*
D13*
X164549999Y-83033333D03*
D12*
X208000000Y-193000000D03*
X113000000Y-228000000D03*
X168000000Y-43000000D03*
X48000000Y-63000000D03*
X228000000Y-18000000D03*
X158000000Y-108000000D03*
X148000000Y-38000000D03*
X98000000Y-228000000D03*
X143000000Y-133000000D03*
X283000000Y-133000000D03*
X273000000Y-73000000D03*
X198000000Y-118000000D03*
X103000000Y-198000000D03*
X283000000Y-263000000D03*
X93000000Y-108000000D03*
X138000000Y-78000000D03*
X178000000Y-233000000D03*
X168000000Y-48000000D03*
X253000000Y-173000000D03*
X48000000Y-83000000D03*
X88000000Y-128000000D03*
X133000000Y-128000000D03*
X83000000Y-138000000D03*
X203000000Y-178000000D03*
X203000000Y-253000000D03*
X203000000Y-273000000D03*
X278000000Y-253000000D03*
X138000000Y-243000000D03*
X63000000Y-83000000D03*
X213000000Y-208000000D03*
X93000000Y-113000000D03*
X48000000Y-208000000D03*
X88000000Y-173000000D03*
X213000000Y-153000000D03*
X193000000Y-83000000D03*
X58000000Y-248000000D03*
X258000000Y-63000000D03*
X258000000Y-83000000D03*
X168000000Y-238000000D03*
X43000000Y-138000000D03*
X213000000Y-273000000D03*
X183000000Y-258000000D03*
D13*
X161600000Y-85033333D03*
D12*
X183000000Y-113000000D03*
X18000000Y-268000000D03*
X258000000Y-58000000D03*
X128000000Y-108000000D03*
D13*
X162600000Y-81033333D03*
D12*
X73000000Y-178000000D03*
X188000000Y-138000000D03*
X153000000Y-178000000D03*
X223000000Y-38000000D03*
X78000000Y-218000000D03*
X213000000Y-143000000D03*
X233000000Y-153000000D03*
X243000000Y-248000000D03*
X113000000Y-273000000D03*
X228000000Y-233000000D03*
X288000000Y-153000000D03*
X243000000Y-123000000D03*
X283000000Y-68000000D03*
X128000000Y-203000000D03*
X123000000Y-128000000D03*
X208000000Y-183000000D03*
X253000000Y-168000000D03*
X138000000Y-253000000D03*
X168000000Y-123000000D03*
X268000000Y-153000000D03*
X143000000Y-203000000D03*
X238000000Y-168000000D03*
X203000000Y-58000000D03*
X253000000Y-138000000D03*
X153000000Y-203000000D03*
X178000000Y-213000000D03*
X223000000Y-73000000D03*
X73000000Y-148000000D03*
X128000000Y-198000000D03*
X68000000Y-83000000D03*
X188000000Y-53000000D03*
X163000000Y-268000000D03*
X98000000Y-93000000D03*
X288000000Y-263000000D03*
X143000000Y-103000000D03*
X183000000Y-238000000D03*
X68000000Y-48000000D03*
X88000000Y-223000000D03*
X143000000Y-248000000D03*
X178000000Y-148000000D03*
X218000000Y-268000000D03*
X248000000Y-173000000D03*
X43000000Y-38000000D03*
X78000000Y-153000000D03*
X83000000Y-178000000D03*
X208000000Y-73000000D03*
X258000000Y-78000000D03*
X143000000Y-148000000D03*
X23000000Y-173000000D03*
X123000000Y-103000000D03*
X213000000Y-53000000D03*
X168000000Y-158000000D03*
X198000000Y-78000000D03*
X223000000Y-248000000D03*
X178000000Y-223000000D03*
X168000000Y-188000000D03*
X93000000Y-163000000D03*
X88000000Y-228000000D03*
X223000000Y-173000000D03*
X23000000Y-263000000D03*
X98000000Y-28000000D03*
X138000000Y-23000000D03*
X263000000Y-213000000D03*
X193000000Y-108000000D03*
X103000000Y-68000000D03*
X253000000Y-83000000D03*
X263000000Y-128000000D03*
X123000000Y-148000000D03*
X213000000Y-113000000D03*
X158000000Y-83000000D03*
X133000000Y-33000000D03*
X103000000Y-23000000D03*
X193000000Y-268000000D03*
X258000000Y-218000000D03*
X158000000Y-103000000D03*
X128000000Y-118000000D03*
X253000000Y-198000000D03*
X168000000Y-83000000D03*
X228000000Y-53000000D03*
X173000000Y-183000000D03*
X173000000Y-93000000D03*
X58000000Y-178000000D03*
X48000000Y-203000000D03*
X18000000Y-108000000D03*
X88000000Y-148000000D03*
X198000000Y-223000000D03*
X238000000Y-248000000D03*
X203000000Y-78000000D03*
X213000000Y-218000000D03*
X273000000Y-78000000D03*
X133000000Y-208000000D03*
X188000000Y-228000000D03*
D13*
X162600000Y-85033333D03*
D12*
X188000000Y-148000000D03*
X28000000Y-163000000D03*
X88000000Y-203000000D03*
X253000000Y-33000000D03*
X33000000Y-33000000D03*
X303000000Y-198000000D03*
X108000000Y-43000000D03*
X233000000Y-178000000D03*
X123000000Y-238000000D03*
X138000000Y-53000000D03*
X153000000Y-98000000D03*
X98000000Y-118000000D03*
X123000000Y-228000000D03*
X303000000Y-78000000D03*
X118000000Y-273000000D03*
X38000000Y-73000000D03*
X253000000Y-178000000D03*
X123000000Y-218000000D03*
X203000000Y-33000000D03*
X168000000Y-113000000D03*
X208000000Y-208000000D03*
X38000000Y-128000000D03*
X173000000Y-118000000D03*
X213000000Y-83000000D03*
X28000000Y-278000000D03*
X48000000Y-43000000D03*
X78000000Y-88000000D03*
X108000000Y-263000000D03*
X198000000Y-143000000D03*
X293000000Y-78000000D03*
X238000000Y-163000000D03*
X213000000Y-278000000D03*
X223000000Y-58000000D03*
X68000000Y-218000000D03*
X218000000Y-38000000D03*
X58000000Y-163000000D03*
X258000000Y-198000000D03*
X223000000Y-278000000D03*
X263000000Y-238000000D03*
X228000000Y-163000000D03*
X288000000Y-48000000D03*
X288000000Y-183000000D03*
X158000000Y-218000000D03*
X148000000Y-18000000D03*
X208000000Y-223000000D03*
X18000000Y-83000000D03*
X203000000Y-248000000D03*
X93000000Y-173000000D03*
X163000000Y-168000000D03*
X193000000Y-203000000D03*
X58000000Y-28000000D03*
X158000000Y-138000000D03*
X138000000Y-138000000D03*
X113000000Y-253000000D03*
X153000000Y-93000000D03*
X118000000Y-243000000D03*
X43000000Y-198000000D03*
X18000000Y-273000000D03*
X183000000Y-253000000D03*
X248000000Y-23000000D03*
X98000000Y-23000000D03*
X273000000Y-263000000D03*
X298000000Y-163000000D03*
X168000000Y-78000000D03*
X238000000Y-238000000D03*
X93000000Y-193000000D03*
X283000000Y-213000000D03*
X278000000Y-143000000D03*
X293000000Y-213000000D03*
X243000000Y-163000000D03*
X98000000Y-98000000D03*
X198000000Y-168000000D03*
X283000000Y-163000000D03*
X53000000Y-68000000D03*
X113000000Y-98000000D03*
X163000000Y-28000000D03*
X218000000Y-88000000D03*
X253000000Y-103000000D03*
X138000000Y-198000000D03*
X103000000Y-123000000D03*
X128000000Y-263000000D03*
X193000000Y-33000000D03*
X23000000Y-228000000D03*
X128000000Y-88000000D03*
X298000000Y-63000000D03*
X78000000Y-118000000D03*
X93000000Y-178000000D03*
X278000000Y-193000000D03*
X263000000Y-68000000D03*
X68000000Y-183000000D03*
X203000000Y-53000000D03*
X53000000Y-48000000D03*
X298000000Y-48000000D03*
X33000000Y-158000000D03*
X208000000Y-18000000D03*
X103000000Y-163000000D03*
X288000000Y-173000000D03*
X68000000Y-153000000D03*
X218000000Y-243000000D03*
X193000000Y-43000000D03*
X263000000Y-98000000D03*
X178000000Y-173000000D03*
X128000000Y-33000000D03*
X268000000Y-238000000D03*
X258000000Y-68000000D03*
X188000000Y-193000000D03*
X228000000Y-68000000D03*
X143000000Y-128000000D03*
X273000000Y-153000000D03*
X153000000Y-18000000D03*
X133000000Y-23000000D03*
X228000000Y-123000000D03*
X63000000Y-103000000D03*
X78000000Y-78000000D03*
X138000000Y-118000000D03*
X173000000Y-48000000D03*
X253000000Y-233000000D03*
X263000000Y-278000000D03*
X43000000Y-93000000D03*
X68000000Y-173000000D03*
X268000000Y-228000000D03*
X198000000Y-148000000D03*
X223000000Y-78000000D03*
X208000000Y-263000000D03*
X113000000Y-208000000D03*
X238000000Y-243000000D03*
X218000000Y-58000000D03*
X303000000Y-208000000D03*
X43000000Y-253000000D03*
X128000000Y-158000000D03*
X263000000Y-253000000D03*
X173000000Y-123000000D03*
X63000000Y-218000000D03*
X158000000Y-263000000D03*
X73000000Y-68000000D03*
X33000000Y-123000000D03*
X248000000Y-53000000D03*
X138000000Y-228000000D03*
X93000000Y-168000000D03*
X293000000Y-163000000D03*
X103000000Y-113000000D03*
X38000000Y-243000000D03*
X73000000Y-108000000D03*
X263000000Y-53000000D03*
X53000000Y-113000000D03*
X28000000Y-173000000D03*
X123000000Y-233000000D03*
X163000000Y-178000000D03*
X288000000Y-188000000D03*
X203000000Y-188000000D03*
X93000000Y-203000000D03*
X288000000Y-238000000D03*
X118000000Y-68000000D03*
X148000000Y-198000000D03*
X68000000Y-268000000D03*
X33000000Y-238000000D03*
X158000000Y-23000000D03*
X293000000Y-73000000D03*
X193000000Y-238000000D03*
X188000000Y-178000000D03*
X108000000Y-213000000D03*
D13*
X162549999Y-86033333D03*
D12*
X273000000Y-48000000D03*
X288000000Y-98000000D03*
X298000000Y-273000000D03*
X218000000Y-223000000D03*
X233000000Y-58000000D03*
X163000000Y-113000000D03*
X283000000Y-188000000D03*
X138000000Y-93000000D03*
X93000000Y-253000000D03*
X298000000Y-243000000D03*
X238000000Y-208000000D03*
X288000000Y-93000000D03*
X258000000Y-178000000D03*
X108000000Y-68000000D03*
X258000000Y-183000000D03*
X278000000Y-183000000D03*
X288000000Y-33000000D03*
X158000000Y-28000000D03*
X283000000Y-238000000D03*
X33000000Y-253000000D03*
X293000000Y-83000000D03*
X228000000Y-58000000D03*
X178000000Y-153000000D03*
X143000000Y-98000000D03*
X273000000Y-273000000D03*
X213000000Y-138000000D03*
X223000000Y-168000000D03*
X303000000Y-253000000D03*
X268000000Y-198000000D03*
X153000000Y-243000000D03*
X203000000Y-168000000D03*
X298000000Y-258000000D03*
X298000000Y-173000000D03*
X93000000Y-38000000D03*
X78000000Y-163000000D03*
X153000000Y-218000000D03*
X148000000Y-243000000D03*
X273000000Y-23000000D03*
X293000000Y-263000000D03*
X88000000Y-248000000D03*
X73000000Y-118000000D03*
X118000000Y-133000000D03*
X78000000Y-143000000D03*
X198000000Y-83000000D03*
X113000000Y-178000000D03*
X178000000Y-273000000D03*
X218000000Y-218000000D03*
X128000000Y-93000000D03*
X278000000Y-58000000D03*
X198000000Y-263000000D03*
X253000000Y-93000000D03*
X193000000Y-128000000D03*
X228000000Y-153000000D03*
X243000000Y-228000000D03*
X203000000Y-93000000D03*
X248000000Y-78000000D03*
X143000000Y-243000000D03*
X278000000Y-163000000D03*
X18000000Y-128000000D03*
X23000000Y-83000000D03*
X103000000Y-73000000D03*
X33000000Y-208000000D03*
X133000000Y-173000000D03*
X113000000Y-68000000D03*
X98000000Y-123000000D03*
X38000000Y-53000000D03*
X58000000Y-98000000D03*
X198000000Y-43000000D03*
X228000000Y-28000000D03*
X278000000Y-273000000D03*
X263000000Y-258000000D03*
X18000000Y-218000000D03*
X228000000Y-138000000D03*
X208000000Y-88000000D03*
X263000000Y-243000000D03*
X268000000Y-33000000D03*
X148000000Y-108000000D03*
X268000000Y-178000000D03*
X113000000Y-153000000D03*
X23000000Y-68000000D03*
X48000000Y-28000000D03*
X278000000Y-78000000D03*
X133000000Y-238000000D03*
X138000000Y-203000000D03*
X263000000Y-178000000D03*
X28000000Y-228000000D03*
X178000000Y-23000000D03*
X118000000Y-38000000D03*
X43000000Y-28000000D03*
D13*
X162600000Y-80033333D03*
D12*
X128000000Y-223000000D03*
X178000000Y-123000000D03*
X278000000Y-158000000D03*
X83000000Y-183000000D03*
X43000000Y-168000000D03*
X138000000Y-273000000D03*
X123000000Y-168000000D03*
X203000000Y-38000000D03*
X148000000Y-208000000D03*
X118000000Y-103000000D03*
X208000000Y-173000000D03*
X188000000Y-233000000D03*
X268000000Y-23000000D03*
X303000000Y-143000000D03*
X48000000Y-78000000D03*
X43000000Y-123000000D03*
X253000000Y-18000000D03*
X113000000Y-58000000D03*
X278000000Y-73000000D03*
X193000000Y-53000000D03*
X53000000Y-123000000D03*
X18000000Y-198000000D03*
X193000000Y-118000000D03*
X183000000Y-243000000D03*
X28000000Y-128000000D03*
X268000000Y-113000000D03*
D13*
X163600000Y-85033333D03*
X161549999Y-85033333D03*
D12*
X53000000Y-158000000D03*
X193000000Y-88000000D03*
X208000000Y-243000000D03*
X108000000Y-278000000D03*
X178000000Y-218000000D03*
X268000000Y-218000000D03*
X58000000Y-138000000D03*
X248000000Y-68000000D03*
X138000000Y-103000000D03*
X153000000Y-223000000D03*
X183000000Y-38000000D03*
X293000000Y-138000000D03*
X123000000Y-73000000D03*
X23000000Y-118000000D03*
X193000000Y-153000000D03*
X303000000Y-268000000D03*
X133000000Y-143000000D03*
X228000000Y-273000000D03*
X53000000Y-93000000D03*
X268000000Y-253000000D03*
X193000000Y-93000000D03*
X123000000Y-178000000D03*
X173000000Y-163000000D03*
X188000000Y-108000000D03*
X203000000Y-213000000D03*
X63000000Y-23000000D03*
X108000000Y-158000000D03*
X298000000Y-113000000D03*
X208000000Y-48000000D03*
X208000000Y-213000000D03*
X303000000Y-63000000D03*
X218000000Y-73000000D03*
X178000000Y-103000000D03*
X178000000Y-38000000D03*
X38000000Y-23000000D03*
X138000000Y-238000000D03*
X83000000Y-18000000D03*
X103000000Y-58000000D03*
X63000000Y-278000000D03*
X258000000Y-33000000D03*
X183000000Y-108000000D03*
X118000000Y-218000000D03*
X48000000Y-233000000D03*
X118000000Y-228000000D03*
X218000000Y-278000000D03*
X258000000Y-113000000D03*
X73000000Y-223000000D03*
X173000000Y-23000000D03*
X58000000Y-198000000D03*
X23000000Y-53000000D03*
X53000000Y-173000000D03*
X43000000Y-223000000D03*
X133000000Y-153000000D03*
D13*
X163549999Y-80033333D03*
D12*
X33000000Y-18000000D03*
X243000000Y-88000000D03*
X183000000Y-213000000D03*
X28000000Y-153000000D03*
X153000000Y-168000000D03*
X83000000Y-273000000D03*
X208000000Y-118000000D03*
X248000000Y-193000000D03*
X93000000Y-263000000D03*
X73000000Y-88000000D03*
X33000000Y-263000000D03*
D13*
X161549999Y-83033333D03*
D12*
X238000000Y-73000000D03*
X118000000Y-18000000D03*
X58000000Y-213000000D03*
X183000000Y-183000000D03*
X63000000Y-113000000D03*
X48000000Y-123000000D03*
X23000000Y-88000000D03*
X153000000Y-43000000D03*
X198000000Y-158000000D03*
D13*
X160600000Y-80033333D03*
D12*
X88000000Y-28000000D03*
X133000000Y-48000000D03*
D13*
X162549999Y-81033333D03*
D12*
X38000000Y-213000000D03*
X218000000Y-208000000D03*
X303000000Y-43000000D03*
X278000000Y-28000000D03*
X233000000Y-213000000D03*
X168000000Y-258000000D03*
D13*
X160600000Y-86033333D03*
D12*
X178000000Y-183000000D03*
X128000000Y-258000000D03*
X248000000Y-258000000D03*
X38000000Y-93000000D03*
X283000000Y-198000000D03*
X288000000Y-83000000D03*
X108000000Y-63000000D03*
X193000000Y-163000000D03*
X48000000Y-163000000D03*
X223000000Y-238000000D03*
X163000000Y-73000000D03*
X273000000Y-38000000D03*
X243000000Y-258000000D03*
D13*
X160600000Y-85033333D03*
D12*
X278000000Y-228000000D03*
X233000000Y-223000000D03*
X228000000Y-158000000D03*
X153000000Y-78000000D03*
X73000000Y-143000000D03*
X208000000Y-53000000D03*
X163000000Y-118000000D03*
X18000000Y-133000000D03*
X48000000Y-38000000D03*
X213000000Y-38000000D03*
X228000000Y-218000000D03*
X28000000Y-93000000D03*
X213000000Y-93000000D03*
X183000000Y-53000000D03*
X183000000Y-68000000D03*
X268000000Y-78000000D03*
X93000000Y-133000000D03*
X83000000Y-58000000D03*
X78000000Y-273000000D03*
X43000000Y-18000000D03*
X178000000Y-93000000D03*
X33000000Y-248000000D03*
X33000000Y-138000000D03*
X208000000Y-93000000D03*
D13*
X163600000Y-83033333D03*
D12*
X73000000Y-203000000D03*
X283000000Y-108000000D03*
X98000000Y-33000000D03*
X38000000Y-63000000D03*
X43000000Y-258000000D03*
X143000000Y-218000000D03*
X93000000Y-98000000D03*
X193000000Y-258000000D03*
X98000000Y-223000000D03*
X163000000Y-98000000D03*
X248000000Y-208000000D03*
X143000000Y-153000000D03*
X108000000Y-168000000D03*
X278000000Y-108000000D03*
X83000000Y-278000000D03*
X78000000Y-58000000D03*
X123000000Y-53000000D03*
X113000000Y-263000000D03*
X298000000Y-73000000D03*
X78000000Y-83000000D03*
X113000000Y-158000000D03*
X58000000Y-78000000D03*
X88000000Y-58000000D03*
X153000000Y-143000000D03*
X163000000Y-83000000D03*
X213000000Y-203000000D03*
X118000000Y-148000000D03*
X123000000Y-258000000D03*
X268000000Y-268000000D03*
X183000000Y-263000000D03*
X303000000Y-213000000D03*
X198000000Y-138000000D03*
X28000000Y-48000000D03*
X293000000Y-158000000D03*
X183000000Y-133000000D03*
X48000000Y-73000000D03*
X113000000Y-103000000D03*
X208000000Y-103000000D03*
X73000000Y-208000000D03*
X63000000Y-138000000D03*
X103000000Y-238000000D03*
X283000000Y-38000000D03*
X148000000Y-43000000D03*
X98000000Y-68000000D03*
X218000000Y-18000000D03*
X258000000Y-138000000D03*
X138000000Y-263000000D03*
X233000000Y-238000000D03*
X303000000Y-73000000D03*
X193000000Y-198000000D03*
X153000000Y-188000000D03*
X203000000Y-148000000D03*
X118000000Y-93000000D03*
X38000000Y-58000000D03*
X303000000Y-103000000D03*
X283000000Y-58000000D03*
X183000000Y-268000000D03*
X238000000Y-193000000D03*
X153000000Y-33000000D03*
X173000000Y-198000000D03*
X273000000Y-83000000D03*
X218000000Y-28000000D03*
X143000000Y-238000000D03*
X188000000Y-198000000D03*
X43000000Y-128000000D03*
X153000000Y-268000000D03*
X303000000Y-258000000D03*
X78000000Y-53000000D03*
X163000000Y-203000000D03*
X143000000Y-43000000D03*
X68000000Y-93000000D03*
X33000000Y-168000000D03*
X43000000Y-278000000D03*
X158000000Y-198000000D03*
X88000000Y-258000000D03*
X188000000Y-143000000D03*
X258000000Y-108000000D03*
X23000000Y-93000000D03*
X23000000Y-48000000D03*
X288000000Y-253000000D03*
X133000000Y-273000000D03*
X113000000Y-238000000D03*
X108000000Y-93000000D03*
X228000000Y-193000000D03*
X158000000Y-148000000D03*
X178000000Y-18000000D03*
X33000000Y-268000000D03*
X203000000Y-163000000D03*
X78000000Y-103000000D03*
X38000000Y-173000000D03*
X238000000Y-278000000D03*
X38000000Y-68000000D03*
X48000000Y-188000000D03*
X23000000Y-103000000D03*
X63000000Y-98000000D03*
X233000000Y-208000000D03*
D13*
X162549999Y-82033333D03*
D12*
X48000000Y-263000000D03*
D13*
X161600000Y-81033333D03*
D12*
X33000000Y-223000000D03*
X203000000Y-203000000D03*
X148000000Y-218000000D03*
X118000000Y-63000000D03*
X48000000Y-273000000D03*
X158000000Y-153000000D03*
X243000000Y-48000000D03*
X63000000Y-238000000D03*
X283000000Y-113000000D03*
X228000000Y-108000000D03*
X153000000Y-208000000D03*
X243000000Y-193000000D03*
X198000000Y-38000000D03*
X248000000Y-38000000D03*
X48000000Y-33000000D03*
X128000000Y-213000000D03*
X153000000Y-148000000D03*
X53000000Y-28000000D03*
X258000000Y-273000000D03*
X148000000Y-143000000D03*
X53000000Y-38000000D03*
X63000000Y-58000000D03*
X123000000Y-23000000D03*
X78000000Y-48000000D03*
X93000000Y-68000000D03*
X138000000Y-153000000D03*
X68000000Y-168000000D03*
X193000000Y-68000000D03*
X253000000Y-243000000D03*
X148000000Y-73000000D03*
X163000000Y-18000000D03*
X248000000Y-128000000D03*
X133000000Y-43000000D03*
X133000000Y-218000000D03*
X278000000Y-93000000D03*
X18000000Y-98000000D03*
X123000000Y-193000000D03*
X198000000Y-128000000D03*
X223000000Y-178000000D03*
X113000000Y-18000000D03*
X163000000Y-108000000D03*
X133000000Y-103000000D03*
X188000000Y-173000000D03*
X63000000Y-148000000D03*
X98000000Y-188000000D03*
X148000000Y-53000000D03*
X258000000Y-253000000D03*
X188000000Y-38000000D03*
X188000000Y-218000000D03*
X243000000Y-18000000D03*
X278000000Y-148000000D03*
X28000000Y-258000000D03*
X133000000Y-268000000D03*
X233000000Y-33000000D03*
X303000000Y-53000000D03*
X273000000Y-68000000D03*
X263000000Y-188000000D03*
X23000000Y-178000000D03*
X33000000Y-273000000D03*
X278000000Y-188000000D03*
X208000000Y-148000000D03*
X243000000Y-28000000D03*
X163000000Y-263000000D03*
X258000000Y-263000000D03*
X83000000Y-228000000D03*
X228000000Y-263000000D03*
X68000000Y-213000000D03*
X253000000Y-218000000D03*
X303000000Y-273000000D03*
X238000000Y-153000000D03*
X243000000Y-23000000D03*
X68000000Y-228000000D03*
X293000000Y-208000000D03*
X203000000Y-243000000D03*
X123000000Y-63000000D03*
X23000000Y-143000000D03*
X103000000Y-228000000D03*
X108000000Y-38000000D03*
D13*
X162549999Y-80033333D03*
D12*
X23000000Y-243000000D03*
X148000000Y-268000000D03*
X203000000Y-223000000D03*
X293000000Y-98000000D03*
X103000000Y-258000000D03*
X38000000Y-253000000D03*
X133000000Y-118000000D03*
X153000000Y-198000000D03*
X293000000Y-128000000D03*
X63000000Y-188000000D03*
X123000000Y-188000000D03*
X78000000Y-208000000D03*
X143000000Y-198000000D03*
D13*
X161549999Y-79033333D03*
D12*
X213000000Y-63000000D03*
X163000000Y-88000000D03*
X253000000Y-203000000D03*
X153000000Y-108000000D03*
X298000000Y-128000000D03*
X298000000Y-138000000D03*
X203000000Y-123000000D03*
X98000000Y-18000000D03*
X228000000Y-33000000D03*
X303000000Y-183000000D03*
X243000000Y-128000000D03*
X268000000Y-258000000D03*
X108000000Y-173000000D03*
X293000000Y-268000000D03*
X48000000Y-258000000D03*
X298000000Y-223000000D03*
X193000000Y-208000000D03*
X53000000Y-213000000D03*
X193000000Y-133000000D03*
X68000000Y-248000000D03*
X158000000Y-98000000D03*
X253000000Y-208000000D03*
X258000000Y-248000000D03*
X123000000Y-43000000D03*
X58000000Y-108000000D03*
X178000000Y-78000000D03*
X203000000Y-228000000D03*
X168000000Y-58000000D03*
X48000000Y-178000000D03*
X303000000Y-248000000D03*
X113000000Y-48000000D03*
X53000000Y-148000000D03*
X88000000Y-48000000D03*
D13*
X162600000Y-86033333D03*
D12*
X188000000Y-123000000D03*
X38000000Y-248000000D03*
X98000000Y-78000000D03*
X178000000Y-198000000D03*
X243000000Y-153000000D03*
X248000000Y-98000000D03*
X78000000Y-188000000D03*
X278000000Y-208000000D03*
X128000000Y-168000000D03*
X233000000Y-158000000D03*
X128000000Y-273000000D03*
X58000000Y-233000000D03*
X283000000Y-268000000D03*
X98000000Y-233000000D03*
X243000000Y-38000000D03*
X273000000Y-218000000D03*
X248000000Y-243000000D03*
X38000000Y-38000000D03*
X248000000Y-73000000D03*
X28000000Y-88000000D03*
X23000000Y-273000000D03*
X213000000Y-18000000D03*
X88000000Y-198000000D03*
X48000000Y-153000000D03*
X103000000Y-178000000D03*
X203000000Y-193000000D03*
X28000000Y-118000000D03*
X293000000Y-103000000D03*
X243000000Y-188000000D03*
X193000000Y-223000000D03*
X113000000Y-203000000D03*
X173000000Y-233000000D03*
X58000000Y-168000000D03*
X58000000Y-193000000D03*
X43000000Y-208000000D03*
X73000000Y-238000000D03*
X78000000Y-123000000D03*
X123000000Y-113000000D03*
X268000000Y-183000000D03*
X163000000Y-223000000D03*
X153000000Y-118000000D03*
X163000000Y-148000000D03*
X88000000Y-178000000D03*
X148000000Y-233000000D03*
X243000000Y-83000000D03*
X148000000Y-248000000D03*
X123000000Y-213000000D03*
X253000000Y-213000000D03*
X103000000Y-203000000D03*
X293000000Y-198000000D03*
X208000000Y-168000000D03*
X88000000Y-63000000D03*
X93000000Y-153000000D03*
X108000000Y-133000000D03*
X243000000Y-158000000D03*
X138000000Y-48000000D03*
X238000000Y-98000000D03*
X193000000Y-188000000D03*
X73000000Y-128000000D03*
X33000000Y-58000000D03*
X223000000Y-133000000D03*
X53000000Y-143000000D03*
X283000000Y-143000000D03*
X278000000Y-203000000D03*
X218000000Y-98000000D03*
X43000000Y-148000000D03*
D13*
X163549999Y-86033333D03*
D12*
X278000000Y-33000000D03*
X273000000Y-253000000D03*
X173000000Y-103000000D03*
X93000000Y-48000000D03*
X93000000Y-198000000D03*
X288000000Y-163000000D03*
X233000000Y-108000000D03*
X283000000Y-228000000D03*
X128000000Y-243000000D03*
X288000000Y-278000000D03*
X303000000Y-203000000D03*
X238000000Y-223000000D03*
X128000000Y-278000000D03*
X233000000Y-188000000D03*
X228000000Y-223000000D03*
X28000000Y-168000000D03*
X263000000Y-163000000D03*
X188000000Y-223000000D03*
X123000000Y-208000000D03*
X253000000Y-188000000D03*
X218000000Y-108000000D03*
X103000000Y-263000000D03*
X33000000Y-148000000D03*
X108000000Y-163000000D03*
X208000000Y-33000000D03*
X233000000Y-83000000D03*
X268000000Y-263000000D03*
X243000000Y-108000000D03*
X23000000Y-23000000D03*
X178000000Y-203000000D03*
X43000000Y-263000000D03*
X293000000Y-178000000D03*
X173000000Y-153000000D03*
X63000000Y-193000000D03*
%TO.N,PLL_LOL*%
X208000000Y-153000000D03*
%TO.N,SW_5V*%
X63000000Y-268000000D03*
X63000000Y-263000000D03*
%TO.N,TFLN_TX_P1_B*%
X218000000Y-118000000D03*
%TD*%
%TA.AperFunction,Conductor*%
%TO.N,GND*%
G36*
X301222745Y-158490756D02*
G01*
X301227295Y-158497018D01*
X301235886Y-158509875D01*
X301333458Y-158607447D01*
X301346286Y-158616018D01*
X301384165Y-158664068D01*
X301386567Y-158725206D01*
X301352574Y-158776080D01*
X301346293Y-158780642D01*
X301333458Y-158789219D01*
X301333454Y-158789222D01*
X301235889Y-158886787D01*
X301235886Y-158886791D01*
X301227315Y-158899619D01*
X301179265Y-158937498D01*
X301118127Y-158939900D01*
X301067253Y-158905907D01*
X301062685Y-158899619D01*
X301054114Y-158886791D01*
X300956542Y-158789219D01*
X300943712Y-158780646D01*
X300905835Y-158732601D01*
X300903431Y-158671462D01*
X300937423Y-158620588D01*
X300943685Y-158616037D01*
X300956542Y-158607447D01*
X301054114Y-158509875D01*
X301062686Y-158497045D01*
X301110732Y-158459168D01*
X301171871Y-158456764D01*
X301222745Y-158490756D01*
G37*
%TD.AperFunction*%
%TA.AperFunction,Conductor*%
G36*
X302492745Y-158490756D02*
G01*
X302497295Y-158497018D01*
X302505886Y-158509875D01*
X302603458Y-158607447D01*
X302616286Y-158616018D01*
X302654165Y-158664068D01*
X302656567Y-158725206D01*
X302622574Y-158776080D01*
X302616293Y-158780642D01*
X302603458Y-158789219D01*
X302603454Y-158789222D01*
X302505889Y-158886787D01*
X302505886Y-158886791D01*
X302497315Y-158899619D01*
X302449265Y-158937498D01*
X302388127Y-158939900D01*
X302337253Y-158905907D01*
X302332685Y-158899619D01*
X302324114Y-158886791D01*
X302226542Y-158789219D01*
X302213712Y-158780646D01*
X302175835Y-158732601D01*
X302173431Y-158671462D01*
X302207423Y-158620588D01*
X302213685Y-158616037D01*
X302226542Y-158607447D01*
X302324114Y-158509875D01*
X302332686Y-158497045D01*
X302380732Y-158459168D01*
X302441871Y-158456764D01*
X302492745Y-158490756D01*
G37*
%TD.AperFunction*%
%TA.AperFunction,Conductor*%
G36*
X303762745Y-158490756D02*
G01*
X303767295Y-158497018D01*
X303775886Y-158509875D01*
X303873458Y-158607447D01*
X303886286Y-158616018D01*
X303924165Y-158664068D01*
X303926567Y-158725206D01*
X303892574Y-158776080D01*
X303886293Y-158780642D01*
X303873458Y-158789219D01*
X303873454Y-158789222D01*
X303775889Y-158886787D01*
X303775886Y-158886791D01*
X303767315Y-158899619D01*
X303719265Y-158937498D01*
X303658127Y-158939900D01*
X303607253Y-158905907D01*
X303602685Y-158899619D01*
X303594114Y-158886791D01*
X303496542Y-158789219D01*
X303483712Y-158780646D01*
X303445835Y-158732601D01*
X303443431Y-158671462D01*
X303477423Y-158620588D01*
X303483685Y-158616037D01*
X303496542Y-158607447D01*
X303594114Y-158509875D01*
X303602686Y-158497045D01*
X303650732Y-158459168D01*
X303711871Y-158456764D01*
X303762745Y-158490756D01*
G37*
%TD.AperFunction*%
%TA.AperFunction,Conductor*%
G36*
X301175231Y-121125676D02*
G01*
X301179268Y-121125835D01*
X301200385Y-121142483D01*
X301222745Y-121157423D01*
X301227295Y-121163685D01*
X301235886Y-121176542D01*
X301333458Y-121274114D01*
X301346286Y-121282685D01*
X301384165Y-121330735D01*
X301386567Y-121391873D01*
X301352574Y-121442747D01*
X301346293Y-121447309D01*
X301333458Y-121455886D01*
X301333454Y-121455889D01*
X301235889Y-121553454D01*
X301235886Y-121553458D01*
X301227315Y-121566286D01*
X301179265Y-121604165D01*
X301118127Y-121606567D01*
X301067253Y-121572574D01*
X301062685Y-121566286D01*
X301054114Y-121553458D01*
X300956542Y-121455886D01*
X300943712Y-121447313D01*
X300905835Y-121399268D01*
X300903431Y-121338129D01*
X300937423Y-121287255D01*
X300943685Y-121282704D01*
X300956542Y-121274114D01*
X301054114Y-121176542D01*
X301062686Y-121163712D01*
X301065856Y-121161213D01*
X301067255Y-121157423D01*
X301089614Y-121142483D01*
X301110732Y-121125835D01*
X301114768Y-121125676D01*
X301118129Y-121123431D01*
X301145000Y-121124487D01*
X301171871Y-121123431D01*
X301175231Y-121125676D01*
G37*
%TD.AperFunction*%
%TA.AperFunction,Conductor*%
G36*
X314458691Y-10519407D02*
G01*
X314494655Y-10568907D01*
X314499500Y-10599500D01*
X314499500Y-289400500D01*
X314480593Y-289458691D01*
X314431093Y-289494655D01*
X314400500Y-289499500D01*
X10599500Y-289499500D01*
X10541309Y-289480593D01*
X10505345Y-289431093D01*
X10500500Y-289400500D01*
X10500500Y-282412043D01*
X14249500Y-282412043D01*
X14249500Y-282654622D01*
X14281161Y-282895114D01*
X14281161Y-282895119D01*
X14343944Y-283129425D01*
X14343948Y-283129438D01*
X14436772Y-283353537D01*
X14436774Y-283353541D01*
X14436776Y-283353545D01*
X14558064Y-283563622D01*
X14558066Y-283563625D01*
X14705729Y-283756064D01*
X14705731Y-283756066D01*
X14705735Y-283756071D01*
X14877262Y-283927598D01*
X14877266Y-283927601D01*
X14877268Y-283927603D01*
X15069707Y-284075266D01*
X15069711Y-284075269D01*
X15279788Y-284196557D01*
X15503900Y-284289387D01*
X15738211Y-284352171D01*
X15978712Y-284383833D01*
X15978713Y-284383833D01*
X16221287Y-284383833D01*
X16221288Y-284383833D01*
X16461789Y-284352171D01*
X16696100Y-284289387D01*
X16920212Y-284196557D01*
X17130289Y-284075269D01*
X17322738Y-283927598D01*
X17494265Y-283756071D01*
X17641936Y-283563622D01*
X17763224Y-283353545D01*
X17856054Y-283129433D01*
X17918838Y-282895122D01*
X17950500Y-282654621D01*
X17950500Y-282412045D01*
X17950500Y-282412043D01*
X307049500Y-282412043D01*
X307049500Y-282654622D01*
X307081161Y-282895114D01*
X307081161Y-282895119D01*
X307143944Y-283129425D01*
X307143948Y-283129438D01*
X307236772Y-283353537D01*
X307236774Y-283353541D01*
X307236776Y-283353545D01*
X307358064Y-283563622D01*
X307358066Y-283563625D01*
X307505729Y-283756064D01*
X307505731Y-283756066D01*
X307505735Y-283756071D01*
X307677262Y-283927598D01*
X307677266Y-283927601D01*
X307677268Y-283927603D01*
X307869707Y-284075266D01*
X307869711Y-284075269D01*
X308079788Y-284196557D01*
X308303900Y-284289387D01*
X308538211Y-284352171D01*
X308778712Y-284383833D01*
X308778713Y-284383833D01*
X309021287Y-284383833D01*
X309021288Y-284383833D01*
X309261789Y-284352171D01*
X309496100Y-284289387D01*
X309720212Y-284196557D01*
X309930289Y-284075269D01*
X310122738Y-283927598D01*
X310294265Y-283756071D01*
X310441936Y-283563622D01*
X310563224Y-283353545D01*
X310656054Y-283129433D01*
X310718838Y-282895122D01*
X310750500Y-282654621D01*
X310750500Y-282412045D01*
X310718838Y-282171544D01*
X310656054Y-281937233D01*
X310563224Y-281713121D01*
X310441936Y-281503044D01*
X310294265Y-281310595D01*
X310122738Y-281139068D01*
X310122733Y-281139064D01*
X310122731Y-281139062D01*
X309930292Y-280991399D01*
X309930289Y-280991397D01*
X309720212Y-280870109D01*
X309720208Y-280870107D01*
X309720204Y-280870105D01*
X309496105Y-280777281D01*
X309496104Y-280777280D01*
X309496100Y-280777279D01*
X309261789Y-280714495D01*
X309261786Y-280714494D01*
X309261784Y-280714494D01*
X309021289Y-280682833D01*
X309021288Y-280682833D01*
X308778712Y-280682833D01*
X308778710Y-280682833D01*
X308538218Y-280714494D01*
X308538213Y-280714494D01*
X308303907Y-280777277D01*
X308303894Y-280777281D01*
X308079795Y-280870105D01*
X307869707Y-280991399D01*
X307677268Y-281139062D01*
X307505729Y-281310601D01*
X307358066Y-281503040D01*
X307236772Y-281713128D01*
X307143948Y-281937227D01*
X307143944Y-281937240D01*
X307081161Y-282171546D01*
X307081161Y-282171551D01*
X307049500Y-282412043D01*
X17950500Y-282412043D01*
X17918838Y-282171544D01*
X17856054Y-281937233D01*
X17763224Y-281713121D01*
X17641936Y-281503044D01*
X17494265Y-281310595D01*
X17322738Y-281139068D01*
X17322733Y-281139064D01*
X17322731Y-281139062D01*
X17130292Y-280991399D01*
X17130289Y-280991397D01*
X16920212Y-280870109D01*
X16920208Y-280870107D01*
X16920204Y-280870105D01*
X16696105Y-280777281D01*
X16696104Y-280777280D01*
X16696100Y-280777279D01*
X16461789Y-280714495D01*
X16461786Y-280714494D01*
X16461784Y-280714494D01*
X16221289Y-280682833D01*
X16221288Y-280682833D01*
X15978712Y-280682833D01*
X15978710Y-280682833D01*
X15738218Y-280714494D01*
X15738213Y-280714494D01*
X15503907Y-280777277D01*
X15503894Y-280777281D01*
X15279795Y-280870105D01*
X15069707Y-280991399D01*
X14877268Y-281139062D01*
X14705729Y-281310601D01*
X14558066Y-281503040D01*
X14436772Y-281713128D01*
X14343948Y-281937227D01*
X14343944Y-281937240D01*
X14281161Y-282171546D01*
X14281161Y-282171551D01*
X14249500Y-282412043D01*
X10500500Y-282412043D01*
X10500500Y-279862326D01*
X17899500Y-279862326D01*
X17899500Y-279913734D01*
X17899500Y-280137674D01*
X17935440Y-280410666D01*
X17938145Y-280420760D01*
X18006704Y-280676631D01*
X18112074Y-280931016D01*
X18112077Y-280931021D01*
X18249751Y-281169479D01*
X18417372Y-281387928D01*
X18612072Y-281582628D01*
X18830521Y-281750249D01*
X19068979Y-281887923D01*
X19068980Y-281887923D01*
X19068983Y-281887925D01*
X19188023Y-281937233D01*
X19323368Y-281993295D01*
X19589334Y-282064560D01*
X19862326Y-282100500D01*
X19862327Y-282100500D01*
X20137673Y-282100500D01*
X20137674Y-282100500D01*
X20410666Y-282064560D01*
X20676632Y-281993295D01*
X20931021Y-281887923D01*
X21169479Y-281750249D01*
X21387928Y-281582628D01*
X21582628Y-281387928D01*
X21750249Y-281169479D01*
X21887923Y-280931021D01*
X21993295Y-280676632D01*
X22064560Y-280410666D01*
X22100500Y-280137674D01*
X22100500Y-279862326D01*
X302899500Y-279862326D01*
X302899500Y-279913734D01*
X302899500Y-280137674D01*
X302935440Y-280410666D01*
X302938145Y-280420760D01*
X303006704Y-280676631D01*
X303112074Y-280931016D01*
X303112077Y-280931021D01*
X303249751Y-281169479D01*
X303417372Y-281387928D01*
X303612072Y-281582628D01*
X303830521Y-281750249D01*
X304068979Y-281887923D01*
X304068980Y-281887923D01*
X304068983Y-281887925D01*
X304188023Y-281937233D01*
X304323368Y-281993295D01*
X304589334Y-282064560D01*
X304862326Y-282100500D01*
X304862327Y-282100500D01*
X305137673Y-282100500D01*
X305137674Y-282100500D01*
X305410666Y-282064560D01*
X305676632Y-281993295D01*
X305931021Y-281887923D01*
X306169479Y-281750249D01*
X306387928Y-281582628D01*
X306582628Y-281387928D01*
X306750249Y-281169479D01*
X306887923Y-280931021D01*
X306993295Y-280676632D01*
X307064560Y-280410666D01*
X307100500Y-280137674D01*
X307100500Y-279862326D01*
X307064560Y-279589334D01*
X306993295Y-279323368D01*
X306887923Y-279068979D01*
X306750249Y-278830521D01*
X306582628Y-278612072D01*
X306387928Y-278417372D01*
X306169479Y-278249751D01*
X305931021Y-278112077D01*
X305931016Y-278112074D01*
X305676631Y-278006704D01*
X305555521Y-277974253D01*
X305410666Y-277935440D01*
X305410659Y-277935439D01*
X305137675Y-277899500D01*
X305137674Y-277899500D01*
X304862326Y-277899500D01*
X304862324Y-277899500D01*
X304589340Y-277935439D01*
X304589338Y-277935439D01*
X304589334Y-277935440D01*
X304488805Y-277962376D01*
X304323368Y-278006704D01*
X304068983Y-278112074D01*
X303830517Y-278249753D01*
X303612075Y-278417369D01*
X303417369Y-278612075D01*
X303249753Y-278830517D01*
X303112074Y-279068983D01*
X303006704Y-279323368D01*
X302979335Y-279425513D01*
X302935440Y-279589334D01*
X302899500Y-279862326D01*
X22100500Y-279862326D01*
X22064560Y-279589334D01*
X21993295Y-279323368D01*
X21887923Y-279068979D01*
X21750249Y-278830521D01*
X21582628Y-278612072D01*
X21387928Y-278417372D01*
X21169479Y-278249751D01*
X20931021Y-278112077D01*
X20931016Y-278112074D01*
X20676631Y-278006704D01*
X20555521Y-277974253D01*
X20410666Y-277935440D01*
X20410659Y-277935439D01*
X20137675Y-277899500D01*
X20137674Y-277899500D01*
X19862326Y-277899500D01*
X19862324Y-277899500D01*
X19589340Y-277935439D01*
X19589338Y-277935439D01*
X19589334Y-277935440D01*
X19488805Y-277962376D01*
X19323368Y-278006704D01*
X19068983Y-278112074D01*
X18830517Y-278249753D01*
X18612075Y-278417369D01*
X18417369Y-278612075D01*
X18249753Y-278830517D01*
X18112074Y-279068983D01*
X18006704Y-279323368D01*
X17979335Y-279425513D01*
X17935440Y-279589334D01*
X17899500Y-279862326D01*
X10500500Y-279862326D01*
X10500500Y-268901579D01*
X23999500Y-268901579D01*
X23999500Y-269098420D01*
X24030289Y-269292821D01*
X24030291Y-269292826D01*
X24091116Y-269480025D01*
X24180476Y-269655405D01*
X24296172Y-269814646D01*
X24435354Y-269953828D01*
X24594595Y-270069524D01*
X24769975Y-270158884D01*
X24957174Y-270219709D01*
X24957175Y-270219709D01*
X24957178Y-270219710D01*
X25151580Y-270250500D01*
X25151583Y-270250500D01*
X25348420Y-270250500D01*
X25542821Y-270219710D01*
X25542822Y-270219709D01*
X25542826Y-270219709D01*
X25730025Y-270158884D01*
X25905405Y-270069524D01*
X26064646Y-269953828D01*
X26203828Y-269814646D01*
X26319524Y-269655405D01*
X26408884Y-269480025D01*
X26469709Y-269292826D01*
X26500500Y-269098417D01*
X26500500Y-268901583D01*
X26500500Y-268901579D01*
X26469710Y-268707178D01*
X26469709Y-268707174D01*
X26408884Y-268519975D01*
X26319524Y-268344595D01*
X26203828Y-268185354D01*
X26064646Y-268046172D01*
X25905405Y-267930476D01*
X25905404Y-267930475D01*
X25905402Y-267930474D01*
X25730025Y-267841116D01*
X25542821Y-267780289D01*
X25348420Y-267749500D01*
X25348417Y-267749500D01*
X25151583Y-267749500D01*
X25151580Y-267749500D01*
X24957178Y-267780289D01*
X24769974Y-267841116D01*
X24594597Y-267930474D01*
X24435355Y-268046171D01*
X24296171Y-268185355D01*
X24180474Y-268344597D01*
X24091116Y-268519974D01*
X24030289Y-268707178D01*
X23999500Y-268901579D01*
X10500500Y-268901579D01*
X10500500Y-74934108D01*
X99499500Y-74934108D01*
X99499500Y-225065892D01*
X99529579Y-225178151D01*
X99533609Y-225193190D01*
X99599496Y-225307309D01*
X99599498Y-225307311D01*
X99599500Y-225307314D01*
X99692686Y-225400500D01*
X99692688Y-225400501D01*
X99692690Y-225400503D01*
X99806810Y-225466390D01*
X99806808Y-225466390D01*
X99806812Y-225466391D01*
X99806814Y-225466392D01*
X99934108Y-225500500D01*
X99934110Y-225500500D01*
X300065890Y-225500500D01*
X300065892Y-225500500D01*
X300193186Y-225466392D01*
X300193188Y-225466390D01*
X300193190Y-225466390D01*
X300307309Y-225400503D01*
X300307309Y-225400502D01*
X300307314Y-225400500D01*
X300400500Y-225307314D01*
X300466392Y-225193186D01*
X300500500Y-225065892D01*
X300500500Y-160130693D01*
X300519407Y-160072502D01*
X300568907Y-160036538D01*
X300580174Y-160033597D01*
X300714328Y-160006913D01*
X300841811Y-159954108D01*
X300956542Y-159877447D01*
X301054114Y-159779875D01*
X301062686Y-159767045D01*
X301110732Y-159729168D01*
X301171871Y-159726764D01*
X301222745Y-159760756D01*
X301227295Y-159767018D01*
X301235886Y-159779875D01*
X301235890Y-159779879D01*
X301333458Y-159877447D01*
X301448182Y-159954104D01*
X301448193Y-159954110D01*
X301495283Y-159973615D01*
X301575672Y-160006913D01*
X301711007Y-160033833D01*
X301711008Y-160033833D01*
X301848992Y-160033833D01*
X301848993Y-160033833D01*
X301984328Y-160006913D01*
X302111811Y-159954108D01*
X302226542Y-159877447D01*
X302324114Y-159779875D01*
X302332686Y-159767045D01*
X302380732Y-159729168D01*
X302441871Y-159726764D01*
X302492745Y-159760756D01*
X302497295Y-159767018D01*
X302505886Y-159779875D01*
X302505890Y-159779879D01*
X302603458Y-159877447D01*
X302718182Y-159954104D01*
X302718193Y-159954110D01*
X302765283Y-159973615D01*
X302845672Y-160006913D01*
X302981007Y-160033833D01*
X302981008Y-160033833D01*
X303118992Y-160033833D01*
X303118993Y-160033833D01*
X303254328Y-160006913D01*
X303381811Y-159954108D01*
X303496542Y-159877447D01*
X303594114Y-159779875D01*
X303602686Y-159767045D01*
X303650732Y-159729168D01*
X303711871Y-159726764D01*
X303762745Y-159760756D01*
X303767295Y-159767018D01*
X303775886Y-159779875D01*
X303775890Y-159779879D01*
X303873458Y-159877447D01*
X303988182Y-159954104D01*
X303988193Y-159954110D01*
X304035283Y-159973615D01*
X304115672Y-160006913D01*
X304251007Y-160033833D01*
X304251008Y-160033833D01*
X304388992Y-160033833D01*
X304388993Y-160033833D01*
X304524328Y-160006913D01*
X304651811Y-159954108D01*
X304766542Y-159877447D01*
X304864114Y-159779875D01*
X304940775Y-159665144D01*
X304993580Y-159537661D01*
X305020500Y-159402326D01*
X305020500Y-159264340D01*
X304993580Y-159129005D01*
X304940775Y-159001522D01*
X304940774Y-159001520D01*
X304940771Y-159001515D01*
X304864114Y-158886791D01*
X304766546Y-158789223D01*
X304766545Y-158789222D01*
X304766542Y-158789219D01*
X304753712Y-158780646D01*
X304715835Y-158732601D01*
X304713431Y-158671462D01*
X304747423Y-158620588D01*
X304753685Y-158616037D01*
X304766542Y-158607447D01*
X304864114Y-158509875D01*
X304940775Y-158395144D01*
X304993580Y-158267661D01*
X305020500Y-158132326D01*
X305020500Y-157994340D01*
X304993580Y-157859005D01*
X304940775Y-157731522D01*
X304940774Y-157731520D01*
X304940771Y-157731515D01*
X304864114Y-157616791D01*
X304766541Y-157519218D01*
X304651817Y-157442561D01*
X304651806Y-157442555D01*
X304524328Y-157389753D01*
X304388995Y-157362833D01*
X304388993Y-157362833D01*
X304251007Y-157362833D01*
X304251004Y-157362833D01*
X304115672Y-157389753D01*
X304115670Y-157389753D01*
X303988193Y-157442555D01*
X303988182Y-157442561D01*
X303873458Y-157519218D01*
X303775889Y-157616787D01*
X303775886Y-157616791D01*
X303767315Y-157629619D01*
X303719265Y-157667498D01*
X303658127Y-157669900D01*
X303607253Y-157635907D01*
X303602685Y-157629619D01*
X303594114Y-157616791D01*
X303496542Y-157519219D01*
X303496541Y-157519218D01*
X303381817Y-157442561D01*
X303381806Y-157442555D01*
X303254328Y-157389753D01*
X303118995Y-157362833D01*
X303118993Y-157362833D01*
X302981007Y-157362833D01*
X302981004Y-157362833D01*
X302845672Y-157389753D01*
X302845670Y-157389753D01*
X302718193Y-157442555D01*
X302718182Y-157442561D01*
X302603458Y-157519218D01*
X302505889Y-157616787D01*
X302505886Y-157616791D01*
X302497315Y-157629619D01*
X302449265Y-157667498D01*
X302388127Y-157669900D01*
X302337253Y-157635907D01*
X302332685Y-157629619D01*
X302324114Y-157616791D01*
X302226542Y-157519219D01*
X302226541Y-157519218D01*
X302111817Y-157442561D01*
X302111806Y-157442555D01*
X301984328Y-157389753D01*
X301848995Y-157362833D01*
X301848993Y-157362833D01*
X301711007Y-157362833D01*
X301711004Y-157362833D01*
X301575672Y-157389753D01*
X301575670Y-157389753D01*
X301448193Y-157442555D01*
X301448182Y-157442561D01*
X301333458Y-157519218D01*
X301235889Y-157616787D01*
X301235886Y-157616791D01*
X301227315Y-157629619D01*
X301179265Y-157667498D01*
X301118127Y-157669900D01*
X301067253Y-157635907D01*
X301062685Y-157629619D01*
X301054114Y-157616791D01*
X300956542Y-157519219D01*
X300956541Y-157519218D01*
X300841817Y-157442561D01*
X300841806Y-157442555D01*
X300714328Y-157389753D01*
X300580186Y-157363070D01*
X300526802Y-157333173D01*
X300501186Y-157277608D01*
X300500500Y-157265972D01*
X300500500Y-122797360D01*
X300519407Y-122739169D01*
X300568907Y-122703205D01*
X300580174Y-122700264D01*
X300714328Y-122673580D01*
X300841811Y-122620775D01*
X300956542Y-122544114D01*
X301054114Y-122446542D01*
X301062686Y-122433712D01*
X301110732Y-122395835D01*
X301171871Y-122393431D01*
X301222745Y-122427423D01*
X301227295Y-122433685D01*
X301235886Y-122446542D01*
X301235890Y-122446546D01*
X301333458Y-122544114D01*
X301448182Y-122620771D01*
X301448193Y-122620777D01*
X301495283Y-122640282D01*
X301575672Y-122673580D01*
X301711007Y-122700500D01*
X301711008Y-122700500D01*
X301848992Y-122700500D01*
X301848993Y-122700500D01*
X301984328Y-122673580D01*
X302111811Y-122620775D01*
X302226542Y-122544114D01*
X302324114Y-122446542D01*
X302400775Y-122331811D01*
X302453580Y-122204328D01*
X302480500Y-122068993D01*
X302480500Y-121931007D01*
X302453580Y-121795672D01*
X302400775Y-121668189D01*
X302400774Y-121668187D01*
X302400771Y-121668182D01*
X302324114Y-121553458D01*
X302226546Y-121455890D01*
X302226545Y-121455889D01*
X302226542Y-121455886D01*
X302213712Y-121447313D01*
X302175835Y-121399268D01*
X302173431Y-121338129D01*
X302207423Y-121287255D01*
X302213685Y-121282704D01*
X302226542Y-121274114D01*
X302324114Y-121176542D01*
X302400775Y-121061811D01*
X302453580Y-120934328D01*
X302480500Y-120798993D01*
X302480500Y-120661007D01*
X302453580Y-120525672D01*
X302400775Y-120398189D01*
X302400774Y-120398187D01*
X302400771Y-120398182D01*
X302324114Y-120283458D01*
X302226541Y-120185885D01*
X302111817Y-120109228D01*
X302111806Y-120109222D01*
X301984328Y-120056420D01*
X301848995Y-120029500D01*
X301848993Y-120029500D01*
X301711007Y-120029500D01*
X301711004Y-120029500D01*
X301575672Y-120056420D01*
X301575670Y-120056420D01*
X301448193Y-120109222D01*
X301448182Y-120109228D01*
X301333458Y-120185885D01*
X301235889Y-120283454D01*
X301235886Y-120283458D01*
X301227315Y-120296286D01*
X301179265Y-120334165D01*
X301118127Y-120336567D01*
X301067253Y-120302574D01*
X301062685Y-120296286D01*
X301054114Y-120283458D01*
X300956542Y-120185886D01*
X300956541Y-120185885D01*
X300841817Y-120109228D01*
X300841806Y-120109222D01*
X300714328Y-120056420D01*
X300580186Y-120029737D01*
X300526802Y-119999840D01*
X300501186Y-119944275D01*
X300500500Y-119932639D01*
X300500500Y-74934109D01*
X300500500Y-74934108D01*
X300466392Y-74806814D01*
X300466390Y-74806811D01*
X300466390Y-74806809D01*
X300400503Y-74692690D01*
X300400501Y-74692688D01*
X300400500Y-74692686D01*
X300307314Y-74599500D01*
X300307311Y-74599498D01*
X300307309Y-74599496D01*
X300193189Y-74533609D01*
X300193191Y-74533609D01*
X300143799Y-74520375D01*
X300065892Y-74499500D01*
X100065892Y-74499500D01*
X99934108Y-74499500D01*
X99856200Y-74520375D01*
X99806809Y-74533609D01*
X99692690Y-74599496D01*
X99599496Y-74692690D01*
X99533609Y-74806809D01*
X99533608Y-74806814D01*
X99499500Y-74934108D01*
X10500500Y-74934108D01*
X10500500Y-19862326D01*
X17899500Y-19862326D01*
X17899500Y-19913734D01*
X17899500Y-20137674D01*
X17935440Y-20410666D01*
X17938145Y-20420760D01*
X18006704Y-20676631D01*
X18112074Y-20931016D01*
X18112077Y-20931021D01*
X18249751Y-21169479D01*
X18417372Y-21387928D01*
X18612072Y-21582628D01*
X18830521Y-21750249D01*
X19068979Y-21887923D01*
X19068980Y-21887923D01*
X19068983Y-21887925D01*
X19323368Y-21993295D01*
X19589334Y-22064560D01*
X19862326Y-22100500D01*
X19862327Y-22100500D01*
X20137673Y-22100500D01*
X20137674Y-22100500D01*
X20410666Y-22064560D01*
X20676632Y-21993295D01*
X20931021Y-21887923D01*
X21169479Y-21750249D01*
X21387928Y-21582628D01*
X21582628Y-21387928D01*
X21750249Y-21169479D01*
X21887923Y-20931021D01*
X21993295Y-20676632D01*
X22064560Y-20410666D01*
X22100500Y-20137674D01*
X22100500Y-19862326D01*
X302899500Y-19862326D01*
X302899500Y-19913734D01*
X302899500Y-20137674D01*
X302935440Y-20410666D01*
X302938145Y-20420760D01*
X303006704Y-20676631D01*
X303112074Y-20931016D01*
X303112077Y-20931021D01*
X303249751Y-21169479D01*
X303417372Y-21387928D01*
X303612072Y-21582628D01*
X303830521Y-21750249D01*
X304068979Y-21887923D01*
X304068980Y-21887923D01*
X304068983Y-21887925D01*
X304323368Y-21993295D01*
X304589334Y-22064560D01*
X304862326Y-22100500D01*
X304862327Y-22100500D01*
X305137673Y-22100500D01*
X305137674Y-22100500D01*
X305410666Y-22064560D01*
X305676632Y-21993295D01*
X305931021Y-21887923D01*
X306169479Y-21750249D01*
X306387928Y-21582628D01*
X306582628Y-21387928D01*
X306750249Y-21169479D01*
X306887923Y-20931021D01*
X306993295Y-20676632D01*
X307064560Y-20410666D01*
X307100500Y-20137674D01*
X307100500Y-19862326D01*
X307064560Y-19589334D01*
X306993295Y-19323368D01*
X306977611Y-19285504D01*
X306887925Y-19068983D01*
X306853064Y-19008602D01*
X306750249Y-18830521D01*
X306582628Y-18612072D01*
X306387928Y-18417372D01*
X306169479Y-18249751D01*
X305931021Y-18112077D01*
X305931016Y-18112074D01*
X305676631Y-18006704D01*
X305555521Y-17974253D01*
X305410666Y-17935440D01*
X305410659Y-17935439D01*
X305137675Y-17899500D01*
X305137674Y-17899500D01*
X304862326Y-17899500D01*
X304862324Y-17899500D01*
X304589340Y-17935439D01*
X304589338Y-17935439D01*
X304589334Y-17935440D01*
X304488805Y-17962376D01*
X304323368Y-18006704D01*
X304068983Y-18112074D01*
X303830517Y-18249753D01*
X303612075Y-18417369D01*
X303417369Y-18612075D01*
X303249753Y-18830517D01*
X303112074Y-19068983D01*
X303006704Y-19323368D01*
X302979335Y-19425513D01*
X302935440Y-19589334D01*
X302899500Y-19862326D01*
X22100500Y-19862326D01*
X22064560Y-19589334D01*
X21993295Y-19323368D01*
X21977611Y-19285504D01*
X21887925Y-19068983D01*
X21853064Y-19008602D01*
X21750249Y-18830521D01*
X21582628Y-18612072D01*
X21387928Y-18417372D01*
X21169479Y-18249751D01*
X20931021Y-18112077D01*
X20931016Y-18112074D01*
X20676631Y-18006704D01*
X20555521Y-17974253D01*
X20410666Y-17935440D01*
X20410659Y-17935439D01*
X20137675Y-17899500D01*
X20137674Y-17899500D01*
X19862326Y-17899500D01*
X19862324Y-17899500D01*
X19589340Y-17935439D01*
X19589338Y-17935439D01*
X19589334Y-17935440D01*
X19488805Y-17962376D01*
X19323368Y-18006704D01*
X19068983Y-18112074D01*
X18830517Y-18249753D01*
X18612075Y-18417369D01*
X18417369Y-18612075D01*
X18249753Y-18830517D01*
X18112074Y-19068983D01*
X18006704Y-19323368D01*
X17979335Y-19425513D01*
X17935440Y-19589334D01*
X17899500Y-19862326D01*
X10500500Y-19862326D01*
X10500500Y-17345376D01*
X14249500Y-17345376D01*
X14249500Y-17587955D01*
X14281161Y-17828447D01*
X14281161Y-17828452D01*
X14343944Y-18062758D01*
X14343948Y-18062771D01*
X14436772Y-18286870D01*
X14436774Y-18286874D01*
X14436776Y-18286878D01*
X14512115Y-18417369D01*
X14558066Y-18496958D01*
X14705729Y-18689397D01*
X14705731Y-18689399D01*
X14705735Y-18689404D01*
X14877262Y-18860931D01*
X14877266Y-18860934D01*
X14877268Y-18860936D01*
X14933246Y-18903889D01*
X15069711Y-19008602D01*
X15279788Y-19129890D01*
X15503900Y-19222720D01*
X15738211Y-19285504D01*
X15978712Y-19317166D01*
X15978713Y-19317166D01*
X16221287Y-19317166D01*
X16221288Y-19317166D01*
X16461789Y-19285504D01*
X16696100Y-19222720D01*
X16920212Y-19129890D01*
X17130289Y-19008602D01*
X17322738Y-18860931D01*
X17494265Y-18689404D01*
X17641936Y-18496955D01*
X17763224Y-18286878D01*
X17856054Y-18062766D01*
X17918838Y-17828455D01*
X17950500Y-17587954D01*
X17950500Y-17345378D01*
X17950500Y-17345376D01*
X307049500Y-17345376D01*
X307049500Y-17587955D01*
X307081161Y-17828447D01*
X307081161Y-17828452D01*
X307143944Y-18062758D01*
X307143948Y-18062771D01*
X307236772Y-18286870D01*
X307236774Y-18286874D01*
X307236776Y-18286878D01*
X307312115Y-18417369D01*
X307358066Y-18496958D01*
X307505729Y-18689397D01*
X307505731Y-18689399D01*
X307505735Y-18689404D01*
X307677262Y-18860931D01*
X307677266Y-18860934D01*
X307677268Y-18860936D01*
X307733246Y-18903889D01*
X307869711Y-19008602D01*
X308079788Y-19129890D01*
X308303900Y-19222720D01*
X308538211Y-19285504D01*
X308778712Y-19317166D01*
X308778713Y-19317166D01*
X309021287Y-19317166D01*
X309021288Y-19317166D01*
X309261789Y-19285504D01*
X309496100Y-19222720D01*
X309720212Y-19129890D01*
X309930289Y-19008602D01*
X310122738Y-18860931D01*
X310294265Y-18689404D01*
X310441936Y-18496955D01*
X310563224Y-18286878D01*
X310656054Y-18062766D01*
X310718838Y-17828455D01*
X310750500Y-17587954D01*
X310750500Y-17345378D01*
X310718838Y-17104877D01*
X310656054Y-16870566D01*
X310563224Y-16646454D01*
X310441936Y-16436377D01*
X310294265Y-16243928D01*
X310122738Y-16072401D01*
X310122733Y-16072397D01*
X310122731Y-16072395D01*
X309930292Y-15924732D01*
X309930289Y-15924730D01*
X309720212Y-15803442D01*
X309720208Y-15803440D01*
X309720204Y-15803438D01*
X309496105Y-15710614D01*
X309496104Y-15710613D01*
X309496100Y-15710612D01*
X309261789Y-15647828D01*
X309261786Y-15647827D01*
X309261784Y-15647827D01*
X309021289Y-15616166D01*
X309021288Y-15616166D01*
X308778712Y-15616166D01*
X308778710Y-15616166D01*
X308538218Y-15647827D01*
X308538213Y-15647827D01*
X308303907Y-15710610D01*
X308303894Y-15710614D01*
X308079795Y-15803438D01*
X307869707Y-15924732D01*
X307677268Y-16072395D01*
X307505729Y-16243934D01*
X307358066Y-16436373D01*
X307236772Y-16646461D01*
X307143948Y-16870560D01*
X307143944Y-16870573D01*
X307081161Y-17104879D01*
X307081161Y-17104884D01*
X307049500Y-17345376D01*
X17950500Y-17345376D01*
X17918838Y-17104877D01*
X17856054Y-16870566D01*
X17763224Y-16646454D01*
X17641936Y-16436377D01*
X17494265Y-16243928D01*
X17322738Y-16072401D01*
X17322733Y-16072397D01*
X17322731Y-16072395D01*
X17130292Y-15924732D01*
X17130289Y-15924730D01*
X16920212Y-15803442D01*
X16920208Y-15803440D01*
X16920204Y-15803438D01*
X16696105Y-15710614D01*
X16696104Y-15710613D01*
X16696100Y-15710612D01*
X16461789Y-15647828D01*
X16461786Y-15647827D01*
X16461784Y-15647827D01*
X16221289Y-15616166D01*
X16221288Y-15616166D01*
X15978712Y-15616166D01*
X15978710Y-15616166D01*
X15738218Y-15647827D01*
X15738213Y-15647827D01*
X15503907Y-15710610D01*
X15503894Y-15710614D01*
X15279795Y-15803438D01*
X15069707Y-15924732D01*
X14877268Y-16072395D01*
X14705729Y-16243934D01*
X14558066Y-16436373D01*
X14436772Y-16646461D01*
X14343948Y-16870560D01*
X14343944Y-16870573D01*
X14281161Y-17104879D01*
X14281161Y-17104884D01*
X14249500Y-17345376D01*
X10500500Y-17345376D01*
X10500500Y-10599500D01*
X10519407Y-10541309D01*
X10568907Y-10505345D01*
X10599500Y-10500500D01*
X314400500Y-10500500D01*
X314458691Y-10519407D01*
G37*
%TD.AperFunction*%
%TD*%
D14*
X158000000Y-163000000D03*
X83000000Y-243000000D03*
X78000000Y-243000000D03*
X73000000Y-243000000D03*
X193000000Y-78000000D03*
X103000000Y-253000000D03*
X118000000Y-253000000D03*
X73000000Y-268000000D03*
X88000000Y-253000000D03*
X73000000Y-263000000D03*
X163000000Y-163000000D03*
X118000000Y-123000000D03*
X113000000Y-123000000D03*
X133000000Y-123000000D03*
X143000000Y-123000000D03*
X123000000Y-123000000D03*
X148000000Y-123000000D03*
X138000000Y-123000000D03*
X153000000Y-123000000D03*
X128000000Y-123000000D03*
X158000000Y-123000000D03*
X298000000Y-158000000D03*
X198000000Y-33000000D03*
X273000000Y-18000000D03*
X138000000Y-133000000D03*
X113000000Y-193000000D03*
X108000000Y-253000000D03*
X288000000Y-178000000D03*
X143000000Y-68000000D03*
X238000000Y-53000000D03*
X113000000Y-133000000D03*
X263000000Y-208000000D03*
X128000000Y-183000000D03*
X113000000Y-63000000D03*
X173000000Y-238000000D03*
X113000000Y-83000000D03*
X153000000Y-53000000D03*
X273000000Y-188000000D03*
X138000000Y-68000000D03*
X178000000Y-268000000D03*
X58000000Y-228000000D03*
X303000000Y-58000000D03*
X73000000Y-198000000D03*
X43000000Y-88000000D03*
X298000000Y-238000000D03*
X143000000Y-138000000D03*
X83000000Y-258000000D03*
X83000000Y-158000000D03*
X283000000Y-193000000D03*
X233000000Y-268000000D03*
X278000000Y-43000000D03*
X18000000Y-163000000D03*
X188000000Y-248000000D03*
X143000000Y-273000000D03*
X108000000Y-18000000D03*
X58000000Y-183000000D03*
X53000000Y-198000000D03*
X213000000Y-193000000D03*
X188000000Y-278000000D03*
X38000000Y-83000000D03*
X193000000Y-213000000D03*
X83000000Y-188000000D03*
X233000000Y-133000000D03*
X123000000Y-163000000D03*
X188000000Y-203000000D03*
X78000000Y-138000000D03*
X263000000Y-43000000D03*
X98000000Y-133000000D03*
X103000000Y-223000000D03*
X268000000Y-213000000D03*
X198000000Y-238000000D03*
X108000000Y-53000000D03*
X123000000Y-93000000D03*
X283000000Y-128000000D03*
X128000000Y-128000000D03*
X183000000Y-163000000D03*
X298000000Y-23000000D03*
X123000000Y-133000000D03*
X288000000Y-68000000D03*
X78000000Y-23000000D03*
X143000000Y-18000000D03*
X78000000Y-18000000D03*
X123000000Y-173000000D03*
X28000000Y-233000000D03*
X88000000Y-163000000D03*
X248000000Y-148000000D03*
D15*
X160600000Y-81033333D03*
D14*
X258000000Y-148000000D03*
X98000000Y-258000000D03*
X228000000Y-188000000D03*
X233000000Y-253000000D03*
X63000000Y-233000000D03*
X38000000Y-143000000D03*
X123000000Y-108000000D03*
X178000000Y-253000000D03*
X213000000Y-213000000D03*
X143000000Y-73000000D03*
X48000000Y-53000000D03*
X143000000Y-193000000D03*
X43000000Y-158000000D03*
X303000000Y-93000000D03*
X218000000Y-83000000D03*
X248000000Y-178000000D03*
X198000000Y-248000000D03*
X98000000Y-278000000D03*
X238000000Y-148000000D03*
X48000000Y-173000000D03*
X108000000Y-143000000D03*
X73000000Y-278000000D03*
X118000000Y-23000000D03*
X278000000Y-38000000D03*
X238000000Y-268000000D03*
X168000000Y-128000000D03*
X128000000Y-28000000D03*
X183000000Y-83000000D03*
X108000000Y-48000000D03*
X278000000Y-123000000D03*
X138000000Y-148000000D03*
X38000000Y-78000000D03*
X233000000Y-23000000D03*
X123000000Y-48000000D03*
X298000000Y-68000000D03*
X218000000Y-43000000D03*
X88000000Y-103000000D03*
X83000000Y-163000000D03*
X98000000Y-88000000D03*
X278000000Y-48000000D03*
X238000000Y-123000000D03*
X148000000Y-263000000D03*
X273000000Y-213000000D03*
X268000000Y-118000000D03*
D15*
X161600000Y-84033333D03*
D14*
X298000000Y-88000000D03*
D15*
X161600000Y-80033333D03*
D14*
X33000000Y-93000000D03*
X173000000Y-108000000D03*
X63000000Y-53000000D03*
X88000000Y-193000000D03*
X53000000Y-43000000D03*
X248000000Y-203000000D03*
X158000000Y-183000000D03*
X253000000Y-78000000D03*
X148000000Y-88000000D03*
X233000000Y-98000000D03*
X198000000Y-123000000D03*
X218000000Y-198000000D03*
X258000000Y-173000000D03*
X63000000Y-123000000D03*
X88000000Y-158000000D03*
X113000000Y-43000000D03*
X133000000Y-263000000D03*
X58000000Y-143000000D03*
X33000000Y-258000000D03*
X103000000Y-213000000D03*
X198000000Y-258000000D03*
X208000000Y-138000000D03*
X128000000Y-138000000D03*
X88000000Y-93000000D03*
X233000000Y-228000000D03*
X178000000Y-228000000D03*
X113000000Y-28000000D03*
X258000000Y-18000000D03*
X93000000Y-273000000D03*
X63000000Y-33000000D03*
X228000000Y-78000000D03*
X218000000Y-68000000D03*
X193000000Y-228000000D03*
X183000000Y-93000000D03*
X128000000Y-83000000D03*
X233000000Y-218000000D03*
X78000000Y-213000000D03*
X303000000Y-98000000D03*
X173000000Y-178000000D03*
X243000000Y-183000000D03*
X123000000Y-223000000D03*
X33000000Y-48000000D03*
X268000000Y-163000000D03*
X178000000Y-163000000D03*
X48000000Y-143000000D03*
X108000000Y-103000000D03*
X303000000Y-188000000D03*
X168000000Y-103000000D03*
X53000000Y-18000000D03*
X198000000Y-113000000D03*
X233000000Y-118000000D03*
X173000000Y-128000000D03*
X303000000Y-233000000D03*
X213000000Y-123000000D03*
X268000000Y-98000000D03*
X193000000Y-123000000D03*
X168000000Y-138000000D03*
X43000000Y-203000000D03*
X173000000Y-213000000D03*
X248000000Y-188000000D03*
X233000000Y-78000000D03*
X173000000Y-248000000D03*
X178000000Y-73000000D03*
X283000000Y-223000000D03*
X263000000Y-248000000D03*
X278000000Y-248000000D03*
X88000000Y-118000000D03*
X288000000Y-223000000D03*
X303000000Y-263000000D03*
X253000000Y-193000000D03*
X188000000Y-68000000D03*
X68000000Y-38000000D03*
X263000000Y-263000000D03*
X108000000Y-83000000D03*
X253000000Y-43000000D03*
X258000000Y-208000000D03*
X18000000Y-193000000D03*
X293000000Y-33000000D03*
X108000000Y-243000000D03*
X23000000Y-168000000D03*
X228000000Y-118000000D03*
X78000000Y-203000000D03*
X68000000Y-98000000D03*
X168000000Y-193000000D03*
X288000000Y-218000000D03*
X158000000Y-193000000D03*
X108000000Y-98000000D03*
X53000000Y-208000000D03*
X123000000Y-38000000D03*
X223000000Y-33000000D03*
X218000000Y-193000000D03*
X38000000Y-153000000D03*
X293000000Y-133000000D03*
X113000000Y-113000000D03*
D15*
X163549999Y-85033333D03*
D14*
X168000000Y-143000000D03*
X228000000Y-103000000D03*
X58000000Y-148000000D03*
D15*
X161600000Y-79033333D03*
X161600000Y-83033333D03*
D14*
X253000000Y-28000000D03*
X48000000Y-128000000D03*
X268000000Y-158000000D03*
X113000000Y-78000000D03*
X48000000Y-198000000D03*
X48000000Y-103000000D03*
X178000000Y-248000000D03*
X98000000Y-58000000D03*
X253000000Y-98000000D03*
X228000000Y-213000000D03*
X243000000Y-68000000D03*
X208000000Y-113000000D03*
X263000000Y-73000000D03*
X168000000Y-228000000D03*
X38000000Y-33000000D03*
X63000000Y-48000000D03*
X58000000Y-23000000D03*
X173000000Y-273000000D03*
X253000000Y-273000000D03*
X283000000Y-178000000D03*
X243000000Y-278000000D03*
X153000000Y-88000000D03*
X288000000Y-168000000D03*
X133000000Y-223000000D03*
X183000000Y-218000000D03*
X73000000Y-173000000D03*
X88000000Y-278000000D03*
X158000000Y-168000000D03*
X258000000Y-23000000D03*
X103000000Y-193000000D03*
X133000000Y-163000000D03*
X273000000Y-228000000D03*
X173000000Y-133000000D03*
X118000000Y-153000000D03*
X68000000Y-238000000D03*
X73000000Y-48000000D03*
X233000000Y-173000000D03*
X113000000Y-23000000D03*
X78000000Y-183000000D03*
X28000000Y-73000000D03*
X68000000Y-203000000D03*
X263000000Y-118000000D03*
X143000000Y-223000000D03*
X73000000Y-63000000D03*
X293000000Y-28000000D03*
D15*
X163600000Y-79033333D03*
D14*
X58000000Y-73000000D03*
X133000000Y-228000000D03*
X118000000Y-263000000D03*
X123000000Y-158000000D03*
X23000000Y-98000000D03*
X238000000Y-68000000D03*
X253000000Y-263000000D03*
X153000000Y-258000000D03*
X293000000Y-228000000D03*
X88000000Y-113000000D03*
X113000000Y-33000000D03*
X213000000Y-178000000D03*
X33000000Y-278000000D03*
X43000000Y-193000000D03*
X68000000Y-193000000D03*
X248000000Y-133000000D03*
X178000000Y-168000000D03*
X178000000Y-178000000D03*
X148000000Y-128000000D03*
X303000000Y-278000000D03*
X148000000Y-178000000D03*
X243000000Y-238000000D03*
X98000000Y-113000000D03*
X133000000Y-78000000D03*
X43000000Y-118000000D03*
X113000000Y-38000000D03*
X43000000Y-53000000D03*
X143000000Y-173000000D03*
X158000000Y-33000000D03*
X88000000Y-153000000D03*
X133000000Y-183000000D03*
X298000000Y-133000000D03*
X103000000Y-173000000D03*
X213000000Y-263000000D03*
X218000000Y-213000000D03*
X283000000Y-63000000D03*
X93000000Y-248000000D03*
X178000000Y-193000000D03*
X143000000Y-83000000D03*
X268000000Y-28000000D03*
X178000000Y-83000000D03*
X83000000Y-168000000D03*
X18000000Y-88000000D03*
X233000000Y-143000000D03*
X68000000Y-53000000D03*
X43000000Y-268000000D03*
X93000000Y-83000000D03*
X88000000Y-68000000D03*
X93000000Y-73000000D03*
X273000000Y-233000000D03*
X108000000Y-153000000D03*
X193000000Y-73000000D03*
X218000000Y-128000000D03*
X53000000Y-58000000D03*
X283000000Y-258000000D03*
X53000000Y-193000000D03*
X268000000Y-273000000D03*
X78000000Y-173000000D03*
X278000000Y-268000000D03*
X78000000Y-38000000D03*
X268000000Y-193000000D03*
X63000000Y-73000000D03*
X263000000Y-103000000D03*
X58000000Y-33000000D03*
X143000000Y-78000000D03*
X158000000Y-53000000D03*
X58000000Y-128000000D03*
X293000000Y-93000000D03*
X208000000Y-178000000D03*
X43000000Y-163000000D03*
X138000000Y-18000000D03*
X303000000Y-178000000D03*
X23000000Y-238000000D03*
X148000000Y-28000000D03*
X288000000Y-203000000D03*
X203000000Y-143000000D03*
X43000000Y-113000000D03*
X188000000Y-93000000D03*
X223000000Y-193000000D03*
X48000000Y-213000000D03*
D15*
X164549999Y-85033333D03*
D14*
X98000000Y-63000000D03*
X188000000Y-23000000D03*
X298000000Y-278000000D03*
X283000000Y-158000000D03*
X63000000Y-133000000D03*
X38000000Y-168000000D03*
X193000000Y-183000000D03*
X38000000Y-183000000D03*
X58000000Y-243000000D03*
X123000000Y-88000000D03*
X203000000Y-103000000D03*
X43000000Y-233000000D03*
X208000000Y-133000000D03*
X208000000Y-163000000D03*
X303000000Y-88000000D03*
X198000000Y-218000000D03*
X53000000Y-183000000D03*
X28000000Y-58000000D03*
X33000000Y-198000000D03*
X118000000Y-83000000D03*
X18000000Y-68000000D03*
X298000000Y-213000000D03*
X163000000Y-213000000D03*
X158000000Y-233000000D03*
X108000000Y-58000000D03*
X198000000Y-28000000D03*
X248000000Y-213000000D03*
X223000000Y-208000000D03*
D15*
X164549999Y-82033333D03*
D14*
X188000000Y-163000000D03*
X193000000Y-48000000D03*
X298000000Y-83000000D03*
X193000000Y-38000000D03*
X73000000Y-163000000D03*
X43000000Y-108000000D03*
X223000000Y-218000000D03*
X253000000Y-23000000D03*
X238000000Y-203000000D03*
X253000000Y-258000000D03*
X23000000Y-108000000D03*
X153000000Y-158000000D03*
X293000000Y-108000000D03*
X153000000Y-73000000D03*
X78000000Y-193000000D03*
X93000000Y-88000000D03*
X168000000Y-23000000D03*
X88000000Y-213000000D03*
X88000000Y-43000000D03*
X218000000Y-93000000D03*
X68000000Y-23000000D03*
X68000000Y-63000000D03*
X188000000Y-118000000D03*
X68000000Y-253000000D03*
X143000000Y-228000000D03*
X273000000Y-88000000D03*
X283000000Y-173000000D03*
X188000000Y-128000000D03*
X173000000Y-53000000D03*
X213000000Y-198000000D03*
X103000000Y-183000000D03*
X188000000Y-183000000D03*
X93000000Y-268000000D03*
X103000000Y-248000000D03*
X18000000Y-178000000D03*
X73000000Y-158000000D03*
X108000000Y-128000000D03*
X268000000Y-128000000D03*
X263000000Y-23000000D03*
X288000000Y-38000000D03*
X163000000Y-238000000D03*
X243000000Y-208000000D03*
X18000000Y-118000000D03*
X298000000Y-33000000D03*
X78000000Y-268000000D03*
X33000000Y-23000000D03*
X43000000Y-33000000D03*
X163000000Y-78000000D03*
X83000000Y-38000000D03*
X103000000Y-188000000D03*
X53000000Y-253000000D03*
X298000000Y-93000000D03*
X228000000Y-228000000D03*
X213000000Y-23000000D03*
X278000000Y-18000000D03*
X108000000Y-178000000D03*
X178000000Y-243000000D03*
X138000000Y-223000000D03*
X223000000Y-123000000D03*
X283000000Y-118000000D03*
X208000000Y-188000000D03*
X53000000Y-228000000D03*
X168000000Y-183000000D03*
X278000000Y-118000000D03*
X188000000Y-268000000D03*
X283000000Y-18000000D03*
X163000000Y-228000000D03*
X88000000Y-88000000D03*
X248000000Y-253000000D03*
X33000000Y-108000000D03*
X63000000Y-253000000D03*
X248000000Y-33000000D03*
D15*
X161549999Y-86033333D03*
D14*
X173000000Y-73000000D03*
X268000000Y-223000000D03*
X63000000Y-208000000D03*
X138000000Y-258000000D03*
D15*
X161549999Y-84033333D03*
D14*
X193000000Y-168000000D03*
X153000000Y-133000000D03*
X193000000Y-18000000D03*
X83000000Y-93000000D03*
X118000000Y-158000000D03*
D15*
X162600000Y-83033333D03*
D14*
X18000000Y-158000000D03*
X273000000Y-58000000D03*
X268000000Y-188000000D03*
X98000000Y-108000000D03*
X263000000Y-63000000D03*
X158000000Y-143000000D03*
X108000000Y-238000000D03*
X243000000Y-213000000D03*
X303000000Y-223000000D03*
X63000000Y-28000000D03*
X228000000Y-23000000D03*
X238000000Y-188000000D03*
X138000000Y-163000000D03*
X33000000Y-28000000D03*
X198000000Y-108000000D03*
X68000000Y-278000000D03*
X173000000Y-188000000D03*
D15*
X163600000Y-80033333D03*
D14*
X208000000Y-268000000D03*
X93000000Y-33000000D03*
X243000000Y-78000000D03*
X263000000Y-173000000D03*
X158000000Y-243000000D03*
X98000000Y-143000000D03*
X68000000Y-68000000D03*
X293000000Y-278000000D03*
X143000000Y-58000000D03*
X88000000Y-143000000D03*
X263000000Y-183000000D03*
X128000000Y-73000000D03*
X303000000Y-168000000D03*
X28000000Y-263000000D03*
X288000000Y-23000000D03*
X73000000Y-258000000D03*
X98000000Y-148000000D03*
X98000000Y-198000000D03*
X148000000Y-158000000D03*
X58000000Y-158000000D03*
X288000000Y-108000000D03*
X213000000Y-238000000D03*
X18000000Y-43000000D03*
X133000000Y-83000000D03*
X38000000Y-208000000D03*
X223000000Y-268000000D03*
X203000000Y-43000000D03*
X253000000Y-223000000D03*
X208000000Y-68000000D03*
X188000000Y-103000000D03*
D15*
X160600000Y-84033333D03*
D14*
X58000000Y-48000000D03*
X198000000Y-208000000D03*
X253000000Y-118000000D03*
X73000000Y-18000000D03*
X173000000Y-78000000D03*
X18000000Y-23000000D03*
X163000000Y-273000000D03*
X138000000Y-98000000D03*
X108000000Y-138000000D03*
X73000000Y-123000000D03*
X158000000Y-88000000D03*
X118000000Y-198000000D03*
X173000000Y-113000000D03*
X143000000Y-143000000D03*
X278000000Y-223000000D03*
X68000000Y-208000000D03*
X223000000Y-188000000D03*
X253000000Y-53000000D03*
X183000000Y-198000000D03*
X93000000Y-233000000D03*
X283000000Y-253000000D03*
X298000000Y-193000000D03*
X248000000Y-123000000D03*
X43000000Y-103000000D03*
X158000000Y-128000000D03*
X23000000Y-258000000D03*
X273000000Y-123000000D03*
X38000000Y-163000000D03*
X28000000Y-83000000D03*
X23000000Y-148000000D03*
X148000000Y-93000000D03*
X288000000Y-28000000D03*
X168000000Y-163000000D03*
X98000000Y-183000000D03*
X53000000Y-223000000D03*
X183000000Y-173000000D03*
X273000000Y-33000000D03*
X128000000Y-248000000D03*
X168000000Y-118000000D03*
X113000000Y-218000000D03*
X133000000Y-138000000D03*
X213000000Y-118000000D03*
X253000000Y-268000000D03*
X18000000Y-53000000D03*
X103000000Y-143000000D03*
X53000000Y-178000000D03*
X108000000Y-78000000D03*
X258000000Y-158000000D03*
X233000000Y-203000000D03*
X278000000Y-128000000D03*
X208000000Y-233000000D03*
X178000000Y-188000000D03*
X58000000Y-273000000D03*
X168000000Y-93000000D03*
X18000000Y-213000000D03*
X213000000Y-78000000D03*
X298000000Y-58000000D03*
X103000000Y-43000000D03*
X248000000Y-83000000D03*
X168000000Y-63000000D03*
X223000000Y-223000000D03*
X173000000Y-43000000D03*
X263000000Y-158000000D03*
X253000000Y-278000000D03*
X238000000Y-173000000D03*
D15*
X163549999Y-79033333D03*
D14*
X218000000Y-273000000D03*
X263000000Y-168000000D03*
X78000000Y-63000000D03*
X138000000Y-88000000D03*
X213000000Y-188000000D03*
X28000000Y-218000000D03*
X78000000Y-68000000D03*
X38000000Y-113000000D03*
X153000000Y-138000000D03*
X173000000Y-158000000D03*
X233000000Y-53000000D03*
X268000000Y-143000000D03*
X128000000Y-58000000D03*
D15*
X163549999Y-83033333D03*
D14*
X233000000Y-28000000D03*
X293000000Y-218000000D03*
X28000000Y-243000000D03*
X148000000Y-163000000D03*
X78000000Y-73000000D03*
X38000000Y-88000000D03*
X138000000Y-208000000D03*
X78000000Y-233000000D03*
X283000000Y-23000000D03*
X248000000Y-233000000D03*
X23000000Y-278000000D03*
X193000000Y-193000000D03*
X283000000Y-93000000D03*
X18000000Y-148000000D03*
X273000000Y-223000000D03*
X78000000Y-238000000D03*
X293000000Y-183000000D03*
X273000000Y-158000000D03*
X118000000Y-53000000D03*
X293000000Y-88000000D03*
X43000000Y-98000000D03*
X193000000Y-278000000D03*
X28000000Y-78000000D03*
X223000000Y-108000000D03*
X33000000Y-38000000D03*
X233000000Y-73000000D03*
X143000000Y-63000000D03*
X28000000Y-198000000D03*
X43000000Y-228000000D03*
X103000000Y-133000000D03*
X263000000Y-83000000D03*
X73000000Y-113000000D03*
X48000000Y-158000000D03*
X208000000Y-248000000D03*
X68000000Y-113000000D03*
X143000000Y-263000000D03*
X113000000Y-198000000D03*
X203000000Y-173000000D03*
X208000000Y-43000000D03*
X143000000Y-213000000D03*
X293000000Y-148000000D03*
X238000000Y-63000000D03*
X223000000Y-228000000D03*
X143000000Y-268000000D03*
X298000000Y-38000000D03*
X98000000Y-73000000D03*
X28000000Y-23000000D03*
X143000000Y-38000000D03*
X53000000Y-258000000D03*
X263000000Y-48000000D03*
X163000000Y-143000000D03*
X48000000Y-223000000D03*
X173000000Y-58000000D03*
X158000000Y-208000000D03*
X168000000Y-53000000D03*
X38000000Y-233000000D03*
X278000000Y-178000000D03*
X228000000Y-128000000D03*
X33000000Y-153000000D03*
X18000000Y-183000000D03*
X133000000Y-133000000D03*
X73000000Y-253000000D03*
X88000000Y-238000000D03*
X193000000Y-28000000D03*
X198000000Y-58000000D03*
X268000000Y-83000000D03*
X138000000Y-58000000D03*
X223000000Y-143000000D03*
X48000000Y-183000000D03*
X193000000Y-233000000D03*
X88000000Y-168000000D03*
X283000000Y-233000000D03*
X128000000Y-178000000D03*
X208000000Y-58000000D03*
X198000000Y-233000000D03*
X183000000Y-88000000D03*
X173000000Y-218000000D03*
X288000000Y-118000000D03*
X118000000Y-98000000D03*
X198000000Y-103000000D03*
X88000000Y-183000000D03*
X138000000Y-83000000D03*
X83000000Y-203000000D03*
X258000000Y-88000000D03*
X198000000Y-268000000D03*
X103000000Y-118000000D03*
X168000000Y-148000000D03*
X238000000Y-213000000D03*
X68000000Y-188000000D03*
X163000000Y-158000000D03*
X283000000Y-28000000D03*
X163000000Y-133000000D03*
X203000000Y-218000000D03*
X213000000Y-168000000D03*
X63000000Y-203000000D03*
X138000000Y-268000000D03*
X233000000Y-43000000D03*
X23000000Y-213000000D03*
X218000000Y-158000000D03*
X23000000Y-198000000D03*
X128000000Y-228000000D03*
X33000000Y-243000000D03*
X258000000Y-188000000D03*
X163000000Y-123000000D03*
X108000000Y-73000000D03*
X253000000Y-128000000D03*
X48000000Y-218000000D03*
X273000000Y-108000000D03*
X43000000Y-63000000D03*
X238000000Y-128000000D03*
X283000000Y-53000000D03*
X168000000Y-73000000D03*
X143000000Y-258000000D03*
X53000000Y-63000000D03*
X38000000Y-228000000D03*
X23000000Y-253000000D03*
X248000000Y-273000000D03*
X163000000Y-258000000D03*
X83000000Y-63000000D03*
X148000000Y-33000000D03*
X268000000Y-68000000D03*
X178000000Y-43000000D03*
X43000000Y-183000000D03*
X278000000Y-113000000D03*
X303000000Y-228000000D03*
X128000000Y-48000000D03*
X98000000Y-193000000D03*
X238000000Y-258000000D03*
X233000000Y-103000000D03*
X98000000Y-273000000D03*
X133000000Y-28000000D03*
X48000000Y-133000000D03*
X263000000Y-193000000D03*
X83000000Y-98000000D03*
X78000000Y-263000000D03*
X53000000Y-218000000D03*
X263000000Y-113000000D03*
X118000000Y-33000000D03*
X113000000Y-143000000D03*
X118000000Y-88000000D03*
X73000000Y-33000000D03*
X263000000Y-223000000D03*
X98000000Y-173000000D03*
X223000000Y-48000000D03*
D15*
X164549999Y-79033333D03*
D14*
X283000000Y-218000000D03*
X53000000Y-23000000D03*
X113000000Y-183000000D03*
X288000000Y-88000000D03*
X223000000Y-263000000D03*
X138000000Y-233000000D03*
X83000000Y-33000000D03*
X188000000Y-188000000D03*
X173000000Y-278000000D03*
X273000000Y-258000000D03*
X273000000Y-28000000D03*
X38000000Y-278000000D03*
X253000000Y-183000000D03*
X273000000Y-63000000D03*
X188000000Y-28000000D03*
X208000000Y-143000000D03*
X253000000Y-73000000D03*
X298000000Y-103000000D03*
X153000000Y-38000000D03*
X243000000Y-268000000D03*
X68000000Y-223000000D03*
X58000000Y-93000000D03*
X63000000Y-248000000D03*
X298000000Y-153000000D03*
X118000000Y-48000000D03*
X293000000Y-273000000D03*
X138000000Y-213000000D03*
X208000000Y-273000000D03*
X58000000Y-278000000D03*
X258000000Y-143000000D03*
X253000000Y-133000000D03*
X88000000Y-108000000D03*
X293000000Y-123000000D03*
X78000000Y-278000000D03*
X73000000Y-193000000D03*
X238000000Y-58000000D03*
X183000000Y-103000000D03*
X43000000Y-23000000D03*
X148000000Y-138000000D03*
X238000000Y-253000000D03*
X278000000Y-68000000D03*
X233000000Y-128000000D03*
X158000000Y-278000000D03*
X83000000Y-83000000D03*
X103000000Y-78000000D03*
X218000000Y-63000000D03*
X248000000Y-268000000D03*
X178000000Y-53000000D03*
X208000000Y-78000000D03*
X118000000Y-113000000D03*
X148000000Y-238000000D03*
X53000000Y-118000000D03*
X98000000Y-213000000D03*
X28000000Y-38000000D03*
X183000000Y-123000000D03*
X28000000Y-183000000D03*
X23000000Y-163000000D03*
X163000000Y-128000000D03*
X133000000Y-58000000D03*
X23000000Y-38000000D03*
X303000000Y-163000000D03*
X213000000Y-33000000D03*
X58000000Y-83000000D03*
X118000000Y-73000000D03*
X268000000Y-88000000D03*
X268000000Y-203000000D03*
X23000000Y-153000000D03*
X103000000Y-83000000D03*
X203000000Y-18000000D03*
X73000000Y-93000000D03*
X38000000Y-18000000D03*
X93000000Y-238000000D03*
X98000000Y-48000000D03*
X98000000Y-163000000D03*
X28000000Y-43000000D03*
X138000000Y-63000000D03*
X273000000Y-113000000D03*
X43000000Y-188000000D03*
X213000000Y-58000000D03*
X133000000Y-113000000D03*
X193000000Y-243000000D03*
X63000000Y-118000000D03*
X193000000Y-273000000D03*
X263000000Y-33000000D03*
X183000000Y-78000000D03*
X68000000Y-118000000D03*
X73000000Y-58000000D03*
X93000000Y-53000000D03*
X273000000Y-203000000D03*
X128000000Y-43000000D03*
X228000000Y-253000000D03*
X88000000Y-98000000D03*
X113000000Y-128000000D03*
X223000000Y-98000000D03*
X158000000Y-268000000D03*
X218000000Y-258000000D03*
X303000000Y-23000000D03*
X113000000Y-163000000D03*
X198000000Y-63000000D03*
X298000000Y-248000000D03*
X43000000Y-218000000D03*
X188000000Y-243000000D03*
X243000000Y-118000000D03*
X253000000Y-153000000D03*
X18000000Y-263000000D03*
X168000000Y-218000000D03*
X78000000Y-258000000D03*
X38000000Y-48000000D03*
D15*
X162600000Y-84033333D03*
D14*
X43000000Y-153000000D03*
X283000000Y-78000000D03*
X268000000Y-38000000D03*
X243000000Y-218000000D03*
X268000000Y-18000000D03*
X128000000Y-153000000D03*
X228000000Y-173000000D03*
X168000000Y-173000000D03*
X173000000Y-253000000D03*
X298000000Y-203000000D03*
X298000000Y-208000000D03*
X258000000Y-153000000D03*
X18000000Y-78000000D03*
X303000000Y-68000000D03*
X138000000Y-73000000D03*
X223000000Y-148000000D03*
X213000000Y-48000000D03*
X28000000Y-238000000D03*
X203000000Y-118000000D03*
X228000000Y-48000000D03*
X268000000Y-168000000D03*
X138000000Y-113000000D03*
X128000000Y-238000000D03*
X103000000Y-218000000D03*
X23000000Y-28000000D03*
X183000000Y-273000000D03*
X223000000Y-153000000D03*
X128000000Y-193000000D03*
X123000000Y-268000000D03*
X48000000Y-113000000D03*
X23000000Y-123000000D03*
X293000000Y-68000000D03*
X78000000Y-98000000D03*
X153000000Y-48000000D03*
X158000000Y-43000000D03*
X133000000Y-73000000D03*
X218000000Y-103000000D03*
X273000000Y-93000000D03*
X273000000Y-163000000D03*
X238000000Y-158000000D03*
X33000000Y-178000000D03*
X88000000Y-188000000D03*
X218000000Y-48000000D03*
X58000000Y-118000000D03*
X228000000Y-93000000D03*
X178000000Y-63000000D03*
X283000000Y-138000000D03*
X48000000Y-193000000D03*
X293000000Y-153000000D03*
X173000000Y-148000000D03*
X233000000Y-258000000D03*
X238000000Y-93000000D03*
X43000000Y-243000000D03*
X148000000Y-168000000D03*
X58000000Y-188000000D03*
X78000000Y-253000000D03*
X183000000Y-63000000D03*
X108000000Y-218000000D03*
X298000000Y-123000000D03*
X93000000Y-223000000D03*
X218000000Y-183000000D03*
X213000000Y-98000000D03*
X118000000Y-238000000D03*
X238000000Y-133000000D03*
X23000000Y-138000000D03*
X223000000Y-113000000D03*
X283000000Y-98000000D03*
X133000000Y-168000000D03*
X33000000Y-63000000D03*
X118000000Y-163000000D03*
X28000000Y-268000000D03*
X43000000Y-133000000D03*
X108000000Y-123000000D03*
X98000000Y-238000000D03*
X173000000Y-63000000D03*
X288000000Y-78000000D03*
X298000000Y-53000000D03*
X218000000Y-238000000D03*
X93000000Y-158000000D03*
X38000000Y-273000000D03*
X163000000Y-33000000D03*
X263000000Y-273000000D03*
X123000000Y-28000000D03*
X48000000Y-23000000D03*
X168000000Y-203000000D03*
X243000000Y-178000000D03*
X33000000Y-193000000D03*
X168000000Y-178000000D03*
X153000000Y-63000000D03*
X288000000Y-193000000D03*
X248000000Y-218000000D03*
X288000000Y-268000000D03*
X223000000Y-253000000D03*
X163000000Y-58000000D03*
X198000000Y-188000000D03*
X33000000Y-183000000D03*
X228000000Y-203000000D03*
X143000000Y-168000000D03*
X258000000Y-163000000D03*
X113000000Y-248000000D03*
X83000000Y-233000000D03*
X233000000Y-248000000D03*
X288000000Y-63000000D03*
X233000000Y-243000000D03*
X173000000Y-223000000D03*
X203000000Y-268000000D03*
X243000000Y-33000000D03*
X53000000Y-83000000D03*
X243000000Y-93000000D03*
X58000000Y-263000000D03*
X233000000Y-233000000D03*
X83000000Y-68000000D03*
X228000000Y-83000000D03*
X273000000Y-138000000D03*
X43000000Y-83000000D03*
X258000000Y-123000000D03*
X108000000Y-273000000D03*
X243000000Y-43000000D03*
X103000000Y-278000000D03*
X218000000Y-138000000D03*
X238000000Y-273000000D03*
X83000000Y-28000000D03*
X158000000Y-253000000D03*
X228000000Y-98000000D03*
X83000000Y-173000000D03*
X28000000Y-33000000D03*
X63000000Y-198000000D03*
X73000000Y-218000000D03*
X28000000Y-63000000D03*
X18000000Y-93000000D03*
X78000000Y-93000000D03*
X258000000Y-53000000D03*
X208000000Y-203000000D03*
X183000000Y-28000000D03*
X118000000Y-248000000D03*
X68000000Y-243000000D03*
X263000000Y-268000000D03*
X153000000Y-228000000D03*
X248000000Y-238000000D03*
X288000000Y-213000000D03*
X283000000Y-248000000D03*
X23000000Y-63000000D03*
X263000000Y-138000000D03*
X253000000Y-248000000D03*
X293000000Y-243000000D03*
X163000000Y-198000000D03*
X213000000Y-268000000D03*
X198000000Y-48000000D03*
X148000000Y-278000000D03*
X133000000Y-193000000D03*
X238000000Y-48000000D03*
X268000000Y-58000000D03*
X208000000Y-128000000D03*
X88000000Y-218000000D03*
X73000000Y-273000000D03*
X48000000Y-18000000D03*
D15*
X163600000Y-84033333D03*
D14*
X243000000Y-133000000D03*
X298000000Y-183000000D03*
X278000000Y-98000000D03*
X123000000Y-273000000D03*
X193000000Y-23000000D03*
X28000000Y-148000000D03*
X93000000Y-148000000D03*
X143000000Y-88000000D03*
X243000000Y-253000000D03*
X263000000Y-218000000D03*
X183000000Y-168000000D03*
X243000000Y-263000000D03*
X28000000Y-18000000D03*
X233000000Y-148000000D03*
X68000000Y-73000000D03*
X188000000Y-73000000D03*
X218000000Y-148000000D03*
X28000000Y-28000000D03*
X163000000Y-193000000D03*
X293000000Y-173000000D03*
X158000000Y-173000000D03*
X103000000Y-208000000D03*
X273000000Y-98000000D03*
X123000000Y-278000000D03*
X88000000Y-133000000D03*
X28000000Y-143000000D03*
X183000000Y-153000000D03*
X103000000Y-243000000D03*
X53000000Y-138000000D03*
X238000000Y-88000000D03*
X53000000Y-33000000D03*
D15*
X161600000Y-86033333D03*
D14*
X93000000Y-123000000D03*
X158000000Y-63000000D03*
X103000000Y-48000000D03*
X293000000Y-53000000D03*
X293000000Y-233000000D03*
X18000000Y-123000000D03*
X163000000Y-68000000D03*
X273000000Y-118000000D03*
X118000000Y-128000000D03*
X223000000Y-118000000D03*
X18000000Y-38000000D03*
X68000000Y-58000000D03*
X218000000Y-263000000D03*
X53000000Y-108000000D03*
X258000000Y-28000000D03*
X263000000Y-228000000D03*
X158000000Y-228000000D03*
X158000000Y-258000000D03*
X143000000Y-113000000D03*
X133000000Y-38000000D03*
X263000000Y-123000000D03*
X133000000Y-93000000D03*
X108000000Y-33000000D03*
X293000000Y-193000000D03*
X228000000Y-73000000D03*
X213000000Y-258000000D03*
X303000000Y-238000000D03*
X33000000Y-118000000D03*
X133000000Y-253000000D03*
D15*
X161549999Y-80033333D03*
D14*
X148000000Y-118000000D03*
X218000000Y-33000000D03*
D15*
X164549999Y-80033333D03*
D14*
X163000000Y-63000000D03*
X233000000Y-88000000D03*
X198000000Y-18000000D03*
X78000000Y-113000000D03*
X133000000Y-108000000D03*
X283000000Y-123000000D03*
X268000000Y-63000000D03*
X198000000Y-273000000D03*
X168000000Y-108000000D03*
X153000000Y-213000000D03*
X263000000Y-133000000D03*
X238000000Y-228000000D03*
X53000000Y-73000000D03*
X88000000Y-33000000D03*
X288000000Y-128000000D03*
X223000000Y-213000000D03*
X288000000Y-138000000D03*
X248000000Y-28000000D03*
X263000000Y-143000000D03*
X228000000Y-243000000D03*
X288000000Y-123000000D03*
X258000000Y-228000000D03*
X268000000Y-243000000D03*
X113000000Y-278000000D03*
X48000000Y-168000000D03*
X218000000Y-168000000D03*
X288000000Y-58000000D03*
X103000000Y-88000000D03*
X203000000Y-108000000D03*
X218000000Y-23000000D03*
X293000000Y-168000000D03*
X188000000Y-98000000D03*
X258000000Y-38000000D03*
X83000000Y-23000000D03*
X278000000Y-133000000D03*
X148000000Y-48000000D03*
X38000000Y-198000000D03*
X273000000Y-148000000D03*
X188000000Y-48000000D03*
X268000000Y-208000000D03*
X223000000Y-63000000D03*
X213000000Y-88000000D03*
X38000000Y-268000000D03*
X23000000Y-78000000D03*
X303000000Y-153000000D03*
X103000000Y-268000000D03*
X198000000Y-253000000D03*
X43000000Y-43000000D03*
X128000000Y-68000000D03*
X138000000Y-143000000D03*
X98000000Y-53000000D03*
X73000000Y-138000000D03*
X148000000Y-228000000D03*
X258000000Y-98000000D03*
X113000000Y-168000000D03*
X278000000Y-53000000D03*
X178000000Y-263000000D03*
X138000000Y-108000000D03*
X118000000Y-43000000D03*
X38000000Y-223000000D03*
X188000000Y-133000000D03*
X293000000Y-38000000D03*
X113000000Y-268000000D03*
X298000000Y-108000000D03*
X83000000Y-148000000D03*
X128000000Y-233000000D03*
X33000000Y-128000000D03*
X278000000Y-238000000D03*
X58000000Y-203000000D03*
X143000000Y-108000000D03*
X63000000Y-163000000D03*
X243000000Y-148000000D03*
X183000000Y-128000000D03*
X228000000Y-248000000D03*
X243000000Y-243000000D03*
X43000000Y-173000000D03*
X23000000Y-73000000D03*
X78000000Y-148000000D03*
X143000000Y-183000000D03*
X198000000Y-163000000D03*
X33000000Y-203000000D03*
X108000000Y-193000000D03*
X133000000Y-178000000D03*
X183000000Y-58000000D03*
X28000000Y-53000000D03*
X148000000Y-173000000D03*
X273000000Y-128000000D03*
X118000000Y-203000000D03*
X208000000Y-218000000D03*
X93000000Y-258000000D03*
X178000000Y-108000000D03*
X288000000Y-113000000D03*
X148000000Y-253000000D03*
X48000000Y-118000000D03*
X33000000Y-73000000D03*
X168000000Y-223000000D03*
X233000000Y-63000000D03*
X88000000Y-243000000D03*
X23000000Y-158000000D03*
X288000000Y-248000000D03*
X208000000Y-83000000D03*
X158000000Y-48000000D03*
X93000000Y-58000000D03*
X223000000Y-158000000D03*
X98000000Y-203000000D03*
X193000000Y-248000000D03*
X243000000Y-273000000D03*
X48000000Y-253000000D03*
X263000000Y-108000000D03*
X28000000Y-98000000D03*
X48000000Y-48000000D03*
X208000000Y-253000000D03*
X78000000Y-248000000D03*
X193000000Y-218000000D03*
X108000000Y-28000000D03*
X228000000Y-183000000D03*
X118000000Y-193000000D03*
X53000000Y-53000000D03*
X18000000Y-278000000D03*
X23000000Y-188000000D03*
D15*
X162549999Y-84033333D03*
D14*
X163000000Y-103000000D03*
X288000000Y-243000000D03*
X268000000Y-123000000D03*
X58000000Y-238000000D03*
X48000000Y-108000000D03*
X213000000Y-28000000D03*
X108000000Y-118000000D03*
X163000000Y-218000000D03*
X93000000Y-43000000D03*
X173000000Y-263000000D03*
X223000000Y-273000000D03*
X68000000Y-28000000D03*
X133000000Y-213000000D03*
X58000000Y-253000000D03*
X298000000Y-263000000D03*
X193000000Y-148000000D03*
X138000000Y-33000000D03*
X183000000Y-23000000D03*
X158000000Y-203000000D03*
X83000000Y-248000000D03*
X88000000Y-268000000D03*
X293000000Y-43000000D03*
X143000000Y-188000000D03*
X188000000Y-43000000D03*
X193000000Y-253000000D03*
X18000000Y-208000000D03*
X173000000Y-38000000D03*
X268000000Y-233000000D03*
X18000000Y-138000000D03*
X268000000Y-148000000D03*
X268000000Y-73000000D03*
X283000000Y-33000000D03*
X83000000Y-108000000D03*
X268000000Y-93000000D03*
X263000000Y-153000000D03*
X248000000Y-113000000D03*
X278000000Y-23000000D03*
X83000000Y-73000000D03*
X238000000Y-18000000D03*
X83000000Y-128000000D03*
X103000000Y-103000000D03*
X18000000Y-33000000D03*
X103000000Y-28000000D03*
X188000000Y-213000000D03*
X143000000Y-208000000D03*
X198000000Y-193000000D03*
X248000000Y-153000000D03*
X128000000Y-148000000D03*
X163000000Y-253000000D03*
X193000000Y-138000000D03*
X53000000Y-133000000D03*
X73000000Y-153000000D03*
X223000000Y-43000000D03*
X153000000Y-273000000D03*
X303000000Y-28000000D03*
X303000000Y-218000000D03*
X108000000Y-183000000D03*
X158000000Y-273000000D03*
X158000000Y-113000000D03*
X248000000Y-163000000D03*
X18000000Y-223000000D03*
X98000000Y-208000000D03*
X208000000Y-28000000D03*
X138000000Y-38000000D03*
X258000000Y-213000000D03*
X278000000Y-263000000D03*
X63000000Y-258000000D03*
X163000000Y-183000000D03*
X83000000Y-88000000D03*
X238000000Y-263000000D03*
D15*
X162549999Y-83033333D03*
D14*
X223000000Y-198000000D03*
X138000000Y-188000000D03*
X138000000Y-218000000D03*
X18000000Y-168000000D03*
X298000000Y-218000000D03*
X33000000Y-143000000D03*
X38000000Y-43000000D03*
X213000000Y-163000000D03*
X63000000Y-168000000D03*
X73000000Y-233000000D03*
X53000000Y-238000000D03*
X178000000Y-128000000D03*
X138000000Y-193000000D03*
X218000000Y-228000000D03*
X258000000Y-203000000D03*
X173000000Y-258000000D03*
X238000000Y-118000000D03*
X208000000Y-63000000D03*
X243000000Y-58000000D03*
X168000000Y-98000000D03*
X223000000Y-103000000D03*
X168000000Y-38000000D03*
X158000000Y-248000000D03*
X183000000Y-188000000D03*
X223000000Y-68000000D03*
X128000000Y-113000000D03*
X248000000Y-108000000D03*
X143000000Y-278000000D03*
X238000000Y-78000000D03*
X283000000Y-73000000D03*
X188000000Y-63000000D03*
X108000000Y-188000000D03*
X38000000Y-28000000D03*
X63000000Y-153000000D03*
X28000000Y-203000000D03*
X238000000Y-103000000D03*
X73000000Y-38000000D03*
X108000000Y-23000000D03*
X83000000Y-43000000D03*
X158000000Y-133000000D03*
X238000000Y-198000000D03*
X168000000Y-88000000D03*
X53000000Y-98000000D03*
X223000000Y-163000000D03*
X263000000Y-233000000D03*
X18000000Y-113000000D03*
X83000000Y-223000000D03*
X203000000Y-48000000D03*
X63000000Y-273000000D03*
D15*
X162600000Y-82033333D03*
D14*
X193000000Y-263000000D03*
X138000000Y-178000000D03*
X98000000Y-153000000D03*
X178000000Y-143000000D03*
X143000000Y-118000000D03*
X298000000Y-43000000D03*
X83000000Y-268000000D03*
X213000000Y-133000000D03*
X153000000Y-153000000D03*
X273000000Y-103000000D03*
X283000000Y-88000000D03*
X33000000Y-113000000D03*
X138000000Y-278000000D03*
X203000000Y-63000000D03*
X153000000Y-183000000D03*
X228000000Y-63000000D03*
X173000000Y-83000000D03*
X278000000Y-213000000D03*
X148000000Y-83000000D03*
X203000000Y-238000000D03*
X38000000Y-258000000D03*
X288000000Y-18000000D03*
X178000000Y-133000000D03*
X283000000Y-208000000D03*
X163000000Y-188000000D03*
X78000000Y-223000000D03*
X168000000Y-278000000D03*
X73000000Y-188000000D03*
X143000000Y-53000000D03*
X198000000Y-228000000D03*
X183000000Y-43000000D03*
X83000000Y-213000000D03*
X28000000Y-253000000D03*
X38000000Y-148000000D03*
X58000000Y-258000000D03*
X108000000Y-258000000D03*
X38000000Y-178000000D03*
X53000000Y-88000000D03*
X148000000Y-213000000D03*
X93000000Y-208000000D03*
X23000000Y-248000000D03*
X108000000Y-228000000D03*
X33000000Y-88000000D03*
X213000000Y-68000000D03*
X173000000Y-143000000D03*
X63000000Y-128000000D03*
X178000000Y-138000000D03*
X218000000Y-248000000D03*
X148000000Y-63000000D03*
X203000000Y-263000000D03*
X263000000Y-28000000D03*
X248000000Y-48000000D03*
X103000000Y-98000000D03*
X198000000Y-173000000D03*
X18000000Y-28000000D03*
X153000000Y-248000000D03*
X163000000Y-43000000D03*
X38000000Y-158000000D03*
X223000000Y-128000000D03*
X108000000Y-248000000D03*
X188000000Y-158000000D03*
X98000000Y-268000000D03*
X138000000Y-168000000D03*
X163000000Y-38000000D03*
X118000000Y-58000000D03*
X243000000Y-233000000D03*
X33000000Y-133000000D03*
X293000000Y-18000000D03*
X158000000Y-73000000D03*
X173000000Y-208000000D03*
X293000000Y-223000000D03*
X283000000Y-83000000D03*
X33000000Y-43000000D03*
X213000000Y-253000000D03*
X98000000Y-253000000D03*
X288000000Y-258000000D03*
X278000000Y-63000000D03*
X158000000Y-58000000D03*
X203000000Y-113000000D03*
X133000000Y-158000000D03*
X128000000Y-18000000D03*
X253000000Y-158000000D03*
X248000000Y-198000000D03*
X93000000Y-138000000D03*
X233000000Y-48000000D03*
X68000000Y-178000000D03*
X18000000Y-253000000D03*
X238000000Y-183000000D03*
X303000000Y-48000000D03*
X43000000Y-178000000D03*
X113000000Y-223000000D03*
X238000000Y-143000000D03*
X18000000Y-18000000D03*
X283000000Y-278000000D03*
X103000000Y-158000000D03*
X243000000Y-73000000D03*
X273000000Y-198000000D03*
X153000000Y-278000000D03*
X98000000Y-218000000D03*
X18000000Y-248000000D03*
X228000000Y-208000000D03*
X223000000Y-258000000D03*
X143000000Y-33000000D03*
X118000000Y-268000000D03*
X238000000Y-218000000D03*
X28000000Y-68000000D03*
X138000000Y-128000000D03*
X248000000Y-18000000D03*
X78000000Y-198000000D03*
X118000000Y-188000000D03*
X63000000Y-108000000D03*
X53000000Y-78000000D03*
X203000000Y-208000000D03*
X228000000Y-38000000D03*
X118000000Y-118000000D03*
X208000000Y-198000000D03*
X53000000Y-163000000D03*
X243000000Y-53000000D03*
X233000000Y-168000000D03*
X98000000Y-263000000D03*
X263000000Y-203000000D03*
X93000000Y-28000000D03*
X188000000Y-253000000D03*
X248000000Y-103000000D03*
X103000000Y-128000000D03*
X233000000Y-18000000D03*
X63000000Y-143000000D03*
X33000000Y-233000000D03*
X288000000Y-133000000D03*
X173000000Y-18000000D03*
X278000000Y-218000000D03*
X303000000Y-83000000D03*
D15*
X162549999Y-85033333D03*
D14*
X128000000Y-253000000D03*
X23000000Y-203000000D03*
X118000000Y-183000000D03*
X273000000Y-173000000D03*
X288000000Y-228000000D03*
X218000000Y-133000000D03*
X228000000Y-168000000D03*
X208000000Y-98000000D03*
X283000000Y-148000000D03*
X198000000Y-73000000D03*
X48000000Y-93000000D03*
X208000000Y-123000000D03*
X43000000Y-143000000D03*
X248000000Y-183000000D03*
X168000000Y-28000000D03*
X108000000Y-88000000D03*
X63000000Y-63000000D03*
X233000000Y-193000000D03*
X243000000Y-223000000D03*
X198000000Y-88000000D03*
X218000000Y-203000000D03*
X98000000Y-178000000D03*
X183000000Y-248000000D03*
X43000000Y-68000000D03*
X68000000Y-263000000D03*
X178000000Y-278000000D03*
X108000000Y-148000000D03*
X33000000Y-68000000D03*
X283000000Y-48000000D03*
X98000000Y-138000000D03*
X163000000Y-233000000D03*
X28000000Y-108000000D03*
X93000000Y-118000000D03*
X183000000Y-143000000D03*
X58000000Y-223000000D03*
X153000000Y-238000000D03*
X253000000Y-88000000D03*
X68000000Y-258000000D03*
X118000000Y-138000000D03*
X28000000Y-188000000D03*
X243000000Y-173000000D03*
X243000000Y-143000000D03*
X18000000Y-228000000D03*
X228000000Y-143000000D03*
X103000000Y-138000000D03*
X83000000Y-53000000D03*
X188000000Y-273000000D03*
X223000000Y-183000000D03*
X118000000Y-168000000D03*
X253000000Y-253000000D03*
X258000000Y-238000000D03*
X218000000Y-153000000D03*
X33000000Y-228000000D03*
X53000000Y-188000000D03*
X268000000Y-108000000D03*
X43000000Y-48000000D03*
X193000000Y-143000000D03*
X48000000Y-58000000D03*
X273000000Y-268000000D03*
X188000000Y-153000000D03*
X303000000Y-18000000D03*
X253000000Y-68000000D03*
X233000000Y-263000000D03*
D15*
X160600000Y-83033333D03*
D14*
X33000000Y-188000000D03*
X63000000Y-18000000D03*
X63000000Y-88000000D03*
X158000000Y-68000000D03*
X298000000Y-28000000D03*
X168000000Y-33000000D03*
X178000000Y-33000000D03*
X218000000Y-253000000D03*
X18000000Y-63000000D03*
X298000000Y-228000000D03*
X153000000Y-233000000D03*
X128000000Y-188000000D03*
X288000000Y-53000000D03*
X23000000Y-113000000D03*
X253000000Y-48000000D03*
X298000000Y-18000000D03*
X83000000Y-198000000D03*
X123000000Y-98000000D03*
X208000000Y-158000000D03*
X113000000Y-108000000D03*
X68000000Y-88000000D03*
D15*
X161600000Y-82033333D03*
D14*
X203000000Y-128000000D03*
X68000000Y-128000000D03*
X133000000Y-188000000D03*
X248000000Y-138000000D03*
X133000000Y-88000000D03*
X303000000Y-33000000D03*
X123000000Y-18000000D03*
X133000000Y-248000000D03*
X83000000Y-253000000D03*
X303000000Y-243000000D03*
X173000000Y-68000000D03*
X218000000Y-113000000D03*
X288000000Y-143000000D03*
X183000000Y-223000000D03*
X78000000Y-33000000D03*
D15*
X161549999Y-82033333D03*
D14*
X263000000Y-58000000D03*
X188000000Y-78000000D03*
X183000000Y-73000000D03*
X123000000Y-248000000D03*
X118000000Y-208000000D03*
X173000000Y-203000000D03*
X38000000Y-123000000D03*
X58000000Y-218000000D03*
X128000000Y-63000000D03*
X53000000Y-248000000D03*
X128000000Y-38000000D03*
X133000000Y-148000000D03*
X203000000Y-198000000D03*
X198000000Y-178000000D03*
X118000000Y-108000000D03*
X68000000Y-33000000D03*
X298000000Y-143000000D03*
X73000000Y-83000000D03*
X168000000Y-133000000D03*
X243000000Y-138000000D03*
X123000000Y-33000000D03*
X243000000Y-203000000D03*
X83000000Y-143000000D03*
D15*
X163549999Y-84033333D03*
D14*
X303000000Y-138000000D03*
X68000000Y-198000000D03*
X108000000Y-108000000D03*
X38000000Y-188000000D03*
X48000000Y-268000000D03*
X298000000Y-78000000D03*
X188000000Y-88000000D03*
X178000000Y-48000000D03*
X68000000Y-103000000D03*
X103000000Y-93000000D03*
X18000000Y-48000000D03*
X58000000Y-58000000D03*
X28000000Y-213000000D03*
X253000000Y-38000000D03*
X278000000Y-153000000D03*
X293000000Y-113000000D03*
X58000000Y-68000000D03*
X83000000Y-208000000D03*
X283000000Y-43000000D03*
X158000000Y-93000000D03*
X58000000Y-103000000D03*
X288000000Y-208000000D03*
X123000000Y-263000000D03*
X78000000Y-28000000D03*
X128000000Y-23000000D03*
X153000000Y-193000000D03*
X178000000Y-58000000D03*
X198000000Y-98000000D03*
X128000000Y-218000000D03*
X93000000Y-188000000D03*
X188000000Y-113000000D03*
X198000000Y-203000000D03*
X303000000Y-133000000D03*
X303000000Y-148000000D03*
X83000000Y-123000000D03*
X148000000Y-103000000D03*
X48000000Y-248000000D03*
X103000000Y-273000000D03*
X128000000Y-208000000D03*
X48000000Y-68000000D03*
X53000000Y-278000000D03*
X173000000Y-173000000D03*
X233000000Y-183000000D03*
X63000000Y-38000000D03*
X218000000Y-53000000D03*
X158000000Y-158000000D03*
X83000000Y-48000000D03*
X178000000Y-68000000D03*
X228000000Y-133000000D03*
X53000000Y-203000000D03*
X248000000Y-263000000D03*
X178000000Y-28000000D03*
X33000000Y-163000000D03*
X63000000Y-68000000D03*
X238000000Y-138000000D03*
X63000000Y-243000000D03*
X143000000Y-93000000D03*
X238000000Y-38000000D03*
X48000000Y-88000000D03*
X88000000Y-263000000D03*
X138000000Y-158000000D03*
X168000000Y-198000000D03*
X88000000Y-83000000D03*
X18000000Y-188000000D03*
X293000000Y-248000000D03*
X298000000Y-148000000D03*
X253000000Y-108000000D03*
X283000000Y-273000000D03*
X178000000Y-258000000D03*
D15*
X161549999Y-81033333D03*
D14*
X113000000Y-118000000D03*
X108000000Y-113000000D03*
X23000000Y-133000000D03*
X258000000Y-48000000D03*
X78000000Y-133000000D03*
X163000000Y-93000000D03*
X203000000Y-233000000D03*
X58000000Y-88000000D03*
X53000000Y-153000000D03*
X248000000Y-43000000D03*
X168000000Y-273000000D03*
X203000000Y-278000000D03*
X53000000Y-263000000D03*
X118000000Y-173000000D03*
X68000000Y-143000000D03*
X58000000Y-133000000D03*
X33000000Y-53000000D03*
X43000000Y-58000000D03*
X33000000Y-103000000D03*
X278000000Y-103000000D03*
X223000000Y-138000000D03*
X118000000Y-223000000D03*
X253000000Y-163000000D03*
X58000000Y-208000000D03*
X93000000Y-23000000D03*
X273000000Y-238000000D03*
X278000000Y-168000000D03*
X78000000Y-158000000D03*
X158000000Y-213000000D03*
X253000000Y-228000000D03*
D15*
X163600000Y-86033333D03*
D14*
X38000000Y-138000000D03*
X128000000Y-98000000D03*
X63000000Y-93000000D03*
X163000000Y-48000000D03*
X73000000Y-228000000D03*
X168000000Y-213000000D03*
X68000000Y-108000000D03*
X258000000Y-233000000D03*
X58000000Y-38000000D03*
X138000000Y-28000000D03*
X288000000Y-158000000D03*
X223000000Y-88000000D03*
X153000000Y-103000000D03*
X113000000Y-213000000D03*
X138000000Y-173000000D03*
X88000000Y-233000000D03*
X293000000Y-143000000D03*
X23000000Y-208000000D03*
X293000000Y-48000000D03*
X188000000Y-33000000D03*
X73000000Y-168000000D03*
X233000000Y-198000000D03*
X83000000Y-238000000D03*
X83000000Y-263000000D03*
X103000000Y-33000000D03*
X258000000Y-258000000D03*
X153000000Y-28000000D03*
X148000000Y-23000000D03*
X163000000Y-53000000D03*
X68000000Y-123000000D03*
X48000000Y-278000000D03*
X78000000Y-178000000D03*
X98000000Y-83000000D03*
X28000000Y-158000000D03*
X38000000Y-203000000D03*
X43000000Y-78000000D03*
X293000000Y-253000000D03*
X183000000Y-98000000D03*
X258000000Y-243000000D03*
X83000000Y-133000000D03*
X208000000Y-23000000D03*
X298000000Y-178000000D03*
X168000000Y-208000000D03*
X213000000Y-228000000D03*
X158000000Y-238000000D03*
X68000000Y-138000000D03*
X298000000Y-233000000D03*
X238000000Y-83000000D03*
X258000000Y-43000000D03*
X223000000Y-83000000D03*
X78000000Y-168000000D03*
X273000000Y-178000000D03*
X68000000Y-43000000D03*
X263000000Y-18000000D03*
X258000000Y-133000000D03*
X173000000Y-168000000D03*
X183000000Y-233000000D03*
X58000000Y-18000000D03*
X253000000Y-143000000D03*
X18000000Y-153000000D03*
X183000000Y-193000000D03*
X203000000Y-153000000D03*
X198000000Y-93000000D03*
X108000000Y-223000000D03*
X158000000Y-223000000D03*
X293000000Y-118000000D03*
X98000000Y-43000000D03*
D15*
X160600000Y-82033333D03*
D14*
X173000000Y-193000000D03*
X73000000Y-28000000D03*
X98000000Y-128000000D03*
X108000000Y-198000000D03*
X278000000Y-243000000D03*
X268000000Y-138000000D03*
X218000000Y-178000000D03*
X183000000Y-18000000D03*
X118000000Y-278000000D03*
X53000000Y-268000000D03*
X98000000Y-103000000D03*
X133000000Y-18000000D03*
X98000000Y-158000000D03*
X223000000Y-28000000D03*
X73000000Y-53000000D03*
X283000000Y-243000000D03*
X223000000Y-243000000D03*
X78000000Y-43000000D03*
X293000000Y-258000000D03*
X293000000Y-203000000D03*
X143000000Y-23000000D03*
X183000000Y-203000000D03*
X223000000Y-53000000D03*
X153000000Y-83000000D03*
X28000000Y-133000000D03*
X248000000Y-88000000D03*
X173000000Y-243000000D03*
X143000000Y-178000000D03*
D15*
X164549999Y-81033333D03*
D14*
X148000000Y-153000000D03*
X278000000Y-138000000D03*
X123000000Y-58000000D03*
X58000000Y-268000000D03*
X123000000Y-68000000D03*
X258000000Y-93000000D03*
X123000000Y-198000000D03*
X163000000Y-248000000D03*
X88000000Y-23000000D03*
X168000000Y-243000000D03*
X148000000Y-188000000D03*
X23000000Y-183000000D03*
X148000000Y-148000000D03*
X248000000Y-278000000D03*
X63000000Y-223000000D03*
X38000000Y-98000000D03*
X88000000Y-208000000D03*
X28000000Y-223000000D03*
X278000000Y-233000000D03*
X173000000Y-98000000D03*
X298000000Y-188000000D03*
X168000000Y-248000000D03*
X258000000Y-278000000D03*
X168000000Y-153000000D03*
X38000000Y-118000000D03*
X278000000Y-83000000D03*
X18000000Y-243000000D03*
X63000000Y-158000000D03*
X93000000Y-93000000D03*
X18000000Y-173000000D03*
X28000000Y-138000000D03*
X188000000Y-18000000D03*
X88000000Y-138000000D03*
X48000000Y-138000000D03*
X273000000Y-193000000D03*
X43000000Y-213000000D03*
X118000000Y-78000000D03*
X213000000Y-248000000D03*
X58000000Y-113000000D03*
X103000000Y-148000000D03*
X133000000Y-68000000D03*
X213000000Y-73000000D03*
X288000000Y-73000000D03*
X253000000Y-238000000D03*
X248000000Y-248000000D03*
X183000000Y-208000000D03*
D15*
X160600000Y-79033333D03*
D14*
X123000000Y-183000000D03*
X193000000Y-63000000D03*
X283000000Y-153000000D03*
X118000000Y-233000000D03*
X223000000Y-18000000D03*
X103000000Y-38000000D03*
X33000000Y-83000000D03*
X43000000Y-238000000D03*
X133000000Y-53000000D03*
X298000000Y-98000000D03*
X98000000Y-243000000D03*
X203000000Y-83000000D03*
X113000000Y-138000000D03*
X293000000Y-58000000D03*
X253000000Y-123000000D03*
X183000000Y-178000000D03*
X123000000Y-243000000D03*
X93000000Y-63000000D03*
X38000000Y-263000000D03*
X233000000Y-93000000D03*
X53000000Y-168000000D03*
X128000000Y-163000000D03*
X133000000Y-233000000D03*
X223000000Y-23000000D03*
X138000000Y-43000000D03*
X38000000Y-238000000D03*
X178000000Y-238000000D03*
X33000000Y-213000000D03*
X213000000Y-223000000D03*
X218000000Y-173000000D03*
X113000000Y-173000000D03*
X28000000Y-103000000D03*
X268000000Y-48000000D03*
X273000000Y-243000000D03*
X148000000Y-203000000D03*
X143000000Y-158000000D03*
X203000000Y-28000000D03*
X218000000Y-78000000D03*
X68000000Y-148000000D03*
X238000000Y-178000000D03*
X138000000Y-248000000D03*
X73000000Y-103000000D03*
X298000000Y-253000000D03*
X198000000Y-183000000D03*
X303000000Y-123000000D03*
X178000000Y-118000000D03*
X248000000Y-168000000D03*
X153000000Y-128000000D03*
X148000000Y-273000000D03*
X208000000Y-278000000D03*
X58000000Y-53000000D03*
X173000000Y-88000000D03*
X18000000Y-143000000D03*
X93000000Y-78000000D03*
X123000000Y-143000000D03*
X198000000Y-23000000D03*
X123000000Y-203000000D03*
D15*
X163549999Y-82033333D03*
D14*
X298000000Y-268000000D03*
X23000000Y-43000000D03*
X243000000Y-168000000D03*
X163000000Y-138000000D03*
X213000000Y-183000000D03*
X293000000Y-63000000D03*
X173000000Y-28000000D03*
X168000000Y-18000000D03*
X88000000Y-73000000D03*
X303000000Y-158000000D03*
X18000000Y-233000000D03*
X218000000Y-233000000D03*
X113000000Y-148000000D03*
X123000000Y-138000000D03*
X218000000Y-163000000D03*
X23000000Y-233000000D03*
X158000000Y-78000000D03*
X223000000Y-93000000D03*
X228000000Y-268000000D03*
X228000000Y-178000000D03*
X68000000Y-18000000D03*
X58000000Y-123000000D03*
X133000000Y-258000000D03*
D15*
X162549999Y-79033333D03*
D14*
X208000000Y-38000000D03*
X238000000Y-28000000D03*
X223000000Y-203000000D03*
X228000000Y-88000000D03*
X173000000Y-228000000D03*
X153000000Y-68000000D03*
X228000000Y-238000000D03*
X58000000Y-63000000D03*
X48000000Y-228000000D03*
X148000000Y-193000000D03*
X193000000Y-158000000D03*
X258000000Y-118000000D03*
X188000000Y-58000000D03*
X53000000Y-233000000D03*
X103000000Y-153000000D03*
X43000000Y-73000000D03*
X63000000Y-183000000D03*
X73000000Y-133000000D03*
X253000000Y-63000000D03*
X118000000Y-143000000D03*
X213000000Y-108000000D03*
X33000000Y-78000000D03*
X28000000Y-208000000D03*
X48000000Y-238000000D03*
X108000000Y-268000000D03*
X148000000Y-258000000D03*
X263000000Y-88000000D03*
X268000000Y-248000000D03*
X283000000Y-183000000D03*
X263000000Y-148000000D03*
X163000000Y-208000000D03*
X188000000Y-208000000D03*
X278000000Y-88000000D03*
X278000000Y-258000000D03*
X103000000Y-233000000D03*
X23000000Y-223000000D03*
X233000000Y-163000000D03*
X68000000Y-78000000D03*
X128000000Y-173000000D03*
X18000000Y-238000000D03*
X273000000Y-168000000D03*
X68000000Y-133000000D03*
X178000000Y-158000000D03*
X208000000Y-238000000D03*
X38000000Y-133000000D03*
X278000000Y-173000000D03*
X283000000Y-203000000D03*
X193000000Y-178000000D03*
X38000000Y-103000000D03*
X58000000Y-43000000D03*
X263000000Y-38000000D03*
X203000000Y-138000000D03*
X128000000Y-133000000D03*
X243000000Y-113000000D03*
X193000000Y-103000000D03*
X168000000Y-233000000D03*
X263000000Y-198000000D03*
X203000000Y-258000000D03*
X238000000Y-33000000D03*
X238000000Y-43000000D03*
X38000000Y-193000000D03*
X303000000Y-108000000D03*
X298000000Y-168000000D03*
X123000000Y-153000000D03*
X133000000Y-98000000D03*
X63000000Y-173000000D03*
X103000000Y-63000000D03*
X238000000Y-233000000D03*
X278000000Y-198000000D03*
D15*
X164549999Y-84033333D03*
D14*
X83000000Y-103000000D03*
X78000000Y-228000000D03*
X28000000Y-193000000D03*
X18000000Y-103000000D03*
X148000000Y-98000000D03*
X198000000Y-68000000D03*
X113000000Y-73000000D03*
X288000000Y-233000000D03*
X23000000Y-218000000D03*
X113000000Y-88000000D03*
X133000000Y-63000000D03*
X163000000Y-243000000D03*
X33000000Y-173000000D03*
X188000000Y-238000000D03*
X228000000Y-148000000D03*
X203000000Y-158000000D03*
X153000000Y-163000000D03*
X143000000Y-48000000D03*
X53000000Y-243000000D03*
X218000000Y-188000000D03*
X93000000Y-218000000D03*
X198000000Y-153000000D03*
X128000000Y-103000000D03*
X73000000Y-248000000D03*
X153000000Y-253000000D03*
X153000000Y-58000000D03*
X293000000Y-188000000D03*
X83000000Y-113000000D03*
X233000000Y-113000000D03*
X243000000Y-103000000D03*
X168000000Y-263000000D03*
X28000000Y-123000000D03*
X143000000Y-233000000D03*
X158000000Y-38000000D03*
X228000000Y-113000000D03*
X123000000Y-78000000D03*
X203000000Y-183000000D03*
X178000000Y-88000000D03*
X28000000Y-113000000D03*
X68000000Y-233000000D03*
X168000000Y-68000000D03*
X178000000Y-98000000D03*
X18000000Y-258000000D03*
X273000000Y-183000000D03*
X213000000Y-103000000D03*
X58000000Y-173000000D03*
X278000000Y-278000000D03*
X248000000Y-143000000D03*
X203000000Y-98000000D03*
X208000000Y-228000000D03*
X148000000Y-78000000D03*
X93000000Y-18000000D03*
X298000000Y-118000000D03*
X128000000Y-78000000D03*
X163000000Y-173000000D03*
X273000000Y-278000000D03*
X93000000Y-128000000D03*
X113000000Y-53000000D03*
X88000000Y-78000000D03*
X273000000Y-43000000D03*
X158000000Y-188000000D03*
X188000000Y-263000000D03*
X63000000Y-43000000D03*
X128000000Y-268000000D03*
D15*
X163600000Y-81033333D03*
X163549999Y-81033333D03*
D14*
X153000000Y-23000000D03*
X33000000Y-98000000D03*
X213000000Y-148000000D03*
X213000000Y-158000000D03*
X228000000Y-198000000D03*
X183000000Y-33000000D03*
X203000000Y-73000000D03*
X183000000Y-148000000D03*
X83000000Y-193000000D03*
X273000000Y-53000000D03*
X93000000Y-278000000D03*
X93000000Y-243000000D03*
X273000000Y-208000000D03*
X303000000Y-38000000D03*
X113000000Y-233000000D03*
X133000000Y-198000000D03*
X128000000Y-53000000D03*
X243000000Y-63000000D03*
X168000000Y-253000000D03*
X68000000Y-273000000D03*
X113000000Y-258000000D03*
X83000000Y-153000000D03*
X213000000Y-233000000D03*
X208000000Y-108000000D03*
X18000000Y-58000000D03*
X238000000Y-23000000D03*
X173000000Y-268000000D03*
X93000000Y-143000000D03*
X63000000Y-78000000D03*
X48000000Y-98000000D03*
X108000000Y-233000000D03*
X48000000Y-148000000D03*
X53000000Y-128000000D03*
X123000000Y-118000000D03*
X193000000Y-98000000D03*
X303000000Y-113000000D03*
X163000000Y-153000000D03*
X118000000Y-178000000D03*
X163000000Y-23000000D03*
X88000000Y-123000000D03*
X128000000Y-143000000D03*
X23000000Y-18000000D03*
X213000000Y-43000000D03*
X53000000Y-103000000D03*
X73000000Y-78000000D03*
X248000000Y-63000000D03*
X103000000Y-108000000D03*
X88000000Y-38000000D03*
X153000000Y-263000000D03*
X253000000Y-113000000D03*
X108000000Y-203000000D03*
X18000000Y-203000000D03*
X133000000Y-278000000D03*
X258000000Y-193000000D03*
X168000000Y-168000000D03*
X28000000Y-248000000D03*
X78000000Y-108000000D03*
X88000000Y-273000000D03*
X148000000Y-183000000D03*
X288000000Y-148000000D03*
X33000000Y-218000000D03*
X303000000Y-128000000D03*
X248000000Y-93000000D03*
X253000000Y-148000000D03*
X283000000Y-168000000D03*
X233000000Y-68000000D03*
X288000000Y-273000000D03*
X173000000Y-33000000D03*
X198000000Y-213000000D03*
X213000000Y-173000000D03*
X183000000Y-228000000D03*
X233000000Y-138000000D03*
X248000000Y-223000000D03*
X118000000Y-28000000D03*
X183000000Y-278000000D03*
X303000000Y-173000000D03*
X83000000Y-78000000D03*
X38000000Y-218000000D03*
X258000000Y-268000000D03*
X73000000Y-23000000D03*
X93000000Y-213000000D03*
X23000000Y-193000000D03*
X263000000Y-93000000D03*
X153000000Y-173000000D03*
X248000000Y-118000000D03*
X193000000Y-113000000D03*
X203000000Y-68000000D03*
X233000000Y-123000000D03*
X198000000Y-278000000D03*
X123000000Y-83000000D03*
X23000000Y-33000000D03*
X183000000Y-48000000D03*
X253000000Y-58000000D03*
X93000000Y-183000000D03*
X38000000Y-108000000D03*
X213000000Y-243000000D03*
X268000000Y-173000000D03*
X153000000Y-113000000D03*
X273000000Y-133000000D03*
X93000000Y-228000000D03*
X268000000Y-278000000D03*
X288000000Y-198000000D03*
X113000000Y-93000000D03*
X23000000Y-58000000D03*
X78000000Y-128000000D03*
X23000000Y-128000000D03*
X63000000Y-213000000D03*
X133000000Y-203000000D03*
X98000000Y-248000000D03*
X268000000Y-133000000D03*
X203000000Y-133000000D03*
X203000000Y-23000000D03*
X28000000Y-273000000D03*
X233000000Y-278000000D03*
X143000000Y-163000000D03*
X218000000Y-123000000D03*
X173000000Y-138000000D03*
X63000000Y-178000000D03*
X98000000Y-168000000D03*
X273000000Y-143000000D03*
X233000000Y-273000000D03*
X183000000Y-138000000D03*
X293000000Y-23000000D03*
X118000000Y-213000000D03*
X293000000Y-238000000D03*
X168000000Y-268000000D03*
X228000000Y-258000000D03*
X188000000Y-83000000D03*
X28000000Y-178000000D03*
X188000000Y-258000000D03*
X143000000Y-253000000D03*
D15*
X162600000Y-79033333D03*
D14*
X283000000Y-103000000D03*
X143000000Y-28000000D03*
X123000000Y-253000000D03*
X213000000Y-128000000D03*
X303000000Y-118000000D03*
X258000000Y-103000000D03*
X233000000Y-38000000D03*
X83000000Y-118000000D03*
X158000000Y-18000000D03*
X73000000Y-43000000D03*
X88000000Y-18000000D03*
X88000000Y-53000000D03*
X43000000Y-248000000D03*
X188000000Y-168000000D03*
X183000000Y-158000000D03*
X183000000Y-118000000D03*
X223000000Y-233000000D03*
X93000000Y-103000000D03*
X148000000Y-133000000D03*
X228000000Y-43000000D03*
X268000000Y-53000000D03*
X268000000Y-103000000D03*
X198000000Y-198000000D03*
X43000000Y-273000000D03*
X193000000Y-58000000D03*
X258000000Y-223000000D03*
D15*
X163600000Y-82033333D03*
D14*
X243000000Y-98000000D03*
X198000000Y-133000000D03*
X248000000Y-58000000D03*
X198000000Y-243000000D03*
X118000000Y-258000000D03*
X83000000Y-218000000D03*
X113000000Y-188000000D03*
X73000000Y-73000000D03*
X178000000Y-113000000D03*
X148000000Y-113000000D03*
X258000000Y-73000000D03*
X248000000Y-158000000D03*
X18000000Y-73000000D03*
X138000000Y-183000000D03*
X48000000Y-243000000D03*
X68000000Y-158000000D03*
X288000000Y-43000000D03*
X148000000Y-68000000D03*
D15*
X164549999Y-86033333D03*
D14*
X248000000Y-228000000D03*
X193000000Y-173000000D03*
X148000000Y-58000000D03*
X238000000Y-108000000D03*
X288000000Y-103000000D03*
X113000000Y-243000000D03*
X103000000Y-18000000D03*
X98000000Y-38000000D03*
X133000000Y-243000000D03*
X273000000Y-248000000D03*
X263000000Y-78000000D03*
X63000000Y-228000000D03*
X303000000Y-193000000D03*
X158000000Y-178000000D03*
X198000000Y-53000000D03*
X73000000Y-98000000D03*
X238000000Y-113000000D03*
X58000000Y-153000000D03*
X103000000Y-53000000D03*
X258000000Y-128000000D03*
X218000000Y-143000000D03*
X53000000Y-273000000D03*
X73000000Y-213000000D03*
X158000000Y-118000000D03*
X268000000Y-43000000D03*
X23000000Y-268000000D03*
X203000000Y-88000000D03*
X148000000Y-223000000D03*
X163000000Y-278000000D03*
X73000000Y-183000000D03*
X178000000Y-208000000D03*
X108000000Y-208000000D03*
X243000000Y-198000000D03*
X258000000Y-168000000D03*
X228000000Y-278000000D03*
X208000000Y-258000000D03*
X103000000Y-168000000D03*
X298000000Y-198000000D03*
X68000000Y-163000000D03*
D15*
X164549999Y-83033333D03*
D14*
X208000000Y-193000000D03*
X113000000Y-228000000D03*
X168000000Y-43000000D03*
X48000000Y-63000000D03*
X228000000Y-18000000D03*
X158000000Y-108000000D03*
X148000000Y-38000000D03*
X98000000Y-228000000D03*
X143000000Y-133000000D03*
X283000000Y-133000000D03*
X273000000Y-73000000D03*
X198000000Y-118000000D03*
X103000000Y-198000000D03*
X283000000Y-263000000D03*
X93000000Y-108000000D03*
X138000000Y-78000000D03*
X178000000Y-233000000D03*
X168000000Y-48000000D03*
X253000000Y-173000000D03*
X48000000Y-83000000D03*
X88000000Y-128000000D03*
X133000000Y-128000000D03*
X83000000Y-138000000D03*
X203000000Y-178000000D03*
X203000000Y-253000000D03*
X203000000Y-273000000D03*
X278000000Y-253000000D03*
X138000000Y-243000000D03*
X63000000Y-83000000D03*
X213000000Y-208000000D03*
X93000000Y-113000000D03*
X48000000Y-208000000D03*
X88000000Y-173000000D03*
X213000000Y-153000000D03*
X193000000Y-83000000D03*
X58000000Y-248000000D03*
X258000000Y-63000000D03*
X258000000Y-83000000D03*
X168000000Y-238000000D03*
X43000000Y-138000000D03*
X213000000Y-273000000D03*
X183000000Y-258000000D03*
D15*
X161600000Y-85033333D03*
D14*
X183000000Y-113000000D03*
X18000000Y-268000000D03*
X258000000Y-58000000D03*
X128000000Y-108000000D03*
D15*
X162600000Y-81033333D03*
D14*
X73000000Y-178000000D03*
X188000000Y-138000000D03*
X153000000Y-178000000D03*
X223000000Y-38000000D03*
X78000000Y-218000000D03*
X213000000Y-143000000D03*
X233000000Y-153000000D03*
X243000000Y-248000000D03*
X113000000Y-273000000D03*
X228000000Y-233000000D03*
X288000000Y-153000000D03*
X243000000Y-123000000D03*
X283000000Y-68000000D03*
X128000000Y-203000000D03*
X123000000Y-128000000D03*
X208000000Y-183000000D03*
X253000000Y-168000000D03*
X138000000Y-253000000D03*
X168000000Y-123000000D03*
X268000000Y-153000000D03*
X143000000Y-203000000D03*
X238000000Y-168000000D03*
X203000000Y-58000000D03*
X253000000Y-138000000D03*
X153000000Y-203000000D03*
X178000000Y-213000000D03*
X223000000Y-73000000D03*
X73000000Y-148000000D03*
X128000000Y-198000000D03*
X68000000Y-83000000D03*
X188000000Y-53000000D03*
X163000000Y-268000000D03*
X98000000Y-93000000D03*
X288000000Y-263000000D03*
X143000000Y-103000000D03*
X183000000Y-238000000D03*
X68000000Y-48000000D03*
X88000000Y-223000000D03*
X143000000Y-248000000D03*
X178000000Y-148000000D03*
X218000000Y-268000000D03*
X248000000Y-173000000D03*
X43000000Y-38000000D03*
X78000000Y-153000000D03*
X83000000Y-178000000D03*
X208000000Y-73000000D03*
X258000000Y-78000000D03*
X143000000Y-148000000D03*
X23000000Y-173000000D03*
X123000000Y-103000000D03*
X213000000Y-53000000D03*
X168000000Y-158000000D03*
X198000000Y-78000000D03*
X223000000Y-248000000D03*
X178000000Y-223000000D03*
X168000000Y-188000000D03*
X93000000Y-163000000D03*
X88000000Y-228000000D03*
X223000000Y-173000000D03*
X23000000Y-263000000D03*
X98000000Y-28000000D03*
X138000000Y-23000000D03*
X263000000Y-213000000D03*
X193000000Y-108000000D03*
X103000000Y-68000000D03*
X253000000Y-83000000D03*
X263000000Y-128000000D03*
X123000000Y-148000000D03*
X213000000Y-113000000D03*
X158000000Y-83000000D03*
X133000000Y-33000000D03*
X103000000Y-23000000D03*
X193000000Y-268000000D03*
X258000000Y-218000000D03*
X158000000Y-103000000D03*
X128000000Y-118000000D03*
X253000000Y-198000000D03*
X168000000Y-83000000D03*
X228000000Y-53000000D03*
X173000000Y-183000000D03*
X173000000Y-93000000D03*
X58000000Y-178000000D03*
X48000000Y-203000000D03*
X18000000Y-108000000D03*
X88000000Y-148000000D03*
X198000000Y-223000000D03*
X238000000Y-248000000D03*
X203000000Y-78000000D03*
X213000000Y-218000000D03*
X273000000Y-78000000D03*
X133000000Y-208000000D03*
X188000000Y-228000000D03*
D15*
X162600000Y-85033333D03*
D14*
X188000000Y-148000000D03*
X28000000Y-163000000D03*
X88000000Y-203000000D03*
X253000000Y-33000000D03*
X33000000Y-33000000D03*
X303000000Y-198000000D03*
X108000000Y-43000000D03*
X233000000Y-178000000D03*
X123000000Y-238000000D03*
X138000000Y-53000000D03*
X153000000Y-98000000D03*
X98000000Y-118000000D03*
X123000000Y-228000000D03*
X303000000Y-78000000D03*
X118000000Y-273000000D03*
X38000000Y-73000000D03*
X253000000Y-178000000D03*
X123000000Y-218000000D03*
X203000000Y-33000000D03*
X168000000Y-113000000D03*
X208000000Y-208000000D03*
X38000000Y-128000000D03*
X173000000Y-118000000D03*
X213000000Y-83000000D03*
X28000000Y-278000000D03*
X48000000Y-43000000D03*
X78000000Y-88000000D03*
X108000000Y-263000000D03*
X198000000Y-143000000D03*
X293000000Y-78000000D03*
X238000000Y-163000000D03*
X213000000Y-278000000D03*
X223000000Y-58000000D03*
X68000000Y-218000000D03*
X218000000Y-38000000D03*
X58000000Y-163000000D03*
X258000000Y-198000000D03*
X223000000Y-278000000D03*
X263000000Y-238000000D03*
X228000000Y-163000000D03*
X288000000Y-48000000D03*
X288000000Y-183000000D03*
X158000000Y-218000000D03*
X148000000Y-18000000D03*
X208000000Y-223000000D03*
X18000000Y-83000000D03*
X203000000Y-248000000D03*
X93000000Y-173000000D03*
X163000000Y-168000000D03*
X193000000Y-203000000D03*
X58000000Y-28000000D03*
X158000000Y-138000000D03*
X138000000Y-138000000D03*
X113000000Y-253000000D03*
X153000000Y-93000000D03*
X118000000Y-243000000D03*
X43000000Y-198000000D03*
X18000000Y-273000000D03*
X183000000Y-253000000D03*
X248000000Y-23000000D03*
X98000000Y-23000000D03*
X273000000Y-263000000D03*
X298000000Y-163000000D03*
X168000000Y-78000000D03*
X238000000Y-238000000D03*
X93000000Y-193000000D03*
X283000000Y-213000000D03*
X278000000Y-143000000D03*
X293000000Y-213000000D03*
X243000000Y-163000000D03*
X98000000Y-98000000D03*
X198000000Y-168000000D03*
X283000000Y-163000000D03*
X53000000Y-68000000D03*
X113000000Y-98000000D03*
X163000000Y-28000000D03*
X218000000Y-88000000D03*
X253000000Y-103000000D03*
X138000000Y-198000000D03*
X103000000Y-123000000D03*
X128000000Y-263000000D03*
X193000000Y-33000000D03*
X23000000Y-228000000D03*
X128000000Y-88000000D03*
X298000000Y-63000000D03*
X78000000Y-118000000D03*
X93000000Y-178000000D03*
X278000000Y-193000000D03*
X263000000Y-68000000D03*
X68000000Y-183000000D03*
X203000000Y-53000000D03*
X53000000Y-48000000D03*
X298000000Y-48000000D03*
X33000000Y-158000000D03*
X208000000Y-18000000D03*
X103000000Y-163000000D03*
X288000000Y-173000000D03*
X68000000Y-153000000D03*
X218000000Y-243000000D03*
X193000000Y-43000000D03*
X263000000Y-98000000D03*
X178000000Y-173000000D03*
X128000000Y-33000000D03*
X268000000Y-238000000D03*
X258000000Y-68000000D03*
X188000000Y-193000000D03*
X228000000Y-68000000D03*
X143000000Y-128000000D03*
X273000000Y-153000000D03*
X153000000Y-18000000D03*
X133000000Y-23000000D03*
X228000000Y-123000000D03*
X63000000Y-103000000D03*
X78000000Y-78000000D03*
X138000000Y-118000000D03*
X173000000Y-48000000D03*
X253000000Y-233000000D03*
X263000000Y-278000000D03*
X43000000Y-93000000D03*
X68000000Y-173000000D03*
X268000000Y-228000000D03*
X198000000Y-148000000D03*
X223000000Y-78000000D03*
X208000000Y-263000000D03*
X113000000Y-208000000D03*
X238000000Y-243000000D03*
X218000000Y-58000000D03*
X303000000Y-208000000D03*
X43000000Y-253000000D03*
X128000000Y-158000000D03*
X263000000Y-253000000D03*
X173000000Y-123000000D03*
X63000000Y-218000000D03*
X158000000Y-263000000D03*
X73000000Y-68000000D03*
X33000000Y-123000000D03*
X248000000Y-53000000D03*
X138000000Y-228000000D03*
X93000000Y-168000000D03*
X293000000Y-163000000D03*
X103000000Y-113000000D03*
X38000000Y-243000000D03*
X73000000Y-108000000D03*
X263000000Y-53000000D03*
X53000000Y-113000000D03*
X28000000Y-173000000D03*
X123000000Y-233000000D03*
X163000000Y-178000000D03*
X288000000Y-188000000D03*
X203000000Y-188000000D03*
X93000000Y-203000000D03*
X288000000Y-238000000D03*
X118000000Y-68000000D03*
X148000000Y-198000000D03*
X68000000Y-268000000D03*
X33000000Y-238000000D03*
X158000000Y-23000000D03*
X293000000Y-73000000D03*
X193000000Y-238000000D03*
X188000000Y-178000000D03*
X108000000Y-213000000D03*
D15*
X162549999Y-86033333D03*
D14*
X273000000Y-48000000D03*
X288000000Y-98000000D03*
X298000000Y-273000000D03*
X218000000Y-223000000D03*
X233000000Y-58000000D03*
X163000000Y-113000000D03*
X283000000Y-188000000D03*
X138000000Y-93000000D03*
X93000000Y-253000000D03*
X298000000Y-243000000D03*
X238000000Y-208000000D03*
X288000000Y-93000000D03*
X258000000Y-178000000D03*
X108000000Y-68000000D03*
X258000000Y-183000000D03*
X278000000Y-183000000D03*
X288000000Y-33000000D03*
X158000000Y-28000000D03*
X283000000Y-238000000D03*
X33000000Y-253000000D03*
X293000000Y-83000000D03*
X228000000Y-58000000D03*
X178000000Y-153000000D03*
X143000000Y-98000000D03*
X273000000Y-273000000D03*
X213000000Y-138000000D03*
X223000000Y-168000000D03*
X303000000Y-253000000D03*
X268000000Y-198000000D03*
X153000000Y-243000000D03*
X203000000Y-168000000D03*
X298000000Y-258000000D03*
X298000000Y-173000000D03*
X93000000Y-38000000D03*
X78000000Y-163000000D03*
X153000000Y-218000000D03*
X148000000Y-243000000D03*
X273000000Y-23000000D03*
X293000000Y-263000000D03*
X88000000Y-248000000D03*
X73000000Y-118000000D03*
X118000000Y-133000000D03*
X78000000Y-143000000D03*
X198000000Y-83000000D03*
X113000000Y-178000000D03*
X178000000Y-273000000D03*
X218000000Y-218000000D03*
X128000000Y-93000000D03*
X278000000Y-58000000D03*
X198000000Y-263000000D03*
X253000000Y-93000000D03*
X193000000Y-128000000D03*
X228000000Y-153000000D03*
X243000000Y-228000000D03*
X203000000Y-93000000D03*
X248000000Y-78000000D03*
X143000000Y-243000000D03*
X278000000Y-163000000D03*
X18000000Y-128000000D03*
X23000000Y-83000000D03*
X103000000Y-73000000D03*
X33000000Y-208000000D03*
X133000000Y-173000000D03*
X113000000Y-68000000D03*
X98000000Y-123000000D03*
X38000000Y-53000000D03*
X58000000Y-98000000D03*
X198000000Y-43000000D03*
X228000000Y-28000000D03*
X278000000Y-273000000D03*
X263000000Y-258000000D03*
X18000000Y-218000000D03*
X228000000Y-138000000D03*
X208000000Y-88000000D03*
X263000000Y-243000000D03*
X268000000Y-33000000D03*
X148000000Y-108000000D03*
X268000000Y-178000000D03*
X113000000Y-153000000D03*
X23000000Y-68000000D03*
X48000000Y-28000000D03*
X278000000Y-78000000D03*
X133000000Y-238000000D03*
X138000000Y-203000000D03*
X263000000Y-178000000D03*
X28000000Y-228000000D03*
X178000000Y-23000000D03*
X118000000Y-38000000D03*
X43000000Y-28000000D03*
D15*
X162600000Y-80033333D03*
D14*
X128000000Y-223000000D03*
X178000000Y-123000000D03*
X278000000Y-158000000D03*
X83000000Y-183000000D03*
X43000000Y-168000000D03*
X138000000Y-273000000D03*
X123000000Y-168000000D03*
X203000000Y-38000000D03*
X148000000Y-208000000D03*
X118000000Y-103000000D03*
X208000000Y-173000000D03*
X188000000Y-233000000D03*
X268000000Y-23000000D03*
X303000000Y-143000000D03*
X48000000Y-78000000D03*
X43000000Y-123000000D03*
X253000000Y-18000000D03*
X113000000Y-58000000D03*
X278000000Y-73000000D03*
X193000000Y-53000000D03*
X53000000Y-123000000D03*
X18000000Y-198000000D03*
X193000000Y-118000000D03*
X183000000Y-243000000D03*
X28000000Y-128000000D03*
X268000000Y-113000000D03*
D15*
X163600000Y-85033333D03*
X161549999Y-85033333D03*
D14*
X53000000Y-158000000D03*
X193000000Y-88000000D03*
X208000000Y-243000000D03*
X108000000Y-278000000D03*
X178000000Y-218000000D03*
X268000000Y-218000000D03*
X58000000Y-138000000D03*
X248000000Y-68000000D03*
X138000000Y-103000000D03*
X153000000Y-223000000D03*
X183000000Y-38000000D03*
X293000000Y-138000000D03*
X123000000Y-73000000D03*
X23000000Y-118000000D03*
X193000000Y-153000000D03*
X303000000Y-268000000D03*
X133000000Y-143000000D03*
X228000000Y-273000000D03*
X53000000Y-93000000D03*
X268000000Y-253000000D03*
X193000000Y-93000000D03*
X123000000Y-178000000D03*
X173000000Y-163000000D03*
X188000000Y-108000000D03*
X203000000Y-213000000D03*
X63000000Y-23000000D03*
X108000000Y-158000000D03*
X298000000Y-113000000D03*
X208000000Y-48000000D03*
X208000000Y-213000000D03*
X303000000Y-63000000D03*
X218000000Y-73000000D03*
X178000000Y-103000000D03*
X178000000Y-38000000D03*
X38000000Y-23000000D03*
X138000000Y-238000000D03*
X83000000Y-18000000D03*
X103000000Y-58000000D03*
X63000000Y-278000000D03*
X258000000Y-33000000D03*
X183000000Y-108000000D03*
X118000000Y-218000000D03*
X48000000Y-233000000D03*
X118000000Y-228000000D03*
X218000000Y-278000000D03*
X258000000Y-113000000D03*
X73000000Y-223000000D03*
X173000000Y-23000000D03*
X58000000Y-198000000D03*
X23000000Y-53000000D03*
X53000000Y-173000000D03*
X43000000Y-223000000D03*
X133000000Y-153000000D03*
D15*
X163549999Y-80033333D03*
D14*
X33000000Y-18000000D03*
X243000000Y-88000000D03*
X183000000Y-213000000D03*
X28000000Y-153000000D03*
X153000000Y-168000000D03*
X83000000Y-273000000D03*
X208000000Y-118000000D03*
X248000000Y-193000000D03*
X93000000Y-263000000D03*
X73000000Y-88000000D03*
X33000000Y-263000000D03*
D15*
X161549999Y-83033333D03*
D14*
X238000000Y-73000000D03*
X118000000Y-18000000D03*
X58000000Y-213000000D03*
X183000000Y-183000000D03*
X63000000Y-113000000D03*
X48000000Y-123000000D03*
X23000000Y-88000000D03*
X153000000Y-43000000D03*
X198000000Y-158000000D03*
D15*
X160600000Y-80033333D03*
D14*
X88000000Y-28000000D03*
X133000000Y-48000000D03*
D15*
X162549999Y-81033333D03*
D14*
X38000000Y-213000000D03*
X218000000Y-208000000D03*
X303000000Y-43000000D03*
X278000000Y-28000000D03*
X233000000Y-213000000D03*
X168000000Y-258000000D03*
D15*
X160600000Y-86033333D03*
D14*
X178000000Y-183000000D03*
X128000000Y-258000000D03*
X248000000Y-258000000D03*
X38000000Y-93000000D03*
X283000000Y-198000000D03*
X288000000Y-83000000D03*
X108000000Y-63000000D03*
X193000000Y-163000000D03*
X48000000Y-163000000D03*
X223000000Y-238000000D03*
X163000000Y-73000000D03*
X273000000Y-38000000D03*
X243000000Y-258000000D03*
D15*
X160600000Y-85033333D03*
D14*
X278000000Y-228000000D03*
X233000000Y-223000000D03*
X228000000Y-158000000D03*
X153000000Y-78000000D03*
X73000000Y-143000000D03*
X208000000Y-53000000D03*
X163000000Y-118000000D03*
X18000000Y-133000000D03*
X48000000Y-38000000D03*
X213000000Y-38000000D03*
X228000000Y-218000000D03*
X28000000Y-93000000D03*
X213000000Y-93000000D03*
X183000000Y-53000000D03*
X183000000Y-68000000D03*
X268000000Y-78000000D03*
X93000000Y-133000000D03*
X83000000Y-58000000D03*
X78000000Y-273000000D03*
X43000000Y-18000000D03*
X178000000Y-93000000D03*
X33000000Y-248000000D03*
X33000000Y-138000000D03*
X208000000Y-93000000D03*
D15*
X163600000Y-83033333D03*
D14*
X73000000Y-203000000D03*
X283000000Y-108000000D03*
X98000000Y-33000000D03*
X38000000Y-63000000D03*
X43000000Y-258000000D03*
X143000000Y-218000000D03*
X93000000Y-98000000D03*
X193000000Y-258000000D03*
X98000000Y-223000000D03*
X163000000Y-98000000D03*
X248000000Y-208000000D03*
X143000000Y-153000000D03*
X108000000Y-168000000D03*
X278000000Y-108000000D03*
X83000000Y-278000000D03*
X78000000Y-58000000D03*
X123000000Y-53000000D03*
X113000000Y-263000000D03*
X298000000Y-73000000D03*
X78000000Y-83000000D03*
X113000000Y-158000000D03*
X58000000Y-78000000D03*
X88000000Y-58000000D03*
X153000000Y-143000000D03*
X163000000Y-83000000D03*
X213000000Y-203000000D03*
X118000000Y-148000000D03*
X123000000Y-258000000D03*
X268000000Y-268000000D03*
X183000000Y-263000000D03*
X303000000Y-213000000D03*
X198000000Y-138000000D03*
X28000000Y-48000000D03*
X293000000Y-158000000D03*
X183000000Y-133000000D03*
X48000000Y-73000000D03*
X113000000Y-103000000D03*
X208000000Y-103000000D03*
X73000000Y-208000000D03*
X63000000Y-138000000D03*
X103000000Y-238000000D03*
X283000000Y-38000000D03*
X148000000Y-43000000D03*
X98000000Y-68000000D03*
X218000000Y-18000000D03*
X258000000Y-138000000D03*
X138000000Y-263000000D03*
X233000000Y-238000000D03*
X303000000Y-73000000D03*
X193000000Y-198000000D03*
X153000000Y-188000000D03*
X203000000Y-148000000D03*
X118000000Y-93000000D03*
X38000000Y-58000000D03*
X303000000Y-103000000D03*
X283000000Y-58000000D03*
X183000000Y-268000000D03*
X238000000Y-193000000D03*
X153000000Y-33000000D03*
X173000000Y-198000000D03*
X273000000Y-83000000D03*
X218000000Y-28000000D03*
X143000000Y-238000000D03*
X188000000Y-198000000D03*
X43000000Y-128000000D03*
X153000000Y-268000000D03*
X303000000Y-258000000D03*
X78000000Y-53000000D03*
X163000000Y-203000000D03*
X143000000Y-43000000D03*
X68000000Y-93000000D03*
X33000000Y-168000000D03*
X43000000Y-278000000D03*
X158000000Y-198000000D03*
X88000000Y-258000000D03*
X188000000Y-143000000D03*
X258000000Y-108000000D03*
X23000000Y-93000000D03*
X23000000Y-48000000D03*
X288000000Y-253000000D03*
X133000000Y-273000000D03*
X113000000Y-238000000D03*
X108000000Y-93000000D03*
X228000000Y-193000000D03*
X158000000Y-148000000D03*
X178000000Y-18000000D03*
X33000000Y-268000000D03*
X203000000Y-163000000D03*
X78000000Y-103000000D03*
X38000000Y-173000000D03*
X238000000Y-278000000D03*
X38000000Y-68000000D03*
X48000000Y-188000000D03*
X23000000Y-103000000D03*
X63000000Y-98000000D03*
X233000000Y-208000000D03*
D15*
X162549999Y-82033333D03*
D14*
X48000000Y-263000000D03*
D15*
X161600000Y-81033333D03*
D14*
X33000000Y-223000000D03*
X203000000Y-203000000D03*
X148000000Y-218000000D03*
X118000000Y-63000000D03*
X48000000Y-273000000D03*
X158000000Y-153000000D03*
X243000000Y-48000000D03*
X63000000Y-238000000D03*
X283000000Y-113000000D03*
X228000000Y-108000000D03*
X153000000Y-208000000D03*
X243000000Y-193000000D03*
X198000000Y-38000000D03*
X248000000Y-38000000D03*
X48000000Y-33000000D03*
X128000000Y-213000000D03*
X153000000Y-148000000D03*
X53000000Y-28000000D03*
X258000000Y-273000000D03*
X148000000Y-143000000D03*
X53000000Y-38000000D03*
X63000000Y-58000000D03*
X123000000Y-23000000D03*
X78000000Y-48000000D03*
X93000000Y-68000000D03*
X138000000Y-153000000D03*
X68000000Y-168000000D03*
X193000000Y-68000000D03*
X253000000Y-243000000D03*
X148000000Y-73000000D03*
X163000000Y-18000000D03*
X248000000Y-128000000D03*
X133000000Y-43000000D03*
X133000000Y-218000000D03*
X278000000Y-93000000D03*
X18000000Y-98000000D03*
X123000000Y-193000000D03*
X198000000Y-128000000D03*
X223000000Y-178000000D03*
X113000000Y-18000000D03*
X163000000Y-108000000D03*
X133000000Y-103000000D03*
X188000000Y-173000000D03*
X63000000Y-148000000D03*
X98000000Y-188000000D03*
X148000000Y-53000000D03*
X258000000Y-253000000D03*
X188000000Y-38000000D03*
X188000000Y-218000000D03*
X243000000Y-18000000D03*
X278000000Y-148000000D03*
X28000000Y-258000000D03*
X133000000Y-268000000D03*
X233000000Y-33000000D03*
X303000000Y-53000000D03*
X273000000Y-68000000D03*
X263000000Y-188000000D03*
X23000000Y-178000000D03*
X33000000Y-273000000D03*
X278000000Y-188000000D03*
X208000000Y-148000000D03*
X243000000Y-28000000D03*
X163000000Y-263000000D03*
X258000000Y-263000000D03*
X83000000Y-228000000D03*
X228000000Y-263000000D03*
X68000000Y-213000000D03*
X253000000Y-218000000D03*
X303000000Y-273000000D03*
X238000000Y-153000000D03*
X243000000Y-23000000D03*
X68000000Y-228000000D03*
X293000000Y-208000000D03*
X203000000Y-243000000D03*
X123000000Y-63000000D03*
X23000000Y-143000000D03*
X103000000Y-228000000D03*
X108000000Y-38000000D03*
D15*
X162549999Y-80033333D03*
D14*
X23000000Y-243000000D03*
X148000000Y-268000000D03*
X203000000Y-223000000D03*
X293000000Y-98000000D03*
X103000000Y-258000000D03*
X38000000Y-253000000D03*
X133000000Y-118000000D03*
X153000000Y-198000000D03*
X293000000Y-128000000D03*
X63000000Y-188000000D03*
X123000000Y-188000000D03*
X78000000Y-208000000D03*
X143000000Y-198000000D03*
D15*
X161549999Y-79033333D03*
D14*
X213000000Y-63000000D03*
X163000000Y-88000000D03*
X253000000Y-203000000D03*
X153000000Y-108000000D03*
X298000000Y-128000000D03*
X298000000Y-138000000D03*
X203000000Y-123000000D03*
X98000000Y-18000000D03*
X228000000Y-33000000D03*
X303000000Y-183000000D03*
X243000000Y-128000000D03*
X268000000Y-258000000D03*
X108000000Y-173000000D03*
X293000000Y-268000000D03*
X48000000Y-258000000D03*
X298000000Y-223000000D03*
X193000000Y-208000000D03*
X53000000Y-213000000D03*
X193000000Y-133000000D03*
X68000000Y-248000000D03*
X158000000Y-98000000D03*
X253000000Y-208000000D03*
X258000000Y-248000000D03*
X123000000Y-43000000D03*
X58000000Y-108000000D03*
X178000000Y-78000000D03*
X203000000Y-228000000D03*
X168000000Y-58000000D03*
X48000000Y-178000000D03*
X303000000Y-248000000D03*
X113000000Y-48000000D03*
X53000000Y-148000000D03*
X88000000Y-48000000D03*
D15*
X162600000Y-86033333D03*
D14*
X188000000Y-123000000D03*
X38000000Y-248000000D03*
X98000000Y-78000000D03*
X178000000Y-198000000D03*
X243000000Y-153000000D03*
X248000000Y-98000000D03*
X78000000Y-188000000D03*
X278000000Y-208000000D03*
X128000000Y-168000000D03*
X233000000Y-158000000D03*
X128000000Y-273000000D03*
X58000000Y-233000000D03*
X283000000Y-268000000D03*
X98000000Y-233000000D03*
X243000000Y-38000000D03*
X273000000Y-218000000D03*
X248000000Y-243000000D03*
X38000000Y-38000000D03*
X248000000Y-73000000D03*
X28000000Y-88000000D03*
X23000000Y-273000000D03*
X213000000Y-18000000D03*
X88000000Y-198000000D03*
X48000000Y-153000000D03*
X103000000Y-178000000D03*
X203000000Y-193000000D03*
X28000000Y-118000000D03*
X293000000Y-103000000D03*
X243000000Y-188000000D03*
X193000000Y-223000000D03*
X113000000Y-203000000D03*
X173000000Y-233000000D03*
X58000000Y-168000000D03*
X58000000Y-193000000D03*
X43000000Y-208000000D03*
X73000000Y-238000000D03*
X78000000Y-123000000D03*
X123000000Y-113000000D03*
X268000000Y-183000000D03*
X163000000Y-223000000D03*
X153000000Y-118000000D03*
X163000000Y-148000000D03*
X88000000Y-178000000D03*
X148000000Y-233000000D03*
X243000000Y-83000000D03*
X148000000Y-248000000D03*
X123000000Y-213000000D03*
X253000000Y-213000000D03*
X103000000Y-203000000D03*
X293000000Y-198000000D03*
X208000000Y-168000000D03*
X88000000Y-63000000D03*
X93000000Y-153000000D03*
X108000000Y-133000000D03*
X243000000Y-158000000D03*
X138000000Y-48000000D03*
X238000000Y-98000000D03*
X193000000Y-188000000D03*
X73000000Y-128000000D03*
X33000000Y-58000000D03*
X223000000Y-133000000D03*
X53000000Y-143000000D03*
X283000000Y-143000000D03*
X278000000Y-203000000D03*
X218000000Y-98000000D03*
X43000000Y-148000000D03*
D15*
X163549999Y-86033333D03*
D14*
X278000000Y-33000000D03*
X273000000Y-253000000D03*
X173000000Y-103000000D03*
X93000000Y-48000000D03*
X93000000Y-198000000D03*
X288000000Y-163000000D03*
X233000000Y-108000000D03*
X283000000Y-228000000D03*
X128000000Y-243000000D03*
X288000000Y-278000000D03*
X303000000Y-203000000D03*
X238000000Y-223000000D03*
X128000000Y-278000000D03*
X233000000Y-188000000D03*
X228000000Y-223000000D03*
X28000000Y-168000000D03*
X263000000Y-163000000D03*
X188000000Y-223000000D03*
X123000000Y-208000000D03*
X253000000Y-188000000D03*
X218000000Y-108000000D03*
X103000000Y-263000000D03*
X33000000Y-148000000D03*
X108000000Y-163000000D03*
X208000000Y-33000000D03*
X233000000Y-83000000D03*
X268000000Y-263000000D03*
X243000000Y-108000000D03*
X23000000Y-23000000D03*
X178000000Y-203000000D03*
X43000000Y-263000000D03*
X293000000Y-178000000D03*
X173000000Y-153000000D03*
X63000000Y-193000000D03*
X208000000Y-153000000D03*
X63000000Y-268000000D03*
X63000000Y-263000000D03*
X218000000Y-118000000D03*
D16*
X296700000Y-159333333D03*
X296700000Y-158063333D03*
X297970000Y-159333333D03*
X297970000Y-158063333D03*
X299240000Y-159333333D03*
X299240000Y-158063333D03*
X300510000Y-159333333D03*
X300510000Y-158063333D03*
X301780000Y-159333333D03*
X301780000Y-158063333D03*
X303050000Y-159333333D03*
X303050000Y-158063333D03*
X304320000Y-159333333D03*
X304320000Y-158063333D03*
X296700000Y-122000000D03*
X296700000Y-120730000D03*
X297970000Y-122000000D03*
X297970000Y-120730000D03*
X299240000Y-122000000D03*
X299240000Y-120730000D03*
X300510000Y-122000000D03*
X300510000Y-120730000D03*
X301780000Y-122000000D03*
X301780000Y-120730000D03*
X308900000Y-17466666D03*
X16100000Y-17466666D03*
X308900000Y-282533333D03*
X25250000Y-269000000D03*
X16100000Y-282533333D03*
M02*
