%TF.GenerationSoftware,KiCad,Pcbnew,9.0.9-rc1*%
%TF.CreationDate,2026-06-20T16:22:38-07:00*%
%TF.ProjectId,TFLN_AI_NODE_X2,54464c4e-5f41-4495-9f4e-4f44455f5832,rev?*%
%TF.SameCoordinates,Original*%
%TF.FileFunction,Legend,Top*%
%TF.FilePolarity,Positive*%
%FSLAX46Y46*%
G04 Gerber Fmt 4.6, Leading zero omitted, Abs format (unit mm)*
G04 Created by KiCad (PCBNEW 9.0.9-rc1) date 2026-06-20 16:22:38*
%MOMM*%
%LPD*%
G01*
G04 APERTURE LIST*
G04 Aperture macros list*
%AMRoundRect*
0 Rectangle with rounded corners*
0 $1 Rounding radius*
0 $2 $3 $4 $5 $6 $7 $8 $9 X,Y pos of 4 corners*
0 Add a 4 corners polygon primitive as box body*
4,1,4,$2,$3,$4,$5,$6,$7,$8,$9,$2,$3,0*
0 Add four circle primitives for the rounded corners*
1,1,$1+$1,$2,$3*
1,1,$1+$1,$4,$5*
1,1,$1+$1,$6,$7*
1,1,$1+$1,$8,$9*
0 Add four rect primitives between the rounded corners*
20,1,$1+$1,$2,$3,$4,$5,0*
20,1,$1+$1,$4,$5,$6,$7,0*
20,1,$1+$1,$6,$7,$8,$9,0*
20,1,$1+$1,$8,$9,$2,$3,0*%
G04 Aperture macros list end*
%ADD10C,0.200000*%
%ADD11C,0.150000*%
%ADD12C,0.120000*%
%ADD13RoundRect,0.135000X-0.135000X-0.185000X0.135000X-0.185000X0.135000X0.185000X-0.135000X0.185000X0*%
%ADD14R,0.500000X0.800000*%
%ADD15RoundRect,0.112500X-0.187500X-0.112500X0.187500X-0.112500X0.187500X0.112500X-0.187500X0.112500X0*%
%ADD16RoundRect,0.140000X-0.140000X-0.170000X0.140000X-0.170000X0.140000X0.170000X-0.140000X0.170000X0*%
%ADD17C,1.000000*%
%ADD18RoundRect,0.225000X-0.225000X-0.250000X0.225000X-0.250000X0.225000X0.250000X-0.225000X0.250000X0*%
%ADD19RoundRect,0.062500X-0.675000X-0.062500X0.675000X-0.062500X0.675000X0.062500X-0.675000X0.062500X0*%
%ADD20RoundRect,0.250000X-0.250000X-0.475000X0.250000X-0.475000X0.250000X0.475000X-0.250000X0.475000X0*%
%ADD21RoundRect,0.062500X-0.187500X-0.062500X0.187500X-0.062500X0.187500X0.062500X-0.187500X0.062500X0*%
%ADD22R,0.900000X1.600000*%
%ADD23R,0.200000X0.800000*%
%ADD24R,0.800000X0.200000*%
%ADD25R,5.500000X5.500000*%
%ADD26R,1.000000X1.000000*%
%ADD27O,1.000000X1.000000*%
%ADD28RoundRect,0.050000X-0.350000X-0.050000X0.350000X-0.050000X0.350000X0.050000X-0.350000X0.050000X0*%
%ADD29RoundRect,0.050000X-0.050000X-0.350000X0.050000X-0.350000X0.050000X0.350000X-0.050000X0.350000X0*%
%ADD30R,3.700000X3.700000*%
%ADD31R,5.080000X1.500000*%
%ADD32C,3.200000*%
%ADD33RoundRect,0.150000X-0.512500X-0.150000X0.512500X-0.150000X0.512500X0.150000X-0.512500X0.150000X0*%
%ADD34C,0.350000*%
%ADD35RoundRect,0.150000X-0.825000X-0.150000X0.825000X-0.150000X0.825000X0.150000X-0.825000X0.150000X0*%
%ADD36R,2.300000X2.300000*%
%ADD37RoundRect,0.250000X-0.787500X-1.025000X0.787500X-1.025000X0.787500X1.025000X-0.787500X1.025000X0*%
%ADD38R,1.400000X1.200000*%
%ADD39RoundRect,0.100000X-0.637500X-0.100000X0.637500X-0.100000X0.637500X0.100000X-0.637500X0.100000X0*%
%ADD40R,1.000000X0.300000*%
%ADD41R,0.900000X1.700000*%
%ADD42RoundRect,0.218750X-0.218750X-0.256250X0.218750X-0.256250X0.218750X0.256250X-0.218750X0.256250X0*%
%ADD43RoundRect,0.062500X-0.350000X-0.062500X0.350000X-0.062500X0.350000X0.062500X-0.350000X0.062500X0*%
%ADD44RoundRect,0.062500X-0.062500X-0.337500X0.062500X-0.337500X0.062500X0.337500X-0.062500X0.337500X0*%
%ADD45R,1.700000X4.750000*%
%ADD46RoundRect,0.243750X-0.243750X-0.456250X0.243750X-0.456250X0.243750X0.456250X-0.243750X0.456250X0*%
%ADD47C,2.000000*%
%ADD48R,3.300000X4.400000*%
%ADD49R,3.900000X6.200000*%
%ADD50R,2.900000X5.400000*%
G04 APERTURE END LIST*
D10*
X12392857Y-12183528D02*
X13250000Y-12183528D01*
X12821428Y-13683528D02*
X12821428Y-12183528D01*
X14249999Y-12897814D02*
X13749999Y-12897814D01*
X13749999Y-13683528D02*
X13749999Y-12183528D01*
X13749999Y-12183528D02*
X14464285Y-12183528D01*
X15749999Y-13683528D02*
X15035713Y-13683528D01*
X15035713Y-13683528D02*
X15035713Y-12183528D01*
X16249999Y-13683528D02*
X16249999Y-12183528D01*
X16249999Y-12183528D02*
X17107142Y-13683528D01*
X17107142Y-13683528D02*
X17107142Y-12183528D01*
X17464286Y-13826385D02*
X18607143Y-13826385D01*
X18892857Y-13254957D02*
X19607143Y-13254957D01*
X18750000Y-13683528D02*
X19250000Y-12183528D01*
X19250000Y-12183528D02*
X19750000Y-13683528D01*
X20249999Y-13683528D02*
X20249999Y-12183528D01*
X20607143Y-13826385D02*
X21750000Y-13826385D01*
X22107142Y-13683528D02*
X22107142Y-12183528D01*
X22107142Y-12183528D02*
X22964285Y-13683528D01*
X22964285Y-13683528D02*
X22964285Y-12183528D01*
X23964286Y-12183528D02*
X24250000Y-12183528D01*
X24250000Y-12183528D02*
X24392857Y-12254957D01*
X24392857Y-12254957D02*
X24535714Y-12397814D01*
X24535714Y-12397814D02*
X24607143Y-12683528D01*
X24607143Y-12683528D02*
X24607143Y-13183528D01*
X24607143Y-13183528D02*
X24535714Y-13469242D01*
X24535714Y-13469242D02*
X24392857Y-13612100D01*
X24392857Y-13612100D02*
X24250000Y-13683528D01*
X24250000Y-13683528D02*
X23964286Y-13683528D01*
X23964286Y-13683528D02*
X23821429Y-13612100D01*
X23821429Y-13612100D02*
X23678571Y-13469242D01*
X23678571Y-13469242D02*
X23607143Y-13183528D01*
X23607143Y-13183528D02*
X23607143Y-12683528D01*
X23607143Y-12683528D02*
X23678571Y-12397814D01*
X23678571Y-12397814D02*
X23821429Y-12254957D01*
X23821429Y-12254957D02*
X23964286Y-12183528D01*
X25250000Y-13683528D02*
X25250000Y-12183528D01*
X25250000Y-12183528D02*
X25607143Y-12183528D01*
X25607143Y-12183528D02*
X25821429Y-12254957D01*
X25821429Y-12254957D02*
X25964286Y-12397814D01*
X25964286Y-12397814D02*
X26035715Y-12540671D01*
X26035715Y-12540671D02*
X26107143Y-12826385D01*
X26107143Y-12826385D02*
X26107143Y-13040671D01*
X26107143Y-13040671D02*
X26035715Y-13326385D01*
X26035715Y-13326385D02*
X25964286Y-13469242D01*
X25964286Y-13469242D02*
X25821429Y-13612100D01*
X25821429Y-13612100D02*
X25607143Y-13683528D01*
X25607143Y-13683528D02*
X25250000Y-13683528D01*
X26750000Y-12897814D02*
X27250000Y-12897814D01*
X27464286Y-13683528D02*
X26750000Y-13683528D01*
X26750000Y-13683528D02*
X26750000Y-12183528D01*
X26750000Y-12183528D02*
X27464286Y-12183528D01*
X27750001Y-13826385D02*
X28892858Y-13826385D01*
X29107143Y-12183528D02*
X30107143Y-13683528D01*
X30107143Y-12183528D02*
X29107143Y-13683528D01*
X30607143Y-12326385D02*
X30678571Y-12254957D01*
X30678571Y-12254957D02*
X30821429Y-12183528D01*
X30821429Y-12183528D02*
X31178571Y-12183528D01*
X31178571Y-12183528D02*
X31321429Y-12254957D01*
X31321429Y-12254957D02*
X31392857Y-12326385D01*
X31392857Y-12326385D02*
X31464286Y-12469242D01*
X31464286Y-12469242D02*
X31464286Y-12612100D01*
X31464286Y-12612100D02*
X31392857Y-12826385D01*
X31392857Y-12826385D02*
X30535714Y-13683528D01*
X30535714Y-13683528D02*
X31464286Y-13683528D01*
D11*
X32255952Y-214618152D02*
X31922619Y-214141961D01*
X31684524Y-214618152D02*
X31684524Y-213618152D01*
X31684524Y-213618152D02*
X32065476Y-213618152D01*
X32065476Y-213618152D02*
X32160714Y-213665771D01*
X32160714Y-213665771D02*
X32208333Y-213713390D01*
X32208333Y-213713390D02*
X32255952Y-213808628D01*
X32255952Y-213808628D02*
X32255952Y-213951485D01*
X32255952Y-213951485D02*
X32208333Y-214046723D01*
X32208333Y-214046723D02*
X32160714Y-214094342D01*
X32160714Y-214094342D02*
X32065476Y-214141961D01*
X32065476Y-214141961D02*
X31684524Y-214141961D01*
X33160714Y-213618152D02*
X32684524Y-213618152D01*
X32684524Y-213618152D02*
X32636905Y-214094342D01*
X32636905Y-214094342D02*
X32684524Y-214046723D01*
X32684524Y-214046723D02*
X32779762Y-213999104D01*
X32779762Y-213999104D02*
X33017857Y-213999104D01*
X33017857Y-213999104D02*
X33113095Y-214046723D01*
X33113095Y-214046723D02*
X33160714Y-214094342D01*
X33160714Y-214094342D02*
X33208333Y-214189580D01*
X33208333Y-214189580D02*
X33208333Y-214427675D01*
X33208333Y-214427675D02*
X33160714Y-214522913D01*
X33160714Y-214522913D02*
X33113095Y-214570533D01*
X33113095Y-214570533D02*
X33017857Y-214618152D01*
X33017857Y-214618152D02*
X32779762Y-214618152D01*
X32779762Y-214618152D02*
X32684524Y-214570533D01*
X32684524Y-214570533D02*
X32636905Y-214522913D01*
X34065476Y-214618152D02*
X34065476Y-214094342D01*
X34065476Y-214094342D02*
X34017857Y-213999104D01*
X34017857Y-213999104D02*
X33922619Y-213951485D01*
X33922619Y-213951485D02*
X33732143Y-213951485D01*
X33732143Y-213951485D02*
X33636905Y-213999104D01*
X34065476Y-214570533D02*
X33970238Y-214618152D01*
X33970238Y-214618152D02*
X33732143Y-214618152D01*
X33732143Y-214618152D02*
X33636905Y-214570533D01*
X33636905Y-214570533D02*
X33589286Y-214475294D01*
X33589286Y-214475294D02*
X33589286Y-214380056D01*
X33589286Y-214380056D02*
X33636905Y-214284818D01*
X33636905Y-214284818D02*
X33732143Y-214237199D01*
X33732143Y-214237199D02*
X33970238Y-214237199D01*
X33970238Y-214237199D02*
X34065476Y-214189580D01*
X161738095Y-87954819D02*
X161738095Y-88764342D01*
X161738095Y-88764342D02*
X161785714Y-88859580D01*
X161785714Y-88859580D02*
X161833333Y-88907200D01*
X161833333Y-88907200D02*
X161928571Y-88954819D01*
X161928571Y-88954819D02*
X162119047Y-88954819D01*
X162119047Y-88954819D02*
X162214285Y-88907200D01*
X162214285Y-88907200D02*
X162261904Y-88859580D01*
X162261904Y-88859580D02*
X162309523Y-88764342D01*
X162309523Y-88764342D02*
X162309523Y-87954819D01*
X162690476Y-87954819D02*
X163309523Y-87954819D01*
X163309523Y-87954819D02*
X162976190Y-88335771D01*
X162976190Y-88335771D02*
X163119047Y-88335771D01*
X163119047Y-88335771D02*
X163214285Y-88383390D01*
X163214285Y-88383390D02*
X163261904Y-88431009D01*
X163261904Y-88431009D02*
X163309523Y-88526247D01*
X163309523Y-88526247D02*
X163309523Y-88764342D01*
X163309523Y-88764342D02*
X163261904Y-88859580D01*
X163261904Y-88859580D02*
X163214285Y-88907200D01*
X163214285Y-88907200D02*
X163119047Y-88954819D01*
X163119047Y-88954819D02*
X162833333Y-88954819D01*
X162833333Y-88954819D02*
X162738095Y-88907200D01*
X162738095Y-88907200D02*
X162690476Y-88859580D01*
X236034524Y-182204819D02*
X236034524Y-181204819D01*
X236034524Y-181204819D02*
X236272619Y-181204819D01*
X236272619Y-181204819D02*
X236415476Y-181252438D01*
X236415476Y-181252438D02*
X236510714Y-181347676D01*
X236510714Y-181347676D02*
X236558333Y-181442914D01*
X236558333Y-181442914D02*
X236605952Y-181633390D01*
X236605952Y-181633390D02*
X236605952Y-181776247D01*
X236605952Y-181776247D02*
X236558333Y-181966723D01*
X236558333Y-181966723D02*
X236510714Y-182061961D01*
X236510714Y-182061961D02*
X236415476Y-182157200D01*
X236415476Y-182157200D02*
X236272619Y-182204819D01*
X236272619Y-182204819D02*
X236034524Y-182204819D01*
X237510714Y-181204819D02*
X237034524Y-181204819D01*
X237034524Y-181204819D02*
X236986905Y-181681009D01*
X236986905Y-181681009D02*
X237034524Y-181633390D01*
X237034524Y-181633390D02*
X237129762Y-181585771D01*
X237129762Y-181585771D02*
X237367857Y-181585771D01*
X237367857Y-181585771D02*
X237463095Y-181633390D01*
X237463095Y-181633390D02*
X237510714Y-181681009D01*
X237510714Y-181681009D02*
X237558333Y-181776247D01*
X237558333Y-181776247D02*
X237558333Y-182014342D01*
X237558333Y-182014342D02*
X237510714Y-182109580D01*
X237510714Y-182109580D02*
X237463095Y-182157200D01*
X237463095Y-182157200D02*
X237367857Y-182204819D01*
X237367857Y-182204819D02*
X237129762Y-182204819D01*
X237129762Y-182204819D02*
X237034524Y-182157200D01*
X237034524Y-182157200D02*
X236986905Y-182109580D01*
X238415476Y-182204819D02*
X238415476Y-181681009D01*
X238415476Y-181681009D02*
X238367857Y-181585771D01*
X238367857Y-181585771D02*
X238272619Y-181538152D01*
X238272619Y-181538152D02*
X238082143Y-181538152D01*
X238082143Y-181538152D02*
X237986905Y-181585771D01*
X238415476Y-182157200D02*
X238320238Y-182204819D01*
X238320238Y-182204819D02*
X238082143Y-182204819D01*
X238082143Y-182204819D02*
X237986905Y-182157200D01*
X237986905Y-182157200D02*
X237939286Y-182061961D01*
X237939286Y-182061961D02*
X237939286Y-181966723D01*
X237939286Y-181966723D02*
X237986905Y-181871485D01*
X237986905Y-181871485D02*
X238082143Y-181823866D01*
X238082143Y-181823866D02*
X238320238Y-181823866D01*
X238320238Y-181823866D02*
X238415476Y-181776247D01*
X174057142Y-78266246D02*
X174009523Y-78313866D01*
X174009523Y-78313866D02*
X173866666Y-78361485D01*
X173866666Y-78361485D02*
X173771428Y-78361485D01*
X173771428Y-78361485D02*
X173628571Y-78313866D01*
X173628571Y-78313866D02*
X173533333Y-78218627D01*
X173533333Y-78218627D02*
X173485714Y-78123389D01*
X173485714Y-78123389D02*
X173438095Y-77932913D01*
X173438095Y-77932913D02*
X173438095Y-77790056D01*
X173438095Y-77790056D02*
X173485714Y-77599580D01*
X173485714Y-77599580D02*
X173533333Y-77504342D01*
X173533333Y-77504342D02*
X173628571Y-77409104D01*
X173628571Y-77409104D02*
X173771428Y-77361485D01*
X173771428Y-77361485D02*
X173866666Y-77361485D01*
X173866666Y-77361485D02*
X174009523Y-77409104D01*
X174009523Y-77409104D02*
X174057142Y-77456723D01*
X174914285Y-77694818D02*
X174914285Y-78361485D01*
X174676190Y-77313866D02*
X174438095Y-78028151D01*
X174438095Y-78028151D02*
X175057142Y-78028151D01*
X175961904Y-78361485D02*
X175390476Y-78361485D01*
X175676190Y-78361485D02*
X175676190Y-77361485D01*
X175676190Y-77361485D02*
X175580952Y-77504342D01*
X175580952Y-77504342D02*
X175485714Y-77599580D01*
X175485714Y-77599580D02*
X175390476Y-77647199D01*
X200649998Y-137999580D02*
X200602379Y-138047200D01*
X200602379Y-138047200D02*
X200459522Y-138094819D01*
X200459522Y-138094819D02*
X200364284Y-138094819D01*
X200364284Y-138094819D02*
X200221427Y-138047200D01*
X200221427Y-138047200D02*
X200126189Y-137951961D01*
X200126189Y-137951961D02*
X200078570Y-137856723D01*
X200078570Y-137856723D02*
X200030951Y-137666247D01*
X200030951Y-137666247D02*
X200030951Y-137523390D01*
X200030951Y-137523390D02*
X200078570Y-137332914D01*
X200078570Y-137332914D02*
X200126189Y-137237676D01*
X200126189Y-137237676D02*
X200221427Y-137142438D01*
X200221427Y-137142438D02*
X200364284Y-137094819D01*
X200364284Y-137094819D02*
X200459522Y-137094819D01*
X200459522Y-137094819D02*
X200602379Y-137142438D01*
X200602379Y-137142438D02*
X200649998Y-137190057D01*
X201554760Y-137094819D02*
X201078570Y-137094819D01*
X201078570Y-137094819D02*
X201030951Y-137571009D01*
X201030951Y-137571009D02*
X201078570Y-137523390D01*
X201078570Y-137523390D02*
X201173808Y-137475771D01*
X201173808Y-137475771D02*
X201411903Y-137475771D01*
X201411903Y-137475771D02*
X201507141Y-137523390D01*
X201507141Y-137523390D02*
X201554760Y-137571009D01*
X201554760Y-137571009D02*
X201602379Y-137666247D01*
X201602379Y-137666247D02*
X201602379Y-137904342D01*
X201602379Y-137904342D02*
X201554760Y-137999580D01*
X201554760Y-137999580D02*
X201507141Y-138047200D01*
X201507141Y-138047200D02*
X201411903Y-138094819D01*
X201411903Y-138094819D02*
X201173808Y-138094819D01*
X201173808Y-138094819D02*
X201078570Y-138047200D01*
X201078570Y-138047200D02*
X201030951Y-137999580D01*
X202221427Y-137094819D02*
X202316665Y-137094819D01*
X202316665Y-137094819D02*
X202411903Y-137142438D01*
X202411903Y-137142438D02*
X202459522Y-137190057D01*
X202459522Y-137190057D02*
X202507141Y-137285295D01*
X202507141Y-137285295D02*
X202554760Y-137475771D01*
X202554760Y-137475771D02*
X202554760Y-137713866D01*
X202554760Y-137713866D02*
X202507141Y-137904342D01*
X202507141Y-137904342D02*
X202459522Y-137999580D01*
X202459522Y-137999580D02*
X202411903Y-138047200D01*
X202411903Y-138047200D02*
X202316665Y-138094819D01*
X202316665Y-138094819D02*
X202221427Y-138094819D01*
X202221427Y-138094819D02*
X202126189Y-138047200D01*
X202126189Y-138047200D02*
X202078570Y-137999580D01*
X202078570Y-137999580D02*
X202030951Y-137904342D01*
X202030951Y-137904342D02*
X201983332Y-137713866D01*
X201983332Y-137713866D02*
X201983332Y-137475771D01*
X201983332Y-137475771D02*
X202030951Y-137285295D01*
X202030951Y-137285295D02*
X202078570Y-137190057D01*
X202078570Y-137190057D02*
X202126189Y-137142438D01*
X202126189Y-137142438D02*
X202221427Y-137094819D01*
X202745237Y-138190057D02*
X203507141Y-138190057D01*
X203935713Y-137094819D02*
X204030951Y-137094819D01*
X204030951Y-137094819D02*
X204126189Y-137142438D01*
X204126189Y-137142438D02*
X204173808Y-137190057D01*
X204173808Y-137190057D02*
X204221427Y-137285295D01*
X204221427Y-137285295D02*
X204269046Y-137475771D01*
X204269046Y-137475771D02*
X204269046Y-137713866D01*
X204269046Y-137713866D02*
X204221427Y-137904342D01*
X204221427Y-137904342D02*
X204173808Y-137999580D01*
X204173808Y-137999580D02*
X204126189Y-138047200D01*
X204126189Y-138047200D02*
X204030951Y-138094819D01*
X204030951Y-138094819D02*
X203935713Y-138094819D01*
X203935713Y-138094819D02*
X203840475Y-138047200D01*
X203840475Y-138047200D02*
X203792856Y-137999580D01*
X203792856Y-137999580D02*
X203745237Y-137904342D01*
X203745237Y-137904342D02*
X203697618Y-137713866D01*
X203697618Y-137713866D02*
X203697618Y-137475771D01*
X203697618Y-137475771D02*
X203745237Y-137285295D01*
X203745237Y-137285295D02*
X203792856Y-137190057D01*
X203792856Y-137190057D02*
X203840475Y-137142438D01*
X203840475Y-137142438D02*
X203935713Y-137094819D01*
X46863095Y-276806819D02*
X47434523Y-276806819D01*
X47148809Y-277806819D02*
X47148809Y-276806819D01*
X47767857Y-277806819D02*
X47767857Y-276806819D01*
X47767857Y-276806819D02*
X48148809Y-276806819D01*
X48148809Y-276806819D02*
X48244047Y-276854438D01*
X48244047Y-276854438D02*
X48291666Y-276902057D01*
X48291666Y-276902057D02*
X48339285Y-276997295D01*
X48339285Y-276997295D02*
X48339285Y-277140152D01*
X48339285Y-277140152D02*
X48291666Y-277235390D01*
X48291666Y-277235390D02*
X48244047Y-277283009D01*
X48244047Y-277283009D02*
X48148809Y-277330628D01*
X48148809Y-277330628D02*
X47767857Y-277330628D01*
X48720238Y-276902057D02*
X48767857Y-276854438D01*
X48767857Y-276854438D02*
X48863095Y-276806819D01*
X48863095Y-276806819D02*
X49101190Y-276806819D01*
X49101190Y-276806819D02*
X49196428Y-276854438D01*
X49196428Y-276854438D02*
X49244047Y-276902057D01*
X49244047Y-276902057D02*
X49291666Y-276997295D01*
X49291666Y-276997295D02*
X49291666Y-277092533D01*
X49291666Y-277092533D02*
X49244047Y-277235390D01*
X49244047Y-277235390D02*
X48672619Y-277806819D01*
X48672619Y-277806819D02*
X49291666Y-277806819D01*
X239298808Y-208932913D02*
X239251189Y-208980533D01*
X239251189Y-208980533D02*
X239108332Y-209028152D01*
X239108332Y-209028152D02*
X239013094Y-209028152D01*
X239013094Y-209028152D02*
X238870237Y-208980533D01*
X238870237Y-208980533D02*
X238774999Y-208885294D01*
X238774999Y-208885294D02*
X238727380Y-208790056D01*
X238727380Y-208790056D02*
X238679761Y-208599580D01*
X238679761Y-208599580D02*
X238679761Y-208456723D01*
X238679761Y-208456723D02*
X238727380Y-208266247D01*
X238727380Y-208266247D02*
X238774999Y-208171009D01*
X238774999Y-208171009D02*
X238870237Y-208075771D01*
X238870237Y-208075771D02*
X239013094Y-208028152D01*
X239013094Y-208028152D02*
X239108332Y-208028152D01*
X239108332Y-208028152D02*
X239251189Y-208075771D01*
X239251189Y-208075771D02*
X239298808Y-208123390D01*
X240203570Y-208028152D02*
X239727380Y-208028152D01*
X239727380Y-208028152D02*
X239679761Y-208504342D01*
X239679761Y-208504342D02*
X239727380Y-208456723D01*
X239727380Y-208456723D02*
X239822618Y-208409104D01*
X239822618Y-208409104D02*
X240060713Y-208409104D01*
X240060713Y-208409104D02*
X240155951Y-208456723D01*
X240155951Y-208456723D02*
X240203570Y-208504342D01*
X240203570Y-208504342D02*
X240251189Y-208599580D01*
X240251189Y-208599580D02*
X240251189Y-208837675D01*
X240251189Y-208837675D02*
X240203570Y-208932913D01*
X240203570Y-208932913D02*
X240155951Y-208980533D01*
X240155951Y-208980533D02*
X240060713Y-209028152D01*
X240060713Y-209028152D02*
X239822618Y-209028152D01*
X239822618Y-209028152D02*
X239727380Y-208980533D01*
X239727380Y-208980533D02*
X239679761Y-208932913D01*
X240441666Y-209123390D02*
X241203570Y-209123390D01*
X241822618Y-208980533D02*
X241727380Y-209028152D01*
X241727380Y-209028152D02*
X241536904Y-209028152D01*
X241536904Y-209028152D02*
X241441666Y-208980533D01*
X241441666Y-208980533D02*
X241394047Y-208885294D01*
X241394047Y-208885294D02*
X241394047Y-208504342D01*
X241394047Y-208504342D02*
X241441666Y-208409104D01*
X241441666Y-208409104D02*
X241536904Y-208361485D01*
X241536904Y-208361485D02*
X241727380Y-208361485D01*
X241727380Y-208361485D02*
X241822618Y-208409104D01*
X241822618Y-208409104D02*
X241870237Y-208504342D01*
X241870237Y-208504342D02*
X241870237Y-208599580D01*
X241870237Y-208599580D02*
X241394047Y-208694818D01*
X82604760Y-242262913D02*
X82557141Y-242310533D01*
X82557141Y-242310533D02*
X82414284Y-242358152D01*
X82414284Y-242358152D02*
X82319046Y-242358152D01*
X82319046Y-242358152D02*
X82176189Y-242310533D01*
X82176189Y-242310533D02*
X82080951Y-242215294D01*
X82080951Y-242215294D02*
X82033332Y-242120056D01*
X82033332Y-242120056D02*
X81985713Y-241929580D01*
X81985713Y-241929580D02*
X81985713Y-241786723D01*
X81985713Y-241786723D02*
X82033332Y-241596247D01*
X82033332Y-241596247D02*
X82080951Y-241501009D01*
X82080951Y-241501009D02*
X82176189Y-241405771D01*
X82176189Y-241405771D02*
X82319046Y-241358152D01*
X82319046Y-241358152D02*
X82414284Y-241358152D01*
X82414284Y-241358152D02*
X82557141Y-241405771D01*
X82557141Y-241405771D02*
X82604760Y-241453390D01*
X82985713Y-241453390D02*
X83033332Y-241405771D01*
X83033332Y-241405771D02*
X83128570Y-241358152D01*
X83128570Y-241358152D02*
X83366665Y-241358152D01*
X83366665Y-241358152D02*
X83461903Y-241405771D01*
X83461903Y-241405771D02*
X83509522Y-241453390D01*
X83509522Y-241453390D02*
X83557141Y-241548628D01*
X83557141Y-241548628D02*
X83557141Y-241643866D01*
X83557141Y-241643866D02*
X83509522Y-241786723D01*
X83509522Y-241786723D02*
X82938094Y-242358152D01*
X82938094Y-242358152D02*
X83557141Y-242358152D01*
X84414284Y-242310533D02*
X84319046Y-242358152D01*
X84319046Y-242358152D02*
X84128570Y-242358152D01*
X84128570Y-242358152D02*
X84033332Y-242310533D01*
X84033332Y-242310533D02*
X83985713Y-242262913D01*
X83985713Y-242262913D02*
X83938094Y-242167675D01*
X83938094Y-242167675D02*
X83938094Y-241881961D01*
X83938094Y-241881961D02*
X83985713Y-241786723D01*
X83985713Y-241786723D02*
X84033332Y-241739104D01*
X84033332Y-241739104D02*
X84128570Y-241691485D01*
X84128570Y-241691485D02*
X84319046Y-241691485D01*
X84319046Y-241691485D02*
X84414284Y-241739104D01*
X133811905Y-75071485D02*
X133811905Y-75881008D01*
X133811905Y-75881008D02*
X133859524Y-75976246D01*
X133859524Y-75976246D02*
X133907143Y-76023866D01*
X133907143Y-76023866D02*
X134002381Y-76071485D01*
X134002381Y-76071485D02*
X134192857Y-76071485D01*
X134192857Y-76071485D02*
X134288095Y-76023866D01*
X134288095Y-76023866D02*
X134335714Y-75976246D01*
X134335714Y-75976246D02*
X134383333Y-75881008D01*
X134383333Y-75881008D02*
X134383333Y-75071485D01*
X134811905Y-75166723D02*
X134859524Y-75119104D01*
X134859524Y-75119104D02*
X134954762Y-75071485D01*
X134954762Y-75071485D02*
X135192857Y-75071485D01*
X135192857Y-75071485D02*
X135288095Y-75119104D01*
X135288095Y-75119104D02*
X135335714Y-75166723D01*
X135335714Y-75166723D02*
X135383333Y-75261961D01*
X135383333Y-75261961D02*
X135383333Y-75357199D01*
X135383333Y-75357199D02*
X135335714Y-75500056D01*
X135335714Y-75500056D02*
X134764286Y-76071485D01*
X134764286Y-76071485D02*
X135383333Y-76071485D01*
X136335714Y-76071485D02*
X135764286Y-76071485D01*
X136050000Y-76071485D02*
X136050000Y-75071485D01*
X136050000Y-75071485D02*
X135954762Y-75214342D01*
X135954762Y-75214342D02*
X135859524Y-75309580D01*
X135859524Y-75309580D02*
X135764286Y-75357199D01*
X158807142Y-182799580D02*
X158759523Y-182847200D01*
X158759523Y-182847200D02*
X158616666Y-182894819D01*
X158616666Y-182894819D02*
X158521428Y-182894819D01*
X158521428Y-182894819D02*
X158378571Y-182847200D01*
X158378571Y-182847200D02*
X158283333Y-182751961D01*
X158283333Y-182751961D02*
X158235714Y-182656723D01*
X158235714Y-182656723D02*
X158188095Y-182466247D01*
X158188095Y-182466247D02*
X158188095Y-182323390D01*
X158188095Y-182323390D02*
X158235714Y-182132914D01*
X158235714Y-182132914D02*
X158283333Y-182037676D01*
X158283333Y-182037676D02*
X158378571Y-181942438D01*
X158378571Y-181942438D02*
X158521428Y-181894819D01*
X158521428Y-181894819D02*
X158616666Y-181894819D01*
X158616666Y-181894819D02*
X158759523Y-181942438D01*
X158759523Y-181942438D02*
X158807142Y-181990057D01*
X159140476Y-181894819D02*
X159759523Y-181894819D01*
X159759523Y-181894819D02*
X159426190Y-182275771D01*
X159426190Y-182275771D02*
X159569047Y-182275771D01*
X159569047Y-182275771D02*
X159664285Y-182323390D01*
X159664285Y-182323390D02*
X159711904Y-182371009D01*
X159711904Y-182371009D02*
X159759523Y-182466247D01*
X159759523Y-182466247D02*
X159759523Y-182704342D01*
X159759523Y-182704342D02*
X159711904Y-182799580D01*
X159711904Y-182799580D02*
X159664285Y-182847200D01*
X159664285Y-182847200D02*
X159569047Y-182894819D01*
X159569047Y-182894819D02*
X159283333Y-182894819D01*
X159283333Y-182894819D02*
X159188095Y-182847200D01*
X159188095Y-182847200D02*
X159140476Y-182799580D01*
X160140476Y-181990057D02*
X160188095Y-181942438D01*
X160188095Y-181942438D02*
X160283333Y-181894819D01*
X160283333Y-181894819D02*
X160521428Y-181894819D01*
X160521428Y-181894819D02*
X160616666Y-181942438D01*
X160616666Y-181942438D02*
X160664285Y-181990057D01*
X160664285Y-181990057D02*
X160711904Y-182085295D01*
X160711904Y-182085295D02*
X160711904Y-182180533D01*
X160711904Y-182180533D02*
X160664285Y-182323390D01*
X160664285Y-182323390D02*
X160092857Y-182894819D01*
X160092857Y-182894819D02*
X160711904Y-182894819D01*
X174057142Y-182799580D02*
X174009523Y-182847200D01*
X174009523Y-182847200D02*
X173866666Y-182894819D01*
X173866666Y-182894819D02*
X173771428Y-182894819D01*
X173771428Y-182894819D02*
X173628571Y-182847200D01*
X173628571Y-182847200D02*
X173533333Y-182751961D01*
X173533333Y-182751961D02*
X173485714Y-182656723D01*
X173485714Y-182656723D02*
X173438095Y-182466247D01*
X173438095Y-182466247D02*
X173438095Y-182323390D01*
X173438095Y-182323390D02*
X173485714Y-182132914D01*
X173485714Y-182132914D02*
X173533333Y-182037676D01*
X173533333Y-182037676D02*
X173628571Y-181942438D01*
X173628571Y-181942438D02*
X173771428Y-181894819D01*
X173771428Y-181894819D02*
X173866666Y-181894819D01*
X173866666Y-181894819D02*
X174009523Y-181942438D01*
X174009523Y-181942438D02*
X174057142Y-181990057D01*
X174390476Y-181894819D02*
X175009523Y-181894819D01*
X175009523Y-181894819D02*
X174676190Y-182275771D01*
X174676190Y-182275771D02*
X174819047Y-182275771D01*
X174819047Y-182275771D02*
X174914285Y-182323390D01*
X174914285Y-182323390D02*
X174961904Y-182371009D01*
X174961904Y-182371009D02*
X175009523Y-182466247D01*
X175009523Y-182466247D02*
X175009523Y-182704342D01*
X175009523Y-182704342D02*
X174961904Y-182799580D01*
X174961904Y-182799580D02*
X174914285Y-182847200D01*
X174914285Y-182847200D02*
X174819047Y-182894819D01*
X174819047Y-182894819D02*
X174533333Y-182894819D01*
X174533333Y-182894819D02*
X174438095Y-182847200D01*
X174438095Y-182847200D02*
X174390476Y-182799580D01*
X175914285Y-181894819D02*
X175438095Y-181894819D01*
X175438095Y-181894819D02*
X175390476Y-182371009D01*
X175390476Y-182371009D02*
X175438095Y-182323390D01*
X175438095Y-182323390D02*
X175533333Y-182275771D01*
X175533333Y-182275771D02*
X175771428Y-182275771D01*
X175771428Y-182275771D02*
X175866666Y-182323390D01*
X175866666Y-182323390D02*
X175914285Y-182371009D01*
X175914285Y-182371009D02*
X175961904Y-182466247D01*
X175961904Y-182466247D02*
X175961904Y-182704342D01*
X175961904Y-182704342D02*
X175914285Y-182799580D01*
X175914285Y-182799580D02*
X175866666Y-182847200D01*
X175866666Y-182847200D02*
X175771428Y-182894819D01*
X175771428Y-182894819D02*
X175533333Y-182894819D01*
X175533333Y-182894819D02*
X175438095Y-182847200D01*
X175438095Y-182847200D02*
X175390476Y-182799580D01*
X244016666Y-208932913D02*
X243969047Y-208980533D01*
X243969047Y-208980533D02*
X243826190Y-209028152D01*
X243826190Y-209028152D02*
X243730952Y-209028152D01*
X243730952Y-209028152D02*
X243588095Y-208980533D01*
X243588095Y-208980533D02*
X243492857Y-208885294D01*
X243492857Y-208885294D02*
X243445238Y-208790056D01*
X243445238Y-208790056D02*
X243397619Y-208599580D01*
X243397619Y-208599580D02*
X243397619Y-208456723D01*
X243397619Y-208456723D02*
X243445238Y-208266247D01*
X243445238Y-208266247D02*
X243492857Y-208171009D01*
X243492857Y-208171009D02*
X243588095Y-208075771D01*
X243588095Y-208075771D02*
X243730952Y-208028152D01*
X243730952Y-208028152D02*
X243826190Y-208028152D01*
X243826190Y-208028152D02*
X243969047Y-208075771D01*
X243969047Y-208075771D02*
X244016666Y-208123390D01*
X244921428Y-208028152D02*
X244445238Y-208028152D01*
X244445238Y-208028152D02*
X244397619Y-208504342D01*
X244397619Y-208504342D02*
X244445238Y-208456723D01*
X244445238Y-208456723D02*
X244540476Y-208409104D01*
X244540476Y-208409104D02*
X244778571Y-208409104D01*
X244778571Y-208409104D02*
X244873809Y-208456723D01*
X244873809Y-208456723D02*
X244921428Y-208504342D01*
X244921428Y-208504342D02*
X244969047Y-208599580D01*
X244969047Y-208599580D02*
X244969047Y-208837675D01*
X244969047Y-208837675D02*
X244921428Y-208932913D01*
X244921428Y-208932913D02*
X244873809Y-208980533D01*
X244873809Y-208980533D02*
X244778571Y-209028152D01*
X244778571Y-209028152D02*
X244540476Y-209028152D01*
X244540476Y-209028152D02*
X244445238Y-208980533D01*
X244445238Y-208980533D02*
X244397619Y-208932913D01*
X245159524Y-209123390D02*
X245921428Y-209123390D01*
X246016667Y-208361485D02*
X246397619Y-208361485D01*
X246159524Y-209028152D02*
X246159524Y-208171009D01*
X246159524Y-208171009D02*
X246207143Y-208075771D01*
X246207143Y-208075771D02*
X246302381Y-208028152D01*
X246302381Y-208028152D02*
X246397619Y-208028152D01*
X55130952Y-242012913D02*
X55083333Y-242060533D01*
X55083333Y-242060533D02*
X54940476Y-242108152D01*
X54940476Y-242108152D02*
X54845238Y-242108152D01*
X54845238Y-242108152D02*
X54702381Y-242060533D01*
X54702381Y-242060533D02*
X54607143Y-241965294D01*
X54607143Y-241965294D02*
X54559524Y-241870056D01*
X54559524Y-241870056D02*
X54511905Y-241679580D01*
X54511905Y-241679580D02*
X54511905Y-241536723D01*
X54511905Y-241536723D02*
X54559524Y-241346247D01*
X54559524Y-241346247D02*
X54607143Y-241251009D01*
X54607143Y-241251009D02*
X54702381Y-241155771D01*
X54702381Y-241155771D02*
X54845238Y-241108152D01*
X54845238Y-241108152D02*
X54940476Y-241108152D01*
X54940476Y-241108152D02*
X55083333Y-241155771D01*
X55083333Y-241155771D02*
X55130952Y-241203390D01*
X56083333Y-242108152D02*
X55511905Y-242108152D01*
X55797619Y-242108152D02*
X55797619Y-241108152D01*
X55797619Y-241108152D02*
X55702381Y-241251009D01*
X55702381Y-241251009D02*
X55607143Y-241346247D01*
X55607143Y-241346247D02*
X55511905Y-241393866D01*
X56511905Y-242108152D02*
X56511905Y-241108152D01*
X56511905Y-241489104D02*
X56607143Y-241441485D01*
X56607143Y-241441485D02*
X56797619Y-241441485D01*
X56797619Y-241441485D02*
X56892857Y-241489104D01*
X56892857Y-241489104D02*
X56940476Y-241536723D01*
X56940476Y-241536723D02*
X56988095Y-241631961D01*
X56988095Y-241631961D02*
X56988095Y-241917675D01*
X56988095Y-241917675D02*
X56940476Y-242012913D01*
X56940476Y-242012913D02*
X56892857Y-242060533D01*
X56892857Y-242060533D02*
X56797619Y-242108152D01*
X56797619Y-242108152D02*
X56607143Y-242108152D01*
X56607143Y-242108152D02*
X56511905Y-242060533D01*
X149657141Y-182799580D02*
X149609522Y-182847200D01*
X149609522Y-182847200D02*
X149466665Y-182894819D01*
X149466665Y-182894819D02*
X149371427Y-182894819D01*
X149371427Y-182894819D02*
X149228570Y-182847200D01*
X149228570Y-182847200D02*
X149133332Y-182751961D01*
X149133332Y-182751961D02*
X149085713Y-182656723D01*
X149085713Y-182656723D02*
X149038094Y-182466247D01*
X149038094Y-182466247D02*
X149038094Y-182323390D01*
X149038094Y-182323390D02*
X149085713Y-182132914D01*
X149085713Y-182132914D02*
X149133332Y-182037676D01*
X149133332Y-182037676D02*
X149228570Y-181942438D01*
X149228570Y-181942438D02*
X149371427Y-181894819D01*
X149371427Y-181894819D02*
X149466665Y-181894819D01*
X149466665Y-181894819D02*
X149609522Y-181942438D01*
X149609522Y-181942438D02*
X149657141Y-181990057D01*
X149990475Y-181894819D02*
X150609522Y-181894819D01*
X150609522Y-181894819D02*
X150276189Y-182275771D01*
X150276189Y-182275771D02*
X150419046Y-182275771D01*
X150419046Y-182275771D02*
X150514284Y-182323390D01*
X150514284Y-182323390D02*
X150561903Y-182371009D01*
X150561903Y-182371009D02*
X150609522Y-182466247D01*
X150609522Y-182466247D02*
X150609522Y-182704342D01*
X150609522Y-182704342D02*
X150561903Y-182799580D01*
X150561903Y-182799580D02*
X150514284Y-182847200D01*
X150514284Y-182847200D02*
X150419046Y-182894819D01*
X150419046Y-182894819D02*
X150133332Y-182894819D01*
X150133332Y-182894819D02*
X150038094Y-182847200D01*
X150038094Y-182847200D02*
X149990475Y-182799580D01*
X151228570Y-181894819D02*
X151323808Y-181894819D01*
X151323808Y-181894819D02*
X151419046Y-181942438D01*
X151419046Y-181942438D02*
X151466665Y-181990057D01*
X151466665Y-181990057D02*
X151514284Y-182085295D01*
X151514284Y-182085295D02*
X151561903Y-182275771D01*
X151561903Y-182275771D02*
X151561903Y-182513866D01*
X151561903Y-182513866D02*
X151514284Y-182704342D01*
X151514284Y-182704342D02*
X151466665Y-182799580D01*
X151466665Y-182799580D02*
X151419046Y-182847200D01*
X151419046Y-182847200D02*
X151323808Y-182894819D01*
X151323808Y-182894819D02*
X151228570Y-182894819D01*
X151228570Y-182894819D02*
X151133332Y-182847200D01*
X151133332Y-182847200D02*
X151085713Y-182799580D01*
X151085713Y-182799580D02*
X151038094Y-182704342D01*
X151038094Y-182704342D02*
X150990475Y-182513866D01*
X150990475Y-182513866D02*
X150990475Y-182275771D01*
X150990475Y-182275771D02*
X151038094Y-182085295D01*
X151038094Y-182085295D02*
X151085713Y-181990057D01*
X151085713Y-181990057D02*
X151133332Y-181942438D01*
X151133332Y-181942438D02*
X151228570Y-181894819D01*
X205224999Y-137999580D02*
X205177380Y-138047200D01*
X205177380Y-138047200D02*
X205034523Y-138094819D01*
X205034523Y-138094819D02*
X204939285Y-138094819D01*
X204939285Y-138094819D02*
X204796428Y-138047200D01*
X204796428Y-138047200D02*
X204701190Y-137951961D01*
X204701190Y-137951961D02*
X204653571Y-137856723D01*
X204653571Y-137856723D02*
X204605952Y-137666247D01*
X204605952Y-137666247D02*
X204605952Y-137523390D01*
X204605952Y-137523390D02*
X204653571Y-137332914D01*
X204653571Y-137332914D02*
X204701190Y-137237676D01*
X204701190Y-137237676D02*
X204796428Y-137142438D01*
X204796428Y-137142438D02*
X204939285Y-137094819D01*
X204939285Y-137094819D02*
X205034523Y-137094819D01*
X205034523Y-137094819D02*
X205177380Y-137142438D01*
X205177380Y-137142438D02*
X205224999Y-137190057D01*
X206129761Y-137094819D02*
X205653571Y-137094819D01*
X205653571Y-137094819D02*
X205605952Y-137571009D01*
X205605952Y-137571009D02*
X205653571Y-137523390D01*
X205653571Y-137523390D02*
X205748809Y-137475771D01*
X205748809Y-137475771D02*
X205986904Y-137475771D01*
X205986904Y-137475771D02*
X206082142Y-137523390D01*
X206082142Y-137523390D02*
X206129761Y-137571009D01*
X206129761Y-137571009D02*
X206177380Y-137666247D01*
X206177380Y-137666247D02*
X206177380Y-137904342D01*
X206177380Y-137904342D02*
X206129761Y-137999580D01*
X206129761Y-137999580D02*
X206082142Y-138047200D01*
X206082142Y-138047200D02*
X205986904Y-138094819D01*
X205986904Y-138094819D02*
X205748809Y-138094819D01*
X205748809Y-138094819D02*
X205653571Y-138047200D01*
X205653571Y-138047200D02*
X205605952Y-137999580D01*
X206796428Y-137094819D02*
X206891666Y-137094819D01*
X206891666Y-137094819D02*
X206986904Y-137142438D01*
X206986904Y-137142438D02*
X207034523Y-137190057D01*
X207034523Y-137190057D02*
X207082142Y-137285295D01*
X207082142Y-137285295D02*
X207129761Y-137475771D01*
X207129761Y-137475771D02*
X207129761Y-137713866D01*
X207129761Y-137713866D02*
X207082142Y-137904342D01*
X207082142Y-137904342D02*
X207034523Y-137999580D01*
X207034523Y-137999580D02*
X206986904Y-138047200D01*
X206986904Y-138047200D02*
X206891666Y-138094819D01*
X206891666Y-138094819D02*
X206796428Y-138094819D01*
X206796428Y-138094819D02*
X206701190Y-138047200D01*
X206701190Y-138047200D02*
X206653571Y-137999580D01*
X206653571Y-137999580D02*
X206605952Y-137904342D01*
X206605952Y-137904342D02*
X206558333Y-137713866D01*
X206558333Y-137713866D02*
X206558333Y-137475771D01*
X206558333Y-137475771D02*
X206605952Y-137285295D01*
X206605952Y-137285295D02*
X206653571Y-137190057D01*
X206653571Y-137190057D02*
X206701190Y-137142438D01*
X206701190Y-137142438D02*
X206796428Y-137094819D01*
X207320238Y-138190057D02*
X208082142Y-138190057D01*
X208844047Y-138094819D02*
X208272619Y-138094819D01*
X208558333Y-138094819D02*
X208558333Y-137094819D01*
X208558333Y-137094819D02*
X208463095Y-137237676D01*
X208463095Y-137237676D02*
X208367857Y-137332914D01*
X208367857Y-137332914D02*
X208272619Y-137380533D01*
X78005952Y-242262913D02*
X77958333Y-242310533D01*
X77958333Y-242310533D02*
X77815476Y-242358152D01*
X77815476Y-242358152D02*
X77720238Y-242358152D01*
X77720238Y-242358152D02*
X77577381Y-242310533D01*
X77577381Y-242310533D02*
X77482143Y-242215294D01*
X77482143Y-242215294D02*
X77434524Y-242120056D01*
X77434524Y-242120056D02*
X77386905Y-241929580D01*
X77386905Y-241929580D02*
X77386905Y-241786723D01*
X77386905Y-241786723D02*
X77434524Y-241596247D01*
X77434524Y-241596247D02*
X77482143Y-241501009D01*
X77482143Y-241501009D02*
X77577381Y-241405771D01*
X77577381Y-241405771D02*
X77720238Y-241358152D01*
X77720238Y-241358152D02*
X77815476Y-241358152D01*
X77815476Y-241358152D02*
X77958333Y-241405771D01*
X77958333Y-241405771D02*
X78005952Y-241453390D01*
X78386905Y-241453390D02*
X78434524Y-241405771D01*
X78434524Y-241405771D02*
X78529762Y-241358152D01*
X78529762Y-241358152D02*
X78767857Y-241358152D01*
X78767857Y-241358152D02*
X78863095Y-241405771D01*
X78863095Y-241405771D02*
X78910714Y-241453390D01*
X78910714Y-241453390D02*
X78958333Y-241548628D01*
X78958333Y-241548628D02*
X78958333Y-241643866D01*
X78958333Y-241643866D02*
X78910714Y-241786723D01*
X78910714Y-241786723D02*
X78339286Y-242358152D01*
X78339286Y-242358152D02*
X78958333Y-242358152D01*
X79386905Y-242358152D02*
X79386905Y-241358152D01*
X79386905Y-241739104D02*
X79482143Y-241691485D01*
X79482143Y-241691485D02*
X79672619Y-241691485D01*
X79672619Y-241691485D02*
X79767857Y-241739104D01*
X79767857Y-241739104D02*
X79815476Y-241786723D01*
X79815476Y-241786723D02*
X79863095Y-241881961D01*
X79863095Y-241881961D02*
X79863095Y-242167675D01*
X79863095Y-242167675D02*
X79815476Y-242262913D01*
X79815476Y-242262913D02*
X79767857Y-242310533D01*
X79767857Y-242310533D02*
X79672619Y-242358152D01*
X79672619Y-242358152D02*
X79482143Y-242358152D01*
X79482143Y-242358152D02*
X79386905Y-242310533D01*
X234699999Y-208932913D02*
X234652380Y-208980533D01*
X234652380Y-208980533D02*
X234509523Y-209028152D01*
X234509523Y-209028152D02*
X234414285Y-209028152D01*
X234414285Y-209028152D02*
X234271428Y-208980533D01*
X234271428Y-208980533D02*
X234176190Y-208885294D01*
X234176190Y-208885294D02*
X234128571Y-208790056D01*
X234128571Y-208790056D02*
X234080952Y-208599580D01*
X234080952Y-208599580D02*
X234080952Y-208456723D01*
X234080952Y-208456723D02*
X234128571Y-208266247D01*
X234128571Y-208266247D02*
X234176190Y-208171009D01*
X234176190Y-208171009D02*
X234271428Y-208075771D01*
X234271428Y-208075771D02*
X234414285Y-208028152D01*
X234414285Y-208028152D02*
X234509523Y-208028152D01*
X234509523Y-208028152D02*
X234652380Y-208075771D01*
X234652380Y-208075771D02*
X234699999Y-208123390D01*
X235604761Y-208028152D02*
X235128571Y-208028152D01*
X235128571Y-208028152D02*
X235080952Y-208504342D01*
X235080952Y-208504342D02*
X235128571Y-208456723D01*
X235128571Y-208456723D02*
X235223809Y-208409104D01*
X235223809Y-208409104D02*
X235461904Y-208409104D01*
X235461904Y-208409104D02*
X235557142Y-208456723D01*
X235557142Y-208456723D02*
X235604761Y-208504342D01*
X235604761Y-208504342D02*
X235652380Y-208599580D01*
X235652380Y-208599580D02*
X235652380Y-208837675D01*
X235652380Y-208837675D02*
X235604761Y-208932913D01*
X235604761Y-208932913D02*
X235557142Y-208980533D01*
X235557142Y-208980533D02*
X235461904Y-209028152D01*
X235461904Y-209028152D02*
X235223809Y-209028152D01*
X235223809Y-209028152D02*
X235128571Y-208980533D01*
X235128571Y-208980533D02*
X235080952Y-208932913D01*
X235842857Y-209123390D02*
X236604761Y-209123390D01*
X237271428Y-209028152D02*
X237271428Y-208028152D01*
X237271428Y-208980533D02*
X237176190Y-209028152D01*
X237176190Y-209028152D02*
X236985714Y-209028152D01*
X236985714Y-209028152D02*
X236890476Y-208980533D01*
X236890476Y-208980533D02*
X236842857Y-208932913D01*
X236842857Y-208932913D02*
X236795238Y-208837675D01*
X236795238Y-208837675D02*
X236795238Y-208551961D01*
X236795238Y-208551961D02*
X236842857Y-208456723D01*
X236842857Y-208456723D02*
X236890476Y-208409104D01*
X236890476Y-208409104D02*
X236985714Y-208361485D01*
X236985714Y-208361485D02*
X237176190Y-208361485D01*
X237176190Y-208361485D02*
X237271428Y-208409104D01*
X92613095Y-276806819D02*
X93184523Y-276806819D01*
X92898809Y-277806819D02*
X92898809Y-276806819D01*
X93517857Y-277806819D02*
X93517857Y-276806819D01*
X93517857Y-276806819D02*
X93898809Y-276806819D01*
X93898809Y-276806819D02*
X93994047Y-276854438D01*
X93994047Y-276854438D02*
X94041666Y-276902057D01*
X94041666Y-276902057D02*
X94089285Y-276997295D01*
X94089285Y-276997295D02*
X94089285Y-277140152D01*
X94089285Y-277140152D02*
X94041666Y-277235390D01*
X94041666Y-277235390D02*
X93994047Y-277283009D01*
X93994047Y-277283009D02*
X93898809Y-277330628D01*
X93898809Y-277330628D02*
X93517857Y-277330628D01*
X94994047Y-276806819D02*
X94517857Y-276806819D01*
X94517857Y-276806819D02*
X94470238Y-277283009D01*
X94470238Y-277283009D02*
X94517857Y-277235390D01*
X94517857Y-277235390D02*
X94613095Y-277187771D01*
X94613095Y-277187771D02*
X94851190Y-277187771D01*
X94851190Y-277187771D02*
X94946428Y-277235390D01*
X94946428Y-277235390D02*
X94994047Y-277283009D01*
X94994047Y-277283009D02*
X95041666Y-277378247D01*
X95041666Y-277378247D02*
X95041666Y-277616342D01*
X95041666Y-277616342D02*
X94994047Y-277711580D01*
X94994047Y-277711580D02*
X94946428Y-277759200D01*
X94946428Y-277759200D02*
X94851190Y-277806819D01*
X94851190Y-277806819D02*
X94613095Y-277806819D01*
X94613095Y-277806819D02*
X94517857Y-277759200D01*
X94517857Y-277759200D02*
X94470238Y-277711580D01*
X189091905Y-181154819D02*
X189091905Y-181964342D01*
X189091905Y-181964342D02*
X189139524Y-182059580D01*
X189139524Y-182059580D02*
X189187143Y-182107200D01*
X189187143Y-182107200D02*
X189282381Y-182154819D01*
X189282381Y-182154819D02*
X189472857Y-182154819D01*
X189472857Y-182154819D02*
X189568095Y-182107200D01*
X189568095Y-182107200D02*
X189615714Y-182059580D01*
X189615714Y-182059580D02*
X189663333Y-181964342D01*
X189663333Y-181964342D02*
X189663333Y-181154819D01*
X190091905Y-181250057D02*
X190139524Y-181202438D01*
X190139524Y-181202438D02*
X190234762Y-181154819D01*
X190234762Y-181154819D02*
X190472857Y-181154819D01*
X190472857Y-181154819D02*
X190568095Y-181202438D01*
X190568095Y-181202438D02*
X190615714Y-181250057D01*
X190615714Y-181250057D02*
X190663333Y-181345295D01*
X190663333Y-181345295D02*
X190663333Y-181440533D01*
X190663333Y-181440533D02*
X190615714Y-181583390D01*
X190615714Y-181583390D02*
X190044286Y-182154819D01*
X190044286Y-182154819D02*
X190663333Y-182154819D01*
X190996667Y-181154819D02*
X191615714Y-181154819D01*
X191615714Y-181154819D02*
X191282381Y-181535771D01*
X191282381Y-181535771D02*
X191425238Y-181535771D01*
X191425238Y-181535771D02*
X191520476Y-181583390D01*
X191520476Y-181583390D02*
X191568095Y-181631009D01*
X191568095Y-181631009D02*
X191615714Y-181726247D01*
X191615714Y-181726247D02*
X191615714Y-181964342D01*
X191615714Y-181964342D02*
X191568095Y-182059580D01*
X191568095Y-182059580D02*
X191520476Y-182107200D01*
X191520476Y-182107200D02*
X191425238Y-182154819D01*
X191425238Y-182154819D02*
X191139524Y-182154819D01*
X191139524Y-182154819D02*
X191044286Y-182107200D01*
X191044286Y-182107200D02*
X190996667Y-182059580D01*
X214374999Y-137999580D02*
X214327380Y-138047200D01*
X214327380Y-138047200D02*
X214184523Y-138094819D01*
X214184523Y-138094819D02*
X214089285Y-138094819D01*
X214089285Y-138094819D02*
X213946428Y-138047200D01*
X213946428Y-138047200D02*
X213851190Y-137951961D01*
X213851190Y-137951961D02*
X213803571Y-137856723D01*
X213803571Y-137856723D02*
X213755952Y-137666247D01*
X213755952Y-137666247D02*
X213755952Y-137523390D01*
X213755952Y-137523390D02*
X213803571Y-137332914D01*
X213803571Y-137332914D02*
X213851190Y-137237676D01*
X213851190Y-137237676D02*
X213946428Y-137142438D01*
X213946428Y-137142438D02*
X214089285Y-137094819D01*
X214089285Y-137094819D02*
X214184523Y-137094819D01*
X214184523Y-137094819D02*
X214327380Y-137142438D01*
X214327380Y-137142438D02*
X214374999Y-137190057D01*
X215279761Y-137094819D02*
X214803571Y-137094819D01*
X214803571Y-137094819D02*
X214755952Y-137571009D01*
X214755952Y-137571009D02*
X214803571Y-137523390D01*
X214803571Y-137523390D02*
X214898809Y-137475771D01*
X214898809Y-137475771D02*
X215136904Y-137475771D01*
X215136904Y-137475771D02*
X215232142Y-137523390D01*
X215232142Y-137523390D02*
X215279761Y-137571009D01*
X215279761Y-137571009D02*
X215327380Y-137666247D01*
X215327380Y-137666247D02*
X215327380Y-137904342D01*
X215327380Y-137904342D02*
X215279761Y-137999580D01*
X215279761Y-137999580D02*
X215232142Y-138047200D01*
X215232142Y-138047200D02*
X215136904Y-138094819D01*
X215136904Y-138094819D02*
X214898809Y-138094819D01*
X214898809Y-138094819D02*
X214803571Y-138047200D01*
X214803571Y-138047200D02*
X214755952Y-137999580D01*
X215946428Y-137094819D02*
X216041666Y-137094819D01*
X216041666Y-137094819D02*
X216136904Y-137142438D01*
X216136904Y-137142438D02*
X216184523Y-137190057D01*
X216184523Y-137190057D02*
X216232142Y-137285295D01*
X216232142Y-137285295D02*
X216279761Y-137475771D01*
X216279761Y-137475771D02*
X216279761Y-137713866D01*
X216279761Y-137713866D02*
X216232142Y-137904342D01*
X216232142Y-137904342D02*
X216184523Y-137999580D01*
X216184523Y-137999580D02*
X216136904Y-138047200D01*
X216136904Y-138047200D02*
X216041666Y-138094819D01*
X216041666Y-138094819D02*
X215946428Y-138094819D01*
X215946428Y-138094819D02*
X215851190Y-138047200D01*
X215851190Y-138047200D02*
X215803571Y-137999580D01*
X215803571Y-137999580D02*
X215755952Y-137904342D01*
X215755952Y-137904342D02*
X215708333Y-137713866D01*
X215708333Y-137713866D02*
X215708333Y-137475771D01*
X215708333Y-137475771D02*
X215755952Y-137285295D01*
X215755952Y-137285295D02*
X215803571Y-137190057D01*
X215803571Y-137190057D02*
X215851190Y-137142438D01*
X215851190Y-137142438D02*
X215946428Y-137094819D01*
X216470238Y-138190057D02*
X217232142Y-138190057D01*
X217375000Y-137094819D02*
X217994047Y-137094819D01*
X217994047Y-137094819D02*
X217660714Y-137475771D01*
X217660714Y-137475771D02*
X217803571Y-137475771D01*
X217803571Y-137475771D02*
X217898809Y-137523390D01*
X217898809Y-137523390D02*
X217946428Y-137571009D01*
X217946428Y-137571009D02*
X217994047Y-137666247D01*
X217994047Y-137666247D02*
X217994047Y-137904342D01*
X217994047Y-137904342D02*
X217946428Y-137999580D01*
X217946428Y-137999580D02*
X217898809Y-138047200D01*
X217898809Y-138047200D02*
X217803571Y-138094819D01*
X217803571Y-138094819D02*
X217517857Y-138094819D01*
X217517857Y-138094819D02*
X217422619Y-138047200D01*
X217422619Y-138047200D02*
X217375000Y-137999580D01*
X73430952Y-242262913D02*
X73383333Y-242310533D01*
X73383333Y-242310533D02*
X73240476Y-242358152D01*
X73240476Y-242358152D02*
X73145238Y-242358152D01*
X73145238Y-242358152D02*
X73002381Y-242310533D01*
X73002381Y-242310533D02*
X72907143Y-242215294D01*
X72907143Y-242215294D02*
X72859524Y-242120056D01*
X72859524Y-242120056D02*
X72811905Y-241929580D01*
X72811905Y-241929580D02*
X72811905Y-241786723D01*
X72811905Y-241786723D02*
X72859524Y-241596247D01*
X72859524Y-241596247D02*
X72907143Y-241501009D01*
X72907143Y-241501009D02*
X73002381Y-241405771D01*
X73002381Y-241405771D02*
X73145238Y-241358152D01*
X73145238Y-241358152D02*
X73240476Y-241358152D01*
X73240476Y-241358152D02*
X73383333Y-241405771D01*
X73383333Y-241405771D02*
X73430952Y-241453390D01*
X73811905Y-241453390D02*
X73859524Y-241405771D01*
X73859524Y-241405771D02*
X73954762Y-241358152D01*
X73954762Y-241358152D02*
X74192857Y-241358152D01*
X74192857Y-241358152D02*
X74288095Y-241405771D01*
X74288095Y-241405771D02*
X74335714Y-241453390D01*
X74335714Y-241453390D02*
X74383333Y-241548628D01*
X74383333Y-241548628D02*
X74383333Y-241643866D01*
X74383333Y-241643866D02*
X74335714Y-241786723D01*
X74335714Y-241786723D02*
X73764286Y-242358152D01*
X73764286Y-242358152D02*
X74383333Y-242358152D01*
X75240476Y-242358152D02*
X75240476Y-241834342D01*
X75240476Y-241834342D02*
X75192857Y-241739104D01*
X75192857Y-241739104D02*
X75097619Y-241691485D01*
X75097619Y-241691485D02*
X74907143Y-241691485D01*
X74907143Y-241691485D02*
X74811905Y-241739104D01*
X75240476Y-242310533D02*
X75145238Y-242358152D01*
X75145238Y-242358152D02*
X74907143Y-242358152D01*
X74907143Y-242358152D02*
X74811905Y-242310533D01*
X74811905Y-242310533D02*
X74764286Y-242215294D01*
X74764286Y-242215294D02*
X74764286Y-242120056D01*
X74764286Y-242120056D02*
X74811905Y-242024818D01*
X74811905Y-242024818D02*
X74907143Y-241977199D01*
X74907143Y-241977199D02*
X75145238Y-241977199D01*
X75145238Y-241977199D02*
X75240476Y-241929580D01*
X31613095Y-276806819D02*
X32184523Y-276806819D01*
X31898809Y-277806819D02*
X31898809Y-276806819D01*
X32517857Y-277806819D02*
X32517857Y-276806819D01*
X32517857Y-276806819D02*
X32898809Y-276806819D01*
X32898809Y-276806819D02*
X32994047Y-276854438D01*
X32994047Y-276854438D02*
X33041666Y-276902057D01*
X33041666Y-276902057D02*
X33089285Y-276997295D01*
X33089285Y-276997295D02*
X33089285Y-277140152D01*
X33089285Y-277140152D02*
X33041666Y-277235390D01*
X33041666Y-277235390D02*
X32994047Y-277283009D01*
X32994047Y-277283009D02*
X32898809Y-277330628D01*
X32898809Y-277330628D02*
X32517857Y-277330628D01*
X34041666Y-277806819D02*
X33470238Y-277806819D01*
X33755952Y-277806819D02*
X33755952Y-276806819D01*
X33755952Y-276806819D02*
X33660714Y-276949676D01*
X33660714Y-276949676D02*
X33565476Y-277044914D01*
X33565476Y-277044914D02*
X33470238Y-277092533D01*
X154232142Y-78266246D02*
X154184523Y-78313866D01*
X154184523Y-78313866D02*
X154041666Y-78361485D01*
X154041666Y-78361485D02*
X153946428Y-78361485D01*
X153946428Y-78361485D02*
X153803571Y-78313866D01*
X153803571Y-78313866D02*
X153708333Y-78218627D01*
X153708333Y-78218627D02*
X153660714Y-78123389D01*
X153660714Y-78123389D02*
X153613095Y-77932913D01*
X153613095Y-77932913D02*
X153613095Y-77790056D01*
X153613095Y-77790056D02*
X153660714Y-77599580D01*
X153660714Y-77599580D02*
X153708333Y-77504342D01*
X153708333Y-77504342D02*
X153803571Y-77409104D01*
X153803571Y-77409104D02*
X153946428Y-77361485D01*
X153946428Y-77361485D02*
X154041666Y-77361485D01*
X154041666Y-77361485D02*
X154184523Y-77409104D01*
X154184523Y-77409104D02*
X154232142Y-77456723D01*
X154565476Y-77361485D02*
X155184523Y-77361485D01*
X155184523Y-77361485D02*
X154851190Y-77742437D01*
X154851190Y-77742437D02*
X154994047Y-77742437D01*
X154994047Y-77742437D02*
X155089285Y-77790056D01*
X155089285Y-77790056D02*
X155136904Y-77837675D01*
X155136904Y-77837675D02*
X155184523Y-77932913D01*
X155184523Y-77932913D02*
X155184523Y-78171008D01*
X155184523Y-78171008D02*
X155136904Y-78266246D01*
X155136904Y-78266246D02*
X155089285Y-78313866D01*
X155089285Y-78313866D02*
X154994047Y-78361485D01*
X154994047Y-78361485D02*
X154708333Y-78361485D01*
X154708333Y-78361485D02*
X154613095Y-78313866D01*
X154613095Y-78313866D02*
X154565476Y-78266246D01*
X155660714Y-78361485D02*
X155851190Y-78361485D01*
X155851190Y-78361485D02*
X155946428Y-78313866D01*
X155946428Y-78313866D02*
X155994047Y-78266246D01*
X155994047Y-78266246D02*
X156089285Y-78123389D01*
X156089285Y-78123389D02*
X156136904Y-77932913D01*
X156136904Y-77932913D02*
X156136904Y-77551961D01*
X156136904Y-77551961D02*
X156089285Y-77456723D01*
X156089285Y-77456723D02*
X156041666Y-77409104D01*
X156041666Y-77409104D02*
X155946428Y-77361485D01*
X155946428Y-77361485D02*
X155755952Y-77361485D01*
X155755952Y-77361485D02*
X155660714Y-77409104D01*
X155660714Y-77409104D02*
X155613095Y-77456723D01*
X155613095Y-77456723D02*
X155565476Y-77551961D01*
X155565476Y-77551961D02*
X155565476Y-77790056D01*
X155565476Y-77790056D02*
X155613095Y-77885294D01*
X155613095Y-77885294D02*
X155660714Y-77932913D01*
X155660714Y-77932913D02*
X155755952Y-77980532D01*
X155755952Y-77980532D02*
X155946428Y-77980532D01*
X155946428Y-77980532D02*
X156041666Y-77932913D01*
X156041666Y-77932913D02*
X156089285Y-77885294D01*
X156089285Y-77885294D02*
X156136904Y-77790056D01*
X108363095Y-115954819D02*
X108363095Y-116764342D01*
X108363095Y-116764342D02*
X108410714Y-116859580D01*
X108410714Y-116859580D02*
X108458333Y-116907200D01*
X108458333Y-116907200D02*
X108553571Y-116954819D01*
X108553571Y-116954819D02*
X108744047Y-116954819D01*
X108744047Y-116954819D02*
X108839285Y-116907200D01*
X108839285Y-116907200D02*
X108886904Y-116859580D01*
X108886904Y-116859580D02*
X108934523Y-116764342D01*
X108934523Y-116764342D02*
X108934523Y-115954819D01*
X109934523Y-116954819D02*
X109363095Y-116954819D01*
X109648809Y-116954819D02*
X109648809Y-115954819D01*
X109648809Y-115954819D02*
X109553571Y-116097676D01*
X109553571Y-116097676D02*
X109458333Y-116192914D01*
X109458333Y-116192914D02*
X109363095Y-116240533D01*
X215113095Y-115954819D02*
X215113095Y-116764342D01*
X215113095Y-116764342D02*
X215160714Y-116859580D01*
X215160714Y-116859580D02*
X215208333Y-116907200D01*
X215208333Y-116907200D02*
X215303571Y-116954819D01*
X215303571Y-116954819D02*
X215494047Y-116954819D01*
X215494047Y-116954819D02*
X215589285Y-116907200D01*
X215589285Y-116907200D02*
X215636904Y-116859580D01*
X215636904Y-116859580D02*
X215684523Y-116764342D01*
X215684523Y-116764342D02*
X215684523Y-115954819D01*
X216589285Y-116288152D02*
X216589285Y-116954819D01*
X216351190Y-115907200D02*
X216113095Y-116621485D01*
X216113095Y-116621485D02*
X216732142Y-116621485D01*
X243468451Y-182799580D02*
X243420832Y-182847200D01*
X243420832Y-182847200D02*
X243277975Y-182894819D01*
X243277975Y-182894819D02*
X243182737Y-182894819D01*
X243182737Y-182894819D02*
X243039880Y-182847200D01*
X243039880Y-182847200D02*
X242944642Y-182751961D01*
X242944642Y-182751961D02*
X242897023Y-182656723D01*
X242897023Y-182656723D02*
X242849404Y-182466247D01*
X242849404Y-182466247D02*
X242849404Y-182323390D01*
X242849404Y-182323390D02*
X242897023Y-182132914D01*
X242897023Y-182132914D02*
X242944642Y-182037676D01*
X242944642Y-182037676D02*
X243039880Y-181942438D01*
X243039880Y-181942438D02*
X243182737Y-181894819D01*
X243182737Y-181894819D02*
X243277975Y-181894819D01*
X243277975Y-181894819D02*
X243420832Y-181942438D01*
X243420832Y-181942438D02*
X243468451Y-181990057D01*
X244325594Y-182228152D02*
X244325594Y-182894819D01*
X244087499Y-181847200D02*
X243849404Y-182561485D01*
X243849404Y-182561485D02*
X244468451Y-182561485D01*
X244849404Y-182894819D02*
X244849404Y-181894819D01*
X244849404Y-182275771D02*
X244944642Y-182228152D01*
X244944642Y-182228152D02*
X245135118Y-182228152D01*
X245135118Y-182228152D02*
X245230356Y-182275771D01*
X245230356Y-182275771D02*
X245277975Y-182323390D01*
X245277975Y-182323390D02*
X245325594Y-182418628D01*
X245325594Y-182418628D02*
X245325594Y-182704342D01*
X245325594Y-182704342D02*
X245277975Y-182799580D01*
X245277975Y-182799580D02*
X245230356Y-182847200D01*
X245230356Y-182847200D02*
X245135118Y-182894819D01*
X245135118Y-182894819D02*
X244944642Y-182894819D01*
X244944642Y-182894819D02*
X244849404Y-182847200D01*
X294459819Y-159031666D02*
X295174104Y-159031666D01*
X295174104Y-159031666D02*
X295316961Y-159079285D01*
X295316961Y-159079285D02*
X295412200Y-159174523D01*
X295412200Y-159174523D02*
X295459819Y-159317380D01*
X295459819Y-159317380D02*
X295459819Y-159412618D01*
X294459819Y-158126904D02*
X294459819Y-158317380D01*
X294459819Y-158317380D02*
X294507438Y-158412618D01*
X294507438Y-158412618D02*
X294555057Y-158460237D01*
X294555057Y-158460237D02*
X294697914Y-158555475D01*
X294697914Y-158555475D02*
X294888390Y-158603094D01*
X294888390Y-158603094D02*
X295269342Y-158603094D01*
X295269342Y-158603094D02*
X295364580Y-158555475D01*
X295364580Y-158555475D02*
X295412200Y-158507856D01*
X295412200Y-158507856D02*
X295459819Y-158412618D01*
X295459819Y-158412618D02*
X295459819Y-158222142D01*
X295459819Y-158222142D02*
X295412200Y-158126904D01*
X295412200Y-158126904D02*
X295364580Y-158079285D01*
X295364580Y-158079285D02*
X295269342Y-158031666D01*
X295269342Y-158031666D02*
X295031247Y-158031666D01*
X295031247Y-158031666D02*
X294936009Y-158079285D01*
X294936009Y-158079285D02*
X294888390Y-158126904D01*
X294888390Y-158126904D02*
X294840771Y-158222142D01*
X294840771Y-158222142D02*
X294840771Y-158412618D01*
X294840771Y-158412618D02*
X294888390Y-158507856D01*
X294888390Y-158507856D02*
X294936009Y-158555475D01*
X294936009Y-158555475D02*
X295031247Y-158603094D01*
X123113095Y-276806819D02*
X123684523Y-276806819D01*
X123398809Y-277806819D02*
X123398809Y-276806819D01*
X124017857Y-277806819D02*
X124017857Y-276806819D01*
X124017857Y-276806819D02*
X124398809Y-276806819D01*
X124398809Y-276806819D02*
X124494047Y-276854438D01*
X124494047Y-276854438D02*
X124541666Y-276902057D01*
X124541666Y-276902057D02*
X124589285Y-276997295D01*
X124589285Y-276997295D02*
X124589285Y-277140152D01*
X124589285Y-277140152D02*
X124541666Y-277235390D01*
X124541666Y-277235390D02*
X124494047Y-277283009D01*
X124494047Y-277283009D02*
X124398809Y-277330628D01*
X124398809Y-277330628D02*
X124017857Y-277330628D01*
X124922619Y-276806819D02*
X125589285Y-276806819D01*
X125589285Y-276806819D02*
X125160714Y-277806819D01*
X62113095Y-276806819D02*
X62684523Y-276806819D01*
X62398809Y-277806819D02*
X62398809Y-276806819D01*
X63017857Y-277806819D02*
X63017857Y-276806819D01*
X63017857Y-276806819D02*
X63398809Y-276806819D01*
X63398809Y-276806819D02*
X63494047Y-276854438D01*
X63494047Y-276854438D02*
X63541666Y-276902057D01*
X63541666Y-276902057D02*
X63589285Y-276997295D01*
X63589285Y-276997295D02*
X63589285Y-277140152D01*
X63589285Y-277140152D02*
X63541666Y-277235390D01*
X63541666Y-277235390D02*
X63494047Y-277283009D01*
X63494047Y-277283009D02*
X63398809Y-277330628D01*
X63398809Y-277330628D02*
X63017857Y-277330628D01*
X63922619Y-276806819D02*
X64541666Y-276806819D01*
X64541666Y-276806819D02*
X64208333Y-277187771D01*
X64208333Y-277187771D02*
X64351190Y-277187771D01*
X64351190Y-277187771D02*
X64446428Y-277235390D01*
X64446428Y-277235390D02*
X64494047Y-277283009D01*
X64494047Y-277283009D02*
X64541666Y-277378247D01*
X64541666Y-277378247D02*
X64541666Y-277616342D01*
X64541666Y-277616342D02*
X64494047Y-277711580D01*
X64494047Y-277711580D02*
X64446428Y-277759200D01*
X64446428Y-277759200D02*
X64351190Y-277806819D01*
X64351190Y-277806819D02*
X64065476Y-277806819D01*
X64065476Y-277806819D02*
X63970238Y-277759200D01*
X63970238Y-277759200D02*
X63922619Y-277711580D01*
X39499999Y-214618152D02*
X39166666Y-214141961D01*
X38928571Y-214618152D02*
X38928571Y-213618152D01*
X38928571Y-213618152D02*
X39309523Y-213618152D01*
X39309523Y-213618152D02*
X39404761Y-213665771D01*
X39404761Y-213665771D02*
X39452380Y-213713390D01*
X39452380Y-213713390D02*
X39499999Y-213808628D01*
X39499999Y-213808628D02*
X39499999Y-213951485D01*
X39499999Y-213951485D02*
X39452380Y-214046723D01*
X39452380Y-214046723D02*
X39404761Y-214094342D01*
X39404761Y-214094342D02*
X39309523Y-214141961D01*
X39309523Y-214141961D02*
X38928571Y-214141961D01*
X40404761Y-213618152D02*
X39928571Y-213618152D01*
X39928571Y-213618152D02*
X39880952Y-214094342D01*
X39880952Y-214094342D02*
X39928571Y-214046723D01*
X39928571Y-214046723D02*
X40023809Y-213999104D01*
X40023809Y-213999104D02*
X40261904Y-213999104D01*
X40261904Y-213999104D02*
X40357142Y-214046723D01*
X40357142Y-214046723D02*
X40404761Y-214094342D01*
X40404761Y-214094342D02*
X40452380Y-214189580D01*
X40452380Y-214189580D02*
X40452380Y-214427675D01*
X40452380Y-214427675D02*
X40404761Y-214522913D01*
X40404761Y-214522913D02*
X40357142Y-214570533D01*
X40357142Y-214570533D02*
X40261904Y-214618152D01*
X40261904Y-214618152D02*
X40023809Y-214618152D01*
X40023809Y-214618152D02*
X39928571Y-214570533D01*
X39928571Y-214570533D02*
X39880952Y-214522913D01*
X40642857Y-214713390D02*
X41404761Y-214713390D01*
X41642857Y-214618152D02*
X41642857Y-213618152D01*
X41642857Y-213999104D02*
X41738095Y-213951485D01*
X41738095Y-213951485D02*
X41928571Y-213951485D01*
X41928571Y-213951485D02*
X42023809Y-213999104D01*
X42023809Y-213999104D02*
X42071428Y-214046723D01*
X42071428Y-214046723D02*
X42119047Y-214141961D01*
X42119047Y-214141961D02*
X42119047Y-214427675D01*
X42119047Y-214427675D02*
X42071428Y-214522913D01*
X42071428Y-214522913D02*
X42023809Y-214570533D01*
X42023809Y-214570533D02*
X41928571Y-214618152D01*
X41928571Y-214618152D02*
X41738095Y-214618152D01*
X41738095Y-214618152D02*
X41642857Y-214570533D01*
X294459819Y-121698333D02*
X295174104Y-121698333D01*
X295174104Y-121698333D02*
X295316961Y-121745952D01*
X295316961Y-121745952D02*
X295412200Y-121841190D01*
X295412200Y-121841190D02*
X295459819Y-121984047D01*
X295459819Y-121984047D02*
X295459819Y-122079285D01*
X294459819Y-120745952D02*
X294459819Y-121222142D01*
X294459819Y-121222142D02*
X294936009Y-121269761D01*
X294936009Y-121269761D02*
X294888390Y-121222142D01*
X294888390Y-121222142D02*
X294840771Y-121126904D01*
X294840771Y-121126904D02*
X294840771Y-120888809D01*
X294840771Y-120888809D02*
X294888390Y-120793571D01*
X294888390Y-120793571D02*
X294936009Y-120745952D01*
X294936009Y-120745952D02*
X295031247Y-120698333D01*
X295031247Y-120698333D02*
X295269342Y-120698333D01*
X295269342Y-120698333D02*
X295364580Y-120745952D01*
X295364580Y-120745952D02*
X295412200Y-120793571D01*
X295412200Y-120793571D02*
X295459819Y-120888809D01*
X295459819Y-120888809D02*
X295459819Y-121126904D01*
X295459819Y-121126904D02*
X295412200Y-121222142D01*
X295412200Y-121222142D02*
X295364580Y-121269761D01*
X229886905Y-192321485D02*
X229886905Y-193131008D01*
X229886905Y-193131008D02*
X229934524Y-193226246D01*
X229934524Y-193226246D02*
X229982143Y-193273866D01*
X229982143Y-193273866D02*
X230077381Y-193321485D01*
X230077381Y-193321485D02*
X230267857Y-193321485D01*
X230267857Y-193321485D02*
X230363095Y-193273866D01*
X230363095Y-193273866D02*
X230410714Y-193226246D01*
X230410714Y-193226246D02*
X230458333Y-193131008D01*
X230458333Y-193131008D02*
X230458333Y-192321485D01*
X230886905Y-192416723D02*
X230934524Y-192369104D01*
X230934524Y-192369104D02*
X231029762Y-192321485D01*
X231029762Y-192321485D02*
X231267857Y-192321485D01*
X231267857Y-192321485D02*
X231363095Y-192369104D01*
X231363095Y-192369104D02*
X231410714Y-192416723D01*
X231410714Y-192416723D02*
X231458333Y-192511961D01*
X231458333Y-192511961D02*
X231458333Y-192607199D01*
X231458333Y-192607199D02*
X231410714Y-192750056D01*
X231410714Y-192750056D02*
X230839286Y-193321485D01*
X230839286Y-193321485D02*
X231458333Y-193321485D01*
X231839286Y-192416723D02*
X231886905Y-192369104D01*
X231886905Y-192369104D02*
X231982143Y-192321485D01*
X231982143Y-192321485D02*
X232220238Y-192321485D01*
X232220238Y-192321485D02*
X232315476Y-192369104D01*
X232315476Y-192369104D02*
X232363095Y-192416723D01*
X232363095Y-192416723D02*
X232410714Y-192511961D01*
X232410714Y-192511961D02*
X232410714Y-192607199D01*
X232410714Y-192607199D02*
X232363095Y-192750056D01*
X232363095Y-192750056D02*
X231791667Y-193321485D01*
X231791667Y-193321485D02*
X232410714Y-193321485D01*
X127494819Y-22266666D02*
X128209104Y-22266666D01*
X128209104Y-22266666D02*
X128351961Y-22314285D01*
X128351961Y-22314285D02*
X128447200Y-22409523D01*
X128447200Y-22409523D02*
X128494819Y-22552380D01*
X128494819Y-22552380D02*
X128494819Y-22647618D01*
X127923390Y-21647618D02*
X127875771Y-21742856D01*
X127875771Y-21742856D02*
X127828152Y-21790475D01*
X127828152Y-21790475D02*
X127732914Y-21838094D01*
X127732914Y-21838094D02*
X127685295Y-21838094D01*
X127685295Y-21838094D02*
X127590057Y-21790475D01*
X127590057Y-21790475D02*
X127542438Y-21742856D01*
X127542438Y-21742856D02*
X127494819Y-21647618D01*
X127494819Y-21647618D02*
X127494819Y-21457142D01*
X127494819Y-21457142D02*
X127542438Y-21361904D01*
X127542438Y-21361904D02*
X127590057Y-21314285D01*
X127590057Y-21314285D02*
X127685295Y-21266666D01*
X127685295Y-21266666D02*
X127732914Y-21266666D01*
X127732914Y-21266666D02*
X127828152Y-21314285D01*
X127828152Y-21314285D02*
X127875771Y-21361904D01*
X127875771Y-21361904D02*
X127923390Y-21457142D01*
X127923390Y-21457142D02*
X127923390Y-21647618D01*
X127923390Y-21647618D02*
X127971009Y-21742856D01*
X127971009Y-21742856D02*
X128018628Y-21790475D01*
X128018628Y-21790475D02*
X128113866Y-21838094D01*
X128113866Y-21838094D02*
X128304342Y-21838094D01*
X128304342Y-21838094D02*
X128399580Y-21790475D01*
X128399580Y-21790475D02*
X128447200Y-21742856D01*
X128447200Y-21742856D02*
X128494819Y-21647618D01*
X128494819Y-21647618D02*
X128494819Y-21457142D01*
X128494819Y-21457142D02*
X128447200Y-21361904D01*
X128447200Y-21361904D02*
X128399580Y-21314285D01*
X128399580Y-21314285D02*
X128304342Y-21266666D01*
X128304342Y-21266666D02*
X128113866Y-21266666D01*
X128113866Y-21266666D02*
X128018628Y-21314285D01*
X128018628Y-21314285D02*
X127971009Y-21361904D01*
X127971009Y-21361904D02*
X127923390Y-21457142D01*
X218994819Y-22742856D02*
X219709104Y-22742856D01*
X219709104Y-22742856D02*
X219851961Y-22790475D01*
X219851961Y-22790475D02*
X219947200Y-22885713D01*
X219947200Y-22885713D02*
X219994819Y-23028570D01*
X219994819Y-23028570D02*
X219994819Y-23123808D01*
X219994819Y-21742856D02*
X219994819Y-22314284D01*
X219994819Y-22028570D02*
X218994819Y-22028570D01*
X218994819Y-22028570D02*
X219137676Y-22123808D01*
X219137676Y-22123808D02*
X219232914Y-22219046D01*
X219232914Y-22219046D02*
X219280533Y-22314284D01*
X218994819Y-21123808D02*
X218994819Y-21028570D01*
X218994819Y-21028570D02*
X219042438Y-20933332D01*
X219042438Y-20933332D02*
X219090057Y-20885713D01*
X219090057Y-20885713D02*
X219185295Y-20838094D01*
X219185295Y-20838094D02*
X219375771Y-20790475D01*
X219375771Y-20790475D02*
X219613866Y-20790475D01*
X219613866Y-20790475D02*
X219804342Y-20838094D01*
X219804342Y-20838094D02*
X219899580Y-20885713D01*
X219899580Y-20885713D02*
X219947200Y-20933332D01*
X219947200Y-20933332D02*
X219994819Y-21028570D01*
X219994819Y-21028570D02*
X219994819Y-21123808D01*
X219994819Y-21123808D02*
X219947200Y-21219046D01*
X219947200Y-21219046D02*
X219899580Y-21266665D01*
X219899580Y-21266665D02*
X219804342Y-21314284D01*
X219804342Y-21314284D02*
X219613866Y-21361903D01*
X219613866Y-21361903D02*
X219375771Y-21361903D01*
X219375771Y-21361903D02*
X219185295Y-21314284D01*
X219185295Y-21314284D02*
X219090057Y-21266665D01*
X219090057Y-21266665D02*
X219042438Y-21219046D01*
X219042438Y-21219046D02*
X218994819Y-21123808D01*
X96994819Y-22266666D02*
X97709104Y-22266666D01*
X97709104Y-22266666D02*
X97851961Y-22314285D01*
X97851961Y-22314285D02*
X97947200Y-22409523D01*
X97947200Y-22409523D02*
X97994819Y-22552380D01*
X97994819Y-22552380D02*
X97994819Y-22647618D01*
X96994819Y-21885713D02*
X96994819Y-21219047D01*
X96994819Y-21219047D02*
X97994819Y-21647618D01*
X307566667Y-13721485D02*
X307566667Y-12721485D01*
X307566667Y-12721485D02*
X307900000Y-13435770D01*
X307900000Y-13435770D02*
X308233333Y-12721485D01*
X308233333Y-12721485D02*
X308233333Y-13721485D01*
X308709524Y-13721485D02*
X308709524Y-12721485D01*
X308709524Y-13197675D02*
X309280952Y-13197675D01*
X309280952Y-13721485D02*
X309280952Y-12721485D01*
X309709524Y-12816723D02*
X309757143Y-12769104D01*
X309757143Y-12769104D02*
X309852381Y-12721485D01*
X309852381Y-12721485D02*
X310090476Y-12721485D01*
X310090476Y-12721485D02*
X310185714Y-12769104D01*
X310185714Y-12769104D02*
X310233333Y-12816723D01*
X310233333Y-12816723D02*
X310280952Y-12911961D01*
X310280952Y-12911961D02*
X310280952Y-13007199D01*
X310280952Y-13007199D02*
X310233333Y-13150056D01*
X310233333Y-13150056D02*
X309661905Y-13721485D01*
X309661905Y-13721485D02*
X310280952Y-13721485D01*
X116107142Y-242532913D02*
X116059523Y-242580533D01*
X116059523Y-242580533D02*
X115916666Y-242628152D01*
X115916666Y-242628152D02*
X115821428Y-242628152D01*
X115821428Y-242628152D02*
X115678571Y-242580533D01*
X115678571Y-242580533D02*
X115583333Y-242485294D01*
X115583333Y-242485294D02*
X115535714Y-242390056D01*
X115535714Y-242390056D02*
X115488095Y-242199580D01*
X115488095Y-242199580D02*
X115488095Y-242056723D01*
X115488095Y-242056723D02*
X115535714Y-241866247D01*
X115535714Y-241866247D02*
X115583333Y-241771009D01*
X115583333Y-241771009D02*
X115678571Y-241675771D01*
X115678571Y-241675771D02*
X115821428Y-241628152D01*
X115821428Y-241628152D02*
X115916666Y-241628152D01*
X115916666Y-241628152D02*
X116059523Y-241675771D01*
X116059523Y-241675771D02*
X116107142Y-241723390D01*
X116964285Y-241961485D02*
X116964285Y-242628152D01*
X116726190Y-241580533D02*
X116488095Y-242294818D01*
X116488095Y-242294818D02*
X117107142Y-242294818D01*
X117916666Y-241961485D02*
X117916666Y-242628152D01*
X117678571Y-241580533D02*
X117440476Y-242294818D01*
X117440476Y-242294818D02*
X118059523Y-242294818D01*
X14766667Y-13721485D02*
X14766667Y-12721485D01*
X14766667Y-12721485D02*
X15100000Y-13435770D01*
X15100000Y-13435770D02*
X15433333Y-12721485D01*
X15433333Y-12721485D02*
X15433333Y-13721485D01*
X15909524Y-13721485D02*
X15909524Y-12721485D01*
X15909524Y-13197675D02*
X16480952Y-13197675D01*
X16480952Y-13721485D02*
X16480952Y-12721485D01*
X17480952Y-13721485D02*
X16909524Y-13721485D01*
X17195238Y-13721485D02*
X17195238Y-12721485D01*
X17195238Y-12721485D02*
X17100000Y-12864342D01*
X17100000Y-12864342D02*
X17004762Y-12959580D01*
X17004762Y-12959580D02*
X16909524Y-13007199D01*
X100857142Y-242532913D02*
X100809523Y-242580533D01*
X100809523Y-242580533D02*
X100666666Y-242628152D01*
X100666666Y-242628152D02*
X100571428Y-242628152D01*
X100571428Y-242628152D02*
X100428571Y-242580533D01*
X100428571Y-242580533D02*
X100333333Y-242485294D01*
X100333333Y-242485294D02*
X100285714Y-242390056D01*
X100285714Y-242390056D02*
X100238095Y-242199580D01*
X100238095Y-242199580D02*
X100238095Y-242056723D01*
X100238095Y-242056723D02*
X100285714Y-241866247D01*
X100285714Y-241866247D02*
X100333333Y-241771009D01*
X100333333Y-241771009D02*
X100428571Y-241675771D01*
X100428571Y-241675771D02*
X100571428Y-241628152D01*
X100571428Y-241628152D02*
X100666666Y-241628152D01*
X100666666Y-241628152D02*
X100809523Y-241675771D01*
X100809523Y-241675771D02*
X100857142Y-241723390D01*
X101714285Y-241961485D02*
X101714285Y-242628152D01*
X101476190Y-241580533D02*
X101238095Y-242294818D01*
X101238095Y-242294818D02*
X101857142Y-242294818D01*
X102142857Y-241628152D02*
X102761904Y-241628152D01*
X102761904Y-241628152D02*
X102428571Y-242009104D01*
X102428571Y-242009104D02*
X102571428Y-242009104D01*
X102571428Y-242009104D02*
X102666666Y-242056723D01*
X102666666Y-242056723D02*
X102714285Y-242104342D01*
X102714285Y-242104342D02*
X102761904Y-242199580D01*
X102761904Y-242199580D02*
X102761904Y-242437675D01*
X102761904Y-242437675D02*
X102714285Y-242532913D01*
X102714285Y-242532913D02*
X102666666Y-242580533D01*
X102666666Y-242580533D02*
X102571428Y-242628152D01*
X102571428Y-242628152D02*
X102285714Y-242628152D01*
X102285714Y-242628152D02*
X102190476Y-242580533D01*
X102190476Y-242580533D02*
X102142857Y-242532913D01*
X85607142Y-242532913D02*
X85559523Y-242580533D01*
X85559523Y-242580533D02*
X85416666Y-242628152D01*
X85416666Y-242628152D02*
X85321428Y-242628152D01*
X85321428Y-242628152D02*
X85178571Y-242580533D01*
X85178571Y-242580533D02*
X85083333Y-242485294D01*
X85083333Y-242485294D02*
X85035714Y-242390056D01*
X85035714Y-242390056D02*
X84988095Y-242199580D01*
X84988095Y-242199580D02*
X84988095Y-242056723D01*
X84988095Y-242056723D02*
X85035714Y-241866247D01*
X85035714Y-241866247D02*
X85083333Y-241771009D01*
X85083333Y-241771009D02*
X85178571Y-241675771D01*
X85178571Y-241675771D02*
X85321428Y-241628152D01*
X85321428Y-241628152D02*
X85416666Y-241628152D01*
X85416666Y-241628152D02*
X85559523Y-241675771D01*
X85559523Y-241675771D02*
X85607142Y-241723390D01*
X86464285Y-241961485D02*
X86464285Y-242628152D01*
X86226190Y-241580533D02*
X85988095Y-242294818D01*
X85988095Y-242294818D02*
X86607142Y-242294818D01*
X86940476Y-241723390D02*
X86988095Y-241675771D01*
X86988095Y-241675771D02*
X87083333Y-241628152D01*
X87083333Y-241628152D02*
X87321428Y-241628152D01*
X87321428Y-241628152D02*
X87416666Y-241675771D01*
X87416666Y-241675771D02*
X87464285Y-241723390D01*
X87464285Y-241723390D02*
X87511904Y-241818628D01*
X87511904Y-241818628D02*
X87511904Y-241913866D01*
X87511904Y-241913866D02*
X87464285Y-242056723D01*
X87464285Y-242056723D02*
X86892857Y-242628152D01*
X86892857Y-242628152D02*
X87511904Y-242628152D01*
X169482142Y-182799580D02*
X169434523Y-182847200D01*
X169434523Y-182847200D02*
X169291666Y-182894819D01*
X169291666Y-182894819D02*
X169196428Y-182894819D01*
X169196428Y-182894819D02*
X169053571Y-182847200D01*
X169053571Y-182847200D02*
X168958333Y-182751961D01*
X168958333Y-182751961D02*
X168910714Y-182656723D01*
X168910714Y-182656723D02*
X168863095Y-182466247D01*
X168863095Y-182466247D02*
X168863095Y-182323390D01*
X168863095Y-182323390D02*
X168910714Y-182132914D01*
X168910714Y-182132914D02*
X168958333Y-182037676D01*
X168958333Y-182037676D02*
X169053571Y-181942438D01*
X169053571Y-181942438D02*
X169196428Y-181894819D01*
X169196428Y-181894819D02*
X169291666Y-181894819D01*
X169291666Y-181894819D02*
X169434523Y-181942438D01*
X169434523Y-181942438D02*
X169482142Y-181990057D01*
X169815476Y-181894819D02*
X170434523Y-181894819D01*
X170434523Y-181894819D02*
X170101190Y-182275771D01*
X170101190Y-182275771D02*
X170244047Y-182275771D01*
X170244047Y-182275771D02*
X170339285Y-182323390D01*
X170339285Y-182323390D02*
X170386904Y-182371009D01*
X170386904Y-182371009D02*
X170434523Y-182466247D01*
X170434523Y-182466247D02*
X170434523Y-182704342D01*
X170434523Y-182704342D02*
X170386904Y-182799580D01*
X170386904Y-182799580D02*
X170339285Y-182847200D01*
X170339285Y-182847200D02*
X170244047Y-182894819D01*
X170244047Y-182894819D02*
X169958333Y-182894819D01*
X169958333Y-182894819D02*
X169863095Y-182847200D01*
X169863095Y-182847200D02*
X169815476Y-182799580D01*
X171291666Y-182228152D02*
X171291666Y-182894819D01*
X171053571Y-181847200D02*
X170815476Y-182561485D01*
X170815476Y-182561485D02*
X171434523Y-182561485D01*
X103311905Y-249721485D02*
X103311905Y-250531008D01*
X103311905Y-250531008D02*
X103359524Y-250626246D01*
X103359524Y-250626246D02*
X103407143Y-250673866D01*
X103407143Y-250673866D02*
X103502381Y-250721485D01*
X103502381Y-250721485D02*
X103692857Y-250721485D01*
X103692857Y-250721485D02*
X103788095Y-250673866D01*
X103788095Y-250673866D02*
X103835714Y-250626246D01*
X103835714Y-250626246D02*
X103883333Y-250531008D01*
X103883333Y-250531008D02*
X103883333Y-249721485D01*
X104883333Y-250721485D02*
X104311905Y-250721485D01*
X104597619Y-250721485D02*
X104597619Y-249721485D01*
X104597619Y-249721485D02*
X104502381Y-249864342D01*
X104502381Y-249864342D02*
X104407143Y-249959580D01*
X104407143Y-249959580D02*
X104311905Y-250007199D01*
X105835714Y-250721485D02*
X105264286Y-250721485D01*
X105550000Y-250721485D02*
X105550000Y-249721485D01*
X105550000Y-249721485D02*
X105454762Y-249864342D01*
X105454762Y-249864342D02*
X105359524Y-249959580D01*
X105359524Y-249959580D02*
X105264286Y-250007199D01*
X249759524Y-182204819D02*
X249759524Y-181204819D01*
X249759524Y-181204819D02*
X249997619Y-181204819D01*
X249997619Y-181204819D02*
X250140476Y-181252438D01*
X250140476Y-181252438D02*
X250235714Y-181347676D01*
X250235714Y-181347676D02*
X250283333Y-181442914D01*
X250283333Y-181442914D02*
X250330952Y-181633390D01*
X250330952Y-181633390D02*
X250330952Y-181776247D01*
X250330952Y-181776247D02*
X250283333Y-181966723D01*
X250283333Y-181966723D02*
X250235714Y-182061961D01*
X250235714Y-182061961D02*
X250140476Y-182157200D01*
X250140476Y-182157200D02*
X249997619Y-182204819D01*
X249997619Y-182204819D02*
X249759524Y-182204819D01*
X251235714Y-181204819D02*
X250759524Y-181204819D01*
X250759524Y-181204819D02*
X250711905Y-181681009D01*
X250711905Y-181681009D02*
X250759524Y-181633390D01*
X250759524Y-181633390D02*
X250854762Y-181585771D01*
X250854762Y-181585771D02*
X251092857Y-181585771D01*
X251092857Y-181585771D02*
X251188095Y-181633390D01*
X251188095Y-181633390D02*
X251235714Y-181681009D01*
X251235714Y-181681009D02*
X251283333Y-181776247D01*
X251283333Y-181776247D02*
X251283333Y-182014342D01*
X251283333Y-182014342D02*
X251235714Y-182109580D01*
X251235714Y-182109580D02*
X251188095Y-182157200D01*
X251188095Y-182157200D02*
X251092857Y-182204819D01*
X251092857Y-182204819D02*
X250854762Y-182204819D01*
X250854762Y-182204819D02*
X250759524Y-182157200D01*
X250759524Y-182157200D02*
X250711905Y-182109580D01*
X251711905Y-182204819D02*
X251711905Y-181204819D01*
X251711905Y-181585771D02*
X251807143Y-181538152D01*
X251807143Y-181538152D02*
X251997619Y-181538152D01*
X251997619Y-181538152D02*
X252092857Y-181585771D01*
X252092857Y-181585771D02*
X252140476Y-181633390D01*
X252140476Y-181633390D02*
X252188095Y-181728628D01*
X252188095Y-181728628D02*
X252188095Y-182014342D01*
X252188095Y-182014342D02*
X252140476Y-182109580D01*
X252140476Y-182109580D02*
X252092857Y-182157200D01*
X252092857Y-182157200D02*
X251997619Y-182204819D01*
X251997619Y-182204819D02*
X251807143Y-182204819D01*
X251807143Y-182204819D02*
X251711905Y-182157200D01*
X161532380Y-167976392D02*
X161532380Y-169004487D01*
X161532380Y-169004487D02*
X161592857Y-169125439D01*
X161592857Y-169125439D02*
X161653333Y-169185916D01*
X161653333Y-169185916D02*
X161774285Y-169246392D01*
X161774285Y-169246392D02*
X162016190Y-169246392D01*
X162016190Y-169246392D02*
X162137142Y-169185916D01*
X162137142Y-169185916D02*
X162197619Y-169125439D01*
X162197619Y-169125439D02*
X162258095Y-169004487D01*
X162258095Y-169004487D02*
X162258095Y-167976392D01*
X162802380Y-168097344D02*
X162862856Y-168036868D01*
X162862856Y-168036868D02*
X162983809Y-167976392D01*
X162983809Y-167976392D02*
X163286190Y-167976392D01*
X163286190Y-167976392D02*
X163407142Y-168036868D01*
X163407142Y-168036868D02*
X163467618Y-168097344D01*
X163467618Y-168097344D02*
X163528095Y-168218296D01*
X163528095Y-168218296D02*
X163528095Y-168339249D01*
X163528095Y-168339249D02*
X163467618Y-168520677D01*
X163467618Y-168520677D02*
X162741904Y-169246392D01*
X162741904Y-169246392D02*
X163528095Y-169246392D01*
X97591904Y-147554819D02*
X97591904Y-148364342D01*
X97591904Y-148364342D02*
X97639523Y-148459580D01*
X97639523Y-148459580D02*
X97687142Y-148507200D01*
X97687142Y-148507200D02*
X97782380Y-148554819D01*
X97782380Y-148554819D02*
X97972856Y-148554819D01*
X97972856Y-148554819D02*
X98068094Y-148507200D01*
X98068094Y-148507200D02*
X98115713Y-148459580D01*
X98115713Y-148459580D02*
X98163332Y-148364342D01*
X98163332Y-148364342D02*
X98163332Y-147554819D01*
X98591904Y-147650057D02*
X98639523Y-147602438D01*
X98639523Y-147602438D02*
X98734761Y-147554819D01*
X98734761Y-147554819D02*
X98972856Y-147554819D01*
X98972856Y-147554819D02*
X99068094Y-147602438D01*
X99068094Y-147602438D02*
X99115713Y-147650057D01*
X99115713Y-147650057D02*
X99163332Y-147745295D01*
X99163332Y-147745295D02*
X99163332Y-147840533D01*
X99163332Y-147840533D02*
X99115713Y-147983390D01*
X99115713Y-147983390D02*
X98544285Y-148554819D01*
X98544285Y-148554819D02*
X99163332Y-148554819D01*
X100068094Y-147554819D02*
X99591904Y-147554819D01*
X99591904Y-147554819D02*
X99544285Y-148031009D01*
X99544285Y-148031009D02*
X99591904Y-147983390D01*
X99591904Y-147983390D02*
X99687142Y-147935771D01*
X99687142Y-147935771D02*
X99925237Y-147935771D01*
X99925237Y-147935771D02*
X100020475Y-147983390D01*
X100020475Y-147983390D02*
X100068094Y-148031009D01*
X100068094Y-148031009D02*
X100115713Y-148126247D01*
X100115713Y-148126247D02*
X100115713Y-148364342D01*
X100115713Y-148364342D02*
X100068094Y-148459580D01*
X100068094Y-148459580D02*
X100020475Y-148507200D01*
X100020475Y-148507200D02*
X99925237Y-148554819D01*
X99925237Y-148554819D02*
X99687142Y-148554819D01*
X99687142Y-148554819D02*
X99591904Y-148507200D01*
X99591904Y-148507200D02*
X99544285Y-148459580D01*
X100023809Y-134266246D02*
X99976190Y-134313866D01*
X99976190Y-134313866D02*
X99833333Y-134361485D01*
X99833333Y-134361485D02*
X99738095Y-134361485D01*
X99738095Y-134361485D02*
X99595238Y-134313866D01*
X99595238Y-134313866D02*
X99500000Y-134218627D01*
X99500000Y-134218627D02*
X99452381Y-134123389D01*
X99452381Y-134123389D02*
X99404762Y-133932913D01*
X99404762Y-133932913D02*
X99404762Y-133790056D01*
X99404762Y-133790056D02*
X99452381Y-133599580D01*
X99452381Y-133599580D02*
X99500000Y-133504342D01*
X99500000Y-133504342D02*
X99595238Y-133409104D01*
X99595238Y-133409104D02*
X99738095Y-133361485D01*
X99738095Y-133361485D02*
X99833333Y-133361485D01*
X99833333Y-133361485D02*
X99976190Y-133409104D01*
X99976190Y-133409104D02*
X100023809Y-133456723D01*
X100976190Y-134361485D02*
X100404762Y-134361485D01*
X100690476Y-134361485D02*
X100690476Y-133361485D01*
X100690476Y-133361485D02*
X100595238Y-133504342D01*
X100595238Y-133504342D02*
X100500000Y-133599580D01*
X100500000Y-133599580D02*
X100404762Y-133647199D01*
X101595238Y-133361485D02*
X101690476Y-133361485D01*
X101690476Y-133361485D02*
X101785714Y-133409104D01*
X101785714Y-133409104D02*
X101833333Y-133456723D01*
X101833333Y-133456723D02*
X101880952Y-133551961D01*
X101880952Y-133551961D02*
X101928571Y-133742437D01*
X101928571Y-133742437D02*
X101928571Y-133980532D01*
X101928571Y-133980532D02*
X101880952Y-134171008D01*
X101880952Y-134171008D02*
X101833333Y-134266246D01*
X101833333Y-134266246D02*
X101785714Y-134313866D01*
X101785714Y-134313866D02*
X101690476Y-134361485D01*
X101690476Y-134361485D02*
X101595238Y-134361485D01*
X101595238Y-134361485D02*
X101500000Y-134313866D01*
X101500000Y-134313866D02*
X101452381Y-134266246D01*
X101452381Y-134266246D02*
X101404762Y-134171008D01*
X101404762Y-134171008D02*
X101357143Y-133980532D01*
X101357143Y-133980532D02*
X101357143Y-133742437D01*
X101357143Y-133742437D02*
X101404762Y-133551961D01*
X101404762Y-133551961D02*
X101452381Y-133456723D01*
X101452381Y-133456723D02*
X101500000Y-133409104D01*
X101500000Y-133409104D02*
X101595238Y-133361485D01*
X102119048Y-134456723D02*
X102880952Y-134456723D01*
X103547619Y-134361485D02*
X103547619Y-133361485D01*
X103547619Y-134313866D02*
X103452381Y-134361485D01*
X103452381Y-134361485D02*
X103261905Y-134361485D01*
X103261905Y-134361485D02*
X103166667Y-134313866D01*
X103166667Y-134313866D02*
X103119048Y-134266246D01*
X103119048Y-134266246D02*
X103071429Y-134171008D01*
X103071429Y-134171008D02*
X103071429Y-133885294D01*
X103071429Y-133885294D02*
X103119048Y-133790056D01*
X103119048Y-133790056D02*
X103166667Y-133742437D01*
X103166667Y-133742437D02*
X103261905Y-133694818D01*
X103261905Y-133694818D02*
X103452381Y-133694818D01*
X103452381Y-133694818D02*
X103547619Y-133742437D01*
X57561905Y-248721485D02*
X57561905Y-249531008D01*
X57561905Y-249531008D02*
X57609524Y-249626246D01*
X57609524Y-249626246D02*
X57657143Y-249673866D01*
X57657143Y-249673866D02*
X57752381Y-249721485D01*
X57752381Y-249721485D02*
X57942857Y-249721485D01*
X57942857Y-249721485D02*
X58038095Y-249673866D01*
X58038095Y-249673866D02*
X58085714Y-249626246D01*
X58085714Y-249626246D02*
X58133333Y-249531008D01*
X58133333Y-249531008D02*
X58133333Y-248721485D01*
X59133333Y-249721485D02*
X58561905Y-249721485D01*
X58847619Y-249721485D02*
X58847619Y-248721485D01*
X58847619Y-248721485D02*
X58752381Y-248864342D01*
X58752381Y-248864342D02*
X58657143Y-248959580D01*
X58657143Y-248959580D02*
X58561905Y-249007199D01*
X60038095Y-248721485D02*
X59561905Y-248721485D01*
X59561905Y-248721485D02*
X59514286Y-249197675D01*
X59514286Y-249197675D02*
X59561905Y-249150056D01*
X59561905Y-249150056D02*
X59657143Y-249102437D01*
X59657143Y-249102437D02*
X59895238Y-249102437D01*
X59895238Y-249102437D02*
X59990476Y-249150056D01*
X59990476Y-249150056D02*
X60038095Y-249197675D01*
X60038095Y-249197675D02*
X60085714Y-249292913D01*
X60085714Y-249292913D02*
X60085714Y-249531008D01*
X60085714Y-249531008D02*
X60038095Y-249626246D01*
X60038095Y-249626246D02*
X59990476Y-249673866D01*
X59990476Y-249673866D02*
X59895238Y-249721485D01*
X59895238Y-249721485D02*
X59657143Y-249721485D01*
X59657143Y-249721485D02*
X59561905Y-249673866D01*
X59561905Y-249673866D02*
X59514286Y-249626246D01*
X118561905Y-249721485D02*
X118561905Y-250531008D01*
X118561905Y-250531008D02*
X118609524Y-250626246D01*
X118609524Y-250626246D02*
X118657143Y-250673866D01*
X118657143Y-250673866D02*
X118752381Y-250721485D01*
X118752381Y-250721485D02*
X118942857Y-250721485D01*
X118942857Y-250721485D02*
X119038095Y-250673866D01*
X119038095Y-250673866D02*
X119085714Y-250626246D01*
X119085714Y-250626246D02*
X119133333Y-250531008D01*
X119133333Y-250531008D02*
X119133333Y-249721485D01*
X120133333Y-250721485D02*
X119561905Y-250721485D01*
X119847619Y-250721485D02*
X119847619Y-249721485D01*
X119847619Y-249721485D02*
X119752381Y-249864342D01*
X119752381Y-249864342D02*
X119657143Y-249959580D01*
X119657143Y-249959580D02*
X119561905Y-250007199D01*
X120990476Y-250054818D02*
X120990476Y-250721485D01*
X120752381Y-249673866D02*
X120514286Y-250388151D01*
X120514286Y-250388151D02*
X121133333Y-250388151D01*
X154232142Y-182799580D02*
X154184523Y-182847200D01*
X154184523Y-182847200D02*
X154041666Y-182894819D01*
X154041666Y-182894819D02*
X153946428Y-182894819D01*
X153946428Y-182894819D02*
X153803571Y-182847200D01*
X153803571Y-182847200D02*
X153708333Y-182751961D01*
X153708333Y-182751961D02*
X153660714Y-182656723D01*
X153660714Y-182656723D02*
X153613095Y-182466247D01*
X153613095Y-182466247D02*
X153613095Y-182323390D01*
X153613095Y-182323390D02*
X153660714Y-182132914D01*
X153660714Y-182132914D02*
X153708333Y-182037676D01*
X153708333Y-182037676D02*
X153803571Y-181942438D01*
X153803571Y-181942438D02*
X153946428Y-181894819D01*
X153946428Y-181894819D02*
X154041666Y-181894819D01*
X154041666Y-181894819D02*
X154184523Y-181942438D01*
X154184523Y-181942438D02*
X154232142Y-181990057D01*
X154565476Y-181894819D02*
X155184523Y-181894819D01*
X155184523Y-181894819D02*
X154851190Y-182275771D01*
X154851190Y-182275771D02*
X154994047Y-182275771D01*
X154994047Y-182275771D02*
X155089285Y-182323390D01*
X155089285Y-182323390D02*
X155136904Y-182371009D01*
X155136904Y-182371009D02*
X155184523Y-182466247D01*
X155184523Y-182466247D02*
X155184523Y-182704342D01*
X155184523Y-182704342D02*
X155136904Y-182799580D01*
X155136904Y-182799580D02*
X155089285Y-182847200D01*
X155089285Y-182847200D02*
X154994047Y-182894819D01*
X154994047Y-182894819D02*
X154708333Y-182894819D01*
X154708333Y-182894819D02*
X154613095Y-182847200D01*
X154613095Y-182847200D02*
X154565476Y-182799580D01*
X156136904Y-182894819D02*
X155565476Y-182894819D01*
X155851190Y-182894819D02*
X155851190Y-181894819D01*
X155851190Y-181894819D02*
X155755952Y-182037676D01*
X155755952Y-182037676D02*
X155660714Y-182132914D01*
X155660714Y-182132914D02*
X155565476Y-182180533D01*
X50555952Y-242012913D02*
X50508333Y-242060533D01*
X50508333Y-242060533D02*
X50365476Y-242108152D01*
X50365476Y-242108152D02*
X50270238Y-242108152D01*
X50270238Y-242108152D02*
X50127381Y-242060533D01*
X50127381Y-242060533D02*
X50032143Y-241965294D01*
X50032143Y-241965294D02*
X49984524Y-241870056D01*
X49984524Y-241870056D02*
X49936905Y-241679580D01*
X49936905Y-241679580D02*
X49936905Y-241536723D01*
X49936905Y-241536723D02*
X49984524Y-241346247D01*
X49984524Y-241346247D02*
X50032143Y-241251009D01*
X50032143Y-241251009D02*
X50127381Y-241155771D01*
X50127381Y-241155771D02*
X50270238Y-241108152D01*
X50270238Y-241108152D02*
X50365476Y-241108152D01*
X50365476Y-241108152D02*
X50508333Y-241155771D01*
X50508333Y-241155771D02*
X50555952Y-241203390D01*
X51508333Y-242108152D02*
X50936905Y-242108152D01*
X51222619Y-242108152D02*
X51222619Y-241108152D01*
X51222619Y-241108152D02*
X51127381Y-241251009D01*
X51127381Y-241251009D02*
X51032143Y-241346247D01*
X51032143Y-241346247D02*
X50936905Y-241393866D01*
X52365476Y-242108152D02*
X52365476Y-241584342D01*
X52365476Y-241584342D02*
X52317857Y-241489104D01*
X52317857Y-241489104D02*
X52222619Y-241441485D01*
X52222619Y-241441485D02*
X52032143Y-241441485D01*
X52032143Y-241441485D02*
X51936905Y-241489104D01*
X52365476Y-242060533D02*
X52270238Y-242108152D01*
X52270238Y-242108152D02*
X52032143Y-242108152D01*
X52032143Y-242108152D02*
X51936905Y-242060533D01*
X51936905Y-242060533D02*
X51889286Y-241965294D01*
X51889286Y-241965294D02*
X51889286Y-241870056D01*
X51889286Y-241870056D02*
X51936905Y-241774818D01*
X51936905Y-241774818D02*
X52032143Y-241727199D01*
X52032143Y-241727199D02*
X52270238Y-241727199D01*
X52270238Y-241727199D02*
X52365476Y-241679580D01*
X109197617Y-108132913D02*
X109149998Y-108180533D01*
X109149998Y-108180533D02*
X109007141Y-108228152D01*
X109007141Y-108228152D02*
X108911903Y-108228152D01*
X108911903Y-108228152D02*
X108769046Y-108180533D01*
X108769046Y-108180533D02*
X108673808Y-108085294D01*
X108673808Y-108085294D02*
X108626189Y-107990056D01*
X108626189Y-107990056D02*
X108578570Y-107799580D01*
X108578570Y-107799580D02*
X108578570Y-107656723D01*
X108578570Y-107656723D02*
X108626189Y-107466247D01*
X108626189Y-107466247D02*
X108673808Y-107371009D01*
X108673808Y-107371009D02*
X108769046Y-107275771D01*
X108769046Y-107275771D02*
X108911903Y-107228152D01*
X108911903Y-107228152D02*
X109007141Y-107228152D01*
X109007141Y-107228152D02*
X109149998Y-107275771D01*
X109149998Y-107275771D02*
X109197617Y-107323390D01*
X110149998Y-108228152D02*
X109578570Y-108228152D01*
X109864284Y-108228152D02*
X109864284Y-107228152D01*
X109864284Y-107228152D02*
X109769046Y-107371009D01*
X109769046Y-107371009D02*
X109673808Y-107466247D01*
X109673808Y-107466247D02*
X109578570Y-107513866D01*
X110769046Y-107228152D02*
X110864284Y-107228152D01*
X110864284Y-107228152D02*
X110959522Y-107275771D01*
X110959522Y-107275771D02*
X111007141Y-107323390D01*
X111007141Y-107323390D02*
X111054760Y-107418628D01*
X111054760Y-107418628D02*
X111102379Y-107609104D01*
X111102379Y-107609104D02*
X111102379Y-107847199D01*
X111102379Y-107847199D02*
X111054760Y-108037675D01*
X111054760Y-108037675D02*
X111007141Y-108132913D01*
X111007141Y-108132913D02*
X110959522Y-108180533D01*
X110959522Y-108180533D02*
X110864284Y-108228152D01*
X110864284Y-108228152D02*
X110769046Y-108228152D01*
X110769046Y-108228152D02*
X110673808Y-108180533D01*
X110673808Y-108180533D02*
X110626189Y-108132913D01*
X110626189Y-108132913D02*
X110578570Y-108037675D01*
X110578570Y-108037675D02*
X110530951Y-107847199D01*
X110530951Y-107847199D02*
X110530951Y-107609104D01*
X110530951Y-107609104D02*
X110578570Y-107418628D01*
X110578570Y-107418628D02*
X110626189Y-107323390D01*
X110626189Y-107323390D02*
X110673808Y-107275771D01*
X110673808Y-107275771D02*
X110769046Y-107228152D01*
X111292856Y-108323390D02*
X112054760Y-108323390D01*
X112721427Y-108180533D02*
X112626189Y-108228152D01*
X112626189Y-108228152D02*
X112435713Y-108228152D01*
X112435713Y-108228152D02*
X112340475Y-108180533D01*
X112340475Y-108180533D02*
X112292856Y-108132913D01*
X112292856Y-108132913D02*
X112245237Y-108037675D01*
X112245237Y-108037675D02*
X112245237Y-107751961D01*
X112245237Y-107751961D02*
X112292856Y-107656723D01*
X112292856Y-107656723D02*
X112340475Y-107609104D01*
X112340475Y-107609104D02*
X112435713Y-107561485D01*
X112435713Y-107561485D02*
X112626189Y-107561485D01*
X112626189Y-107561485D02*
X112721427Y-107609104D01*
X235080952Y-188399580D02*
X235033333Y-188447200D01*
X235033333Y-188447200D02*
X234890476Y-188494819D01*
X234890476Y-188494819D02*
X234795238Y-188494819D01*
X234795238Y-188494819D02*
X234652381Y-188447200D01*
X234652381Y-188447200D02*
X234557143Y-188351961D01*
X234557143Y-188351961D02*
X234509524Y-188256723D01*
X234509524Y-188256723D02*
X234461905Y-188066247D01*
X234461905Y-188066247D02*
X234461905Y-187923390D01*
X234461905Y-187923390D02*
X234509524Y-187732914D01*
X234509524Y-187732914D02*
X234557143Y-187637676D01*
X234557143Y-187637676D02*
X234652381Y-187542438D01*
X234652381Y-187542438D02*
X234795238Y-187494819D01*
X234795238Y-187494819D02*
X234890476Y-187494819D01*
X234890476Y-187494819D02*
X235033333Y-187542438D01*
X235033333Y-187542438D02*
X235080952Y-187590057D01*
X235938095Y-187828152D02*
X235938095Y-188494819D01*
X235700000Y-187447200D02*
X235461905Y-188161485D01*
X235461905Y-188161485D02*
X236080952Y-188161485D01*
X236890476Y-188494819D02*
X236890476Y-187971009D01*
X236890476Y-187971009D02*
X236842857Y-187875771D01*
X236842857Y-187875771D02*
X236747619Y-187828152D01*
X236747619Y-187828152D02*
X236557143Y-187828152D01*
X236557143Y-187828152D02*
X236461905Y-187875771D01*
X236890476Y-188447200D02*
X236795238Y-188494819D01*
X236795238Y-188494819D02*
X236557143Y-188494819D01*
X236557143Y-188494819D02*
X236461905Y-188447200D01*
X236461905Y-188447200D02*
X236414286Y-188351961D01*
X236414286Y-188351961D02*
X236414286Y-188256723D01*
X236414286Y-188256723D02*
X236461905Y-188161485D01*
X236461905Y-188161485D02*
X236557143Y-188113866D01*
X236557143Y-188113866D02*
X236795238Y-188113866D01*
X236795238Y-188113866D02*
X236890476Y-188066247D01*
X225930951Y-208932913D02*
X225883332Y-208980533D01*
X225883332Y-208980533D02*
X225740475Y-209028152D01*
X225740475Y-209028152D02*
X225645237Y-209028152D01*
X225645237Y-209028152D02*
X225502380Y-208980533D01*
X225502380Y-208980533D02*
X225407142Y-208885294D01*
X225407142Y-208885294D02*
X225359523Y-208790056D01*
X225359523Y-208790056D02*
X225311904Y-208599580D01*
X225311904Y-208599580D02*
X225311904Y-208456723D01*
X225311904Y-208456723D02*
X225359523Y-208266247D01*
X225359523Y-208266247D02*
X225407142Y-208171009D01*
X225407142Y-208171009D02*
X225502380Y-208075771D01*
X225502380Y-208075771D02*
X225645237Y-208028152D01*
X225645237Y-208028152D02*
X225740475Y-208028152D01*
X225740475Y-208028152D02*
X225883332Y-208075771D01*
X225883332Y-208075771D02*
X225930951Y-208123390D01*
X226835713Y-208028152D02*
X226359523Y-208028152D01*
X226359523Y-208028152D02*
X226311904Y-208504342D01*
X226311904Y-208504342D02*
X226359523Y-208456723D01*
X226359523Y-208456723D02*
X226454761Y-208409104D01*
X226454761Y-208409104D02*
X226692856Y-208409104D01*
X226692856Y-208409104D02*
X226788094Y-208456723D01*
X226788094Y-208456723D02*
X226835713Y-208504342D01*
X226835713Y-208504342D02*
X226883332Y-208599580D01*
X226883332Y-208599580D02*
X226883332Y-208837675D01*
X226883332Y-208837675D02*
X226835713Y-208932913D01*
X226835713Y-208932913D02*
X226788094Y-208980533D01*
X226788094Y-208980533D02*
X226692856Y-209028152D01*
X226692856Y-209028152D02*
X226454761Y-209028152D01*
X226454761Y-209028152D02*
X226359523Y-208980533D01*
X226359523Y-208980533D02*
X226311904Y-208932913D01*
X227740475Y-209028152D02*
X227740475Y-208504342D01*
X227740475Y-208504342D02*
X227692856Y-208409104D01*
X227692856Y-208409104D02*
X227597618Y-208361485D01*
X227597618Y-208361485D02*
X227407142Y-208361485D01*
X227407142Y-208361485D02*
X227311904Y-208409104D01*
X227740475Y-208980533D02*
X227645237Y-209028152D01*
X227645237Y-209028152D02*
X227407142Y-209028152D01*
X227407142Y-209028152D02*
X227311904Y-208980533D01*
X227311904Y-208980533D02*
X227264285Y-208885294D01*
X227264285Y-208885294D02*
X227264285Y-208790056D01*
X227264285Y-208790056D02*
X227311904Y-208694818D01*
X227311904Y-208694818D02*
X227407142Y-208647199D01*
X227407142Y-208647199D02*
X227645237Y-208647199D01*
X227645237Y-208647199D02*
X227740475Y-208599580D01*
X225930951Y-186532913D02*
X225883332Y-186580533D01*
X225883332Y-186580533D02*
X225740475Y-186628152D01*
X225740475Y-186628152D02*
X225645237Y-186628152D01*
X225645237Y-186628152D02*
X225502380Y-186580533D01*
X225502380Y-186580533D02*
X225407142Y-186485294D01*
X225407142Y-186485294D02*
X225359523Y-186390056D01*
X225359523Y-186390056D02*
X225311904Y-186199580D01*
X225311904Y-186199580D02*
X225311904Y-186056723D01*
X225311904Y-186056723D02*
X225359523Y-185866247D01*
X225359523Y-185866247D02*
X225407142Y-185771009D01*
X225407142Y-185771009D02*
X225502380Y-185675771D01*
X225502380Y-185675771D02*
X225645237Y-185628152D01*
X225645237Y-185628152D02*
X225740475Y-185628152D01*
X225740475Y-185628152D02*
X225883332Y-185675771D01*
X225883332Y-185675771D02*
X225930951Y-185723390D01*
X226407142Y-186628152D02*
X226597618Y-186628152D01*
X226597618Y-186628152D02*
X226692856Y-186580533D01*
X226692856Y-186580533D02*
X226740475Y-186532913D01*
X226740475Y-186532913D02*
X226835713Y-186390056D01*
X226835713Y-186390056D02*
X226883332Y-186199580D01*
X226883332Y-186199580D02*
X226883332Y-185818628D01*
X226883332Y-185818628D02*
X226835713Y-185723390D01*
X226835713Y-185723390D02*
X226788094Y-185675771D01*
X226788094Y-185675771D02*
X226692856Y-185628152D01*
X226692856Y-185628152D02*
X226502380Y-185628152D01*
X226502380Y-185628152D02*
X226407142Y-185675771D01*
X226407142Y-185675771D02*
X226359523Y-185723390D01*
X226359523Y-185723390D02*
X226311904Y-185818628D01*
X226311904Y-185818628D02*
X226311904Y-186056723D01*
X226311904Y-186056723D02*
X226359523Y-186151961D01*
X226359523Y-186151961D02*
X226407142Y-186199580D01*
X226407142Y-186199580D02*
X226502380Y-186247199D01*
X226502380Y-186247199D02*
X226692856Y-186247199D01*
X226692856Y-186247199D02*
X226788094Y-186199580D01*
X226788094Y-186199580D02*
X226835713Y-186151961D01*
X226835713Y-186151961D02*
X226883332Y-186056723D01*
X227740475Y-186628152D02*
X227740475Y-186104342D01*
X227740475Y-186104342D02*
X227692856Y-186009104D01*
X227692856Y-186009104D02*
X227597618Y-185961485D01*
X227597618Y-185961485D02*
X227407142Y-185961485D01*
X227407142Y-185961485D02*
X227311904Y-186009104D01*
X227740475Y-186580533D02*
X227645237Y-186628152D01*
X227645237Y-186628152D02*
X227407142Y-186628152D01*
X227407142Y-186628152D02*
X227311904Y-186580533D01*
X227311904Y-186580533D02*
X227264285Y-186485294D01*
X227264285Y-186485294D02*
X227264285Y-186390056D01*
X227264285Y-186390056D02*
X227311904Y-186294818D01*
X227311904Y-186294818D02*
X227407142Y-186247199D01*
X227407142Y-186247199D02*
X227645237Y-186247199D01*
X227645237Y-186247199D02*
X227740475Y-186199580D01*
X248424998Y-208932913D02*
X248377379Y-208980533D01*
X248377379Y-208980533D02*
X248234522Y-209028152D01*
X248234522Y-209028152D02*
X248139284Y-209028152D01*
X248139284Y-209028152D02*
X247996427Y-208980533D01*
X247996427Y-208980533D02*
X247901189Y-208885294D01*
X247901189Y-208885294D02*
X247853570Y-208790056D01*
X247853570Y-208790056D02*
X247805951Y-208599580D01*
X247805951Y-208599580D02*
X247805951Y-208456723D01*
X247805951Y-208456723D02*
X247853570Y-208266247D01*
X247853570Y-208266247D02*
X247901189Y-208171009D01*
X247901189Y-208171009D02*
X247996427Y-208075771D01*
X247996427Y-208075771D02*
X248139284Y-208028152D01*
X248139284Y-208028152D02*
X248234522Y-208028152D01*
X248234522Y-208028152D02*
X248377379Y-208075771D01*
X248377379Y-208075771D02*
X248424998Y-208123390D01*
X249329760Y-208028152D02*
X248853570Y-208028152D01*
X248853570Y-208028152D02*
X248805951Y-208504342D01*
X248805951Y-208504342D02*
X248853570Y-208456723D01*
X248853570Y-208456723D02*
X248948808Y-208409104D01*
X248948808Y-208409104D02*
X249186903Y-208409104D01*
X249186903Y-208409104D02*
X249282141Y-208456723D01*
X249282141Y-208456723D02*
X249329760Y-208504342D01*
X249329760Y-208504342D02*
X249377379Y-208599580D01*
X249377379Y-208599580D02*
X249377379Y-208837675D01*
X249377379Y-208837675D02*
X249329760Y-208932913D01*
X249329760Y-208932913D02*
X249282141Y-208980533D01*
X249282141Y-208980533D02*
X249186903Y-209028152D01*
X249186903Y-209028152D02*
X248948808Y-209028152D01*
X248948808Y-209028152D02*
X248853570Y-208980533D01*
X248853570Y-208980533D02*
X248805951Y-208932913D01*
X249567856Y-209123390D02*
X250329760Y-209123390D01*
X250996427Y-208361485D02*
X250996427Y-209171009D01*
X250996427Y-209171009D02*
X250948808Y-209266247D01*
X250948808Y-209266247D02*
X250901189Y-209313866D01*
X250901189Y-209313866D02*
X250805951Y-209361485D01*
X250805951Y-209361485D02*
X250663094Y-209361485D01*
X250663094Y-209361485D02*
X250567856Y-209313866D01*
X250996427Y-208980533D02*
X250901189Y-209028152D01*
X250901189Y-209028152D02*
X250710713Y-209028152D01*
X250710713Y-209028152D02*
X250615475Y-208980533D01*
X250615475Y-208980533D02*
X250567856Y-208932913D01*
X250567856Y-208932913D02*
X250520237Y-208837675D01*
X250520237Y-208837675D02*
X250520237Y-208551961D01*
X250520237Y-208551961D02*
X250567856Y-208456723D01*
X250567856Y-208456723D02*
X250615475Y-208409104D01*
X250615475Y-208409104D02*
X250710713Y-208361485D01*
X250710713Y-208361485D02*
X250901189Y-208361485D01*
X250901189Y-208361485D02*
X250996427Y-208409104D01*
X62732142Y-245259580D02*
X62684523Y-245307200D01*
X62684523Y-245307200D02*
X62541666Y-245354819D01*
X62541666Y-245354819D02*
X62446428Y-245354819D01*
X62446428Y-245354819D02*
X62303571Y-245307200D01*
X62303571Y-245307200D02*
X62208333Y-245211961D01*
X62208333Y-245211961D02*
X62160714Y-245116723D01*
X62160714Y-245116723D02*
X62113095Y-244926247D01*
X62113095Y-244926247D02*
X62113095Y-244783390D01*
X62113095Y-244783390D02*
X62160714Y-244592914D01*
X62160714Y-244592914D02*
X62208333Y-244497676D01*
X62208333Y-244497676D02*
X62303571Y-244402438D01*
X62303571Y-244402438D02*
X62446428Y-244354819D01*
X62446428Y-244354819D02*
X62541666Y-244354819D01*
X62541666Y-244354819D02*
X62684523Y-244402438D01*
X62684523Y-244402438D02*
X62732142Y-244450057D01*
X63684523Y-245354819D02*
X63113095Y-245354819D01*
X63398809Y-245354819D02*
X63398809Y-244354819D01*
X63398809Y-244354819D02*
X63303571Y-244497676D01*
X63303571Y-244497676D02*
X63208333Y-244592914D01*
X63208333Y-244592914D02*
X63113095Y-244640533D01*
X64636904Y-245354819D02*
X64065476Y-245354819D01*
X64351190Y-245354819D02*
X64351190Y-244354819D01*
X64351190Y-244354819D02*
X64255952Y-244497676D01*
X64255952Y-244497676D02*
X64160714Y-244592914D01*
X64160714Y-244592914D02*
X64065476Y-244640533D01*
X149657141Y-154799580D02*
X149609522Y-154847200D01*
X149609522Y-154847200D02*
X149466665Y-154894819D01*
X149466665Y-154894819D02*
X149371427Y-154894819D01*
X149371427Y-154894819D02*
X149228570Y-154847200D01*
X149228570Y-154847200D02*
X149133332Y-154751961D01*
X149133332Y-154751961D02*
X149085713Y-154656723D01*
X149085713Y-154656723D02*
X149038094Y-154466247D01*
X149038094Y-154466247D02*
X149038094Y-154323390D01*
X149038094Y-154323390D02*
X149085713Y-154132914D01*
X149085713Y-154132914D02*
X149133332Y-154037676D01*
X149133332Y-154037676D02*
X149228570Y-153942438D01*
X149228570Y-153942438D02*
X149371427Y-153894819D01*
X149371427Y-153894819D02*
X149466665Y-153894819D01*
X149466665Y-153894819D02*
X149609522Y-153942438D01*
X149609522Y-153942438D02*
X149657141Y-153990057D01*
X149990475Y-153894819D02*
X150609522Y-153894819D01*
X150609522Y-153894819D02*
X150276189Y-154275771D01*
X150276189Y-154275771D02*
X150419046Y-154275771D01*
X150419046Y-154275771D02*
X150514284Y-154323390D01*
X150514284Y-154323390D02*
X150561903Y-154371009D01*
X150561903Y-154371009D02*
X150609522Y-154466247D01*
X150609522Y-154466247D02*
X150609522Y-154704342D01*
X150609522Y-154704342D02*
X150561903Y-154799580D01*
X150561903Y-154799580D02*
X150514284Y-154847200D01*
X150514284Y-154847200D02*
X150419046Y-154894819D01*
X150419046Y-154894819D02*
X150133332Y-154894819D01*
X150133332Y-154894819D02*
X150038094Y-154847200D01*
X150038094Y-154847200D02*
X149990475Y-154799580D01*
X151466665Y-153894819D02*
X151276189Y-153894819D01*
X151276189Y-153894819D02*
X151180951Y-153942438D01*
X151180951Y-153942438D02*
X151133332Y-153990057D01*
X151133332Y-153990057D02*
X151038094Y-154132914D01*
X151038094Y-154132914D02*
X150990475Y-154323390D01*
X150990475Y-154323390D02*
X150990475Y-154704342D01*
X150990475Y-154704342D02*
X151038094Y-154799580D01*
X151038094Y-154799580D02*
X151085713Y-154847200D01*
X151085713Y-154847200D02*
X151180951Y-154894819D01*
X151180951Y-154894819D02*
X151371427Y-154894819D01*
X151371427Y-154894819D02*
X151466665Y-154847200D01*
X151466665Y-154847200D02*
X151514284Y-154799580D01*
X151514284Y-154799580D02*
X151561903Y-154704342D01*
X151561903Y-154704342D02*
X151561903Y-154466247D01*
X151561903Y-154466247D02*
X151514284Y-154371009D01*
X151514284Y-154371009D02*
X151466665Y-154323390D01*
X151466665Y-154323390D02*
X151371427Y-154275771D01*
X151371427Y-154275771D02*
X151180951Y-154275771D01*
X151180951Y-154275771D02*
X151085713Y-154323390D01*
X151085713Y-154323390D02*
X151038094Y-154371009D01*
X151038094Y-154371009D02*
X150990475Y-154466247D01*
X223023809Y-138195294D02*
X223023809Y-138671485D01*
X222690476Y-137671485D02*
X223023809Y-138195294D01*
X223023809Y-138195294D02*
X223357142Y-137671485D01*
X224214285Y-138671485D02*
X223642857Y-138671485D01*
X223928571Y-138671485D02*
X223928571Y-137671485D01*
X223928571Y-137671485D02*
X223833333Y-137814342D01*
X223833333Y-137814342D02*
X223738095Y-137909580D01*
X223738095Y-137909580D02*
X223642857Y-137957199D01*
X161690476Y-18888152D02*
X161690476Y-19602437D01*
X161690476Y-19602437D02*
X161642857Y-19745294D01*
X161642857Y-19745294D02*
X161547619Y-19840533D01*
X161547619Y-19840533D02*
X161404762Y-19888152D01*
X161404762Y-19888152D02*
X161309524Y-19888152D01*
X162690476Y-19888152D02*
X162119048Y-19888152D01*
X162404762Y-19888152D02*
X162404762Y-18888152D01*
X162404762Y-18888152D02*
X162309524Y-19031009D01*
X162309524Y-19031009D02*
X162214286Y-19126247D01*
X162214286Y-19126247D02*
X162119048Y-19173866D01*
X163642857Y-19888152D02*
X163071429Y-19888152D01*
X163357143Y-19888152D02*
X163357143Y-18888152D01*
X163357143Y-18888152D02*
X163261905Y-19031009D01*
X163261905Y-19031009D02*
X163166667Y-19126247D01*
X163166667Y-19126247D02*
X163071429Y-19173866D01*
X104598808Y-108132913D02*
X104551189Y-108180533D01*
X104551189Y-108180533D02*
X104408332Y-108228152D01*
X104408332Y-108228152D02*
X104313094Y-108228152D01*
X104313094Y-108228152D02*
X104170237Y-108180533D01*
X104170237Y-108180533D02*
X104074999Y-108085294D01*
X104074999Y-108085294D02*
X104027380Y-107990056D01*
X104027380Y-107990056D02*
X103979761Y-107799580D01*
X103979761Y-107799580D02*
X103979761Y-107656723D01*
X103979761Y-107656723D02*
X104027380Y-107466247D01*
X104027380Y-107466247D02*
X104074999Y-107371009D01*
X104074999Y-107371009D02*
X104170237Y-107275771D01*
X104170237Y-107275771D02*
X104313094Y-107228152D01*
X104313094Y-107228152D02*
X104408332Y-107228152D01*
X104408332Y-107228152D02*
X104551189Y-107275771D01*
X104551189Y-107275771D02*
X104598808Y-107323390D01*
X105551189Y-108228152D02*
X104979761Y-108228152D01*
X105265475Y-108228152D02*
X105265475Y-107228152D01*
X105265475Y-107228152D02*
X105170237Y-107371009D01*
X105170237Y-107371009D02*
X105074999Y-107466247D01*
X105074999Y-107466247D02*
X104979761Y-107513866D01*
X106170237Y-107228152D02*
X106265475Y-107228152D01*
X106265475Y-107228152D02*
X106360713Y-107275771D01*
X106360713Y-107275771D02*
X106408332Y-107323390D01*
X106408332Y-107323390D02*
X106455951Y-107418628D01*
X106455951Y-107418628D02*
X106503570Y-107609104D01*
X106503570Y-107609104D02*
X106503570Y-107847199D01*
X106503570Y-107847199D02*
X106455951Y-108037675D01*
X106455951Y-108037675D02*
X106408332Y-108132913D01*
X106408332Y-108132913D02*
X106360713Y-108180533D01*
X106360713Y-108180533D02*
X106265475Y-108228152D01*
X106265475Y-108228152D02*
X106170237Y-108228152D01*
X106170237Y-108228152D02*
X106074999Y-108180533D01*
X106074999Y-108180533D02*
X106027380Y-108132913D01*
X106027380Y-108132913D02*
X105979761Y-108037675D01*
X105979761Y-108037675D02*
X105932142Y-107847199D01*
X105932142Y-107847199D02*
X105932142Y-107609104D01*
X105932142Y-107609104D02*
X105979761Y-107418628D01*
X105979761Y-107418628D02*
X106027380Y-107323390D01*
X106027380Y-107323390D02*
X106074999Y-107275771D01*
X106074999Y-107275771D02*
X106170237Y-107228152D01*
X106694047Y-108323390D02*
X107455951Y-108323390D01*
X107694047Y-108228152D02*
X107694047Y-107228152D01*
X107694047Y-107609104D02*
X107789285Y-107561485D01*
X107789285Y-107561485D02*
X107979761Y-107561485D01*
X107979761Y-107561485D02*
X108074999Y-107609104D01*
X108074999Y-107609104D02*
X108122618Y-107656723D01*
X108122618Y-107656723D02*
X108170237Y-107751961D01*
X108170237Y-107751961D02*
X108170237Y-108037675D01*
X108170237Y-108037675D02*
X108122618Y-108132913D01*
X108122618Y-108132913D02*
X108074999Y-108180533D01*
X108074999Y-108180533D02*
X107979761Y-108228152D01*
X107979761Y-108228152D02*
X107789285Y-108228152D01*
X107789285Y-108228152D02*
X107694047Y-108180533D01*
X188711905Y-75071485D02*
X188711905Y-75881008D01*
X188711905Y-75881008D02*
X188759524Y-75976246D01*
X188759524Y-75976246D02*
X188807143Y-76023866D01*
X188807143Y-76023866D02*
X188902381Y-76071485D01*
X188902381Y-76071485D02*
X189092857Y-76071485D01*
X189092857Y-76071485D02*
X189188095Y-76023866D01*
X189188095Y-76023866D02*
X189235714Y-75976246D01*
X189235714Y-75976246D02*
X189283333Y-75881008D01*
X189283333Y-75881008D02*
X189283333Y-75071485D01*
X189711905Y-75166723D02*
X189759524Y-75119104D01*
X189759524Y-75119104D02*
X189854762Y-75071485D01*
X189854762Y-75071485D02*
X190092857Y-75071485D01*
X190092857Y-75071485D02*
X190188095Y-75119104D01*
X190188095Y-75119104D02*
X190235714Y-75166723D01*
X190235714Y-75166723D02*
X190283333Y-75261961D01*
X190283333Y-75261961D02*
X190283333Y-75357199D01*
X190283333Y-75357199D02*
X190235714Y-75500056D01*
X190235714Y-75500056D02*
X189664286Y-76071485D01*
X189664286Y-76071485D02*
X190283333Y-76071485D01*
X191140476Y-75404818D02*
X191140476Y-76071485D01*
X190902381Y-75023866D02*
X190664286Y-75738151D01*
X190664286Y-75738151D02*
X191283333Y-75738151D01*
X250259726Y-197089998D02*
X251166869Y-197089998D01*
X251166869Y-197089998D02*
X251348297Y-197150475D01*
X251348297Y-197150475D02*
X251469250Y-197271427D01*
X251469250Y-197271427D02*
X251529726Y-197452856D01*
X251529726Y-197452856D02*
X251529726Y-197573808D01*
X250380678Y-196545713D02*
X250320202Y-196485237D01*
X250320202Y-196485237D02*
X250259726Y-196364284D01*
X250259726Y-196364284D02*
X250259726Y-196061903D01*
X250259726Y-196061903D02*
X250320202Y-195940951D01*
X250320202Y-195940951D02*
X250380678Y-195880475D01*
X250380678Y-195880475D02*
X250501630Y-195819998D01*
X250501630Y-195819998D02*
X250622583Y-195819998D01*
X250622583Y-195819998D02*
X250804011Y-195880475D01*
X250804011Y-195880475D02*
X251529726Y-196606189D01*
X251529726Y-196606189D02*
X251529726Y-195819998D01*
X290791667Y-241240533D02*
X290934524Y-241288152D01*
X290934524Y-241288152D02*
X291172619Y-241288152D01*
X291172619Y-241288152D02*
X291267857Y-241240533D01*
X291267857Y-241240533D02*
X291315476Y-241192913D01*
X291315476Y-241192913D02*
X291363095Y-241097675D01*
X291363095Y-241097675D02*
X291363095Y-241002437D01*
X291363095Y-241002437D02*
X291315476Y-240907199D01*
X291315476Y-240907199D02*
X291267857Y-240859580D01*
X291267857Y-240859580D02*
X291172619Y-240811961D01*
X291172619Y-240811961D02*
X290982143Y-240764342D01*
X290982143Y-240764342D02*
X290886905Y-240716723D01*
X290886905Y-240716723D02*
X290839286Y-240669104D01*
X290839286Y-240669104D02*
X290791667Y-240573866D01*
X290791667Y-240573866D02*
X290791667Y-240478628D01*
X290791667Y-240478628D02*
X290839286Y-240383390D01*
X290839286Y-240383390D02*
X290886905Y-240335771D01*
X290886905Y-240335771D02*
X290982143Y-240288152D01*
X290982143Y-240288152D02*
X291220238Y-240288152D01*
X291220238Y-240288152D02*
X291363095Y-240335771D01*
X291696429Y-240288152D02*
X291934524Y-241288152D01*
X291934524Y-241288152D02*
X292125000Y-240573866D01*
X292125000Y-240573866D02*
X292315476Y-241288152D01*
X292315476Y-241288152D02*
X292553572Y-240288152D01*
X293458333Y-241288152D02*
X292886905Y-241288152D01*
X293172619Y-241288152D02*
X293172619Y-240288152D01*
X293172619Y-240288152D02*
X293077381Y-240431009D01*
X293077381Y-240431009D02*
X292982143Y-240526247D01*
X292982143Y-240526247D02*
X292886905Y-240573866D01*
X149061904Y-249721485D02*
X149061904Y-250531008D01*
X149061904Y-250531008D02*
X149109523Y-250626246D01*
X149109523Y-250626246D02*
X149157142Y-250673866D01*
X149157142Y-250673866D02*
X149252380Y-250721485D01*
X149252380Y-250721485D02*
X149442856Y-250721485D01*
X149442856Y-250721485D02*
X149538094Y-250673866D01*
X149538094Y-250673866D02*
X149585713Y-250626246D01*
X149585713Y-250626246D02*
X149633332Y-250531008D01*
X149633332Y-250531008D02*
X149633332Y-249721485D01*
X150633332Y-250721485D02*
X150061904Y-250721485D01*
X150347618Y-250721485D02*
X150347618Y-249721485D01*
X150347618Y-249721485D02*
X150252380Y-249864342D01*
X150252380Y-249864342D02*
X150157142Y-249959580D01*
X150157142Y-249959580D02*
X150061904Y-250007199D01*
X151014285Y-249816723D02*
X151061904Y-249769104D01*
X151061904Y-249769104D02*
X151157142Y-249721485D01*
X151157142Y-249721485D02*
X151395237Y-249721485D01*
X151395237Y-249721485D02*
X151490475Y-249769104D01*
X151490475Y-249769104D02*
X151538094Y-249816723D01*
X151538094Y-249816723D02*
X151585713Y-249911961D01*
X151585713Y-249911961D02*
X151585713Y-250007199D01*
X151585713Y-250007199D02*
X151538094Y-250150056D01*
X151538094Y-250150056D02*
X150966666Y-250721485D01*
X150966666Y-250721485D02*
X151585713Y-250721485D01*
X77363095Y-276806819D02*
X77934523Y-276806819D01*
X77648809Y-277806819D02*
X77648809Y-276806819D01*
X78267857Y-277806819D02*
X78267857Y-276806819D01*
X78267857Y-276806819D02*
X78648809Y-276806819D01*
X78648809Y-276806819D02*
X78744047Y-276854438D01*
X78744047Y-276854438D02*
X78791666Y-276902057D01*
X78791666Y-276902057D02*
X78839285Y-276997295D01*
X78839285Y-276997295D02*
X78839285Y-277140152D01*
X78839285Y-277140152D02*
X78791666Y-277235390D01*
X78791666Y-277235390D02*
X78744047Y-277283009D01*
X78744047Y-277283009D02*
X78648809Y-277330628D01*
X78648809Y-277330628D02*
X78267857Y-277330628D01*
X79696428Y-277140152D02*
X79696428Y-277806819D01*
X79458333Y-276759200D02*
X79220238Y-277473485D01*
X79220238Y-277473485D02*
X79839285Y-277473485D01*
X47386905Y-205024819D02*
X47386905Y-204024819D01*
X47386905Y-204024819D02*
X47625000Y-204024819D01*
X47625000Y-204024819D02*
X47767857Y-204072438D01*
X47767857Y-204072438D02*
X47863095Y-204167676D01*
X47863095Y-204167676D02*
X47910714Y-204262914D01*
X47910714Y-204262914D02*
X47958333Y-204453390D01*
X47958333Y-204453390D02*
X47958333Y-204596247D01*
X47958333Y-204596247D02*
X47910714Y-204786723D01*
X47910714Y-204786723D02*
X47863095Y-204881961D01*
X47863095Y-204881961D02*
X47767857Y-204977200D01*
X47767857Y-204977200D02*
X47625000Y-205024819D01*
X47625000Y-205024819D02*
X47386905Y-205024819D01*
X48291667Y-204024819D02*
X48910714Y-204024819D01*
X48910714Y-204024819D02*
X48577381Y-204405771D01*
X48577381Y-204405771D02*
X48720238Y-204405771D01*
X48720238Y-204405771D02*
X48815476Y-204453390D01*
X48815476Y-204453390D02*
X48863095Y-204501009D01*
X48863095Y-204501009D02*
X48910714Y-204596247D01*
X48910714Y-204596247D02*
X48910714Y-204834342D01*
X48910714Y-204834342D02*
X48863095Y-204929580D01*
X48863095Y-204929580D02*
X48815476Y-204977200D01*
X48815476Y-204977200D02*
X48720238Y-205024819D01*
X48720238Y-205024819D02*
X48434524Y-205024819D01*
X48434524Y-205024819D02*
X48339286Y-204977200D01*
X48339286Y-204977200D02*
X48291667Y-204929580D01*
X47148809Y-214618152D02*
X46815476Y-214141961D01*
X46577381Y-214618152D02*
X46577381Y-213618152D01*
X46577381Y-213618152D02*
X46958333Y-213618152D01*
X46958333Y-213618152D02*
X47053571Y-213665771D01*
X47053571Y-213665771D02*
X47101190Y-213713390D01*
X47101190Y-213713390D02*
X47148809Y-213808628D01*
X47148809Y-213808628D02*
X47148809Y-213951485D01*
X47148809Y-213951485D02*
X47101190Y-214046723D01*
X47101190Y-214046723D02*
X47053571Y-214094342D01*
X47053571Y-214094342D02*
X46958333Y-214141961D01*
X46958333Y-214141961D02*
X46577381Y-214141961D01*
X48053571Y-213618152D02*
X47577381Y-213618152D01*
X47577381Y-213618152D02*
X47529762Y-214094342D01*
X47529762Y-214094342D02*
X47577381Y-214046723D01*
X47577381Y-214046723D02*
X47672619Y-213999104D01*
X47672619Y-213999104D02*
X47910714Y-213999104D01*
X47910714Y-213999104D02*
X48005952Y-214046723D01*
X48005952Y-214046723D02*
X48053571Y-214094342D01*
X48053571Y-214094342D02*
X48101190Y-214189580D01*
X48101190Y-214189580D02*
X48101190Y-214427675D01*
X48101190Y-214427675D02*
X48053571Y-214522913D01*
X48053571Y-214522913D02*
X48005952Y-214570533D01*
X48005952Y-214570533D02*
X47910714Y-214618152D01*
X47910714Y-214618152D02*
X47672619Y-214618152D01*
X47672619Y-214618152D02*
X47577381Y-214570533D01*
X47577381Y-214570533D02*
X47529762Y-214522913D01*
X48291667Y-214713390D02*
X49053571Y-214713390D01*
X49720238Y-214570533D02*
X49625000Y-214618152D01*
X49625000Y-214618152D02*
X49434524Y-214618152D01*
X49434524Y-214618152D02*
X49339286Y-214570533D01*
X49339286Y-214570533D02*
X49291667Y-214522913D01*
X49291667Y-214522913D02*
X49244048Y-214427675D01*
X49244048Y-214427675D02*
X49244048Y-214141961D01*
X49244048Y-214141961D02*
X49291667Y-214046723D01*
X49291667Y-214046723D02*
X49339286Y-213999104D01*
X49339286Y-213999104D02*
X49434524Y-213951485D01*
X49434524Y-213951485D02*
X49625000Y-213951485D01*
X49625000Y-213951485D02*
X49720238Y-213999104D01*
X230505952Y-208932913D02*
X230458333Y-208980533D01*
X230458333Y-208980533D02*
X230315476Y-209028152D01*
X230315476Y-209028152D02*
X230220238Y-209028152D01*
X230220238Y-209028152D02*
X230077381Y-208980533D01*
X230077381Y-208980533D02*
X229982143Y-208885294D01*
X229982143Y-208885294D02*
X229934524Y-208790056D01*
X229934524Y-208790056D02*
X229886905Y-208599580D01*
X229886905Y-208599580D02*
X229886905Y-208456723D01*
X229886905Y-208456723D02*
X229934524Y-208266247D01*
X229934524Y-208266247D02*
X229982143Y-208171009D01*
X229982143Y-208171009D02*
X230077381Y-208075771D01*
X230077381Y-208075771D02*
X230220238Y-208028152D01*
X230220238Y-208028152D02*
X230315476Y-208028152D01*
X230315476Y-208028152D02*
X230458333Y-208075771D01*
X230458333Y-208075771D02*
X230505952Y-208123390D01*
X231410714Y-208028152D02*
X230934524Y-208028152D01*
X230934524Y-208028152D02*
X230886905Y-208504342D01*
X230886905Y-208504342D02*
X230934524Y-208456723D01*
X230934524Y-208456723D02*
X231029762Y-208409104D01*
X231029762Y-208409104D02*
X231267857Y-208409104D01*
X231267857Y-208409104D02*
X231363095Y-208456723D01*
X231363095Y-208456723D02*
X231410714Y-208504342D01*
X231410714Y-208504342D02*
X231458333Y-208599580D01*
X231458333Y-208599580D02*
X231458333Y-208837675D01*
X231458333Y-208837675D02*
X231410714Y-208932913D01*
X231410714Y-208932913D02*
X231363095Y-208980533D01*
X231363095Y-208980533D02*
X231267857Y-209028152D01*
X231267857Y-209028152D02*
X231029762Y-209028152D01*
X231029762Y-209028152D02*
X230934524Y-208980533D01*
X230934524Y-208980533D02*
X230886905Y-208932913D01*
X231886905Y-209028152D02*
X231886905Y-208028152D01*
X231886905Y-208409104D02*
X231982143Y-208361485D01*
X231982143Y-208361485D02*
X232172619Y-208361485D01*
X232172619Y-208361485D02*
X232267857Y-208409104D01*
X232267857Y-208409104D02*
X232315476Y-208456723D01*
X232315476Y-208456723D02*
X232363095Y-208551961D01*
X232363095Y-208551961D02*
X232363095Y-208837675D01*
X232363095Y-208837675D02*
X232315476Y-208932913D01*
X232315476Y-208932913D02*
X232267857Y-208980533D01*
X232267857Y-208980533D02*
X232172619Y-209028152D01*
X232172619Y-209028152D02*
X231982143Y-209028152D01*
X231982143Y-209028152D02*
X231886905Y-208980533D01*
X149657141Y-78266246D02*
X149609522Y-78313866D01*
X149609522Y-78313866D02*
X149466665Y-78361485D01*
X149466665Y-78361485D02*
X149371427Y-78361485D01*
X149371427Y-78361485D02*
X149228570Y-78313866D01*
X149228570Y-78313866D02*
X149133332Y-78218627D01*
X149133332Y-78218627D02*
X149085713Y-78123389D01*
X149085713Y-78123389D02*
X149038094Y-77932913D01*
X149038094Y-77932913D02*
X149038094Y-77790056D01*
X149038094Y-77790056D02*
X149085713Y-77599580D01*
X149085713Y-77599580D02*
X149133332Y-77504342D01*
X149133332Y-77504342D02*
X149228570Y-77409104D01*
X149228570Y-77409104D02*
X149371427Y-77361485D01*
X149371427Y-77361485D02*
X149466665Y-77361485D01*
X149466665Y-77361485D02*
X149609522Y-77409104D01*
X149609522Y-77409104D02*
X149657141Y-77456723D01*
X149990475Y-77361485D02*
X150609522Y-77361485D01*
X150609522Y-77361485D02*
X150276189Y-77742437D01*
X150276189Y-77742437D02*
X150419046Y-77742437D01*
X150419046Y-77742437D02*
X150514284Y-77790056D01*
X150514284Y-77790056D02*
X150561903Y-77837675D01*
X150561903Y-77837675D02*
X150609522Y-77932913D01*
X150609522Y-77932913D02*
X150609522Y-78171008D01*
X150609522Y-78171008D02*
X150561903Y-78266246D01*
X150561903Y-78266246D02*
X150514284Y-78313866D01*
X150514284Y-78313866D02*
X150419046Y-78361485D01*
X150419046Y-78361485D02*
X150133332Y-78361485D01*
X150133332Y-78361485D02*
X150038094Y-78313866D01*
X150038094Y-78313866D02*
X149990475Y-78266246D01*
X151180951Y-77790056D02*
X151085713Y-77742437D01*
X151085713Y-77742437D02*
X151038094Y-77694818D01*
X151038094Y-77694818D02*
X150990475Y-77599580D01*
X150990475Y-77599580D02*
X150990475Y-77551961D01*
X150990475Y-77551961D02*
X151038094Y-77456723D01*
X151038094Y-77456723D02*
X151085713Y-77409104D01*
X151085713Y-77409104D02*
X151180951Y-77361485D01*
X151180951Y-77361485D02*
X151371427Y-77361485D01*
X151371427Y-77361485D02*
X151466665Y-77409104D01*
X151466665Y-77409104D02*
X151514284Y-77456723D01*
X151514284Y-77456723D02*
X151561903Y-77551961D01*
X151561903Y-77551961D02*
X151561903Y-77599580D01*
X151561903Y-77599580D02*
X151514284Y-77694818D01*
X151514284Y-77694818D02*
X151466665Y-77742437D01*
X151466665Y-77742437D02*
X151371427Y-77790056D01*
X151371427Y-77790056D02*
X151180951Y-77790056D01*
X151180951Y-77790056D02*
X151085713Y-77837675D01*
X151085713Y-77837675D02*
X151038094Y-77885294D01*
X151038094Y-77885294D02*
X150990475Y-77980532D01*
X150990475Y-77980532D02*
X150990475Y-78171008D01*
X150990475Y-78171008D02*
X151038094Y-78266246D01*
X151038094Y-78266246D02*
X151085713Y-78313866D01*
X151085713Y-78313866D02*
X151180951Y-78361485D01*
X151180951Y-78361485D02*
X151371427Y-78361485D01*
X151371427Y-78361485D02*
X151466665Y-78313866D01*
X151466665Y-78313866D02*
X151514284Y-78266246D01*
X151514284Y-78266246D02*
X151561903Y-78171008D01*
X151561903Y-78171008D02*
X151561903Y-77980532D01*
X151561903Y-77980532D02*
X151514284Y-77885294D01*
X151514284Y-77885294D02*
X151466665Y-77837675D01*
X151466665Y-77837675D02*
X151371427Y-77790056D01*
X210680951Y-182884819D02*
X210347618Y-182408628D01*
X210109523Y-182884819D02*
X210109523Y-181884819D01*
X210109523Y-181884819D02*
X210490475Y-181884819D01*
X210490475Y-181884819D02*
X210585713Y-181932438D01*
X210585713Y-181932438D02*
X210633332Y-181980057D01*
X210633332Y-181980057D02*
X210680951Y-182075295D01*
X210680951Y-182075295D02*
X210680951Y-182218152D01*
X210680951Y-182218152D02*
X210633332Y-182313390D01*
X210633332Y-182313390D02*
X210585713Y-182361009D01*
X210585713Y-182361009D02*
X210490475Y-182408628D01*
X210490475Y-182408628D02*
X210109523Y-182408628D01*
X211633332Y-182884819D02*
X211061904Y-182884819D01*
X211347618Y-182884819D02*
X211347618Y-181884819D01*
X211347618Y-181884819D02*
X211252380Y-182027676D01*
X211252380Y-182027676D02*
X211157142Y-182122914D01*
X211157142Y-182122914D02*
X211061904Y-182170533D01*
X212490475Y-182884819D02*
X212490475Y-182361009D01*
X212490475Y-182361009D02*
X212442856Y-182265771D01*
X212442856Y-182265771D02*
X212347618Y-182218152D01*
X212347618Y-182218152D02*
X212157142Y-182218152D01*
X212157142Y-182218152D02*
X212061904Y-182265771D01*
X212490475Y-182837200D02*
X212395237Y-182884819D01*
X212395237Y-182884819D02*
X212157142Y-182884819D01*
X212157142Y-182884819D02*
X212061904Y-182837200D01*
X212061904Y-182837200D02*
X212014285Y-182741961D01*
X212014285Y-182741961D02*
X212014285Y-182646723D01*
X212014285Y-182646723D02*
X212061904Y-182551485D01*
X212061904Y-182551485D02*
X212157142Y-182503866D01*
X212157142Y-182503866D02*
X212395237Y-182503866D01*
X212395237Y-182503866D02*
X212490475Y-182456247D01*
X39761905Y-205024819D02*
X39761905Y-204024819D01*
X39761905Y-204024819D02*
X40000000Y-204024819D01*
X40000000Y-204024819D02*
X40142857Y-204072438D01*
X40142857Y-204072438D02*
X40238095Y-204167676D01*
X40238095Y-204167676D02*
X40285714Y-204262914D01*
X40285714Y-204262914D02*
X40333333Y-204453390D01*
X40333333Y-204453390D02*
X40333333Y-204596247D01*
X40333333Y-204596247D02*
X40285714Y-204786723D01*
X40285714Y-204786723D02*
X40238095Y-204881961D01*
X40238095Y-204881961D02*
X40142857Y-204977200D01*
X40142857Y-204977200D02*
X40000000Y-205024819D01*
X40000000Y-205024819D02*
X39761905Y-205024819D01*
X40714286Y-204120057D02*
X40761905Y-204072438D01*
X40761905Y-204072438D02*
X40857143Y-204024819D01*
X40857143Y-204024819D02*
X41095238Y-204024819D01*
X41095238Y-204024819D02*
X41190476Y-204072438D01*
X41190476Y-204072438D02*
X41238095Y-204120057D01*
X41238095Y-204120057D02*
X41285714Y-204215295D01*
X41285714Y-204215295D02*
X41285714Y-204310533D01*
X41285714Y-204310533D02*
X41238095Y-204453390D01*
X41238095Y-204453390D02*
X40666667Y-205024819D01*
X40666667Y-205024819D02*
X41285714Y-205024819D01*
X107863095Y-276806819D02*
X108434523Y-276806819D01*
X108148809Y-277806819D02*
X108148809Y-276806819D01*
X108767857Y-277806819D02*
X108767857Y-276806819D01*
X108767857Y-276806819D02*
X109148809Y-276806819D01*
X109148809Y-276806819D02*
X109244047Y-276854438D01*
X109244047Y-276854438D02*
X109291666Y-276902057D01*
X109291666Y-276902057D02*
X109339285Y-276997295D01*
X109339285Y-276997295D02*
X109339285Y-277140152D01*
X109339285Y-277140152D02*
X109291666Y-277235390D01*
X109291666Y-277235390D02*
X109244047Y-277283009D01*
X109244047Y-277283009D02*
X109148809Y-277330628D01*
X109148809Y-277330628D02*
X108767857Y-277330628D01*
X110196428Y-276806819D02*
X110005952Y-276806819D01*
X110005952Y-276806819D02*
X109910714Y-276854438D01*
X109910714Y-276854438D02*
X109863095Y-276902057D01*
X109863095Y-276902057D02*
X109767857Y-277044914D01*
X109767857Y-277044914D02*
X109720238Y-277235390D01*
X109720238Y-277235390D02*
X109720238Y-277616342D01*
X109720238Y-277616342D02*
X109767857Y-277711580D01*
X109767857Y-277711580D02*
X109815476Y-277759200D01*
X109815476Y-277759200D02*
X109910714Y-277806819D01*
X109910714Y-277806819D02*
X110101190Y-277806819D01*
X110101190Y-277806819D02*
X110196428Y-277759200D01*
X110196428Y-277759200D02*
X110244047Y-277711580D01*
X110244047Y-277711580D02*
X110291666Y-277616342D01*
X110291666Y-277616342D02*
X110291666Y-277378247D01*
X110291666Y-277378247D02*
X110244047Y-277283009D01*
X110244047Y-277283009D02*
X110196428Y-277235390D01*
X110196428Y-277235390D02*
X110101190Y-277187771D01*
X110101190Y-277187771D02*
X109910714Y-277187771D01*
X109910714Y-277187771D02*
X109815476Y-277235390D01*
X109815476Y-277235390D02*
X109767857Y-277283009D01*
X109767857Y-277283009D02*
X109720238Y-277378247D01*
X207011905Y-145124819D02*
X207011905Y-145934342D01*
X207011905Y-145934342D02*
X207059524Y-146029580D01*
X207059524Y-146029580D02*
X207107143Y-146077200D01*
X207107143Y-146077200D02*
X207202381Y-146124819D01*
X207202381Y-146124819D02*
X207392857Y-146124819D01*
X207392857Y-146124819D02*
X207488095Y-146077200D01*
X207488095Y-146077200D02*
X207535714Y-146029580D01*
X207535714Y-146029580D02*
X207583333Y-145934342D01*
X207583333Y-145934342D02*
X207583333Y-145124819D01*
X208011905Y-145220057D02*
X208059524Y-145172438D01*
X208059524Y-145172438D02*
X208154762Y-145124819D01*
X208154762Y-145124819D02*
X208392857Y-145124819D01*
X208392857Y-145124819D02*
X208488095Y-145172438D01*
X208488095Y-145172438D02*
X208535714Y-145220057D01*
X208535714Y-145220057D02*
X208583333Y-145315295D01*
X208583333Y-145315295D02*
X208583333Y-145410533D01*
X208583333Y-145410533D02*
X208535714Y-145553390D01*
X208535714Y-145553390D02*
X207964286Y-146124819D01*
X207964286Y-146124819D02*
X208583333Y-146124819D01*
X209202381Y-145124819D02*
X209297619Y-145124819D01*
X209297619Y-145124819D02*
X209392857Y-145172438D01*
X209392857Y-145172438D02*
X209440476Y-145220057D01*
X209440476Y-145220057D02*
X209488095Y-145315295D01*
X209488095Y-145315295D02*
X209535714Y-145505771D01*
X209535714Y-145505771D02*
X209535714Y-145743866D01*
X209535714Y-145743866D02*
X209488095Y-145934342D01*
X209488095Y-145934342D02*
X209440476Y-146029580D01*
X209440476Y-146029580D02*
X209392857Y-146077200D01*
X209392857Y-146077200D02*
X209297619Y-146124819D01*
X209297619Y-146124819D02*
X209202381Y-146124819D01*
X209202381Y-146124819D02*
X209107143Y-146077200D01*
X209107143Y-146077200D02*
X209059524Y-146029580D01*
X209059524Y-146029580D02*
X209011905Y-145934342D01*
X209011905Y-145934342D02*
X208964286Y-145743866D01*
X208964286Y-145743866D02*
X208964286Y-145505771D01*
X208964286Y-145505771D02*
X209011905Y-145315295D01*
X209011905Y-145315295D02*
X209059524Y-145220057D01*
X209059524Y-145220057D02*
X209107143Y-145172438D01*
X209107143Y-145172438D02*
X209202381Y-145124819D01*
X169482142Y-78266246D02*
X169434523Y-78313866D01*
X169434523Y-78313866D02*
X169291666Y-78361485D01*
X169291666Y-78361485D02*
X169196428Y-78361485D01*
X169196428Y-78361485D02*
X169053571Y-78313866D01*
X169053571Y-78313866D02*
X168958333Y-78218627D01*
X168958333Y-78218627D02*
X168910714Y-78123389D01*
X168910714Y-78123389D02*
X168863095Y-77932913D01*
X168863095Y-77932913D02*
X168863095Y-77790056D01*
X168863095Y-77790056D02*
X168910714Y-77599580D01*
X168910714Y-77599580D02*
X168958333Y-77504342D01*
X168958333Y-77504342D02*
X169053571Y-77409104D01*
X169053571Y-77409104D02*
X169196428Y-77361485D01*
X169196428Y-77361485D02*
X169291666Y-77361485D01*
X169291666Y-77361485D02*
X169434523Y-77409104D01*
X169434523Y-77409104D02*
X169482142Y-77456723D01*
X170339285Y-77694818D02*
X170339285Y-78361485D01*
X170101190Y-77313866D02*
X169863095Y-78028151D01*
X169863095Y-78028151D02*
X170482142Y-78028151D01*
X171053571Y-77361485D02*
X171148809Y-77361485D01*
X171148809Y-77361485D02*
X171244047Y-77409104D01*
X171244047Y-77409104D02*
X171291666Y-77456723D01*
X171291666Y-77456723D02*
X171339285Y-77551961D01*
X171339285Y-77551961D02*
X171386904Y-77742437D01*
X171386904Y-77742437D02*
X171386904Y-77980532D01*
X171386904Y-77980532D02*
X171339285Y-78171008D01*
X171339285Y-78171008D02*
X171291666Y-78266246D01*
X171291666Y-78266246D02*
X171244047Y-78313866D01*
X171244047Y-78313866D02*
X171148809Y-78361485D01*
X171148809Y-78361485D02*
X171053571Y-78361485D01*
X171053571Y-78361485D02*
X170958333Y-78313866D01*
X170958333Y-78313866D02*
X170910714Y-78266246D01*
X170910714Y-78266246D02*
X170863095Y-78171008D01*
X170863095Y-78171008D02*
X170815476Y-77980532D01*
X170815476Y-77980532D02*
X170815476Y-77742437D01*
X170815476Y-77742437D02*
X170863095Y-77551961D01*
X170863095Y-77551961D02*
X170910714Y-77456723D01*
X170910714Y-77456723D02*
X170958333Y-77409104D01*
X170958333Y-77409104D02*
X171053571Y-77361485D01*
X88061905Y-249721485D02*
X88061905Y-250531008D01*
X88061905Y-250531008D02*
X88109524Y-250626246D01*
X88109524Y-250626246D02*
X88157143Y-250673866D01*
X88157143Y-250673866D02*
X88252381Y-250721485D01*
X88252381Y-250721485D02*
X88442857Y-250721485D01*
X88442857Y-250721485D02*
X88538095Y-250673866D01*
X88538095Y-250673866D02*
X88585714Y-250626246D01*
X88585714Y-250626246D02*
X88633333Y-250531008D01*
X88633333Y-250531008D02*
X88633333Y-249721485D01*
X89633333Y-250721485D02*
X89061905Y-250721485D01*
X89347619Y-250721485D02*
X89347619Y-249721485D01*
X89347619Y-249721485D02*
X89252381Y-249864342D01*
X89252381Y-249864342D02*
X89157143Y-249959580D01*
X89157143Y-249959580D02*
X89061905Y-250007199D01*
X89966667Y-249721485D02*
X90585714Y-249721485D01*
X90585714Y-249721485D02*
X90252381Y-250102437D01*
X90252381Y-250102437D02*
X90395238Y-250102437D01*
X90395238Y-250102437D02*
X90490476Y-250150056D01*
X90490476Y-250150056D02*
X90538095Y-250197675D01*
X90538095Y-250197675D02*
X90585714Y-250292913D01*
X90585714Y-250292913D02*
X90585714Y-250531008D01*
X90585714Y-250531008D02*
X90538095Y-250626246D01*
X90538095Y-250626246D02*
X90490476Y-250673866D01*
X90490476Y-250673866D02*
X90395238Y-250721485D01*
X90395238Y-250721485D02*
X90109524Y-250721485D01*
X90109524Y-250721485D02*
X90014286Y-250673866D01*
X90014286Y-250673866D02*
X89966667Y-250626246D01*
X307566667Y-278788152D02*
X307566667Y-277788152D01*
X307566667Y-277788152D02*
X307900000Y-278502437D01*
X307900000Y-278502437D02*
X308233333Y-277788152D01*
X308233333Y-277788152D02*
X308233333Y-278788152D01*
X308709524Y-278788152D02*
X308709524Y-277788152D01*
X308709524Y-278264342D02*
X309280952Y-278264342D01*
X309280952Y-278788152D02*
X309280952Y-277788152D01*
X310185714Y-278121485D02*
X310185714Y-278788152D01*
X309947619Y-277740533D02*
X309709524Y-278454818D01*
X309709524Y-278454818D02*
X310328571Y-278454818D01*
X40166666Y-260281009D02*
X39833333Y-260281009D01*
X39833333Y-260804819D02*
X39833333Y-259804819D01*
X39833333Y-259804819D02*
X40309523Y-259804819D01*
X41214285Y-260804819D02*
X40642857Y-260804819D01*
X40928571Y-260804819D02*
X40928571Y-259804819D01*
X40928571Y-259804819D02*
X40833333Y-259947676D01*
X40833333Y-259947676D02*
X40738095Y-260042914D01*
X40738095Y-260042914D02*
X40642857Y-260090533D01*
X174057142Y-154799580D02*
X174009523Y-154847200D01*
X174009523Y-154847200D02*
X173866666Y-154894819D01*
X173866666Y-154894819D02*
X173771428Y-154894819D01*
X173771428Y-154894819D02*
X173628571Y-154847200D01*
X173628571Y-154847200D02*
X173533333Y-154751961D01*
X173533333Y-154751961D02*
X173485714Y-154656723D01*
X173485714Y-154656723D02*
X173438095Y-154466247D01*
X173438095Y-154466247D02*
X173438095Y-154323390D01*
X173438095Y-154323390D02*
X173485714Y-154132914D01*
X173485714Y-154132914D02*
X173533333Y-154037676D01*
X173533333Y-154037676D02*
X173628571Y-153942438D01*
X173628571Y-153942438D02*
X173771428Y-153894819D01*
X173771428Y-153894819D02*
X173866666Y-153894819D01*
X173866666Y-153894819D02*
X174009523Y-153942438D01*
X174009523Y-153942438D02*
X174057142Y-153990057D01*
X174390476Y-153894819D02*
X175009523Y-153894819D01*
X175009523Y-153894819D02*
X174676190Y-154275771D01*
X174676190Y-154275771D02*
X174819047Y-154275771D01*
X174819047Y-154275771D02*
X174914285Y-154323390D01*
X174914285Y-154323390D02*
X174961904Y-154371009D01*
X174961904Y-154371009D02*
X175009523Y-154466247D01*
X175009523Y-154466247D02*
X175009523Y-154704342D01*
X175009523Y-154704342D02*
X174961904Y-154799580D01*
X174961904Y-154799580D02*
X174914285Y-154847200D01*
X174914285Y-154847200D02*
X174819047Y-154894819D01*
X174819047Y-154894819D02*
X174533333Y-154894819D01*
X174533333Y-154894819D02*
X174438095Y-154847200D01*
X174438095Y-154847200D02*
X174390476Y-154799580D01*
X175342857Y-153894819D02*
X176009523Y-153894819D01*
X176009523Y-153894819D02*
X175580952Y-154894819D01*
X20416666Y-255704819D02*
X20416666Y-256419104D01*
X20416666Y-256419104D02*
X20369047Y-256561961D01*
X20369047Y-256561961D02*
X20273809Y-256657200D01*
X20273809Y-256657200D02*
X20130952Y-256704819D01*
X20130952Y-256704819D02*
X20035714Y-256704819D01*
X21416666Y-256704819D02*
X20845238Y-256704819D01*
X21130952Y-256704819D02*
X21130952Y-255704819D01*
X21130952Y-255704819D02*
X21035714Y-255847676D01*
X21035714Y-255847676D02*
X20940476Y-255942914D01*
X20940476Y-255942914D02*
X20845238Y-255990533D01*
X133811905Y-249721485D02*
X133811905Y-250531008D01*
X133811905Y-250531008D02*
X133859524Y-250626246D01*
X133859524Y-250626246D02*
X133907143Y-250673866D01*
X133907143Y-250673866D02*
X134002381Y-250721485D01*
X134002381Y-250721485D02*
X134192857Y-250721485D01*
X134192857Y-250721485D02*
X134288095Y-250673866D01*
X134288095Y-250673866D02*
X134335714Y-250626246D01*
X134335714Y-250626246D02*
X134383333Y-250531008D01*
X134383333Y-250531008D02*
X134383333Y-249721485D01*
X135383333Y-250721485D02*
X134811905Y-250721485D01*
X135097619Y-250721485D02*
X135097619Y-249721485D01*
X135097619Y-249721485D02*
X135002381Y-249864342D01*
X135002381Y-249864342D02*
X134907143Y-249959580D01*
X134907143Y-249959580D02*
X134811905Y-250007199D01*
X136002381Y-249721485D02*
X136097619Y-249721485D01*
X136097619Y-249721485D02*
X136192857Y-249769104D01*
X136192857Y-249769104D02*
X136240476Y-249816723D01*
X136240476Y-249816723D02*
X136288095Y-249911961D01*
X136288095Y-249911961D02*
X136335714Y-250102437D01*
X136335714Y-250102437D02*
X136335714Y-250340532D01*
X136335714Y-250340532D02*
X136288095Y-250531008D01*
X136288095Y-250531008D02*
X136240476Y-250626246D01*
X136240476Y-250626246D02*
X136192857Y-250673866D01*
X136192857Y-250673866D02*
X136097619Y-250721485D01*
X136097619Y-250721485D02*
X136002381Y-250721485D01*
X136002381Y-250721485D02*
X135907143Y-250673866D01*
X135907143Y-250673866D02*
X135859524Y-250626246D01*
X135859524Y-250626246D02*
X135811905Y-250531008D01*
X135811905Y-250531008D02*
X135764286Y-250340532D01*
X135764286Y-250340532D02*
X135764286Y-250102437D01*
X135764286Y-250102437D02*
X135811905Y-249911961D01*
X135811905Y-249911961D02*
X135859524Y-249816723D01*
X135859524Y-249816723D02*
X135907143Y-249769104D01*
X135907143Y-249769104D02*
X136002381Y-249721485D01*
X14766667Y-278788152D02*
X14766667Y-277788152D01*
X14766667Y-277788152D02*
X15100000Y-278502437D01*
X15100000Y-278502437D02*
X15433333Y-277788152D01*
X15433333Y-277788152D02*
X15433333Y-278788152D01*
X15909524Y-278788152D02*
X15909524Y-277788152D01*
X15909524Y-278264342D02*
X16480952Y-278264342D01*
X16480952Y-278788152D02*
X16480952Y-277788152D01*
X16861905Y-277788152D02*
X17480952Y-277788152D01*
X17480952Y-277788152D02*
X17147619Y-278169104D01*
X17147619Y-278169104D02*
X17290476Y-278169104D01*
X17290476Y-278169104D02*
X17385714Y-278216723D01*
X17385714Y-278216723D02*
X17433333Y-278264342D01*
X17433333Y-278264342D02*
X17480952Y-278359580D01*
X17480952Y-278359580D02*
X17480952Y-278597675D01*
X17480952Y-278597675D02*
X17433333Y-278692913D01*
X17433333Y-278692913D02*
X17385714Y-278740533D01*
X17385714Y-278740533D02*
X17290476Y-278788152D01*
X17290476Y-278788152D02*
X17004762Y-278788152D01*
X17004762Y-278788152D02*
X16909524Y-278740533D01*
X16909524Y-278740533D02*
X16861905Y-278692913D01*
X67783332Y-257298152D02*
X67307142Y-257298152D01*
X67307142Y-257298152D02*
X67307142Y-256298152D01*
X68640475Y-257298152D02*
X68069047Y-257298152D01*
X68354761Y-257298152D02*
X68354761Y-256298152D01*
X68354761Y-256298152D02*
X68259523Y-256441009D01*
X68259523Y-256441009D02*
X68164285Y-256536247D01*
X68164285Y-256536247D02*
X68069047Y-256583866D01*
X100023809Y-108132913D02*
X99976190Y-108180533D01*
X99976190Y-108180533D02*
X99833333Y-108228152D01*
X99833333Y-108228152D02*
X99738095Y-108228152D01*
X99738095Y-108228152D02*
X99595238Y-108180533D01*
X99595238Y-108180533D02*
X99500000Y-108085294D01*
X99500000Y-108085294D02*
X99452381Y-107990056D01*
X99452381Y-107990056D02*
X99404762Y-107799580D01*
X99404762Y-107799580D02*
X99404762Y-107656723D01*
X99404762Y-107656723D02*
X99452381Y-107466247D01*
X99452381Y-107466247D02*
X99500000Y-107371009D01*
X99500000Y-107371009D02*
X99595238Y-107275771D01*
X99595238Y-107275771D02*
X99738095Y-107228152D01*
X99738095Y-107228152D02*
X99833333Y-107228152D01*
X99833333Y-107228152D02*
X99976190Y-107275771D01*
X99976190Y-107275771D02*
X100023809Y-107323390D01*
X100976190Y-108228152D02*
X100404762Y-108228152D01*
X100690476Y-108228152D02*
X100690476Y-107228152D01*
X100690476Y-107228152D02*
X100595238Y-107371009D01*
X100595238Y-107371009D02*
X100500000Y-107466247D01*
X100500000Y-107466247D02*
X100404762Y-107513866D01*
X101595238Y-107228152D02*
X101690476Y-107228152D01*
X101690476Y-107228152D02*
X101785714Y-107275771D01*
X101785714Y-107275771D02*
X101833333Y-107323390D01*
X101833333Y-107323390D02*
X101880952Y-107418628D01*
X101880952Y-107418628D02*
X101928571Y-107609104D01*
X101928571Y-107609104D02*
X101928571Y-107847199D01*
X101928571Y-107847199D02*
X101880952Y-108037675D01*
X101880952Y-108037675D02*
X101833333Y-108132913D01*
X101833333Y-108132913D02*
X101785714Y-108180533D01*
X101785714Y-108180533D02*
X101690476Y-108228152D01*
X101690476Y-108228152D02*
X101595238Y-108228152D01*
X101595238Y-108228152D02*
X101500000Y-108180533D01*
X101500000Y-108180533D02*
X101452381Y-108132913D01*
X101452381Y-108132913D02*
X101404762Y-108037675D01*
X101404762Y-108037675D02*
X101357143Y-107847199D01*
X101357143Y-107847199D02*
X101357143Y-107609104D01*
X101357143Y-107609104D02*
X101404762Y-107418628D01*
X101404762Y-107418628D02*
X101452381Y-107323390D01*
X101452381Y-107323390D02*
X101500000Y-107275771D01*
X101500000Y-107275771D02*
X101595238Y-107228152D01*
X102119048Y-108323390D02*
X102880952Y-108323390D01*
X103547619Y-108228152D02*
X103547619Y-107704342D01*
X103547619Y-107704342D02*
X103500000Y-107609104D01*
X103500000Y-107609104D02*
X103404762Y-107561485D01*
X103404762Y-107561485D02*
X103214286Y-107561485D01*
X103214286Y-107561485D02*
X103119048Y-107609104D01*
X103547619Y-108180533D02*
X103452381Y-108228152D01*
X103452381Y-108228152D02*
X103214286Y-108228152D01*
X103214286Y-108228152D02*
X103119048Y-108180533D01*
X103119048Y-108180533D02*
X103071429Y-108085294D01*
X103071429Y-108085294D02*
X103071429Y-107990056D01*
X103071429Y-107990056D02*
X103119048Y-107894818D01*
X103119048Y-107894818D02*
X103214286Y-107847199D01*
X103214286Y-107847199D02*
X103452381Y-107847199D01*
X103452381Y-107847199D02*
X103547619Y-107799580D01*
X32136905Y-205024819D02*
X32136905Y-204024819D01*
X32136905Y-204024819D02*
X32375000Y-204024819D01*
X32375000Y-204024819D02*
X32517857Y-204072438D01*
X32517857Y-204072438D02*
X32613095Y-204167676D01*
X32613095Y-204167676D02*
X32660714Y-204262914D01*
X32660714Y-204262914D02*
X32708333Y-204453390D01*
X32708333Y-204453390D02*
X32708333Y-204596247D01*
X32708333Y-204596247D02*
X32660714Y-204786723D01*
X32660714Y-204786723D02*
X32613095Y-204881961D01*
X32613095Y-204881961D02*
X32517857Y-204977200D01*
X32517857Y-204977200D02*
X32375000Y-205024819D01*
X32375000Y-205024819D02*
X32136905Y-205024819D01*
X33660714Y-205024819D02*
X33089286Y-205024819D01*
X33375000Y-205024819D02*
X33375000Y-204024819D01*
X33375000Y-204024819D02*
X33279762Y-204167676D01*
X33279762Y-204167676D02*
X33184524Y-204262914D01*
X33184524Y-204262914D02*
X33089286Y-204310533D01*
X209799998Y-137999580D02*
X209752379Y-138047200D01*
X209752379Y-138047200D02*
X209609522Y-138094819D01*
X209609522Y-138094819D02*
X209514284Y-138094819D01*
X209514284Y-138094819D02*
X209371427Y-138047200D01*
X209371427Y-138047200D02*
X209276189Y-137951961D01*
X209276189Y-137951961D02*
X209228570Y-137856723D01*
X209228570Y-137856723D02*
X209180951Y-137666247D01*
X209180951Y-137666247D02*
X209180951Y-137523390D01*
X209180951Y-137523390D02*
X209228570Y-137332914D01*
X209228570Y-137332914D02*
X209276189Y-137237676D01*
X209276189Y-137237676D02*
X209371427Y-137142438D01*
X209371427Y-137142438D02*
X209514284Y-137094819D01*
X209514284Y-137094819D02*
X209609522Y-137094819D01*
X209609522Y-137094819D02*
X209752379Y-137142438D01*
X209752379Y-137142438D02*
X209799998Y-137190057D01*
X210704760Y-137094819D02*
X210228570Y-137094819D01*
X210228570Y-137094819D02*
X210180951Y-137571009D01*
X210180951Y-137571009D02*
X210228570Y-137523390D01*
X210228570Y-137523390D02*
X210323808Y-137475771D01*
X210323808Y-137475771D02*
X210561903Y-137475771D01*
X210561903Y-137475771D02*
X210657141Y-137523390D01*
X210657141Y-137523390D02*
X210704760Y-137571009D01*
X210704760Y-137571009D02*
X210752379Y-137666247D01*
X210752379Y-137666247D02*
X210752379Y-137904342D01*
X210752379Y-137904342D02*
X210704760Y-137999580D01*
X210704760Y-137999580D02*
X210657141Y-138047200D01*
X210657141Y-138047200D02*
X210561903Y-138094819D01*
X210561903Y-138094819D02*
X210323808Y-138094819D01*
X210323808Y-138094819D02*
X210228570Y-138047200D01*
X210228570Y-138047200D02*
X210180951Y-137999580D01*
X211371427Y-137094819D02*
X211466665Y-137094819D01*
X211466665Y-137094819D02*
X211561903Y-137142438D01*
X211561903Y-137142438D02*
X211609522Y-137190057D01*
X211609522Y-137190057D02*
X211657141Y-137285295D01*
X211657141Y-137285295D02*
X211704760Y-137475771D01*
X211704760Y-137475771D02*
X211704760Y-137713866D01*
X211704760Y-137713866D02*
X211657141Y-137904342D01*
X211657141Y-137904342D02*
X211609522Y-137999580D01*
X211609522Y-137999580D02*
X211561903Y-138047200D01*
X211561903Y-138047200D02*
X211466665Y-138094819D01*
X211466665Y-138094819D02*
X211371427Y-138094819D01*
X211371427Y-138094819D02*
X211276189Y-138047200D01*
X211276189Y-138047200D02*
X211228570Y-137999580D01*
X211228570Y-137999580D02*
X211180951Y-137904342D01*
X211180951Y-137904342D02*
X211133332Y-137713866D01*
X211133332Y-137713866D02*
X211133332Y-137475771D01*
X211133332Y-137475771D02*
X211180951Y-137285295D01*
X211180951Y-137285295D02*
X211228570Y-137190057D01*
X211228570Y-137190057D02*
X211276189Y-137142438D01*
X211276189Y-137142438D02*
X211371427Y-137094819D01*
X211895237Y-138190057D02*
X212657141Y-138190057D01*
X212847618Y-137190057D02*
X212895237Y-137142438D01*
X212895237Y-137142438D02*
X212990475Y-137094819D01*
X212990475Y-137094819D02*
X213228570Y-137094819D01*
X213228570Y-137094819D02*
X213323808Y-137142438D01*
X213323808Y-137142438D02*
X213371427Y-137190057D01*
X213371427Y-137190057D02*
X213419046Y-137285295D01*
X213419046Y-137285295D02*
X213419046Y-137380533D01*
X213419046Y-137380533D02*
X213371427Y-137523390D01*
X213371427Y-137523390D02*
X212799999Y-138094819D01*
X212799999Y-138094819D02*
X213419046Y-138094819D01*
X188494819Y-22266666D02*
X189209104Y-22266666D01*
X189209104Y-22266666D02*
X189351961Y-22314285D01*
X189351961Y-22314285D02*
X189447200Y-22409523D01*
X189447200Y-22409523D02*
X189494819Y-22552380D01*
X189494819Y-22552380D02*
X189494819Y-22647618D01*
X189494819Y-21742856D02*
X189494819Y-21552380D01*
X189494819Y-21552380D02*
X189447200Y-21457142D01*
X189447200Y-21457142D02*
X189399580Y-21409523D01*
X189399580Y-21409523D02*
X189256723Y-21314285D01*
X189256723Y-21314285D02*
X189066247Y-21266666D01*
X189066247Y-21266666D02*
X188685295Y-21266666D01*
X188685295Y-21266666D02*
X188590057Y-21314285D01*
X188590057Y-21314285D02*
X188542438Y-21361904D01*
X188542438Y-21361904D02*
X188494819Y-21457142D01*
X188494819Y-21457142D02*
X188494819Y-21647618D01*
X188494819Y-21647618D02*
X188542438Y-21742856D01*
X188542438Y-21742856D02*
X188590057Y-21790475D01*
X188590057Y-21790475D02*
X188685295Y-21838094D01*
X188685295Y-21838094D02*
X188923390Y-21838094D01*
X188923390Y-21838094D02*
X189018628Y-21790475D01*
X189018628Y-21790475D02*
X189066247Y-21742856D01*
X189066247Y-21742856D02*
X189113866Y-21647618D01*
X189113866Y-21647618D02*
X189113866Y-21457142D01*
X189113866Y-21457142D02*
X189066247Y-21361904D01*
X189066247Y-21361904D02*
X189018628Y-21314285D01*
X189018628Y-21314285D02*
X188923390Y-21266666D01*
X131357142Y-242532913D02*
X131309523Y-242580533D01*
X131309523Y-242580533D02*
X131166666Y-242628152D01*
X131166666Y-242628152D02*
X131071428Y-242628152D01*
X131071428Y-242628152D02*
X130928571Y-242580533D01*
X130928571Y-242580533D02*
X130833333Y-242485294D01*
X130833333Y-242485294D02*
X130785714Y-242390056D01*
X130785714Y-242390056D02*
X130738095Y-242199580D01*
X130738095Y-242199580D02*
X130738095Y-242056723D01*
X130738095Y-242056723D02*
X130785714Y-241866247D01*
X130785714Y-241866247D02*
X130833333Y-241771009D01*
X130833333Y-241771009D02*
X130928571Y-241675771D01*
X130928571Y-241675771D02*
X131071428Y-241628152D01*
X131071428Y-241628152D02*
X131166666Y-241628152D01*
X131166666Y-241628152D02*
X131309523Y-241675771D01*
X131309523Y-241675771D02*
X131357142Y-241723390D01*
X132214285Y-241961485D02*
X132214285Y-242628152D01*
X131976190Y-241580533D02*
X131738095Y-242294818D01*
X131738095Y-242294818D02*
X132357142Y-242294818D01*
X133214285Y-241628152D02*
X132738095Y-241628152D01*
X132738095Y-241628152D02*
X132690476Y-242104342D01*
X132690476Y-242104342D02*
X132738095Y-242056723D01*
X132738095Y-242056723D02*
X132833333Y-242009104D01*
X132833333Y-242009104D02*
X133071428Y-242009104D01*
X133071428Y-242009104D02*
X133166666Y-242056723D01*
X133166666Y-242056723D02*
X133214285Y-242104342D01*
X133214285Y-242104342D02*
X133261904Y-242199580D01*
X133261904Y-242199580D02*
X133261904Y-242437675D01*
X133261904Y-242437675D02*
X133214285Y-242532913D01*
X133214285Y-242532913D02*
X133166666Y-242580533D01*
X133166666Y-242580533D02*
X133071428Y-242628152D01*
X133071428Y-242628152D02*
X132833333Y-242628152D01*
X132833333Y-242628152D02*
X132738095Y-242580533D01*
X132738095Y-242580533D02*
X132690476Y-242532913D01*
X164907141Y-182799580D02*
X164859522Y-182847200D01*
X164859522Y-182847200D02*
X164716665Y-182894819D01*
X164716665Y-182894819D02*
X164621427Y-182894819D01*
X164621427Y-182894819D02*
X164478570Y-182847200D01*
X164478570Y-182847200D02*
X164383332Y-182751961D01*
X164383332Y-182751961D02*
X164335713Y-182656723D01*
X164335713Y-182656723D02*
X164288094Y-182466247D01*
X164288094Y-182466247D02*
X164288094Y-182323390D01*
X164288094Y-182323390D02*
X164335713Y-182132914D01*
X164335713Y-182132914D02*
X164383332Y-182037676D01*
X164383332Y-182037676D02*
X164478570Y-181942438D01*
X164478570Y-181942438D02*
X164621427Y-181894819D01*
X164621427Y-181894819D02*
X164716665Y-181894819D01*
X164716665Y-181894819D02*
X164859522Y-181942438D01*
X164859522Y-181942438D02*
X164907141Y-181990057D01*
X165240475Y-181894819D02*
X165859522Y-181894819D01*
X165859522Y-181894819D02*
X165526189Y-182275771D01*
X165526189Y-182275771D02*
X165669046Y-182275771D01*
X165669046Y-182275771D02*
X165764284Y-182323390D01*
X165764284Y-182323390D02*
X165811903Y-182371009D01*
X165811903Y-182371009D02*
X165859522Y-182466247D01*
X165859522Y-182466247D02*
X165859522Y-182704342D01*
X165859522Y-182704342D02*
X165811903Y-182799580D01*
X165811903Y-182799580D02*
X165764284Y-182847200D01*
X165764284Y-182847200D02*
X165669046Y-182894819D01*
X165669046Y-182894819D02*
X165383332Y-182894819D01*
X165383332Y-182894819D02*
X165288094Y-182847200D01*
X165288094Y-182847200D02*
X165240475Y-182799580D01*
X166192856Y-181894819D02*
X166811903Y-181894819D01*
X166811903Y-181894819D02*
X166478570Y-182275771D01*
X166478570Y-182275771D02*
X166621427Y-182275771D01*
X166621427Y-182275771D02*
X166716665Y-182323390D01*
X166716665Y-182323390D02*
X166764284Y-182371009D01*
X166764284Y-182371009D02*
X166811903Y-182466247D01*
X166811903Y-182466247D02*
X166811903Y-182704342D01*
X166811903Y-182704342D02*
X166764284Y-182799580D01*
X166764284Y-182799580D02*
X166716665Y-182847200D01*
X166716665Y-182847200D02*
X166621427Y-182894819D01*
X166621427Y-182894819D02*
X166335713Y-182894819D01*
X166335713Y-182894819D02*
X166240475Y-182847200D01*
X166240475Y-182847200D02*
X166192856Y-182799580D01*
D12*
%TO.C,R5a*%
X32721359Y-214953333D02*
X33028641Y-214953333D01*
X32721359Y-215713333D02*
X33028641Y-215713333D01*
%TO.C,D5a*%
X235615000Y-182750000D02*
X235615000Y-184450000D01*
X235615000Y-182750000D02*
X238275000Y-182750000D01*
X235615000Y-184450000D02*
X238275000Y-184450000D01*
%TO.C,C41*%
X174592164Y-78706666D02*
X174807836Y-78706666D01*
X174592164Y-79426666D02*
X174807836Y-79426666D01*
%TO.C,C50_0*%
X202042163Y-138440000D02*
X202257835Y-138440000D01*
X202042163Y-139160000D02*
X202257835Y-139160000D01*
%TO.C,TP2*%
X48825000Y-278800000D02*
G75*
G02*
X47425000Y-278800000I-700000J0D01*
G01*
X47425000Y-278800000D02*
G75*
G02*
X48825000Y-278800000I700000J0D01*
G01*
%TO.C,C5_e*%
X240167163Y-209373333D02*
X240382835Y-209373333D01*
X240167163Y-210093333D02*
X240382835Y-210093333D01*
%TO.C,C2c*%
X83059419Y-242823333D02*
X83340579Y-242823333D01*
X83059419Y-243843333D02*
X83340579Y-243843333D01*
%TO.C,U21*%
X132740000Y-76456666D02*
X132740000Y-76881666D01*
X132740000Y-81676666D02*
X132740000Y-81251666D01*
X135050000Y-76456666D02*
X132740000Y-76456666D01*
X135050000Y-76456666D02*
X137360000Y-76456666D01*
X135050000Y-81676666D02*
X132740000Y-81676666D01*
X135050000Y-81676666D02*
X137360000Y-81676666D01*
X137360000Y-76456666D02*
X137360000Y-76881666D01*
X137360000Y-81676666D02*
X137360000Y-81251666D01*
X132150000Y-76881666D02*
X131910000Y-76551666D01*
X132390000Y-76551666D01*
X132150000Y-76881666D01*
G36*
X132150000Y-76881666D02*
G01*
X131910000Y-76551666D01*
X132390000Y-76551666D01*
X132150000Y-76881666D01*
G37*
%TO.C,C32*%
X159342164Y-183240000D02*
X159557836Y-183240000D01*
X159342164Y-183960000D02*
X159557836Y-183960000D01*
%TO.C,C35*%
X174592164Y-183240000D02*
X174807836Y-183240000D01*
X174592164Y-183960000D02*
X174807836Y-183960000D01*
%TO.C,C5_f*%
X244742164Y-209373333D02*
X244957836Y-209373333D01*
X244742164Y-210093333D02*
X244957836Y-210093333D01*
%TO.C,C1b*%
X55488748Y-242598333D02*
X56011252Y-242598333D01*
X55488748Y-244068333D02*
X56011252Y-244068333D01*
%TO.C,C30*%
X150192163Y-183240000D02*
X150407835Y-183240000D01*
X150192163Y-183960000D02*
X150407835Y-183960000D01*
%TO.C,C50_1*%
X206617164Y-138440000D02*
X206832836Y-138440000D01*
X206617164Y-139160000D02*
X206832836Y-139160000D01*
%TO.C,C2b*%
X78484420Y-242823333D02*
X78765580Y-242823333D01*
X78484420Y-243843333D02*
X78765580Y-243843333D01*
%TO.C,C5_d*%
X235592164Y-209373333D02*
X235807836Y-209373333D01*
X235592164Y-210093333D02*
X235807836Y-210093333D01*
%TO.C,TP5*%
X94575000Y-278800000D02*
G75*
G02*
X93175000Y-278800000I-700000J0D01*
G01*
X93175000Y-278800000D02*
G75*
G02*
X94575000Y-278800000I700000J0D01*
G01*
%TO.C,U23*%
X188940000Y-182460000D02*
X190940000Y-182460000D01*
X188950000Y-184740000D02*
X190950000Y-184740000D01*
X188580000Y-182530000D02*
X188300000Y-182530000D01*
X188580000Y-182250000D01*
X188580000Y-182530000D01*
G36*
X188580000Y-182530000D02*
G01*
X188300000Y-182530000D01*
X188580000Y-182250000D01*
X188580000Y-182530000D01*
G37*
%TO.C,C50_3*%
X215767164Y-138440000D02*
X215982836Y-138440000D01*
X215767164Y-139160000D02*
X215982836Y-139160000D01*
%TO.C,C2a*%
X73909420Y-242823333D02*
X74190580Y-242823333D01*
X73909420Y-243843333D02*
X74190580Y-243843333D01*
%TO.C,TP1*%
X33575000Y-278800000D02*
G75*
G02*
X32175000Y-278800000I-700000J0D01*
G01*
X32175000Y-278800000D02*
G75*
G02*
X33575000Y-278800000I700000J0D01*
G01*
%TO.C,C39*%
X154767164Y-78706666D02*
X154982836Y-78706666D01*
X154767164Y-79426666D02*
X154982836Y-79426666D01*
%TO.C,C4b*%
X243979663Y-183240000D02*
X244195335Y-183240000D01*
X243979663Y-183960000D02*
X244195335Y-183960000D01*
%TO.C,J6*%
X295940000Y-160463333D02*
X295940000Y-159333333D01*
X296005000Y-156933333D02*
X305015000Y-156933333D01*
X296005000Y-157755803D02*
X296005000Y-156933333D01*
X296005000Y-158573333D02*
X296005000Y-158370863D01*
X296136529Y-158573333D02*
X296005000Y-158573333D01*
X296700000Y-160463333D02*
X295940000Y-160463333D01*
X297406529Y-158573333D02*
X297263471Y-158573333D01*
X297460000Y-158769862D02*
X297460000Y-158626804D01*
X297460000Y-160463333D02*
X297460000Y-159896804D01*
X297460000Y-160463333D02*
X305015000Y-160463333D01*
X305015000Y-157755803D02*
X305015000Y-156933333D01*
X305015000Y-159025803D02*
X305015000Y-158370863D01*
X305015000Y-160463333D02*
X305015000Y-159640863D01*
%TO.C,TP7*%
X125075000Y-278800000D02*
G75*
G02*
X123675000Y-278800000I-700000J0D01*
G01*
X123675000Y-278800000D02*
G75*
G02*
X125075000Y-278800000I700000J0D01*
G01*
%TO.C,TP3*%
X64075000Y-278800000D02*
G75*
G02*
X62675000Y-278800000I-700000J0D01*
G01*
X62675000Y-278800000D02*
G75*
G02*
X64075000Y-278800000I700000J0D01*
G01*
%TO.C,R5_b*%
X40346359Y-214953333D02*
X40653641Y-214953333D01*
X40346359Y-215713333D02*
X40653641Y-215713333D01*
%TO.C,J5*%
X295940000Y-123130000D02*
X295940000Y-122000000D01*
X296005000Y-119600000D02*
X302475000Y-119600000D01*
X296005000Y-120422470D02*
X296005000Y-119600000D01*
X296005000Y-121240000D02*
X296005000Y-121037530D01*
X296136529Y-121240000D02*
X296005000Y-121240000D01*
X296700000Y-123130000D02*
X295940000Y-123130000D01*
X297406529Y-121240000D02*
X297263471Y-121240000D01*
X297460000Y-121436529D02*
X297460000Y-121293471D01*
X297460000Y-123130000D02*
X297460000Y-122563471D01*
X297460000Y-123130000D02*
X302475000Y-123130000D01*
X302475000Y-120422470D02*
X302475000Y-119600000D01*
X302475000Y-121692470D02*
X302475000Y-121037530D01*
X302475000Y-123130000D02*
X302475000Y-122307530D01*
%TO.C,U22*%
X229190000Y-194056666D02*
X228815000Y-194056666D01*
X229190000Y-199276666D02*
X228515000Y-199276666D01*
X233060000Y-194056666D02*
X233735000Y-194056666D01*
X233060000Y-199276666D02*
X233735000Y-199276666D01*
X228515000Y-194056666D02*
X228275000Y-193726666D01*
X228755000Y-193726666D01*
X228515000Y-194056666D01*
G36*
X228515000Y-194056666D02*
G01*
X228275000Y-193726666D01*
X228755000Y-193726666D01*
X228515000Y-194056666D01*
G37*
%TO.C,J8*%
X128290000Y-24683333D02*
X128290000Y-25183333D01*
X128290000Y-25183333D02*
X128790000Y-24933333D01*
X128790000Y-24933333D02*
X128290000Y-24683333D01*
%TO.C,J10*%
X219790000Y-24683333D02*
X219790000Y-25183333D01*
X219790000Y-25183333D02*
X220290000Y-24933333D01*
X220290000Y-24933333D02*
X219790000Y-24683333D01*
%TO.C,J7*%
X97790000Y-24683333D02*
X97790000Y-25183333D01*
X97790000Y-25183333D02*
X98290000Y-24933333D01*
X98290000Y-24933333D02*
X97790000Y-24683333D01*
%TO.C,C44*%
X116642164Y-242973333D02*
X116857836Y-242973333D01*
X116642164Y-243693333D02*
X116857836Y-243693333D01*
%TO.C,C43*%
X101392164Y-242973333D02*
X101607836Y-242973333D01*
X101392164Y-243693333D02*
X101607836Y-243693333D01*
%TO.C,C42*%
X86142164Y-242973333D02*
X86357836Y-242973333D01*
X86142164Y-243693333D02*
X86357836Y-243693333D01*
%TO.C,C34*%
X170017164Y-183240000D02*
X170232836Y-183240000D01*
X170017164Y-183960000D02*
X170232836Y-183960000D01*
%TO.C,U11*%
X104550000Y-251106666D02*
X103750000Y-251106666D01*
X104550000Y-251106666D02*
X105350000Y-251106666D01*
X104550000Y-254226666D02*
X103750000Y-254226666D01*
X104550000Y-254226666D02*
X105350000Y-254226666D01*
X103250000Y-251156666D02*
X103010000Y-250826666D01*
X103490000Y-250826666D01*
X103250000Y-251156666D01*
G36*
X103250000Y-251156666D02*
G01*
X103010000Y-250826666D01*
X103490000Y-250826666D01*
X103250000Y-251156666D01*
G37*
%TO.C,D5b*%
X249340000Y-182750000D02*
X249340000Y-184450000D01*
X249340000Y-182750000D02*
X252000000Y-182750000D01*
X249340000Y-184450000D02*
X252000000Y-184450000D01*
%TO.C,U25*%
X97439999Y-148860000D02*
X99439999Y-148860000D01*
X97449999Y-151140000D02*
X99449999Y-151140000D01*
X97079999Y-148930000D02*
X96799999Y-148930000D01*
X97079999Y-148650000D01*
X97079999Y-148930000D01*
G36*
X97079999Y-148930000D02*
G01*
X96799999Y-148930000D01*
X97079999Y-148650000D01*
X97079999Y-148930000D01*
G37*
%TO.C,C10_d*%
X101392164Y-134706666D02*
X101607836Y-134706666D01*
X101392164Y-135426666D02*
X101607836Y-135426666D01*
%TO.C,U15*%
X58800000Y-250106666D02*
X56850000Y-250106666D01*
X58800000Y-250106666D02*
X60750000Y-250106666D01*
X58800000Y-255226666D02*
X56850000Y-255226666D01*
X58800000Y-255226666D02*
X60750000Y-255226666D01*
X56100000Y-250201666D02*
X55860000Y-249871666D01*
X56340000Y-249871666D01*
X56100000Y-250201666D01*
G36*
X56100000Y-250201666D02*
G01*
X55860000Y-249871666D01*
X56340000Y-249871666D01*
X56100000Y-250201666D01*
G37*
%TO.C,U14*%
X119800000Y-251106666D02*
X119000000Y-251106666D01*
X119800000Y-251106666D02*
X120600000Y-251106666D01*
X119800000Y-254226666D02*
X119000000Y-254226666D01*
X119800000Y-254226666D02*
X120600000Y-254226666D01*
X118500000Y-251156666D02*
X118260000Y-250826666D01*
X118740000Y-250826666D01*
X118500000Y-251156666D01*
G36*
X118500000Y-251156666D02*
G01*
X118260000Y-250826666D01*
X118740000Y-250826666D01*
X118500000Y-251156666D01*
G37*
%TO.C,C31*%
X154767164Y-183240000D02*
X154982836Y-183240000D01*
X154767164Y-183960000D02*
X154982836Y-183960000D01*
%TO.C,C1a*%
X50913748Y-242598333D02*
X51436252Y-242598333D01*
X50913748Y-244068333D02*
X51436252Y-244068333D01*
%TO.C,C10_c*%
X110542163Y-108573333D02*
X110757835Y-108573333D01*
X110542163Y-109293333D02*
X110757835Y-109293333D01*
%TO.C,C4a*%
X235592164Y-188840000D02*
X235807836Y-188840000D01*
X235592164Y-189560000D02*
X235807836Y-189560000D01*
%TO.C,C5a*%
X226442163Y-209373333D02*
X226657835Y-209373333D01*
X226442163Y-210093333D02*
X226657835Y-210093333D01*
%TO.C,C9a*%
X226442163Y-186973333D02*
X226657835Y-186973333D01*
X226442163Y-187693333D02*
X226657835Y-187693333D01*
%TO.C,C5_g*%
X249317163Y-209373333D02*
X249532835Y-209373333D01*
X249317163Y-210093333D02*
X249532835Y-210093333D01*
%TO.C,C11*%
X58965000Y-245740000D02*
X58965000Y-250260000D01*
X58965000Y-250260000D02*
X67025000Y-250260000D01*
X67025000Y-245740000D02*
X58965000Y-245740000D01*
%TO.C,C36*%
X150192163Y-155240000D02*
X150407835Y-155240000D01*
X150192163Y-155960000D02*
X150407835Y-155960000D01*
%TO.C,Y1*%
X221500000Y-139016666D02*
X221500000Y-142316666D01*
X221500000Y-142316666D02*
X225500000Y-142316666D01*
%TO.C,C10_b*%
X105967163Y-108573333D02*
X106182835Y-108573333D01*
X105967163Y-109293333D02*
X106182835Y-109293333D01*
%TO.C,U24*%
X189950000Y-76331666D02*
X187750000Y-76331666D01*
X189950000Y-76331666D02*
X192150000Y-76331666D01*
X189950000Y-81801666D02*
X187750000Y-81801666D01*
X189950000Y-81801666D02*
X192150000Y-81801666D01*
X186090000Y-76791666D02*
X185760000Y-77031666D01*
X185760000Y-76551666D01*
X186090000Y-76791666D01*
G36*
X186090000Y-76791666D02*
G01*
X185760000Y-77031666D01*
X185760000Y-76551666D01*
X186090000Y-76791666D01*
G37*
%TO.C,SW1*%
X290475000Y-241933333D02*
X293775000Y-241933333D01*
X290475000Y-242233333D02*
X290475000Y-241933333D01*
X290475000Y-244433333D02*
X290475000Y-244733333D01*
X290475000Y-244733333D02*
X293775000Y-244733333D01*
X293775000Y-241933333D02*
X293775000Y-242233333D01*
X293775000Y-244733333D02*
X293775000Y-244433333D01*
%TO.C,U12*%
X150299999Y-251106666D02*
X149499999Y-251106666D01*
X150299999Y-251106666D02*
X151099999Y-251106666D01*
X150299999Y-254226666D02*
X149499999Y-254226666D01*
X150299999Y-254226666D02*
X151099999Y-254226666D01*
X148999999Y-251156666D02*
X148759999Y-250826666D01*
X149239999Y-250826666D01*
X148999999Y-251156666D01*
G36*
X148999999Y-251156666D02*
G01*
X148759999Y-250826666D01*
X149239999Y-250826666D01*
X148999999Y-251156666D01*
G37*
%TO.C,TP4*%
X79325000Y-278800000D02*
G75*
G02*
X77925000Y-278800000I-700000J0D01*
G01*
X77925000Y-278800000D02*
G75*
G02*
X79325000Y-278800000I700000J0D01*
G01*
%TO.C,D3*%
X46640000Y-205265000D02*
X46640000Y-206735000D01*
X46640000Y-206735000D02*
X48925000Y-206735000D01*
X48925000Y-205265000D02*
X46640000Y-205265000D01*
%TO.C,R5_c*%
X47971359Y-214953333D02*
X48278641Y-214953333D01*
X47971359Y-215713333D02*
X48278641Y-215713333D01*
%TO.C,C5b*%
X231017164Y-209373333D02*
X231232836Y-209373333D01*
X231017164Y-210093333D02*
X231232836Y-210093333D01*
%TO.C,C38*%
X150192163Y-78706666D02*
X150407835Y-78706666D01*
X150192163Y-79426666D02*
X150407835Y-79426666D01*
%TO.C,R1a*%
X211146358Y-183220000D02*
X211453640Y-183220000D01*
X211146358Y-183980000D02*
X211453640Y-183980000D01*
%TO.C,D2*%
X39015000Y-205265000D02*
X39015000Y-206735000D01*
X39015000Y-206735000D02*
X41300000Y-206735000D01*
X41300000Y-205265000D02*
X39015000Y-205265000D01*
%TO.C,TP6*%
X109825000Y-278800000D02*
G75*
G02*
X108425000Y-278800000I-700000J0D01*
G01*
X108425000Y-278800000D02*
G75*
G02*
X109825000Y-278800000I700000J0D01*
G01*
%TO.C,U20*%
X206640000Y-147365000D02*
X206640000Y-147130000D01*
X206640000Y-153110000D02*
X206640000Y-152635000D01*
X207115000Y-146890000D02*
X206940000Y-146890000D01*
X207115000Y-153110000D02*
X206640000Y-153110000D01*
X209385000Y-146890000D02*
X209860000Y-146890000D01*
X209385000Y-153110000D02*
X209860000Y-153110000D01*
X209860000Y-146890000D02*
X209860000Y-147365000D01*
X209860000Y-153110000D02*
X209860000Y-152635000D01*
X206640000Y-146890000D02*
X206400000Y-146560000D01*
X206880000Y-146560000D01*
X206640000Y-146890000D01*
G36*
X206640000Y-146890000D02*
G01*
X206400000Y-146560000D01*
X206880000Y-146560000D01*
X206640000Y-146890000D01*
G37*
%TO.C,C40*%
X170017164Y-78706666D02*
X170232836Y-78706666D01*
X170017164Y-79426666D02*
X170232836Y-79426666D01*
%TO.C,U13*%
X89300000Y-251106666D02*
X88500000Y-251106666D01*
X89300000Y-251106666D02*
X90100000Y-251106666D01*
X89300000Y-254226666D02*
X88500000Y-254226666D01*
X89300000Y-254226666D02*
X90100000Y-254226666D01*
X88000000Y-251156666D02*
X87760000Y-250826666D01*
X88240000Y-250826666D01*
X88000000Y-251156666D01*
G36*
X88000000Y-251156666D02*
G01*
X87760000Y-250826666D01*
X88240000Y-250826666D01*
X88000000Y-251156666D01*
G37*
%TO.C,F1*%
X40241422Y-261290000D02*
X40758578Y-261290000D01*
X40241422Y-262710000D02*
X40758578Y-262710000D01*
%TO.C,C37*%
X174592164Y-155240000D02*
X174807836Y-155240000D01*
X174592164Y-155960000D02*
X174807836Y-155960000D01*
%TO.C,J1*%
X20650000Y-259400000D02*
X21050000Y-259400000D01*
X20650000Y-261850000D02*
X20650000Y-259400000D01*
X20650000Y-272100000D02*
X20650000Y-268550000D01*
X21050000Y-257400000D02*
X24050000Y-257400000D01*
X21050000Y-259400000D02*
X21050000Y-257400000D01*
X24060000Y-253760000D02*
X25800000Y-253760000D01*
X24060000Y-255500000D02*
X24060000Y-253760000D01*
X27850000Y-257400000D02*
X29450000Y-257400000D01*
X29450000Y-257400000D02*
X29450000Y-259400000D01*
X29450000Y-259400000D02*
X29850000Y-259400000D01*
X29850000Y-259400000D02*
X29850000Y-261850000D01*
X29850000Y-268550000D02*
X29850000Y-272100000D01*
X29850000Y-272100000D02*
X20650000Y-272100000D01*
%TO.C,U10*%
X135050000Y-251106666D02*
X134250000Y-251106666D01*
X135050000Y-251106666D02*
X135850000Y-251106666D01*
X135050000Y-254226666D02*
X134250000Y-254226666D01*
X135050000Y-254226666D02*
X135850000Y-254226666D01*
X133750000Y-251156666D02*
X133510000Y-250826666D01*
X133990000Y-250826666D01*
X133750000Y-251156666D01*
G36*
X133750000Y-251156666D02*
G01*
X133510000Y-250826666D01*
X133990000Y-250826666D01*
X133750000Y-251156666D01*
G37*
%TO.C,L1*%
X61649999Y-259433333D02*
X74249999Y-259433333D01*
X61649999Y-262433333D02*
X61649999Y-259433333D01*
X61649999Y-272033333D02*
X61649999Y-269033333D01*
X74249999Y-259433333D02*
X74249999Y-262433333D01*
X74249999Y-269033333D02*
X74249999Y-272033333D01*
X74249999Y-272033333D02*
X61649999Y-272033333D01*
%TO.C,C10_a*%
X101392164Y-108573333D02*
X101607836Y-108573333D01*
X101392164Y-109293333D02*
X101607836Y-109293333D01*
%TO.C,D1*%
X31390000Y-205265000D02*
X31390000Y-206735000D01*
X31390000Y-206735000D02*
X33675000Y-206735000D01*
X33675000Y-205265000D02*
X31390000Y-205265000D01*
%TO.C,C50_2*%
X211192163Y-138440000D02*
X211407835Y-138440000D01*
X211192163Y-139160000D02*
X211407835Y-139160000D01*
%TO.C,J9*%
X189290000Y-24683333D02*
X189290000Y-25183333D01*
X189290000Y-25183333D02*
X189790000Y-24933333D01*
X189790000Y-24933333D02*
X189290000Y-24683333D01*
%TO.C,C45*%
X131892164Y-242973333D02*
X132107836Y-242973333D01*
X131892164Y-243693333D02*
X132107836Y-243693333D01*
%TO.C,C33*%
X165442163Y-183240000D02*
X165657835Y-183240000D01*
X165442163Y-183960000D02*
X165657835Y-183960000D01*
%TD*%
%LPC*%
D13*
%TO.C,R5a*%
X32365000Y-215333333D03*
X33385000Y-215333333D03*
%TD*%
D14*
%TO.C,U3*%
X150312000Y-94000000D03*
X150938000Y-94000000D03*
X151562000Y-94000000D03*
X152188000Y-94000000D03*
X152812000Y-94000000D03*
X153438000Y-94000000D03*
X154062000Y-94000000D03*
X154688000Y-94000000D03*
X155312000Y-94000000D03*
X155938000Y-94000000D03*
X156562000Y-94000000D03*
X157188000Y-94000000D03*
X157812000Y-94000000D03*
X158438000Y-94000000D03*
X159062000Y-94000000D03*
X159688000Y-94000000D03*
X160312000Y-94000000D03*
X160938000Y-94000000D03*
X161562000Y-94000000D03*
X162188000Y-94000000D03*
X162812000Y-94000000D03*
X163438000Y-94000000D03*
X164062000Y-94000000D03*
X164688000Y-94000000D03*
X165312000Y-94000000D03*
X165938000Y-94000000D03*
X166562000Y-94000000D03*
X167188000Y-94000000D03*
X167812000Y-94000000D03*
X168438000Y-94000000D03*
X169062000Y-94000000D03*
X169688000Y-94000000D03*
X170312000Y-94000000D03*
X170938000Y-94000000D03*
X171562000Y-94000000D03*
X172188000Y-94000000D03*
X172812000Y-94000000D03*
X173438000Y-94000000D03*
X174062000Y-94000000D03*
X174688000Y-94000000D03*
%TD*%
D15*
%TO.C,D5a*%
X236175000Y-183600000D03*
X238275000Y-183600000D03*
%TD*%
D16*
%TO.C,C41*%
X174220000Y-79066666D03*
X175180000Y-79066666D03*
%TD*%
%TO.C,C50_0*%
X201669999Y-138800000D03*
X202629999Y-138800000D03*
%TD*%
D17*
%TO.C,TP2*%
X48125000Y-278800000D03*
%TD*%
D16*
%TO.C,C5_e*%
X239794999Y-209733333D03*
X240754999Y-209733333D03*
%TD*%
D18*
%TO.C,C2c*%
X82424999Y-243333333D03*
X83974999Y-243333333D03*
%TD*%
D19*
%TO.C,U21*%
X132187500Y-77266666D03*
X132187500Y-77666666D03*
X132187500Y-78066666D03*
X132187500Y-78466666D03*
X132187500Y-78866666D03*
X132187500Y-79266666D03*
X132187500Y-79666666D03*
X132187500Y-80066666D03*
X132187500Y-80466666D03*
X132187500Y-80866666D03*
X137912500Y-80866666D03*
X137912500Y-80466666D03*
X137912500Y-80066666D03*
X137912500Y-79666666D03*
X137912500Y-79266666D03*
X137912500Y-78866666D03*
X137912500Y-78466666D03*
X137912500Y-78066666D03*
X137912500Y-77666666D03*
X137912500Y-77266666D03*
%TD*%
D16*
%TO.C,C32*%
X158970000Y-183600000D03*
X159930000Y-183600000D03*
%TD*%
%TO.C,C35*%
X174220000Y-183600000D03*
X175180000Y-183600000D03*
%TD*%
%TO.C,C5_f*%
X244370000Y-209733333D03*
X245330000Y-209733333D03*
%TD*%
D20*
%TO.C,C1b*%
X54800000Y-243333333D03*
X56700000Y-243333333D03*
%TD*%
D16*
%TO.C,C30*%
X149819999Y-183600000D03*
X150779999Y-183600000D03*
%TD*%
%TO.C,C50_1*%
X206245000Y-138800000D03*
X207205000Y-138800000D03*
%TD*%
D18*
%TO.C,C2b*%
X77850000Y-243333333D03*
X79400000Y-243333333D03*
%TD*%
D16*
%TO.C,C5_d*%
X235220000Y-209733333D03*
X236180000Y-209733333D03*
%TD*%
D17*
%TO.C,TP5*%
X93875000Y-278800000D03*
%TD*%
D21*
%TO.C,U23*%
X189000000Y-182850000D03*
X189000000Y-183350000D03*
X189000000Y-183850000D03*
X189000000Y-184350000D03*
X190900000Y-184350000D03*
X190900000Y-183850000D03*
X190900000Y-183350000D03*
X190900000Y-182850000D03*
D22*
X189950000Y-183600000D03*
%TD*%
D16*
%TO.C,C50_3*%
X215395000Y-138800000D03*
X216355000Y-138800000D03*
%TD*%
D18*
%TO.C,C2a*%
X73275000Y-243333333D03*
X74825000Y-243333333D03*
%TD*%
D17*
%TO.C,TP1*%
X32875000Y-278800000D03*
%TD*%
D16*
%TO.C,C39*%
X154395000Y-79066666D03*
X155355000Y-79066666D03*
%TD*%
D23*
%TO.C,U1*%
X106125000Y-126000000D03*
X106525000Y-126000000D03*
X106925000Y-126000000D03*
X107325000Y-126000000D03*
X107725000Y-126000000D03*
X108125000Y-126000000D03*
X108525000Y-126000000D03*
X108925000Y-126000000D03*
X109325000Y-126000000D03*
X109725000Y-126000000D03*
X110125000Y-126000000D03*
X110525000Y-126000000D03*
X110925000Y-126000000D03*
X111325000Y-126000000D03*
X111725000Y-126000000D03*
X112125000Y-126000000D03*
D24*
X113125000Y-125000000D03*
X113125000Y-124600000D03*
X113125000Y-124200000D03*
X113125000Y-123800000D03*
X113125000Y-123400000D03*
X113125000Y-123000000D03*
X113125000Y-122600000D03*
X113125000Y-122200000D03*
X113125000Y-121800000D03*
X113125000Y-121400000D03*
X113125000Y-121000000D03*
X113125000Y-120600000D03*
X113125000Y-120200000D03*
X113125000Y-119800000D03*
X113125000Y-119400000D03*
X113125000Y-119000000D03*
D23*
X112125000Y-118000000D03*
X111725000Y-118000000D03*
X111325000Y-118000000D03*
X110925000Y-118000000D03*
X110525000Y-118000000D03*
X110125000Y-118000000D03*
X109725000Y-118000000D03*
X109325000Y-118000000D03*
X108925000Y-118000000D03*
X108525000Y-118000000D03*
X108125000Y-118000000D03*
X107725000Y-118000000D03*
X107325000Y-118000000D03*
X106925000Y-118000000D03*
X106525000Y-118000000D03*
X106125000Y-118000000D03*
D24*
X105125000Y-119000000D03*
X105125000Y-119400000D03*
X105125000Y-119800000D03*
X105125000Y-120200000D03*
X105125000Y-120600000D03*
X105125000Y-121000000D03*
X105125000Y-121400000D03*
X105125000Y-121800000D03*
X105125000Y-122200000D03*
X105125000Y-122600000D03*
X105125000Y-123000000D03*
X105125000Y-123400000D03*
X105125000Y-123800000D03*
X105125000Y-124200000D03*
X105125000Y-124600000D03*
X105125000Y-125000000D03*
D25*
X109125000Y-122000000D03*
%TD*%
D23*
%TO.C,U4*%
X212875000Y-126000000D03*
X213275000Y-126000000D03*
X213675000Y-126000000D03*
X214075000Y-126000000D03*
X214475000Y-126000000D03*
X214875000Y-126000000D03*
X215275000Y-126000000D03*
X215675000Y-126000000D03*
X216075000Y-126000000D03*
X216475000Y-126000000D03*
X216875000Y-126000000D03*
X217275000Y-126000000D03*
X217675000Y-126000000D03*
X218075000Y-126000000D03*
X218475000Y-126000000D03*
X218875000Y-126000000D03*
D24*
X219875000Y-125000000D03*
X219875000Y-124600000D03*
X219875000Y-124200000D03*
X219875000Y-123800000D03*
X219875000Y-123400000D03*
X219875000Y-123000000D03*
X219875000Y-122600000D03*
X219875000Y-122200000D03*
X219875000Y-121800000D03*
X219875000Y-121400000D03*
X219875000Y-121000000D03*
X219875000Y-120600000D03*
X219875000Y-120200000D03*
X219875000Y-119800000D03*
X219875000Y-119400000D03*
X219875000Y-119000000D03*
D23*
X218875000Y-118000000D03*
X218475000Y-118000000D03*
X218075000Y-118000000D03*
X217675000Y-118000000D03*
X217275000Y-118000000D03*
X216875000Y-118000000D03*
X216475000Y-118000000D03*
X216075000Y-118000000D03*
X215675000Y-118000000D03*
X215275000Y-118000000D03*
X214875000Y-118000000D03*
X214475000Y-118000000D03*
X214075000Y-118000000D03*
X213675000Y-118000000D03*
X213275000Y-118000000D03*
X212875000Y-118000000D03*
D24*
X211875000Y-119000000D03*
X211875000Y-119400000D03*
X211875000Y-119800000D03*
X211875000Y-120200000D03*
X211875000Y-120600000D03*
X211875000Y-121000000D03*
X211875000Y-121400000D03*
X211875000Y-121800000D03*
X211875000Y-122200000D03*
X211875000Y-122600000D03*
X211875000Y-123000000D03*
X211875000Y-123400000D03*
X211875000Y-123800000D03*
X211875000Y-124200000D03*
X211875000Y-124600000D03*
X211875000Y-125000000D03*
D25*
X215875000Y-122000000D03*
%TD*%
D16*
%TO.C,C4b*%
X243607499Y-183600000D03*
X244567499Y-183600000D03*
%TD*%
D26*
%TO.C,J6*%
X296700000Y-159333333D03*
D27*
X296700000Y-158063333D03*
X297970000Y-159333333D03*
X297970000Y-158063333D03*
X299240000Y-159333333D03*
X299240000Y-158063333D03*
X300510000Y-159333333D03*
X300510000Y-158063333D03*
X301780000Y-159333333D03*
X301780000Y-158063333D03*
X303050000Y-159333333D03*
X303050000Y-158063333D03*
X304320000Y-159333333D03*
X304320000Y-158063333D03*
%TD*%
D17*
%TO.C,TP7*%
X124375000Y-278800000D03*
%TD*%
%TO.C,TP3*%
X63375000Y-278800000D03*
%TD*%
D13*
%TO.C,R5_b*%
X39990000Y-215333333D03*
X41010000Y-215333333D03*
%TD*%
D26*
%TO.C,J5*%
X296700000Y-122000000D03*
D27*
X296700000Y-120730000D03*
X297970000Y-122000000D03*
X297970000Y-120730000D03*
X299240000Y-122000000D03*
X299240000Y-120730000D03*
X300510000Y-122000000D03*
X300510000Y-120730000D03*
X301780000Y-122000000D03*
X301780000Y-120730000D03*
%TD*%
D28*
%TO.C,U22*%
X228675000Y-194391666D03*
X228675000Y-194741666D03*
X228675000Y-195091666D03*
X228675000Y-195441666D03*
X228675000Y-195791666D03*
X228675000Y-196141666D03*
X228675000Y-196491666D03*
X228675000Y-196841666D03*
X228675000Y-197191666D03*
X228675000Y-197541666D03*
X228675000Y-197891666D03*
X228675000Y-198241666D03*
X228675000Y-198591666D03*
X228675000Y-198941666D03*
D29*
X229550000Y-199116666D03*
X229900000Y-199116666D03*
X230250000Y-199116666D03*
X230600000Y-199116666D03*
X230950000Y-199116666D03*
X231300000Y-199116666D03*
X231650000Y-199116666D03*
X232000000Y-199116666D03*
X232350000Y-199116666D03*
X232700000Y-199116666D03*
D28*
X233575000Y-198941666D03*
X233575000Y-198591666D03*
X233575000Y-198241666D03*
X233575000Y-197891666D03*
X233575000Y-197541666D03*
X233575000Y-197191666D03*
X233575000Y-196841666D03*
X233575000Y-196491666D03*
X233575000Y-196141666D03*
X233575000Y-195791666D03*
X233575000Y-195441666D03*
X233575000Y-195091666D03*
X233575000Y-194741666D03*
X233575000Y-194391666D03*
D29*
X232700000Y-194216666D03*
X232350000Y-194216666D03*
X232000000Y-194216666D03*
X231650000Y-194216666D03*
X231300000Y-194216666D03*
X230950000Y-194216666D03*
X230600000Y-194216666D03*
X230250000Y-194216666D03*
X229900000Y-194216666D03*
X229550000Y-194216666D03*
D30*
X231125000Y-196666666D03*
%TD*%
D31*
%TO.C,J8*%
X132000000Y-24933333D03*
X132000000Y-20683333D03*
X132000000Y-29183333D03*
%TD*%
%TO.C,J10*%
X223500000Y-24933333D03*
X223500000Y-20683333D03*
X223500000Y-29183333D03*
%TD*%
%TO.C,J7*%
X101500000Y-24933333D03*
X101500000Y-20683333D03*
X101500000Y-29183333D03*
%TD*%
D32*
%TO.C,MH2*%
X308900000Y-17466666D03*
%TD*%
D16*
%TO.C,C44*%
X116270000Y-243333333D03*
X117230000Y-243333333D03*
%TD*%
D32*
%TO.C,MH1*%
X16100000Y-17466666D03*
%TD*%
D16*
%TO.C,C43*%
X101020000Y-243333333D03*
X101980000Y-243333333D03*
%TD*%
%TO.C,C42*%
X85770000Y-243333333D03*
X86730000Y-243333333D03*
%TD*%
%TO.C,C34*%
X169645000Y-183600000D03*
X170605000Y-183600000D03*
%TD*%
D33*
%TO.C,U11*%
X103412500Y-251716666D03*
X103412500Y-252666666D03*
X103412500Y-253616666D03*
X105687500Y-253616666D03*
X105687500Y-251716666D03*
%TD*%
D15*
%TO.C,D5b*%
X249900000Y-183600000D03*
X252000000Y-183600000D03*
%TD*%
D34*
%TO.C,U2*%
X156500000Y-162666666D03*
X157300000Y-162666666D03*
X158100000Y-162666666D03*
X158900000Y-162666666D03*
X159700000Y-162666666D03*
X160500000Y-162666666D03*
X161300000Y-162666666D03*
X162100000Y-162666666D03*
X162900000Y-162666666D03*
X163700000Y-162666666D03*
X164500000Y-162666666D03*
X165300000Y-162666666D03*
X166100000Y-162666666D03*
X166900000Y-162666666D03*
X167700000Y-162666666D03*
X168500000Y-162666666D03*
X156500000Y-163466666D03*
X157300000Y-163466666D03*
X158100000Y-163466666D03*
X158900000Y-163466666D03*
X159700000Y-163466666D03*
X160500000Y-163466666D03*
X161300000Y-163466666D03*
X162100000Y-163466666D03*
X162900000Y-163466666D03*
X163700000Y-163466666D03*
X164500000Y-163466666D03*
X165300000Y-163466666D03*
X166100000Y-163466666D03*
X166900000Y-163466666D03*
X167700000Y-163466666D03*
X168500000Y-163466666D03*
X156500000Y-164266666D03*
X157300000Y-164266666D03*
X158100000Y-164266666D03*
X158900000Y-164266666D03*
X159700000Y-164266666D03*
X160500000Y-164266666D03*
X161300000Y-164266666D03*
X162100000Y-164266666D03*
X162900000Y-164266666D03*
X163700000Y-164266666D03*
X164500000Y-164266666D03*
X165300000Y-164266666D03*
X166100000Y-164266666D03*
X166900000Y-164266666D03*
X167700000Y-164266666D03*
X168500000Y-164266666D03*
X156500000Y-165066666D03*
X157300000Y-165066666D03*
X158100000Y-165066666D03*
X158900000Y-165066666D03*
X159700000Y-165066666D03*
X160500000Y-165066666D03*
X161300000Y-165066666D03*
X162100000Y-165066666D03*
X162900000Y-165066666D03*
X163700000Y-165066666D03*
X164500000Y-165066666D03*
X165300000Y-165066666D03*
X166100000Y-165066666D03*
X166900000Y-165066666D03*
X167700000Y-165066666D03*
X168500000Y-165066666D03*
X156500000Y-165866666D03*
X157300000Y-165866666D03*
X158100000Y-165866666D03*
X158900000Y-165866666D03*
X159700000Y-165866666D03*
X160500000Y-165866666D03*
X161300000Y-165866666D03*
X162100000Y-165866666D03*
X162900000Y-165866666D03*
X163700000Y-165866666D03*
X164500000Y-165866666D03*
X165300000Y-165866666D03*
X166100000Y-165866666D03*
X166900000Y-165866666D03*
X167700000Y-165866666D03*
X168500000Y-165866666D03*
X156500000Y-166666666D03*
X157300000Y-166666666D03*
X158100000Y-166666666D03*
X158900000Y-166666666D03*
X159700000Y-166666666D03*
X160500000Y-166666666D03*
X161300000Y-166666666D03*
X162100000Y-166666666D03*
X162900000Y-166666666D03*
X163700000Y-166666666D03*
X164500000Y-166666666D03*
X165300000Y-166666666D03*
X166100000Y-166666666D03*
X166900000Y-166666666D03*
X167700000Y-166666666D03*
X168500000Y-166666666D03*
X156500000Y-167466666D03*
X157300000Y-167466666D03*
X158100000Y-167466666D03*
X158900000Y-167466666D03*
X159700000Y-167466666D03*
X160500000Y-167466666D03*
X161300000Y-167466666D03*
X162100000Y-167466666D03*
X162900000Y-167466666D03*
X163700000Y-167466666D03*
X164500000Y-167466666D03*
X165300000Y-167466666D03*
X166100000Y-167466666D03*
X166900000Y-167466666D03*
X167700000Y-167466666D03*
X168500000Y-167466666D03*
X156500000Y-168266666D03*
X157300000Y-168266666D03*
X158100000Y-168266666D03*
X158900000Y-168266666D03*
X159700000Y-168266666D03*
X160500000Y-168266666D03*
X161300000Y-168266666D03*
X162100000Y-168266666D03*
X162900000Y-168266666D03*
X163700000Y-168266666D03*
X164500000Y-168266666D03*
X165300000Y-168266666D03*
X166100000Y-168266666D03*
X166900000Y-168266666D03*
X167700000Y-168266666D03*
X168500000Y-168266666D03*
X156500000Y-169066666D03*
X157300000Y-169066666D03*
X158100000Y-169066666D03*
X158900000Y-169066666D03*
X159700000Y-169066666D03*
X160500000Y-169066666D03*
X161300000Y-169066666D03*
X162100000Y-169066666D03*
X162900000Y-169066666D03*
X163700000Y-169066666D03*
X164500000Y-169066666D03*
X165300000Y-169066666D03*
X166100000Y-169066666D03*
X166900000Y-169066666D03*
X167700000Y-169066666D03*
X168500000Y-169066666D03*
X156500000Y-169866666D03*
X157300000Y-169866666D03*
X158100000Y-169866666D03*
X158900000Y-169866666D03*
X159700000Y-169866666D03*
X160500000Y-169866666D03*
X161300000Y-169866666D03*
X162100000Y-169866666D03*
X162900000Y-169866666D03*
X163700000Y-169866666D03*
X164500000Y-169866666D03*
X165300000Y-169866666D03*
X166100000Y-169866666D03*
X166900000Y-169866666D03*
X167700000Y-169866666D03*
X168500000Y-169866666D03*
X156500000Y-170666666D03*
X157300000Y-170666666D03*
X158100000Y-170666666D03*
X158900000Y-170666666D03*
X159700000Y-170666666D03*
X160500000Y-170666666D03*
X161300000Y-170666666D03*
X162100000Y-170666666D03*
X162900000Y-170666666D03*
X163700000Y-170666666D03*
X164500000Y-170666666D03*
X165300000Y-170666666D03*
X166100000Y-170666666D03*
X166900000Y-170666666D03*
X167700000Y-170666666D03*
X168500000Y-170666666D03*
X156500000Y-171466666D03*
X157300000Y-171466666D03*
X158100000Y-171466666D03*
X158900000Y-171466666D03*
X159700000Y-171466666D03*
X160500000Y-171466666D03*
X161300000Y-171466666D03*
X162100000Y-171466666D03*
X162900000Y-171466666D03*
X163700000Y-171466666D03*
X164500000Y-171466666D03*
X165300000Y-171466666D03*
X166100000Y-171466666D03*
X166900000Y-171466666D03*
X167700000Y-171466666D03*
X168500000Y-171466666D03*
X156500000Y-172266666D03*
X157300000Y-172266666D03*
X158100000Y-172266666D03*
X158900000Y-172266666D03*
X159700000Y-172266666D03*
X160500000Y-172266666D03*
X161300000Y-172266666D03*
X162100000Y-172266666D03*
X162900000Y-172266666D03*
X163700000Y-172266666D03*
X164500000Y-172266666D03*
X165300000Y-172266666D03*
X166100000Y-172266666D03*
X166900000Y-172266666D03*
X167700000Y-172266666D03*
X168500000Y-172266666D03*
X156500000Y-173066666D03*
X157300000Y-173066666D03*
X158100000Y-173066666D03*
X158900000Y-173066666D03*
X159700000Y-173066666D03*
X160500000Y-173066666D03*
X161300000Y-173066666D03*
X162100000Y-173066666D03*
X162900000Y-173066666D03*
X163700000Y-173066666D03*
X164500000Y-173066666D03*
X165300000Y-173066666D03*
X166100000Y-173066666D03*
X166900000Y-173066666D03*
X167700000Y-173066666D03*
X168500000Y-173066666D03*
X156500000Y-173866666D03*
X157300000Y-173866666D03*
X158100000Y-173866666D03*
X158900000Y-173866666D03*
X159700000Y-173866666D03*
X160500000Y-173866666D03*
X161300000Y-173866666D03*
X162100000Y-173866666D03*
X162900000Y-173866666D03*
X163700000Y-173866666D03*
X164500000Y-173866666D03*
X165300000Y-173866666D03*
X166100000Y-173866666D03*
X166900000Y-173866666D03*
X167700000Y-173866666D03*
X168500000Y-173866666D03*
X156500000Y-174666666D03*
X157300000Y-174666666D03*
X158100000Y-174666666D03*
X158900000Y-174666666D03*
X159700000Y-174666666D03*
X160500000Y-174666666D03*
X161300000Y-174666666D03*
X162100000Y-174666666D03*
X162900000Y-174666666D03*
X163700000Y-174666666D03*
X164500000Y-174666666D03*
X165300000Y-174666666D03*
X166100000Y-174666666D03*
X166900000Y-174666666D03*
X167700000Y-174666666D03*
X168500000Y-174666666D03*
%TD*%
D21*
%TO.C,U25*%
X97499999Y-149250000D03*
X97499999Y-149750000D03*
X97499999Y-150250000D03*
X97499999Y-150750000D03*
X99399999Y-150750000D03*
X99399999Y-150250000D03*
X99399999Y-149750000D03*
X99399999Y-149250000D03*
D22*
X98449999Y-150000000D03*
%TD*%
D16*
%TO.C,C10_d*%
X101020000Y-135066666D03*
X101980000Y-135066666D03*
%TD*%
D35*
%TO.C,U15*%
X56325000Y-250761666D03*
X56325000Y-252031666D03*
X56325000Y-253301666D03*
X56325000Y-254571666D03*
X61275000Y-254571666D03*
X61275000Y-253301666D03*
X61275000Y-252031666D03*
X61275000Y-250761666D03*
D36*
X58800000Y-252666666D03*
%TD*%
D33*
%TO.C,U14*%
X118662500Y-251716666D03*
X118662500Y-252666666D03*
X118662500Y-253616666D03*
X120937500Y-253616666D03*
X120937500Y-251716666D03*
%TD*%
D16*
%TO.C,C31*%
X154395000Y-183600000D03*
X155355000Y-183600000D03*
%TD*%
D20*
%TO.C,C1a*%
X50225000Y-243333333D03*
X52125000Y-243333333D03*
%TD*%
D16*
%TO.C,C10_c*%
X110169999Y-108933333D03*
X111129999Y-108933333D03*
%TD*%
%TO.C,C4a*%
X235220000Y-189200000D03*
X236180000Y-189200000D03*
%TD*%
%TO.C,C5a*%
X226069999Y-209733333D03*
X227029999Y-209733333D03*
%TD*%
%TO.C,C9a*%
X226069999Y-187333333D03*
X227029999Y-187333333D03*
%TD*%
%TO.C,C5_g*%
X248944999Y-209733333D03*
X249904999Y-209733333D03*
%TD*%
D37*
%TO.C,C11*%
X60262500Y-248000000D03*
X66487500Y-248000000D03*
%TD*%
D16*
%TO.C,C36*%
X149819999Y-155600000D03*
X150779999Y-155600000D03*
%TD*%
D38*
%TO.C,Y1*%
X222400000Y-141516666D03*
X224600000Y-141516666D03*
X224600000Y-139816666D03*
X222400000Y-139816666D03*
%TD*%
D14*
%TO.C,J11*%
X153875000Y-24933333D03*
X154625000Y-24933333D03*
X155375000Y-24933333D03*
X156125000Y-24933333D03*
X156875000Y-24933333D03*
X157625000Y-24933333D03*
X158375000Y-24933333D03*
X159125000Y-24933333D03*
X159875000Y-24933333D03*
X160625000Y-24933333D03*
X161375000Y-24933333D03*
X162125000Y-24933333D03*
X162875000Y-24933333D03*
X163625000Y-24933333D03*
X164375000Y-24933333D03*
X165125000Y-24933333D03*
X165875000Y-24933333D03*
X166625000Y-24933333D03*
X167375000Y-24933333D03*
X168125000Y-24933333D03*
X168875000Y-24933333D03*
X169625000Y-24933333D03*
X170375000Y-24933333D03*
X171125000Y-24933333D03*
%TD*%
D16*
%TO.C,C10_b*%
X105594999Y-108933333D03*
X106554999Y-108933333D03*
%TD*%
D39*
%TO.C,U24*%
X187087500Y-76791666D03*
X187087500Y-77441666D03*
X187087500Y-78091666D03*
X187087500Y-78741666D03*
X187087500Y-79391666D03*
X187087500Y-80041666D03*
X187087500Y-80691666D03*
X187087500Y-81341666D03*
X192812500Y-81341666D03*
X192812500Y-80691666D03*
X192812500Y-80041666D03*
X192812500Y-79391666D03*
X192812500Y-78741666D03*
X192812500Y-78091666D03*
X192812500Y-77441666D03*
X192812500Y-76791666D03*
%TD*%
D40*
%TO.C,J2*%
X250950000Y-200416666D03*
X250950000Y-199916666D03*
X250950000Y-199416666D03*
X250950000Y-198916666D03*
X250950000Y-198416666D03*
X250950000Y-197916666D03*
X250950000Y-197416666D03*
X250950000Y-196916666D03*
X250950000Y-196416666D03*
X250950000Y-195916666D03*
X250950000Y-195416666D03*
X250950000Y-194916666D03*
X250950000Y-194416666D03*
X250950000Y-193916666D03*
X250950000Y-193416666D03*
X250950000Y-192916666D03*
%TD*%
D41*
%TO.C,SW1*%
X290425000Y-243333333D03*
X293825000Y-243333333D03*
%TD*%
D33*
%TO.C,U12*%
X149162499Y-251716666D03*
X149162499Y-252666666D03*
X149162499Y-253616666D03*
X151437499Y-253616666D03*
X151437499Y-251716666D03*
%TD*%
D17*
%TO.C,TP4*%
X78625000Y-278800000D03*
%TD*%
D42*
%TO.C,D3*%
X47337500Y-206000000D03*
X48912500Y-206000000D03*
%TD*%
D13*
%TO.C,R5_c*%
X47615000Y-215333333D03*
X48635000Y-215333333D03*
%TD*%
D16*
%TO.C,C5b*%
X230645000Y-209733333D03*
X231605000Y-209733333D03*
%TD*%
%TO.C,C38*%
X149819999Y-79066666D03*
X150779999Y-79066666D03*
%TD*%
D13*
%TO.C,R1a*%
X210789999Y-183600000D03*
X211809999Y-183600000D03*
%TD*%
D42*
%TO.C,D2*%
X39712500Y-206000000D03*
X41287500Y-206000000D03*
%TD*%
D17*
%TO.C,TP6*%
X109125000Y-278800000D03*
%TD*%
D43*
%TO.C,U20*%
X206787500Y-147750000D03*
X206787500Y-148250000D03*
X206787500Y-148750000D03*
X206787500Y-149250000D03*
X206787500Y-149750000D03*
X206787500Y-150250000D03*
X206787500Y-150750000D03*
X206787500Y-151250000D03*
X206787500Y-151750000D03*
X206787500Y-152250000D03*
D44*
X207500000Y-152975000D03*
X208000000Y-152975000D03*
X208500000Y-152975000D03*
X209000000Y-152975000D03*
D43*
X209712500Y-152250000D03*
X209712500Y-151750000D03*
X209712500Y-151250000D03*
X209712500Y-150750000D03*
X209712500Y-150250000D03*
X209712500Y-149750000D03*
X209712500Y-149250000D03*
X209712500Y-148750000D03*
X209712500Y-148250000D03*
X209712500Y-147750000D03*
D44*
X209000000Y-147025000D03*
X208500000Y-147025000D03*
X208000000Y-147025000D03*
X207500000Y-147025000D03*
D45*
X208250000Y-150000000D03*
%TD*%
D16*
%TO.C,C40*%
X169645000Y-79066666D03*
X170605000Y-79066666D03*
%TD*%
D33*
%TO.C,U13*%
X88162500Y-251716666D03*
X88162500Y-252666666D03*
X88162500Y-253616666D03*
X90437500Y-253616666D03*
X90437500Y-251716666D03*
%TD*%
D32*
%TO.C,MH4*%
X308900000Y-282533333D03*
%TD*%
D46*
%TO.C,F1*%
X39562500Y-262000000D03*
X41437500Y-262000000D03*
%TD*%
D16*
%TO.C,C37*%
X174220000Y-155600000D03*
X175180000Y-155600000D03*
%TD*%
D47*
%TO.C,J1*%
X25250000Y-269000000D03*
D48*
X25950000Y-256200000D03*
D49*
X18800000Y-265200000D03*
X31700000Y-265200000D03*
%TD*%
D33*
%TO.C,U10*%
X133912500Y-251716666D03*
X133912500Y-252666666D03*
X133912500Y-253616666D03*
X136187500Y-253616666D03*
X136187500Y-251716666D03*
%TD*%
D32*
%TO.C,MH3*%
X16100000Y-282533333D03*
%TD*%
D50*
%TO.C,L1*%
X62999999Y-265733333D03*
X72899999Y-265733333D03*
%TD*%
D16*
%TO.C,C10_a*%
X101020000Y-108933333D03*
X101980000Y-108933333D03*
%TD*%
D42*
%TO.C,D1*%
X32087500Y-206000000D03*
X33662500Y-206000000D03*
%TD*%
D16*
%TO.C,C50_2*%
X210819999Y-138800000D03*
X211779999Y-138800000D03*
%TD*%
D31*
%TO.C,J9*%
X193000000Y-24933333D03*
X193000000Y-20683333D03*
X193000000Y-29183333D03*
%TD*%
D16*
%TO.C,C45*%
X131520000Y-243333333D03*
X132480000Y-243333333D03*
%TD*%
%TO.C,C33*%
X165069999Y-183600000D03*
X166029999Y-183600000D03*
%TD*%
%LPD*%
D34*
X296700000Y-159333333D03*
X296700000Y-158063333D03*
X297970000Y-159333333D03*
X297970000Y-158063333D03*
X299240000Y-159333333D03*
X299240000Y-158063333D03*
X300510000Y-159333333D03*
X300510000Y-158063333D03*
X301780000Y-159333333D03*
X301780000Y-158063333D03*
X303050000Y-159333333D03*
X303050000Y-158063333D03*
X304320000Y-159333333D03*
X304320000Y-158063333D03*
X296700000Y-122000000D03*
X296700000Y-120730000D03*
X297970000Y-122000000D03*
X297970000Y-120730000D03*
X299240000Y-122000000D03*
X299240000Y-120730000D03*
X300510000Y-122000000D03*
X300510000Y-120730000D03*
X301780000Y-122000000D03*
X301780000Y-120730000D03*
X308900000Y-17466666D03*
X16100000Y-17466666D03*
X308900000Y-282533333D03*
X25250000Y-269000000D03*
X16100000Y-282533333D03*
M02*
