%TF.GenerationSoftware,KiCad,Pcbnew,9.0.9-rc1*%
%TF.CreationDate,2026-06-20T16:52:17-07:00*%
%TF.ProjectId,TFLN_AI_NODE_X2_routed,54464c4e-5f41-4495-9f4e-4f44455f5832,rev?*%
%TF.SameCoordinates,Original*%
%TF.FileFunction,Paste,Top*%
%TF.FilePolarity,Positive*%
%FSLAX46Y46*%
G04 Gerber Fmt 4.6, Leading zero omitted, Abs format (unit mm)*
G04 Created by KiCad (PCBNEW 9.0.9-rc1) date 2026-06-20 16:52:17*
%MOMM*%
%LPD*%
G01*
G04 APERTURE LIST*
G04 Aperture macros list*
%AMRoundRect*
0 Rectangle with rounded corners*
0 $1 Rounding radius*
0 $2 $3 $4 $5 $6 $7 $8 $9 X,Y pos of 4 corners*
0 Add a 4 corners polygon primitive as box body*
4,1,4,$2,$3,$4,$5,$6,$7,$8,$9,$2,$3,0*
0 Add four circle primitives for the rounded corners*
1,1,$1+$1,$2,$3*
1,1,$1+$1,$4,$5*
1,1,$1+$1,$6,$7*
1,1,$1+$1,$8,$9*
0 Add four rect primitives between the rounded corners*
20,1,$1+$1,$2,$3,$4,$5,0*
20,1,$1+$1,$4,$5,$6,$7,0*
20,1,$1+$1,$6,$7,$8,$9,0*
20,1,$1+$1,$8,$9,$2,$3,0*%
G04 Aperture macros list end*
%ADD10RoundRect,0.135000X-0.135000X-0.185000X0.135000X-0.185000X0.135000X0.185000X-0.135000X0.185000X0*%
%ADD11R,0.500000X0.800000*%
%ADD12RoundRect,0.112500X-0.187500X-0.112500X0.187500X-0.112500X0.187500X0.112500X-0.187500X0.112500X0*%
%ADD13RoundRect,0.140000X-0.140000X-0.170000X0.140000X-0.170000X0.140000X0.170000X-0.140000X0.170000X0*%
%ADD14RoundRect,0.225000X-0.225000X-0.250000X0.225000X-0.250000X0.225000X0.250000X-0.225000X0.250000X0*%
%ADD15RoundRect,0.062500X-0.675000X-0.062500X0.675000X-0.062500X0.675000X0.062500X-0.675000X0.062500X0*%
%ADD16RoundRect,0.250000X-0.250000X-0.475000X0.250000X-0.475000X0.250000X0.475000X-0.250000X0.475000X0*%
%ADD17R,0.750000X0.650000*%
%ADD18RoundRect,0.062500X-0.187500X-0.062500X0.187500X-0.062500X0.187500X0.062500X-0.187500X0.062500X0*%
%ADD19R,0.200000X0.800000*%
%ADD20R,0.800000X0.200000*%
%ADD21R,5.500000X5.500000*%
%ADD22RoundRect,0.247500X-0.247500X-0.247500X0.247500X-0.247500X0.247500X0.247500X-0.247500X0.247500X0*%
%ADD23RoundRect,0.050000X-0.350000X-0.050000X0.350000X-0.050000X0.350000X0.050000X-0.350000X0.050000X0*%
%ADD24RoundRect,0.050000X-0.050000X-0.350000X0.050000X-0.350000X0.050000X0.350000X-0.050000X0.350000X0*%
%ADD25R,5.080000X1.500000*%
%ADD26RoundRect,0.150000X-0.512500X-0.150000X0.512500X-0.150000X0.512500X0.150000X-0.512500X0.150000X0*%
%ADD27C,0.350000*%
%ADD28RoundRect,0.232500X-0.232500X-0.232500X0.232500X-0.232500X0.232500X0.232500X-0.232500X0.232500X0*%
%ADD29RoundRect,0.150000X-0.825000X-0.150000X0.825000X-0.150000X0.825000X0.150000X-0.825000X0.150000X0*%
%ADD30RoundRect,0.250000X-0.787500X-1.025000X0.787500X-1.025000X0.787500X1.025000X-0.787500X1.025000X0*%
%ADD31R,1.400000X1.200000*%
%ADD32RoundRect,0.100000X-0.637500X-0.100000X0.637500X-0.100000X0.637500X0.100000X-0.637500X0.100000X0*%
%ADD33R,1.000000X0.300000*%
%ADD34R,0.900000X1.700000*%
%ADD35RoundRect,0.218750X-0.218750X-0.256250X0.218750X-0.256250X0.218750X0.256250X-0.218750X0.256250X0*%
%ADD36RoundRect,0.172500X-0.172500X-0.307500X0.172500X-0.307500X0.172500X0.307500X-0.172500X0.307500X0*%
%ADD37RoundRect,0.062500X-0.350000X-0.062500X0.350000X-0.062500X0.350000X0.062500X-0.350000X0.062500X0*%
%ADD38RoundRect,0.062500X-0.062500X-0.337500X0.062500X-0.337500X0.062500X0.337500X-0.062500X0.337500X0*%
%ADD39RoundRect,0.243750X-0.243750X-0.456250X0.243750X-0.456250X0.243750X0.456250X-0.243750X0.456250X0*%
%ADD40R,3.300000X4.400000*%
%ADD41R,3.900000X6.200000*%
%ADD42R,2.900000X5.400000*%
G04 APERTURE END LIST*
D10*
%TO.C,R5a*%
X34490000Y-200000000D03*
X35510000Y-200000000D03*
%TD*%
D11*
%TO.C,U3*%
X150312000Y-143000000D03*
X150938000Y-143000000D03*
X151562000Y-143000000D03*
X152188000Y-143000000D03*
X152812000Y-143000000D03*
X153438000Y-143000000D03*
X154062000Y-143000000D03*
X154688000Y-143000000D03*
X155312000Y-143000000D03*
X155938000Y-143000000D03*
X156562000Y-143000000D03*
X157188000Y-143000000D03*
X157812000Y-143000000D03*
X158438000Y-143000000D03*
X159062000Y-143000000D03*
X159688000Y-143000000D03*
X160312000Y-143000000D03*
X160938000Y-143000000D03*
X161562000Y-143000000D03*
X162188000Y-143000000D03*
X162812000Y-143000000D03*
X163438000Y-143000000D03*
X164062000Y-143000000D03*
X164688000Y-143000000D03*
X165312000Y-143000000D03*
X165938000Y-143000000D03*
X166562000Y-143000000D03*
X167188000Y-143000000D03*
X167812000Y-143000000D03*
X168438000Y-143000000D03*
X169062000Y-143000000D03*
X169688000Y-143000000D03*
X170312000Y-143000000D03*
X170938000Y-143000000D03*
X171562000Y-143000000D03*
X172188000Y-143000000D03*
X172812000Y-143000000D03*
X173438000Y-143000000D03*
X174062000Y-143000000D03*
X174688000Y-143000000D03*
%TD*%
D12*
%TO.C,D5a*%
X238950000Y-185000000D03*
X241050000Y-185000000D03*
%TD*%
D13*
%TO.C,C41*%
X164020000Y-162000000D03*
X164980000Y-162000000D03*
%TD*%
%TO.C,C50_0*%
X199520000Y-125000000D03*
X200480000Y-125000000D03*
%TD*%
%TO.C,C5_e*%
X261020000Y-195000000D03*
X261980000Y-195000000D03*
%TD*%
D14*
%TO.C,C2c*%
X134225000Y-268000000D03*
X135775000Y-268000000D03*
%TD*%
D15*
%TO.C,U21*%
X107137500Y-208200000D03*
X107137500Y-208600000D03*
X107137500Y-209000000D03*
X107137500Y-209400000D03*
X107137500Y-209800000D03*
X107137500Y-210200000D03*
X107137500Y-210600000D03*
X107137500Y-211000000D03*
X107137500Y-211400000D03*
X107137500Y-211800000D03*
X112862500Y-211800000D03*
X112862500Y-211400000D03*
X112862500Y-211000000D03*
X112862500Y-210600000D03*
X112862500Y-210200000D03*
X112862500Y-209800000D03*
X112862500Y-209400000D03*
X112862500Y-209000000D03*
X112862500Y-208600000D03*
X112862500Y-208200000D03*
%TD*%
D13*
%TO.C,C32*%
X148520000Y-175000000D03*
X149480000Y-175000000D03*
%TD*%
%TO.C,C35*%
X165020000Y-175000000D03*
X165980000Y-175000000D03*
%TD*%
%TO.C,C5_f*%
X266520000Y-195000000D03*
X267480000Y-195000000D03*
%TD*%
D16*
%TO.C,C1b*%
X109050000Y-268000000D03*
X110950000Y-268000000D03*
%TD*%
D13*
%TO.C,C30*%
X137520000Y-175000000D03*
X138480000Y-175000000D03*
%TD*%
%TO.C,C50_1*%
X205020000Y-125000000D03*
X205980000Y-125000000D03*
%TD*%
D14*
%TO.C,C2b*%
X129225000Y-268000000D03*
X130775000Y-268000000D03*
%TD*%
D13*
%TO.C,C5_d*%
X255520000Y-195000000D03*
X256480000Y-195000000D03*
%TD*%
D17*
%TO.C,U23*%
X270000000Y-194600000D03*
X270000000Y-195400000D03*
D18*
X269050000Y-194250000D03*
X269050000Y-194750000D03*
X269050000Y-195250000D03*
X269050000Y-195750000D03*
X270950000Y-195750000D03*
X270950000Y-195250000D03*
X270950000Y-194750000D03*
X270950000Y-194250000D03*
%TD*%
D13*
%TO.C,C50_3*%
X216020000Y-125000000D03*
X216980000Y-125000000D03*
%TD*%
D14*
%TO.C,C2a*%
X124225000Y-268000000D03*
X125775000Y-268000000D03*
%TD*%
D13*
%TO.C,C39*%
X153020000Y-162000000D03*
X153980000Y-162000000D03*
%TD*%
D19*
%TO.C,U4*%
X217000000Y-152000000D03*
X217400000Y-152000000D03*
X217800000Y-152000000D03*
X218200000Y-152000000D03*
X218600000Y-152000000D03*
X219000000Y-152000000D03*
X219400000Y-152000000D03*
X219800000Y-152000000D03*
X220200000Y-152000000D03*
X220600000Y-152000000D03*
X221000000Y-152000000D03*
X221400000Y-152000000D03*
X221800000Y-152000000D03*
X222200000Y-152000000D03*
X222600000Y-152000000D03*
X223000000Y-152000000D03*
D20*
X224000000Y-151000000D03*
X224000000Y-150600000D03*
X224000000Y-150200000D03*
X224000000Y-149800000D03*
X224000000Y-149400000D03*
X224000000Y-149000000D03*
X224000000Y-148600000D03*
X224000000Y-148200000D03*
X224000000Y-147800000D03*
X224000000Y-147400000D03*
X224000000Y-147000000D03*
X224000000Y-146600000D03*
X224000000Y-146200000D03*
X224000000Y-145800000D03*
X224000000Y-145400000D03*
X224000000Y-145000000D03*
D19*
X223000000Y-144000000D03*
X222600000Y-144000000D03*
X222200000Y-144000000D03*
X221800000Y-144000000D03*
X221400000Y-144000000D03*
X221000000Y-144000000D03*
X220600000Y-144000000D03*
X220200000Y-144000000D03*
X219800000Y-144000000D03*
X219400000Y-144000000D03*
X219000000Y-144000000D03*
X218600000Y-144000000D03*
X218200000Y-144000000D03*
X217800000Y-144000000D03*
X217400000Y-144000000D03*
X217000000Y-144000000D03*
D20*
X216000000Y-145000000D03*
X216000000Y-145400000D03*
X216000000Y-145800000D03*
X216000000Y-146200000D03*
X216000000Y-146600000D03*
X216000000Y-147000000D03*
X216000000Y-147400000D03*
X216000000Y-147800000D03*
X216000000Y-148200000D03*
X216000000Y-148600000D03*
X216000000Y-149000000D03*
X216000000Y-149400000D03*
X216000000Y-149800000D03*
X216000000Y-150200000D03*
X216000000Y-150600000D03*
X216000000Y-151000000D03*
D21*
X220000000Y-148000000D03*
%TD*%
D19*
%TO.C,U1*%
X102000000Y-152000000D03*
X102400000Y-152000000D03*
X102800000Y-152000000D03*
X103200000Y-152000000D03*
X103600000Y-152000000D03*
X104000000Y-152000000D03*
X104400000Y-152000000D03*
X104800000Y-152000000D03*
X105200000Y-152000000D03*
X105600000Y-152000000D03*
X106000000Y-152000000D03*
X106400000Y-152000000D03*
X106800000Y-152000000D03*
X107200000Y-152000000D03*
X107600000Y-152000000D03*
X108000000Y-152000000D03*
D20*
X109000000Y-151000000D03*
X109000000Y-150600000D03*
X109000000Y-150200000D03*
X109000000Y-149800000D03*
X109000000Y-149400000D03*
X109000000Y-149000000D03*
X109000000Y-148600000D03*
X109000000Y-148200000D03*
X109000000Y-147800000D03*
X109000000Y-147400000D03*
X109000000Y-147000000D03*
X109000000Y-146600000D03*
X109000000Y-146200000D03*
X109000000Y-145800000D03*
X109000000Y-145400000D03*
X109000000Y-145000000D03*
D19*
X108000000Y-144000000D03*
X107600000Y-144000000D03*
X107200000Y-144000000D03*
X106800000Y-144000000D03*
X106400000Y-144000000D03*
X106000000Y-144000000D03*
X105600000Y-144000000D03*
X105200000Y-144000000D03*
X104800000Y-144000000D03*
X104400000Y-144000000D03*
X104000000Y-144000000D03*
X103600000Y-144000000D03*
X103200000Y-144000000D03*
X102800000Y-144000000D03*
X102400000Y-144000000D03*
X102000000Y-144000000D03*
D20*
X101000000Y-145000000D03*
X101000000Y-145400000D03*
X101000000Y-145800000D03*
X101000000Y-146200000D03*
X101000000Y-146600000D03*
X101000000Y-147000000D03*
X101000000Y-147400000D03*
X101000000Y-147800000D03*
X101000000Y-148200000D03*
X101000000Y-148600000D03*
X101000000Y-149000000D03*
X101000000Y-149400000D03*
X101000000Y-149800000D03*
X101000000Y-150200000D03*
X101000000Y-150600000D03*
X101000000Y-151000000D03*
D21*
X105000000Y-148000000D03*
%TD*%
D13*
%TO.C,C4b*%
X157520000Y-162000000D03*
X158480000Y-162000000D03*
%TD*%
D10*
%TO.C,R5_b*%
X34490000Y-207000000D03*
X35510000Y-207000000D03*
%TD*%
D22*
%TO.C,U22*%
X268770000Y-208770000D03*
X268770000Y-210000000D03*
X268770000Y-211230000D03*
X270000000Y-208770000D03*
X270000000Y-210000000D03*
X270000000Y-211230000D03*
X271230000Y-208770000D03*
X271230000Y-210000000D03*
X271230000Y-211230000D03*
D23*
X267550000Y-207725000D03*
X267550000Y-208075000D03*
X267550000Y-208425000D03*
X267550000Y-208775000D03*
X267550000Y-209125000D03*
X267550000Y-209475000D03*
X267550000Y-209825000D03*
X267550000Y-210175000D03*
X267550000Y-210525000D03*
X267550000Y-210875000D03*
X267550000Y-211225000D03*
X267550000Y-211575000D03*
X267550000Y-211925000D03*
X267550000Y-212275000D03*
D24*
X268425000Y-212450000D03*
X268775000Y-212450000D03*
X269125000Y-212450000D03*
X269475000Y-212450000D03*
X269825000Y-212450000D03*
X270175000Y-212450000D03*
X270525000Y-212450000D03*
X270875000Y-212450000D03*
X271225000Y-212450000D03*
X271575000Y-212450000D03*
D23*
X272450000Y-212275000D03*
X272450000Y-211925000D03*
X272450000Y-211575000D03*
X272450000Y-211225000D03*
X272450000Y-210875000D03*
X272450000Y-210525000D03*
X272450000Y-210175000D03*
X272450000Y-209825000D03*
X272450000Y-209475000D03*
X272450000Y-209125000D03*
X272450000Y-208775000D03*
X272450000Y-208425000D03*
X272450000Y-208075000D03*
X272450000Y-207725000D03*
D24*
X271575000Y-207550000D03*
X271225000Y-207550000D03*
X270875000Y-207550000D03*
X270525000Y-207550000D03*
X270175000Y-207550000D03*
X269825000Y-207550000D03*
X269475000Y-207550000D03*
X269125000Y-207550000D03*
X268775000Y-207550000D03*
X268425000Y-207550000D03*
%TD*%
D25*
%TO.C,J8*%
X120000000Y-28000000D03*
X120000000Y-23750000D03*
X120000000Y-32250000D03*
%TD*%
%TO.C,J10*%
X235000000Y-28000000D03*
X235000000Y-23750000D03*
X235000000Y-32250000D03*
%TD*%
%TO.C,J7*%
X90000000Y-28000000D03*
X90000000Y-23750000D03*
X90000000Y-32250000D03*
%TD*%
D13*
%TO.C,C44*%
X154520000Y-268000000D03*
X155480000Y-268000000D03*
%TD*%
%TO.C,C43*%
X149520000Y-268000000D03*
X150480000Y-268000000D03*
%TD*%
%TO.C,C42*%
X144520000Y-268000000D03*
X145480000Y-268000000D03*
%TD*%
%TO.C,C34*%
X159520000Y-175000000D03*
X160480000Y-175000000D03*
%TD*%
D26*
%TO.C,U11*%
X138862500Y-254050000D03*
X138862500Y-255000000D03*
X138862500Y-255950000D03*
X141137500Y-255950000D03*
X141137500Y-254050000D03*
%TD*%
D12*
%TO.C,D5b*%
X253950000Y-185000000D03*
X256050000Y-185000000D03*
%TD*%
D27*
%TO.C,U2*%
X156500000Y-142000000D03*
X157300000Y-142000000D03*
X158100000Y-142000000D03*
X158900000Y-142000000D03*
X159700000Y-142000000D03*
X160500000Y-142000000D03*
X161300000Y-142000000D03*
X162100000Y-142000000D03*
X162900000Y-142000000D03*
X163700000Y-142000000D03*
X164500000Y-142000000D03*
X165300000Y-142000000D03*
X166100000Y-142000000D03*
X166900000Y-142000000D03*
X167700000Y-142000000D03*
X168500000Y-142000000D03*
X156500000Y-142800000D03*
X157300000Y-142800000D03*
X158100000Y-142800000D03*
X158900000Y-142800000D03*
X159700000Y-142800000D03*
X160500000Y-142800000D03*
X161300000Y-142800000D03*
X162100000Y-142800000D03*
X162900000Y-142800000D03*
X163700000Y-142800000D03*
X164500000Y-142800000D03*
X165300000Y-142800000D03*
X166100000Y-142800000D03*
X166900000Y-142800000D03*
X167700000Y-142800000D03*
X168500000Y-142800000D03*
X156500000Y-143600000D03*
X157300000Y-143600000D03*
X158100000Y-143600000D03*
X158900000Y-143600000D03*
X159700000Y-143600000D03*
X160500000Y-143600000D03*
X161300000Y-143600000D03*
X162100000Y-143600000D03*
X162900000Y-143600000D03*
X163700000Y-143600000D03*
X164500000Y-143600000D03*
X165300000Y-143600000D03*
X166100000Y-143600000D03*
X166900000Y-143600000D03*
X167700000Y-143600000D03*
X168500000Y-143600000D03*
X156500000Y-144400000D03*
X157300000Y-144400000D03*
X158100000Y-144400000D03*
X158900000Y-144400000D03*
X159700000Y-144400000D03*
X160500000Y-144400000D03*
X161300000Y-144400000D03*
X162100000Y-144400000D03*
X162900000Y-144400000D03*
X163700000Y-144400000D03*
X164500000Y-144400000D03*
X165300000Y-144400000D03*
X166100000Y-144400000D03*
X166900000Y-144400000D03*
X167700000Y-144400000D03*
X168500000Y-144400000D03*
X156500000Y-145200000D03*
X157300000Y-145200000D03*
X158100000Y-145200000D03*
X158900000Y-145200000D03*
X159700000Y-145200000D03*
X160500000Y-145200000D03*
X161300000Y-145200000D03*
X162100000Y-145200000D03*
X162900000Y-145200000D03*
X163700000Y-145200000D03*
X164500000Y-145200000D03*
X165300000Y-145200000D03*
X166100000Y-145200000D03*
X166900000Y-145200000D03*
X167700000Y-145200000D03*
X168500000Y-145200000D03*
X156500000Y-146000000D03*
X157300000Y-146000000D03*
X158100000Y-146000000D03*
X158900000Y-146000000D03*
X159700000Y-146000000D03*
X160500000Y-146000000D03*
X161300000Y-146000000D03*
X162100000Y-146000000D03*
X162900000Y-146000000D03*
X163700000Y-146000000D03*
X164500000Y-146000000D03*
X165300000Y-146000000D03*
X166100000Y-146000000D03*
X166900000Y-146000000D03*
X167700000Y-146000000D03*
X168500000Y-146000000D03*
X156500000Y-146800000D03*
X157300000Y-146800000D03*
X158100000Y-146800000D03*
X158900000Y-146800000D03*
X159700000Y-146800000D03*
X160500000Y-146800000D03*
X161300000Y-146800000D03*
X162100000Y-146800000D03*
X162900000Y-146800000D03*
X163700000Y-146800000D03*
X164500000Y-146800000D03*
X165300000Y-146800000D03*
X166100000Y-146800000D03*
X166900000Y-146800000D03*
X167700000Y-146800000D03*
X168500000Y-146800000D03*
X156500000Y-147600000D03*
X157300000Y-147600000D03*
X158100000Y-147600000D03*
X158900000Y-147600000D03*
X159700000Y-147600000D03*
X160500000Y-147600000D03*
X161300000Y-147600000D03*
X162100000Y-147600000D03*
X162900000Y-147600000D03*
X163700000Y-147600000D03*
X164500000Y-147600000D03*
X165300000Y-147600000D03*
X166100000Y-147600000D03*
X166900000Y-147600000D03*
X167700000Y-147600000D03*
X168500000Y-147600000D03*
X156500000Y-148400000D03*
X157300000Y-148400000D03*
X158100000Y-148400000D03*
X158900000Y-148400000D03*
X159700000Y-148400000D03*
X160500000Y-148400000D03*
X161300000Y-148400000D03*
X162100000Y-148400000D03*
X162900000Y-148400000D03*
X163700000Y-148400000D03*
X164500000Y-148400000D03*
X165300000Y-148400000D03*
X166100000Y-148400000D03*
X166900000Y-148400000D03*
X167700000Y-148400000D03*
X168500000Y-148400000D03*
X156500000Y-149200000D03*
X157300000Y-149200000D03*
X158100000Y-149200000D03*
X158900000Y-149200000D03*
X159700000Y-149200000D03*
X160500000Y-149200000D03*
X161300000Y-149200000D03*
X162100000Y-149200000D03*
X162900000Y-149200000D03*
X163700000Y-149200000D03*
X164500000Y-149200000D03*
X165300000Y-149200000D03*
X166100000Y-149200000D03*
X166900000Y-149200000D03*
X167700000Y-149200000D03*
X168500000Y-149200000D03*
X156500000Y-150000000D03*
X157300000Y-150000000D03*
X158100000Y-150000000D03*
X158900000Y-150000000D03*
X159700000Y-150000000D03*
X160500000Y-150000000D03*
X161300000Y-150000000D03*
X162100000Y-150000000D03*
X162900000Y-150000000D03*
X163700000Y-150000000D03*
X164500000Y-150000000D03*
X165300000Y-150000000D03*
X166100000Y-150000000D03*
X166900000Y-150000000D03*
X167700000Y-150000000D03*
X168500000Y-150000000D03*
X156500000Y-150800000D03*
X157300000Y-150800000D03*
X158100000Y-150800000D03*
X158900000Y-150800000D03*
X159700000Y-150800000D03*
X160500000Y-150800000D03*
X161300000Y-150800000D03*
X162100000Y-150800000D03*
X162900000Y-150800000D03*
X163700000Y-150800000D03*
X164500000Y-150800000D03*
X165300000Y-150800000D03*
X166100000Y-150800000D03*
X166900000Y-150800000D03*
X167700000Y-150800000D03*
X168500000Y-150800000D03*
X156500000Y-151600000D03*
X157300000Y-151600000D03*
X158100000Y-151600000D03*
X158900000Y-151600000D03*
X159700000Y-151600000D03*
X160500000Y-151600000D03*
X161300000Y-151600000D03*
X162100000Y-151600000D03*
X162900000Y-151600000D03*
X163700000Y-151600000D03*
X164500000Y-151600000D03*
X165300000Y-151600000D03*
X166100000Y-151600000D03*
X166900000Y-151600000D03*
X167700000Y-151600000D03*
X168500000Y-151600000D03*
X156500000Y-152400000D03*
X157300000Y-152400000D03*
X158100000Y-152400000D03*
X158900000Y-152400000D03*
X159700000Y-152400000D03*
X160500000Y-152400000D03*
X161300000Y-152400000D03*
X162100000Y-152400000D03*
X162900000Y-152400000D03*
X163700000Y-152400000D03*
X164500000Y-152400000D03*
X165300000Y-152400000D03*
X166100000Y-152400000D03*
X166900000Y-152400000D03*
X167700000Y-152400000D03*
X168500000Y-152400000D03*
X156500000Y-153200000D03*
X157300000Y-153200000D03*
X158100000Y-153200000D03*
X158900000Y-153200000D03*
X159700000Y-153200000D03*
X160500000Y-153200000D03*
X161300000Y-153200000D03*
X162100000Y-153200000D03*
X162900000Y-153200000D03*
X163700000Y-153200000D03*
X164500000Y-153200000D03*
X165300000Y-153200000D03*
X166100000Y-153200000D03*
X166900000Y-153200000D03*
X167700000Y-153200000D03*
X168500000Y-153200000D03*
X156500000Y-154000000D03*
X157300000Y-154000000D03*
X158100000Y-154000000D03*
X158900000Y-154000000D03*
X159700000Y-154000000D03*
X160500000Y-154000000D03*
X161300000Y-154000000D03*
X162100000Y-154000000D03*
X162900000Y-154000000D03*
X163700000Y-154000000D03*
X164500000Y-154000000D03*
X165300000Y-154000000D03*
X166100000Y-154000000D03*
X166900000Y-154000000D03*
X167700000Y-154000000D03*
X168500000Y-154000000D03*
%TD*%
D17*
%TO.C,U25*%
X162500000Y-214600000D03*
X162500000Y-215400000D03*
D18*
X161550000Y-214250000D03*
X161550000Y-214750000D03*
X161550000Y-215250000D03*
X161550000Y-215750000D03*
X163450000Y-215750000D03*
X163450000Y-215250000D03*
X163450000Y-214750000D03*
X163450000Y-214250000D03*
%TD*%
D13*
%TO.C,C10_d*%
X101020000Y-125000000D03*
X101980000Y-125000000D03*
%TD*%
D28*
%TO.C,U15*%
X37425000Y-254425000D03*
X37425000Y-255575000D03*
X38575000Y-254425000D03*
X38575000Y-255575000D03*
D29*
X35525000Y-253095000D03*
X35525000Y-254365000D03*
X35525000Y-255635000D03*
X35525000Y-256905000D03*
X40475000Y-256905000D03*
X40475000Y-255635000D03*
X40475000Y-254365000D03*
X40475000Y-253095000D03*
%TD*%
D26*
%TO.C,U14*%
X88862500Y-254050000D03*
X88862500Y-255000000D03*
X88862500Y-255950000D03*
X91137500Y-255950000D03*
X91137500Y-254050000D03*
%TD*%
D13*
%TO.C,C31*%
X143020000Y-175000000D03*
X143980000Y-175000000D03*
%TD*%
D16*
%TO.C,C1a*%
X104050000Y-268000000D03*
X105950000Y-268000000D03*
%TD*%
D13*
%TO.C,C10_c*%
X95520000Y-125000000D03*
X96480000Y-125000000D03*
%TD*%
%TO.C,C4a*%
X151520000Y-162000000D03*
X152480000Y-162000000D03*
%TD*%
%TO.C,C5a*%
X244520000Y-195000000D03*
X245480000Y-195000000D03*
%TD*%
%TO.C,C9a*%
X229520000Y-185000000D03*
X230480000Y-185000000D03*
%TD*%
%TO.C,C5_g*%
X272020000Y-195000000D03*
X272980000Y-195000000D03*
%TD*%
D30*
%TO.C,C11*%
X71887500Y-268000000D03*
X78112500Y-268000000D03*
%TD*%
D13*
%TO.C,C36*%
X170520000Y-175000000D03*
X171480000Y-175000000D03*
%TD*%
D31*
%TO.C,Y1*%
X258900000Y-145850000D03*
X261100000Y-145850000D03*
X261100000Y-144150000D03*
X258900000Y-144150000D03*
%TD*%
D11*
%TO.C,J11*%
X153875000Y-28000000D03*
X154625000Y-28000000D03*
X155375000Y-28000000D03*
X156125000Y-28000000D03*
X156875000Y-28000000D03*
X157625000Y-28000000D03*
X158375000Y-28000000D03*
X159125000Y-28000000D03*
X159875000Y-28000000D03*
X160625000Y-28000000D03*
X161375000Y-28000000D03*
X162125000Y-28000000D03*
X162875000Y-28000000D03*
X163625000Y-28000000D03*
X164375000Y-28000000D03*
X165125000Y-28000000D03*
X165875000Y-28000000D03*
X166625000Y-28000000D03*
X167375000Y-28000000D03*
X168125000Y-28000000D03*
X168875000Y-28000000D03*
X169625000Y-28000000D03*
X170375000Y-28000000D03*
X171125000Y-28000000D03*
%TD*%
D13*
%TO.C,C10_b*%
X90020000Y-125000000D03*
X90980000Y-125000000D03*
%TD*%
D32*
%TO.C,U24*%
X212137500Y-207725000D03*
X212137500Y-208375000D03*
X212137500Y-209025000D03*
X212137500Y-209675000D03*
X212137500Y-210325000D03*
X212137500Y-210975000D03*
X212137500Y-211625000D03*
X212137500Y-212275000D03*
X217862500Y-212275000D03*
X217862500Y-211625000D03*
X217862500Y-210975000D03*
X217862500Y-210325000D03*
X217862500Y-209675000D03*
X217862500Y-209025000D03*
X217862500Y-208375000D03*
X217862500Y-207725000D03*
%TD*%
D33*
%TO.C,J2*%
X280000000Y-196250000D03*
X280000000Y-196750000D03*
X280000000Y-197250000D03*
X280000000Y-197750000D03*
X280000000Y-198250000D03*
X280000000Y-198750000D03*
X280000000Y-199250000D03*
X280000000Y-199750000D03*
X280000000Y-200250000D03*
X280000000Y-200750000D03*
X280000000Y-201250000D03*
X280000000Y-201750000D03*
X280000000Y-202250000D03*
X280000000Y-202750000D03*
X280000000Y-203250000D03*
X280000000Y-203750000D03*
%TD*%
D34*
%TO.C,SW1*%
X283300000Y-265000000D03*
X286700000Y-265000000D03*
%TD*%
D26*
%TO.C,U12*%
X163862500Y-254050000D03*
X163862500Y-255000000D03*
X163862500Y-255950000D03*
X166137500Y-255950000D03*
X166137500Y-254050000D03*
%TD*%
D35*
%TO.C,D3*%
X24212500Y-214000000D03*
X25787500Y-214000000D03*
%TD*%
D10*
%TO.C,R5_c*%
X34490000Y-214000000D03*
X35510000Y-214000000D03*
%TD*%
D13*
%TO.C,C5b*%
X250020000Y-195000000D03*
X250980000Y-195000000D03*
%TD*%
%TO.C,C38*%
X147520000Y-162000000D03*
X148480000Y-162000000D03*
%TD*%
D10*
%TO.C,R1a*%
X204490000Y-185000000D03*
X205510000Y-185000000D03*
%TD*%
D35*
%TO.C,D2*%
X24212500Y-207000000D03*
X25787500Y-207000000D03*
%TD*%
D36*
%TO.C,U20*%
X162075000Y-193215000D03*
X162075000Y-194405000D03*
X162075000Y-195595000D03*
X162075000Y-196785000D03*
X162925000Y-193215000D03*
X162925000Y-194405000D03*
X162925000Y-195595000D03*
X162925000Y-196785000D03*
D37*
X161037500Y-192750000D03*
X161037500Y-193250000D03*
X161037500Y-193750000D03*
X161037500Y-194250000D03*
X161037500Y-194750000D03*
X161037500Y-195250000D03*
X161037500Y-195750000D03*
X161037500Y-196250000D03*
X161037500Y-196750000D03*
X161037500Y-197250000D03*
D38*
X161750000Y-197975000D03*
X162250000Y-197975000D03*
X162750000Y-197975000D03*
X163250000Y-197975000D03*
D37*
X163962500Y-197250000D03*
X163962500Y-196750000D03*
X163962500Y-196250000D03*
X163962500Y-195750000D03*
X163962500Y-195250000D03*
X163962500Y-194750000D03*
X163962500Y-194250000D03*
X163962500Y-193750000D03*
X163962500Y-193250000D03*
X163962500Y-192750000D03*
D38*
X163250000Y-192025000D03*
X162750000Y-192025000D03*
X162250000Y-192025000D03*
X161750000Y-192025000D03*
%TD*%
D13*
%TO.C,C40*%
X158520000Y-162000000D03*
X159480000Y-162000000D03*
%TD*%
D26*
%TO.C,U13*%
X63862500Y-254050000D03*
X63862500Y-255000000D03*
X63862500Y-255950000D03*
X66137500Y-255950000D03*
X66137500Y-254050000D03*
%TD*%
D39*
%TO.C,F1*%
X54062500Y-268000000D03*
X55937500Y-268000000D03*
%TD*%
D13*
%TO.C,C37*%
X176020000Y-175000000D03*
X176980000Y-175000000D03*
%TD*%
D40*
%TO.C,J1*%
X18700000Y-259200000D03*
D41*
X11550000Y-268200000D03*
X24450000Y-268200000D03*
%TD*%
D26*
%TO.C,U10*%
X113862500Y-254050000D03*
X113862500Y-255000000D03*
X113862500Y-255950000D03*
X116137500Y-255950000D03*
X116137500Y-254050000D03*
%TD*%
D42*
%TO.C,L1*%
X33050000Y-268000000D03*
X42950000Y-268000000D03*
%TD*%
D13*
%TO.C,C10_a*%
X84520000Y-125000000D03*
X85480000Y-125000000D03*
%TD*%
D35*
%TO.C,D1*%
X24212500Y-200000000D03*
X25787500Y-200000000D03*
%TD*%
D13*
%TO.C,C50_2*%
X210520000Y-125000000D03*
X211480000Y-125000000D03*
%TD*%
D25*
%TO.C,J9*%
X205000000Y-28000000D03*
X205000000Y-23750000D03*
X205000000Y-32250000D03*
%TD*%
D13*
%TO.C,C45*%
X159520000Y-268000000D03*
X160480000Y-268000000D03*
%TD*%
%TO.C,C33*%
X154020000Y-175000000D03*
X154980000Y-175000000D03*
%TD*%
D27*
X28000000Y-170000000D03*
X29270000Y-170000000D03*
X28000000Y-171270000D03*
X29270000Y-171270000D03*
X28000000Y-172540000D03*
X29270000Y-172540000D03*
X28000000Y-173810000D03*
X29270000Y-173810000D03*
X28000000Y-175080000D03*
X29270000Y-175080000D03*
X28000000Y-176350000D03*
X29270000Y-176350000D03*
X28000000Y-177620000D03*
X29270000Y-177620000D03*
X28000000Y-148000000D03*
X29270000Y-148000000D03*
X28000000Y-149270000D03*
X29270000Y-149270000D03*
X28000000Y-150540000D03*
X29270000Y-150540000D03*
X28000000Y-151810000D03*
X29270000Y-151810000D03*
X28000000Y-153080000D03*
X29270000Y-153080000D03*
X308000000Y-17000000D03*
X17000000Y-17000000D03*
X308000000Y-283000000D03*
X18000000Y-272000000D03*
X17000000Y-283000000D03*
M02*
