M48
METRIC
T1C0.150
T2C0.200
T3C0.650
T4C2.000
T5C3.200
%
G90
G05
T1
X160.6Y-79.033
X160.6Y-80.033
X160.6Y-81.033
X160.6Y-82.033
X160.6Y-83.033
X160.6Y-84.033
X160.6Y-85.033
X160.6Y-86.033
X161.55Y-79.033
X161.55Y-80.033
X161.55Y-81.033
X161.55Y-82.033
X161.55Y-83.033
X161.55Y-84.033
X161.55Y-85.033
X161.55Y-86.033
X161.6Y-79.033
X161.6Y-80.033
X161.6Y-81.033
X161.6Y-82.033
X161.6Y-83.033
X161.6Y-84.033
X161.6Y-85.033
X161.6Y-86.033
X162.55Y-79.033
X162.55Y-80.033
X162.55Y-81.033
X162.55Y-82.033
X162.55Y-83.033
X162.55Y-84.033
X162.55Y-85.033
X162.55Y-86.033
X162.6Y-79.033
X162.6Y-80.033
X162.6Y-81.033
X162.6Y-82.033
X162.6Y-83.033
X162.6Y-84.033
X162.6Y-85.033
X162.6Y-86.033
X163.55Y-79.033
X163.55Y-80.033
X163.55Y-81.033
X163.55Y-82.033
X163.55Y-83.033
X163.55Y-84.033
X163.55Y-85.033
X163.55Y-86.033
X163.6Y-79.033
X163.6Y-80.033
X163.6Y-81.033
X163.6Y-82.033
X163.6Y-83.033
X163.6Y-84.033
X163.6Y-85.033
X163.6Y-86.033
X164.55Y-79.033
X164.55Y-80.033
X164.55Y-81.033
X164.55Y-82.033
X164.55Y-83.033
X164.55Y-84.033
X164.55Y-85.033
X164.55Y-86.033
T2
X18.0Y-18.0
X18.0Y-23.0
X18.0Y-28.0
X18.0Y-33.0
X18.0Y-38.0
X18.0Y-43.0
X18.0Y-48.0
X18.0Y-53.0
X18.0Y-58.0
X18.0Y-63.0
X18.0Y-68.0
X18.0Y-73.0
X18.0Y-78.0
X18.0Y-83.0
X18.0Y-88.0
X18.0Y-93.0
X18.0Y-98.0
X18.0Y-103.0
X18.0Y-108.0
X18.0Y-113.0
X18.0Y-118.0
X18.0Y-123.0
X18.0Y-128.0
X18.0Y-133.0
X18.0Y-138.0
X18.0Y-143.0
X18.0Y-148.0
X18.0Y-153.0
X18.0Y-158.0
X18.0Y-163.0
X18.0Y-168.0
X18.0Y-173.0
X18.0Y-178.0
X18.0Y-183.0
X18.0Y-188.0
X18.0Y-193.0
X18.0Y-198.0
X18.0Y-203.0
X18.0Y-208.0
X18.0Y-213.0
X18.0Y-218.0
X18.0Y-223.0
X18.0Y-228.0
X18.0Y-233.0
X18.0Y-238.0
X18.0Y-243.0
X18.0Y-248.0
X18.0Y-253.0
X18.0Y-258.0
X18.0Y-263.0
X18.0Y-268.0
X18.0Y-273.0
X18.0Y-278.0
X23.0Y-18.0
X23.0Y-23.0
X23.0Y-28.0
X23.0Y-33.0
X23.0Y-38.0
X23.0Y-43.0
X23.0Y-48.0
X23.0Y-53.0
X23.0Y-58.0
X23.0Y-63.0
X23.0Y-68.0
X23.0Y-73.0
X23.0Y-78.0
X23.0Y-83.0
X23.0Y-88.0
X23.0Y-93.0
X23.0Y-98.0
X23.0Y-103.0
X23.0Y-108.0
X23.0Y-113.0
X23.0Y-118.0
X23.0Y-123.0
X23.0Y-128.0
X23.0Y-133.0
X23.0Y-138.0
X23.0Y-143.0
X23.0Y-148.0
X23.0Y-153.0
X23.0Y-158.0
X23.0Y-163.0
X23.0Y-168.0
X23.0Y-173.0
X23.0Y-178.0
X23.0Y-183.0
X23.0Y-188.0
X23.0Y-193.0
X23.0Y-198.0
X23.0Y-203.0
X23.0Y-208.0
X23.0Y-213.0
X23.0Y-218.0
X23.0Y-223.0
X23.0Y-228.0
X23.0Y-233.0
X23.0Y-238.0
X23.0Y-243.0
X23.0Y-248.0
X23.0Y-253.0
X23.0Y-258.0
X23.0Y-263.0
X23.0Y-268.0
X23.0Y-273.0
X23.0Y-278.0
X28.0Y-18.0
X28.0Y-23.0
X28.0Y-28.0
X28.0Y-33.0
X28.0Y-38.0
X28.0Y-43.0
X28.0Y-48.0
X28.0Y-53.0
X28.0Y-58.0
X28.0Y-63.0
X28.0Y-68.0
X28.0Y-73.0
X28.0Y-78.0
X28.0Y-83.0
X28.0Y-88.0
X28.0Y-93.0
X28.0Y-98.0
X28.0Y-103.0
X28.0Y-108.0
X28.0Y-113.0
X28.0Y-118.0
X28.0Y-123.0
X28.0Y-128.0
X28.0Y-133.0
X28.0Y-138.0
X28.0Y-143.0
X28.0Y-148.0
X28.0Y-153.0
X28.0Y-158.0
X28.0Y-163.0
X28.0Y-168.0
X28.0Y-173.0
X28.0Y-178.0
X28.0Y-183.0
X28.0Y-188.0
X28.0Y-193.0
X28.0Y-198.0
X28.0Y-203.0
X28.0Y-208.0
X28.0Y-213.0
X28.0Y-218.0
X28.0Y-223.0
X28.0Y-228.0
X28.0Y-233.0
X28.0Y-238.0
X28.0Y-243.0
X28.0Y-248.0
X28.0Y-253.0
X28.0Y-258.0
X28.0Y-263.0
X28.0Y-268.0
X28.0Y-273.0
X28.0Y-278.0
X33.0Y-18.0
X33.0Y-23.0
X33.0Y-28.0
X33.0Y-33.0
X33.0Y-38.0
X33.0Y-43.0
X33.0Y-48.0
X33.0Y-53.0
X33.0Y-58.0
X33.0Y-63.0
X33.0Y-68.0
X33.0Y-73.0
X33.0Y-78.0
X33.0Y-83.0
X33.0Y-88.0
X33.0Y-93.0
X33.0Y-98.0
X33.0Y-103.0
X33.0Y-108.0
X33.0Y-113.0
X33.0Y-118.0
X33.0Y-123.0
X33.0Y-128.0
X33.0Y-133.0
X33.0Y-138.0
X33.0Y-143.0
X33.0Y-148.0
X33.0Y-153.0
X33.0Y-158.0
X33.0Y-163.0
X33.0Y-168.0
X33.0Y-173.0
X33.0Y-178.0
X33.0Y-183.0
X33.0Y-188.0
X33.0Y-193.0
X33.0Y-198.0
X33.0Y-203.0
X33.0Y-208.0
X33.0Y-213.0
X33.0Y-218.0
X33.0Y-223.0
X33.0Y-228.0
X33.0Y-233.0
X33.0Y-238.0
X33.0Y-243.0
X33.0Y-248.0
X33.0Y-253.0
X33.0Y-258.0
X33.0Y-263.0
X33.0Y-268.0
X33.0Y-273.0
X33.0Y-278.0
X38.0Y-18.0
X38.0Y-23.0
X38.0Y-28.0
X38.0Y-33.0
X38.0Y-38.0
X38.0Y-43.0
X38.0Y-48.0
X38.0Y-53.0
X38.0Y-58.0
X38.0Y-63.0
X38.0Y-68.0
X38.0Y-73.0
X38.0Y-78.0
X38.0Y-83.0
X38.0Y-88.0
X38.0Y-93.0
X38.0Y-98.0
X38.0Y-103.0
X38.0Y-108.0
X38.0Y-113.0
X38.0Y-118.0
X38.0Y-123.0
X38.0Y-128.0
X38.0Y-133.0
X38.0Y-138.0
X38.0Y-143.0
X38.0Y-148.0
X38.0Y-153.0
X38.0Y-158.0
X38.0Y-163.0
X38.0Y-168.0
X38.0Y-173.0
X38.0Y-178.0
X38.0Y-183.0
X38.0Y-188.0
X38.0Y-193.0
X38.0Y-198.0
X38.0Y-203.0
X38.0Y-208.0
X38.0Y-213.0
X38.0Y-218.0
X38.0Y-223.0
X38.0Y-228.0
X38.0Y-233.0
X38.0Y-238.0
X38.0Y-243.0
X38.0Y-248.0
X38.0Y-253.0
X38.0Y-258.0
X38.0Y-263.0
X38.0Y-268.0
X38.0Y-273.0
X38.0Y-278.0
X43.0Y-18.0
X43.0Y-23.0
X43.0Y-28.0
X43.0Y-33.0
X43.0Y-38.0
X43.0Y-43.0
X43.0Y-48.0
X43.0Y-53.0
X43.0Y-58.0
X43.0Y-63.0
X43.0Y-68.0
X43.0Y-73.0
X43.0Y-78.0
X43.0Y-83.0
X43.0Y-88.0
X43.0Y-93.0
X43.0Y-98.0
X43.0Y-103.0
X43.0Y-108.0
X43.0Y-113.0
X43.0Y-118.0
X43.0Y-123.0
X43.0Y-128.0
X43.0Y-133.0
X43.0Y-138.0
X43.0Y-143.0
X43.0Y-148.0
X43.0Y-153.0
X43.0Y-158.0
X43.0Y-163.0
X43.0Y-168.0
X43.0Y-173.0
X43.0Y-178.0
X43.0Y-183.0
X43.0Y-188.0
X43.0Y-193.0
X43.0Y-198.0
X43.0Y-203.0
X43.0Y-208.0
X43.0Y-213.0
X43.0Y-218.0
X43.0Y-223.0
X43.0Y-228.0
X43.0Y-233.0
X43.0Y-238.0
X43.0Y-243.0
X43.0Y-248.0
X43.0Y-253.0
X43.0Y-258.0
X43.0Y-263.0
X43.0Y-268.0
X43.0Y-273.0
X43.0Y-278.0
X48.0Y-18.0
X48.0Y-23.0
X48.0Y-28.0
X48.0Y-33.0
X48.0Y-38.0
X48.0Y-43.0
X48.0Y-48.0
X48.0Y-53.0
X48.0Y-58.0
X48.0Y-63.0
X48.0Y-68.0
X48.0Y-73.0
X48.0Y-78.0
X48.0Y-83.0
X48.0Y-88.0
X48.0Y-93.0
X48.0Y-98.0
X48.0Y-103.0
X48.0Y-108.0
X48.0Y-113.0
X48.0Y-118.0
X48.0Y-123.0
X48.0Y-128.0
X48.0Y-133.0
X48.0Y-138.0
X48.0Y-143.0
X48.0Y-148.0
X48.0Y-153.0
X48.0Y-158.0
X48.0Y-163.0
X48.0Y-168.0
X48.0Y-173.0
X48.0Y-178.0
X48.0Y-183.0
X48.0Y-188.0
X48.0Y-193.0
X48.0Y-198.0
X48.0Y-203.0
X48.0Y-208.0
X48.0Y-213.0
X48.0Y-218.0
X48.0Y-223.0
X48.0Y-228.0
X48.0Y-233.0
X48.0Y-238.0
X48.0Y-243.0
X48.0Y-248.0
X48.0Y-253.0
X48.0Y-258.0
X48.0Y-263.0
X48.0Y-268.0
X48.0Y-273.0
X48.0Y-278.0
X53.0Y-18.0
X53.0Y-23.0
X53.0Y-28.0
X53.0Y-33.0
X53.0Y-38.0
X53.0Y-43.0
X53.0Y-48.0
X53.0Y-53.0
X53.0Y-58.0
X53.0Y-63.0
X53.0Y-68.0
X53.0Y-73.0
X53.0Y-78.0
X53.0Y-83.0
X53.0Y-88.0
X53.0Y-93.0
X53.0Y-98.0
X53.0Y-103.0
X53.0Y-108.0
X53.0Y-113.0
X53.0Y-118.0
X53.0Y-123.0
X53.0Y-128.0
X53.0Y-133.0
X53.0Y-138.0
X53.0Y-143.0
X53.0Y-148.0
X53.0Y-153.0
X53.0Y-158.0
X53.0Y-163.0
X53.0Y-168.0
X53.0Y-173.0
X53.0Y-178.0
X53.0Y-183.0
X53.0Y-188.0
X53.0Y-193.0
X53.0Y-198.0
X53.0Y-203.0
X53.0Y-208.0
X53.0Y-213.0
X53.0Y-218.0
X53.0Y-223.0
X53.0Y-228.0
X53.0Y-233.0
X53.0Y-238.0
X53.0Y-243.0
X53.0Y-248.0
X53.0Y-253.0
X53.0Y-258.0
X53.0Y-263.0
X53.0Y-268.0
X53.0Y-273.0
X53.0Y-278.0
X58.0Y-18.0
X58.0Y-23.0
X58.0Y-28.0
X58.0Y-33.0
X58.0Y-38.0
X58.0Y-43.0
X58.0Y-48.0
X58.0Y-53.0
X58.0Y-58.0
X58.0Y-63.0
X58.0Y-68.0
X58.0Y-73.0
X58.0Y-78.0
X58.0Y-83.0
X58.0Y-88.0
X58.0Y-93.0
X58.0Y-98.0
X58.0Y-103.0
X58.0Y-108.0
X58.0Y-113.0
X58.0Y-118.0
X58.0Y-123.0
X58.0Y-128.0
X58.0Y-133.0
X58.0Y-138.0
X58.0Y-143.0
X58.0Y-148.0
X58.0Y-153.0
X58.0Y-158.0
X58.0Y-163.0
X58.0Y-168.0
X58.0Y-173.0
X58.0Y-178.0
X58.0Y-183.0
X58.0Y-188.0
X58.0Y-193.0
X58.0Y-198.0
X58.0Y-203.0
X58.0Y-208.0
X58.0Y-213.0
X58.0Y-218.0
X58.0Y-223.0
X58.0Y-228.0
X58.0Y-233.0
X58.0Y-238.0
X58.0Y-243.0
X58.0Y-248.0
X58.0Y-253.0
X58.0Y-258.0
X58.0Y-263.0
X58.0Y-268.0
X58.0Y-273.0
X58.0Y-278.0
X63.0Y-18.0
X63.0Y-23.0
X63.0Y-28.0
X63.0Y-33.0
X63.0Y-38.0
X63.0Y-43.0
X63.0Y-48.0
X63.0Y-53.0
X63.0Y-58.0
X63.0Y-63.0
X63.0Y-68.0
X63.0Y-73.0
X63.0Y-78.0
X63.0Y-83.0
X63.0Y-88.0
X63.0Y-93.0
X63.0Y-98.0
X63.0Y-103.0
X63.0Y-108.0
X63.0Y-113.0
X63.0Y-118.0
X63.0Y-123.0
X63.0Y-128.0
X63.0Y-133.0
X63.0Y-138.0
X63.0Y-143.0
X63.0Y-148.0
X63.0Y-153.0
X63.0Y-158.0
X63.0Y-163.0
X63.0Y-168.0
X63.0Y-173.0
X63.0Y-178.0
X63.0Y-183.0
X63.0Y-188.0
X63.0Y-193.0
X63.0Y-198.0
X63.0Y-203.0
X63.0Y-208.0
X63.0Y-213.0
X63.0Y-218.0
X63.0Y-223.0
X63.0Y-228.0
X63.0Y-233.0
X63.0Y-238.0
X63.0Y-243.0
X63.0Y-248.0
X63.0Y-253.0
X63.0Y-258.0
X63.0Y-263.0
X63.0Y-268.0
X63.0Y-273.0
X63.0Y-278.0
X68.0Y-18.0
X68.0Y-23.0
X68.0Y-28.0
X68.0Y-33.0
X68.0Y-38.0
X68.0Y-43.0
X68.0Y-48.0
X68.0Y-53.0
X68.0Y-58.0
X68.0Y-63.0
X68.0Y-68.0
X68.0Y-73.0
X68.0Y-78.0
X68.0Y-83.0
X68.0Y-88.0
X68.0Y-93.0
X68.0Y-98.0
X68.0Y-103.0
X68.0Y-108.0
X68.0Y-113.0
X68.0Y-118.0
X68.0Y-123.0
X68.0Y-128.0
X68.0Y-133.0
X68.0Y-138.0
X68.0Y-143.0
X68.0Y-148.0
X68.0Y-153.0
X68.0Y-158.0
X68.0Y-163.0
X68.0Y-168.0
X68.0Y-173.0
X68.0Y-178.0
X68.0Y-183.0
X68.0Y-188.0
X68.0Y-193.0
X68.0Y-198.0
X68.0Y-203.0
X68.0Y-208.0
X68.0Y-213.0
X68.0Y-218.0
X68.0Y-223.0
X68.0Y-228.0
X68.0Y-233.0
X68.0Y-238.0
X68.0Y-243.0
X68.0Y-248.0
X68.0Y-253.0
X68.0Y-258.0
X68.0Y-263.0
X68.0Y-268.0
X68.0Y-273.0
X68.0Y-278.0
X73.0Y-18.0
X73.0Y-23.0
X73.0Y-28.0
X73.0Y-33.0
X73.0Y-38.0
X73.0Y-43.0
X73.0Y-48.0
X73.0Y-53.0
X73.0Y-58.0
X73.0Y-63.0
X73.0Y-68.0
X73.0Y-73.0
X73.0Y-78.0
X73.0Y-83.0
X73.0Y-88.0
X73.0Y-93.0
X73.0Y-98.0
X73.0Y-103.0
X73.0Y-108.0
X73.0Y-113.0
X73.0Y-118.0
X73.0Y-123.0
X73.0Y-128.0
X73.0Y-133.0
X73.0Y-138.0
X73.0Y-143.0
X73.0Y-148.0
X73.0Y-153.0
X73.0Y-158.0
X73.0Y-163.0
X73.0Y-168.0
X73.0Y-173.0
X73.0Y-178.0
X73.0Y-183.0
X73.0Y-188.0
X73.0Y-193.0
X73.0Y-198.0
X73.0Y-203.0
X73.0Y-208.0
X73.0Y-213.0
X73.0Y-218.0
X73.0Y-223.0
X73.0Y-228.0
X73.0Y-233.0
X73.0Y-238.0
X73.0Y-243.0
X73.0Y-248.0
X73.0Y-253.0
X73.0Y-258.0
X73.0Y-263.0
X73.0Y-268.0
X73.0Y-273.0
X73.0Y-278.0
X78.0Y-18.0
X78.0Y-23.0
X78.0Y-28.0
X78.0Y-33.0
X78.0Y-38.0
X78.0Y-43.0
X78.0Y-48.0
X78.0Y-53.0
X78.0Y-58.0
X78.0Y-63.0
X78.0Y-68.0
X78.0Y-73.0
X78.0Y-78.0
X78.0Y-83.0
X78.0Y-88.0
X78.0Y-93.0
X78.0Y-98.0
X78.0Y-103.0
X78.0Y-108.0
X78.0Y-113.0
X78.0Y-118.0
X78.0Y-123.0
X78.0Y-128.0
X78.0Y-133.0
X78.0Y-138.0
X78.0Y-143.0
X78.0Y-148.0
X78.0Y-153.0
X78.0Y-158.0
X78.0Y-163.0
X78.0Y-168.0
X78.0Y-173.0
X78.0Y-178.0
X78.0Y-183.0
X78.0Y-188.0
X78.0Y-193.0
X78.0Y-198.0
X78.0Y-203.0
X78.0Y-208.0
X78.0Y-213.0
X78.0Y-218.0
X78.0Y-223.0
X78.0Y-228.0
X78.0Y-233.0
X78.0Y-238.0
X78.0Y-243.0
X78.0Y-248.0
X78.0Y-253.0
X78.0Y-258.0
X78.0Y-263.0
X78.0Y-268.0
X78.0Y-273.0
X78.0Y-278.0
X83.0Y-18.0
X83.0Y-23.0
X83.0Y-28.0
X83.0Y-33.0
X83.0Y-38.0
X83.0Y-43.0
X83.0Y-48.0
X83.0Y-53.0
X83.0Y-58.0
X83.0Y-63.0
X83.0Y-68.0
X83.0Y-73.0
X83.0Y-78.0
X83.0Y-83.0
X83.0Y-88.0
X83.0Y-93.0
X83.0Y-98.0
X83.0Y-103.0
X83.0Y-108.0
X83.0Y-113.0
X83.0Y-118.0
X83.0Y-123.0
X83.0Y-128.0
X83.0Y-133.0
X83.0Y-138.0
X83.0Y-143.0
X83.0Y-148.0
X83.0Y-153.0
X83.0Y-158.0
X83.0Y-163.0
X83.0Y-168.0
X83.0Y-173.0
X83.0Y-178.0
X83.0Y-183.0
X83.0Y-188.0
X83.0Y-193.0
X83.0Y-198.0
X83.0Y-203.0
X83.0Y-208.0
X83.0Y-213.0
X83.0Y-218.0
X83.0Y-223.0
X83.0Y-228.0
X83.0Y-233.0
X83.0Y-238.0
X83.0Y-243.0
X83.0Y-248.0
X83.0Y-253.0
X83.0Y-258.0
X83.0Y-263.0
X83.0Y-268.0
X83.0Y-273.0
X83.0Y-278.0
X88.0Y-18.0
X88.0Y-23.0
X88.0Y-28.0
X88.0Y-33.0
X88.0Y-38.0
X88.0Y-43.0
X88.0Y-48.0
X88.0Y-53.0
X88.0Y-58.0
X88.0Y-63.0
X88.0Y-68.0
X88.0Y-73.0
X88.0Y-78.0
X88.0Y-83.0
X88.0Y-88.0
X88.0Y-93.0
X88.0Y-98.0
X88.0Y-103.0
X88.0Y-108.0
X88.0Y-113.0
X88.0Y-118.0
X88.0Y-123.0
X88.0Y-128.0
X88.0Y-133.0
X88.0Y-138.0
X88.0Y-143.0
X88.0Y-148.0
X88.0Y-153.0
X88.0Y-158.0
X88.0Y-163.0
X88.0Y-168.0
X88.0Y-173.0
X88.0Y-178.0
X88.0Y-183.0
X88.0Y-188.0
X88.0Y-193.0
X88.0Y-198.0
X88.0Y-203.0
X88.0Y-208.0
X88.0Y-213.0
X88.0Y-218.0
X88.0Y-223.0
X88.0Y-228.0
X88.0Y-233.0
X88.0Y-238.0
X88.0Y-243.0
X88.0Y-248.0
X88.0Y-253.0
X88.0Y-258.0
X88.0Y-263.0
X88.0Y-268.0
X88.0Y-273.0
X88.0Y-278.0
X93.0Y-18.0
X93.0Y-23.0
X93.0Y-28.0
X93.0Y-33.0
X93.0Y-38.0
X93.0Y-43.0
X93.0Y-48.0
X93.0Y-53.0
X93.0Y-58.0
X93.0Y-63.0
X93.0Y-68.0
X93.0Y-73.0
X93.0Y-78.0
X93.0Y-83.0
X93.0Y-88.0
X93.0Y-93.0
X93.0Y-98.0
X93.0Y-103.0
X93.0Y-108.0
X93.0Y-113.0
X93.0Y-118.0
X93.0Y-123.0
X93.0Y-128.0
X93.0Y-133.0
X93.0Y-138.0
X93.0Y-143.0
X93.0Y-148.0
X93.0Y-153.0
X93.0Y-158.0
X93.0Y-163.0
X93.0Y-168.0
X93.0Y-173.0
X93.0Y-178.0
X93.0Y-183.0
X93.0Y-188.0
X93.0Y-193.0
X93.0Y-198.0
X93.0Y-203.0
X93.0Y-208.0
X93.0Y-213.0
X93.0Y-218.0
X93.0Y-223.0
X93.0Y-228.0
X93.0Y-233.0
X93.0Y-238.0
X93.0Y-243.0
X93.0Y-248.0
X93.0Y-253.0
X93.0Y-258.0
X93.0Y-263.0
X93.0Y-268.0
X93.0Y-273.0
X93.0Y-278.0
X98.0Y-18.0
X98.0Y-23.0
X98.0Y-28.0
X98.0Y-33.0
X98.0Y-38.0
X98.0Y-43.0
X98.0Y-48.0
X98.0Y-53.0
X98.0Y-58.0
X98.0Y-63.0
X98.0Y-68.0
X98.0Y-73.0
X98.0Y-78.0
X98.0Y-83.0
X98.0Y-88.0
X98.0Y-93.0
X98.0Y-98.0
X98.0Y-103.0
X98.0Y-108.0
X98.0Y-113.0
X98.0Y-118.0
X98.0Y-123.0
X98.0Y-128.0
X98.0Y-133.0
X98.0Y-138.0
X98.0Y-143.0
X98.0Y-148.0
X98.0Y-153.0
X98.0Y-158.0
X98.0Y-163.0
X98.0Y-168.0
X98.0Y-173.0
X98.0Y-178.0
X98.0Y-183.0
X98.0Y-188.0
X98.0Y-193.0
X98.0Y-198.0
X98.0Y-203.0
X98.0Y-208.0
X98.0Y-213.0
X98.0Y-218.0
X98.0Y-223.0
X98.0Y-228.0
X98.0Y-233.0
X98.0Y-238.0
X98.0Y-243.0
X98.0Y-248.0
X98.0Y-253.0
X98.0Y-258.0
X98.0Y-263.0
X98.0Y-268.0
X98.0Y-273.0
X98.0Y-278.0
X103.0Y-18.0
X103.0Y-23.0
X103.0Y-28.0
X103.0Y-33.0
X103.0Y-38.0
X103.0Y-43.0
X103.0Y-48.0
X103.0Y-53.0
X103.0Y-58.0
X103.0Y-63.0
X103.0Y-68.0
X103.0Y-73.0
X103.0Y-78.0
X103.0Y-83.0
X103.0Y-88.0
X103.0Y-93.0
X103.0Y-98.0
X103.0Y-103.0
X103.0Y-108.0
X103.0Y-113.0
X103.0Y-118.0
X103.0Y-123.0
X103.0Y-128.0
X103.0Y-133.0
X103.0Y-138.0
X103.0Y-143.0
X103.0Y-148.0
X103.0Y-153.0
X103.0Y-158.0
X103.0Y-163.0
X103.0Y-168.0
X103.0Y-173.0
X103.0Y-178.0
X103.0Y-183.0
X103.0Y-188.0
X103.0Y-193.0
X103.0Y-198.0
X103.0Y-203.0
X103.0Y-208.0
X103.0Y-213.0
X103.0Y-218.0
X103.0Y-223.0
X103.0Y-228.0
X103.0Y-233.0
X103.0Y-238.0
X103.0Y-243.0
X103.0Y-248.0
X103.0Y-253.0
X103.0Y-258.0
X103.0Y-263.0
X103.0Y-268.0
X103.0Y-273.0
X103.0Y-278.0
X108.0Y-18.0
X108.0Y-23.0
X108.0Y-28.0
X108.0Y-33.0
X108.0Y-38.0
X108.0Y-43.0
X108.0Y-48.0
X108.0Y-53.0
X108.0Y-58.0
X108.0Y-63.0
X108.0Y-68.0
X108.0Y-73.0
X108.0Y-78.0
X108.0Y-83.0
X108.0Y-88.0
X108.0Y-93.0
X108.0Y-98.0
X108.0Y-103.0
X108.0Y-108.0
X108.0Y-113.0
X108.0Y-118.0
X108.0Y-123.0
X108.0Y-128.0
X108.0Y-133.0
X108.0Y-138.0
X108.0Y-143.0
X108.0Y-148.0
X108.0Y-153.0
X108.0Y-158.0
X108.0Y-163.0
X108.0Y-168.0
X108.0Y-173.0
X108.0Y-178.0
X108.0Y-183.0
X108.0Y-188.0
X108.0Y-193.0
X108.0Y-198.0
X108.0Y-203.0
X108.0Y-208.0
X108.0Y-213.0
X108.0Y-218.0
X108.0Y-223.0
X108.0Y-228.0
X108.0Y-233.0
X108.0Y-238.0
X108.0Y-243.0
X108.0Y-248.0
X108.0Y-253.0
X108.0Y-258.0
X108.0Y-263.0
X108.0Y-268.0
X108.0Y-273.0
X108.0Y-278.0
X113.0Y-18.0
X113.0Y-23.0
X113.0Y-28.0
X113.0Y-33.0
X113.0Y-38.0
X113.0Y-43.0
X113.0Y-48.0
X113.0Y-53.0
X113.0Y-58.0
X113.0Y-63.0
X113.0Y-68.0
X113.0Y-73.0
X113.0Y-78.0
X113.0Y-83.0
X113.0Y-88.0
X113.0Y-93.0
X113.0Y-98.0
X113.0Y-103.0
X113.0Y-108.0
X113.0Y-113.0
X113.0Y-118.0
X113.0Y-123.0
X113.0Y-128.0
X113.0Y-133.0
X113.0Y-138.0
X113.0Y-143.0
X113.0Y-148.0
X113.0Y-153.0
X113.0Y-158.0
X113.0Y-163.0
X113.0Y-168.0
X113.0Y-173.0
X113.0Y-178.0
X113.0Y-183.0
X113.0Y-188.0
X113.0Y-193.0
X113.0Y-198.0
X113.0Y-203.0
X113.0Y-208.0
X113.0Y-213.0
X113.0Y-218.0
X113.0Y-223.0
X113.0Y-228.0
X113.0Y-233.0
X113.0Y-238.0
X113.0Y-243.0
X113.0Y-248.0
X113.0Y-253.0
X113.0Y-258.0
X113.0Y-263.0
X113.0Y-268.0
X113.0Y-273.0
X113.0Y-278.0
X118.0Y-18.0
X118.0Y-23.0
X118.0Y-28.0
X118.0Y-33.0
X118.0Y-38.0
X118.0Y-43.0
X118.0Y-48.0
X118.0Y-53.0
X118.0Y-58.0
X118.0Y-63.0
X118.0Y-68.0
X118.0Y-73.0
X118.0Y-78.0
X118.0Y-83.0
X118.0Y-88.0
X118.0Y-93.0
X118.0Y-98.0
X118.0Y-103.0
X118.0Y-108.0
X118.0Y-113.0
X118.0Y-118.0
X118.0Y-123.0
X118.0Y-128.0
X118.0Y-133.0
X118.0Y-138.0
X118.0Y-143.0
X118.0Y-148.0
X118.0Y-153.0
X118.0Y-158.0
X118.0Y-163.0
X118.0Y-168.0
X118.0Y-173.0
X118.0Y-178.0
X118.0Y-183.0
X118.0Y-188.0
X118.0Y-193.0
X118.0Y-198.0
X118.0Y-203.0
X118.0Y-208.0
X118.0Y-213.0
X118.0Y-218.0
X118.0Y-223.0
X118.0Y-228.0
X118.0Y-233.0
X118.0Y-238.0
X118.0Y-243.0
X118.0Y-248.0
X118.0Y-253.0
X118.0Y-258.0
X118.0Y-263.0
X118.0Y-268.0
X118.0Y-273.0
X118.0Y-278.0
X123.0Y-18.0
X123.0Y-23.0
X123.0Y-28.0
X123.0Y-33.0
X123.0Y-38.0
X123.0Y-43.0
X123.0Y-48.0
X123.0Y-53.0
X123.0Y-58.0
X123.0Y-63.0
X123.0Y-68.0
X123.0Y-73.0
X123.0Y-78.0
X123.0Y-83.0
X123.0Y-88.0
X123.0Y-93.0
X123.0Y-98.0
X123.0Y-103.0
X123.0Y-108.0
X123.0Y-113.0
X123.0Y-118.0
X123.0Y-123.0
X123.0Y-128.0
X123.0Y-133.0
X123.0Y-138.0
X123.0Y-143.0
X123.0Y-148.0
X123.0Y-153.0
X123.0Y-158.0
X123.0Y-163.0
X123.0Y-168.0
X123.0Y-173.0
X123.0Y-178.0
X123.0Y-183.0
X123.0Y-188.0
X123.0Y-193.0
X123.0Y-198.0
X123.0Y-203.0
X123.0Y-208.0
X123.0Y-213.0
X123.0Y-218.0
X123.0Y-223.0
X123.0Y-228.0
X123.0Y-233.0
X123.0Y-238.0
X123.0Y-243.0
X123.0Y-248.0
X123.0Y-253.0
X123.0Y-258.0
X123.0Y-263.0
X123.0Y-268.0
X123.0Y-273.0
X123.0Y-278.0
X128.0Y-18.0
X128.0Y-23.0
X128.0Y-28.0
X128.0Y-33.0
X128.0Y-38.0
X128.0Y-43.0
X128.0Y-48.0
X128.0Y-53.0
X128.0Y-58.0
X128.0Y-63.0
X128.0Y-68.0
X128.0Y-73.0
X128.0Y-78.0
X128.0Y-83.0
X128.0Y-88.0
X128.0Y-93.0
X128.0Y-98.0
X128.0Y-103.0
X128.0Y-108.0
X128.0Y-113.0
X128.0Y-118.0
X128.0Y-123.0
X128.0Y-128.0
X128.0Y-133.0
X128.0Y-138.0
X128.0Y-143.0
X128.0Y-148.0
X128.0Y-153.0
X128.0Y-158.0
X128.0Y-163.0
X128.0Y-168.0
X128.0Y-173.0
X128.0Y-178.0
X128.0Y-183.0
X128.0Y-188.0
X128.0Y-193.0
X128.0Y-198.0
X128.0Y-203.0
X128.0Y-208.0
X128.0Y-213.0
X128.0Y-218.0
X128.0Y-223.0
X128.0Y-228.0
X128.0Y-233.0
X128.0Y-238.0
X128.0Y-243.0
X128.0Y-248.0
X128.0Y-253.0
X128.0Y-258.0
X128.0Y-263.0
X128.0Y-268.0
X128.0Y-273.0
X128.0Y-278.0
X133.0Y-18.0
X133.0Y-23.0
X133.0Y-28.0
X133.0Y-33.0
X133.0Y-38.0
X133.0Y-43.0
X133.0Y-48.0
X133.0Y-53.0
X133.0Y-58.0
X133.0Y-63.0
X133.0Y-68.0
X133.0Y-73.0
X133.0Y-78.0
X133.0Y-83.0
X133.0Y-88.0
X133.0Y-93.0
X133.0Y-98.0
X133.0Y-103.0
X133.0Y-108.0
X133.0Y-113.0
X133.0Y-118.0
X133.0Y-123.0
X133.0Y-128.0
X133.0Y-133.0
X133.0Y-138.0
X133.0Y-143.0
X133.0Y-148.0
X133.0Y-153.0
X133.0Y-158.0
X133.0Y-163.0
X133.0Y-168.0
X133.0Y-173.0
X133.0Y-178.0
X133.0Y-183.0
X133.0Y-188.0
X133.0Y-193.0
X133.0Y-198.0
X133.0Y-203.0
X133.0Y-208.0
X133.0Y-213.0
X133.0Y-218.0
X133.0Y-223.0
X133.0Y-228.0
X133.0Y-233.0
X133.0Y-238.0
X133.0Y-243.0
X133.0Y-248.0
X133.0Y-253.0
X133.0Y-258.0
X133.0Y-263.0
X133.0Y-268.0
X133.0Y-273.0
X133.0Y-278.0
X138.0Y-18.0
X138.0Y-23.0
X138.0Y-28.0
X138.0Y-33.0
X138.0Y-38.0
X138.0Y-43.0
X138.0Y-48.0
X138.0Y-53.0
X138.0Y-58.0
X138.0Y-63.0
X138.0Y-68.0
X138.0Y-73.0
X138.0Y-78.0
X138.0Y-83.0
X138.0Y-88.0
X138.0Y-93.0
X138.0Y-98.0
X138.0Y-103.0
X138.0Y-108.0
X138.0Y-113.0
X138.0Y-118.0
X138.0Y-123.0
X138.0Y-128.0
X138.0Y-133.0
X138.0Y-138.0
X138.0Y-143.0
X138.0Y-148.0
X138.0Y-153.0
X138.0Y-158.0
X138.0Y-163.0
X138.0Y-168.0
X138.0Y-173.0
X138.0Y-178.0
X138.0Y-183.0
X138.0Y-188.0
X138.0Y-193.0
X138.0Y-198.0
X138.0Y-203.0
X138.0Y-208.0
X138.0Y-213.0
X138.0Y-218.0
X138.0Y-223.0
X138.0Y-228.0
X138.0Y-233.0
X138.0Y-238.0
X138.0Y-243.0
X138.0Y-248.0
X138.0Y-253.0
X138.0Y-258.0
X138.0Y-263.0
X138.0Y-268.0
X138.0Y-273.0
X138.0Y-278.0
X143.0Y-18.0
X143.0Y-23.0
X143.0Y-28.0
X143.0Y-33.0
X143.0Y-38.0
X143.0Y-43.0
X143.0Y-48.0
X143.0Y-53.0
X143.0Y-58.0
X143.0Y-63.0
X143.0Y-68.0
X143.0Y-73.0
X143.0Y-78.0
X143.0Y-83.0
X143.0Y-88.0
X143.0Y-93.0
X143.0Y-98.0
X143.0Y-103.0
X143.0Y-108.0
X143.0Y-113.0
X143.0Y-118.0
X143.0Y-123.0
X143.0Y-128.0
X143.0Y-133.0
X143.0Y-138.0
X143.0Y-143.0
X143.0Y-148.0
X143.0Y-153.0
X143.0Y-158.0
X143.0Y-163.0
X143.0Y-168.0
X143.0Y-173.0
X143.0Y-178.0
X143.0Y-183.0
X143.0Y-188.0
X143.0Y-193.0
X143.0Y-198.0
X143.0Y-203.0
X143.0Y-208.0
X143.0Y-213.0
X143.0Y-218.0
X143.0Y-223.0
X143.0Y-228.0
X143.0Y-233.0
X143.0Y-238.0
X143.0Y-243.0
X143.0Y-248.0
X143.0Y-253.0
X143.0Y-258.0
X143.0Y-263.0
X143.0Y-268.0
X143.0Y-273.0
X143.0Y-278.0
X148.0Y-18.0
X148.0Y-23.0
X148.0Y-28.0
X148.0Y-33.0
X148.0Y-38.0
X148.0Y-43.0
X148.0Y-48.0
X148.0Y-53.0
X148.0Y-58.0
X148.0Y-63.0
X148.0Y-68.0
X148.0Y-73.0
X148.0Y-78.0
X148.0Y-83.0
X148.0Y-88.0
X148.0Y-93.0
X148.0Y-98.0
X148.0Y-103.0
X148.0Y-108.0
X148.0Y-113.0
X148.0Y-118.0
X148.0Y-123.0
X148.0Y-128.0
X148.0Y-133.0
X148.0Y-138.0
X148.0Y-143.0
X148.0Y-148.0
X148.0Y-153.0
X148.0Y-158.0
X148.0Y-163.0
X148.0Y-168.0
X148.0Y-173.0
X148.0Y-178.0
X148.0Y-183.0
X148.0Y-188.0
X148.0Y-193.0
X148.0Y-198.0
X148.0Y-203.0
X148.0Y-208.0
X148.0Y-213.0
X148.0Y-218.0
X148.0Y-223.0
X148.0Y-228.0
X148.0Y-233.0
X148.0Y-238.0
X148.0Y-243.0
X148.0Y-248.0
X148.0Y-253.0
X148.0Y-258.0
X148.0Y-263.0
X148.0Y-268.0
X148.0Y-273.0
X148.0Y-278.0
X153.0Y-18.0
X153.0Y-23.0
X153.0Y-28.0
X153.0Y-33.0
X153.0Y-38.0
X153.0Y-43.0
X153.0Y-48.0
X153.0Y-53.0
X153.0Y-58.0
X153.0Y-63.0
X153.0Y-68.0
X153.0Y-73.0
X153.0Y-78.0
X153.0Y-83.0
X153.0Y-88.0
X153.0Y-93.0
X153.0Y-98.0
X153.0Y-103.0
X153.0Y-108.0
X153.0Y-113.0
X153.0Y-118.0
X153.0Y-123.0
X153.0Y-128.0
X153.0Y-133.0
X153.0Y-138.0
X153.0Y-143.0
X153.0Y-148.0
X153.0Y-153.0
X153.0Y-158.0
X153.0Y-163.0
X153.0Y-168.0
X153.0Y-173.0
X153.0Y-178.0
X153.0Y-183.0
X153.0Y-188.0
X153.0Y-193.0
X153.0Y-198.0
X153.0Y-203.0
X153.0Y-208.0
X153.0Y-213.0
X153.0Y-218.0
X153.0Y-223.0
X153.0Y-228.0
X153.0Y-233.0
X153.0Y-238.0
X153.0Y-243.0
X153.0Y-248.0
X153.0Y-253.0
X153.0Y-258.0
X153.0Y-263.0
X153.0Y-268.0
X153.0Y-273.0
X153.0Y-278.0
X158.0Y-18.0
X158.0Y-23.0
X158.0Y-28.0
X158.0Y-33.0
X158.0Y-38.0
X158.0Y-43.0
X158.0Y-48.0
X158.0Y-53.0
X158.0Y-58.0
X158.0Y-63.0
X158.0Y-68.0
X158.0Y-73.0
X158.0Y-78.0
X158.0Y-83.0
X158.0Y-88.0
X158.0Y-93.0
X158.0Y-98.0
X158.0Y-103.0
X158.0Y-108.0
X158.0Y-113.0
X158.0Y-118.0
X158.0Y-123.0
X158.0Y-128.0
X158.0Y-133.0
X158.0Y-138.0
X158.0Y-143.0
X158.0Y-148.0
X158.0Y-153.0
X158.0Y-158.0
X158.0Y-163.0
X158.0Y-168.0
X158.0Y-173.0
X158.0Y-178.0
X158.0Y-183.0
X158.0Y-188.0
X158.0Y-193.0
X158.0Y-198.0
X158.0Y-203.0
X158.0Y-208.0
X158.0Y-213.0
X158.0Y-218.0
X158.0Y-223.0
X158.0Y-228.0
X158.0Y-233.0
X158.0Y-238.0
X158.0Y-243.0
X158.0Y-248.0
X158.0Y-253.0
X158.0Y-258.0
X158.0Y-263.0
X158.0Y-268.0
X158.0Y-273.0
X158.0Y-278.0
X163.0Y-18.0
X163.0Y-23.0
X163.0Y-28.0
X163.0Y-33.0
X163.0Y-38.0
X163.0Y-43.0
X163.0Y-48.0
X163.0Y-53.0
X163.0Y-58.0
X163.0Y-63.0
X163.0Y-68.0
X163.0Y-73.0
X163.0Y-78.0
X163.0Y-83.0
X163.0Y-88.0
X163.0Y-93.0
X163.0Y-98.0
X163.0Y-103.0
X163.0Y-108.0
X163.0Y-113.0
X163.0Y-118.0
X163.0Y-123.0
X163.0Y-128.0
X163.0Y-133.0
X163.0Y-138.0
X163.0Y-143.0
X163.0Y-148.0
X163.0Y-153.0
X163.0Y-158.0
X163.0Y-163.0
X163.0Y-168.0
X163.0Y-173.0
X163.0Y-178.0
X163.0Y-183.0
X163.0Y-188.0
X163.0Y-193.0
X163.0Y-198.0
X163.0Y-203.0
X163.0Y-208.0
X163.0Y-213.0
X163.0Y-218.0
X163.0Y-223.0
X163.0Y-228.0
X163.0Y-233.0
X163.0Y-238.0
X163.0Y-243.0
X163.0Y-248.0
X163.0Y-253.0
X163.0Y-258.0
X163.0Y-263.0
X163.0Y-268.0
X163.0Y-273.0
X163.0Y-278.0
X168.0Y-18.0
X168.0Y-23.0
X168.0Y-28.0
X168.0Y-33.0
X168.0Y-38.0
X168.0Y-43.0
X168.0Y-48.0
X168.0Y-53.0
X168.0Y-58.0
X168.0Y-63.0
X168.0Y-68.0
X168.0Y-73.0
X168.0Y-78.0
X168.0Y-83.0
X168.0Y-88.0
X168.0Y-93.0
X168.0Y-98.0
X168.0Y-103.0
X168.0Y-108.0
X168.0Y-113.0
X168.0Y-118.0
X168.0Y-123.0
X168.0Y-128.0
X168.0Y-133.0
X168.0Y-138.0
X168.0Y-143.0
X168.0Y-148.0
X168.0Y-153.0
X168.0Y-158.0
X168.0Y-163.0
X168.0Y-168.0
X168.0Y-173.0
X168.0Y-178.0
X168.0Y-183.0
X168.0Y-188.0
X168.0Y-193.0
X168.0Y-198.0
X168.0Y-203.0
X168.0Y-208.0
X168.0Y-213.0
X168.0Y-218.0
X168.0Y-223.0
X168.0Y-228.0
X168.0Y-233.0
X168.0Y-238.0
X168.0Y-243.0
X168.0Y-248.0
X168.0Y-253.0
X168.0Y-258.0
X168.0Y-263.0
X168.0Y-268.0
X168.0Y-273.0
X168.0Y-278.0
X173.0Y-18.0
X173.0Y-23.0
X173.0Y-28.0
X173.0Y-33.0
X173.0Y-38.0
X173.0Y-43.0
X173.0Y-48.0
X173.0Y-53.0
X173.0Y-58.0
X173.0Y-63.0
X173.0Y-68.0
X173.0Y-73.0
X173.0Y-78.0
X173.0Y-83.0
X173.0Y-88.0
X173.0Y-93.0
X173.0Y-98.0
X173.0Y-103.0
X173.0Y-108.0
X173.0Y-113.0
X173.0Y-118.0
X173.0Y-123.0
X173.0Y-128.0
X173.0Y-133.0
X173.0Y-138.0
X173.0Y-143.0
X173.0Y-148.0
X173.0Y-153.0
X173.0Y-158.0
X173.0Y-163.0
X173.0Y-168.0
X173.0Y-173.0
X173.0Y-178.0
X173.0Y-183.0
X173.0Y-188.0
X173.0Y-193.0
X173.0Y-198.0
X173.0Y-203.0
X173.0Y-208.0
X173.0Y-213.0
X173.0Y-218.0
X173.0Y-223.0
X173.0Y-228.0
X173.0Y-233.0
X173.0Y-238.0
X173.0Y-243.0
X173.0Y-248.0
X173.0Y-253.0
X173.0Y-258.0
X173.0Y-263.0
X173.0Y-268.0
X173.0Y-273.0
X173.0Y-278.0
X178.0Y-18.0
X178.0Y-23.0
X178.0Y-28.0
X178.0Y-33.0
X178.0Y-38.0
X178.0Y-43.0
X178.0Y-48.0
X178.0Y-53.0
X178.0Y-58.0
X178.0Y-63.0
X178.0Y-68.0
X178.0Y-73.0
X178.0Y-78.0
X178.0Y-83.0
X178.0Y-88.0
X178.0Y-93.0
X178.0Y-98.0
X178.0Y-103.0
X178.0Y-108.0
X178.0Y-113.0
X178.0Y-118.0
X178.0Y-123.0
X178.0Y-128.0
X178.0Y-133.0
X178.0Y-138.0
X178.0Y-143.0
X178.0Y-148.0
X178.0Y-153.0
X178.0Y-158.0
X178.0Y-163.0
X178.0Y-168.0
X178.0Y-173.0
X178.0Y-178.0
X178.0Y-183.0
X178.0Y-188.0
X178.0Y-193.0
X178.0Y-198.0
X178.0Y-203.0
X178.0Y-208.0
X178.0Y-213.0
X178.0Y-218.0
X178.0Y-223.0
X178.0Y-228.0
X178.0Y-233.0
X178.0Y-238.0
X178.0Y-243.0
X178.0Y-248.0
X178.0Y-253.0
X178.0Y-258.0
X178.0Y-263.0
X178.0Y-268.0
X178.0Y-273.0
X178.0Y-278.0
X183.0Y-18.0
X183.0Y-23.0
X183.0Y-28.0
X183.0Y-33.0
X183.0Y-38.0
X183.0Y-43.0
X183.0Y-48.0
X183.0Y-53.0
X183.0Y-58.0
X183.0Y-63.0
X183.0Y-68.0
X183.0Y-73.0
X183.0Y-78.0
X183.0Y-83.0
X183.0Y-88.0
X183.0Y-93.0
X183.0Y-98.0
X183.0Y-103.0
X183.0Y-108.0
X183.0Y-113.0
X183.0Y-118.0
X183.0Y-123.0
X183.0Y-128.0
X183.0Y-133.0
X183.0Y-138.0
X183.0Y-143.0
X183.0Y-148.0
X183.0Y-153.0
X183.0Y-158.0
X183.0Y-163.0
X183.0Y-168.0
X183.0Y-173.0
X183.0Y-178.0
X183.0Y-183.0
X183.0Y-188.0
X183.0Y-193.0
X183.0Y-198.0
X183.0Y-203.0
X183.0Y-208.0
X183.0Y-213.0
X183.0Y-218.0
X183.0Y-223.0
X183.0Y-228.0
X183.0Y-233.0
X183.0Y-238.0
X183.0Y-243.0
X183.0Y-248.0
X183.0Y-253.0
X183.0Y-258.0
X183.0Y-263.0
X183.0Y-268.0
X183.0Y-273.0
X183.0Y-278.0
X188.0Y-18.0
X188.0Y-23.0
X188.0Y-28.0
X188.0Y-33.0
X188.0Y-38.0
X188.0Y-43.0
X188.0Y-48.0
X188.0Y-53.0
X188.0Y-58.0
X188.0Y-63.0
X188.0Y-68.0
X188.0Y-73.0
X188.0Y-78.0
X188.0Y-83.0
X188.0Y-88.0
X188.0Y-93.0
X188.0Y-98.0
X188.0Y-103.0
X188.0Y-108.0
X188.0Y-113.0
X188.0Y-118.0
X188.0Y-123.0
X188.0Y-128.0
X188.0Y-133.0
X188.0Y-138.0
X188.0Y-143.0
X188.0Y-148.0
X188.0Y-153.0
X188.0Y-158.0
X188.0Y-163.0
X188.0Y-168.0
X188.0Y-173.0
X188.0Y-178.0
X188.0Y-183.0
X188.0Y-188.0
X188.0Y-193.0
X188.0Y-198.0
X188.0Y-203.0
X188.0Y-208.0
X188.0Y-213.0
X188.0Y-218.0
X188.0Y-223.0
X188.0Y-228.0
X188.0Y-233.0
X188.0Y-238.0
X188.0Y-243.0
X188.0Y-248.0
X188.0Y-253.0
X188.0Y-258.0
X188.0Y-263.0
X188.0Y-268.0
X188.0Y-273.0
X188.0Y-278.0
X193.0Y-18.0
X193.0Y-23.0
X193.0Y-28.0
X193.0Y-33.0
X193.0Y-38.0
X193.0Y-43.0
X193.0Y-48.0
X193.0Y-53.0
X193.0Y-58.0
X193.0Y-63.0
X193.0Y-68.0
X193.0Y-73.0
X193.0Y-78.0
X193.0Y-83.0
X193.0Y-88.0
X193.0Y-93.0
X193.0Y-98.0
X193.0Y-103.0
X193.0Y-108.0
X193.0Y-113.0
X193.0Y-118.0
X193.0Y-123.0
X193.0Y-128.0
X193.0Y-133.0
X193.0Y-138.0
X193.0Y-143.0
X193.0Y-148.0
X193.0Y-153.0
X193.0Y-158.0
X193.0Y-163.0
X193.0Y-168.0
X193.0Y-173.0
X193.0Y-178.0
X193.0Y-183.0
X193.0Y-188.0
X193.0Y-193.0
X193.0Y-198.0
X193.0Y-203.0
X193.0Y-208.0
X193.0Y-213.0
X193.0Y-218.0
X193.0Y-223.0
X193.0Y-228.0
X193.0Y-233.0
X193.0Y-238.0
X193.0Y-243.0
X193.0Y-248.0
X193.0Y-253.0
X193.0Y-258.0
X193.0Y-263.0
X193.0Y-268.0
X193.0Y-273.0
X193.0Y-278.0
X198.0Y-18.0
X198.0Y-23.0
X198.0Y-28.0
X198.0Y-33.0
X198.0Y-38.0
X198.0Y-43.0
X198.0Y-48.0
X198.0Y-53.0
X198.0Y-58.0
X198.0Y-63.0
X198.0Y-68.0
X198.0Y-73.0
X198.0Y-78.0
X198.0Y-83.0
X198.0Y-88.0
X198.0Y-93.0
X198.0Y-98.0
X198.0Y-103.0
X198.0Y-108.0
X198.0Y-113.0
X198.0Y-118.0
X198.0Y-123.0
X198.0Y-128.0
X198.0Y-133.0
X198.0Y-138.0
X198.0Y-143.0
X198.0Y-148.0
X198.0Y-153.0
X198.0Y-158.0
X198.0Y-163.0
X198.0Y-168.0
X198.0Y-173.0
X198.0Y-178.0
X198.0Y-183.0
X198.0Y-188.0
X198.0Y-193.0
X198.0Y-198.0
X198.0Y-203.0
X198.0Y-208.0
X198.0Y-213.0
X198.0Y-218.0
X198.0Y-223.0
X198.0Y-228.0
X198.0Y-233.0
X198.0Y-238.0
X198.0Y-243.0
X198.0Y-248.0
X198.0Y-253.0
X198.0Y-258.0
X198.0Y-263.0
X198.0Y-268.0
X198.0Y-273.0
X198.0Y-278.0
X203.0Y-18.0
X203.0Y-23.0
X203.0Y-28.0
X203.0Y-33.0
X203.0Y-38.0
X203.0Y-43.0
X203.0Y-48.0
X203.0Y-53.0
X203.0Y-58.0
X203.0Y-63.0
X203.0Y-68.0
X203.0Y-73.0
X203.0Y-78.0
X203.0Y-83.0
X203.0Y-88.0
X203.0Y-93.0
X203.0Y-98.0
X203.0Y-103.0
X203.0Y-108.0
X203.0Y-113.0
X203.0Y-118.0
X203.0Y-123.0
X203.0Y-128.0
X203.0Y-133.0
X203.0Y-138.0
X203.0Y-143.0
X203.0Y-148.0
X203.0Y-153.0
X203.0Y-158.0
X203.0Y-163.0
X203.0Y-168.0
X203.0Y-173.0
X203.0Y-178.0
X203.0Y-183.0
X203.0Y-188.0
X203.0Y-193.0
X203.0Y-198.0
X203.0Y-203.0
X203.0Y-208.0
X203.0Y-213.0
X203.0Y-218.0
X203.0Y-223.0
X203.0Y-228.0
X203.0Y-233.0
X203.0Y-238.0
X203.0Y-243.0
X203.0Y-248.0
X203.0Y-253.0
X203.0Y-258.0
X203.0Y-263.0
X203.0Y-268.0
X203.0Y-273.0
X203.0Y-278.0
X208.0Y-18.0
X208.0Y-23.0
X208.0Y-28.0
X208.0Y-33.0
X208.0Y-38.0
X208.0Y-43.0
X208.0Y-48.0
X208.0Y-53.0
X208.0Y-58.0
X208.0Y-63.0
X208.0Y-68.0
X208.0Y-73.0
X208.0Y-78.0
X208.0Y-83.0
X208.0Y-88.0
X208.0Y-93.0
X208.0Y-98.0
X208.0Y-103.0
X208.0Y-108.0
X208.0Y-113.0
X208.0Y-118.0
X208.0Y-123.0
X208.0Y-128.0
X208.0Y-133.0
X208.0Y-138.0
X208.0Y-143.0
X208.0Y-148.0
X208.0Y-153.0
X208.0Y-158.0
X208.0Y-163.0
X208.0Y-168.0
X208.0Y-173.0
X208.0Y-178.0
X208.0Y-183.0
X208.0Y-188.0
X208.0Y-193.0
X208.0Y-198.0
X208.0Y-203.0
X208.0Y-208.0
X208.0Y-213.0
X208.0Y-218.0
X208.0Y-223.0
X208.0Y-228.0
X208.0Y-233.0
X208.0Y-238.0
X208.0Y-243.0
X208.0Y-248.0
X208.0Y-253.0
X208.0Y-258.0
X208.0Y-263.0
X208.0Y-268.0
X208.0Y-273.0
X208.0Y-278.0
X213.0Y-18.0
X213.0Y-23.0
X213.0Y-28.0
X213.0Y-33.0
X213.0Y-38.0
X213.0Y-43.0
X213.0Y-48.0
X213.0Y-53.0
X213.0Y-58.0
X213.0Y-63.0
X213.0Y-68.0
X213.0Y-73.0
X213.0Y-78.0
X213.0Y-83.0
X213.0Y-88.0
X213.0Y-93.0
X213.0Y-98.0
X213.0Y-103.0
X213.0Y-108.0
X213.0Y-113.0
X213.0Y-118.0
X213.0Y-123.0
X213.0Y-128.0
X213.0Y-133.0
X213.0Y-138.0
X213.0Y-143.0
X213.0Y-148.0
X213.0Y-153.0
X213.0Y-158.0
X213.0Y-163.0
X213.0Y-168.0
X213.0Y-173.0
X213.0Y-178.0
X213.0Y-183.0
X213.0Y-188.0
X213.0Y-193.0
X213.0Y-198.0
X213.0Y-203.0
X213.0Y-208.0
X213.0Y-213.0
X213.0Y-218.0
X213.0Y-223.0
X213.0Y-228.0
X213.0Y-233.0
X213.0Y-238.0
X213.0Y-243.0
X213.0Y-248.0
X213.0Y-253.0
X213.0Y-258.0
X213.0Y-263.0
X213.0Y-268.0
X213.0Y-273.0
X213.0Y-278.0
X218.0Y-18.0
X218.0Y-23.0
X218.0Y-28.0
X218.0Y-33.0
X218.0Y-38.0
X218.0Y-43.0
X218.0Y-48.0
X218.0Y-53.0
X218.0Y-58.0
X218.0Y-63.0
X218.0Y-68.0
X218.0Y-73.0
X218.0Y-78.0
X218.0Y-83.0
X218.0Y-88.0
X218.0Y-93.0
X218.0Y-98.0
X218.0Y-103.0
X218.0Y-108.0
X218.0Y-113.0
X218.0Y-118.0
X218.0Y-123.0
X218.0Y-128.0
X218.0Y-133.0
X218.0Y-138.0
X218.0Y-143.0
X218.0Y-148.0
X218.0Y-153.0
X218.0Y-158.0
X218.0Y-163.0
X218.0Y-168.0
X218.0Y-173.0
X218.0Y-178.0
X218.0Y-183.0
X218.0Y-188.0
X218.0Y-193.0
X218.0Y-198.0
X218.0Y-203.0
X218.0Y-208.0
X218.0Y-213.0
X218.0Y-218.0
X218.0Y-223.0
X218.0Y-228.0
X218.0Y-233.0
X218.0Y-238.0
X218.0Y-243.0
X218.0Y-248.0
X218.0Y-253.0
X218.0Y-258.0
X218.0Y-263.0
X218.0Y-268.0
X218.0Y-273.0
X218.0Y-278.0
X223.0Y-18.0
X223.0Y-23.0
X223.0Y-28.0
X223.0Y-33.0
X223.0Y-38.0
X223.0Y-43.0
X223.0Y-48.0
X223.0Y-53.0
X223.0Y-58.0
X223.0Y-63.0
X223.0Y-68.0
X223.0Y-73.0
X223.0Y-78.0
X223.0Y-83.0
X223.0Y-88.0
X223.0Y-93.0
X223.0Y-98.0
X223.0Y-103.0
X223.0Y-108.0
X223.0Y-113.0
X223.0Y-118.0
X223.0Y-123.0
X223.0Y-128.0
X223.0Y-133.0
X223.0Y-138.0
X223.0Y-143.0
X223.0Y-148.0
X223.0Y-153.0
X223.0Y-158.0
X223.0Y-163.0
X223.0Y-168.0
X223.0Y-173.0
X223.0Y-178.0
X223.0Y-183.0
X223.0Y-188.0
X223.0Y-193.0
X223.0Y-198.0
X223.0Y-203.0
X223.0Y-208.0
X223.0Y-213.0
X223.0Y-218.0
X223.0Y-223.0
X223.0Y-228.0
X223.0Y-233.0
X223.0Y-238.0
X223.0Y-243.0
X223.0Y-248.0
X223.0Y-253.0
X223.0Y-258.0
X223.0Y-263.0
X223.0Y-268.0
X223.0Y-273.0
X223.0Y-278.0
X228.0Y-18.0
X228.0Y-23.0
X228.0Y-28.0
X228.0Y-33.0
X228.0Y-38.0
X228.0Y-43.0
X228.0Y-48.0
X228.0Y-53.0
X228.0Y-58.0
X228.0Y-63.0
X228.0Y-68.0
X228.0Y-73.0
X228.0Y-78.0
X228.0Y-83.0
X228.0Y-88.0
X228.0Y-93.0
X228.0Y-98.0
X228.0Y-103.0
X228.0Y-108.0
X228.0Y-113.0
X228.0Y-118.0
X228.0Y-123.0
X228.0Y-128.0
X228.0Y-133.0
X228.0Y-138.0
X228.0Y-143.0
X228.0Y-148.0
X228.0Y-153.0
X228.0Y-158.0
X228.0Y-163.0
X228.0Y-168.0
X228.0Y-173.0
X228.0Y-178.0
X228.0Y-183.0
X228.0Y-188.0
X228.0Y-193.0
X228.0Y-198.0
X228.0Y-203.0
X228.0Y-208.0
X228.0Y-213.0
X228.0Y-218.0
X228.0Y-223.0
X228.0Y-228.0
X228.0Y-233.0
X228.0Y-238.0
X228.0Y-243.0
X228.0Y-248.0
X228.0Y-253.0
X228.0Y-258.0
X228.0Y-263.0
X228.0Y-268.0
X228.0Y-273.0
X228.0Y-278.0
X233.0Y-18.0
X233.0Y-23.0
X233.0Y-28.0
X233.0Y-33.0
X233.0Y-38.0
X233.0Y-43.0
X233.0Y-48.0
X233.0Y-53.0
X233.0Y-58.0
X233.0Y-63.0
X233.0Y-68.0
X233.0Y-73.0
X233.0Y-78.0
X233.0Y-83.0
X233.0Y-88.0
X233.0Y-93.0
X233.0Y-98.0
X233.0Y-103.0
X233.0Y-108.0
X233.0Y-113.0
X233.0Y-118.0
X233.0Y-123.0
X233.0Y-128.0
X233.0Y-133.0
X233.0Y-138.0
X233.0Y-143.0
X233.0Y-148.0
X233.0Y-153.0
X233.0Y-158.0
X233.0Y-163.0
X233.0Y-168.0
X233.0Y-173.0
X233.0Y-178.0
X233.0Y-183.0
X233.0Y-188.0
X233.0Y-193.0
X233.0Y-198.0
X233.0Y-203.0
X233.0Y-208.0
X233.0Y-213.0
X233.0Y-218.0
X233.0Y-223.0
X233.0Y-228.0
X233.0Y-233.0
X233.0Y-238.0
X233.0Y-243.0
X233.0Y-248.0
X233.0Y-253.0
X233.0Y-258.0
X233.0Y-263.0
X233.0Y-268.0
X233.0Y-273.0
X233.0Y-278.0
X238.0Y-18.0
X238.0Y-23.0
X238.0Y-28.0
X238.0Y-33.0
X238.0Y-38.0
X238.0Y-43.0
X238.0Y-48.0
X238.0Y-53.0
X238.0Y-58.0
X238.0Y-63.0
X238.0Y-68.0
X238.0Y-73.0
X238.0Y-78.0
X238.0Y-83.0
X238.0Y-88.0
X238.0Y-93.0
X238.0Y-98.0
X238.0Y-103.0
X238.0Y-108.0
X238.0Y-113.0
X238.0Y-118.0
X238.0Y-123.0
X238.0Y-128.0
X238.0Y-133.0
X238.0Y-138.0
X238.0Y-143.0
X238.0Y-148.0
X238.0Y-153.0
X238.0Y-158.0
X238.0Y-163.0
X238.0Y-168.0
X238.0Y-173.0
X238.0Y-178.0
X238.0Y-183.0
X238.0Y-188.0
X238.0Y-193.0
X238.0Y-198.0
X238.0Y-203.0
X238.0Y-208.0
X238.0Y-213.0
X238.0Y-218.0
X238.0Y-223.0
X238.0Y-228.0
X238.0Y-233.0
X238.0Y-238.0
X238.0Y-243.0
X238.0Y-248.0
X238.0Y-253.0
X238.0Y-258.0
X238.0Y-263.0
X238.0Y-268.0
X238.0Y-273.0
X238.0Y-278.0
X243.0Y-18.0
X243.0Y-23.0
X243.0Y-28.0
X243.0Y-33.0
X243.0Y-38.0
X243.0Y-43.0
X243.0Y-48.0
X243.0Y-53.0
X243.0Y-58.0
X243.0Y-63.0
X243.0Y-68.0
X243.0Y-73.0
X243.0Y-78.0
X243.0Y-83.0
X243.0Y-88.0
X243.0Y-93.0
X243.0Y-98.0
X243.0Y-103.0
X243.0Y-108.0
X243.0Y-113.0
X243.0Y-118.0
X243.0Y-123.0
X243.0Y-128.0
X243.0Y-133.0
X243.0Y-138.0
X243.0Y-143.0
X243.0Y-148.0
X243.0Y-153.0
X243.0Y-158.0
X243.0Y-163.0
X243.0Y-168.0
X243.0Y-173.0
X243.0Y-178.0
X243.0Y-183.0
X243.0Y-188.0
X243.0Y-193.0
X243.0Y-198.0
X243.0Y-203.0
X243.0Y-208.0
X243.0Y-213.0
X243.0Y-218.0
X243.0Y-223.0
X243.0Y-228.0
X243.0Y-233.0
X243.0Y-238.0
X243.0Y-243.0
X243.0Y-248.0
X243.0Y-253.0
X243.0Y-258.0
X243.0Y-263.0
X243.0Y-268.0
X243.0Y-273.0
X243.0Y-278.0
X248.0Y-18.0
X248.0Y-23.0
X248.0Y-28.0
X248.0Y-33.0
X248.0Y-38.0
X248.0Y-43.0
X248.0Y-48.0
X248.0Y-53.0
X248.0Y-58.0
X248.0Y-63.0
X248.0Y-68.0
X248.0Y-73.0
X248.0Y-78.0
X248.0Y-83.0
X248.0Y-88.0
X248.0Y-93.0
X248.0Y-98.0
X248.0Y-103.0
X248.0Y-108.0
X248.0Y-113.0
X248.0Y-118.0
X248.0Y-123.0
X248.0Y-128.0
X248.0Y-133.0
X248.0Y-138.0
X248.0Y-143.0
X248.0Y-148.0
X248.0Y-153.0
X248.0Y-158.0
X248.0Y-163.0
X248.0Y-168.0
X248.0Y-173.0
X248.0Y-178.0
X248.0Y-183.0
X248.0Y-188.0
X248.0Y-193.0
X248.0Y-198.0
X248.0Y-203.0
X248.0Y-208.0
X248.0Y-213.0
X248.0Y-218.0
X248.0Y-223.0
X248.0Y-228.0
X248.0Y-233.0
X248.0Y-238.0
X248.0Y-243.0
X248.0Y-248.0
X248.0Y-253.0
X248.0Y-258.0
X248.0Y-263.0
X248.0Y-268.0
X248.0Y-273.0
X248.0Y-278.0
X253.0Y-18.0
X253.0Y-23.0
X253.0Y-28.0
X253.0Y-33.0
X253.0Y-38.0
X253.0Y-43.0
X253.0Y-48.0
X253.0Y-53.0
X253.0Y-58.0
X253.0Y-63.0
X253.0Y-68.0
X253.0Y-73.0
X253.0Y-78.0
X253.0Y-83.0
X253.0Y-88.0
X253.0Y-93.0
X253.0Y-98.0
X253.0Y-103.0
X253.0Y-108.0
X253.0Y-113.0
X253.0Y-118.0
X253.0Y-123.0
X253.0Y-128.0
X253.0Y-133.0
X253.0Y-138.0
X253.0Y-143.0
X253.0Y-148.0
X253.0Y-153.0
X253.0Y-158.0
X253.0Y-163.0
X253.0Y-168.0
X253.0Y-173.0
X253.0Y-178.0
X253.0Y-183.0
X253.0Y-188.0
X253.0Y-193.0
X253.0Y-198.0
X253.0Y-203.0
X253.0Y-208.0
X253.0Y-213.0
X253.0Y-218.0
X253.0Y-223.0
X253.0Y-228.0
X253.0Y-233.0
X253.0Y-238.0
X253.0Y-243.0
X253.0Y-248.0
X253.0Y-253.0
X253.0Y-258.0
X253.0Y-263.0
X253.0Y-268.0
X253.0Y-273.0
X253.0Y-278.0
X258.0Y-18.0
X258.0Y-23.0
X258.0Y-28.0
X258.0Y-33.0
X258.0Y-38.0
X258.0Y-43.0
X258.0Y-48.0
X258.0Y-53.0
X258.0Y-58.0
X258.0Y-63.0
X258.0Y-68.0
X258.0Y-73.0
X258.0Y-78.0
X258.0Y-83.0
X258.0Y-88.0
X258.0Y-93.0
X258.0Y-98.0
X258.0Y-103.0
X258.0Y-108.0
X258.0Y-113.0
X258.0Y-118.0
X258.0Y-123.0
X258.0Y-128.0
X258.0Y-133.0
X258.0Y-138.0
X258.0Y-143.0
X258.0Y-148.0
X258.0Y-153.0
X258.0Y-158.0
X258.0Y-163.0
X258.0Y-168.0
X258.0Y-173.0
X258.0Y-178.0
X258.0Y-183.0
X258.0Y-188.0
X258.0Y-193.0
X258.0Y-198.0
X258.0Y-203.0
X258.0Y-208.0
X258.0Y-213.0
X258.0Y-218.0
X258.0Y-223.0
X258.0Y-228.0
X258.0Y-233.0
X258.0Y-238.0
X258.0Y-243.0
X258.0Y-248.0
X258.0Y-253.0
X258.0Y-258.0
X258.0Y-263.0
X258.0Y-268.0
X258.0Y-273.0
X258.0Y-278.0
X263.0Y-18.0
X263.0Y-23.0
X263.0Y-28.0
X263.0Y-33.0
X263.0Y-38.0
X263.0Y-43.0
X263.0Y-48.0
X263.0Y-53.0
X263.0Y-58.0
X263.0Y-63.0
X263.0Y-68.0
X263.0Y-73.0
X263.0Y-78.0
X263.0Y-83.0
X263.0Y-88.0
X263.0Y-93.0
X263.0Y-98.0
X263.0Y-103.0
X263.0Y-108.0
X263.0Y-113.0
X263.0Y-118.0
X263.0Y-123.0
X263.0Y-128.0
X263.0Y-133.0
X263.0Y-138.0
X263.0Y-143.0
X263.0Y-148.0
X263.0Y-153.0
X263.0Y-158.0
X263.0Y-163.0
X263.0Y-168.0
X263.0Y-173.0
X263.0Y-178.0
X263.0Y-183.0
X263.0Y-188.0
X263.0Y-193.0
X263.0Y-198.0
X263.0Y-203.0
X263.0Y-208.0
X263.0Y-213.0
X263.0Y-218.0
X263.0Y-223.0
X263.0Y-228.0
X263.0Y-233.0
X263.0Y-238.0
X263.0Y-243.0
X263.0Y-248.0
X263.0Y-253.0
X263.0Y-258.0
X263.0Y-263.0
X263.0Y-268.0
X263.0Y-273.0
X263.0Y-278.0
X268.0Y-18.0
X268.0Y-23.0
X268.0Y-28.0
X268.0Y-33.0
X268.0Y-38.0
X268.0Y-43.0
X268.0Y-48.0
X268.0Y-53.0
X268.0Y-58.0
X268.0Y-63.0
X268.0Y-68.0
X268.0Y-73.0
X268.0Y-78.0
X268.0Y-83.0
X268.0Y-88.0
X268.0Y-93.0
X268.0Y-98.0
X268.0Y-103.0
X268.0Y-108.0
X268.0Y-113.0
X268.0Y-118.0
X268.0Y-123.0
X268.0Y-128.0
X268.0Y-133.0
X268.0Y-138.0
X268.0Y-143.0
X268.0Y-148.0
X268.0Y-153.0
X268.0Y-158.0
X268.0Y-163.0
X268.0Y-168.0
X268.0Y-173.0
X268.0Y-178.0
X268.0Y-183.0
X268.0Y-188.0
X268.0Y-193.0
X268.0Y-198.0
X268.0Y-203.0
X268.0Y-208.0
X268.0Y-213.0
X268.0Y-218.0
X268.0Y-223.0
X268.0Y-228.0
X268.0Y-233.0
X268.0Y-238.0
X268.0Y-243.0
X268.0Y-248.0
X268.0Y-253.0
X268.0Y-258.0
X268.0Y-263.0
X268.0Y-268.0
X268.0Y-273.0
X268.0Y-278.0
X273.0Y-18.0
X273.0Y-23.0
X273.0Y-28.0
X273.0Y-33.0
X273.0Y-38.0
X273.0Y-43.0
X273.0Y-48.0
X273.0Y-53.0
X273.0Y-58.0
X273.0Y-63.0
X273.0Y-68.0
X273.0Y-73.0
X273.0Y-78.0
X273.0Y-83.0
X273.0Y-88.0
X273.0Y-93.0
X273.0Y-98.0
X273.0Y-103.0
X273.0Y-108.0
X273.0Y-113.0
X273.0Y-118.0
X273.0Y-123.0
X273.0Y-128.0
X273.0Y-133.0
X273.0Y-138.0
X273.0Y-143.0
X273.0Y-148.0
X273.0Y-153.0
X273.0Y-158.0
X273.0Y-163.0
X273.0Y-168.0
X273.0Y-173.0
X273.0Y-178.0
X273.0Y-183.0
X273.0Y-188.0
X273.0Y-193.0
X273.0Y-198.0
X273.0Y-203.0
X273.0Y-208.0
X273.0Y-213.0
X273.0Y-218.0
X273.0Y-223.0
X273.0Y-228.0
X273.0Y-233.0
X273.0Y-238.0
X273.0Y-243.0
X273.0Y-248.0
X273.0Y-253.0
X273.0Y-258.0
X273.0Y-263.0
X273.0Y-268.0
X273.0Y-273.0
X273.0Y-278.0
X278.0Y-18.0
X278.0Y-23.0
X278.0Y-28.0
X278.0Y-33.0
X278.0Y-38.0
X278.0Y-43.0
X278.0Y-48.0
X278.0Y-53.0
X278.0Y-58.0
X278.0Y-63.0
X278.0Y-68.0
X278.0Y-73.0
X278.0Y-78.0
X278.0Y-83.0
X278.0Y-88.0
X278.0Y-93.0
X278.0Y-98.0
X278.0Y-103.0
X278.0Y-108.0
X278.0Y-113.0
X278.0Y-118.0
X278.0Y-123.0
X278.0Y-128.0
X278.0Y-133.0
X278.0Y-138.0
X278.0Y-143.0
X278.0Y-148.0
X278.0Y-153.0
X278.0Y-158.0
X278.0Y-163.0
X278.0Y-168.0
X278.0Y-173.0
X278.0Y-178.0
X278.0Y-183.0
X278.0Y-188.0
X278.0Y-193.0
X278.0Y-198.0
X278.0Y-203.0
X278.0Y-208.0
X278.0Y-213.0
X278.0Y-218.0
X278.0Y-223.0
X278.0Y-228.0
X278.0Y-233.0
X278.0Y-238.0
X278.0Y-243.0
X278.0Y-248.0
X278.0Y-253.0
X278.0Y-258.0
X278.0Y-263.0
X278.0Y-268.0
X278.0Y-273.0
X278.0Y-278.0
X283.0Y-18.0
X283.0Y-23.0
X283.0Y-28.0
X283.0Y-33.0
X283.0Y-38.0
X283.0Y-43.0
X283.0Y-48.0
X283.0Y-53.0
X283.0Y-58.0
X283.0Y-63.0
X283.0Y-68.0
X283.0Y-73.0
X283.0Y-78.0
X283.0Y-83.0
X283.0Y-88.0
X283.0Y-93.0
X283.0Y-98.0
X283.0Y-103.0
X283.0Y-108.0
X283.0Y-113.0
X283.0Y-118.0
X283.0Y-123.0
X283.0Y-128.0
X283.0Y-133.0
X283.0Y-138.0
X283.0Y-143.0
X283.0Y-148.0
X283.0Y-153.0
X283.0Y-158.0
X283.0Y-163.0
X283.0Y-168.0
X283.0Y-173.0
X283.0Y-178.0
X283.0Y-183.0
X283.0Y-188.0
X283.0Y-193.0
X283.0Y-198.0
X283.0Y-203.0
X283.0Y-208.0
X283.0Y-213.0
X283.0Y-218.0
X283.0Y-223.0
X283.0Y-228.0
X283.0Y-233.0
X283.0Y-238.0
X283.0Y-243.0
X283.0Y-248.0
X283.0Y-253.0
X283.0Y-258.0
X283.0Y-263.0
X283.0Y-268.0
X283.0Y-273.0
X283.0Y-278.0
X288.0Y-18.0
X288.0Y-23.0
X288.0Y-28.0
X288.0Y-33.0
X288.0Y-38.0
X288.0Y-43.0
X288.0Y-48.0
X288.0Y-53.0
X288.0Y-58.0
X288.0Y-63.0
X288.0Y-68.0
X288.0Y-73.0
X288.0Y-78.0
X288.0Y-83.0
X288.0Y-88.0
X288.0Y-93.0
X288.0Y-98.0
X288.0Y-103.0
X288.0Y-108.0
X288.0Y-113.0
X288.0Y-118.0
X288.0Y-123.0
X288.0Y-128.0
X288.0Y-133.0
X288.0Y-138.0
X288.0Y-143.0
X288.0Y-148.0
X288.0Y-153.0
X288.0Y-158.0
X288.0Y-163.0
X288.0Y-168.0
X288.0Y-173.0
X288.0Y-178.0
X288.0Y-183.0
X288.0Y-188.0
X288.0Y-193.0
X288.0Y-198.0
X288.0Y-203.0
X288.0Y-208.0
X288.0Y-213.0
X288.0Y-218.0
X288.0Y-223.0
X288.0Y-228.0
X288.0Y-233.0
X288.0Y-238.0
X288.0Y-243.0
X288.0Y-248.0
X288.0Y-253.0
X288.0Y-258.0
X288.0Y-263.0
X288.0Y-268.0
X288.0Y-273.0
X288.0Y-278.0
X293.0Y-18.0
X293.0Y-23.0
X293.0Y-28.0
X293.0Y-33.0
X293.0Y-38.0
X293.0Y-43.0
X293.0Y-48.0
X293.0Y-53.0
X293.0Y-58.0
X293.0Y-63.0
X293.0Y-68.0
X293.0Y-73.0
X293.0Y-78.0
X293.0Y-83.0
X293.0Y-88.0
X293.0Y-93.0
X293.0Y-98.0
X293.0Y-103.0
X293.0Y-108.0
X293.0Y-113.0
X293.0Y-118.0
X293.0Y-123.0
X293.0Y-128.0
X293.0Y-133.0
X293.0Y-138.0
X293.0Y-143.0
X293.0Y-148.0
X293.0Y-153.0
X293.0Y-158.0
X293.0Y-163.0
X293.0Y-168.0
X293.0Y-173.0
X293.0Y-178.0
X293.0Y-183.0
X293.0Y-188.0
X293.0Y-193.0
X293.0Y-198.0
X293.0Y-203.0
X293.0Y-208.0
X293.0Y-213.0
X293.0Y-218.0
X293.0Y-223.0
X293.0Y-228.0
X293.0Y-233.0
X293.0Y-238.0
X293.0Y-243.0
X293.0Y-248.0
X293.0Y-253.0
X293.0Y-258.0
X293.0Y-263.0
X293.0Y-268.0
X293.0Y-273.0
X293.0Y-278.0
X298.0Y-18.0
X298.0Y-23.0
X298.0Y-28.0
X298.0Y-33.0
X298.0Y-38.0
X298.0Y-43.0
X298.0Y-48.0
X298.0Y-53.0
X298.0Y-58.0
X298.0Y-63.0
X298.0Y-68.0
X298.0Y-73.0
X298.0Y-78.0
X298.0Y-83.0
X298.0Y-88.0
X298.0Y-93.0
X298.0Y-98.0
X298.0Y-103.0
X298.0Y-108.0
X298.0Y-113.0
X298.0Y-118.0
X298.0Y-123.0
X298.0Y-128.0
X298.0Y-133.0
X298.0Y-138.0
X298.0Y-143.0
X298.0Y-148.0
X298.0Y-153.0
X298.0Y-158.0
X298.0Y-163.0
X298.0Y-168.0
X298.0Y-173.0
X298.0Y-178.0
X298.0Y-183.0
X298.0Y-188.0
X298.0Y-193.0
X298.0Y-198.0
X298.0Y-203.0
X298.0Y-208.0
X298.0Y-213.0
X298.0Y-218.0
X298.0Y-223.0
X298.0Y-228.0
X298.0Y-233.0
X298.0Y-238.0
X298.0Y-243.0
X298.0Y-248.0
X298.0Y-253.0
X298.0Y-258.0
X298.0Y-263.0
X298.0Y-268.0
X298.0Y-273.0
X298.0Y-278.0
X303.0Y-18.0
X303.0Y-23.0
X303.0Y-28.0
X303.0Y-33.0
X303.0Y-38.0
X303.0Y-43.0
X303.0Y-48.0
X303.0Y-53.0
X303.0Y-58.0
X303.0Y-63.0
X303.0Y-68.0
X303.0Y-73.0
X303.0Y-78.0
X303.0Y-83.0
X303.0Y-88.0
X303.0Y-93.0
X303.0Y-98.0
X303.0Y-103.0
X303.0Y-108.0
X303.0Y-113.0
X303.0Y-118.0
X303.0Y-123.0
X303.0Y-128.0
X303.0Y-133.0
X303.0Y-138.0
X303.0Y-143.0
X303.0Y-148.0
X303.0Y-153.0
X303.0Y-158.0
X303.0Y-163.0
X303.0Y-168.0
X303.0Y-173.0
X303.0Y-178.0
X303.0Y-183.0
X303.0Y-188.0
X303.0Y-193.0
X303.0Y-198.0
X303.0Y-203.0
X303.0Y-208.0
X303.0Y-213.0
X303.0Y-218.0
X303.0Y-223.0
X303.0Y-228.0
X303.0Y-233.0
X303.0Y-238.0
X303.0Y-243.0
X303.0Y-248.0
X303.0Y-253.0
X303.0Y-258.0
X303.0Y-263.0
X303.0Y-268.0
X303.0Y-273.0
X303.0Y-278.0
T3
X296.7Y-120.73
X296.7Y-122.0
X296.7Y-158.063
X296.7Y-159.333
X297.97Y-120.73
X297.97Y-122.0
X297.97Y-158.063
X297.97Y-159.333
X299.24Y-120.73
X299.24Y-122.0
X299.24Y-158.063
X299.24Y-159.333
X300.51Y-120.73
X300.51Y-122.0
X300.51Y-158.063
X300.51Y-159.333
X301.78Y-120.73
X301.78Y-122.0
X301.78Y-158.063
X301.78Y-159.333
X303.05Y-158.063
X303.05Y-159.333
X304.32Y-158.063
X304.32Y-159.333
T4
X25.25Y-269.0
T5
X16.1Y-17.467
X16.1Y-282.533
X308.9Y-17.467
X308.9Y-282.533
M30
