%TF.GenerationSoftware,KiCad,Pcbnew,9.0.9-rc1*%
%TF.CreationDate,2026-06-20T16:22:39-07:00*%
%TF.ProjectId,TFLN_AI_NODE_X2,54464c4e-5f41-4495-9f4e-4f44455f5832,rev?*%
%TF.SameCoordinates,Original*%
%TF.FileFunction,Profile,NP*%
%FSLAX46Y46*%
G04 Gerber Fmt 4.6, Leading zero omitted, Abs format (unit mm)*
G04 Created by KiCad (PCBNEW 9.0.9-rc1) date 2026-06-20 16:22:39*
%MOMM*%
%LPD*%
G01*
G04 APERTURE LIST*
%TA.AperFunction,Profile*%
%ADD10C,0.100000*%
%TD*%
%TA.AperFunction,Profile*%
%ADD11C,0.050000*%
%TD*%
%ADD12C,0.350000*%
G04 APERTURE END LIST*
D10*
X10000000Y-10000000D02*
X315000000Y-10000000D01*
X10000000Y-290000000D02*
X10000000Y-10000000D01*
D11*
X21600000Y-20000000D02*
G75*
G02*
X18400000Y-20000000I-1600000J0D01*
G01*
X18400000Y-20000000D02*
G75*
G02*
X21600000Y-20000000I1600000J0D01*
G01*
X21600000Y-280000000D02*
G75*
G02*
X18400000Y-280000000I-1600000J0D01*
G01*
X18400000Y-280000000D02*
G75*
G02*
X21600000Y-280000000I1600000J0D01*
G01*
D10*
X100000000Y-75000000D02*
X300000000Y-75000000D01*
X300000000Y-225000000D01*
X100000000Y-225000000D01*
X100000000Y-75000000D01*
D11*
X306600000Y-20000000D02*
G75*
G02*
X303400000Y-20000000I-1600000J0D01*
G01*
X303400000Y-20000000D02*
G75*
G02*
X306600000Y-20000000I1600000J0D01*
G01*
X306600000Y-280000000D02*
G75*
G02*
X303400000Y-280000000I-1600000J0D01*
G01*
X303400000Y-280000000D02*
G75*
G02*
X306600000Y-280000000I1600000J0D01*
G01*
D10*
X315000000Y-10000000D02*
X315000000Y-290000000D01*
X315000000Y-290000000D02*
X10000000Y-290000000D01*
D12*
X296700000Y-159333333D03*
X296700000Y-158063333D03*
X297970000Y-159333333D03*
X297970000Y-158063333D03*
X299240000Y-159333333D03*
X299240000Y-158063333D03*
X300510000Y-159333333D03*
X300510000Y-158063333D03*
X301780000Y-159333333D03*
X301780000Y-158063333D03*
X303050000Y-159333333D03*
X303050000Y-158063333D03*
X304320000Y-159333333D03*
X304320000Y-158063333D03*
X296700000Y-122000000D03*
X296700000Y-120730000D03*
X297970000Y-122000000D03*
X297970000Y-120730000D03*
X299240000Y-122000000D03*
X299240000Y-120730000D03*
X300510000Y-122000000D03*
X300510000Y-120730000D03*
X301780000Y-122000000D03*
X301780000Y-120730000D03*
X308900000Y-17466666D03*
X16100000Y-17466666D03*
X308900000Y-282533333D03*
X25250000Y-269000000D03*
X16100000Y-282533333D03*
M02*
