M48
METRIC
T1C0.150
T2C0.200
T3C0.650
T4C2.000
T5C3.200
%
G90
G05
T1
X120.0Y-148.0
X120.0Y-148.8
X154.6Y-25.0
X154.6Y-28.0
X154.6Y-31.0
X154.6Y-34.0
X154.6Y-37.0
X154.6Y-40.0
X154.6Y-43.0
X154.6Y-46.0
X154.6Y-49.0
X154.6Y-52.0
X154.6Y-55.0
X154.6Y-58.0
X154.6Y-61.0
X154.6Y-64.0
X154.6Y-67.0
X154.6Y-70.0
X154.6Y-73.0
X154.6Y-76.0
X154.6Y-79.0
X154.6Y-82.0
X154.6Y-85.0
X154.6Y-88.0
X154.6Y-91.0
X154.6Y-94.0
X154.6Y-97.0
X154.6Y-100.0
X154.6Y-103.0
X154.6Y-106.0
X154.6Y-109.0
X154.6Y-112.0
X154.6Y-115.0
X154.6Y-118.0
X154.6Y-121.0
X154.6Y-124.0
X154.6Y-127.0
X154.6Y-130.0
X156.8Y-25.0
X156.8Y-28.0
X156.8Y-31.0
X156.8Y-34.0
X156.8Y-37.0
X156.8Y-40.0
X156.8Y-43.0
X156.8Y-46.0
X156.8Y-49.0
X156.8Y-52.0
X156.8Y-55.0
X156.8Y-58.0
X156.8Y-61.0
X156.8Y-64.0
X156.8Y-67.0
X156.8Y-70.0
X156.8Y-73.0
X156.8Y-76.0
X156.8Y-79.0
X156.8Y-82.0
X156.8Y-85.0
X156.8Y-88.0
X156.8Y-91.0
X156.8Y-94.0
X156.8Y-97.0
X156.8Y-100.0
X156.8Y-103.0
X156.8Y-106.0
X156.8Y-109.0
X156.8Y-112.0
X156.8Y-115.0
X156.8Y-118.0
X156.8Y-121.0
X156.8Y-124.0
X156.8Y-127.0
X156.8Y-130.0
X159.0Y-25.0
X159.0Y-28.0
X159.0Y-31.0
X159.0Y-34.0
X159.0Y-37.0
X159.0Y-40.0
X159.0Y-43.0
X159.0Y-46.0
X159.0Y-49.0
X159.0Y-52.0
X159.0Y-55.0
X159.0Y-58.0
X159.0Y-61.0
X159.0Y-64.0
X159.0Y-67.0
X159.0Y-70.0
X159.0Y-73.0
X159.0Y-76.0
X159.0Y-79.0
X159.0Y-82.0
X159.0Y-85.0
X159.0Y-88.0
X159.0Y-91.0
X159.0Y-94.0
X159.0Y-97.0
X159.0Y-100.0
X159.0Y-103.0
X159.0Y-106.0
X159.0Y-109.0
X159.0Y-112.0
X159.0Y-115.0
X159.0Y-118.0
X159.0Y-121.0
X159.0Y-124.0
X159.0Y-127.0
X159.0Y-130.0
X160.6Y-79.033
X160.6Y-80.033
X160.6Y-81.033
X160.6Y-82.033
X160.6Y-83.033
X160.6Y-84.033
X160.6Y-85.033
X160.6Y-86.033
X161.2Y-25.0
X161.2Y-28.0
X161.2Y-31.0
X161.2Y-34.0
X161.2Y-37.0
X161.2Y-40.0
X161.2Y-43.0
X161.2Y-46.0
X161.2Y-49.0
X161.2Y-52.0
X161.2Y-55.0
X161.2Y-58.0
X161.2Y-61.0
X161.2Y-64.0
X161.2Y-67.0
X161.2Y-70.0
X161.2Y-73.0
X161.2Y-76.0
X161.2Y-79.0
X161.2Y-82.0
X161.2Y-85.0
X161.2Y-88.0
X161.2Y-91.0
X161.2Y-94.0
X161.2Y-97.0
X161.2Y-100.0
X161.2Y-103.0
X161.2Y-106.0
X161.2Y-109.0
X161.2Y-112.0
X161.2Y-115.0
X161.2Y-118.0
X161.2Y-121.0
X161.2Y-124.0
X161.2Y-127.0
X161.2Y-130.0
X161.55Y-79.033
X161.55Y-80.033
X161.55Y-81.033
X161.55Y-82.033
X161.55Y-83.033
X161.55Y-84.033
X161.55Y-85.033
X161.55Y-86.033
X161.6Y-79.033
X161.6Y-80.033
X161.6Y-81.033
X161.6Y-82.033
X161.6Y-83.033
X161.6Y-84.033
X161.6Y-85.033
X161.6Y-86.033
X162.55Y-79.033
X162.55Y-80.033
X162.55Y-81.033
X162.55Y-82.033
X162.55Y-83.033
X162.55Y-84.033
X162.55Y-85.033
X162.55Y-86.033
X162.6Y-79.033
X162.6Y-80.033
X162.6Y-81.033
X162.6Y-82.033
X162.6Y-83.033
X162.6Y-84.033
X162.6Y-85.033
X162.6Y-86.033
X163.55Y-79.033
X163.55Y-80.033
X163.55Y-81.033
X163.55Y-82.033
X163.55Y-83.033
X163.55Y-84.033
X163.55Y-85.033
X163.55Y-86.033
X163.6Y-79.033
X163.6Y-80.033
X163.6Y-81.033
X163.6Y-82.033
X163.6Y-83.033
X163.6Y-84.033
X163.6Y-85.033
X163.6Y-86.033
X164.55Y-79.033
X164.55Y-80.033
X164.55Y-81.033
X164.55Y-82.033
X164.55Y-83.033
X164.55Y-84.033
X164.55Y-85.033
X164.55Y-86.033
X205.0Y-148.0
X205.0Y-148.8
T2
X18.0Y-18.0
X18.0Y-18.0
X18.0Y-22.0
X18.0Y-23.0
X18.0Y-26.0
X18.0Y-28.0
X18.0Y-30.0
X18.0Y-33.0
X18.0Y-34.0
X18.0Y-38.0
X18.0Y-38.0
X18.0Y-42.0
X18.0Y-43.0
X18.0Y-46.0
X18.0Y-48.0
X18.0Y-50.0
X18.0Y-53.0
X18.0Y-54.0
X18.0Y-58.0
X18.0Y-58.0
X18.0Y-62.0
X18.0Y-63.0
X18.0Y-66.0
X18.0Y-68.0
X18.0Y-70.0
X18.0Y-73.0
X18.0Y-74.0
X18.0Y-78.0
X18.0Y-78.0
X18.0Y-82.0
X18.0Y-83.0
X18.0Y-86.0
X18.0Y-88.0
X18.0Y-90.0
X18.0Y-93.0
X18.0Y-94.0
X18.0Y-98.0
X18.0Y-98.0
X18.0Y-102.0
X18.0Y-103.0
X18.0Y-106.0
X18.0Y-108.0
X18.0Y-110.0
X18.0Y-113.0
X18.0Y-114.0
X18.0Y-118.0
X18.0Y-118.0
X18.0Y-122.0
X18.0Y-123.0
X18.0Y-126.0
X18.0Y-128.0
X18.0Y-130.0
X18.0Y-133.0
X18.0Y-134.0
X18.0Y-138.0
X18.0Y-138.0
X18.0Y-142.0
X18.0Y-143.0
X18.0Y-146.0
X18.0Y-148.0
X18.0Y-150.0
X18.0Y-153.0
X18.0Y-154.0
X18.0Y-158.0
X18.0Y-158.0
X18.0Y-162.0
X18.0Y-163.0
X18.0Y-166.0
X18.0Y-168.0
X18.0Y-170.0
X18.0Y-173.0
X18.0Y-174.0
X18.0Y-178.0
X18.0Y-178.0
X18.0Y-182.0
X18.0Y-183.0
X18.0Y-186.0
X18.0Y-188.0
X18.0Y-190.0
X18.0Y-193.0
X18.0Y-194.0
X18.0Y-198.0
X18.0Y-198.0
X18.0Y-202.0
X18.0Y-203.0
X18.0Y-206.0
X18.0Y-208.0
X18.0Y-210.0
X18.0Y-213.0
X18.0Y-214.0
X18.0Y-218.0
X18.0Y-218.0
X18.0Y-222.0
X18.0Y-223.0
X18.0Y-226.0
X18.0Y-228.0
X18.0Y-230.0
X18.0Y-233.0
X18.0Y-234.0
X18.0Y-238.0
X18.0Y-238.0
X18.0Y-242.0
X18.0Y-243.0
X18.0Y-246.0
X18.0Y-248.0
X18.0Y-250.0
X18.0Y-253.0
X18.0Y-254.0
X18.0Y-258.0
X18.0Y-258.0
X18.0Y-262.0
X18.0Y-263.0
X18.0Y-266.0
X18.0Y-268.0
X18.0Y-270.0
X18.0Y-273.0
X18.0Y-274.0
X18.0Y-278.0
X18.0Y-278.0
X22.0Y-18.0
X22.0Y-22.0
X22.0Y-26.0
X22.0Y-30.0
X22.0Y-34.0
X22.0Y-38.0
X22.0Y-42.0
X22.0Y-46.0
X22.0Y-50.0
X22.0Y-54.0
X22.0Y-58.0
X22.0Y-62.0
X22.0Y-66.0
X22.0Y-70.0
X22.0Y-74.0
X22.0Y-78.0
X22.0Y-82.0
X22.0Y-86.0
X22.0Y-90.0
X22.0Y-94.0
X22.0Y-98.0
X22.0Y-102.0
X22.0Y-106.0
X22.0Y-110.0
X22.0Y-114.0
X22.0Y-118.0
X22.0Y-122.0
X22.0Y-126.0
X22.0Y-130.0
X22.0Y-134.0
X22.0Y-138.0
X22.0Y-142.0
X22.0Y-146.0
X22.0Y-150.0
X22.0Y-154.0
X22.0Y-158.0
X22.0Y-162.0
X22.0Y-166.0
X22.0Y-170.0
X22.0Y-174.0
X22.0Y-178.0
X22.0Y-182.0
X22.0Y-186.0
X22.0Y-190.0
X22.0Y-194.0
X22.0Y-198.0
X22.0Y-202.0
X22.0Y-206.0
X22.0Y-210.0
X22.0Y-214.0
X22.0Y-218.0
X22.0Y-222.0
X22.0Y-226.0
X22.0Y-230.0
X22.0Y-234.0
X22.0Y-238.0
X22.0Y-242.0
X22.0Y-246.0
X22.0Y-250.0
X22.0Y-254.0
X22.0Y-258.0
X22.0Y-262.0
X22.0Y-266.0
X22.0Y-270.0
X22.0Y-274.0
X22.0Y-278.0
X23.0Y-18.0
X23.0Y-23.0
X23.0Y-28.0
X23.0Y-33.0
X23.0Y-38.0
X23.0Y-43.0
X23.0Y-48.0
X23.0Y-53.0
X23.0Y-58.0
X23.0Y-63.0
X23.0Y-68.0
X23.0Y-73.0
X23.0Y-78.0
X23.0Y-83.0
X23.0Y-88.0
X23.0Y-93.0
X23.0Y-98.0
X23.0Y-103.0
X23.0Y-108.0
X23.0Y-113.0
X23.0Y-118.0
X23.0Y-123.0
X23.0Y-128.0
X23.0Y-133.0
X23.0Y-138.0
X23.0Y-143.0
X23.0Y-148.0
X23.0Y-153.0
X23.0Y-158.0
X23.0Y-163.0
X23.0Y-168.0
X23.0Y-173.0
X23.0Y-178.0
X23.0Y-183.0
X23.0Y-188.0
X23.0Y-193.0
X23.0Y-198.0
X23.0Y-203.0
X23.0Y-208.0
X23.0Y-213.0
X23.0Y-218.0
X23.0Y-223.0
X23.0Y-228.0
X23.0Y-233.0
X23.0Y-238.0
X23.0Y-243.0
X23.0Y-248.0
X23.0Y-253.0
X23.0Y-258.0
X23.0Y-263.0
X23.0Y-268.0
X23.0Y-273.0
X23.0Y-278.0
X26.0Y-18.0
X26.0Y-22.0
X26.0Y-26.0
X26.0Y-30.0
X26.0Y-34.0
X26.0Y-38.0
X26.0Y-42.0
X26.0Y-46.0
X26.0Y-50.0
X26.0Y-54.0
X26.0Y-58.0
X26.0Y-62.0
X26.0Y-66.0
X26.0Y-70.0
X26.0Y-74.0
X26.0Y-78.0
X26.0Y-82.0
X26.0Y-86.0
X26.0Y-90.0
X26.0Y-94.0
X26.0Y-98.0
X26.0Y-102.0
X26.0Y-106.0
X26.0Y-110.0
X26.0Y-114.0
X26.0Y-118.0
X26.0Y-122.0
X26.0Y-126.0
X26.0Y-130.0
X26.0Y-134.0
X26.0Y-138.0
X26.0Y-142.0
X26.0Y-146.0
X26.0Y-150.0
X26.0Y-154.0
X26.0Y-158.0
X26.0Y-162.0
X26.0Y-166.0
X26.0Y-170.0
X26.0Y-174.0
X26.0Y-178.0
X26.0Y-182.0
X26.0Y-186.0
X26.0Y-190.0
X26.0Y-194.0
X26.0Y-198.0
X26.0Y-202.0
X26.0Y-206.0
X26.0Y-210.0
X26.0Y-214.0
X26.0Y-218.0
X26.0Y-222.0
X26.0Y-226.0
X26.0Y-230.0
X26.0Y-234.0
X26.0Y-238.0
X26.0Y-242.0
X26.0Y-246.0
X26.0Y-250.0
X26.0Y-254.0
X26.0Y-258.0
X26.0Y-262.0
X26.0Y-266.0
X26.0Y-270.0
X26.0Y-274.0
X26.0Y-278.0
X28.0Y-18.0
X28.0Y-23.0
X28.0Y-28.0
X28.0Y-33.0
X28.0Y-38.0
X28.0Y-43.0
X28.0Y-48.0
X28.0Y-53.0
X28.0Y-58.0
X28.0Y-63.0
X28.0Y-68.0
X28.0Y-73.0
X28.0Y-78.0
X28.0Y-83.0
X28.0Y-88.0
X28.0Y-93.0
X28.0Y-98.0
X28.0Y-103.0
X28.0Y-108.0
X28.0Y-113.0
X28.0Y-118.0
X28.0Y-123.0
X28.0Y-128.0
X28.0Y-133.0
X28.0Y-138.0
X28.0Y-143.0
X28.0Y-148.0
X28.0Y-153.0
X28.0Y-158.0
X28.0Y-163.0
X28.0Y-168.0
X28.0Y-173.0
X28.0Y-178.0
X28.0Y-183.0
X28.0Y-188.0
X28.0Y-193.0
X28.0Y-198.0
X28.0Y-203.0
X28.0Y-208.0
X28.0Y-213.0
X28.0Y-218.0
X28.0Y-223.0
X28.0Y-228.0
X28.0Y-233.0
X28.0Y-238.0
X28.0Y-243.0
X28.0Y-248.0
X28.0Y-253.0
X28.0Y-258.0
X28.0Y-263.0
X28.0Y-268.0
X28.0Y-273.0
X28.0Y-278.0
X30.0Y-18.0
X30.0Y-22.0
X30.0Y-26.0
X30.0Y-30.0
X30.0Y-34.0
X30.0Y-38.0
X30.0Y-42.0
X30.0Y-46.0
X30.0Y-50.0
X30.0Y-54.0
X30.0Y-58.0
X30.0Y-62.0
X30.0Y-66.0
X30.0Y-70.0
X30.0Y-74.0
X30.0Y-78.0
X30.0Y-82.0
X30.0Y-86.0
X30.0Y-90.0
X30.0Y-94.0
X30.0Y-98.0
X30.0Y-102.0
X30.0Y-106.0
X30.0Y-110.0
X30.0Y-114.0
X30.0Y-118.0
X30.0Y-122.0
X30.0Y-126.0
X30.0Y-130.0
X30.0Y-134.0
X30.0Y-138.0
X30.0Y-142.0
X30.0Y-146.0
X30.0Y-150.0
X30.0Y-154.0
X30.0Y-158.0
X30.0Y-162.0
X30.0Y-166.0
X30.0Y-170.0
X30.0Y-174.0
X30.0Y-178.0
X30.0Y-182.0
X30.0Y-186.0
X30.0Y-190.0
X30.0Y-194.0
X30.0Y-198.0
X30.0Y-202.0
X30.0Y-206.0
X30.0Y-210.0
X30.0Y-214.0
X30.0Y-218.0
X30.0Y-222.0
X30.0Y-226.0
X30.0Y-230.0
X30.0Y-234.0
X30.0Y-238.0
X30.0Y-242.0
X30.0Y-246.0
X30.0Y-250.0
X30.0Y-254.0
X30.0Y-258.0
X30.0Y-262.0
X30.0Y-266.0
X30.0Y-270.0
X30.0Y-274.0
X30.0Y-278.0
X33.0Y-18.0
X33.0Y-23.0
X33.0Y-28.0
X33.0Y-33.0
X33.0Y-38.0
X33.0Y-43.0
X33.0Y-48.0
X33.0Y-53.0
X33.0Y-58.0
X33.0Y-63.0
X33.0Y-68.0
X33.0Y-73.0
X33.0Y-78.0
X33.0Y-83.0
X33.0Y-88.0
X33.0Y-93.0
X33.0Y-98.0
X33.0Y-103.0
X33.0Y-108.0
X33.0Y-113.0
X33.0Y-118.0
X33.0Y-123.0
X33.0Y-128.0
X33.0Y-133.0
X33.0Y-138.0
X33.0Y-143.0
X33.0Y-148.0
X33.0Y-153.0
X33.0Y-158.0
X33.0Y-163.0
X33.0Y-168.0
X33.0Y-173.0
X33.0Y-178.0
X33.0Y-183.0
X33.0Y-188.0
X33.0Y-193.0
X33.0Y-198.0
X33.0Y-203.0
X33.0Y-208.0
X33.0Y-213.0
X33.0Y-218.0
X33.0Y-223.0
X33.0Y-228.0
X33.0Y-233.0
X33.0Y-238.0
X33.0Y-243.0
X33.0Y-248.0
X33.0Y-253.0
X33.0Y-258.0
X33.0Y-263.0
X33.0Y-268.0
X33.0Y-273.0
X33.0Y-278.0
X34.0Y-18.0
X34.0Y-22.0
X34.0Y-26.0
X34.0Y-30.0
X34.0Y-34.0
X34.0Y-38.0
X34.0Y-42.0
X34.0Y-46.0
X34.0Y-50.0
X34.0Y-54.0
X34.0Y-58.0
X34.0Y-62.0
X34.0Y-66.0
X34.0Y-70.0
X34.0Y-74.0
X34.0Y-78.0
X34.0Y-82.0
X34.0Y-86.0
X34.0Y-90.0
X34.0Y-94.0
X34.0Y-98.0
X34.0Y-102.0
X34.0Y-106.0
X34.0Y-110.0
X34.0Y-114.0
X34.0Y-118.0
X34.0Y-122.0
X34.0Y-126.0
X34.0Y-130.0
X34.0Y-134.0
X34.0Y-138.0
X34.0Y-142.0
X34.0Y-146.0
X34.0Y-150.0
X34.0Y-154.0
X34.0Y-158.0
X34.0Y-162.0
X34.0Y-166.0
X34.0Y-170.0
X34.0Y-174.0
X34.0Y-178.0
X34.0Y-182.0
X34.0Y-186.0
X34.0Y-190.0
X34.0Y-194.0
X34.0Y-198.0
X34.0Y-202.0
X34.0Y-206.0
X34.0Y-210.0
X34.0Y-214.0
X34.0Y-218.0
X34.0Y-222.0
X34.0Y-226.0
X34.0Y-230.0
X34.0Y-234.0
X34.0Y-238.0
X34.0Y-242.0
X34.0Y-246.0
X34.0Y-250.0
X34.0Y-254.0
X34.0Y-258.0
X34.0Y-262.0
X34.0Y-266.0
X34.0Y-270.0
X34.0Y-274.0
X34.0Y-278.0
X38.0Y-18.0
X38.0Y-18.0
X38.0Y-22.0
X38.0Y-23.0
X38.0Y-26.0
X38.0Y-28.0
X38.0Y-30.0
X38.0Y-33.0
X38.0Y-34.0
X38.0Y-38.0
X38.0Y-38.0
X38.0Y-42.0
X38.0Y-43.0
X38.0Y-46.0
X38.0Y-48.0
X38.0Y-50.0
X38.0Y-53.0
X38.0Y-54.0
X38.0Y-58.0
X38.0Y-58.0
X38.0Y-62.0
X38.0Y-63.0
X38.0Y-66.0
X38.0Y-68.0
X38.0Y-70.0
X38.0Y-73.0
X38.0Y-74.0
X38.0Y-78.0
X38.0Y-78.0
X38.0Y-82.0
X38.0Y-83.0
X38.0Y-86.0
X38.0Y-88.0
X38.0Y-90.0
X38.0Y-93.0
X38.0Y-94.0
X38.0Y-98.0
X38.0Y-98.0
X38.0Y-102.0
X38.0Y-103.0
X38.0Y-106.0
X38.0Y-108.0
X38.0Y-110.0
X38.0Y-113.0
X38.0Y-114.0
X38.0Y-118.0
X38.0Y-118.0
X38.0Y-122.0
X38.0Y-123.0
X38.0Y-126.0
X38.0Y-128.0
X38.0Y-130.0
X38.0Y-133.0
X38.0Y-134.0
X38.0Y-138.0
X38.0Y-138.0
X38.0Y-142.0
X38.0Y-143.0
X38.0Y-146.0
X38.0Y-148.0
X38.0Y-150.0
X38.0Y-153.0
X38.0Y-154.0
X38.0Y-158.0
X38.0Y-158.0
X38.0Y-162.0
X38.0Y-163.0
X38.0Y-166.0
X38.0Y-168.0
X38.0Y-170.0
X38.0Y-173.0
X38.0Y-174.0
X38.0Y-178.0
X38.0Y-178.0
X38.0Y-182.0
X38.0Y-183.0
X38.0Y-186.0
X38.0Y-188.0
X38.0Y-190.0
X38.0Y-193.0
X38.0Y-194.0
X38.0Y-198.0
X38.0Y-198.0
X38.0Y-202.0
X38.0Y-203.0
X38.0Y-206.0
X38.0Y-208.0
X38.0Y-210.0
X38.0Y-213.0
X38.0Y-214.0
X38.0Y-218.0
X38.0Y-218.0
X38.0Y-222.0
X38.0Y-223.0
X38.0Y-226.0
X38.0Y-228.0
X38.0Y-230.0
X38.0Y-233.0
X38.0Y-234.0
X38.0Y-238.0
X38.0Y-238.0
X38.0Y-242.0
X38.0Y-243.0
X38.0Y-246.0
X38.0Y-248.0
X38.0Y-250.0
X38.0Y-253.0
X38.0Y-254.0
X38.0Y-258.0
X38.0Y-258.0
X38.0Y-262.0
X38.0Y-263.0
X38.0Y-266.0
X38.0Y-268.0
X38.0Y-270.0
X38.0Y-273.0
X38.0Y-274.0
X38.0Y-278.0
X38.0Y-278.0
X42.0Y-18.0
X42.0Y-22.0
X42.0Y-26.0
X42.0Y-30.0
X42.0Y-34.0
X42.0Y-38.0
X42.0Y-42.0
X42.0Y-46.0
X42.0Y-50.0
X42.0Y-54.0
X42.0Y-58.0
X42.0Y-62.0
X42.0Y-66.0
X42.0Y-70.0
X42.0Y-74.0
X42.0Y-78.0
X42.0Y-82.0
X42.0Y-86.0
X42.0Y-90.0
X42.0Y-94.0
X42.0Y-98.0
X42.0Y-102.0
X42.0Y-106.0
X42.0Y-110.0
X42.0Y-114.0
X42.0Y-118.0
X42.0Y-122.0
X42.0Y-126.0
X42.0Y-130.0
X42.0Y-134.0
X42.0Y-138.0
X42.0Y-142.0
X42.0Y-146.0
X42.0Y-150.0
X42.0Y-154.0
X42.0Y-158.0
X42.0Y-162.0
X42.0Y-166.0
X42.0Y-170.0
X42.0Y-174.0
X42.0Y-178.0
X42.0Y-182.0
X42.0Y-186.0
X42.0Y-190.0
X42.0Y-194.0
X42.0Y-198.0
X42.0Y-202.0
X42.0Y-206.0
X42.0Y-210.0
X42.0Y-214.0
X42.0Y-218.0
X42.0Y-222.0
X42.0Y-226.0
X42.0Y-230.0
X42.0Y-234.0
X42.0Y-238.0
X42.0Y-242.0
X42.0Y-246.0
X42.0Y-250.0
X42.0Y-254.0
X42.0Y-258.0
X42.0Y-262.0
X42.0Y-266.0
X42.0Y-270.0
X42.0Y-274.0
X42.0Y-278.0
X43.0Y-18.0
X43.0Y-23.0
X43.0Y-28.0
X43.0Y-33.0
X43.0Y-38.0
X43.0Y-43.0
X43.0Y-48.0
X43.0Y-53.0
X43.0Y-58.0
X43.0Y-63.0
X43.0Y-68.0
X43.0Y-73.0
X43.0Y-78.0
X43.0Y-83.0
X43.0Y-88.0
X43.0Y-93.0
X43.0Y-98.0
X43.0Y-103.0
X43.0Y-108.0
X43.0Y-113.0
X43.0Y-118.0
X43.0Y-123.0
X43.0Y-128.0
X43.0Y-133.0
X43.0Y-138.0
X43.0Y-143.0
X43.0Y-148.0
X43.0Y-153.0
X43.0Y-158.0
X43.0Y-163.0
X43.0Y-168.0
X43.0Y-173.0
X43.0Y-178.0
X43.0Y-183.0
X43.0Y-188.0
X43.0Y-193.0
X43.0Y-198.0
X43.0Y-203.0
X43.0Y-208.0
X43.0Y-213.0
X43.0Y-218.0
X43.0Y-223.0
X43.0Y-228.0
X43.0Y-233.0
X43.0Y-238.0
X43.0Y-243.0
X43.0Y-248.0
X43.0Y-253.0
X43.0Y-258.0
X43.0Y-263.0
X43.0Y-268.0
X43.0Y-273.0
X43.0Y-278.0
X46.0Y-18.0
X46.0Y-22.0
X46.0Y-26.0
X46.0Y-30.0
X46.0Y-34.0
X46.0Y-38.0
X46.0Y-42.0
X46.0Y-46.0
X46.0Y-50.0
X46.0Y-54.0
X46.0Y-58.0
X46.0Y-62.0
X46.0Y-66.0
X46.0Y-70.0
X46.0Y-74.0
X46.0Y-78.0
X46.0Y-82.0
X46.0Y-86.0
X46.0Y-90.0
X46.0Y-94.0
X46.0Y-98.0
X46.0Y-102.0
X46.0Y-106.0
X46.0Y-110.0
X46.0Y-114.0
X46.0Y-118.0
X46.0Y-122.0
X46.0Y-126.0
X46.0Y-130.0
X46.0Y-134.0
X46.0Y-138.0
X46.0Y-142.0
X46.0Y-146.0
X46.0Y-150.0
X46.0Y-154.0
X46.0Y-158.0
X46.0Y-162.0
X46.0Y-166.0
X46.0Y-170.0
X46.0Y-174.0
X46.0Y-178.0
X46.0Y-182.0
X46.0Y-186.0
X46.0Y-190.0
X46.0Y-194.0
X46.0Y-198.0
X46.0Y-202.0
X46.0Y-206.0
X46.0Y-210.0
X46.0Y-214.0
X46.0Y-218.0
X46.0Y-222.0
X46.0Y-226.0
X46.0Y-230.0
X46.0Y-234.0
X46.0Y-238.0
X46.0Y-242.0
X46.0Y-246.0
X46.0Y-250.0
X46.0Y-254.0
X46.0Y-258.0
X46.0Y-262.0
X46.0Y-266.0
X46.0Y-270.0
X46.0Y-274.0
X46.0Y-278.0
X48.0Y-18.0
X48.0Y-23.0
X48.0Y-28.0
X48.0Y-33.0
X48.0Y-38.0
X48.0Y-43.0
X48.0Y-48.0
X48.0Y-53.0
X48.0Y-58.0
X48.0Y-63.0
X48.0Y-68.0
X48.0Y-73.0
X48.0Y-78.0
X48.0Y-83.0
X48.0Y-88.0
X48.0Y-93.0
X48.0Y-98.0
X48.0Y-103.0
X48.0Y-108.0
X48.0Y-113.0
X48.0Y-118.0
X48.0Y-123.0
X48.0Y-128.0
X48.0Y-133.0
X48.0Y-138.0
X48.0Y-143.0
X48.0Y-148.0
X48.0Y-153.0
X48.0Y-158.0
X48.0Y-163.0
X48.0Y-168.0
X48.0Y-173.0
X48.0Y-178.0
X48.0Y-183.0
X48.0Y-188.0
X48.0Y-193.0
X48.0Y-198.0
X48.0Y-203.0
X48.0Y-208.0
X48.0Y-213.0
X48.0Y-218.0
X48.0Y-223.0
X48.0Y-228.0
X48.0Y-233.0
X48.0Y-238.0
X48.0Y-243.0
X48.0Y-248.0
X48.0Y-253.0
X48.0Y-258.0
X48.0Y-263.0
X48.0Y-268.0
X48.0Y-273.0
X48.0Y-278.0
X50.0Y-18.0
X50.0Y-22.0
X50.0Y-26.0
X50.0Y-30.0
X50.0Y-34.0
X50.0Y-38.0
X50.0Y-42.0
X50.0Y-46.0
X50.0Y-50.0
X50.0Y-54.0
X50.0Y-58.0
X50.0Y-62.0
X50.0Y-66.0
X50.0Y-70.0
X50.0Y-74.0
X50.0Y-78.0
X50.0Y-82.0
X50.0Y-86.0
X50.0Y-90.0
X50.0Y-94.0
X50.0Y-98.0
X50.0Y-102.0
X50.0Y-106.0
X50.0Y-110.0
X50.0Y-114.0
X50.0Y-118.0
X50.0Y-122.0
X50.0Y-126.0
X50.0Y-130.0
X50.0Y-134.0
X50.0Y-138.0
X50.0Y-142.0
X50.0Y-146.0
X50.0Y-150.0
X50.0Y-154.0
X50.0Y-158.0
X50.0Y-162.0
X50.0Y-166.0
X50.0Y-170.0
X50.0Y-174.0
X50.0Y-178.0
X50.0Y-182.0
X50.0Y-186.0
X50.0Y-190.0
X50.0Y-194.0
X50.0Y-198.0
X50.0Y-202.0
X50.0Y-206.0
X50.0Y-210.0
X50.0Y-214.0
X50.0Y-218.0
X50.0Y-222.0
X50.0Y-226.0
X50.0Y-230.0
X50.0Y-234.0
X50.0Y-238.0
X50.0Y-242.0
X50.0Y-246.0
X50.0Y-250.0
X50.0Y-254.0
X50.0Y-258.0
X50.0Y-262.0
X50.0Y-266.0
X50.0Y-270.0
X50.0Y-274.0
X50.0Y-278.0
X53.0Y-18.0
X53.0Y-23.0
X53.0Y-28.0
X53.0Y-33.0
X53.0Y-38.0
X53.0Y-43.0
X53.0Y-48.0
X53.0Y-53.0
X53.0Y-58.0
X53.0Y-63.0
X53.0Y-68.0
X53.0Y-73.0
X53.0Y-78.0
X53.0Y-83.0
X53.0Y-88.0
X53.0Y-93.0
X53.0Y-98.0
X53.0Y-103.0
X53.0Y-108.0
X53.0Y-113.0
X53.0Y-118.0
X53.0Y-123.0
X53.0Y-128.0
X53.0Y-133.0
X53.0Y-138.0
X53.0Y-143.0
X53.0Y-148.0
X53.0Y-153.0
X53.0Y-158.0
X53.0Y-163.0
X53.0Y-168.0
X53.0Y-173.0
X53.0Y-178.0
X53.0Y-183.0
X53.0Y-188.0
X53.0Y-193.0
X53.0Y-198.0
X53.0Y-203.0
X53.0Y-208.0
X53.0Y-213.0
X53.0Y-218.0
X53.0Y-223.0
X53.0Y-228.0
X53.0Y-233.0
X53.0Y-238.0
X53.0Y-243.0
X53.0Y-248.0
X53.0Y-253.0
X53.0Y-258.0
X53.0Y-263.0
X53.0Y-268.0
X53.0Y-273.0
X53.0Y-278.0
X54.0Y-18.0
X54.0Y-22.0
X54.0Y-26.0
X54.0Y-30.0
X54.0Y-34.0
X54.0Y-38.0
X54.0Y-42.0
X54.0Y-46.0
X54.0Y-50.0
X54.0Y-54.0
X54.0Y-58.0
X54.0Y-62.0
X54.0Y-66.0
X54.0Y-70.0
X54.0Y-74.0
X54.0Y-78.0
X54.0Y-82.0
X54.0Y-86.0
X54.0Y-90.0
X54.0Y-94.0
X54.0Y-98.0
X54.0Y-102.0
X54.0Y-106.0
X54.0Y-110.0
X54.0Y-114.0
X54.0Y-118.0
X54.0Y-122.0
X54.0Y-126.0
X54.0Y-130.0
X54.0Y-134.0
X54.0Y-138.0
X54.0Y-142.0
X54.0Y-146.0
X54.0Y-150.0
X54.0Y-154.0
X54.0Y-158.0
X54.0Y-162.0
X54.0Y-166.0
X54.0Y-170.0
X54.0Y-174.0
X54.0Y-178.0
X54.0Y-182.0
X54.0Y-186.0
X54.0Y-190.0
X54.0Y-194.0
X54.0Y-198.0
X54.0Y-202.0
X54.0Y-206.0
X54.0Y-210.0
X54.0Y-214.0
X54.0Y-218.0
X54.0Y-222.0
X54.0Y-226.0
X54.0Y-230.0
X54.0Y-234.0
X54.0Y-238.0
X54.0Y-242.0
X54.0Y-246.0
X54.0Y-250.0
X54.0Y-254.0
X54.0Y-258.0
X54.0Y-262.0
X54.0Y-266.0
X54.0Y-270.0
X54.0Y-274.0
X54.0Y-278.0
X58.0Y-18.0
X58.0Y-18.0
X58.0Y-22.0
X58.0Y-23.0
X58.0Y-26.0
X58.0Y-28.0
X58.0Y-30.0
X58.0Y-33.0
X58.0Y-34.0
X58.0Y-38.0
X58.0Y-38.0
X58.0Y-42.0
X58.0Y-43.0
X58.0Y-46.0
X58.0Y-48.0
X58.0Y-50.0
X58.0Y-53.0
X58.0Y-54.0
X58.0Y-58.0
X58.0Y-58.0
X58.0Y-62.0
X58.0Y-63.0
X58.0Y-66.0
X58.0Y-68.0
X58.0Y-70.0
X58.0Y-73.0
X58.0Y-74.0
X58.0Y-78.0
X58.0Y-78.0
X58.0Y-82.0
X58.0Y-83.0
X58.0Y-86.0
X58.0Y-88.0
X58.0Y-90.0
X58.0Y-93.0
X58.0Y-94.0
X58.0Y-98.0
X58.0Y-98.0
X58.0Y-102.0
X58.0Y-103.0
X58.0Y-106.0
X58.0Y-108.0
X58.0Y-110.0
X58.0Y-113.0
X58.0Y-114.0
X58.0Y-118.0
X58.0Y-118.0
X58.0Y-122.0
X58.0Y-123.0
X58.0Y-126.0
X58.0Y-128.0
X58.0Y-130.0
X58.0Y-133.0
X58.0Y-134.0
X58.0Y-138.0
X58.0Y-138.0
X58.0Y-142.0
X58.0Y-143.0
X58.0Y-146.0
X58.0Y-148.0
X58.0Y-150.0
X58.0Y-153.0
X58.0Y-154.0
X58.0Y-158.0
X58.0Y-158.0
X58.0Y-162.0
X58.0Y-163.0
X58.0Y-166.0
X58.0Y-168.0
X58.0Y-170.0
X58.0Y-173.0
X58.0Y-174.0
X58.0Y-178.0
X58.0Y-178.0
X58.0Y-182.0
X58.0Y-183.0
X58.0Y-186.0
X58.0Y-188.0
X58.0Y-190.0
X58.0Y-193.0
X58.0Y-194.0
X58.0Y-198.0
X58.0Y-198.0
X58.0Y-202.0
X58.0Y-203.0
X58.0Y-206.0
X58.0Y-208.0
X58.0Y-210.0
X58.0Y-213.0
X58.0Y-214.0
X58.0Y-218.0
X58.0Y-218.0
X58.0Y-222.0
X58.0Y-223.0
X58.0Y-226.0
X58.0Y-228.0
X58.0Y-230.0
X58.0Y-233.0
X58.0Y-234.0
X58.0Y-238.0
X58.0Y-238.0
X58.0Y-242.0
X58.0Y-243.0
X58.0Y-246.0
X58.0Y-248.0
X58.0Y-250.0
X58.0Y-253.0
X58.0Y-254.0
X58.0Y-258.0
X58.0Y-258.0
X58.0Y-262.0
X58.0Y-263.0
X58.0Y-266.0
X58.0Y-268.0
X58.0Y-270.0
X58.0Y-273.0
X58.0Y-274.0
X58.0Y-278.0
X58.0Y-278.0
X62.0Y-18.0
X62.0Y-22.0
X62.0Y-26.0
X62.0Y-30.0
X62.0Y-34.0
X62.0Y-38.0
X62.0Y-42.0
X62.0Y-46.0
X62.0Y-50.0
X62.0Y-54.0
X62.0Y-58.0
X62.0Y-62.0
X62.0Y-66.0
X62.0Y-70.0
X62.0Y-74.0
X62.0Y-78.0
X62.0Y-82.0
X62.0Y-86.0
X62.0Y-90.0
X62.0Y-94.0
X62.0Y-98.0
X62.0Y-102.0
X62.0Y-106.0
X62.0Y-110.0
X62.0Y-114.0
X62.0Y-118.0
X62.0Y-122.0
X62.0Y-126.0
X62.0Y-130.0
X62.0Y-134.0
X62.0Y-138.0
X62.0Y-142.0
X62.0Y-146.0
X62.0Y-150.0
X62.0Y-154.0
X62.0Y-158.0
X62.0Y-162.0
X62.0Y-166.0
X62.0Y-170.0
X62.0Y-174.0
X62.0Y-178.0
X62.0Y-182.0
X62.0Y-186.0
X62.0Y-190.0
X62.0Y-194.0
X62.0Y-198.0
X62.0Y-202.0
X62.0Y-206.0
X62.0Y-210.0
X62.0Y-214.0
X62.0Y-218.0
X62.0Y-222.0
X62.0Y-226.0
X62.0Y-230.0
X62.0Y-234.0
X62.0Y-238.0
X62.0Y-242.0
X62.0Y-246.0
X62.0Y-250.0
X62.0Y-254.0
X62.0Y-258.0
X62.0Y-262.0
X62.0Y-266.0
X62.0Y-270.0
X62.0Y-274.0
X62.0Y-278.0
X63.0Y-18.0
X63.0Y-23.0
X63.0Y-28.0
X63.0Y-33.0
X63.0Y-38.0
X63.0Y-43.0
X63.0Y-48.0
X63.0Y-53.0
X63.0Y-58.0
X63.0Y-63.0
X63.0Y-68.0
X63.0Y-73.0
X63.0Y-78.0
X63.0Y-83.0
X63.0Y-88.0
X63.0Y-93.0
X63.0Y-98.0
X63.0Y-103.0
X63.0Y-108.0
X63.0Y-113.0
X63.0Y-118.0
X63.0Y-123.0
X63.0Y-128.0
X63.0Y-133.0
X63.0Y-138.0
X63.0Y-143.0
X63.0Y-148.0
X63.0Y-153.0
X63.0Y-158.0
X63.0Y-163.0
X63.0Y-168.0
X63.0Y-173.0
X63.0Y-178.0
X63.0Y-183.0
X63.0Y-188.0
X63.0Y-193.0
X63.0Y-198.0
X63.0Y-203.0
X63.0Y-208.0
X63.0Y-213.0
X63.0Y-218.0
X63.0Y-223.0
X63.0Y-228.0
X63.0Y-233.0
X63.0Y-238.0
X63.0Y-243.0
X63.0Y-248.0
X63.0Y-253.0
X63.0Y-258.0
X63.0Y-263.0
X63.0Y-268.0
X63.0Y-273.0
X63.0Y-278.0
X66.0Y-18.0
X66.0Y-22.0
X66.0Y-26.0
X66.0Y-30.0
X66.0Y-34.0
X66.0Y-38.0
X66.0Y-42.0
X66.0Y-46.0
X66.0Y-50.0
X66.0Y-54.0
X66.0Y-58.0
X66.0Y-62.0
X66.0Y-66.0
X66.0Y-70.0
X66.0Y-74.0
X66.0Y-78.0
X66.0Y-82.0
X66.0Y-86.0
X66.0Y-90.0
X66.0Y-94.0
X66.0Y-98.0
X66.0Y-102.0
X66.0Y-106.0
X66.0Y-110.0
X66.0Y-114.0
X66.0Y-118.0
X66.0Y-122.0
X66.0Y-126.0
X66.0Y-130.0
X66.0Y-134.0
X66.0Y-138.0
X66.0Y-142.0
X66.0Y-146.0
X66.0Y-150.0
X66.0Y-154.0
X66.0Y-158.0
X66.0Y-162.0
X66.0Y-166.0
X66.0Y-170.0
X66.0Y-174.0
X66.0Y-178.0
X66.0Y-182.0
X66.0Y-186.0
X66.0Y-190.0
X66.0Y-194.0
X66.0Y-198.0
X66.0Y-202.0
X66.0Y-206.0
X66.0Y-210.0
X66.0Y-214.0
X66.0Y-218.0
X66.0Y-222.0
X66.0Y-226.0
X66.0Y-230.0
X66.0Y-234.0
X66.0Y-238.0
X66.0Y-242.0
X66.0Y-246.0
X66.0Y-250.0
X66.0Y-254.0
X66.0Y-258.0
X66.0Y-262.0
X66.0Y-266.0
X66.0Y-270.0
X66.0Y-274.0
X66.0Y-278.0
X68.0Y-18.0
X68.0Y-23.0
X68.0Y-28.0
X68.0Y-33.0
X68.0Y-38.0
X68.0Y-43.0
X68.0Y-48.0
X68.0Y-53.0
X68.0Y-58.0
X68.0Y-63.0
X68.0Y-68.0
X68.0Y-73.0
X68.0Y-78.0
X68.0Y-83.0
X68.0Y-88.0
X68.0Y-93.0
X68.0Y-98.0
X68.0Y-103.0
X68.0Y-108.0
X68.0Y-113.0
X68.0Y-118.0
X68.0Y-123.0
X68.0Y-128.0
X68.0Y-133.0
X68.0Y-138.0
X68.0Y-143.0
X68.0Y-148.0
X68.0Y-153.0
X68.0Y-158.0
X68.0Y-163.0
X68.0Y-168.0
X68.0Y-173.0
X68.0Y-178.0
X68.0Y-183.0
X68.0Y-188.0
X68.0Y-193.0
X68.0Y-198.0
X68.0Y-203.0
X68.0Y-208.0
X68.0Y-213.0
X68.0Y-218.0
X68.0Y-223.0
X68.0Y-228.0
X68.0Y-233.0
X68.0Y-238.0
X68.0Y-243.0
X68.0Y-248.0
X68.0Y-253.0
X68.0Y-258.0
X68.0Y-263.0
X68.0Y-268.0
X68.0Y-273.0
X68.0Y-278.0
X70.0Y-18.0
X70.0Y-22.0
X70.0Y-26.0
X70.0Y-30.0
X70.0Y-34.0
X70.0Y-38.0
X70.0Y-42.0
X70.0Y-46.0
X70.0Y-50.0
X70.0Y-54.0
X70.0Y-58.0
X70.0Y-62.0
X70.0Y-66.0
X70.0Y-70.0
X70.0Y-74.0
X70.0Y-78.0
X70.0Y-82.0
X70.0Y-86.0
X70.0Y-90.0
X70.0Y-94.0
X70.0Y-98.0
X70.0Y-102.0
X70.0Y-106.0
X70.0Y-110.0
X70.0Y-114.0
X70.0Y-118.0
X70.0Y-122.0
X70.0Y-126.0
X70.0Y-130.0
X70.0Y-134.0
X70.0Y-138.0
X70.0Y-142.0
X70.0Y-146.0
X70.0Y-150.0
X70.0Y-154.0
X70.0Y-158.0
X70.0Y-162.0
X70.0Y-166.0
X70.0Y-170.0
X70.0Y-174.0
X70.0Y-178.0
X70.0Y-182.0
X70.0Y-186.0
X70.0Y-190.0
X70.0Y-194.0
X70.0Y-198.0
X70.0Y-202.0
X70.0Y-206.0
X70.0Y-210.0
X70.0Y-214.0
X70.0Y-218.0
X70.0Y-222.0
X70.0Y-226.0
X70.0Y-230.0
X70.0Y-234.0
X70.0Y-238.0
X70.0Y-242.0
X70.0Y-246.0
X70.0Y-250.0
X70.0Y-254.0
X70.0Y-258.0
X70.0Y-262.0
X70.0Y-266.0
X70.0Y-270.0
X70.0Y-274.0
X70.0Y-278.0
X73.0Y-18.0
X73.0Y-23.0
X73.0Y-28.0
X73.0Y-33.0
X73.0Y-38.0
X73.0Y-43.0
X73.0Y-48.0
X73.0Y-53.0
X73.0Y-58.0
X73.0Y-63.0
X73.0Y-68.0
X73.0Y-73.0
X73.0Y-78.0
X73.0Y-83.0
X73.0Y-88.0
X73.0Y-93.0
X73.0Y-98.0
X73.0Y-103.0
X73.0Y-108.0
X73.0Y-113.0
X73.0Y-118.0
X73.0Y-123.0
X73.0Y-128.0
X73.0Y-133.0
X73.0Y-138.0
X73.0Y-143.0
X73.0Y-148.0
X73.0Y-153.0
X73.0Y-158.0
X73.0Y-163.0
X73.0Y-168.0
X73.0Y-173.0
X73.0Y-178.0
X73.0Y-183.0
X73.0Y-188.0
X73.0Y-193.0
X73.0Y-198.0
X73.0Y-203.0
X73.0Y-208.0
X73.0Y-213.0
X73.0Y-218.0
X73.0Y-223.0
X73.0Y-228.0
X73.0Y-233.0
X73.0Y-238.0
X73.0Y-243.0
X73.0Y-248.0
X73.0Y-253.0
X73.0Y-258.0
X73.0Y-263.0
X73.0Y-268.0
X73.0Y-273.0
X73.0Y-278.0
X74.0Y-18.0
X74.0Y-22.0
X74.0Y-26.0
X74.0Y-30.0
X74.0Y-34.0
X74.0Y-38.0
X74.0Y-42.0
X74.0Y-46.0
X74.0Y-50.0
X74.0Y-54.0
X74.0Y-58.0
X74.0Y-62.0
X74.0Y-66.0
X74.0Y-70.0
X74.0Y-74.0
X74.0Y-78.0
X74.0Y-82.0
X74.0Y-86.0
X74.0Y-90.0
X74.0Y-94.0
X74.0Y-98.0
X74.0Y-102.0
X74.0Y-106.0
X74.0Y-110.0
X74.0Y-114.0
X74.0Y-118.0
X74.0Y-122.0
X74.0Y-126.0
X74.0Y-130.0
X74.0Y-134.0
X74.0Y-138.0
X74.0Y-142.0
X74.0Y-146.0
X74.0Y-150.0
X74.0Y-154.0
X74.0Y-158.0
X74.0Y-162.0
X74.0Y-166.0
X74.0Y-170.0
X74.0Y-174.0
X74.0Y-178.0
X74.0Y-182.0
X74.0Y-186.0
X74.0Y-190.0
X74.0Y-194.0
X74.0Y-198.0
X74.0Y-202.0
X74.0Y-206.0
X74.0Y-210.0
X74.0Y-214.0
X74.0Y-218.0
X74.0Y-222.0
X74.0Y-226.0
X74.0Y-230.0
X74.0Y-234.0
X74.0Y-238.0
X74.0Y-242.0
X74.0Y-246.0
X74.0Y-250.0
X74.0Y-254.0
X74.0Y-258.0
X74.0Y-262.0
X74.0Y-266.0
X74.0Y-270.0
X74.0Y-274.0
X74.0Y-278.0
X78.0Y-18.0
X78.0Y-18.0
X78.0Y-22.0
X78.0Y-23.0
X78.0Y-26.0
X78.0Y-28.0
X78.0Y-30.0
X78.0Y-33.0
X78.0Y-34.0
X78.0Y-38.0
X78.0Y-38.0
X78.0Y-42.0
X78.0Y-43.0
X78.0Y-46.0
X78.0Y-48.0
X78.0Y-50.0
X78.0Y-53.0
X78.0Y-54.0
X78.0Y-58.0
X78.0Y-58.0
X78.0Y-62.0
X78.0Y-63.0
X78.0Y-66.0
X78.0Y-68.0
X78.0Y-70.0
X78.0Y-73.0
X78.0Y-74.0
X78.0Y-78.0
X78.0Y-78.0
X78.0Y-82.0
X78.0Y-83.0
X78.0Y-86.0
X78.0Y-88.0
X78.0Y-90.0
X78.0Y-93.0
X78.0Y-94.0
X78.0Y-98.0
X78.0Y-98.0
X78.0Y-102.0
X78.0Y-103.0
X78.0Y-106.0
X78.0Y-108.0
X78.0Y-110.0
X78.0Y-113.0
X78.0Y-114.0
X78.0Y-118.0
X78.0Y-118.0
X78.0Y-122.0
X78.0Y-123.0
X78.0Y-126.0
X78.0Y-128.0
X78.0Y-130.0
X78.0Y-133.0
X78.0Y-134.0
X78.0Y-138.0
X78.0Y-138.0
X78.0Y-142.0
X78.0Y-143.0
X78.0Y-146.0
X78.0Y-148.0
X78.0Y-150.0
X78.0Y-153.0
X78.0Y-154.0
X78.0Y-158.0
X78.0Y-158.0
X78.0Y-162.0
X78.0Y-163.0
X78.0Y-166.0
X78.0Y-168.0
X78.0Y-170.0
X78.0Y-173.0
X78.0Y-174.0
X78.0Y-178.0
X78.0Y-178.0
X78.0Y-182.0
X78.0Y-183.0
X78.0Y-186.0
X78.0Y-188.0
X78.0Y-190.0
X78.0Y-193.0
X78.0Y-194.0
X78.0Y-198.0
X78.0Y-198.0
X78.0Y-202.0
X78.0Y-203.0
X78.0Y-206.0
X78.0Y-208.0
X78.0Y-210.0
X78.0Y-213.0
X78.0Y-214.0
X78.0Y-218.0
X78.0Y-218.0
X78.0Y-222.0
X78.0Y-223.0
X78.0Y-226.0
X78.0Y-228.0
X78.0Y-230.0
X78.0Y-233.0
X78.0Y-234.0
X78.0Y-238.0
X78.0Y-238.0
X78.0Y-242.0
X78.0Y-243.0
X78.0Y-246.0
X78.0Y-248.0
X78.0Y-250.0
X78.0Y-253.0
X78.0Y-254.0
X78.0Y-258.0
X78.0Y-258.0
X78.0Y-262.0
X78.0Y-263.0
X78.0Y-266.0
X78.0Y-268.0
X78.0Y-270.0
X78.0Y-273.0
X78.0Y-274.0
X78.0Y-278.0
X78.0Y-278.0
X82.0Y-18.0
X82.0Y-22.0
X82.0Y-26.0
X82.0Y-30.0
X82.0Y-34.0
X82.0Y-38.0
X82.0Y-42.0
X82.0Y-46.0
X82.0Y-50.0
X82.0Y-54.0
X82.0Y-58.0
X82.0Y-62.0
X82.0Y-66.0
X82.0Y-70.0
X82.0Y-74.0
X82.0Y-78.0
X82.0Y-82.0
X82.0Y-86.0
X82.0Y-90.0
X82.0Y-94.0
X82.0Y-98.0
X82.0Y-102.0
X82.0Y-106.0
X82.0Y-110.0
X82.0Y-114.0
X82.0Y-118.0
X82.0Y-122.0
X82.0Y-126.0
X82.0Y-130.0
X82.0Y-134.0
X82.0Y-138.0
X82.0Y-142.0
X82.0Y-146.0
X82.0Y-150.0
X82.0Y-154.0
X82.0Y-158.0
X82.0Y-162.0
X82.0Y-166.0
X82.0Y-170.0
X82.0Y-174.0
X82.0Y-178.0
X82.0Y-182.0
X82.0Y-186.0
X82.0Y-190.0
X82.0Y-194.0
X82.0Y-198.0
X82.0Y-202.0
X82.0Y-206.0
X82.0Y-210.0
X82.0Y-214.0
X82.0Y-218.0
X82.0Y-222.0
X82.0Y-226.0
X82.0Y-230.0
X82.0Y-234.0
X82.0Y-238.0
X82.0Y-242.0
X82.0Y-246.0
X82.0Y-250.0
X82.0Y-254.0
X82.0Y-258.0
X82.0Y-262.0
X82.0Y-266.0
X82.0Y-270.0
X82.0Y-274.0
X82.0Y-278.0
X83.0Y-18.0
X83.0Y-23.0
X83.0Y-28.0
X83.0Y-33.0
X83.0Y-38.0
X83.0Y-43.0
X83.0Y-48.0
X83.0Y-53.0
X83.0Y-58.0
X83.0Y-63.0
X83.0Y-68.0
X83.0Y-73.0
X83.0Y-78.0
X83.0Y-83.0
X83.0Y-88.0
X83.0Y-93.0
X83.0Y-98.0
X83.0Y-103.0
X83.0Y-108.0
X83.0Y-113.0
X83.0Y-118.0
X83.0Y-123.0
X83.0Y-128.0
X83.0Y-133.0
X83.0Y-138.0
X83.0Y-143.0
X83.0Y-148.0
X83.0Y-153.0
X83.0Y-158.0
X83.0Y-163.0
X83.0Y-168.0
X83.0Y-173.0
X83.0Y-178.0
X83.0Y-183.0
X83.0Y-188.0
X83.0Y-193.0
X83.0Y-198.0
X83.0Y-203.0
X83.0Y-208.0
X83.0Y-213.0
X83.0Y-218.0
X83.0Y-223.0
X83.0Y-228.0
X83.0Y-233.0
X83.0Y-238.0
X83.0Y-243.0
X83.0Y-248.0
X83.0Y-253.0
X83.0Y-258.0
X83.0Y-263.0
X83.0Y-268.0
X83.0Y-273.0
X83.0Y-278.0
X86.0Y-18.0
X86.0Y-22.0
X86.0Y-26.0
X86.0Y-30.0
X86.0Y-34.0
X86.0Y-38.0
X86.0Y-42.0
X86.0Y-46.0
X86.0Y-50.0
X86.0Y-54.0
X86.0Y-58.0
X86.0Y-62.0
X86.0Y-66.0
X86.0Y-70.0
X86.0Y-74.0
X86.0Y-78.0
X86.0Y-82.0
X86.0Y-86.0
X86.0Y-90.0
X86.0Y-94.0
X86.0Y-98.0
X86.0Y-102.0
X86.0Y-106.0
X86.0Y-110.0
X86.0Y-114.0
X86.0Y-118.0
X86.0Y-122.0
X86.0Y-126.0
X86.0Y-130.0
X86.0Y-134.0
X86.0Y-138.0
X86.0Y-142.0
X86.0Y-146.0
X86.0Y-150.0
X86.0Y-154.0
X86.0Y-158.0
X86.0Y-162.0
X86.0Y-166.0
X86.0Y-170.0
X86.0Y-174.0
X86.0Y-178.0
X86.0Y-182.0
X86.0Y-186.0
X86.0Y-190.0
X86.0Y-194.0
X86.0Y-198.0
X86.0Y-202.0
X86.0Y-206.0
X86.0Y-210.0
X86.0Y-214.0
X86.0Y-218.0
X86.0Y-222.0
X86.0Y-226.0
X86.0Y-230.0
X86.0Y-234.0
X86.0Y-238.0
X86.0Y-242.0
X86.0Y-246.0
X86.0Y-250.0
X86.0Y-254.0
X86.0Y-258.0
X86.0Y-262.0
X86.0Y-266.0
X86.0Y-270.0
X86.0Y-274.0
X86.0Y-278.0
X88.0Y-18.0
X88.0Y-23.0
X88.0Y-28.0
X88.0Y-33.0
X88.0Y-38.0
X88.0Y-43.0
X88.0Y-48.0
X88.0Y-53.0
X88.0Y-58.0
X88.0Y-63.0
X88.0Y-68.0
X88.0Y-73.0
X88.0Y-78.0
X88.0Y-83.0
X88.0Y-88.0
X88.0Y-93.0
X88.0Y-98.0
X88.0Y-103.0
X88.0Y-108.0
X88.0Y-113.0
X88.0Y-118.0
X88.0Y-123.0
X88.0Y-128.0
X88.0Y-133.0
X88.0Y-138.0
X88.0Y-143.0
X88.0Y-148.0
X88.0Y-153.0
X88.0Y-158.0
X88.0Y-163.0
X88.0Y-168.0
X88.0Y-173.0
X88.0Y-178.0
X88.0Y-183.0
X88.0Y-188.0
X88.0Y-193.0
X88.0Y-198.0
X88.0Y-203.0
X88.0Y-208.0
X88.0Y-213.0
X88.0Y-218.0
X88.0Y-223.0
X88.0Y-228.0
X88.0Y-233.0
X88.0Y-238.0
X88.0Y-243.0
X88.0Y-248.0
X88.0Y-253.0
X88.0Y-258.0
X88.0Y-263.0
X88.0Y-268.0
X88.0Y-273.0
X88.0Y-278.0
X90.0Y-18.0
X90.0Y-22.0
X90.0Y-26.0
X90.0Y-30.0
X90.0Y-34.0
X90.0Y-38.0
X90.0Y-42.0
X90.0Y-46.0
X90.0Y-50.0
X90.0Y-54.0
X90.0Y-58.0
X90.0Y-62.0
X90.0Y-66.0
X90.0Y-70.0
X90.0Y-74.0
X90.0Y-78.0
X90.0Y-82.0
X90.0Y-86.0
X90.0Y-90.0
X90.0Y-94.0
X90.0Y-98.0
X90.0Y-102.0
X90.0Y-106.0
X90.0Y-110.0
X90.0Y-114.0
X90.0Y-118.0
X90.0Y-122.0
X90.0Y-126.0
X90.0Y-130.0
X90.0Y-134.0
X90.0Y-138.0
X90.0Y-142.0
X90.0Y-146.0
X90.0Y-150.0
X90.0Y-154.0
X90.0Y-158.0
X90.0Y-162.0
X90.0Y-166.0
X90.0Y-170.0
X90.0Y-174.0
X90.0Y-178.0
X90.0Y-182.0
X90.0Y-186.0
X90.0Y-190.0
X90.0Y-194.0
X90.0Y-198.0
X90.0Y-202.0
X90.0Y-206.0
X90.0Y-210.0
X90.0Y-214.0
X90.0Y-218.0
X90.0Y-222.0
X90.0Y-226.0
X90.0Y-230.0
X90.0Y-234.0
X90.0Y-238.0
X90.0Y-242.0
X90.0Y-246.0
X90.0Y-250.0
X90.0Y-254.0
X90.0Y-258.0
X90.0Y-262.0
X90.0Y-266.0
X90.0Y-270.0
X90.0Y-274.0
X90.0Y-278.0
X93.0Y-18.0
X93.0Y-23.0
X93.0Y-28.0
X93.0Y-33.0
X93.0Y-38.0
X93.0Y-43.0
X93.0Y-48.0
X93.0Y-53.0
X93.0Y-58.0
X93.0Y-63.0
X93.0Y-68.0
X93.0Y-73.0
X93.0Y-78.0
X93.0Y-83.0
X93.0Y-88.0
X93.0Y-93.0
X93.0Y-98.0
X93.0Y-103.0
X93.0Y-108.0
X93.0Y-113.0
X93.0Y-118.0
X93.0Y-123.0
X93.0Y-128.0
X93.0Y-133.0
X93.0Y-138.0
X93.0Y-143.0
X93.0Y-148.0
X93.0Y-153.0
X93.0Y-158.0
X93.0Y-163.0
X93.0Y-168.0
X93.0Y-173.0
X93.0Y-178.0
X93.0Y-183.0
X93.0Y-188.0
X93.0Y-193.0
X93.0Y-198.0
X93.0Y-203.0
X93.0Y-208.0
X93.0Y-213.0
X93.0Y-218.0
X93.0Y-223.0
X93.0Y-228.0
X93.0Y-233.0
X93.0Y-238.0
X93.0Y-243.0
X93.0Y-248.0
X93.0Y-253.0
X93.0Y-258.0
X93.0Y-263.0
X93.0Y-268.0
X93.0Y-273.0
X93.0Y-278.0
X94.0Y-18.0
X94.0Y-22.0
X94.0Y-26.0
X94.0Y-30.0
X94.0Y-34.0
X94.0Y-38.0
X94.0Y-42.0
X94.0Y-46.0
X94.0Y-50.0
X94.0Y-54.0
X94.0Y-58.0
X94.0Y-62.0
X94.0Y-66.0
X94.0Y-70.0
X94.0Y-74.0
X94.0Y-78.0
X94.0Y-82.0
X94.0Y-86.0
X94.0Y-90.0
X94.0Y-94.0
X94.0Y-98.0
X94.0Y-102.0
X94.0Y-106.0
X94.0Y-110.0
X94.0Y-114.0
X94.0Y-118.0
X94.0Y-122.0
X94.0Y-126.0
X94.0Y-130.0
X94.0Y-134.0
X94.0Y-138.0
X94.0Y-142.0
X94.0Y-146.0
X94.0Y-150.0
X94.0Y-154.0
X94.0Y-158.0
X94.0Y-162.0
X94.0Y-166.0
X94.0Y-170.0
X94.0Y-174.0
X94.0Y-178.0
X94.0Y-182.0
X94.0Y-186.0
X94.0Y-190.0
X94.0Y-194.0
X94.0Y-198.0
X94.0Y-202.0
X94.0Y-206.0
X94.0Y-210.0
X94.0Y-214.0
X94.0Y-218.0
X94.0Y-222.0
X94.0Y-226.0
X94.0Y-230.0
X94.0Y-234.0
X94.0Y-238.0
X94.0Y-242.0
X94.0Y-246.0
X94.0Y-250.0
X94.0Y-254.0
X94.0Y-258.0
X94.0Y-262.0
X94.0Y-266.0
X94.0Y-270.0
X94.0Y-274.0
X94.0Y-278.0
X98.0Y-18.0
X98.0Y-18.0
X98.0Y-22.0
X98.0Y-23.0
X98.0Y-26.0
X98.0Y-28.0
X98.0Y-30.0
X98.0Y-33.0
X98.0Y-34.0
X98.0Y-38.0
X98.0Y-38.0
X98.0Y-42.0
X98.0Y-43.0
X98.0Y-46.0
X98.0Y-48.0
X98.0Y-50.0
X98.0Y-53.0
X98.0Y-54.0
X98.0Y-58.0
X98.0Y-58.0
X98.0Y-62.0
X98.0Y-63.0
X98.0Y-66.0
X98.0Y-68.0
X98.0Y-70.0
X98.0Y-73.0
X98.0Y-74.0
X98.0Y-78.0
X98.0Y-78.0
X98.0Y-82.0
X98.0Y-83.0
X98.0Y-86.0
X98.0Y-88.0
X98.0Y-90.0
X98.0Y-93.0
X98.0Y-94.0
X98.0Y-98.0
X98.0Y-98.0
X98.0Y-102.0
X98.0Y-103.0
X98.0Y-106.0
X98.0Y-108.0
X98.0Y-110.0
X98.0Y-113.0
X98.0Y-114.0
X98.0Y-118.0
X98.0Y-118.0
X98.0Y-122.0
X98.0Y-123.0
X98.0Y-126.0
X98.0Y-128.0
X98.0Y-130.0
X98.0Y-133.0
X98.0Y-134.0
X98.0Y-138.0
X98.0Y-138.0
X98.0Y-142.0
X98.0Y-143.0
X98.0Y-146.0
X98.0Y-148.0
X98.0Y-150.0
X98.0Y-153.0
X98.0Y-154.0
X98.0Y-158.0
X98.0Y-158.0
X98.0Y-162.0
X98.0Y-163.0
X98.0Y-166.0
X98.0Y-168.0
X98.0Y-170.0
X98.0Y-173.0
X98.0Y-174.0
X98.0Y-178.0
X98.0Y-178.0
X98.0Y-182.0
X98.0Y-183.0
X98.0Y-186.0
X98.0Y-188.0
X98.0Y-190.0
X98.0Y-193.0
X98.0Y-194.0
X98.0Y-198.0
X98.0Y-198.0
X98.0Y-202.0
X98.0Y-203.0
X98.0Y-206.0
X98.0Y-208.0
X98.0Y-210.0
X98.0Y-213.0
X98.0Y-214.0
X98.0Y-218.0
X98.0Y-218.0
X98.0Y-222.0
X98.0Y-223.0
X98.0Y-226.0
X98.0Y-228.0
X98.0Y-230.0
X98.0Y-233.0
X98.0Y-234.0
X98.0Y-238.0
X98.0Y-238.0
X98.0Y-242.0
X98.0Y-243.0
X98.0Y-246.0
X98.0Y-248.0
X98.0Y-250.0
X98.0Y-253.0
X98.0Y-254.0
X98.0Y-258.0
X98.0Y-258.0
X98.0Y-262.0
X98.0Y-263.0
X98.0Y-266.0
X98.0Y-268.0
X98.0Y-270.0
X98.0Y-273.0
X98.0Y-274.0
X98.0Y-278.0
X98.0Y-278.0
X102.0Y-18.0
X102.0Y-22.0
X102.0Y-26.0
X102.0Y-30.0
X102.0Y-34.0
X102.0Y-38.0
X102.0Y-42.0
X102.0Y-46.0
X102.0Y-50.0
X102.0Y-54.0
X102.0Y-58.0
X102.0Y-62.0
X102.0Y-66.0
X102.0Y-70.0
X102.0Y-74.0
X102.0Y-78.0
X102.0Y-82.0
X102.0Y-86.0
X102.0Y-90.0
X102.0Y-94.0
X102.0Y-98.0
X102.0Y-102.0
X102.0Y-106.0
X102.0Y-110.0
X102.0Y-114.0
X102.0Y-118.0
X102.0Y-122.0
X102.0Y-126.0
X102.0Y-130.0
X102.0Y-134.0
X102.0Y-138.0
X102.0Y-142.0
X102.0Y-146.0
X102.0Y-150.0
X102.0Y-154.0
X102.0Y-158.0
X102.0Y-162.0
X102.0Y-166.0
X102.0Y-170.0
X102.0Y-174.0
X102.0Y-178.0
X102.0Y-182.0
X102.0Y-186.0
X102.0Y-190.0
X102.0Y-194.0
X102.0Y-198.0
X102.0Y-202.0
X102.0Y-206.0
X102.0Y-210.0
X102.0Y-214.0
X102.0Y-218.0
X102.0Y-222.0
X102.0Y-226.0
X102.0Y-230.0
X102.0Y-234.0
X102.0Y-238.0
X102.0Y-242.0
X102.0Y-246.0
X102.0Y-250.0
X102.0Y-254.0
X102.0Y-258.0
X102.0Y-262.0
X102.0Y-266.0
X102.0Y-270.0
X102.0Y-274.0
X102.0Y-278.0
X103.0Y-18.0
X103.0Y-23.0
X103.0Y-28.0
X103.0Y-33.0
X103.0Y-38.0
X103.0Y-43.0
X103.0Y-48.0
X103.0Y-53.0
X103.0Y-58.0
X103.0Y-63.0
X103.0Y-68.0
X103.0Y-73.0
X103.0Y-78.0
X103.0Y-83.0
X103.0Y-88.0
X103.0Y-93.0
X103.0Y-98.0
X103.0Y-103.0
X103.0Y-108.0
X103.0Y-113.0
X103.0Y-118.0
X103.0Y-123.0
X103.0Y-128.0
X103.0Y-133.0
X103.0Y-138.0
X103.0Y-143.0
X103.0Y-148.0
X103.0Y-153.0
X103.0Y-158.0
X103.0Y-163.0
X103.0Y-168.0
X103.0Y-173.0
X103.0Y-178.0
X103.0Y-183.0
X103.0Y-188.0
X103.0Y-193.0
X103.0Y-198.0
X103.0Y-203.0
X103.0Y-208.0
X103.0Y-213.0
X103.0Y-218.0
X103.0Y-223.0
X103.0Y-228.0
X103.0Y-233.0
X103.0Y-238.0
X103.0Y-243.0
X103.0Y-248.0
X103.0Y-253.0
X103.0Y-258.0
X103.0Y-263.0
X103.0Y-268.0
X103.0Y-273.0
X103.0Y-278.0
X106.0Y-18.0
X106.0Y-22.0
X106.0Y-26.0
X106.0Y-30.0
X106.0Y-34.0
X106.0Y-38.0
X106.0Y-42.0
X106.0Y-46.0
X106.0Y-50.0
X106.0Y-54.0
X106.0Y-58.0
X106.0Y-62.0
X106.0Y-66.0
X106.0Y-70.0
X106.0Y-74.0
X106.0Y-78.0
X106.0Y-82.0
X106.0Y-86.0
X106.0Y-90.0
X106.0Y-94.0
X106.0Y-98.0
X106.0Y-102.0
X106.0Y-106.0
X106.0Y-110.0
X106.0Y-114.0
X106.0Y-118.0
X106.0Y-122.0
X106.0Y-126.0
X106.0Y-130.0
X106.0Y-134.0
X106.0Y-138.0
X106.0Y-142.0
X106.0Y-146.0
X106.0Y-150.0
X106.0Y-154.0
X106.0Y-158.0
X106.0Y-162.0
X106.0Y-166.0
X106.0Y-170.0
X106.0Y-174.0
X106.0Y-178.0
X106.0Y-182.0
X106.0Y-186.0
X106.0Y-190.0
X106.0Y-194.0
X106.0Y-198.0
X106.0Y-202.0
X106.0Y-206.0
X106.0Y-210.0
X106.0Y-214.0
X106.0Y-218.0
X106.0Y-222.0
X106.0Y-226.0
X106.0Y-230.0
X106.0Y-234.0
X106.0Y-238.0
X106.0Y-242.0
X106.0Y-246.0
X106.0Y-250.0
X106.0Y-254.0
X106.0Y-258.0
X106.0Y-262.0
X106.0Y-266.0
X106.0Y-270.0
X106.0Y-274.0
X106.0Y-278.0
X108.0Y-18.0
X108.0Y-23.0
X108.0Y-28.0
X108.0Y-33.0
X108.0Y-38.0
X108.0Y-43.0
X108.0Y-48.0
X108.0Y-53.0
X108.0Y-58.0
X108.0Y-63.0
X108.0Y-68.0
X108.0Y-73.0
X108.0Y-78.0
X108.0Y-83.0
X108.0Y-88.0
X108.0Y-93.0
X108.0Y-98.0
X108.0Y-103.0
X108.0Y-108.0
X108.0Y-113.0
X108.0Y-118.0
X108.0Y-123.0
X108.0Y-128.0
X108.0Y-133.0
X108.0Y-138.0
X108.0Y-143.0
X108.0Y-148.0
X108.0Y-153.0
X108.0Y-158.0
X108.0Y-163.0
X108.0Y-168.0
X108.0Y-173.0
X108.0Y-178.0
X108.0Y-183.0
X108.0Y-188.0
X108.0Y-193.0
X108.0Y-198.0
X108.0Y-203.0
X108.0Y-208.0
X108.0Y-213.0
X108.0Y-218.0
X108.0Y-223.0
X108.0Y-228.0
X108.0Y-233.0
X108.0Y-238.0
X108.0Y-243.0
X108.0Y-248.0
X108.0Y-253.0
X108.0Y-258.0
X108.0Y-263.0
X108.0Y-268.0
X108.0Y-273.0
X108.0Y-278.0
X110.0Y-18.0
X110.0Y-22.0
X110.0Y-26.0
X110.0Y-30.0
X110.0Y-34.0
X110.0Y-38.0
X110.0Y-42.0
X110.0Y-46.0
X110.0Y-50.0
X110.0Y-54.0
X110.0Y-58.0
X110.0Y-62.0
X110.0Y-66.0
X110.0Y-70.0
X110.0Y-74.0
X110.0Y-78.0
X110.0Y-82.0
X110.0Y-86.0
X110.0Y-90.0
X110.0Y-94.0
X110.0Y-98.0
X110.0Y-102.0
X110.0Y-106.0
X110.0Y-110.0
X110.0Y-114.0
X110.0Y-118.0
X110.0Y-122.0
X110.0Y-126.0
X110.0Y-130.0
X110.0Y-134.0
X110.0Y-138.0
X110.0Y-142.0
X110.0Y-146.0
X110.0Y-150.0
X110.0Y-154.0
X110.0Y-158.0
X110.0Y-162.0
X110.0Y-166.0
X110.0Y-170.0
X110.0Y-174.0
X110.0Y-178.0
X110.0Y-182.0
X110.0Y-186.0
X110.0Y-190.0
X110.0Y-194.0
X110.0Y-198.0
X110.0Y-202.0
X110.0Y-206.0
X110.0Y-210.0
X110.0Y-214.0
X110.0Y-218.0
X110.0Y-222.0
X110.0Y-226.0
X110.0Y-230.0
X110.0Y-234.0
X110.0Y-238.0
X110.0Y-242.0
X110.0Y-246.0
X110.0Y-250.0
X110.0Y-254.0
X110.0Y-258.0
X110.0Y-262.0
X110.0Y-266.0
X110.0Y-270.0
X110.0Y-274.0
X110.0Y-278.0
X113.0Y-18.0
X113.0Y-23.0
X113.0Y-28.0
X113.0Y-33.0
X113.0Y-38.0
X113.0Y-43.0
X113.0Y-48.0
X113.0Y-53.0
X113.0Y-58.0
X113.0Y-63.0
X113.0Y-68.0
X113.0Y-73.0
X113.0Y-78.0
X113.0Y-83.0
X113.0Y-88.0
X113.0Y-93.0
X113.0Y-98.0
X113.0Y-103.0
X113.0Y-108.0
X113.0Y-113.0
X113.0Y-118.0
X113.0Y-123.0
X113.0Y-128.0
X113.0Y-133.0
X113.0Y-138.0
X113.0Y-143.0
X113.0Y-148.0
X113.0Y-153.0
X113.0Y-158.0
X113.0Y-163.0
X113.0Y-168.0
X113.0Y-173.0
X113.0Y-178.0
X113.0Y-183.0
X113.0Y-188.0
X113.0Y-193.0
X113.0Y-198.0
X113.0Y-203.0
X113.0Y-208.0
X113.0Y-213.0
X113.0Y-218.0
X113.0Y-223.0
X113.0Y-228.0
X113.0Y-233.0
X113.0Y-238.0
X113.0Y-243.0
X113.0Y-248.0
X113.0Y-253.0
X113.0Y-258.0
X113.0Y-263.0
X113.0Y-268.0
X113.0Y-273.0
X113.0Y-278.0
X114.0Y-18.0
X114.0Y-22.0
X114.0Y-26.0
X114.0Y-30.0
X114.0Y-34.0
X114.0Y-38.0
X114.0Y-42.0
X114.0Y-46.0
X114.0Y-50.0
X114.0Y-54.0
X114.0Y-58.0
X114.0Y-62.0
X114.0Y-66.0
X114.0Y-70.0
X114.0Y-74.0
X114.0Y-78.0
X114.0Y-82.0
X114.0Y-86.0
X114.0Y-90.0
X114.0Y-94.0
X114.0Y-98.0
X114.0Y-102.0
X114.0Y-106.0
X114.0Y-110.0
X114.0Y-114.0
X114.0Y-118.0
X114.0Y-122.0
X114.0Y-126.0
X114.0Y-130.0
X114.0Y-134.0
X114.0Y-138.0
X114.0Y-142.0
X114.0Y-146.0
X114.0Y-150.0
X114.0Y-154.0
X114.0Y-158.0
X114.0Y-162.0
X114.0Y-166.0
X114.0Y-170.0
X114.0Y-174.0
X114.0Y-178.0
X114.0Y-182.0
X114.0Y-186.0
X114.0Y-190.0
X114.0Y-194.0
X114.0Y-198.0
X114.0Y-202.0
X114.0Y-206.0
X114.0Y-210.0
X114.0Y-214.0
X114.0Y-218.0
X114.0Y-222.0
X114.0Y-226.0
X114.0Y-230.0
X114.0Y-234.0
X114.0Y-238.0
X114.0Y-242.0
X114.0Y-246.0
X114.0Y-250.0
X114.0Y-254.0
X114.0Y-258.0
X114.0Y-262.0
X114.0Y-266.0
X114.0Y-270.0
X114.0Y-274.0
X114.0Y-278.0
X118.0Y-18.0
X118.0Y-18.0
X118.0Y-22.0
X118.0Y-23.0
X118.0Y-26.0
X118.0Y-28.0
X118.0Y-30.0
X118.0Y-33.0
X118.0Y-34.0
X118.0Y-38.0
X118.0Y-38.0
X118.0Y-42.0
X118.0Y-43.0
X118.0Y-46.0
X118.0Y-48.0
X118.0Y-50.0
X118.0Y-53.0
X118.0Y-54.0
X118.0Y-58.0
X118.0Y-58.0
X118.0Y-62.0
X118.0Y-63.0
X118.0Y-66.0
X118.0Y-68.0
X118.0Y-70.0
X118.0Y-73.0
X118.0Y-74.0
X118.0Y-78.0
X118.0Y-78.0
X118.0Y-82.0
X118.0Y-83.0
X118.0Y-86.0
X118.0Y-88.0
X118.0Y-90.0
X118.0Y-93.0
X118.0Y-94.0
X118.0Y-98.0
X118.0Y-98.0
X118.0Y-102.0
X118.0Y-103.0
X118.0Y-106.0
X118.0Y-108.0
X118.0Y-110.0
X118.0Y-113.0
X118.0Y-114.0
X118.0Y-118.0
X118.0Y-118.0
X118.0Y-122.0
X118.0Y-123.0
X118.0Y-126.0
X118.0Y-128.0
X118.0Y-130.0
X118.0Y-133.0
X118.0Y-134.0
X118.0Y-138.0
X118.0Y-138.0
X118.0Y-142.0
X118.0Y-143.0
X118.0Y-146.0
X118.0Y-148.0
X118.0Y-150.0
X118.0Y-153.0
X118.0Y-154.0
X118.0Y-158.0
X118.0Y-158.0
X118.0Y-162.0
X118.0Y-163.0
X118.0Y-166.0
X118.0Y-168.0
X118.0Y-170.0
X118.0Y-173.0
X118.0Y-174.0
X118.0Y-178.0
X118.0Y-178.0
X118.0Y-182.0
X118.0Y-183.0
X118.0Y-186.0
X118.0Y-188.0
X118.0Y-190.0
X118.0Y-193.0
X118.0Y-194.0
X118.0Y-198.0
X118.0Y-198.0
X118.0Y-202.0
X118.0Y-203.0
X118.0Y-206.0
X118.0Y-208.0
X118.0Y-210.0
X118.0Y-213.0
X118.0Y-214.0
X118.0Y-218.0
X118.0Y-218.0
X118.0Y-222.0
X118.0Y-223.0
X118.0Y-226.0
X118.0Y-228.0
X118.0Y-230.0
X118.0Y-233.0
X118.0Y-234.0
X118.0Y-238.0
X118.0Y-238.0
X118.0Y-242.0
X118.0Y-243.0
X118.0Y-246.0
X118.0Y-248.0
X118.0Y-250.0
X118.0Y-253.0
X118.0Y-254.0
X118.0Y-258.0
X118.0Y-258.0
X118.0Y-262.0
X118.0Y-263.0
X118.0Y-266.0
X118.0Y-268.0
X118.0Y-270.0
X118.0Y-273.0
X118.0Y-274.0
X118.0Y-278.0
X118.0Y-278.0
X122.0Y-18.0
X122.0Y-22.0
X122.0Y-26.0
X122.0Y-30.0
X122.0Y-34.0
X122.0Y-38.0
X122.0Y-42.0
X122.0Y-46.0
X122.0Y-50.0
X122.0Y-54.0
X122.0Y-58.0
X122.0Y-62.0
X122.0Y-66.0
X122.0Y-70.0
X122.0Y-74.0
X122.0Y-78.0
X122.0Y-82.0
X122.0Y-86.0
X122.0Y-90.0
X122.0Y-94.0
X122.0Y-98.0
X122.0Y-102.0
X122.0Y-106.0
X122.0Y-110.0
X122.0Y-114.0
X122.0Y-118.0
X122.0Y-122.0
X122.0Y-126.0
X122.0Y-130.0
X122.0Y-134.0
X122.0Y-138.0
X122.0Y-142.0
X122.0Y-146.0
X122.0Y-150.0
X122.0Y-154.0
X122.0Y-158.0
X122.0Y-162.0
X122.0Y-166.0
X122.0Y-170.0
X122.0Y-174.0
X122.0Y-178.0
X122.0Y-182.0
X122.0Y-186.0
X122.0Y-190.0
X122.0Y-194.0
X122.0Y-198.0
X122.0Y-202.0
X122.0Y-206.0
X122.0Y-210.0
X122.0Y-214.0
X122.0Y-218.0
X122.0Y-222.0
X122.0Y-226.0
X122.0Y-230.0
X122.0Y-234.0
X122.0Y-238.0
X122.0Y-242.0
X122.0Y-246.0
X122.0Y-250.0
X122.0Y-254.0
X122.0Y-258.0
X122.0Y-262.0
X122.0Y-266.0
X122.0Y-270.0
X122.0Y-274.0
X122.0Y-278.0
X123.0Y-18.0
X123.0Y-23.0
X123.0Y-28.0
X123.0Y-33.0
X123.0Y-38.0
X123.0Y-43.0
X123.0Y-48.0
X123.0Y-53.0
X123.0Y-58.0
X123.0Y-63.0
X123.0Y-68.0
X123.0Y-73.0
X123.0Y-78.0
X123.0Y-83.0
X123.0Y-88.0
X123.0Y-93.0
X123.0Y-98.0
X123.0Y-103.0
X123.0Y-108.0
X123.0Y-113.0
X123.0Y-118.0
X123.0Y-123.0
X123.0Y-128.0
X123.0Y-133.0
X123.0Y-138.0
X123.0Y-143.0
X123.0Y-148.0
X123.0Y-153.0
X123.0Y-158.0
X123.0Y-163.0
X123.0Y-168.0
X123.0Y-173.0
X123.0Y-178.0
X123.0Y-183.0
X123.0Y-188.0
X123.0Y-193.0
X123.0Y-198.0
X123.0Y-203.0
X123.0Y-208.0
X123.0Y-213.0
X123.0Y-218.0
X123.0Y-223.0
X123.0Y-228.0
X123.0Y-233.0
X123.0Y-238.0
X123.0Y-243.0
X123.0Y-248.0
X123.0Y-253.0
X123.0Y-258.0
X123.0Y-263.0
X123.0Y-268.0
X123.0Y-273.0
X123.0Y-278.0
X126.0Y-18.0
X126.0Y-22.0
X126.0Y-26.0
X126.0Y-30.0
X126.0Y-34.0
X126.0Y-38.0
X126.0Y-42.0
X126.0Y-46.0
X126.0Y-50.0
X126.0Y-54.0
X126.0Y-58.0
X126.0Y-62.0
X126.0Y-66.0
X126.0Y-70.0
X126.0Y-74.0
X126.0Y-78.0
X126.0Y-82.0
X126.0Y-86.0
X126.0Y-90.0
X126.0Y-94.0
X126.0Y-98.0
X126.0Y-102.0
X126.0Y-106.0
X126.0Y-110.0
X126.0Y-114.0
X126.0Y-118.0
X126.0Y-122.0
X126.0Y-126.0
X126.0Y-130.0
X126.0Y-134.0
X126.0Y-138.0
X126.0Y-142.0
X126.0Y-146.0
X126.0Y-150.0
X126.0Y-154.0
X126.0Y-158.0
X126.0Y-162.0
X126.0Y-166.0
X126.0Y-170.0
X126.0Y-174.0
X126.0Y-178.0
X126.0Y-182.0
X126.0Y-186.0
X126.0Y-190.0
X126.0Y-194.0
X126.0Y-198.0
X126.0Y-202.0
X126.0Y-206.0
X126.0Y-210.0
X126.0Y-214.0
X126.0Y-218.0
X126.0Y-222.0
X126.0Y-226.0
X126.0Y-230.0
X126.0Y-234.0
X126.0Y-238.0
X126.0Y-242.0
X126.0Y-246.0
X126.0Y-250.0
X126.0Y-254.0
X126.0Y-258.0
X126.0Y-262.0
X126.0Y-266.0
X126.0Y-270.0
X126.0Y-274.0
X126.0Y-278.0
X128.0Y-18.0
X128.0Y-23.0
X128.0Y-28.0
X128.0Y-33.0
X128.0Y-38.0
X128.0Y-43.0
X128.0Y-48.0
X128.0Y-53.0
X128.0Y-58.0
X128.0Y-63.0
X128.0Y-68.0
X128.0Y-73.0
X128.0Y-78.0
X128.0Y-83.0
X128.0Y-88.0
X128.0Y-93.0
X128.0Y-98.0
X128.0Y-103.0
X128.0Y-108.0
X128.0Y-113.0
X128.0Y-118.0
X128.0Y-123.0
X128.0Y-128.0
X128.0Y-133.0
X128.0Y-138.0
X128.0Y-143.0
X128.0Y-148.0
X128.0Y-153.0
X128.0Y-158.0
X128.0Y-163.0
X128.0Y-168.0
X128.0Y-173.0
X128.0Y-178.0
X128.0Y-183.0
X128.0Y-188.0
X128.0Y-193.0
X128.0Y-198.0
X128.0Y-203.0
X128.0Y-208.0
X128.0Y-213.0
X128.0Y-218.0
X128.0Y-223.0
X128.0Y-228.0
X128.0Y-233.0
X128.0Y-238.0
X128.0Y-243.0
X128.0Y-248.0
X128.0Y-253.0
X128.0Y-258.0
X128.0Y-263.0
X128.0Y-268.0
X128.0Y-273.0
X128.0Y-278.0
X130.0Y-18.0
X130.0Y-22.0
X130.0Y-26.0
X130.0Y-30.0
X130.0Y-34.0
X130.0Y-38.0
X130.0Y-42.0
X130.0Y-46.0
X130.0Y-50.0
X130.0Y-54.0
X130.0Y-58.0
X130.0Y-62.0
X130.0Y-66.0
X130.0Y-70.0
X130.0Y-74.0
X130.0Y-78.0
X130.0Y-82.0
X130.0Y-86.0
X130.0Y-90.0
X130.0Y-94.0
X130.0Y-98.0
X130.0Y-102.0
X130.0Y-106.0
X130.0Y-110.0
X130.0Y-114.0
X130.0Y-118.0
X130.0Y-122.0
X130.0Y-126.0
X130.0Y-130.0
X130.0Y-134.0
X130.0Y-138.0
X130.0Y-142.0
X130.0Y-146.0
X130.0Y-150.0
X130.0Y-154.0
X130.0Y-158.0
X130.0Y-162.0
X130.0Y-166.0
X130.0Y-170.0
X130.0Y-174.0
X130.0Y-178.0
X130.0Y-182.0
X130.0Y-186.0
X130.0Y-190.0
X130.0Y-194.0
X130.0Y-198.0
X130.0Y-202.0
X130.0Y-206.0
X130.0Y-210.0
X130.0Y-214.0
X130.0Y-218.0
X130.0Y-222.0
X130.0Y-226.0
X130.0Y-230.0
X130.0Y-234.0
X130.0Y-238.0
X130.0Y-242.0
X130.0Y-246.0
X130.0Y-250.0
X130.0Y-254.0
X130.0Y-258.0
X130.0Y-262.0
X130.0Y-266.0
X130.0Y-270.0
X130.0Y-274.0
X130.0Y-278.0
X133.0Y-18.0
X133.0Y-23.0
X133.0Y-28.0
X133.0Y-33.0
X133.0Y-38.0
X133.0Y-43.0
X133.0Y-48.0
X133.0Y-53.0
X133.0Y-58.0
X133.0Y-63.0
X133.0Y-68.0
X133.0Y-73.0
X133.0Y-78.0
X133.0Y-83.0
X133.0Y-88.0
X133.0Y-93.0
X133.0Y-98.0
X133.0Y-103.0
X133.0Y-108.0
X133.0Y-113.0
X133.0Y-118.0
X133.0Y-123.0
X133.0Y-128.0
X133.0Y-133.0
X133.0Y-138.0
X133.0Y-143.0
X133.0Y-148.0
X133.0Y-153.0
X133.0Y-158.0
X133.0Y-163.0
X133.0Y-168.0
X133.0Y-173.0
X133.0Y-178.0
X133.0Y-183.0
X133.0Y-188.0
X133.0Y-193.0
X133.0Y-198.0
X133.0Y-203.0
X133.0Y-208.0
X133.0Y-213.0
X133.0Y-218.0
X133.0Y-223.0
X133.0Y-228.0
X133.0Y-233.0
X133.0Y-238.0
X133.0Y-243.0
X133.0Y-248.0
X133.0Y-253.0
X133.0Y-258.0
X133.0Y-263.0
X133.0Y-268.0
X133.0Y-273.0
X133.0Y-278.0
X134.0Y-18.0
X134.0Y-22.0
X134.0Y-26.0
X134.0Y-30.0
X134.0Y-34.0
X134.0Y-38.0
X134.0Y-42.0
X134.0Y-46.0
X134.0Y-50.0
X134.0Y-54.0
X134.0Y-58.0
X134.0Y-62.0
X134.0Y-66.0
X134.0Y-70.0
X134.0Y-74.0
X134.0Y-78.0
X134.0Y-82.0
X134.0Y-86.0
X134.0Y-90.0
X134.0Y-94.0
X134.0Y-98.0
X134.0Y-102.0
X134.0Y-106.0
X134.0Y-110.0
X134.0Y-114.0
X134.0Y-118.0
X134.0Y-122.0
X134.0Y-126.0
X134.0Y-130.0
X134.0Y-134.0
X134.0Y-138.0
X134.0Y-142.0
X134.0Y-146.0
X134.0Y-150.0
X134.0Y-154.0
X134.0Y-158.0
X134.0Y-162.0
X134.0Y-166.0
X134.0Y-170.0
X134.0Y-174.0
X134.0Y-178.0
X134.0Y-182.0
X134.0Y-186.0
X134.0Y-190.0
X134.0Y-194.0
X134.0Y-198.0
X134.0Y-202.0
X134.0Y-206.0
X134.0Y-210.0
X134.0Y-214.0
X134.0Y-218.0
X134.0Y-222.0
X134.0Y-226.0
X134.0Y-230.0
X134.0Y-234.0
X134.0Y-238.0
X134.0Y-242.0
X134.0Y-246.0
X134.0Y-250.0
X134.0Y-254.0
X134.0Y-258.0
X134.0Y-262.0
X134.0Y-266.0
X134.0Y-270.0
X134.0Y-274.0
X134.0Y-278.0
X138.0Y-18.0
X138.0Y-18.0
X138.0Y-22.0
X138.0Y-23.0
X138.0Y-26.0
X138.0Y-28.0
X138.0Y-30.0
X138.0Y-33.0
X138.0Y-34.0
X138.0Y-38.0
X138.0Y-38.0
X138.0Y-42.0
X138.0Y-43.0
X138.0Y-46.0
X138.0Y-48.0
X138.0Y-50.0
X138.0Y-53.0
X138.0Y-54.0
X138.0Y-58.0
X138.0Y-58.0
X138.0Y-62.0
X138.0Y-63.0
X138.0Y-66.0
X138.0Y-68.0
X138.0Y-70.0
X138.0Y-73.0
X138.0Y-74.0
X138.0Y-78.0
X138.0Y-78.0
X138.0Y-82.0
X138.0Y-83.0
X138.0Y-86.0
X138.0Y-88.0
X138.0Y-90.0
X138.0Y-93.0
X138.0Y-94.0
X138.0Y-98.0
X138.0Y-98.0
X138.0Y-102.0
X138.0Y-103.0
X138.0Y-106.0
X138.0Y-108.0
X138.0Y-110.0
X138.0Y-113.0
X138.0Y-114.0
X138.0Y-118.0
X138.0Y-118.0
X138.0Y-122.0
X138.0Y-123.0
X138.0Y-126.0
X138.0Y-128.0
X138.0Y-130.0
X138.0Y-133.0
X138.0Y-134.0
X138.0Y-138.0
X138.0Y-138.0
X138.0Y-142.0
X138.0Y-143.0
X138.0Y-146.0
X138.0Y-148.0
X138.0Y-150.0
X138.0Y-153.0
X138.0Y-154.0
X138.0Y-158.0
X138.0Y-158.0
X138.0Y-162.0
X138.0Y-163.0
X138.0Y-166.0
X138.0Y-168.0
X138.0Y-170.0
X138.0Y-173.0
X138.0Y-174.0
X138.0Y-178.0
X138.0Y-178.0
X138.0Y-182.0
X138.0Y-183.0
X138.0Y-186.0
X138.0Y-188.0
X138.0Y-190.0
X138.0Y-193.0
X138.0Y-194.0
X138.0Y-198.0
X138.0Y-198.0
X138.0Y-202.0
X138.0Y-203.0
X138.0Y-206.0
X138.0Y-208.0
X138.0Y-210.0
X138.0Y-213.0
X138.0Y-214.0
X138.0Y-218.0
X138.0Y-218.0
X138.0Y-222.0
X138.0Y-223.0
X138.0Y-226.0
X138.0Y-228.0
X138.0Y-230.0
X138.0Y-233.0
X138.0Y-234.0
X138.0Y-238.0
X138.0Y-238.0
X138.0Y-242.0
X138.0Y-243.0
X138.0Y-246.0
X138.0Y-248.0
X138.0Y-250.0
X138.0Y-253.0
X138.0Y-254.0
X138.0Y-258.0
X138.0Y-258.0
X138.0Y-262.0
X138.0Y-263.0
X138.0Y-266.0
X138.0Y-268.0
X138.0Y-270.0
X138.0Y-273.0
X138.0Y-274.0
X138.0Y-278.0
X138.0Y-278.0
X142.0Y-18.0
X142.0Y-22.0
X142.0Y-26.0
X142.0Y-30.0
X142.0Y-34.0
X142.0Y-38.0
X142.0Y-42.0
X142.0Y-46.0
X142.0Y-50.0
X142.0Y-54.0
X142.0Y-58.0
X142.0Y-62.0
X142.0Y-66.0
X142.0Y-70.0
X142.0Y-74.0
X142.0Y-78.0
X142.0Y-82.0
X142.0Y-86.0
X142.0Y-90.0
X142.0Y-94.0
X142.0Y-98.0
X142.0Y-102.0
X142.0Y-106.0
X142.0Y-110.0
X142.0Y-114.0
X142.0Y-118.0
X142.0Y-122.0
X142.0Y-126.0
X142.0Y-130.0
X142.0Y-134.0
X142.0Y-138.0
X142.0Y-142.0
X142.0Y-146.0
X142.0Y-150.0
X142.0Y-154.0
X142.0Y-158.0
X142.0Y-162.0
X142.0Y-166.0
X142.0Y-170.0
X142.0Y-174.0
X142.0Y-178.0
X142.0Y-182.0
X142.0Y-186.0
X142.0Y-190.0
X142.0Y-194.0
X142.0Y-198.0
X142.0Y-202.0
X142.0Y-206.0
X142.0Y-210.0
X142.0Y-214.0
X142.0Y-218.0
X142.0Y-222.0
X142.0Y-226.0
X142.0Y-230.0
X142.0Y-234.0
X142.0Y-238.0
X142.0Y-242.0
X142.0Y-246.0
X142.0Y-250.0
X142.0Y-254.0
X142.0Y-258.0
X142.0Y-262.0
X142.0Y-266.0
X142.0Y-270.0
X142.0Y-274.0
X142.0Y-278.0
X143.0Y-18.0
X143.0Y-23.0
X143.0Y-28.0
X143.0Y-33.0
X143.0Y-38.0
X143.0Y-43.0
X143.0Y-48.0
X143.0Y-53.0
X143.0Y-58.0
X143.0Y-63.0
X143.0Y-68.0
X143.0Y-73.0
X143.0Y-78.0
X143.0Y-83.0
X143.0Y-88.0
X143.0Y-93.0
X143.0Y-98.0
X143.0Y-103.0
X143.0Y-108.0
X143.0Y-113.0
X143.0Y-118.0
X143.0Y-123.0
X143.0Y-128.0
X143.0Y-133.0
X143.0Y-138.0
X143.0Y-143.0
X143.0Y-148.0
X143.0Y-153.0
X143.0Y-158.0
X143.0Y-163.0
X143.0Y-168.0
X143.0Y-173.0
X143.0Y-178.0
X143.0Y-183.0
X143.0Y-188.0
X143.0Y-193.0
X143.0Y-198.0
X143.0Y-203.0
X143.0Y-208.0
X143.0Y-213.0
X143.0Y-218.0
X143.0Y-223.0
X143.0Y-228.0
X143.0Y-233.0
X143.0Y-238.0
X143.0Y-243.0
X143.0Y-248.0
X143.0Y-253.0
X143.0Y-258.0
X143.0Y-263.0
X143.0Y-268.0
X143.0Y-273.0
X143.0Y-278.0
X146.0Y-18.0
X146.0Y-22.0
X146.0Y-26.0
X146.0Y-30.0
X146.0Y-34.0
X146.0Y-38.0
X146.0Y-42.0
X146.0Y-46.0
X146.0Y-50.0
X146.0Y-54.0
X146.0Y-58.0
X146.0Y-62.0
X146.0Y-66.0
X146.0Y-70.0
X146.0Y-74.0
X146.0Y-78.0
X146.0Y-82.0
X146.0Y-86.0
X146.0Y-90.0
X146.0Y-94.0
X146.0Y-98.0
X146.0Y-102.0
X146.0Y-106.0
X146.0Y-110.0
X146.0Y-114.0
X146.0Y-118.0
X146.0Y-122.0
X146.0Y-126.0
X146.0Y-130.0
X146.0Y-134.0
X146.0Y-138.0
X146.0Y-142.0
X146.0Y-146.0
X146.0Y-150.0
X146.0Y-154.0
X146.0Y-158.0
X146.0Y-162.0
X146.0Y-166.0
X146.0Y-170.0
X146.0Y-174.0
X146.0Y-178.0
X146.0Y-182.0
X146.0Y-186.0
X146.0Y-190.0
X146.0Y-194.0
X146.0Y-198.0
X146.0Y-202.0
X146.0Y-206.0
X146.0Y-210.0
X146.0Y-214.0
X146.0Y-218.0
X146.0Y-222.0
X146.0Y-226.0
X146.0Y-230.0
X146.0Y-234.0
X146.0Y-238.0
X146.0Y-242.0
X146.0Y-246.0
X146.0Y-250.0
X146.0Y-254.0
X146.0Y-258.0
X146.0Y-262.0
X146.0Y-266.0
X146.0Y-270.0
X146.0Y-274.0
X146.0Y-278.0
X148.0Y-18.0
X148.0Y-23.0
X148.0Y-28.0
X148.0Y-33.0
X148.0Y-38.0
X148.0Y-43.0
X148.0Y-48.0
X148.0Y-53.0
X148.0Y-58.0
X148.0Y-63.0
X148.0Y-68.0
X148.0Y-73.0
X148.0Y-78.0
X148.0Y-83.0
X148.0Y-88.0
X148.0Y-93.0
X148.0Y-98.0
X148.0Y-103.0
X148.0Y-108.0
X148.0Y-113.0
X148.0Y-118.0
X148.0Y-123.0
X148.0Y-128.0
X148.0Y-133.0
X148.0Y-138.0
X148.0Y-143.0
X148.0Y-148.0
X148.0Y-153.0
X148.0Y-158.0
X148.0Y-163.0
X148.0Y-168.0
X148.0Y-173.0
X148.0Y-178.0
X148.0Y-183.0
X148.0Y-188.0
X148.0Y-193.0
X148.0Y-198.0
X148.0Y-203.0
X148.0Y-208.0
X148.0Y-213.0
X148.0Y-218.0
X148.0Y-223.0
X148.0Y-228.0
X148.0Y-233.0
X148.0Y-238.0
X148.0Y-243.0
X148.0Y-248.0
X148.0Y-253.0
X148.0Y-258.0
X148.0Y-263.0
X148.0Y-268.0
X148.0Y-273.0
X148.0Y-278.0
X150.0Y-18.0
X150.0Y-22.0
X150.0Y-26.0
X150.0Y-30.0
X150.0Y-34.0
X150.0Y-38.0
X150.0Y-42.0
X150.0Y-46.0
X150.0Y-50.0
X150.0Y-54.0
X150.0Y-58.0
X150.0Y-62.0
X150.0Y-66.0
X150.0Y-70.0
X150.0Y-74.0
X150.0Y-78.0
X150.0Y-82.0
X150.0Y-86.0
X150.0Y-90.0
X150.0Y-94.0
X150.0Y-98.0
X150.0Y-102.0
X150.0Y-106.0
X150.0Y-110.0
X150.0Y-114.0
X150.0Y-118.0
X150.0Y-122.0
X150.0Y-126.0
X150.0Y-130.0
X150.0Y-134.0
X150.0Y-138.0
X150.0Y-142.0
X150.0Y-146.0
X150.0Y-150.0
X150.0Y-154.0
X150.0Y-158.0
X150.0Y-162.0
X150.0Y-166.0
X150.0Y-170.0
X150.0Y-174.0
X150.0Y-178.0
X150.0Y-182.0
X150.0Y-186.0
X150.0Y-190.0
X150.0Y-194.0
X150.0Y-198.0
X150.0Y-202.0
X150.0Y-206.0
X150.0Y-210.0
X150.0Y-214.0
X150.0Y-218.0
X150.0Y-222.0
X150.0Y-226.0
X150.0Y-230.0
X150.0Y-234.0
X150.0Y-238.0
X150.0Y-242.0
X150.0Y-246.0
X150.0Y-250.0
X150.0Y-254.0
X150.0Y-258.0
X150.0Y-262.0
X150.0Y-266.0
X150.0Y-270.0
X150.0Y-274.0
X150.0Y-278.0
X153.0Y-18.0
X153.0Y-23.0
X153.0Y-28.0
X153.0Y-33.0
X153.0Y-38.0
X153.0Y-43.0
X153.0Y-48.0
X153.0Y-53.0
X153.0Y-58.0
X153.0Y-63.0
X153.0Y-68.0
X153.0Y-73.0
X153.0Y-78.0
X153.0Y-83.0
X153.0Y-88.0
X153.0Y-93.0
X153.0Y-98.0
X153.0Y-103.0
X153.0Y-108.0
X153.0Y-113.0
X153.0Y-118.0
X153.0Y-123.0
X153.0Y-128.0
X153.0Y-133.0
X153.0Y-138.0
X153.0Y-143.0
X153.0Y-148.0
X153.0Y-153.0
X153.0Y-158.0
X153.0Y-163.0
X153.0Y-168.0
X153.0Y-173.0
X153.0Y-178.0
X153.0Y-183.0
X153.0Y-188.0
X153.0Y-193.0
X153.0Y-198.0
X153.0Y-203.0
X153.0Y-208.0
X153.0Y-213.0
X153.0Y-218.0
X153.0Y-223.0
X153.0Y-228.0
X153.0Y-233.0
X153.0Y-238.0
X153.0Y-243.0
X153.0Y-248.0
X153.0Y-253.0
X153.0Y-258.0
X153.0Y-263.0
X153.0Y-268.0
X153.0Y-273.0
X153.0Y-278.0
X154.0Y-18.0
X154.0Y-22.0
X154.0Y-26.0
X154.0Y-30.0
X154.0Y-34.0
X154.0Y-38.0
X154.0Y-42.0
X154.0Y-46.0
X154.0Y-50.0
X154.0Y-54.0
X154.0Y-58.0
X154.0Y-62.0
X154.0Y-66.0
X154.0Y-70.0
X154.0Y-74.0
X154.0Y-78.0
X154.0Y-82.0
X154.0Y-86.0
X154.0Y-90.0
X154.0Y-94.0
X154.0Y-98.0
X154.0Y-102.0
X154.0Y-106.0
X154.0Y-110.0
X154.0Y-114.0
X154.0Y-118.0
X154.0Y-122.0
X154.0Y-126.0
X154.0Y-130.0
X154.0Y-134.0
X154.0Y-138.0
X154.0Y-142.0
X154.0Y-146.0
X154.0Y-150.0
X154.0Y-154.0
X154.0Y-158.0
X154.0Y-162.0
X154.0Y-166.0
X154.0Y-170.0
X154.0Y-174.0
X154.0Y-178.0
X154.0Y-182.0
X154.0Y-186.0
X154.0Y-190.0
X154.0Y-194.0
X154.0Y-198.0
X154.0Y-202.0
X154.0Y-206.0
X154.0Y-210.0
X154.0Y-214.0
X154.0Y-218.0
X154.0Y-222.0
X154.0Y-226.0
X154.0Y-230.0
X154.0Y-234.0
X154.0Y-238.0
X154.0Y-242.0
X154.0Y-246.0
X154.0Y-250.0
X154.0Y-254.0
X154.0Y-258.0
X154.0Y-262.0
X154.0Y-266.0
X154.0Y-270.0
X154.0Y-274.0
X154.0Y-278.0
X158.0Y-18.0
X158.0Y-18.0
X158.0Y-22.0
X158.0Y-23.0
X158.0Y-26.0
X158.0Y-28.0
X158.0Y-30.0
X158.0Y-33.0
X158.0Y-34.0
X158.0Y-38.0
X158.0Y-38.0
X158.0Y-42.0
X158.0Y-43.0
X158.0Y-46.0
X158.0Y-48.0
X158.0Y-50.0
X158.0Y-53.0
X158.0Y-54.0
X158.0Y-58.0
X158.0Y-58.0
X158.0Y-62.0
X158.0Y-63.0
X158.0Y-66.0
X158.0Y-68.0
X158.0Y-70.0
X158.0Y-73.0
X158.0Y-74.0
X158.0Y-78.0
X158.0Y-78.0
X158.0Y-82.0
X158.0Y-83.0
X158.0Y-86.0
X158.0Y-88.0
X158.0Y-90.0
X158.0Y-93.0
X158.0Y-94.0
X158.0Y-98.0
X158.0Y-98.0
X158.0Y-102.0
X158.0Y-103.0
X158.0Y-106.0
X158.0Y-108.0
X158.0Y-110.0
X158.0Y-113.0
X158.0Y-114.0
X158.0Y-118.0
X158.0Y-118.0
X158.0Y-122.0
X158.0Y-123.0
X158.0Y-126.0
X158.0Y-128.0
X158.0Y-130.0
X158.0Y-133.0
X158.0Y-134.0
X158.0Y-138.0
X158.0Y-138.0
X158.0Y-142.0
X158.0Y-143.0
X158.0Y-146.0
X158.0Y-148.0
X158.0Y-150.0
X158.0Y-153.0
X158.0Y-154.0
X158.0Y-158.0
X158.0Y-158.0
X158.0Y-162.0
X158.0Y-163.0
X158.0Y-166.0
X158.0Y-168.0
X158.0Y-170.0
X158.0Y-173.0
X158.0Y-174.0
X158.0Y-178.0
X158.0Y-178.0
X158.0Y-182.0
X158.0Y-183.0
X158.0Y-186.0
X158.0Y-188.0
X158.0Y-190.0
X158.0Y-193.0
X158.0Y-194.0
X158.0Y-198.0
X158.0Y-198.0
X158.0Y-202.0
X158.0Y-203.0
X158.0Y-206.0
X158.0Y-208.0
X158.0Y-210.0
X158.0Y-213.0
X158.0Y-214.0
X158.0Y-218.0
X158.0Y-218.0
X158.0Y-222.0
X158.0Y-223.0
X158.0Y-226.0
X158.0Y-228.0
X158.0Y-230.0
X158.0Y-233.0
X158.0Y-234.0
X158.0Y-238.0
X158.0Y-238.0
X158.0Y-242.0
X158.0Y-243.0
X158.0Y-246.0
X158.0Y-248.0
X158.0Y-250.0
X158.0Y-253.0
X158.0Y-254.0
X158.0Y-258.0
X158.0Y-258.0
X158.0Y-262.0
X158.0Y-263.0
X158.0Y-266.0
X158.0Y-268.0
X158.0Y-270.0
X158.0Y-273.0
X158.0Y-274.0
X158.0Y-278.0
X158.0Y-278.0
X162.0Y-18.0
X162.0Y-22.0
X162.0Y-26.0
X162.0Y-30.0
X162.0Y-34.0
X162.0Y-38.0
X162.0Y-42.0
X162.0Y-46.0
X162.0Y-50.0
X162.0Y-54.0
X162.0Y-58.0
X162.0Y-62.0
X162.0Y-66.0
X162.0Y-70.0
X162.0Y-74.0
X162.0Y-78.0
X162.0Y-82.0
X162.0Y-86.0
X162.0Y-90.0
X162.0Y-94.0
X162.0Y-98.0
X162.0Y-102.0
X162.0Y-106.0
X162.0Y-110.0
X162.0Y-114.0
X162.0Y-118.0
X162.0Y-122.0
X162.0Y-126.0
X162.0Y-130.0
X162.0Y-134.0
X162.0Y-138.0
X162.0Y-142.0
X162.0Y-146.0
X162.0Y-150.0
X162.0Y-154.0
X162.0Y-158.0
X162.0Y-162.0
X162.0Y-166.0
X162.0Y-170.0
X162.0Y-174.0
X162.0Y-178.0
X162.0Y-182.0
X162.0Y-186.0
X162.0Y-190.0
X162.0Y-194.0
X162.0Y-198.0
X162.0Y-202.0
X162.0Y-206.0
X162.0Y-210.0
X162.0Y-214.0
X162.0Y-218.0
X162.0Y-222.0
X162.0Y-226.0
X162.0Y-230.0
X162.0Y-234.0
X162.0Y-238.0
X162.0Y-242.0
X162.0Y-246.0
X162.0Y-250.0
X162.0Y-254.0
X162.0Y-258.0
X162.0Y-262.0
X162.0Y-266.0
X162.0Y-270.0
X162.0Y-274.0
X162.0Y-278.0
X163.0Y-18.0
X163.0Y-23.0
X163.0Y-28.0
X163.0Y-33.0
X163.0Y-38.0
X163.0Y-43.0
X163.0Y-48.0
X163.0Y-53.0
X163.0Y-58.0
X163.0Y-63.0
X163.0Y-68.0
X163.0Y-73.0
X163.0Y-78.0
X163.0Y-83.0
X163.0Y-88.0
X163.0Y-93.0
X163.0Y-98.0
X163.0Y-103.0
X163.0Y-108.0
X163.0Y-113.0
X163.0Y-118.0
X163.0Y-123.0
X163.0Y-128.0
X163.0Y-133.0
X163.0Y-138.0
X163.0Y-143.0
X163.0Y-148.0
X163.0Y-153.0
X163.0Y-158.0
X163.0Y-163.0
X163.0Y-168.0
X163.0Y-173.0
X163.0Y-178.0
X163.0Y-183.0
X163.0Y-188.0
X163.0Y-193.0
X163.0Y-198.0
X163.0Y-203.0
X163.0Y-208.0
X163.0Y-213.0
X163.0Y-218.0
X163.0Y-223.0
X163.0Y-228.0
X163.0Y-233.0
X163.0Y-238.0
X163.0Y-243.0
X163.0Y-248.0
X163.0Y-253.0
X163.0Y-258.0
X163.0Y-263.0
X163.0Y-268.0
X163.0Y-273.0
X163.0Y-278.0
X166.0Y-18.0
X166.0Y-22.0
X166.0Y-26.0
X166.0Y-30.0
X166.0Y-34.0
X166.0Y-38.0
X166.0Y-42.0
X166.0Y-46.0
X166.0Y-50.0
X166.0Y-54.0
X166.0Y-58.0
X166.0Y-62.0
X166.0Y-66.0
X166.0Y-70.0
X166.0Y-74.0
X166.0Y-78.0
X166.0Y-82.0
X166.0Y-86.0
X166.0Y-90.0
X166.0Y-94.0
X166.0Y-98.0
X166.0Y-102.0
X166.0Y-106.0
X166.0Y-110.0
X166.0Y-114.0
X166.0Y-118.0
X166.0Y-122.0
X166.0Y-126.0
X166.0Y-130.0
X166.0Y-134.0
X166.0Y-138.0
X166.0Y-142.0
X166.0Y-146.0
X166.0Y-150.0
X166.0Y-154.0
X166.0Y-158.0
X166.0Y-162.0
X166.0Y-166.0
X166.0Y-170.0
X166.0Y-174.0
X166.0Y-178.0
X166.0Y-182.0
X166.0Y-186.0
X166.0Y-190.0
X166.0Y-194.0
X166.0Y-198.0
X166.0Y-202.0
X166.0Y-206.0
X166.0Y-210.0
X166.0Y-214.0
X166.0Y-218.0
X166.0Y-222.0
X166.0Y-226.0
X166.0Y-230.0
X166.0Y-234.0
X166.0Y-238.0
X166.0Y-242.0
X166.0Y-246.0
X166.0Y-250.0
X166.0Y-254.0
X166.0Y-258.0
X166.0Y-262.0
X166.0Y-266.0
X166.0Y-270.0
X166.0Y-274.0
X166.0Y-278.0
X168.0Y-18.0
X168.0Y-23.0
X168.0Y-28.0
X168.0Y-33.0
X168.0Y-38.0
X168.0Y-43.0
X168.0Y-48.0
X168.0Y-53.0
X168.0Y-58.0
X168.0Y-63.0
X168.0Y-68.0
X168.0Y-73.0
X168.0Y-78.0
X168.0Y-83.0
X168.0Y-88.0
X168.0Y-93.0
X168.0Y-98.0
X168.0Y-103.0
X168.0Y-108.0
X168.0Y-113.0
X168.0Y-118.0
X168.0Y-123.0
X168.0Y-128.0
X168.0Y-133.0
X168.0Y-138.0
X168.0Y-143.0
X168.0Y-148.0
X168.0Y-153.0
X168.0Y-158.0
X168.0Y-163.0
X168.0Y-168.0
X168.0Y-173.0
X168.0Y-178.0
X168.0Y-183.0
X168.0Y-188.0
X168.0Y-193.0
X168.0Y-198.0
X168.0Y-203.0
X168.0Y-208.0
X168.0Y-213.0
X168.0Y-218.0
X168.0Y-223.0
X168.0Y-228.0
X168.0Y-233.0
X168.0Y-238.0
X168.0Y-243.0
X168.0Y-248.0
X168.0Y-253.0
X168.0Y-258.0
X168.0Y-263.0
X168.0Y-268.0
X168.0Y-273.0
X168.0Y-278.0
X170.0Y-18.0
X170.0Y-22.0
X170.0Y-26.0
X170.0Y-30.0
X170.0Y-34.0
X170.0Y-38.0
X170.0Y-42.0
X170.0Y-46.0
X170.0Y-50.0
X170.0Y-54.0
X170.0Y-58.0
X170.0Y-62.0
X170.0Y-66.0
X170.0Y-70.0
X170.0Y-74.0
X170.0Y-78.0
X170.0Y-82.0
X170.0Y-86.0
X170.0Y-90.0
X170.0Y-94.0
X170.0Y-98.0
X170.0Y-102.0
X170.0Y-106.0
X170.0Y-110.0
X170.0Y-114.0
X170.0Y-118.0
X170.0Y-122.0
X170.0Y-126.0
X170.0Y-130.0
X170.0Y-134.0
X170.0Y-138.0
X170.0Y-142.0
X170.0Y-146.0
X170.0Y-150.0
X170.0Y-154.0
X170.0Y-158.0
X170.0Y-162.0
X170.0Y-166.0
X170.0Y-170.0
X170.0Y-174.0
X170.0Y-178.0
X170.0Y-182.0
X170.0Y-186.0
X170.0Y-190.0
X170.0Y-194.0
X170.0Y-198.0
X170.0Y-202.0
X170.0Y-206.0
X170.0Y-210.0
X170.0Y-214.0
X170.0Y-218.0
X170.0Y-222.0
X170.0Y-226.0
X170.0Y-230.0
X170.0Y-234.0
X170.0Y-238.0
X170.0Y-242.0
X170.0Y-246.0
X170.0Y-250.0
X170.0Y-254.0
X170.0Y-258.0
X170.0Y-262.0
X170.0Y-266.0
X170.0Y-270.0
X170.0Y-274.0
X170.0Y-278.0
X173.0Y-18.0
X173.0Y-23.0
X173.0Y-28.0
X173.0Y-33.0
X173.0Y-38.0
X173.0Y-43.0
X173.0Y-48.0
X173.0Y-53.0
X173.0Y-58.0
X173.0Y-63.0
X173.0Y-68.0
X173.0Y-73.0
X173.0Y-78.0
X173.0Y-83.0
X173.0Y-88.0
X173.0Y-93.0
X173.0Y-98.0
X173.0Y-103.0
X173.0Y-108.0
X173.0Y-113.0
X173.0Y-118.0
X173.0Y-123.0
X173.0Y-128.0
X173.0Y-133.0
X173.0Y-138.0
X173.0Y-143.0
X173.0Y-148.0
X173.0Y-153.0
X173.0Y-158.0
X173.0Y-163.0
X173.0Y-168.0
X173.0Y-173.0
X173.0Y-178.0
X173.0Y-183.0
X173.0Y-188.0
X173.0Y-193.0
X173.0Y-198.0
X173.0Y-203.0
X173.0Y-208.0
X173.0Y-213.0
X173.0Y-218.0
X173.0Y-223.0
X173.0Y-228.0
X173.0Y-233.0
X173.0Y-238.0
X173.0Y-243.0
X173.0Y-248.0
X173.0Y-253.0
X173.0Y-258.0
X173.0Y-263.0
X173.0Y-268.0
X173.0Y-273.0
X173.0Y-278.0
X174.0Y-18.0
X174.0Y-22.0
X174.0Y-26.0
X174.0Y-30.0
X174.0Y-34.0
X174.0Y-38.0
X174.0Y-42.0
X174.0Y-46.0
X174.0Y-50.0
X174.0Y-54.0
X174.0Y-58.0
X174.0Y-62.0
X174.0Y-66.0
X174.0Y-70.0
X174.0Y-74.0
X174.0Y-78.0
X174.0Y-82.0
X174.0Y-86.0
X174.0Y-90.0
X174.0Y-94.0
X174.0Y-98.0
X174.0Y-102.0
X174.0Y-106.0
X174.0Y-110.0
X174.0Y-114.0
X174.0Y-118.0
X174.0Y-122.0
X174.0Y-126.0
X174.0Y-130.0
X174.0Y-134.0
X174.0Y-138.0
X174.0Y-142.0
X174.0Y-146.0
X174.0Y-150.0
X174.0Y-154.0
X174.0Y-158.0
X174.0Y-162.0
X174.0Y-166.0
X174.0Y-170.0
X174.0Y-174.0
X174.0Y-178.0
X174.0Y-182.0
X174.0Y-186.0
X174.0Y-190.0
X174.0Y-194.0
X174.0Y-198.0
X174.0Y-202.0
X174.0Y-206.0
X174.0Y-210.0
X174.0Y-214.0
X174.0Y-218.0
X174.0Y-222.0
X174.0Y-226.0
X174.0Y-230.0
X174.0Y-234.0
X174.0Y-238.0
X174.0Y-242.0
X174.0Y-246.0
X174.0Y-250.0
X174.0Y-254.0
X174.0Y-258.0
X174.0Y-262.0
X174.0Y-266.0
X174.0Y-270.0
X174.0Y-274.0
X174.0Y-278.0
X178.0Y-18.0
X178.0Y-18.0
X178.0Y-22.0
X178.0Y-23.0
X178.0Y-26.0
X178.0Y-28.0
X178.0Y-30.0
X178.0Y-33.0
X178.0Y-34.0
X178.0Y-38.0
X178.0Y-38.0
X178.0Y-42.0
X178.0Y-43.0
X178.0Y-46.0
X178.0Y-48.0
X178.0Y-50.0
X178.0Y-53.0
X178.0Y-54.0
X178.0Y-58.0
X178.0Y-58.0
X178.0Y-62.0
X178.0Y-63.0
X178.0Y-66.0
X178.0Y-68.0
X178.0Y-70.0
X178.0Y-73.0
X178.0Y-74.0
X178.0Y-78.0
X178.0Y-78.0
X178.0Y-82.0
X178.0Y-83.0
X178.0Y-86.0
X178.0Y-88.0
X178.0Y-90.0
X178.0Y-93.0
X178.0Y-94.0
X178.0Y-98.0
X178.0Y-98.0
X178.0Y-102.0
X178.0Y-103.0
X178.0Y-106.0
X178.0Y-108.0
X178.0Y-110.0
X178.0Y-113.0
X178.0Y-114.0
X178.0Y-118.0
X178.0Y-118.0
X178.0Y-122.0
X178.0Y-123.0
X178.0Y-126.0
X178.0Y-128.0
X178.0Y-130.0
X178.0Y-133.0
X178.0Y-134.0
X178.0Y-138.0
X178.0Y-138.0
X178.0Y-142.0
X178.0Y-143.0
X178.0Y-146.0
X178.0Y-148.0
X178.0Y-150.0
X178.0Y-153.0
X178.0Y-154.0
X178.0Y-158.0
X178.0Y-158.0
X178.0Y-162.0
X178.0Y-163.0
X178.0Y-166.0
X178.0Y-168.0
X178.0Y-170.0
X178.0Y-173.0
X178.0Y-174.0
X178.0Y-178.0
X178.0Y-178.0
X178.0Y-182.0
X178.0Y-183.0
X178.0Y-186.0
X178.0Y-188.0
X178.0Y-190.0
X178.0Y-193.0
X178.0Y-194.0
X178.0Y-198.0
X178.0Y-198.0
X178.0Y-202.0
X178.0Y-203.0
X178.0Y-206.0
X178.0Y-208.0
X178.0Y-210.0
X178.0Y-213.0
X178.0Y-214.0
X178.0Y-218.0
X178.0Y-218.0
X178.0Y-222.0
X178.0Y-223.0
X178.0Y-226.0
X178.0Y-228.0
X178.0Y-230.0
X178.0Y-233.0
X178.0Y-234.0
X178.0Y-238.0
X178.0Y-238.0
X178.0Y-242.0
X178.0Y-243.0
X178.0Y-246.0
X178.0Y-248.0
X178.0Y-250.0
X178.0Y-253.0
X178.0Y-254.0
X178.0Y-258.0
X178.0Y-258.0
X178.0Y-262.0
X178.0Y-263.0
X178.0Y-266.0
X178.0Y-268.0
X178.0Y-270.0
X178.0Y-273.0
X178.0Y-274.0
X178.0Y-278.0
X178.0Y-278.0
X182.0Y-18.0
X182.0Y-22.0
X182.0Y-26.0
X182.0Y-30.0
X182.0Y-34.0
X182.0Y-38.0
X182.0Y-42.0
X182.0Y-46.0
X182.0Y-50.0
X182.0Y-54.0
X182.0Y-58.0
X182.0Y-62.0
X182.0Y-66.0
X182.0Y-70.0
X182.0Y-74.0
X182.0Y-78.0
X182.0Y-82.0
X182.0Y-86.0
X182.0Y-90.0
X182.0Y-94.0
X182.0Y-98.0
X182.0Y-102.0
X182.0Y-106.0
X182.0Y-110.0
X182.0Y-114.0
X182.0Y-118.0
X182.0Y-122.0
X182.0Y-126.0
X182.0Y-130.0
X182.0Y-134.0
X182.0Y-138.0
X182.0Y-142.0
X182.0Y-146.0
X182.0Y-150.0
X182.0Y-154.0
X182.0Y-158.0
X182.0Y-162.0
X182.0Y-166.0
X182.0Y-170.0
X182.0Y-174.0
X182.0Y-178.0
X182.0Y-182.0
X182.0Y-186.0
X182.0Y-190.0
X182.0Y-194.0
X182.0Y-198.0
X182.0Y-202.0
X182.0Y-206.0
X182.0Y-210.0
X182.0Y-214.0
X182.0Y-218.0
X182.0Y-222.0
X182.0Y-226.0
X182.0Y-230.0
X182.0Y-234.0
X182.0Y-238.0
X182.0Y-242.0
X182.0Y-246.0
X182.0Y-250.0
X182.0Y-254.0
X182.0Y-258.0
X182.0Y-262.0
X182.0Y-266.0
X182.0Y-270.0
X182.0Y-274.0
X182.0Y-278.0
X183.0Y-18.0
X183.0Y-23.0
X183.0Y-28.0
X183.0Y-33.0
X183.0Y-38.0
X183.0Y-43.0
X183.0Y-48.0
X183.0Y-53.0
X183.0Y-58.0
X183.0Y-63.0
X183.0Y-68.0
X183.0Y-73.0
X183.0Y-78.0
X183.0Y-83.0
X183.0Y-88.0
X183.0Y-93.0
X183.0Y-98.0
X183.0Y-103.0
X183.0Y-108.0
X183.0Y-113.0
X183.0Y-118.0
X183.0Y-123.0
X183.0Y-128.0
X183.0Y-133.0
X183.0Y-138.0
X183.0Y-143.0
X183.0Y-148.0
X183.0Y-153.0
X183.0Y-158.0
X183.0Y-163.0
X183.0Y-168.0
X183.0Y-173.0
X183.0Y-178.0
X183.0Y-183.0
X183.0Y-188.0
X183.0Y-193.0
X183.0Y-198.0
X183.0Y-203.0
X183.0Y-208.0
X183.0Y-213.0
X183.0Y-218.0
X183.0Y-223.0
X183.0Y-228.0
X183.0Y-233.0
X183.0Y-238.0
X183.0Y-243.0
X183.0Y-248.0
X183.0Y-253.0
X183.0Y-258.0
X183.0Y-263.0
X183.0Y-268.0
X183.0Y-273.0
X183.0Y-278.0
X186.0Y-18.0
X186.0Y-22.0
X186.0Y-26.0
X186.0Y-30.0
X186.0Y-34.0
X186.0Y-38.0
X186.0Y-42.0
X186.0Y-46.0
X186.0Y-50.0
X186.0Y-54.0
X186.0Y-58.0
X186.0Y-62.0
X186.0Y-66.0
X186.0Y-70.0
X186.0Y-74.0
X186.0Y-78.0
X186.0Y-82.0
X186.0Y-86.0
X186.0Y-90.0
X186.0Y-94.0
X186.0Y-98.0
X186.0Y-102.0
X186.0Y-106.0
X186.0Y-110.0
X186.0Y-114.0
X186.0Y-118.0
X186.0Y-122.0
X186.0Y-126.0
X186.0Y-130.0
X186.0Y-134.0
X186.0Y-138.0
X186.0Y-142.0
X186.0Y-146.0
X186.0Y-150.0
X186.0Y-154.0
X186.0Y-158.0
X186.0Y-162.0
X186.0Y-166.0
X186.0Y-170.0
X186.0Y-174.0
X186.0Y-178.0
X186.0Y-182.0
X186.0Y-186.0
X186.0Y-190.0
X186.0Y-194.0
X186.0Y-198.0
X186.0Y-202.0
X186.0Y-206.0
X186.0Y-210.0
X186.0Y-214.0
X186.0Y-218.0
X186.0Y-222.0
X186.0Y-226.0
X186.0Y-230.0
X186.0Y-234.0
X186.0Y-238.0
X186.0Y-242.0
X186.0Y-246.0
X186.0Y-250.0
X186.0Y-254.0
X186.0Y-258.0
X186.0Y-262.0
X186.0Y-266.0
X186.0Y-270.0
X186.0Y-274.0
X186.0Y-278.0
X188.0Y-18.0
X188.0Y-23.0
X188.0Y-28.0
X188.0Y-33.0
X188.0Y-38.0
X188.0Y-43.0
X188.0Y-48.0
X188.0Y-53.0
X188.0Y-58.0
X188.0Y-63.0
X188.0Y-68.0
X188.0Y-73.0
X188.0Y-78.0
X188.0Y-83.0
X188.0Y-88.0
X188.0Y-93.0
X188.0Y-98.0
X188.0Y-103.0
X188.0Y-108.0
X188.0Y-113.0
X188.0Y-118.0
X188.0Y-123.0
X188.0Y-128.0
X188.0Y-133.0
X188.0Y-138.0
X188.0Y-143.0
X188.0Y-148.0
X188.0Y-153.0
X188.0Y-158.0
X188.0Y-163.0
X188.0Y-168.0
X188.0Y-173.0
X188.0Y-178.0
X188.0Y-183.0
X188.0Y-188.0
X188.0Y-193.0
X188.0Y-198.0
X188.0Y-203.0
X188.0Y-208.0
X188.0Y-213.0
X188.0Y-218.0
X188.0Y-223.0
X188.0Y-228.0
X188.0Y-233.0
X188.0Y-238.0
X188.0Y-243.0
X188.0Y-248.0
X188.0Y-253.0
X188.0Y-258.0
X188.0Y-263.0
X188.0Y-268.0
X188.0Y-273.0
X188.0Y-278.0
X190.0Y-18.0
X190.0Y-22.0
X190.0Y-26.0
X190.0Y-30.0
X190.0Y-34.0
X190.0Y-38.0
X190.0Y-42.0
X190.0Y-46.0
X190.0Y-50.0
X190.0Y-54.0
X190.0Y-58.0
X190.0Y-62.0
X190.0Y-66.0
X190.0Y-70.0
X190.0Y-74.0
X190.0Y-78.0
X190.0Y-82.0
X190.0Y-86.0
X190.0Y-90.0
X190.0Y-94.0
X190.0Y-98.0
X190.0Y-102.0
X190.0Y-106.0
X190.0Y-110.0
X190.0Y-114.0
X190.0Y-118.0
X190.0Y-122.0
X190.0Y-126.0
X190.0Y-130.0
X190.0Y-134.0
X190.0Y-138.0
X190.0Y-142.0
X190.0Y-146.0
X190.0Y-150.0
X190.0Y-154.0
X190.0Y-158.0
X190.0Y-162.0
X190.0Y-166.0
X190.0Y-170.0
X190.0Y-174.0
X190.0Y-178.0
X190.0Y-182.0
X190.0Y-186.0
X190.0Y-190.0
X190.0Y-194.0
X190.0Y-198.0
X190.0Y-202.0
X190.0Y-206.0
X190.0Y-210.0
X190.0Y-214.0
X190.0Y-218.0
X190.0Y-222.0
X190.0Y-226.0
X190.0Y-230.0
X190.0Y-234.0
X190.0Y-238.0
X190.0Y-242.0
X190.0Y-246.0
X190.0Y-250.0
X190.0Y-254.0
X190.0Y-258.0
X190.0Y-262.0
X190.0Y-266.0
X190.0Y-270.0
X190.0Y-274.0
X190.0Y-278.0
X193.0Y-18.0
X193.0Y-23.0
X193.0Y-28.0
X193.0Y-33.0
X193.0Y-38.0
X193.0Y-43.0
X193.0Y-48.0
X193.0Y-53.0
X193.0Y-58.0
X193.0Y-63.0
X193.0Y-68.0
X193.0Y-73.0
X193.0Y-78.0
X193.0Y-83.0
X193.0Y-88.0
X193.0Y-93.0
X193.0Y-98.0
X193.0Y-103.0
X193.0Y-108.0
X193.0Y-113.0
X193.0Y-118.0
X193.0Y-123.0
X193.0Y-128.0
X193.0Y-133.0
X193.0Y-138.0
X193.0Y-143.0
X193.0Y-148.0
X193.0Y-153.0
X193.0Y-158.0
X193.0Y-163.0
X193.0Y-168.0
X193.0Y-173.0
X193.0Y-178.0
X193.0Y-183.0
X193.0Y-188.0
X193.0Y-193.0
X193.0Y-198.0
X193.0Y-203.0
X193.0Y-208.0
X193.0Y-213.0
X193.0Y-218.0
X193.0Y-223.0
X193.0Y-228.0
X193.0Y-233.0
X193.0Y-238.0
X193.0Y-243.0
X193.0Y-248.0
X193.0Y-253.0
X193.0Y-258.0
X193.0Y-263.0
X193.0Y-268.0
X193.0Y-273.0
X193.0Y-278.0
X194.0Y-18.0
X194.0Y-22.0
X194.0Y-26.0
X194.0Y-30.0
X194.0Y-34.0
X194.0Y-38.0
X194.0Y-42.0
X194.0Y-46.0
X194.0Y-50.0
X194.0Y-54.0
X194.0Y-58.0
X194.0Y-62.0
X194.0Y-66.0
X194.0Y-70.0
X194.0Y-74.0
X194.0Y-78.0
X194.0Y-82.0
X194.0Y-86.0
X194.0Y-90.0
X194.0Y-94.0
X194.0Y-98.0
X194.0Y-102.0
X194.0Y-106.0
X194.0Y-110.0
X194.0Y-114.0
X194.0Y-118.0
X194.0Y-122.0
X194.0Y-126.0
X194.0Y-130.0
X194.0Y-134.0
X194.0Y-138.0
X194.0Y-142.0
X194.0Y-146.0
X194.0Y-150.0
X194.0Y-154.0
X194.0Y-158.0
X194.0Y-162.0
X194.0Y-166.0
X194.0Y-170.0
X194.0Y-174.0
X194.0Y-178.0
X194.0Y-182.0
X194.0Y-186.0
X194.0Y-190.0
X194.0Y-194.0
X194.0Y-198.0
X194.0Y-202.0
X194.0Y-206.0
X194.0Y-210.0
X194.0Y-214.0
X194.0Y-218.0
X194.0Y-222.0
X194.0Y-226.0
X194.0Y-230.0
X194.0Y-234.0
X194.0Y-238.0
X194.0Y-242.0
X194.0Y-246.0
X194.0Y-250.0
X194.0Y-254.0
X194.0Y-258.0
X194.0Y-262.0
X194.0Y-266.0
X194.0Y-270.0
X194.0Y-274.0
X194.0Y-278.0
X198.0Y-18.0
X198.0Y-18.0
X198.0Y-22.0
X198.0Y-23.0
X198.0Y-26.0
X198.0Y-28.0
X198.0Y-30.0
X198.0Y-33.0
X198.0Y-34.0
X198.0Y-38.0
X198.0Y-38.0
X198.0Y-42.0
X198.0Y-43.0
X198.0Y-46.0
X198.0Y-48.0
X198.0Y-50.0
X198.0Y-53.0
X198.0Y-54.0
X198.0Y-58.0
X198.0Y-58.0
X198.0Y-62.0
X198.0Y-63.0
X198.0Y-66.0
X198.0Y-68.0
X198.0Y-70.0
X198.0Y-73.0
X198.0Y-74.0
X198.0Y-78.0
X198.0Y-78.0
X198.0Y-82.0
X198.0Y-83.0
X198.0Y-86.0
X198.0Y-88.0
X198.0Y-90.0
X198.0Y-93.0
X198.0Y-94.0
X198.0Y-98.0
X198.0Y-98.0
X198.0Y-102.0
X198.0Y-103.0
X198.0Y-106.0
X198.0Y-108.0
X198.0Y-110.0
X198.0Y-113.0
X198.0Y-114.0
X198.0Y-118.0
X198.0Y-118.0
X198.0Y-122.0
X198.0Y-123.0
X198.0Y-126.0
X198.0Y-128.0
X198.0Y-130.0
X198.0Y-133.0
X198.0Y-134.0
X198.0Y-138.0
X198.0Y-138.0
X198.0Y-142.0
X198.0Y-143.0
X198.0Y-146.0
X198.0Y-148.0
X198.0Y-150.0
X198.0Y-153.0
X198.0Y-154.0
X198.0Y-158.0
X198.0Y-158.0
X198.0Y-162.0
X198.0Y-163.0
X198.0Y-166.0
X198.0Y-168.0
X198.0Y-170.0
X198.0Y-173.0
X198.0Y-174.0
X198.0Y-178.0
X198.0Y-178.0
X198.0Y-182.0
X198.0Y-183.0
X198.0Y-186.0
X198.0Y-188.0
X198.0Y-190.0
X198.0Y-193.0
X198.0Y-194.0
X198.0Y-198.0
X198.0Y-198.0
X198.0Y-202.0
X198.0Y-203.0
X198.0Y-206.0
X198.0Y-208.0
X198.0Y-210.0
X198.0Y-213.0
X198.0Y-214.0
X198.0Y-218.0
X198.0Y-218.0
X198.0Y-222.0
X198.0Y-223.0
X198.0Y-226.0
X198.0Y-228.0
X198.0Y-230.0
X198.0Y-233.0
X198.0Y-234.0
X198.0Y-238.0
X198.0Y-238.0
X198.0Y-242.0
X198.0Y-243.0
X198.0Y-246.0
X198.0Y-248.0
X198.0Y-250.0
X198.0Y-253.0
X198.0Y-254.0
X198.0Y-258.0
X198.0Y-258.0
X198.0Y-262.0
X198.0Y-263.0
X198.0Y-266.0
X198.0Y-268.0
X198.0Y-270.0
X198.0Y-273.0
X198.0Y-274.0
X198.0Y-278.0
X198.0Y-278.0
X202.0Y-18.0
X202.0Y-22.0
X202.0Y-26.0
X202.0Y-30.0
X202.0Y-34.0
X202.0Y-38.0
X202.0Y-42.0
X202.0Y-46.0
X202.0Y-50.0
X202.0Y-54.0
X202.0Y-58.0
X202.0Y-62.0
X202.0Y-66.0
X202.0Y-70.0
X202.0Y-74.0
X202.0Y-78.0
X202.0Y-82.0
X202.0Y-86.0
X202.0Y-90.0
X202.0Y-94.0
X202.0Y-98.0
X202.0Y-102.0
X202.0Y-106.0
X202.0Y-110.0
X202.0Y-114.0
X202.0Y-118.0
X202.0Y-122.0
X202.0Y-126.0
X202.0Y-130.0
X202.0Y-134.0
X202.0Y-138.0
X202.0Y-142.0
X202.0Y-146.0
X202.0Y-150.0
X202.0Y-154.0
X202.0Y-158.0
X202.0Y-162.0
X202.0Y-166.0
X202.0Y-170.0
X202.0Y-174.0
X202.0Y-178.0
X202.0Y-182.0
X202.0Y-186.0
X202.0Y-190.0
X202.0Y-194.0
X202.0Y-198.0
X202.0Y-202.0
X202.0Y-206.0
X202.0Y-210.0
X202.0Y-214.0
X202.0Y-218.0
X202.0Y-222.0
X202.0Y-226.0
X202.0Y-230.0
X202.0Y-234.0
X202.0Y-238.0
X202.0Y-242.0
X202.0Y-246.0
X202.0Y-250.0
X202.0Y-254.0
X202.0Y-258.0
X202.0Y-262.0
X202.0Y-266.0
X202.0Y-270.0
X202.0Y-274.0
X202.0Y-278.0
X203.0Y-18.0
X203.0Y-23.0
X203.0Y-28.0
X203.0Y-33.0
X203.0Y-38.0
X203.0Y-43.0
X203.0Y-48.0
X203.0Y-53.0
X203.0Y-58.0
X203.0Y-63.0
X203.0Y-68.0
X203.0Y-73.0
X203.0Y-78.0
X203.0Y-83.0
X203.0Y-88.0
X203.0Y-93.0
X203.0Y-98.0
X203.0Y-103.0
X203.0Y-108.0
X203.0Y-113.0
X203.0Y-118.0
X203.0Y-123.0
X203.0Y-128.0
X203.0Y-133.0
X203.0Y-138.0
X203.0Y-143.0
X203.0Y-148.0
X203.0Y-153.0
X203.0Y-158.0
X203.0Y-163.0
X203.0Y-168.0
X203.0Y-173.0
X203.0Y-178.0
X203.0Y-183.0
X203.0Y-188.0
X203.0Y-193.0
X203.0Y-198.0
X203.0Y-203.0
X203.0Y-208.0
X203.0Y-213.0
X203.0Y-218.0
X203.0Y-223.0
X203.0Y-228.0
X203.0Y-233.0
X203.0Y-238.0
X203.0Y-243.0
X203.0Y-248.0
X203.0Y-253.0
X203.0Y-258.0
X203.0Y-263.0
X203.0Y-268.0
X203.0Y-273.0
X203.0Y-278.0
X206.0Y-18.0
X206.0Y-22.0
X206.0Y-26.0
X206.0Y-30.0
X206.0Y-34.0
X206.0Y-38.0
X206.0Y-42.0
X206.0Y-46.0
X206.0Y-50.0
X206.0Y-54.0
X206.0Y-58.0
X206.0Y-62.0
X206.0Y-66.0
X206.0Y-70.0
X206.0Y-74.0
X206.0Y-78.0
X206.0Y-82.0
X206.0Y-86.0
X206.0Y-90.0
X206.0Y-94.0
X206.0Y-98.0
X206.0Y-102.0
X206.0Y-106.0
X206.0Y-110.0
X206.0Y-114.0
X206.0Y-118.0
X206.0Y-122.0
X206.0Y-126.0
X206.0Y-130.0
X206.0Y-134.0
X206.0Y-138.0
X206.0Y-142.0
X206.0Y-146.0
X206.0Y-150.0
X206.0Y-154.0
X206.0Y-158.0
X206.0Y-162.0
X206.0Y-166.0
X206.0Y-170.0
X206.0Y-174.0
X206.0Y-178.0
X206.0Y-182.0
X206.0Y-186.0
X206.0Y-190.0
X206.0Y-194.0
X206.0Y-198.0
X206.0Y-202.0
X206.0Y-206.0
X206.0Y-210.0
X206.0Y-214.0
X206.0Y-218.0
X206.0Y-222.0
X206.0Y-226.0
X206.0Y-230.0
X206.0Y-234.0
X206.0Y-238.0
X206.0Y-242.0
X206.0Y-246.0
X206.0Y-250.0
X206.0Y-254.0
X206.0Y-258.0
X206.0Y-262.0
X206.0Y-266.0
X206.0Y-270.0
X206.0Y-274.0
X206.0Y-278.0
X208.0Y-18.0
X208.0Y-23.0
X208.0Y-28.0
X208.0Y-33.0
X208.0Y-38.0
X208.0Y-43.0
X208.0Y-48.0
X208.0Y-53.0
X208.0Y-58.0
X208.0Y-63.0
X208.0Y-68.0
X208.0Y-73.0
X208.0Y-78.0
X208.0Y-83.0
X208.0Y-88.0
X208.0Y-93.0
X208.0Y-98.0
X208.0Y-103.0
X208.0Y-108.0
X208.0Y-113.0
X208.0Y-118.0
X208.0Y-123.0
X208.0Y-128.0
X208.0Y-133.0
X208.0Y-138.0
X208.0Y-143.0
X208.0Y-148.0
X208.0Y-153.0
X208.0Y-158.0
X208.0Y-163.0
X208.0Y-168.0
X208.0Y-173.0
X208.0Y-178.0
X208.0Y-183.0
X208.0Y-188.0
X208.0Y-193.0
X208.0Y-198.0
X208.0Y-203.0
X208.0Y-208.0
X208.0Y-213.0
X208.0Y-218.0
X208.0Y-223.0
X208.0Y-228.0
X208.0Y-233.0
X208.0Y-238.0
X208.0Y-243.0
X208.0Y-248.0
X208.0Y-253.0
X208.0Y-258.0
X208.0Y-263.0
X208.0Y-268.0
X208.0Y-273.0
X208.0Y-278.0
X210.0Y-18.0
X210.0Y-22.0
X210.0Y-26.0
X210.0Y-30.0
X210.0Y-34.0
X210.0Y-38.0
X210.0Y-42.0
X210.0Y-46.0
X210.0Y-50.0
X210.0Y-54.0
X210.0Y-58.0
X210.0Y-62.0
X210.0Y-66.0
X210.0Y-70.0
X210.0Y-74.0
X210.0Y-78.0
X210.0Y-82.0
X210.0Y-86.0
X210.0Y-90.0
X210.0Y-94.0
X210.0Y-98.0
X210.0Y-102.0
X210.0Y-106.0
X210.0Y-110.0
X210.0Y-114.0
X210.0Y-118.0
X210.0Y-122.0
X210.0Y-126.0
X210.0Y-130.0
X210.0Y-134.0
X210.0Y-138.0
X210.0Y-142.0
X210.0Y-146.0
X210.0Y-150.0
X210.0Y-154.0
X210.0Y-158.0
X210.0Y-162.0
X210.0Y-166.0
X210.0Y-170.0
X210.0Y-174.0
X210.0Y-178.0
X210.0Y-182.0
X210.0Y-186.0
X210.0Y-190.0
X210.0Y-194.0
X210.0Y-198.0
X210.0Y-202.0
X210.0Y-206.0
X210.0Y-210.0
X210.0Y-214.0
X210.0Y-218.0
X210.0Y-222.0
X210.0Y-226.0
X210.0Y-230.0
X210.0Y-234.0
X210.0Y-238.0
X210.0Y-242.0
X210.0Y-246.0
X210.0Y-250.0
X210.0Y-254.0
X210.0Y-258.0
X210.0Y-262.0
X210.0Y-266.0
X210.0Y-270.0
X210.0Y-274.0
X210.0Y-278.0
X213.0Y-18.0
X213.0Y-23.0
X213.0Y-28.0
X213.0Y-33.0
X213.0Y-38.0
X213.0Y-43.0
X213.0Y-48.0
X213.0Y-53.0
X213.0Y-58.0
X213.0Y-63.0
X213.0Y-68.0
X213.0Y-73.0
X213.0Y-78.0
X213.0Y-83.0
X213.0Y-88.0
X213.0Y-93.0
X213.0Y-98.0
X213.0Y-103.0
X213.0Y-108.0
X213.0Y-113.0
X213.0Y-118.0
X213.0Y-123.0
X213.0Y-128.0
X213.0Y-133.0
X213.0Y-138.0
X213.0Y-143.0
X213.0Y-148.0
X213.0Y-153.0
X213.0Y-158.0
X213.0Y-163.0
X213.0Y-168.0
X213.0Y-173.0
X213.0Y-178.0
X213.0Y-183.0
X213.0Y-188.0
X213.0Y-193.0
X213.0Y-198.0
X213.0Y-203.0
X213.0Y-208.0
X213.0Y-213.0
X213.0Y-218.0
X213.0Y-223.0
X213.0Y-228.0
X213.0Y-233.0
X213.0Y-238.0
X213.0Y-243.0
X213.0Y-248.0
X213.0Y-253.0
X213.0Y-258.0
X213.0Y-263.0
X213.0Y-268.0
X213.0Y-273.0
X213.0Y-278.0
X214.0Y-18.0
X214.0Y-22.0
X214.0Y-26.0
X214.0Y-30.0
X214.0Y-34.0
X214.0Y-38.0
X214.0Y-42.0
X214.0Y-46.0
X214.0Y-50.0
X214.0Y-54.0
X214.0Y-58.0
X214.0Y-62.0
X214.0Y-66.0
X214.0Y-70.0
X214.0Y-74.0
X214.0Y-78.0
X214.0Y-82.0
X214.0Y-86.0
X214.0Y-90.0
X214.0Y-94.0
X214.0Y-98.0
X214.0Y-102.0
X214.0Y-106.0
X214.0Y-110.0
X214.0Y-114.0
X214.0Y-118.0
X214.0Y-122.0
X214.0Y-126.0
X214.0Y-130.0
X214.0Y-134.0
X214.0Y-138.0
X214.0Y-142.0
X214.0Y-146.0
X214.0Y-150.0
X214.0Y-154.0
X214.0Y-158.0
X214.0Y-162.0
X214.0Y-166.0
X214.0Y-170.0
X214.0Y-174.0
X214.0Y-178.0
X214.0Y-182.0
X214.0Y-186.0
X214.0Y-190.0
X214.0Y-194.0
X214.0Y-198.0
X214.0Y-202.0
X214.0Y-206.0
X214.0Y-210.0
X214.0Y-214.0
X214.0Y-218.0
X214.0Y-222.0
X214.0Y-226.0
X214.0Y-230.0
X214.0Y-234.0
X214.0Y-238.0
X214.0Y-242.0
X214.0Y-246.0
X214.0Y-250.0
X214.0Y-254.0
X214.0Y-258.0
X214.0Y-262.0
X214.0Y-266.0
X214.0Y-270.0
X214.0Y-274.0
X214.0Y-278.0
X218.0Y-18.0
X218.0Y-18.0
X218.0Y-22.0
X218.0Y-23.0
X218.0Y-26.0
X218.0Y-28.0
X218.0Y-30.0
X218.0Y-33.0
X218.0Y-34.0
X218.0Y-38.0
X218.0Y-38.0
X218.0Y-42.0
X218.0Y-43.0
X218.0Y-46.0
X218.0Y-48.0
X218.0Y-50.0
X218.0Y-53.0
X218.0Y-54.0
X218.0Y-58.0
X218.0Y-58.0
X218.0Y-62.0
X218.0Y-63.0
X218.0Y-66.0
X218.0Y-68.0
X218.0Y-70.0
X218.0Y-73.0
X218.0Y-74.0
X218.0Y-78.0
X218.0Y-78.0
X218.0Y-82.0
X218.0Y-83.0
X218.0Y-86.0
X218.0Y-88.0
X218.0Y-90.0
X218.0Y-93.0
X218.0Y-94.0
X218.0Y-98.0
X218.0Y-98.0
X218.0Y-102.0
X218.0Y-103.0
X218.0Y-106.0
X218.0Y-108.0
X218.0Y-110.0
X218.0Y-113.0
X218.0Y-114.0
X218.0Y-118.0
X218.0Y-118.0
X218.0Y-122.0
X218.0Y-123.0
X218.0Y-126.0
X218.0Y-128.0
X218.0Y-130.0
X218.0Y-133.0
X218.0Y-134.0
X218.0Y-138.0
X218.0Y-138.0
X218.0Y-142.0
X218.0Y-143.0
X218.0Y-146.0
X218.0Y-148.0
X218.0Y-150.0
X218.0Y-153.0
X218.0Y-154.0
X218.0Y-158.0
X218.0Y-158.0
X218.0Y-162.0
X218.0Y-163.0
X218.0Y-166.0
X218.0Y-168.0
X218.0Y-170.0
X218.0Y-173.0
X218.0Y-174.0
X218.0Y-178.0
X218.0Y-178.0
X218.0Y-182.0
X218.0Y-183.0
X218.0Y-186.0
X218.0Y-188.0
X218.0Y-190.0
X218.0Y-193.0
X218.0Y-194.0
X218.0Y-198.0
X218.0Y-198.0
X218.0Y-202.0
X218.0Y-203.0
X218.0Y-206.0
X218.0Y-208.0
X218.0Y-210.0
X218.0Y-213.0
X218.0Y-214.0
X218.0Y-218.0
X218.0Y-218.0
X218.0Y-222.0
X218.0Y-223.0
X218.0Y-226.0
X218.0Y-228.0
X218.0Y-230.0
X218.0Y-233.0
X218.0Y-234.0
X218.0Y-238.0
X218.0Y-238.0
X218.0Y-242.0
X218.0Y-243.0
X218.0Y-246.0
X218.0Y-248.0
X218.0Y-250.0
X218.0Y-253.0
X218.0Y-254.0
X218.0Y-258.0
X218.0Y-258.0
X218.0Y-262.0
X218.0Y-263.0
X218.0Y-266.0
X218.0Y-268.0
X218.0Y-270.0
X218.0Y-273.0
X218.0Y-274.0
X218.0Y-278.0
X218.0Y-278.0
X222.0Y-18.0
X222.0Y-22.0
X222.0Y-26.0
X222.0Y-30.0
X222.0Y-34.0
X222.0Y-38.0
X222.0Y-42.0
X222.0Y-46.0
X222.0Y-50.0
X222.0Y-54.0
X222.0Y-58.0
X222.0Y-62.0
X222.0Y-66.0
X222.0Y-70.0
X222.0Y-74.0
X222.0Y-78.0
X222.0Y-82.0
X222.0Y-86.0
X222.0Y-90.0
X222.0Y-94.0
X222.0Y-98.0
X222.0Y-102.0
X222.0Y-106.0
X222.0Y-110.0
X222.0Y-114.0
X222.0Y-118.0
X222.0Y-122.0
X222.0Y-126.0
X222.0Y-130.0
X222.0Y-134.0
X222.0Y-138.0
X222.0Y-142.0
X222.0Y-146.0
X222.0Y-150.0
X222.0Y-154.0
X222.0Y-158.0
X222.0Y-162.0
X222.0Y-166.0
X222.0Y-170.0
X222.0Y-174.0
X222.0Y-178.0
X222.0Y-182.0
X222.0Y-186.0
X222.0Y-190.0
X222.0Y-194.0
X222.0Y-198.0
X222.0Y-202.0
X222.0Y-206.0
X222.0Y-210.0
X222.0Y-214.0
X222.0Y-218.0
X222.0Y-222.0
X222.0Y-226.0
X222.0Y-230.0
X222.0Y-234.0
X222.0Y-238.0
X222.0Y-242.0
X222.0Y-246.0
X222.0Y-250.0
X222.0Y-254.0
X222.0Y-258.0
X222.0Y-262.0
X222.0Y-266.0
X222.0Y-270.0
X222.0Y-274.0
X222.0Y-278.0
X223.0Y-18.0
X223.0Y-23.0
X223.0Y-28.0
X223.0Y-33.0
X223.0Y-38.0
X223.0Y-43.0
X223.0Y-48.0
X223.0Y-53.0
X223.0Y-58.0
X223.0Y-63.0
X223.0Y-68.0
X223.0Y-73.0
X223.0Y-78.0
X223.0Y-83.0
X223.0Y-88.0
X223.0Y-93.0
X223.0Y-98.0
X223.0Y-103.0
X223.0Y-108.0
X223.0Y-113.0
X223.0Y-118.0
X223.0Y-123.0
X223.0Y-128.0
X223.0Y-133.0
X223.0Y-138.0
X223.0Y-143.0
X223.0Y-148.0
X223.0Y-153.0
X223.0Y-158.0
X223.0Y-163.0
X223.0Y-168.0
X223.0Y-173.0
X223.0Y-178.0
X223.0Y-183.0
X223.0Y-188.0
X223.0Y-193.0
X223.0Y-198.0
X223.0Y-203.0
X223.0Y-208.0
X223.0Y-213.0
X223.0Y-218.0
X223.0Y-223.0
X223.0Y-228.0
X223.0Y-233.0
X223.0Y-238.0
X223.0Y-243.0
X223.0Y-248.0
X223.0Y-253.0
X223.0Y-258.0
X223.0Y-263.0
X223.0Y-268.0
X223.0Y-273.0
X223.0Y-278.0
X226.0Y-18.0
X226.0Y-22.0
X226.0Y-26.0
X226.0Y-30.0
X226.0Y-34.0
X226.0Y-38.0
X226.0Y-42.0
X226.0Y-46.0
X226.0Y-50.0
X226.0Y-54.0
X226.0Y-58.0
X226.0Y-62.0
X226.0Y-66.0
X226.0Y-70.0
X226.0Y-74.0
X226.0Y-78.0
X226.0Y-82.0
X226.0Y-86.0
X226.0Y-90.0
X226.0Y-94.0
X226.0Y-98.0
X226.0Y-102.0
X226.0Y-106.0
X226.0Y-110.0
X226.0Y-114.0
X226.0Y-118.0
X226.0Y-122.0
X226.0Y-126.0
X226.0Y-130.0
X226.0Y-134.0
X226.0Y-138.0
X226.0Y-142.0
X226.0Y-146.0
X226.0Y-150.0
X226.0Y-154.0
X226.0Y-158.0
X226.0Y-162.0
X226.0Y-166.0
X226.0Y-170.0
X226.0Y-174.0
X226.0Y-178.0
X226.0Y-182.0
X226.0Y-186.0
X226.0Y-190.0
X226.0Y-194.0
X226.0Y-198.0
X226.0Y-202.0
X226.0Y-206.0
X226.0Y-210.0
X226.0Y-214.0
X226.0Y-218.0
X226.0Y-222.0
X226.0Y-226.0
X226.0Y-230.0
X226.0Y-234.0
X226.0Y-238.0
X226.0Y-242.0
X226.0Y-246.0
X226.0Y-250.0
X226.0Y-254.0
X226.0Y-258.0
X226.0Y-262.0
X226.0Y-266.0
X226.0Y-270.0
X226.0Y-274.0
X226.0Y-278.0
X228.0Y-18.0
X228.0Y-23.0
X228.0Y-28.0
X228.0Y-33.0
X228.0Y-38.0
X228.0Y-43.0
X228.0Y-48.0
X228.0Y-53.0
X228.0Y-58.0
X228.0Y-63.0
X228.0Y-68.0
X228.0Y-73.0
X228.0Y-78.0
X228.0Y-83.0
X228.0Y-88.0
X228.0Y-93.0
X228.0Y-98.0
X228.0Y-103.0
X228.0Y-108.0
X228.0Y-113.0
X228.0Y-118.0
X228.0Y-123.0
X228.0Y-128.0
X228.0Y-133.0
X228.0Y-138.0
X228.0Y-143.0
X228.0Y-148.0
X228.0Y-153.0
X228.0Y-158.0
X228.0Y-163.0
X228.0Y-168.0
X228.0Y-173.0
X228.0Y-178.0
X228.0Y-183.0
X228.0Y-188.0
X228.0Y-193.0
X228.0Y-198.0
X228.0Y-203.0
X228.0Y-208.0
X228.0Y-213.0
X228.0Y-218.0
X228.0Y-223.0
X228.0Y-228.0
X228.0Y-233.0
X228.0Y-238.0
X228.0Y-243.0
X228.0Y-248.0
X228.0Y-253.0
X228.0Y-258.0
X228.0Y-263.0
X228.0Y-268.0
X228.0Y-273.0
X228.0Y-278.0
X230.0Y-18.0
X230.0Y-22.0
X230.0Y-26.0
X230.0Y-30.0
X230.0Y-34.0
X230.0Y-38.0
X230.0Y-42.0
X230.0Y-46.0
X230.0Y-50.0
X230.0Y-54.0
X230.0Y-58.0
X230.0Y-62.0
X230.0Y-66.0
X230.0Y-70.0
X230.0Y-74.0
X230.0Y-78.0
X230.0Y-82.0
X230.0Y-86.0
X230.0Y-90.0
X230.0Y-94.0
X230.0Y-98.0
X230.0Y-102.0
X230.0Y-106.0
X230.0Y-110.0
X230.0Y-114.0
X230.0Y-118.0
X230.0Y-122.0
X230.0Y-126.0
X230.0Y-130.0
X230.0Y-134.0
X230.0Y-138.0
X230.0Y-142.0
X230.0Y-146.0
X230.0Y-150.0
X230.0Y-154.0
X230.0Y-158.0
X230.0Y-162.0
X230.0Y-166.0
X230.0Y-170.0
X230.0Y-174.0
X230.0Y-178.0
X230.0Y-182.0
X230.0Y-186.0
X230.0Y-190.0
X230.0Y-194.0
X230.0Y-198.0
X230.0Y-202.0
X230.0Y-206.0
X230.0Y-210.0
X230.0Y-214.0
X230.0Y-218.0
X230.0Y-222.0
X230.0Y-226.0
X230.0Y-230.0
X230.0Y-234.0
X230.0Y-238.0
X230.0Y-242.0
X230.0Y-246.0
X230.0Y-250.0
X230.0Y-254.0
X230.0Y-258.0
X230.0Y-262.0
X230.0Y-266.0
X230.0Y-270.0
X230.0Y-274.0
X230.0Y-278.0
X233.0Y-18.0
X233.0Y-23.0
X233.0Y-28.0
X233.0Y-33.0
X233.0Y-38.0
X233.0Y-43.0
X233.0Y-48.0
X233.0Y-53.0
X233.0Y-58.0
X233.0Y-63.0
X233.0Y-68.0
X233.0Y-73.0
X233.0Y-78.0
X233.0Y-83.0
X233.0Y-88.0
X233.0Y-93.0
X233.0Y-98.0
X233.0Y-103.0
X233.0Y-108.0
X233.0Y-113.0
X233.0Y-118.0
X233.0Y-123.0
X233.0Y-128.0
X233.0Y-133.0
X233.0Y-138.0
X233.0Y-143.0
X233.0Y-148.0
X233.0Y-153.0
X233.0Y-158.0
X233.0Y-163.0
X233.0Y-168.0
X233.0Y-173.0
X233.0Y-178.0
X233.0Y-183.0
X233.0Y-188.0
X233.0Y-193.0
X233.0Y-198.0
X233.0Y-203.0
X233.0Y-208.0
X233.0Y-213.0
X233.0Y-218.0
X233.0Y-223.0
X233.0Y-228.0
X233.0Y-233.0
X233.0Y-238.0
X233.0Y-243.0
X233.0Y-248.0
X233.0Y-253.0
X233.0Y-258.0
X233.0Y-263.0
X233.0Y-268.0
X233.0Y-273.0
X233.0Y-278.0
X234.0Y-18.0
X234.0Y-22.0
X234.0Y-26.0
X234.0Y-30.0
X234.0Y-34.0
X234.0Y-38.0
X234.0Y-42.0
X234.0Y-46.0
X234.0Y-50.0
X234.0Y-54.0
X234.0Y-58.0
X234.0Y-62.0
X234.0Y-66.0
X234.0Y-70.0
X234.0Y-74.0
X234.0Y-78.0
X234.0Y-82.0
X234.0Y-86.0
X234.0Y-90.0
X234.0Y-94.0
X234.0Y-98.0
X234.0Y-102.0
X234.0Y-106.0
X234.0Y-110.0
X234.0Y-114.0
X234.0Y-118.0
X234.0Y-122.0
X234.0Y-126.0
X234.0Y-130.0
X234.0Y-134.0
X234.0Y-138.0
X234.0Y-142.0
X234.0Y-146.0
X234.0Y-150.0
X234.0Y-154.0
X234.0Y-158.0
X234.0Y-162.0
X234.0Y-166.0
X234.0Y-170.0
X234.0Y-174.0
X234.0Y-178.0
X234.0Y-182.0
X234.0Y-186.0
X234.0Y-190.0
X234.0Y-194.0
X234.0Y-198.0
X234.0Y-202.0
X234.0Y-206.0
X234.0Y-210.0
X234.0Y-214.0
X234.0Y-218.0
X234.0Y-222.0
X234.0Y-226.0
X234.0Y-230.0
X234.0Y-234.0
X234.0Y-238.0
X234.0Y-242.0
X234.0Y-246.0
X234.0Y-250.0
X234.0Y-254.0
X234.0Y-258.0
X234.0Y-262.0
X234.0Y-266.0
X234.0Y-270.0
X234.0Y-274.0
X234.0Y-278.0
X238.0Y-18.0
X238.0Y-18.0
X238.0Y-22.0
X238.0Y-23.0
X238.0Y-26.0
X238.0Y-28.0
X238.0Y-30.0
X238.0Y-33.0
X238.0Y-34.0
X238.0Y-38.0
X238.0Y-38.0
X238.0Y-42.0
X238.0Y-43.0
X238.0Y-46.0
X238.0Y-48.0
X238.0Y-50.0
X238.0Y-53.0
X238.0Y-54.0
X238.0Y-58.0
X238.0Y-58.0
X238.0Y-62.0
X238.0Y-63.0
X238.0Y-66.0
X238.0Y-68.0
X238.0Y-70.0
X238.0Y-73.0
X238.0Y-74.0
X238.0Y-78.0
X238.0Y-78.0
X238.0Y-82.0
X238.0Y-83.0
X238.0Y-86.0
X238.0Y-88.0
X238.0Y-90.0
X238.0Y-93.0
X238.0Y-94.0
X238.0Y-98.0
X238.0Y-98.0
X238.0Y-102.0
X238.0Y-103.0
X238.0Y-106.0
X238.0Y-108.0
X238.0Y-110.0
X238.0Y-113.0
X238.0Y-114.0
X238.0Y-118.0
X238.0Y-118.0
X238.0Y-122.0
X238.0Y-123.0
X238.0Y-126.0
X238.0Y-128.0
X238.0Y-130.0
X238.0Y-133.0
X238.0Y-134.0
X238.0Y-138.0
X238.0Y-138.0
X238.0Y-142.0
X238.0Y-143.0
X238.0Y-146.0
X238.0Y-148.0
X238.0Y-150.0
X238.0Y-153.0
X238.0Y-154.0
X238.0Y-158.0
X238.0Y-158.0
X238.0Y-162.0
X238.0Y-163.0
X238.0Y-166.0
X238.0Y-168.0
X238.0Y-170.0
X238.0Y-173.0
X238.0Y-174.0
X238.0Y-178.0
X238.0Y-178.0
X238.0Y-182.0
X238.0Y-183.0
X238.0Y-186.0
X238.0Y-188.0
X238.0Y-190.0
X238.0Y-193.0
X238.0Y-194.0
X238.0Y-198.0
X238.0Y-198.0
X238.0Y-202.0
X238.0Y-203.0
X238.0Y-206.0
X238.0Y-208.0
X238.0Y-210.0
X238.0Y-213.0
X238.0Y-214.0
X238.0Y-218.0
X238.0Y-218.0
X238.0Y-222.0
X238.0Y-223.0
X238.0Y-226.0
X238.0Y-228.0
X238.0Y-230.0
X238.0Y-233.0
X238.0Y-234.0
X238.0Y-238.0
X238.0Y-238.0
X238.0Y-242.0
X238.0Y-243.0
X238.0Y-246.0
X238.0Y-248.0
X238.0Y-250.0
X238.0Y-253.0
X238.0Y-254.0
X238.0Y-258.0
X238.0Y-258.0
X238.0Y-262.0
X238.0Y-263.0
X238.0Y-266.0
X238.0Y-268.0
X238.0Y-270.0
X238.0Y-273.0
X238.0Y-274.0
X238.0Y-278.0
X238.0Y-278.0
X242.0Y-18.0
X242.0Y-22.0
X242.0Y-26.0
X242.0Y-30.0
X242.0Y-34.0
X242.0Y-38.0
X242.0Y-42.0
X242.0Y-46.0
X242.0Y-50.0
X242.0Y-54.0
X242.0Y-58.0
X242.0Y-62.0
X242.0Y-66.0
X242.0Y-70.0
X242.0Y-74.0
X242.0Y-78.0
X242.0Y-82.0
X242.0Y-86.0
X242.0Y-90.0
X242.0Y-94.0
X242.0Y-98.0
X242.0Y-102.0
X242.0Y-106.0
X242.0Y-110.0
X242.0Y-114.0
X242.0Y-118.0
X242.0Y-122.0
X242.0Y-126.0
X242.0Y-130.0
X242.0Y-134.0
X242.0Y-138.0
X242.0Y-142.0
X242.0Y-146.0
X242.0Y-150.0
X242.0Y-154.0
X242.0Y-158.0
X242.0Y-162.0
X242.0Y-166.0
X242.0Y-170.0
X242.0Y-174.0
X242.0Y-178.0
X242.0Y-182.0
X242.0Y-186.0
X242.0Y-190.0
X242.0Y-194.0
X242.0Y-198.0
X242.0Y-202.0
X242.0Y-206.0
X242.0Y-210.0
X242.0Y-214.0
X242.0Y-218.0
X242.0Y-222.0
X242.0Y-226.0
X242.0Y-230.0
X242.0Y-234.0
X242.0Y-238.0
X242.0Y-242.0
X242.0Y-246.0
X242.0Y-250.0
X242.0Y-254.0
X242.0Y-258.0
X242.0Y-262.0
X242.0Y-266.0
X242.0Y-270.0
X242.0Y-274.0
X242.0Y-278.0
X243.0Y-18.0
X243.0Y-23.0
X243.0Y-28.0
X243.0Y-33.0
X243.0Y-38.0
X243.0Y-43.0
X243.0Y-48.0
X243.0Y-53.0
X243.0Y-58.0
X243.0Y-63.0
X243.0Y-68.0
X243.0Y-73.0
X243.0Y-78.0
X243.0Y-83.0
X243.0Y-88.0
X243.0Y-93.0
X243.0Y-98.0
X243.0Y-103.0
X243.0Y-108.0
X243.0Y-113.0
X243.0Y-118.0
X243.0Y-123.0
X243.0Y-128.0
X243.0Y-133.0
X243.0Y-138.0
X243.0Y-143.0
X243.0Y-148.0
X243.0Y-153.0
X243.0Y-158.0
X243.0Y-163.0
X243.0Y-168.0
X243.0Y-173.0
X243.0Y-178.0
X243.0Y-183.0
X243.0Y-188.0
X243.0Y-193.0
X243.0Y-198.0
X243.0Y-203.0
X243.0Y-208.0
X243.0Y-213.0
X243.0Y-218.0
X243.0Y-223.0
X243.0Y-228.0
X243.0Y-233.0
X243.0Y-238.0
X243.0Y-243.0
X243.0Y-248.0
X243.0Y-253.0
X243.0Y-258.0
X243.0Y-263.0
X243.0Y-268.0
X243.0Y-273.0
X243.0Y-278.0
X246.0Y-18.0
X246.0Y-22.0
X246.0Y-26.0
X246.0Y-30.0
X246.0Y-34.0
X246.0Y-38.0
X246.0Y-42.0
X246.0Y-46.0
X246.0Y-50.0
X246.0Y-54.0
X246.0Y-58.0
X246.0Y-62.0
X246.0Y-66.0
X246.0Y-70.0
X246.0Y-74.0
X246.0Y-78.0
X246.0Y-82.0
X246.0Y-86.0
X246.0Y-90.0
X246.0Y-94.0
X246.0Y-98.0
X246.0Y-102.0
X246.0Y-106.0
X246.0Y-110.0
X246.0Y-114.0
X246.0Y-118.0
X246.0Y-122.0
X246.0Y-126.0
X246.0Y-130.0
X246.0Y-134.0
X246.0Y-138.0
X246.0Y-142.0
X246.0Y-146.0
X246.0Y-150.0
X246.0Y-154.0
X246.0Y-158.0
X246.0Y-162.0
X246.0Y-166.0
X246.0Y-170.0
X246.0Y-174.0
X246.0Y-178.0
X246.0Y-182.0
X246.0Y-186.0
X246.0Y-190.0
X246.0Y-194.0
X246.0Y-198.0
X246.0Y-202.0
X246.0Y-206.0
X246.0Y-210.0
X246.0Y-214.0
X246.0Y-218.0
X246.0Y-222.0
X246.0Y-226.0
X246.0Y-230.0
X246.0Y-234.0
X246.0Y-238.0
X246.0Y-242.0
X246.0Y-246.0
X246.0Y-250.0
X246.0Y-254.0
X246.0Y-258.0
X246.0Y-262.0
X246.0Y-266.0
X246.0Y-270.0
X246.0Y-274.0
X246.0Y-278.0
X248.0Y-18.0
X248.0Y-23.0
X248.0Y-28.0
X248.0Y-33.0
X248.0Y-38.0
X248.0Y-43.0
X248.0Y-48.0
X248.0Y-53.0
X248.0Y-58.0
X248.0Y-63.0
X248.0Y-68.0
X248.0Y-73.0
X248.0Y-78.0
X248.0Y-83.0
X248.0Y-88.0
X248.0Y-93.0
X248.0Y-98.0
X248.0Y-103.0
X248.0Y-108.0
X248.0Y-113.0
X248.0Y-118.0
X248.0Y-123.0
X248.0Y-128.0
X248.0Y-133.0
X248.0Y-138.0
X248.0Y-143.0
X248.0Y-148.0
X248.0Y-153.0
X248.0Y-158.0
X248.0Y-163.0
X248.0Y-168.0
X248.0Y-173.0
X248.0Y-178.0
X248.0Y-183.0
X248.0Y-188.0
X248.0Y-193.0
X248.0Y-198.0
X248.0Y-203.0
X248.0Y-208.0
X248.0Y-213.0
X248.0Y-218.0
X248.0Y-223.0
X248.0Y-228.0
X248.0Y-233.0
X248.0Y-238.0
X248.0Y-243.0
X248.0Y-248.0
X248.0Y-253.0
X248.0Y-258.0
X248.0Y-263.0
X248.0Y-268.0
X248.0Y-273.0
X248.0Y-278.0
X250.0Y-18.0
X250.0Y-22.0
X250.0Y-26.0
X250.0Y-30.0
X250.0Y-34.0
X250.0Y-38.0
X250.0Y-42.0
X250.0Y-46.0
X250.0Y-50.0
X250.0Y-54.0
X250.0Y-58.0
X250.0Y-62.0
X250.0Y-66.0
X250.0Y-70.0
X250.0Y-74.0
X250.0Y-78.0
X250.0Y-82.0
X250.0Y-86.0
X250.0Y-90.0
X250.0Y-94.0
X250.0Y-98.0
X250.0Y-102.0
X250.0Y-106.0
X250.0Y-110.0
X250.0Y-114.0
X250.0Y-118.0
X250.0Y-122.0
X250.0Y-126.0
X250.0Y-130.0
X250.0Y-134.0
X250.0Y-138.0
X250.0Y-142.0
X250.0Y-146.0
X250.0Y-150.0
X250.0Y-154.0
X250.0Y-158.0
X250.0Y-162.0
X250.0Y-166.0
X250.0Y-170.0
X250.0Y-174.0
X250.0Y-178.0
X250.0Y-182.0
X250.0Y-186.0
X250.0Y-190.0
X250.0Y-194.0
X250.0Y-198.0
X250.0Y-202.0
X250.0Y-206.0
X250.0Y-210.0
X250.0Y-214.0
X250.0Y-218.0
X250.0Y-222.0
X250.0Y-226.0
X250.0Y-230.0
X250.0Y-234.0
X250.0Y-238.0
X250.0Y-242.0
X250.0Y-246.0
X250.0Y-250.0
X250.0Y-254.0
X250.0Y-258.0
X250.0Y-262.0
X250.0Y-266.0
X250.0Y-270.0
X250.0Y-274.0
X250.0Y-278.0
X253.0Y-18.0
X253.0Y-23.0
X253.0Y-28.0
X253.0Y-33.0
X253.0Y-38.0
X253.0Y-43.0
X253.0Y-48.0
X253.0Y-53.0
X253.0Y-58.0
X253.0Y-63.0
X253.0Y-68.0
X253.0Y-73.0
X253.0Y-78.0
X253.0Y-83.0
X253.0Y-88.0
X253.0Y-93.0
X253.0Y-98.0
X253.0Y-103.0
X253.0Y-108.0
X253.0Y-113.0
X253.0Y-118.0
X253.0Y-123.0
X253.0Y-128.0
X253.0Y-133.0
X253.0Y-138.0
X253.0Y-143.0
X253.0Y-148.0
X253.0Y-153.0
X253.0Y-158.0
X253.0Y-163.0
X253.0Y-168.0
X253.0Y-173.0
X253.0Y-178.0
X253.0Y-183.0
X253.0Y-188.0
X253.0Y-193.0
X253.0Y-198.0
X253.0Y-203.0
X253.0Y-208.0
X253.0Y-213.0
X253.0Y-218.0
X253.0Y-223.0
X253.0Y-228.0
X253.0Y-233.0
X253.0Y-238.0
X253.0Y-243.0
X253.0Y-248.0
X253.0Y-253.0
X253.0Y-258.0
X253.0Y-263.0
X253.0Y-268.0
X253.0Y-273.0
X253.0Y-278.0
X254.0Y-18.0
X254.0Y-22.0
X254.0Y-26.0
X254.0Y-30.0
X254.0Y-34.0
X254.0Y-38.0
X254.0Y-42.0
X254.0Y-46.0
X254.0Y-50.0
X254.0Y-54.0
X254.0Y-58.0
X254.0Y-62.0
X254.0Y-66.0
X254.0Y-70.0
X254.0Y-74.0
X254.0Y-78.0
X254.0Y-82.0
X254.0Y-86.0
X254.0Y-90.0
X254.0Y-94.0
X254.0Y-98.0
X254.0Y-102.0
X254.0Y-106.0
X254.0Y-110.0
X254.0Y-114.0
X254.0Y-118.0
X254.0Y-122.0
X254.0Y-126.0
X254.0Y-130.0
X254.0Y-134.0
X254.0Y-138.0
X254.0Y-142.0
X254.0Y-146.0
X254.0Y-150.0
X254.0Y-154.0
X254.0Y-158.0
X254.0Y-162.0
X254.0Y-166.0
X254.0Y-170.0
X254.0Y-174.0
X254.0Y-178.0
X254.0Y-182.0
X254.0Y-186.0
X254.0Y-190.0
X254.0Y-194.0
X254.0Y-198.0
X254.0Y-202.0
X254.0Y-206.0
X254.0Y-210.0
X254.0Y-214.0
X254.0Y-218.0
X254.0Y-222.0
X254.0Y-226.0
X254.0Y-230.0
X254.0Y-234.0
X254.0Y-238.0
X254.0Y-242.0
X254.0Y-246.0
X254.0Y-250.0
X254.0Y-254.0
X254.0Y-258.0
X254.0Y-262.0
X254.0Y-266.0
X254.0Y-270.0
X254.0Y-274.0
X254.0Y-278.0
X258.0Y-18.0
X258.0Y-18.0
X258.0Y-22.0
X258.0Y-23.0
X258.0Y-26.0
X258.0Y-28.0
X258.0Y-30.0
X258.0Y-33.0
X258.0Y-34.0
X258.0Y-38.0
X258.0Y-38.0
X258.0Y-42.0
X258.0Y-43.0
X258.0Y-46.0
X258.0Y-48.0
X258.0Y-50.0
X258.0Y-53.0
X258.0Y-54.0
X258.0Y-58.0
X258.0Y-58.0
X258.0Y-62.0
X258.0Y-63.0
X258.0Y-66.0
X258.0Y-68.0
X258.0Y-70.0
X258.0Y-73.0
X258.0Y-74.0
X258.0Y-78.0
X258.0Y-78.0
X258.0Y-82.0
X258.0Y-83.0
X258.0Y-86.0
X258.0Y-88.0
X258.0Y-90.0
X258.0Y-93.0
X258.0Y-94.0
X258.0Y-98.0
X258.0Y-98.0
X258.0Y-102.0
X258.0Y-103.0
X258.0Y-106.0
X258.0Y-108.0
X258.0Y-110.0
X258.0Y-113.0
X258.0Y-114.0
X258.0Y-118.0
X258.0Y-118.0
X258.0Y-122.0
X258.0Y-123.0
X258.0Y-126.0
X258.0Y-128.0
X258.0Y-130.0
X258.0Y-133.0
X258.0Y-134.0
X258.0Y-138.0
X258.0Y-138.0
X258.0Y-142.0
X258.0Y-143.0
X258.0Y-146.0
X258.0Y-148.0
X258.0Y-150.0
X258.0Y-153.0
X258.0Y-154.0
X258.0Y-158.0
X258.0Y-158.0
X258.0Y-162.0
X258.0Y-163.0
X258.0Y-166.0
X258.0Y-168.0
X258.0Y-170.0
X258.0Y-173.0
X258.0Y-174.0
X258.0Y-178.0
X258.0Y-178.0
X258.0Y-182.0
X258.0Y-183.0
X258.0Y-186.0
X258.0Y-188.0
X258.0Y-190.0
X258.0Y-193.0
X258.0Y-194.0
X258.0Y-198.0
X258.0Y-198.0
X258.0Y-202.0
X258.0Y-203.0
X258.0Y-206.0
X258.0Y-208.0
X258.0Y-210.0
X258.0Y-213.0
X258.0Y-214.0
X258.0Y-218.0
X258.0Y-218.0
X258.0Y-222.0
X258.0Y-223.0
X258.0Y-226.0
X258.0Y-228.0
X258.0Y-230.0
X258.0Y-233.0
X258.0Y-234.0
X258.0Y-238.0
X258.0Y-238.0
X258.0Y-242.0
X258.0Y-243.0
X258.0Y-246.0
X258.0Y-248.0
X258.0Y-250.0
X258.0Y-253.0
X258.0Y-254.0
X258.0Y-258.0
X258.0Y-258.0
X258.0Y-262.0
X258.0Y-263.0
X258.0Y-266.0
X258.0Y-268.0
X258.0Y-270.0
X258.0Y-273.0
X258.0Y-274.0
X258.0Y-278.0
X258.0Y-278.0
X262.0Y-18.0
X262.0Y-22.0
X262.0Y-26.0
X262.0Y-30.0
X262.0Y-34.0
X262.0Y-38.0
X262.0Y-42.0
X262.0Y-46.0
X262.0Y-50.0
X262.0Y-54.0
X262.0Y-58.0
X262.0Y-62.0
X262.0Y-66.0
X262.0Y-70.0
X262.0Y-74.0
X262.0Y-78.0
X262.0Y-82.0
X262.0Y-86.0
X262.0Y-90.0
X262.0Y-94.0
X262.0Y-98.0
X262.0Y-102.0
X262.0Y-106.0
X262.0Y-110.0
X262.0Y-114.0
X262.0Y-118.0
X262.0Y-122.0
X262.0Y-126.0
X262.0Y-130.0
X262.0Y-134.0
X262.0Y-138.0
X262.0Y-142.0
X262.0Y-146.0
X262.0Y-150.0
X262.0Y-154.0
X262.0Y-158.0
X262.0Y-162.0
X262.0Y-166.0
X262.0Y-170.0
X262.0Y-174.0
X262.0Y-178.0
X262.0Y-182.0
X262.0Y-186.0
X262.0Y-190.0
X262.0Y-194.0
X262.0Y-198.0
X262.0Y-202.0
X262.0Y-206.0
X262.0Y-210.0
X262.0Y-214.0
X262.0Y-218.0
X262.0Y-222.0
X262.0Y-226.0
X262.0Y-230.0
X262.0Y-234.0
X262.0Y-238.0
X262.0Y-242.0
X262.0Y-246.0
X262.0Y-250.0
X262.0Y-254.0
X262.0Y-258.0
X262.0Y-262.0
X262.0Y-266.0
X262.0Y-270.0
X262.0Y-274.0
X262.0Y-278.0
X263.0Y-18.0
X263.0Y-23.0
X263.0Y-28.0
X263.0Y-33.0
X263.0Y-38.0
X263.0Y-43.0
X263.0Y-48.0
X263.0Y-53.0
X263.0Y-58.0
X263.0Y-63.0
X263.0Y-68.0
X263.0Y-73.0
X263.0Y-78.0
X263.0Y-83.0
X263.0Y-88.0
X263.0Y-93.0
X263.0Y-98.0
X263.0Y-103.0
X263.0Y-108.0
X263.0Y-113.0
X263.0Y-118.0
X263.0Y-123.0
X263.0Y-128.0
X263.0Y-133.0
X263.0Y-138.0
X263.0Y-143.0
X263.0Y-148.0
X263.0Y-153.0
X263.0Y-158.0
X263.0Y-163.0
X263.0Y-168.0
X263.0Y-173.0
X263.0Y-178.0
X263.0Y-183.0
X263.0Y-188.0
X263.0Y-193.0
X263.0Y-198.0
X263.0Y-203.0
X263.0Y-208.0
X263.0Y-213.0
X263.0Y-218.0
X263.0Y-223.0
X263.0Y-228.0
X263.0Y-233.0
X263.0Y-238.0
X263.0Y-243.0
X263.0Y-248.0
X263.0Y-253.0
X263.0Y-258.0
X263.0Y-263.0
X263.0Y-268.0
X263.0Y-273.0
X263.0Y-278.0
X266.0Y-18.0
X266.0Y-22.0
X266.0Y-26.0
X266.0Y-30.0
X266.0Y-34.0
X266.0Y-38.0
X266.0Y-42.0
X266.0Y-46.0
X266.0Y-50.0
X266.0Y-54.0
X266.0Y-58.0
X266.0Y-62.0
X266.0Y-66.0
X266.0Y-70.0
X266.0Y-74.0
X266.0Y-78.0
X266.0Y-82.0
X266.0Y-86.0
X266.0Y-90.0
X266.0Y-94.0
X266.0Y-98.0
X266.0Y-102.0
X266.0Y-106.0
X266.0Y-110.0
X266.0Y-114.0
X266.0Y-118.0
X266.0Y-122.0
X266.0Y-126.0
X266.0Y-130.0
X266.0Y-134.0
X266.0Y-138.0
X266.0Y-142.0
X266.0Y-146.0
X266.0Y-150.0
X266.0Y-154.0
X266.0Y-158.0
X266.0Y-162.0
X266.0Y-166.0
X266.0Y-170.0
X266.0Y-174.0
X266.0Y-178.0
X266.0Y-182.0
X266.0Y-186.0
X266.0Y-190.0
X266.0Y-194.0
X266.0Y-198.0
X266.0Y-202.0
X266.0Y-206.0
X266.0Y-210.0
X266.0Y-214.0
X266.0Y-218.0
X266.0Y-222.0
X266.0Y-226.0
X266.0Y-230.0
X266.0Y-234.0
X266.0Y-238.0
X266.0Y-242.0
X266.0Y-246.0
X266.0Y-250.0
X266.0Y-254.0
X266.0Y-258.0
X266.0Y-262.0
X266.0Y-266.0
X266.0Y-270.0
X266.0Y-274.0
X266.0Y-278.0
X268.0Y-18.0
X268.0Y-23.0
X268.0Y-28.0
X268.0Y-33.0
X268.0Y-38.0
X268.0Y-43.0
X268.0Y-48.0
X268.0Y-53.0
X268.0Y-58.0
X268.0Y-63.0
X268.0Y-68.0
X268.0Y-73.0
X268.0Y-78.0
X268.0Y-83.0
X268.0Y-88.0
X268.0Y-93.0
X268.0Y-98.0
X268.0Y-103.0
X268.0Y-108.0
X268.0Y-113.0
X268.0Y-118.0
X268.0Y-123.0
X268.0Y-128.0
X268.0Y-133.0
X268.0Y-138.0
X268.0Y-143.0
X268.0Y-148.0
X268.0Y-153.0
X268.0Y-158.0
X268.0Y-163.0
X268.0Y-168.0
X268.0Y-173.0
X268.0Y-178.0
X268.0Y-183.0
X268.0Y-188.0
X268.0Y-193.0
X268.0Y-198.0
X268.0Y-203.0
X268.0Y-208.0
X268.0Y-213.0
X268.0Y-218.0
X268.0Y-223.0
X268.0Y-228.0
X268.0Y-233.0
X268.0Y-238.0
X268.0Y-243.0
X268.0Y-248.0
X268.0Y-253.0
X268.0Y-258.0
X268.0Y-263.0
X268.0Y-268.0
X268.0Y-273.0
X268.0Y-278.0
X270.0Y-18.0
X270.0Y-22.0
X270.0Y-26.0
X270.0Y-30.0
X270.0Y-34.0
X270.0Y-38.0
X270.0Y-42.0
X270.0Y-46.0
X270.0Y-50.0
X270.0Y-54.0
X270.0Y-58.0
X270.0Y-62.0
X270.0Y-66.0
X270.0Y-70.0
X270.0Y-74.0
X270.0Y-78.0
X270.0Y-82.0
X270.0Y-86.0
X270.0Y-90.0
X270.0Y-94.0
X270.0Y-98.0
X270.0Y-102.0
X270.0Y-106.0
X270.0Y-110.0
X270.0Y-114.0
X270.0Y-118.0
X270.0Y-122.0
X270.0Y-126.0
X270.0Y-130.0
X270.0Y-134.0
X270.0Y-138.0
X270.0Y-142.0
X270.0Y-146.0
X270.0Y-150.0
X270.0Y-154.0
X270.0Y-158.0
X270.0Y-162.0
X270.0Y-166.0
X270.0Y-170.0
X270.0Y-174.0
X270.0Y-178.0
X270.0Y-182.0
X270.0Y-186.0
X270.0Y-190.0
X270.0Y-194.0
X270.0Y-198.0
X270.0Y-202.0
X270.0Y-206.0
X270.0Y-210.0
X270.0Y-214.0
X270.0Y-218.0
X270.0Y-222.0
X270.0Y-226.0
X270.0Y-230.0
X270.0Y-234.0
X270.0Y-238.0
X270.0Y-242.0
X270.0Y-246.0
X270.0Y-250.0
X270.0Y-254.0
X270.0Y-258.0
X270.0Y-262.0
X270.0Y-266.0
X270.0Y-270.0
X270.0Y-274.0
X270.0Y-278.0
X273.0Y-18.0
X273.0Y-23.0
X273.0Y-28.0
X273.0Y-33.0
X273.0Y-38.0
X273.0Y-43.0
X273.0Y-48.0
X273.0Y-53.0
X273.0Y-58.0
X273.0Y-63.0
X273.0Y-68.0
X273.0Y-73.0
X273.0Y-78.0
X273.0Y-83.0
X273.0Y-88.0
X273.0Y-93.0
X273.0Y-98.0
X273.0Y-103.0
X273.0Y-108.0
X273.0Y-113.0
X273.0Y-118.0
X273.0Y-123.0
X273.0Y-128.0
X273.0Y-133.0
X273.0Y-138.0
X273.0Y-143.0
X273.0Y-148.0
X273.0Y-153.0
X273.0Y-158.0
X273.0Y-163.0
X273.0Y-168.0
X273.0Y-173.0
X273.0Y-178.0
X273.0Y-183.0
X273.0Y-188.0
X273.0Y-193.0
X273.0Y-198.0
X273.0Y-203.0
X273.0Y-208.0
X273.0Y-213.0
X273.0Y-218.0
X273.0Y-223.0
X273.0Y-228.0
X273.0Y-233.0
X273.0Y-238.0
X273.0Y-243.0
X273.0Y-248.0
X273.0Y-253.0
X273.0Y-258.0
X273.0Y-263.0
X273.0Y-268.0
X273.0Y-273.0
X273.0Y-278.0
X274.0Y-18.0
X274.0Y-22.0
X274.0Y-26.0
X274.0Y-30.0
X274.0Y-34.0
X274.0Y-38.0
X274.0Y-42.0
X274.0Y-46.0
X274.0Y-50.0
X274.0Y-54.0
X274.0Y-58.0
X274.0Y-62.0
X274.0Y-66.0
X274.0Y-70.0
X274.0Y-74.0
X274.0Y-78.0
X274.0Y-82.0
X274.0Y-86.0
X274.0Y-90.0
X274.0Y-94.0
X274.0Y-98.0
X274.0Y-102.0
X274.0Y-106.0
X274.0Y-110.0
X274.0Y-114.0
X274.0Y-118.0
X274.0Y-122.0
X274.0Y-126.0
X274.0Y-130.0
X274.0Y-134.0
X274.0Y-138.0
X274.0Y-142.0
X274.0Y-146.0
X274.0Y-150.0
X274.0Y-154.0
X274.0Y-158.0
X274.0Y-162.0
X274.0Y-166.0
X274.0Y-170.0
X274.0Y-174.0
X274.0Y-178.0
X274.0Y-182.0
X274.0Y-186.0
X274.0Y-190.0
X274.0Y-194.0
X274.0Y-198.0
X274.0Y-202.0
X274.0Y-206.0
X274.0Y-210.0
X274.0Y-214.0
X274.0Y-218.0
X274.0Y-222.0
X274.0Y-226.0
X274.0Y-230.0
X274.0Y-234.0
X274.0Y-238.0
X274.0Y-242.0
X274.0Y-246.0
X274.0Y-250.0
X274.0Y-254.0
X274.0Y-258.0
X274.0Y-262.0
X274.0Y-266.0
X274.0Y-270.0
X274.0Y-274.0
X274.0Y-278.0
X278.0Y-18.0
X278.0Y-18.0
X278.0Y-22.0
X278.0Y-23.0
X278.0Y-26.0
X278.0Y-28.0
X278.0Y-30.0
X278.0Y-33.0
X278.0Y-34.0
X278.0Y-38.0
X278.0Y-38.0
X278.0Y-42.0
X278.0Y-43.0
X278.0Y-46.0
X278.0Y-48.0
X278.0Y-50.0
X278.0Y-53.0
X278.0Y-54.0
X278.0Y-58.0
X278.0Y-58.0
X278.0Y-62.0
X278.0Y-63.0
X278.0Y-66.0
X278.0Y-68.0
X278.0Y-70.0
X278.0Y-73.0
X278.0Y-74.0
X278.0Y-78.0
X278.0Y-78.0
X278.0Y-82.0
X278.0Y-83.0
X278.0Y-86.0
X278.0Y-88.0
X278.0Y-90.0
X278.0Y-93.0
X278.0Y-94.0
X278.0Y-98.0
X278.0Y-98.0
X278.0Y-102.0
X278.0Y-103.0
X278.0Y-106.0
X278.0Y-108.0
X278.0Y-110.0
X278.0Y-113.0
X278.0Y-114.0
X278.0Y-118.0
X278.0Y-118.0
X278.0Y-122.0
X278.0Y-123.0
X278.0Y-126.0
X278.0Y-128.0
X278.0Y-130.0
X278.0Y-133.0
X278.0Y-134.0
X278.0Y-138.0
X278.0Y-138.0
X278.0Y-142.0
X278.0Y-143.0
X278.0Y-146.0
X278.0Y-148.0
X278.0Y-150.0
X278.0Y-153.0
X278.0Y-154.0
X278.0Y-158.0
X278.0Y-158.0
X278.0Y-162.0
X278.0Y-163.0
X278.0Y-166.0
X278.0Y-168.0
X278.0Y-170.0
X278.0Y-173.0
X278.0Y-174.0
X278.0Y-178.0
X278.0Y-178.0
X278.0Y-182.0
X278.0Y-183.0
X278.0Y-186.0
X278.0Y-188.0
X278.0Y-190.0
X278.0Y-193.0
X278.0Y-194.0
X278.0Y-198.0
X278.0Y-198.0
X278.0Y-202.0
X278.0Y-203.0
X278.0Y-206.0
X278.0Y-208.0
X278.0Y-210.0
X278.0Y-213.0
X278.0Y-214.0
X278.0Y-218.0
X278.0Y-218.0
X278.0Y-222.0
X278.0Y-223.0
X278.0Y-226.0
X278.0Y-228.0
X278.0Y-230.0
X278.0Y-233.0
X278.0Y-234.0
X278.0Y-238.0
X278.0Y-238.0
X278.0Y-242.0
X278.0Y-243.0
X278.0Y-246.0
X278.0Y-248.0
X278.0Y-250.0
X278.0Y-253.0
X278.0Y-254.0
X278.0Y-258.0
X278.0Y-258.0
X278.0Y-262.0
X278.0Y-263.0
X278.0Y-266.0
X278.0Y-268.0
X278.0Y-270.0
X278.0Y-273.0
X278.0Y-274.0
X278.0Y-278.0
X278.0Y-278.0
X282.0Y-18.0
X282.0Y-22.0
X282.0Y-26.0
X282.0Y-30.0
X282.0Y-34.0
X282.0Y-38.0
X282.0Y-42.0
X282.0Y-46.0
X282.0Y-50.0
X282.0Y-54.0
X282.0Y-58.0
X282.0Y-62.0
X282.0Y-66.0
X282.0Y-70.0
X282.0Y-74.0
X282.0Y-78.0
X282.0Y-82.0
X282.0Y-86.0
X282.0Y-90.0
X282.0Y-94.0
X282.0Y-98.0
X282.0Y-102.0
X282.0Y-106.0
X282.0Y-110.0
X282.0Y-114.0
X282.0Y-118.0
X282.0Y-122.0
X282.0Y-126.0
X282.0Y-130.0
X282.0Y-134.0
X282.0Y-138.0
X282.0Y-142.0
X282.0Y-146.0
X282.0Y-150.0
X282.0Y-154.0
X282.0Y-158.0
X282.0Y-162.0
X282.0Y-166.0
X282.0Y-170.0
X282.0Y-174.0
X282.0Y-178.0
X282.0Y-182.0
X282.0Y-186.0
X282.0Y-190.0
X282.0Y-194.0
X282.0Y-198.0
X282.0Y-202.0
X282.0Y-206.0
X282.0Y-210.0
X282.0Y-214.0
X282.0Y-218.0
X282.0Y-222.0
X282.0Y-226.0
X282.0Y-230.0
X282.0Y-234.0
X282.0Y-238.0
X282.0Y-242.0
X282.0Y-246.0
X282.0Y-250.0
X282.0Y-254.0
X282.0Y-258.0
X282.0Y-262.0
X282.0Y-266.0
X282.0Y-270.0
X282.0Y-274.0
X282.0Y-278.0
X283.0Y-18.0
X283.0Y-23.0
X283.0Y-28.0
X283.0Y-33.0
X283.0Y-38.0
X283.0Y-43.0
X283.0Y-48.0
X283.0Y-53.0
X283.0Y-58.0
X283.0Y-63.0
X283.0Y-68.0
X283.0Y-73.0
X283.0Y-78.0
X283.0Y-83.0
X283.0Y-88.0
X283.0Y-93.0
X283.0Y-98.0
X283.0Y-103.0
X283.0Y-108.0
X283.0Y-113.0
X283.0Y-118.0
X283.0Y-123.0
X283.0Y-128.0
X283.0Y-133.0
X283.0Y-138.0
X283.0Y-143.0
X283.0Y-148.0
X283.0Y-153.0
X283.0Y-158.0
X283.0Y-163.0
X283.0Y-168.0
X283.0Y-173.0
X283.0Y-178.0
X283.0Y-183.0
X283.0Y-188.0
X283.0Y-193.0
X283.0Y-198.0
X283.0Y-203.0
X283.0Y-208.0
X283.0Y-213.0
X283.0Y-218.0
X283.0Y-223.0
X283.0Y-228.0
X283.0Y-233.0
X283.0Y-238.0
X283.0Y-243.0
X283.0Y-248.0
X283.0Y-253.0
X283.0Y-258.0
X283.0Y-263.0
X283.0Y-268.0
X283.0Y-273.0
X283.0Y-278.0
X286.0Y-18.0
X286.0Y-22.0
X286.0Y-26.0
X286.0Y-30.0
X286.0Y-34.0
X286.0Y-38.0
X286.0Y-42.0
X286.0Y-46.0
X286.0Y-50.0
X286.0Y-54.0
X286.0Y-58.0
X286.0Y-62.0
X286.0Y-66.0
X286.0Y-70.0
X286.0Y-74.0
X286.0Y-78.0
X286.0Y-82.0
X286.0Y-86.0
X286.0Y-90.0
X286.0Y-94.0
X286.0Y-98.0
X286.0Y-102.0
X286.0Y-106.0
X286.0Y-110.0
X286.0Y-114.0
X286.0Y-118.0
X286.0Y-122.0
X286.0Y-126.0
X286.0Y-130.0
X286.0Y-134.0
X286.0Y-138.0
X286.0Y-142.0
X286.0Y-146.0
X286.0Y-150.0
X286.0Y-154.0
X286.0Y-158.0
X286.0Y-162.0
X286.0Y-166.0
X286.0Y-170.0
X286.0Y-174.0
X286.0Y-178.0
X286.0Y-182.0
X286.0Y-186.0
X286.0Y-190.0
X286.0Y-194.0
X286.0Y-198.0
X286.0Y-202.0
X286.0Y-206.0
X286.0Y-210.0
X286.0Y-214.0
X286.0Y-218.0
X286.0Y-222.0
X286.0Y-226.0
X286.0Y-230.0
X286.0Y-234.0
X286.0Y-238.0
X286.0Y-242.0
X286.0Y-246.0
X286.0Y-250.0
X286.0Y-254.0
X286.0Y-258.0
X286.0Y-262.0
X286.0Y-266.0
X286.0Y-270.0
X286.0Y-274.0
X286.0Y-278.0
X288.0Y-18.0
X288.0Y-23.0
X288.0Y-28.0
X288.0Y-33.0
X288.0Y-38.0
X288.0Y-43.0
X288.0Y-48.0
X288.0Y-53.0
X288.0Y-58.0
X288.0Y-63.0
X288.0Y-68.0
X288.0Y-73.0
X288.0Y-78.0
X288.0Y-83.0
X288.0Y-88.0
X288.0Y-93.0
X288.0Y-98.0
X288.0Y-103.0
X288.0Y-108.0
X288.0Y-113.0
X288.0Y-118.0
X288.0Y-123.0
X288.0Y-128.0
X288.0Y-133.0
X288.0Y-138.0
X288.0Y-143.0
X288.0Y-148.0
X288.0Y-153.0
X288.0Y-158.0
X288.0Y-163.0
X288.0Y-168.0
X288.0Y-173.0
X288.0Y-178.0
X288.0Y-183.0
X288.0Y-188.0
X288.0Y-193.0
X288.0Y-198.0
X288.0Y-203.0
X288.0Y-208.0
X288.0Y-213.0
X288.0Y-218.0
X288.0Y-223.0
X288.0Y-228.0
X288.0Y-233.0
X288.0Y-238.0
X288.0Y-243.0
X288.0Y-248.0
X288.0Y-253.0
X288.0Y-258.0
X288.0Y-263.0
X288.0Y-268.0
X288.0Y-273.0
X288.0Y-278.0
X290.0Y-18.0
X290.0Y-22.0
X290.0Y-26.0
X290.0Y-30.0
X290.0Y-34.0
X290.0Y-38.0
X290.0Y-42.0
X290.0Y-46.0
X290.0Y-50.0
X290.0Y-54.0
X290.0Y-58.0
X290.0Y-62.0
X290.0Y-66.0
X290.0Y-70.0
X290.0Y-74.0
X290.0Y-78.0
X290.0Y-82.0
X290.0Y-86.0
X290.0Y-90.0
X290.0Y-94.0
X290.0Y-98.0
X290.0Y-102.0
X290.0Y-106.0
X290.0Y-110.0
X290.0Y-114.0
X290.0Y-118.0
X290.0Y-122.0
X290.0Y-126.0
X290.0Y-130.0
X290.0Y-134.0
X290.0Y-138.0
X290.0Y-142.0
X290.0Y-146.0
X290.0Y-150.0
X290.0Y-154.0
X290.0Y-158.0
X290.0Y-162.0
X290.0Y-166.0
X290.0Y-170.0
X290.0Y-174.0
X290.0Y-178.0
X290.0Y-182.0
X290.0Y-186.0
X290.0Y-190.0
X290.0Y-194.0
X290.0Y-198.0
X290.0Y-202.0
X290.0Y-206.0
X290.0Y-210.0
X290.0Y-214.0
X290.0Y-218.0
X290.0Y-222.0
X290.0Y-226.0
X290.0Y-230.0
X290.0Y-234.0
X290.0Y-238.0
X290.0Y-242.0
X290.0Y-246.0
X290.0Y-250.0
X290.0Y-254.0
X290.0Y-258.0
X290.0Y-262.0
X290.0Y-266.0
X290.0Y-270.0
X290.0Y-274.0
X290.0Y-278.0
X293.0Y-18.0
X293.0Y-23.0
X293.0Y-28.0
X293.0Y-33.0
X293.0Y-38.0
X293.0Y-43.0
X293.0Y-48.0
X293.0Y-53.0
X293.0Y-58.0
X293.0Y-63.0
X293.0Y-68.0
X293.0Y-73.0
X293.0Y-78.0
X293.0Y-83.0
X293.0Y-88.0
X293.0Y-93.0
X293.0Y-98.0
X293.0Y-103.0
X293.0Y-108.0
X293.0Y-113.0
X293.0Y-118.0
X293.0Y-123.0
X293.0Y-128.0
X293.0Y-133.0
X293.0Y-138.0
X293.0Y-143.0
X293.0Y-148.0
X293.0Y-153.0
X293.0Y-158.0
X293.0Y-163.0
X293.0Y-168.0
X293.0Y-173.0
X293.0Y-178.0
X293.0Y-183.0
X293.0Y-188.0
X293.0Y-193.0
X293.0Y-198.0
X293.0Y-203.0
X293.0Y-208.0
X293.0Y-213.0
X293.0Y-218.0
X293.0Y-223.0
X293.0Y-228.0
X293.0Y-233.0
X293.0Y-238.0
X293.0Y-243.0
X293.0Y-248.0
X293.0Y-253.0
X293.0Y-258.0
X293.0Y-263.0
X293.0Y-268.0
X293.0Y-273.0
X293.0Y-278.0
X294.0Y-18.0
X294.0Y-22.0
X294.0Y-26.0
X294.0Y-30.0
X294.0Y-34.0
X294.0Y-38.0
X294.0Y-42.0
X294.0Y-46.0
X294.0Y-50.0
X294.0Y-54.0
X294.0Y-58.0
X294.0Y-62.0
X294.0Y-66.0
X294.0Y-70.0
X294.0Y-74.0
X294.0Y-78.0
X294.0Y-82.0
X294.0Y-86.0
X294.0Y-90.0
X294.0Y-94.0
X294.0Y-98.0
X294.0Y-102.0
X294.0Y-106.0
X294.0Y-110.0
X294.0Y-114.0
X294.0Y-118.0
X294.0Y-122.0
X294.0Y-126.0
X294.0Y-130.0
X294.0Y-134.0
X294.0Y-138.0
X294.0Y-142.0
X294.0Y-146.0
X294.0Y-150.0
X294.0Y-154.0
X294.0Y-158.0
X294.0Y-162.0
X294.0Y-166.0
X294.0Y-170.0
X294.0Y-174.0
X294.0Y-178.0
X294.0Y-182.0
X294.0Y-186.0
X294.0Y-190.0
X294.0Y-194.0
X294.0Y-198.0
X294.0Y-202.0
X294.0Y-206.0
X294.0Y-210.0
X294.0Y-214.0
X294.0Y-218.0
X294.0Y-222.0
X294.0Y-226.0
X294.0Y-230.0
X294.0Y-234.0
X294.0Y-238.0
X294.0Y-242.0
X294.0Y-246.0
X294.0Y-250.0
X294.0Y-254.0
X294.0Y-258.0
X294.0Y-262.0
X294.0Y-266.0
X294.0Y-270.0
X294.0Y-274.0
X294.0Y-278.0
X298.0Y-18.0
X298.0Y-18.0
X298.0Y-22.0
X298.0Y-23.0
X298.0Y-26.0
X298.0Y-28.0
X298.0Y-30.0
X298.0Y-33.0
X298.0Y-34.0
X298.0Y-38.0
X298.0Y-38.0
X298.0Y-42.0
X298.0Y-43.0
X298.0Y-46.0
X298.0Y-48.0
X298.0Y-50.0
X298.0Y-53.0
X298.0Y-54.0
X298.0Y-58.0
X298.0Y-58.0
X298.0Y-62.0
X298.0Y-63.0
X298.0Y-66.0
X298.0Y-68.0
X298.0Y-70.0
X298.0Y-73.0
X298.0Y-74.0
X298.0Y-78.0
X298.0Y-78.0
X298.0Y-82.0
X298.0Y-83.0
X298.0Y-86.0
X298.0Y-88.0
X298.0Y-90.0
X298.0Y-93.0
X298.0Y-94.0
X298.0Y-98.0
X298.0Y-98.0
X298.0Y-102.0
X298.0Y-103.0
X298.0Y-106.0
X298.0Y-108.0
X298.0Y-110.0
X298.0Y-113.0
X298.0Y-114.0
X298.0Y-118.0
X298.0Y-118.0
X298.0Y-122.0
X298.0Y-123.0
X298.0Y-126.0
X298.0Y-128.0
X298.0Y-130.0
X298.0Y-133.0
X298.0Y-134.0
X298.0Y-138.0
X298.0Y-138.0
X298.0Y-142.0
X298.0Y-143.0
X298.0Y-146.0
X298.0Y-148.0
X298.0Y-150.0
X298.0Y-153.0
X298.0Y-154.0
X298.0Y-158.0
X298.0Y-158.0
X298.0Y-162.0
X298.0Y-163.0
X298.0Y-166.0
X298.0Y-168.0
X298.0Y-170.0
X298.0Y-173.0
X298.0Y-174.0
X298.0Y-178.0
X298.0Y-178.0
X298.0Y-182.0
X298.0Y-183.0
X298.0Y-186.0
X298.0Y-188.0
X298.0Y-190.0
X298.0Y-193.0
X298.0Y-194.0
X298.0Y-198.0
X298.0Y-198.0
X298.0Y-202.0
X298.0Y-203.0
X298.0Y-206.0
X298.0Y-208.0
X298.0Y-210.0
X298.0Y-213.0
X298.0Y-214.0
X298.0Y-218.0
X298.0Y-218.0
X298.0Y-222.0
X298.0Y-223.0
X298.0Y-226.0
X298.0Y-228.0
X298.0Y-230.0
X298.0Y-233.0
X298.0Y-234.0
X298.0Y-238.0
X298.0Y-238.0
X298.0Y-242.0
X298.0Y-243.0
X298.0Y-246.0
X298.0Y-248.0
X298.0Y-250.0
X298.0Y-253.0
X298.0Y-254.0
X298.0Y-258.0
X298.0Y-258.0
X298.0Y-262.0
X298.0Y-263.0
X298.0Y-266.0
X298.0Y-268.0
X298.0Y-270.0
X298.0Y-273.0
X298.0Y-274.0
X298.0Y-278.0
X298.0Y-278.0
X302.0Y-18.0
X302.0Y-22.0
X302.0Y-26.0
X302.0Y-30.0
X302.0Y-34.0
X302.0Y-38.0
X302.0Y-42.0
X302.0Y-46.0
X302.0Y-50.0
X302.0Y-54.0
X302.0Y-58.0
X302.0Y-62.0
X302.0Y-66.0
X302.0Y-70.0
X302.0Y-74.0
X302.0Y-78.0
X302.0Y-82.0
X302.0Y-86.0
X302.0Y-90.0
X302.0Y-94.0
X302.0Y-98.0
X302.0Y-102.0
X302.0Y-106.0
X302.0Y-110.0
X302.0Y-114.0
X302.0Y-118.0
X302.0Y-122.0
X302.0Y-126.0
X302.0Y-130.0
X302.0Y-134.0
X302.0Y-138.0
X302.0Y-142.0
X302.0Y-146.0
X302.0Y-150.0
X302.0Y-154.0
X302.0Y-158.0
X302.0Y-162.0
X302.0Y-166.0
X302.0Y-170.0
X302.0Y-174.0
X302.0Y-178.0
X302.0Y-182.0
X302.0Y-186.0
X302.0Y-190.0
X302.0Y-194.0
X302.0Y-198.0
X302.0Y-202.0
X302.0Y-206.0
X302.0Y-210.0
X302.0Y-214.0
X302.0Y-218.0
X302.0Y-222.0
X302.0Y-226.0
X302.0Y-230.0
X302.0Y-234.0
X302.0Y-238.0
X302.0Y-242.0
X302.0Y-246.0
X302.0Y-250.0
X302.0Y-254.0
X302.0Y-258.0
X302.0Y-262.0
X302.0Y-266.0
X302.0Y-270.0
X302.0Y-274.0
X302.0Y-278.0
X303.0Y-18.0
X303.0Y-23.0
X303.0Y-28.0
X303.0Y-33.0
X303.0Y-38.0
X303.0Y-43.0
X303.0Y-48.0
X303.0Y-53.0
X303.0Y-58.0
X303.0Y-63.0
X303.0Y-68.0
X303.0Y-73.0
X303.0Y-78.0
X303.0Y-83.0
X303.0Y-88.0
X303.0Y-93.0
X303.0Y-98.0
X303.0Y-103.0
X303.0Y-108.0
X303.0Y-113.0
X303.0Y-118.0
X303.0Y-123.0
X303.0Y-128.0
X303.0Y-133.0
X303.0Y-138.0
X303.0Y-143.0
X303.0Y-148.0
X303.0Y-153.0
X303.0Y-158.0
X303.0Y-163.0
X303.0Y-168.0
X303.0Y-173.0
X303.0Y-178.0
X303.0Y-183.0
X303.0Y-188.0
X303.0Y-193.0
X303.0Y-198.0
X303.0Y-203.0
X303.0Y-208.0
X303.0Y-213.0
X303.0Y-218.0
X303.0Y-223.0
X303.0Y-228.0
X303.0Y-233.0
X303.0Y-238.0
X303.0Y-243.0
X303.0Y-248.0
X303.0Y-253.0
X303.0Y-258.0
X303.0Y-263.0
X303.0Y-268.0
X303.0Y-273.0
X303.0Y-278.0
X306.0Y-18.0
X306.0Y-22.0
X306.0Y-26.0
X306.0Y-30.0
X306.0Y-34.0
X306.0Y-38.0
X306.0Y-42.0
X306.0Y-46.0
X306.0Y-50.0
X306.0Y-54.0
X306.0Y-58.0
X306.0Y-62.0
X306.0Y-66.0
X306.0Y-70.0
X306.0Y-74.0
X306.0Y-78.0
X306.0Y-82.0
X306.0Y-86.0
X306.0Y-90.0
X306.0Y-94.0
X306.0Y-98.0
X306.0Y-102.0
X306.0Y-106.0
X306.0Y-110.0
X306.0Y-114.0
X306.0Y-118.0
X306.0Y-122.0
X306.0Y-126.0
X306.0Y-130.0
X306.0Y-134.0
X306.0Y-138.0
X306.0Y-142.0
X306.0Y-146.0
X306.0Y-150.0
X306.0Y-154.0
X306.0Y-158.0
X306.0Y-162.0
X306.0Y-166.0
X306.0Y-170.0
X306.0Y-174.0
X306.0Y-178.0
X306.0Y-182.0
X306.0Y-186.0
X306.0Y-190.0
X306.0Y-194.0
X306.0Y-198.0
X306.0Y-202.0
X306.0Y-206.0
X306.0Y-210.0
X306.0Y-214.0
X306.0Y-218.0
X306.0Y-222.0
X306.0Y-226.0
X306.0Y-230.0
X306.0Y-234.0
X306.0Y-238.0
X306.0Y-242.0
X306.0Y-246.0
X306.0Y-250.0
X306.0Y-254.0
X306.0Y-258.0
X306.0Y-262.0
X306.0Y-266.0
X306.0Y-270.0
X306.0Y-274.0
X306.0Y-278.0
T3
X28.0Y-148.0
X28.0Y-149.27
X28.0Y-150.54
X28.0Y-151.81
X28.0Y-153.08
X28.0Y-170.0
X28.0Y-171.27
X28.0Y-172.54
X28.0Y-173.81
X28.0Y-175.08
X28.0Y-176.35
X28.0Y-177.62
X29.27Y-148.0
X29.27Y-149.27
X29.27Y-150.54
X29.27Y-151.81
X29.27Y-153.08
X29.27Y-170.0
X29.27Y-171.27
X29.27Y-172.54
X29.27Y-173.81
X29.27Y-175.08
X29.27Y-176.35
X29.27Y-177.62
T4
X18.0Y-272.0
T5
X17.0Y-17.0
X17.0Y-283.0
X308.0Y-17.0
X308.0Y-283.0
M30
