%TF.GenerationSoftware,KiCad,Pcbnew,9.0.9-rc1*%
%TF.CreationDate,2026-06-20T16:22:35-07:00*%
%TF.ProjectId,TFLN_AI_NODE_X2,54464c4e-5f41-4495-9f4e-4f44455f5832,rev?*%
%TF.SameCoordinates,Original*%
%TF.FileFunction,Copper,L6,Inr*%
%TF.FilePolarity,Positive*%
%FSLAX46Y46*%
G04 Gerber Fmt 4.6, Leading zero omitted, Abs format (unit mm)*
G04 Created by KiCad (PCBNEW 9.0.9-rc1) date 2026-06-20 16:22:35*
%MOMM*%
%LPD*%
G01*
G04 APERTURE LIST*
%TA.AperFunction,ComponentPad*%
%ADD10R,1.000000X1.000000*%
%TD*%
%TA.AperFunction,ComponentPad*%
%ADD11O,1.000000X1.000000*%
%TD*%
%TA.AperFunction,ViaPad*%
%ADD12C,0.400000*%
%TD*%
%TA.AperFunction,ViaPad*%
%ADD13C,0.300000*%
%TD*%
%TA.AperFunction,Conductor*%
%ADD14C,0.100000*%
%TD*%
%TA.AperFunction,Conductor*%
%ADD15C,0.150000*%
%TD*%
%ADD16C,0.200000*%
%ADD17C,0.150000*%
%ADD18C,0.350000*%
G04 APERTURE END LIST*
D10*
%TO.N,+3V3*%
%TO.C,J6*%
X296700000Y-159333333D03*
D11*
%TO.N,GND*%
X296700000Y-158063333D03*
%TO.N,FPGA_GPIO0*%
X297970000Y-159333333D03*
%TO.N,FPGA_GPIO1*%
X297970000Y-158063333D03*
%TO.N,FPGA_GPIO2*%
X299240000Y-159333333D03*
%TO.N,FPGA_GPIO3*%
X299240000Y-158063333D03*
%TO.N,N/C*%
X300510000Y-159333333D03*
X300510000Y-158063333D03*
X301780000Y-159333333D03*
X301780000Y-158063333D03*
X303050000Y-159333333D03*
X303050000Y-158063333D03*
%TO.N,I2C_SCL*%
X304320000Y-159333333D03*
%TO.N,I2C_SDA*%
X304320000Y-158063333D03*
%TD*%
D10*
%TO.N,JTAG_TCK*%
%TO.C,J5*%
X296700000Y-122000000D03*
D11*
%TO.N,GND*%
X296700000Y-120730000D03*
%TO.N,JTAG_TDO*%
X297970000Y-122000000D03*
%TO.N,+3V3*%
X297970000Y-120730000D03*
%TO.N,JTAG_TMS*%
X299240000Y-122000000D03*
%TO.N,GND*%
X299240000Y-120730000D03*
%TO.N,N/C*%
X300510000Y-122000000D03*
X300510000Y-120730000D03*
%TO.N,JTAG_TDI*%
X301780000Y-122000000D03*
%TO.N,JTAG_TRST*%
X301780000Y-120730000D03*
%TD*%
D12*
%TO.N,+1V8*%
X158000000Y-163000000D03*
X83000000Y-243000000D03*
X78000000Y-243000000D03*
%TO.N,+3V3*%
X73000000Y-243000000D03*
X193000000Y-78000000D03*
X103000000Y-253000000D03*
X118000000Y-253000000D03*
%TO.N,+5V*%
X73000000Y-268000000D03*
X88000000Y-253000000D03*
X73000000Y-263000000D03*
%TO.N,AXI_ACLK*%
X163000000Y-163000000D03*
%TO.N,AXI_RDATA*%
X118000000Y-123000000D03*
X113000000Y-123000000D03*
X133000000Y-123000000D03*
X143000000Y-123000000D03*
X123000000Y-123000000D03*
X148000000Y-123000000D03*
X138000000Y-123000000D03*
X153000000Y-123000000D03*
X128000000Y-123000000D03*
X158000000Y-123000000D03*
%TO.N,FPGA_GPIO1*%
X298000000Y-158000000D03*
%TO.N,GND*%
X198000000Y-33000000D03*
X273000000Y-18000000D03*
X138000000Y-133000000D03*
X113000000Y-193000000D03*
X108000000Y-253000000D03*
X288000000Y-178000000D03*
X143000000Y-68000000D03*
X238000000Y-53000000D03*
X113000000Y-133000000D03*
X263000000Y-208000000D03*
X128000000Y-183000000D03*
X113000000Y-63000000D03*
X173000000Y-238000000D03*
X113000000Y-83000000D03*
X153000000Y-53000000D03*
X273000000Y-188000000D03*
X138000000Y-68000000D03*
X178000000Y-268000000D03*
X58000000Y-228000000D03*
X303000000Y-58000000D03*
X73000000Y-198000000D03*
X43000000Y-88000000D03*
X298000000Y-238000000D03*
X143000000Y-138000000D03*
X83000000Y-258000000D03*
X83000000Y-158000000D03*
X283000000Y-193000000D03*
X233000000Y-268000000D03*
X278000000Y-43000000D03*
X18000000Y-163000000D03*
X188000000Y-248000000D03*
X143000000Y-273000000D03*
X108000000Y-18000000D03*
X58000000Y-183000000D03*
X53000000Y-198000000D03*
X213000000Y-193000000D03*
X188000000Y-278000000D03*
X38000000Y-83000000D03*
X193000000Y-213000000D03*
X83000000Y-188000000D03*
X233000000Y-133000000D03*
X123000000Y-163000000D03*
X188000000Y-203000000D03*
X78000000Y-138000000D03*
X263000000Y-43000000D03*
X98000000Y-133000000D03*
X103000000Y-223000000D03*
X268000000Y-213000000D03*
X198000000Y-238000000D03*
X108000000Y-53000000D03*
X123000000Y-93000000D03*
X283000000Y-128000000D03*
X128000000Y-128000000D03*
X183000000Y-163000000D03*
X298000000Y-23000000D03*
X123000000Y-133000000D03*
X288000000Y-68000000D03*
X78000000Y-23000000D03*
X143000000Y-18000000D03*
X78000000Y-18000000D03*
X123000000Y-173000000D03*
X28000000Y-233000000D03*
X88000000Y-163000000D03*
X248000000Y-148000000D03*
D13*
X160600000Y-81033333D03*
D12*
X258000000Y-148000000D03*
X98000000Y-258000000D03*
X228000000Y-188000000D03*
X233000000Y-253000000D03*
X63000000Y-233000000D03*
X38000000Y-143000000D03*
X123000000Y-108000000D03*
X178000000Y-253000000D03*
X213000000Y-213000000D03*
X143000000Y-73000000D03*
X48000000Y-53000000D03*
X143000000Y-193000000D03*
X43000000Y-158000000D03*
X303000000Y-93000000D03*
X218000000Y-83000000D03*
X248000000Y-178000000D03*
X198000000Y-248000000D03*
X98000000Y-278000000D03*
X238000000Y-148000000D03*
X48000000Y-173000000D03*
X108000000Y-143000000D03*
X73000000Y-278000000D03*
X118000000Y-23000000D03*
X278000000Y-38000000D03*
X238000000Y-268000000D03*
X168000000Y-128000000D03*
X128000000Y-28000000D03*
X183000000Y-83000000D03*
X108000000Y-48000000D03*
X278000000Y-123000000D03*
X138000000Y-148000000D03*
X38000000Y-78000000D03*
X233000000Y-23000000D03*
X123000000Y-48000000D03*
X298000000Y-68000000D03*
X218000000Y-43000000D03*
X88000000Y-103000000D03*
X83000000Y-163000000D03*
X98000000Y-88000000D03*
X278000000Y-48000000D03*
X238000000Y-123000000D03*
X148000000Y-263000000D03*
X273000000Y-213000000D03*
X268000000Y-118000000D03*
D13*
X161600000Y-84033333D03*
D12*
X298000000Y-88000000D03*
D13*
X161600000Y-80033333D03*
D12*
X33000000Y-93000000D03*
X173000000Y-108000000D03*
X63000000Y-53000000D03*
X88000000Y-193000000D03*
X53000000Y-43000000D03*
X248000000Y-203000000D03*
X158000000Y-183000000D03*
X253000000Y-78000000D03*
X148000000Y-88000000D03*
X233000000Y-98000000D03*
X198000000Y-123000000D03*
X218000000Y-198000000D03*
X258000000Y-173000000D03*
X63000000Y-123000000D03*
X88000000Y-158000000D03*
X113000000Y-43000000D03*
X133000000Y-263000000D03*
X58000000Y-143000000D03*
X33000000Y-258000000D03*
X103000000Y-213000000D03*
X198000000Y-258000000D03*
X208000000Y-138000000D03*
X128000000Y-138000000D03*
X88000000Y-93000000D03*
X233000000Y-228000000D03*
X178000000Y-228000000D03*
X113000000Y-28000000D03*
X258000000Y-18000000D03*
X93000000Y-273000000D03*
X63000000Y-33000000D03*
X228000000Y-78000000D03*
X218000000Y-68000000D03*
X193000000Y-228000000D03*
X183000000Y-93000000D03*
X128000000Y-83000000D03*
X233000000Y-218000000D03*
X78000000Y-213000000D03*
X303000000Y-98000000D03*
X173000000Y-178000000D03*
X243000000Y-183000000D03*
X123000000Y-223000000D03*
X33000000Y-48000000D03*
X268000000Y-163000000D03*
X178000000Y-163000000D03*
X48000000Y-143000000D03*
X108000000Y-103000000D03*
X303000000Y-188000000D03*
X168000000Y-103000000D03*
X53000000Y-18000000D03*
X198000000Y-113000000D03*
X233000000Y-118000000D03*
X173000000Y-128000000D03*
X303000000Y-233000000D03*
X213000000Y-123000000D03*
X268000000Y-98000000D03*
X193000000Y-123000000D03*
X168000000Y-138000000D03*
X43000000Y-203000000D03*
X173000000Y-213000000D03*
X248000000Y-188000000D03*
X233000000Y-78000000D03*
X173000000Y-248000000D03*
X178000000Y-73000000D03*
X283000000Y-223000000D03*
X263000000Y-248000000D03*
X278000000Y-248000000D03*
X88000000Y-118000000D03*
X288000000Y-223000000D03*
X303000000Y-263000000D03*
X253000000Y-193000000D03*
X188000000Y-68000000D03*
X68000000Y-38000000D03*
X263000000Y-263000000D03*
X108000000Y-83000000D03*
X253000000Y-43000000D03*
X258000000Y-208000000D03*
X18000000Y-193000000D03*
X293000000Y-33000000D03*
X108000000Y-243000000D03*
X23000000Y-168000000D03*
X228000000Y-118000000D03*
X78000000Y-203000000D03*
X68000000Y-98000000D03*
X168000000Y-193000000D03*
X288000000Y-218000000D03*
X158000000Y-193000000D03*
X108000000Y-98000000D03*
X53000000Y-208000000D03*
X123000000Y-38000000D03*
X223000000Y-33000000D03*
X218000000Y-193000000D03*
X38000000Y-153000000D03*
X293000000Y-133000000D03*
X113000000Y-113000000D03*
D13*
X163549999Y-85033333D03*
D12*
X168000000Y-143000000D03*
X228000000Y-103000000D03*
X58000000Y-148000000D03*
D13*
X161600000Y-79033333D03*
X161600000Y-83033333D03*
D12*
X253000000Y-28000000D03*
X48000000Y-128000000D03*
X268000000Y-158000000D03*
X113000000Y-78000000D03*
X48000000Y-198000000D03*
X48000000Y-103000000D03*
X178000000Y-248000000D03*
X98000000Y-58000000D03*
X253000000Y-98000000D03*
X228000000Y-213000000D03*
X243000000Y-68000000D03*
X208000000Y-113000000D03*
X263000000Y-73000000D03*
X168000000Y-228000000D03*
X38000000Y-33000000D03*
X63000000Y-48000000D03*
X58000000Y-23000000D03*
X173000000Y-273000000D03*
X253000000Y-273000000D03*
X283000000Y-178000000D03*
X243000000Y-278000000D03*
X153000000Y-88000000D03*
X288000000Y-168000000D03*
X133000000Y-223000000D03*
X183000000Y-218000000D03*
X73000000Y-173000000D03*
X88000000Y-278000000D03*
X158000000Y-168000000D03*
X258000000Y-23000000D03*
X103000000Y-193000000D03*
X133000000Y-163000000D03*
X273000000Y-228000000D03*
X173000000Y-133000000D03*
X118000000Y-153000000D03*
X68000000Y-238000000D03*
X73000000Y-48000000D03*
X233000000Y-173000000D03*
X113000000Y-23000000D03*
X78000000Y-183000000D03*
X28000000Y-73000000D03*
X68000000Y-203000000D03*
X263000000Y-118000000D03*
X143000000Y-223000000D03*
X73000000Y-63000000D03*
X293000000Y-28000000D03*
D13*
X163600000Y-79033333D03*
D12*
X58000000Y-73000000D03*
X133000000Y-228000000D03*
X118000000Y-263000000D03*
X123000000Y-158000000D03*
X23000000Y-98000000D03*
X238000000Y-68000000D03*
X253000000Y-263000000D03*
X153000000Y-258000000D03*
X293000000Y-228000000D03*
X88000000Y-113000000D03*
X113000000Y-33000000D03*
X213000000Y-178000000D03*
X33000000Y-278000000D03*
X43000000Y-193000000D03*
X68000000Y-193000000D03*
X248000000Y-133000000D03*
X178000000Y-168000000D03*
X178000000Y-178000000D03*
X148000000Y-128000000D03*
X303000000Y-278000000D03*
X148000000Y-178000000D03*
X243000000Y-238000000D03*
X98000000Y-113000000D03*
X133000000Y-78000000D03*
X43000000Y-118000000D03*
X113000000Y-38000000D03*
X43000000Y-53000000D03*
X143000000Y-173000000D03*
X158000000Y-33000000D03*
X88000000Y-153000000D03*
X133000000Y-183000000D03*
X298000000Y-133000000D03*
X103000000Y-173000000D03*
X213000000Y-263000000D03*
X218000000Y-213000000D03*
X283000000Y-63000000D03*
X93000000Y-248000000D03*
X178000000Y-193000000D03*
X143000000Y-83000000D03*
X268000000Y-28000000D03*
X178000000Y-83000000D03*
X83000000Y-168000000D03*
X18000000Y-88000000D03*
X233000000Y-143000000D03*
X68000000Y-53000000D03*
X43000000Y-268000000D03*
X93000000Y-83000000D03*
X88000000Y-68000000D03*
X93000000Y-73000000D03*
X273000000Y-233000000D03*
X108000000Y-153000000D03*
X193000000Y-73000000D03*
X218000000Y-128000000D03*
X53000000Y-58000000D03*
X283000000Y-258000000D03*
X53000000Y-193000000D03*
X268000000Y-273000000D03*
X78000000Y-173000000D03*
X278000000Y-268000000D03*
X78000000Y-38000000D03*
X268000000Y-193000000D03*
X63000000Y-73000000D03*
X263000000Y-103000000D03*
X58000000Y-33000000D03*
X143000000Y-78000000D03*
X158000000Y-53000000D03*
X58000000Y-128000000D03*
X293000000Y-93000000D03*
X208000000Y-178000000D03*
X43000000Y-163000000D03*
X138000000Y-18000000D03*
X303000000Y-178000000D03*
X23000000Y-238000000D03*
X148000000Y-28000000D03*
X288000000Y-203000000D03*
X203000000Y-143000000D03*
X43000000Y-113000000D03*
X188000000Y-93000000D03*
X223000000Y-193000000D03*
X48000000Y-213000000D03*
D13*
X164549999Y-85033333D03*
D12*
X98000000Y-63000000D03*
X188000000Y-23000000D03*
X298000000Y-278000000D03*
X283000000Y-158000000D03*
X63000000Y-133000000D03*
X38000000Y-168000000D03*
X193000000Y-183000000D03*
X38000000Y-183000000D03*
X58000000Y-243000000D03*
X123000000Y-88000000D03*
X203000000Y-103000000D03*
X43000000Y-233000000D03*
X208000000Y-133000000D03*
X208000000Y-163000000D03*
X303000000Y-88000000D03*
X198000000Y-218000000D03*
X53000000Y-183000000D03*
X28000000Y-58000000D03*
X33000000Y-198000000D03*
X118000000Y-83000000D03*
X18000000Y-68000000D03*
X298000000Y-213000000D03*
X163000000Y-213000000D03*
X158000000Y-233000000D03*
X108000000Y-58000000D03*
X198000000Y-28000000D03*
X248000000Y-213000000D03*
X223000000Y-208000000D03*
D13*
X164549999Y-82033333D03*
D12*
X188000000Y-163000000D03*
X193000000Y-48000000D03*
X298000000Y-83000000D03*
X193000000Y-38000000D03*
X73000000Y-163000000D03*
X43000000Y-108000000D03*
X223000000Y-218000000D03*
X253000000Y-23000000D03*
X238000000Y-203000000D03*
X253000000Y-258000000D03*
X23000000Y-108000000D03*
X153000000Y-158000000D03*
X293000000Y-108000000D03*
X153000000Y-73000000D03*
X78000000Y-193000000D03*
X93000000Y-88000000D03*
X168000000Y-23000000D03*
X88000000Y-213000000D03*
X88000000Y-43000000D03*
X218000000Y-93000000D03*
X68000000Y-23000000D03*
X68000000Y-63000000D03*
X188000000Y-118000000D03*
X68000000Y-253000000D03*
X143000000Y-228000000D03*
X273000000Y-88000000D03*
X283000000Y-173000000D03*
X188000000Y-128000000D03*
X173000000Y-53000000D03*
X213000000Y-198000000D03*
X103000000Y-183000000D03*
X188000000Y-183000000D03*
X93000000Y-268000000D03*
X103000000Y-248000000D03*
X18000000Y-178000000D03*
X73000000Y-158000000D03*
X108000000Y-128000000D03*
X268000000Y-128000000D03*
X263000000Y-23000000D03*
X288000000Y-38000000D03*
X163000000Y-238000000D03*
X243000000Y-208000000D03*
X18000000Y-118000000D03*
X298000000Y-33000000D03*
X78000000Y-268000000D03*
X33000000Y-23000000D03*
X43000000Y-33000000D03*
X163000000Y-78000000D03*
X83000000Y-38000000D03*
X103000000Y-188000000D03*
X53000000Y-253000000D03*
X298000000Y-93000000D03*
X228000000Y-228000000D03*
X213000000Y-23000000D03*
X278000000Y-18000000D03*
X108000000Y-178000000D03*
X178000000Y-243000000D03*
X138000000Y-223000000D03*
X223000000Y-123000000D03*
X283000000Y-118000000D03*
X208000000Y-188000000D03*
X53000000Y-228000000D03*
X168000000Y-183000000D03*
X278000000Y-118000000D03*
X188000000Y-268000000D03*
X283000000Y-18000000D03*
X163000000Y-228000000D03*
X88000000Y-88000000D03*
X248000000Y-253000000D03*
X33000000Y-108000000D03*
X63000000Y-253000000D03*
X248000000Y-33000000D03*
D13*
X161549999Y-86033333D03*
D12*
X173000000Y-73000000D03*
X268000000Y-223000000D03*
X63000000Y-208000000D03*
X138000000Y-258000000D03*
D13*
X161549999Y-84033333D03*
D12*
X193000000Y-168000000D03*
X153000000Y-133000000D03*
X193000000Y-18000000D03*
X83000000Y-93000000D03*
X118000000Y-158000000D03*
D13*
X162600000Y-83033333D03*
D12*
X18000000Y-158000000D03*
X273000000Y-58000000D03*
X268000000Y-188000000D03*
X98000000Y-108000000D03*
X263000000Y-63000000D03*
X158000000Y-143000000D03*
X108000000Y-238000000D03*
X243000000Y-213000000D03*
X303000000Y-223000000D03*
X63000000Y-28000000D03*
X228000000Y-23000000D03*
X238000000Y-188000000D03*
X138000000Y-163000000D03*
X33000000Y-28000000D03*
X198000000Y-108000000D03*
X68000000Y-278000000D03*
X173000000Y-188000000D03*
D13*
X163600000Y-80033333D03*
D12*
X208000000Y-268000000D03*
X93000000Y-33000000D03*
X243000000Y-78000000D03*
X263000000Y-173000000D03*
X158000000Y-243000000D03*
X98000000Y-143000000D03*
X68000000Y-68000000D03*
X293000000Y-278000000D03*
X143000000Y-58000000D03*
X88000000Y-143000000D03*
X263000000Y-183000000D03*
X128000000Y-73000000D03*
X303000000Y-168000000D03*
X28000000Y-263000000D03*
X288000000Y-23000000D03*
X73000000Y-258000000D03*
X98000000Y-148000000D03*
X98000000Y-198000000D03*
X148000000Y-158000000D03*
X58000000Y-158000000D03*
X288000000Y-108000000D03*
X213000000Y-238000000D03*
X18000000Y-43000000D03*
X133000000Y-83000000D03*
X38000000Y-208000000D03*
X223000000Y-268000000D03*
X203000000Y-43000000D03*
X253000000Y-223000000D03*
X208000000Y-68000000D03*
X188000000Y-103000000D03*
D13*
X160600000Y-84033333D03*
D12*
X58000000Y-48000000D03*
X198000000Y-208000000D03*
X253000000Y-118000000D03*
X73000000Y-18000000D03*
X173000000Y-78000000D03*
X18000000Y-23000000D03*
X163000000Y-273000000D03*
X138000000Y-98000000D03*
X108000000Y-138000000D03*
X73000000Y-123000000D03*
X158000000Y-88000000D03*
X118000000Y-198000000D03*
X173000000Y-113000000D03*
X143000000Y-143000000D03*
X278000000Y-223000000D03*
X68000000Y-208000000D03*
X223000000Y-188000000D03*
X253000000Y-53000000D03*
X183000000Y-198000000D03*
X93000000Y-233000000D03*
X283000000Y-253000000D03*
X298000000Y-193000000D03*
X248000000Y-123000000D03*
X43000000Y-103000000D03*
X158000000Y-128000000D03*
X23000000Y-258000000D03*
X273000000Y-123000000D03*
X38000000Y-163000000D03*
X28000000Y-83000000D03*
X23000000Y-148000000D03*
X148000000Y-93000000D03*
X288000000Y-28000000D03*
X168000000Y-163000000D03*
X98000000Y-183000000D03*
X53000000Y-223000000D03*
X183000000Y-173000000D03*
X273000000Y-33000000D03*
X128000000Y-248000000D03*
X168000000Y-118000000D03*
X113000000Y-218000000D03*
X133000000Y-138000000D03*
X213000000Y-118000000D03*
X253000000Y-268000000D03*
X18000000Y-53000000D03*
X103000000Y-143000000D03*
X53000000Y-178000000D03*
X108000000Y-78000000D03*
X258000000Y-158000000D03*
X233000000Y-203000000D03*
X278000000Y-128000000D03*
X208000000Y-233000000D03*
X178000000Y-188000000D03*
X58000000Y-273000000D03*
X168000000Y-93000000D03*
X18000000Y-213000000D03*
X213000000Y-78000000D03*
X298000000Y-58000000D03*
X103000000Y-43000000D03*
X248000000Y-83000000D03*
X168000000Y-63000000D03*
X223000000Y-223000000D03*
X173000000Y-43000000D03*
X263000000Y-158000000D03*
X253000000Y-278000000D03*
X238000000Y-173000000D03*
D13*
X163549999Y-79033333D03*
D12*
X218000000Y-273000000D03*
X263000000Y-168000000D03*
X78000000Y-63000000D03*
X138000000Y-88000000D03*
X213000000Y-188000000D03*
X28000000Y-218000000D03*
X78000000Y-68000000D03*
X38000000Y-113000000D03*
X153000000Y-138000000D03*
X173000000Y-158000000D03*
X233000000Y-53000000D03*
X268000000Y-143000000D03*
X128000000Y-58000000D03*
D13*
X163549999Y-83033333D03*
D12*
X233000000Y-28000000D03*
X293000000Y-218000000D03*
X28000000Y-243000000D03*
X148000000Y-163000000D03*
X78000000Y-73000000D03*
X38000000Y-88000000D03*
X138000000Y-208000000D03*
X78000000Y-233000000D03*
X283000000Y-23000000D03*
X248000000Y-233000000D03*
X23000000Y-278000000D03*
X193000000Y-193000000D03*
X283000000Y-93000000D03*
X18000000Y-148000000D03*
X273000000Y-223000000D03*
X78000000Y-238000000D03*
X293000000Y-183000000D03*
X273000000Y-158000000D03*
X118000000Y-53000000D03*
X293000000Y-88000000D03*
X43000000Y-98000000D03*
X193000000Y-278000000D03*
X28000000Y-78000000D03*
X223000000Y-108000000D03*
X33000000Y-38000000D03*
X233000000Y-73000000D03*
X143000000Y-63000000D03*
X28000000Y-198000000D03*
X43000000Y-228000000D03*
X103000000Y-133000000D03*
X263000000Y-83000000D03*
X73000000Y-113000000D03*
X48000000Y-158000000D03*
X208000000Y-248000000D03*
X68000000Y-113000000D03*
X143000000Y-263000000D03*
X113000000Y-198000000D03*
X203000000Y-173000000D03*
X208000000Y-43000000D03*
X143000000Y-213000000D03*
X293000000Y-148000000D03*
X238000000Y-63000000D03*
X223000000Y-228000000D03*
X143000000Y-268000000D03*
X298000000Y-38000000D03*
X98000000Y-73000000D03*
X28000000Y-23000000D03*
X143000000Y-38000000D03*
X53000000Y-258000000D03*
X263000000Y-48000000D03*
X163000000Y-143000000D03*
X48000000Y-223000000D03*
X173000000Y-58000000D03*
X158000000Y-208000000D03*
X168000000Y-53000000D03*
X38000000Y-233000000D03*
X278000000Y-178000000D03*
X228000000Y-128000000D03*
X33000000Y-153000000D03*
X18000000Y-183000000D03*
X133000000Y-133000000D03*
X73000000Y-253000000D03*
X88000000Y-238000000D03*
X193000000Y-28000000D03*
X198000000Y-58000000D03*
X268000000Y-83000000D03*
X138000000Y-58000000D03*
X223000000Y-143000000D03*
X48000000Y-183000000D03*
X193000000Y-233000000D03*
X88000000Y-168000000D03*
X283000000Y-233000000D03*
X128000000Y-178000000D03*
X208000000Y-58000000D03*
X198000000Y-233000000D03*
X183000000Y-88000000D03*
X173000000Y-218000000D03*
X288000000Y-118000000D03*
X118000000Y-98000000D03*
X198000000Y-103000000D03*
X88000000Y-183000000D03*
X138000000Y-83000000D03*
X83000000Y-203000000D03*
X258000000Y-88000000D03*
X198000000Y-268000000D03*
X103000000Y-118000000D03*
X168000000Y-148000000D03*
X238000000Y-213000000D03*
X68000000Y-188000000D03*
X163000000Y-158000000D03*
X283000000Y-28000000D03*
X163000000Y-133000000D03*
X203000000Y-218000000D03*
X213000000Y-168000000D03*
X63000000Y-203000000D03*
X138000000Y-268000000D03*
X233000000Y-43000000D03*
X23000000Y-213000000D03*
X218000000Y-158000000D03*
X23000000Y-198000000D03*
X128000000Y-228000000D03*
X33000000Y-243000000D03*
X258000000Y-188000000D03*
X163000000Y-123000000D03*
X108000000Y-73000000D03*
X253000000Y-128000000D03*
X48000000Y-218000000D03*
X273000000Y-108000000D03*
X43000000Y-63000000D03*
X238000000Y-128000000D03*
X283000000Y-53000000D03*
X168000000Y-73000000D03*
X143000000Y-258000000D03*
X53000000Y-63000000D03*
X38000000Y-228000000D03*
X23000000Y-253000000D03*
X248000000Y-273000000D03*
X163000000Y-258000000D03*
X83000000Y-63000000D03*
X148000000Y-33000000D03*
X268000000Y-68000000D03*
X178000000Y-43000000D03*
X43000000Y-183000000D03*
X278000000Y-113000000D03*
X303000000Y-228000000D03*
X128000000Y-48000000D03*
X98000000Y-193000000D03*
X238000000Y-258000000D03*
X233000000Y-103000000D03*
X98000000Y-273000000D03*
X133000000Y-28000000D03*
X48000000Y-133000000D03*
X263000000Y-193000000D03*
X83000000Y-98000000D03*
X78000000Y-263000000D03*
X53000000Y-218000000D03*
X263000000Y-113000000D03*
X118000000Y-33000000D03*
X113000000Y-143000000D03*
X118000000Y-88000000D03*
X73000000Y-33000000D03*
X263000000Y-223000000D03*
X98000000Y-173000000D03*
X223000000Y-48000000D03*
D13*
X164549999Y-79033333D03*
D12*
X283000000Y-218000000D03*
X53000000Y-23000000D03*
X113000000Y-183000000D03*
X288000000Y-88000000D03*
X223000000Y-263000000D03*
X138000000Y-233000000D03*
X83000000Y-33000000D03*
X188000000Y-188000000D03*
X173000000Y-278000000D03*
X273000000Y-258000000D03*
X273000000Y-28000000D03*
X38000000Y-278000000D03*
X253000000Y-183000000D03*
X273000000Y-63000000D03*
X188000000Y-28000000D03*
X208000000Y-143000000D03*
X253000000Y-73000000D03*
X298000000Y-103000000D03*
X153000000Y-38000000D03*
X243000000Y-268000000D03*
X68000000Y-223000000D03*
X58000000Y-93000000D03*
X63000000Y-248000000D03*
X298000000Y-153000000D03*
X118000000Y-48000000D03*
X293000000Y-273000000D03*
X138000000Y-213000000D03*
X208000000Y-273000000D03*
X58000000Y-278000000D03*
X258000000Y-143000000D03*
X253000000Y-133000000D03*
X88000000Y-108000000D03*
X293000000Y-123000000D03*
X78000000Y-278000000D03*
X73000000Y-193000000D03*
X238000000Y-58000000D03*
X183000000Y-103000000D03*
X43000000Y-23000000D03*
X148000000Y-138000000D03*
X238000000Y-253000000D03*
X278000000Y-68000000D03*
X233000000Y-128000000D03*
X158000000Y-278000000D03*
X83000000Y-83000000D03*
X103000000Y-78000000D03*
X218000000Y-63000000D03*
X248000000Y-268000000D03*
X178000000Y-53000000D03*
X208000000Y-78000000D03*
X118000000Y-113000000D03*
X148000000Y-238000000D03*
X53000000Y-118000000D03*
X98000000Y-213000000D03*
X28000000Y-38000000D03*
X183000000Y-123000000D03*
X28000000Y-183000000D03*
X23000000Y-163000000D03*
X163000000Y-128000000D03*
X133000000Y-58000000D03*
X23000000Y-38000000D03*
X303000000Y-163000000D03*
X213000000Y-33000000D03*
X58000000Y-83000000D03*
X118000000Y-73000000D03*
X268000000Y-88000000D03*
X268000000Y-203000000D03*
X23000000Y-153000000D03*
X103000000Y-83000000D03*
X203000000Y-18000000D03*
X73000000Y-93000000D03*
X38000000Y-18000000D03*
X93000000Y-238000000D03*
X98000000Y-48000000D03*
X98000000Y-163000000D03*
X28000000Y-43000000D03*
X138000000Y-63000000D03*
X273000000Y-113000000D03*
X43000000Y-188000000D03*
X213000000Y-58000000D03*
X133000000Y-113000000D03*
X193000000Y-243000000D03*
X63000000Y-118000000D03*
X193000000Y-273000000D03*
X263000000Y-33000000D03*
X183000000Y-78000000D03*
X68000000Y-118000000D03*
X73000000Y-58000000D03*
X93000000Y-53000000D03*
X273000000Y-203000000D03*
X128000000Y-43000000D03*
X228000000Y-253000000D03*
X88000000Y-98000000D03*
X113000000Y-128000000D03*
X223000000Y-98000000D03*
X158000000Y-268000000D03*
X218000000Y-258000000D03*
X303000000Y-23000000D03*
X113000000Y-163000000D03*
X198000000Y-63000000D03*
X298000000Y-248000000D03*
X43000000Y-218000000D03*
X188000000Y-243000000D03*
X243000000Y-118000000D03*
X253000000Y-153000000D03*
X18000000Y-263000000D03*
X168000000Y-218000000D03*
X78000000Y-258000000D03*
X38000000Y-48000000D03*
D13*
X162600000Y-84033333D03*
D12*
X43000000Y-153000000D03*
X283000000Y-78000000D03*
X268000000Y-38000000D03*
X243000000Y-218000000D03*
X268000000Y-18000000D03*
X128000000Y-153000000D03*
X228000000Y-173000000D03*
X168000000Y-173000000D03*
X173000000Y-253000000D03*
X298000000Y-203000000D03*
X298000000Y-208000000D03*
X258000000Y-153000000D03*
X18000000Y-78000000D03*
X303000000Y-68000000D03*
X138000000Y-73000000D03*
X223000000Y-148000000D03*
X213000000Y-48000000D03*
X28000000Y-238000000D03*
X203000000Y-118000000D03*
X228000000Y-48000000D03*
X268000000Y-168000000D03*
X138000000Y-113000000D03*
X128000000Y-238000000D03*
X103000000Y-218000000D03*
X23000000Y-28000000D03*
X183000000Y-273000000D03*
X223000000Y-153000000D03*
X128000000Y-193000000D03*
X123000000Y-268000000D03*
X48000000Y-113000000D03*
X23000000Y-123000000D03*
X293000000Y-68000000D03*
X78000000Y-98000000D03*
X153000000Y-48000000D03*
X158000000Y-43000000D03*
X133000000Y-73000000D03*
X218000000Y-103000000D03*
X273000000Y-93000000D03*
X273000000Y-163000000D03*
X238000000Y-158000000D03*
X33000000Y-178000000D03*
X88000000Y-188000000D03*
X218000000Y-48000000D03*
X58000000Y-118000000D03*
X228000000Y-93000000D03*
X178000000Y-63000000D03*
X283000000Y-138000000D03*
X48000000Y-193000000D03*
X293000000Y-153000000D03*
X173000000Y-148000000D03*
X233000000Y-258000000D03*
X238000000Y-93000000D03*
X43000000Y-243000000D03*
X148000000Y-168000000D03*
X58000000Y-188000000D03*
X78000000Y-253000000D03*
X183000000Y-63000000D03*
X108000000Y-218000000D03*
X298000000Y-123000000D03*
X93000000Y-223000000D03*
X218000000Y-183000000D03*
X213000000Y-98000000D03*
X118000000Y-238000000D03*
X238000000Y-133000000D03*
X23000000Y-138000000D03*
X223000000Y-113000000D03*
X283000000Y-98000000D03*
X133000000Y-168000000D03*
X33000000Y-63000000D03*
X118000000Y-163000000D03*
X28000000Y-268000000D03*
X43000000Y-133000000D03*
X108000000Y-123000000D03*
X98000000Y-238000000D03*
X173000000Y-63000000D03*
X288000000Y-78000000D03*
X298000000Y-53000000D03*
X218000000Y-238000000D03*
X93000000Y-158000000D03*
X38000000Y-273000000D03*
X163000000Y-33000000D03*
X263000000Y-273000000D03*
X123000000Y-28000000D03*
X48000000Y-23000000D03*
X168000000Y-203000000D03*
X243000000Y-178000000D03*
X33000000Y-193000000D03*
X168000000Y-178000000D03*
X153000000Y-63000000D03*
X288000000Y-193000000D03*
X248000000Y-218000000D03*
X288000000Y-268000000D03*
X223000000Y-253000000D03*
X163000000Y-58000000D03*
X198000000Y-188000000D03*
X33000000Y-183000000D03*
X228000000Y-203000000D03*
X143000000Y-168000000D03*
X258000000Y-163000000D03*
X113000000Y-248000000D03*
X83000000Y-233000000D03*
X233000000Y-248000000D03*
X288000000Y-63000000D03*
X233000000Y-243000000D03*
X173000000Y-223000000D03*
X203000000Y-268000000D03*
X243000000Y-33000000D03*
X53000000Y-83000000D03*
X243000000Y-93000000D03*
X58000000Y-263000000D03*
X233000000Y-233000000D03*
X83000000Y-68000000D03*
X228000000Y-83000000D03*
X273000000Y-138000000D03*
X43000000Y-83000000D03*
X258000000Y-123000000D03*
X108000000Y-273000000D03*
X243000000Y-43000000D03*
X103000000Y-278000000D03*
X218000000Y-138000000D03*
X238000000Y-273000000D03*
X83000000Y-28000000D03*
X158000000Y-253000000D03*
X228000000Y-98000000D03*
X83000000Y-173000000D03*
X28000000Y-33000000D03*
X63000000Y-198000000D03*
X73000000Y-218000000D03*
X28000000Y-63000000D03*
X18000000Y-93000000D03*
X78000000Y-93000000D03*
X258000000Y-53000000D03*
X208000000Y-203000000D03*
X183000000Y-28000000D03*
X118000000Y-248000000D03*
X68000000Y-243000000D03*
X263000000Y-268000000D03*
X153000000Y-228000000D03*
X248000000Y-238000000D03*
X288000000Y-213000000D03*
X283000000Y-248000000D03*
X23000000Y-63000000D03*
X263000000Y-138000000D03*
X253000000Y-248000000D03*
X293000000Y-243000000D03*
X163000000Y-198000000D03*
X213000000Y-268000000D03*
X198000000Y-48000000D03*
X148000000Y-278000000D03*
X133000000Y-193000000D03*
X238000000Y-48000000D03*
X268000000Y-58000000D03*
X208000000Y-128000000D03*
X88000000Y-218000000D03*
X73000000Y-273000000D03*
X48000000Y-18000000D03*
D13*
X163600000Y-84033333D03*
D12*
X243000000Y-133000000D03*
X298000000Y-183000000D03*
X278000000Y-98000000D03*
X123000000Y-273000000D03*
X193000000Y-23000000D03*
X28000000Y-148000000D03*
X93000000Y-148000000D03*
X143000000Y-88000000D03*
X243000000Y-253000000D03*
X263000000Y-218000000D03*
X183000000Y-168000000D03*
X243000000Y-263000000D03*
X28000000Y-18000000D03*
X233000000Y-148000000D03*
X68000000Y-73000000D03*
X188000000Y-73000000D03*
X218000000Y-148000000D03*
X28000000Y-28000000D03*
X163000000Y-193000000D03*
X293000000Y-173000000D03*
X158000000Y-173000000D03*
X103000000Y-208000000D03*
X273000000Y-98000000D03*
X123000000Y-278000000D03*
X88000000Y-133000000D03*
X28000000Y-143000000D03*
X183000000Y-153000000D03*
X103000000Y-243000000D03*
X53000000Y-138000000D03*
X238000000Y-88000000D03*
X53000000Y-33000000D03*
D13*
X161600000Y-86033333D03*
D12*
X93000000Y-123000000D03*
X158000000Y-63000000D03*
X103000000Y-48000000D03*
X293000000Y-53000000D03*
X293000000Y-233000000D03*
X18000000Y-123000000D03*
X163000000Y-68000000D03*
X273000000Y-118000000D03*
X118000000Y-128000000D03*
X223000000Y-118000000D03*
X18000000Y-38000000D03*
X68000000Y-58000000D03*
X218000000Y-263000000D03*
X53000000Y-108000000D03*
X258000000Y-28000000D03*
X263000000Y-228000000D03*
X158000000Y-228000000D03*
X158000000Y-258000000D03*
X143000000Y-113000000D03*
X133000000Y-38000000D03*
X263000000Y-123000000D03*
X133000000Y-93000000D03*
X108000000Y-33000000D03*
X293000000Y-193000000D03*
X228000000Y-73000000D03*
X213000000Y-258000000D03*
X303000000Y-238000000D03*
X33000000Y-118000000D03*
X133000000Y-253000000D03*
D13*
X161549999Y-80033333D03*
D12*
X148000000Y-118000000D03*
X218000000Y-33000000D03*
D13*
X164549999Y-80033333D03*
D12*
X163000000Y-63000000D03*
X233000000Y-88000000D03*
X198000000Y-18000000D03*
X78000000Y-113000000D03*
X133000000Y-108000000D03*
X283000000Y-123000000D03*
X268000000Y-63000000D03*
X198000000Y-273000000D03*
X168000000Y-108000000D03*
X153000000Y-213000000D03*
X263000000Y-133000000D03*
X238000000Y-228000000D03*
X53000000Y-73000000D03*
X88000000Y-33000000D03*
X288000000Y-128000000D03*
X223000000Y-213000000D03*
X288000000Y-138000000D03*
X248000000Y-28000000D03*
X263000000Y-143000000D03*
X228000000Y-243000000D03*
X288000000Y-123000000D03*
X258000000Y-228000000D03*
X268000000Y-243000000D03*
X113000000Y-278000000D03*
X48000000Y-168000000D03*
X218000000Y-168000000D03*
X288000000Y-58000000D03*
X103000000Y-88000000D03*
X203000000Y-108000000D03*
X218000000Y-23000000D03*
X293000000Y-168000000D03*
X188000000Y-98000000D03*
X258000000Y-38000000D03*
X83000000Y-23000000D03*
X278000000Y-133000000D03*
X148000000Y-48000000D03*
X38000000Y-198000000D03*
X273000000Y-148000000D03*
X188000000Y-48000000D03*
X268000000Y-208000000D03*
X223000000Y-63000000D03*
X213000000Y-88000000D03*
X38000000Y-268000000D03*
X23000000Y-78000000D03*
X303000000Y-153000000D03*
X103000000Y-268000000D03*
X198000000Y-253000000D03*
X43000000Y-43000000D03*
X128000000Y-68000000D03*
X138000000Y-143000000D03*
X98000000Y-53000000D03*
X73000000Y-138000000D03*
X148000000Y-228000000D03*
X258000000Y-98000000D03*
X113000000Y-168000000D03*
X278000000Y-53000000D03*
X178000000Y-263000000D03*
X138000000Y-108000000D03*
X118000000Y-43000000D03*
X38000000Y-223000000D03*
X188000000Y-133000000D03*
X293000000Y-38000000D03*
X113000000Y-268000000D03*
X298000000Y-108000000D03*
X83000000Y-148000000D03*
X128000000Y-233000000D03*
X33000000Y-128000000D03*
X278000000Y-238000000D03*
X58000000Y-203000000D03*
X143000000Y-108000000D03*
X63000000Y-163000000D03*
X243000000Y-148000000D03*
X183000000Y-128000000D03*
X228000000Y-248000000D03*
X243000000Y-243000000D03*
X43000000Y-173000000D03*
X23000000Y-73000000D03*
X78000000Y-148000000D03*
X143000000Y-183000000D03*
X198000000Y-163000000D03*
X33000000Y-203000000D03*
X108000000Y-193000000D03*
X133000000Y-178000000D03*
X183000000Y-58000000D03*
X28000000Y-53000000D03*
X148000000Y-173000000D03*
X273000000Y-128000000D03*
X118000000Y-203000000D03*
X208000000Y-218000000D03*
X93000000Y-258000000D03*
X178000000Y-108000000D03*
X288000000Y-113000000D03*
X148000000Y-253000000D03*
X48000000Y-118000000D03*
X33000000Y-73000000D03*
X168000000Y-223000000D03*
X233000000Y-63000000D03*
X88000000Y-243000000D03*
X23000000Y-158000000D03*
X288000000Y-248000000D03*
X208000000Y-83000000D03*
X158000000Y-48000000D03*
X93000000Y-58000000D03*
X223000000Y-158000000D03*
X98000000Y-203000000D03*
X193000000Y-248000000D03*
X243000000Y-273000000D03*
X48000000Y-253000000D03*
X263000000Y-108000000D03*
X28000000Y-98000000D03*
X48000000Y-48000000D03*
X208000000Y-253000000D03*
X78000000Y-248000000D03*
X193000000Y-218000000D03*
X108000000Y-28000000D03*
X228000000Y-183000000D03*
X118000000Y-193000000D03*
X53000000Y-53000000D03*
X18000000Y-278000000D03*
X23000000Y-188000000D03*
D13*
X162549999Y-84033333D03*
D12*
X163000000Y-103000000D03*
X288000000Y-243000000D03*
X268000000Y-123000000D03*
X58000000Y-238000000D03*
X48000000Y-108000000D03*
X213000000Y-28000000D03*
X108000000Y-118000000D03*
X163000000Y-218000000D03*
X93000000Y-43000000D03*
X173000000Y-263000000D03*
X223000000Y-273000000D03*
X68000000Y-28000000D03*
X133000000Y-213000000D03*
X58000000Y-253000000D03*
X298000000Y-263000000D03*
X193000000Y-148000000D03*
X138000000Y-33000000D03*
X183000000Y-23000000D03*
X158000000Y-203000000D03*
X83000000Y-248000000D03*
X88000000Y-268000000D03*
X293000000Y-43000000D03*
X143000000Y-188000000D03*
X188000000Y-43000000D03*
X193000000Y-253000000D03*
X18000000Y-208000000D03*
X173000000Y-38000000D03*
X268000000Y-233000000D03*
X18000000Y-138000000D03*
X268000000Y-148000000D03*
X268000000Y-73000000D03*
X283000000Y-33000000D03*
X83000000Y-108000000D03*
X268000000Y-93000000D03*
X263000000Y-153000000D03*
X248000000Y-113000000D03*
X278000000Y-23000000D03*
X83000000Y-73000000D03*
X238000000Y-18000000D03*
X83000000Y-128000000D03*
X103000000Y-103000000D03*
X18000000Y-33000000D03*
X103000000Y-28000000D03*
X188000000Y-213000000D03*
X143000000Y-208000000D03*
X198000000Y-193000000D03*
X248000000Y-153000000D03*
X128000000Y-148000000D03*
X163000000Y-253000000D03*
X193000000Y-138000000D03*
X53000000Y-133000000D03*
X73000000Y-153000000D03*
X223000000Y-43000000D03*
X153000000Y-273000000D03*
X303000000Y-28000000D03*
X303000000Y-218000000D03*
X108000000Y-183000000D03*
X158000000Y-273000000D03*
X158000000Y-113000000D03*
X248000000Y-163000000D03*
X18000000Y-223000000D03*
X98000000Y-208000000D03*
X208000000Y-28000000D03*
X138000000Y-38000000D03*
X258000000Y-213000000D03*
X278000000Y-263000000D03*
X63000000Y-258000000D03*
X163000000Y-183000000D03*
X83000000Y-88000000D03*
X238000000Y-263000000D03*
D13*
X162549999Y-83033333D03*
D12*
X223000000Y-198000000D03*
X138000000Y-188000000D03*
X138000000Y-218000000D03*
X18000000Y-168000000D03*
X298000000Y-218000000D03*
X33000000Y-143000000D03*
X38000000Y-43000000D03*
X213000000Y-163000000D03*
X63000000Y-168000000D03*
X73000000Y-233000000D03*
X53000000Y-238000000D03*
X178000000Y-128000000D03*
X138000000Y-193000000D03*
X218000000Y-228000000D03*
X258000000Y-203000000D03*
X173000000Y-258000000D03*
X238000000Y-118000000D03*
X208000000Y-63000000D03*
X243000000Y-58000000D03*
X168000000Y-98000000D03*
X223000000Y-103000000D03*
X168000000Y-38000000D03*
X158000000Y-248000000D03*
X183000000Y-188000000D03*
X223000000Y-68000000D03*
X128000000Y-113000000D03*
X248000000Y-108000000D03*
X143000000Y-278000000D03*
X238000000Y-78000000D03*
X283000000Y-73000000D03*
X188000000Y-63000000D03*
X108000000Y-188000000D03*
X38000000Y-28000000D03*
X63000000Y-153000000D03*
X28000000Y-203000000D03*
X238000000Y-103000000D03*
X73000000Y-38000000D03*
X108000000Y-23000000D03*
X83000000Y-43000000D03*
X158000000Y-133000000D03*
X238000000Y-198000000D03*
X168000000Y-88000000D03*
X53000000Y-98000000D03*
X223000000Y-163000000D03*
X263000000Y-233000000D03*
X18000000Y-113000000D03*
X83000000Y-223000000D03*
X203000000Y-48000000D03*
X63000000Y-273000000D03*
D13*
X162600000Y-82033333D03*
D12*
X193000000Y-263000000D03*
X138000000Y-178000000D03*
X98000000Y-153000000D03*
X178000000Y-143000000D03*
X143000000Y-118000000D03*
X298000000Y-43000000D03*
X83000000Y-268000000D03*
X213000000Y-133000000D03*
X153000000Y-153000000D03*
X273000000Y-103000000D03*
X283000000Y-88000000D03*
X33000000Y-113000000D03*
X138000000Y-278000000D03*
X203000000Y-63000000D03*
X153000000Y-183000000D03*
X228000000Y-63000000D03*
X173000000Y-83000000D03*
X278000000Y-213000000D03*
X148000000Y-83000000D03*
X203000000Y-238000000D03*
X38000000Y-258000000D03*
X288000000Y-18000000D03*
X178000000Y-133000000D03*
X283000000Y-208000000D03*
X163000000Y-188000000D03*
X78000000Y-223000000D03*
X168000000Y-278000000D03*
X73000000Y-188000000D03*
X143000000Y-53000000D03*
X198000000Y-228000000D03*
X183000000Y-43000000D03*
X83000000Y-213000000D03*
X28000000Y-253000000D03*
X38000000Y-148000000D03*
X58000000Y-258000000D03*
X108000000Y-258000000D03*
X38000000Y-178000000D03*
X53000000Y-88000000D03*
X148000000Y-213000000D03*
X93000000Y-208000000D03*
X23000000Y-248000000D03*
X108000000Y-228000000D03*
X33000000Y-88000000D03*
X213000000Y-68000000D03*
X173000000Y-143000000D03*
X63000000Y-128000000D03*
X178000000Y-138000000D03*
X218000000Y-248000000D03*
X148000000Y-63000000D03*
X203000000Y-263000000D03*
X263000000Y-28000000D03*
X248000000Y-48000000D03*
X103000000Y-98000000D03*
X198000000Y-173000000D03*
X18000000Y-28000000D03*
X153000000Y-248000000D03*
X163000000Y-43000000D03*
X38000000Y-158000000D03*
X223000000Y-128000000D03*
X108000000Y-248000000D03*
X188000000Y-158000000D03*
X98000000Y-268000000D03*
X138000000Y-168000000D03*
X163000000Y-38000000D03*
X118000000Y-58000000D03*
X243000000Y-233000000D03*
X33000000Y-133000000D03*
X293000000Y-18000000D03*
X158000000Y-73000000D03*
X173000000Y-208000000D03*
X293000000Y-223000000D03*
X283000000Y-83000000D03*
X33000000Y-43000000D03*
X213000000Y-253000000D03*
X98000000Y-253000000D03*
X288000000Y-258000000D03*
X278000000Y-63000000D03*
X158000000Y-58000000D03*
X203000000Y-113000000D03*
X133000000Y-158000000D03*
X128000000Y-18000000D03*
X253000000Y-158000000D03*
X248000000Y-198000000D03*
X93000000Y-138000000D03*
X233000000Y-48000000D03*
X68000000Y-178000000D03*
X18000000Y-253000000D03*
X238000000Y-183000000D03*
X303000000Y-48000000D03*
X43000000Y-178000000D03*
X113000000Y-223000000D03*
X238000000Y-143000000D03*
X18000000Y-18000000D03*
X283000000Y-278000000D03*
X103000000Y-158000000D03*
X243000000Y-73000000D03*
X273000000Y-198000000D03*
X153000000Y-278000000D03*
X98000000Y-218000000D03*
X18000000Y-248000000D03*
X228000000Y-208000000D03*
X223000000Y-258000000D03*
X143000000Y-33000000D03*
X118000000Y-268000000D03*
X238000000Y-218000000D03*
X28000000Y-68000000D03*
X138000000Y-128000000D03*
X248000000Y-18000000D03*
X78000000Y-198000000D03*
X118000000Y-188000000D03*
X63000000Y-108000000D03*
X53000000Y-78000000D03*
X203000000Y-208000000D03*
X228000000Y-38000000D03*
X118000000Y-118000000D03*
X208000000Y-198000000D03*
X53000000Y-163000000D03*
X243000000Y-53000000D03*
X233000000Y-168000000D03*
X98000000Y-263000000D03*
X263000000Y-203000000D03*
X93000000Y-28000000D03*
X188000000Y-253000000D03*
X248000000Y-103000000D03*
X103000000Y-128000000D03*
X233000000Y-18000000D03*
X63000000Y-143000000D03*
X33000000Y-233000000D03*
X288000000Y-133000000D03*
X173000000Y-18000000D03*
X278000000Y-218000000D03*
X303000000Y-83000000D03*
D13*
X162549999Y-85033333D03*
D12*
X128000000Y-253000000D03*
X23000000Y-203000000D03*
X118000000Y-183000000D03*
X273000000Y-173000000D03*
X288000000Y-228000000D03*
X218000000Y-133000000D03*
X228000000Y-168000000D03*
X208000000Y-98000000D03*
X283000000Y-148000000D03*
X198000000Y-73000000D03*
X48000000Y-93000000D03*
X208000000Y-123000000D03*
X43000000Y-143000000D03*
X248000000Y-183000000D03*
X168000000Y-28000000D03*
X108000000Y-88000000D03*
X63000000Y-63000000D03*
X233000000Y-193000000D03*
X243000000Y-223000000D03*
X198000000Y-88000000D03*
X218000000Y-203000000D03*
X98000000Y-178000000D03*
X183000000Y-248000000D03*
X43000000Y-68000000D03*
X68000000Y-263000000D03*
X178000000Y-278000000D03*
X108000000Y-148000000D03*
X33000000Y-68000000D03*
X283000000Y-48000000D03*
X98000000Y-138000000D03*
X163000000Y-233000000D03*
X28000000Y-108000000D03*
X93000000Y-118000000D03*
X183000000Y-143000000D03*
X58000000Y-223000000D03*
X153000000Y-238000000D03*
X253000000Y-88000000D03*
X68000000Y-258000000D03*
X118000000Y-138000000D03*
X28000000Y-188000000D03*
X243000000Y-173000000D03*
X243000000Y-143000000D03*
X18000000Y-228000000D03*
X228000000Y-143000000D03*
X103000000Y-138000000D03*
X83000000Y-53000000D03*
X188000000Y-273000000D03*
X223000000Y-183000000D03*
X118000000Y-168000000D03*
X253000000Y-253000000D03*
X258000000Y-238000000D03*
X218000000Y-153000000D03*
X33000000Y-228000000D03*
X53000000Y-188000000D03*
X268000000Y-108000000D03*
X43000000Y-48000000D03*
X193000000Y-143000000D03*
X48000000Y-58000000D03*
X273000000Y-268000000D03*
X188000000Y-153000000D03*
X303000000Y-18000000D03*
X253000000Y-68000000D03*
X233000000Y-263000000D03*
D13*
X160600000Y-83033333D03*
D12*
X33000000Y-188000000D03*
X63000000Y-18000000D03*
X63000000Y-88000000D03*
X158000000Y-68000000D03*
X298000000Y-28000000D03*
X168000000Y-33000000D03*
X178000000Y-33000000D03*
X218000000Y-253000000D03*
X18000000Y-63000000D03*
X298000000Y-228000000D03*
X153000000Y-233000000D03*
X128000000Y-188000000D03*
X288000000Y-53000000D03*
X23000000Y-113000000D03*
X253000000Y-48000000D03*
X298000000Y-18000000D03*
X83000000Y-198000000D03*
X123000000Y-98000000D03*
X208000000Y-158000000D03*
X113000000Y-108000000D03*
X68000000Y-88000000D03*
D13*
X161600000Y-82033333D03*
D12*
X203000000Y-128000000D03*
X68000000Y-128000000D03*
X133000000Y-188000000D03*
X248000000Y-138000000D03*
X133000000Y-88000000D03*
X303000000Y-33000000D03*
X123000000Y-18000000D03*
X133000000Y-248000000D03*
X83000000Y-253000000D03*
X303000000Y-243000000D03*
X173000000Y-68000000D03*
X218000000Y-113000000D03*
X288000000Y-143000000D03*
X183000000Y-223000000D03*
X78000000Y-33000000D03*
D13*
X161549999Y-82033333D03*
D12*
X263000000Y-58000000D03*
X188000000Y-78000000D03*
X183000000Y-73000000D03*
X123000000Y-248000000D03*
X118000000Y-208000000D03*
X173000000Y-203000000D03*
X38000000Y-123000000D03*
X58000000Y-218000000D03*
X128000000Y-63000000D03*
X53000000Y-248000000D03*
X128000000Y-38000000D03*
X133000000Y-148000000D03*
X203000000Y-198000000D03*
X198000000Y-178000000D03*
X118000000Y-108000000D03*
X68000000Y-33000000D03*
X298000000Y-143000000D03*
X73000000Y-83000000D03*
X168000000Y-133000000D03*
X243000000Y-138000000D03*
X123000000Y-33000000D03*
X243000000Y-203000000D03*
X83000000Y-143000000D03*
D13*
X163549999Y-84033333D03*
D12*
X303000000Y-138000000D03*
X68000000Y-198000000D03*
X108000000Y-108000000D03*
X38000000Y-188000000D03*
X48000000Y-268000000D03*
X298000000Y-78000000D03*
X188000000Y-88000000D03*
X178000000Y-48000000D03*
X68000000Y-103000000D03*
X103000000Y-93000000D03*
X18000000Y-48000000D03*
X58000000Y-58000000D03*
X28000000Y-213000000D03*
X253000000Y-38000000D03*
X278000000Y-153000000D03*
X293000000Y-113000000D03*
X58000000Y-68000000D03*
X83000000Y-208000000D03*
X283000000Y-43000000D03*
X158000000Y-93000000D03*
X58000000Y-103000000D03*
X288000000Y-208000000D03*
X123000000Y-263000000D03*
X78000000Y-28000000D03*
X128000000Y-23000000D03*
X153000000Y-193000000D03*
X178000000Y-58000000D03*
X198000000Y-98000000D03*
X128000000Y-218000000D03*
X93000000Y-188000000D03*
X188000000Y-113000000D03*
X198000000Y-203000000D03*
X303000000Y-133000000D03*
X303000000Y-148000000D03*
X83000000Y-123000000D03*
X148000000Y-103000000D03*
X48000000Y-248000000D03*
X103000000Y-273000000D03*
X128000000Y-208000000D03*
X48000000Y-68000000D03*
X53000000Y-278000000D03*
X173000000Y-173000000D03*
X233000000Y-183000000D03*
X63000000Y-38000000D03*
X218000000Y-53000000D03*
X158000000Y-158000000D03*
X83000000Y-48000000D03*
X178000000Y-68000000D03*
X228000000Y-133000000D03*
X53000000Y-203000000D03*
X248000000Y-263000000D03*
X178000000Y-28000000D03*
X33000000Y-163000000D03*
X63000000Y-68000000D03*
X238000000Y-138000000D03*
X63000000Y-243000000D03*
X143000000Y-93000000D03*
X238000000Y-38000000D03*
X48000000Y-88000000D03*
X88000000Y-263000000D03*
X138000000Y-158000000D03*
X168000000Y-198000000D03*
X88000000Y-83000000D03*
X18000000Y-188000000D03*
X293000000Y-248000000D03*
X298000000Y-148000000D03*
X253000000Y-108000000D03*
X283000000Y-273000000D03*
X178000000Y-258000000D03*
D13*
X161549999Y-81033333D03*
D12*
X113000000Y-118000000D03*
X108000000Y-113000000D03*
X23000000Y-133000000D03*
X258000000Y-48000000D03*
X78000000Y-133000000D03*
X163000000Y-93000000D03*
X203000000Y-233000000D03*
X58000000Y-88000000D03*
X53000000Y-153000000D03*
X248000000Y-43000000D03*
X168000000Y-273000000D03*
X203000000Y-278000000D03*
X53000000Y-263000000D03*
X118000000Y-173000000D03*
X68000000Y-143000000D03*
X58000000Y-133000000D03*
X33000000Y-53000000D03*
X43000000Y-58000000D03*
X33000000Y-103000000D03*
X278000000Y-103000000D03*
X223000000Y-138000000D03*
X118000000Y-223000000D03*
X253000000Y-163000000D03*
X58000000Y-208000000D03*
X93000000Y-23000000D03*
X273000000Y-238000000D03*
X278000000Y-168000000D03*
X78000000Y-158000000D03*
X158000000Y-213000000D03*
X253000000Y-228000000D03*
D13*
X163600000Y-86033333D03*
D12*
X38000000Y-138000000D03*
X128000000Y-98000000D03*
X63000000Y-93000000D03*
X163000000Y-48000000D03*
X73000000Y-228000000D03*
X168000000Y-213000000D03*
X68000000Y-108000000D03*
X258000000Y-233000000D03*
X58000000Y-38000000D03*
X138000000Y-28000000D03*
X288000000Y-158000000D03*
X223000000Y-88000000D03*
X153000000Y-103000000D03*
X113000000Y-213000000D03*
X138000000Y-173000000D03*
X88000000Y-233000000D03*
X293000000Y-143000000D03*
X23000000Y-208000000D03*
X293000000Y-48000000D03*
X188000000Y-33000000D03*
X73000000Y-168000000D03*
X233000000Y-198000000D03*
X83000000Y-238000000D03*
X83000000Y-263000000D03*
X103000000Y-33000000D03*
X258000000Y-258000000D03*
X153000000Y-28000000D03*
X148000000Y-23000000D03*
X163000000Y-53000000D03*
X68000000Y-123000000D03*
X48000000Y-278000000D03*
X78000000Y-178000000D03*
X98000000Y-83000000D03*
X28000000Y-158000000D03*
X38000000Y-203000000D03*
X43000000Y-78000000D03*
X293000000Y-253000000D03*
X183000000Y-98000000D03*
X258000000Y-243000000D03*
X83000000Y-133000000D03*
X208000000Y-23000000D03*
X298000000Y-178000000D03*
X168000000Y-208000000D03*
X213000000Y-228000000D03*
X158000000Y-238000000D03*
X68000000Y-138000000D03*
X298000000Y-233000000D03*
X238000000Y-83000000D03*
X258000000Y-43000000D03*
X223000000Y-83000000D03*
X78000000Y-168000000D03*
X273000000Y-178000000D03*
X68000000Y-43000000D03*
X263000000Y-18000000D03*
X258000000Y-133000000D03*
X173000000Y-168000000D03*
X183000000Y-233000000D03*
X58000000Y-18000000D03*
X253000000Y-143000000D03*
X18000000Y-153000000D03*
X183000000Y-193000000D03*
X203000000Y-153000000D03*
X198000000Y-93000000D03*
X108000000Y-223000000D03*
X158000000Y-223000000D03*
X293000000Y-118000000D03*
X98000000Y-43000000D03*
D13*
X160600000Y-82033333D03*
D12*
X173000000Y-193000000D03*
X73000000Y-28000000D03*
X98000000Y-128000000D03*
X108000000Y-198000000D03*
X278000000Y-243000000D03*
X268000000Y-138000000D03*
X218000000Y-178000000D03*
X183000000Y-18000000D03*
X118000000Y-278000000D03*
X53000000Y-268000000D03*
X98000000Y-103000000D03*
X133000000Y-18000000D03*
X98000000Y-158000000D03*
X223000000Y-28000000D03*
X73000000Y-53000000D03*
X283000000Y-243000000D03*
X223000000Y-243000000D03*
X78000000Y-43000000D03*
X293000000Y-258000000D03*
X293000000Y-203000000D03*
X143000000Y-23000000D03*
X183000000Y-203000000D03*
X223000000Y-53000000D03*
X153000000Y-83000000D03*
X28000000Y-133000000D03*
X248000000Y-88000000D03*
X173000000Y-243000000D03*
X143000000Y-178000000D03*
D13*
X164549999Y-81033333D03*
D12*
X148000000Y-153000000D03*
X278000000Y-138000000D03*
X123000000Y-58000000D03*
X58000000Y-268000000D03*
X123000000Y-68000000D03*
X258000000Y-93000000D03*
X123000000Y-198000000D03*
X163000000Y-248000000D03*
X88000000Y-23000000D03*
X168000000Y-243000000D03*
X148000000Y-188000000D03*
X23000000Y-183000000D03*
X148000000Y-148000000D03*
X248000000Y-278000000D03*
X63000000Y-223000000D03*
X38000000Y-98000000D03*
X88000000Y-208000000D03*
X28000000Y-223000000D03*
X278000000Y-233000000D03*
X173000000Y-98000000D03*
X298000000Y-188000000D03*
X168000000Y-248000000D03*
X258000000Y-278000000D03*
X168000000Y-153000000D03*
X38000000Y-118000000D03*
X278000000Y-83000000D03*
X18000000Y-243000000D03*
X63000000Y-158000000D03*
X93000000Y-93000000D03*
X18000000Y-173000000D03*
X28000000Y-138000000D03*
X188000000Y-18000000D03*
X88000000Y-138000000D03*
X48000000Y-138000000D03*
X273000000Y-193000000D03*
X43000000Y-213000000D03*
X118000000Y-78000000D03*
X213000000Y-248000000D03*
X58000000Y-113000000D03*
X103000000Y-148000000D03*
X133000000Y-68000000D03*
X213000000Y-73000000D03*
X288000000Y-73000000D03*
X253000000Y-238000000D03*
X248000000Y-248000000D03*
X183000000Y-208000000D03*
D13*
X160600000Y-79033333D03*
D12*
X123000000Y-183000000D03*
X193000000Y-63000000D03*
X283000000Y-153000000D03*
X118000000Y-233000000D03*
X223000000Y-18000000D03*
X103000000Y-38000000D03*
X33000000Y-83000000D03*
X43000000Y-238000000D03*
X133000000Y-53000000D03*
X298000000Y-98000000D03*
X98000000Y-243000000D03*
X203000000Y-83000000D03*
X113000000Y-138000000D03*
X293000000Y-58000000D03*
X253000000Y-123000000D03*
X183000000Y-178000000D03*
X123000000Y-243000000D03*
X93000000Y-63000000D03*
X38000000Y-263000000D03*
X233000000Y-93000000D03*
X53000000Y-168000000D03*
X128000000Y-163000000D03*
X133000000Y-233000000D03*
X223000000Y-23000000D03*
X138000000Y-43000000D03*
X38000000Y-238000000D03*
X178000000Y-238000000D03*
X33000000Y-213000000D03*
X213000000Y-223000000D03*
X218000000Y-173000000D03*
X113000000Y-173000000D03*
X28000000Y-103000000D03*
X268000000Y-48000000D03*
X273000000Y-243000000D03*
X148000000Y-203000000D03*
X143000000Y-158000000D03*
X203000000Y-28000000D03*
X218000000Y-78000000D03*
X68000000Y-148000000D03*
X238000000Y-178000000D03*
X138000000Y-248000000D03*
X73000000Y-103000000D03*
X298000000Y-253000000D03*
X198000000Y-183000000D03*
X303000000Y-123000000D03*
X178000000Y-118000000D03*
X248000000Y-168000000D03*
X153000000Y-128000000D03*
X148000000Y-273000000D03*
X208000000Y-278000000D03*
X58000000Y-53000000D03*
X173000000Y-88000000D03*
X18000000Y-143000000D03*
X93000000Y-78000000D03*
X123000000Y-143000000D03*
X198000000Y-23000000D03*
X123000000Y-203000000D03*
D13*
X163549999Y-82033333D03*
D12*
X298000000Y-268000000D03*
X23000000Y-43000000D03*
X243000000Y-168000000D03*
X163000000Y-138000000D03*
X213000000Y-183000000D03*
X293000000Y-63000000D03*
X173000000Y-28000000D03*
X168000000Y-18000000D03*
X88000000Y-73000000D03*
X303000000Y-158000000D03*
X18000000Y-233000000D03*
X218000000Y-233000000D03*
X113000000Y-148000000D03*
X123000000Y-138000000D03*
X218000000Y-163000000D03*
X23000000Y-233000000D03*
X158000000Y-78000000D03*
X223000000Y-93000000D03*
X228000000Y-268000000D03*
X228000000Y-178000000D03*
X68000000Y-18000000D03*
X58000000Y-123000000D03*
X133000000Y-258000000D03*
D13*
X162549999Y-79033333D03*
D12*
X208000000Y-38000000D03*
X238000000Y-28000000D03*
X223000000Y-203000000D03*
X228000000Y-88000000D03*
X173000000Y-228000000D03*
X153000000Y-68000000D03*
X228000000Y-238000000D03*
X58000000Y-63000000D03*
X48000000Y-228000000D03*
X148000000Y-193000000D03*
X193000000Y-158000000D03*
X258000000Y-118000000D03*
X188000000Y-58000000D03*
X53000000Y-233000000D03*
X103000000Y-153000000D03*
X43000000Y-73000000D03*
X63000000Y-183000000D03*
X73000000Y-133000000D03*
X253000000Y-63000000D03*
X118000000Y-143000000D03*
X213000000Y-108000000D03*
X33000000Y-78000000D03*
X28000000Y-208000000D03*
X48000000Y-238000000D03*
X108000000Y-268000000D03*
X148000000Y-258000000D03*
X263000000Y-88000000D03*
X268000000Y-248000000D03*
X283000000Y-183000000D03*
X263000000Y-148000000D03*
X163000000Y-208000000D03*
X188000000Y-208000000D03*
X278000000Y-88000000D03*
X278000000Y-258000000D03*
X103000000Y-233000000D03*
X23000000Y-223000000D03*
X233000000Y-163000000D03*
X68000000Y-78000000D03*
X128000000Y-173000000D03*
X18000000Y-238000000D03*
X273000000Y-168000000D03*
X68000000Y-133000000D03*
X178000000Y-158000000D03*
X208000000Y-238000000D03*
X38000000Y-133000000D03*
X278000000Y-173000000D03*
X283000000Y-203000000D03*
X193000000Y-178000000D03*
X38000000Y-103000000D03*
X58000000Y-43000000D03*
X263000000Y-38000000D03*
X203000000Y-138000000D03*
X128000000Y-133000000D03*
X243000000Y-113000000D03*
X193000000Y-103000000D03*
X168000000Y-233000000D03*
X263000000Y-198000000D03*
X203000000Y-258000000D03*
X238000000Y-33000000D03*
X238000000Y-43000000D03*
X38000000Y-193000000D03*
X303000000Y-108000000D03*
X298000000Y-168000000D03*
X123000000Y-153000000D03*
X133000000Y-98000000D03*
X63000000Y-173000000D03*
X103000000Y-63000000D03*
X238000000Y-233000000D03*
X278000000Y-198000000D03*
D13*
X164549999Y-84033333D03*
D12*
X83000000Y-103000000D03*
X78000000Y-228000000D03*
X28000000Y-193000000D03*
X18000000Y-103000000D03*
X148000000Y-98000000D03*
X198000000Y-68000000D03*
X113000000Y-73000000D03*
X288000000Y-233000000D03*
X23000000Y-218000000D03*
X113000000Y-88000000D03*
X133000000Y-63000000D03*
X163000000Y-243000000D03*
X33000000Y-173000000D03*
X188000000Y-238000000D03*
X228000000Y-148000000D03*
X203000000Y-158000000D03*
X153000000Y-163000000D03*
X143000000Y-48000000D03*
X53000000Y-243000000D03*
X218000000Y-188000000D03*
X93000000Y-218000000D03*
X198000000Y-153000000D03*
X128000000Y-103000000D03*
X73000000Y-248000000D03*
X153000000Y-253000000D03*
X153000000Y-58000000D03*
X293000000Y-188000000D03*
X83000000Y-113000000D03*
X233000000Y-113000000D03*
X243000000Y-103000000D03*
X168000000Y-263000000D03*
X28000000Y-123000000D03*
X143000000Y-233000000D03*
X158000000Y-38000000D03*
X228000000Y-113000000D03*
X123000000Y-78000000D03*
X203000000Y-183000000D03*
X178000000Y-88000000D03*
X28000000Y-113000000D03*
X68000000Y-233000000D03*
X168000000Y-68000000D03*
X178000000Y-98000000D03*
X18000000Y-258000000D03*
X273000000Y-183000000D03*
X213000000Y-103000000D03*
X58000000Y-173000000D03*
X278000000Y-278000000D03*
X248000000Y-143000000D03*
X203000000Y-98000000D03*
X208000000Y-228000000D03*
X148000000Y-78000000D03*
X93000000Y-18000000D03*
X298000000Y-118000000D03*
X128000000Y-78000000D03*
X163000000Y-173000000D03*
X273000000Y-278000000D03*
X93000000Y-128000000D03*
X113000000Y-53000000D03*
X88000000Y-78000000D03*
X273000000Y-43000000D03*
X158000000Y-188000000D03*
X188000000Y-263000000D03*
X63000000Y-43000000D03*
X128000000Y-268000000D03*
D13*
X163600000Y-81033333D03*
X163549999Y-81033333D03*
D12*
X153000000Y-23000000D03*
X33000000Y-98000000D03*
X213000000Y-148000000D03*
X213000000Y-158000000D03*
X228000000Y-198000000D03*
X183000000Y-33000000D03*
X203000000Y-73000000D03*
X183000000Y-148000000D03*
X83000000Y-193000000D03*
X273000000Y-53000000D03*
X93000000Y-278000000D03*
X93000000Y-243000000D03*
X273000000Y-208000000D03*
X303000000Y-38000000D03*
X113000000Y-233000000D03*
X133000000Y-198000000D03*
X128000000Y-53000000D03*
X243000000Y-63000000D03*
X168000000Y-253000000D03*
X68000000Y-273000000D03*
X113000000Y-258000000D03*
X83000000Y-153000000D03*
X213000000Y-233000000D03*
X208000000Y-108000000D03*
X18000000Y-58000000D03*
X238000000Y-23000000D03*
X173000000Y-268000000D03*
X93000000Y-143000000D03*
X63000000Y-78000000D03*
X48000000Y-98000000D03*
X108000000Y-233000000D03*
X48000000Y-148000000D03*
X53000000Y-128000000D03*
X123000000Y-118000000D03*
X193000000Y-98000000D03*
X303000000Y-113000000D03*
X163000000Y-153000000D03*
X118000000Y-178000000D03*
X163000000Y-23000000D03*
X88000000Y-123000000D03*
X128000000Y-143000000D03*
X23000000Y-18000000D03*
X213000000Y-43000000D03*
X53000000Y-103000000D03*
X73000000Y-78000000D03*
X248000000Y-63000000D03*
X103000000Y-108000000D03*
X88000000Y-38000000D03*
X153000000Y-263000000D03*
X253000000Y-113000000D03*
X108000000Y-203000000D03*
X18000000Y-203000000D03*
X133000000Y-278000000D03*
X258000000Y-193000000D03*
X168000000Y-168000000D03*
X28000000Y-248000000D03*
X78000000Y-108000000D03*
X88000000Y-273000000D03*
X148000000Y-183000000D03*
X288000000Y-148000000D03*
X33000000Y-218000000D03*
X303000000Y-128000000D03*
X248000000Y-93000000D03*
X253000000Y-148000000D03*
X283000000Y-168000000D03*
X233000000Y-68000000D03*
X288000000Y-273000000D03*
X173000000Y-33000000D03*
X198000000Y-213000000D03*
X213000000Y-173000000D03*
X183000000Y-228000000D03*
X233000000Y-138000000D03*
X248000000Y-223000000D03*
X118000000Y-28000000D03*
X183000000Y-278000000D03*
X303000000Y-173000000D03*
X83000000Y-78000000D03*
X38000000Y-218000000D03*
X258000000Y-268000000D03*
X73000000Y-23000000D03*
X93000000Y-213000000D03*
X23000000Y-193000000D03*
X263000000Y-93000000D03*
X153000000Y-173000000D03*
X248000000Y-118000000D03*
X193000000Y-113000000D03*
X203000000Y-68000000D03*
X233000000Y-123000000D03*
X198000000Y-278000000D03*
X123000000Y-83000000D03*
X23000000Y-33000000D03*
X183000000Y-48000000D03*
X253000000Y-58000000D03*
X93000000Y-183000000D03*
X38000000Y-108000000D03*
X213000000Y-243000000D03*
X268000000Y-173000000D03*
X153000000Y-113000000D03*
X273000000Y-133000000D03*
X93000000Y-228000000D03*
X268000000Y-278000000D03*
X288000000Y-198000000D03*
X113000000Y-93000000D03*
X23000000Y-58000000D03*
X78000000Y-128000000D03*
X23000000Y-128000000D03*
X63000000Y-213000000D03*
X133000000Y-203000000D03*
X98000000Y-248000000D03*
X268000000Y-133000000D03*
X203000000Y-133000000D03*
X203000000Y-23000000D03*
X28000000Y-273000000D03*
X233000000Y-278000000D03*
X143000000Y-163000000D03*
X218000000Y-123000000D03*
X173000000Y-138000000D03*
X63000000Y-178000000D03*
X98000000Y-168000000D03*
X273000000Y-143000000D03*
X233000000Y-273000000D03*
X183000000Y-138000000D03*
X293000000Y-23000000D03*
X118000000Y-213000000D03*
X293000000Y-238000000D03*
X168000000Y-268000000D03*
X228000000Y-258000000D03*
X188000000Y-83000000D03*
X28000000Y-178000000D03*
X188000000Y-258000000D03*
X143000000Y-253000000D03*
D13*
X162600000Y-79033333D03*
D12*
X283000000Y-103000000D03*
X143000000Y-28000000D03*
X123000000Y-253000000D03*
X213000000Y-128000000D03*
X303000000Y-118000000D03*
X258000000Y-103000000D03*
X233000000Y-38000000D03*
X83000000Y-118000000D03*
X158000000Y-18000000D03*
X73000000Y-43000000D03*
X88000000Y-18000000D03*
X88000000Y-53000000D03*
X43000000Y-248000000D03*
X188000000Y-168000000D03*
X183000000Y-158000000D03*
X183000000Y-118000000D03*
X223000000Y-233000000D03*
X93000000Y-103000000D03*
X148000000Y-133000000D03*
X228000000Y-43000000D03*
X268000000Y-53000000D03*
X268000000Y-103000000D03*
X198000000Y-198000000D03*
X43000000Y-273000000D03*
X193000000Y-58000000D03*
X258000000Y-223000000D03*
D13*
X163600000Y-82033333D03*
D12*
X243000000Y-98000000D03*
X198000000Y-133000000D03*
X248000000Y-58000000D03*
X198000000Y-243000000D03*
X118000000Y-258000000D03*
X83000000Y-218000000D03*
X113000000Y-188000000D03*
X73000000Y-73000000D03*
X178000000Y-113000000D03*
X148000000Y-113000000D03*
X258000000Y-73000000D03*
X248000000Y-158000000D03*
X18000000Y-73000000D03*
X138000000Y-183000000D03*
X48000000Y-243000000D03*
X68000000Y-158000000D03*
X288000000Y-43000000D03*
X148000000Y-68000000D03*
D13*
X164549999Y-86033333D03*
D12*
X248000000Y-228000000D03*
X193000000Y-173000000D03*
X148000000Y-58000000D03*
X238000000Y-108000000D03*
X288000000Y-103000000D03*
X113000000Y-243000000D03*
X103000000Y-18000000D03*
X98000000Y-38000000D03*
X133000000Y-243000000D03*
X273000000Y-248000000D03*
X263000000Y-78000000D03*
X63000000Y-228000000D03*
X303000000Y-193000000D03*
X158000000Y-178000000D03*
X198000000Y-53000000D03*
X73000000Y-98000000D03*
X238000000Y-113000000D03*
X58000000Y-153000000D03*
X103000000Y-53000000D03*
X258000000Y-128000000D03*
X218000000Y-143000000D03*
X53000000Y-273000000D03*
X73000000Y-213000000D03*
X158000000Y-118000000D03*
X268000000Y-43000000D03*
X23000000Y-268000000D03*
X203000000Y-88000000D03*
X148000000Y-223000000D03*
X163000000Y-278000000D03*
X73000000Y-183000000D03*
X178000000Y-208000000D03*
X108000000Y-208000000D03*
X243000000Y-198000000D03*
X258000000Y-168000000D03*
X228000000Y-278000000D03*
X208000000Y-258000000D03*
X103000000Y-168000000D03*
X298000000Y-198000000D03*
X68000000Y-163000000D03*
D13*
X164549999Y-83033333D03*
D12*
X208000000Y-193000000D03*
X113000000Y-228000000D03*
X168000000Y-43000000D03*
X48000000Y-63000000D03*
X228000000Y-18000000D03*
X158000000Y-108000000D03*
X148000000Y-38000000D03*
X98000000Y-228000000D03*
X143000000Y-133000000D03*
X283000000Y-133000000D03*
X273000000Y-73000000D03*
X198000000Y-118000000D03*
X103000000Y-198000000D03*
X283000000Y-263000000D03*
X93000000Y-108000000D03*
X138000000Y-78000000D03*
X178000000Y-233000000D03*
X168000000Y-48000000D03*
X253000000Y-173000000D03*
X48000000Y-83000000D03*
X88000000Y-128000000D03*
X133000000Y-128000000D03*
X83000000Y-138000000D03*
X203000000Y-178000000D03*
X203000000Y-253000000D03*
X203000000Y-273000000D03*
X278000000Y-253000000D03*
X138000000Y-243000000D03*
X63000000Y-83000000D03*
X213000000Y-208000000D03*
X93000000Y-113000000D03*
X48000000Y-208000000D03*
X88000000Y-173000000D03*
X213000000Y-153000000D03*
X193000000Y-83000000D03*
X58000000Y-248000000D03*
X258000000Y-63000000D03*
X258000000Y-83000000D03*
X168000000Y-238000000D03*
X43000000Y-138000000D03*
X213000000Y-273000000D03*
X183000000Y-258000000D03*
D13*
X161600000Y-85033333D03*
D12*
X183000000Y-113000000D03*
X18000000Y-268000000D03*
X258000000Y-58000000D03*
X128000000Y-108000000D03*
D13*
X162600000Y-81033333D03*
D12*
X73000000Y-178000000D03*
X188000000Y-138000000D03*
X153000000Y-178000000D03*
X223000000Y-38000000D03*
X78000000Y-218000000D03*
X213000000Y-143000000D03*
X233000000Y-153000000D03*
X243000000Y-248000000D03*
X113000000Y-273000000D03*
X228000000Y-233000000D03*
X288000000Y-153000000D03*
X243000000Y-123000000D03*
X283000000Y-68000000D03*
X128000000Y-203000000D03*
X123000000Y-128000000D03*
X208000000Y-183000000D03*
X253000000Y-168000000D03*
X138000000Y-253000000D03*
X168000000Y-123000000D03*
X268000000Y-153000000D03*
X143000000Y-203000000D03*
X238000000Y-168000000D03*
X203000000Y-58000000D03*
X253000000Y-138000000D03*
X153000000Y-203000000D03*
X178000000Y-213000000D03*
X223000000Y-73000000D03*
X73000000Y-148000000D03*
X128000000Y-198000000D03*
X68000000Y-83000000D03*
X188000000Y-53000000D03*
X163000000Y-268000000D03*
X98000000Y-93000000D03*
X288000000Y-263000000D03*
X143000000Y-103000000D03*
X183000000Y-238000000D03*
X68000000Y-48000000D03*
X88000000Y-223000000D03*
X143000000Y-248000000D03*
X178000000Y-148000000D03*
X218000000Y-268000000D03*
X248000000Y-173000000D03*
X43000000Y-38000000D03*
X78000000Y-153000000D03*
X83000000Y-178000000D03*
X208000000Y-73000000D03*
X258000000Y-78000000D03*
X143000000Y-148000000D03*
X23000000Y-173000000D03*
X123000000Y-103000000D03*
X213000000Y-53000000D03*
X168000000Y-158000000D03*
X198000000Y-78000000D03*
X223000000Y-248000000D03*
X178000000Y-223000000D03*
X168000000Y-188000000D03*
X93000000Y-163000000D03*
X88000000Y-228000000D03*
X223000000Y-173000000D03*
X23000000Y-263000000D03*
X98000000Y-28000000D03*
X138000000Y-23000000D03*
X263000000Y-213000000D03*
X193000000Y-108000000D03*
X103000000Y-68000000D03*
X253000000Y-83000000D03*
X263000000Y-128000000D03*
X123000000Y-148000000D03*
X213000000Y-113000000D03*
X158000000Y-83000000D03*
X133000000Y-33000000D03*
X103000000Y-23000000D03*
X193000000Y-268000000D03*
X258000000Y-218000000D03*
X158000000Y-103000000D03*
X128000000Y-118000000D03*
X253000000Y-198000000D03*
X168000000Y-83000000D03*
X228000000Y-53000000D03*
X173000000Y-183000000D03*
X173000000Y-93000000D03*
X58000000Y-178000000D03*
X48000000Y-203000000D03*
X18000000Y-108000000D03*
X88000000Y-148000000D03*
X198000000Y-223000000D03*
X238000000Y-248000000D03*
X203000000Y-78000000D03*
X213000000Y-218000000D03*
X273000000Y-78000000D03*
X133000000Y-208000000D03*
X188000000Y-228000000D03*
D13*
X162600000Y-85033333D03*
D12*
X188000000Y-148000000D03*
X28000000Y-163000000D03*
X88000000Y-203000000D03*
X253000000Y-33000000D03*
X33000000Y-33000000D03*
X303000000Y-198000000D03*
X108000000Y-43000000D03*
X233000000Y-178000000D03*
X123000000Y-238000000D03*
X138000000Y-53000000D03*
X153000000Y-98000000D03*
X98000000Y-118000000D03*
X123000000Y-228000000D03*
X303000000Y-78000000D03*
X118000000Y-273000000D03*
X38000000Y-73000000D03*
X253000000Y-178000000D03*
X123000000Y-218000000D03*
X203000000Y-33000000D03*
X168000000Y-113000000D03*
X208000000Y-208000000D03*
X38000000Y-128000000D03*
X173000000Y-118000000D03*
X213000000Y-83000000D03*
X28000000Y-278000000D03*
X48000000Y-43000000D03*
X78000000Y-88000000D03*
X108000000Y-263000000D03*
X198000000Y-143000000D03*
X293000000Y-78000000D03*
X238000000Y-163000000D03*
X213000000Y-278000000D03*
X223000000Y-58000000D03*
X68000000Y-218000000D03*
X218000000Y-38000000D03*
X58000000Y-163000000D03*
X258000000Y-198000000D03*
X223000000Y-278000000D03*
X263000000Y-238000000D03*
X228000000Y-163000000D03*
X288000000Y-48000000D03*
X288000000Y-183000000D03*
X158000000Y-218000000D03*
X148000000Y-18000000D03*
X208000000Y-223000000D03*
X18000000Y-83000000D03*
X203000000Y-248000000D03*
X93000000Y-173000000D03*
X163000000Y-168000000D03*
X193000000Y-203000000D03*
X58000000Y-28000000D03*
X158000000Y-138000000D03*
X138000000Y-138000000D03*
X113000000Y-253000000D03*
X153000000Y-93000000D03*
X118000000Y-243000000D03*
X43000000Y-198000000D03*
X18000000Y-273000000D03*
X183000000Y-253000000D03*
X248000000Y-23000000D03*
X98000000Y-23000000D03*
X273000000Y-263000000D03*
X298000000Y-163000000D03*
X168000000Y-78000000D03*
X238000000Y-238000000D03*
X93000000Y-193000000D03*
X283000000Y-213000000D03*
X278000000Y-143000000D03*
X293000000Y-213000000D03*
X243000000Y-163000000D03*
X98000000Y-98000000D03*
X198000000Y-168000000D03*
X283000000Y-163000000D03*
X53000000Y-68000000D03*
X113000000Y-98000000D03*
X163000000Y-28000000D03*
X218000000Y-88000000D03*
X253000000Y-103000000D03*
X138000000Y-198000000D03*
X103000000Y-123000000D03*
X128000000Y-263000000D03*
X193000000Y-33000000D03*
X23000000Y-228000000D03*
X128000000Y-88000000D03*
X298000000Y-63000000D03*
X78000000Y-118000000D03*
X93000000Y-178000000D03*
X278000000Y-193000000D03*
X263000000Y-68000000D03*
X68000000Y-183000000D03*
X203000000Y-53000000D03*
X53000000Y-48000000D03*
X298000000Y-48000000D03*
X33000000Y-158000000D03*
X208000000Y-18000000D03*
X103000000Y-163000000D03*
X288000000Y-173000000D03*
X68000000Y-153000000D03*
X218000000Y-243000000D03*
X193000000Y-43000000D03*
X263000000Y-98000000D03*
X178000000Y-173000000D03*
X128000000Y-33000000D03*
X268000000Y-238000000D03*
X258000000Y-68000000D03*
X188000000Y-193000000D03*
X228000000Y-68000000D03*
X143000000Y-128000000D03*
X273000000Y-153000000D03*
X153000000Y-18000000D03*
X133000000Y-23000000D03*
X228000000Y-123000000D03*
X63000000Y-103000000D03*
X78000000Y-78000000D03*
X138000000Y-118000000D03*
X173000000Y-48000000D03*
X253000000Y-233000000D03*
X263000000Y-278000000D03*
X43000000Y-93000000D03*
X68000000Y-173000000D03*
X268000000Y-228000000D03*
X198000000Y-148000000D03*
X223000000Y-78000000D03*
X208000000Y-263000000D03*
X113000000Y-208000000D03*
X238000000Y-243000000D03*
X218000000Y-58000000D03*
X303000000Y-208000000D03*
X43000000Y-253000000D03*
X128000000Y-158000000D03*
X263000000Y-253000000D03*
X173000000Y-123000000D03*
X63000000Y-218000000D03*
X158000000Y-263000000D03*
X73000000Y-68000000D03*
X33000000Y-123000000D03*
X248000000Y-53000000D03*
X138000000Y-228000000D03*
X93000000Y-168000000D03*
X293000000Y-163000000D03*
X103000000Y-113000000D03*
X38000000Y-243000000D03*
X73000000Y-108000000D03*
X263000000Y-53000000D03*
X53000000Y-113000000D03*
X28000000Y-173000000D03*
X123000000Y-233000000D03*
X163000000Y-178000000D03*
X288000000Y-188000000D03*
X203000000Y-188000000D03*
X93000000Y-203000000D03*
X288000000Y-238000000D03*
X118000000Y-68000000D03*
X148000000Y-198000000D03*
X68000000Y-268000000D03*
X33000000Y-238000000D03*
X158000000Y-23000000D03*
X293000000Y-73000000D03*
X193000000Y-238000000D03*
X188000000Y-178000000D03*
X108000000Y-213000000D03*
D13*
X162549999Y-86033333D03*
D12*
X273000000Y-48000000D03*
X288000000Y-98000000D03*
X298000000Y-273000000D03*
X218000000Y-223000000D03*
X233000000Y-58000000D03*
X163000000Y-113000000D03*
X283000000Y-188000000D03*
X138000000Y-93000000D03*
X93000000Y-253000000D03*
X298000000Y-243000000D03*
X238000000Y-208000000D03*
X288000000Y-93000000D03*
X258000000Y-178000000D03*
X108000000Y-68000000D03*
X258000000Y-183000000D03*
X278000000Y-183000000D03*
X288000000Y-33000000D03*
X158000000Y-28000000D03*
X283000000Y-238000000D03*
X33000000Y-253000000D03*
X293000000Y-83000000D03*
X228000000Y-58000000D03*
X178000000Y-153000000D03*
X143000000Y-98000000D03*
X273000000Y-273000000D03*
X213000000Y-138000000D03*
X223000000Y-168000000D03*
X303000000Y-253000000D03*
X268000000Y-198000000D03*
X153000000Y-243000000D03*
X203000000Y-168000000D03*
X298000000Y-258000000D03*
X298000000Y-173000000D03*
X93000000Y-38000000D03*
X78000000Y-163000000D03*
X153000000Y-218000000D03*
X148000000Y-243000000D03*
X273000000Y-23000000D03*
X293000000Y-263000000D03*
X88000000Y-248000000D03*
X73000000Y-118000000D03*
X118000000Y-133000000D03*
X78000000Y-143000000D03*
X198000000Y-83000000D03*
X113000000Y-178000000D03*
X178000000Y-273000000D03*
X218000000Y-218000000D03*
X128000000Y-93000000D03*
X278000000Y-58000000D03*
X198000000Y-263000000D03*
X253000000Y-93000000D03*
X193000000Y-128000000D03*
X228000000Y-153000000D03*
X243000000Y-228000000D03*
X203000000Y-93000000D03*
X248000000Y-78000000D03*
X143000000Y-243000000D03*
X278000000Y-163000000D03*
X18000000Y-128000000D03*
X23000000Y-83000000D03*
X103000000Y-73000000D03*
X33000000Y-208000000D03*
X133000000Y-173000000D03*
X113000000Y-68000000D03*
X98000000Y-123000000D03*
X38000000Y-53000000D03*
X58000000Y-98000000D03*
X198000000Y-43000000D03*
X228000000Y-28000000D03*
X278000000Y-273000000D03*
X263000000Y-258000000D03*
X18000000Y-218000000D03*
X228000000Y-138000000D03*
X208000000Y-88000000D03*
X263000000Y-243000000D03*
X268000000Y-33000000D03*
X148000000Y-108000000D03*
X268000000Y-178000000D03*
X113000000Y-153000000D03*
X23000000Y-68000000D03*
X48000000Y-28000000D03*
X278000000Y-78000000D03*
X133000000Y-238000000D03*
X138000000Y-203000000D03*
X263000000Y-178000000D03*
X28000000Y-228000000D03*
X178000000Y-23000000D03*
X118000000Y-38000000D03*
X43000000Y-28000000D03*
D13*
X162600000Y-80033333D03*
D12*
X128000000Y-223000000D03*
X178000000Y-123000000D03*
X278000000Y-158000000D03*
X83000000Y-183000000D03*
X43000000Y-168000000D03*
X138000000Y-273000000D03*
X123000000Y-168000000D03*
X203000000Y-38000000D03*
X148000000Y-208000000D03*
X118000000Y-103000000D03*
X208000000Y-173000000D03*
X188000000Y-233000000D03*
X268000000Y-23000000D03*
X303000000Y-143000000D03*
X48000000Y-78000000D03*
X43000000Y-123000000D03*
X253000000Y-18000000D03*
X113000000Y-58000000D03*
X278000000Y-73000000D03*
X193000000Y-53000000D03*
X53000000Y-123000000D03*
X18000000Y-198000000D03*
X193000000Y-118000000D03*
X183000000Y-243000000D03*
X28000000Y-128000000D03*
X268000000Y-113000000D03*
D13*
X163600000Y-85033333D03*
X161549999Y-85033333D03*
D12*
X53000000Y-158000000D03*
X193000000Y-88000000D03*
X208000000Y-243000000D03*
X108000000Y-278000000D03*
X178000000Y-218000000D03*
X268000000Y-218000000D03*
X58000000Y-138000000D03*
X248000000Y-68000000D03*
X138000000Y-103000000D03*
X153000000Y-223000000D03*
X183000000Y-38000000D03*
X293000000Y-138000000D03*
X123000000Y-73000000D03*
X23000000Y-118000000D03*
X193000000Y-153000000D03*
X303000000Y-268000000D03*
X133000000Y-143000000D03*
X228000000Y-273000000D03*
X53000000Y-93000000D03*
X268000000Y-253000000D03*
X193000000Y-93000000D03*
X123000000Y-178000000D03*
X173000000Y-163000000D03*
X188000000Y-108000000D03*
X203000000Y-213000000D03*
X63000000Y-23000000D03*
X108000000Y-158000000D03*
X298000000Y-113000000D03*
X208000000Y-48000000D03*
X208000000Y-213000000D03*
X303000000Y-63000000D03*
X218000000Y-73000000D03*
X178000000Y-103000000D03*
X178000000Y-38000000D03*
X38000000Y-23000000D03*
X138000000Y-238000000D03*
X83000000Y-18000000D03*
X103000000Y-58000000D03*
X63000000Y-278000000D03*
X258000000Y-33000000D03*
X183000000Y-108000000D03*
X118000000Y-218000000D03*
X48000000Y-233000000D03*
X118000000Y-228000000D03*
X218000000Y-278000000D03*
X258000000Y-113000000D03*
X73000000Y-223000000D03*
X173000000Y-23000000D03*
X58000000Y-198000000D03*
X23000000Y-53000000D03*
X53000000Y-173000000D03*
X43000000Y-223000000D03*
X133000000Y-153000000D03*
D13*
X163549999Y-80033333D03*
D12*
X33000000Y-18000000D03*
X243000000Y-88000000D03*
X183000000Y-213000000D03*
X28000000Y-153000000D03*
X153000000Y-168000000D03*
X83000000Y-273000000D03*
X208000000Y-118000000D03*
X248000000Y-193000000D03*
X93000000Y-263000000D03*
X73000000Y-88000000D03*
X33000000Y-263000000D03*
D13*
X161549999Y-83033333D03*
D12*
X238000000Y-73000000D03*
X118000000Y-18000000D03*
X58000000Y-213000000D03*
X183000000Y-183000000D03*
X63000000Y-113000000D03*
X48000000Y-123000000D03*
X23000000Y-88000000D03*
X153000000Y-43000000D03*
X198000000Y-158000000D03*
D13*
X160600000Y-80033333D03*
D12*
X88000000Y-28000000D03*
X133000000Y-48000000D03*
D13*
X162549999Y-81033333D03*
D12*
X38000000Y-213000000D03*
X218000000Y-208000000D03*
X303000000Y-43000000D03*
X278000000Y-28000000D03*
X233000000Y-213000000D03*
X168000000Y-258000000D03*
D13*
X160600000Y-86033333D03*
D12*
X178000000Y-183000000D03*
X128000000Y-258000000D03*
X248000000Y-258000000D03*
X38000000Y-93000000D03*
X283000000Y-198000000D03*
X288000000Y-83000000D03*
X108000000Y-63000000D03*
X193000000Y-163000000D03*
X48000000Y-163000000D03*
X223000000Y-238000000D03*
X163000000Y-73000000D03*
X273000000Y-38000000D03*
X243000000Y-258000000D03*
D13*
X160600000Y-85033333D03*
D12*
X278000000Y-228000000D03*
X233000000Y-223000000D03*
X228000000Y-158000000D03*
X153000000Y-78000000D03*
X73000000Y-143000000D03*
X208000000Y-53000000D03*
X163000000Y-118000000D03*
X18000000Y-133000000D03*
X48000000Y-38000000D03*
X213000000Y-38000000D03*
X228000000Y-218000000D03*
X28000000Y-93000000D03*
X213000000Y-93000000D03*
X183000000Y-53000000D03*
X183000000Y-68000000D03*
X268000000Y-78000000D03*
X93000000Y-133000000D03*
X83000000Y-58000000D03*
X78000000Y-273000000D03*
X43000000Y-18000000D03*
X178000000Y-93000000D03*
X33000000Y-248000000D03*
X33000000Y-138000000D03*
X208000000Y-93000000D03*
D13*
X163600000Y-83033333D03*
D12*
X73000000Y-203000000D03*
X283000000Y-108000000D03*
X98000000Y-33000000D03*
X38000000Y-63000000D03*
X43000000Y-258000000D03*
X143000000Y-218000000D03*
X93000000Y-98000000D03*
X193000000Y-258000000D03*
X98000000Y-223000000D03*
X163000000Y-98000000D03*
X248000000Y-208000000D03*
X143000000Y-153000000D03*
X108000000Y-168000000D03*
X278000000Y-108000000D03*
X83000000Y-278000000D03*
X78000000Y-58000000D03*
X123000000Y-53000000D03*
X113000000Y-263000000D03*
X298000000Y-73000000D03*
X78000000Y-83000000D03*
X113000000Y-158000000D03*
X58000000Y-78000000D03*
X88000000Y-58000000D03*
X153000000Y-143000000D03*
X163000000Y-83000000D03*
X213000000Y-203000000D03*
X118000000Y-148000000D03*
X123000000Y-258000000D03*
X268000000Y-268000000D03*
X183000000Y-263000000D03*
X303000000Y-213000000D03*
X198000000Y-138000000D03*
X28000000Y-48000000D03*
X293000000Y-158000000D03*
X183000000Y-133000000D03*
X48000000Y-73000000D03*
X113000000Y-103000000D03*
X208000000Y-103000000D03*
X73000000Y-208000000D03*
X63000000Y-138000000D03*
X103000000Y-238000000D03*
X283000000Y-38000000D03*
X148000000Y-43000000D03*
X98000000Y-68000000D03*
X218000000Y-18000000D03*
X258000000Y-138000000D03*
X138000000Y-263000000D03*
X233000000Y-238000000D03*
X303000000Y-73000000D03*
X193000000Y-198000000D03*
X153000000Y-188000000D03*
X203000000Y-148000000D03*
X118000000Y-93000000D03*
X38000000Y-58000000D03*
X303000000Y-103000000D03*
X283000000Y-58000000D03*
X183000000Y-268000000D03*
X238000000Y-193000000D03*
X153000000Y-33000000D03*
X173000000Y-198000000D03*
X273000000Y-83000000D03*
X218000000Y-28000000D03*
X143000000Y-238000000D03*
X188000000Y-198000000D03*
X43000000Y-128000000D03*
X153000000Y-268000000D03*
X303000000Y-258000000D03*
X78000000Y-53000000D03*
X163000000Y-203000000D03*
X143000000Y-43000000D03*
X68000000Y-93000000D03*
X33000000Y-168000000D03*
X43000000Y-278000000D03*
X158000000Y-198000000D03*
X88000000Y-258000000D03*
X188000000Y-143000000D03*
X258000000Y-108000000D03*
X23000000Y-93000000D03*
X23000000Y-48000000D03*
X288000000Y-253000000D03*
X133000000Y-273000000D03*
X113000000Y-238000000D03*
X108000000Y-93000000D03*
X228000000Y-193000000D03*
X158000000Y-148000000D03*
X178000000Y-18000000D03*
X33000000Y-268000000D03*
X203000000Y-163000000D03*
X78000000Y-103000000D03*
X38000000Y-173000000D03*
X238000000Y-278000000D03*
X38000000Y-68000000D03*
X48000000Y-188000000D03*
X23000000Y-103000000D03*
X63000000Y-98000000D03*
X233000000Y-208000000D03*
D13*
X162549999Y-82033333D03*
D12*
X48000000Y-263000000D03*
D13*
X161600000Y-81033333D03*
D12*
X33000000Y-223000000D03*
X203000000Y-203000000D03*
X148000000Y-218000000D03*
X118000000Y-63000000D03*
X48000000Y-273000000D03*
X158000000Y-153000000D03*
X243000000Y-48000000D03*
X63000000Y-238000000D03*
X283000000Y-113000000D03*
X228000000Y-108000000D03*
X153000000Y-208000000D03*
X243000000Y-193000000D03*
X198000000Y-38000000D03*
X248000000Y-38000000D03*
X48000000Y-33000000D03*
X128000000Y-213000000D03*
X153000000Y-148000000D03*
X53000000Y-28000000D03*
X258000000Y-273000000D03*
X148000000Y-143000000D03*
X53000000Y-38000000D03*
X63000000Y-58000000D03*
X123000000Y-23000000D03*
X78000000Y-48000000D03*
X93000000Y-68000000D03*
X138000000Y-153000000D03*
X68000000Y-168000000D03*
X193000000Y-68000000D03*
X253000000Y-243000000D03*
X148000000Y-73000000D03*
X163000000Y-18000000D03*
X248000000Y-128000000D03*
X133000000Y-43000000D03*
X133000000Y-218000000D03*
X278000000Y-93000000D03*
X18000000Y-98000000D03*
X123000000Y-193000000D03*
X198000000Y-128000000D03*
X223000000Y-178000000D03*
X113000000Y-18000000D03*
X163000000Y-108000000D03*
X133000000Y-103000000D03*
X188000000Y-173000000D03*
X63000000Y-148000000D03*
X98000000Y-188000000D03*
X148000000Y-53000000D03*
X258000000Y-253000000D03*
X188000000Y-38000000D03*
X188000000Y-218000000D03*
X243000000Y-18000000D03*
X278000000Y-148000000D03*
X28000000Y-258000000D03*
X133000000Y-268000000D03*
X233000000Y-33000000D03*
X303000000Y-53000000D03*
X273000000Y-68000000D03*
X263000000Y-188000000D03*
X23000000Y-178000000D03*
X33000000Y-273000000D03*
X278000000Y-188000000D03*
X208000000Y-148000000D03*
X243000000Y-28000000D03*
X163000000Y-263000000D03*
X258000000Y-263000000D03*
X83000000Y-228000000D03*
X228000000Y-263000000D03*
X68000000Y-213000000D03*
X253000000Y-218000000D03*
X303000000Y-273000000D03*
X238000000Y-153000000D03*
X243000000Y-23000000D03*
X68000000Y-228000000D03*
X293000000Y-208000000D03*
X203000000Y-243000000D03*
X123000000Y-63000000D03*
X23000000Y-143000000D03*
X103000000Y-228000000D03*
X108000000Y-38000000D03*
D13*
X162549999Y-80033333D03*
D12*
X23000000Y-243000000D03*
X148000000Y-268000000D03*
X203000000Y-223000000D03*
X293000000Y-98000000D03*
X103000000Y-258000000D03*
X38000000Y-253000000D03*
X133000000Y-118000000D03*
X153000000Y-198000000D03*
X293000000Y-128000000D03*
X63000000Y-188000000D03*
X123000000Y-188000000D03*
X78000000Y-208000000D03*
X143000000Y-198000000D03*
D13*
X161549999Y-79033333D03*
D12*
X213000000Y-63000000D03*
X163000000Y-88000000D03*
X253000000Y-203000000D03*
X153000000Y-108000000D03*
X298000000Y-128000000D03*
X298000000Y-138000000D03*
X203000000Y-123000000D03*
X98000000Y-18000000D03*
X228000000Y-33000000D03*
X303000000Y-183000000D03*
X243000000Y-128000000D03*
X268000000Y-258000000D03*
X108000000Y-173000000D03*
X293000000Y-268000000D03*
X48000000Y-258000000D03*
X298000000Y-223000000D03*
X193000000Y-208000000D03*
X53000000Y-213000000D03*
X193000000Y-133000000D03*
X68000000Y-248000000D03*
X158000000Y-98000000D03*
X253000000Y-208000000D03*
X258000000Y-248000000D03*
X123000000Y-43000000D03*
X58000000Y-108000000D03*
X178000000Y-78000000D03*
X203000000Y-228000000D03*
X168000000Y-58000000D03*
X48000000Y-178000000D03*
X303000000Y-248000000D03*
X113000000Y-48000000D03*
X53000000Y-148000000D03*
X88000000Y-48000000D03*
D13*
X162600000Y-86033333D03*
D12*
X188000000Y-123000000D03*
X38000000Y-248000000D03*
X98000000Y-78000000D03*
X178000000Y-198000000D03*
X243000000Y-153000000D03*
X248000000Y-98000000D03*
X78000000Y-188000000D03*
X278000000Y-208000000D03*
X128000000Y-168000000D03*
X233000000Y-158000000D03*
X128000000Y-273000000D03*
X58000000Y-233000000D03*
X283000000Y-268000000D03*
X98000000Y-233000000D03*
X243000000Y-38000000D03*
X273000000Y-218000000D03*
X248000000Y-243000000D03*
X38000000Y-38000000D03*
X248000000Y-73000000D03*
X28000000Y-88000000D03*
X23000000Y-273000000D03*
X213000000Y-18000000D03*
X88000000Y-198000000D03*
X48000000Y-153000000D03*
X103000000Y-178000000D03*
X203000000Y-193000000D03*
X28000000Y-118000000D03*
X293000000Y-103000000D03*
X243000000Y-188000000D03*
X193000000Y-223000000D03*
X113000000Y-203000000D03*
X173000000Y-233000000D03*
X58000000Y-168000000D03*
X58000000Y-193000000D03*
X43000000Y-208000000D03*
X73000000Y-238000000D03*
X78000000Y-123000000D03*
X123000000Y-113000000D03*
X268000000Y-183000000D03*
X163000000Y-223000000D03*
X153000000Y-118000000D03*
X163000000Y-148000000D03*
X88000000Y-178000000D03*
X148000000Y-233000000D03*
X243000000Y-83000000D03*
X148000000Y-248000000D03*
X123000000Y-213000000D03*
X253000000Y-213000000D03*
X103000000Y-203000000D03*
X293000000Y-198000000D03*
X208000000Y-168000000D03*
X88000000Y-63000000D03*
X93000000Y-153000000D03*
X108000000Y-133000000D03*
X243000000Y-158000000D03*
X138000000Y-48000000D03*
X238000000Y-98000000D03*
X193000000Y-188000000D03*
X73000000Y-128000000D03*
X33000000Y-58000000D03*
X223000000Y-133000000D03*
X53000000Y-143000000D03*
X283000000Y-143000000D03*
X278000000Y-203000000D03*
X218000000Y-98000000D03*
X43000000Y-148000000D03*
D13*
X163549999Y-86033333D03*
D12*
X278000000Y-33000000D03*
X273000000Y-253000000D03*
X173000000Y-103000000D03*
X93000000Y-48000000D03*
X93000000Y-198000000D03*
X288000000Y-163000000D03*
X233000000Y-108000000D03*
X283000000Y-228000000D03*
X128000000Y-243000000D03*
X288000000Y-278000000D03*
X303000000Y-203000000D03*
X238000000Y-223000000D03*
X128000000Y-278000000D03*
X233000000Y-188000000D03*
X228000000Y-223000000D03*
X28000000Y-168000000D03*
X263000000Y-163000000D03*
X188000000Y-223000000D03*
X123000000Y-208000000D03*
X253000000Y-188000000D03*
X218000000Y-108000000D03*
X103000000Y-263000000D03*
X33000000Y-148000000D03*
X108000000Y-163000000D03*
X208000000Y-33000000D03*
X233000000Y-83000000D03*
X268000000Y-263000000D03*
X243000000Y-108000000D03*
X23000000Y-23000000D03*
X178000000Y-203000000D03*
X43000000Y-263000000D03*
X293000000Y-178000000D03*
X173000000Y-153000000D03*
X63000000Y-193000000D03*
%TO.N,PLL_LOL*%
X208000000Y-153000000D03*
%TO.N,SW_5V*%
X63000000Y-268000000D03*
X63000000Y-263000000D03*
%TO.N,TFLN_TX_P1_B*%
X218000000Y-118000000D03*
%TD*%
D14*
%TO.N,AXI_RDATA*%
X111125000Y-122800000D02*
X160500000Y-122800000D01*
D15*
X111125000Y-122930000D02*
X160500000Y-122930000D01*
X111125000Y-123240000D02*
X160500000Y-123240000D01*
D14*
X111125000Y-123020000D02*
X160500000Y-123020000D01*
X111125000Y-123200000D02*
X160500000Y-123200000D01*
D15*
X111125000Y-122840000D02*
X160500000Y-122840000D01*
D14*
%TO.N,CLK_HBM_N*%
X111125000Y-122400000D02*
X160500000Y-122400000D01*
D15*
X111125000Y-122440000D02*
X160500000Y-122440000D01*
D14*
X111125000Y-122620000D02*
X160500000Y-122620000D01*
D15*
X111125000Y-122529999D02*
X160500000Y-122529999D01*
D14*
%TO.N,CLK_REF_N*%
X111125000Y-123420000D02*
X160500000Y-123420000D01*
%TO.N,CLK_SERDES*%
X111125000Y-122000000D02*
X160500000Y-122000000D01*
%TO.N,CLK_SERDES_N*%
X111125000Y-122220000D02*
X160500000Y-122220000D01*
D15*
X111125000Y-122130000D02*
X160500000Y-122130000D01*
%TO.N,GND*%
X111125000Y-123640000D02*
X160500000Y-123640000D01*
X111125000Y-121729999D02*
X160500000Y-121729999D01*
%TD*%
D16*
X158000000Y-163000000D03*
X83000000Y-243000000D03*
X78000000Y-243000000D03*
X73000000Y-243000000D03*
X193000000Y-78000000D03*
X103000000Y-253000000D03*
X118000000Y-253000000D03*
X73000000Y-268000000D03*
X88000000Y-253000000D03*
X73000000Y-263000000D03*
X163000000Y-163000000D03*
X118000000Y-123000000D03*
X113000000Y-123000000D03*
X133000000Y-123000000D03*
X143000000Y-123000000D03*
X123000000Y-123000000D03*
X148000000Y-123000000D03*
X138000000Y-123000000D03*
X153000000Y-123000000D03*
X128000000Y-123000000D03*
X158000000Y-123000000D03*
X298000000Y-158000000D03*
X198000000Y-33000000D03*
X273000000Y-18000000D03*
X138000000Y-133000000D03*
X113000000Y-193000000D03*
X108000000Y-253000000D03*
X288000000Y-178000000D03*
X143000000Y-68000000D03*
X238000000Y-53000000D03*
X113000000Y-133000000D03*
X263000000Y-208000000D03*
X128000000Y-183000000D03*
X113000000Y-63000000D03*
X173000000Y-238000000D03*
X113000000Y-83000000D03*
X153000000Y-53000000D03*
X273000000Y-188000000D03*
X138000000Y-68000000D03*
X178000000Y-268000000D03*
X58000000Y-228000000D03*
X303000000Y-58000000D03*
X73000000Y-198000000D03*
X43000000Y-88000000D03*
X298000000Y-238000000D03*
X143000000Y-138000000D03*
X83000000Y-258000000D03*
X83000000Y-158000000D03*
X283000000Y-193000000D03*
X233000000Y-268000000D03*
X278000000Y-43000000D03*
X18000000Y-163000000D03*
X188000000Y-248000000D03*
X143000000Y-273000000D03*
X108000000Y-18000000D03*
X58000000Y-183000000D03*
X53000000Y-198000000D03*
X213000000Y-193000000D03*
X188000000Y-278000000D03*
X38000000Y-83000000D03*
X193000000Y-213000000D03*
X83000000Y-188000000D03*
X233000000Y-133000000D03*
X123000000Y-163000000D03*
X188000000Y-203000000D03*
X78000000Y-138000000D03*
X263000000Y-43000000D03*
X98000000Y-133000000D03*
X103000000Y-223000000D03*
X268000000Y-213000000D03*
X198000000Y-238000000D03*
X108000000Y-53000000D03*
X123000000Y-93000000D03*
X283000000Y-128000000D03*
X128000000Y-128000000D03*
X183000000Y-163000000D03*
X298000000Y-23000000D03*
X123000000Y-133000000D03*
X288000000Y-68000000D03*
X78000000Y-23000000D03*
X143000000Y-18000000D03*
X78000000Y-18000000D03*
X123000000Y-173000000D03*
X28000000Y-233000000D03*
X88000000Y-163000000D03*
X248000000Y-148000000D03*
D17*
X160600000Y-81033333D03*
D16*
X258000000Y-148000000D03*
X98000000Y-258000000D03*
X228000000Y-188000000D03*
X233000000Y-253000000D03*
X63000000Y-233000000D03*
X38000000Y-143000000D03*
X123000000Y-108000000D03*
X178000000Y-253000000D03*
X213000000Y-213000000D03*
X143000000Y-73000000D03*
X48000000Y-53000000D03*
X143000000Y-193000000D03*
X43000000Y-158000000D03*
X303000000Y-93000000D03*
X218000000Y-83000000D03*
X248000000Y-178000000D03*
X198000000Y-248000000D03*
X98000000Y-278000000D03*
X238000000Y-148000000D03*
X48000000Y-173000000D03*
X108000000Y-143000000D03*
X73000000Y-278000000D03*
X118000000Y-23000000D03*
X278000000Y-38000000D03*
X238000000Y-268000000D03*
X168000000Y-128000000D03*
X128000000Y-28000000D03*
X183000000Y-83000000D03*
X108000000Y-48000000D03*
X278000000Y-123000000D03*
X138000000Y-148000000D03*
X38000000Y-78000000D03*
X233000000Y-23000000D03*
X123000000Y-48000000D03*
X298000000Y-68000000D03*
X218000000Y-43000000D03*
X88000000Y-103000000D03*
X83000000Y-163000000D03*
X98000000Y-88000000D03*
X278000000Y-48000000D03*
X238000000Y-123000000D03*
X148000000Y-263000000D03*
X273000000Y-213000000D03*
X268000000Y-118000000D03*
D17*
X161600000Y-84033333D03*
D16*
X298000000Y-88000000D03*
D17*
X161600000Y-80033333D03*
D16*
X33000000Y-93000000D03*
X173000000Y-108000000D03*
X63000000Y-53000000D03*
X88000000Y-193000000D03*
X53000000Y-43000000D03*
X248000000Y-203000000D03*
X158000000Y-183000000D03*
X253000000Y-78000000D03*
X148000000Y-88000000D03*
X233000000Y-98000000D03*
X198000000Y-123000000D03*
X218000000Y-198000000D03*
X258000000Y-173000000D03*
X63000000Y-123000000D03*
X88000000Y-158000000D03*
X113000000Y-43000000D03*
X133000000Y-263000000D03*
X58000000Y-143000000D03*
X33000000Y-258000000D03*
X103000000Y-213000000D03*
X198000000Y-258000000D03*
X208000000Y-138000000D03*
X128000000Y-138000000D03*
X88000000Y-93000000D03*
X233000000Y-228000000D03*
X178000000Y-228000000D03*
X113000000Y-28000000D03*
X258000000Y-18000000D03*
X93000000Y-273000000D03*
X63000000Y-33000000D03*
X228000000Y-78000000D03*
X218000000Y-68000000D03*
X193000000Y-228000000D03*
X183000000Y-93000000D03*
X128000000Y-83000000D03*
X233000000Y-218000000D03*
X78000000Y-213000000D03*
X303000000Y-98000000D03*
X173000000Y-178000000D03*
X243000000Y-183000000D03*
X123000000Y-223000000D03*
X33000000Y-48000000D03*
X268000000Y-163000000D03*
X178000000Y-163000000D03*
X48000000Y-143000000D03*
X108000000Y-103000000D03*
X303000000Y-188000000D03*
X168000000Y-103000000D03*
X53000000Y-18000000D03*
X198000000Y-113000000D03*
X233000000Y-118000000D03*
X173000000Y-128000000D03*
X303000000Y-233000000D03*
X213000000Y-123000000D03*
X268000000Y-98000000D03*
X193000000Y-123000000D03*
X168000000Y-138000000D03*
X43000000Y-203000000D03*
X173000000Y-213000000D03*
X248000000Y-188000000D03*
X233000000Y-78000000D03*
X173000000Y-248000000D03*
X178000000Y-73000000D03*
X283000000Y-223000000D03*
X263000000Y-248000000D03*
X278000000Y-248000000D03*
X88000000Y-118000000D03*
X288000000Y-223000000D03*
X303000000Y-263000000D03*
X253000000Y-193000000D03*
X188000000Y-68000000D03*
X68000000Y-38000000D03*
X263000000Y-263000000D03*
X108000000Y-83000000D03*
X253000000Y-43000000D03*
X258000000Y-208000000D03*
X18000000Y-193000000D03*
X293000000Y-33000000D03*
X108000000Y-243000000D03*
X23000000Y-168000000D03*
X228000000Y-118000000D03*
X78000000Y-203000000D03*
X68000000Y-98000000D03*
X168000000Y-193000000D03*
X288000000Y-218000000D03*
X158000000Y-193000000D03*
X108000000Y-98000000D03*
X53000000Y-208000000D03*
X123000000Y-38000000D03*
X223000000Y-33000000D03*
X218000000Y-193000000D03*
X38000000Y-153000000D03*
X293000000Y-133000000D03*
X113000000Y-113000000D03*
D17*
X163549999Y-85033333D03*
D16*
X168000000Y-143000000D03*
X228000000Y-103000000D03*
X58000000Y-148000000D03*
D17*
X161600000Y-79033333D03*
X161600000Y-83033333D03*
D16*
X253000000Y-28000000D03*
X48000000Y-128000000D03*
X268000000Y-158000000D03*
X113000000Y-78000000D03*
X48000000Y-198000000D03*
X48000000Y-103000000D03*
X178000000Y-248000000D03*
X98000000Y-58000000D03*
X253000000Y-98000000D03*
X228000000Y-213000000D03*
X243000000Y-68000000D03*
X208000000Y-113000000D03*
X263000000Y-73000000D03*
X168000000Y-228000000D03*
X38000000Y-33000000D03*
X63000000Y-48000000D03*
X58000000Y-23000000D03*
X173000000Y-273000000D03*
X253000000Y-273000000D03*
X283000000Y-178000000D03*
X243000000Y-278000000D03*
X153000000Y-88000000D03*
X288000000Y-168000000D03*
X133000000Y-223000000D03*
X183000000Y-218000000D03*
X73000000Y-173000000D03*
X88000000Y-278000000D03*
X158000000Y-168000000D03*
X258000000Y-23000000D03*
X103000000Y-193000000D03*
X133000000Y-163000000D03*
X273000000Y-228000000D03*
X173000000Y-133000000D03*
X118000000Y-153000000D03*
X68000000Y-238000000D03*
X73000000Y-48000000D03*
X233000000Y-173000000D03*
X113000000Y-23000000D03*
X78000000Y-183000000D03*
X28000000Y-73000000D03*
X68000000Y-203000000D03*
X263000000Y-118000000D03*
X143000000Y-223000000D03*
X73000000Y-63000000D03*
X293000000Y-28000000D03*
D17*
X163600000Y-79033333D03*
D16*
X58000000Y-73000000D03*
X133000000Y-228000000D03*
X118000000Y-263000000D03*
X123000000Y-158000000D03*
X23000000Y-98000000D03*
X238000000Y-68000000D03*
X253000000Y-263000000D03*
X153000000Y-258000000D03*
X293000000Y-228000000D03*
X88000000Y-113000000D03*
X113000000Y-33000000D03*
X213000000Y-178000000D03*
X33000000Y-278000000D03*
X43000000Y-193000000D03*
X68000000Y-193000000D03*
X248000000Y-133000000D03*
X178000000Y-168000000D03*
X178000000Y-178000000D03*
X148000000Y-128000000D03*
X303000000Y-278000000D03*
X148000000Y-178000000D03*
X243000000Y-238000000D03*
X98000000Y-113000000D03*
X133000000Y-78000000D03*
X43000000Y-118000000D03*
X113000000Y-38000000D03*
X43000000Y-53000000D03*
X143000000Y-173000000D03*
X158000000Y-33000000D03*
X88000000Y-153000000D03*
X133000000Y-183000000D03*
X298000000Y-133000000D03*
X103000000Y-173000000D03*
X213000000Y-263000000D03*
X218000000Y-213000000D03*
X283000000Y-63000000D03*
X93000000Y-248000000D03*
X178000000Y-193000000D03*
X143000000Y-83000000D03*
X268000000Y-28000000D03*
X178000000Y-83000000D03*
X83000000Y-168000000D03*
X18000000Y-88000000D03*
X233000000Y-143000000D03*
X68000000Y-53000000D03*
X43000000Y-268000000D03*
X93000000Y-83000000D03*
X88000000Y-68000000D03*
X93000000Y-73000000D03*
X273000000Y-233000000D03*
X108000000Y-153000000D03*
X193000000Y-73000000D03*
X218000000Y-128000000D03*
X53000000Y-58000000D03*
X283000000Y-258000000D03*
X53000000Y-193000000D03*
X268000000Y-273000000D03*
X78000000Y-173000000D03*
X278000000Y-268000000D03*
X78000000Y-38000000D03*
X268000000Y-193000000D03*
X63000000Y-73000000D03*
X263000000Y-103000000D03*
X58000000Y-33000000D03*
X143000000Y-78000000D03*
X158000000Y-53000000D03*
X58000000Y-128000000D03*
X293000000Y-93000000D03*
X208000000Y-178000000D03*
X43000000Y-163000000D03*
X138000000Y-18000000D03*
X303000000Y-178000000D03*
X23000000Y-238000000D03*
X148000000Y-28000000D03*
X288000000Y-203000000D03*
X203000000Y-143000000D03*
X43000000Y-113000000D03*
X188000000Y-93000000D03*
X223000000Y-193000000D03*
X48000000Y-213000000D03*
D17*
X164549999Y-85033333D03*
D16*
X98000000Y-63000000D03*
X188000000Y-23000000D03*
X298000000Y-278000000D03*
X283000000Y-158000000D03*
X63000000Y-133000000D03*
X38000000Y-168000000D03*
X193000000Y-183000000D03*
X38000000Y-183000000D03*
X58000000Y-243000000D03*
X123000000Y-88000000D03*
X203000000Y-103000000D03*
X43000000Y-233000000D03*
X208000000Y-133000000D03*
X208000000Y-163000000D03*
X303000000Y-88000000D03*
X198000000Y-218000000D03*
X53000000Y-183000000D03*
X28000000Y-58000000D03*
X33000000Y-198000000D03*
X118000000Y-83000000D03*
X18000000Y-68000000D03*
X298000000Y-213000000D03*
X163000000Y-213000000D03*
X158000000Y-233000000D03*
X108000000Y-58000000D03*
X198000000Y-28000000D03*
X248000000Y-213000000D03*
X223000000Y-208000000D03*
D17*
X164549999Y-82033333D03*
D16*
X188000000Y-163000000D03*
X193000000Y-48000000D03*
X298000000Y-83000000D03*
X193000000Y-38000000D03*
X73000000Y-163000000D03*
X43000000Y-108000000D03*
X223000000Y-218000000D03*
X253000000Y-23000000D03*
X238000000Y-203000000D03*
X253000000Y-258000000D03*
X23000000Y-108000000D03*
X153000000Y-158000000D03*
X293000000Y-108000000D03*
X153000000Y-73000000D03*
X78000000Y-193000000D03*
X93000000Y-88000000D03*
X168000000Y-23000000D03*
X88000000Y-213000000D03*
X88000000Y-43000000D03*
X218000000Y-93000000D03*
X68000000Y-23000000D03*
X68000000Y-63000000D03*
X188000000Y-118000000D03*
X68000000Y-253000000D03*
X143000000Y-228000000D03*
X273000000Y-88000000D03*
X283000000Y-173000000D03*
X188000000Y-128000000D03*
X173000000Y-53000000D03*
X213000000Y-198000000D03*
X103000000Y-183000000D03*
X188000000Y-183000000D03*
X93000000Y-268000000D03*
X103000000Y-248000000D03*
X18000000Y-178000000D03*
X73000000Y-158000000D03*
X108000000Y-128000000D03*
X268000000Y-128000000D03*
X263000000Y-23000000D03*
X288000000Y-38000000D03*
X163000000Y-238000000D03*
X243000000Y-208000000D03*
X18000000Y-118000000D03*
X298000000Y-33000000D03*
X78000000Y-268000000D03*
X33000000Y-23000000D03*
X43000000Y-33000000D03*
X163000000Y-78000000D03*
X83000000Y-38000000D03*
X103000000Y-188000000D03*
X53000000Y-253000000D03*
X298000000Y-93000000D03*
X228000000Y-228000000D03*
X213000000Y-23000000D03*
X278000000Y-18000000D03*
X108000000Y-178000000D03*
X178000000Y-243000000D03*
X138000000Y-223000000D03*
X223000000Y-123000000D03*
X283000000Y-118000000D03*
X208000000Y-188000000D03*
X53000000Y-228000000D03*
X168000000Y-183000000D03*
X278000000Y-118000000D03*
X188000000Y-268000000D03*
X283000000Y-18000000D03*
X163000000Y-228000000D03*
X88000000Y-88000000D03*
X248000000Y-253000000D03*
X33000000Y-108000000D03*
X63000000Y-253000000D03*
X248000000Y-33000000D03*
D17*
X161549999Y-86033333D03*
D16*
X173000000Y-73000000D03*
X268000000Y-223000000D03*
X63000000Y-208000000D03*
X138000000Y-258000000D03*
D17*
X161549999Y-84033333D03*
D16*
X193000000Y-168000000D03*
X153000000Y-133000000D03*
X193000000Y-18000000D03*
X83000000Y-93000000D03*
X118000000Y-158000000D03*
D17*
X162600000Y-83033333D03*
D16*
X18000000Y-158000000D03*
X273000000Y-58000000D03*
X268000000Y-188000000D03*
X98000000Y-108000000D03*
X263000000Y-63000000D03*
X158000000Y-143000000D03*
X108000000Y-238000000D03*
X243000000Y-213000000D03*
X303000000Y-223000000D03*
X63000000Y-28000000D03*
X228000000Y-23000000D03*
X238000000Y-188000000D03*
X138000000Y-163000000D03*
X33000000Y-28000000D03*
X198000000Y-108000000D03*
X68000000Y-278000000D03*
X173000000Y-188000000D03*
D17*
X163600000Y-80033333D03*
D16*
X208000000Y-268000000D03*
X93000000Y-33000000D03*
X243000000Y-78000000D03*
X263000000Y-173000000D03*
X158000000Y-243000000D03*
X98000000Y-143000000D03*
X68000000Y-68000000D03*
X293000000Y-278000000D03*
X143000000Y-58000000D03*
X88000000Y-143000000D03*
X263000000Y-183000000D03*
X128000000Y-73000000D03*
X303000000Y-168000000D03*
X28000000Y-263000000D03*
X288000000Y-23000000D03*
X73000000Y-258000000D03*
X98000000Y-148000000D03*
X98000000Y-198000000D03*
X148000000Y-158000000D03*
X58000000Y-158000000D03*
X288000000Y-108000000D03*
X213000000Y-238000000D03*
X18000000Y-43000000D03*
X133000000Y-83000000D03*
X38000000Y-208000000D03*
X223000000Y-268000000D03*
X203000000Y-43000000D03*
X253000000Y-223000000D03*
X208000000Y-68000000D03*
X188000000Y-103000000D03*
D17*
X160600000Y-84033333D03*
D16*
X58000000Y-48000000D03*
X198000000Y-208000000D03*
X253000000Y-118000000D03*
X73000000Y-18000000D03*
X173000000Y-78000000D03*
X18000000Y-23000000D03*
X163000000Y-273000000D03*
X138000000Y-98000000D03*
X108000000Y-138000000D03*
X73000000Y-123000000D03*
X158000000Y-88000000D03*
X118000000Y-198000000D03*
X173000000Y-113000000D03*
X143000000Y-143000000D03*
X278000000Y-223000000D03*
X68000000Y-208000000D03*
X223000000Y-188000000D03*
X253000000Y-53000000D03*
X183000000Y-198000000D03*
X93000000Y-233000000D03*
X283000000Y-253000000D03*
X298000000Y-193000000D03*
X248000000Y-123000000D03*
X43000000Y-103000000D03*
X158000000Y-128000000D03*
X23000000Y-258000000D03*
X273000000Y-123000000D03*
X38000000Y-163000000D03*
X28000000Y-83000000D03*
X23000000Y-148000000D03*
X148000000Y-93000000D03*
X288000000Y-28000000D03*
X168000000Y-163000000D03*
X98000000Y-183000000D03*
X53000000Y-223000000D03*
X183000000Y-173000000D03*
X273000000Y-33000000D03*
X128000000Y-248000000D03*
X168000000Y-118000000D03*
X113000000Y-218000000D03*
X133000000Y-138000000D03*
X213000000Y-118000000D03*
X253000000Y-268000000D03*
X18000000Y-53000000D03*
X103000000Y-143000000D03*
X53000000Y-178000000D03*
X108000000Y-78000000D03*
X258000000Y-158000000D03*
X233000000Y-203000000D03*
X278000000Y-128000000D03*
X208000000Y-233000000D03*
X178000000Y-188000000D03*
X58000000Y-273000000D03*
X168000000Y-93000000D03*
X18000000Y-213000000D03*
X213000000Y-78000000D03*
X298000000Y-58000000D03*
X103000000Y-43000000D03*
X248000000Y-83000000D03*
X168000000Y-63000000D03*
X223000000Y-223000000D03*
X173000000Y-43000000D03*
X263000000Y-158000000D03*
X253000000Y-278000000D03*
X238000000Y-173000000D03*
D17*
X163549999Y-79033333D03*
D16*
X218000000Y-273000000D03*
X263000000Y-168000000D03*
X78000000Y-63000000D03*
X138000000Y-88000000D03*
X213000000Y-188000000D03*
X28000000Y-218000000D03*
X78000000Y-68000000D03*
X38000000Y-113000000D03*
X153000000Y-138000000D03*
X173000000Y-158000000D03*
X233000000Y-53000000D03*
X268000000Y-143000000D03*
X128000000Y-58000000D03*
D17*
X163549999Y-83033333D03*
D16*
X233000000Y-28000000D03*
X293000000Y-218000000D03*
X28000000Y-243000000D03*
X148000000Y-163000000D03*
X78000000Y-73000000D03*
X38000000Y-88000000D03*
X138000000Y-208000000D03*
X78000000Y-233000000D03*
X283000000Y-23000000D03*
X248000000Y-233000000D03*
X23000000Y-278000000D03*
X193000000Y-193000000D03*
X283000000Y-93000000D03*
X18000000Y-148000000D03*
X273000000Y-223000000D03*
X78000000Y-238000000D03*
X293000000Y-183000000D03*
X273000000Y-158000000D03*
X118000000Y-53000000D03*
X293000000Y-88000000D03*
X43000000Y-98000000D03*
X193000000Y-278000000D03*
X28000000Y-78000000D03*
X223000000Y-108000000D03*
X33000000Y-38000000D03*
X233000000Y-73000000D03*
X143000000Y-63000000D03*
X28000000Y-198000000D03*
X43000000Y-228000000D03*
X103000000Y-133000000D03*
X263000000Y-83000000D03*
X73000000Y-113000000D03*
X48000000Y-158000000D03*
X208000000Y-248000000D03*
X68000000Y-113000000D03*
X143000000Y-263000000D03*
X113000000Y-198000000D03*
X203000000Y-173000000D03*
X208000000Y-43000000D03*
X143000000Y-213000000D03*
X293000000Y-148000000D03*
X238000000Y-63000000D03*
X223000000Y-228000000D03*
X143000000Y-268000000D03*
X298000000Y-38000000D03*
X98000000Y-73000000D03*
X28000000Y-23000000D03*
X143000000Y-38000000D03*
X53000000Y-258000000D03*
X263000000Y-48000000D03*
X163000000Y-143000000D03*
X48000000Y-223000000D03*
X173000000Y-58000000D03*
X158000000Y-208000000D03*
X168000000Y-53000000D03*
X38000000Y-233000000D03*
X278000000Y-178000000D03*
X228000000Y-128000000D03*
X33000000Y-153000000D03*
X18000000Y-183000000D03*
X133000000Y-133000000D03*
X73000000Y-253000000D03*
X88000000Y-238000000D03*
X193000000Y-28000000D03*
X198000000Y-58000000D03*
X268000000Y-83000000D03*
X138000000Y-58000000D03*
X223000000Y-143000000D03*
X48000000Y-183000000D03*
X193000000Y-233000000D03*
X88000000Y-168000000D03*
X283000000Y-233000000D03*
X128000000Y-178000000D03*
X208000000Y-58000000D03*
X198000000Y-233000000D03*
X183000000Y-88000000D03*
X173000000Y-218000000D03*
X288000000Y-118000000D03*
X118000000Y-98000000D03*
X198000000Y-103000000D03*
X88000000Y-183000000D03*
X138000000Y-83000000D03*
X83000000Y-203000000D03*
X258000000Y-88000000D03*
X198000000Y-268000000D03*
X103000000Y-118000000D03*
X168000000Y-148000000D03*
X238000000Y-213000000D03*
X68000000Y-188000000D03*
X163000000Y-158000000D03*
X283000000Y-28000000D03*
X163000000Y-133000000D03*
X203000000Y-218000000D03*
X213000000Y-168000000D03*
X63000000Y-203000000D03*
X138000000Y-268000000D03*
X233000000Y-43000000D03*
X23000000Y-213000000D03*
X218000000Y-158000000D03*
X23000000Y-198000000D03*
X128000000Y-228000000D03*
X33000000Y-243000000D03*
X258000000Y-188000000D03*
X163000000Y-123000000D03*
X108000000Y-73000000D03*
X253000000Y-128000000D03*
X48000000Y-218000000D03*
X273000000Y-108000000D03*
X43000000Y-63000000D03*
X238000000Y-128000000D03*
X283000000Y-53000000D03*
X168000000Y-73000000D03*
X143000000Y-258000000D03*
X53000000Y-63000000D03*
X38000000Y-228000000D03*
X23000000Y-253000000D03*
X248000000Y-273000000D03*
X163000000Y-258000000D03*
X83000000Y-63000000D03*
X148000000Y-33000000D03*
X268000000Y-68000000D03*
X178000000Y-43000000D03*
X43000000Y-183000000D03*
X278000000Y-113000000D03*
X303000000Y-228000000D03*
X128000000Y-48000000D03*
X98000000Y-193000000D03*
X238000000Y-258000000D03*
X233000000Y-103000000D03*
X98000000Y-273000000D03*
X133000000Y-28000000D03*
X48000000Y-133000000D03*
X263000000Y-193000000D03*
X83000000Y-98000000D03*
X78000000Y-263000000D03*
X53000000Y-218000000D03*
X263000000Y-113000000D03*
X118000000Y-33000000D03*
X113000000Y-143000000D03*
X118000000Y-88000000D03*
X73000000Y-33000000D03*
X263000000Y-223000000D03*
X98000000Y-173000000D03*
X223000000Y-48000000D03*
D17*
X164549999Y-79033333D03*
D16*
X283000000Y-218000000D03*
X53000000Y-23000000D03*
X113000000Y-183000000D03*
X288000000Y-88000000D03*
X223000000Y-263000000D03*
X138000000Y-233000000D03*
X83000000Y-33000000D03*
X188000000Y-188000000D03*
X173000000Y-278000000D03*
X273000000Y-258000000D03*
X273000000Y-28000000D03*
X38000000Y-278000000D03*
X253000000Y-183000000D03*
X273000000Y-63000000D03*
X188000000Y-28000000D03*
X208000000Y-143000000D03*
X253000000Y-73000000D03*
X298000000Y-103000000D03*
X153000000Y-38000000D03*
X243000000Y-268000000D03*
X68000000Y-223000000D03*
X58000000Y-93000000D03*
X63000000Y-248000000D03*
X298000000Y-153000000D03*
X118000000Y-48000000D03*
X293000000Y-273000000D03*
X138000000Y-213000000D03*
X208000000Y-273000000D03*
X58000000Y-278000000D03*
X258000000Y-143000000D03*
X253000000Y-133000000D03*
X88000000Y-108000000D03*
X293000000Y-123000000D03*
X78000000Y-278000000D03*
X73000000Y-193000000D03*
X238000000Y-58000000D03*
X183000000Y-103000000D03*
X43000000Y-23000000D03*
X148000000Y-138000000D03*
X238000000Y-253000000D03*
X278000000Y-68000000D03*
X233000000Y-128000000D03*
X158000000Y-278000000D03*
X83000000Y-83000000D03*
X103000000Y-78000000D03*
X218000000Y-63000000D03*
X248000000Y-268000000D03*
X178000000Y-53000000D03*
X208000000Y-78000000D03*
X118000000Y-113000000D03*
X148000000Y-238000000D03*
X53000000Y-118000000D03*
X98000000Y-213000000D03*
X28000000Y-38000000D03*
X183000000Y-123000000D03*
X28000000Y-183000000D03*
X23000000Y-163000000D03*
X163000000Y-128000000D03*
X133000000Y-58000000D03*
X23000000Y-38000000D03*
X303000000Y-163000000D03*
X213000000Y-33000000D03*
X58000000Y-83000000D03*
X118000000Y-73000000D03*
X268000000Y-88000000D03*
X268000000Y-203000000D03*
X23000000Y-153000000D03*
X103000000Y-83000000D03*
X203000000Y-18000000D03*
X73000000Y-93000000D03*
X38000000Y-18000000D03*
X93000000Y-238000000D03*
X98000000Y-48000000D03*
X98000000Y-163000000D03*
X28000000Y-43000000D03*
X138000000Y-63000000D03*
X273000000Y-113000000D03*
X43000000Y-188000000D03*
X213000000Y-58000000D03*
X133000000Y-113000000D03*
X193000000Y-243000000D03*
X63000000Y-118000000D03*
X193000000Y-273000000D03*
X263000000Y-33000000D03*
X183000000Y-78000000D03*
X68000000Y-118000000D03*
X73000000Y-58000000D03*
X93000000Y-53000000D03*
X273000000Y-203000000D03*
X128000000Y-43000000D03*
X228000000Y-253000000D03*
X88000000Y-98000000D03*
X113000000Y-128000000D03*
X223000000Y-98000000D03*
X158000000Y-268000000D03*
X218000000Y-258000000D03*
X303000000Y-23000000D03*
X113000000Y-163000000D03*
X198000000Y-63000000D03*
X298000000Y-248000000D03*
X43000000Y-218000000D03*
X188000000Y-243000000D03*
X243000000Y-118000000D03*
X253000000Y-153000000D03*
X18000000Y-263000000D03*
X168000000Y-218000000D03*
X78000000Y-258000000D03*
X38000000Y-48000000D03*
D17*
X162600000Y-84033333D03*
D16*
X43000000Y-153000000D03*
X283000000Y-78000000D03*
X268000000Y-38000000D03*
X243000000Y-218000000D03*
X268000000Y-18000000D03*
X128000000Y-153000000D03*
X228000000Y-173000000D03*
X168000000Y-173000000D03*
X173000000Y-253000000D03*
X298000000Y-203000000D03*
X298000000Y-208000000D03*
X258000000Y-153000000D03*
X18000000Y-78000000D03*
X303000000Y-68000000D03*
X138000000Y-73000000D03*
X223000000Y-148000000D03*
X213000000Y-48000000D03*
X28000000Y-238000000D03*
X203000000Y-118000000D03*
X228000000Y-48000000D03*
X268000000Y-168000000D03*
X138000000Y-113000000D03*
X128000000Y-238000000D03*
X103000000Y-218000000D03*
X23000000Y-28000000D03*
X183000000Y-273000000D03*
X223000000Y-153000000D03*
X128000000Y-193000000D03*
X123000000Y-268000000D03*
X48000000Y-113000000D03*
X23000000Y-123000000D03*
X293000000Y-68000000D03*
X78000000Y-98000000D03*
X153000000Y-48000000D03*
X158000000Y-43000000D03*
X133000000Y-73000000D03*
X218000000Y-103000000D03*
X273000000Y-93000000D03*
X273000000Y-163000000D03*
X238000000Y-158000000D03*
X33000000Y-178000000D03*
X88000000Y-188000000D03*
X218000000Y-48000000D03*
X58000000Y-118000000D03*
X228000000Y-93000000D03*
X178000000Y-63000000D03*
X283000000Y-138000000D03*
X48000000Y-193000000D03*
X293000000Y-153000000D03*
X173000000Y-148000000D03*
X233000000Y-258000000D03*
X238000000Y-93000000D03*
X43000000Y-243000000D03*
X148000000Y-168000000D03*
X58000000Y-188000000D03*
X78000000Y-253000000D03*
X183000000Y-63000000D03*
X108000000Y-218000000D03*
X298000000Y-123000000D03*
X93000000Y-223000000D03*
X218000000Y-183000000D03*
X213000000Y-98000000D03*
X118000000Y-238000000D03*
X238000000Y-133000000D03*
X23000000Y-138000000D03*
X223000000Y-113000000D03*
X283000000Y-98000000D03*
X133000000Y-168000000D03*
X33000000Y-63000000D03*
X118000000Y-163000000D03*
X28000000Y-268000000D03*
X43000000Y-133000000D03*
X108000000Y-123000000D03*
X98000000Y-238000000D03*
X173000000Y-63000000D03*
X288000000Y-78000000D03*
X298000000Y-53000000D03*
X218000000Y-238000000D03*
X93000000Y-158000000D03*
X38000000Y-273000000D03*
X163000000Y-33000000D03*
X263000000Y-273000000D03*
X123000000Y-28000000D03*
X48000000Y-23000000D03*
X168000000Y-203000000D03*
X243000000Y-178000000D03*
X33000000Y-193000000D03*
X168000000Y-178000000D03*
X153000000Y-63000000D03*
X288000000Y-193000000D03*
X248000000Y-218000000D03*
X288000000Y-268000000D03*
X223000000Y-253000000D03*
X163000000Y-58000000D03*
X198000000Y-188000000D03*
X33000000Y-183000000D03*
X228000000Y-203000000D03*
X143000000Y-168000000D03*
X258000000Y-163000000D03*
X113000000Y-248000000D03*
X83000000Y-233000000D03*
X233000000Y-248000000D03*
X288000000Y-63000000D03*
X233000000Y-243000000D03*
X173000000Y-223000000D03*
X203000000Y-268000000D03*
X243000000Y-33000000D03*
X53000000Y-83000000D03*
X243000000Y-93000000D03*
X58000000Y-263000000D03*
X233000000Y-233000000D03*
X83000000Y-68000000D03*
X228000000Y-83000000D03*
X273000000Y-138000000D03*
X43000000Y-83000000D03*
X258000000Y-123000000D03*
X108000000Y-273000000D03*
X243000000Y-43000000D03*
X103000000Y-278000000D03*
X218000000Y-138000000D03*
X238000000Y-273000000D03*
X83000000Y-28000000D03*
X158000000Y-253000000D03*
X228000000Y-98000000D03*
X83000000Y-173000000D03*
X28000000Y-33000000D03*
X63000000Y-198000000D03*
X73000000Y-218000000D03*
X28000000Y-63000000D03*
X18000000Y-93000000D03*
X78000000Y-93000000D03*
X258000000Y-53000000D03*
X208000000Y-203000000D03*
X183000000Y-28000000D03*
X118000000Y-248000000D03*
X68000000Y-243000000D03*
X263000000Y-268000000D03*
X153000000Y-228000000D03*
X248000000Y-238000000D03*
X288000000Y-213000000D03*
X283000000Y-248000000D03*
X23000000Y-63000000D03*
X263000000Y-138000000D03*
X253000000Y-248000000D03*
X293000000Y-243000000D03*
X163000000Y-198000000D03*
X213000000Y-268000000D03*
X198000000Y-48000000D03*
X148000000Y-278000000D03*
X133000000Y-193000000D03*
X238000000Y-48000000D03*
X268000000Y-58000000D03*
X208000000Y-128000000D03*
X88000000Y-218000000D03*
X73000000Y-273000000D03*
X48000000Y-18000000D03*
D17*
X163600000Y-84033333D03*
D16*
X243000000Y-133000000D03*
X298000000Y-183000000D03*
X278000000Y-98000000D03*
X123000000Y-273000000D03*
X193000000Y-23000000D03*
X28000000Y-148000000D03*
X93000000Y-148000000D03*
X143000000Y-88000000D03*
X243000000Y-253000000D03*
X263000000Y-218000000D03*
X183000000Y-168000000D03*
X243000000Y-263000000D03*
X28000000Y-18000000D03*
X233000000Y-148000000D03*
X68000000Y-73000000D03*
X188000000Y-73000000D03*
X218000000Y-148000000D03*
X28000000Y-28000000D03*
X163000000Y-193000000D03*
X293000000Y-173000000D03*
X158000000Y-173000000D03*
X103000000Y-208000000D03*
X273000000Y-98000000D03*
X123000000Y-278000000D03*
X88000000Y-133000000D03*
X28000000Y-143000000D03*
X183000000Y-153000000D03*
X103000000Y-243000000D03*
X53000000Y-138000000D03*
X238000000Y-88000000D03*
X53000000Y-33000000D03*
D17*
X161600000Y-86033333D03*
D16*
X93000000Y-123000000D03*
X158000000Y-63000000D03*
X103000000Y-48000000D03*
X293000000Y-53000000D03*
X293000000Y-233000000D03*
X18000000Y-123000000D03*
X163000000Y-68000000D03*
X273000000Y-118000000D03*
X118000000Y-128000000D03*
X223000000Y-118000000D03*
X18000000Y-38000000D03*
X68000000Y-58000000D03*
X218000000Y-263000000D03*
X53000000Y-108000000D03*
X258000000Y-28000000D03*
X263000000Y-228000000D03*
X158000000Y-228000000D03*
X158000000Y-258000000D03*
X143000000Y-113000000D03*
X133000000Y-38000000D03*
X263000000Y-123000000D03*
X133000000Y-93000000D03*
X108000000Y-33000000D03*
X293000000Y-193000000D03*
X228000000Y-73000000D03*
X213000000Y-258000000D03*
X303000000Y-238000000D03*
X33000000Y-118000000D03*
X133000000Y-253000000D03*
D17*
X161549999Y-80033333D03*
D16*
X148000000Y-118000000D03*
X218000000Y-33000000D03*
D17*
X164549999Y-80033333D03*
D16*
X163000000Y-63000000D03*
X233000000Y-88000000D03*
X198000000Y-18000000D03*
X78000000Y-113000000D03*
X133000000Y-108000000D03*
X283000000Y-123000000D03*
X268000000Y-63000000D03*
X198000000Y-273000000D03*
X168000000Y-108000000D03*
X153000000Y-213000000D03*
X263000000Y-133000000D03*
X238000000Y-228000000D03*
X53000000Y-73000000D03*
X88000000Y-33000000D03*
X288000000Y-128000000D03*
X223000000Y-213000000D03*
X288000000Y-138000000D03*
X248000000Y-28000000D03*
X263000000Y-143000000D03*
X228000000Y-243000000D03*
X288000000Y-123000000D03*
X258000000Y-228000000D03*
X268000000Y-243000000D03*
X113000000Y-278000000D03*
X48000000Y-168000000D03*
X218000000Y-168000000D03*
X288000000Y-58000000D03*
X103000000Y-88000000D03*
X203000000Y-108000000D03*
X218000000Y-23000000D03*
X293000000Y-168000000D03*
X188000000Y-98000000D03*
X258000000Y-38000000D03*
X83000000Y-23000000D03*
X278000000Y-133000000D03*
X148000000Y-48000000D03*
X38000000Y-198000000D03*
X273000000Y-148000000D03*
X188000000Y-48000000D03*
X268000000Y-208000000D03*
X223000000Y-63000000D03*
X213000000Y-88000000D03*
X38000000Y-268000000D03*
X23000000Y-78000000D03*
X303000000Y-153000000D03*
X103000000Y-268000000D03*
X198000000Y-253000000D03*
X43000000Y-43000000D03*
X128000000Y-68000000D03*
X138000000Y-143000000D03*
X98000000Y-53000000D03*
X73000000Y-138000000D03*
X148000000Y-228000000D03*
X258000000Y-98000000D03*
X113000000Y-168000000D03*
X278000000Y-53000000D03*
X178000000Y-263000000D03*
X138000000Y-108000000D03*
X118000000Y-43000000D03*
X38000000Y-223000000D03*
X188000000Y-133000000D03*
X293000000Y-38000000D03*
X113000000Y-268000000D03*
X298000000Y-108000000D03*
X83000000Y-148000000D03*
X128000000Y-233000000D03*
X33000000Y-128000000D03*
X278000000Y-238000000D03*
X58000000Y-203000000D03*
X143000000Y-108000000D03*
X63000000Y-163000000D03*
X243000000Y-148000000D03*
X183000000Y-128000000D03*
X228000000Y-248000000D03*
X243000000Y-243000000D03*
X43000000Y-173000000D03*
X23000000Y-73000000D03*
X78000000Y-148000000D03*
X143000000Y-183000000D03*
X198000000Y-163000000D03*
X33000000Y-203000000D03*
X108000000Y-193000000D03*
X133000000Y-178000000D03*
X183000000Y-58000000D03*
X28000000Y-53000000D03*
X148000000Y-173000000D03*
X273000000Y-128000000D03*
X118000000Y-203000000D03*
X208000000Y-218000000D03*
X93000000Y-258000000D03*
X178000000Y-108000000D03*
X288000000Y-113000000D03*
X148000000Y-253000000D03*
X48000000Y-118000000D03*
X33000000Y-73000000D03*
X168000000Y-223000000D03*
X233000000Y-63000000D03*
X88000000Y-243000000D03*
X23000000Y-158000000D03*
X288000000Y-248000000D03*
X208000000Y-83000000D03*
X158000000Y-48000000D03*
X93000000Y-58000000D03*
X223000000Y-158000000D03*
X98000000Y-203000000D03*
X193000000Y-248000000D03*
X243000000Y-273000000D03*
X48000000Y-253000000D03*
X263000000Y-108000000D03*
X28000000Y-98000000D03*
X48000000Y-48000000D03*
X208000000Y-253000000D03*
X78000000Y-248000000D03*
X193000000Y-218000000D03*
X108000000Y-28000000D03*
X228000000Y-183000000D03*
X118000000Y-193000000D03*
X53000000Y-53000000D03*
X18000000Y-278000000D03*
X23000000Y-188000000D03*
D17*
X162549999Y-84033333D03*
D16*
X163000000Y-103000000D03*
X288000000Y-243000000D03*
X268000000Y-123000000D03*
X58000000Y-238000000D03*
X48000000Y-108000000D03*
X213000000Y-28000000D03*
X108000000Y-118000000D03*
X163000000Y-218000000D03*
X93000000Y-43000000D03*
X173000000Y-263000000D03*
X223000000Y-273000000D03*
X68000000Y-28000000D03*
X133000000Y-213000000D03*
X58000000Y-253000000D03*
X298000000Y-263000000D03*
X193000000Y-148000000D03*
X138000000Y-33000000D03*
X183000000Y-23000000D03*
X158000000Y-203000000D03*
X83000000Y-248000000D03*
X88000000Y-268000000D03*
X293000000Y-43000000D03*
X143000000Y-188000000D03*
X188000000Y-43000000D03*
X193000000Y-253000000D03*
X18000000Y-208000000D03*
X173000000Y-38000000D03*
X268000000Y-233000000D03*
X18000000Y-138000000D03*
X268000000Y-148000000D03*
X268000000Y-73000000D03*
X283000000Y-33000000D03*
X83000000Y-108000000D03*
X268000000Y-93000000D03*
X263000000Y-153000000D03*
X248000000Y-113000000D03*
X278000000Y-23000000D03*
X83000000Y-73000000D03*
X238000000Y-18000000D03*
X83000000Y-128000000D03*
X103000000Y-103000000D03*
X18000000Y-33000000D03*
X103000000Y-28000000D03*
X188000000Y-213000000D03*
X143000000Y-208000000D03*
X198000000Y-193000000D03*
X248000000Y-153000000D03*
X128000000Y-148000000D03*
X163000000Y-253000000D03*
X193000000Y-138000000D03*
X53000000Y-133000000D03*
X73000000Y-153000000D03*
X223000000Y-43000000D03*
X153000000Y-273000000D03*
X303000000Y-28000000D03*
X303000000Y-218000000D03*
X108000000Y-183000000D03*
X158000000Y-273000000D03*
X158000000Y-113000000D03*
X248000000Y-163000000D03*
X18000000Y-223000000D03*
X98000000Y-208000000D03*
X208000000Y-28000000D03*
X138000000Y-38000000D03*
X258000000Y-213000000D03*
X278000000Y-263000000D03*
X63000000Y-258000000D03*
X163000000Y-183000000D03*
X83000000Y-88000000D03*
X238000000Y-263000000D03*
D17*
X162549999Y-83033333D03*
D16*
X223000000Y-198000000D03*
X138000000Y-188000000D03*
X138000000Y-218000000D03*
X18000000Y-168000000D03*
X298000000Y-218000000D03*
X33000000Y-143000000D03*
X38000000Y-43000000D03*
X213000000Y-163000000D03*
X63000000Y-168000000D03*
X73000000Y-233000000D03*
X53000000Y-238000000D03*
X178000000Y-128000000D03*
X138000000Y-193000000D03*
X218000000Y-228000000D03*
X258000000Y-203000000D03*
X173000000Y-258000000D03*
X238000000Y-118000000D03*
X208000000Y-63000000D03*
X243000000Y-58000000D03*
X168000000Y-98000000D03*
X223000000Y-103000000D03*
X168000000Y-38000000D03*
X158000000Y-248000000D03*
X183000000Y-188000000D03*
X223000000Y-68000000D03*
X128000000Y-113000000D03*
X248000000Y-108000000D03*
X143000000Y-278000000D03*
X238000000Y-78000000D03*
X283000000Y-73000000D03*
X188000000Y-63000000D03*
X108000000Y-188000000D03*
X38000000Y-28000000D03*
X63000000Y-153000000D03*
X28000000Y-203000000D03*
X238000000Y-103000000D03*
X73000000Y-38000000D03*
X108000000Y-23000000D03*
X83000000Y-43000000D03*
X158000000Y-133000000D03*
X238000000Y-198000000D03*
X168000000Y-88000000D03*
X53000000Y-98000000D03*
X223000000Y-163000000D03*
X263000000Y-233000000D03*
X18000000Y-113000000D03*
X83000000Y-223000000D03*
X203000000Y-48000000D03*
X63000000Y-273000000D03*
D17*
X162600000Y-82033333D03*
D16*
X193000000Y-263000000D03*
X138000000Y-178000000D03*
X98000000Y-153000000D03*
X178000000Y-143000000D03*
X143000000Y-118000000D03*
X298000000Y-43000000D03*
X83000000Y-268000000D03*
X213000000Y-133000000D03*
X153000000Y-153000000D03*
X273000000Y-103000000D03*
X283000000Y-88000000D03*
X33000000Y-113000000D03*
X138000000Y-278000000D03*
X203000000Y-63000000D03*
X153000000Y-183000000D03*
X228000000Y-63000000D03*
X173000000Y-83000000D03*
X278000000Y-213000000D03*
X148000000Y-83000000D03*
X203000000Y-238000000D03*
X38000000Y-258000000D03*
X288000000Y-18000000D03*
X178000000Y-133000000D03*
X283000000Y-208000000D03*
X163000000Y-188000000D03*
X78000000Y-223000000D03*
X168000000Y-278000000D03*
X73000000Y-188000000D03*
X143000000Y-53000000D03*
X198000000Y-228000000D03*
X183000000Y-43000000D03*
X83000000Y-213000000D03*
X28000000Y-253000000D03*
X38000000Y-148000000D03*
X58000000Y-258000000D03*
X108000000Y-258000000D03*
X38000000Y-178000000D03*
X53000000Y-88000000D03*
X148000000Y-213000000D03*
X93000000Y-208000000D03*
X23000000Y-248000000D03*
X108000000Y-228000000D03*
X33000000Y-88000000D03*
X213000000Y-68000000D03*
X173000000Y-143000000D03*
X63000000Y-128000000D03*
X178000000Y-138000000D03*
X218000000Y-248000000D03*
X148000000Y-63000000D03*
X203000000Y-263000000D03*
X263000000Y-28000000D03*
X248000000Y-48000000D03*
X103000000Y-98000000D03*
X198000000Y-173000000D03*
X18000000Y-28000000D03*
X153000000Y-248000000D03*
X163000000Y-43000000D03*
X38000000Y-158000000D03*
X223000000Y-128000000D03*
X108000000Y-248000000D03*
X188000000Y-158000000D03*
X98000000Y-268000000D03*
X138000000Y-168000000D03*
X163000000Y-38000000D03*
X118000000Y-58000000D03*
X243000000Y-233000000D03*
X33000000Y-133000000D03*
X293000000Y-18000000D03*
X158000000Y-73000000D03*
X173000000Y-208000000D03*
X293000000Y-223000000D03*
X283000000Y-83000000D03*
X33000000Y-43000000D03*
X213000000Y-253000000D03*
X98000000Y-253000000D03*
X288000000Y-258000000D03*
X278000000Y-63000000D03*
X158000000Y-58000000D03*
X203000000Y-113000000D03*
X133000000Y-158000000D03*
X128000000Y-18000000D03*
X253000000Y-158000000D03*
X248000000Y-198000000D03*
X93000000Y-138000000D03*
X233000000Y-48000000D03*
X68000000Y-178000000D03*
X18000000Y-253000000D03*
X238000000Y-183000000D03*
X303000000Y-48000000D03*
X43000000Y-178000000D03*
X113000000Y-223000000D03*
X238000000Y-143000000D03*
X18000000Y-18000000D03*
X283000000Y-278000000D03*
X103000000Y-158000000D03*
X243000000Y-73000000D03*
X273000000Y-198000000D03*
X153000000Y-278000000D03*
X98000000Y-218000000D03*
X18000000Y-248000000D03*
X228000000Y-208000000D03*
X223000000Y-258000000D03*
X143000000Y-33000000D03*
X118000000Y-268000000D03*
X238000000Y-218000000D03*
X28000000Y-68000000D03*
X138000000Y-128000000D03*
X248000000Y-18000000D03*
X78000000Y-198000000D03*
X118000000Y-188000000D03*
X63000000Y-108000000D03*
X53000000Y-78000000D03*
X203000000Y-208000000D03*
X228000000Y-38000000D03*
X118000000Y-118000000D03*
X208000000Y-198000000D03*
X53000000Y-163000000D03*
X243000000Y-53000000D03*
X233000000Y-168000000D03*
X98000000Y-263000000D03*
X263000000Y-203000000D03*
X93000000Y-28000000D03*
X188000000Y-253000000D03*
X248000000Y-103000000D03*
X103000000Y-128000000D03*
X233000000Y-18000000D03*
X63000000Y-143000000D03*
X33000000Y-233000000D03*
X288000000Y-133000000D03*
X173000000Y-18000000D03*
X278000000Y-218000000D03*
X303000000Y-83000000D03*
D17*
X162549999Y-85033333D03*
D16*
X128000000Y-253000000D03*
X23000000Y-203000000D03*
X118000000Y-183000000D03*
X273000000Y-173000000D03*
X288000000Y-228000000D03*
X218000000Y-133000000D03*
X228000000Y-168000000D03*
X208000000Y-98000000D03*
X283000000Y-148000000D03*
X198000000Y-73000000D03*
X48000000Y-93000000D03*
X208000000Y-123000000D03*
X43000000Y-143000000D03*
X248000000Y-183000000D03*
X168000000Y-28000000D03*
X108000000Y-88000000D03*
X63000000Y-63000000D03*
X233000000Y-193000000D03*
X243000000Y-223000000D03*
X198000000Y-88000000D03*
X218000000Y-203000000D03*
X98000000Y-178000000D03*
X183000000Y-248000000D03*
X43000000Y-68000000D03*
X68000000Y-263000000D03*
X178000000Y-278000000D03*
X108000000Y-148000000D03*
X33000000Y-68000000D03*
X283000000Y-48000000D03*
X98000000Y-138000000D03*
X163000000Y-233000000D03*
X28000000Y-108000000D03*
X93000000Y-118000000D03*
X183000000Y-143000000D03*
X58000000Y-223000000D03*
X153000000Y-238000000D03*
X253000000Y-88000000D03*
X68000000Y-258000000D03*
X118000000Y-138000000D03*
X28000000Y-188000000D03*
X243000000Y-173000000D03*
X243000000Y-143000000D03*
X18000000Y-228000000D03*
X228000000Y-143000000D03*
X103000000Y-138000000D03*
X83000000Y-53000000D03*
X188000000Y-273000000D03*
X223000000Y-183000000D03*
X118000000Y-168000000D03*
X253000000Y-253000000D03*
X258000000Y-238000000D03*
X218000000Y-153000000D03*
X33000000Y-228000000D03*
X53000000Y-188000000D03*
X268000000Y-108000000D03*
X43000000Y-48000000D03*
X193000000Y-143000000D03*
X48000000Y-58000000D03*
X273000000Y-268000000D03*
X188000000Y-153000000D03*
X303000000Y-18000000D03*
X253000000Y-68000000D03*
X233000000Y-263000000D03*
D17*
X160600000Y-83033333D03*
D16*
X33000000Y-188000000D03*
X63000000Y-18000000D03*
X63000000Y-88000000D03*
X158000000Y-68000000D03*
X298000000Y-28000000D03*
X168000000Y-33000000D03*
X178000000Y-33000000D03*
X218000000Y-253000000D03*
X18000000Y-63000000D03*
X298000000Y-228000000D03*
X153000000Y-233000000D03*
X128000000Y-188000000D03*
X288000000Y-53000000D03*
X23000000Y-113000000D03*
X253000000Y-48000000D03*
X298000000Y-18000000D03*
X83000000Y-198000000D03*
X123000000Y-98000000D03*
X208000000Y-158000000D03*
X113000000Y-108000000D03*
X68000000Y-88000000D03*
D17*
X161600000Y-82033333D03*
D16*
X203000000Y-128000000D03*
X68000000Y-128000000D03*
X133000000Y-188000000D03*
X248000000Y-138000000D03*
X133000000Y-88000000D03*
X303000000Y-33000000D03*
X123000000Y-18000000D03*
X133000000Y-248000000D03*
X83000000Y-253000000D03*
X303000000Y-243000000D03*
X173000000Y-68000000D03*
X218000000Y-113000000D03*
X288000000Y-143000000D03*
X183000000Y-223000000D03*
X78000000Y-33000000D03*
D17*
X161549999Y-82033333D03*
D16*
X263000000Y-58000000D03*
X188000000Y-78000000D03*
X183000000Y-73000000D03*
X123000000Y-248000000D03*
X118000000Y-208000000D03*
X173000000Y-203000000D03*
X38000000Y-123000000D03*
X58000000Y-218000000D03*
X128000000Y-63000000D03*
X53000000Y-248000000D03*
X128000000Y-38000000D03*
X133000000Y-148000000D03*
X203000000Y-198000000D03*
X198000000Y-178000000D03*
X118000000Y-108000000D03*
X68000000Y-33000000D03*
X298000000Y-143000000D03*
X73000000Y-83000000D03*
X168000000Y-133000000D03*
X243000000Y-138000000D03*
X123000000Y-33000000D03*
X243000000Y-203000000D03*
X83000000Y-143000000D03*
D17*
X163549999Y-84033333D03*
D16*
X303000000Y-138000000D03*
X68000000Y-198000000D03*
X108000000Y-108000000D03*
X38000000Y-188000000D03*
X48000000Y-268000000D03*
X298000000Y-78000000D03*
X188000000Y-88000000D03*
X178000000Y-48000000D03*
X68000000Y-103000000D03*
X103000000Y-93000000D03*
X18000000Y-48000000D03*
X58000000Y-58000000D03*
X28000000Y-213000000D03*
X253000000Y-38000000D03*
X278000000Y-153000000D03*
X293000000Y-113000000D03*
X58000000Y-68000000D03*
X83000000Y-208000000D03*
X283000000Y-43000000D03*
X158000000Y-93000000D03*
X58000000Y-103000000D03*
X288000000Y-208000000D03*
X123000000Y-263000000D03*
X78000000Y-28000000D03*
X128000000Y-23000000D03*
X153000000Y-193000000D03*
X178000000Y-58000000D03*
X198000000Y-98000000D03*
X128000000Y-218000000D03*
X93000000Y-188000000D03*
X188000000Y-113000000D03*
X198000000Y-203000000D03*
X303000000Y-133000000D03*
X303000000Y-148000000D03*
X83000000Y-123000000D03*
X148000000Y-103000000D03*
X48000000Y-248000000D03*
X103000000Y-273000000D03*
X128000000Y-208000000D03*
X48000000Y-68000000D03*
X53000000Y-278000000D03*
X173000000Y-173000000D03*
X233000000Y-183000000D03*
X63000000Y-38000000D03*
X218000000Y-53000000D03*
X158000000Y-158000000D03*
X83000000Y-48000000D03*
X178000000Y-68000000D03*
X228000000Y-133000000D03*
X53000000Y-203000000D03*
X248000000Y-263000000D03*
X178000000Y-28000000D03*
X33000000Y-163000000D03*
X63000000Y-68000000D03*
X238000000Y-138000000D03*
X63000000Y-243000000D03*
X143000000Y-93000000D03*
X238000000Y-38000000D03*
X48000000Y-88000000D03*
X88000000Y-263000000D03*
X138000000Y-158000000D03*
X168000000Y-198000000D03*
X88000000Y-83000000D03*
X18000000Y-188000000D03*
X293000000Y-248000000D03*
X298000000Y-148000000D03*
X253000000Y-108000000D03*
X283000000Y-273000000D03*
X178000000Y-258000000D03*
D17*
X161549999Y-81033333D03*
D16*
X113000000Y-118000000D03*
X108000000Y-113000000D03*
X23000000Y-133000000D03*
X258000000Y-48000000D03*
X78000000Y-133000000D03*
X163000000Y-93000000D03*
X203000000Y-233000000D03*
X58000000Y-88000000D03*
X53000000Y-153000000D03*
X248000000Y-43000000D03*
X168000000Y-273000000D03*
X203000000Y-278000000D03*
X53000000Y-263000000D03*
X118000000Y-173000000D03*
X68000000Y-143000000D03*
X58000000Y-133000000D03*
X33000000Y-53000000D03*
X43000000Y-58000000D03*
X33000000Y-103000000D03*
X278000000Y-103000000D03*
X223000000Y-138000000D03*
X118000000Y-223000000D03*
X253000000Y-163000000D03*
X58000000Y-208000000D03*
X93000000Y-23000000D03*
X273000000Y-238000000D03*
X278000000Y-168000000D03*
X78000000Y-158000000D03*
X158000000Y-213000000D03*
X253000000Y-228000000D03*
D17*
X163600000Y-86033333D03*
D16*
X38000000Y-138000000D03*
X128000000Y-98000000D03*
X63000000Y-93000000D03*
X163000000Y-48000000D03*
X73000000Y-228000000D03*
X168000000Y-213000000D03*
X68000000Y-108000000D03*
X258000000Y-233000000D03*
X58000000Y-38000000D03*
X138000000Y-28000000D03*
X288000000Y-158000000D03*
X223000000Y-88000000D03*
X153000000Y-103000000D03*
X113000000Y-213000000D03*
X138000000Y-173000000D03*
X88000000Y-233000000D03*
X293000000Y-143000000D03*
X23000000Y-208000000D03*
X293000000Y-48000000D03*
X188000000Y-33000000D03*
X73000000Y-168000000D03*
X233000000Y-198000000D03*
X83000000Y-238000000D03*
X83000000Y-263000000D03*
X103000000Y-33000000D03*
X258000000Y-258000000D03*
X153000000Y-28000000D03*
X148000000Y-23000000D03*
X163000000Y-53000000D03*
X68000000Y-123000000D03*
X48000000Y-278000000D03*
X78000000Y-178000000D03*
X98000000Y-83000000D03*
X28000000Y-158000000D03*
X38000000Y-203000000D03*
X43000000Y-78000000D03*
X293000000Y-253000000D03*
X183000000Y-98000000D03*
X258000000Y-243000000D03*
X83000000Y-133000000D03*
X208000000Y-23000000D03*
X298000000Y-178000000D03*
X168000000Y-208000000D03*
X213000000Y-228000000D03*
X158000000Y-238000000D03*
X68000000Y-138000000D03*
X298000000Y-233000000D03*
X238000000Y-83000000D03*
X258000000Y-43000000D03*
X223000000Y-83000000D03*
X78000000Y-168000000D03*
X273000000Y-178000000D03*
X68000000Y-43000000D03*
X263000000Y-18000000D03*
X258000000Y-133000000D03*
X173000000Y-168000000D03*
X183000000Y-233000000D03*
X58000000Y-18000000D03*
X253000000Y-143000000D03*
X18000000Y-153000000D03*
X183000000Y-193000000D03*
X203000000Y-153000000D03*
X198000000Y-93000000D03*
X108000000Y-223000000D03*
X158000000Y-223000000D03*
X293000000Y-118000000D03*
X98000000Y-43000000D03*
D17*
X160600000Y-82033333D03*
D16*
X173000000Y-193000000D03*
X73000000Y-28000000D03*
X98000000Y-128000000D03*
X108000000Y-198000000D03*
X278000000Y-243000000D03*
X268000000Y-138000000D03*
X218000000Y-178000000D03*
X183000000Y-18000000D03*
X118000000Y-278000000D03*
X53000000Y-268000000D03*
X98000000Y-103000000D03*
X133000000Y-18000000D03*
X98000000Y-158000000D03*
X223000000Y-28000000D03*
X73000000Y-53000000D03*
X283000000Y-243000000D03*
X223000000Y-243000000D03*
X78000000Y-43000000D03*
X293000000Y-258000000D03*
X293000000Y-203000000D03*
X143000000Y-23000000D03*
X183000000Y-203000000D03*
X223000000Y-53000000D03*
X153000000Y-83000000D03*
X28000000Y-133000000D03*
X248000000Y-88000000D03*
X173000000Y-243000000D03*
X143000000Y-178000000D03*
D17*
X164549999Y-81033333D03*
D16*
X148000000Y-153000000D03*
X278000000Y-138000000D03*
X123000000Y-58000000D03*
X58000000Y-268000000D03*
X123000000Y-68000000D03*
X258000000Y-93000000D03*
X123000000Y-198000000D03*
X163000000Y-248000000D03*
X88000000Y-23000000D03*
X168000000Y-243000000D03*
X148000000Y-188000000D03*
X23000000Y-183000000D03*
X148000000Y-148000000D03*
X248000000Y-278000000D03*
X63000000Y-223000000D03*
X38000000Y-98000000D03*
X88000000Y-208000000D03*
X28000000Y-223000000D03*
X278000000Y-233000000D03*
X173000000Y-98000000D03*
X298000000Y-188000000D03*
X168000000Y-248000000D03*
X258000000Y-278000000D03*
X168000000Y-153000000D03*
X38000000Y-118000000D03*
X278000000Y-83000000D03*
X18000000Y-243000000D03*
X63000000Y-158000000D03*
X93000000Y-93000000D03*
X18000000Y-173000000D03*
X28000000Y-138000000D03*
X188000000Y-18000000D03*
X88000000Y-138000000D03*
X48000000Y-138000000D03*
X273000000Y-193000000D03*
X43000000Y-213000000D03*
X118000000Y-78000000D03*
X213000000Y-248000000D03*
X58000000Y-113000000D03*
X103000000Y-148000000D03*
X133000000Y-68000000D03*
X213000000Y-73000000D03*
X288000000Y-73000000D03*
X253000000Y-238000000D03*
X248000000Y-248000000D03*
X183000000Y-208000000D03*
D17*
X160600000Y-79033333D03*
D16*
X123000000Y-183000000D03*
X193000000Y-63000000D03*
X283000000Y-153000000D03*
X118000000Y-233000000D03*
X223000000Y-18000000D03*
X103000000Y-38000000D03*
X33000000Y-83000000D03*
X43000000Y-238000000D03*
X133000000Y-53000000D03*
X298000000Y-98000000D03*
X98000000Y-243000000D03*
X203000000Y-83000000D03*
X113000000Y-138000000D03*
X293000000Y-58000000D03*
X253000000Y-123000000D03*
X183000000Y-178000000D03*
X123000000Y-243000000D03*
X93000000Y-63000000D03*
X38000000Y-263000000D03*
X233000000Y-93000000D03*
X53000000Y-168000000D03*
X128000000Y-163000000D03*
X133000000Y-233000000D03*
X223000000Y-23000000D03*
X138000000Y-43000000D03*
X38000000Y-238000000D03*
X178000000Y-238000000D03*
X33000000Y-213000000D03*
X213000000Y-223000000D03*
X218000000Y-173000000D03*
X113000000Y-173000000D03*
X28000000Y-103000000D03*
X268000000Y-48000000D03*
X273000000Y-243000000D03*
X148000000Y-203000000D03*
X143000000Y-158000000D03*
X203000000Y-28000000D03*
X218000000Y-78000000D03*
X68000000Y-148000000D03*
X238000000Y-178000000D03*
X138000000Y-248000000D03*
X73000000Y-103000000D03*
X298000000Y-253000000D03*
X198000000Y-183000000D03*
X303000000Y-123000000D03*
X178000000Y-118000000D03*
X248000000Y-168000000D03*
X153000000Y-128000000D03*
X148000000Y-273000000D03*
X208000000Y-278000000D03*
X58000000Y-53000000D03*
X173000000Y-88000000D03*
X18000000Y-143000000D03*
X93000000Y-78000000D03*
X123000000Y-143000000D03*
X198000000Y-23000000D03*
X123000000Y-203000000D03*
D17*
X163549999Y-82033333D03*
D16*
X298000000Y-268000000D03*
X23000000Y-43000000D03*
X243000000Y-168000000D03*
X163000000Y-138000000D03*
X213000000Y-183000000D03*
X293000000Y-63000000D03*
X173000000Y-28000000D03*
X168000000Y-18000000D03*
X88000000Y-73000000D03*
X303000000Y-158000000D03*
X18000000Y-233000000D03*
X218000000Y-233000000D03*
X113000000Y-148000000D03*
X123000000Y-138000000D03*
X218000000Y-163000000D03*
X23000000Y-233000000D03*
X158000000Y-78000000D03*
X223000000Y-93000000D03*
X228000000Y-268000000D03*
X228000000Y-178000000D03*
X68000000Y-18000000D03*
X58000000Y-123000000D03*
X133000000Y-258000000D03*
D17*
X162549999Y-79033333D03*
D16*
X208000000Y-38000000D03*
X238000000Y-28000000D03*
X223000000Y-203000000D03*
X228000000Y-88000000D03*
X173000000Y-228000000D03*
X153000000Y-68000000D03*
X228000000Y-238000000D03*
X58000000Y-63000000D03*
X48000000Y-228000000D03*
X148000000Y-193000000D03*
X193000000Y-158000000D03*
X258000000Y-118000000D03*
X188000000Y-58000000D03*
X53000000Y-233000000D03*
X103000000Y-153000000D03*
X43000000Y-73000000D03*
X63000000Y-183000000D03*
X73000000Y-133000000D03*
X253000000Y-63000000D03*
X118000000Y-143000000D03*
X213000000Y-108000000D03*
X33000000Y-78000000D03*
X28000000Y-208000000D03*
X48000000Y-238000000D03*
X108000000Y-268000000D03*
X148000000Y-258000000D03*
X263000000Y-88000000D03*
X268000000Y-248000000D03*
X283000000Y-183000000D03*
X263000000Y-148000000D03*
X163000000Y-208000000D03*
X188000000Y-208000000D03*
X278000000Y-88000000D03*
X278000000Y-258000000D03*
X103000000Y-233000000D03*
X23000000Y-223000000D03*
X233000000Y-163000000D03*
X68000000Y-78000000D03*
X128000000Y-173000000D03*
X18000000Y-238000000D03*
X273000000Y-168000000D03*
X68000000Y-133000000D03*
X178000000Y-158000000D03*
X208000000Y-238000000D03*
X38000000Y-133000000D03*
X278000000Y-173000000D03*
X283000000Y-203000000D03*
X193000000Y-178000000D03*
X38000000Y-103000000D03*
X58000000Y-43000000D03*
X263000000Y-38000000D03*
X203000000Y-138000000D03*
X128000000Y-133000000D03*
X243000000Y-113000000D03*
X193000000Y-103000000D03*
X168000000Y-233000000D03*
X263000000Y-198000000D03*
X203000000Y-258000000D03*
X238000000Y-33000000D03*
X238000000Y-43000000D03*
X38000000Y-193000000D03*
X303000000Y-108000000D03*
X298000000Y-168000000D03*
X123000000Y-153000000D03*
X133000000Y-98000000D03*
X63000000Y-173000000D03*
X103000000Y-63000000D03*
X238000000Y-233000000D03*
X278000000Y-198000000D03*
D17*
X164549999Y-84033333D03*
D16*
X83000000Y-103000000D03*
X78000000Y-228000000D03*
X28000000Y-193000000D03*
X18000000Y-103000000D03*
X148000000Y-98000000D03*
X198000000Y-68000000D03*
X113000000Y-73000000D03*
X288000000Y-233000000D03*
X23000000Y-218000000D03*
X113000000Y-88000000D03*
X133000000Y-63000000D03*
X163000000Y-243000000D03*
X33000000Y-173000000D03*
X188000000Y-238000000D03*
X228000000Y-148000000D03*
X203000000Y-158000000D03*
X153000000Y-163000000D03*
X143000000Y-48000000D03*
X53000000Y-243000000D03*
X218000000Y-188000000D03*
X93000000Y-218000000D03*
X198000000Y-153000000D03*
X128000000Y-103000000D03*
X73000000Y-248000000D03*
X153000000Y-253000000D03*
X153000000Y-58000000D03*
X293000000Y-188000000D03*
X83000000Y-113000000D03*
X233000000Y-113000000D03*
X243000000Y-103000000D03*
X168000000Y-263000000D03*
X28000000Y-123000000D03*
X143000000Y-233000000D03*
X158000000Y-38000000D03*
X228000000Y-113000000D03*
X123000000Y-78000000D03*
X203000000Y-183000000D03*
X178000000Y-88000000D03*
X28000000Y-113000000D03*
X68000000Y-233000000D03*
X168000000Y-68000000D03*
X178000000Y-98000000D03*
X18000000Y-258000000D03*
X273000000Y-183000000D03*
X213000000Y-103000000D03*
X58000000Y-173000000D03*
X278000000Y-278000000D03*
X248000000Y-143000000D03*
X203000000Y-98000000D03*
X208000000Y-228000000D03*
X148000000Y-78000000D03*
X93000000Y-18000000D03*
X298000000Y-118000000D03*
X128000000Y-78000000D03*
X163000000Y-173000000D03*
X273000000Y-278000000D03*
X93000000Y-128000000D03*
X113000000Y-53000000D03*
X88000000Y-78000000D03*
X273000000Y-43000000D03*
X158000000Y-188000000D03*
X188000000Y-263000000D03*
X63000000Y-43000000D03*
X128000000Y-268000000D03*
D17*
X163600000Y-81033333D03*
X163549999Y-81033333D03*
D16*
X153000000Y-23000000D03*
X33000000Y-98000000D03*
X213000000Y-148000000D03*
X213000000Y-158000000D03*
X228000000Y-198000000D03*
X183000000Y-33000000D03*
X203000000Y-73000000D03*
X183000000Y-148000000D03*
X83000000Y-193000000D03*
X273000000Y-53000000D03*
X93000000Y-278000000D03*
X93000000Y-243000000D03*
X273000000Y-208000000D03*
X303000000Y-38000000D03*
X113000000Y-233000000D03*
X133000000Y-198000000D03*
X128000000Y-53000000D03*
X243000000Y-63000000D03*
X168000000Y-253000000D03*
X68000000Y-273000000D03*
X113000000Y-258000000D03*
X83000000Y-153000000D03*
X213000000Y-233000000D03*
X208000000Y-108000000D03*
X18000000Y-58000000D03*
X238000000Y-23000000D03*
X173000000Y-268000000D03*
X93000000Y-143000000D03*
X63000000Y-78000000D03*
X48000000Y-98000000D03*
X108000000Y-233000000D03*
X48000000Y-148000000D03*
X53000000Y-128000000D03*
X123000000Y-118000000D03*
X193000000Y-98000000D03*
X303000000Y-113000000D03*
X163000000Y-153000000D03*
X118000000Y-178000000D03*
X163000000Y-23000000D03*
X88000000Y-123000000D03*
X128000000Y-143000000D03*
X23000000Y-18000000D03*
X213000000Y-43000000D03*
X53000000Y-103000000D03*
X73000000Y-78000000D03*
X248000000Y-63000000D03*
X103000000Y-108000000D03*
X88000000Y-38000000D03*
X153000000Y-263000000D03*
X253000000Y-113000000D03*
X108000000Y-203000000D03*
X18000000Y-203000000D03*
X133000000Y-278000000D03*
X258000000Y-193000000D03*
X168000000Y-168000000D03*
X28000000Y-248000000D03*
X78000000Y-108000000D03*
X88000000Y-273000000D03*
X148000000Y-183000000D03*
X288000000Y-148000000D03*
X33000000Y-218000000D03*
X303000000Y-128000000D03*
X248000000Y-93000000D03*
X253000000Y-148000000D03*
X283000000Y-168000000D03*
X233000000Y-68000000D03*
X288000000Y-273000000D03*
X173000000Y-33000000D03*
X198000000Y-213000000D03*
X213000000Y-173000000D03*
X183000000Y-228000000D03*
X233000000Y-138000000D03*
X248000000Y-223000000D03*
X118000000Y-28000000D03*
X183000000Y-278000000D03*
X303000000Y-173000000D03*
X83000000Y-78000000D03*
X38000000Y-218000000D03*
X258000000Y-268000000D03*
X73000000Y-23000000D03*
X93000000Y-213000000D03*
X23000000Y-193000000D03*
X263000000Y-93000000D03*
X153000000Y-173000000D03*
X248000000Y-118000000D03*
X193000000Y-113000000D03*
X203000000Y-68000000D03*
X233000000Y-123000000D03*
X198000000Y-278000000D03*
X123000000Y-83000000D03*
X23000000Y-33000000D03*
X183000000Y-48000000D03*
X253000000Y-58000000D03*
X93000000Y-183000000D03*
X38000000Y-108000000D03*
X213000000Y-243000000D03*
X268000000Y-173000000D03*
X153000000Y-113000000D03*
X273000000Y-133000000D03*
X93000000Y-228000000D03*
X268000000Y-278000000D03*
X288000000Y-198000000D03*
X113000000Y-93000000D03*
X23000000Y-58000000D03*
X78000000Y-128000000D03*
X23000000Y-128000000D03*
X63000000Y-213000000D03*
X133000000Y-203000000D03*
X98000000Y-248000000D03*
X268000000Y-133000000D03*
X203000000Y-133000000D03*
X203000000Y-23000000D03*
X28000000Y-273000000D03*
X233000000Y-278000000D03*
X143000000Y-163000000D03*
X218000000Y-123000000D03*
X173000000Y-138000000D03*
X63000000Y-178000000D03*
X98000000Y-168000000D03*
X273000000Y-143000000D03*
X233000000Y-273000000D03*
X183000000Y-138000000D03*
X293000000Y-23000000D03*
X118000000Y-213000000D03*
X293000000Y-238000000D03*
X168000000Y-268000000D03*
X228000000Y-258000000D03*
X188000000Y-83000000D03*
X28000000Y-178000000D03*
X188000000Y-258000000D03*
X143000000Y-253000000D03*
D17*
X162600000Y-79033333D03*
D16*
X283000000Y-103000000D03*
X143000000Y-28000000D03*
X123000000Y-253000000D03*
X213000000Y-128000000D03*
X303000000Y-118000000D03*
X258000000Y-103000000D03*
X233000000Y-38000000D03*
X83000000Y-118000000D03*
X158000000Y-18000000D03*
X73000000Y-43000000D03*
X88000000Y-18000000D03*
X88000000Y-53000000D03*
X43000000Y-248000000D03*
X188000000Y-168000000D03*
X183000000Y-158000000D03*
X183000000Y-118000000D03*
X223000000Y-233000000D03*
X93000000Y-103000000D03*
X148000000Y-133000000D03*
X228000000Y-43000000D03*
X268000000Y-53000000D03*
X268000000Y-103000000D03*
X198000000Y-198000000D03*
X43000000Y-273000000D03*
X193000000Y-58000000D03*
X258000000Y-223000000D03*
D17*
X163600000Y-82033333D03*
D16*
X243000000Y-98000000D03*
X198000000Y-133000000D03*
X248000000Y-58000000D03*
X198000000Y-243000000D03*
X118000000Y-258000000D03*
X83000000Y-218000000D03*
X113000000Y-188000000D03*
X73000000Y-73000000D03*
X178000000Y-113000000D03*
X148000000Y-113000000D03*
X258000000Y-73000000D03*
X248000000Y-158000000D03*
X18000000Y-73000000D03*
X138000000Y-183000000D03*
X48000000Y-243000000D03*
X68000000Y-158000000D03*
X288000000Y-43000000D03*
X148000000Y-68000000D03*
D17*
X164549999Y-86033333D03*
D16*
X248000000Y-228000000D03*
X193000000Y-173000000D03*
X148000000Y-58000000D03*
X238000000Y-108000000D03*
X288000000Y-103000000D03*
X113000000Y-243000000D03*
X103000000Y-18000000D03*
X98000000Y-38000000D03*
X133000000Y-243000000D03*
X273000000Y-248000000D03*
X263000000Y-78000000D03*
X63000000Y-228000000D03*
X303000000Y-193000000D03*
X158000000Y-178000000D03*
X198000000Y-53000000D03*
X73000000Y-98000000D03*
X238000000Y-113000000D03*
X58000000Y-153000000D03*
X103000000Y-53000000D03*
X258000000Y-128000000D03*
X218000000Y-143000000D03*
X53000000Y-273000000D03*
X73000000Y-213000000D03*
X158000000Y-118000000D03*
X268000000Y-43000000D03*
X23000000Y-268000000D03*
X203000000Y-88000000D03*
X148000000Y-223000000D03*
X163000000Y-278000000D03*
X73000000Y-183000000D03*
X178000000Y-208000000D03*
X108000000Y-208000000D03*
X243000000Y-198000000D03*
X258000000Y-168000000D03*
X228000000Y-278000000D03*
X208000000Y-258000000D03*
X103000000Y-168000000D03*
X298000000Y-198000000D03*
X68000000Y-163000000D03*
D17*
X164549999Y-83033333D03*
D16*
X208000000Y-193000000D03*
X113000000Y-228000000D03*
X168000000Y-43000000D03*
X48000000Y-63000000D03*
X228000000Y-18000000D03*
X158000000Y-108000000D03*
X148000000Y-38000000D03*
X98000000Y-228000000D03*
X143000000Y-133000000D03*
X283000000Y-133000000D03*
X273000000Y-73000000D03*
X198000000Y-118000000D03*
X103000000Y-198000000D03*
X283000000Y-263000000D03*
X93000000Y-108000000D03*
X138000000Y-78000000D03*
X178000000Y-233000000D03*
X168000000Y-48000000D03*
X253000000Y-173000000D03*
X48000000Y-83000000D03*
X88000000Y-128000000D03*
X133000000Y-128000000D03*
X83000000Y-138000000D03*
X203000000Y-178000000D03*
X203000000Y-253000000D03*
X203000000Y-273000000D03*
X278000000Y-253000000D03*
X138000000Y-243000000D03*
X63000000Y-83000000D03*
X213000000Y-208000000D03*
X93000000Y-113000000D03*
X48000000Y-208000000D03*
X88000000Y-173000000D03*
X213000000Y-153000000D03*
X193000000Y-83000000D03*
X58000000Y-248000000D03*
X258000000Y-63000000D03*
X258000000Y-83000000D03*
X168000000Y-238000000D03*
X43000000Y-138000000D03*
X213000000Y-273000000D03*
X183000000Y-258000000D03*
D17*
X161600000Y-85033333D03*
D16*
X183000000Y-113000000D03*
X18000000Y-268000000D03*
X258000000Y-58000000D03*
X128000000Y-108000000D03*
D17*
X162600000Y-81033333D03*
D16*
X73000000Y-178000000D03*
X188000000Y-138000000D03*
X153000000Y-178000000D03*
X223000000Y-38000000D03*
X78000000Y-218000000D03*
X213000000Y-143000000D03*
X233000000Y-153000000D03*
X243000000Y-248000000D03*
X113000000Y-273000000D03*
X228000000Y-233000000D03*
X288000000Y-153000000D03*
X243000000Y-123000000D03*
X283000000Y-68000000D03*
X128000000Y-203000000D03*
X123000000Y-128000000D03*
X208000000Y-183000000D03*
X253000000Y-168000000D03*
X138000000Y-253000000D03*
X168000000Y-123000000D03*
X268000000Y-153000000D03*
X143000000Y-203000000D03*
X238000000Y-168000000D03*
X203000000Y-58000000D03*
X253000000Y-138000000D03*
X153000000Y-203000000D03*
X178000000Y-213000000D03*
X223000000Y-73000000D03*
X73000000Y-148000000D03*
X128000000Y-198000000D03*
X68000000Y-83000000D03*
X188000000Y-53000000D03*
X163000000Y-268000000D03*
X98000000Y-93000000D03*
X288000000Y-263000000D03*
X143000000Y-103000000D03*
X183000000Y-238000000D03*
X68000000Y-48000000D03*
X88000000Y-223000000D03*
X143000000Y-248000000D03*
X178000000Y-148000000D03*
X218000000Y-268000000D03*
X248000000Y-173000000D03*
X43000000Y-38000000D03*
X78000000Y-153000000D03*
X83000000Y-178000000D03*
X208000000Y-73000000D03*
X258000000Y-78000000D03*
X143000000Y-148000000D03*
X23000000Y-173000000D03*
X123000000Y-103000000D03*
X213000000Y-53000000D03*
X168000000Y-158000000D03*
X198000000Y-78000000D03*
X223000000Y-248000000D03*
X178000000Y-223000000D03*
X168000000Y-188000000D03*
X93000000Y-163000000D03*
X88000000Y-228000000D03*
X223000000Y-173000000D03*
X23000000Y-263000000D03*
X98000000Y-28000000D03*
X138000000Y-23000000D03*
X263000000Y-213000000D03*
X193000000Y-108000000D03*
X103000000Y-68000000D03*
X253000000Y-83000000D03*
X263000000Y-128000000D03*
X123000000Y-148000000D03*
X213000000Y-113000000D03*
X158000000Y-83000000D03*
X133000000Y-33000000D03*
X103000000Y-23000000D03*
X193000000Y-268000000D03*
X258000000Y-218000000D03*
X158000000Y-103000000D03*
X128000000Y-118000000D03*
X253000000Y-198000000D03*
X168000000Y-83000000D03*
X228000000Y-53000000D03*
X173000000Y-183000000D03*
X173000000Y-93000000D03*
X58000000Y-178000000D03*
X48000000Y-203000000D03*
X18000000Y-108000000D03*
X88000000Y-148000000D03*
X198000000Y-223000000D03*
X238000000Y-248000000D03*
X203000000Y-78000000D03*
X213000000Y-218000000D03*
X273000000Y-78000000D03*
X133000000Y-208000000D03*
X188000000Y-228000000D03*
D17*
X162600000Y-85033333D03*
D16*
X188000000Y-148000000D03*
X28000000Y-163000000D03*
X88000000Y-203000000D03*
X253000000Y-33000000D03*
X33000000Y-33000000D03*
X303000000Y-198000000D03*
X108000000Y-43000000D03*
X233000000Y-178000000D03*
X123000000Y-238000000D03*
X138000000Y-53000000D03*
X153000000Y-98000000D03*
X98000000Y-118000000D03*
X123000000Y-228000000D03*
X303000000Y-78000000D03*
X118000000Y-273000000D03*
X38000000Y-73000000D03*
X253000000Y-178000000D03*
X123000000Y-218000000D03*
X203000000Y-33000000D03*
X168000000Y-113000000D03*
X208000000Y-208000000D03*
X38000000Y-128000000D03*
X173000000Y-118000000D03*
X213000000Y-83000000D03*
X28000000Y-278000000D03*
X48000000Y-43000000D03*
X78000000Y-88000000D03*
X108000000Y-263000000D03*
X198000000Y-143000000D03*
X293000000Y-78000000D03*
X238000000Y-163000000D03*
X213000000Y-278000000D03*
X223000000Y-58000000D03*
X68000000Y-218000000D03*
X218000000Y-38000000D03*
X58000000Y-163000000D03*
X258000000Y-198000000D03*
X223000000Y-278000000D03*
X263000000Y-238000000D03*
X228000000Y-163000000D03*
X288000000Y-48000000D03*
X288000000Y-183000000D03*
X158000000Y-218000000D03*
X148000000Y-18000000D03*
X208000000Y-223000000D03*
X18000000Y-83000000D03*
X203000000Y-248000000D03*
X93000000Y-173000000D03*
X163000000Y-168000000D03*
X193000000Y-203000000D03*
X58000000Y-28000000D03*
X158000000Y-138000000D03*
X138000000Y-138000000D03*
X113000000Y-253000000D03*
X153000000Y-93000000D03*
X118000000Y-243000000D03*
X43000000Y-198000000D03*
X18000000Y-273000000D03*
X183000000Y-253000000D03*
X248000000Y-23000000D03*
X98000000Y-23000000D03*
X273000000Y-263000000D03*
X298000000Y-163000000D03*
X168000000Y-78000000D03*
X238000000Y-238000000D03*
X93000000Y-193000000D03*
X283000000Y-213000000D03*
X278000000Y-143000000D03*
X293000000Y-213000000D03*
X243000000Y-163000000D03*
X98000000Y-98000000D03*
X198000000Y-168000000D03*
X283000000Y-163000000D03*
X53000000Y-68000000D03*
X113000000Y-98000000D03*
X163000000Y-28000000D03*
X218000000Y-88000000D03*
X253000000Y-103000000D03*
X138000000Y-198000000D03*
X103000000Y-123000000D03*
X128000000Y-263000000D03*
X193000000Y-33000000D03*
X23000000Y-228000000D03*
X128000000Y-88000000D03*
X298000000Y-63000000D03*
X78000000Y-118000000D03*
X93000000Y-178000000D03*
X278000000Y-193000000D03*
X263000000Y-68000000D03*
X68000000Y-183000000D03*
X203000000Y-53000000D03*
X53000000Y-48000000D03*
X298000000Y-48000000D03*
X33000000Y-158000000D03*
X208000000Y-18000000D03*
X103000000Y-163000000D03*
X288000000Y-173000000D03*
X68000000Y-153000000D03*
X218000000Y-243000000D03*
X193000000Y-43000000D03*
X263000000Y-98000000D03*
X178000000Y-173000000D03*
X128000000Y-33000000D03*
X268000000Y-238000000D03*
X258000000Y-68000000D03*
X188000000Y-193000000D03*
X228000000Y-68000000D03*
X143000000Y-128000000D03*
X273000000Y-153000000D03*
X153000000Y-18000000D03*
X133000000Y-23000000D03*
X228000000Y-123000000D03*
X63000000Y-103000000D03*
X78000000Y-78000000D03*
X138000000Y-118000000D03*
X173000000Y-48000000D03*
X253000000Y-233000000D03*
X263000000Y-278000000D03*
X43000000Y-93000000D03*
X68000000Y-173000000D03*
X268000000Y-228000000D03*
X198000000Y-148000000D03*
X223000000Y-78000000D03*
X208000000Y-263000000D03*
X113000000Y-208000000D03*
X238000000Y-243000000D03*
X218000000Y-58000000D03*
X303000000Y-208000000D03*
X43000000Y-253000000D03*
X128000000Y-158000000D03*
X263000000Y-253000000D03*
X173000000Y-123000000D03*
X63000000Y-218000000D03*
X158000000Y-263000000D03*
X73000000Y-68000000D03*
X33000000Y-123000000D03*
X248000000Y-53000000D03*
X138000000Y-228000000D03*
X93000000Y-168000000D03*
X293000000Y-163000000D03*
X103000000Y-113000000D03*
X38000000Y-243000000D03*
X73000000Y-108000000D03*
X263000000Y-53000000D03*
X53000000Y-113000000D03*
X28000000Y-173000000D03*
X123000000Y-233000000D03*
X163000000Y-178000000D03*
X288000000Y-188000000D03*
X203000000Y-188000000D03*
X93000000Y-203000000D03*
X288000000Y-238000000D03*
X118000000Y-68000000D03*
X148000000Y-198000000D03*
X68000000Y-268000000D03*
X33000000Y-238000000D03*
X158000000Y-23000000D03*
X293000000Y-73000000D03*
X193000000Y-238000000D03*
X188000000Y-178000000D03*
X108000000Y-213000000D03*
D17*
X162549999Y-86033333D03*
D16*
X273000000Y-48000000D03*
X288000000Y-98000000D03*
X298000000Y-273000000D03*
X218000000Y-223000000D03*
X233000000Y-58000000D03*
X163000000Y-113000000D03*
X283000000Y-188000000D03*
X138000000Y-93000000D03*
X93000000Y-253000000D03*
X298000000Y-243000000D03*
X238000000Y-208000000D03*
X288000000Y-93000000D03*
X258000000Y-178000000D03*
X108000000Y-68000000D03*
X258000000Y-183000000D03*
X278000000Y-183000000D03*
X288000000Y-33000000D03*
X158000000Y-28000000D03*
X283000000Y-238000000D03*
X33000000Y-253000000D03*
X293000000Y-83000000D03*
X228000000Y-58000000D03*
X178000000Y-153000000D03*
X143000000Y-98000000D03*
X273000000Y-273000000D03*
X213000000Y-138000000D03*
X223000000Y-168000000D03*
X303000000Y-253000000D03*
X268000000Y-198000000D03*
X153000000Y-243000000D03*
X203000000Y-168000000D03*
X298000000Y-258000000D03*
X298000000Y-173000000D03*
X93000000Y-38000000D03*
X78000000Y-163000000D03*
X153000000Y-218000000D03*
X148000000Y-243000000D03*
X273000000Y-23000000D03*
X293000000Y-263000000D03*
X88000000Y-248000000D03*
X73000000Y-118000000D03*
X118000000Y-133000000D03*
X78000000Y-143000000D03*
X198000000Y-83000000D03*
X113000000Y-178000000D03*
X178000000Y-273000000D03*
X218000000Y-218000000D03*
X128000000Y-93000000D03*
X278000000Y-58000000D03*
X198000000Y-263000000D03*
X253000000Y-93000000D03*
X193000000Y-128000000D03*
X228000000Y-153000000D03*
X243000000Y-228000000D03*
X203000000Y-93000000D03*
X248000000Y-78000000D03*
X143000000Y-243000000D03*
X278000000Y-163000000D03*
X18000000Y-128000000D03*
X23000000Y-83000000D03*
X103000000Y-73000000D03*
X33000000Y-208000000D03*
X133000000Y-173000000D03*
X113000000Y-68000000D03*
X98000000Y-123000000D03*
X38000000Y-53000000D03*
X58000000Y-98000000D03*
X198000000Y-43000000D03*
X228000000Y-28000000D03*
X278000000Y-273000000D03*
X263000000Y-258000000D03*
X18000000Y-218000000D03*
X228000000Y-138000000D03*
X208000000Y-88000000D03*
X263000000Y-243000000D03*
X268000000Y-33000000D03*
X148000000Y-108000000D03*
X268000000Y-178000000D03*
X113000000Y-153000000D03*
X23000000Y-68000000D03*
X48000000Y-28000000D03*
X278000000Y-78000000D03*
X133000000Y-238000000D03*
X138000000Y-203000000D03*
X263000000Y-178000000D03*
X28000000Y-228000000D03*
X178000000Y-23000000D03*
X118000000Y-38000000D03*
X43000000Y-28000000D03*
D17*
X162600000Y-80033333D03*
D16*
X128000000Y-223000000D03*
X178000000Y-123000000D03*
X278000000Y-158000000D03*
X83000000Y-183000000D03*
X43000000Y-168000000D03*
X138000000Y-273000000D03*
X123000000Y-168000000D03*
X203000000Y-38000000D03*
X148000000Y-208000000D03*
X118000000Y-103000000D03*
X208000000Y-173000000D03*
X188000000Y-233000000D03*
X268000000Y-23000000D03*
X303000000Y-143000000D03*
X48000000Y-78000000D03*
X43000000Y-123000000D03*
X253000000Y-18000000D03*
X113000000Y-58000000D03*
X278000000Y-73000000D03*
X193000000Y-53000000D03*
X53000000Y-123000000D03*
X18000000Y-198000000D03*
X193000000Y-118000000D03*
X183000000Y-243000000D03*
X28000000Y-128000000D03*
X268000000Y-113000000D03*
D17*
X163600000Y-85033333D03*
X161549999Y-85033333D03*
D16*
X53000000Y-158000000D03*
X193000000Y-88000000D03*
X208000000Y-243000000D03*
X108000000Y-278000000D03*
X178000000Y-218000000D03*
X268000000Y-218000000D03*
X58000000Y-138000000D03*
X248000000Y-68000000D03*
X138000000Y-103000000D03*
X153000000Y-223000000D03*
X183000000Y-38000000D03*
X293000000Y-138000000D03*
X123000000Y-73000000D03*
X23000000Y-118000000D03*
X193000000Y-153000000D03*
X303000000Y-268000000D03*
X133000000Y-143000000D03*
X228000000Y-273000000D03*
X53000000Y-93000000D03*
X268000000Y-253000000D03*
X193000000Y-93000000D03*
X123000000Y-178000000D03*
X173000000Y-163000000D03*
X188000000Y-108000000D03*
X203000000Y-213000000D03*
X63000000Y-23000000D03*
X108000000Y-158000000D03*
X298000000Y-113000000D03*
X208000000Y-48000000D03*
X208000000Y-213000000D03*
X303000000Y-63000000D03*
X218000000Y-73000000D03*
X178000000Y-103000000D03*
X178000000Y-38000000D03*
X38000000Y-23000000D03*
X138000000Y-238000000D03*
X83000000Y-18000000D03*
X103000000Y-58000000D03*
X63000000Y-278000000D03*
X258000000Y-33000000D03*
X183000000Y-108000000D03*
X118000000Y-218000000D03*
X48000000Y-233000000D03*
X118000000Y-228000000D03*
X218000000Y-278000000D03*
X258000000Y-113000000D03*
X73000000Y-223000000D03*
X173000000Y-23000000D03*
X58000000Y-198000000D03*
X23000000Y-53000000D03*
X53000000Y-173000000D03*
X43000000Y-223000000D03*
X133000000Y-153000000D03*
D17*
X163549999Y-80033333D03*
D16*
X33000000Y-18000000D03*
X243000000Y-88000000D03*
X183000000Y-213000000D03*
X28000000Y-153000000D03*
X153000000Y-168000000D03*
X83000000Y-273000000D03*
X208000000Y-118000000D03*
X248000000Y-193000000D03*
X93000000Y-263000000D03*
X73000000Y-88000000D03*
X33000000Y-263000000D03*
D17*
X161549999Y-83033333D03*
D16*
X238000000Y-73000000D03*
X118000000Y-18000000D03*
X58000000Y-213000000D03*
X183000000Y-183000000D03*
X63000000Y-113000000D03*
X48000000Y-123000000D03*
X23000000Y-88000000D03*
X153000000Y-43000000D03*
X198000000Y-158000000D03*
D17*
X160600000Y-80033333D03*
D16*
X88000000Y-28000000D03*
X133000000Y-48000000D03*
D17*
X162549999Y-81033333D03*
D16*
X38000000Y-213000000D03*
X218000000Y-208000000D03*
X303000000Y-43000000D03*
X278000000Y-28000000D03*
X233000000Y-213000000D03*
X168000000Y-258000000D03*
D17*
X160600000Y-86033333D03*
D16*
X178000000Y-183000000D03*
X128000000Y-258000000D03*
X248000000Y-258000000D03*
X38000000Y-93000000D03*
X283000000Y-198000000D03*
X288000000Y-83000000D03*
X108000000Y-63000000D03*
X193000000Y-163000000D03*
X48000000Y-163000000D03*
X223000000Y-238000000D03*
X163000000Y-73000000D03*
X273000000Y-38000000D03*
X243000000Y-258000000D03*
D17*
X160600000Y-85033333D03*
D16*
X278000000Y-228000000D03*
X233000000Y-223000000D03*
X228000000Y-158000000D03*
X153000000Y-78000000D03*
X73000000Y-143000000D03*
X208000000Y-53000000D03*
X163000000Y-118000000D03*
X18000000Y-133000000D03*
X48000000Y-38000000D03*
X213000000Y-38000000D03*
X228000000Y-218000000D03*
X28000000Y-93000000D03*
X213000000Y-93000000D03*
X183000000Y-53000000D03*
X183000000Y-68000000D03*
X268000000Y-78000000D03*
X93000000Y-133000000D03*
X83000000Y-58000000D03*
X78000000Y-273000000D03*
X43000000Y-18000000D03*
X178000000Y-93000000D03*
X33000000Y-248000000D03*
X33000000Y-138000000D03*
X208000000Y-93000000D03*
D17*
X163600000Y-83033333D03*
D16*
X73000000Y-203000000D03*
X283000000Y-108000000D03*
X98000000Y-33000000D03*
X38000000Y-63000000D03*
X43000000Y-258000000D03*
X143000000Y-218000000D03*
X93000000Y-98000000D03*
X193000000Y-258000000D03*
X98000000Y-223000000D03*
X163000000Y-98000000D03*
X248000000Y-208000000D03*
X143000000Y-153000000D03*
X108000000Y-168000000D03*
X278000000Y-108000000D03*
X83000000Y-278000000D03*
X78000000Y-58000000D03*
X123000000Y-53000000D03*
X113000000Y-263000000D03*
X298000000Y-73000000D03*
X78000000Y-83000000D03*
X113000000Y-158000000D03*
X58000000Y-78000000D03*
X88000000Y-58000000D03*
X153000000Y-143000000D03*
X163000000Y-83000000D03*
X213000000Y-203000000D03*
X118000000Y-148000000D03*
X123000000Y-258000000D03*
X268000000Y-268000000D03*
X183000000Y-263000000D03*
X303000000Y-213000000D03*
X198000000Y-138000000D03*
X28000000Y-48000000D03*
X293000000Y-158000000D03*
X183000000Y-133000000D03*
X48000000Y-73000000D03*
X113000000Y-103000000D03*
X208000000Y-103000000D03*
X73000000Y-208000000D03*
X63000000Y-138000000D03*
X103000000Y-238000000D03*
X283000000Y-38000000D03*
X148000000Y-43000000D03*
X98000000Y-68000000D03*
X218000000Y-18000000D03*
X258000000Y-138000000D03*
X138000000Y-263000000D03*
X233000000Y-238000000D03*
X303000000Y-73000000D03*
X193000000Y-198000000D03*
X153000000Y-188000000D03*
X203000000Y-148000000D03*
X118000000Y-93000000D03*
X38000000Y-58000000D03*
X303000000Y-103000000D03*
X283000000Y-58000000D03*
X183000000Y-268000000D03*
X238000000Y-193000000D03*
X153000000Y-33000000D03*
X173000000Y-198000000D03*
X273000000Y-83000000D03*
X218000000Y-28000000D03*
X143000000Y-238000000D03*
X188000000Y-198000000D03*
X43000000Y-128000000D03*
X153000000Y-268000000D03*
X303000000Y-258000000D03*
X78000000Y-53000000D03*
X163000000Y-203000000D03*
X143000000Y-43000000D03*
X68000000Y-93000000D03*
X33000000Y-168000000D03*
X43000000Y-278000000D03*
X158000000Y-198000000D03*
X88000000Y-258000000D03*
X188000000Y-143000000D03*
X258000000Y-108000000D03*
X23000000Y-93000000D03*
X23000000Y-48000000D03*
X288000000Y-253000000D03*
X133000000Y-273000000D03*
X113000000Y-238000000D03*
X108000000Y-93000000D03*
X228000000Y-193000000D03*
X158000000Y-148000000D03*
X178000000Y-18000000D03*
X33000000Y-268000000D03*
X203000000Y-163000000D03*
X78000000Y-103000000D03*
X38000000Y-173000000D03*
X238000000Y-278000000D03*
X38000000Y-68000000D03*
X48000000Y-188000000D03*
X23000000Y-103000000D03*
X63000000Y-98000000D03*
X233000000Y-208000000D03*
D17*
X162549999Y-82033333D03*
D16*
X48000000Y-263000000D03*
D17*
X161600000Y-81033333D03*
D16*
X33000000Y-223000000D03*
X203000000Y-203000000D03*
X148000000Y-218000000D03*
X118000000Y-63000000D03*
X48000000Y-273000000D03*
X158000000Y-153000000D03*
X243000000Y-48000000D03*
X63000000Y-238000000D03*
X283000000Y-113000000D03*
X228000000Y-108000000D03*
X153000000Y-208000000D03*
X243000000Y-193000000D03*
X198000000Y-38000000D03*
X248000000Y-38000000D03*
X48000000Y-33000000D03*
X128000000Y-213000000D03*
X153000000Y-148000000D03*
X53000000Y-28000000D03*
X258000000Y-273000000D03*
X148000000Y-143000000D03*
X53000000Y-38000000D03*
X63000000Y-58000000D03*
X123000000Y-23000000D03*
X78000000Y-48000000D03*
X93000000Y-68000000D03*
X138000000Y-153000000D03*
X68000000Y-168000000D03*
X193000000Y-68000000D03*
X253000000Y-243000000D03*
X148000000Y-73000000D03*
X163000000Y-18000000D03*
X248000000Y-128000000D03*
X133000000Y-43000000D03*
X133000000Y-218000000D03*
X278000000Y-93000000D03*
X18000000Y-98000000D03*
X123000000Y-193000000D03*
X198000000Y-128000000D03*
X223000000Y-178000000D03*
X113000000Y-18000000D03*
X163000000Y-108000000D03*
X133000000Y-103000000D03*
X188000000Y-173000000D03*
X63000000Y-148000000D03*
X98000000Y-188000000D03*
X148000000Y-53000000D03*
X258000000Y-253000000D03*
X188000000Y-38000000D03*
X188000000Y-218000000D03*
X243000000Y-18000000D03*
X278000000Y-148000000D03*
X28000000Y-258000000D03*
X133000000Y-268000000D03*
X233000000Y-33000000D03*
X303000000Y-53000000D03*
X273000000Y-68000000D03*
X263000000Y-188000000D03*
X23000000Y-178000000D03*
X33000000Y-273000000D03*
X278000000Y-188000000D03*
X208000000Y-148000000D03*
X243000000Y-28000000D03*
X163000000Y-263000000D03*
X258000000Y-263000000D03*
X83000000Y-228000000D03*
X228000000Y-263000000D03*
X68000000Y-213000000D03*
X253000000Y-218000000D03*
X303000000Y-273000000D03*
X238000000Y-153000000D03*
X243000000Y-23000000D03*
X68000000Y-228000000D03*
X293000000Y-208000000D03*
X203000000Y-243000000D03*
X123000000Y-63000000D03*
X23000000Y-143000000D03*
X103000000Y-228000000D03*
X108000000Y-38000000D03*
D17*
X162549999Y-80033333D03*
D16*
X23000000Y-243000000D03*
X148000000Y-268000000D03*
X203000000Y-223000000D03*
X293000000Y-98000000D03*
X103000000Y-258000000D03*
X38000000Y-253000000D03*
X133000000Y-118000000D03*
X153000000Y-198000000D03*
X293000000Y-128000000D03*
X63000000Y-188000000D03*
X123000000Y-188000000D03*
X78000000Y-208000000D03*
X143000000Y-198000000D03*
D17*
X161549999Y-79033333D03*
D16*
X213000000Y-63000000D03*
X163000000Y-88000000D03*
X253000000Y-203000000D03*
X153000000Y-108000000D03*
X298000000Y-128000000D03*
X298000000Y-138000000D03*
X203000000Y-123000000D03*
X98000000Y-18000000D03*
X228000000Y-33000000D03*
X303000000Y-183000000D03*
X243000000Y-128000000D03*
X268000000Y-258000000D03*
X108000000Y-173000000D03*
X293000000Y-268000000D03*
X48000000Y-258000000D03*
X298000000Y-223000000D03*
X193000000Y-208000000D03*
X53000000Y-213000000D03*
X193000000Y-133000000D03*
X68000000Y-248000000D03*
X158000000Y-98000000D03*
X253000000Y-208000000D03*
X258000000Y-248000000D03*
X123000000Y-43000000D03*
X58000000Y-108000000D03*
X178000000Y-78000000D03*
X203000000Y-228000000D03*
X168000000Y-58000000D03*
X48000000Y-178000000D03*
X303000000Y-248000000D03*
X113000000Y-48000000D03*
X53000000Y-148000000D03*
X88000000Y-48000000D03*
D17*
X162600000Y-86033333D03*
D16*
X188000000Y-123000000D03*
X38000000Y-248000000D03*
X98000000Y-78000000D03*
X178000000Y-198000000D03*
X243000000Y-153000000D03*
X248000000Y-98000000D03*
X78000000Y-188000000D03*
X278000000Y-208000000D03*
X128000000Y-168000000D03*
X233000000Y-158000000D03*
X128000000Y-273000000D03*
X58000000Y-233000000D03*
X283000000Y-268000000D03*
X98000000Y-233000000D03*
X243000000Y-38000000D03*
X273000000Y-218000000D03*
X248000000Y-243000000D03*
X38000000Y-38000000D03*
X248000000Y-73000000D03*
X28000000Y-88000000D03*
X23000000Y-273000000D03*
X213000000Y-18000000D03*
X88000000Y-198000000D03*
X48000000Y-153000000D03*
X103000000Y-178000000D03*
X203000000Y-193000000D03*
X28000000Y-118000000D03*
X293000000Y-103000000D03*
X243000000Y-188000000D03*
X193000000Y-223000000D03*
X113000000Y-203000000D03*
X173000000Y-233000000D03*
X58000000Y-168000000D03*
X58000000Y-193000000D03*
X43000000Y-208000000D03*
X73000000Y-238000000D03*
X78000000Y-123000000D03*
X123000000Y-113000000D03*
X268000000Y-183000000D03*
X163000000Y-223000000D03*
X153000000Y-118000000D03*
X163000000Y-148000000D03*
X88000000Y-178000000D03*
X148000000Y-233000000D03*
X243000000Y-83000000D03*
X148000000Y-248000000D03*
X123000000Y-213000000D03*
X253000000Y-213000000D03*
X103000000Y-203000000D03*
X293000000Y-198000000D03*
X208000000Y-168000000D03*
X88000000Y-63000000D03*
X93000000Y-153000000D03*
X108000000Y-133000000D03*
X243000000Y-158000000D03*
X138000000Y-48000000D03*
X238000000Y-98000000D03*
X193000000Y-188000000D03*
X73000000Y-128000000D03*
X33000000Y-58000000D03*
X223000000Y-133000000D03*
X53000000Y-143000000D03*
X283000000Y-143000000D03*
X278000000Y-203000000D03*
X218000000Y-98000000D03*
X43000000Y-148000000D03*
D17*
X163549999Y-86033333D03*
D16*
X278000000Y-33000000D03*
X273000000Y-253000000D03*
X173000000Y-103000000D03*
X93000000Y-48000000D03*
X93000000Y-198000000D03*
X288000000Y-163000000D03*
X233000000Y-108000000D03*
X283000000Y-228000000D03*
X128000000Y-243000000D03*
X288000000Y-278000000D03*
X303000000Y-203000000D03*
X238000000Y-223000000D03*
X128000000Y-278000000D03*
X233000000Y-188000000D03*
X228000000Y-223000000D03*
X28000000Y-168000000D03*
X263000000Y-163000000D03*
X188000000Y-223000000D03*
X123000000Y-208000000D03*
X253000000Y-188000000D03*
X218000000Y-108000000D03*
X103000000Y-263000000D03*
X33000000Y-148000000D03*
X108000000Y-163000000D03*
X208000000Y-33000000D03*
X233000000Y-83000000D03*
X268000000Y-263000000D03*
X243000000Y-108000000D03*
X23000000Y-23000000D03*
X178000000Y-203000000D03*
X43000000Y-263000000D03*
X293000000Y-178000000D03*
X173000000Y-153000000D03*
X63000000Y-193000000D03*
X208000000Y-153000000D03*
X63000000Y-268000000D03*
X63000000Y-263000000D03*
X218000000Y-118000000D03*
D18*
X296700000Y-159333333D03*
X296700000Y-158063333D03*
X297970000Y-159333333D03*
X297970000Y-158063333D03*
X299240000Y-159333333D03*
X299240000Y-158063333D03*
X300510000Y-159333333D03*
X300510000Y-158063333D03*
X301780000Y-159333333D03*
X301780000Y-158063333D03*
X303050000Y-159333333D03*
X303050000Y-158063333D03*
X304320000Y-159333333D03*
X304320000Y-158063333D03*
X296700000Y-122000000D03*
X296700000Y-120730000D03*
X297970000Y-122000000D03*
X297970000Y-120730000D03*
X299240000Y-122000000D03*
X299240000Y-120730000D03*
X300510000Y-122000000D03*
X300510000Y-120730000D03*
X301780000Y-122000000D03*
X301780000Y-120730000D03*
X308900000Y-17466666D03*
X16100000Y-17466666D03*
X308900000Y-282533333D03*
X25250000Y-269000000D03*
X16100000Y-282533333D03*
M02*
