%TF.GenerationSoftware,KiCad,Pcbnew,9.0.9-rc1*%
%TF.CreationDate,2026-06-20T16:52:16-07:00*%
%TF.ProjectId,TFLN_AI_NODE_X2_routed,54464c4e-5f41-4495-9f4e-4f44455f5832,rev?*%
%TF.SameCoordinates,Original*%
%TF.FileFunction,Legend,Top*%
%TF.FilePolarity,Positive*%
%FSLAX46Y46*%
G04 Gerber Fmt 4.6, Leading zero omitted, Abs format (unit mm)*
G04 Created by KiCad (PCBNEW 9.0.9-rc1) date 2026-06-20 16:52:16*
%MOMM*%
%LPD*%
G01*
G04 APERTURE LIST*
G04 Aperture macros list*
%AMRoundRect*
0 Rectangle with rounded corners*
0 $1 Rounding radius*
0 $2 $3 $4 $5 $6 $7 $8 $9 X,Y pos of 4 corners*
0 Add a 4 corners polygon primitive as box body*
4,1,4,$2,$3,$4,$5,$6,$7,$8,$9,$2,$3,0*
0 Add four circle primitives for the rounded corners*
1,1,$1+$1,$2,$3*
1,1,$1+$1,$4,$5*
1,1,$1+$1,$6,$7*
1,1,$1+$1,$8,$9*
0 Add four rect primitives between the rounded corners*
20,1,$1+$1,$2,$3,$4,$5,0*
20,1,$1+$1,$4,$5,$6,$7,0*
20,1,$1+$1,$6,$7,$8,$9,0*
20,1,$1+$1,$8,$9,$2,$3,0*%
G04 Aperture macros list end*
%ADD10C,0.180000*%
%ADD11C,0.200000*%
%ADD12C,0.250000*%
%ADD13C,0.150000*%
%ADD14C,0.120000*%
%ADD15RoundRect,0.135000X-0.135000X-0.185000X0.135000X-0.185000X0.135000X0.185000X-0.135000X0.185000X0*%
%ADD16R,0.500000X0.800000*%
%ADD17RoundRect,0.112500X-0.187500X-0.112500X0.187500X-0.112500X0.187500X0.112500X-0.187500X0.112500X0*%
%ADD18RoundRect,0.140000X-0.140000X-0.170000X0.140000X-0.170000X0.140000X0.170000X-0.140000X0.170000X0*%
%ADD19C,1.000000*%
%ADD20RoundRect,0.225000X-0.225000X-0.250000X0.225000X-0.250000X0.225000X0.250000X-0.225000X0.250000X0*%
%ADD21RoundRect,0.062500X-0.675000X-0.062500X0.675000X-0.062500X0.675000X0.062500X-0.675000X0.062500X0*%
%ADD22RoundRect,0.250000X-0.250000X-0.475000X0.250000X-0.475000X0.250000X0.475000X-0.250000X0.475000X0*%
%ADD23RoundRect,0.062500X-0.187500X-0.062500X0.187500X-0.062500X0.187500X0.062500X-0.187500X0.062500X0*%
%ADD24R,0.900000X1.600000*%
%ADD25R,0.200000X0.800000*%
%ADD26R,0.800000X0.200000*%
%ADD27R,5.500000X5.500000*%
%ADD28R,1.000000X1.000000*%
%ADD29O,1.000000X1.000000*%
%ADD30RoundRect,0.050000X-0.350000X-0.050000X0.350000X-0.050000X0.350000X0.050000X-0.350000X0.050000X0*%
%ADD31RoundRect,0.050000X-0.050000X-0.350000X0.050000X-0.350000X0.050000X0.350000X-0.050000X0.350000X0*%
%ADD32R,3.700000X3.700000*%
%ADD33R,5.080000X1.500000*%
%ADD34C,3.200000*%
%ADD35RoundRect,0.150000X-0.512500X-0.150000X0.512500X-0.150000X0.512500X0.150000X-0.512500X0.150000X0*%
%ADD36C,0.350000*%
%ADD37RoundRect,0.150000X-0.825000X-0.150000X0.825000X-0.150000X0.825000X0.150000X-0.825000X0.150000X0*%
%ADD38R,2.300000X2.300000*%
%ADD39RoundRect,0.250000X-0.787500X-1.025000X0.787500X-1.025000X0.787500X1.025000X-0.787500X1.025000X0*%
%ADD40R,1.400000X1.200000*%
%ADD41RoundRect,0.100000X-0.637500X-0.100000X0.637500X-0.100000X0.637500X0.100000X-0.637500X0.100000X0*%
%ADD42R,1.000000X0.300000*%
%ADD43R,0.900000X1.700000*%
%ADD44RoundRect,0.218750X-0.218750X-0.256250X0.218750X-0.256250X0.218750X0.256250X-0.218750X0.256250X0*%
%ADD45RoundRect,0.062500X-0.350000X-0.062500X0.350000X-0.062500X0.350000X0.062500X-0.350000X0.062500X0*%
%ADD46RoundRect,0.062500X-0.062500X-0.337500X0.062500X-0.337500X0.062500X0.337500X-0.062500X0.337500X0*%
%ADD47R,1.700000X4.750000*%
%ADD48RoundRect,0.243750X-0.243750X-0.456250X0.243750X-0.456250X0.243750X0.456250X-0.243750X0.456250X0*%
%ADD49C,2.000000*%
%ADD50R,3.300000X4.400000*%
%ADD51R,3.900000X6.200000*%
%ADD52R,2.900000X5.400000*%
G04 APERTURE END LIST*
D10*
X13657142Y-17545782D02*
X13085714Y-17545782D01*
X13085714Y-17545782D02*
X13085714Y-16345782D01*
X14057143Y-17545782D02*
X14057143Y-16745782D01*
X14057143Y-16345782D02*
X14000000Y-16402925D01*
X14000000Y-16402925D02*
X14057143Y-16460068D01*
X14057143Y-16460068D02*
X14114286Y-16402925D01*
X14114286Y-16402925D02*
X14057143Y-16345782D01*
X14057143Y-16345782D02*
X14057143Y-16460068D01*
X15142858Y-16745782D02*
X15142858Y-17717211D01*
X15142858Y-17717211D02*
X15085715Y-17831497D01*
X15085715Y-17831497D02*
X15028572Y-17888640D01*
X15028572Y-17888640D02*
X14914286Y-17945782D01*
X14914286Y-17945782D02*
X14742858Y-17945782D01*
X14742858Y-17945782D02*
X14628572Y-17888640D01*
X15142858Y-17488640D02*
X15028572Y-17545782D01*
X15028572Y-17545782D02*
X14800000Y-17545782D01*
X14800000Y-17545782D02*
X14685715Y-17488640D01*
X14685715Y-17488640D02*
X14628572Y-17431497D01*
X14628572Y-17431497D02*
X14571429Y-17317211D01*
X14571429Y-17317211D02*
X14571429Y-16974354D01*
X14571429Y-16974354D02*
X14628572Y-16860068D01*
X14628572Y-16860068D02*
X14685715Y-16802925D01*
X14685715Y-16802925D02*
X14800000Y-16745782D01*
X14800000Y-16745782D02*
X15028572Y-16745782D01*
X15028572Y-16745782D02*
X15142858Y-16802925D01*
X15714286Y-17545782D02*
X15714286Y-16345782D01*
X16228572Y-17545782D02*
X16228572Y-16917211D01*
X16228572Y-16917211D02*
X16171429Y-16802925D01*
X16171429Y-16802925D02*
X16057143Y-16745782D01*
X16057143Y-16745782D02*
X15885714Y-16745782D01*
X15885714Y-16745782D02*
X15771429Y-16802925D01*
X15771429Y-16802925D02*
X15714286Y-16860068D01*
X16628571Y-16745782D02*
X17085714Y-16745782D01*
X16800000Y-16345782D02*
X16800000Y-17374354D01*
X16800000Y-17374354D02*
X16857143Y-17488640D01*
X16857143Y-17488640D02*
X16971428Y-17545782D01*
X16971428Y-17545782D02*
X17085714Y-17545782D01*
X18171428Y-17545782D02*
X17771428Y-16974354D01*
X17485714Y-17545782D02*
X17485714Y-16345782D01*
X17485714Y-16345782D02*
X17942857Y-16345782D01*
X17942857Y-16345782D02*
X18057142Y-16402925D01*
X18057142Y-16402925D02*
X18114285Y-16460068D01*
X18114285Y-16460068D02*
X18171428Y-16574354D01*
X18171428Y-16574354D02*
X18171428Y-16745782D01*
X18171428Y-16745782D02*
X18114285Y-16860068D01*
X18114285Y-16860068D02*
X18057142Y-16917211D01*
X18057142Y-16917211D02*
X17942857Y-16974354D01*
X17942857Y-16974354D02*
X17485714Y-16974354D01*
X19200000Y-17545782D02*
X19200000Y-16917211D01*
X19200000Y-16917211D02*
X19142857Y-16802925D01*
X19142857Y-16802925D02*
X19028571Y-16745782D01*
X19028571Y-16745782D02*
X18800000Y-16745782D01*
X18800000Y-16745782D02*
X18685714Y-16802925D01*
X19200000Y-17488640D02*
X19085714Y-17545782D01*
X19085714Y-17545782D02*
X18800000Y-17545782D01*
X18800000Y-17545782D02*
X18685714Y-17488640D01*
X18685714Y-17488640D02*
X18628571Y-17374354D01*
X18628571Y-17374354D02*
X18628571Y-17260068D01*
X18628571Y-17260068D02*
X18685714Y-17145782D01*
X18685714Y-17145782D02*
X18800000Y-17088640D01*
X18800000Y-17088640D02*
X19085714Y-17088640D01*
X19085714Y-17088640D02*
X19200000Y-17031497D01*
X19771428Y-17545782D02*
X19771428Y-16745782D01*
X19771428Y-16345782D02*
X19714285Y-16402925D01*
X19714285Y-16402925D02*
X19771428Y-16460068D01*
X19771428Y-16460068D02*
X19828571Y-16402925D01*
X19828571Y-16402925D02*
X19771428Y-16345782D01*
X19771428Y-16345782D02*
X19771428Y-16460068D01*
X20514285Y-17545782D02*
X20400000Y-17488640D01*
X20400000Y-17488640D02*
X20342857Y-17374354D01*
X20342857Y-17374354D02*
X20342857Y-16345782D01*
X21828571Y-17202925D02*
X22400000Y-17202925D01*
X21714285Y-17545782D02*
X22114285Y-16345782D01*
X22114285Y-16345782D02*
X22514285Y-17545782D01*
X22914285Y-17545782D02*
X22914285Y-16345782D01*
D11*
X12392857Y-12183528D02*
X13250000Y-12183528D01*
X12821428Y-13683528D02*
X12821428Y-12183528D01*
X14249999Y-12897814D02*
X13749999Y-12897814D01*
X13749999Y-13683528D02*
X13749999Y-12183528D01*
X13749999Y-12183528D02*
X14464285Y-12183528D01*
X15749999Y-13683528D02*
X15035713Y-13683528D01*
X15035713Y-13683528D02*
X15035713Y-12183528D01*
X16249999Y-13683528D02*
X16249999Y-12183528D01*
X16249999Y-12183528D02*
X17107142Y-13683528D01*
X17107142Y-13683528D02*
X17107142Y-12183528D01*
X17464286Y-13826385D02*
X18607143Y-13826385D01*
X18892857Y-13254957D02*
X19607143Y-13254957D01*
X18750000Y-13683528D02*
X19250000Y-12183528D01*
X19250000Y-12183528D02*
X19750000Y-13683528D01*
X20249999Y-13683528D02*
X20249999Y-12183528D01*
X20607143Y-13826385D02*
X21750000Y-13826385D01*
X22107142Y-13683528D02*
X22107142Y-12183528D01*
X22107142Y-12183528D02*
X22964285Y-13683528D01*
X22964285Y-13683528D02*
X22964285Y-12183528D01*
X23964286Y-12183528D02*
X24250000Y-12183528D01*
X24250000Y-12183528D02*
X24392857Y-12254957D01*
X24392857Y-12254957D02*
X24535714Y-12397814D01*
X24535714Y-12397814D02*
X24607143Y-12683528D01*
X24607143Y-12683528D02*
X24607143Y-13183528D01*
X24607143Y-13183528D02*
X24535714Y-13469242D01*
X24535714Y-13469242D02*
X24392857Y-13612100D01*
X24392857Y-13612100D02*
X24250000Y-13683528D01*
X24250000Y-13683528D02*
X23964286Y-13683528D01*
X23964286Y-13683528D02*
X23821429Y-13612100D01*
X23821429Y-13612100D02*
X23678571Y-13469242D01*
X23678571Y-13469242D02*
X23607143Y-13183528D01*
X23607143Y-13183528D02*
X23607143Y-12683528D01*
X23607143Y-12683528D02*
X23678571Y-12397814D01*
X23678571Y-12397814D02*
X23821429Y-12254957D01*
X23821429Y-12254957D02*
X23964286Y-12183528D01*
X25250000Y-13683528D02*
X25250000Y-12183528D01*
X25250000Y-12183528D02*
X25607143Y-12183528D01*
X25607143Y-12183528D02*
X25821429Y-12254957D01*
X25821429Y-12254957D02*
X25964286Y-12397814D01*
X25964286Y-12397814D02*
X26035715Y-12540671D01*
X26035715Y-12540671D02*
X26107143Y-12826385D01*
X26107143Y-12826385D02*
X26107143Y-13040671D01*
X26107143Y-13040671D02*
X26035715Y-13326385D01*
X26035715Y-13326385D02*
X25964286Y-13469242D01*
X25964286Y-13469242D02*
X25821429Y-13612100D01*
X25821429Y-13612100D02*
X25607143Y-13683528D01*
X25607143Y-13683528D02*
X25250000Y-13683528D01*
X26750000Y-12897814D02*
X27250000Y-12897814D01*
X27464286Y-13683528D02*
X26750000Y-13683528D01*
X26750000Y-13683528D02*
X26750000Y-12183528D01*
X26750000Y-12183528D02*
X27464286Y-12183528D01*
X27750001Y-13826385D02*
X28892858Y-13826385D01*
X29107143Y-12183528D02*
X30107143Y-13683528D01*
X30107143Y-12183528D02*
X29107143Y-13683528D01*
X30607143Y-12326385D02*
X30678571Y-12254957D01*
X30678571Y-12254957D02*
X30821429Y-12183528D01*
X30821429Y-12183528D02*
X31178571Y-12183528D01*
X31178571Y-12183528D02*
X31321429Y-12254957D01*
X31321429Y-12254957D02*
X31392857Y-12326385D01*
X31392857Y-12326385D02*
X31464286Y-12469242D01*
X31464286Y-12469242D02*
X31464286Y-12612100D01*
X31464286Y-12612100D02*
X31392857Y-12826385D01*
X31392857Y-12826385D02*
X30535714Y-13683528D01*
X30535714Y-13683528D02*
X31464286Y-13683528D01*
D12*
X5190475Y-11912238D02*
X6333332Y-11912238D01*
X5761903Y-13912238D02*
X5761903Y-11912238D01*
X7666666Y-12864619D02*
X6999999Y-12864619D01*
X6999999Y-13912238D02*
X6999999Y-11912238D01*
X6999999Y-11912238D02*
X7952380Y-11912238D01*
X9666666Y-13912238D02*
X8714285Y-13912238D01*
X8714285Y-13912238D02*
X8714285Y-11912238D01*
X10333333Y-13912238D02*
X10333333Y-11912238D01*
X10333333Y-11912238D02*
X11476190Y-13912238D01*
X11476190Y-13912238D02*
X11476190Y-11912238D01*
X11952381Y-14102714D02*
X13476190Y-14102714D01*
X13857143Y-13340809D02*
X14809524Y-13340809D01*
X13666667Y-13912238D02*
X14333333Y-11912238D01*
X14333333Y-11912238D02*
X15000000Y-13912238D01*
X15666667Y-13912238D02*
X15666667Y-11912238D01*
X16142858Y-14102714D02*
X17666667Y-14102714D01*
X18142858Y-13912238D02*
X18142858Y-11912238D01*
X18142858Y-11912238D02*
X19285715Y-13912238D01*
X19285715Y-13912238D02*
X19285715Y-11912238D01*
X20619048Y-11912238D02*
X21000001Y-11912238D01*
X21000001Y-11912238D02*
X21190477Y-12007476D01*
X21190477Y-12007476D02*
X21380953Y-12197952D01*
X21380953Y-12197952D02*
X21476191Y-12578904D01*
X21476191Y-12578904D02*
X21476191Y-13245571D01*
X21476191Y-13245571D02*
X21380953Y-13626523D01*
X21380953Y-13626523D02*
X21190477Y-13817000D01*
X21190477Y-13817000D02*
X21000001Y-13912238D01*
X21000001Y-13912238D02*
X20619048Y-13912238D01*
X20619048Y-13912238D02*
X20428572Y-13817000D01*
X20428572Y-13817000D02*
X20238096Y-13626523D01*
X20238096Y-13626523D02*
X20142858Y-13245571D01*
X20142858Y-13245571D02*
X20142858Y-12578904D01*
X20142858Y-12578904D02*
X20238096Y-12197952D01*
X20238096Y-12197952D02*
X20428572Y-12007476D01*
X20428572Y-12007476D02*
X20619048Y-11912238D01*
X22333334Y-13912238D02*
X22333334Y-11912238D01*
X22333334Y-11912238D02*
X22809524Y-11912238D01*
X22809524Y-11912238D02*
X23095239Y-12007476D01*
X23095239Y-12007476D02*
X23285715Y-12197952D01*
X23285715Y-12197952D02*
X23380953Y-12388428D01*
X23380953Y-12388428D02*
X23476191Y-12769380D01*
X23476191Y-12769380D02*
X23476191Y-13055095D01*
X23476191Y-13055095D02*
X23380953Y-13436047D01*
X23380953Y-13436047D02*
X23285715Y-13626523D01*
X23285715Y-13626523D02*
X23095239Y-13817000D01*
X23095239Y-13817000D02*
X22809524Y-13912238D01*
X22809524Y-13912238D02*
X22333334Y-13912238D01*
X24333334Y-12864619D02*
X25000001Y-12864619D01*
X25285715Y-13912238D02*
X24333334Y-13912238D01*
X24333334Y-13912238D02*
X24333334Y-11912238D01*
X24333334Y-11912238D02*
X25285715Y-11912238D01*
X25666668Y-14102714D02*
X27190477Y-14102714D01*
X27476192Y-11912238D02*
X28809525Y-13912238D01*
X28809525Y-11912238D02*
X27476192Y-13912238D01*
X29476192Y-12102714D02*
X29571430Y-12007476D01*
X29571430Y-12007476D02*
X29761906Y-11912238D01*
X29761906Y-11912238D02*
X30238097Y-11912238D01*
X30238097Y-11912238D02*
X30428573Y-12007476D01*
X30428573Y-12007476D02*
X30523811Y-12102714D01*
X30523811Y-12102714D02*
X30619049Y-12293190D01*
X30619049Y-12293190D02*
X30619049Y-12483666D01*
X30619049Y-12483666D02*
X30523811Y-12769380D01*
X30523811Y-12769380D02*
X29380954Y-13912238D01*
X29380954Y-13912238D02*
X30619049Y-13912238D01*
D13*
X34380952Y-199284819D02*
X34047619Y-198808628D01*
X33809524Y-199284819D02*
X33809524Y-198284819D01*
X33809524Y-198284819D02*
X34190476Y-198284819D01*
X34190476Y-198284819D02*
X34285714Y-198332438D01*
X34285714Y-198332438D02*
X34333333Y-198380057D01*
X34333333Y-198380057D02*
X34380952Y-198475295D01*
X34380952Y-198475295D02*
X34380952Y-198618152D01*
X34380952Y-198618152D02*
X34333333Y-198713390D01*
X34333333Y-198713390D02*
X34285714Y-198761009D01*
X34285714Y-198761009D02*
X34190476Y-198808628D01*
X34190476Y-198808628D02*
X33809524Y-198808628D01*
X35285714Y-198284819D02*
X34809524Y-198284819D01*
X34809524Y-198284819D02*
X34761905Y-198761009D01*
X34761905Y-198761009D02*
X34809524Y-198713390D01*
X34809524Y-198713390D02*
X34904762Y-198665771D01*
X34904762Y-198665771D02*
X35142857Y-198665771D01*
X35142857Y-198665771D02*
X35238095Y-198713390D01*
X35238095Y-198713390D02*
X35285714Y-198761009D01*
X35285714Y-198761009D02*
X35333333Y-198856247D01*
X35333333Y-198856247D02*
X35333333Y-199094342D01*
X35333333Y-199094342D02*
X35285714Y-199189580D01*
X35285714Y-199189580D02*
X35238095Y-199237200D01*
X35238095Y-199237200D02*
X35142857Y-199284819D01*
X35142857Y-199284819D02*
X34904762Y-199284819D01*
X34904762Y-199284819D02*
X34809524Y-199237200D01*
X34809524Y-199237200D02*
X34761905Y-199189580D01*
X36190476Y-199284819D02*
X36190476Y-198761009D01*
X36190476Y-198761009D02*
X36142857Y-198665771D01*
X36142857Y-198665771D02*
X36047619Y-198618152D01*
X36047619Y-198618152D02*
X35857143Y-198618152D01*
X35857143Y-198618152D02*
X35761905Y-198665771D01*
X36190476Y-199237200D02*
X36095238Y-199284819D01*
X36095238Y-199284819D02*
X35857143Y-199284819D01*
X35857143Y-199284819D02*
X35761905Y-199237200D01*
X35761905Y-199237200D02*
X35714286Y-199141961D01*
X35714286Y-199141961D02*
X35714286Y-199046723D01*
X35714286Y-199046723D02*
X35761905Y-198951485D01*
X35761905Y-198951485D02*
X35857143Y-198903866D01*
X35857143Y-198903866D02*
X36095238Y-198903866D01*
X36095238Y-198903866D02*
X36190476Y-198856247D01*
X161738095Y-136954819D02*
X161738095Y-137764342D01*
X161738095Y-137764342D02*
X161785714Y-137859580D01*
X161785714Y-137859580D02*
X161833333Y-137907200D01*
X161833333Y-137907200D02*
X161928571Y-137954819D01*
X161928571Y-137954819D02*
X162119047Y-137954819D01*
X162119047Y-137954819D02*
X162214285Y-137907200D01*
X162214285Y-137907200D02*
X162261904Y-137859580D01*
X162261904Y-137859580D02*
X162309523Y-137764342D01*
X162309523Y-137764342D02*
X162309523Y-136954819D01*
X162690476Y-136954819D02*
X163309523Y-136954819D01*
X163309523Y-136954819D02*
X162976190Y-137335771D01*
X162976190Y-137335771D02*
X163119047Y-137335771D01*
X163119047Y-137335771D02*
X163214285Y-137383390D01*
X163214285Y-137383390D02*
X163261904Y-137431009D01*
X163261904Y-137431009D02*
X163309523Y-137526247D01*
X163309523Y-137526247D02*
X163309523Y-137764342D01*
X163309523Y-137764342D02*
X163261904Y-137859580D01*
X163261904Y-137859580D02*
X163214285Y-137907200D01*
X163214285Y-137907200D02*
X163119047Y-137954819D01*
X163119047Y-137954819D02*
X162833333Y-137954819D01*
X162833333Y-137954819D02*
X162738095Y-137907200D01*
X162738095Y-137907200D02*
X162690476Y-137859580D01*
X238809524Y-183604819D02*
X238809524Y-182604819D01*
X238809524Y-182604819D02*
X239047619Y-182604819D01*
X239047619Y-182604819D02*
X239190476Y-182652438D01*
X239190476Y-182652438D02*
X239285714Y-182747676D01*
X239285714Y-182747676D02*
X239333333Y-182842914D01*
X239333333Y-182842914D02*
X239380952Y-183033390D01*
X239380952Y-183033390D02*
X239380952Y-183176247D01*
X239380952Y-183176247D02*
X239333333Y-183366723D01*
X239333333Y-183366723D02*
X239285714Y-183461961D01*
X239285714Y-183461961D02*
X239190476Y-183557200D01*
X239190476Y-183557200D02*
X239047619Y-183604819D01*
X239047619Y-183604819D02*
X238809524Y-183604819D01*
X240285714Y-182604819D02*
X239809524Y-182604819D01*
X239809524Y-182604819D02*
X239761905Y-183081009D01*
X239761905Y-183081009D02*
X239809524Y-183033390D01*
X239809524Y-183033390D02*
X239904762Y-182985771D01*
X239904762Y-182985771D02*
X240142857Y-182985771D01*
X240142857Y-182985771D02*
X240238095Y-183033390D01*
X240238095Y-183033390D02*
X240285714Y-183081009D01*
X240285714Y-183081009D02*
X240333333Y-183176247D01*
X240333333Y-183176247D02*
X240333333Y-183414342D01*
X240333333Y-183414342D02*
X240285714Y-183509580D01*
X240285714Y-183509580D02*
X240238095Y-183557200D01*
X240238095Y-183557200D02*
X240142857Y-183604819D01*
X240142857Y-183604819D02*
X239904762Y-183604819D01*
X239904762Y-183604819D02*
X239809524Y-183557200D01*
X239809524Y-183557200D02*
X239761905Y-183509580D01*
X241190476Y-183604819D02*
X241190476Y-183081009D01*
X241190476Y-183081009D02*
X241142857Y-182985771D01*
X241142857Y-182985771D02*
X241047619Y-182938152D01*
X241047619Y-182938152D02*
X240857143Y-182938152D01*
X240857143Y-182938152D02*
X240761905Y-182985771D01*
X241190476Y-183557200D02*
X241095238Y-183604819D01*
X241095238Y-183604819D02*
X240857143Y-183604819D01*
X240857143Y-183604819D02*
X240761905Y-183557200D01*
X240761905Y-183557200D02*
X240714286Y-183461961D01*
X240714286Y-183461961D02*
X240714286Y-183366723D01*
X240714286Y-183366723D02*
X240761905Y-183271485D01*
X240761905Y-183271485D02*
X240857143Y-183223866D01*
X240857143Y-183223866D02*
X241095238Y-183223866D01*
X241095238Y-183223866D02*
X241190476Y-183176247D01*
X163857142Y-161199580D02*
X163809523Y-161247200D01*
X163809523Y-161247200D02*
X163666666Y-161294819D01*
X163666666Y-161294819D02*
X163571428Y-161294819D01*
X163571428Y-161294819D02*
X163428571Y-161247200D01*
X163428571Y-161247200D02*
X163333333Y-161151961D01*
X163333333Y-161151961D02*
X163285714Y-161056723D01*
X163285714Y-161056723D02*
X163238095Y-160866247D01*
X163238095Y-160866247D02*
X163238095Y-160723390D01*
X163238095Y-160723390D02*
X163285714Y-160532914D01*
X163285714Y-160532914D02*
X163333333Y-160437676D01*
X163333333Y-160437676D02*
X163428571Y-160342438D01*
X163428571Y-160342438D02*
X163571428Y-160294819D01*
X163571428Y-160294819D02*
X163666666Y-160294819D01*
X163666666Y-160294819D02*
X163809523Y-160342438D01*
X163809523Y-160342438D02*
X163857142Y-160390057D01*
X164714285Y-160628152D02*
X164714285Y-161294819D01*
X164476190Y-160247200D02*
X164238095Y-160961485D01*
X164238095Y-160961485D02*
X164857142Y-160961485D01*
X165761904Y-161294819D02*
X165190476Y-161294819D01*
X165476190Y-161294819D02*
X165476190Y-160294819D01*
X165476190Y-160294819D02*
X165380952Y-160437676D01*
X165380952Y-160437676D02*
X165285714Y-160532914D01*
X165285714Y-160532914D02*
X165190476Y-160580533D01*
X198499999Y-124199580D02*
X198452380Y-124247200D01*
X198452380Y-124247200D02*
X198309523Y-124294819D01*
X198309523Y-124294819D02*
X198214285Y-124294819D01*
X198214285Y-124294819D02*
X198071428Y-124247200D01*
X198071428Y-124247200D02*
X197976190Y-124151961D01*
X197976190Y-124151961D02*
X197928571Y-124056723D01*
X197928571Y-124056723D02*
X197880952Y-123866247D01*
X197880952Y-123866247D02*
X197880952Y-123723390D01*
X197880952Y-123723390D02*
X197928571Y-123532914D01*
X197928571Y-123532914D02*
X197976190Y-123437676D01*
X197976190Y-123437676D02*
X198071428Y-123342438D01*
X198071428Y-123342438D02*
X198214285Y-123294819D01*
X198214285Y-123294819D02*
X198309523Y-123294819D01*
X198309523Y-123294819D02*
X198452380Y-123342438D01*
X198452380Y-123342438D02*
X198499999Y-123390057D01*
X199404761Y-123294819D02*
X198928571Y-123294819D01*
X198928571Y-123294819D02*
X198880952Y-123771009D01*
X198880952Y-123771009D02*
X198928571Y-123723390D01*
X198928571Y-123723390D02*
X199023809Y-123675771D01*
X199023809Y-123675771D02*
X199261904Y-123675771D01*
X199261904Y-123675771D02*
X199357142Y-123723390D01*
X199357142Y-123723390D02*
X199404761Y-123771009D01*
X199404761Y-123771009D02*
X199452380Y-123866247D01*
X199452380Y-123866247D02*
X199452380Y-124104342D01*
X199452380Y-124104342D02*
X199404761Y-124199580D01*
X199404761Y-124199580D02*
X199357142Y-124247200D01*
X199357142Y-124247200D02*
X199261904Y-124294819D01*
X199261904Y-124294819D02*
X199023809Y-124294819D01*
X199023809Y-124294819D02*
X198928571Y-124247200D01*
X198928571Y-124247200D02*
X198880952Y-124199580D01*
X200071428Y-123294819D02*
X200166666Y-123294819D01*
X200166666Y-123294819D02*
X200261904Y-123342438D01*
X200261904Y-123342438D02*
X200309523Y-123390057D01*
X200309523Y-123390057D02*
X200357142Y-123485295D01*
X200357142Y-123485295D02*
X200404761Y-123675771D01*
X200404761Y-123675771D02*
X200404761Y-123913866D01*
X200404761Y-123913866D02*
X200357142Y-124104342D01*
X200357142Y-124104342D02*
X200309523Y-124199580D01*
X200309523Y-124199580D02*
X200261904Y-124247200D01*
X200261904Y-124247200D02*
X200166666Y-124294819D01*
X200166666Y-124294819D02*
X200071428Y-124294819D01*
X200071428Y-124294819D02*
X199976190Y-124247200D01*
X199976190Y-124247200D02*
X199928571Y-124199580D01*
X199928571Y-124199580D02*
X199880952Y-124104342D01*
X199880952Y-124104342D02*
X199833333Y-123913866D01*
X199833333Y-123913866D02*
X199833333Y-123675771D01*
X199833333Y-123675771D02*
X199880952Y-123485295D01*
X199880952Y-123485295D02*
X199928571Y-123390057D01*
X199928571Y-123390057D02*
X199976190Y-123342438D01*
X199976190Y-123342438D02*
X200071428Y-123294819D01*
X200595238Y-124390057D02*
X201357142Y-124390057D01*
X201785714Y-123294819D02*
X201880952Y-123294819D01*
X201880952Y-123294819D02*
X201976190Y-123342438D01*
X201976190Y-123342438D02*
X202023809Y-123390057D01*
X202023809Y-123390057D02*
X202071428Y-123485295D01*
X202071428Y-123485295D02*
X202119047Y-123675771D01*
X202119047Y-123675771D02*
X202119047Y-123913866D01*
X202119047Y-123913866D02*
X202071428Y-124104342D01*
X202071428Y-124104342D02*
X202023809Y-124199580D01*
X202023809Y-124199580D02*
X201976190Y-124247200D01*
X201976190Y-124247200D02*
X201880952Y-124294819D01*
X201880952Y-124294819D02*
X201785714Y-124294819D01*
X201785714Y-124294819D02*
X201690476Y-124247200D01*
X201690476Y-124247200D02*
X201642857Y-124199580D01*
X201642857Y-124199580D02*
X201595238Y-124104342D01*
X201595238Y-124104342D02*
X201547619Y-123913866D01*
X201547619Y-123913866D02*
X201547619Y-123675771D01*
X201547619Y-123675771D02*
X201595238Y-123485295D01*
X201595238Y-123485295D02*
X201642857Y-123390057D01*
X201642857Y-123390057D02*
X201690476Y-123342438D01*
X201690476Y-123342438D02*
X201785714Y-123294819D01*
X73738095Y-276006819D02*
X74309523Y-276006819D01*
X74023809Y-277006819D02*
X74023809Y-276006819D01*
X74642857Y-277006819D02*
X74642857Y-276006819D01*
X74642857Y-276006819D02*
X75023809Y-276006819D01*
X75023809Y-276006819D02*
X75119047Y-276054438D01*
X75119047Y-276054438D02*
X75166666Y-276102057D01*
X75166666Y-276102057D02*
X75214285Y-276197295D01*
X75214285Y-276197295D02*
X75214285Y-276340152D01*
X75214285Y-276340152D02*
X75166666Y-276435390D01*
X75166666Y-276435390D02*
X75119047Y-276483009D01*
X75119047Y-276483009D02*
X75023809Y-276530628D01*
X75023809Y-276530628D02*
X74642857Y-276530628D01*
X75595238Y-276102057D02*
X75642857Y-276054438D01*
X75642857Y-276054438D02*
X75738095Y-276006819D01*
X75738095Y-276006819D02*
X75976190Y-276006819D01*
X75976190Y-276006819D02*
X76071428Y-276054438D01*
X76071428Y-276054438D02*
X76119047Y-276102057D01*
X76119047Y-276102057D02*
X76166666Y-276197295D01*
X76166666Y-276197295D02*
X76166666Y-276292533D01*
X76166666Y-276292533D02*
X76119047Y-276435390D01*
X76119047Y-276435390D02*
X75547619Y-277006819D01*
X75547619Y-277006819D02*
X76166666Y-277006819D01*
X260523809Y-194199580D02*
X260476190Y-194247200D01*
X260476190Y-194247200D02*
X260333333Y-194294819D01*
X260333333Y-194294819D02*
X260238095Y-194294819D01*
X260238095Y-194294819D02*
X260095238Y-194247200D01*
X260095238Y-194247200D02*
X260000000Y-194151961D01*
X260000000Y-194151961D02*
X259952381Y-194056723D01*
X259952381Y-194056723D02*
X259904762Y-193866247D01*
X259904762Y-193866247D02*
X259904762Y-193723390D01*
X259904762Y-193723390D02*
X259952381Y-193532914D01*
X259952381Y-193532914D02*
X260000000Y-193437676D01*
X260000000Y-193437676D02*
X260095238Y-193342438D01*
X260095238Y-193342438D02*
X260238095Y-193294819D01*
X260238095Y-193294819D02*
X260333333Y-193294819D01*
X260333333Y-193294819D02*
X260476190Y-193342438D01*
X260476190Y-193342438D02*
X260523809Y-193390057D01*
X261428571Y-193294819D02*
X260952381Y-193294819D01*
X260952381Y-193294819D02*
X260904762Y-193771009D01*
X260904762Y-193771009D02*
X260952381Y-193723390D01*
X260952381Y-193723390D02*
X261047619Y-193675771D01*
X261047619Y-193675771D02*
X261285714Y-193675771D01*
X261285714Y-193675771D02*
X261380952Y-193723390D01*
X261380952Y-193723390D02*
X261428571Y-193771009D01*
X261428571Y-193771009D02*
X261476190Y-193866247D01*
X261476190Y-193866247D02*
X261476190Y-194104342D01*
X261476190Y-194104342D02*
X261428571Y-194199580D01*
X261428571Y-194199580D02*
X261380952Y-194247200D01*
X261380952Y-194247200D02*
X261285714Y-194294819D01*
X261285714Y-194294819D02*
X261047619Y-194294819D01*
X261047619Y-194294819D02*
X260952381Y-194247200D01*
X260952381Y-194247200D02*
X260904762Y-194199580D01*
X261666667Y-194390057D02*
X262428571Y-194390057D01*
X263047619Y-194247200D02*
X262952381Y-194294819D01*
X262952381Y-194294819D02*
X262761905Y-194294819D01*
X262761905Y-194294819D02*
X262666667Y-194247200D01*
X262666667Y-194247200D02*
X262619048Y-194151961D01*
X262619048Y-194151961D02*
X262619048Y-193771009D01*
X262619048Y-193771009D02*
X262666667Y-193675771D01*
X262666667Y-193675771D02*
X262761905Y-193628152D01*
X262761905Y-193628152D02*
X262952381Y-193628152D01*
X262952381Y-193628152D02*
X263047619Y-193675771D01*
X263047619Y-193675771D02*
X263095238Y-193771009D01*
X263095238Y-193771009D02*
X263095238Y-193866247D01*
X263095238Y-193866247D02*
X262619048Y-193961485D01*
X134404761Y-266929580D02*
X134357142Y-266977200D01*
X134357142Y-266977200D02*
X134214285Y-267024819D01*
X134214285Y-267024819D02*
X134119047Y-267024819D01*
X134119047Y-267024819D02*
X133976190Y-266977200D01*
X133976190Y-266977200D02*
X133880952Y-266881961D01*
X133880952Y-266881961D02*
X133833333Y-266786723D01*
X133833333Y-266786723D02*
X133785714Y-266596247D01*
X133785714Y-266596247D02*
X133785714Y-266453390D01*
X133785714Y-266453390D02*
X133833333Y-266262914D01*
X133833333Y-266262914D02*
X133880952Y-266167676D01*
X133880952Y-266167676D02*
X133976190Y-266072438D01*
X133976190Y-266072438D02*
X134119047Y-266024819D01*
X134119047Y-266024819D02*
X134214285Y-266024819D01*
X134214285Y-266024819D02*
X134357142Y-266072438D01*
X134357142Y-266072438D02*
X134404761Y-266120057D01*
X134785714Y-266120057D02*
X134833333Y-266072438D01*
X134833333Y-266072438D02*
X134928571Y-266024819D01*
X134928571Y-266024819D02*
X135166666Y-266024819D01*
X135166666Y-266024819D02*
X135261904Y-266072438D01*
X135261904Y-266072438D02*
X135309523Y-266120057D01*
X135309523Y-266120057D02*
X135357142Y-266215295D01*
X135357142Y-266215295D02*
X135357142Y-266310533D01*
X135357142Y-266310533D02*
X135309523Y-266453390D01*
X135309523Y-266453390D02*
X134738095Y-267024819D01*
X134738095Y-267024819D02*
X135357142Y-267024819D01*
X136214285Y-266977200D02*
X136119047Y-267024819D01*
X136119047Y-267024819D02*
X135928571Y-267024819D01*
X135928571Y-267024819D02*
X135833333Y-266977200D01*
X135833333Y-266977200D02*
X135785714Y-266929580D01*
X135785714Y-266929580D02*
X135738095Y-266834342D01*
X135738095Y-266834342D02*
X135738095Y-266548628D01*
X135738095Y-266548628D02*
X135785714Y-266453390D01*
X135785714Y-266453390D02*
X135833333Y-266405771D01*
X135833333Y-266405771D02*
X135928571Y-266358152D01*
X135928571Y-266358152D02*
X136119047Y-266358152D01*
X136119047Y-266358152D02*
X136214285Y-266405771D01*
X108761905Y-206004819D02*
X108761905Y-206814342D01*
X108761905Y-206814342D02*
X108809524Y-206909580D01*
X108809524Y-206909580D02*
X108857143Y-206957200D01*
X108857143Y-206957200D02*
X108952381Y-207004819D01*
X108952381Y-207004819D02*
X109142857Y-207004819D01*
X109142857Y-207004819D02*
X109238095Y-206957200D01*
X109238095Y-206957200D02*
X109285714Y-206909580D01*
X109285714Y-206909580D02*
X109333333Y-206814342D01*
X109333333Y-206814342D02*
X109333333Y-206004819D01*
X109761905Y-206100057D02*
X109809524Y-206052438D01*
X109809524Y-206052438D02*
X109904762Y-206004819D01*
X109904762Y-206004819D02*
X110142857Y-206004819D01*
X110142857Y-206004819D02*
X110238095Y-206052438D01*
X110238095Y-206052438D02*
X110285714Y-206100057D01*
X110285714Y-206100057D02*
X110333333Y-206195295D01*
X110333333Y-206195295D02*
X110333333Y-206290533D01*
X110333333Y-206290533D02*
X110285714Y-206433390D01*
X110285714Y-206433390D02*
X109714286Y-207004819D01*
X109714286Y-207004819D02*
X110333333Y-207004819D01*
X111285714Y-207004819D02*
X110714286Y-207004819D01*
X111000000Y-207004819D02*
X111000000Y-206004819D01*
X111000000Y-206004819D02*
X110904762Y-206147676D01*
X110904762Y-206147676D02*
X110809524Y-206242914D01*
X110809524Y-206242914D02*
X110714286Y-206290533D01*
X148357142Y-174199580D02*
X148309523Y-174247200D01*
X148309523Y-174247200D02*
X148166666Y-174294819D01*
X148166666Y-174294819D02*
X148071428Y-174294819D01*
X148071428Y-174294819D02*
X147928571Y-174247200D01*
X147928571Y-174247200D02*
X147833333Y-174151961D01*
X147833333Y-174151961D02*
X147785714Y-174056723D01*
X147785714Y-174056723D02*
X147738095Y-173866247D01*
X147738095Y-173866247D02*
X147738095Y-173723390D01*
X147738095Y-173723390D02*
X147785714Y-173532914D01*
X147785714Y-173532914D02*
X147833333Y-173437676D01*
X147833333Y-173437676D02*
X147928571Y-173342438D01*
X147928571Y-173342438D02*
X148071428Y-173294819D01*
X148071428Y-173294819D02*
X148166666Y-173294819D01*
X148166666Y-173294819D02*
X148309523Y-173342438D01*
X148309523Y-173342438D02*
X148357142Y-173390057D01*
X148690476Y-173294819D02*
X149309523Y-173294819D01*
X149309523Y-173294819D02*
X148976190Y-173675771D01*
X148976190Y-173675771D02*
X149119047Y-173675771D01*
X149119047Y-173675771D02*
X149214285Y-173723390D01*
X149214285Y-173723390D02*
X149261904Y-173771009D01*
X149261904Y-173771009D02*
X149309523Y-173866247D01*
X149309523Y-173866247D02*
X149309523Y-174104342D01*
X149309523Y-174104342D02*
X149261904Y-174199580D01*
X149261904Y-174199580D02*
X149214285Y-174247200D01*
X149214285Y-174247200D02*
X149119047Y-174294819D01*
X149119047Y-174294819D02*
X148833333Y-174294819D01*
X148833333Y-174294819D02*
X148738095Y-174247200D01*
X148738095Y-174247200D02*
X148690476Y-174199580D01*
X149690476Y-173390057D02*
X149738095Y-173342438D01*
X149738095Y-173342438D02*
X149833333Y-173294819D01*
X149833333Y-173294819D02*
X150071428Y-173294819D01*
X150071428Y-173294819D02*
X150166666Y-173342438D01*
X150166666Y-173342438D02*
X150214285Y-173390057D01*
X150214285Y-173390057D02*
X150261904Y-173485295D01*
X150261904Y-173485295D02*
X150261904Y-173580533D01*
X150261904Y-173580533D02*
X150214285Y-173723390D01*
X150214285Y-173723390D02*
X149642857Y-174294819D01*
X149642857Y-174294819D02*
X150261904Y-174294819D01*
X164857142Y-174199580D02*
X164809523Y-174247200D01*
X164809523Y-174247200D02*
X164666666Y-174294819D01*
X164666666Y-174294819D02*
X164571428Y-174294819D01*
X164571428Y-174294819D02*
X164428571Y-174247200D01*
X164428571Y-174247200D02*
X164333333Y-174151961D01*
X164333333Y-174151961D02*
X164285714Y-174056723D01*
X164285714Y-174056723D02*
X164238095Y-173866247D01*
X164238095Y-173866247D02*
X164238095Y-173723390D01*
X164238095Y-173723390D02*
X164285714Y-173532914D01*
X164285714Y-173532914D02*
X164333333Y-173437676D01*
X164333333Y-173437676D02*
X164428571Y-173342438D01*
X164428571Y-173342438D02*
X164571428Y-173294819D01*
X164571428Y-173294819D02*
X164666666Y-173294819D01*
X164666666Y-173294819D02*
X164809523Y-173342438D01*
X164809523Y-173342438D02*
X164857142Y-173390057D01*
X165190476Y-173294819D02*
X165809523Y-173294819D01*
X165809523Y-173294819D02*
X165476190Y-173675771D01*
X165476190Y-173675771D02*
X165619047Y-173675771D01*
X165619047Y-173675771D02*
X165714285Y-173723390D01*
X165714285Y-173723390D02*
X165761904Y-173771009D01*
X165761904Y-173771009D02*
X165809523Y-173866247D01*
X165809523Y-173866247D02*
X165809523Y-174104342D01*
X165809523Y-174104342D02*
X165761904Y-174199580D01*
X165761904Y-174199580D02*
X165714285Y-174247200D01*
X165714285Y-174247200D02*
X165619047Y-174294819D01*
X165619047Y-174294819D02*
X165333333Y-174294819D01*
X165333333Y-174294819D02*
X165238095Y-174247200D01*
X165238095Y-174247200D02*
X165190476Y-174199580D01*
X166714285Y-173294819D02*
X166238095Y-173294819D01*
X166238095Y-173294819D02*
X166190476Y-173771009D01*
X166190476Y-173771009D02*
X166238095Y-173723390D01*
X166238095Y-173723390D02*
X166333333Y-173675771D01*
X166333333Y-173675771D02*
X166571428Y-173675771D01*
X166571428Y-173675771D02*
X166666666Y-173723390D01*
X166666666Y-173723390D02*
X166714285Y-173771009D01*
X166714285Y-173771009D02*
X166761904Y-173866247D01*
X166761904Y-173866247D02*
X166761904Y-174104342D01*
X166761904Y-174104342D02*
X166714285Y-174199580D01*
X166714285Y-174199580D02*
X166666666Y-174247200D01*
X166666666Y-174247200D02*
X166571428Y-174294819D01*
X166571428Y-174294819D02*
X166333333Y-174294819D01*
X166333333Y-174294819D02*
X166238095Y-174247200D01*
X166238095Y-174247200D02*
X166190476Y-174199580D01*
X266166666Y-194199580D02*
X266119047Y-194247200D01*
X266119047Y-194247200D02*
X265976190Y-194294819D01*
X265976190Y-194294819D02*
X265880952Y-194294819D01*
X265880952Y-194294819D02*
X265738095Y-194247200D01*
X265738095Y-194247200D02*
X265642857Y-194151961D01*
X265642857Y-194151961D02*
X265595238Y-194056723D01*
X265595238Y-194056723D02*
X265547619Y-193866247D01*
X265547619Y-193866247D02*
X265547619Y-193723390D01*
X265547619Y-193723390D02*
X265595238Y-193532914D01*
X265595238Y-193532914D02*
X265642857Y-193437676D01*
X265642857Y-193437676D02*
X265738095Y-193342438D01*
X265738095Y-193342438D02*
X265880952Y-193294819D01*
X265880952Y-193294819D02*
X265976190Y-193294819D01*
X265976190Y-193294819D02*
X266119047Y-193342438D01*
X266119047Y-193342438D02*
X266166666Y-193390057D01*
X267071428Y-193294819D02*
X266595238Y-193294819D01*
X266595238Y-193294819D02*
X266547619Y-193771009D01*
X266547619Y-193771009D02*
X266595238Y-193723390D01*
X266595238Y-193723390D02*
X266690476Y-193675771D01*
X266690476Y-193675771D02*
X266928571Y-193675771D01*
X266928571Y-193675771D02*
X267023809Y-193723390D01*
X267023809Y-193723390D02*
X267071428Y-193771009D01*
X267071428Y-193771009D02*
X267119047Y-193866247D01*
X267119047Y-193866247D02*
X267119047Y-194104342D01*
X267119047Y-194104342D02*
X267071428Y-194199580D01*
X267071428Y-194199580D02*
X267023809Y-194247200D01*
X267023809Y-194247200D02*
X266928571Y-194294819D01*
X266928571Y-194294819D02*
X266690476Y-194294819D01*
X266690476Y-194294819D02*
X266595238Y-194247200D01*
X266595238Y-194247200D02*
X266547619Y-194199580D01*
X267309524Y-194390057D02*
X268071428Y-194390057D01*
X268166667Y-193628152D02*
X268547619Y-193628152D01*
X268309524Y-194294819D02*
X268309524Y-193437676D01*
X268309524Y-193437676D02*
X268357143Y-193342438D01*
X268357143Y-193342438D02*
X268452381Y-193294819D01*
X268452381Y-193294819D02*
X268547619Y-193294819D01*
X109380952Y-266679580D02*
X109333333Y-266727200D01*
X109333333Y-266727200D02*
X109190476Y-266774819D01*
X109190476Y-266774819D02*
X109095238Y-266774819D01*
X109095238Y-266774819D02*
X108952381Y-266727200D01*
X108952381Y-266727200D02*
X108857143Y-266631961D01*
X108857143Y-266631961D02*
X108809524Y-266536723D01*
X108809524Y-266536723D02*
X108761905Y-266346247D01*
X108761905Y-266346247D02*
X108761905Y-266203390D01*
X108761905Y-266203390D02*
X108809524Y-266012914D01*
X108809524Y-266012914D02*
X108857143Y-265917676D01*
X108857143Y-265917676D02*
X108952381Y-265822438D01*
X108952381Y-265822438D02*
X109095238Y-265774819D01*
X109095238Y-265774819D02*
X109190476Y-265774819D01*
X109190476Y-265774819D02*
X109333333Y-265822438D01*
X109333333Y-265822438D02*
X109380952Y-265870057D01*
X110333333Y-266774819D02*
X109761905Y-266774819D01*
X110047619Y-266774819D02*
X110047619Y-265774819D01*
X110047619Y-265774819D02*
X109952381Y-265917676D01*
X109952381Y-265917676D02*
X109857143Y-266012914D01*
X109857143Y-266012914D02*
X109761905Y-266060533D01*
X110761905Y-266774819D02*
X110761905Y-265774819D01*
X110761905Y-266155771D02*
X110857143Y-266108152D01*
X110857143Y-266108152D02*
X111047619Y-266108152D01*
X111047619Y-266108152D02*
X111142857Y-266155771D01*
X111142857Y-266155771D02*
X111190476Y-266203390D01*
X111190476Y-266203390D02*
X111238095Y-266298628D01*
X111238095Y-266298628D02*
X111238095Y-266584342D01*
X111238095Y-266584342D02*
X111190476Y-266679580D01*
X111190476Y-266679580D02*
X111142857Y-266727200D01*
X111142857Y-266727200D02*
X111047619Y-266774819D01*
X111047619Y-266774819D02*
X110857143Y-266774819D01*
X110857143Y-266774819D02*
X110761905Y-266727200D01*
X137357142Y-174199580D02*
X137309523Y-174247200D01*
X137309523Y-174247200D02*
X137166666Y-174294819D01*
X137166666Y-174294819D02*
X137071428Y-174294819D01*
X137071428Y-174294819D02*
X136928571Y-174247200D01*
X136928571Y-174247200D02*
X136833333Y-174151961D01*
X136833333Y-174151961D02*
X136785714Y-174056723D01*
X136785714Y-174056723D02*
X136738095Y-173866247D01*
X136738095Y-173866247D02*
X136738095Y-173723390D01*
X136738095Y-173723390D02*
X136785714Y-173532914D01*
X136785714Y-173532914D02*
X136833333Y-173437676D01*
X136833333Y-173437676D02*
X136928571Y-173342438D01*
X136928571Y-173342438D02*
X137071428Y-173294819D01*
X137071428Y-173294819D02*
X137166666Y-173294819D01*
X137166666Y-173294819D02*
X137309523Y-173342438D01*
X137309523Y-173342438D02*
X137357142Y-173390057D01*
X137690476Y-173294819D02*
X138309523Y-173294819D01*
X138309523Y-173294819D02*
X137976190Y-173675771D01*
X137976190Y-173675771D02*
X138119047Y-173675771D01*
X138119047Y-173675771D02*
X138214285Y-173723390D01*
X138214285Y-173723390D02*
X138261904Y-173771009D01*
X138261904Y-173771009D02*
X138309523Y-173866247D01*
X138309523Y-173866247D02*
X138309523Y-174104342D01*
X138309523Y-174104342D02*
X138261904Y-174199580D01*
X138261904Y-174199580D02*
X138214285Y-174247200D01*
X138214285Y-174247200D02*
X138119047Y-174294819D01*
X138119047Y-174294819D02*
X137833333Y-174294819D01*
X137833333Y-174294819D02*
X137738095Y-174247200D01*
X137738095Y-174247200D02*
X137690476Y-174199580D01*
X138928571Y-173294819D02*
X139023809Y-173294819D01*
X139023809Y-173294819D02*
X139119047Y-173342438D01*
X139119047Y-173342438D02*
X139166666Y-173390057D01*
X139166666Y-173390057D02*
X139214285Y-173485295D01*
X139214285Y-173485295D02*
X139261904Y-173675771D01*
X139261904Y-173675771D02*
X139261904Y-173913866D01*
X139261904Y-173913866D02*
X139214285Y-174104342D01*
X139214285Y-174104342D02*
X139166666Y-174199580D01*
X139166666Y-174199580D02*
X139119047Y-174247200D01*
X139119047Y-174247200D02*
X139023809Y-174294819D01*
X139023809Y-174294819D02*
X138928571Y-174294819D01*
X138928571Y-174294819D02*
X138833333Y-174247200D01*
X138833333Y-174247200D02*
X138785714Y-174199580D01*
X138785714Y-174199580D02*
X138738095Y-174104342D01*
X138738095Y-174104342D02*
X138690476Y-173913866D01*
X138690476Y-173913866D02*
X138690476Y-173675771D01*
X138690476Y-173675771D02*
X138738095Y-173485295D01*
X138738095Y-173485295D02*
X138785714Y-173390057D01*
X138785714Y-173390057D02*
X138833333Y-173342438D01*
X138833333Y-173342438D02*
X138928571Y-173294819D01*
X203999999Y-124199580D02*
X203952380Y-124247200D01*
X203952380Y-124247200D02*
X203809523Y-124294819D01*
X203809523Y-124294819D02*
X203714285Y-124294819D01*
X203714285Y-124294819D02*
X203571428Y-124247200D01*
X203571428Y-124247200D02*
X203476190Y-124151961D01*
X203476190Y-124151961D02*
X203428571Y-124056723D01*
X203428571Y-124056723D02*
X203380952Y-123866247D01*
X203380952Y-123866247D02*
X203380952Y-123723390D01*
X203380952Y-123723390D02*
X203428571Y-123532914D01*
X203428571Y-123532914D02*
X203476190Y-123437676D01*
X203476190Y-123437676D02*
X203571428Y-123342438D01*
X203571428Y-123342438D02*
X203714285Y-123294819D01*
X203714285Y-123294819D02*
X203809523Y-123294819D01*
X203809523Y-123294819D02*
X203952380Y-123342438D01*
X203952380Y-123342438D02*
X203999999Y-123390057D01*
X204904761Y-123294819D02*
X204428571Y-123294819D01*
X204428571Y-123294819D02*
X204380952Y-123771009D01*
X204380952Y-123771009D02*
X204428571Y-123723390D01*
X204428571Y-123723390D02*
X204523809Y-123675771D01*
X204523809Y-123675771D02*
X204761904Y-123675771D01*
X204761904Y-123675771D02*
X204857142Y-123723390D01*
X204857142Y-123723390D02*
X204904761Y-123771009D01*
X204904761Y-123771009D02*
X204952380Y-123866247D01*
X204952380Y-123866247D02*
X204952380Y-124104342D01*
X204952380Y-124104342D02*
X204904761Y-124199580D01*
X204904761Y-124199580D02*
X204857142Y-124247200D01*
X204857142Y-124247200D02*
X204761904Y-124294819D01*
X204761904Y-124294819D02*
X204523809Y-124294819D01*
X204523809Y-124294819D02*
X204428571Y-124247200D01*
X204428571Y-124247200D02*
X204380952Y-124199580D01*
X205571428Y-123294819D02*
X205666666Y-123294819D01*
X205666666Y-123294819D02*
X205761904Y-123342438D01*
X205761904Y-123342438D02*
X205809523Y-123390057D01*
X205809523Y-123390057D02*
X205857142Y-123485295D01*
X205857142Y-123485295D02*
X205904761Y-123675771D01*
X205904761Y-123675771D02*
X205904761Y-123913866D01*
X205904761Y-123913866D02*
X205857142Y-124104342D01*
X205857142Y-124104342D02*
X205809523Y-124199580D01*
X205809523Y-124199580D02*
X205761904Y-124247200D01*
X205761904Y-124247200D02*
X205666666Y-124294819D01*
X205666666Y-124294819D02*
X205571428Y-124294819D01*
X205571428Y-124294819D02*
X205476190Y-124247200D01*
X205476190Y-124247200D02*
X205428571Y-124199580D01*
X205428571Y-124199580D02*
X205380952Y-124104342D01*
X205380952Y-124104342D02*
X205333333Y-123913866D01*
X205333333Y-123913866D02*
X205333333Y-123675771D01*
X205333333Y-123675771D02*
X205380952Y-123485295D01*
X205380952Y-123485295D02*
X205428571Y-123390057D01*
X205428571Y-123390057D02*
X205476190Y-123342438D01*
X205476190Y-123342438D02*
X205571428Y-123294819D01*
X206095238Y-124390057D02*
X206857142Y-124390057D01*
X207619047Y-124294819D02*
X207047619Y-124294819D01*
X207333333Y-124294819D02*
X207333333Y-123294819D01*
X207333333Y-123294819D02*
X207238095Y-123437676D01*
X207238095Y-123437676D02*
X207142857Y-123532914D01*
X207142857Y-123532914D02*
X207047619Y-123580533D01*
X129380952Y-266929580D02*
X129333333Y-266977200D01*
X129333333Y-266977200D02*
X129190476Y-267024819D01*
X129190476Y-267024819D02*
X129095238Y-267024819D01*
X129095238Y-267024819D02*
X128952381Y-266977200D01*
X128952381Y-266977200D02*
X128857143Y-266881961D01*
X128857143Y-266881961D02*
X128809524Y-266786723D01*
X128809524Y-266786723D02*
X128761905Y-266596247D01*
X128761905Y-266596247D02*
X128761905Y-266453390D01*
X128761905Y-266453390D02*
X128809524Y-266262914D01*
X128809524Y-266262914D02*
X128857143Y-266167676D01*
X128857143Y-266167676D02*
X128952381Y-266072438D01*
X128952381Y-266072438D02*
X129095238Y-266024819D01*
X129095238Y-266024819D02*
X129190476Y-266024819D01*
X129190476Y-266024819D02*
X129333333Y-266072438D01*
X129333333Y-266072438D02*
X129380952Y-266120057D01*
X129761905Y-266120057D02*
X129809524Y-266072438D01*
X129809524Y-266072438D02*
X129904762Y-266024819D01*
X129904762Y-266024819D02*
X130142857Y-266024819D01*
X130142857Y-266024819D02*
X130238095Y-266072438D01*
X130238095Y-266072438D02*
X130285714Y-266120057D01*
X130285714Y-266120057D02*
X130333333Y-266215295D01*
X130333333Y-266215295D02*
X130333333Y-266310533D01*
X130333333Y-266310533D02*
X130285714Y-266453390D01*
X130285714Y-266453390D02*
X129714286Y-267024819D01*
X129714286Y-267024819D02*
X130333333Y-267024819D01*
X130761905Y-267024819D02*
X130761905Y-266024819D01*
X130761905Y-266405771D02*
X130857143Y-266358152D01*
X130857143Y-266358152D02*
X131047619Y-266358152D01*
X131047619Y-266358152D02*
X131142857Y-266405771D01*
X131142857Y-266405771D02*
X131190476Y-266453390D01*
X131190476Y-266453390D02*
X131238095Y-266548628D01*
X131238095Y-266548628D02*
X131238095Y-266834342D01*
X131238095Y-266834342D02*
X131190476Y-266929580D01*
X131190476Y-266929580D02*
X131142857Y-266977200D01*
X131142857Y-266977200D02*
X131047619Y-267024819D01*
X131047619Y-267024819D02*
X130857143Y-267024819D01*
X130857143Y-267024819D02*
X130761905Y-266977200D01*
X254999999Y-194199580D02*
X254952380Y-194247200D01*
X254952380Y-194247200D02*
X254809523Y-194294819D01*
X254809523Y-194294819D02*
X254714285Y-194294819D01*
X254714285Y-194294819D02*
X254571428Y-194247200D01*
X254571428Y-194247200D02*
X254476190Y-194151961D01*
X254476190Y-194151961D02*
X254428571Y-194056723D01*
X254428571Y-194056723D02*
X254380952Y-193866247D01*
X254380952Y-193866247D02*
X254380952Y-193723390D01*
X254380952Y-193723390D02*
X254428571Y-193532914D01*
X254428571Y-193532914D02*
X254476190Y-193437676D01*
X254476190Y-193437676D02*
X254571428Y-193342438D01*
X254571428Y-193342438D02*
X254714285Y-193294819D01*
X254714285Y-193294819D02*
X254809523Y-193294819D01*
X254809523Y-193294819D02*
X254952380Y-193342438D01*
X254952380Y-193342438D02*
X254999999Y-193390057D01*
X255904761Y-193294819D02*
X255428571Y-193294819D01*
X255428571Y-193294819D02*
X255380952Y-193771009D01*
X255380952Y-193771009D02*
X255428571Y-193723390D01*
X255428571Y-193723390D02*
X255523809Y-193675771D01*
X255523809Y-193675771D02*
X255761904Y-193675771D01*
X255761904Y-193675771D02*
X255857142Y-193723390D01*
X255857142Y-193723390D02*
X255904761Y-193771009D01*
X255904761Y-193771009D02*
X255952380Y-193866247D01*
X255952380Y-193866247D02*
X255952380Y-194104342D01*
X255952380Y-194104342D02*
X255904761Y-194199580D01*
X255904761Y-194199580D02*
X255857142Y-194247200D01*
X255857142Y-194247200D02*
X255761904Y-194294819D01*
X255761904Y-194294819D02*
X255523809Y-194294819D01*
X255523809Y-194294819D02*
X255428571Y-194247200D01*
X255428571Y-194247200D02*
X255380952Y-194199580D01*
X256142857Y-194390057D02*
X256904761Y-194390057D01*
X257571428Y-194294819D02*
X257571428Y-193294819D01*
X257571428Y-194247200D02*
X257476190Y-194294819D01*
X257476190Y-194294819D02*
X257285714Y-194294819D01*
X257285714Y-194294819D02*
X257190476Y-194247200D01*
X257190476Y-194247200D02*
X257142857Y-194199580D01*
X257142857Y-194199580D02*
X257095238Y-194104342D01*
X257095238Y-194104342D02*
X257095238Y-193818628D01*
X257095238Y-193818628D02*
X257142857Y-193723390D01*
X257142857Y-193723390D02*
X257190476Y-193675771D01*
X257190476Y-193675771D02*
X257285714Y-193628152D01*
X257285714Y-193628152D02*
X257476190Y-193628152D01*
X257476190Y-193628152D02*
X257571428Y-193675771D01*
X118738095Y-276006819D02*
X119309523Y-276006819D01*
X119023809Y-277006819D02*
X119023809Y-276006819D01*
X119642857Y-277006819D02*
X119642857Y-276006819D01*
X119642857Y-276006819D02*
X120023809Y-276006819D01*
X120023809Y-276006819D02*
X120119047Y-276054438D01*
X120119047Y-276054438D02*
X120166666Y-276102057D01*
X120166666Y-276102057D02*
X120214285Y-276197295D01*
X120214285Y-276197295D02*
X120214285Y-276340152D01*
X120214285Y-276340152D02*
X120166666Y-276435390D01*
X120166666Y-276435390D02*
X120119047Y-276483009D01*
X120119047Y-276483009D02*
X120023809Y-276530628D01*
X120023809Y-276530628D02*
X119642857Y-276530628D01*
X121119047Y-276006819D02*
X120642857Y-276006819D01*
X120642857Y-276006819D02*
X120595238Y-276483009D01*
X120595238Y-276483009D02*
X120642857Y-276435390D01*
X120642857Y-276435390D02*
X120738095Y-276387771D01*
X120738095Y-276387771D02*
X120976190Y-276387771D01*
X120976190Y-276387771D02*
X121071428Y-276435390D01*
X121071428Y-276435390D02*
X121119047Y-276483009D01*
X121119047Y-276483009D02*
X121166666Y-276578247D01*
X121166666Y-276578247D02*
X121166666Y-276816342D01*
X121166666Y-276816342D02*
X121119047Y-276911580D01*
X121119047Y-276911580D02*
X121071428Y-276959200D01*
X121071428Y-276959200D02*
X120976190Y-277006819D01*
X120976190Y-277006819D02*
X120738095Y-277006819D01*
X120738095Y-277006819D02*
X120642857Y-276959200D01*
X120642857Y-276959200D02*
X120595238Y-276911580D01*
X269141905Y-192554819D02*
X269141905Y-193364342D01*
X269141905Y-193364342D02*
X269189524Y-193459580D01*
X269189524Y-193459580D02*
X269237143Y-193507200D01*
X269237143Y-193507200D02*
X269332381Y-193554819D01*
X269332381Y-193554819D02*
X269522857Y-193554819D01*
X269522857Y-193554819D02*
X269618095Y-193507200D01*
X269618095Y-193507200D02*
X269665714Y-193459580D01*
X269665714Y-193459580D02*
X269713333Y-193364342D01*
X269713333Y-193364342D02*
X269713333Y-192554819D01*
X270141905Y-192650057D02*
X270189524Y-192602438D01*
X270189524Y-192602438D02*
X270284762Y-192554819D01*
X270284762Y-192554819D02*
X270522857Y-192554819D01*
X270522857Y-192554819D02*
X270618095Y-192602438D01*
X270618095Y-192602438D02*
X270665714Y-192650057D01*
X270665714Y-192650057D02*
X270713333Y-192745295D01*
X270713333Y-192745295D02*
X270713333Y-192840533D01*
X270713333Y-192840533D02*
X270665714Y-192983390D01*
X270665714Y-192983390D02*
X270094286Y-193554819D01*
X270094286Y-193554819D02*
X270713333Y-193554819D01*
X271046667Y-192554819D02*
X271665714Y-192554819D01*
X271665714Y-192554819D02*
X271332381Y-192935771D01*
X271332381Y-192935771D02*
X271475238Y-192935771D01*
X271475238Y-192935771D02*
X271570476Y-192983390D01*
X271570476Y-192983390D02*
X271618095Y-193031009D01*
X271618095Y-193031009D02*
X271665714Y-193126247D01*
X271665714Y-193126247D02*
X271665714Y-193364342D01*
X271665714Y-193364342D02*
X271618095Y-193459580D01*
X271618095Y-193459580D02*
X271570476Y-193507200D01*
X271570476Y-193507200D02*
X271475238Y-193554819D01*
X271475238Y-193554819D02*
X271189524Y-193554819D01*
X271189524Y-193554819D02*
X271094286Y-193507200D01*
X271094286Y-193507200D02*
X271046667Y-193459580D01*
X214999999Y-124199580D02*
X214952380Y-124247200D01*
X214952380Y-124247200D02*
X214809523Y-124294819D01*
X214809523Y-124294819D02*
X214714285Y-124294819D01*
X214714285Y-124294819D02*
X214571428Y-124247200D01*
X214571428Y-124247200D02*
X214476190Y-124151961D01*
X214476190Y-124151961D02*
X214428571Y-124056723D01*
X214428571Y-124056723D02*
X214380952Y-123866247D01*
X214380952Y-123866247D02*
X214380952Y-123723390D01*
X214380952Y-123723390D02*
X214428571Y-123532914D01*
X214428571Y-123532914D02*
X214476190Y-123437676D01*
X214476190Y-123437676D02*
X214571428Y-123342438D01*
X214571428Y-123342438D02*
X214714285Y-123294819D01*
X214714285Y-123294819D02*
X214809523Y-123294819D01*
X214809523Y-123294819D02*
X214952380Y-123342438D01*
X214952380Y-123342438D02*
X214999999Y-123390057D01*
X215904761Y-123294819D02*
X215428571Y-123294819D01*
X215428571Y-123294819D02*
X215380952Y-123771009D01*
X215380952Y-123771009D02*
X215428571Y-123723390D01*
X215428571Y-123723390D02*
X215523809Y-123675771D01*
X215523809Y-123675771D02*
X215761904Y-123675771D01*
X215761904Y-123675771D02*
X215857142Y-123723390D01*
X215857142Y-123723390D02*
X215904761Y-123771009D01*
X215904761Y-123771009D02*
X215952380Y-123866247D01*
X215952380Y-123866247D02*
X215952380Y-124104342D01*
X215952380Y-124104342D02*
X215904761Y-124199580D01*
X215904761Y-124199580D02*
X215857142Y-124247200D01*
X215857142Y-124247200D02*
X215761904Y-124294819D01*
X215761904Y-124294819D02*
X215523809Y-124294819D01*
X215523809Y-124294819D02*
X215428571Y-124247200D01*
X215428571Y-124247200D02*
X215380952Y-124199580D01*
X216571428Y-123294819D02*
X216666666Y-123294819D01*
X216666666Y-123294819D02*
X216761904Y-123342438D01*
X216761904Y-123342438D02*
X216809523Y-123390057D01*
X216809523Y-123390057D02*
X216857142Y-123485295D01*
X216857142Y-123485295D02*
X216904761Y-123675771D01*
X216904761Y-123675771D02*
X216904761Y-123913866D01*
X216904761Y-123913866D02*
X216857142Y-124104342D01*
X216857142Y-124104342D02*
X216809523Y-124199580D01*
X216809523Y-124199580D02*
X216761904Y-124247200D01*
X216761904Y-124247200D02*
X216666666Y-124294819D01*
X216666666Y-124294819D02*
X216571428Y-124294819D01*
X216571428Y-124294819D02*
X216476190Y-124247200D01*
X216476190Y-124247200D02*
X216428571Y-124199580D01*
X216428571Y-124199580D02*
X216380952Y-124104342D01*
X216380952Y-124104342D02*
X216333333Y-123913866D01*
X216333333Y-123913866D02*
X216333333Y-123675771D01*
X216333333Y-123675771D02*
X216380952Y-123485295D01*
X216380952Y-123485295D02*
X216428571Y-123390057D01*
X216428571Y-123390057D02*
X216476190Y-123342438D01*
X216476190Y-123342438D02*
X216571428Y-123294819D01*
X217095238Y-124390057D02*
X217857142Y-124390057D01*
X218000000Y-123294819D02*
X218619047Y-123294819D01*
X218619047Y-123294819D02*
X218285714Y-123675771D01*
X218285714Y-123675771D02*
X218428571Y-123675771D01*
X218428571Y-123675771D02*
X218523809Y-123723390D01*
X218523809Y-123723390D02*
X218571428Y-123771009D01*
X218571428Y-123771009D02*
X218619047Y-123866247D01*
X218619047Y-123866247D02*
X218619047Y-124104342D01*
X218619047Y-124104342D02*
X218571428Y-124199580D01*
X218571428Y-124199580D02*
X218523809Y-124247200D01*
X218523809Y-124247200D02*
X218428571Y-124294819D01*
X218428571Y-124294819D02*
X218142857Y-124294819D01*
X218142857Y-124294819D02*
X218047619Y-124247200D01*
X218047619Y-124247200D02*
X218000000Y-124199580D01*
X124380952Y-266929580D02*
X124333333Y-266977200D01*
X124333333Y-266977200D02*
X124190476Y-267024819D01*
X124190476Y-267024819D02*
X124095238Y-267024819D01*
X124095238Y-267024819D02*
X123952381Y-266977200D01*
X123952381Y-266977200D02*
X123857143Y-266881961D01*
X123857143Y-266881961D02*
X123809524Y-266786723D01*
X123809524Y-266786723D02*
X123761905Y-266596247D01*
X123761905Y-266596247D02*
X123761905Y-266453390D01*
X123761905Y-266453390D02*
X123809524Y-266262914D01*
X123809524Y-266262914D02*
X123857143Y-266167676D01*
X123857143Y-266167676D02*
X123952381Y-266072438D01*
X123952381Y-266072438D02*
X124095238Y-266024819D01*
X124095238Y-266024819D02*
X124190476Y-266024819D01*
X124190476Y-266024819D02*
X124333333Y-266072438D01*
X124333333Y-266072438D02*
X124380952Y-266120057D01*
X124761905Y-266120057D02*
X124809524Y-266072438D01*
X124809524Y-266072438D02*
X124904762Y-266024819D01*
X124904762Y-266024819D02*
X125142857Y-266024819D01*
X125142857Y-266024819D02*
X125238095Y-266072438D01*
X125238095Y-266072438D02*
X125285714Y-266120057D01*
X125285714Y-266120057D02*
X125333333Y-266215295D01*
X125333333Y-266215295D02*
X125333333Y-266310533D01*
X125333333Y-266310533D02*
X125285714Y-266453390D01*
X125285714Y-266453390D02*
X124714286Y-267024819D01*
X124714286Y-267024819D02*
X125333333Y-267024819D01*
X126190476Y-267024819D02*
X126190476Y-266501009D01*
X126190476Y-266501009D02*
X126142857Y-266405771D01*
X126142857Y-266405771D02*
X126047619Y-266358152D01*
X126047619Y-266358152D02*
X125857143Y-266358152D01*
X125857143Y-266358152D02*
X125761905Y-266405771D01*
X126190476Y-266977200D02*
X126095238Y-267024819D01*
X126095238Y-267024819D02*
X125857143Y-267024819D01*
X125857143Y-267024819D02*
X125761905Y-266977200D01*
X125761905Y-266977200D02*
X125714286Y-266881961D01*
X125714286Y-266881961D02*
X125714286Y-266786723D01*
X125714286Y-266786723D02*
X125761905Y-266691485D01*
X125761905Y-266691485D02*
X125857143Y-266643866D01*
X125857143Y-266643866D02*
X126095238Y-266643866D01*
X126095238Y-266643866D02*
X126190476Y-266596247D01*
X58738095Y-276006819D02*
X59309523Y-276006819D01*
X59023809Y-277006819D02*
X59023809Y-276006819D01*
X59642857Y-277006819D02*
X59642857Y-276006819D01*
X59642857Y-276006819D02*
X60023809Y-276006819D01*
X60023809Y-276006819D02*
X60119047Y-276054438D01*
X60119047Y-276054438D02*
X60166666Y-276102057D01*
X60166666Y-276102057D02*
X60214285Y-276197295D01*
X60214285Y-276197295D02*
X60214285Y-276340152D01*
X60214285Y-276340152D02*
X60166666Y-276435390D01*
X60166666Y-276435390D02*
X60119047Y-276483009D01*
X60119047Y-276483009D02*
X60023809Y-276530628D01*
X60023809Y-276530628D02*
X59642857Y-276530628D01*
X61166666Y-277006819D02*
X60595238Y-277006819D01*
X60880952Y-277006819D02*
X60880952Y-276006819D01*
X60880952Y-276006819D02*
X60785714Y-276149676D01*
X60785714Y-276149676D02*
X60690476Y-276244914D01*
X60690476Y-276244914D02*
X60595238Y-276292533D01*
X152857142Y-161199580D02*
X152809523Y-161247200D01*
X152809523Y-161247200D02*
X152666666Y-161294819D01*
X152666666Y-161294819D02*
X152571428Y-161294819D01*
X152571428Y-161294819D02*
X152428571Y-161247200D01*
X152428571Y-161247200D02*
X152333333Y-161151961D01*
X152333333Y-161151961D02*
X152285714Y-161056723D01*
X152285714Y-161056723D02*
X152238095Y-160866247D01*
X152238095Y-160866247D02*
X152238095Y-160723390D01*
X152238095Y-160723390D02*
X152285714Y-160532914D01*
X152285714Y-160532914D02*
X152333333Y-160437676D01*
X152333333Y-160437676D02*
X152428571Y-160342438D01*
X152428571Y-160342438D02*
X152571428Y-160294819D01*
X152571428Y-160294819D02*
X152666666Y-160294819D01*
X152666666Y-160294819D02*
X152809523Y-160342438D01*
X152809523Y-160342438D02*
X152857142Y-160390057D01*
X153190476Y-160294819D02*
X153809523Y-160294819D01*
X153809523Y-160294819D02*
X153476190Y-160675771D01*
X153476190Y-160675771D02*
X153619047Y-160675771D01*
X153619047Y-160675771D02*
X153714285Y-160723390D01*
X153714285Y-160723390D02*
X153761904Y-160771009D01*
X153761904Y-160771009D02*
X153809523Y-160866247D01*
X153809523Y-160866247D02*
X153809523Y-161104342D01*
X153809523Y-161104342D02*
X153761904Y-161199580D01*
X153761904Y-161199580D02*
X153714285Y-161247200D01*
X153714285Y-161247200D02*
X153619047Y-161294819D01*
X153619047Y-161294819D02*
X153333333Y-161294819D01*
X153333333Y-161294819D02*
X153238095Y-161247200D01*
X153238095Y-161247200D02*
X153190476Y-161199580D01*
X154285714Y-161294819D02*
X154476190Y-161294819D01*
X154476190Y-161294819D02*
X154571428Y-161247200D01*
X154571428Y-161247200D02*
X154619047Y-161199580D01*
X154619047Y-161199580D02*
X154714285Y-161056723D01*
X154714285Y-161056723D02*
X154761904Y-160866247D01*
X154761904Y-160866247D02*
X154761904Y-160485295D01*
X154761904Y-160485295D02*
X154714285Y-160390057D01*
X154714285Y-160390057D02*
X154666666Y-160342438D01*
X154666666Y-160342438D02*
X154571428Y-160294819D01*
X154571428Y-160294819D02*
X154380952Y-160294819D01*
X154380952Y-160294819D02*
X154285714Y-160342438D01*
X154285714Y-160342438D02*
X154238095Y-160390057D01*
X154238095Y-160390057D02*
X154190476Y-160485295D01*
X154190476Y-160485295D02*
X154190476Y-160723390D01*
X154190476Y-160723390D02*
X154238095Y-160818628D01*
X154238095Y-160818628D02*
X154285714Y-160866247D01*
X154285714Y-160866247D02*
X154380952Y-160913866D01*
X154380952Y-160913866D02*
X154571428Y-160913866D01*
X154571428Y-160913866D02*
X154666666Y-160866247D01*
X154666666Y-160866247D02*
X154714285Y-160818628D01*
X154714285Y-160818628D02*
X154761904Y-160723390D01*
X219238095Y-141954819D02*
X219238095Y-142764342D01*
X219238095Y-142764342D02*
X219285714Y-142859580D01*
X219285714Y-142859580D02*
X219333333Y-142907200D01*
X219333333Y-142907200D02*
X219428571Y-142954819D01*
X219428571Y-142954819D02*
X219619047Y-142954819D01*
X219619047Y-142954819D02*
X219714285Y-142907200D01*
X219714285Y-142907200D02*
X219761904Y-142859580D01*
X219761904Y-142859580D02*
X219809523Y-142764342D01*
X219809523Y-142764342D02*
X219809523Y-141954819D01*
X220714285Y-142288152D02*
X220714285Y-142954819D01*
X220476190Y-141907200D02*
X220238095Y-142621485D01*
X220238095Y-142621485D02*
X220857142Y-142621485D01*
X104238095Y-141954819D02*
X104238095Y-142764342D01*
X104238095Y-142764342D02*
X104285714Y-142859580D01*
X104285714Y-142859580D02*
X104333333Y-142907200D01*
X104333333Y-142907200D02*
X104428571Y-142954819D01*
X104428571Y-142954819D02*
X104619047Y-142954819D01*
X104619047Y-142954819D02*
X104714285Y-142907200D01*
X104714285Y-142907200D02*
X104761904Y-142859580D01*
X104761904Y-142859580D02*
X104809523Y-142764342D01*
X104809523Y-142764342D02*
X104809523Y-141954819D01*
X105809523Y-142954819D02*
X105238095Y-142954819D01*
X105523809Y-142954819D02*
X105523809Y-141954819D01*
X105523809Y-141954819D02*
X105428571Y-142097676D01*
X105428571Y-142097676D02*
X105333333Y-142192914D01*
X105333333Y-142192914D02*
X105238095Y-142240533D01*
X157380952Y-161199580D02*
X157333333Y-161247200D01*
X157333333Y-161247200D02*
X157190476Y-161294819D01*
X157190476Y-161294819D02*
X157095238Y-161294819D01*
X157095238Y-161294819D02*
X156952381Y-161247200D01*
X156952381Y-161247200D02*
X156857143Y-161151961D01*
X156857143Y-161151961D02*
X156809524Y-161056723D01*
X156809524Y-161056723D02*
X156761905Y-160866247D01*
X156761905Y-160866247D02*
X156761905Y-160723390D01*
X156761905Y-160723390D02*
X156809524Y-160532914D01*
X156809524Y-160532914D02*
X156857143Y-160437676D01*
X156857143Y-160437676D02*
X156952381Y-160342438D01*
X156952381Y-160342438D02*
X157095238Y-160294819D01*
X157095238Y-160294819D02*
X157190476Y-160294819D01*
X157190476Y-160294819D02*
X157333333Y-160342438D01*
X157333333Y-160342438D02*
X157380952Y-160390057D01*
X158238095Y-160628152D02*
X158238095Y-161294819D01*
X158000000Y-160247200D02*
X157761905Y-160961485D01*
X157761905Y-160961485D02*
X158380952Y-160961485D01*
X158761905Y-161294819D02*
X158761905Y-160294819D01*
X158761905Y-160675771D02*
X158857143Y-160628152D01*
X158857143Y-160628152D02*
X159047619Y-160628152D01*
X159047619Y-160628152D02*
X159142857Y-160675771D01*
X159142857Y-160675771D02*
X159190476Y-160723390D01*
X159190476Y-160723390D02*
X159238095Y-160818628D01*
X159238095Y-160818628D02*
X159238095Y-161104342D01*
X159238095Y-161104342D02*
X159190476Y-161199580D01*
X159190476Y-161199580D02*
X159142857Y-161247200D01*
X159142857Y-161247200D02*
X159047619Y-161294819D01*
X159047619Y-161294819D02*
X158857143Y-161294819D01*
X158857143Y-161294819D02*
X158761905Y-161247200D01*
X28301666Y-167759819D02*
X28301666Y-168474104D01*
X28301666Y-168474104D02*
X28254047Y-168616961D01*
X28254047Y-168616961D02*
X28158809Y-168712200D01*
X28158809Y-168712200D02*
X28015952Y-168759819D01*
X28015952Y-168759819D02*
X27920714Y-168759819D01*
X29206428Y-167759819D02*
X29015952Y-167759819D01*
X29015952Y-167759819D02*
X28920714Y-167807438D01*
X28920714Y-167807438D02*
X28873095Y-167855057D01*
X28873095Y-167855057D02*
X28777857Y-167997914D01*
X28777857Y-167997914D02*
X28730238Y-168188390D01*
X28730238Y-168188390D02*
X28730238Y-168569342D01*
X28730238Y-168569342D02*
X28777857Y-168664580D01*
X28777857Y-168664580D02*
X28825476Y-168712200D01*
X28825476Y-168712200D02*
X28920714Y-168759819D01*
X28920714Y-168759819D02*
X29111190Y-168759819D01*
X29111190Y-168759819D02*
X29206428Y-168712200D01*
X29206428Y-168712200D02*
X29254047Y-168664580D01*
X29254047Y-168664580D02*
X29301666Y-168569342D01*
X29301666Y-168569342D02*
X29301666Y-168331247D01*
X29301666Y-168331247D02*
X29254047Y-168236009D01*
X29254047Y-168236009D02*
X29206428Y-168188390D01*
X29206428Y-168188390D02*
X29111190Y-168140771D01*
X29111190Y-168140771D02*
X28920714Y-168140771D01*
X28920714Y-168140771D02*
X28825476Y-168188390D01*
X28825476Y-168188390D02*
X28777857Y-168236009D01*
X28777857Y-168236009D02*
X28730238Y-168331247D01*
X148738095Y-276006819D02*
X149309523Y-276006819D01*
X149023809Y-277006819D02*
X149023809Y-276006819D01*
X149642857Y-277006819D02*
X149642857Y-276006819D01*
X149642857Y-276006819D02*
X150023809Y-276006819D01*
X150023809Y-276006819D02*
X150119047Y-276054438D01*
X150119047Y-276054438D02*
X150166666Y-276102057D01*
X150166666Y-276102057D02*
X150214285Y-276197295D01*
X150214285Y-276197295D02*
X150214285Y-276340152D01*
X150214285Y-276340152D02*
X150166666Y-276435390D01*
X150166666Y-276435390D02*
X150119047Y-276483009D01*
X150119047Y-276483009D02*
X150023809Y-276530628D01*
X150023809Y-276530628D02*
X149642857Y-276530628D01*
X150547619Y-276006819D02*
X151214285Y-276006819D01*
X151214285Y-276006819D02*
X150785714Y-277006819D01*
X88738095Y-276006819D02*
X89309523Y-276006819D01*
X89023809Y-277006819D02*
X89023809Y-276006819D01*
X89642857Y-277006819D02*
X89642857Y-276006819D01*
X89642857Y-276006819D02*
X90023809Y-276006819D01*
X90023809Y-276006819D02*
X90119047Y-276054438D01*
X90119047Y-276054438D02*
X90166666Y-276102057D01*
X90166666Y-276102057D02*
X90214285Y-276197295D01*
X90214285Y-276197295D02*
X90214285Y-276340152D01*
X90214285Y-276340152D02*
X90166666Y-276435390D01*
X90166666Y-276435390D02*
X90119047Y-276483009D01*
X90119047Y-276483009D02*
X90023809Y-276530628D01*
X90023809Y-276530628D02*
X89642857Y-276530628D01*
X90547619Y-276006819D02*
X91166666Y-276006819D01*
X91166666Y-276006819D02*
X90833333Y-276387771D01*
X90833333Y-276387771D02*
X90976190Y-276387771D01*
X90976190Y-276387771D02*
X91071428Y-276435390D01*
X91071428Y-276435390D02*
X91119047Y-276483009D01*
X91119047Y-276483009D02*
X91166666Y-276578247D01*
X91166666Y-276578247D02*
X91166666Y-276816342D01*
X91166666Y-276816342D02*
X91119047Y-276911580D01*
X91119047Y-276911580D02*
X91071428Y-276959200D01*
X91071428Y-276959200D02*
X90976190Y-277006819D01*
X90976190Y-277006819D02*
X90690476Y-277006819D01*
X90690476Y-277006819D02*
X90595238Y-276959200D01*
X90595238Y-276959200D02*
X90547619Y-276911580D01*
X33999999Y-206284819D02*
X33666666Y-205808628D01*
X33428571Y-206284819D02*
X33428571Y-205284819D01*
X33428571Y-205284819D02*
X33809523Y-205284819D01*
X33809523Y-205284819D02*
X33904761Y-205332438D01*
X33904761Y-205332438D02*
X33952380Y-205380057D01*
X33952380Y-205380057D02*
X33999999Y-205475295D01*
X33999999Y-205475295D02*
X33999999Y-205618152D01*
X33999999Y-205618152D02*
X33952380Y-205713390D01*
X33952380Y-205713390D02*
X33904761Y-205761009D01*
X33904761Y-205761009D02*
X33809523Y-205808628D01*
X33809523Y-205808628D02*
X33428571Y-205808628D01*
X34904761Y-205284819D02*
X34428571Y-205284819D01*
X34428571Y-205284819D02*
X34380952Y-205761009D01*
X34380952Y-205761009D02*
X34428571Y-205713390D01*
X34428571Y-205713390D02*
X34523809Y-205665771D01*
X34523809Y-205665771D02*
X34761904Y-205665771D01*
X34761904Y-205665771D02*
X34857142Y-205713390D01*
X34857142Y-205713390D02*
X34904761Y-205761009D01*
X34904761Y-205761009D02*
X34952380Y-205856247D01*
X34952380Y-205856247D02*
X34952380Y-206094342D01*
X34952380Y-206094342D02*
X34904761Y-206189580D01*
X34904761Y-206189580D02*
X34857142Y-206237200D01*
X34857142Y-206237200D02*
X34761904Y-206284819D01*
X34761904Y-206284819D02*
X34523809Y-206284819D01*
X34523809Y-206284819D02*
X34428571Y-206237200D01*
X34428571Y-206237200D02*
X34380952Y-206189580D01*
X35142857Y-206380057D02*
X35904761Y-206380057D01*
X36142857Y-206284819D02*
X36142857Y-205284819D01*
X36142857Y-205665771D02*
X36238095Y-205618152D01*
X36238095Y-205618152D02*
X36428571Y-205618152D01*
X36428571Y-205618152D02*
X36523809Y-205665771D01*
X36523809Y-205665771D02*
X36571428Y-205713390D01*
X36571428Y-205713390D02*
X36619047Y-205808628D01*
X36619047Y-205808628D02*
X36619047Y-206094342D01*
X36619047Y-206094342D02*
X36571428Y-206189580D01*
X36571428Y-206189580D02*
X36523809Y-206237200D01*
X36523809Y-206237200D02*
X36428571Y-206284819D01*
X36428571Y-206284819D02*
X36238095Y-206284819D01*
X36238095Y-206284819D02*
X36142857Y-206237200D01*
X28301666Y-145759819D02*
X28301666Y-146474104D01*
X28301666Y-146474104D02*
X28254047Y-146616961D01*
X28254047Y-146616961D02*
X28158809Y-146712200D01*
X28158809Y-146712200D02*
X28015952Y-146759819D01*
X28015952Y-146759819D02*
X27920714Y-146759819D01*
X29254047Y-145759819D02*
X28777857Y-145759819D01*
X28777857Y-145759819D02*
X28730238Y-146236009D01*
X28730238Y-146236009D02*
X28777857Y-146188390D01*
X28777857Y-146188390D02*
X28873095Y-146140771D01*
X28873095Y-146140771D02*
X29111190Y-146140771D01*
X29111190Y-146140771D02*
X29206428Y-146188390D01*
X29206428Y-146188390D02*
X29254047Y-146236009D01*
X29254047Y-146236009D02*
X29301666Y-146331247D01*
X29301666Y-146331247D02*
X29301666Y-146569342D01*
X29301666Y-146569342D02*
X29254047Y-146664580D01*
X29254047Y-146664580D02*
X29206428Y-146712200D01*
X29206428Y-146712200D02*
X29111190Y-146759819D01*
X29111190Y-146759819D02*
X28873095Y-146759819D01*
X28873095Y-146759819D02*
X28777857Y-146712200D01*
X28777857Y-146712200D02*
X28730238Y-146664580D01*
X268761905Y-205654819D02*
X268761905Y-206464342D01*
X268761905Y-206464342D02*
X268809524Y-206559580D01*
X268809524Y-206559580D02*
X268857143Y-206607200D01*
X268857143Y-206607200D02*
X268952381Y-206654819D01*
X268952381Y-206654819D02*
X269142857Y-206654819D01*
X269142857Y-206654819D02*
X269238095Y-206607200D01*
X269238095Y-206607200D02*
X269285714Y-206559580D01*
X269285714Y-206559580D02*
X269333333Y-206464342D01*
X269333333Y-206464342D02*
X269333333Y-205654819D01*
X269761905Y-205750057D02*
X269809524Y-205702438D01*
X269809524Y-205702438D02*
X269904762Y-205654819D01*
X269904762Y-205654819D02*
X270142857Y-205654819D01*
X270142857Y-205654819D02*
X270238095Y-205702438D01*
X270238095Y-205702438D02*
X270285714Y-205750057D01*
X270285714Y-205750057D02*
X270333333Y-205845295D01*
X270333333Y-205845295D02*
X270333333Y-205940533D01*
X270333333Y-205940533D02*
X270285714Y-206083390D01*
X270285714Y-206083390D02*
X269714286Y-206654819D01*
X269714286Y-206654819D02*
X270333333Y-206654819D01*
X270714286Y-205750057D02*
X270761905Y-205702438D01*
X270761905Y-205702438D02*
X270857143Y-205654819D01*
X270857143Y-205654819D02*
X271095238Y-205654819D01*
X271095238Y-205654819D02*
X271190476Y-205702438D01*
X271190476Y-205702438D02*
X271238095Y-205750057D01*
X271238095Y-205750057D02*
X271285714Y-205845295D01*
X271285714Y-205845295D02*
X271285714Y-205940533D01*
X271285714Y-205940533D02*
X271238095Y-206083390D01*
X271238095Y-206083390D02*
X270666667Y-206654819D01*
X270666667Y-206654819D02*
X271285714Y-206654819D01*
X115494819Y-25333333D02*
X116209104Y-25333333D01*
X116209104Y-25333333D02*
X116351961Y-25380952D01*
X116351961Y-25380952D02*
X116447200Y-25476190D01*
X116447200Y-25476190D02*
X116494819Y-25619047D01*
X116494819Y-25619047D02*
X116494819Y-25714285D01*
X115923390Y-24714285D02*
X115875771Y-24809523D01*
X115875771Y-24809523D02*
X115828152Y-24857142D01*
X115828152Y-24857142D02*
X115732914Y-24904761D01*
X115732914Y-24904761D02*
X115685295Y-24904761D01*
X115685295Y-24904761D02*
X115590057Y-24857142D01*
X115590057Y-24857142D02*
X115542438Y-24809523D01*
X115542438Y-24809523D02*
X115494819Y-24714285D01*
X115494819Y-24714285D02*
X115494819Y-24523809D01*
X115494819Y-24523809D02*
X115542438Y-24428571D01*
X115542438Y-24428571D02*
X115590057Y-24380952D01*
X115590057Y-24380952D02*
X115685295Y-24333333D01*
X115685295Y-24333333D02*
X115732914Y-24333333D01*
X115732914Y-24333333D02*
X115828152Y-24380952D01*
X115828152Y-24380952D02*
X115875771Y-24428571D01*
X115875771Y-24428571D02*
X115923390Y-24523809D01*
X115923390Y-24523809D02*
X115923390Y-24714285D01*
X115923390Y-24714285D02*
X115971009Y-24809523D01*
X115971009Y-24809523D02*
X116018628Y-24857142D01*
X116018628Y-24857142D02*
X116113866Y-24904761D01*
X116113866Y-24904761D02*
X116304342Y-24904761D01*
X116304342Y-24904761D02*
X116399580Y-24857142D01*
X116399580Y-24857142D02*
X116447200Y-24809523D01*
X116447200Y-24809523D02*
X116494819Y-24714285D01*
X116494819Y-24714285D02*
X116494819Y-24523809D01*
X116494819Y-24523809D02*
X116447200Y-24428571D01*
X116447200Y-24428571D02*
X116399580Y-24380952D01*
X116399580Y-24380952D02*
X116304342Y-24333333D01*
X116304342Y-24333333D02*
X116113866Y-24333333D01*
X116113866Y-24333333D02*
X116018628Y-24380952D01*
X116018628Y-24380952D02*
X115971009Y-24428571D01*
X115971009Y-24428571D02*
X115923390Y-24523809D01*
X230494819Y-25809523D02*
X231209104Y-25809523D01*
X231209104Y-25809523D02*
X231351961Y-25857142D01*
X231351961Y-25857142D02*
X231447200Y-25952380D01*
X231447200Y-25952380D02*
X231494819Y-26095237D01*
X231494819Y-26095237D02*
X231494819Y-26190475D01*
X231494819Y-24809523D02*
X231494819Y-25380951D01*
X231494819Y-25095237D02*
X230494819Y-25095237D01*
X230494819Y-25095237D02*
X230637676Y-25190475D01*
X230637676Y-25190475D02*
X230732914Y-25285713D01*
X230732914Y-25285713D02*
X230780533Y-25380951D01*
X230494819Y-24190475D02*
X230494819Y-24095237D01*
X230494819Y-24095237D02*
X230542438Y-23999999D01*
X230542438Y-23999999D02*
X230590057Y-23952380D01*
X230590057Y-23952380D02*
X230685295Y-23904761D01*
X230685295Y-23904761D02*
X230875771Y-23857142D01*
X230875771Y-23857142D02*
X231113866Y-23857142D01*
X231113866Y-23857142D02*
X231304342Y-23904761D01*
X231304342Y-23904761D02*
X231399580Y-23952380D01*
X231399580Y-23952380D02*
X231447200Y-23999999D01*
X231447200Y-23999999D02*
X231494819Y-24095237D01*
X231494819Y-24095237D02*
X231494819Y-24190475D01*
X231494819Y-24190475D02*
X231447200Y-24285713D01*
X231447200Y-24285713D02*
X231399580Y-24333332D01*
X231399580Y-24333332D02*
X231304342Y-24380951D01*
X231304342Y-24380951D02*
X231113866Y-24428570D01*
X231113866Y-24428570D02*
X230875771Y-24428570D01*
X230875771Y-24428570D02*
X230685295Y-24380951D01*
X230685295Y-24380951D02*
X230590057Y-24333332D01*
X230590057Y-24333332D02*
X230542438Y-24285713D01*
X230542438Y-24285713D02*
X230494819Y-24190475D01*
X85494819Y-25333333D02*
X86209104Y-25333333D01*
X86209104Y-25333333D02*
X86351961Y-25380952D01*
X86351961Y-25380952D02*
X86447200Y-25476190D01*
X86447200Y-25476190D02*
X86494819Y-25619047D01*
X86494819Y-25619047D02*
X86494819Y-25714285D01*
X85494819Y-24952380D02*
X85494819Y-24285714D01*
X85494819Y-24285714D02*
X86494819Y-24714285D01*
X306666667Y-13254819D02*
X306666667Y-12254819D01*
X306666667Y-12254819D02*
X307000000Y-12969104D01*
X307000000Y-12969104D02*
X307333333Y-12254819D01*
X307333333Y-12254819D02*
X307333333Y-13254819D01*
X307809524Y-13254819D02*
X307809524Y-12254819D01*
X307809524Y-12731009D02*
X308380952Y-12731009D01*
X308380952Y-13254819D02*
X308380952Y-12254819D01*
X308809524Y-12350057D02*
X308857143Y-12302438D01*
X308857143Y-12302438D02*
X308952381Y-12254819D01*
X308952381Y-12254819D02*
X309190476Y-12254819D01*
X309190476Y-12254819D02*
X309285714Y-12302438D01*
X309285714Y-12302438D02*
X309333333Y-12350057D01*
X309333333Y-12350057D02*
X309380952Y-12445295D01*
X309380952Y-12445295D02*
X309380952Y-12540533D01*
X309380952Y-12540533D02*
X309333333Y-12683390D01*
X309333333Y-12683390D02*
X308761905Y-13254819D01*
X308761905Y-13254819D02*
X309380952Y-13254819D01*
X154357142Y-267199580D02*
X154309523Y-267247200D01*
X154309523Y-267247200D02*
X154166666Y-267294819D01*
X154166666Y-267294819D02*
X154071428Y-267294819D01*
X154071428Y-267294819D02*
X153928571Y-267247200D01*
X153928571Y-267247200D02*
X153833333Y-267151961D01*
X153833333Y-267151961D02*
X153785714Y-267056723D01*
X153785714Y-267056723D02*
X153738095Y-266866247D01*
X153738095Y-266866247D02*
X153738095Y-266723390D01*
X153738095Y-266723390D02*
X153785714Y-266532914D01*
X153785714Y-266532914D02*
X153833333Y-266437676D01*
X153833333Y-266437676D02*
X153928571Y-266342438D01*
X153928571Y-266342438D02*
X154071428Y-266294819D01*
X154071428Y-266294819D02*
X154166666Y-266294819D01*
X154166666Y-266294819D02*
X154309523Y-266342438D01*
X154309523Y-266342438D02*
X154357142Y-266390057D01*
X155214285Y-266628152D02*
X155214285Y-267294819D01*
X154976190Y-266247200D02*
X154738095Y-266961485D01*
X154738095Y-266961485D02*
X155357142Y-266961485D01*
X156166666Y-266628152D02*
X156166666Y-267294819D01*
X155928571Y-266247200D02*
X155690476Y-266961485D01*
X155690476Y-266961485D02*
X156309523Y-266961485D01*
X15666667Y-13254819D02*
X15666667Y-12254819D01*
X15666667Y-12254819D02*
X16000000Y-12969104D01*
X16000000Y-12969104D02*
X16333333Y-12254819D01*
X16333333Y-12254819D02*
X16333333Y-13254819D01*
X16809524Y-13254819D02*
X16809524Y-12254819D01*
X16809524Y-12731009D02*
X17380952Y-12731009D01*
X17380952Y-13254819D02*
X17380952Y-12254819D01*
X18380952Y-13254819D02*
X17809524Y-13254819D01*
X18095238Y-13254819D02*
X18095238Y-12254819D01*
X18095238Y-12254819D02*
X18000000Y-12397676D01*
X18000000Y-12397676D02*
X17904762Y-12492914D01*
X17904762Y-12492914D02*
X17809524Y-12540533D01*
X149357142Y-267199580D02*
X149309523Y-267247200D01*
X149309523Y-267247200D02*
X149166666Y-267294819D01*
X149166666Y-267294819D02*
X149071428Y-267294819D01*
X149071428Y-267294819D02*
X148928571Y-267247200D01*
X148928571Y-267247200D02*
X148833333Y-267151961D01*
X148833333Y-267151961D02*
X148785714Y-267056723D01*
X148785714Y-267056723D02*
X148738095Y-266866247D01*
X148738095Y-266866247D02*
X148738095Y-266723390D01*
X148738095Y-266723390D02*
X148785714Y-266532914D01*
X148785714Y-266532914D02*
X148833333Y-266437676D01*
X148833333Y-266437676D02*
X148928571Y-266342438D01*
X148928571Y-266342438D02*
X149071428Y-266294819D01*
X149071428Y-266294819D02*
X149166666Y-266294819D01*
X149166666Y-266294819D02*
X149309523Y-266342438D01*
X149309523Y-266342438D02*
X149357142Y-266390057D01*
X150214285Y-266628152D02*
X150214285Y-267294819D01*
X149976190Y-266247200D02*
X149738095Y-266961485D01*
X149738095Y-266961485D02*
X150357142Y-266961485D01*
X150642857Y-266294819D02*
X151261904Y-266294819D01*
X151261904Y-266294819D02*
X150928571Y-266675771D01*
X150928571Y-266675771D02*
X151071428Y-266675771D01*
X151071428Y-266675771D02*
X151166666Y-266723390D01*
X151166666Y-266723390D02*
X151214285Y-266771009D01*
X151214285Y-266771009D02*
X151261904Y-266866247D01*
X151261904Y-266866247D02*
X151261904Y-267104342D01*
X151261904Y-267104342D02*
X151214285Y-267199580D01*
X151214285Y-267199580D02*
X151166666Y-267247200D01*
X151166666Y-267247200D02*
X151071428Y-267294819D01*
X151071428Y-267294819D02*
X150785714Y-267294819D01*
X150785714Y-267294819D02*
X150690476Y-267247200D01*
X150690476Y-267247200D02*
X150642857Y-267199580D01*
X144357142Y-267199580D02*
X144309523Y-267247200D01*
X144309523Y-267247200D02*
X144166666Y-267294819D01*
X144166666Y-267294819D02*
X144071428Y-267294819D01*
X144071428Y-267294819D02*
X143928571Y-267247200D01*
X143928571Y-267247200D02*
X143833333Y-267151961D01*
X143833333Y-267151961D02*
X143785714Y-267056723D01*
X143785714Y-267056723D02*
X143738095Y-266866247D01*
X143738095Y-266866247D02*
X143738095Y-266723390D01*
X143738095Y-266723390D02*
X143785714Y-266532914D01*
X143785714Y-266532914D02*
X143833333Y-266437676D01*
X143833333Y-266437676D02*
X143928571Y-266342438D01*
X143928571Y-266342438D02*
X144071428Y-266294819D01*
X144071428Y-266294819D02*
X144166666Y-266294819D01*
X144166666Y-266294819D02*
X144309523Y-266342438D01*
X144309523Y-266342438D02*
X144357142Y-266390057D01*
X145214285Y-266628152D02*
X145214285Y-267294819D01*
X144976190Y-266247200D02*
X144738095Y-266961485D01*
X144738095Y-266961485D02*
X145357142Y-266961485D01*
X145690476Y-266390057D02*
X145738095Y-266342438D01*
X145738095Y-266342438D02*
X145833333Y-266294819D01*
X145833333Y-266294819D02*
X146071428Y-266294819D01*
X146071428Y-266294819D02*
X146166666Y-266342438D01*
X146166666Y-266342438D02*
X146214285Y-266390057D01*
X146214285Y-266390057D02*
X146261904Y-266485295D01*
X146261904Y-266485295D02*
X146261904Y-266580533D01*
X146261904Y-266580533D02*
X146214285Y-266723390D01*
X146214285Y-266723390D02*
X145642857Y-267294819D01*
X145642857Y-267294819D02*
X146261904Y-267294819D01*
X159357142Y-174199580D02*
X159309523Y-174247200D01*
X159309523Y-174247200D02*
X159166666Y-174294819D01*
X159166666Y-174294819D02*
X159071428Y-174294819D01*
X159071428Y-174294819D02*
X158928571Y-174247200D01*
X158928571Y-174247200D02*
X158833333Y-174151961D01*
X158833333Y-174151961D02*
X158785714Y-174056723D01*
X158785714Y-174056723D02*
X158738095Y-173866247D01*
X158738095Y-173866247D02*
X158738095Y-173723390D01*
X158738095Y-173723390D02*
X158785714Y-173532914D01*
X158785714Y-173532914D02*
X158833333Y-173437676D01*
X158833333Y-173437676D02*
X158928571Y-173342438D01*
X158928571Y-173342438D02*
X159071428Y-173294819D01*
X159071428Y-173294819D02*
X159166666Y-173294819D01*
X159166666Y-173294819D02*
X159309523Y-173342438D01*
X159309523Y-173342438D02*
X159357142Y-173390057D01*
X159690476Y-173294819D02*
X160309523Y-173294819D01*
X160309523Y-173294819D02*
X159976190Y-173675771D01*
X159976190Y-173675771D02*
X160119047Y-173675771D01*
X160119047Y-173675771D02*
X160214285Y-173723390D01*
X160214285Y-173723390D02*
X160261904Y-173771009D01*
X160261904Y-173771009D02*
X160309523Y-173866247D01*
X160309523Y-173866247D02*
X160309523Y-174104342D01*
X160309523Y-174104342D02*
X160261904Y-174199580D01*
X160261904Y-174199580D02*
X160214285Y-174247200D01*
X160214285Y-174247200D02*
X160119047Y-174294819D01*
X160119047Y-174294819D02*
X159833333Y-174294819D01*
X159833333Y-174294819D02*
X159738095Y-174247200D01*
X159738095Y-174247200D02*
X159690476Y-174199580D01*
X161166666Y-173628152D02*
X161166666Y-174294819D01*
X160928571Y-173247200D02*
X160690476Y-173961485D01*
X160690476Y-173961485D02*
X161309523Y-173961485D01*
X138761905Y-252054819D02*
X138761905Y-252864342D01*
X138761905Y-252864342D02*
X138809524Y-252959580D01*
X138809524Y-252959580D02*
X138857143Y-253007200D01*
X138857143Y-253007200D02*
X138952381Y-253054819D01*
X138952381Y-253054819D02*
X139142857Y-253054819D01*
X139142857Y-253054819D02*
X139238095Y-253007200D01*
X139238095Y-253007200D02*
X139285714Y-252959580D01*
X139285714Y-252959580D02*
X139333333Y-252864342D01*
X139333333Y-252864342D02*
X139333333Y-252054819D01*
X140333333Y-253054819D02*
X139761905Y-253054819D01*
X140047619Y-253054819D02*
X140047619Y-252054819D01*
X140047619Y-252054819D02*
X139952381Y-252197676D01*
X139952381Y-252197676D02*
X139857143Y-252292914D01*
X139857143Y-252292914D02*
X139761905Y-252340533D01*
X141285714Y-253054819D02*
X140714286Y-253054819D01*
X141000000Y-253054819D02*
X141000000Y-252054819D01*
X141000000Y-252054819D02*
X140904762Y-252197676D01*
X140904762Y-252197676D02*
X140809524Y-252292914D01*
X140809524Y-252292914D02*
X140714286Y-252340533D01*
X253809524Y-183604819D02*
X253809524Y-182604819D01*
X253809524Y-182604819D02*
X254047619Y-182604819D01*
X254047619Y-182604819D02*
X254190476Y-182652438D01*
X254190476Y-182652438D02*
X254285714Y-182747676D01*
X254285714Y-182747676D02*
X254333333Y-182842914D01*
X254333333Y-182842914D02*
X254380952Y-183033390D01*
X254380952Y-183033390D02*
X254380952Y-183176247D01*
X254380952Y-183176247D02*
X254333333Y-183366723D01*
X254333333Y-183366723D02*
X254285714Y-183461961D01*
X254285714Y-183461961D02*
X254190476Y-183557200D01*
X254190476Y-183557200D02*
X254047619Y-183604819D01*
X254047619Y-183604819D02*
X253809524Y-183604819D01*
X255285714Y-182604819D02*
X254809524Y-182604819D01*
X254809524Y-182604819D02*
X254761905Y-183081009D01*
X254761905Y-183081009D02*
X254809524Y-183033390D01*
X254809524Y-183033390D02*
X254904762Y-182985771D01*
X254904762Y-182985771D02*
X255142857Y-182985771D01*
X255142857Y-182985771D02*
X255238095Y-183033390D01*
X255238095Y-183033390D02*
X255285714Y-183081009D01*
X255285714Y-183081009D02*
X255333333Y-183176247D01*
X255333333Y-183176247D02*
X255333333Y-183414342D01*
X255333333Y-183414342D02*
X255285714Y-183509580D01*
X255285714Y-183509580D02*
X255238095Y-183557200D01*
X255238095Y-183557200D02*
X255142857Y-183604819D01*
X255142857Y-183604819D02*
X254904762Y-183604819D01*
X254904762Y-183604819D02*
X254809524Y-183557200D01*
X254809524Y-183557200D02*
X254761905Y-183509580D01*
X255761905Y-183604819D02*
X255761905Y-182604819D01*
X255761905Y-182985771D02*
X255857143Y-182938152D01*
X255857143Y-182938152D02*
X256047619Y-182938152D01*
X256047619Y-182938152D02*
X256142857Y-182985771D01*
X256142857Y-182985771D02*
X256190476Y-183033390D01*
X256190476Y-183033390D02*
X256238095Y-183128628D01*
X256238095Y-183128628D02*
X256238095Y-183414342D01*
X256238095Y-183414342D02*
X256190476Y-183509580D01*
X256190476Y-183509580D02*
X256142857Y-183557200D01*
X256142857Y-183557200D02*
X256047619Y-183604819D01*
X256047619Y-183604819D02*
X255857143Y-183604819D01*
X255857143Y-183604819D02*
X255761905Y-183557200D01*
X161532380Y-147309726D02*
X161532380Y-148337821D01*
X161532380Y-148337821D02*
X161592857Y-148458773D01*
X161592857Y-148458773D02*
X161653333Y-148519250D01*
X161653333Y-148519250D02*
X161774285Y-148579726D01*
X161774285Y-148579726D02*
X162016190Y-148579726D01*
X162016190Y-148579726D02*
X162137142Y-148519250D01*
X162137142Y-148519250D02*
X162197619Y-148458773D01*
X162197619Y-148458773D02*
X162258095Y-148337821D01*
X162258095Y-148337821D02*
X162258095Y-147309726D01*
X162802380Y-147430678D02*
X162862856Y-147370202D01*
X162862856Y-147370202D02*
X162983809Y-147309726D01*
X162983809Y-147309726D02*
X163286190Y-147309726D01*
X163286190Y-147309726D02*
X163407142Y-147370202D01*
X163407142Y-147370202D02*
X163467618Y-147430678D01*
X163467618Y-147430678D02*
X163528095Y-147551630D01*
X163528095Y-147551630D02*
X163528095Y-147672583D01*
X163528095Y-147672583D02*
X163467618Y-147854011D01*
X163467618Y-147854011D02*
X162741904Y-148579726D01*
X162741904Y-148579726D02*
X163528095Y-148579726D01*
X161641905Y-212554819D02*
X161641905Y-213364342D01*
X161641905Y-213364342D02*
X161689524Y-213459580D01*
X161689524Y-213459580D02*
X161737143Y-213507200D01*
X161737143Y-213507200D02*
X161832381Y-213554819D01*
X161832381Y-213554819D02*
X162022857Y-213554819D01*
X162022857Y-213554819D02*
X162118095Y-213507200D01*
X162118095Y-213507200D02*
X162165714Y-213459580D01*
X162165714Y-213459580D02*
X162213333Y-213364342D01*
X162213333Y-213364342D02*
X162213333Y-212554819D01*
X162641905Y-212650057D02*
X162689524Y-212602438D01*
X162689524Y-212602438D02*
X162784762Y-212554819D01*
X162784762Y-212554819D02*
X163022857Y-212554819D01*
X163022857Y-212554819D02*
X163118095Y-212602438D01*
X163118095Y-212602438D02*
X163165714Y-212650057D01*
X163165714Y-212650057D02*
X163213333Y-212745295D01*
X163213333Y-212745295D02*
X163213333Y-212840533D01*
X163213333Y-212840533D02*
X163165714Y-212983390D01*
X163165714Y-212983390D02*
X162594286Y-213554819D01*
X162594286Y-213554819D02*
X163213333Y-213554819D01*
X164118095Y-212554819D02*
X163641905Y-212554819D01*
X163641905Y-212554819D02*
X163594286Y-213031009D01*
X163594286Y-213031009D02*
X163641905Y-212983390D01*
X163641905Y-212983390D02*
X163737143Y-212935771D01*
X163737143Y-212935771D02*
X163975238Y-212935771D01*
X163975238Y-212935771D02*
X164070476Y-212983390D01*
X164070476Y-212983390D02*
X164118095Y-213031009D01*
X164118095Y-213031009D02*
X164165714Y-213126247D01*
X164165714Y-213126247D02*
X164165714Y-213364342D01*
X164165714Y-213364342D02*
X164118095Y-213459580D01*
X164118095Y-213459580D02*
X164070476Y-213507200D01*
X164070476Y-213507200D02*
X163975238Y-213554819D01*
X163975238Y-213554819D02*
X163737143Y-213554819D01*
X163737143Y-213554819D02*
X163641905Y-213507200D01*
X163641905Y-213507200D02*
X163594286Y-213459580D01*
X100023809Y-124199580D02*
X99976190Y-124247200D01*
X99976190Y-124247200D02*
X99833333Y-124294819D01*
X99833333Y-124294819D02*
X99738095Y-124294819D01*
X99738095Y-124294819D02*
X99595238Y-124247200D01*
X99595238Y-124247200D02*
X99500000Y-124151961D01*
X99500000Y-124151961D02*
X99452381Y-124056723D01*
X99452381Y-124056723D02*
X99404762Y-123866247D01*
X99404762Y-123866247D02*
X99404762Y-123723390D01*
X99404762Y-123723390D02*
X99452381Y-123532914D01*
X99452381Y-123532914D02*
X99500000Y-123437676D01*
X99500000Y-123437676D02*
X99595238Y-123342438D01*
X99595238Y-123342438D02*
X99738095Y-123294819D01*
X99738095Y-123294819D02*
X99833333Y-123294819D01*
X99833333Y-123294819D02*
X99976190Y-123342438D01*
X99976190Y-123342438D02*
X100023809Y-123390057D01*
X100976190Y-124294819D02*
X100404762Y-124294819D01*
X100690476Y-124294819D02*
X100690476Y-123294819D01*
X100690476Y-123294819D02*
X100595238Y-123437676D01*
X100595238Y-123437676D02*
X100500000Y-123532914D01*
X100500000Y-123532914D02*
X100404762Y-123580533D01*
X101595238Y-123294819D02*
X101690476Y-123294819D01*
X101690476Y-123294819D02*
X101785714Y-123342438D01*
X101785714Y-123342438D02*
X101833333Y-123390057D01*
X101833333Y-123390057D02*
X101880952Y-123485295D01*
X101880952Y-123485295D02*
X101928571Y-123675771D01*
X101928571Y-123675771D02*
X101928571Y-123913866D01*
X101928571Y-123913866D02*
X101880952Y-124104342D01*
X101880952Y-124104342D02*
X101833333Y-124199580D01*
X101833333Y-124199580D02*
X101785714Y-124247200D01*
X101785714Y-124247200D02*
X101690476Y-124294819D01*
X101690476Y-124294819D02*
X101595238Y-124294819D01*
X101595238Y-124294819D02*
X101500000Y-124247200D01*
X101500000Y-124247200D02*
X101452381Y-124199580D01*
X101452381Y-124199580D02*
X101404762Y-124104342D01*
X101404762Y-124104342D02*
X101357143Y-123913866D01*
X101357143Y-123913866D02*
X101357143Y-123675771D01*
X101357143Y-123675771D02*
X101404762Y-123485295D01*
X101404762Y-123485295D02*
X101452381Y-123390057D01*
X101452381Y-123390057D02*
X101500000Y-123342438D01*
X101500000Y-123342438D02*
X101595238Y-123294819D01*
X102119048Y-124390057D02*
X102880952Y-124390057D01*
X103547619Y-124294819D02*
X103547619Y-123294819D01*
X103547619Y-124247200D02*
X103452381Y-124294819D01*
X103452381Y-124294819D02*
X103261905Y-124294819D01*
X103261905Y-124294819D02*
X103166667Y-124247200D01*
X103166667Y-124247200D02*
X103119048Y-124199580D01*
X103119048Y-124199580D02*
X103071429Y-124104342D01*
X103071429Y-124104342D02*
X103071429Y-123818628D01*
X103071429Y-123818628D02*
X103119048Y-123723390D01*
X103119048Y-123723390D02*
X103166667Y-123675771D01*
X103166667Y-123675771D02*
X103261905Y-123628152D01*
X103261905Y-123628152D02*
X103452381Y-123628152D01*
X103452381Y-123628152D02*
X103547619Y-123675771D01*
X36761905Y-251054819D02*
X36761905Y-251864342D01*
X36761905Y-251864342D02*
X36809524Y-251959580D01*
X36809524Y-251959580D02*
X36857143Y-252007200D01*
X36857143Y-252007200D02*
X36952381Y-252054819D01*
X36952381Y-252054819D02*
X37142857Y-252054819D01*
X37142857Y-252054819D02*
X37238095Y-252007200D01*
X37238095Y-252007200D02*
X37285714Y-251959580D01*
X37285714Y-251959580D02*
X37333333Y-251864342D01*
X37333333Y-251864342D02*
X37333333Y-251054819D01*
X38333333Y-252054819D02*
X37761905Y-252054819D01*
X38047619Y-252054819D02*
X38047619Y-251054819D01*
X38047619Y-251054819D02*
X37952381Y-251197676D01*
X37952381Y-251197676D02*
X37857143Y-251292914D01*
X37857143Y-251292914D02*
X37761905Y-251340533D01*
X39238095Y-251054819D02*
X38761905Y-251054819D01*
X38761905Y-251054819D02*
X38714286Y-251531009D01*
X38714286Y-251531009D02*
X38761905Y-251483390D01*
X38761905Y-251483390D02*
X38857143Y-251435771D01*
X38857143Y-251435771D02*
X39095238Y-251435771D01*
X39095238Y-251435771D02*
X39190476Y-251483390D01*
X39190476Y-251483390D02*
X39238095Y-251531009D01*
X39238095Y-251531009D02*
X39285714Y-251626247D01*
X39285714Y-251626247D02*
X39285714Y-251864342D01*
X39285714Y-251864342D02*
X39238095Y-251959580D01*
X39238095Y-251959580D02*
X39190476Y-252007200D01*
X39190476Y-252007200D02*
X39095238Y-252054819D01*
X39095238Y-252054819D02*
X38857143Y-252054819D01*
X38857143Y-252054819D02*
X38761905Y-252007200D01*
X38761905Y-252007200D02*
X38714286Y-251959580D01*
X88761905Y-252054819D02*
X88761905Y-252864342D01*
X88761905Y-252864342D02*
X88809524Y-252959580D01*
X88809524Y-252959580D02*
X88857143Y-253007200D01*
X88857143Y-253007200D02*
X88952381Y-253054819D01*
X88952381Y-253054819D02*
X89142857Y-253054819D01*
X89142857Y-253054819D02*
X89238095Y-253007200D01*
X89238095Y-253007200D02*
X89285714Y-252959580D01*
X89285714Y-252959580D02*
X89333333Y-252864342D01*
X89333333Y-252864342D02*
X89333333Y-252054819D01*
X90333333Y-253054819D02*
X89761905Y-253054819D01*
X90047619Y-253054819D02*
X90047619Y-252054819D01*
X90047619Y-252054819D02*
X89952381Y-252197676D01*
X89952381Y-252197676D02*
X89857143Y-252292914D01*
X89857143Y-252292914D02*
X89761905Y-252340533D01*
X91190476Y-252388152D02*
X91190476Y-253054819D01*
X90952381Y-252007200D02*
X90714286Y-252721485D01*
X90714286Y-252721485D02*
X91333333Y-252721485D01*
X142857142Y-174199580D02*
X142809523Y-174247200D01*
X142809523Y-174247200D02*
X142666666Y-174294819D01*
X142666666Y-174294819D02*
X142571428Y-174294819D01*
X142571428Y-174294819D02*
X142428571Y-174247200D01*
X142428571Y-174247200D02*
X142333333Y-174151961D01*
X142333333Y-174151961D02*
X142285714Y-174056723D01*
X142285714Y-174056723D02*
X142238095Y-173866247D01*
X142238095Y-173866247D02*
X142238095Y-173723390D01*
X142238095Y-173723390D02*
X142285714Y-173532914D01*
X142285714Y-173532914D02*
X142333333Y-173437676D01*
X142333333Y-173437676D02*
X142428571Y-173342438D01*
X142428571Y-173342438D02*
X142571428Y-173294819D01*
X142571428Y-173294819D02*
X142666666Y-173294819D01*
X142666666Y-173294819D02*
X142809523Y-173342438D01*
X142809523Y-173342438D02*
X142857142Y-173390057D01*
X143190476Y-173294819D02*
X143809523Y-173294819D01*
X143809523Y-173294819D02*
X143476190Y-173675771D01*
X143476190Y-173675771D02*
X143619047Y-173675771D01*
X143619047Y-173675771D02*
X143714285Y-173723390D01*
X143714285Y-173723390D02*
X143761904Y-173771009D01*
X143761904Y-173771009D02*
X143809523Y-173866247D01*
X143809523Y-173866247D02*
X143809523Y-174104342D01*
X143809523Y-174104342D02*
X143761904Y-174199580D01*
X143761904Y-174199580D02*
X143714285Y-174247200D01*
X143714285Y-174247200D02*
X143619047Y-174294819D01*
X143619047Y-174294819D02*
X143333333Y-174294819D01*
X143333333Y-174294819D02*
X143238095Y-174247200D01*
X143238095Y-174247200D02*
X143190476Y-174199580D01*
X144761904Y-174294819D02*
X144190476Y-174294819D01*
X144476190Y-174294819D02*
X144476190Y-173294819D01*
X144476190Y-173294819D02*
X144380952Y-173437676D01*
X144380952Y-173437676D02*
X144285714Y-173532914D01*
X144285714Y-173532914D02*
X144190476Y-173580533D01*
X104380952Y-266679580D02*
X104333333Y-266727200D01*
X104333333Y-266727200D02*
X104190476Y-266774819D01*
X104190476Y-266774819D02*
X104095238Y-266774819D01*
X104095238Y-266774819D02*
X103952381Y-266727200D01*
X103952381Y-266727200D02*
X103857143Y-266631961D01*
X103857143Y-266631961D02*
X103809524Y-266536723D01*
X103809524Y-266536723D02*
X103761905Y-266346247D01*
X103761905Y-266346247D02*
X103761905Y-266203390D01*
X103761905Y-266203390D02*
X103809524Y-266012914D01*
X103809524Y-266012914D02*
X103857143Y-265917676D01*
X103857143Y-265917676D02*
X103952381Y-265822438D01*
X103952381Y-265822438D02*
X104095238Y-265774819D01*
X104095238Y-265774819D02*
X104190476Y-265774819D01*
X104190476Y-265774819D02*
X104333333Y-265822438D01*
X104333333Y-265822438D02*
X104380952Y-265870057D01*
X105333333Y-266774819D02*
X104761905Y-266774819D01*
X105047619Y-266774819D02*
X105047619Y-265774819D01*
X105047619Y-265774819D02*
X104952381Y-265917676D01*
X104952381Y-265917676D02*
X104857143Y-266012914D01*
X104857143Y-266012914D02*
X104761905Y-266060533D01*
X106190476Y-266774819D02*
X106190476Y-266251009D01*
X106190476Y-266251009D02*
X106142857Y-266155771D01*
X106142857Y-266155771D02*
X106047619Y-266108152D01*
X106047619Y-266108152D02*
X105857143Y-266108152D01*
X105857143Y-266108152D02*
X105761905Y-266155771D01*
X106190476Y-266727200D02*
X106095238Y-266774819D01*
X106095238Y-266774819D02*
X105857143Y-266774819D01*
X105857143Y-266774819D02*
X105761905Y-266727200D01*
X105761905Y-266727200D02*
X105714286Y-266631961D01*
X105714286Y-266631961D02*
X105714286Y-266536723D01*
X105714286Y-266536723D02*
X105761905Y-266441485D01*
X105761905Y-266441485D02*
X105857143Y-266393866D01*
X105857143Y-266393866D02*
X106095238Y-266393866D01*
X106095238Y-266393866D02*
X106190476Y-266346247D01*
X94547618Y-124199580D02*
X94499999Y-124247200D01*
X94499999Y-124247200D02*
X94357142Y-124294819D01*
X94357142Y-124294819D02*
X94261904Y-124294819D01*
X94261904Y-124294819D02*
X94119047Y-124247200D01*
X94119047Y-124247200D02*
X94023809Y-124151961D01*
X94023809Y-124151961D02*
X93976190Y-124056723D01*
X93976190Y-124056723D02*
X93928571Y-123866247D01*
X93928571Y-123866247D02*
X93928571Y-123723390D01*
X93928571Y-123723390D02*
X93976190Y-123532914D01*
X93976190Y-123532914D02*
X94023809Y-123437676D01*
X94023809Y-123437676D02*
X94119047Y-123342438D01*
X94119047Y-123342438D02*
X94261904Y-123294819D01*
X94261904Y-123294819D02*
X94357142Y-123294819D01*
X94357142Y-123294819D02*
X94499999Y-123342438D01*
X94499999Y-123342438D02*
X94547618Y-123390057D01*
X95499999Y-124294819D02*
X94928571Y-124294819D01*
X95214285Y-124294819D02*
X95214285Y-123294819D01*
X95214285Y-123294819D02*
X95119047Y-123437676D01*
X95119047Y-123437676D02*
X95023809Y-123532914D01*
X95023809Y-123532914D02*
X94928571Y-123580533D01*
X96119047Y-123294819D02*
X96214285Y-123294819D01*
X96214285Y-123294819D02*
X96309523Y-123342438D01*
X96309523Y-123342438D02*
X96357142Y-123390057D01*
X96357142Y-123390057D02*
X96404761Y-123485295D01*
X96404761Y-123485295D02*
X96452380Y-123675771D01*
X96452380Y-123675771D02*
X96452380Y-123913866D01*
X96452380Y-123913866D02*
X96404761Y-124104342D01*
X96404761Y-124104342D02*
X96357142Y-124199580D01*
X96357142Y-124199580D02*
X96309523Y-124247200D01*
X96309523Y-124247200D02*
X96214285Y-124294819D01*
X96214285Y-124294819D02*
X96119047Y-124294819D01*
X96119047Y-124294819D02*
X96023809Y-124247200D01*
X96023809Y-124247200D02*
X95976190Y-124199580D01*
X95976190Y-124199580D02*
X95928571Y-124104342D01*
X95928571Y-124104342D02*
X95880952Y-123913866D01*
X95880952Y-123913866D02*
X95880952Y-123675771D01*
X95880952Y-123675771D02*
X95928571Y-123485295D01*
X95928571Y-123485295D02*
X95976190Y-123390057D01*
X95976190Y-123390057D02*
X96023809Y-123342438D01*
X96023809Y-123342438D02*
X96119047Y-123294819D01*
X96642857Y-124390057D02*
X97404761Y-124390057D01*
X98071428Y-124247200D02*
X97976190Y-124294819D01*
X97976190Y-124294819D02*
X97785714Y-124294819D01*
X97785714Y-124294819D02*
X97690476Y-124247200D01*
X97690476Y-124247200D02*
X97642857Y-124199580D01*
X97642857Y-124199580D02*
X97595238Y-124104342D01*
X97595238Y-124104342D02*
X97595238Y-123818628D01*
X97595238Y-123818628D02*
X97642857Y-123723390D01*
X97642857Y-123723390D02*
X97690476Y-123675771D01*
X97690476Y-123675771D02*
X97785714Y-123628152D01*
X97785714Y-123628152D02*
X97976190Y-123628152D01*
X97976190Y-123628152D02*
X98071428Y-123675771D01*
X151380952Y-161199580D02*
X151333333Y-161247200D01*
X151333333Y-161247200D02*
X151190476Y-161294819D01*
X151190476Y-161294819D02*
X151095238Y-161294819D01*
X151095238Y-161294819D02*
X150952381Y-161247200D01*
X150952381Y-161247200D02*
X150857143Y-161151961D01*
X150857143Y-161151961D02*
X150809524Y-161056723D01*
X150809524Y-161056723D02*
X150761905Y-160866247D01*
X150761905Y-160866247D02*
X150761905Y-160723390D01*
X150761905Y-160723390D02*
X150809524Y-160532914D01*
X150809524Y-160532914D02*
X150857143Y-160437676D01*
X150857143Y-160437676D02*
X150952381Y-160342438D01*
X150952381Y-160342438D02*
X151095238Y-160294819D01*
X151095238Y-160294819D02*
X151190476Y-160294819D01*
X151190476Y-160294819D02*
X151333333Y-160342438D01*
X151333333Y-160342438D02*
X151380952Y-160390057D01*
X152238095Y-160628152D02*
X152238095Y-161294819D01*
X152000000Y-160247200D02*
X151761905Y-160961485D01*
X151761905Y-160961485D02*
X152380952Y-160961485D01*
X153190476Y-161294819D02*
X153190476Y-160771009D01*
X153190476Y-160771009D02*
X153142857Y-160675771D01*
X153142857Y-160675771D02*
X153047619Y-160628152D01*
X153047619Y-160628152D02*
X152857143Y-160628152D01*
X152857143Y-160628152D02*
X152761905Y-160675771D01*
X153190476Y-161247200D02*
X153095238Y-161294819D01*
X153095238Y-161294819D02*
X152857143Y-161294819D01*
X152857143Y-161294819D02*
X152761905Y-161247200D01*
X152761905Y-161247200D02*
X152714286Y-161151961D01*
X152714286Y-161151961D02*
X152714286Y-161056723D01*
X152714286Y-161056723D02*
X152761905Y-160961485D01*
X152761905Y-160961485D02*
X152857143Y-160913866D01*
X152857143Y-160913866D02*
X153095238Y-160913866D01*
X153095238Y-160913866D02*
X153190476Y-160866247D01*
X244380952Y-194199580D02*
X244333333Y-194247200D01*
X244333333Y-194247200D02*
X244190476Y-194294819D01*
X244190476Y-194294819D02*
X244095238Y-194294819D01*
X244095238Y-194294819D02*
X243952381Y-194247200D01*
X243952381Y-194247200D02*
X243857143Y-194151961D01*
X243857143Y-194151961D02*
X243809524Y-194056723D01*
X243809524Y-194056723D02*
X243761905Y-193866247D01*
X243761905Y-193866247D02*
X243761905Y-193723390D01*
X243761905Y-193723390D02*
X243809524Y-193532914D01*
X243809524Y-193532914D02*
X243857143Y-193437676D01*
X243857143Y-193437676D02*
X243952381Y-193342438D01*
X243952381Y-193342438D02*
X244095238Y-193294819D01*
X244095238Y-193294819D02*
X244190476Y-193294819D01*
X244190476Y-193294819D02*
X244333333Y-193342438D01*
X244333333Y-193342438D02*
X244380952Y-193390057D01*
X245285714Y-193294819D02*
X244809524Y-193294819D01*
X244809524Y-193294819D02*
X244761905Y-193771009D01*
X244761905Y-193771009D02*
X244809524Y-193723390D01*
X244809524Y-193723390D02*
X244904762Y-193675771D01*
X244904762Y-193675771D02*
X245142857Y-193675771D01*
X245142857Y-193675771D02*
X245238095Y-193723390D01*
X245238095Y-193723390D02*
X245285714Y-193771009D01*
X245285714Y-193771009D02*
X245333333Y-193866247D01*
X245333333Y-193866247D02*
X245333333Y-194104342D01*
X245333333Y-194104342D02*
X245285714Y-194199580D01*
X245285714Y-194199580D02*
X245238095Y-194247200D01*
X245238095Y-194247200D02*
X245142857Y-194294819D01*
X245142857Y-194294819D02*
X244904762Y-194294819D01*
X244904762Y-194294819D02*
X244809524Y-194247200D01*
X244809524Y-194247200D02*
X244761905Y-194199580D01*
X246190476Y-194294819D02*
X246190476Y-193771009D01*
X246190476Y-193771009D02*
X246142857Y-193675771D01*
X246142857Y-193675771D02*
X246047619Y-193628152D01*
X246047619Y-193628152D02*
X245857143Y-193628152D01*
X245857143Y-193628152D02*
X245761905Y-193675771D01*
X246190476Y-194247200D02*
X246095238Y-194294819D01*
X246095238Y-194294819D02*
X245857143Y-194294819D01*
X245857143Y-194294819D02*
X245761905Y-194247200D01*
X245761905Y-194247200D02*
X245714286Y-194151961D01*
X245714286Y-194151961D02*
X245714286Y-194056723D01*
X245714286Y-194056723D02*
X245761905Y-193961485D01*
X245761905Y-193961485D02*
X245857143Y-193913866D01*
X245857143Y-193913866D02*
X246095238Y-193913866D01*
X246095238Y-193913866D02*
X246190476Y-193866247D01*
X229380952Y-184199580D02*
X229333333Y-184247200D01*
X229333333Y-184247200D02*
X229190476Y-184294819D01*
X229190476Y-184294819D02*
X229095238Y-184294819D01*
X229095238Y-184294819D02*
X228952381Y-184247200D01*
X228952381Y-184247200D02*
X228857143Y-184151961D01*
X228857143Y-184151961D02*
X228809524Y-184056723D01*
X228809524Y-184056723D02*
X228761905Y-183866247D01*
X228761905Y-183866247D02*
X228761905Y-183723390D01*
X228761905Y-183723390D02*
X228809524Y-183532914D01*
X228809524Y-183532914D02*
X228857143Y-183437676D01*
X228857143Y-183437676D02*
X228952381Y-183342438D01*
X228952381Y-183342438D02*
X229095238Y-183294819D01*
X229095238Y-183294819D02*
X229190476Y-183294819D01*
X229190476Y-183294819D02*
X229333333Y-183342438D01*
X229333333Y-183342438D02*
X229380952Y-183390057D01*
X229857143Y-184294819D02*
X230047619Y-184294819D01*
X230047619Y-184294819D02*
X230142857Y-184247200D01*
X230142857Y-184247200D02*
X230190476Y-184199580D01*
X230190476Y-184199580D02*
X230285714Y-184056723D01*
X230285714Y-184056723D02*
X230333333Y-183866247D01*
X230333333Y-183866247D02*
X230333333Y-183485295D01*
X230333333Y-183485295D02*
X230285714Y-183390057D01*
X230285714Y-183390057D02*
X230238095Y-183342438D01*
X230238095Y-183342438D02*
X230142857Y-183294819D01*
X230142857Y-183294819D02*
X229952381Y-183294819D01*
X229952381Y-183294819D02*
X229857143Y-183342438D01*
X229857143Y-183342438D02*
X229809524Y-183390057D01*
X229809524Y-183390057D02*
X229761905Y-183485295D01*
X229761905Y-183485295D02*
X229761905Y-183723390D01*
X229761905Y-183723390D02*
X229809524Y-183818628D01*
X229809524Y-183818628D02*
X229857143Y-183866247D01*
X229857143Y-183866247D02*
X229952381Y-183913866D01*
X229952381Y-183913866D02*
X230142857Y-183913866D01*
X230142857Y-183913866D02*
X230238095Y-183866247D01*
X230238095Y-183866247D02*
X230285714Y-183818628D01*
X230285714Y-183818628D02*
X230333333Y-183723390D01*
X231190476Y-184294819D02*
X231190476Y-183771009D01*
X231190476Y-183771009D02*
X231142857Y-183675771D01*
X231142857Y-183675771D02*
X231047619Y-183628152D01*
X231047619Y-183628152D02*
X230857143Y-183628152D01*
X230857143Y-183628152D02*
X230761905Y-183675771D01*
X231190476Y-184247200D02*
X231095238Y-184294819D01*
X231095238Y-184294819D02*
X230857143Y-184294819D01*
X230857143Y-184294819D02*
X230761905Y-184247200D01*
X230761905Y-184247200D02*
X230714286Y-184151961D01*
X230714286Y-184151961D02*
X230714286Y-184056723D01*
X230714286Y-184056723D02*
X230761905Y-183961485D01*
X230761905Y-183961485D02*
X230857143Y-183913866D01*
X230857143Y-183913866D02*
X231095238Y-183913866D01*
X231095238Y-183913866D02*
X231190476Y-183866247D01*
X271499999Y-194199580D02*
X271452380Y-194247200D01*
X271452380Y-194247200D02*
X271309523Y-194294819D01*
X271309523Y-194294819D02*
X271214285Y-194294819D01*
X271214285Y-194294819D02*
X271071428Y-194247200D01*
X271071428Y-194247200D02*
X270976190Y-194151961D01*
X270976190Y-194151961D02*
X270928571Y-194056723D01*
X270928571Y-194056723D02*
X270880952Y-193866247D01*
X270880952Y-193866247D02*
X270880952Y-193723390D01*
X270880952Y-193723390D02*
X270928571Y-193532914D01*
X270928571Y-193532914D02*
X270976190Y-193437676D01*
X270976190Y-193437676D02*
X271071428Y-193342438D01*
X271071428Y-193342438D02*
X271214285Y-193294819D01*
X271214285Y-193294819D02*
X271309523Y-193294819D01*
X271309523Y-193294819D02*
X271452380Y-193342438D01*
X271452380Y-193342438D02*
X271499999Y-193390057D01*
X272404761Y-193294819D02*
X271928571Y-193294819D01*
X271928571Y-193294819D02*
X271880952Y-193771009D01*
X271880952Y-193771009D02*
X271928571Y-193723390D01*
X271928571Y-193723390D02*
X272023809Y-193675771D01*
X272023809Y-193675771D02*
X272261904Y-193675771D01*
X272261904Y-193675771D02*
X272357142Y-193723390D01*
X272357142Y-193723390D02*
X272404761Y-193771009D01*
X272404761Y-193771009D02*
X272452380Y-193866247D01*
X272452380Y-193866247D02*
X272452380Y-194104342D01*
X272452380Y-194104342D02*
X272404761Y-194199580D01*
X272404761Y-194199580D02*
X272357142Y-194247200D01*
X272357142Y-194247200D02*
X272261904Y-194294819D01*
X272261904Y-194294819D02*
X272023809Y-194294819D01*
X272023809Y-194294819D02*
X271928571Y-194247200D01*
X271928571Y-194247200D02*
X271880952Y-194199580D01*
X272642857Y-194390057D02*
X273404761Y-194390057D01*
X274071428Y-193628152D02*
X274071428Y-194437676D01*
X274071428Y-194437676D02*
X274023809Y-194532914D01*
X274023809Y-194532914D02*
X273976190Y-194580533D01*
X273976190Y-194580533D02*
X273880952Y-194628152D01*
X273880952Y-194628152D02*
X273738095Y-194628152D01*
X273738095Y-194628152D02*
X273642857Y-194580533D01*
X274071428Y-194247200D02*
X273976190Y-194294819D01*
X273976190Y-194294819D02*
X273785714Y-194294819D01*
X273785714Y-194294819D02*
X273690476Y-194247200D01*
X273690476Y-194247200D02*
X273642857Y-194199580D01*
X273642857Y-194199580D02*
X273595238Y-194104342D01*
X273595238Y-194104342D02*
X273595238Y-193818628D01*
X273595238Y-193818628D02*
X273642857Y-193723390D01*
X273642857Y-193723390D02*
X273690476Y-193675771D01*
X273690476Y-193675771D02*
X273785714Y-193628152D01*
X273785714Y-193628152D02*
X273976190Y-193628152D01*
X273976190Y-193628152D02*
X274071428Y-193675771D01*
X74357142Y-265259580D02*
X74309523Y-265307200D01*
X74309523Y-265307200D02*
X74166666Y-265354819D01*
X74166666Y-265354819D02*
X74071428Y-265354819D01*
X74071428Y-265354819D02*
X73928571Y-265307200D01*
X73928571Y-265307200D02*
X73833333Y-265211961D01*
X73833333Y-265211961D02*
X73785714Y-265116723D01*
X73785714Y-265116723D02*
X73738095Y-264926247D01*
X73738095Y-264926247D02*
X73738095Y-264783390D01*
X73738095Y-264783390D02*
X73785714Y-264592914D01*
X73785714Y-264592914D02*
X73833333Y-264497676D01*
X73833333Y-264497676D02*
X73928571Y-264402438D01*
X73928571Y-264402438D02*
X74071428Y-264354819D01*
X74071428Y-264354819D02*
X74166666Y-264354819D01*
X74166666Y-264354819D02*
X74309523Y-264402438D01*
X74309523Y-264402438D02*
X74357142Y-264450057D01*
X75309523Y-265354819D02*
X74738095Y-265354819D01*
X75023809Y-265354819D02*
X75023809Y-264354819D01*
X75023809Y-264354819D02*
X74928571Y-264497676D01*
X74928571Y-264497676D02*
X74833333Y-264592914D01*
X74833333Y-264592914D02*
X74738095Y-264640533D01*
X76261904Y-265354819D02*
X75690476Y-265354819D01*
X75976190Y-265354819D02*
X75976190Y-264354819D01*
X75976190Y-264354819D02*
X75880952Y-264497676D01*
X75880952Y-264497676D02*
X75785714Y-264592914D01*
X75785714Y-264592914D02*
X75690476Y-264640533D01*
X170357142Y-174199580D02*
X170309523Y-174247200D01*
X170309523Y-174247200D02*
X170166666Y-174294819D01*
X170166666Y-174294819D02*
X170071428Y-174294819D01*
X170071428Y-174294819D02*
X169928571Y-174247200D01*
X169928571Y-174247200D02*
X169833333Y-174151961D01*
X169833333Y-174151961D02*
X169785714Y-174056723D01*
X169785714Y-174056723D02*
X169738095Y-173866247D01*
X169738095Y-173866247D02*
X169738095Y-173723390D01*
X169738095Y-173723390D02*
X169785714Y-173532914D01*
X169785714Y-173532914D02*
X169833333Y-173437676D01*
X169833333Y-173437676D02*
X169928571Y-173342438D01*
X169928571Y-173342438D02*
X170071428Y-173294819D01*
X170071428Y-173294819D02*
X170166666Y-173294819D01*
X170166666Y-173294819D02*
X170309523Y-173342438D01*
X170309523Y-173342438D02*
X170357142Y-173390057D01*
X170690476Y-173294819D02*
X171309523Y-173294819D01*
X171309523Y-173294819D02*
X170976190Y-173675771D01*
X170976190Y-173675771D02*
X171119047Y-173675771D01*
X171119047Y-173675771D02*
X171214285Y-173723390D01*
X171214285Y-173723390D02*
X171261904Y-173771009D01*
X171261904Y-173771009D02*
X171309523Y-173866247D01*
X171309523Y-173866247D02*
X171309523Y-174104342D01*
X171309523Y-174104342D02*
X171261904Y-174199580D01*
X171261904Y-174199580D02*
X171214285Y-174247200D01*
X171214285Y-174247200D02*
X171119047Y-174294819D01*
X171119047Y-174294819D02*
X170833333Y-174294819D01*
X170833333Y-174294819D02*
X170738095Y-174247200D01*
X170738095Y-174247200D02*
X170690476Y-174199580D01*
X172166666Y-173294819D02*
X171976190Y-173294819D01*
X171976190Y-173294819D02*
X171880952Y-173342438D01*
X171880952Y-173342438D02*
X171833333Y-173390057D01*
X171833333Y-173390057D02*
X171738095Y-173532914D01*
X171738095Y-173532914D02*
X171690476Y-173723390D01*
X171690476Y-173723390D02*
X171690476Y-174104342D01*
X171690476Y-174104342D02*
X171738095Y-174199580D01*
X171738095Y-174199580D02*
X171785714Y-174247200D01*
X171785714Y-174247200D02*
X171880952Y-174294819D01*
X171880952Y-174294819D02*
X172071428Y-174294819D01*
X172071428Y-174294819D02*
X172166666Y-174247200D01*
X172166666Y-174247200D02*
X172214285Y-174199580D01*
X172214285Y-174199580D02*
X172261904Y-174104342D01*
X172261904Y-174104342D02*
X172261904Y-173866247D01*
X172261904Y-173866247D02*
X172214285Y-173771009D01*
X172214285Y-173771009D02*
X172166666Y-173723390D01*
X172166666Y-173723390D02*
X172071428Y-173675771D01*
X172071428Y-173675771D02*
X171880952Y-173675771D01*
X171880952Y-173675771D02*
X171785714Y-173723390D01*
X171785714Y-173723390D02*
X171738095Y-173771009D01*
X171738095Y-173771009D02*
X171690476Y-173866247D01*
X259523809Y-142528628D02*
X259523809Y-143004819D01*
X259190476Y-142004819D02*
X259523809Y-142528628D01*
X259523809Y-142528628D02*
X259857142Y-142004819D01*
X260714285Y-143004819D02*
X260142857Y-143004819D01*
X260428571Y-143004819D02*
X260428571Y-142004819D01*
X260428571Y-142004819D02*
X260333333Y-142147676D01*
X260333333Y-142147676D02*
X260238095Y-142242914D01*
X260238095Y-142242914D02*
X260142857Y-142290533D01*
X161690476Y-21954819D02*
X161690476Y-22669104D01*
X161690476Y-22669104D02*
X161642857Y-22811961D01*
X161642857Y-22811961D02*
X161547619Y-22907200D01*
X161547619Y-22907200D02*
X161404762Y-22954819D01*
X161404762Y-22954819D02*
X161309524Y-22954819D01*
X162690476Y-22954819D02*
X162119048Y-22954819D01*
X162404762Y-22954819D02*
X162404762Y-21954819D01*
X162404762Y-21954819D02*
X162309524Y-22097676D01*
X162309524Y-22097676D02*
X162214286Y-22192914D01*
X162214286Y-22192914D02*
X162119048Y-22240533D01*
X163642857Y-22954819D02*
X163071429Y-22954819D01*
X163357143Y-22954819D02*
X163357143Y-21954819D01*
X163357143Y-21954819D02*
X163261905Y-22097676D01*
X163261905Y-22097676D02*
X163166667Y-22192914D01*
X163166667Y-22192914D02*
X163071429Y-22240533D01*
X89023809Y-124199580D02*
X88976190Y-124247200D01*
X88976190Y-124247200D02*
X88833333Y-124294819D01*
X88833333Y-124294819D02*
X88738095Y-124294819D01*
X88738095Y-124294819D02*
X88595238Y-124247200D01*
X88595238Y-124247200D02*
X88500000Y-124151961D01*
X88500000Y-124151961D02*
X88452381Y-124056723D01*
X88452381Y-124056723D02*
X88404762Y-123866247D01*
X88404762Y-123866247D02*
X88404762Y-123723390D01*
X88404762Y-123723390D02*
X88452381Y-123532914D01*
X88452381Y-123532914D02*
X88500000Y-123437676D01*
X88500000Y-123437676D02*
X88595238Y-123342438D01*
X88595238Y-123342438D02*
X88738095Y-123294819D01*
X88738095Y-123294819D02*
X88833333Y-123294819D01*
X88833333Y-123294819D02*
X88976190Y-123342438D01*
X88976190Y-123342438D02*
X89023809Y-123390057D01*
X89976190Y-124294819D02*
X89404762Y-124294819D01*
X89690476Y-124294819D02*
X89690476Y-123294819D01*
X89690476Y-123294819D02*
X89595238Y-123437676D01*
X89595238Y-123437676D02*
X89500000Y-123532914D01*
X89500000Y-123532914D02*
X89404762Y-123580533D01*
X90595238Y-123294819D02*
X90690476Y-123294819D01*
X90690476Y-123294819D02*
X90785714Y-123342438D01*
X90785714Y-123342438D02*
X90833333Y-123390057D01*
X90833333Y-123390057D02*
X90880952Y-123485295D01*
X90880952Y-123485295D02*
X90928571Y-123675771D01*
X90928571Y-123675771D02*
X90928571Y-123913866D01*
X90928571Y-123913866D02*
X90880952Y-124104342D01*
X90880952Y-124104342D02*
X90833333Y-124199580D01*
X90833333Y-124199580D02*
X90785714Y-124247200D01*
X90785714Y-124247200D02*
X90690476Y-124294819D01*
X90690476Y-124294819D02*
X90595238Y-124294819D01*
X90595238Y-124294819D02*
X90500000Y-124247200D01*
X90500000Y-124247200D02*
X90452381Y-124199580D01*
X90452381Y-124199580D02*
X90404762Y-124104342D01*
X90404762Y-124104342D02*
X90357143Y-123913866D01*
X90357143Y-123913866D02*
X90357143Y-123675771D01*
X90357143Y-123675771D02*
X90404762Y-123485295D01*
X90404762Y-123485295D02*
X90452381Y-123390057D01*
X90452381Y-123390057D02*
X90500000Y-123342438D01*
X90500000Y-123342438D02*
X90595238Y-123294819D01*
X91119048Y-124390057D02*
X91880952Y-124390057D01*
X92119048Y-124294819D02*
X92119048Y-123294819D01*
X92119048Y-123675771D02*
X92214286Y-123628152D01*
X92214286Y-123628152D02*
X92404762Y-123628152D01*
X92404762Y-123628152D02*
X92500000Y-123675771D01*
X92500000Y-123675771D02*
X92547619Y-123723390D01*
X92547619Y-123723390D02*
X92595238Y-123818628D01*
X92595238Y-123818628D02*
X92595238Y-124104342D01*
X92595238Y-124104342D02*
X92547619Y-124199580D01*
X92547619Y-124199580D02*
X92500000Y-124247200D01*
X92500000Y-124247200D02*
X92404762Y-124294819D01*
X92404762Y-124294819D02*
X92214286Y-124294819D01*
X92214286Y-124294819D02*
X92119048Y-124247200D01*
X213761905Y-206004819D02*
X213761905Y-206814342D01*
X213761905Y-206814342D02*
X213809524Y-206909580D01*
X213809524Y-206909580D02*
X213857143Y-206957200D01*
X213857143Y-206957200D02*
X213952381Y-207004819D01*
X213952381Y-207004819D02*
X214142857Y-207004819D01*
X214142857Y-207004819D02*
X214238095Y-206957200D01*
X214238095Y-206957200D02*
X214285714Y-206909580D01*
X214285714Y-206909580D02*
X214333333Y-206814342D01*
X214333333Y-206814342D02*
X214333333Y-206004819D01*
X214761905Y-206100057D02*
X214809524Y-206052438D01*
X214809524Y-206052438D02*
X214904762Y-206004819D01*
X214904762Y-206004819D02*
X215142857Y-206004819D01*
X215142857Y-206004819D02*
X215238095Y-206052438D01*
X215238095Y-206052438D02*
X215285714Y-206100057D01*
X215285714Y-206100057D02*
X215333333Y-206195295D01*
X215333333Y-206195295D02*
X215333333Y-206290533D01*
X215333333Y-206290533D02*
X215285714Y-206433390D01*
X215285714Y-206433390D02*
X214714286Y-207004819D01*
X214714286Y-207004819D02*
X215333333Y-207004819D01*
X216190476Y-206338152D02*
X216190476Y-207004819D01*
X215952381Y-205957200D02*
X215714286Y-206671485D01*
X215714286Y-206671485D02*
X216333333Y-206671485D01*
X279309726Y-200423332D02*
X280216869Y-200423332D01*
X280216869Y-200423332D02*
X280398297Y-200483809D01*
X280398297Y-200483809D02*
X280519250Y-200604761D01*
X280519250Y-200604761D02*
X280579726Y-200786190D01*
X280579726Y-200786190D02*
X280579726Y-200907142D01*
X279430678Y-199879047D02*
X279370202Y-199818571D01*
X279370202Y-199818571D02*
X279309726Y-199697618D01*
X279309726Y-199697618D02*
X279309726Y-199395237D01*
X279309726Y-199395237D02*
X279370202Y-199274285D01*
X279370202Y-199274285D02*
X279430678Y-199213809D01*
X279430678Y-199213809D02*
X279551630Y-199153332D01*
X279551630Y-199153332D02*
X279672583Y-199153332D01*
X279672583Y-199153332D02*
X279854011Y-199213809D01*
X279854011Y-199213809D02*
X280579726Y-199939523D01*
X280579726Y-199939523D02*
X280579726Y-199153332D01*
X283666667Y-262907200D02*
X283809524Y-262954819D01*
X283809524Y-262954819D02*
X284047619Y-262954819D01*
X284047619Y-262954819D02*
X284142857Y-262907200D01*
X284142857Y-262907200D02*
X284190476Y-262859580D01*
X284190476Y-262859580D02*
X284238095Y-262764342D01*
X284238095Y-262764342D02*
X284238095Y-262669104D01*
X284238095Y-262669104D02*
X284190476Y-262573866D01*
X284190476Y-262573866D02*
X284142857Y-262526247D01*
X284142857Y-262526247D02*
X284047619Y-262478628D01*
X284047619Y-262478628D02*
X283857143Y-262431009D01*
X283857143Y-262431009D02*
X283761905Y-262383390D01*
X283761905Y-262383390D02*
X283714286Y-262335771D01*
X283714286Y-262335771D02*
X283666667Y-262240533D01*
X283666667Y-262240533D02*
X283666667Y-262145295D01*
X283666667Y-262145295D02*
X283714286Y-262050057D01*
X283714286Y-262050057D02*
X283761905Y-262002438D01*
X283761905Y-262002438D02*
X283857143Y-261954819D01*
X283857143Y-261954819D02*
X284095238Y-261954819D01*
X284095238Y-261954819D02*
X284238095Y-262002438D01*
X284571429Y-261954819D02*
X284809524Y-262954819D01*
X284809524Y-262954819D02*
X285000000Y-262240533D01*
X285000000Y-262240533D02*
X285190476Y-262954819D01*
X285190476Y-262954819D02*
X285428572Y-261954819D01*
X286333333Y-262954819D02*
X285761905Y-262954819D01*
X286047619Y-262954819D02*
X286047619Y-261954819D01*
X286047619Y-261954819D02*
X285952381Y-262097676D01*
X285952381Y-262097676D02*
X285857143Y-262192914D01*
X285857143Y-262192914D02*
X285761905Y-262240533D01*
X163761905Y-252054819D02*
X163761905Y-252864342D01*
X163761905Y-252864342D02*
X163809524Y-252959580D01*
X163809524Y-252959580D02*
X163857143Y-253007200D01*
X163857143Y-253007200D02*
X163952381Y-253054819D01*
X163952381Y-253054819D02*
X164142857Y-253054819D01*
X164142857Y-253054819D02*
X164238095Y-253007200D01*
X164238095Y-253007200D02*
X164285714Y-252959580D01*
X164285714Y-252959580D02*
X164333333Y-252864342D01*
X164333333Y-252864342D02*
X164333333Y-252054819D01*
X165333333Y-253054819D02*
X164761905Y-253054819D01*
X165047619Y-253054819D02*
X165047619Y-252054819D01*
X165047619Y-252054819D02*
X164952381Y-252197676D01*
X164952381Y-252197676D02*
X164857143Y-252292914D01*
X164857143Y-252292914D02*
X164761905Y-252340533D01*
X165714286Y-252150057D02*
X165761905Y-252102438D01*
X165761905Y-252102438D02*
X165857143Y-252054819D01*
X165857143Y-252054819D02*
X166095238Y-252054819D01*
X166095238Y-252054819D02*
X166190476Y-252102438D01*
X166190476Y-252102438D02*
X166238095Y-252150057D01*
X166238095Y-252150057D02*
X166285714Y-252245295D01*
X166285714Y-252245295D02*
X166285714Y-252340533D01*
X166285714Y-252340533D02*
X166238095Y-252483390D01*
X166238095Y-252483390D02*
X165666667Y-253054819D01*
X165666667Y-253054819D02*
X166285714Y-253054819D01*
X103738095Y-276006819D02*
X104309523Y-276006819D01*
X104023809Y-277006819D02*
X104023809Y-276006819D01*
X104642857Y-277006819D02*
X104642857Y-276006819D01*
X104642857Y-276006819D02*
X105023809Y-276006819D01*
X105023809Y-276006819D02*
X105119047Y-276054438D01*
X105119047Y-276054438D02*
X105166666Y-276102057D01*
X105166666Y-276102057D02*
X105214285Y-276197295D01*
X105214285Y-276197295D02*
X105214285Y-276340152D01*
X105214285Y-276340152D02*
X105166666Y-276435390D01*
X105166666Y-276435390D02*
X105119047Y-276483009D01*
X105119047Y-276483009D02*
X105023809Y-276530628D01*
X105023809Y-276530628D02*
X104642857Y-276530628D01*
X106071428Y-276340152D02*
X106071428Y-277006819D01*
X105833333Y-275959200D02*
X105595238Y-276673485D01*
X105595238Y-276673485D02*
X106214285Y-276673485D01*
X24261905Y-213024819D02*
X24261905Y-212024819D01*
X24261905Y-212024819D02*
X24500000Y-212024819D01*
X24500000Y-212024819D02*
X24642857Y-212072438D01*
X24642857Y-212072438D02*
X24738095Y-212167676D01*
X24738095Y-212167676D02*
X24785714Y-212262914D01*
X24785714Y-212262914D02*
X24833333Y-212453390D01*
X24833333Y-212453390D02*
X24833333Y-212596247D01*
X24833333Y-212596247D02*
X24785714Y-212786723D01*
X24785714Y-212786723D02*
X24738095Y-212881961D01*
X24738095Y-212881961D02*
X24642857Y-212977200D01*
X24642857Y-212977200D02*
X24500000Y-213024819D01*
X24500000Y-213024819D02*
X24261905Y-213024819D01*
X25166667Y-212024819D02*
X25785714Y-212024819D01*
X25785714Y-212024819D02*
X25452381Y-212405771D01*
X25452381Y-212405771D02*
X25595238Y-212405771D01*
X25595238Y-212405771D02*
X25690476Y-212453390D01*
X25690476Y-212453390D02*
X25738095Y-212501009D01*
X25738095Y-212501009D02*
X25785714Y-212596247D01*
X25785714Y-212596247D02*
X25785714Y-212834342D01*
X25785714Y-212834342D02*
X25738095Y-212929580D01*
X25738095Y-212929580D02*
X25690476Y-212977200D01*
X25690476Y-212977200D02*
X25595238Y-213024819D01*
X25595238Y-213024819D02*
X25309524Y-213024819D01*
X25309524Y-213024819D02*
X25214286Y-212977200D01*
X25214286Y-212977200D02*
X25166667Y-212929580D01*
X34023809Y-213284819D02*
X33690476Y-212808628D01*
X33452381Y-213284819D02*
X33452381Y-212284819D01*
X33452381Y-212284819D02*
X33833333Y-212284819D01*
X33833333Y-212284819D02*
X33928571Y-212332438D01*
X33928571Y-212332438D02*
X33976190Y-212380057D01*
X33976190Y-212380057D02*
X34023809Y-212475295D01*
X34023809Y-212475295D02*
X34023809Y-212618152D01*
X34023809Y-212618152D02*
X33976190Y-212713390D01*
X33976190Y-212713390D02*
X33928571Y-212761009D01*
X33928571Y-212761009D02*
X33833333Y-212808628D01*
X33833333Y-212808628D02*
X33452381Y-212808628D01*
X34928571Y-212284819D02*
X34452381Y-212284819D01*
X34452381Y-212284819D02*
X34404762Y-212761009D01*
X34404762Y-212761009D02*
X34452381Y-212713390D01*
X34452381Y-212713390D02*
X34547619Y-212665771D01*
X34547619Y-212665771D02*
X34785714Y-212665771D01*
X34785714Y-212665771D02*
X34880952Y-212713390D01*
X34880952Y-212713390D02*
X34928571Y-212761009D01*
X34928571Y-212761009D02*
X34976190Y-212856247D01*
X34976190Y-212856247D02*
X34976190Y-213094342D01*
X34976190Y-213094342D02*
X34928571Y-213189580D01*
X34928571Y-213189580D02*
X34880952Y-213237200D01*
X34880952Y-213237200D02*
X34785714Y-213284819D01*
X34785714Y-213284819D02*
X34547619Y-213284819D01*
X34547619Y-213284819D02*
X34452381Y-213237200D01*
X34452381Y-213237200D02*
X34404762Y-213189580D01*
X35166667Y-213380057D02*
X35928571Y-213380057D01*
X36595238Y-213237200D02*
X36500000Y-213284819D01*
X36500000Y-213284819D02*
X36309524Y-213284819D01*
X36309524Y-213284819D02*
X36214286Y-213237200D01*
X36214286Y-213237200D02*
X36166667Y-213189580D01*
X36166667Y-213189580D02*
X36119048Y-213094342D01*
X36119048Y-213094342D02*
X36119048Y-212808628D01*
X36119048Y-212808628D02*
X36166667Y-212713390D01*
X36166667Y-212713390D02*
X36214286Y-212665771D01*
X36214286Y-212665771D02*
X36309524Y-212618152D01*
X36309524Y-212618152D02*
X36500000Y-212618152D01*
X36500000Y-212618152D02*
X36595238Y-212665771D01*
X249880952Y-194199580D02*
X249833333Y-194247200D01*
X249833333Y-194247200D02*
X249690476Y-194294819D01*
X249690476Y-194294819D02*
X249595238Y-194294819D01*
X249595238Y-194294819D02*
X249452381Y-194247200D01*
X249452381Y-194247200D02*
X249357143Y-194151961D01*
X249357143Y-194151961D02*
X249309524Y-194056723D01*
X249309524Y-194056723D02*
X249261905Y-193866247D01*
X249261905Y-193866247D02*
X249261905Y-193723390D01*
X249261905Y-193723390D02*
X249309524Y-193532914D01*
X249309524Y-193532914D02*
X249357143Y-193437676D01*
X249357143Y-193437676D02*
X249452381Y-193342438D01*
X249452381Y-193342438D02*
X249595238Y-193294819D01*
X249595238Y-193294819D02*
X249690476Y-193294819D01*
X249690476Y-193294819D02*
X249833333Y-193342438D01*
X249833333Y-193342438D02*
X249880952Y-193390057D01*
X250785714Y-193294819D02*
X250309524Y-193294819D01*
X250309524Y-193294819D02*
X250261905Y-193771009D01*
X250261905Y-193771009D02*
X250309524Y-193723390D01*
X250309524Y-193723390D02*
X250404762Y-193675771D01*
X250404762Y-193675771D02*
X250642857Y-193675771D01*
X250642857Y-193675771D02*
X250738095Y-193723390D01*
X250738095Y-193723390D02*
X250785714Y-193771009D01*
X250785714Y-193771009D02*
X250833333Y-193866247D01*
X250833333Y-193866247D02*
X250833333Y-194104342D01*
X250833333Y-194104342D02*
X250785714Y-194199580D01*
X250785714Y-194199580D02*
X250738095Y-194247200D01*
X250738095Y-194247200D02*
X250642857Y-194294819D01*
X250642857Y-194294819D02*
X250404762Y-194294819D01*
X250404762Y-194294819D02*
X250309524Y-194247200D01*
X250309524Y-194247200D02*
X250261905Y-194199580D01*
X251261905Y-194294819D02*
X251261905Y-193294819D01*
X251261905Y-193675771D02*
X251357143Y-193628152D01*
X251357143Y-193628152D02*
X251547619Y-193628152D01*
X251547619Y-193628152D02*
X251642857Y-193675771D01*
X251642857Y-193675771D02*
X251690476Y-193723390D01*
X251690476Y-193723390D02*
X251738095Y-193818628D01*
X251738095Y-193818628D02*
X251738095Y-194104342D01*
X251738095Y-194104342D02*
X251690476Y-194199580D01*
X251690476Y-194199580D02*
X251642857Y-194247200D01*
X251642857Y-194247200D02*
X251547619Y-194294819D01*
X251547619Y-194294819D02*
X251357143Y-194294819D01*
X251357143Y-194294819D02*
X251261905Y-194247200D01*
X147357142Y-161199580D02*
X147309523Y-161247200D01*
X147309523Y-161247200D02*
X147166666Y-161294819D01*
X147166666Y-161294819D02*
X147071428Y-161294819D01*
X147071428Y-161294819D02*
X146928571Y-161247200D01*
X146928571Y-161247200D02*
X146833333Y-161151961D01*
X146833333Y-161151961D02*
X146785714Y-161056723D01*
X146785714Y-161056723D02*
X146738095Y-160866247D01*
X146738095Y-160866247D02*
X146738095Y-160723390D01*
X146738095Y-160723390D02*
X146785714Y-160532914D01*
X146785714Y-160532914D02*
X146833333Y-160437676D01*
X146833333Y-160437676D02*
X146928571Y-160342438D01*
X146928571Y-160342438D02*
X147071428Y-160294819D01*
X147071428Y-160294819D02*
X147166666Y-160294819D01*
X147166666Y-160294819D02*
X147309523Y-160342438D01*
X147309523Y-160342438D02*
X147357142Y-160390057D01*
X147690476Y-160294819D02*
X148309523Y-160294819D01*
X148309523Y-160294819D02*
X147976190Y-160675771D01*
X147976190Y-160675771D02*
X148119047Y-160675771D01*
X148119047Y-160675771D02*
X148214285Y-160723390D01*
X148214285Y-160723390D02*
X148261904Y-160771009D01*
X148261904Y-160771009D02*
X148309523Y-160866247D01*
X148309523Y-160866247D02*
X148309523Y-161104342D01*
X148309523Y-161104342D02*
X148261904Y-161199580D01*
X148261904Y-161199580D02*
X148214285Y-161247200D01*
X148214285Y-161247200D02*
X148119047Y-161294819D01*
X148119047Y-161294819D02*
X147833333Y-161294819D01*
X147833333Y-161294819D02*
X147738095Y-161247200D01*
X147738095Y-161247200D02*
X147690476Y-161199580D01*
X148880952Y-160723390D02*
X148785714Y-160675771D01*
X148785714Y-160675771D02*
X148738095Y-160628152D01*
X148738095Y-160628152D02*
X148690476Y-160532914D01*
X148690476Y-160532914D02*
X148690476Y-160485295D01*
X148690476Y-160485295D02*
X148738095Y-160390057D01*
X148738095Y-160390057D02*
X148785714Y-160342438D01*
X148785714Y-160342438D02*
X148880952Y-160294819D01*
X148880952Y-160294819D02*
X149071428Y-160294819D01*
X149071428Y-160294819D02*
X149166666Y-160342438D01*
X149166666Y-160342438D02*
X149214285Y-160390057D01*
X149214285Y-160390057D02*
X149261904Y-160485295D01*
X149261904Y-160485295D02*
X149261904Y-160532914D01*
X149261904Y-160532914D02*
X149214285Y-160628152D01*
X149214285Y-160628152D02*
X149166666Y-160675771D01*
X149166666Y-160675771D02*
X149071428Y-160723390D01*
X149071428Y-160723390D02*
X148880952Y-160723390D01*
X148880952Y-160723390D02*
X148785714Y-160771009D01*
X148785714Y-160771009D02*
X148738095Y-160818628D01*
X148738095Y-160818628D02*
X148690476Y-160913866D01*
X148690476Y-160913866D02*
X148690476Y-161104342D01*
X148690476Y-161104342D02*
X148738095Y-161199580D01*
X148738095Y-161199580D02*
X148785714Y-161247200D01*
X148785714Y-161247200D02*
X148880952Y-161294819D01*
X148880952Y-161294819D02*
X149071428Y-161294819D01*
X149071428Y-161294819D02*
X149166666Y-161247200D01*
X149166666Y-161247200D02*
X149214285Y-161199580D01*
X149214285Y-161199580D02*
X149261904Y-161104342D01*
X149261904Y-161104342D02*
X149261904Y-160913866D01*
X149261904Y-160913866D02*
X149214285Y-160818628D01*
X149214285Y-160818628D02*
X149166666Y-160771009D01*
X149166666Y-160771009D02*
X149071428Y-160723390D01*
X204380952Y-184284819D02*
X204047619Y-183808628D01*
X203809524Y-184284819D02*
X203809524Y-183284819D01*
X203809524Y-183284819D02*
X204190476Y-183284819D01*
X204190476Y-183284819D02*
X204285714Y-183332438D01*
X204285714Y-183332438D02*
X204333333Y-183380057D01*
X204333333Y-183380057D02*
X204380952Y-183475295D01*
X204380952Y-183475295D02*
X204380952Y-183618152D01*
X204380952Y-183618152D02*
X204333333Y-183713390D01*
X204333333Y-183713390D02*
X204285714Y-183761009D01*
X204285714Y-183761009D02*
X204190476Y-183808628D01*
X204190476Y-183808628D02*
X203809524Y-183808628D01*
X205333333Y-184284819D02*
X204761905Y-184284819D01*
X205047619Y-184284819D02*
X205047619Y-183284819D01*
X205047619Y-183284819D02*
X204952381Y-183427676D01*
X204952381Y-183427676D02*
X204857143Y-183522914D01*
X204857143Y-183522914D02*
X204761905Y-183570533D01*
X206190476Y-184284819D02*
X206190476Y-183761009D01*
X206190476Y-183761009D02*
X206142857Y-183665771D01*
X206142857Y-183665771D02*
X206047619Y-183618152D01*
X206047619Y-183618152D02*
X205857143Y-183618152D01*
X205857143Y-183618152D02*
X205761905Y-183665771D01*
X206190476Y-184237200D02*
X206095238Y-184284819D01*
X206095238Y-184284819D02*
X205857143Y-184284819D01*
X205857143Y-184284819D02*
X205761905Y-184237200D01*
X205761905Y-184237200D02*
X205714286Y-184141961D01*
X205714286Y-184141961D02*
X205714286Y-184046723D01*
X205714286Y-184046723D02*
X205761905Y-183951485D01*
X205761905Y-183951485D02*
X205857143Y-183903866D01*
X205857143Y-183903866D02*
X206095238Y-183903866D01*
X206095238Y-183903866D02*
X206190476Y-183856247D01*
X24261905Y-206024819D02*
X24261905Y-205024819D01*
X24261905Y-205024819D02*
X24500000Y-205024819D01*
X24500000Y-205024819D02*
X24642857Y-205072438D01*
X24642857Y-205072438D02*
X24738095Y-205167676D01*
X24738095Y-205167676D02*
X24785714Y-205262914D01*
X24785714Y-205262914D02*
X24833333Y-205453390D01*
X24833333Y-205453390D02*
X24833333Y-205596247D01*
X24833333Y-205596247D02*
X24785714Y-205786723D01*
X24785714Y-205786723D02*
X24738095Y-205881961D01*
X24738095Y-205881961D02*
X24642857Y-205977200D01*
X24642857Y-205977200D02*
X24500000Y-206024819D01*
X24500000Y-206024819D02*
X24261905Y-206024819D01*
X25214286Y-205120057D02*
X25261905Y-205072438D01*
X25261905Y-205072438D02*
X25357143Y-205024819D01*
X25357143Y-205024819D02*
X25595238Y-205024819D01*
X25595238Y-205024819D02*
X25690476Y-205072438D01*
X25690476Y-205072438D02*
X25738095Y-205120057D01*
X25738095Y-205120057D02*
X25785714Y-205215295D01*
X25785714Y-205215295D02*
X25785714Y-205310533D01*
X25785714Y-205310533D02*
X25738095Y-205453390D01*
X25738095Y-205453390D02*
X25166667Y-206024819D01*
X25166667Y-206024819D02*
X25785714Y-206024819D01*
X133738095Y-276006819D02*
X134309523Y-276006819D01*
X134023809Y-277006819D02*
X134023809Y-276006819D01*
X134642857Y-277006819D02*
X134642857Y-276006819D01*
X134642857Y-276006819D02*
X135023809Y-276006819D01*
X135023809Y-276006819D02*
X135119047Y-276054438D01*
X135119047Y-276054438D02*
X135166666Y-276102057D01*
X135166666Y-276102057D02*
X135214285Y-276197295D01*
X135214285Y-276197295D02*
X135214285Y-276340152D01*
X135214285Y-276340152D02*
X135166666Y-276435390D01*
X135166666Y-276435390D02*
X135119047Y-276483009D01*
X135119047Y-276483009D02*
X135023809Y-276530628D01*
X135023809Y-276530628D02*
X134642857Y-276530628D01*
X136071428Y-276006819D02*
X135880952Y-276006819D01*
X135880952Y-276006819D02*
X135785714Y-276054438D01*
X135785714Y-276054438D02*
X135738095Y-276102057D01*
X135738095Y-276102057D02*
X135642857Y-276244914D01*
X135642857Y-276244914D02*
X135595238Y-276435390D01*
X135595238Y-276435390D02*
X135595238Y-276816342D01*
X135595238Y-276816342D02*
X135642857Y-276911580D01*
X135642857Y-276911580D02*
X135690476Y-276959200D01*
X135690476Y-276959200D02*
X135785714Y-277006819D01*
X135785714Y-277006819D02*
X135976190Y-277006819D01*
X135976190Y-277006819D02*
X136071428Y-276959200D01*
X136071428Y-276959200D02*
X136119047Y-276911580D01*
X136119047Y-276911580D02*
X136166666Y-276816342D01*
X136166666Y-276816342D02*
X136166666Y-276578247D01*
X136166666Y-276578247D02*
X136119047Y-276483009D01*
X136119047Y-276483009D02*
X136071428Y-276435390D01*
X136071428Y-276435390D02*
X135976190Y-276387771D01*
X135976190Y-276387771D02*
X135785714Y-276387771D01*
X135785714Y-276387771D02*
X135690476Y-276435390D01*
X135690476Y-276435390D02*
X135642857Y-276483009D01*
X135642857Y-276483009D02*
X135595238Y-276578247D01*
X161261905Y-190124819D02*
X161261905Y-190934342D01*
X161261905Y-190934342D02*
X161309524Y-191029580D01*
X161309524Y-191029580D02*
X161357143Y-191077200D01*
X161357143Y-191077200D02*
X161452381Y-191124819D01*
X161452381Y-191124819D02*
X161642857Y-191124819D01*
X161642857Y-191124819D02*
X161738095Y-191077200D01*
X161738095Y-191077200D02*
X161785714Y-191029580D01*
X161785714Y-191029580D02*
X161833333Y-190934342D01*
X161833333Y-190934342D02*
X161833333Y-190124819D01*
X162261905Y-190220057D02*
X162309524Y-190172438D01*
X162309524Y-190172438D02*
X162404762Y-190124819D01*
X162404762Y-190124819D02*
X162642857Y-190124819D01*
X162642857Y-190124819D02*
X162738095Y-190172438D01*
X162738095Y-190172438D02*
X162785714Y-190220057D01*
X162785714Y-190220057D02*
X162833333Y-190315295D01*
X162833333Y-190315295D02*
X162833333Y-190410533D01*
X162833333Y-190410533D02*
X162785714Y-190553390D01*
X162785714Y-190553390D02*
X162214286Y-191124819D01*
X162214286Y-191124819D02*
X162833333Y-191124819D01*
X163452381Y-190124819D02*
X163547619Y-190124819D01*
X163547619Y-190124819D02*
X163642857Y-190172438D01*
X163642857Y-190172438D02*
X163690476Y-190220057D01*
X163690476Y-190220057D02*
X163738095Y-190315295D01*
X163738095Y-190315295D02*
X163785714Y-190505771D01*
X163785714Y-190505771D02*
X163785714Y-190743866D01*
X163785714Y-190743866D02*
X163738095Y-190934342D01*
X163738095Y-190934342D02*
X163690476Y-191029580D01*
X163690476Y-191029580D02*
X163642857Y-191077200D01*
X163642857Y-191077200D02*
X163547619Y-191124819D01*
X163547619Y-191124819D02*
X163452381Y-191124819D01*
X163452381Y-191124819D02*
X163357143Y-191077200D01*
X163357143Y-191077200D02*
X163309524Y-191029580D01*
X163309524Y-191029580D02*
X163261905Y-190934342D01*
X163261905Y-190934342D02*
X163214286Y-190743866D01*
X163214286Y-190743866D02*
X163214286Y-190505771D01*
X163214286Y-190505771D02*
X163261905Y-190315295D01*
X163261905Y-190315295D02*
X163309524Y-190220057D01*
X163309524Y-190220057D02*
X163357143Y-190172438D01*
X163357143Y-190172438D02*
X163452381Y-190124819D01*
X158357142Y-161199580D02*
X158309523Y-161247200D01*
X158309523Y-161247200D02*
X158166666Y-161294819D01*
X158166666Y-161294819D02*
X158071428Y-161294819D01*
X158071428Y-161294819D02*
X157928571Y-161247200D01*
X157928571Y-161247200D02*
X157833333Y-161151961D01*
X157833333Y-161151961D02*
X157785714Y-161056723D01*
X157785714Y-161056723D02*
X157738095Y-160866247D01*
X157738095Y-160866247D02*
X157738095Y-160723390D01*
X157738095Y-160723390D02*
X157785714Y-160532914D01*
X157785714Y-160532914D02*
X157833333Y-160437676D01*
X157833333Y-160437676D02*
X157928571Y-160342438D01*
X157928571Y-160342438D02*
X158071428Y-160294819D01*
X158071428Y-160294819D02*
X158166666Y-160294819D01*
X158166666Y-160294819D02*
X158309523Y-160342438D01*
X158309523Y-160342438D02*
X158357142Y-160390057D01*
X159214285Y-160628152D02*
X159214285Y-161294819D01*
X158976190Y-160247200D02*
X158738095Y-160961485D01*
X158738095Y-160961485D02*
X159357142Y-160961485D01*
X159928571Y-160294819D02*
X160023809Y-160294819D01*
X160023809Y-160294819D02*
X160119047Y-160342438D01*
X160119047Y-160342438D02*
X160166666Y-160390057D01*
X160166666Y-160390057D02*
X160214285Y-160485295D01*
X160214285Y-160485295D02*
X160261904Y-160675771D01*
X160261904Y-160675771D02*
X160261904Y-160913866D01*
X160261904Y-160913866D02*
X160214285Y-161104342D01*
X160214285Y-161104342D02*
X160166666Y-161199580D01*
X160166666Y-161199580D02*
X160119047Y-161247200D01*
X160119047Y-161247200D02*
X160023809Y-161294819D01*
X160023809Y-161294819D02*
X159928571Y-161294819D01*
X159928571Y-161294819D02*
X159833333Y-161247200D01*
X159833333Y-161247200D02*
X159785714Y-161199580D01*
X159785714Y-161199580D02*
X159738095Y-161104342D01*
X159738095Y-161104342D02*
X159690476Y-160913866D01*
X159690476Y-160913866D02*
X159690476Y-160675771D01*
X159690476Y-160675771D02*
X159738095Y-160485295D01*
X159738095Y-160485295D02*
X159785714Y-160390057D01*
X159785714Y-160390057D02*
X159833333Y-160342438D01*
X159833333Y-160342438D02*
X159928571Y-160294819D01*
X63761905Y-252054819D02*
X63761905Y-252864342D01*
X63761905Y-252864342D02*
X63809524Y-252959580D01*
X63809524Y-252959580D02*
X63857143Y-253007200D01*
X63857143Y-253007200D02*
X63952381Y-253054819D01*
X63952381Y-253054819D02*
X64142857Y-253054819D01*
X64142857Y-253054819D02*
X64238095Y-253007200D01*
X64238095Y-253007200D02*
X64285714Y-252959580D01*
X64285714Y-252959580D02*
X64333333Y-252864342D01*
X64333333Y-252864342D02*
X64333333Y-252054819D01*
X65333333Y-253054819D02*
X64761905Y-253054819D01*
X65047619Y-253054819D02*
X65047619Y-252054819D01*
X65047619Y-252054819D02*
X64952381Y-252197676D01*
X64952381Y-252197676D02*
X64857143Y-252292914D01*
X64857143Y-252292914D02*
X64761905Y-252340533D01*
X65666667Y-252054819D02*
X66285714Y-252054819D01*
X66285714Y-252054819D02*
X65952381Y-252435771D01*
X65952381Y-252435771D02*
X66095238Y-252435771D01*
X66095238Y-252435771D02*
X66190476Y-252483390D01*
X66190476Y-252483390D02*
X66238095Y-252531009D01*
X66238095Y-252531009D02*
X66285714Y-252626247D01*
X66285714Y-252626247D02*
X66285714Y-252864342D01*
X66285714Y-252864342D02*
X66238095Y-252959580D01*
X66238095Y-252959580D02*
X66190476Y-253007200D01*
X66190476Y-253007200D02*
X66095238Y-253054819D01*
X66095238Y-253054819D02*
X65809524Y-253054819D01*
X65809524Y-253054819D02*
X65714286Y-253007200D01*
X65714286Y-253007200D02*
X65666667Y-252959580D01*
X306666667Y-279254819D02*
X306666667Y-278254819D01*
X306666667Y-278254819D02*
X307000000Y-278969104D01*
X307000000Y-278969104D02*
X307333333Y-278254819D01*
X307333333Y-278254819D02*
X307333333Y-279254819D01*
X307809524Y-279254819D02*
X307809524Y-278254819D01*
X307809524Y-278731009D02*
X308380952Y-278731009D01*
X308380952Y-279254819D02*
X308380952Y-278254819D01*
X309285714Y-278588152D02*
X309285714Y-279254819D01*
X309047619Y-278207200D02*
X308809524Y-278921485D01*
X308809524Y-278921485D02*
X309428571Y-278921485D01*
X54666666Y-266281009D02*
X54333333Y-266281009D01*
X54333333Y-266804819D02*
X54333333Y-265804819D01*
X54333333Y-265804819D02*
X54809523Y-265804819D01*
X55714285Y-266804819D02*
X55142857Y-266804819D01*
X55428571Y-266804819D02*
X55428571Y-265804819D01*
X55428571Y-265804819D02*
X55333333Y-265947676D01*
X55333333Y-265947676D02*
X55238095Y-266042914D01*
X55238095Y-266042914D02*
X55142857Y-266090533D01*
X175857142Y-174199580D02*
X175809523Y-174247200D01*
X175809523Y-174247200D02*
X175666666Y-174294819D01*
X175666666Y-174294819D02*
X175571428Y-174294819D01*
X175571428Y-174294819D02*
X175428571Y-174247200D01*
X175428571Y-174247200D02*
X175333333Y-174151961D01*
X175333333Y-174151961D02*
X175285714Y-174056723D01*
X175285714Y-174056723D02*
X175238095Y-173866247D01*
X175238095Y-173866247D02*
X175238095Y-173723390D01*
X175238095Y-173723390D02*
X175285714Y-173532914D01*
X175285714Y-173532914D02*
X175333333Y-173437676D01*
X175333333Y-173437676D02*
X175428571Y-173342438D01*
X175428571Y-173342438D02*
X175571428Y-173294819D01*
X175571428Y-173294819D02*
X175666666Y-173294819D01*
X175666666Y-173294819D02*
X175809523Y-173342438D01*
X175809523Y-173342438D02*
X175857142Y-173390057D01*
X176190476Y-173294819D02*
X176809523Y-173294819D01*
X176809523Y-173294819D02*
X176476190Y-173675771D01*
X176476190Y-173675771D02*
X176619047Y-173675771D01*
X176619047Y-173675771D02*
X176714285Y-173723390D01*
X176714285Y-173723390D02*
X176761904Y-173771009D01*
X176761904Y-173771009D02*
X176809523Y-173866247D01*
X176809523Y-173866247D02*
X176809523Y-174104342D01*
X176809523Y-174104342D02*
X176761904Y-174199580D01*
X176761904Y-174199580D02*
X176714285Y-174247200D01*
X176714285Y-174247200D02*
X176619047Y-174294819D01*
X176619047Y-174294819D02*
X176333333Y-174294819D01*
X176333333Y-174294819D02*
X176238095Y-174247200D01*
X176238095Y-174247200D02*
X176190476Y-174199580D01*
X177142857Y-173294819D02*
X177809523Y-173294819D01*
X177809523Y-173294819D02*
X177380952Y-174294819D01*
X13166666Y-258704819D02*
X13166666Y-259419104D01*
X13166666Y-259419104D02*
X13119047Y-259561961D01*
X13119047Y-259561961D02*
X13023809Y-259657200D01*
X13023809Y-259657200D02*
X12880952Y-259704819D01*
X12880952Y-259704819D02*
X12785714Y-259704819D01*
X14166666Y-259704819D02*
X13595238Y-259704819D01*
X13880952Y-259704819D02*
X13880952Y-258704819D01*
X13880952Y-258704819D02*
X13785714Y-258847676D01*
X13785714Y-258847676D02*
X13690476Y-258942914D01*
X13690476Y-258942914D02*
X13595238Y-258990533D01*
X113761905Y-252054819D02*
X113761905Y-252864342D01*
X113761905Y-252864342D02*
X113809524Y-252959580D01*
X113809524Y-252959580D02*
X113857143Y-253007200D01*
X113857143Y-253007200D02*
X113952381Y-253054819D01*
X113952381Y-253054819D02*
X114142857Y-253054819D01*
X114142857Y-253054819D02*
X114238095Y-253007200D01*
X114238095Y-253007200D02*
X114285714Y-252959580D01*
X114285714Y-252959580D02*
X114333333Y-252864342D01*
X114333333Y-252864342D02*
X114333333Y-252054819D01*
X115333333Y-253054819D02*
X114761905Y-253054819D01*
X115047619Y-253054819D02*
X115047619Y-252054819D01*
X115047619Y-252054819D02*
X114952381Y-252197676D01*
X114952381Y-252197676D02*
X114857143Y-252292914D01*
X114857143Y-252292914D02*
X114761905Y-252340533D01*
X115952381Y-252054819D02*
X116047619Y-252054819D01*
X116047619Y-252054819D02*
X116142857Y-252102438D01*
X116142857Y-252102438D02*
X116190476Y-252150057D01*
X116190476Y-252150057D02*
X116238095Y-252245295D01*
X116238095Y-252245295D02*
X116285714Y-252435771D01*
X116285714Y-252435771D02*
X116285714Y-252673866D01*
X116285714Y-252673866D02*
X116238095Y-252864342D01*
X116238095Y-252864342D02*
X116190476Y-252959580D01*
X116190476Y-252959580D02*
X116142857Y-253007200D01*
X116142857Y-253007200D02*
X116047619Y-253054819D01*
X116047619Y-253054819D02*
X115952381Y-253054819D01*
X115952381Y-253054819D02*
X115857143Y-253007200D01*
X115857143Y-253007200D02*
X115809524Y-252959580D01*
X115809524Y-252959580D02*
X115761905Y-252864342D01*
X115761905Y-252864342D02*
X115714286Y-252673866D01*
X115714286Y-252673866D02*
X115714286Y-252435771D01*
X115714286Y-252435771D02*
X115761905Y-252245295D01*
X115761905Y-252245295D02*
X115809524Y-252150057D01*
X115809524Y-252150057D02*
X115857143Y-252102438D01*
X115857143Y-252102438D02*
X115952381Y-252054819D01*
X15666667Y-279254819D02*
X15666667Y-278254819D01*
X15666667Y-278254819D02*
X16000000Y-278969104D01*
X16000000Y-278969104D02*
X16333333Y-278254819D01*
X16333333Y-278254819D02*
X16333333Y-279254819D01*
X16809524Y-279254819D02*
X16809524Y-278254819D01*
X16809524Y-278731009D02*
X17380952Y-278731009D01*
X17380952Y-279254819D02*
X17380952Y-278254819D01*
X17761905Y-278254819D02*
X18380952Y-278254819D01*
X18380952Y-278254819D02*
X18047619Y-278635771D01*
X18047619Y-278635771D02*
X18190476Y-278635771D01*
X18190476Y-278635771D02*
X18285714Y-278683390D01*
X18285714Y-278683390D02*
X18333333Y-278731009D01*
X18333333Y-278731009D02*
X18380952Y-278826247D01*
X18380952Y-278826247D02*
X18380952Y-279064342D01*
X18380952Y-279064342D02*
X18333333Y-279159580D01*
X18333333Y-279159580D02*
X18285714Y-279207200D01*
X18285714Y-279207200D02*
X18190476Y-279254819D01*
X18190476Y-279254819D02*
X17904762Y-279254819D01*
X17904762Y-279254819D02*
X17809524Y-279207200D01*
X17809524Y-279207200D02*
X17761905Y-279159580D01*
X37833333Y-259564819D02*
X37357143Y-259564819D01*
X37357143Y-259564819D02*
X37357143Y-258564819D01*
X38690476Y-259564819D02*
X38119048Y-259564819D01*
X38404762Y-259564819D02*
X38404762Y-258564819D01*
X38404762Y-258564819D02*
X38309524Y-258707676D01*
X38309524Y-258707676D02*
X38214286Y-258802914D01*
X38214286Y-258802914D02*
X38119048Y-258850533D01*
X83523809Y-124199580D02*
X83476190Y-124247200D01*
X83476190Y-124247200D02*
X83333333Y-124294819D01*
X83333333Y-124294819D02*
X83238095Y-124294819D01*
X83238095Y-124294819D02*
X83095238Y-124247200D01*
X83095238Y-124247200D02*
X83000000Y-124151961D01*
X83000000Y-124151961D02*
X82952381Y-124056723D01*
X82952381Y-124056723D02*
X82904762Y-123866247D01*
X82904762Y-123866247D02*
X82904762Y-123723390D01*
X82904762Y-123723390D02*
X82952381Y-123532914D01*
X82952381Y-123532914D02*
X83000000Y-123437676D01*
X83000000Y-123437676D02*
X83095238Y-123342438D01*
X83095238Y-123342438D02*
X83238095Y-123294819D01*
X83238095Y-123294819D02*
X83333333Y-123294819D01*
X83333333Y-123294819D02*
X83476190Y-123342438D01*
X83476190Y-123342438D02*
X83523809Y-123390057D01*
X84476190Y-124294819D02*
X83904762Y-124294819D01*
X84190476Y-124294819D02*
X84190476Y-123294819D01*
X84190476Y-123294819D02*
X84095238Y-123437676D01*
X84095238Y-123437676D02*
X84000000Y-123532914D01*
X84000000Y-123532914D02*
X83904762Y-123580533D01*
X85095238Y-123294819D02*
X85190476Y-123294819D01*
X85190476Y-123294819D02*
X85285714Y-123342438D01*
X85285714Y-123342438D02*
X85333333Y-123390057D01*
X85333333Y-123390057D02*
X85380952Y-123485295D01*
X85380952Y-123485295D02*
X85428571Y-123675771D01*
X85428571Y-123675771D02*
X85428571Y-123913866D01*
X85428571Y-123913866D02*
X85380952Y-124104342D01*
X85380952Y-124104342D02*
X85333333Y-124199580D01*
X85333333Y-124199580D02*
X85285714Y-124247200D01*
X85285714Y-124247200D02*
X85190476Y-124294819D01*
X85190476Y-124294819D02*
X85095238Y-124294819D01*
X85095238Y-124294819D02*
X85000000Y-124247200D01*
X85000000Y-124247200D02*
X84952381Y-124199580D01*
X84952381Y-124199580D02*
X84904762Y-124104342D01*
X84904762Y-124104342D02*
X84857143Y-123913866D01*
X84857143Y-123913866D02*
X84857143Y-123675771D01*
X84857143Y-123675771D02*
X84904762Y-123485295D01*
X84904762Y-123485295D02*
X84952381Y-123390057D01*
X84952381Y-123390057D02*
X85000000Y-123342438D01*
X85000000Y-123342438D02*
X85095238Y-123294819D01*
X85619048Y-124390057D02*
X86380952Y-124390057D01*
X87047619Y-124294819D02*
X87047619Y-123771009D01*
X87047619Y-123771009D02*
X87000000Y-123675771D01*
X87000000Y-123675771D02*
X86904762Y-123628152D01*
X86904762Y-123628152D02*
X86714286Y-123628152D01*
X86714286Y-123628152D02*
X86619048Y-123675771D01*
X87047619Y-124247200D02*
X86952381Y-124294819D01*
X86952381Y-124294819D02*
X86714286Y-124294819D01*
X86714286Y-124294819D02*
X86619048Y-124247200D01*
X86619048Y-124247200D02*
X86571429Y-124151961D01*
X86571429Y-124151961D02*
X86571429Y-124056723D01*
X86571429Y-124056723D02*
X86619048Y-123961485D01*
X86619048Y-123961485D02*
X86714286Y-123913866D01*
X86714286Y-123913866D02*
X86952381Y-123913866D01*
X86952381Y-123913866D02*
X87047619Y-123866247D01*
X24261905Y-199024819D02*
X24261905Y-198024819D01*
X24261905Y-198024819D02*
X24500000Y-198024819D01*
X24500000Y-198024819D02*
X24642857Y-198072438D01*
X24642857Y-198072438D02*
X24738095Y-198167676D01*
X24738095Y-198167676D02*
X24785714Y-198262914D01*
X24785714Y-198262914D02*
X24833333Y-198453390D01*
X24833333Y-198453390D02*
X24833333Y-198596247D01*
X24833333Y-198596247D02*
X24785714Y-198786723D01*
X24785714Y-198786723D02*
X24738095Y-198881961D01*
X24738095Y-198881961D02*
X24642857Y-198977200D01*
X24642857Y-198977200D02*
X24500000Y-199024819D01*
X24500000Y-199024819D02*
X24261905Y-199024819D01*
X25785714Y-199024819D02*
X25214286Y-199024819D01*
X25500000Y-199024819D02*
X25500000Y-198024819D01*
X25500000Y-198024819D02*
X25404762Y-198167676D01*
X25404762Y-198167676D02*
X25309524Y-198262914D01*
X25309524Y-198262914D02*
X25214286Y-198310533D01*
X209499999Y-124199580D02*
X209452380Y-124247200D01*
X209452380Y-124247200D02*
X209309523Y-124294819D01*
X209309523Y-124294819D02*
X209214285Y-124294819D01*
X209214285Y-124294819D02*
X209071428Y-124247200D01*
X209071428Y-124247200D02*
X208976190Y-124151961D01*
X208976190Y-124151961D02*
X208928571Y-124056723D01*
X208928571Y-124056723D02*
X208880952Y-123866247D01*
X208880952Y-123866247D02*
X208880952Y-123723390D01*
X208880952Y-123723390D02*
X208928571Y-123532914D01*
X208928571Y-123532914D02*
X208976190Y-123437676D01*
X208976190Y-123437676D02*
X209071428Y-123342438D01*
X209071428Y-123342438D02*
X209214285Y-123294819D01*
X209214285Y-123294819D02*
X209309523Y-123294819D01*
X209309523Y-123294819D02*
X209452380Y-123342438D01*
X209452380Y-123342438D02*
X209499999Y-123390057D01*
X210404761Y-123294819D02*
X209928571Y-123294819D01*
X209928571Y-123294819D02*
X209880952Y-123771009D01*
X209880952Y-123771009D02*
X209928571Y-123723390D01*
X209928571Y-123723390D02*
X210023809Y-123675771D01*
X210023809Y-123675771D02*
X210261904Y-123675771D01*
X210261904Y-123675771D02*
X210357142Y-123723390D01*
X210357142Y-123723390D02*
X210404761Y-123771009D01*
X210404761Y-123771009D02*
X210452380Y-123866247D01*
X210452380Y-123866247D02*
X210452380Y-124104342D01*
X210452380Y-124104342D02*
X210404761Y-124199580D01*
X210404761Y-124199580D02*
X210357142Y-124247200D01*
X210357142Y-124247200D02*
X210261904Y-124294819D01*
X210261904Y-124294819D02*
X210023809Y-124294819D01*
X210023809Y-124294819D02*
X209928571Y-124247200D01*
X209928571Y-124247200D02*
X209880952Y-124199580D01*
X211071428Y-123294819D02*
X211166666Y-123294819D01*
X211166666Y-123294819D02*
X211261904Y-123342438D01*
X211261904Y-123342438D02*
X211309523Y-123390057D01*
X211309523Y-123390057D02*
X211357142Y-123485295D01*
X211357142Y-123485295D02*
X211404761Y-123675771D01*
X211404761Y-123675771D02*
X211404761Y-123913866D01*
X211404761Y-123913866D02*
X211357142Y-124104342D01*
X211357142Y-124104342D02*
X211309523Y-124199580D01*
X211309523Y-124199580D02*
X211261904Y-124247200D01*
X211261904Y-124247200D02*
X211166666Y-124294819D01*
X211166666Y-124294819D02*
X211071428Y-124294819D01*
X211071428Y-124294819D02*
X210976190Y-124247200D01*
X210976190Y-124247200D02*
X210928571Y-124199580D01*
X210928571Y-124199580D02*
X210880952Y-124104342D01*
X210880952Y-124104342D02*
X210833333Y-123913866D01*
X210833333Y-123913866D02*
X210833333Y-123675771D01*
X210833333Y-123675771D02*
X210880952Y-123485295D01*
X210880952Y-123485295D02*
X210928571Y-123390057D01*
X210928571Y-123390057D02*
X210976190Y-123342438D01*
X210976190Y-123342438D02*
X211071428Y-123294819D01*
X211595238Y-124390057D02*
X212357142Y-124390057D01*
X212547619Y-123390057D02*
X212595238Y-123342438D01*
X212595238Y-123342438D02*
X212690476Y-123294819D01*
X212690476Y-123294819D02*
X212928571Y-123294819D01*
X212928571Y-123294819D02*
X213023809Y-123342438D01*
X213023809Y-123342438D02*
X213071428Y-123390057D01*
X213071428Y-123390057D02*
X213119047Y-123485295D01*
X213119047Y-123485295D02*
X213119047Y-123580533D01*
X213119047Y-123580533D02*
X213071428Y-123723390D01*
X213071428Y-123723390D02*
X212500000Y-124294819D01*
X212500000Y-124294819D02*
X213119047Y-124294819D01*
X200494819Y-25333333D02*
X201209104Y-25333333D01*
X201209104Y-25333333D02*
X201351961Y-25380952D01*
X201351961Y-25380952D02*
X201447200Y-25476190D01*
X201447200Y-25476190D02*
X201494819Y-25619047D01*
X201494819Y-25619047D02*
X201494819Y-25714285D01*
X201494819Y-24809523D02*
X201494819Y-24619047D01*
X201494819Y-24619047D02*
X201447200Y-24523809D01*
X201447200Y-24523809D02*
X201399580Y-24476190D01*
X201399580Y-24476190D02*
X201256723Y-24380952D01*
X201256723Y-24380952D02*
X201066247Y-24333333D01*
X201066247Y-24333333D02*
X200685295Y-24333333D01*
X200685295Y-24333333D02*
X200590057Y-24380952D01*
X200590057Y-24380952D02*
X200542438Y-24428571D01*
X200542438Y-24428571D02*
X200494819Y-24523809D01*
X200494819Y-24523809D02*
X200494819Y-24714285D01*
X200494819Y-24714285D02*
X200542438Y-24809523D01*
X200542438Y-24809523D02*
X200590057Y-24857142D01*
X200590057Y-24857142D02*
X200685295Y-24904761D01*
X200685295Y-24904761D02*
X200923390Y-24904761D01*
X200923390Y-24904761D02*
X201018628Y-24857142D01*
X201018628Y-24857142D02*
X201066247Y-24809523D01*
X201066247Y-24809523D02*
X201113866Y-24714285D01*
X201113866Y-24714285D02*
X201113866Y-24523809D01*
X201113866Y-24523809D02*
X201066247Y-24428571D01*
X201066247Y-24428571D02*
X201018628Y-24380952D01*
X201018628Y-24380952D02*
X200923390Y-24333333D01*
X159357142Y-267199580D02*
X159309523Y-267247200D01*
X159309523Y-267247200D02*
X159166666Y-267294819D01*
X159166666Y-267294819D02*
X159071428Y-267294819D01*
X159071428Y-267294819D02*
X158928571Y-267247200D01*
X158928571Y-267247200D02*
X158833333Y-267151961D01*
X158833333Y-267151961D02*
X158785714Y-267056723D01*
X158785714Y-267056723D02*
X158738095Y-266866247D01*
X158738095Y-266866247D02*
X158738095Y-266723390D01*
X158738095Y-266723390D02*
X158785714Y-266532914D01*
X158785714Y-266532914D02*
X158833333Y-266437676D01*
X158833333Y-266437676D02*
X158928571Y-266342438D01*
X158928571Y-266342438D02*
X159071428Y-266294819D01*
X159071428Y-266294819D02*
X159166666Y-266294819D01*
X159166666Y-266294819D02*
X159309523Y-266342438D01*
X159309523Y-266342438D02*
X159357142Y-266390057D01*
X160214285Y-266628152D02*
X160214285Y-267294819D01*
X159976190Y-266247200D02*
X159738095Y-266961485D01*
X159738095Y-266961485D02*
X160357142Y-266961485D01*
X161214285Y-266294819D02*
X160738095Y-266294819D01*
X160738095Y-266294819D02*
X160690476Y-266771009D01*
X160690476Y-266771009D02*
X160738095Y-266723390D01*
X160738095Y-266723390D02*
X160833333Y-266675771D01*
X160833333Y-266675771D02*
X161071428Y-266675771D01*
X161071428Y-266675771D02*
X161166666Y-266723390D01*
X161166666Y-266723390D02*
X161214285Y-266771009D01*
X161214285Y-266771009D02*
X161261904Y-266866247D01*
X161261904Y-266866247D02*
X161261904Y-267104342D01*
X161261904Y-267104342D02*
X161214285Y-267199580D01*
X161214285Y-267199580D02*
X161166666Y-267247200D01*
X161166666Y-267247200D02*
X161071428Y-267294819D01*
X161071428Y-267294819D02*
X160833333Y-267294819D01*
X160833333Y-267294819D02*
X160738095Y-267247200D01*
X160738095Y-267247200D02*
X160690476Y-267199580D01*
X153857142Y-174199580D02*
X153809523Y-174247200D01*
X153809523Y-174247200D02*
X153666666Y-174294819D01*
X153666666Y-174294819D02*
X153571428Y-174294819D01*
X153571428Y-174294819D02*
X153428571Y-174247200D01*
X153428571Y-174247200D02*
X153333333Y-174151961D01*
X153333333Y-174151961D02*
X153285714Y-174056723D01*
X153285714Y-174056723D02*
X153238095Y-173866247D01*
X153238095Y-173866247D02*
X153238095Y-173723390D01*
X153238095Y-173723390D02*
X153285714Y-173532914D01*
X153285714Y-173532914D02*
X153333333Y-173437676D01*
X153333333Y-173437676D02*
X153428571Y-173342438D01*
X153428571Y-173342438D02*
X153571428Y-173294819D01*
X153571428Y-173294819D02*
X153666666Y-173294819D01*
X153666666Y-173294819D02*
X153809523Y-173342438D01*
X153809523Y-173342438D02*
X153857142Y-173390057D01*
X154190476Y-173294819D02*
X154809523Y-173294819D01*
X154809523Y-173294819D02*
X154476190Y-173675771D01*
X154476190Y-173675771D02*
X154619047Y-173675771D01*
X154619047Y-173675771D02*
X154714285Y-173723390D01*
X154714285Y-173723390D02*
X154761904Y-173771009D01*
X154761904Y-173771009D02*
X154809523Y-173866247D01*
X154809523Y-173866247D02*
X154809523Y-174104342D01*
X154809523Y-174104342D02*
X154761904Y-174199580D01*
X154761904Y-174199580D02*
X154714285Y-174247200D01*
X154714285Y-174247200D02*
X154619047Y-174294819D01*
X154619047Y-174294819D02*
X154333333Y-174294819D01*
X154333333Y-174294819D02*
X154238095Y-174247200D01*
X154238095Y-174247200D02*
X154190476Y-174199580D01*
X155142857Y-173294819D02*
X155761904Y-173294819D01*
X155761904Y-173294819D02*
X155428571Y-173675771D01*
X155428571Y-173675771D02*
X155571428Y-173675771D01*
X155571428Y-173675771D02*
X155666666Y-173723390D01*
X155666666Y-173723390D02*
X155714285Y-173771009D01*
X155714285Y-173771009D02*
X155761904Y-173866247D01*
X155761904Y-173866247D02*
X155761904Y-174104342D01*
X155761904Y-174104342D02*
X155714285Y-174199580D01*
X155714285Y-174199580D02*
X155666666Y-174247200D01*
X155666666Y-174247200D02*
X155571428Y-174294819D01*
X155571428Y-174294819D02*
X155285714Y-174294819D01*
X155285714Y-174294819D02*
X155190476Y-174247200D01*
X155190476Y-174247200D02*
X155142857Y-174199580D01*
D14*
%TO.C,R5a*%
X34846359Y-199620000D02*
X35153641Y-199620000D01*
X34846359Y-200380000D02*
X35153641Y-200380000D01*
%TO.C,D5a*%
X238390000Y-184150000D02*
X238390000Y-185850000D01*
X238390000Y-184150000D02*
X241050000Y-184150000D01*
X238390000Y-185850000D02*
X241050000Y-185850000D01*
%TO.C,C41*%
X164392164Y-161640000D02*
X164607836Y-161640000D01*
X164392164Y-162360000D02*
X164607836Y-162360000D01*
%TO.C,C50_0*%
X199892164Y-124640000D02*
X200107836Y-124640000D01*
X199892164Y-125360000D02*
X200107836Y-125360000D01*
%TO.C,TP2*%
X75700000Y-278000000D02*
G75*
G02*
X74300000Y-278000000I-700000J0D01*
G01*
X74300000Y-278000000D02*
G75*
G02*
X75700000Y-278000000I700000J0D01*
G01*
%TO.C,C5_e*%
X261392164Y-194640000D02*
X261607836Y-194640000D01*
X261392164Y-195360000D02*
X261607836Y-195360000D01*
%TO.C,C2c*%
X134859420Y-267490000D02*
X135140580Y-267490000D01*
X134859420Y-268510000D02*
X135140580Y-268510000D01*
%TO.C,U21*%
X107690000Y-207390000D02*
X107690000Y-207815000D01*
X107690000Y-212610000D02*
X107690000Y-212185000D01*
X110000000Y-207390000D02*
X107690000Y-207390000D01*
X110000000Y-207390000D02*
X112310000Y-207390000D01*
X110000000Y-212610000D02*
X107690000Y-212610000D01*
X110000000Y-212610000D02*
X112310000Y-212610000D01*
X112310000Y-207390000D02*
X112310000Y-207815000D01*
X112310000Y-212610000D02*
X112310000Y-212185000D01*
X107100000Y-207815000D02*
X106860000Y-207485000D01*
X107340000Y-207485000D01*
X107100000Y-207815000D01*
G36*
X107100000Y-207815000D02*
G01*
X106860000Y-207485000D01*
X107340000Y-207485000D01*
X107100000Y-207815000D01*
G37*
%TO.C,C32*%
X148892164Y-174640000D02*
X149107836Y-174640000D01*
X148892164Y-175360000D02*
X149107836Y-175360000D01*
%TO.C,C35*%
X165392164Y-174640000D02*
X165607836Y-174640000D01*
X165392164Y-175360000D02*
X165607836Y-175360000D01*
%TO.C,C5_f*%
X266892164Y-194640000D02*
X267107836Y-194640000D01*
X266892164Y-195360000D02*
X267107836Y-195360000D01*
%TO.C,C1b*%
X109738748Y-267265000D02*
X110261252Y-267265000D01*
X109738748Y-268735000D02*
X110261252Y-268735000D01*
%TO.C,C30*%
X137892164Y-174640000D02*
X138107836Y-174640000D01*
X137892164Y-175360000D02*
X138107836Y-175360000D01*
%TO.C,C50_1*%
X205392164Y-124640000D02*
X205607836Y-124640000D01*
X205392164Y-125360000D02*
X205607836Y-125360000D01*
%TO.C,C2b*%
X129859420Y-267490000D02*
X130140580Y-267490000D01*
X129859420Y-268510000D02*
X130140580Y-268510000D01*
%TO.C,C5_d*%
X255892164Y-194640000D02*
X256107836Y-194640000D01*
X255892164Y-195360000D02*
X256107836Y-195360000D01*
%TO.C,TP5*%
X120700000Y-278000000D02*
G75*
G02*
X119300000Y-278000000I-700000J0D01*
G01*
X119300000Y-278000000D02*
G75*
G02*
X120700000Y-278000000I700000J0D01*
G01*
%TO.C,U23*%
X268990000Y-193860000D02*
X270990000Y-193860000D01*
X269000000Y-196140000D02*
X271000000Y-196140000D01*
X268630000Y-193930000D02*
X268350000Y-193930000D01*
X268630000Y-193650000D01*
X268630000Y-193930000D01*
G36*
X268630000Y-193930000D02*
G01*
X268350000Y-193930000D01*
X268630000Y-193650000D01*
X268630000Y-193930000D01*
G37*
%TO.C,C50_3*%
X216392164Y-124640000D02*
X216607836Y-124640000D01*
X216392164Y-125360000D02*
X216607836Y-125360000D01*
%TO.C,C2a*%
X124859420Y-267490000D02*
X125140580Y-267490000D01*
X124859420Y-268510000D02*
X125140580Y-268510000D01*
%TO.C,TP1*%
X60700000Y-278000000D02*
G75*
G02*
X59300000Y-278000000I-700000J0D01*
G01*
X59300000Y-278000000D02*
G75*
G02*
X60700000Y-278000000I700000J0D01*
G01*
%TO.C,C39*%
X153392164Y-161640000D02*
X153607836Y-161640000D01*
X153392164Y-162360000D02*
X153607836Y-162360000D01*
%TO.C,C4b*%
X157892164Y-161640000D02*
X158107836Y-161640000D01*
X157892164Y-162360000D02*
X158107836Y-162360000D01*
%TO.C,J6*%
X26870000Y-169240000D02*
X28000000Y-169240000D01*
X26870000Y-170000000D02*
X26870000Y-169240000D01*
X26870000Y-170760000D02*
X26870000Y-178315000D01*
X26870000Y-170760000D02*
X27436529Y-170760000D01*
X26870000Y-178315000D02*
X27692470Y-178315000D01*
X28307530Y-178315000D02*
X28962470Y-178315000D01*
X28563471Y-170760000D02*
X28706529Y-170760000D01*
X28760000Y-169305000D02*
X28962470Y-169305000D01*
X28760000Y-169436529D02*
X28760000Y-169305000D01*
X28760000Y-170706529D02*
X28760000Y-170563471D01*
X29577530Y-169305000D02*
X30400000Y-169305000D01*
X29577530Y-178315000D02*
X30400000Y-178315000D01*
X30400000Y-169305000D02*
X30400000Y-178315000D01*
%TO.C,TP7*%
X150700000Y-278000000D02*
G75*
G02*
X149300000Y-278000000I-700000J0D01*
G01*
X149300000Y-278000000D02*
G75*
G02*
X150700000Y-278000000I700000J0D01*
G01*
%TO.C,TP3*%
X90700000Y-278000000D02*
G75*
G02*
X89300000Y-278000000I-700000J0D01*
G01*
X89300000Y-278000000D02*
G75*
G02*
X90700000Y-278000000I700000J0D01*
G01*
%TO.C,R5_b*%
X34846359Y-206620000D02*
X35153641Y-206620000D01*
X34846359Y-207380000D02*
X35153641Y-207380000D01*
%TO.C,J5*%
X26870000Y-147240000D02*
X28000000Y-147240000D01*
X26870000Y-148000000D02*
X26870000Y-147240000D01*
X26870000Y-148760000D02*
X26870000Y-153775000D01*
X26870000Y-148760000D02*
X27436529Y-148760000D01*
X26870000Y-153775000D02*
X27692470Y-153775000D01*
X28307530Y-153775000D02*
X28962470Y-153775000D01*
X28563471Y-148760000D02*
X28706529Y-148760000D01*
X28760000Y-147305000D02*
X28962470Y-147305000D01*
X28760000Y-147436529D02*
X28760000Y-147305000D01*
X28760000Y-148706529D02*
X28760000Y-148563471D01*
X29577530Y-147305000D02*
X30400000Y-147305000D01*
X29577530Y-153775000D02*
X30400000Y-153775000D01*
X30400000Y-147305000D02*
X30400000Y-153775000D01*
%TO.C,U22*%
X268065000Y-207390000D02*
X267690000Y-207390000D01*
X268065000Y-212610000D02*
X267390000Y-212610000D01*
X271935000Y-207390000D02*
X272610000Y-207390000D01*
X271935000Y-212610000D02*
X272610000Y-212610000D01*
X267390000Y-207390000D02*
X267150000Y-207060000D01*
X267630000Y-207060000D01*
X267390000Y-207390000D01*
G36*
X267390000Y-207390000D02*
G01*
X267150000Y-207060000D01*
X267630000Y-207060000D01*
X267390000Y-207390000D01*
G37*
%TO.C,J8*%
X116290000Y-27750000D02*
X116290000Y-28250000D01*
X116290000Y-28250000D02*
X116790000Y-28000000D01*
X116790000Y-28000000D02*
X116290000Y-27750000D01*
%TO.C,J10*%
X231290000Y-27750000D02*
X231290000Y-28250000D01*
X231290000Y-28250000D02*
X231790000Y-28000000D01*
X231790000Y-28000000D02*
X231290000Y-27750000D01*
%TO.C,J7*%
X86290000Y-27750000D02*
X86290000Y-28250000D01*
X86290000Y-28250000D02*
X86790000Y-28000000D01*
X86790000Y-28000000D02*
X86290000Y-27750000D01*
%TO.C,C44*%
X154892164Y-267640000D02*
X155107836Y-267640000D01*
X154892164Y-268360000D02*
X155107836Y-268360000D01*
%TO.C,C43*%
X149892164Y-267640000D02*
X150107836Y-267640000D01*
X149892164Y-268360000D02*
X150107836Y-268360000D01*
%TO.C,C42*%
X144892164Y-267640000D02*
X145107836Y-267640000D01*
X144892164Y-268360000D02*
X145107836Y-268360000D01*
%TO.C,C34*%
X159892164Y-174640000D02*
X160107836Y-174640000D01*
X159892164Y-175360000D02*
X160107836Y-175360000D01*
%TO.C,U11*%
X140000000Y-253440000D02*
X139200000Y-253440000D01*
X140000000Y-253440000D02*
X140800000Y-253440000D01*
X140000000Y-256560000D02*
X139200000Y-256560000D01*
X140000000Y-256560000D02*
X140800000Y-256560000D01*
X138700000Y-253490000D02*
X138460000Y-253160000D01*
X138940000Y-253160000D01*
X138700000Y-253490000D01*
G36*
X138700000Y-253490000D02*
G01*
X138460000Y-253160000D01*
X138940000Y-253160000D01*
X138700000Y-253490000D01*
G37*
%TO.C,D5b*%
X253390000Y-184150000D02*
X253390000Y-185850000D01*
X253390000Y-184150000D02*
X256050000Y-184150000D01*
X253390000Y-185850000D02*
X256050000Y-185850000D01*
%TO.C,U25*%
X161490000Y-213860000D02*
X163490000Y-213860000D01*
X161500000Y-216140000D02*
X163500000Y-216140000D01*
X161130000Y-213930000D02*
X160850000Y-213930000D01*
X161130000Y-213650000D01*
X161130000Y-213930000D01*
G36*
X161130000Y-213930000D02*
G01*
X160850000Y-213930000D01*
X161130000Y-213650000D01*
X161130000Y-213930000D01*
G37*
%TO.C,C10_d*%
X101392164Y-124640000D02*
X101607836Y-124640000D01*
X101392164Y-125360000D02*
X101607836Y-125360000D01*
%TO.C,U15*%
X38000000Y-252440000D02*
X36050000Y-252440000D01*
X38000000Y-252440000D02*
X39950000Y-252440000D01*
X38000000Y-257560000D02*
X36050000Y-257560000D01*
X38000000Y-257560000D02*
X39950000Y-257560000D01*
X35300000Y-252535000D02*
X35060000Y-252205000D01*
X35540000Y-252205000D01*
X35300000Y-252535000D01*
G36*
X35300000Y-252535000D02*
G01*
X35060000Y-252205000D01*
X35540000Y-252205000D01*
X35300000Y-252535000D01*
G37*
%TO.C,U14*%
X90000000Y-253440000D02*
X89200000Y-253440000D01*
X90000000Y-253440000D02*
X90800000Y-253440000D01*
X90000000Y-256560000D02*
X89200000Y-256560000D01*
X90000000Y-256560000D02*
X90800000Y-256560000D01*
X88700000Y-253490000D02*
X88460000Y-253160000D01*
X88940000Y-253160000D01*
X88700000Y-253490000D01*
G36*
X88700000Y-253490000D02*
G01*
X88460000Y-253160000D01*
X88940000Y-253160000D01*
X88700000Y-253490000D01*
G37*
%TO.C,C31*%
X143392164Y-174640000D02*
X143607836Y-174640000D01*
X143392164Y-175360000D02*
X143607836Y-175360000D01*
%TO.C,C1a*%
X104738748Y-267265000D02*
X105261252Y-267265000D01*
X104738748Y-268735000D02*
X105261252Y-268735000D01*
%TO.C,C10_c*%
X95892164Y-124640000D02*
X96107836Y-124640000D01*
X95892164Y-125360000D02*
X96107836Y-125360000D01*
%TO.C,C4a*%
X151892164Y-161640000D02*
X152107836Y-161640000D01*
X151892164Y-162360000D02*
X152107836Y-162360000D01*
%TO.C,C5a*%
X244892164Y-194640000D02*
X245107836Y-194640000D01*
X244892164Y-195360000D02*
X245107836Y-195360000D01*
%TO.C,C9a*%
X229892164Y-184640000D02*
X230107836Y-184640000D01*
X229892164Y-185360000D02*
X230107836Y-185360000D01*
%TO.C,C5_g*%
X272392164Y-194640000D02*
X272607836Y-194640000D01*
X272392164Y-195360000D02*
X272607836Y-195360000D01*
%TO.C,C11*%
X70590000Y-265740000D02*
X70590000Y-270260000D01*
X70590000Y-270260000D02*
X78650000Y-270260000D01*
X78650000Y-265740000D02*
X70590000Y-265740000D01*
%TO.C,C36*%
X170892164Y-174640000D02*
X171107836Y-174640000D01*
X170892164Y-175360000D02*
X171107836Y-175360000D01*
%TO.C,Y1*%
X258000000Y-143350000D02*
X258000000Y-146650000D01*
X258000000Y-146650000D02*
X262000000Y-146650000D01*
%TO.C,C10_b*%
X90392164Y-124640000D02*
X90607836Y-124640000D01*
X90392164Y-125360000D02*
X90607836Y-125360000D01*
%TO.C,U24*%
X215000000Y-207265000D02*
X212800000Y-207265000D01*
X215000000Y-207265000D02*
X217200000Y-207265000D01*
X215000000Y-212735000D02*
X212800000Y-212735000D01*
X215000000Y-212735000D02*
X217200000Y-212735000D01*
X211140000Y-207725000D02*
X210810000Y-207965000D01*
X210810000Y-207485000D01*
X211140000Y-207725000D01*
G36*
X211140000Y-207725000D02*
G01*
X210810000Y-207965000D01*
X210810000Y-207485000D01*
X211140000Y-207725000D01*
G37*
%TO.C,SW1*%
X283350000Y-263600000D02*
X286650000Y-263600000D01*
X283350000Y-263900000D02*
X283350000Y-263600000D01*
X283350000Y-266100000D02*
X283350000Y-266400000D01*
X283350000Y-266400000D02*
X286650000Y-266400000D01*
X286650000Y-263600000D02*
X286650000Y-263900000D01*
X286650000Y-266400000D02*
X286650000Y-266100000D01*
%TO.C,U12*%
X165000000Y-253440000D02*
X164200000Y-253440000D01*
X165000000Y-253440000D02*
X165800000Y-253440000D01*
X165000000Y-256560000D02*
X164200000Y-256560000D01*
X165000000Y-256560000D02*
X165800000Y-256560000D01*
X163700000Y-253490000D02*
X163460000Y-253160000D01*
X163940000Y-253160000D01*
X163700000Y-253490000D01*
G36*
X163700000Y-253490000D02*
G01*
X163460000Y-253160000D01*
X163940000Y-253160000D01*
X163700000Y-253490000D01*
G37*
%TO.C,TP4*%
X105700000Y-278000000D02*
G75*
G02*
X104300000Y-278000000I-700000J0D01*
G01*
X104300000Y-278000000D02*
G75*
G02*
X105700000Y-278000000I700000J0D01*
G01*
%TO.C,D3*%
X23515000Y-213265000D02*
X23515000Y-214735000D01*
X23515000Y-214735000D02*
X25800000Y-214735000D01*
X25800000Y-213265000D02*
X23515000Y-213265000D01*
%TO.C,R5_c*%
X34846359Y-213620000D02*
X35153641Y-213620000D01*
X34846359Y-214380000D02*
X35153641Y-214380000D01*
%TO.C,C5b*%
X250392164Y-194640000D02*
X250607836Y-194640000D01*
X250392164Y-195360000D02*
X250607836Y-195360000D01*
%TO.C,C38*%
X147892164Y-161640000D02*
X148107836Y-161640000D01*
X147892164Y-162360000D02*
X148107836Y-162360000D01*
%TO.C,R1a*%
X204846359Y-184620000D02*
X205153641Y-184620000D01*
X204846359Y-185380000D02*
X205153641Y-185380000D01*
%TO.C,D2*%
X23515000Y-206265000D02*
X23515000Y-207735000D01*
X23515000Y-207735000D02*
X25800000Y-207735000D01*
X25800000Y-206265000D02*
X23515000Y-206265000D01*
%TO.C,TP6*%
X135700000Y-278000000D02*
G75*
G02*
X134300000Y-278000000I-700000J0D01*
G01*
X134300000Y-278000000D02*
G75*
G02*
X135700000Y-278000000I700000J0D01*
G01*
%TO.C,U20*%
X160890000Y-192365000D02*
X160890000Y-192130000D01*
X160890000Y-198110000D02*
X160890000Y-197635000D01*
X161365000Y-191890000D02*
X161190000Y-191890000D01*
X161365000Y-198110000D02*
X160890000Y-198110000D01*
X163635000Y-191890000D02*
X164110000Y-191890000D01*
X163635000Y-198110000D02*
X164110000Y-198110000D01*
X164110000Y-191890000D02*
X164110000Y-192365000D01*
X164110000Y-198110000D02*
X164110000Y-197635000D01*
X160890000Y-191890000D02*
X160650000Y-191560000D01*
X161130000Y-191560000D01*
X160890000Y-191890000D01*
G36*
X160890000Y-191890000D02*
G01*
X160650000Y-191560000D01*
X161130000Y-191560000D01*
X160890000Y-191890000D01*
G37*
%TO.C,C40*%
X158892164Y-161640000D02*
X159107836Y-161640000D01*
X158892164Y-162360000D02*
X159107836Y-162360000D01*
%TO.C,U13*%
X65000000Y-253440000D02*
X64200000Y-253440000D01*
X65000000Y-253440000D02*
X65800000Y-253440000D01*
X65000000Y-256560000D02*
X64200000Y-256560000D01*
X65000000Y-256560000D02*
X65800000Y-256560000D01*
X63700000Y-253490000D02*
X63460000Y-253160000D01*
X63940000Y-253160000D01*
X63700000Y-253490000D01*
G36*
X63700000Y-253490000D02*
G01*
X63460000Y-253160000D01*
X63940000Y-253160000D01*
X63700000Y-253490000D01*
G37*
%TO.C,F1*%
X54741422Y-267290000D02*
X55258578Y-267290000D01*
X54741422Y-268710000D02*
X55258578Y-268710000D01*
%TO.C,C37*%
X176392164Y-174640000D02*
X176607836Y-174640000D01*
X176392164Y-175360000D02*
X176607836Y-175360000D01*
%TO.C,J1*%
X13400000Y-262400000D02*
X13800000Y-262400000D01*
X13400000Y-264850000D02*
X13400000Y-262400000D01*
X13400000Y-275100000D02*
X13400000Y-271550000D01*
X13800000Y-260400000D02*
X16800000Y-260400000D01*
X13800000Y-262400000D02*
X13800000Y-260400000D01*
X16810000Y-256760000D02*
X18550000Y-256760000D01*
X16810000Y-258500000D02*
X16810000Y-256760000D01*
X20600000Y-260400000D02*
X22200000Y-260400000D01*
X22200000Y-260400000D02*
X22200000Y-262400000D01*
X22200000Y-262400000D02*
X22600000Y-262400000D01*
X22600000Y-262400000D02*
X22600000Y-264850000D01*
X22600000Y-271550000D02*
X22600000Y-275100000D01*
X22600000Y-275100000D02*
X13400000Y-275100000D01*
%TO.C,U10*%
X115000000Y-253440000D02*
X114200000Y-253440000D01*
X115000000Y-253440000D02*
X115800000Y-253440000D01*
X115000000Y-256560000D02*
X114200000Y-256560000D01*
X115000000Y-256560000D02*
X115800000Y-256560000D01*
X113700000Y-253490000D02*
X113460000Y-253160000D01*
X113940000Y-253160000D01*
X113700000Y-253490000D01*
G36*
X113700000Y-253490000D02*
G01*
X113460000Y-253160000D01*
X113940000Y-253160000D01*
X113700000Y-253490000D01*
G37*
%TO.C,L1*%
X31700000Y-261700000D02*
X44300000Y-261700000D01*
X31700000Y-264700000D02*
X31700000Y-261700000D01*
X31700000Y-274300000D02*
X31700000Y-271300000D01*
X44300000Y-261700000D02*
X44300000Y-264700000D01*
X44300000Y-271300000D02*
X44300000Y-274300000D01*
X44300000Y-274300000D02*
X31700000Y-274300000D01*
%TO.C,C10_a*%
X84892164Y-124640000D02*
X85107836Y-124640000D01*
X84892164Y-125360000D02*
X85107836Y-125360000D01*
%TO.C,D1*%
X23515000Y-199265000D02*
X23515000Y-200735000D01*
X23515000Y-200735000D02*
X25800000Y-200735000D01*
X25800000Y-199265000D02*
X23515000Y-199265000D01*
%TO.C,C50_2*%
X210892164Y-124640000D02*
X211107836Y-124640000D01*
X210892164Y-125360000D02*
X211107836Y-125360000D01*
%TO.C,J9*%
X201290000Y-27750000D02*
X201290000Y-28250000D01*
X201290000Y-28250000D02*
X201790000Y-28000000D01*
X201790000Y-28000000D02*
X201290000Y-27750000D01*
%TO.C,C45*%
X159892164Y-267640000D02*
X160107836Y-267640000D01*
X159892164Y-268360000D02*
X160107836Y-268360000D01*
%TO.C,C33*%
X154392164Y-174640000D02*
X154607836Y-174640000D01*
X154392164Y-175360000D02*
X154607836Y-175360000D01*
%TD*%
%LPC*%
D15*
%TO.C,R5a*%
X34490000Y-200000000D03*
X35510000Y-200000000D03*
%TD*%
D16*
%TO.C,U3*%
X150312000Y-143000000D03*
X150938000Y-143000000D03*
X151562000Y-143000000D03*
X152188000Y-143000000D03*
X152812000Y-143000000D03*
X153438000Y-143000000D03*
X154062000Y-143000000D03*
X154688000Y-143000000D03*
X155312000Y-143000000D03*
X155938000Y-143000000D03*
X156562000Y-143000000D03*
X157188000Y-143000000D03*
X157812000Y-143000000D03*
X158438000Y-143000000D03*
X159062000Y-143000000D03*
X159688000Y-143000000D03*
X160312000Y-143000000D03*
X160938000Y-143000000D03*
X161562000Y-143000000D03*
X162188000Y-143000000D03*
X162812000Y-143000000D03*
X163438000Y-143000000D03*
X164062000Y-143000000D03*
X164688000Y-143000000D03*
X165312000Y-143000000D03*
X165938000Y-143000000D03*
X166562000Y-143000000D03*
X167188000Y-143000000D03*
X167812000Y-143000000D03*
X168438000Y-143000000D03*
X169062000Y-143000000D03*
X169688000Y-143000000D03*
X170312000Y-143000000D03*
X170938000Y-143000000D03*
X171562000Y-143000000D03*
X172188000Y-143000000D03*
X172812000Y-143000000D03*
X173438000Y-143000000D03*
X174062000Y-143000000D03*
X174688000Y-143000000D03*
%TD*%
D17*
%TO.C,D5a*%
X238950000Y-185000000D03*
X241050000Y-185000000D03*
%TD*%
D18*
%TO.C,C41*%
X164020000Y-162000000D03*
X164980000Y-162000000D03*
%TD*%
%TO.C,C50_0*%
X199520000Y-125000000D03*
X200480000Y-125000000D03*
%TD*%
D19*
%TO.C,TP2*%
X75000000Y-278000000D03*
%TD*%
D18*
%TO.C,C5_e*%
X261020000Y-195000000D03*
X261980000Y-195000000D03*
%TD*%
D20*
%TO.C,C2c*%
X134225000Y-268000000D03*
X135775000Y-268000000D03*
%TD*%
D21*
%TO.C,U21*%
X107137500Y-208200000D03*
X107137500Y-208600000D03*
X107137500Y-209000000D03*
X107137500Y-209400000D03*
X107137500Y-209800000D03*
X107137500Y-210200000D03*
X107137500Y-210600000D03*
X107137500Y-211000000D03*
X107137500Y-211400000D03*
X107137500Y-211800000D03*
X112862500Y-211800000D03*
X112862500Y-211400000D03*
X112862500Y-211000000D03*
X112862500Y-210600000D03*
X112862500Y-210200000D03*
X112862500Y-209800000D03*
X112862500Y-209400000D03*
X112862500Y-209000000D03*
X112862500Y-208600000D03*
X112862500Y-208200000D03*
%TD*%
D18*
%TO.C,C32*%
X148520000Y-175000000D03*
X149480000Y-175000000D03*
%TD*%
%TO.C,C35*%
X165020000Y-175000000D03*
X165980000Y-175000000D03*
%TD*%
%TO.C,C5_f*%
X266520000Y-195000000D03*
X267480000Y-195000000D03*
%TD*%
D22*
%TO.C,C1b*%
X109050000Y-268000000D03*
X110950000Y-268000000D03*
%TD*%
D18*
%TO.C,C30*%
X137520000Y-175000000D03*
X138480000Y-175000000D03*
%TD*%
%TO.C,C50_1*%
X205020000Y-125000000D03*
X205980000Y-125000000D03*
%TD*%
D20*
%TO.C,C2b*%
X129225000Y-268000000D03*
X130775000Y-268000000D03*
%TD*%
D18*
%TO.C,C5_d*%
X255520000Y-195000000D03*
X256480000Y-195000000D03*
%TD*%
D19*
%TO.C,TP5*%
X120000000Y-278000000D03*
%TD*%
D23*
%TO.C,U23*%
X269050000Y-194250000D03*
X269050000Y-194750000D03*
X269050000Y-195250000D03*
X269050000Y-195750000D03*
X270950000Y-195750000D03*
X270950000Y-195250000D03*
X270950000Y-194750000D03*
X270950000Y-194250000D03*
D24*
X270000000Y-195000000D03*
%TD*%
D18*
%TO.C,C50_3*%
X216020000Y-125000000D03*
X216980000Y-125000000D03*
%TD*%
D20*
%TO.C,C2a*%
X124225000Y-268000000D03*
X125775000Y-268000000D03*
%TD*%
D19*
%TO.C,TP1*%
X60000000Y-278000000D03*
%TD*%
D18*
%TO.C,C39*%
X153020000Y-162000000D03*
X153980000Y-162000000D03*
%TD*%
D25*
%TO.C,U4*%
X217000000Y-152000000D03*
X217400000Y-152000000D03*
X217800000Y-152000000D03*
X218200000Y-152000000D03*
X218600000Y-152000000D03*
X219000000Y-152000000D03*
X219400000Y-152000000D03*
X219800000Y-152000000D03*
X220200000Y-152000000D03*
X220600000Y-152000000D03*
X221000000Y-152000000D03*
X221400000Y-152000000D03*
X221800000Y-152000000D03*
X222200000Y-152000000D03*
X222600000Y-152000000D03*
X223000000Y-152000000D03*
D26*
X224000000Y-151000000D03*
X224000000Y-150600000D03*
X224000000Y-150200000D03*
X224000000Y-149800000D03*
X224000000Y-149400000D03*
X224000000Y-149000000D03*
X224000000Y-148600000D03*
X224000000Y-148200000D03*
X224000000Y-147800000D03*
X224000000Y-147400000D03*
X224000000Y-147000000D03*
X224000000Y-146600000D03*
X224000000Y-146200000D03*
X224000000Y-145800000D03*
X224000000Y-145400000D03*
X224000000Y-145000000D03*
D25*
X223000000Y-144000000D03*
X222600000Y-144000000D03*
X222200000Y-144000000D03*
X221800000Y-144000000D03*
X221400000Y-144000000D03*
X221000000Y-144000000D03*
X220600000Y-144000000D03*
X220200000Y-144000000D03*
X219800000Y-144000000D03*
X219400000Y-144000000D03*
X219000000Y-144000000D03*
X218600000Y-144000000D03*
X218200000Y-144000000D03*
X217800000Y-144000000D03*
X217400000Y-144000000D03*
X217000000Y-144000000D03*
D26*
X216000000Y-145000000D03*
X216000000Y-145400000D03*
X216000000Y-145800000D03*
X216000000Y-146200000D03*
X216000000Y-146600000D03*
X216000000Y-147000000D03*
X216000000Y-147400000D03*
X216000000Y-147800000D03*
X216000000Y-148200000D03*
X216000000Y-148600000D03*
X216000000Y-149000000D03*
X216000000Y-149400000D03*
X216000000Y-149800000D03*
X216000000Y-150200000D03*
X216000000Y-150600000D03*
X216000000Y-151000000D03*
D27*
X220000000Y-148000000D03*
%TD*%
D25*
%TO.C,U1*%
X102000000Y-152000000D03*
X102400000Y-152000000D03*
X102800000Y-152000000D03*
X103200000Y-152000000D03*
X103600000Y-152000000D03*
X104000000Y-152000000D03*
X104400000Y-152000000D03*
X104800000Y-152000000D03*
X105200000Y-152000000D03*
X105600000Y-152000000D03*
X106000000Y-152000000D03*
X106400000Y-152000000D03*
X106800000Y-152000000D03*
X107200000Y-152000000D03*
X107600000Y-152000000D03*
X108000000Y-152000000D03*
D26*
X109000000Y-151000000D03*
X109000000Y-150600000D03*
X109000000Y-150200000D03*
X109000000Y-149800000D03*
X109000000Y-149400000D03*
X109000000Y-149000000D03*
X109000000Y-148600000D03*
X109000000Y-148200000D03*
X109000000Y-147800000D03*
X109000000Y-147400000D03*
X109000000Y-147000000D03*
X109000000Y-146600000D03*
X109000000Y-146200000D03*
X109000000Y-145800000D03*
X109000000Y-145400000D03*
X109000000Y-145000000D03*
D25*
X108000000Y-144000000D03*
X107600000Y-144000000D03*
X107200000Y-144000000D03*
X106800000Y-144000000D03*
X106400000Y-144000000D03*
X106000000Y-144000000D03*
X105600000Y-144000000D03*
X105200000Y-144000000D03*
X104800000Y-144000000D03*
X104400000Y-144000000D03*
X104000000Y-144000000D03*
X103600000Y-144000000D03*
X103200000Y-144000000D03*
X102800000Y-144000000D03*
X102400000Y-144000000D03*
X102000000Y-144000000D03*
D26*
X101000000Y-145000000D03*
X101000000Y-145400000D03*
X101000000Y-145800000D03*
X101000000Y-146200000D03*
X101000000Y-146600000D03*
X101000000Y-147000000D03*
X101000000Y-147400000D03*
X101000000Y-147800000D03*
X101000000Y-148200000D03*
X101000000Y-148600000D03*
X101000000Y-149000000D03*
X101000000Y-149400000D03*
X101000000Y-149800000D03*
X101000000Y-150200000D03*
X101000000Y-150600000D03*
X101000000Y-151000000D03*
D27*
X105000000Y-148000000D03*
%TD*%
D18*
%TO.C,C4b*%
X157520000Y-162000000D03*
X158480000Y-162000000D03*
%TD*%
D28*
%TO.C,J6*%
X28000000Y-170000000D03*
D29*
X29270000Y-170000000D03*
X28000000Y-171270000D03*
X29270000Y-171270000D03*
X28000000Y-172540000D03*
X29270000Y-172540000D03*
X28000000Y-173810000D03*
X29270000Y-173810000D03*
X28000000Y-175080000D03*
X29270000Y-175080000D03*
X28000000Y-176350000D03*
X29270000Y-176350000D03*
X28000000Y-177620000D03*
X29270000Y-177620000D03*
%TD*%
D19*
%TO.C,TP7*%
X150000000Y-278000000D03*
%TD*%
%TO.C,TP3*%
X90000000Y-278000000D03*
%TD*%
D15*
%TO.C,R5_b*%
X34490000Y-207000000D03*
X35510000Y-207000000D03*
%TD*%
D28*
%TO.C,J5*%
X28000000Y-148000000D03*
D29*
X29270000Y-148000000D03*
X28000000Y-149270000D03*
X29270000Y-149270000D03*
X28000000Y-150540000D03*
X29270000Y-150540000D03*
X28000000Y-151810000D03*
X29270000Y-151810000D03*
X28000000Y-153080000D03*
X29270000Y-153080000D03*
%TD*%
D30*
%TO.C,U22*%
X267550000Y-207725000D03*
X267550000Y-208075000D03*
X267550000Y-208425000D03*
X267550000Y-208775000D03*
X267550000Y-209125000D03*
X267550000Y-209475000D03*
X267550000Y-209825000D03*
X267550000Y-210175000D03*
X267550000Y-210525000D03*
X267550000Y-210875000D03*
X267550000Y-211225000D03*
X267550000Y-211575000D03*
X267550000Y-211925000D03*
X267550000Y-212275000D03*
D31*
X268425000Y-212450000D03*
X268775000Y-212450000D03*
X269125000Y-212450000D03*
X269475000Y-212450000D03*
X269825000Y-212450000D03*
X270175000Y-212450000D03*
X270525000Y-212450000D03*
X270875000Y-212450000D03*
X271225000Y-212450000D03*
X271575000Y-212450000D03*
D30*
X272450000Y-212275000D03*
X272450000Y-211925000D03*
X272450000Y-211575000D03*
X272450000Y-211225000D03*
X272450000Y-210875000D03*
X272450000Y-210525000D03*
X272450000Y-210175000D03*
X272450000Y-209825000D03*
X272450000Y-209475000D03*
X272450000Y-209125000D03*
X272450000Y-208775000D03*
X272450000Y-208425000D03*
X272450000Y-208075000D03*
X272450000Y-207725000D03*
D31*
X271575000Y-207550000D03*
X271225000Y-207550000D03*
X270875000Y-207550000D03*
X270525000Y-207550000D03*
X270175000Y-207550000D03*
X269825000Y-207550000D03*
X269475000Y-207550000D03*
X269125000Y-207550000D03*
X268775000Y-207550000D03*
X268425000Y-207550000D03*
D32*
X270000000Y-210000000D03*
%TD*%
D33*
%TO.C,J8*%
X120000000Y-28000000D03*
X120000000Y-23750000D03*
X120000000Y-32250000D03*
%TD*%
%TO.C,J10*%
X235000000Y-28000000D03*
X235000000Y-23750000D03*
X235000000Y-32250000D03*
%TD*%
%TO.C,J7*%
X90000000Y-28000000D03*
X90000000Y-23750000D03*
X90000000Y-32250000D03*
%TD*%
D34*
%TO.C,MH2*%
X308000000Y-17000000D03*
%TD*%
D18*
%TO.C,C44*%
X154520000Y-268000000D03*
X155480000Y-268000000D03*
%TD*%
D34*
%TO.C,MH1*%
X17000000Y-17000000D03*
%TD*%
D18*
%TO.C,C43*%
X149520000Y-268000000D03*
X150480000Y-268000000D03*
%TD*%
%TO.C,C42*%
X144520000Y-268000000D03*
X145480000Y-268000000D03*
%TD*%
%TO.C,C34*%
X159520000Y-175000000D03*
X160480000Y-175000000D03*
%TD*%
D35*
%TO.C,U11*%
X138862500Y-254050000D03*
X138862500Y-255000000D03*
X138862500Y-255950000D03*
X141137500Y-255950000D03*
X141137500Y-254050000D03*
%TD*%
D17*
%TO.C,D5b*%
X253950000Y-185000000D03*
X256050000Y-185000000D03*
%TD*%
D36*
%TO.C,U2*%
X156500000Y-142000000D03*
X157300000Y-142000000D03*
X158100000Y-142000000D03*
X158900000Y-142000000D03*
X159700000Y-142000000D03*
X160500000Y-142000000D03*
X161300000Y-142000000D03*
X162100000Y-142000000D03*
X162900000Y-142000000D03*
X163700000Y-142000000D03*
X164500000Y-142000000D03*
X165300000Y-142000000D03*
X166100000Y-142000000D03*
X166900000Y-142000000D03*
X167700000Y-142000000D03*
X168500000Y-142000000D03*
X156500000Y-142800000D03*
X157300000Y-142800000D03*
X158100000Y-142800000D03*
X158900000Y-142800000D03*
X159700000Y-142800000D03*
X160500000Y-142800000D03*
X161300000Y-142800000D03*
X162100000Y-142800000D03*
X162900000Y-142800000D03*
X163700000Y-142800000D03*
X164500000Y-142800000D03*
X165300000Y-142800000D03*
X166100000Y-142800000D03*
X166900000Y-142800000D03*
X167700000Y-142800000D03*
X168500000Y-142800000D03*
X156500000Y-143600000D03*
X157300000Y-143600000D03*
X158100000Y-143600000D03*
X158900000Y-143600000D03*
X159700000Y-143600000D03*
X160500000Y-143600000D03*
X161300000Y-143600000D03*
X162100000Y-143600000D03*
X162900000Y-143600000D03*
X163700000Y-143600000D03*
X164500000Y-143600000D03*
X165300000Y-143600000D03*
X166100000Y-143600000D03*
X166900000Y-143600000D03*
X167700000Y-143600000D03*
X168500000Y-143600000D03*
X156500000Y-144400000D03*
X157300000Y-144400000D03*
X158100000Y-144400000D03*
X158900000Y-144400000D03*
X159700000Y-144400000D03*
X160500000Y-144400000D03*
X161300000Y-144400000D03*
X162100000Y-144400000D03*
X162900000Y-144400000D03*
X163700000Y-144400000D03*
X164500000Y-144400000D03*
X165300000Y-144400000D03*
X166100000Y-144400000D03*
X166900000Y-144400000D03*
X167700000Y-144400000D03*
X168500000Y-144400000D03*
X156500000Y-145200000D03*
X157300000Y-145200000D03*
X158100000Y-145200000D03*
X158900000Y-145200000D03*
X159700000Y-145200000D03*
X160500000Y-145200000D03*
X161300000Y-145200000D03*
X162100000Y-145200000D03*
X162900000Y-145200000D03*
X163700000Y-145200000D03*
X164500000Y-145200000D03*
X165300000Y-145200000D03*
X166100000Y-145200000D03*
X166900000Y-145200000D03*
X167700000Y-145200000D03*
X168500000Y-145200000D03*
X156500000Y-146000000D03*
X157300000Y-146000000D03*
X158100000Y-146000000D03*
X158900000Y-146000000D03*
X159700000Y-146000000D03*
X160500000Y-146000000D03*
X161300000Y-146000000D03*
X162100000Y-146000000D03*
X162900000Y-146000000D03*
X163700000Y-146000000D03*
X164500000Y-146000000D03*
X165300000Y-146000000D03*
X166100000Y-146000000D03*
X166900000Y-146000000D03*
X167700000Y-146000000D03*
X168500000Y-146000000D03*
X156500000Y-146800000D03*
X157300000Y-146800000D03*
X158100000Y-146800000D03*
X158900000Y-146800000D03*
X159700000Y-146800000D03*
X160500000Y-146800000D03*
X161300000Y-146800000D03*
X162100000Y-146800000D03*
X162900000Y-146800000D03*
X163700000Y-146800000D03*
X164500000Y-146800000D03*
X165300000Y-146800000D03*
X166100000Y-146800000D03*
X166900000Y-146800000D03*
X167700000Y-146800000D03*
X168500000Y-146800000D03*
X156500000Y-147600000D03*
X157300000Y-147600000D03*
X158100000Y-147600000D03*
X158900000Y-147600000D03*
X159700000Y-147600000D03*
X160500000Y-147600000D03*
X161300000Y-147600000D03*
X162100000Y-147600000D03*
X162900000Y-147600000D03*
X163700000Y-147600000D03*
X164500000Y-147600000D03*
X165300000Y-147600000D03*
X166100000Y-147600000D03*
X166900000Y-147600000D03*
X167700000Y-147600000D03*
X168500000Y-147600000D03*
X156500000Y-148400000D03*
X157300000Y-148400000D03*
X158100000Y-148400000D03*
X158900000Y-148400000D03*
X159700000Y-148400000D03*
X160500000Y-148400000D03*
X161300000Y-148400000D03*
X162100000Y-148400000D03*
X162900000Y-148400000D03*
X163700000Y-148400000D03*
X164500000Y-148400000D03*
X165300000Y-148400000D03*
X166100000Y-148400000D03*
X166900000Y-148400000D03*
X167700000Y-148400000D03*
X168500000Y-148400000D03*
X156500000Y-149200000D03*
X157300000Y-149200000D03*
X158100000Y-149200000D03*
X158900000Y-149200000D03*
X159700000Y-149200000D03*
X160500000Y-149200000D03*
X161300000Y-149200000D03*
X162100000Y-149200000D03*
X162900000Y-149200000D03*
X163700000Y-149200000D03*
X164500000Y-149200000D03*
X165300000Y-149200000D03*
X166100000Y-149200000D03*
X166900000Y-149200000D03*
X167700000Y-149200000D03*
X168500000Y-149200000D03*
X156500000Y-150000000D03*
X157300000Y-150000000D03*
X158100000Y-150000000D03*
X158900000Y-150000000D03*
X159700000Y-150000000D03*
X160500000Y-150000000D03*
X161300000Y-150000000D03*
X162100000Y-150000000D03*
X162900000Y-150000000D03*
X163700000Y-150000000D03*
X164500000Y-150000000D03*
X165300000Y-150000000D03*
X166100000Y-150000000D03*
X166900000Y-150000000D03*
X167700000Y-150000000D03*
X168500000Y-150000000D03*
X156500000Y-150800000D03*
X157300000Y-150800000D03*
X158100000Y-150800000D03*
X158900000Y-150800000D03*
X159700000Y-150800000D03*
X160500000Y-150800000D03*
X161300000Y-150800000D03*
X162100000Y-150800000D03*
X162900000Y-150800000D03*
X163700000Y-150800000D03*
X164500000Y-150800000D03*
X165300000Y-150800000D03*
X166100000Y-150800000D03*
X166900000Y-150800000D03*
X167700000Y-150800000D03*
X168500000Y-150800000D03*
X156500000Y-151600000D03*
X157300000Y-151600000D03*
X158100000Y-151600000D03*
X158900000Y-151600000D03*
X159700000Y-151600000D03*
X160500000Y-151600000D03*
X161300000Y-151600000D03*
X162100000Y-151600000D03*
X162900000Y-151600000D03*
X163700000Y-151600000D03*
X164500000Y-151600000D03*
X165300000Y-151600000D03*
X166100000Y-151600000D03*
X166900000Y-151600000D03*
X167700000Y-151600000D03*
X168500000Y-151600000D03*
X156500000Y-152400000D03*
X157300000Y-152400000D03*
X158100000Y-152400000D03*
X158900000Y-152400000D03*
X159700000Y-152400000D03*
X160500000Y-152400000D03*
X161300000Y-152400000D03*
X162100000Y-152400000D03*
X162900000Y-152400000D03*
X163700000Y-152400000D03*
X164500000Y-152400000D03*
X165300000Y-152400000D03*
X166100000Y-152400000D03*
X166900000Y-152400000D03*
X167700000Y-152400000D03*
X168500000Y-152400000D03*
X156500000Y-153200000D03*
X157300000Y-153200000D03*
X158100000Y-153200000D03*
X158900000Y-153200000D03*
X159700000Y-153200000D03*
X160500000Y-153200000D03*
X161300000Y-153200000D03*
X162100000Y-153200000D03*
X162900000Y-153200000D03*
X163700000Y-153200000D03*
X164500000Y-153200000D03*
X165300000Y-153200000D03*
X166100000Y-153200000D03*
X166900000Y-153200000D03*
X167700000Y-153200000D03*
X168500000Y-153200000D03*
X156500000Y-154000000D03*
X157300000Y-154000000D03*
X158100000Y-154000000D03*
X158900000Y-154000000D03*
X159700000Y-154000000D03*
X160500000Y-154000000D03*
X161300000Y-154000000D03*
X162100000Y-154000000D03*
X162900000Y-154000000D03*
X163700000Y-154000000D03*
X164500000Y-154000000D03*
X165300000Y-154000000D03*
X166100000Y-154000000D03*
X166900000Y-154000000D03*
X167700000Y-154000000D03*
X168500000Y-154000000D03*
%TD*%
D23*
%TO.C,U25*%
X161550000Y-214250000D03*
X161550000Y-214750000D03*
X161550000Y-215250000D03*
X161550000Y-215750000D03*
X163450000Y-215750000D03*
X163450000Y-215250000D03*
X163450000Y-214750000D03*
X163450000Y-214250000D03*
D24*
X162500000Y-215000000D03*
%TD*%
D18*
%TO.C,C10_d*%
X101020000Y-125000000D03*
X101980000Y-125000000D03*
%TD*%
D37*
%TO.C,U15*%
X35525000Y-253095000D03*
X35525000Y-254365000D03*
X35525000Y-255635000D03*
X35525000Y-256905000D03*
X40475000Y-256905000D03*
X40475000Y-255635000D03*
X40475000Y-254365000D03*
X40475000Y-253095000D03*
D38*
X38000000Y-255000000D03*
%TD*%
D35*
%TO.C,U14*%
X88862500Y-254050000D03*
X88862500Y-255000000D03*
X88862500Y-255950000D03*
X91137500Y-255950000D03*
X91137500Y-254050000D03*
%TD*%
D18*
%TO.C,C31*%
X143020000Y-175000000D03*
X143980000Y-175000000D03*
%TD*%
D22*
%TO.C,C1a*%
X104050000Y-268000000D03*
X105950000Y-268000000D03*
%TD*%
D18*
%TO.C,C10_c*%
X95520000Y-125000000D03*
X96480000Y-125000000D03*
%TD*%
%TO.C,C4a*%
X151520000Y-162000000D03*
X152480000Y-162000000D03*
%TD*%
%TO.C,C5a*%
X244520000Y-195000000D03*
X245480000Y-195000000D03*
%TD*%
%TO.C,C9a*%
X229520000Y-185000000D03*
X230480000Y-185000000D03*
%TD*%
%TO.C,C5_g*%
X272020000Y-195000000D03*
X272980000Y-195000000D03*
%TD*%
D39*
%TO.C,C11*%
X71887500Y-268000000D03*
X78112500Y-268000000D03*
%TD*%
D18*
%TO.C,C36*%
X170520000Y-175000000D03*
X171480000Y-175000000D03*
%TD*%
D40*
%TO.C,Y1*%
X258900000Y-145850000D03*
X261100000Y-145850000D03*
X261100000Y-144150000D03*
X258900000Y-144150000D03*
%TD*%
D16*
%TO.C,J11*%
X153875000Y-28000000D03*
X154625000Y-28000000D03*
X155375000Y-28000000D03*
X156125000Y-28000000D03*
X156875000Y-28000000D03*
X157625000Y-28000000D03*
X158375000Y-28000000D03*
X159125000Y-28000000D03*
X159875000Y-28000000D03*
X160625000Y-28000000D03*
X161375000Y-28000000D03*
X162125000Y-28000000D03*
X162875000Y-28000000D03*
X163625000Y-28000000D03*
X164375000Y-28000000D03*
X165125000Y-28000000D03*
X165875000Y-28000000D03*
X166625000Y-28000000D03*
X167375000Y-28000000D03*
X168125000Y-28000000D03*
X168875000Y-28000000D03*
X169625000Y-28000000D03*
X170375000Y-28000000D03*
X171125000Y-28000000D03*
%TD*%
D18*
%TO.C,C10_b*%
X90020000Y-125000000D03*
X90980000Y-125000000D03*
%TD*%
D41*
%TO.C,U24*%
X212137500Y-207725000D03*
X212137500Y-208375000D03*
X212137500Y-209025000D03*
X212137500Y-209675000D03*
X212137500Y-210325000D03*
X212137500Y-210975000D03*
X212137500Y-211625000D03*
X212137500Y-212275000D03*
X217862500Y-212275000D03*
X217862500Y-211625000D03*
X217862500Y-210975000D03*
X217862500Y-210325000D03*
X217862500Y-209675000D03*
X217862500Y-209025000D03*
X217862500Y-208375000D03*
X217862500Y-207725000D03*
%TD*%
D42*
%TO.C,J2*%
X280000000Y-196250000D03*
X280000000Y-196750000D03*
X280000000Y-197250000D03*
X280000000Y-197750000D03*
X280000000Y-198250000D03*
X280000000Y-198750000D03*
X280000000Y-199250000D03*
X280000000Y-199750000D03*
X280000000Y-200250000D03*
X280000000Y-200750000D03*
X280000000Y-201250000D03*
X280000000Y-201750000D03*
X280000000Y-202250000D03*
X280000000Y-202750000D03*
X280000000Y-203250000D03*
X280000000Y-203750000D03*
%TD*%
D43*
%TO.C,SW1*%
X283300000Y-265000000D03*
X286700000Y-265000000D03*
%TD*%
D35*
%TO.C,U12*%
X163862500Y-254050000D03*
X163862500Y-255000000D03*
X163862500Y-255950000D03*
X166137500Y-255950000D03*
X166137500Y-254050000D03*
%TD*%
D19*
%TO.C,TP4*%
X105000000Y-278000000D03*
%TD*%
D44*
%TO.C,D3*%
X24212500Y-214000000D03*
X25787500Y-214000000D03*
%TD*%
D15*
%TO.C,R5_c*%
X34490000Y-214000000D03*
X35510000Y-214000000D03*
%TD*%
D18*
%TO.C,C5b*%
X250020000Y-195000000D03*
X250980000Y-195000000D03*
%TD*%
%TO.C,C38*%
X147520000Y-162000000D03*
X148480000Y-162000000D03*
%TD*%
D15*
%TO.C,R1a*%
X204490000Y-185000000D03*
X205510000Y-185000000D03*
%TD*%
D44*
%TO.C,D2*%
X24212500Y-207000000D03*
X25787500Y-207000000D03*
%TD*%
D19*
%TO.C,TP6*%
X135000000Y-278000000D03*
%TD*%
D45*
%TO.C,U20*%
X161037500Y-192750000D03*
X161037500Y-193250000D03*
X161037500Y-193750000D03*
X161037500Y-194250000D03*
X161037500Y-194750000D03*
X161037500Y-195250000D03*
X161037500Y-195750000D03*
X161037500Y-196250000D03*
X161037500Y-196750000D03*
X161037500Y-197250000D03*
D46*
X161750000Y-197975000D03*
X162250000Y-197975000D03*
X162750000Y-197975000D03*
X163250000Y-197975000D03*
D45*
X163962500Y-197250000D03*
X163962500Y-196750000D03*
X163962500Y-196250000D03*
X163962500Y-195750000D03*
X163962500Y-195250000D03*
X163962500Y-194750000D03*
X163962500Y-194250000D03*
X163962500Y-193750000D03*
X163962500Y-193250000D03*
X163962500Y-192750000D03*
D46*
X163250000Y-192025000D03*
X162750000Y-192025000D03*
X162250000Y-192025000D03*
X161750000Y-192025000D03*
D47*
X162500000Y-195000000D03*
%TD*%
D18*
%TO.C,C40*%
X158520000Y-162000000D03*
X159480000Y-162000000D03*
%TD*%
D35*
%TO.C,U13*%
X63862500Y-254050000D03*
X63862500Y-255000000D03*
X63862500Y-255950000D03*
X66137500Y-255950000D03*
X66137500Y-254050000D03*
%TD*%
D34*
%TO.C,MH4*%
X308000000Y-283000000D03*
%TD*%
D48*
%TO.C,F1*%
X54062500Y-268000000D03*
X55937500Y-268000000D03*
%TD*%
D18*
%TO.C,C37*%
X176020000Y-175000000D03*
X176980000Y-175000000D03*
%TD*%
D49*
%TO.C,J1*%
X18000000Y-272000000D03*
D50*
X18700000Y-259200000D03*
D51*
X11550000Y-268200000D03*
X24450000Y-268200000D03*
%TD*%
D35*
%TO.C,U10*%
X113862500Y-254050000D03*
X113862500Y-255000000D03*
X113862500Y-255950000D03*
X116137500Y-255950000D03*
X116137500Y-254050000D03*
%TD*%
D34*
%TO.C,MH3*%
X17000000Y-283000000D03*
%TD*%
D52*
%TO.C,L1*%
X33050000Y-268000000D03*
X42950000Y-268000000D03*
%TD*%
D18*
%TO.C,C10_a*%
X84520000Y-125000000D03*
X85480000Y-125000000D03*
%TD*%
D44*
%TO.C,D1*%
X24212500Y-200000000D03*
X25787500Y-200000000D03*
%TD*%
D18*
%TO.C,C50_2*%
X210520000Y-125000000D03*
X211480000Y-125000000D03*
%TD*%
D33*
%TO.C,J9*%
X205000000Y-28000000D03*
X205000000Y-23750000D03*
X205000000Y-32250000D03*
%TD*%
D18*
%TO.C,C45*%
X159520000Y-268000000D03*
X160480000Y-268000000D03*
%TD*%
%TO.C,C33*%
X154020000Y-175000000D03*
X154980000Y-175000000D03*
%TD*%
%LPD*%
D36*
X28000000Y-170000000D03*
X29270000Y-170000000D03*
X28000000Y-171270000D03*
X29270000Y-171270000D03*
X28000000Y-172540000D03*
X29270000Y-172540000D03*
X28000000Y-173810000D03*
X29270000Y-173810000D03*
X28000000Y-175080000D03*
X29270000Y-175080000D03*
X28000000Y-176350000D03*
X29270000Y-176350000D03*
X28000000Y-177620000D03*
X29270000Y-177620000D03*
X28000000Y-148000000D03*
X29270000Y-148000000D03*
X28000000Y-149270000D03*
X29270000Y-149270000D03*
X28000000Y-150540000D03*
X29270000Y-150540000D03*
X28000000Y-151810000D03*
X29270000Y-151810000D03*
X28000000Y-153080000D03*
X29270000Y-153080000D03*
X308000000Y-17000000D03*
X17000000Y-17000000D03*
X308000000Y-283000000D03*
X18000000Y-272000000D03*
X17000000Y-283000000D03*
M02*
