%TF.GenerationSoftware,KiCad,Pcbnew,9.0.9-rc1*%
%TF.CreationDate,2026-06-20T16:22:39-07:00*%
%TF.ProjectId,TFLN_AI_NODE_X2,54464c4e-5f41-4495-9f4e-4f44455f5832,rev?*%
%TF.SameCoordinates,Original*%
%TF.FileFunction,Paste,Top*%
%TF.FilePolarity,Positive*%
%FSLAX46Y46*%
G04 Gerber Fmt 4.6, Leading zero omitted, Abs format (unit mm)*
G04 Created by KiCad (PCBNEW 9.0.9-rc1) date 2026-06-20 16:22:39*
%MOMM*%
%LPD*%
G01*
G04 APERTURE LIST*
G04 Aperture macros list*
%AMRoundRect*
0 Rectangle with rounded corners*
0 $1 Rounding radius*
0 $2 $3 $4 $5 $6 $7 $8 $9 X,Y pos of 4 corners*
0 Add a 4 corners polygon primitive as box body*
4,1,4,$2,$3,$4,$5,$6,$7,$8,$9,$2,$3,0*
0 Add four circle primitives for the rounded corners*
1,1,$1+$1,$2,$3*
1,1,$1+$1,$4,$5*
1,1,$1+$1,$6,$7*
1,1,$1+$1,$8,$9*
0 Add four rect primitives between the rounded corners*
20,1,$1+$1,$2,$3,$4,$5,0*
20,1,$1+$1,$4,$5,$6,$7,0*
20,1,$1+$1,$6,$7,$8,$9,0*
20,1,$1+$1,$8,$9,$2,$3,0*%
G04 Aperture macros list end*
%ADD10RoundRect,0.135000X-0.135000X-0.185000X0.135000X-0.185000X0.135000X0.185000X-0.135000X0.185000X0*%
%ADD11R,0.500000X0.800000*%
%ADD12RoundRect,0.112500X-0.187500X-0.112500X0.187500X-0.112500X0.187500X0.112500X-0.187500X0.112500X0*%
%ADD13RoundRect,0.140000X-0.140000X-0.170000X0.140000X-0.170000X0.140000X0.170000X-0.140000X0.170000X0*%
%ADD14RoundRect,0.225000X-0.225000X-0.250000X0.225000X-0.250000X0.225000X0.250000X-0.225000X0.250000X0*%
%ADD15RoundRect,0.062500X-0.675000X-0.062500X0.675000X-0.062500X0.675000X0.062500X-0.675000X0.062500X0*%
%ADD16RoundRect,0.250000X-0.250000X-0.475000X0.250000X-0.475000X0.250000X0.475000X-0.250000X0.475000X0*%
%ADD17R,0.750000X0.650000*%
%ADD18RoundRect,0.062500X-0.187500X-0.062500X0.187500X-0.062500X0.187500X0.062500X-0.187500X0.062500X0*%
%ADD19R,0.200000X0.800000*%
%ADD20R,0.800000X0.200000*%
%ADD21R,5.500000X5.500000*%
%ADD22RoundRect,0.247500X-0.247500X-0.247500X0.247500X-0.247500X0.247500X0.247500X-0.247500X0.247500X0*%
%ADD23RoundRect,0.050000X-0.350000X-0.050000X0.350000X-0.050000X0.350000X0.050000X-0.350000X0.050000X0*%
%ADD24RoundRect,0.050000X-0.050000X-0.350000X0.050000X-0.350000X0.050000X0.350000X-0.050000X0.350000X0*%
%ADD25R,5.080000X1.500000*%
%ADD26RoundRect,0.150000X-0.512500X-0.150000X0.512500X-0.150000X0.512500X0.150000X-0.512500X0.150000X0*%
%ADD27C,0.350000*%
%ADD28RoundRect,0.232500X-0.232500X-0.232500X0.232500X-0.232500X0.232500X0.232500X-0.232500X0.232500X0*%
%ADD29RoundRect,0.150000X-0.825000X-0.150000X0.825000X-0.150000X0.825000X0.150000X-0.825000X0.150000X0*%
%ADD30RoundRect,0.250000X-0.787500X-1.025000X0.787500X-1.025000X0.787500X1.025000X-0.787500X1.025000X0*%
%ADD31R,1.400000X1.200000*%
%ADD32RoundRect,0.100000X-0.637500X-0.100000X0.637500X-0.100000X0.637500X0.100000X-0.637500X0.100000X0*%
%ADD33R,1.000000X0.300000*%
%ADD34R,0.900000X1.700000*%
%ADD35RoundRect,0.218750X-0.218750X-0.256250X0.218750X-0.256250X0.218750X0.256250X-0.218750X0.256250X0*%
%ADD36RoundRect,0.172500X-0.172500X-0.307500X0.172500X-0.307500X0.172500X0.307500X-0.172500X0.307500X0*%
%ADD37RoundRect,0.062500X-0.350000X-0.062500X0.350000X-0.062500X0.350000X0.062500X-0.350000X0.062500X0*%
%ADD38RoundRect,0.062500X-0.062500X-0.337500X0.062500X-0.337500X0.062500X0.337500X-0.062500X0.337500X0*%
%ADD39RoundRect,0.243750X-0.243750X-0.456250X0.243750X-0.456250X0.243750X0.456250X-0.243750X0.456250X0*%
%ADD40R,3.300000X4.400000*%
%ADD41R,3.900000X6.200000*%
%ADD42R,2.900000X5.400000*%
G04 APERTURE END LIST*
D10*
%TO.C,R5a*%
X32365000Y-215333333D03*
X33385000Y-215333333D03*
%TD*%
D11*
%TO.C,U3*%
X150312000Y-94000000D03*
X150938000Y-94000000D03*
X151562000Y-94000000D03*
X152188000Y-94000000D03*
X152812000Y-94000000D03*
X153438000Y-94000000D03*
X154062000Y-94000000D03*
X154688000Y-94000000D03*
X155312000Y-94000000D03*
X155938000Y-94000000D03*
X156562000Y-94000000D03*
X157188000Y-94000000D03*
X157812000Y-94000000D03*
X158438000Y-94000000D03*
X159062000Y-94000000D03*
X159688000Y-94000000D03*
X160312000Y-94000000D03*
X160938000Y-94000000D03*
X161562000Y-94000000D03*
X162188000Y-94000000D03*
X162812000Y-94000000D03*
X163438000Y-94000000D03*
X164062000Y-94000000D03*
X164688000Y-94000000D03*
X165312000Y-94000000D03*
X165938000Y-94000000D03*
X166562000Y-94000000D03*
X167188000Y-94000000D03*
X167812000Y-94000000D03*
X168438000Y-94000000D03*
X169062000Y-94000000D03*
X169688000Y-94000000D03*
X170312000Y-94000000D03*
X170938000Y-94000000D03*
X171562000Y-94000000D03*
X172188000Y-94000000D03*
X172812000Y-94000000D03*
X173438000Y-94000000D03*
X174062000Y-94000000D03*
X174688000Y-94000000D03*
%TD*%
D12*
%TO.C,D5a*%
X236175000Y-183600000D03*
X238275000Y-183600000D03*
%TD*%
D13*
%TO.C,C41*%
X174220000Y-79066666D03*
X175180000Y-79066666D03*
%TD*%
%TO.C,C50_0*%
X201669999Y-138800000D03*
X202629999Y-138800000D03*
%TD*%
%TO.C,C5_e*%
X239794999Y-209733333D03*
X240754999Y-209733333D03*
%TD*%
D14*
%TO.C,C2c*%
X82424999Y-243333333D03*
X83974999Y-243333333D03*
%TD*%
D15*
%TO.C,U21*%
X132187500Y-77266666D03*
X132187500Y-77666666D03*
X132187500Y-78066666D03*
X132187500Y-78466666D03*
X132187500Y-78866666D03*
X132187500Y-79266666D03*
X132187500Y-79666666D03*
X132187500Y-80066666D03*
X132187500Y-80466666D03*
X132187500Y-80866666D03*
X137912500Y-80866666D03*
X137912500Y-80466666D03*
X137912500Y-80066666D03*
X137912500Y-79666666D03*
X137912500Y-79266666D03*
X137912500Y-78866666D03*
X137912500Y-78466666D03*
X137912500Y-78066666D03*
X137912500Y-77666666D03*
X137912500Y-77266666D03*
%TD*%
D13*
%TO.C,C32*%
X158970000Y-183600000D03*
X159930000Y-183600000D03*
%TD*%
%TO.C,C35*%
X174220000Y-183600000D03*
X175180000Y-183600000D03*
%TD*%
%TO.C,C5_f*%
X244370000Y-209733333D03*
X245330000Y-209733333D03*
%TD*%
D16*
%TO.C,C1b*%
X54800000Y-243333333D03*
X56700000Y-243333333D03*
%TD*%
D13*
%TO.C,C30*%
X149819999Y-183600000D03*
X150779999Y-183600000D03*
%TD*%
%TO.C,C50_1*%
X206245000Y-138800000D03*
X207205000Y-138800000D03*
%TD*%
D14*
%TO.C,C2b*%
X77850000Y-243333333D03*
X79400000Y-243333333D03*
%TD*%
D13*
%TO.C,C5_d*%
X235220000Y-209733333D03*
X236180000Y-209733333D03*
%TD*%
D17*
%TO.C,U23*%
X189950000Y-183200000D03*
X189950000Y-184000000D03*
D18*
X189000000Y-182850000D03*
X189000000Y-183350000D03*
X189000000Y-183850000D03*
X189000000Y-184350000D03*
X190900000Y-184350000D03*
X190900000Y-183850000D03*
X190900000Y-183350000D03*
X190900000Y-182850000D03*
%TD*%
D13*
%TO.C,C50_3*%
X215395000Y-138800000D03*
X216355000Y-138800000D03*
%TD*%
D14*
%TO.C,C2a*%
X73275000Y-243333333D03*
X74825000Y-243333333D03*
%TD*%
D13*
%TO.C,C39*%
X154395000Y-79066666D03*
X155355000Y-79066666D03*
%TD*%
D19*
%TO.C,U1*%
X106125000Y-126000000D03*
X106525000Y-126000000D03*
X106925000Y-126000000D03*
X107325000Y-126000000D03*
X107725000Y-126000000D03*
X108125000Y-126000000D03*
X108525000Y-126000000D03*
X108925000Y-126000000D03*
X109325000Y-126000000D03*
X109725000Y-126000000D03*
X110125000Y-126000000D03*
X110525000Y-126000000D03*
X110925000Y-126000000D03*
X111325000Y-126000000D03*
X111725000Y-126000000D03*
X112125000Y-126000000D03*
D20*
X113125000Y-125000000D03*
X113125000Y-124600000D03*
X113125000Y-124200000D03*
X113125000Y-123800000D03*
X113125000Y-123400000D03*
X113125000Y-123000000D03*
X113125000Y-122600000D03*
X113125000Y-122200000D03*
X113125000Y-121800000D03*
X113125000Y-121400000D03*
X113125000Y-121000000D03*
X113125000Y-120600000D03*
X113125000Y-120200000D03*
X113125000Y-119800000D03*
X113125000Y-119400000D03*
X113125000Y-119000000D03*
D19*
X112125000Y-118000000D03*
X111725000Y-118000000D03*
X111325000Y-118000000D03*
X110925000Y-118000000D03*
X110525000Y-118000000D03*
X110125000Y-118000000D03*
X109725000Y-118000000D03*
X109325000Y-118000000D03*
X108925000Y-118000000D03*
X108525000Y-118000000D03*
X108125000Y-118000000D03*
X107725000Y-118000000D03*
X107325000Y-118000000D03*
X106925000Y-118000000D03*
X106525000Y-118000000D03*
X106125000Y-118000000D03*
D20*
X105125000Y-119000000D03*
X105125000Y-119400000D03*
X105125000Y-119800000D03*
X105125000Y-120200000D03*
X105125000Y-120600000D03*
X105125000Y-121000000D03*
X105125000Y-121400000D03*
X105125000Y-121800000D03*
X105125000Y-122200000D03*
X105125000Y-122600000D03*
X105125000Y-123000000D03*
X105125000Y-123400000D03*
X105125000Y-123800000D03*
X105125000Y-124200000D03*
X105125000Y-124600000D03*
X105125000Y-125000000D03*
D21*
X109125000Y-122000000D03*
%TD*%
D19*
%TO.C,U4*%
X212875000Y-126000000D03*
X213275000Y-126000000D03*
X213675000Y-126000000D03*
X214075000Y-126000000D03*
X214475000Y-126000000D03*
X214875000Y-126000000D03*
X215275000Y-126000000D03*
X215675000Y-126000000D03*
X216075000Y-126000000D03*
X216475000Y-126000000D03*
X216875000Y-126000000D03*
X217275000Y-126000000D03*
X217675000Y-126000000D03*
X218075000Y-126000000D03*
X218475000Y-126000000D03*
X218875000Y-126000000D03*
D20*
X219875000Y-125000000D03*
X219875000Y-124600000D03*
X219875000Y-124200000D03*
X219875000Y-123800000D03*
X219875000Y-123400000D03*
X219875000Y-123000000D03*
X219875000Y-122600000D03*
X219875000Y-122200000D03*
X219875000Y-121800000D03*
X219875000Y-121400000D03*
X219875000Y-121000000D03*
X219875000Y-120600000D03*
X219875000Y-120200000D03*
X219875000Y-119800000D03*
X219875000Y-119400000D03*
X219875000Y-119000000D03*
D19*
X218875000Y-118000000D03*
X218475000Y-118000000D03*
X218075000Y-118000000D03*
X217675000Y-118000000D03*
X217275000Y-118000000D03*
X216875000Y-118000000D03*
X216475000Y-118000000D03*
X216075000Y-118000000D03*
X215675000Y-118000000D03*
X215275000Y-118000000D03*
X214875000Y-118000000D03*
X214475000Y-118000000D03*
X214075000Y-118000000D03*
X213675000Y-118000000D03*
X213275000Y-118000000D03*
X212875000Y-118000000D03*
D20*
X211875000Y-119000000D03*
X211875000Y-119400000D03*
X211875000Y-119800000D03*
X211875000Y-120200000D03*
X211875000Y-120600000D03*
X211875000Y-121000000D03*
X211875000Y-121400000D03*
X211875000Y-121800000D03*
X211875000Y-122200000D03*
X211875000Y-122600000D03*
X211875000Y-123000000D03*
X211875000Y-123400000D03*
X211875000Y-123800000D03*
X211875000Y-124200000D03*
X211875000Y-124600000D03*
X211875000Y-125000000D03*
D21*
X215875000Y-122000000D03*
%TD*%
D13*
%TO.C,C4b*%
X243607499Y-183600000D03*
X244567499Y-183600000D03*
%TD*%
D10*
%TO.C,R5_b*%
X39990000Y-215333333D03*
X41010000Y-215333333D03*
%TD*%
D22*
%TO.C,U22*%
X229895000Y-195436666D03*
X229895000Y-196666666D03*
X229895000Y-197896666D03*
X231125000Y-195436666D03*
X231125000Y-196666666D03*
X231125000Y-197896666D03*
X232355000Y-195436666D03*
X232355000Y-196666666D03*
X232355000Y-197896666D03*
D23*
X228675000Y-194391666D03*
X228675000Y-194741666D03*
X228675000Y-195091666D03*
X228675000Y-195441666D03*
X228675000Y-195791666D03*
X228675000Y-196141666D03*
X228675000Y-196491666D03*
X228675000Y-196841666D03*
X228675000Y-197191666D03*
X228675000Y-197541666D03*
X228675000Y-197891666D03*
X228675000Y-198241666D03*
X228675000Y-198591666D03*
X228675000Y-198941666D03*
D24*
X229550000Y-199116666D03*
X229900000Y-199116666D03*
X230250000Y-199116666D03*
X230600000Y-199116666D03*
X230950000Y-199116666D03*
X231300000Y-199116666D03*
X231650000Y-199116666D03*
X232000000Y-199116666D03*
X232350000Y-199116666D03*
X232700000Y-199116666D03*
D23*
X233575000Y-198941666D03*
X233575000Y-198591666D03*
X233575000Y-198241666D03*
X233575000Y-197891666D03*
X233575000Y-197541666D03*
X233575000Y-197191666D03*
X233575000Y-196841666D03*
X233575000Y-196491666D03*
X233575000Y-196141666D03*
X233575000Y-195791666D03*
X233575000Y-195441666D03*
X233575000Y-195091666D03*
X233575000Y-194741666D03*
X233575000Y-194391666D03*
D24*
X232700000Y-194216666D03*
X232350000Y-194216666D03*
X232000000Y-194216666D03*
X231650000Y-194216666D03*
X231300000Y-194216666D03*
X230950000Y-194216666D03*
X230600000Y-194216666D03*
X230250000Y-194216666D03*
X229900000Y-194216666D03*
X229550000Y-194216666D03*
%TD*%
D25*
%TO.C,J8*%
X132000000Y-24933333D03*
X132000000Y-20683333D03*
X132000000Y-29183333D03*
%TD*%
%TO.C,J10*%
X223500000Y-24933333D03*
X223500000Y-20683333D03*
X223500000Y-29183333D03*
%TD*%
%TO.C,J7*%
X101500000Y-24933333D03*
X101500000Y-20683333D03*
X101500000Y-29183333D03*
%TD*%
D13*
%TO.C,C44*%
X116270000Y-243333333D03*
X117230000Y-243333333D03*
%TD*%
%TO.C,C43*%
X101020000Y-243333333D03*
X101980000Y-243333333D03*
%TD*%
%TO.C,C42*%
X85770000Y-243333333D03*
X86730000Y-243333333D03*
%TD*%
%TO.C,C34*%
X169645000Y-183600000D03*
X170605000Y-183600000D03*
%TD*%
D26*
%TO.C,U11*%
X103412500Y-251716666D03*
X103412500Y-252666666D03*
X103412500Y-253616666D03*
X105687500Y-253616666D03*
X105687500Y-251716666D03*
%TD*%
D12*
%TO.C,D5b*%
X249900000Y-183600000D03*
X252000000Y-183600000D03*
%TD*%
D27*
%TO.C,U2*%
X156500000Y-162666666D03*
X157300000Y-162666666D03*
X158100000Y-162666666D03*
X158900000Y-162666666D03*
X159700000Y-162666666D03*
X160500000Y-162666666D03*
X161300000Y-162666666D03*
X162100000Y-162666666D03*
X162900000Y-162666666D03*
X163700000Y-162666666D03*
X164500000Y-162666666D03*
X165300000Y-162666666D03*
X166100000Y-162666666D03*
X166900000Y-162666666D03*
X167700000Y-162666666D03*
X168500000Y-162666666D03*
X156500000Y-163466666D03*
X157300000Y-163466666D03*
X158100000Y-163466666D03*
X158900000Y-163466666D03*
X159700000Y-163466666D03*
X160500000Y-163466666D03*
X161300000Y-163466666D03*
X162100000Y-163466666D03*
X162900000Y-163466666D03*
X163700000Y-163466666D03*
X164500000Y-163466666D03*
X165300000Y-163466666D03*
X166100000Y-163466666D03*
X166900000Y-163466666D03*
X167700000Y-163466666D03*
X168500000Y-163466666D03*
X156500000Y-164266666D03*
X157300000Y-164266666D03*
X158100000Y-164266666D03*
X158900000Y-164266666D03*
X159700000Y-164266666D03*
X160500000Y-164266666D03*
X161300000Y-164266666D03*
X162100000Y-164266666D03*
X162900000Y-164266666D03*
X163700000Y-164266666D03*
X164500000Y-164266666D03*
X165300000Y-164266666D03*
X166100000Y-164266666D03*
X166900000Y-164266666D03*
X167700000Y-164266666D03*
X168500000Y-164266666D03*
X156500000Y-165066666D03*
X157300000Y-165066666D03*
X158100000Y-165066666D03*
X158900000Y-165066666D03*
X159700000Y-165066666D03*
X160500000Y-165066666D03*
X161300000Y-165066666D03*
X162100000Y-165066666D03*
X162900000Y-165066666D03*
X163700000Y-165066666D03*
X164500000Y-165066666D03*
X165300000Y-165066666D03*
X166100000Y-165066666D03*
X166900000Y-165066666D03*
X167700000Y-165066666D03*
X168500000Y-165066666D03*
X156500000Y-165866666D03*
X157300000Y-165866666D03*
X158100000Y-165866666D03*
X158900000Y-165866666D03*
X159700000Y-165866666D03*
X160500000Y-165866666D03*
X161300000Y-165866666D03*
X162100000Y-165866666D03*
X162900000Y-165866666D03*
X163700000Y-165866666D03*
X164500000Y-165866666D03*
X165300000Y-165866666D03*
X166100000Y-165866666D03*
X166900000Y-165866666D03*
X167700000Y-165866666D03*
X168500000Y-165866666D03*
X156500000Y-166666666D03*
X157300000Y-166666666D03*
X158100000Y-166666666D03*
X158900000Y-166666666D03*
X159700000Y-166666666D03*
X160500000Y-166666666D03*
X161300000Y-166666666D03*
X162100000Y-166666666D03*
X162900000Y-166666666D03*
X163700000Y-166666666D03*
X164500000Y-166666666D03*
X165300000Y-166666666D03*
X166100000Y-166666666D03*
X166900000Y-166666666D03*
X167700000Y-166666666D03*
X168500000Y-166666666D03*
X156500000Y-167466666D03*
X157300000Y-167466666D03*
X158100000Y-167466666D03*
X158900000Y-167466666D03*
X159700000Y-167466666D03*
X160500000Y-167466666D03*
X161300000Y-167466666D03*
X162100000Y-167466666D03*
X162900000Y-167466666D03*
X163700000Y-167466666D03*
X164500000Y-167466666D03*
X165300000Y-167466666D03*
X166100000Y-167466666D03*
X166900000Y-167466666D03*
X167700000Y-167466666D03*
X168500000Y-167466666D03*
X156500000Y-168266666D03*
X157300000Y-168266666D03*
X158100000Y-168266666D03*
X158900000Y-168266666D03*
X159700000Y-168266666D03*
X160500000Y-168266666D03*
X161300000Y-168266666D03*
X162100000Y-168266666D03*
X162900000Y-168266666D03*
X163700000Y-168266666D03*
X164500000Y-168266666D03*
X165300000Y-168266666D03*
X166100000Y-168266666D03*
X166900000Y-168266666D03*
X167700000Y-168266666D03*
X168500000Y-168266666D03*
X156500000Y-169066666D03*
X157300000Y-169066666D03*
X158100000Y-169066666D03*
X158900000Y-169066666D03*
X159700000Y-169066666D03*
X160500000Y-169066666D03*
X161300000Y-169066666D03*
X162100000Y-169066666D03*
X162900000Y-169066666D03*
X163700000Y-169066666D03*
X164500000Y-169066666D03*
X165300000Y-169066666D03*
X166100000Y-169066666D03*
X166900000Y-169066666D03*
X167700000Y-169066666D03*
X168500000Y-169066666D03*
X156500000Y-169866666D03*
X157300000Y-169866666D03*
X158100000Y-169866666D03*
X158900000Y-169866666D03*
X159700000Y-169866666D03*
X160500000Y-169866666D03*
X161300000Y-169866666D03*
X162100000Y-169866666D03*
X162900000Y-169866666D03*
X163700000Y-169866666D03*
X164500000Y-169866666D03*
X165300000Y-169866666D03*
X166100000Y-169866666D03*
X166900000Y-169866666D03*
X167700000Y-169866666D03*
X168500000Y-169866666D03*
X156500000Y-170666666D03*
X157300000Y-170666666D03*
X158100000Y-170666666D03*
X158900000Y-170666666D03*
X159700000Y-170666666D03*
X160500000Y-170666666D03*
X161300000Y-170666666D03*
X162100000Y-170666666D03*
X162900000Y-170666666D03*
X163700000Y-170666666D03*
X164500000Y-170666666D03*
X165300000Y-170666666D03*
X166100000Y-170666666D03*
X166900000Y-170666666D03*
X167700000Y-170666666D03*
X168500000Y-170666666D03*
X156500000Y-171466666D03*
X157300000Y-171466666D03*
X158100000Y-171466666D03*
X158900000Y-171466666D03*
X159700000Y-171466666D03*
X160500000Y-171466666D03*
X161300000Y-171466666D03*
X162100000Y-171466666D03*
X162900000Y-171466666D03*
X163700000Y-171466666D03*
X164500000Y-171466666D03*
X165300000Y-171466666D03*
X166100000Y-171466666D03*
X166900000Y-171466666D03*
X167700000Y-171466666D03*
X168500000Y-171466666D03*
X156500000Y-172266666D03*
X157300000Y-172266666D03*
X158100000Y-172266666D03*
X158900000Y-172266666D03*
X159700000Y-172266666D03*
X160500000Y-172266666D03*
X161300000Y-172266666D03*
X162100000Y-172266666D03*
X162900000Y-172266666D03*
X163700000Y-172266666D03*
X164500000Y-172266666D03*
X165300000Y-172266666D03*
X166100000Y-172266666D03*
X166900000Y-172266666D03*
X167700000Y-172266666D03*
X168500000Y-172266666D03*
X156500000Y-173066666D03*
X157300000Y-173066666D03*
X158100000Y-173066666D03*
X158900000Y-173066666D03*
X159700000Y-173066666D03*
X160500000Y-173066666D03*
X161300000Y-173066666D03*
X162100000Y-173066666D03*
X162900000Y-173066666D03*
X163700000Y-173066666D03*
X164500000Y-173066666D03*
X165300000Y-173066666D03*
X166100000Y-173066666D03*
X166900000Y-173066666D03*
X167700000Y-173066666D03*
X168500000Y-173066666D03*
X156500000Y-173866666D03*
X157300000Y-173866666D03*
X158100000Y-173866666D03*
X158900000Y-173866666D03*
X159700000Y-173866666D03*
X160500000Y-173866666D03*
X161300000Y-173866666D03*
X162100000Y-173866666D03*
X162900000Y-173866666D03*
X163700000Y-173866666D03*
X164500000Y-173866666D03*
X165300000Y-173866666D03*
X166100000Y-173866666D03*
X166900000Y-173866666D03*
X167700000Y-173866666D03*
X168500000Y-173866666D03*
X156500000Y-174666666D03*
X157300000Y-174666666D03*
X158100000Y-174666666D03*
X158900000Y-174666666D03*
X159700000Y-174666666D03*
X160500000Y-174666666D03*
X161300000Y-174666666D03*
X162100000Y-174666666D03*
X162900000Y-174666666D03*
X163700000Y-174666666D03*
X164500000Y-174666666D03*
X165300000Y-174666666D03*
X166100000Y-174666666D03*
X166900000Y-174666666D03*
X167700000Y-174666666D03*
X168500000Y-174666666D03*
%TD*%
D17*
%TO.C,U25*%
X98449999Y-149600000D03*
X98449999Y-150400000D03*
D18*
X97499999Y-149250000D03*
X97499999Y-149750000D03*
X97499999Y-150250000D03*
X97499999Y-150750000D03*
X99399999Y-150750000D03*
X99399999Y-150250000D03*
X99399999Y-149750000D03*
X99399999Y-149250000D03*
%TD*%
D13*
%TO.C,C10_d*%
X101020000Y-135066666D03*
X101980000Y-135066666D03*
%TD*%
D28*
%TO.C,U15*%
X58225000Y-252091666D03*
X58225000Y-253241666D03*
X59375000Y-252091666D03*
X59375000Y-253241666D03*
D29*
X56325000Y-250761666D03*
X56325000Y-252031666D03*
X56325000Y-253301666D03*
X56325000Y-254571666D03*
X61275000Y-254571666D03*
X61275000Y-253301666D03*
X61275000Y-252031666D03*
X61275000Y-250761666D03*
%TD*%
D26*
%TO.C,U14*%
X118662500Y-251716666D03*
X118662500Y-252666666D03*
X118662500Y-253616666D03*
X120937500Y-253616666D03*
X120937500Y-251716666D03*
%TD*%
D13*
%TO.C,C31*%
X154395000Y-183600000D03*
X155355000Y-183600000D03*
%TD*%
D16*
%TO.C,C1a*%
X50225000Y-243333333D03*
X52125000Y-243333333D03*
%TD*%
D13*
%TO.C,C10_c*%
X110169999Y-108933333D03*
X111129999Y-108933333D03*
%TD*%
%TO.C,C4a*%
X235220000Y-189200000D03*
X236180000Y-189200000D03*
%TD*%
%TO.C,C5a*%
X226069999Y-209733333D03*
X227029999Y-209733333D03*
%TD*%
%TO.C,C9a*%
X226069999Y-187333333D03*
X227029999Y-187333333D03*
%TD*%
%TO.C,C5_g*%
X248944999Y-209733333D03*
X249904999Y-209733333D03*
%TD*%
D30*
%TO.C,C11*%
X60262500Y-248000000D03*
X66487500Y-248000000D03*
%TD*%
D13*
%TO.C,C36*%
X149819999Y-155600000D03*
X150779999Y-155600000D03*
%TD*%
D31*
%TO.C,Y1*%
X222400000Y-141516666D03*
X224600000Y-141516666D03*
X224600000Y-139816666D03*
X222400000Y-139816666D03*
%TD*%
D11*
%TO.C,J11*%
X153875000Y-24933333D03*
X154625000Y-24933333D03*
X155375000Y-24933333D03*
X156125000Y-24933333D03*
X156875000Y-24933333D03*
X157625000Y-24933333D03*
X158375000Y-24933333D03*
X159125000Y-24933333D03*
X159875000Y-24933333D03*
X160625000Y-24933333D03*
X161375000Y-24933333D03*
X162125000Y-24933333D03*
X162875000Y-24933333D03*
X163625000Y-24933333D03*
X164375000Y-24933333D03*
X165125000Y-24933333D03*
X165875000Y-24933333D03*
X166625000Y-24933333D03*
X167375000Y-24933333D03*
X168125000Y-24933333D03*
X168875000Y-24933333D03*
X169625000Y-24933333D03*
X170375000Y-24933333D03*
X171125000Y-24933333D03*
%TD*%
D13*
%TO.C,C10_b*%
X105594999Y-108933333D03*
X106554999Y-108933333D03*
%TD*%
D32*
%TO.C,U24*%
X187087500Y-76791666D03*
X187087500Y-77441666D03*
X187087500Y-78091666D03*
X187087500Y-78741666D03*
X187087500Y-79391666D03*
X187087500Y-80041666D03*
X187087500Y-80691666D03*
X187087500Y-81341666D03*
X192812500Y-81341666D03*
X192812500Y-80691666D03*
X192812500Y-80041666D03*
X192812500Y-79391666D03*
X192812500Y-78741666D03*
X192812500Y-78091666D03*
X192812500Y-77441666D03*
X192812500Y-76791666D03*
%TD*%
D33*
%TO.C,J2*%
X250950000Y-200416666D03*
X250950000Y-199916666D03*
X250950000Y-199416666D03*
X250950000Y-198916666D03*
X250950000Y-198416666D03*
X250950000Y-197916666D03*
X250950000Y-197416666D03*
X250950000Y-196916666D03*
X250950000Y-196416666D03*
X250950000Y-195916666D03*
X250950000Y-195416666D03*
X250950000Y-194916666D03*
X250950000Y-194416666D03*
X250950000Y-193916666D03*
X250950000Y-193416666D03*
X250950000Y-192916666D03*
%TD*%
D34*
%TO.C,SW1*%
X290425000Y-243333333D03*
X293825000Y-243333333D03*
%TD*%
D26*
%TO.C,U12*%
X149162499Y-251716666D03*
X149162499Y-252666666D03*
X149162499Y-253616666D03*
X151437499Y-253616666D03*
X151437499Y-251716666D03*
%TD*%
D35*
%TO.C,D3*%
X47337500Y-206000000D03*
X48912500Y-206000000D03*
%TD*%
D10*
%TO.C,R5_c*%
X47615000Y-215333333D03*
X48635000Y-215333333D03*
%TD*%
D13*
%TO.C,C5b*%
X230645000Y-209733333D03*
X231605000Y-209733333D03*
%TD*%
%TO.C,C38*%
X149819999Y-79066666D03*
X150779999Y-79066666D03*
%TD*%
D10*
%TO.C,R1a*%
X210789999Y-183600000D03*
X211809999Y-183600000D03*
%TD*%
D35*
%TO.C,D2*%
X39712500Y-206000000D03*
X41287500Y-206000000D03*
%TD*%
D36*
%TO.C,U20*%
X207825000Y-148215000D03*
X207825000Y-149405000D03*
X207825000Y-150595000D03*
X207825000Y-151785000D03*
X208675000Y-148215000D03*
X208675000Y-149405000D03*
X208675000Y-150595000D03*
X208675000Y-151785000D03*
D37*
X206787500Y-147750000D03*
X206787500Y-148250000D03*
X206787500Y-148750000D03*
X206787500Y-149250000D03*
X206787500Y-149750000D03*
X206787500Y-150250000D03*
X206787500Y-150750000D03*
X206787500Y-151250000D03*
X206787500Y-151750000D03*
X206787500Y-152250000D03*
D38*
X207500000Y-152975000D03*
X208000000Y-152975000D03*
X208500000Y-152975000D03*
X209000000Y-152975000D03*
D37*
X209712500Y-152250000D03*
X209712500Y-151750000D03*
X209712500Y-151250000D03*
X209712500Y-150750000D03*
X209712500Y-150250000D03*
X209712500Y-149750000D03*
X209712500Y-149250000D03*
X209712500Y-148750000D03*
X209712500Y-148250000D03*
X209712500Y-147750000D03*
D38*
X209000000Y-147025000D03*
X208500000Y-147025000D03*
X208000000Y-147025000D03*
X207500000Y-147025000D03*
%TD*%
D13*
%TO.C,C40*%
X169645000Y-79066666D03*
X170605000Y-79066666D03*
%TD*%
D26*
%TO.C,U13*%
X88162500Y-251716666D03*
X88162500Y-252666666D03*
X88162500Y-253616666D03*
X90437500Y-253616666D03*
X90437500Y-251716666D03*
%TD*%
D39*
%TO.C,F1*%
X39562500Y-262000000D03*
X41437500Y-262000000D03*
%TD*%
D13*
%TO.C,C37*%
X174220000Y-155600000D03*
X175180000Y-155600000D03*
%TD*%
D40*
%TO.C,J1*%
X25950000Y-256200000D03*
D41*
X18800000Y-265200000D03*
X31700000Y-265200000D03*
%TD*%
D26*
%TO.C,U10*%
X133912500Y-251716666D03*
X133912500Y-252666666D03*
X133912500Y-253616666D03*
X136187500Y-253616666D03*
X136187500Y-251716666D03*
%TD*%
D42*
%TO.C,L1*%
X62999999Y-265733333D03*
X72899999Y-265733333D03*
%TD*%
D13*
%TO.C,C10_a*%
X101020000Y-108933333D03*
X101980000Y-108933333D03*
%TD*%
D35*
%TO.C,D1*%
X32087500Y-206000000D03*
X33662500Y-206000000D03*
%TD*%
D13*
%TO.C,C50_2*%
X210819999Y-138800000D03*
X211779999Y-138800000D03*
%TD*%
D25*
%TO.C,J9*%
X193000000Y-24933333D03*
X193000000Y-20683333D03*
X193000000Y-29183333D03*
%TD*%
D13*
%TO.C,C45*%
X131520000Y-243333333D03*
X132480000Y-243333333D03*
%TD*%
%TO.C,C33*%
X165069999Y-183600000D03*
X166029999Y-183600000D03*
%TD*%
D27*
X296700000Y-159333333D03*
X296700000Y-158063333D03*
X297970000Y-159333333D03*
X297970000Y-158063333D03*
X299240000Y-159333333D03*
X299240000Y-158063333D03*
X300510000Y-159333333D03*
X300510000Y-158063333D03*
X301780000Y-159333333D03*
X301780000Y-158063333D03*
X303050000Y-159333333D03*
X303050000Y-158063333D03*
X304320000Y-159333333D03*
X304320000Y-158063333D03*
X296700000Y-122000000D03*
X296700000Y-120730000D03*
X297970000Y-122000000D03*
X297970000Y-120730000D03*
X299240000Y-122000000D03*
X299240000Y-120730000D03*
X300510000Y-122000000D03*
X300510000Y-120730000D03*
X301780000Y-122000000D03*
X301780000Y-120730000D03*
X308900000Y-17466666D03*
X16100000Y-17466666D03*
X308900000Y-282533333D03*
X25250000Y-269000000D03*
X16100000Y-282533333D03*
M02*
