%TF.GenerationSoftware,KiCad,Pcbnew,9.0.9-rc1*%
%TF.CreationDate,2026-06-20T17:19:59-07:00*%
%TF.ProjectId,TFLN_AI_NODE_X2_routed,54464c4e-5f41-4495-9f4e-4f44455f5832,rev?*%
%TF.SameCoordinates,Original*%
%TF.FileFunction,Legend,Bot*%
%TF.FilePolarity,Positive*%
%FSLAX46Y46*%
G04 Gerber Fmt 4.6, Leading zero omitted, Abs format (unit mm)*
G04 Created by KiCad (PCBNEW 9.0.9-rc1) date 2026-06-20 17:19:59*
%MOMM*%
%LPD*%
G01*
G04 APERTURE LIST*
%ADD10R,1.000000X1.000000*%
%ADD11O,1.000000X1.000000*%
%ADD12R,5.080000X1.500000*%
%ADD13C,3.200000*%
%ADD14C,2.000000*%
%ADD15C,0.350000*%
G04 APERTURE END LIST*
%LPC*%
D10*
%TO.C,J6*%
X28000000Y-170000000D03*
D11*
X29270000Y-170000000D03*
X28000000Y-171270000D03*
X29270000Y-171270000D03*
X28000000Y-172540000D03*
X29270000Y-172540000D03*
X28000000Y-173810000D03*
X29270000Y-173810000D03*
X28000000Y-175080000D03*
X29270000Y-175080000D03*
X28000000Y-176350000D03*
X29270000Y-176350000D03*
X28000000Y-177620000D03*
X29270000Y-177620000D03*
%TD*%
D10*
%TO.C,J5*%
X28000000Y-150000000D03*
D11*
X29270000Y-150000000D03*
X28000000Y-151270000D03*
X29270000Y-151270000D03*
X28000000Y-152540000D03*
X29270000Y-152540000D03*
X28000000Y-153810000D03*
X29270000Y-153810000D03*
X28000000Y-155080000D03*
X29270000Y-155080000D03*
%TD*%
D12*
%TO.C,J8*%
X105125000Y-25750000D03*
X105125000Y-34250000D03*
%TD*%
%TO.C,J10*%
X233875000Y-25750000D03*
X233875000Y-34250000D03*
%TD*%
%TO.C,J7*%
X91125000Y-25750000D03*
X91125000Y-34250000D03*
%TD*%
D13*
%TO.C,MH2*%
X308000000Y-17000000D03*
%TD*%
%TO.C,MH1*%
X17000000Y-17000000D03*
%TD*%
%TO.C,MH4*%
X308000000Y-283000000D03*
%TD*%
D14*
%TO.C,J1*%
X28000000Y-279000000D03*
%TD*%
D13*
%TO.C,MH3*%
X17000000Y-283000000D03*
%TD*%
D12*
%TO.C,J9*%
X219875000Y-25750000D03*
X219875000Y-34250000D03*
%TD*%
%LPD*%
D15*
X28000000Y-170000000D03*
X29270000Y-170000000D03*
X28000000Y-171270000D03*
X29270000Y-171270000D03*
X28000000Y-172540000D03*
X29270000Y-172540000D03*
X28000000Y-173810000D03*
X29270000Y-173810000D03*
X28000000Y-175080000D03*
X29270000Y-175080000D03*
X28000000Y-176350000D03*
X29270000Y-176350000D03*
X28000000Y-177620000D03*
X29270000Y-177620000D03*
X28000000Y-150000000D03*
X29270000Y-150000000D03*
X28000000Y-151270000D03*
X29270000Y-151270000D03*
X28000000Y-152540000D03*
X29270000Y-152540000D03*
X28000000Y-153810000D03*
X29270000Y-153810000D03*
X28000000Y-155080000D03*
X29270000Y-155080000D03*
X308000000Y-17000000D03*
X17000000Y-17000000D03*
X308000000Y-283000000D03*
X28000000Y-279000000D03*
X17000000Y-283000000D03*
M02*
