M48
; DRILL file {KiCad 8.0.9-8.0.9-0~ubuntu22.04.1} date 2026-05-11T03:50:07+0000
; FORMAT={-:-/ absolute / metric / decimal}
; #@! TF.CreationDate,2026-05-11T03:50:07+00:00
; #@! TF.GenerationSoftware,Kicad,Pcbnew,8.0.9-8.0.9-0~ubuntu22.04.1
; #@! TF.FileFunction,Plated,1,18,PTH
FMAT,2
METRIC
; #@! TA.AperFunction,Plated,PTH,ViaDrill
T1C0.300
; #@! TA.AperFunction,Plated,PTH,ComponentDrill
T2C1.000
; #@! TA.AperFunction,Plated,PTH,ComponentDrill
T3C1.200
; #@! TA.AperFunction,Plated,PTH,ComponentDrill
T4C2.700
%
G90
G05
T1
X40.0Y-34.0
X40.0Y-46.0
X40.0Y-58.0
X40.0Y-70.0
X40.0Y-82.0
X40.0Y-94.0
X40.0Y-106.0
X40.0Y-118.0
X40.0Y-130.0
X40.0Y-142.0
X40.0Y-154.0
X40.0Y-166.0
X40.0Y-178.0
X40.0Y-190.0
X40.0Y-202.0
X40.0Y-214.0
X40.0Y-226.0
X40.0Y-238.0
X40.0Y-250.0
X40.0Y-262.0
X40.0Y-274.0
X40.0Y-322.0
X40.0Y-334.0
X40.0Y-346.0
X40.0Y-358.0
X40.0Y-370.0
X40.0Y-382.0
X40.0Y-394.0
X40.0Y-406.0
X40.0Y-418.0
X40.0Y-430.0
X40.0Y-442.0
X40.0Y-454.0
X40.0Y-466.0
X40.0Y-478.0
X40.0Y-490.0
X40.0Y-502.0
X40.0Y-514.0
X40.0Y-526.0
X40.0Y-538.0
X40.0Y-550.0
X44.0Y-30.0
X44.0Y-560.0
X56.0Y-30.0
X56.0Y-560.0
X68.0Y-30.0
X68.0Y-560.0
X80.0Y-30.0
X80.0Y-560.0
X92.0Y-30.0
X92.0Y-560.0
X104.0Y-30.0
X104.0Y-560.0
X116.0Y-30.0
X116.0Y-560.0
X128.0Y-30.0
X128.0Y-560.0
X140.0Y-30.0
X140.0Y-560.0
X152.0Y-30.0
X152.0Y-560.0
X164.0Y-30.0
X164.0Y-560.0
X176.0Y-30.0
X176.0Y-560.0
X188.0Y-30.0
X188.0Y-560.0
X200.0Y-30.0
X200.0Y-560.0
X212.0Y-30.0
X212.0Y-560.0
X224.0Y-30.0
X224.0Y-560.0
X236.0Y-30.0
X236.0Y-560.0
X248.0Y-30.0
X248.0Y-560.0
X260.0Y-30.0
X260.0Y-560.0
X272.0Y-30.0
X272.0Y-560.0
X284.0Y-30.0
X284.0Y-560.0
X296.0Y-30.0
X296.0Y-560.0
X308.0Y-30.0
X308.0Y-560.0
X320.0Y-30.0
X320.0Y-560.0
X332.0Y-30.0
X332.0Y-560.0
X344.0Y-30.0
X344.0Y-560.0
X356.0Y-30.0
X356.0Y-560.0
X368.0Y-30.0
X368.0Y-560.0
X380.0Y-30.0
X380.0Y-560.0
X392.0Y-30.0
X392.0Y-560.0
X404.0Y-30.0
X404.0Y-560.0
X416.0Y-30.0
X416.0Y-560.0
X428.0Y-30.0
X428.0Y-560.0
X440.0Y-30.0
X440.0Y-560.0
X452.0Y-30.0
X452.0Y-560.0
X460.0Y-34.0
X460.0Y-46.0
X460.0Y-58.0
X460.0Y-70.0
X460.0Y-82.0
X460.0Y-94.0
X460.0Y-106.0
X460.0Y-118.0
X460.0Y-130.0
X460.0Y-142.0
X460.0Y-154.0
X460.0Y-166.0
X460.0Y-178.0
X460.0Y-190.0
X460.0Y-202.0
X460.0Y-214.0
X460.0Y-226.0
X460.0Y-238.0
X460.0Y-250.0
X460.0Y-262.0
X460.0Y-274.0
X460.0Y-322.0
X460.0Y-334.0
X460.0Y-346.0
X460.0Y-358.0
X460.0Y-370.0
X460.0Y-382.0
X460.0Y-394.0
X460.0Y-406.0
X460.0Y-418.0
X460.0Y-430.0
X460.0Y-442.0
X460.0Y-454.0
X460.0Y-466.0
X460.0Y-478.0
X460.0Y-490.0
X460.0Y-502.0
X460.0Y-526.0
T2
X95.0Y-58.0
X97.0Y-58.0
X99.0Y-58.0
X101.0Y-58.0
X103.0Y-58.0
X105.0Y-58.0
X145.0Y-58.0
X147.0Y-58.0
X149.0Y-58.0
X151.0Y-58.0
X153.0Y-58.0
X155.0Y-58.0
X195.0Y-58.0
X197.0Y-58.0
X199.0Y-58.0
X201.0Y-58.0
X203.0Y-58.0
X205.0Y-58.0
X245.0Y-58.0
X247.0Y-58.0
X249.0Y-58.0
X251.0Y-58.0
X253.0Y-58.0
X255.0Y-58.0
X295.0Y-58.0
X297.0Y-58.0
X299.0Y-58.0
X301.0Y-58.0
X303.0Y-58.0
X305.0Y-58.0
X345.0Y-58.0
X347.0Y-58.0
X349.0Y-58.0
X351.0Y-58.0
X353.0Y-58.0
X355.0Y-58.0
X395.0Y-58.0
X397.0Y-58.0
X399.0Y-58.0
X401.0Y-58.0
X403.0Y-58.0
X405.0Y-58.0
T3
X84.0Y-32.0
X84.0Y-38.0
X87.0Y-32.0
X87.0Y-38.0
X90.0Y-32.0
X90.0Y-38.0
X93.0Y-32.0
X93.0Y-38.0
X96.0Y-32.0
X96.0Y-38.0
X99.0Y-32.0
X99.0Y-38.0
X102.0Y-32.0
X102.0Y-38.0
X105.0Y-32.0
X105.0Y-38.0
X108.0Y-32.0
X108.0Y-38.0
X111.0Y-32.0
X111.0Y-38.0
X114.0Y-32.0
X114.0Y-38.0
X117.0Y-32.0
X117.0Y-38.0
X384.0Y-32.0
X384.0Y-38.0
X387.0Y-32.0
X387.0Y-38.0
X390.0Y-32.0
X390.0Y-38.0
X393.0Y-32.0
X393.0Y-38.0
X396.0Y-32.0
X396.0Y-38.0
X399.0Y-32.0
X399.0Y-38.0
X402.0Y-32.0
X402.0Y-38.0
X405.0Y-32.0
X405.0Y-38.0
X408.0Y-32.0
X408.0Y-38.0
X411.0Y-32.0
X411.0Y-38.0
X414.0Y-32.0
X414.0Y-38.0
X417.0Y-32.0
X417.0Y-38.0
T4
X48.0Y-38.0
X48.0Y-295.0
X48.0Y-552.0
X250.0Y-38.0
X250.0Y-495.0
X440.0Y-505.0
X452.0Y-38.0
X452.0Y-295.0
M30
