%TF.GenerationSoftware,KiCad,Pcbnew,8.0.9-8.0.9-0~ubuntu22.04.1*%
%TF.CreationDate,2026-06-20T21:10:33+00:00*%
%TF.ProjectId,LightRail_LPO_1.6T,4c696768-7452-4616-996c-5f4c504f5f31,rev?*%
%TF.SameCoordinates,Original*%
%TF.FileFunction,Copper,L32,Bot*%
%TF.FilePolarity,Positive*%
%FSLAX46Y46*%
G04 Gerber Fmt 4.6, Leading zero omitted, Abs format (unit mm)*
G04 Created by KiCad (PCBNEW 8.0.9-8.0.9-0~ubuntu22.04.1) date 2026-06-20 21:10:33*
%MOMM*%
%LPD*%
G01*
G04 APERTURE LIST*
%TA.AperFunction,SMDPad,CuDef*%
%ADD10R,5.800000X5.800000*%
%TD*%
%TA.AperFunction,SMDPad,CuDef*%
%ADD11R,0.600000X1.000000*%
%TD*%
%TA.AperFunction,SMDPad,CuDef*%
%ADD12R,0.600000X0.800000*%
%TD*%
%TA.AperFunction,SMDPad,CuDef*%
%ADD13R,0.800000X1.200000*%
%TD*%
%TA.AperFunction,SMDPad,CuDef*%
%ADD14R,0.250000X0.350000*%
%TD*%
%TA.AperFunction,SMDPad,CuDef*%
%ADD15R,0.600000X3.000000*%
%TD*%
%TA.AperFunction,SMDPad,CuDef*%
%ADD16C,1.000000*%
%TD*%
%TA.AperFunction,ViaPad*%
%ADD17C,0.600000*%
%TD*%
%TA.AperFunction,ViaPad*%
%ADD18C,0.800000*%
%TD*%
%TA.AperFunction,ViaPad*%
%ADD19C,0.400000*%
%TD*%
%TA.AperFunction,ViaPad*%
%ADD20C,0.350000*%
%TD*%
%TA.AperFunction,ViaPad*%
%ADD21C,0.300000*%
%TD*%
%TA.AperFunction,Conductor*%
%ADD22C,0.250000*%
%TD*%
%TA.AperFunction,Conductor*%
%ADD23C,0.300000*%
%TD*%
%TA.AperFunction,Conductor*%
%ADD24C,0.350000*%
%TD*%
%TA.AperFunction,Conductor*%
%ADD25C,0.200000*%
%TD*%
G04 APERTURE END LIST*
D10*
%TO.P,U326,EP*%
%TO.N,V_CORE_U0*%
X80000000Y-195000000D03*
D11*
%TO.P,U326,1*%
%TO.N,GND*%
X76500000Y-190500000D03*
%TO.P,U326,2*%
X77500000Y-190500000D03*
%TO.P,U326,3*%
X78500000Y-190500000D03*
%TO.P,U326,4*%
X79500000Y-190500000D03*
%TO.P,U326,5*%
X80500000Y-190500000D03*
%TO.P,U326,6*%
X81500000Y-190500000D03*
%TO.P,U326,7*%
X82500000Y-190500000D03*
%TO.P,U326,8*%
X83500000Y-190500000D03*
%TO.P,U326,9*%
X76500000Y-199500000D03*
%TO.P,U326,10*%
X77500000Y-199500000D03*
%TO.P,U326,11*%
X78500000Y-199500000D03*
%TO.P,U326,12*%
X79500000Y-199500000D03*
%TO.P,U326,13*%
X80500000Y-199500000D03*
%TO.P,U326,14*%
X81500000Y-199500000D03*
%TO.P,U326,15*%
X82500000Y-199500000D03*
%TO.P,U326,16*%
X83500000Y-199500000D03*
%TD*%
D10*
%TO.P,U327,EP*%
%TO.N,V_CORE_U0*%
X90000000Y-195000000D03*
D11*
%TO.P,U327,1*%
%TO.N,GND*%
X86500000Y-190500000D03*
%TO.P,U327,2*%
X87500000Y-190500000D03*
%TO.P,U327,3*%
X88500000Y-190500000D03*
%TO.P,U327,4*%
X89500000Y-190500000D03*
%TO.P,U327,5*%
X90500000Y-190500000D03*
%TO.P,U327,6*%
X91500000Y-190500000D03*
%TO.P,U327,7*%
X92500000Y-190500000D03*
%TO.P,U327,8*%
X93500000Y-190500000D03*
%TO.P,U327,9*%
X86500000Y-199500000D03*
%TO.P,U327,10*%
X87500000Y-199500000D03*
%TO.P,U327,11*%
X88500000Y-199500000D03*
%TO.P,U327,12*%
X89500000Y-199500000D03*
%TO.P,U327,13*%
X90500000Y-199500000D03*
%TO.P,U327,14*%
X91500000Y-199500000D03*
%TO.P,U327,15*%
X92500000Y-199500000D03*
%TO.P,U327,16*%
X93500000Y-199500000D03*
%TD*%
D10*
%TO.P,U328,EP*%
%TO.N,V_CORE_U0*%
X100000000Y-195000000D03*
D11*
%TO.P,U328,1*%
%TO.N,GND*%
X96500000Y-190500000D03*
%TO.P,U328,2*%
X97500000Y-190500000D03*
%TO.P,U328,3*%
X98500000Y-190500000D03*
%TO.P,U328,4*%
X99500000Y-190500000D03*
%TO.P,U328,5*%
X100500000Y-190500000D03*
%TO.P,U328,6*%
X101500000Y-190500000D03*
%TO.P,U328,7*%
X102500000Y-190500000D03*
%TO.P,U328,8*%
X103500000Y-190500000D03*
%TO.P,U328,9*%
X96500000Y-199500000D03*
%TO.P,U328,10*%
X97500000Y-199500000D03*
%TO.P,U328,11*%
X98500000Y-199500000D03*
%TO.P,U328,12*%
X99500000Y-199500000D03*
%TO.P,U328,13*%
X100500000Y-199500000D03*
%TO.P,U328,14*%
X101500000Y-199500000D03*
%TO.P,U328,15*%
X102500000Y-199500000D03*
%TO.P,U328,16*%
X103500000Y-199500000D03*
%TD*%
D10*
%TO.P,U329,EP*%
%TO.N,V_CORE_U0*%
X110000000Y-195000000D03*
D11*
%TO.P,U329,1*%
%TO.N,GND*%
X106500000Y-190500000D03*
%TO.P,U329,2*%
X107500000Y-190500000D03*
%TO.P,U329,3*%
X108500000Y-190500000D03*
%TO.P,U329,4*%
X109500000Y-190500000D03*
%TO.P,U329,5*%
X110500000Y-190500000D03*
%TO.P,U329,6*%
X111500000Y-190500000D03*
%TO.P,U329,7*%
X112500000Y-190500000D03*
%TO.P,U329,8*%
X113500000Y-190500000D03*
%TO.P,U329,9*%
X106500000Y-199500000D03*
%TO.P,U329,10*%
X107500000Y-199500000D03*
%TO.P,U329,11*%
X108500000Y-199500000D03*
%TO.P,U329,12*%
X109500000Y-199500000D03*
%TO.P,U329,13*%
X110500000Y-199500000D03*
%TO.P,U329,14*%
X111500000Y-199500000D03*
%TO.P,U329,15*%
X112500000Y-199500000D03*
%TO.P,U329,16*%
X113500000Y-199500000D03*
%TD*%
D10*
%TO.P,U330,EP*%
%TO.N,V_CORE_U0*%
X120000000Y-195000000D03*
D11*
%TO.P,U330,1*%
%TO.N,GND*%
X116500000Y-190500000D03*
%TO.P,U330,2*%
X117500000Y-190500000D03*
%TO.P,U330,3*%
X118500000Y-190500000D03*
%TO.P,U330,4*%
X119500000Y-190500000D03*
%TO.P,U330,5*%
X120500000Y-190500000D03*
%TO.P,U330,6*%
X121500000Y-190500000D03*
%TO.P,U330,7*%
X122500000Y-190500000D03*
%TO.P,U330,8*%
X123500000Y-190500000D03*
%TO.P,U330,9*%
X116500000Y-199500000D03*
%TO.P,U330,10*%
X117500000Y-199500000D03*
%TO.P,U330,11*%
X118500000Y-199500000D03*
%TO.P,U330,12*%
X119500000Y-199500000D03*
%TO.P,U330,13*%
X120500000Y-199500000D03*
%TO.P,U330,14*%
X121500000Y-199500000D03*
%TO.P,U330,15*%
X122500000Y-199500000D03*
%TO.P,U330,16*%
X123500000Y-199500000D03*
%TD*%
D10*
%TO.P,U331,EP*%
%TO.N,V_CORE_U0*%
X130000000Y-195000000D03*
D11*
%TO.P,U331,1*%
%TO.N,GND*%
X126500000Y-190500000D03*
%TO.P,U331,2*%
X127500000Y-190500000D03*
%TO.P,U331,3*%
X128500000Y-190500000D03*
%TO.P,U331,4*%
X129500000Y-190500000D03*
%TO.P,U331,5*%
X130500000Y-190500000D03*
%TO.P,U331,6*%
X131500000Y-190500000D03*
%TO.P,U331,7*%
X132500000Y-190500000D03*
%TO.P,U331,8*%
X133500000Y-190500000D03*
%TO.P,U331,9*%
X126500000Y-199500000D03*
%TO.P,U331,10*%
X127500000Y-199500000D03*
%TO.P,U331,11*%
X128500000Y-199500000D03*
%TO.P,U331,12*%
X129500000Y-199500000D03*
%TO.P,U331,13*%
X130500000Y-199500000D03*
%TO.P,U331,14*%
X131500000Y-199500000D03*
%TO.P,U331,15*%
X132500000Y-199500000D03*
%TO.P,U331,16*%
X133500000Y-199500000D03*
%TD*%
D10*
%TO.P,U332,EP*%
%TO.N,V_CORE_U0*%
X140000000Y-195000000D03*
D11*
%TO.P,U332,1*%
%TO.N,GND*%
X136500000Y-190500000D03*
%TO.P,U332,2*%
X137500000Y-190500000D03*
%TO.P,U332,3*%
X138500000Y-190500000D03*
%TO.P,U332,4*%
X139500000Y-190500000D03*
%TO.P,U332,5*%
X140500000Y-190500000D03*
%TO.P,U332,6*%
X141500000Y-190500000D03*
%TO.P,U332,7*%
X142500000Y-190500000D03*
%TO.P,U332,8*%
X143500000Y-190500000D03*
%TO.P,U332,9*%
X136500000Y-199500000D03*
%TO.P,U332,10*%
X137500000Y-199500000D03*
%TO.P,U332,11*%
X138500000Y-199500000D03*
%TO.P,U332,12*%
X139500000Y-199500000D03*
%TO.P,U332,13*%
X140500000Y-199500000D03*
%TO.P,U332,14*%
X141500000Y-199500000D03*
%TO.P,U332,15*%
X142500000Y-199500000D03*
%TO.P,U332,16*%
X143500000Y-199500000D03*
%TD*%
D10*
%TO.P,U333,EP*%
%TO.N,V_CORE_U0*%
X150000000Y-195000000D03*
D11*
%TO.P,U333,1*%
%TO.N,GND*%
X146500000Y-190500000D03*
%TO.P,U333,2*%
X147500000Y-190500000D03*
%TO.P,U333,3*%
X148500000Y-190500000D03*
%TO.P,U333,4*%
X149500000Y-190500000D03*
%TO.P,U333,5*%
X150500000Y-190500000D03*
%TO.P,U333,6*%
X151500000Y-190500000D03*
%TO.P,U333,7*%
X152500000Y-190500000D03*
%TO.P,U333,8*%
X153500000Y-190500000D03*
%TO.P,U333,9*%
X146500000Y-199500000D03*
%TO.P,U333,10*%
X147500000Y-199500000D03*
%TO.P,U333,11*%
X148500000Y-199500000D03*
%TO.P,U333,12*%
X149500000Y-199500000D03*
%TO.P,U333,13*%
X150500000Y-199500000D03*
%TO.P,U333,14*%
X151500000Y-199500000D03*
%TO.P,U333,15*%
X152500000Y-199500000D03*
%TO.P,U333,16*%
X153500000Y-199500000D03*
%TD*%
D10*
%TO.P,U334,EP*%
%TO.N,V_CORE_U0*%
X160000000Y-195000000D03*
D11*
%TO.P,U334,1*%
%TO.N,GND*%
X156500000Y-190500000D03*
%TO.P,U334,2*%
X157500000Y-190500000D03*
%TO.P,U334,3*%
X158500000Y-190500000D03*
%TO.P,U334,4*%
X159500000Y-190500000D03*
%TO.P,U334,5*%
X160500000Y-190500000D03*
%TO.P,U334,6*%
X161500000Y-190500000D03*
%TO.P,U334,7*%
X162500000Y-190500000D03*
%TO.P,U334,8*%
X163500000Y-190500000D03*
%TO.P,U334,9*%
X156500000Y-199500000D03*
%TO.P,U334,10*%
X157500000Y-199500000D03*
%TO.P,U334,11*%
X158500000Y-199500000D03*
%TO.P,U334,12*%
X159500000Y-199500000D03*
%TO.P,U334,13*%
X160500000Y-199500000D03*
%TO.P,U334,14*%
X161500000Y-199500000D03*
%TO.P,U334,15*%
X162500000Y-199500000D03*
%TO.P,U334,16*%
X163500000Y-199500000D03*
%TD*%
D10*
%TO.P,U335,EP*%
%TO.N,V_CORE_U0*%
X170000000Y-195000000D03*
D11*
%TO.P,U335,1*%
%TO.N,GND*%
X166500000Y-190500000D03*
%TO.P,U335,2*%
X167500000Y-190500000D03*
%TO.P,U335,3*%
X168500000Y-190500000D03*
%TO.P,U335,4*%
X169500000Y-190500000D03*
%TO.P,U335,5*%
X170500000Y-190500000D03*
%TO.P,U335,6*%
X171500000Y-190500000D03*
%TO.P,U335,7*%
X172500000Y-190500000D03*
%TO.P,U335,8*%
X173500000Y-190500000D03*
%TO.P,U335,9*%
X166500000Y-199500000D03*
%TO.P,U335,10*%
X167500000Y-199500000D03*
%TO.P,U335,11*%
X168500000Y-199500000D03*
%TO.P,U335,12*%
X169500000Y-199500000D03*
%TO.P,U335,13*%
X170500000Y-199500000D03*
%TO.P,U335,14*%
X171500000Y-199500000D03*
%TO.P,U335,15*%
X172500000Y-199500000D03*
%TO.P,U335,16*%
X173500000Y-199500000D03*
%TD*%
D10*
%TO.P,U336,EP*%
%TO.N,V_CORE_U0*%
X180000000Y-195000000D03*
D11*
%TO.P,U336,1*%
%TO.N,GND*%
X176500000Y-190500000D03*
%TO.P,U336,2*%
X177500000Y-190500000D03*
%TO.P,U336,3*%
X178500000Y-190500000D03*
%TO.P,U336,4*%
X179500000Y-190500000D03*
%TO.P,U336,5*%
X180500000Y-190500000D03*
%TO.P,U336,6*%
X181500000Y-190500000D03*
%TO.P,U336,7*%
X182500000Y-190500000D03*
%TO.P,U336,8*%
X183500000Y-190500000D03*
%TO.P,U336,9*%
X176500000Y-199500000D03*
%TO.P,U336,10*%
X177500000Y-199500000D03*
%TO.P,U336,11*%
X178500000Y-199500000D03*
%TO.P,U336,12*%
X179500000Y-199500000D03*
%TO.P,U336,13*%
X180500000Y-199500000D03*
%TO.P,U336,14*%
X181500000Y-199500000D03*
%TO.P,U336,15*%
X182500000Y-199500000D03*
%TO.P,U336,16*%
X183500000Y-199500000D03*
%TD*%
D10*
%TO.P,U337,EP*%
%TO.N,V_CORE_U0*%
X190000000Y-195000000D03*
D11*
%TO.P,U337,1*%
%TO.N,GND*%
X186500000Y-190500000D03*
%TO.P,U337,2*%
X187500000Y-190500000D03*
%TO.P,U337,3*%
X188500000Y-190500000D03*
%TO.P,U337,4*%
X189500000Y-190500000D03*
%TO.P,U337,5*%
X190500000Y-190500000D03*
%TO.P,U337,6*%
X191500000Y-190500000D03*
%TO.P,U337,7*%
X192500000Y-190500000D03*
%TO.P,U337,8*%
X193500000Y-190500000D03*
%TO.P,U337,9*%
X186500000Y-199500000D03*
%TO.P,U337,10*%
X187500000Y-199500000D03*
%TO.P,U337,11*%
X188500000Y-199500000D03*
%TO.P,U337,12*%
X189500000Y-199500000D03*
%TO.P,U337,13*%
X190500000Y-199500000D03*
%TO.P,U337,14*%
X191500000Y-199500000D03*
%TO.P,U337,15*%
X192500000Y-199500000D03*
%TO.P,U337,16*%
X193500000Y-199500000D03*
%TD*%
D10*
%TO.P,U338,EP*%
%TO.N,V_CORE_U1*%
X230000000Y-195000000D03*
D11*
%TO.P,U338,1*%
%TO.N,GND*%
X226500000Y-190500000D03*
%TO.P,U338,2*%
X227500000Y-190500000D03*
%TO.P,U338,3*%
X228500000Y-190500000D03*
%TO.P,U338,4*%
X229500000Y-190500000D03*
%TO.P,U338,5*%
X230500000Y-190500000D03*
%TO.P,U338,6*%
X231500000Y-190500000D03*
%TO.P,U338,7*%
X232500000Y-190500000D03*
%TO.P,U338,8*%
X233500000Y-190500000D03*
%TO.P,U338,9*%
X226500000Y-199500000D03*
%TO.P,U338,10*%
X227500000Y-199500000D03*
%TO.P,U338,11*%
X228500000Y-199500000D03*
%TO.P,U338,12*%
X229500000Y-199500000D03*
%TO.P,U338,13*%
X230500000Y-199500000D03*
%TO.P,U338,14*%
X231500000Y-199500000D03*
%TO.P,U338,15*%
X232500000Y-199500000D03*
%TO.P,U338,16*%
X233500000Y-199500000D03*
%TD*%
D10*
%TO.P,U339,EP*%
%TO.N,V_CORE_U1*%
X240000000Y-195000000D03*
D11*
%TO.P,U339,1*%
%TO.N,GND*%
X236500000Y-190500000D03*
%TO.P,U339,2*%
X237500000Y-190500000D03*
%TO.P,U339,3*%
X238500000Y-190500000D03*
%TO.P,U339,4*%
X239500000Y-190500000D03*
%TO.P,U339,5*%
X240500000Y-190500000D03*
%TO.P,U339,6*%
X241500000Y-190500000D03*
%TO.P,U339,7*%
X242500000Y-190500000D03*
%TO.P,U339,8*%
X243500000Y-190500000D03*
%TO.P,U339,9*%
X236500000Y-199500000D03*
%TO.P,U339,10*%
X237500000Y-199500000D03*
%TO.P,U339,11*%
X238500000Y-199500000D03*
%TO.P,U339,12*%
X239500000Y-199500000D03*
%TO.P,U339,13*%
X240500000Y-199500000D03*
%TO.P,U339,14*%
X241500000Y-199500000D03*
%TO.P,U339,15*%
X242500000Y-199500000D03*
%TO.P,U339,16*%
X243500000Y-199500000D03*
%TD*%
D10*
%TO.P,U340,EP*%
%TO.N,V_CORE_U1*%
X250000000Y-195000000D03*
D11*
%TO.P,U340,1*%
%TO.N,GND*%
X246500000Y-190500000D03*
%TO.P,U340,2*%
X247500000Y-190500000D03*
%TO.P,U340,3*%
X248500000Y-190500000D03*
%TO.P,U340,4*%
X249500000Y-190500000D03*
%TO.P,U340,5*%
X250500000Y-190500000D03*
%TO.P,U340,6*%
X251500000Y-190500000D03*
%TO.P,U340,7*%
X252500000Y-190500000D03*
%TO.P,U340,8*%
X253500000Y-190500000D03*
%TO.P,U340,9*%
X246500000Y-199500000D03*
%TO.P,U340,10*%
X247500000Y-199500000D03*
%TO.P,U340,11*%
X248500000Y-199500000D03*
%TO.P,U340,12*%
X249500000Y-199500000D03*
%TO.P,U340,13*%
X250500000Y-199500000D03*
%TO.P,U340,14*%
X251500000Y-199500000D03*
%TO.P,U340,15*%
X252500000Y-199500000D03*
%TO.P,U340,16*%
X253500000Y-199500000D03*
%TD*%
D10*
%TO.P,U341,EP*%
%TO.N,V_CORE_U1*%
X260000000Y-195000000D03*
D11*
%TO.P,U341,1*%
%TO.N,GND*%
X256500000Y-190500000D03*
%TO.P,U341,2*%
X257500000Y-190500000D03*
%TO.P,U341,3*%
X258500000Y-190500000D03*
%TO.P,U341,4*%
X259500000Y-190500000D03*
%TO.P,U341,5*%
X260500000Y-190500000D03*
%TO.P,U341,6*%
X261500000Y-190500000D03*
%TO.P,U341,7*%
X262500000Y-190500000D03*
%TO.P,U341,8*%
X263500000Y-190500000D03*
%TO.P,U341,9*%
X256500000Y-199500000D03*
%TO.P,U341,10*%
X257500000Y-199500000D03*
%TO.P,U341,11*%
X258500000Y-199500000D03*
%TO.P,U341,12*%
X259500000Y-199500000D03*
%TO.P,U341,13*%
X260500000Y-199500000D03*
%TO.P,U341,14*%
X261500000Y-199500000D03*
%TO.P,U341,15*%
X262500000Y-199500000D03*
%TO.P,U341,16*%
X263500000Y-199500000D03*
%TD*%
D10*
%TO.P,U342,EP*%
%TO.N,V_CORE_U1*%
X270000000Y-195000000D03*
D11*
%TO.P,U342,1*%
%TO.N,GND*%
X266500000Y-190500000D03*
%TO.P,U342,2*%
X267500000Y-190500000D03*
%TO.P,U342,3*%
X268500000Y-190500000D03*
%TO.P,U342,4*%
X269500000Y-190500000D03*
%TO.P,U342,5*%
X270500000Y-190500000D03*
%TO.P,U342,6*%
X271500000Y-190500000D03*
%TO.P,U342,7*%
X272500000Y-190500000D03*
%TO.P,U342,8*%
X273500000Y-190500000D03*
%TO.P,U342,9*%
X266500000Y-199500000D03*
%TO.P,U342,10*%
X267500000Y-199500000D03*
%TO.P,U342,11*%
X268500000Y-199500000D03*
%TO.P,U342,12*%
X269500000Y-199500000D03*
%TO.P,U342,13*%
X270500000Y-199500000D03*
%TO.P,U342,14*%
X271500000Y-199500000D03*
%TO.P,U342,15*%
X272500000Y-199500000D03*
%TO.P,U342,16*%
X273500000Y-199500000D03*
%TD*%
D10*
%TO.P,U343,EP*%
%TO.N,V_CORE_U1*%
X280000000Y-195000000D03*
D11*
%TO.P,U343,1*%
%TO.N,GND*%
X276500000Y-190500000D03*
%TO.P,U343,2*%
X277500000Y-190500000D03*
%TO.P,U343,3*%
X278500000Y-190500000D03*
%TO.P,U343,4*%
X279500000Y-190500000D03*
%TO.P,U343,5*%
X280500000Y-190500000D03*
%TO.P,U343,6*%
X281500000Y-190500000D03*
%TO.P,U343,7*%
X282500000Y-190500000D03*
%TO.P,U343,8*%
X283500000Y-190500000D03*
%TO.P,U343,9*%
X276500000Y-199500000D03*
%TO.P,U343,10*%
X277500000Y-199500000D03*
%TO.P,U343,11*%
X278500000Y-199500000D03*
%TO.P,U343,12*%
X279500000Y-199500000D03*
%TO.P,U343,13*%
X280500000Y-199500000D03*
%TO.P,U343,14*%
X281500000Y-199500000D03*
%TO.P,U343,15*%
X282500000Y-199500000D03*
%TO.P,U343,16*%
X283500000Y-199500000D03*
%TD*%
D10*
%TO.P,U344,EP*%
%TO.N,V_CORE_U1*%
X290000000Y-195000000D03*
D11*
%TO.P,U344,1*%
%TO.N,GND*%
X286500000Y-190500000D03*
%TO.P,U344,2*%
X287500000Y-190500000D03*
%TO.P,U344,3*%
X288500000Y-190500000D03*
%TO.P,U344,4*%
X289500000Y-190500000D03*
%TO.P,U344,5*%
X290500000Y-190500000D03*
%TO.P,U344,6*%
X291500000Y-190500000D03*
%TO.P,U344,7*%
X292500000Y-190500000D03*
%TO.P,U344,8*%
X293500000Y-190500000D03*
%TO.P,U344,9*%
X286500000Y-199500000D03*
%TO.P,U344,10*%
X287500000Y-199500000D03*
%TO.P,U344,11*%
X288500000Y-199500000D03*
%TO.P,U344,12*%
X289500000Y-199500000D03*
%TO.P,U344,13*%
X290500000Y-199500000D03*
%TO.P,U344,14*%
X291500000Y-199500000D03*
%TO.P,U344,15*%
X292500000Y-199500000D03*
%TO.P,U344,16*%
X293500000Y-199500000D03*
%TD*%
D10*
%TO.P,U345,EP*%
%TO.N,V_CORE_U1*%
X300000000Y-195000000D03*
D11*
%TO.P,U345,1*%
%TO.N,GND*%
X296500000Y-190500000D03*
%TO.P,U345,2*%
X297500000Y-190500000D03*
%TO.P,U345,3*%
X298500000Y-190500000D03*
%TO.P,U345,4*%
X299500000Y-190500000D03*
%TO.P,U345,5*%
X300500000Y-190500000D03*
%TO.P,U345,6*%
X301500000Y-190500000D03*
%TO.P,U345,7*%
X302500000Y-190500000D03*
%TO.P,U345,8*%
X303500000Y-190500000D03*
%TO.P,U345,9*%
X296500000Y-199500000D03*
%TO.P,U345,10*%
X297500000Y-199500000D03*
%TO.P,U345,11*%
X298500000Y-199500000D03*
%TO.P,U345,12*%
X299500000Y-199500000D03*
%TO.P,U345,13*%
X300500000Y-199500000D03*
%TO.P,U345,14*%
X301500000Y-199500000D03*
%TO.P,U345,15*%
X302500000Y-199500000D03*
%TO.P,U345,16*%
X303500000Y-199500000D03*
%TD*%
D10*
%TO.P,U346,EP*%
%TO.N,V_CORE_U1*%
X310000000Y-195000000D03*
D11*
%TO.P,U346,1*%
%TO.N,GND*%
X306500000Y-190500000D03*
%TO.P,U346,2*%
X307500000Y-190500000D03*
%TO.P,U346,3*%
X308500000Y-190500000D03*
%TO.P,U346,4*%
X309500000Y-190500000D03*
%TO.P,U346,5*%
X310500000Y-190500000D03*
%TO.P,U346,6*%
X311500000Y-190500000D03*
%TO.P,U346,7*%
X312500000Y-190500000D03*
%TO.P,U346,8*%
X313500000Y-190500000D03*
%TO.P,U346,9*%
X306500000Y-199500000D03*
%TO.P,U346,10*%
X307500000Y-199500000D03*
%TO.P,U346,11*%
X308500000Y-199500000D03*
%TO.P,U346,12*%
X309500000Y-199500000D03*
%TO.P,U346,13*%
X310500000Y-199500000D03*
%TO.P,U346,14*%
X311500000Y-199500000D03*
%TO.P,U346,15*%
X312500000Y-199500000D03*
%TO.P,U346,16*%
X313500000Y-199500000D03*
%TD*%
D10*
%TO.P,U347,EP*%
%TO.N,V_CORE_U1*%
X320000000Y-195000000D03*
D11*
%TO.P,U347,1*%
%TO.N,GND*%
X316500000Y-190500000D03*
%TO.P,U347,2*%
X317500000Y-190500000D03*
%TO.P,U347,3*%
X318500000Y-190500000D03*
%TO.P,U347,4*%
X319500000Y-190500000D03*
%TO.P,U347,5*%
X320500000Y-190500000D03*
%TO.P,U347,6*%
X321500000Y-190500000D03*
%TO.P,U347,7*%
X322500000Y-190500000D03*
%TO.P,U347,8*%
X323500000Y-190500000D03*
%TO.P,U347,9*%
X316500000Y-199500000D03*
%TO.P,U347,10*%
X317500000Y-199500000D03*
%TO.P,U347,11*%
X318500000Y-199500000D03*
%TO.P,U347,12*%
X319500000Y-199500000D03*
%TO.P,U347,13*%
X320500000Y-199500000D03*
%TO.P,U347,14*%
X321500000Y-199500000D03*
%TO.P,U347,15*%
X322500000Y-199500000D03*
%TO.P,U347,16*%
X323500000Y-199500000D03*
%TD*%
D10*
%TO.P,U348,EP*%
%TO.N,V_CORE_U1*%
X330000000Y-195000000D03*
D11*
%TO.P,U348,1*%
%TO.N,GND*%
X326500000Y-190500000D03*
%TO.P,U348,2*%
X327500000Y-190500000D03*
%TO.P,U348,3*%
X328500000Y-190500000D03*
%TO.P,U348,4*%
X329500000Y-190500000D03*
%TO.P,U348,5*%
X330500000Y-190500000D03*
%TO.P,U348,6*%
X331500000Y-190500000D03*
%TO.P,U348,7*%
X332500000Y-190500000D03*
%TO.P,U348,8*%
X333500000Y-190500000D03*
%TO.P,U348,9*%
X326500000Y-199500000D03*
%TO.P,U348,10*%
X327500000Y-199500000D03*
%TO.P,U348,11*%
X328500000Y-199500000D03*
%TO.P,U348,12*%
X329500000Y-199500000D03*
%TO.P,U348,13*%
X330500000Y-199500000D03*
%TO.P,U348,14*%
X331500000Y-199500000D03*
%TO.P,U348,15*%
X332500000Y-199500000D03*
%TO.P,U348,16*%
X333500000Y-199500000D03*
%TD*%
D10*
%TO.P,U349,EP*%
%TO.N,V_CORE_U1*%
X340000000Y-195000000D03*
D11*
%TO.P,U349,1*%
%TO.N,GND*%
X336500000Y-190500000D03*
%TO.P,U349,2*%
X337500000Y-190500000D03*
%TO.P,U349,3*%
X338500000Y-190500000D03*
%TO.P,U349,4*%
X339500000Y-190500000D03*
%TO.P,U349,5*%
X340500000Y-190500000D03*
%TO.P,U349,6*%
X341500000Y-190500000D03*
%TO.P,U349,7*%
X342500000Y-190500000D03*
%TO.P,U349,8*%
X343500000Y-190500000D03*
%TO.P,U349,9*%
X336500000Y-199500000D03*
%TO.P,U349,10*%
X337500000Y-199500000D03*
%TO.P,U349,11*%
X338500000Y-199500000D03*
%TO.P,U349,12*%
X339500000Y-199500000D03*
%TO.P,U349,13*%
X340500000Y-199500000D03*
%TO.P,U349,14*%
X341500000Y-199500000D03*
%TO.P,U349,15*%
X342500000Y-199500000D03*
%TO.P,U349,16*%
X343500000Y-199500000D03*
%TD*%
D12*
%TO.P,C_U0_T2_0,1*%
%TO.N,PDN_U0_T2_C0*%
X158400000Y-160000000D03*
%TO.P,C_U0_T2_0,2*%
%TO.N,GND*%
X159600000Y-160000000D03*
%TD*%
%TO.P,C_U0_T2_1,1*%
%TO.N,PDN_U0_T2_C1*%
X152790000Y-175430000D03*
%TO.P,C_U0_T2_1,2*%
%TO.N,GND*%
X153990000Y-175430000D03*
%TD*%
%TO.P,C_U0_T2_2,1*%
%TO.N,PDN_U0_T2_C2*%
X138570000Y-183640000D03*
%TO.P,C_U0_T2_2,2*%
%TO.N,GND*%
X139770000Y-183640000D03*
%TD*%
%TO.P,C_U0_T2_3,1*%
%TO.N,PDN_U0_T2_C3*%
X122400000Y-180780000D03*
%TO.P,C_U0_T2_3,2*%
%TO.N,GND*%
X123600000Y-180780000D03*
%TD*%
%TO.P,C_U0_T2_4,1*%
%TO.N,PDN_U0_T2_C4*%
X111850000Y-168210000D03*
%TO.P,C_U0_T2_4,2*%
%TO.N,GND*%
X113050000Y-168210000D03*
%TD*%
%TO.P,C_U0_T2_5,1*%
%TO.N,PDN_U0_T2_C5*%
X111850000Y-151790000D03*
%TO.P,C_U0_T2_5,2*%
%TO.N,GND*%
X113050000Y-151790000D03*
%TD*%
%TO.P,C_U0_T2_6,1*%
%TO.N,PDN_U0_T2_C6*%
X122400000Y-139220000D03*
%TO.P,C_U0_T2_6,2*%
%TO.N,GND*%
X123600000Y-139220000D03*
%TD*%
%TO.P,C_U0_T2_7,1*%
%TO.N,PDN_U0_T2_C7*%
X138570000Y-136360000D03*
%TO.P,C_U0_T2_7,2*%
%TO.N,GND*%
X139770000Y-136360000D03*
%TD*%
%TO.P,C_U0_T2_8,1*%
%TO.N,PDN_U0_T2_C8*%
X152790000Y-144570000D03*
%TO.P,C_U0_T2_8,2*%
%TO.N,GND*%
X153990000Y-144570000D03*
%TD*%
D13*
%TO.P,C_U0_T1_0,1*%
%TO.N,PDN_U0_T1_C0*%
X103800000Y-190000000D03*
%TO.P,C_U0_T1_0,2*%
%TO.N,GND*%
X106200000Y-190000000D03*
%TD*%
%TO.P,C_U0_T1_1,1*%
%TO.N,PDN_U0_T1_C1*%
X115800000Y-190000000D03*
%TO.P,C_U0_T1_1,2*%
%TO.N,GND*%
X118200000Y-190000000D03*
%TD*%
%TO.P,C_U0_T1_2,1*%
%TO.N,PDN_U0_T1_C2*%
X127800000Y-190000000D03*
%TO.P,C_U0_T1_2,2*%
%TO.N,GND*%
X130200000Y-190000000D03*
%TD*%
%TO.P,C_U0_T1_3,1*%
%TO.N,PDN_U0_T1_C3*%
X139800000Y-190000000D03*
%TO.P,C_U0_T1_3,2*%
%TO.N,GND*%
X142200000Y-190000000D03*
%TD*%
%TO.P,C_U0_T1_4,1*%
%TO.N,PDN_U0_T1_C4*%
X151800000Y-190000000D03*
%TO.P,C_U0_T1_4,2*%
%TO.N,GND*%
X154200000Y-190000000D03*
%TD*%
%TO.P,C_U0_T1_5,1*%
%TO.N,PDN_U0_T1_C5*%
X163800000Y-190000000D03*
%TO.P,C_U0_T1_5,2*%
%TO.N,GND*%
X166200000Y-190000000D03*
%TD*%
D12*
%TO.P,C_U1_T2_0,1*%
%TO.N,PDN_U1_T2_C0*%
X308400000Y-160000000D03*
%TO.P,C_U1_T2_0,2*%
%TO.N,GND*%
X309600000Y-160000000D03*
%TD*%
%TO.P,C_U1_T2_1,1*%
%TO.N,PDN_U1_T2_C1*%
X302790000Y-175430000D03*
%TO.P,C_U1_T2_1,2*%
%TO.N,GND*%
X303990000Y-175430000D03*
%TD*%
%TO.P,C_U1_T2_2,1*%
%TO.N,PDN_U1_T2_C2*%
X288570000Y-183640000D03*
%TO.P,C_U1_T2_2,2*%
%TO.N,GND*%
X289770000Y-183640000D03*
%TD*%
%TO.P,C_U1_T2_3,1*%
%TO.N,PDN_U1_T2_C3*%
X272400000Y-180780000D03*
%TO.P,C_U1_T2_3,2*%
%TO.N,GND*%
X273600000Y-180780000D03*
%TD*%
%TO.P,C_U1_T2_4,1*%
%TO.N,PDN_U1_T2_C4*%
X261850000Y-168210000D03*
%TO.P,C_U1_T2_4,2*%
%TO.N,GND*%
X263050000Y-168210000D03*
%TD*%
%TO.P,C_U1_T2_5,1*%
%TO.N,PDN_U1_T2_C5*%
X261850000Y-151790000D03*
%TO.P,C_U1_T2_5,2*%
%TO.N,GND*%
X263050000Y-151790000D03*
%TD*%
%TO.P,C_U1_T2_6,1*%
%TO.N,PDN_U1_T2_C6*%
X272400000Y-139220000D03*
%TO.P,C_U1_T2_6,2*%
%TO.N,GND*%
X273600000Y-139220000D03*
%TD*%
%TO.P,C_U1_T2_7,1*%
%TO.N,PDN_U1_T2_C7*%
X288570000Y-136360000D03*
%TO.P,C_U1_T2_7,2*%
%TO.N,GND*%
X289770000Y-136360000D03*
%TD*%
%TO.P,C_U1_T2_8,1*%
%TO.N,PDN_U1_T2_C8*%
X302790000Y-144570000D03*
%TO.P,C_U1_T2_8,2*%
%TO.N,GND*%
X303990000Y-144570000D03*
%TD*%
D13*
%TO.P,C_U1_T1_0,1*%
%TO.N,PDN_U1_T1_C0*%
X253800000Y-190000000D03*
%TO.P,C_U1_T1_0,2*%
%TO.N,GND*%
X256200000Y-190000000D03*
%TD*%
%TO.P,C_U1_T1_1,1*%
%TO.N,PDN_U1_T1_C1*%
X265800000Y-190000000D03*
%TO.P,C_U1_T1_1,2*%
%TO.N,GND*%
X268200000Y-190000000D03*
%TD*%
%TO.P,C_U1_T1_2,1*%
%TO.N,PDN_U1_T1_C2*%
X277800000Y-190000000D03*
%TO.P,C_U1_T1_2,2*%
%TO.N,GND*%
X280200000Y-190000000D03*
%TD*%
%TO.P,C_U1_T1_3,1*%
%TO.N,PDN_U1_T1_C3*%
X289800000Y-190000000D03*
%TO.P,C_U1_T1_3,2*%
%TO.N,GND*%
X292200000Y-190000000D03*
%TD*%
%TO.P,C_U1_T1_4,1*%
%TO.N,PDN_U1_T1_C4*%
X301800000Y-190000000D03*
%TO.P,C_U1_T1_4,2*%
%TO.N,GND*%
X304200000Y-190000000D03*
%TD*%
%TO.P,C_U1_T1_5,1*%
%TO.N,PDN_U1_T1_C5*%
X313800000Y-190000000D03*
%TO.P,C_U1_T1_5,2*%
%TO.N,GND*%
X316200000Y-190000000D03*
%TD*%
D14*
%TO.P,C743,1*%
%TO.N,N/C*%
X119700000Y-201000000D03*
%TO.P,C743,2*%
X120300000Y-201000000D03*
%TD*%
%TO.P,C744,1*%
%TO.N,N/C*%
X122200000Y-201000000D03*
%TO.P,C744,2*%
X122800000Y-201000000D03*
%TD*%
%TO.P,C745,1*%
%TO.N,N/C*%
X124700000Y-201000000D03*
%TO.P,C745,2*%
X125300000Y-201000000D03*
%TD*%
%TO.P,C746,1*%
%TO.N,N/C*%
X127200000Y-201000000D03*
%TO.P,C746,2*%
X127800000Y-201000000D03*
%TD*%
%TO.P,C747,1*%
%TO.N,N/C*%
X129700000Y-201000000D03*
%TO.P,C747,2*%
X130300000Y-201000000D03*
%TD*%
%TO.P,C748,1*%
%TO.N,N/C*%
X132200000Y-201000000D03*
%TO.P,C748,2*%
X132800000Y-201000000D03*
%TD*%
%TO.P,C749,1*%
%TO.N,N/C*%
X134700000Y-201000000D03*
%TO.P,C749,2*%
X135300000Y-201000000D03*
%TD*%
%TO.P,C750,1*%
%TO.N,N/C*%
X137200000Y-201000000D03*
%TO.P,C750,2*%
X137800000Y-201000000D03*
%TD*%
%TO.P,C751,1*%
%TO.N,N/C*%
X139700000Y-201000000D03*
%TO.P,C751,2*%
X140300000Y-201000000D03*
%TD*%
%TO.P,C752,1*%
%TO.N,N/C*%
X142200000Y-201000000D03*
%TO.P,C752,2*%
X142800000Y-201000000D03*
%TD*%
%TO.P,C753,1*%
%TO.N,N/C*%
X144700000Y-201000000D03*
%TO.P,C753,2*%
X145300000Y-201000000D03*
%TD*%
%TO.P,C754,1*%
%TO.N,N/C*%
X147200000Y-201000000D03*
%TO.P,C754,2*%
X147800000Y-201000000D03*
%TD*%
%TO.P,C755,1*%
%TO.N,N/C*%
X119700000Y-204000000D03*
%TO.P,C755,2*%
X120300000Y-204000000D03*
%TD*%
%TO.P,C756,1*%
%TO.N,N/C*%
X122200000Y-204000000D03*
%TO.P,C756,2*%
X122800000Y-204000000D03*
%TD*%
%TO.P,C757,1*%
%TO.N,N/C*%
X124700000Y-204000000D03*
%TO.P,C757,2*%
X125300000Y-204000000D03*
%TD*%
%TO.P,C758,1*%
%TO.N,N/C*%
X127200000Y-204000000D03*
%TO.P,C758,2*%
X127800000Y-204000000D03*
%TD*%
%TO.P,C759,1*%
%TO.N,N/C*%
X129700000Y-204000000D03*
%TO.P,C759,2*%
X130300000Y-204000000D03*
%TD*%
%TO.P,C760,1*%
%TO.N,N/C*%
X132200000Y-204000000D03*
%TO.P,C760,2*%
X132800000Y-204000000D03*
%TD*%
%TO.P,C761,1*%
%TO.N,N/C*%
X134700000Y-204000000D03*
%TO.P,C761,2*%
X135300000Y-204000000D03*
%TD*%
%TO.P,C762,1*%
%TO.N,N/C*%
X137200000Y-204000000D03*
%TO.P,C762,2*%
X137800000Y-204000000D03*
%TD*%
%TO.P,C763,1*%
%TO.N,N/C*%
X139700000Y-204000000D03*
%TO.P,C763,2*%
X140300000Y-204000000D03*
%TD*%
%TO.P,C764,1*%
%TO.N,N/C*%
X142200000Y-204000000D03*
%TO.P,C764,2*%
X142800000Y-204000000D03*
%TD*%
%TO.P,C765,1*%
%TO.N,N/C*%
X144700000Y-204000000D03*
%TO.P,C765,2*%
X145300000Y-204000000D03*
%TD*%
%TO.P,C766,1*%
%TO.N,N/C*%
X147200000Y-204000000D03*
%TO.P,C766,2*%
X147800000Y-204000000D03*
%TD*%
%TO.P,C767,1*%
%TO.N,N/C*%
X119700000Y-207000000D03*
%TO.P,C767,2*%
X120300000Y-207000000D03*
%TD*%
%TO.P,C768,1*%
%TO.N,N/C*%
X122200000Y-207000000D03*
%TO.P,C768,2*%
X122800000Y-207000000D03*
%TD*%
%TO.P,C769,1*%
%TO.N,N/C*%
X124700000Y-207000000D03*
%TO.P,C769,2*%
X125300000Y-207000000D03*
%TD*%
%TO.P,C770,1*%
%TO.N,N/C*%
X127200000Y-207000000D03*
%TO.P,C770,2*%
X127800000Y-207000000D03*
%TD*%
%TO.P,C771,1*%
%TO.N,N/C*%
X129700000Y-207000000D03*
%TO.P,C771,2*%
X130300000Y-207000000D03*
%TD*%
%TO.P,C772,1*%
%TO.N,N/C*%
X132200000Y-207000000D03*
%TO.P,C772,2*%
X132800000Y-207000000D03*
%TD*%
%TO.P,C773,1*%
%TO.N,N/C*%
X134700000Y-207000000D03*
%TO.P,C773,2*%
X135300000Y-207000000D03*
%TD*%
%TO.P,C774,1*%
%TO.N,N/C*%
X137200000Y-207000000D03*
%TO.P,C774,2*%
X137800000Y-207000000D03*
%TD*%
%TO.P,C775,1*%
%TO.N,N/C*%
X139700000Y-207000000D03*
%TO.P,C775,2*%
X140300000Y-207000000D03*
%TD*%
%TO.P,C776,1*%
%TO.N,N/C*%
X142200000Y-207000000D03*
%TO.P,C776,2*%
X142800000Y-207000000D03*
%TD*%
%TO.P,C777,1*%
%TO.N,N/C*%
X144700000Y-207000000D03*
%TO.P,C777,2*%
X145300000Y-207000000D03*
%TD*%
%TO.P,C778,1*%
%TO.N,N/C*%
X147200000Y-207000000D03*
%TO.P,C778,2*%
X147800000Y-207000000D03*
%TD*%
%TO.P,C779,1*%
%TO.N,N/C*%
X269700000Y-201000000D03*
%TO.P,C779,2*%
X270300000Y-201000000D03*
%TD*%
%TO.P,C780,1*%
%TO.N,N/C*%
X272200000Y-201000000D03*
%TO.P,C780,2*%
X272800000Y-201000000D03*
%TD*%
%TO.P,C781,1*%
%TO.N,N/C*%
X274700000Y-201000000D03*
%TO.P,C781,2*%
X275300000Y-201000000D03*
%TD*%
%TO.P,C782,1*%
%TO.N,N/C*%
X277200000Y-201000000D03*
%TO.P,C782,2*%
X277800000Y-201000000D03*
%TD*%
%TO.P,C783,1*%
%TO.N,N/C*%
X279700000Y-201000000D03*
%TO.P,C783,2*%
X280300000Y-201000000D03*
%TD*%
%TO.P,C784,1*%
%TO.N,N/C*%
X282200000Y-201000000D03*
%TO.P,C784,2*%
X282800000Y-201000000D03*
%TD*%
%TO.P,C785,1*%
%TO.N,N/C*%
X284700000Y-201000000D03*
%TO.P,C785,2*%
X285300000Y-201000000D03*
%TD*%
%TO.P,C786,1*%
%TO.N,N/C*%
X287200000Y-201000000D03*
%TO.P,C786,2*%
X287800000Y-201000000D03*
%TD*%
%TO.P,C787,1*%
%TO.N,N/C*%
X289700000Y-201000000D03*
%TO.P,C787,2*%
X290300000Y-201000000D03*
%TD*%
%TO.P,C788,1*%
%TO.N,N/C*%
X292200000Y-201000000D03*
%TO.P,C788,2*%
X292800000Y-201000000D03*
%TD*%
%TO.P,C789,1*%
%TO.N,N/C*%
X294700000Y-201000000D03*
%TO.P,C789,2*%
X295300000Y-201000000D03*
%TD*%
%TO.P,C790,1*%
%TO.N,N/C*%
X297200000Y-201000000D03*
%TO.P,C790,2*%
X297800000Y-201000000D03*
%TD*%
%TO.P,C791,1*%
%TO.N,N/C*%
X269700000Y-204000000D03*
%TO.P,C791,2*%
X270300000Y-204000000D03*
%TD*%
%TO.P,C792,1*%
%TO.N,N/C*%
X272200000Y-204000000D03*
%TO.P,C792,2*%
X272800000Y-204000000D03*
%TD*%
%TO.P,C793,1*%
%TO.N,N/C*%
X274700000Y-204000000D03*
%TO.P,C793,2*%
X275300000Y-204000000D03*
%TD*%
%TO.P,C794,1*%
%TO.N,N/C*%
X277200000Y-204000000D03*
%TO.P,C794,2*%
X277800000Y-204000000D03*
%TD*%
%TO.P,C795,1*%
%TO.N,N/C*%
X279700000Y-204000000D03*
%TO.P,C795,2*%
X280300000Y-204000000D03*
%TD*%
%TO.P,C796,1*%
%TO.N,N/C*%
X282200000Y-204000000D03*
%TO.P,C796,2*%
X282800000Y-204000000D03*
%TD*%
%TO.P,C797,1*%
%TO.N,N/C*%
X284700000Y-204000000D03*
%TO.P,C797,2*%
X285300000Y-204000000D03*
%TD*%
%TO.P,C798,1*%
%TO.N,N/C*%
X287200000Y-204000000D03*
%TO.P,C798,2*%
X287800000Y-204000000D03*
%TD*%
%TO.P,C799,1*%
%TO.N,N/C*%
X289700000Y-204000000D03*
%TO.P,C799,2*%
X290300000Y-204000000D03*
%TD*%
%TO.P,C800,1*%
%TO.N,N/C*%
X292200000Y-204000000D03*
%TO.P,C800,2*%
X292800000Y-204000000D03*
%TD*%
%TO.P,C801,1*%
%TO.N,N/C*%
X294700000Y-204000000D03*
%TO.P,C801,2*%
X295300000Y-204000000D03*
%TD*%
%TO.P,C802,1*%
%TO.N,N/C*%
X297200000Y-204000000D03*
%TO.P,C802,2*%
X297800000Y-204000000D03*
%TD*%
%TO.P,C803,1*%
%TO.N,N/C*%
X269700000Y-207000000D03*
%TO.P,C803,2*%
X270300000Y-207000000D03*
%TD*%
%TO.P,C804,1*%
%TO.N,N/C*%
X272200000Y-207000000D03*
%TO.P,C804,2*%
X272800000Y-207000000D03*
%TD*%
%TO.P,C805,1*%
%TO.N,N/C*%
X274700000Y-207000000D03*
%TO.P,C805,2*%
X275300000Y-207000000D03*
%TD*%
%TO.P,C806,1*%
%TO.N,N/C*%
X277200000Y-207000000D03*
%TO.P,C806,2*%
X277800000Y-207000000D03*
%TD*%
%TO.P,C807,1*%
%TO.N,N/C*%
X279700000Y-207000000D03*
%TO.P,C807,2*%
X280300000Y-207000000D03*
%TD*%
%TO.P,C808,1*%
%TO.N,N/C*%
X282200000Y-207000000D03*
%TO.P,C808,2*%
X282800000Y-207000000D03*
%TD*%
%TO.P,C809,1*%
%TO.N,N/C*%
X284700000Y-207000000D03*
%TO.P,C809,2*%
X285300000Y-207000000D03*
%TD*%
%TO.P,C810,1*%
%TO.N,N/C*%
X287200000Y-207000000D03*
%TO.P,C810,2*%
X287800000Y-207000000D03*
%TD*%
%TO.P,C811,1*%
%TO.N,N/C*%
X289700000Y-207000000D03*
%TO.P,C811,2*%
X290300000Y-207000000D03*
%TD*%
%TO.P,C812,1*%
%TO.N,N/C*%
X292200000Y-207000000D03*
%TO.P,C812,2*%
X292800000Y-207000000D03*
%TD*%
%TO.P,C813,1*%
%TO.N,N/C*%
X294700000Y-207000000D03*
%TO.P,C813,2*%
X295300000Y-207000000D03*
%TD*%
%TO.P,C814,1*%
%TO.N,N/C*%
X297200000Y-207000000D03*
%TO.P,C814,2*%
X297800000Y-207000000D03*
%TD*%
D15*
%TO.P,J1,B1*%
%TO.N,GND*%
X169500000Y-343000000D03*
%TO.P,J1,B2*%
X170500000Y-343000000D03*
%TO.P,J1,B3*%
X171500000Y-343000000D03*
%TO.P,J1,B4*%
X172500000Y-343000000D03*
%TO.P,J1,B5*%
X173500000Y-343000000D03*
%TO.P,J1,B6*%
X174500000Y-343000000D03*
%TO.P,J1,B7*%
X175500000Y-343000000D03*
%TO.P,J1,B8*%
X176500000Y-343000000D03*
%TO.P,J1,B9*%
X177500000Y-343000000D03*
%TO.P,J1,B10*%
X178500000Y-343000000D03*
%TO.P,J1,B11*%
X179500000Y-343000000D03*
%TO.P,J1,B12*%
X180500000Y-343000000D03*
%TO.P,J1,B13*%
X181500000Y-343000000D03*
%TO.P,J1,B14*%
X182500000Y-343000000D03*
%TO.P,J1,B15*%
X183500000Y-343000000D03*
%TO.P,J1,B16*%
X184500000Y-343000000D03*
%TO.P,J1,B17*%
X185500000Y-343000000D03*
%TO.P,J1,B18*%
X186500000Y-343000000D03*
%TO.P,J1,B19*%
X187500000Y-343000000D03*
%TO.P,J1,B20*%
X188500000Y-343000000D03*
%TO.P,J1,B21*%
X189500000Y-343000000D03*
%TO.P,J1,B22*%
X190500000Y-343000000D03*
%TO.P,J1,B23*%
X191500000Y-343000000D03*
%TO.P,J1,B24*%
X192500000Y-343000000D03*
%TO.P,J1,B25*%
X193500000Y-343000000D03*
%TO.P,J1,B26*%
X194500000Y-343000000D03*
%TO.P,J1,B27*%
X195500000Y-343000000D03*
%TO.P,J1,B28*%
X196500000Y-343000000D03*
%TO.P,J1,B29*%
X197500000Y-343000000D03*
%TO.P,J1,B30*%
X198500000Y-343000000D03*
%TO.P,J1,B31*%
X199500000Y-343000000D03*
%TO.P,J1,B32*%
X200500000Y-343000000D03*
%TO.P,J1,B33*%
X201500000Y-343000000D03*
%TO.P,J1,B34*%
X202500000Y-343000000D03*
%TO.P,J1,B35*%
X203500000Y-343000000D03*
%TO.P,J1,B36*%
X204500000Y-343000000D03*
%TO.P,J1,B37*%
X205500000Y-343000000D03*
%TO.P,J1,B38*%
X206500000Y-343000000D03*
%TO.P,J1,B39*%
X207500000Y-343000000D03*
%TO.P,J1,B40*%
X208500000Y-343000000D03*
%TO.P,J1,B41*%
X209500000Y-343000000D03*
%TO.P,J1,B42*%
X210500000Y-343000000D03*
%TO.P,J1,B43*%
X211500000Y-343000000D03*
%TO.P,J1,B44*%
X212500000Y-343000000D03*
%TO.P,J1,B45*%
X213500000Y-343000000D03*
%TO.P,J1,B46*%
X214500000Y-343000000D03*
%TO.P,J1,B47*%
X215500000Y-343000000D03*
%TO.P,J1,B48*%
X216500000Y-343000000D03*
%TO.P,J1,B49*%
X217500000Y-343000000D03*
%TO.P,J1,B50*%
X218500000Y-343000000D03*
%TO.P,J1,B51*%
X219500000Y-343000000D03*
%TO.P,J1,B52*%
X220500000Y-343000000D03*
%TO.P,J1,B53*%
X221500000Y-343000000D03*
%TO.P,J1,B54*%
X222500000Y-343000000D03*
%TO.P,J1,B55*%
X223500000Y-343000000D03*
%TO.P,J1,B56*%
X224500000Y-343000000D03*
%TO.P,J1,B57*%
X225500000Y-343000000D03*
%TO.P,J1,B58*%
X226500000Y-343000000D03*
%TO.P,J1,B59*%
X227500000Y-343000000D03*
%TO.P,J1,B60*%
X228500000Y-343000000D03*
%TO.P,J1,B61*%
X229500000Y-343000000D03*
%TO.P,J1,B62*%
X230500000Y-343000000D03*
%TO.P,J1,B63*%
X231500000Y-343000000D03*
%TO.P,J1,B64*%
X232500000Y-343000000D03*
%TO.P,J1,B65*%
X233500000Y-343000000D03*
%TO.P,J1,B66*%
X234500000Y-343000000D03*
%TO.P,J1,B67*%
X235500000Y-343000000D03*
%TO.P,J1,B68*%
X236500000Y-343000000D03*
%TO.P,J1,B69*%
X237500000Y-343000000D03*
%TO.P,J1,B70*%
X238500000Y-343000000D03*
%TO.P,J1,B71*%
X239500000Y-343000000D03*
%TO.P,J1,B72*%
X240500000Y-343000000D03*
%TO.P,J1,B73*%
X241500000Y-343000000D03*
%TO.P,J1,B74*%
X242500000Y-343000000D03*
%TO.P,J1,B75*%
X243500000Y-343000000D03*
%TO.P,J1,B76*%
X244500000Y-343000000D03*
%TO.P,J1,B77*%
X245500000Y-343000000D03*
%TO.P,J1,B78*%
X246500000Y-343000000D03*
%TO.P,J1,B79*%
X247500000Y-343000000D03*
%TO.P,J1,B80*%
X248500000Y-343000000D03*
%TO.P,J1,B81*%
X249500000Y-343000000D03*
%TO.P,J1,B82*%
X250500000Y-343000000D03*
%TD*%
D16*
%TO.P,FID4,*%
%TO.N,*%
X15000000Y-15000000D03*
%TD*%
%TO.P,FID5,*%
%TO.N,*%
X405000000Y-15000000D03*
%TD*%
%TO.P,FID6,*%
%TO.N,*%
X15000000Y-335000000D03*
%TD*%
D17*
%TO.N,GND*%
X156000000Y-160000000D03*
X155680000Y-163650000D03*
X154730000Y-167180000D03*
X153190000Y-170500000D03*
X151090000Y-173500000D03*
X148500000Y-176090000D03*
X145500000Y-178190000D03*
X142180000Y-179730000D03*
X138650000Y-180680000D03*
X135000000Y-181000000D03*
X131350000Y-180680000D03*
X127820000Y-179730000D03*
X124500000Y-178190000D03*
X121500000Y-176090000D03*
X118910000Y-173500000D03*
X116810000Y-170500000D03*
X115270000Y-167180000D03*
X114320000Y-163650000D03*
X114000000Y-160000000D03*
X114320000Y-156350000D03*
X115270000Y-152820000D03*
X116810000Y-149500000D03*
X118910000Y-146500000D03*
X121500000Y-143910000D03*
X124500000Y-141810000D03*
X127820000Y-140270000D03*
X131350000Y-139320000D03*
X135000000Y-139000000D03*
X138650000Y-139320000D03*
X142180000Y-140270000D03*
X145500000Y-141810000D03*
X148500000Y-143910000D03*
X151090000Y-146500000D03*
X153190000Y-149500000D03*
X154730000Y-152820000D03*
X155680000Y-156350000D03*
X152000000Y-160000000D03*
X150970000Y-165810000D03*
X148020000Y-170930000D03*
X143500000Y-174720000D03*
X137950000Y-176740000D03*
X132050000Y-176740000D03*
X126500000Y-174720000D03*
X121980000Y-170930000D03*
X119030000Y-165810000D03*
X118000000Y-160000000D03*
X119030000Y-154190000D03*
X121980000Y-149070000D03*
X126500000Y-145280000D03*
X132050000Y-143260000D03*
X137950000Y-143260000D03*
X143500000Y-145280000D03*
X148020000Y-149070000D03*
X150970000Y-154190000D03*
X306000000Y-160000000D03*
X305680000Y-163650000D03*
X304730000Y-167180000D03*
X303190000Y-170500000D03*
X301090000Y-173500000D03*
X298500000Y-176090000D03*
X295500000Y-178190000D03*
X292180000Y-179730000D03*
X288650000Y-180680000D03*
X285000000Y-181000000D03*
X281350000Y-180680000D03*
X277820000Y-179730000D03*
X274500000Y-178190000D03*
X271500000Y-176090000D03*
X268910000Y-173500000D03*
X266810000Y-170500000D03*
X265270000Y-167180000D03*
X264320000Y-163650000D03*
X264000000Y-160000000D03*
X264320000Y-156350000D03*
X265270000Y-152820000D03*
X266810000Y-149500000D03*
X268910000Y-146500000D03*
X271500000Y-143910000D03*
X274500000Y-141810000D03*
X277820000Y-140270000D03*
X281350000Y-139320000D03*
X285000000Y-139000000D03*
X288650000Y-139320000D03*
X292180000Y-140270000D03*
X295500000Y-141810000D03*
X298500000Y-143910000D03*
X301090000Y-146500000D03*
X303190000Y-149500000D03*
X304730000Y-152820000D03*
X305680000Y-156350000D03*
X302000000Y-160000000D03*
X300970000Y-165810000D03*
X298020000Y-170930000D03*
X293500000Y-174720000D03*
X287950000Y-176740000D03*
X282050000Y-176740000D03*
X276500000Y-174720000D03*
X271980000Y-170930000D03*
X269030000Y-165810000D03*
X268000000Y-160000000D03*
X269030000Y-154190000D03*
X271980000Y-149070000D03*
X276500000Y-145280000D03*
X282050000Y-143260000D03*
X287950000Y-143260000D03*
X293500000Y-145280000D03*
X298020000Y-149070000D03*
X300970000Y-154190000D03*
D18*
X77500000Y-192500000D03*
X78500000Y-192500000D03*
X79500000Y-192500000D03*
X80500000Y-192500000D03*
X81500000Y-192500000D03*
X82500000Y-192500000D03*
X77500000Y-193500000D03*
X78500000Y-193500000D03*
X79500000Y-193500000D03*
X80500000Y-193500000D03*
X81500000Y-193500000D03*
X82500000Y-193500000D03*
X77500000Y-194500000D03*
X78500000Y-194500000D03*
X79500000Y-194500000D03*
X80500000Y-194500000D03*
X81500000Y-194500000D03*
X82500000Y-194500000D03*
X77500000Y-195500000D03*
X78500000Y-195500000D03*
X79500000Y-195500000D03*
X80500000Y-195500000D03*
X81500000Y-195500000D03*
X82500000Y-195500000D03*
X77500000Y-196500000D03*
X78500000Y-196500000D03*
X79500000Y-196500000D03*
X80500000Y-196500000D03*
X81500000Y-196500000D03*
X82500000Y-196500000D03*
X77500000Y-197500000D03*
X78500000Y-197500000D03*
X79500000Y-197500000D03*
X80500000Y-197500000D03*
X81500000Y-197500000D03*
X82500000Y-197500000D03*
X87500000Y-192500000D03*
X88500000Y-192500000D03*
X89500000Y-192500000D03*
X90500000Y-192500000D03*
X91500000Y-192500000D03*
X92500000Y-192500000D03*
X87500000Y-193500000D03*
X88500000Y-193500000D03*
X89500000Y-193500000D03*
X90500000Y-193500000D03*
X91500000Y-193500000D03*
X92500000Y-193500000D03*
X87500000Y-194500000D03*
X88500000Y-194500000D03*
X89500000Y-194500000D03*
X90500000Y-194500000D03*
X91500000Y-194500000D03*
X92500000Y-194500000D03*
X87500000Y-195500000D03*
X88500000Y-195500000D03*
X89500000Y-195500000D03*
X90500000Y-195500000D03*
X91500000Y-195500000D03*
X92500000Y-195500000D03*
X87500000Y-196500000D03*
X88500000Y-196500000D03*
X89500000Y-196500000D03*
X90500000Y-196500000D03*
X91500000Y-196500000D03*
X92500000Y-196500000D03*
X87500000Y-197500000D03*
X88500000Y-197500000D03*
X89500000Y-197500000D03*
X90500000Y-197500000D03*
X91500000Y-197500000D03*
X92500000Y-197500000D03*
X97500000Y-192500000D03*
X98500000Y-192500000D03*
X99500000Y-192500000D03*
X100500000Y-192500000D03*
X101500000Y-192500000D03*
X102500000Y-192500000D03*
X97500000Y-193500000D03*
X98500000Y-193500000D03*
X99500000Y-193500000D03*
X100500000Y-193500000D03*
X101500000Y-193500000D03*
X102500000Y-193500000D03*
X97500000Y-194500000D03*
X98500000Y-194500000D03*
X99500000Y-194500000D03*
X100500000Y-194500000D03*
X101500000Y-194500000D03*
X102500000Y-194500000D03*
X97500000Y-195500000D03*
X98500000Y-195500000D03*
X99500000Y-195500000D03*
X100500000Y-195500000D03*
X101500000Y-195500000D03*
X102500000Y-195500000D03*
X97500000Y-196500000D03*
X98500000Y-196500000D03*
X99500000Y-196500000D03*
X100500000Y-196500000D03*
X101500000Y-196500000D03*
X102500000Y-196500000D03*
X97500000Y-197500000D03*
X98500000Y-197500000D03*
X99500000Y-197500000D03*
X100500000Y-197500000D03*
X101500000Y-197500000D03*
X102500000Y-197500000D03*
%TO.N,V_CORE_U0*%
X107500000Y-192500000D03*
X108500000Y-192500000D03*
X109500000Y-192500000D03*
X110500000Y-192500000D03*
X111500000Y-192500000D03*
X112500000Y-192500000D03*
X107500000Y-193500000D03*
X108500000Y-193500000D03*
X109500000Y-193500000D03*
X110500000Y-193500000D03*
X111500000Y-193500000D03*
X112500000Y-193500000D03*
X107500000Y-194500000D03*
X108500000Y-194500000D03*
X109500000Y-194500000D03*
X110500000Y-194500000D03*
X111500000Y-194500000D03*
X112500000Y-194500000D03*
X107500000Y-195500000D03*
X108500000Y-195500000D03*
X109500000Y-195500000D03*
X110500000Y-195500000D03*
X111500000Y-195500000D03*
X112500000Y-195500000D03*
X107500000Y-196500000D03*
X108500000Y-196500000D03*
X109500000Y-196500000D03*
X110500000Y-196500000D03*
X111500000Y-196500000D03*
X112500000Y-196500000D03*
X107500000Y-197500000D03*
X108500000Y-197500000D03*
X109500000Y-197500000D03*
X110500000Y-197500000D03*
X111500000Y-197500000D03*
X112500000Y-197500000D03*
%TO.N,GND*%
X117500000Y-192500000D03*
X118500000Y-192500000D03*
X119500000Y-192500000D03*
X120500000Y-192500000D03*
X121500000Y-192500000D03*
X122500000Y-192500000D03*
X117500000Y-193500000D03*
X118500000Y-193500000D03*
X119500000Y-193500000D03*
X120500000Y-193500000D03*
X121500000Y-193500000D03*
X122500000Y-193500000D03*
X117500000Y-194500000D03*
X118500000Y-194500000D03*
X119500000Y-194500000D03*
X120500000Y-194500000D03*
X121500000Y-194500000D03*
X122500000Y-194500000D03*
X117500000Y-195500000D03*
X118500000Y-195500000D03*
X119500000Y-195500000D03*
X120500000Y-195500000D03*
X121500000Y-195500000D03*
X122500000Y-195500000D03*
X117500000Y-196500000D03*
X118500000Y-196500000D03*
X119500000Y-196500000D03*
X120500000Y-196500000D03*
X121500000Y-196500000D03*
X122500000Y-196500000D03*
X117500000Y-197500000D03*
X118500000Y-197500000D03*
X119500000Y-197500000D03*
X120500000Y-197500000D03*
X121500000Y-197500000D03*
X122500000Y-197500000D03*
X127500000Y-192500000D03*
X128500000Y-192500000D03*
X129500000Y-192500000D03*
X130500000Y-192500000D03*
X131500000Y-192500000D03*
X132500000Y-192500000D03*
X127500000Y-193500000D03*
X128500000Y-193500000D03*
X129500000Y-193500000D03*
X130500000Y-193500000D03*
X131500000Y-193500000D03*
X132500000Y-193500000D03*
X127500000Y-194500000D03*
X128500000Y-194500000D03*
X129500000Y-194500000D03*
X130500000Y-194500000D03*
X131500000Y-194500000D03*
X132500000Y-194500000D03*
X127500000Y-195500000D03*
X128500000Y-195500000D03*
X129500000Y-195500000D03*
X130500000Y-195500000D03*
X131500000Y-195500000D03*
X132500000Y-195500000D03*
X127500000Y-196500000D03*
X128500000Y-196500000D03*
X129500000Y-196500000D03*
X130500000Y-196500000D03*
X131500000Y-196500000D03*
X132500000Y-196500000D03*
X127500000Y-197500000D03*
X128500000Y-197500000D03*
X129500000Y-197500000D03*
X130500000Y-197500000D03*
X131500000Y-197500000D03*
X132500000Y-197500000D03*
X137500000Y-192500000D03*
X138500000Y-192500000D03*
X139500000Y-192500000D03*
X140500000Y-192500000D03*
X141500000Y-192500000D03*
X142500000Y-192500000D03*
X137500000Y-193500000D03*
X138500000Y-193500000D03*
X139500000Y-193500000D03*
X140500000Y-193500000D03*
X141500000Y-193500000D03*
X142500000Y-193500000D03*
X137500000Y-194500000D03*
X138500000Y-194500000D03*
X139500000Y-194500000D03*
X140500000Y-194500000D03*
X141500000Y-194500000D03*
X142500000Y-194500000D03*
X137500000Y-195500000D03*
X138500000Y-195500000D03*
X139500000Y-195500000D03*
X140500000Y-195500000D03*
X141500000Y-195500000D03*
X142500000Y-195500000D03*
X137500000Y-196500000D03*
X138500000Y-196500000D03*
X139500000Y-196500000D03*
X140500000Y-196500000D03*
X141500000Y-196500000D03*
X142500000Y-196500000D03*
X137500000Y-197500000D03*
X138500000Y-197500000D03*
X139500000Y-197500000D03*
X140500000Y-197500000D03*
X141500000Y-197500000D03*
X142500000Y-197500000D03*
X147500000Y-192500000D03*
X148500000Y-192500000D03*
X149500000Y-192500000D03*
X150500000Y-192500000D03*
X151500000Y-192500000D03*
X152500000Y-192500000D03*
X147500000Y-193500000D03*
X148500000Y-193500000D03*
X149500000Y-193500000D03*
X150500000Y-193500000D03*
X151500000Y-193500000D03*
X152500000Y-193500000D03*
X147500000Y-194500000D03*
X148500000Y-194500000D03*
X149500000Y-194500000D03*
X150500000Y-194500000D03*
X151500000Y-194500000D03*
X152500000Y-194500000D03*
X147500000Y-195500000D03*
X148500000Y-195500000D03*
X149500000Y-195500000D03*
X150500000Y-195500000D03*
X151500000Y-195500000D03*
X152500000Y-195500000D03*
X147500000Y-196500000D03*
X148500000Y-196500000D03*
X149500000Y-196500000D03*
X150500000Y-196500000D03*
X151500000Y-196500000D03*
X152500000Y-196500000D03*
X147500000Y-197500000D03*
X148500000Y-197500000D03*
X149500000Y-197500000D03*
X150500000Y-197500000D03*
X151500000Y-197500000D03*
X152500000Y-197500000D03*
X157500000Y-192500000D03*
X158500000Y-192500000D03*
X159500000Y-192500000D03*
X160500000Y-192500000D03*
X161500000Y-192500000D03*
X162500000Y-192500000D03*
X157500000Y-193500000D03*
X158500000Y-193500000D03*
X159500000Y-193500000D03*
X160500000Y-193500000D03*
X161500000Y-193500000D03*
X162500000Y-193500000D03*
X157500000Y-194500000D03*
X158500000Y-194500000D03*
X159500000Y-194500000D03*
X160500000Y-194500000D03*
X161500000Y-194500000D03*
X162500000Y-194500000D03*
X157500000Y-195500000D03*
X158500000Y-195500000D03*
X159500000Y-195500000D03*
X160500000Y-195500000D03*
X161500000Y-195500000D03*
X162500000Y-195500000D03*
X157500000Y-196500000D03*
X158500000Y-196500000D03*
X159500000Y-196500000D03*
X160500000Y-196500000D03*
X161500000Y-196500000D03*
X162500000Y-196500000D03*
X157500000Y-197500000D03*
X158500000Y-197500000D03*
X159500000Y-197500000D03*
X160500000Y-197500000D03*
X161500000Y-197500000D03*
X162500000Y-197500000D03*
X167500000Y-192500000D03*
X168500000Y-192500000D03*
X169500000Y-192500000D03*
X170500000Y-192500000D03*
X171500000Y-192500000D03*
X172500000Y-192500000D03*
X167500000Y-193500000D03*
X168500000Y-193500000D03*
X169500000Y-193500000D03*
X170500000Y-193500000D03*
X171500000Y-193500000D03*
X172500000Y-193500000D03*
X167500000Y-194500000D03*
X168500000Y-194500000D03*
X169500000Y-194500000D03*
X170500000Y-194500000D03*
X171500000Y-194500000D03*
X172500000Y-194500000D03*
X167500000Y-195500000D03*
X168500000Y-195500000D03*
X169500000Y-195500000D03*
X170500000Y-195500000D03*
X171500000Y-195500000D03*
X172500000Y-195500000D03*
X167500000Y-196500000D03*
X168500000Y-196500000D03*
X169500000Y-196500000D03*
X170500000Y-196500000D03*
X171500000Y-196500000D03*
X172500000Y-196500000D03*
X167500000Y-197500000D03*
X168500000Y-197500000D03*
X169500000Y-197500000D03*
X170500000Y-197500000D03*
X171500000Y-197500000D03*
X172500000Y-197500000D03*
X177500000Y-192500000D03*
X178500000Y-192500000D03*
X179500000Y-192500000D03*
X180500000Y-192500000D03*
X181500000Y-192500000D03*
X182500000Y-192500000D03*
X177500000Y-193500000D03*
X178500000Y-193500000D03*
X179500000Y-193500000D03*
X180500000Y-193500000D03*
X181500000Y-193500000D03*
X182500000Y-193500000D03*
X177500000Y-194500000D03*
X178500000Y-194500000D03*
X179500000Y-194500000D03*
X180500000Y-194500000D03*
X181500000Y-194500000D03*
X182500000Y-194500000D03*
X177500000Y-195500000D03*
X178500000Y-195500000D03*
X179500000Y-195500000D03*
X180500000Y-195500000D03*
X181500000Y-195500000D03*
X182500000Y-195500000D03*
X177500000Y-196500000D03*
X178500000Y-196500000D03*
X179500000Y-196500000D03*
X180500000Y-196500000D03*
X181500000Y-196500000D03*
X182500000Y-196500000D03*
X177500000Y-197500000D03*
X178500000Y-197500000D03*
X179500000Y-197500000D03*
X180500000Y-197500000D03*
X181500000Y-197500000D03*
X182500000Y-197500000D03*
X187500000Y-192500000D03*
X188500000Y-192500000D03*
X189500000Y-192500000D03*
X190500000Y-192500000D03*
X191500000Y-192500000D03*
X192500000Y-192500000D03*
X187500000Y-193500000D03*
X188500000Y-193500000D03*
X189500000Y-193500000D03*
X190500000Y-193500000D03*
X191500000Y-193500000D03*
X192500000Y-193500000D03*
X187500000Y-194500000D03*
X188500000Y-194500000D03*
X189500000Y-194500000D03*
X190500000Y-194500000D03*
X191500000Y-194500000D03*
X192500000Y-194500000D03*
X187500000Y-195500000D03*
X188500000Y-195500000D03*
X189500000Y-195500000D03*
X190500000Y-195500000D03*
X191500000Y-195500000D03*
X192500000Y-195500000D03*
X187500000Y-196500000D03*
X188500000Y-196500000D03*
X189500000Y-196500000D03*
X190500000Y-196500000D03*
X191500000Y-196500000D03*
X192500000Y-196500000D03*
X187500000Y-197500000D03*
X188500000Y-197500000D03*
X189500000Y-197500000D03*
X190500000Y-197500000D03*
X191500000Y-197500000D03*
X192500000Y-197500000D03*
%TO.N,V_CORE_U1*%
X227500000Y-192500000D03*
X228500000Y-192500000D03*
X229500000Y-192500000D03*
X230500000Y-192500000D03*
X231500000Y-192500000D03*
X232500000Y-192500000D03*
X227500000Y-193500000D03*
X228500000Y-193500000D03*
X229500000Y-193500000D03*
X230500000Y-193500000D03*
X231500000Y-193500000D03*
X232500000Y-193500000D03*
X227500000Y-194500000D03*
X228500000Y-194500000D03*
X229500000Y-194500000D03*
X230500000Y-194500000D03*
X231500000Y-194500000D03*
X232500000Y-194500000D03*
X227500000Y-195500000D03*
X228500000Y-195500000D03*
X229500000Y-195500000D03*
X230500000Y-195500000D03*
X231500000Y-195500000D03*
X232500000Y-195500000D03*
X227500000Y-196500000D03*
X228500000Y-196500000D03*
X229500000Y-196500000D03*
X230500000Y-196500000D03*
X231500000Y-196500000D03*
X232500000Y-196500000D03*
X227500000Y-197500000D03*
X228500000Y-197500000D03*
X229500000Y-197500000D03*
X230500000Y-197500000D03*
X231500000Y-197500000D03*
X232500000Y-197500000D03*
X237500000Y-192500000D03*
X238500000Y-192500000D03*
X239500000Y-192500000D03*
X240500000Y-192500000D03*
X241500000Y-192500000D03*
X242500000Y-192500000D03*
X237500000Y-193500000D03*
X238500000Y-193500000D03*
X239500000Y-193500000D03*
X240500000Y-193500000D03*
X241500000Y-193500000D03*
X242500000Y-193500000D03*
X237500000Y-194500000D03*
X238500000Y-194500000D03*
X239500000Y-194500000D03*
X240500000Y-194500000D03*
X241500000Y-194500000D03*
X242500000Y-194500000D03*
X237500000Y-195500000D03*
X238500000Y-195500000D03*
X239500000Y-195500000D03*
X240500000Y-195500000D03*
X241500000Y-195500000D03*
X242500000Y-195500000D03*
X237500000Y-196500000D03*
X238500000Y-196500000D03*
X239500000Y-196500000D03*
X240500000Y-196500000D03*
X241500000Y-196500000D03*
X242500000Y-196500000D03*
X237500000Y-197500000D03*
X238500000Y-197500000D03*
X239500000Y-197500000D03*
X240500000Y-197500000D03*
X241500000Y-197500000D03*
X242500000Y-197500000D03*
X247500000Y-192500000D03*
X248500000Y-192500000D03*
X249500000Y-192500000D03*
X250500000Y-192500000D03*
X251500000Y-192500000D03*
X252500000Y-192500000D03*
X247500000Y-193500000D03*
X248500000Y-193500000D03*
X249500000Y-193500000D03*
X250500000Y-193500000D03*
X251500000Y-193500000D03*
X252500000Y-193500000D03*
X247500000Y-194500000D03*
X248500000Y-194500000D03*
X249500000Y-194500000D03*
X250500000Y-194500000D03*
X251500000Y-194500000D03*
X252500000Y-194500000D03*
X247500000Y-195500000D03*
X248500000Y-195500000D03*
X249500000Y-195500000D03*
X250500000Y-195500000D03*
X251500000Y-195500000D03*
X252500000Y-195500000D03*
X247500000Y-196500000D03*
X248500000Y-196500000D03*
X249500000Y-196500000D03*
X250500000Y-196500000D03*
X251500000Y-196500000D03*
X252500000Y-196500000D03*
X247500000Y-197500000D03*
X248500000Y-197500000D03*
X249500000Y-197500000D03*
X250500000Y-197500000D03*
X251500000Y-197500000D03*
X252500000Y-197500000D03*
%TO.N,GND*%
X257500000Y-192500000D03*
X258500000Y-192500000D03*
X259500000Y-192500000D03*
X260500000Y-192500000D03*
X261500000Y-192500000D03*
X262500000Y-192500000D03*
X257500000Y-193500000D03*
X258500000Y-193500000D03*
X259500000Y-193500000D03*
X260500000Y-193500000D03*
X261500000Y-193500000D03*
X262500000Y-193500000D03*
X257500000Y-194500000D03*
X258500000Y-194500000D03*
X259500000Y-194500000D03*
X260500000Y-194500000D03*
X261500000Y-194500000D03*
X262500000Y-194500000D03*
X257500000Y-195500000D03*
X258500000Y-195500000D03*
X259500000Y-195500000D03*
X260500000Y-195500000D03*
X261500000Y-195500000D03*
X262500000Y-195500000D03*
X257500000Y-196500000D03*
X258500000Y-196500000D03*
X259500000Y-196500000D03*
X260500000Y-196500000D03*
X261500000Y-196500000D03*
X262500000Y-196500000D03*
X257500000Y-197500000D03*
X258500000Y-197500000D03*
X259500000Y-197500000D03*
X260500000Y-197500000D03*
X261500000Y-197500000D03*
X262500000Y-197500000D03*
X267500000Y-192500000D03*
X268500000Y-192500000D03*
X269500000Y-192500000D03*
X270500000Y-192500000D03*
X271500000Y-192500000D03*
X272500000Y-192500000D03*
X267500000Y-193500000D03*
X268500000Y-193500000D03*
X269500000Y-193500000D03*
X270500000Y-193500000D03*
X271500000Y-193500000D03*
X272500000Y-193500000D03*
X267500000Y-194500000D03*
X268500000Y-194500000D03*
X269500000Y-194500000D03*
X270500000Y-194500000D03*
X271500000Y-194500000D03*
X272500000Y-194500000D03*
X267500000Y-195500000D03*
X268500000Y-195500000D03*
X269500000Y-195500000D03*
X270500000Y-195500000D03*
X271500000Y-195500000D03*
X272500000Y-195500000D03*
X267500000Y-196500000D03*
X268500000Y-196500000D03*
X269500000Y-196500000D03*
X270500000Y-196500000D03*
X271500000Y-196500000D03*
X272500000Y-196500000D03*
X267500000Y-197500000D03*
X268500000Y-197500000D03*
X269500000Y-197500000D03*
X270500000Y-197500000D03*
X271500000Y-197500000D03*
X272500000Y-197500000D03*
X277500000Y-192500000D03*
X278500000Y-192500000D03*
X279500000Y-192500000D03*
X280500000Y-192500000D03*
X281500000Y-192500000D03*
X282500000Y-192500000D03*
X277500000Y-193500000D03*
X278500000Y-193500000D03*
X279500000Y-193500000D03*
X280500000Y-193500000D03*
X281500000Y-193500000D03*
X282500000Y-193500000D03*
X277500000Y-194500000D03*
X278500000Y-194500000D03*
X279500000Y-194500000D03*
X280500000Y-194500000D03*
X281500000Y-194500000D03*
X282500000Y-194500000D03*
X277500000Y-195500000D03*
X278500000Y-195500000D03*
X279500000Y-195500000D03*
X280500000Y-195500000D03*
X281500000Y-195500000D03*
X282500000Y-195500000D03*
X277500000Y-196500000D03*
X278500000Y-196500000D03*
X279500000Y-196500000D03*
X280500000Y-196500000D03*
X281500000Y-196500000D03*
X282500000Y-196500000D03*
X277500000Y-197500000D03*
X278500000Y-197500000D03*
X279500000Y-197500000D03*
X280500000Y-197500000D03*
X281500000Y-197500000D03*
X282500000Y-197500000D03*
X287500000Y-192500000D03*
X288500000Y-192500000D03*
X289500000Y-192500000D03*
X290500000Y-192500000D03*
X291500000Y-192500000D03*
X292500000Y-192500000D03*
X287500000Y-193500000D03*
X288500000Y-193500000D03*
X289500000Y-193500000D03*
X290500000Y-193500000D03*
X291500000Y-193500000D03*
X292500000Y-193500000D03*
X287500000Y-194500000D03*
X288500000Y-194500000D03*
X289500000Y-194500000D03*
X290500000Y-194500000D03*
X291500000Y-194500000D03*
X292500000Y-194500000D03*
X287500000Y-195500000D03*
X288500000Y-195500000D03*
X289500000Y-195500000D03*
X290500000Y-195500000D03*
X291500000Y-195500000D03*
X292500000Y-195500000D03*
X287500000Y-196500000D03*
X288500000Y-196500000D03*
X289500000Y-196500000D03*
X290500000Y-196500000D03*
X291500000Y-196500000D03*
X292500000Y-196500000D03*
X287500000Y-197500000D03*
X288500000Y-197500000D03*
X289500000Y-197500000D03*
X290500000Y-197500000D03*
X291500000Y-197500000D03*
X292500000Y-197500000D03*
X297500000Y-192500000D03*
X298500000Y-192500000D03*
X299500000Y-192500000D03*
X300500000Y-192500000D03*
X301500000Y-192500000D03*
X302500000Y-192500000D03*
X297500000Y-193500000D03*
X298500000Y-193500000D03*
X299500000Y-193500000D03*
X300500000Y-193500000D03*
X301500000Y-193500000D03*
X302500000Y-193500000D03*
X297500000Y-194500000D03*
X298500000Y-194500000D03*
X299500000Y-194500000D03*
X300500000Y-194500000D03*
X301500000Y-194500000D03*
X302500000Y-194500000D03*
X297500000Y-195500000D03*
X298500000Y-195500000D03*
X299500000Y-195500000D03*
X300500000Y-195500000D03*
X301500000Y-195500000D03*
X302500000Y-195500000D03*
X297500000Y-196500000D03*
X298500000Y-196500000D03*
X299500000Y-196500000D03*
X300500000Y-196500000D03*
X301500000Y-196500000D03*
X302500000Y-196500000D03*
X297500000Y-197500000D03*
X298500000Y-197500000D03*
X299500000Y-197500000D03*
X300500000Y-197500000D03*
X301500000Y-197500000D03*
X302500000Y-197500000D03*
%TO.N,V_CORE_U1*%
X307500000Y-192500000D03*
X308500000Y-192500000D03*
X309500000Y-192500000D03*
X310500000Y-192500000D03*
X311500000Y-192500000D03*
X312500000Y-192500000D03*
X307500000Y-193500000D03*
X308500000Y-193500000D03*
X309500000Y-193500000D03*
X310500000Y-193500000D03*
X311500000Y-193500000D03*
X312500000Y-193500000D03*
X307500000Y-194500000D03*
X308500000Y-194500000D03*
X309500000Y-194500000D03*
X310500000Y-194500000D03*
X311500000Y-194500000D03*
X312500000Y-194500000D03*
X307500000Y-195500000D03*
X308500000Y-195500000D03*
X309500000Y-195500000D03*
X310500000Y-195500000D03*
X311500000Y-195500000D03*
X312500000Y-195500000D03*
X307500000Y-196500000D03*
X308500000Y-196500000D03*
X309500000Y-196500000D03*
X310500000Y-196500000D03*
X311500000Y-196500000D03*
X312500000Y-196500000D03*
X307500000Y-197500000D03*
X308500000Y-197500000D03*
X309500000Y-197500000D03*
X310500000Y-197500000D03*
X311500000Y-197500000D03*
X312500000Y-197500000D03*
%TO.N,GND*%
X317500000Y-192500000D03*
X318500000Y-192500000D03*
X319500000Y-192500000D03*
X320500000Y-192500000D03*
X321500000Y-192500000D03*
X322500000Y-192500000D03*
X317500000Y-193500000D03*
X318500000Y-193500000D03*
X319500000Y-193500000D03*
X320500000Y-193500000D03*
X321500000Y-193500000D03*
X322500000Y-193500000D03*
X317500000Y-194500000D03*
X318500000Y-194500000D03*
X319500000Y-194500000D03*
X320500000Y-194500000D03*
X321500000Y-194500000D03*
X322500000Y-194500000D03*
X317500000Y-195500000D03*
X318500000Y-195500000D03*
X319500000Y-195500000D03*
X320500000Y-195500000D03*
X321500000Y-195500000D03*
X322500000Y-195500000D03*
X317500000Y-196500000D03*
X318500000Y-196500000D03*
X319500000Y-196500000D03*
X320500000Y-196500000D03*
X321500000Y-196500000D03*
X322500000Y-196500000D03*
X317500000Y-197500000D03*
X318500000Y-197500000D03*
X319500000Y-197500000D03*
X320500000Y-197500000D03*
X321500000Y-197500000D03*
X322500000Y-197500000D03*
X327500000Y-192500000D03*
X328500000Y-192500000D03*
X329500000Y-192500000D03*
X330500000Y-192500000D03*
X331500000Y-192500000D03*
X332500000Y-192500000D03*
X327500000Y-193500000D03*
X328500000Y-193500000D03*
X329500000Y-193500000D03*
X330500000Y-193500000D03*
X331500000Y-193500000D03*
X332500000Y-193500000D03*
X327500000Y-194500000D03*
X328500000Y-194500000D03*
X329500000Y-194500000D03*
X330500000Y-194500000D03*
X331500000Y-194500000D03*
X332500000Y-194500000D03*
X327500000Y-195500000D03*
X328500000Y-195500000D03*
X329500000Y-195500000D03*
X330500000Y-195500000D03*
X331500000Y-195500000D03*
X332500000Y-195500000D03*
X327500000Y-196500000D03*
X328500000Y-196500000D03*
X329500000Y-196500000D03*
X330500000Y-196500000D03*
X331500000Y-196500000D03*
X332500000Y-196500000D03*
X327500000Y-197500000D03*
X328500000Y-197500000D03*
X329500000Y-197500000D03*
X330500000Y-197500000D03*
X331500000Y-197500000D03*
X332500000Y-197500000D03*
X337500000Y-192500000D03*
X338500000Y-192500000D03*
X339500000Y-192500000D03*
X340500000Y-192500000D03*
X341500000Y-192500000D03*
X342500000Y-192500000D03*
X337500000Y-193500000D03*
X338500000Y-193500000D03*
X339500000Y-193500000D03*
X340500000Y-193500000D03*
X341500000Y-193500000D03*
X342500000Y-193500000D03*
X337500000Y-194500000D03*
X338500000Y-194500000D03*
X339500000Y-194500000D03*
X340500000Y-194500000D03*
X341500000Y-194500000D03*
X342500000Y-194500000D03*
X337500000Y-195500000D03*
X338500000Y-195500000D03*
X339500000Y-195500000D03*
X340500000Y-195500000D03*
X341500000Y-195500000D03*
X342500000Y-195500000D03*
X337500000Y-196500000D03*
X338500000Y-196500000D03*
X339500000Y-196500000D03*
X340500000Y-196500000D03*
X341500000Y-196500000D03*
X342500000Y-196500000D03*
X337500000Y-197500000D03*
X338500000Y-197500000D03*
X339500000Y-197500000D03*
X340500000Y-197500000D03*
X341500000Y-197500000D03*
X342500000Y-197500000D03*
D19*
%TO.N,*%
X150000000Y-180000000D03*
X150300000Y-180000000D03*
X150000000Y-180000000D03*
X150300000Y-180000000D03*
X152500000Y-180000000D03*
X152800000Y-180000000D03*
X152500000Y-180000000D03*
X152800000Y-180000000D03*
X155000000Y-180000000D03*
X155300000Y-180000000D03*
X155000000Y-180000000D03*
X155300000Y-180000000D03*
X157500000Y-180000000D03*
X157800000Y-180000000D03*
X157500000Y-180000000D03*
X157800000Y-180000000D03*
X160000000Y-180000000D03*
X160300000Y-180000000D03*
X160000000Y-180000000D03*
X160300000Y-180000000D03*
X162500000Y-180000000D03*
X162800000Y-180000000D03*
X162500000Y-180000000D03*
X162800000Y-180000000D03*
X165000000Y-180000000D03*
X165300000Y-180000000D03*
X165000000Y-180000000D03*
X165300000Y-180000000D03*
X167500000Y-180000000D03*
X167800000Y-180000000D03*
X167500000Y-180000000D03*
X167800000Y-180000000D03*
X170000000Y-180000000D03*
X170300000Y-180000000D03*
X170000000Y-180000000D03*
X170300000Y-180000000D03*
X172500000Y-180000000D03*
X172800000Y-180000000D03*
X172500000Y-180000000D03*
X172800000Y-180000000D03*
X175000000Y-180000000D03*
X175300000Y-180000000D03*
X175000000Y-180000000D03*
X175300000Y-180000000D03*
X177500000Y-180000000D03*
X177800000Y-180000000D03*
X177500000Y-180000000D03*
X177800000Y-180000000D03*
X180000000Y-180000000D03*
X180300000Y-180000000D03*
X180000000Y-180000000D03*
X180300000Y-180000000D03*
X182500000Y-180000000D03*
X182800000Y-180000000D03*
X182500000Y-180000000D03*
X182800000Y-180000000D03*
X185000000Y-180000000D03*
X185300000Y-180000000D03*
X185000000Y-180000000D03*
X185300000Y-180000000D03*
X187500000Y-180000000D03*
X187800000Y-180000000D03*
X187500000Y-180000000D03*
X187800000Y-180000000D03*
D20*
X155000000Y-153000000D03*
X155000000Y-153180000D03*
X155000000Y-155000000D03*
X155000000Y-155180000D03*
X155000000Y-157000000D03*
X155000000Y-157180000D03*
X155000000Y-159000000D03*
X155000000Y-159180000D03*
X155000000Y-161000000D03*
X155000000Y-161180000D03*
X155000000Y-163000000D03*
X155000000Y-163180000D03*
X155000000Y-165000000D03*
X155000000Y-165180000D03*
X155000000Y-167000000D03*
X155000000Y-167180000D03*
X155000000Y-153000000D03*
X155000000Y-153180000D03*
X155000000Y-155000000D03*
X155000000Y-155180000D03*
X155000000Y-157000000D03*
X155000000Y-157180000D03*
X155000000Y-159000000D03*
X155000000Y-159180000D03*
X155000000Y-161000000D03*
X155000000Y-161180000D03*
X155000000Y-163000000D03*
X155000000Y-163180000D03*
X155000000Y-165000000D03*
X155000000Y-165180000D03*
X155000000Y-167000000D03*
X155000000Y-167180000D03*
X265000000Y-153000000D03*
X265000000Y-153180000D03*
X265000000Y-155000000D03*
X265000000Y-155180000D03*
%TO.N,GND*%
X265000000Y-157000000D03*
X265000000Y-157180000D03*
%TO.N,*%
X265000000Y-159000000D03*
X265000000Y-159180000D03*
X265000000Y-161000000D03*
X265000000Y-161180000D03*
%TO.N,GND*%
X265000000Y-163000000D03*
X265000000Y-163180000D03*
%TO.N,*%
X265000000Y-165000000D03*
X265000000Y-165180000D03*
X265000000Y-167000000D03*
X265000000Y-167180000D03*
X265000000Y-153000000D03*
X265000000Y-153180000D03*
X265000000Y-155000000D03*
X265000000Y-155180000D03*
%TO.N,GND*%
X265000000Y-157000000D03*
X265000000Y-157180000D03*
%TO.N,*%
X265000000Y-159000000D03*
X265000000Y-159180000D03*
X265000000Y-161000000D03*
X265000000Y-161180000D03*
%TO.N,GND*%
X265000000Y-163000000D03*
X265000000Y-163180000D03*
%TO.N,*%
X265000000Y-165000000D03*
X265000000Y-165180000D03*
X265000000Y-167000000D03*
X265000000Y-167180000D03*
X105000000Y-150000000D03*
X135000000Y-150000000D03*
X105000000Y-151500000D03*
X135000000Y-151500000D03*
X135000000Y-153000000D03*
X165000000Y-153000000D03*
X135000000Y-154500000D03*
X165000000Y-154500000D03*
X255000000Y-150000000D03*
X285000000Y-150000000D03*
X255000000Y-151500000D03*
X285000000Y-151500000D03*
X285000000Y-153000000D03*
X315000000Y-153000000D03*
X285000000Y-154500000D03*
X315000000Y-154500000D03*
D19*
X194000000Y-151250000D03*
X114000000Y-151250000D03*
X194000000Y-153750000D03*
X114000000Y-153750000D03*
X194000000Y-156250000D03*
X114000000Y-156250000D03*
X194000000Y-158750000D03*
X114000000Y-158750000D03*
X194000000Y-161250000D03*
X114000000Y-161250000D03*
X194000000Y-163750000D03*
X114000000Y-163750000D03*
X194000000Y-166250000D03*
X114000000Y-166250000D03*
X194000000Y-168750000D03*
X114000000Y-168750000D03*
X226000000Y-151250000D03*
X306000000Y-151250000D03*
X226000000Y-153750000D03*
X306000000Y-153750000D03*
X226000000Y-156250000D03*
X306000000Y-156250000D03*
X226000000Y-158750000D03*
X306000000Y-158750000D03*
X226000000Y-161250000D03*
X306000000Y-161250000D03*
X226000000Y-163750000D03*
X306000000Y-163750000D03*
X226000000Y-166250000D03*
X306000000Y-166250000D03*
X226000000Y-168750000D03*
X306000000Y-168750000D03*
D20*
X128500000Y-153000000D03*
X129500000Y-153000000D03*
X130500000Y-153000000D03*
X131500000Y-153000000D03*
X132500000Y-153000000D03*
X133500000Y-153000000D03*
X134500000Y-153000000D03*
X135500000Y-153000000D03*
X136500000Y-153000000D03*
X137500000Y-153000000D03*
X138500000Y-153000000D03*
X139500000Y-153000000D03*
X140500000Y-153000000D03*
X141500000Y-153000000D03*
X128500000Y-167000000D03*
X129500000Y-167000000D03*
X130500000Y-167000000D03*
X131500000Y-167000000D03*
X132500000Y-167000000D03*
X133500000Y-167000000D03*
X134500000Y-167000000D03*
X135500000Y-167000000D03*
X136500000Y-167000000D03*
X137500000Y-167000000D03*
X138500000Y-167000000D03*
X139500000Y-167000000D03*
X140500000Y-167000000D03*
X141500000Y-167000000D03*
X128000000Y-153500000D03*
X128000000Y-154500000D03*
X128000000Y-155500000D03*
X128000000Y-156500000D03*
X128000000Y-157500000D03*
X128000000Y-158500000D03*
X128000000Y-159500000D03*
X128000000Y-160500000D03*
X128000000Y-161500000D03*
X128000000Y-162500000D03*
X128000000Y-163500000D03*
X128000000Y-164500000D03*
X128000000Y-165500000D03*
X128000000Y-166500000D03*
X142000000Y-153500000D03*
X142000000Y-154500000D03*
X142000000Y-155500000D03*
X142000000Y-156500000D03*
X142000000Y-157500000D03*
X142000000Y-158500000D03*
X142000000Y-159500000D03*
X142000000Y-160500000D03*
X142000000Y-161500000D03*
X142000000Y-162500000D03*
X142000000Y-163500000D03*
X142000000Y-164500000D03*
X142000000Y-165500000D03*
X142000000Y-166500000D03*
X130000000Y-155000000D03*
X140000000Y-155000000D03*
X130000000Y-165000000D03*
X140000000Y-165000000D03*
X131000000Y-156000000D03*
X139000000Y-156000000D03*
X131000000Y-164000000D03*
X139000000Y-164000000D03*
X132000000Y-157000000D03*
X138000000Y-157000000D03*
X132000000Y-163000000D03*
X138000000Y-163000000D03*
X278500000Y-153000000D03*
X279500000Y-153000000D03*
X280500000Y-153000000D03*
X281500000Y-153000000D03*
X282500000Y-153000000D03*
X283500000Y-153000000D03*
X284500000Y-153000000D03*
X285500000Y-153000000D03*
X286500000Y-153000000D03*
X287500000Y-153000000D03*
X288500000Y-153000000D03*
X289500000Y-153000000D03*
X290500000Y-153000000D03*
X291500000Y-153000000D03*
X278500000Y-167000000D03*
X279500000Y-167000000D03*
X280500000Y-167000000D03*
X281500000Y-167000000D03*
X282500000Y-167000000D03*
X283500000Y-167000000D03*
X284500000Y-167000000D03*
X285500000Y-167000000D03*
X286500000Y-167000000D03*
X287500000Y-167000000D03*
X288500000Y-167000000D03*
X289500000Y-167000000D03*
X290500000Y-167000000D03*
X291500000Y-167000000D03*
X278000000Y-153500000D03*
X278000000Y-154500000D03*
X278000000Y-155500000D03*
X278000000Y-156500000D03*
X278000000Y-157500000D03*
X278000000Y-158500000D03*
%TO.N,GND*%
X278000000Y-159500000D03*
%TO.N,*%
X278000000Y-160500000D03*
X278000000Y-161500000D03*
%TO.N,GND*%
X278000000Y-162500000D03*
%TO.N,*%
X278000000Y-163500000D03*
%TO.N,GND*%
X278000000Y-164500000D03*
%TO.N,*%
X278000000Y-165500000D03*
X278000000Y-166500000D03*
X292000000Y-153500000D03*
X292000000Y-154500000D03*
X292000000Y-155500000D03*
X292000000Y-156500000D03*
X292000000Y-157500000D03*
X292000000Y-158500000D03*
%TO.N,GND*%
X292000000Y-159500000D03*
%TO.N,*%
X292000000Y-160500000D03*
X292000000Y-161500000D03*
%TO.N,GND*%
X292000000Y-162500000D03*
%TO.N,*%
X292000000Y-163500000D03*
%TO.N,GND*%
X292000000Y-164500000D03*
%TO.N,*%
X292000000Y-165500000D03*
X292000000Y-166500000D03*
%TO.N,GND*%
X280000000Y-155000000D03*
X290000000Y-155000000D03*
%TO.N,*%
X280000000Y-165000000D03*
X290000000Y-165000000D03*
%TO.N,GND*%
X281000000Y-156000000D03*
X289000000Y-156000000D03*
%TO.N,*%
X281000000Y-164000000D03*
X289000000Y-164000000D03*
%TO.N,GND*%
X282000000Y-157000000D03*
X288000000Y-157000000D03*
%TO.N,*%
X282000000Y-163000000D03*
X288000000Y-163000000D03*
D19*
X190000000Y-341000000D03*
X192500000Y-341000000D03*
X195000000Y-341000000D03*
X197500000Y-341000000D03*
X200000000Y-341000000D03*
X202500000Y-341000000D03*
X205000000Y-341000000D03*
X207500000Y-341000000D03*
X210000000Y-341000000D03*
X212500000Y-341000000D03*
X215000000Y-341000000D03*
X217500000Y-341000000D03*
X220000000Y-341000000D03*
X222500000Y-341000000D03*
X225000000Y-341000000D03*
X227500000Y-341000000D03*
D21*
X155000000Y-160000000D03*
X156500000Y-160000000D03*
X158000000Y-160000000D03*
X159500000Y-160000000D03*
X161000000Y-160000000D03*
X162500000Y-160000000D03*
X164000000Y-160000000D03*
X165500000Y-160000000D03*
X167000000Y-160000000D03*
X168500000Y-160000000D03*
X170000000Y-160000000D03*
X171500000Y-160000000D03*
X173000000Y-160000000D03*
X174500000Y-160000000D03*
X176000000Y-160000000D03*
X177500000Y-160000000D03*
X265000000Y-160000000D03*
X263500000Y-160000000D03*
X262000000Y-160000000D03*
X260500000Y-160000000D03*
X259000000Y-160000000D03*
X257500000Y-160000000D03*
X256000000Y-160000000D03*
X254500000Y-160000000D03*
X253000000Y-160000000D03*
X251500000Y-160000000D03*
X250000000Y-160000000D03*
X248500000Y-160000000D03*
X247000000Y-160000000D03*
X245500000Y-160000000D03*
X244000000Y-160000000D03*
X242500000Y-160000000D03*
X150000000Y-200000000D03*
X151500000Y-200000000D03*
X153000000Y-200000000D03*
X154500000Y-200000000D03*
X156000000Y-200000000D03*
X157500000Y-200000000D03*
X159000000Y-200000000D03*
X160500000Y-200000000D03*
X162000000Y-200000000D03*
X163500000Y-200000000D03*
X165000000Y-200000000D03*
%TO.N,GND*%
X166500000Y-200000000D03*
%TO.N,*%
X168000000Y-200000000D03*
%TO.N,GND*%
X169500000Y-200000000D03*
%TO.N,*%
X171000000Y-200000000D03*
X172500000Y-200000000D03*
X174000000Y-200000000D03*
X175500000Y-200000000D03*
X177000000Y-200000000D03*
X178500000Y-200000000D03*
X180000000Y-200000000D03*
%TO.N,GND*%
X181500000Y-200000000D03*
%TO.N,*%
X183000000Y-200000000D03*
X184500000Y-200000000D03*
X186000000Y-200000000D03*
X187500000Y-200000000D03*
X189000000Y-200000000D03*
%TO.N,GND*%
X190500000Y-200000000D03*
%TO.N,*%
X192000000Y-200000000D03*
%TO.N,GND*%
X193500000Y-200000000D03*
%TO.N,*%
X195000000Y-200000000D03*
X196500000Y-200000000D03*
X194000000Y-160000000D03*
X194800000Y-160000000D03*
X195600000Y-160000000D03*
X196400000Y-160000000D03*
X197200000Y-160000000D03*
X198000000Y-160000000D03*
X198800000Y-160000000D03*
X199600000Y-160000000D03*
X200400000Y-160000000D03*
X201200000Y-160000000D03*
X202000000Y-160000000D03*
X202800000Y-160000000D03*
X203600000Y-160000000D03*
X204400000Y-160000000D03*
X205200000Y-160000000D03*
X206000000Y-160000000D03*
%TD*%
D22*
%TO.N,*%
X30000000Y-328000000D02*
X390000000Y-328000000D01*
D23*
X30000000Y-328550000D02*
X390000000Y-328550000D01*
D24*
X30000000Y-329100000D02*
X390000000Y-329100000D01*
D22*
X30000000Y-329650000D02*
X390000000Y-329650000D01*
D23*
X30000000Y-330200000D02*
X390000000Y-330200000D01*
D24*
X30000000Y-330750000D02*
X390000000Y-330750000D01*
D22*
X30000000Y-331300000D02*
X390000000Y-331300000D01*
D23*
X30000000Y-331850000D02*
X390000000Y-331850000D01*
D24*
X30000000Y-332400000D02*
X390000000Y-332400000D01*
D22*
X30000000Y-332950000D02*
X390000000Y-332950000D01*
D23*
X30000000Y-333500000D02*
X390000000Y-333500000D01*
D24*
X30000000Y-334050000D02*
X390000000Y-334050000D01*
D22*
X30000000Y-334600000D02*
X390000000Y-334600000D01*
D23*
X30000000Y-335150000D02*
X390000000Y-335150000D01*
D24*
X30000000Y-335700000D02*
X390000000Y-335700000D01*
D22*
X30000000Y-336250000D02*
X390000000Y-336250000D01*
D23*
X30000000Y-336800000D02*
X390000000Y-336800000D01*
D24*
X30000000Y-337350000D02*
X390000000Y-337350000D01*
D22*
X30000000Y-337900000D02*
X390000000Y-337900000D01*
D23*
X30000000Y-338450000D02*
X390000000Y-338450000D01*
D24*
X30000000Y-339000000D02*
X390000000Y-339000000D01*
D22*
X30000000Y-339550000D02*
X390000000Y-339550000D01*
D23*
X30000000Y-340100000D02*
X390000000Y-340100000D01*
D24*
X30000000Y-340650000D02*
X390000000Y-340650000D01*
D22*
X30000000Y-341200000D02*
X390000000Y-341200000D01*
D23*
%TO.N,GND*%
X30000000Y-341750000D02*
X390000000Y-341750000D01*
D24*
X30000000Y-342300000D02*
X390000000Y-342300000D01*
D22*
X30000000Y-342850000D02*
X390000000Y-342850000D01*
D23*
X30000000Y-343400000D02*
X390000000Y-343400000D01*
D24*
X30000000Y-343950000D02*
X390000000Y-343950000D01*
D22*
%TO.N,*%
X6000000Y-10000000D02*
X6000000Y-342000000D01*
D23*
X6700000Y-10000000D02*
X6700000Y-342000000D01*
D24*
X7400000Y-10000000D02*
X7400000Y-342000000D01*
D22*
X8100000Y-10000000D02*
X8100000Y-342000000D01*
D23*
X8800000Y-10000000D02*
X8800000Y-342000000D01*
D24*
X9500000Y-10000000D02*
X9500000Y-342000000D01*
D22*
X10200000Y-10000000D02*
X10200000Y-342000000D01*
D23*
X10900000Y-10000000D02*
X10900000Y-342000000D01*
D24*
X11600000Y-10000000D02*
X11600000Y-342000000D01*
D22*
X12300000Y-10000000D02*
X12300000Y-342000000D01*
D23*
X13000000Y-10000000D02*
X13000000Y-342000000D01*
D24*
X13700000Y-10000000D02*
X13700000Y-342000000D01*
D22*
X14400000Y-10000000D02*
X14400000Y-342000000D01*
D23*
X15100000Y-10000000D02*
X15100000Y-342000000D01*
D24*
X15800000Y-10000000D02*
X15800000Y-342000000D01*
D22*
X16500000Y-10000000D02*
X16500000Y-342000000D01*
D23*
X17200000Y-10000000D02*
X17200000Y-342000000D01*
D24*
X17900000Y-10000000D02*
X17900000Y-342000000D01*
D22*
X18600000Y-10000000D02*
X18600000Y-342000000D01*
D23*
X19300000Y-10000000D02*
X19300000Y-342000000D01*
D22*
X404000000Y-10000000D02*
X404000000Y-342000000D01*
D23*
X404700000Y-10000000D02*
X404700000Y-342000000D01*
D24*
X405400000Y-10000000D02*
X405400000Y-342000000D01*
D22*
X406100000Y-10000000D02*
X406100000Y-342000000D01*
D23*
X406800000Y-10000000D02*
X406800000Y-342000000D01*
D24*
X407500000Y-10000000D02*
X407500000Y-342000000D01*
D22*
X408200000Y-10000000D02*
X408200000Y-342000000D01*
D23*
X408900000Y-10000000D02*
X408900000Y-342000000D01*
D24*
X409600000Y-10000000D02*
X409600000Y-342000000D01*
D22*
X410300000Y-10000000D02*
X410300000Y-342000000D01*
D23*
X411000000Y-10000000D02*
X411000000Y-342000000D01*
D24*
X411700000Y-10000000D02*
X411700000Y-342000000D01*
D22*
X412400000Y-10000000D02*
X412400000Y-342000000D01*
D23*
X413100000Y-10000000D02*
X413100000Y-342000000D01*
D24*
X413800000Y-10000000D02*
X413800000Y-342000000D01*
D22*
X414500000Y-10000000D02*
X414500000Y-342000000D01*
D23*
X415200000Y-10000000D02*
X415200000Y-342000000D01*
D24*
X415900000Y-10000000D02*
X415900000Y-342000000D01*
D22*
X416600000Y-10000000D02*
X416600000Y-342000000D01*
D23*
X417300000Y-10000000D02*
X417300000Y-342000000D01*
D22*
X25000000Y-6000000D02*
X395000000Y-6000000D01*
X25000000Y-6600000D02*
X395000000Y-6600000D01*
X25000000Y-7200000D02*
X395000000Y-7200000D01*
X25000000Y-7800000D02*
X395000000Y-7800000D01*
X25000000Y-8400000D02*
X395000000Y-8400000D01*
X25000000Y-9000000D02*
X395000000Y-9000000D01*
X25000000Y-9600000D02*
X395000000Y-9600000D01*
X25000000Y-10200000D02*
X395000000Y-10200000D01*
X25000000Y-10800000D02*
X395000000Y-10800000D01*
X25000000Y-11400000D02*
X395000000Y-11400000D01*
X25000000Y-12000000D02*
X395000000Y-12000000D01*
X25000000Y-12600000D02*
X395000000Y-12600000D01*
D25*
X123000000Y-182000000D02*
X116333000Y-192708000D01*
X116333000Y-192708000D02*
X109667000Y-203833000D01*
X109667000Y-203833000D02*
X103000000Y-215375000D01*
X103000000Y-215375000D02*
X96333000Y-227333000D01*
X96333000Y-227333000D02*
X89667000Y-239708000D01*
X89667000Y-239708000D02*
X83000000Y-252500000D01*
X83000000Y-252500000D02*
X76333000Y-265708000D01*
X76333000Y-265708000D02*
X69667000Y-279333000D01*
X69667000Y-279333000D02*
X63000000Y-293375000D01*
X63000000Y-293375000D02*
X56333000Y-307833000D01*
X56333000Y-307833000D02*
X49667000Y-322708000D01*
X49667000Y-322708000D02*
X43000000Y-338000000D01*
X124500000Y-182000000D02*
X118667000Y-192708000D01*
X118667000Y-192708000D02*
X112833000Y-203833000D01*
X112833000Y-203833000D02*
X107000000Y-215375000D01*
X107000000Y-215375000D02*
X101167000Y-227333000D01*
X101167000Y-227333000D02*
X95333000Y-239708000D01*
X95333000Y-239708000D02*
X89500000Y-252500000D01*
X89500000Y-252500000D02*
X83667000Y-265708000D01*
X83667000Y-265708000D02*
X77833000Y-279333000D01*
X77833000Y-279333000D02*
X72000000Y-293375000D01*
X72000000Y-293375000D02*
X66167000Y-307833000D01*
X66167000Y-307833000D02*
X60333000Y-322708000D01*
X60333000Y-322708000D02*
X54500000Y-338000000D01*
X126000000Y-182000000D02*
X121000000Y-192708000D01*
X121000000Y-192708000D02*
X116000000Y-203833000D01*
X116000000Y-203833000D02*
X111000000Y-215375000D01*
X111000000Y-215375000D02*
X106000000Y-227333000D01*
X106000000Y-227333000D02*
X101000000Y-239708000D01*
X101000000Y-239708000D02*
X96000000Y-252500000D01*
X96000000Y-252500000D02*
X91000000Y-265708000D01*
X91000000Y-265708000D02*
X86000000Y-279333000D01*
X86000000Y-279333000D02*
X81000000Y-293375000D01*
X81000000Y-293375000D02*
X76000000Y-307833000D01*
X76000000Y-307833000D02*
X71000000Y-322708000D01*
X71000000Y-322708000D02*
X66000000Y-338000000D01*
X127500000Y-182000000D02*
X123333000Y-192708000D01*
X123333000Y-192708000D02*
X119167000Y-203833000D01*
X119167000Y-203833000D02*
X115000000Y-215375000D01*
X115000000Y-215375000D02*
X110833000Y-227333000D01*
X110833000Y-227333000D02*
X106667000Y-239708000D01*
X106667000Y-239708000D02*
X102500000Y-252500000D01*
X102500000Y-252500000D02*
X98333000Y-265708000D01*
X98333000Y-265708000D02*
X94167000Y-279333000D01*
X94167000Y-279333000D02*
X90000000Y-293375000D01*
X90000000Y-293375000D02*
X85833000Y-307833000D01*
X85833000Y-307833000D02*
X81667000Y-322708000D01*
X81667000Y-322708000D02*
X77500000Y-338000000D01*
X129000000Y-182000000D02*
X125667000Y-192708000D01*
X125667000Y-192708000D02*
X122333000Y-203833000D01*
X122333000Y-203833000D02*
X119000000Y-215375000D01*
X119000000Y-215375000D02*
X115667000Y-227333000D01*
X115667000Y-227333000D02*
X112333000Y-239708000D01*
X112333000Y-239708000D02*
X109000000Y-252500000D01*
X109000000Y-252500000D02*
X105667000Y-265708000D01*
X105667000Y-265708000D02*
X102333000Y-279333000D01*
X102333000Y-279333000D02*
X99000000Y-293375000D01*
X99000000Y-293375000D02*
X95667000Y-307833000D01*
X95667000Y-307833000D02*
X92333000Y-322708000D01*
X92333000Y-322708000D02*
X89000000Y-338000000D01*
X130500000Y-182000000D02*
X128000000Y-192708000D01*
X128000000Y-192708000D02*
X125500000Y-203833000D01*
X125500000Y-203833000D02*
X123000000Y-215375000D01*
X123000000Y-215375000D02*
X120500000Y-227333000D01*
X120500000Y-227333000D02*
X118000000Y-239708000D01*
X118000000Y-239708000D02*
X115500000Y-252500000D01*
X115500000Y-252500000D02*
X113000000Y-265708000D01*
X113000000Y-265708000D02*
X110500000Y-279333000D01*
X110500000Y-279333000D02*
X108000000Y-293375000D01*
X108000000Y-293375000D02*
X105500000Y-307833000D01*
X105500000Y-307833000D02*
X103000000Y-322708000D01*
X103000000Y-322708000D02*
X100500000Y-338000000D01*
X132000000Y-182000000D02*
X130333000Y-192708000D01*
X130333000Y-192708000D02*
X128667000Y-203833000D01*
X128667000Y-203833000D02*
X127000000Y-215375000D01*
X127000000Y-215375000D02*
X125333000Y-227333000D01*
X125333000Y-227333000D02*
X123667000Y-239708000D01*
X123667000Y-239708000D02*
X122000000Y-252500000D01*
X122000000Y-252500000D02*
X120333000Y-265708000D01*
X120333000Y-265708000D02*
X118667000Y-279333000D01*
X118667000Y-279333000D02*
X117000000Y-293375000D01*
X117000000Y-293375000D02*
X115333000Y-307833000D01*
X115333000Y-307833000D02*
X113667000Y-322708000D01*
X113667000Y-322708000D02*
X112000000Y-338000000D01*
X133500000Y-182000000D02*
X132667000Y-192708000D01*
X132667000Y-192708000D02*
X131833000Y-203833000D01*
X131833000Y-203833000D02*
X131000000Y-215375000D01*
X131000000Y-215375000D02*
X130167000Y-227333000D01*
X130167000Y-227333000D02*
X129333000Y-239708000D01*
X129333000Y-239708000D02*
X128500000Y-252500000D01*
X128500000Y-252500000D02*
X127667000Y-265708000D01*
X127667000Y-265708000D02*
X126833000Y-279333000D01*
X126833000Y-279333000D02*
X126000000Y-293375000D01*
X126000000Y-293375000D02*
X125167000Y-307833000D01*
X125167000Y-307833000D02*
X124333000Y-322708000D01*
X124333000Y-322708000D02*
X123500000Y-338000000D01*
X135000000Y-182000000D02*
X135000000Y-192708000D01*
X135000000Y-192708000D02*
X135000000Y-203833000D01*
X135000000Y-203833000D02*
X135000000Y-215375000D01*
X135000000Y-215375000D02*
X135000000Y-227333000D01*
X135000000Y-227333000D02*
X135000000Y-239708000D01*
X135000000Y-239708000D02*
X135000000Y-252500000D01*
X135000000Y-252500000D02*
X135000000Y-265708000D01*
X135000000Y-265708000D02*
X135000000Y-279333000D01*
X135000000Y-279333000D02*
X135000000Y-293375000D01*
X135000000Y-293375000D02*
X135000000Y-307833000D01*
X135000000Y-307833000D02*
X135000000Y-322708000D01*
X135000000Y-322708000D02*
X135000000Y-338000000D01*
X136500000Y-182000000D02*
X137333000Y-192708000D01*
X137333000Y-192708000D02*
X138167000Y-203833000D01*
X138167000Y-203833000D02*
X139000000Y-215375000D01*
X139000000Y-215375000D02*
X139833000Y-227333000D01*
X139833000Y-227333000D02*
X140667000Y-239708000D01*
X140667000Y-239708000D02*
X141500000Y-252500000D01*
X141500000Y-252500000D02*
X142333000Y-265708000D01*
X142333000Y-265708000D02*
X143167000Y-279333000D01*
X143167000Y-279333000D02*
X144000000Y-293375000D01*
X144000000Y-293375000D02*
X144833000Y-307833000D01*
X144833000Y-307833000D02*
X145667000Y-322708000D01*
X145667000Y-322708000D02*
X146500000Y-338000000D01*
X138000000Y-182000000D02*
X139667000Y-192708000D01*
X139667000Y-192708000D02*
X141333000Y-203833000D01*
X141333000Y-203833000D02*
X143000000Y-215375000D01*
X143000000Y-215375000D02*
X144667000Y-227333000D01*
X144667000Y-227333000D02*
X146333000Y-239708000D01*
X146333000Y-239708000D02*
X148000000Y-252500000D01*
X148000000Y-252500000D02*
X149667000Y-265708000D01*
X149667000Y-265708000D02*
X151333000Y-279333000D01*
X151333000Y-279333000D02*
X153000000Y-293375000D01*
X153000000Y-293375000D02*
X154667000Y-307833000D01*
X154667000Y-307833000D02*
X156333000Y-322708000D01*
X156333000Y-322708000D02*
X158000000Y-338000000D01*
X139500000Y-182000000D02*
X142000000Y-192708000D01*
X142000000Y-192708000D02*
X144500000Y-203833000D01*
X144500000Y-203833000D02*
X147000000Y-215375000D01*
X147000000Y-215375000D02*
X149500000Y-227333000D01*
X149500000Y-227333000D02*
X152000000Y-239708000D01*
X152000000Y-239708000D02*
X154500000Y-252500000D01*
X154500000Y-252500000D02*
X157000000Y-265708000D01*
X157000000Y-265708000D02*
X159500000Y-279333000D01*
X159500000Y-279333000D02*
X162000000Y-293375000D01*
X162000000Y-293375000D02*
X164500000Y-307833000D01*
X164500000Y-307833000D02*
X167000000Y-322708000D01*
X167000000Y-322708000D02*
X169500000Y-338000000D01*
X141000000Y-182000000D02*
X144333000Y-192708000D01*
X144333000Y-192708000D02*
X147667000Y-203833000D01*
X147667000Y-203833000D02*
X151000000Y-215375000D01*
X151000000Y-215375000D02*
X154333000Y-227333000D01*
X154333000Y-227333000D02*
X157667000Y-239708000D01*
X157667000Y-239708000D02*
X161000000Y-252500000D01*
X161000000Y-252500000D02*
X164333000Y-265708000D01*
X164333000Y-265708000D02*
X167667000Y-279333000D01*
X167667000Y-279333000D02*
X171000000Y-293375000D01*
X171000000Y-293375000D02*
X174333000Y-307833000D01*
X174333000Y-307833000D02*
X177667000Y-322708000D01*
X177667000Y-322708000D02*
X181000000Y-338000000D01*
X142500000Y-182000000D02*
X146667000Y-192708000D01*
X146667000Y-192708000D02*
X150833000Y-203833000D01*
X150833000Y-203833000D02*
X155000000Y-215375000D01*
X155000000Y-215375000D02*
X159167000Y-227333000D01*
X159167000Y-227333000D02*
X163333000Y-239708000D01*
X163333000Y-239708000D02*
X167500000Y-252500000D01*
X167500000Y-252500000D02*
X171667000Y-265708000D01*
X171667000Y-265708000D02*
X175833000Y-279333000D01*
X175833000Y-279333000D02*
X180000000Y-293375000D01*
X180000000Y-293375000D02*
X184167000Y-307833000D01*
X184167000Y-307833000D02*
X188333000Y-322708000D01*
X188333000Y-322708000D02*
X192500000Y-338000000D01*
X144000000Y-182000000D02*
X149000000Y-192708000D01*
X149000000Y-192708000D02*
X154000000Y-203833000D01*
X154000000Y-203833000D02*
X159000000Y-215375000D01*
X159000000Y-215375000D02*
X164000000Y-227333000D01*
X164000000Y-227333000D02*
X169000000Y-239708000D01*
X169000000Y-239708000D02*
X174000000Y-252500000D01*
X174000000Y-252500000D02*
X179000000Y-265708000D01*
X179000000Y-265708000D02*
X184000000Y-279333000D01*
X184000000Y-279333000D02*
X189000000Y-293375000D01*
X189000000Y-293375000D02*
X194000000Y-307833000D01*
X194000000Y-307833000D02*
X199000000Y-322708000D01*
X199000000Y-322708000D02*
X204000000Y-338000000D01*
X145500000Y-182000000D02*
X151333000Y-192708000D01*
X151333000Y-192708000D02*
X157167000Y-203833000D01*
X157167000Y-203833000D02*
X163000000Y-215375000D01*
X163000000Y-215375000D02*
X168833000Y-227333000D01*
X168833000Y-227333000D02*
X174667000Y-239708000D01*
X174667000Y-239708000D02*
X180500000Y-252500000D01*
X180500000Y-252500000D02*
X186333000Y-265708000D01*
X186333000Y-265708000D02*
X192167000Y-279333000D01*
X192167000Y-279333000D02*
X198000000Y-293375000D01*
X198000000Y-293375000D02*
X203833000Y-307833000D01*
X203833000Y-307833000D02*
X209667000Y-322708000D01*
X209667000Y-322708000D02*
X215500000Y-338000000D01*
X273000000Y-182000000D02*
X266333000Y-192708000D01*
X266333000Y-192708000D02*
X259667000Y-203833000D01*
X259667000Y-203833000D02*
X253000000Y-215375000D01*
X253000000Y-215375000D02*
X246333000Y-227333000D01*
X246333000Y-227333000D02*
X239667000Y-239708000D01*
X239667000Y-239708000D02*
X233000000Y-252500000D01*
X233000000Y-252500000D02*
X226333000Y-265708000D01*
X226333000Y-265708000D02*
X219667000Y-279333000D01*
X219667000Y-279333000D02*
X213000000Y-293375000D01*
X213000000Y-293375000D02*
X206333000Y-307833000D01*
X206333000Y-307833000D02*
X199667000Y-322708000D01*
X199667000Y-322708000D02*
X193000000Y-338000000D01*
X274500000Y-182000000D02*
X268667000Y-192708000D01*
X268667000Y-192708000D02*
X262833000Y-203833000D01*
X262833000Y-203833000D02*
X257000000Y-215375000D01*
X257000000Y-215375000D02*
X251167000Y-227333000D01*
X251167000Y-227333000D02*
X245333000Y-239708000D01*
X245333000Y-239708000D02*
X239500000Y-252500000D01*
X239500000Y-252500000D02*
X233667000Y-265708000D01*
X233667000Y-265708000D02*
X227833000Y-279333000D01*
X227833000Y-279333000D02*
X222000000Y-293375000D01*
X222000000Y-293375000D02*
X216167000Y-307833000D01*
X216167000Y-307833000D02*
X210333000Y-322708000D01*
X210333000Y-322708000D02*
X204500000Y-338000000D01*
X276000000Y-182000000D02*
X271000000Y-192708000D01*
X271000000Y-192708000D02*
X266000000Y-203833000D01*
X266000000Y-203833000D02*
X261000000Y-215375000D01*
X261000000Y-215375000D02*
X256000000Y-227333000D01*
X256000000Y-227333000D02*
X251000000Y-239708000D01*
X251000000Y-239708000D02*
X246000000Y-252500000D01*
X246000000Y-252500000D02*
X241000000Y-265708000D01*
X241000000Y-265708000D02*
X236000000Y-279333000D01*
X236000000Y-279333000D02*
X231000000Y-293375000D01*
X231000000Y-293375000D02*
X226000000Y-307833000D01*
X226000000Y-307833000D02*
X221000000Y-322708000D01*
X221000000Y-322708000D02*
X216000000Y-338000000D01*
X277500000Y-182000000D02*
X273333000Y-192708000D01*
X273333000Y-192708000D02*
X269167000Y-203833000D01*
X269167000Y-203833000D02*
X265000000Y-215375000D01*
X265000000Y-215375000D02*
X260833000Y-227333000D01*
X260833000Y-227333000D02*
X256667000Y-239708000D01*
X256667000Y-239708000D02*
X252500000Y-252500000D01*
X252500000Y-252500000D02*
X248333000Y-265708000D01*
X248333000Y-265708000D02*
X244167000Y-279333000D01*
X244167000Y-279333000D02*
X240000000Y-293375000D01*
X240000000Y-293375000D02*
X235833000Y-307833000D01*
X235833000Y-307833000D02*
X231667000Y-322708000D01*
X231667000Y-322708000D02*
X227500000Y-338000000D01*
X279000000Y-182000000D02*
X275667000Y-192708000D01*
X275667000Y-192708000D02*
X272333000Y-203833000D01*
X272333000Y-203833000D02*
X269000000Y-215375000D01*
X269000000Y-215375000D02*
X265667000Y-227333000D01*
X265667000Y-227333000D02*
X262333000Y-239708000D01*
X262333000Y-239708000D02*
X259000000Y-252500000D01*
X259000000Y-252500000D02*
X255667000Y-265708000D01*
X255667000Y-265708000D02*
X252333000Y-279333000D01*
X252333000Y-279333000D02*
X249000000Y-293375000D01*
X249000000Y-293375000D02*
X245667000Y-307833000D01*
X245667000Y-307833000D02*
X242333000Y-322708000D01*
X242333000Y-322708000D02*
X239000000Y-338000000D01*
X280500000Y-182000000D02*
X278000000Y-192708000D01*
X278000000Y-192708000D02*
X275500000Y-203833000D01*
X275500000Y-203833000D02*
X273000000Y-215375000D01*
X273000000Y-215375000D02*
X270500000Y-227333000D01*
X270500000Y-227333000D02*
X268000000Y-239708000D01*
X268000000Y-239708000D02*
X265500000Y-252500000D01*
X265500000Y-252500000D02*
X263000000Y-265708000D01*
X263000000Y-265708000D02*
X260500000Y-279333000D01*
X260500000Y-279333000D02*
X258000000Y-293375000D01*
X258000000Y-293375000D02*
X255500000Y-307833000D01*
X255500000Y-307833000D02*
X253000000Y-322708000D01*
X253000000Y-322708000D02*
X250500000Y-338000000D01*
X282000000Y-182000000D02*
X280333000Y-192708000D01*
X280333000Y-192708000D02*
X278667000Y-203833000D01*
X278667000Y-203833000D02*
X277000000Y-215375000D01*
X277000000Y-215375000D02*
X275333000Y-227333000D01*
X275333000Y-227333000D02*
X273667000Y-239708000D01*
X273667000Y-239708000D02*
X272000000Y-252500000D01*
X272000000Y-252500000D02*
X270333000Y-265708000D01*
X270333000Y-265708000D02*
X268667000Y-279333000D01*
X268667000Y-279333000D02*
X267000000Y-293375000D01*
X267000000Y-293375000D02*
X265333000Y-307833000D01*
X265333000Y-307833000D02*
X263667000Y-322708000D01*
X263667000Y-322708000D02*
X262000000Y-338000000D01*
X283500000Y-182000000D02*
X282667000Y-192708000D01*
X282667000Y-192708000D02*
X281833000Y-203833000D01*
X281833000Y-203833000D02*
X281000000Y-215375000D01*
X281000000Y-215375000D02*
X280167000Y-227333000D01*
X280167000Y-227333000D02*
X279333000Y-239708000D01*
X279333000Y-239708000D02*
X278500000Y-252500000D01*
X278500000Y-252500000D02*
X277667000Y-265708000D01*
X277667000Y-265708000D02*
X276833000Y-279333000D01*
X276833000Y-279333000D02*
X276000000Y-293375000D01*
X276000000Y-293375000D02*
X275167000Y-307833000D01*
X275167000Y-307833000D02*
X274333000Y-322708000D01*
X274333000Y-322708000D02*
X273500000Y-338000000D01*
X285000000Y-182000000D02*
X285000000Y-192708000D01*
X285000000Y-192708000D02*
X285000000Y-203833000D01*
X285000000Y-203833000D02*
X285000000Y-215375000D01*
X285000000Y-215375000D02*
X285000000Y-227333000D01*
X285000000Y-227333000D02*
X285000000Y-239708000D01*
X285000000Y-239708000D02*
X285000000Y-252500000D01*
X285000000Y-252500000D02*
X285000000Y-265708000D01*
X285000000Y-265708000D02*
X285000000Y-279333000D01*
X285000000Y-279333000D02*
X285000000Y-293375000D01*
X285000000Y-293375000D02*
X285000000Y-307833000D01*
X285000000Y-307833000D02*
X285000000Y-322708000D01*
X285000000Y-322708000D02*
X285000000Y-338000000D01*
X286500000Y-182000000D02*
X287333000Y-192708000D01*
X287333000Y-192708000D02*
X288167000Y-203833000D01*
X288167000Y-203833000D02*
X289000000Y-215375000D01*
X289000000Y-215375000D02*
X289833000Y-227333000D01*
X289833000Y-227333000D02*
X290667000Y-239708000D01*
X290667000Y-239708000D02*
X291500000Y-252500000D01*
X291500000Y-252500000D02*
X292333000Y-265708000D01*
X292333000Y-265708000D02*
X293167000Y-279333000D01*
X293167000Y-279333000D02*
X294000000Y-293375000D01*
X294000000Y-293375000D02*
X294833000Y-307833000D01*
X294833000Y-307833000D02*
X295667000Y-322708000D01*
X295667000Y-322708000D02*
X296500000Y-338000000D01*
X288000000Y-182000000D02*
X289667000Y-192708000D01*
X289667000Y-192708000D02*
X291333000Y-203833000D01*
X291333000Y-203833000D02*
X293000000Y-215375000D01*
X293000000Y-215375000D02*
X294667000Y-227333000D01*
X294667000Y-227333000D02*
X296333000Y-239708000D01*
X296333000Y-239708000D02*
X298000000Y-252500000D01*
X298000000Y-252500000D02*
X299667000Y-265708000D01*
X299667000Y-265708000D02*
X301333000Y-279333000D01*
X301333000Y-279333000D02*
X303000000Y-293375000D01*
X303000000Y-293375000D02*
X304667000Y-307833000D01*
X304667000Y-307833000D02*
X306333000Y-322708000D01*
X306333000Y-322708000D02*
X308000000Y-338000000D01*
X289500000Y-182000000D02*
X292000000Y-192708000D01*
X292000000Y-192708000D02*
X294500000Y-203833000D01*
X294500000Y-203833000D02*
X297000000Y-215375000D01*
X297000000Y-215375000D02*
X299500000Y-227333000D01*
X299500000Y-227333000D02*
X302000000Y-239708000D01*
X302000000Y-239708000D02*
X304500000Y-252500000D01*
X304500000Y-252500000D02*
X307000000Y-265708000D01*
X307000000Y-265708000D02*
X309500000Y-279333000D01*
X309500000Y-279333000D02*
X312000000Y-293375000D01*
X312000000Y-293375000D02*
X314500000Y-307833000D01*
X314500000Y-307833000D02*
X317000000Y-322708000D01*
X317000000Y-322708000D02*
X319500000Y-338000000D01*
X291000000Y-182000000D02*
X294333000Y-192708000D01*
X294333000Y-192708000D02*
X297667000Y-203833000D01*
X297667000Y-203833000D02*
X301000000Y-215375000D01*
X301000000Y-215375000D02*
X304333000Y-227333000D01*
X304333000Y-227333000D02*
X307667000Y-239708000D01*
X307667000Y-239708000D02*
X311000000Y-252500000D01*
X311000000Y-252500000D02*
X314333000Y-265708000D01*
X314333000Y-265708000D02*
X317667000Y-279333000D01*
X317667000Y-279333000D02*
X321000000Y-293375000D01*
X321000000Y-293375000D02*
X324333000Y-307833000D01*
X324333000Y-307833000D02*
X327667000Y-322708000D01*
X327667000Y-322708000D02*
X331000000Y-338000000D01*
X292500000Y-182000000D02*
X296667000Y-192708000D01*
X296667000Y-192708000D02*
X300833000Y-203833000D01*
X300833000Y-203833000D02*
X305000000Y-215375000D01*
X305000000Y-215375000D02*
X309167000Y-227333000D01*
X309167000Y-227333000D02*
X313333000Y-239708000D01*
X313333000Y-239708000D02*
X317500000Y-252500000D01*
X317500000Y-252500000D02*
X321667000Y-265708000D01*
X321667000Y-265708000D02*
X325833000Y-279333000D01*
X325833000Y-279333000D02*
X330000000Y-293375000D01*
X330000000Y-293375000D02*
X334167000Y-307833000D01*
X334167000Y-307833000D02*
X338333000Y-322708000D01*
X338333000Y-322708000D02*
X342500000Y-338000000D01*
X294000000Y-182000000D02*
X299000000Y-192708000D01*
X299000000Y-192708000D02*
X304000000Y-203833000D01*
X304000000Y-203833000D02*
X309000000Y-215375000D01*
X309000000Y-215375000D02*
X314000000Y-227333000D01*
X314000000Y-227333000D02*
X319000000Y-239708000D01*
X319000000Y-239708000D02*
X324000000Y-252500000D01*
X324000000Y-252500000D02*
X329000000Y-265708000D01*
X329000000Y-265708000D02*
X334000000Y-279333000D01*
X334000000Y-279333000D02*
X339000000Y-293375000D01*
X339000000Y-293375000D02*
X344000000Y-307833000D01*
X344000000Y-307833000D02*
X349000000Y-322708000D01*
X349000000Y-322708000D02*
X354000000Y-338000000D01*
X295500000Y-182000000D02*
X301333000Y-192708000D01*
X301333000Y-192708000D02*
X307167000Y-203833000D01*
X307167000Y-203833000D02*
X313000000Y-215375000D01*
X313000000Y-215375000D02*
X318833000Y-227333000D01*
X318833000Y-227333000D02*
X324667000Y-239708000D01*
X324667000Y-239708000D02*
X330500000Y-252500000D01*
X330500000Y-252500000D02*
X336333000Y-265708000D01*
X336333000Y-265708000D02*
X342167000Y-279333000D01*
X342167000Y-279333000D02*
X348000000Y-293375000D01*
X348000000Y-293375000D02*
X353833000Y-307833000D01*
X353833000Y-307833000D02*
X359667000Y-322708000D01*
X359667000Y-322708000D02*
X365500000Y-338000000D01*
%TD*%
M02*
