%TF.GenerationSoftware,KiCad,Pcbnew,8.0.9-8.0.9-0~ubuntu22.04.1*%
%TF.CreationDate,2026-06-16T06:24:24+00:00*%
%TF.ProjectId,LightRail_LPO_1.6T,4c696768-7452-4616-996c-5f4c504f5f31,rev?*%
%TF.SameCoordinates,Original*%
%TF.FileFunction,Other,User*%
%FSLAX46Y46*%
G04 Gerber Fmt 4.6, Leading zero omitted, Abs format (unit mm)*
G04 Created by KiCad (PCBNEW 8.0.9-8.0.9-0~ubuntu22.04.1) date 2026-06-16 06:24:24*
%MOMM*%
%LPD*%
G01*
G04 APERTURE LIST*
%ADD10C,0.050000*%
G04 APERTURE END LIST*
%TO.C,U326*%
D10*
X75750000Y-190750000D02*
X84250000Y-190750000D01*
X84250000Y-199250000D01*
X75750000Y-199250000D01*
X75750000Y-190750000D01*
%TO.C,U327*%
X85750000Y-190750000D02*
X94250000Y-190750000D01*
X94250000Y-199250000D01*
X85750000Y-199250000D01*
X85750000Y-190750000D01*
%TO.C,U328*%
X95750000Y-190750000D02*
X104250000Y-190750000D01*
X104250000Y-199250000D01*
X95750000Y-199250000D01*
X95750000Y-190750000D01*
%TO.C,U329*%
X105750000Y-190750000D02*
X114250000Y-190750000D01*
X114250000Y-199250000D01*
X105750000Y-199250000D01*
X105750000Y-190750000D01*
%TO.C,U330*%
X115750000Y-190750000D02*
X124250000Y-190750000D01*
X124250000Y-199250000D01*
X115750000Y-199250000D01*
X115750000Y-190750000D01*
%TO.C,U331*%
X125750000Y-190750000D02*
X134250000Y-190750000D01*
X134250000Y-199250000D01*
X125750000Y-199250000D01*
X125750000Y-190750000D01*
%TO.C,U332*%
X135750000Y-190750000D02*
X144250000Y-190750000D01*
X144250000Y-199250000D01*
X135750000Y-199250000D01*
X135750000Y-190750000D01*
%TO.C,U333*%
X145750000Y-190750000D02*
X154250000Y-190750000D01*
X154250000Y-199250000D01*
X145750000Y-199250000D01*
X145750000Y-190750000D01*
%TO.C,U334*%
X155750000Y-190750000D02*
X164250000Y-190750000D01*
X164250000Y-199250000D01*
X155750000Y-199250000D01*
X155750000Y-190750000D01*
%TO.C,U335*%
X165750000Y-190750000D02*
X174250000Y-190750000D01*
X174250000Y-199250000D01*
X165750000Y-199250000D01*
X165750000Y-190750000D01*
%TO.C,U336*%
X175750000Y-190750000D02*
X184250000Y-190750000D01*
X184250000Y-199250000D01*
X175750000Y-199250000D01*
X175750000Y-190750000D01*
%TO.C,U337*%
X185750000Y-190750000D02*
X194250000Y-190750000D01*
X194250000Y-199250000D01*
X185750000Y-199250000D01*
X185750000Y-190750000D01*
%TO.C,U338*%
X225750000Y-190750000D02*
X234250000Y-190750000D01*
X234250000Y-199250000D01*
X225750000Y-199250000D01*
X225750000Y-190750000D01*
%TO.C,U339*%
X235750000Y-190750000D02*
X244250000Y-190750000D01*
X244250000Y-199250000D01*
X235750000Y-199250000D01*
X235750000Y-190750000D01*
%TO.C,U340*%
X245750000Y-190750000D02*
X254250000Y-190750000D01*
X254250000Y-199250000D01*
X245750000Y-199250000D01*
X245750000Y-190750000D01*
%TO.C,U341*%
X255750000Y-190750000D02*
X264250000Y-190750000D01*
X264250000Y-199250000D01*
X255750000Y-199250000D01*
X255750000Y-190750000D01*
%TO.C,U342*%
X265750000Y-190750000D02*
X274250000Y-190750000D01*
X274250000Y-199250000D01*
X265750000Y-199250000D01*
X265750000Y-190750000D01*
%TO.C,U343*%
X275750000Y-190750000D02*
X284250000Y-190750000D01*
X284250000Y-199250000D01*
X275750000Y-199250000D01*
X275750000Y-190750000D01*
%TO.C,U344*%
X285750000Y-190750000D02*
X294250000Y-190750000D01*
X294250000Y-199250000D01*
X285750000Y-199250000D01*
X285750000Y-190750000D01*
%TO.C,U345*%
X295750000Y-190750000D02*
X304250000Y-190750000D01*
X304250000Y-199250000D01*
X295750000Y-199250000D01*
X295750000Y-190750000D01*
%TO.C,U346*%
X305750000Y-190750000D02*
X314250000Y-190750000D01*
X314250000Y-199250000D01*
X305750000Y-199250000D01*
X305750000Y-190750000D01*
%TO.C,U347*%
X315750000Y-190750000D02*
X324250000Y-190750000D01*
X324250000Y-199250000D01*
X315750000Y-199250000D01*
X315750000Y-190750000D01*
%TO.C,U348*%
X325750000Y-190750000D02*
X334250000Y-190750000D01*
X334250000Y-199250000D01*
X325750000Y-199250000D01*
X325750000Y-190750000D01*
%TO.C,U349*%
X335750000Y-190750000D02*
X344250000Y-190750000D01*
X344250000Y-199250000D01*
X335750000Y-199250000D01*
X335750000Y-190750000D01*
%TO.C,C_U0_T2_0*%
X157800000Y-159200000D02*
X160200000Y-159200000D01*
X160200000Y-160800000D01*
X157800000Y-160800000D01*
X157800000Y-159200000D01*
%TO.C,C_U0_T2_1*%
X152190000Y-174630000D02*
X154590000Y-174630000D01*
X154590000Y-176230000D01*
X152190000Y-176230000D01*
X152190000Y-174630000D01*
%TO.C,C_U0_T2_2*%
X137970000Y-182840000D02*
X140370000Y-182840000D01*
X140370000Y-184440000D01*
X137970000Y-184440000D01*
X137970000Y-182840000D01*
%TO.C,C_U0_T2_3*%
X121800000Y-179980000D02*
X124200000Y-179980000D01*
X124200000Y-181580000D01*
X121800000Y-181580000D01*
X121800000Y-179980000D01*
%TO.C,C_U0_T2_4*%
X111250000Y-167410000D02*
X113650000Y-167410000D01*
X113650000Y-169010000D01*
X111250000Y-169010000D01*
X111250000Y-167410000D01*
%TO.C,C_U0_T2_5*%
X111250000Y-150990000D02*
X113650000Y-150990000D01*
X113650000Y-152590000D01*
X111250000Y-152590000D01*
X111250000Y-150990000D01*
%TO.C,C_U0_T2_6*%
X121800000Y-138420000D02*
X124200000Y-138420000D01*
X124200000Y-140020000D01*
X121800000Y-140020000D01*
X121800000Y-138420000D01*
%TO.C,C_U0_T2_7*%
X137970000Y-135560000D02*
X140370000Y-135560000D01*
X140370000Y-137160000D01*
X137970000Y-137160000D01*
X137970000Y-135560000D01*
%TO.C,C_U0_T2_8*%
X152190000Y-143770000D02*
X154590000Y-143770000D01*
X154590000Y-145370000D01*
X152190000Y-145370000D01*
X152190000Y-143770000D01*
%TO.C,C_U0_T1_0*%
X103000000Y-188400000D02*
X107000000Y-188400000D01*
X107000000Y-191600000D01*
X103000000Y-191600000D01*
X103000000Y-188400000D01*
%TO.C,C_U0_T1_1*%
X115000000Y-188400000D02*
X119000000Y-188400000D01*
X119000000Y-191600000D01*
X115000000Y-191600000D01*
X115000000Y-188400000D01*
%TO.C,C_U0_T1_2*%
X127000000Y-188400000D02*
X131000000Y-188400000D01*
X131000000Y-191600000D01*
X127000000Y-191600000D01*
X127000000Y-188400000D01*
%TO.C,C_U0_T1_3*%
X139000000Y-188400000D02*
X143000000Y-188400000D01*
X143000000Y-191600000D01*
X139000000Y-191600000D01*
X139000000Y-188400000D01*
%TO.C,C_U0_T1_4*%
X151000000Y-188400000D02*
X155000000Y-188400000D01*
X155000000Y-191600000D01*
X151000000Y-191600000D01*
X151000000Y-188400000D01*
%TO.C,C_U0_T1_5*%
X163000000Y-188400000D02*
X167000000Y-188400000D01*
X167000000Y-191600000D01*
X163000000Y-191600000D01*
X163000000Y-188400000D01*
%TO.C,C_U1_T2_0*%
X307800000Y-159200000D02*
X310200000Y-159200000D01*
X310200000Y-160800000D01*
X307800000Y-160800000D01*
X307800000Y-159200000D01*
%TO.C,C_U1_T2_1*%
X302190000Y-174630000D02*
X304590000Y-174630000D01*
X304590000Y-176230000D01*
X302190000Y-176230000D01*
X302190000Y-174630000D01*
%TO.C,C_U1_T2_2*%
X287970000Y-182840000D02*
X290370000Y-182840000D01*
X290370000Y-184440000D01*
X287970000Y-184440000D01*
X287970000Y-182840000D01*
%TO.C,C_U1_T2_3*%
X271800000Y-179980000D02*
X274200000Y-179980000D01*
X274200000Y-181580000D01*
X271800000Y-181580000D01*
X271800000Y-179980000D01*
%TO.C,C_U1_T2_4*%
X261250000Y-167410000D02*
X263650000Y-167410000D01*
X263650000Y-169010000D01*
X261250000Y-169010000D01*
X261250000Y-167410000D01*
%TO.C,C_U1_T2_5*%
X261250000Y-150990000D02*
X263650000Y-150990000D01*
X263650000Y-152590000D01*
X261250000Y-152590000D01*
X261250000Y-150990000D01*
%TO.C,C_U1_T2_6*%
X271800000Y-138420000D02*
X274200000Y-138420000D01*
X274200000Y-140020000D01*
X271800000Y-140020000D01*
X271800000Y-138420000D01*
%TO.C,C_U1_T2_7*%
X287970000Y-135560000D02*
X290370000Y-135560000D01*
X290370000Y-137160000D01*
X287970000Y-137160000D01*
X287970000Y-135560000D01*
%TO.C,C_U1_T2_8*%
X302190000Y-143770000D02*
X304590000Y-143770000D01*
X304590000Y-145370000D01*
X302190000Y-145370000D01*
X302190000Y-143770000D01*
%TO.C,C_U1_T1_0*%
X253000000Y-188400000D02*
X257000000Y-188400000D01*
X257000000Y-191600000D01*
X253000000Y-191600000D01*
X253000000Y-188400000D01*
%TO.C,C_U1_T1_1*%
X265000000Y-188400000D02*
X269000000Y-188400000D01*
X269000000Y-191600000D01*
X265000000Y-191600000D01*
X265000000Y-188400000D01*
%TO.C,C_U1_T1_2*%
X277000000Y-188400000D02*
X281000000Y-188400000D01*
X281000000Y-191600000D01*
X277000000Y-191600000D01*
X277000000Y-188400000D01*
%TO.C,C_U1_T1_3*%
X289000000Y-188400000D02*
X293000000Y-188400000D01*
X293000000Y-191600000D01*
X289000000Y-191600000D01*
X289000000Y-188400000D01*
%TO.C,C_U1_T1_4*%
X301000000Y-188400000D02*
X305000000Y-188400000D01*
X305000000Y-191600000D01*
X301000000Y-191600000D01*
X301000000Y-188400000D01*
%TO.C,C_U1_T1_5*%
X313000000Y-188400000D02*
X317000000Y-188400000D01*
X317000000Y-191600000D01*
X313000000Y-191600000D01*
X313000000Y-188400000D01*
%TD*%
M02*
