%TF.GenerationSoftware,KiCad,Pcbnew,8.0.9-8.0.9-0~ubuntu22.04.1*%
%TF.CreationDate,2026-06-16T06:24:24+00:00*%
%TF.ProjectId,LightRail_LPO_1.6T,4c696768-7452-4616-996c-5f4c504f5f31,rev?*%
%TF.SameCoordinates,Original*%
%TF.FileFunction,Other,User*%
%FSLAX46Y46*%
G04 Gerber Fmt 4.6, Leading zero omitted, Abs format (unit mm)*
G04 Created by KiCad (PCBNEW 8.0.9-8.0.9-0~ubuntu22.04.1) date 2026-06-16 06:24:24*
%MOMM*%
%LPD*%
G01*
G04 APERTURE LIST*
%ADD10C,0.050000*%
%ADD11C,0.100000*%
G04 APERTURE END LIST*
%TO.C,U101*%
D10*
X114500000Y-139500000D02*
X155500000Y-139500000D01*
X155500000Y-180500000D01*
X114500000Y-180500000D01*
X114500000Y-139500000D01*
%TO.C,U201*%
X264500000Y-139500000D02*
X305500000Y-139500000D01*
X305500000Y-180500000D01*
X264500000Y-180500000D01*
X264500000Y-139500000D01*
%TO.C,U102*%
X176500000Y-151500000D02*
X193500000Y-151500000D01*
X193500000Y-168500000D01*
X176500000Y-168500000D01*
X176500000Y-151500000D01*
%TO.C,U202*%
X226500000Y-151500000D02*
X243500000Y-151500000D01*
X243500000Y-168500000D01*
X226500000Y-168500000D01*
X226500000Y-151500000D01*
%TO.C,U302*%
X40750000Y-75750000D02*
X49250000Y-75750000D01*
X49250000Y-84250000D01*
X40750000Y-84250000D01*
X40750000Y-75750000D01*
%TO.C,U303*%
X40750000Y-95750000D02*
X49250000Y-95750000D01*
X49250000Y-104250000D01*
X40750000Y-104250000D01*
X40750000Y-95750000D01*
%TO.C,U304*%
X40750000Y-115750000D02*
X49250000Y-115750000D01*
X49250000Y-124250000D01*
X40750000Y-124250000D01*
X40750000Y-115750000D01*
%TO.C,U305*%
X40750000Y-135750000D02*
X49250000Y-135750000D01*
X49250000Y-144250000D01*
X40750000Y-144250000D01*
X40750000Y-135750000D01*
%TO.C,U306*%
X40750000Y-155750000D02*
X49250000Y-155750000D01*
X49250000Y-164250000D01*
X40750000Y-164250000D01*
X40750000Y-155750000D01*
%TO.C,U307*%
X40750000Y-175750000D02*
X49250000Y-175750000D01*
X49250000Y-184250000D01*
X40750000Y-184250000D01*
X40750000Y-175750000D01*
%TO.C,U308*%
X40750000Y-195750000D02*
X49250000Y-195750000D01*
X49250000Y-204250000D01*
X40750000Y-204250000D01*
X40750000Y-195750000D01*
%TO.C,U309*%
X40750000Y-215750000D02*
X49250000Y-215750000D01*
X49250000Y-224250000D01*
X40750000Y-224250000D01*
X40750000Y-215750000D01*
%TO.C,U310*%
X40750000Y-235750000D02*
X49250000Y-235750000D01*
X49250000Y-244250000D01*
X40750000Y-244250000D01*
X40750000Y-235750000D01*
%TO.C,U311*%
X40750000Y-255750000D02*
X49250000Y-255750000D01*
X49250000Y-264250000D01*
X40750000Y-264250000D01*
X40750000Y-255750000D01*
%TO.C,U312*%
X40750000Y-275750000D02*
X49250000Y-275750000D01*
X49250000Y-284250000D01*
X40750000Y-284250000D01*
X40750000Y-275750000D01*
%TO.C,U313*%
X40750000Y-295750000D02*
X49250000Y-295750000D01*
X49250000Y-304250000D01*
X40750000Y-304250000D01*
X40750000Y-295750000D01*
%TO.C,U314*%
X370750000Y-75750000D02*
X379250000Y-75750000D01*
X379250000Y-84250000D01*
X370750000Y-84250000D01*
X370750000Y-75750000D01*
%TO.C,U315*%
X370750000Y-95750000D02*
X379250000Y-95750000D01*
X379250000Y-104250000D01*
X370750000Y-104250000D01*
X370750000Y-95750000D01*
%TO.C,U316*%
X370750000Y-115750000D02*
X379250000Y-115750000D01*
X379250000Y-124250000D01*
X370750000Y-124250000D01*
X370750000Y-115750000D01*
%TO.C,U317*%
X370750000Y-135750000D02*
X379250000Y-135750000D01*
X379250000Y-144250000D01*
X370750000Y-144250000D01*
X370750000Y-135750000D01*
%TO.C,U318*%
X370750000Y-155750000D02*
X379250000Y-155750000D01*
X379250000Y-164250000D01*
X370750000Y-164250000D01*
X370750000Y-155750000D01*
%TO.C,U319*%
X370750000Y-175750000D02*
X379250000Y-175750000D01*
X379250000Y-184250000D01*
X370750000Y-184250000D01*
X370750000Y-175750000D01*
%TO.C,U320*%
X370750000Y-195750000D02*
X379250000Y-195750000D01*
X379250000Y-204250000D01*
X370750000Y-204250000D01*
X370750000Y-195750000D01*
%TO.C,U321*%
X370750000Y-215750000D02*
X379250000Y-215750000D01*
X379250000Y-224250000D01*
X370750000Y-224250000D01*
X370750000Y-215750000D01*
%TO.C,U322*%
X370750000Y-235750000D02*
X379250000Y-235750000D01*
X379250000Y-244250000D01*
X370750000Y-244250000D01*
X370750000Y-235750000D01*
%TO.C,U323*%
X370750000Y-255750000D02*
X379250000Y-255750000D01*
X379250000Y-264250000D01*
X370750000Y-264250000D01*
X370750000Y-255750000D01*
%TO.C,U324*%
X370750000Y-275750000D02*
X379250000Y-275750000D01*
X379250000Y-284250000D01*
X370750000Y-284250000D01*
X370750000Y-275750000D01*
%TO.C,U325*%
X370750000Y-295750000D02*
X379250000Y-295750000D01*
X379250000Y-304250000D01*
X370750000Y-304250000D01*
X370750000Y-295750000D01*
%TO.C,U103*%
X99300000Y-129300000D02*
X110700000Y-129300000D01*
X110700000Y-140700000D01*
X99300000Y-140700000D01*
X99300000Y-129300000D01*
%TO.C,U104*%
X99300000Y-179300000D02*
X110700000Y-179300000D01*
X110700000Y-190700000D01*
X99300000Y-190700000D01*
X99300000Y-179300000D01*
%TO.C,U105*%
X159300000Y-129300000D02*
X170700000Y-129300000D01*
X170700000Y-140700000D01*
X159300000Y-140700000D01*
X159300000Y-129300000D01*
%TO.C,U106*%
X159300000Y-179300000D02*
X170700000Y-179300000D01*
X170700000Y-190700000D01*
X159300000Y-190700000D01*
X159300000Y-179300000D01*
%TO.C,U203*%
X249300000Y-129300000D02*
X260700000Y-129300000D01*
X260700000Y-140700000D01*
X249300000Y-140700000D01*
X249300000Y-129300000D01*
%TO.C,U204*%
X249300000Y-179300000D02*
X260700000Y-179300000D01*
X260700000Y-190700000D01*
X249300000Y-190700000D01*
X249300000Y-179300000D01*
%TO.C,U205*%
X309300000Y-129300000D02*
X320700000Y-129300000D01*
X320700000Y-140700000D01*
X309300000Y-140700000D01*
X309300000Y-129300000D01*
%TO.C,U206*%
X309300000Y-179300000D02*
X320700000Y-179300000D01*
X320700000Y-190700000D01*
X309300000Y-190700000D01*
X309300000Y-179300000D01*
%TO.C,U401*%
D11*
X121500000Y-236500000D02*
X148500000Y-236500000D01*
X148500000Y-263500000D01*
X121500000Y-263500000D01*
X121500000Y-236500000D01*
%TO.C,U402*%
X271500000Y-236500000D02*
X298500000Y-236500000D01*
X298500000Y-263500000D01*
X271500000Y-263500000D01*
X271500000Y-236500000D01*
%TO.C,U411*%
X155000000Y-205000000D02*
X165000000Y-205000000D01*
X165000000Y-215000000D01*
X155000000Y-215000000D01*
X155000000Y-205000000D01*
%TO.C,U412*%
X255000000Y-205000000D02*
X265000000Y-205000000D01*
X265000000Y-215000000D01*
X255000000Y-215000000D01*
X255000000Y-205000000D01*
%TO.C,U421*%
X163000000Y-182000000D02*
X169000000Y-182000000D01*
X169000000Y-188000000D01*
X163000000Y-188000000D01*
X163000000Y-182000000D01*
%TO.C,U422*%
X167000000Y-182000000D02*
X173000000Y-182000000D01*
X173000000Y-188000000D01*
X167000000Y-188000000D01*
X167000000Y-182000000D01*
%TO.C,U423*%
X171000000Y-182000000D02*
X177000000Y-182000000D01*
X177000000Y-188000000D01*
X171000000Y-188000000D01*
X171000000Y-182000000D01*
%TO.C,U424*%
X175000000Y-182000000D02*
X181000000Y-182000000D01*
X181000000Y-188000000D01*
X175000000Y-188000000D01*
X175000000Y-182000000D01*
%TO.C,U425*%
X239000000Y-182000000D02*
X245000000Y-182000000D01*
X245000000Y-188000000D01*
X239000000Y-188000000D01*
X239000000Y-182000000D01*
%TO.C,U426*%
X243000000Y-182000000D02*
X249000000Y-182000000D01*
X249000000Y-188000000D01*
X243000000Y-188000000D01*
X243000000Y-182000000D01*
%TO.C,U427*%
X247000000Y-182000000D02*
X253000000Y-182000000D01*
X253000000Y-188000000D01*
X247000000Y-188000000D01*
X247000000Y-182000000D01*
%TO.C,U428*%
X251000000Y-182000000D02*
X257000000Y-182000000D01*
X257000000Y-188000000D01*
X251000000Y-188000000D01*
X251000000Y-182000000D01*
%TO.C,U431*%
X192500000Y-132500000D02*
X197500000Y-132500000D01*
X197500000Y-137500000D01*
X192500000Y-137500000D01*
X192500000Y-132500000D01*
%TO.C,U432*%
X222500000Y-132500000D02*
X227500000Y-132500000D01*
X227500000Y-137500000D01*
X222500000Y-137500000D01*
X222500000Y-132500000D01*
%TO.C,U441*%
X172000000Y-138000000D02*
X178000000Y-138000000D01*
X178000000Y-142000000D01*
X172000000Y-142000000D01*
X172000000Y-138000000D01*
%TO.C,U442*%
X242000000Y-138000000D02*
X248000000Y-138000000D01*
X248000000Y-142000000D01*
X242000000Y-142000000D01*
X242000000Y-138000000D01*
%TO.C,U450*%
X201500000Y-271500000D02*
X218500000Y-271500000D01*
X218500000Y-288500000D01*
X201500000Y-288500000D01*
X201500000Y-271500000D01*
%TO.C,C_U0_T4_0*%
D10*
X155650000Y-159750000D02*
X156350000Y-159750000D01*
X156350000Y-160250000D01*
X155650000Y-160250000D01*
X155650000Y-159750000D01*
%TO.C,C_U0_T4_1*%
X156068095Y-163835425D02*
X155378729Y-163956979D01*
X155291905Y-163464575D01*
X155981271Y-163343021D01*
X156068095Y-163835425D01*
%TO.C,C_U0_T4_2*%
X155144397Y-167295216D02*
X154486613Y-167534630D01*
X154315603Y-167064784D01*
X154973387Y-166825370D01*
X155144397Y-167295216D01*
%TO.C,C_U0_T4_3*%
X153618109Y-170541506D02*
X153011891Y-170891506D01*
X152761891Y-170458494D01*
X153368109Y-170108494D01*
X153618109Y-170541506D01*
%TO.C,C_U0_T4_4*%
X151518812Y-173466535D02*
X150982581Y-173916487D01*
X150661188Y-173533465D01*
X151197419Y-173083513D01*
X151518812Y-173466535D01*
%TO.C,C_U0_T4_5*%
X148916487Y-175982581D02*
X148466535Y-176518812D01*
X148083513Y-176197419D01*
X148533465Y-175661188D01*
X148916487Y-175982581D01*
%TO.C,C_U0_T4_6*%
X145891506Y-178011891D02*
X145541506Y-178618109D01*
X145108494Y-178368109D01*
X145458494Y-177761891D01*
X145891506Y-178011891D01*
%TO.C,C_U0_T4_7*%
X142534630Y-179486613D02*
X142295216Y-180144397D01*
X141825370Y-179973387D01*
X142064784Y-179315603D01*
X142534630Y-179486613D01*
%TO.C,C_U0_T4_8*%
X138956979Y-180378729D02*
X138835425Y-181068095D01*
X138343021Y-180981271D01*
X138464575Y-180291905D01*
X138956979Y-180378729D01*
%TO.C,C_U0_T4_9*%
X134750000Y-181350000D02*
X135250000Y-181350000D01*
X135250000Y-180650000D01*
X134750000Y-180650000D01*
X134750000Y-181350000D01*
%TO.C,C_U0_T4_10*%
X131656979Y-180981271D02*
X131164575Y-181068095D01*
X131043021Y-180378729D01*
X131535425Y-180291905D01*
X131656979Y-180981271D01*
%TO.C,C_U0_T4_11*%
X128174630Y-179973387D02*
X127704784Y-180144397D01*
X127465370Y-179486613D01*
X127935216Y-179315603D01*
X128174630Y-179973387D01*
%TO.C,C_U0_T4_12*%
X124891506Y-178368109D02*
X124458494Y-178618109D01*
X124108494Y-178011891D01*
X124541506Y-177761891D01*
X124891506Y-178368109D01*
%TO.C,C_U0_T4_13*%
X121916487Y-176197419D02*
X121533465Y-176518812D01*
X121083513Y-175982581D01*
X121466535Y-175661188D01*
X121916487Y-176197419D01*
%TO.C,C_U0_T4_14*%
X119338812Y-173533465D02*
X119017419Y-173916487D01*
X118481188Y-173466535D01*
X118802581Y-173083513D01*
X119338812Y-173533465D01*
%TO.C,C_U0_T4_15*%
X117238109Y-170458494D02*
X116988109Y-170891506D01*
X116381891Y-170541506D01*
X116631891Y-170108494D01*
X117238109Y-170458494D01*
%TO.C,C_U0_T4_16*%
X115684397Y-167064784D02*
X115513387Y-167534630D01*
X114855603Y-167295216D01*
X115026613Y-166825370D01*
X115684397Y-167064784D01*
%TO.C,C_U0_T4_17*%
X114708095Y-163464575D02*
X114621271Y-163956979D01*
X113931905Y-163835425D01*
X114018729Y-163343021D01*
X114708095Y-163464575D01*
%TO.C,C_U0_T4_18*%
X114350000Y-160250000D02*
X113650000Y-160250000D01*
X113650000Y-159750000D01*
X114350000Y-159750000D01*
X114350000Y-160250000D01*
%TO.C,C_U0_T4_19*%
X114708095Y-156535425D02*
X114018729Y-156656979D01*
X113931905Y-156164575D01*
X114621271Y-156043021D01*
X114708095Y-156535425D01*
%TO.C,C_U0_T4_20*%
X115684397Y-152935216D02*
X115026613Y-153174630D01*
X114855603Y-152704784D01*
X115513387Y-152465370D01*
X115684397Y-152935216D01*
%TO.C,C_U0_T4_21*%
X117238109Y-149541506D02*
X116631891Y-149891506D01*
X116381891Y-149458494D01*
X116988109Y-149108494D01*
X117238109Y-149541506D01*
%TO.C,C_U0_T4_22*%
X119338812Y-146466535D02*
X118802581Y-146916487D01*
X118481188Y-146533465D01*
X119017419Y-146083513D01*
X119338812Y-146466535D01*
%TO.C,C_U0_T4_23*%
X121916487Y-143802581D02*
X121466535Y-144338812D01*
X121083513Y-144017419D01*
X121533465Y-143481188D01*
X121916487Y-143802581D01*
%TO.C,C_U0_T4_24*%
X124891506Y-141631891D02*
X124541506Y-142238109D01*
X124108494Y-141988109D01*
X124458494Y-141381891D01*
X124891506Y-141631891D01*
%TO.C,C_U0_T4_25*%
X128174630Y-140026613D02*
X127935216Y-140684397D01*
X127465370Y-140513387D01*
X127704784Y-139855603D01*
X128174630Y-140026613D01*
%TO.C,C_U0_T4_26*%
X131656979Y-139018729D02*
X131535425Y-139708095D01*
X131043021Y-139621271D01*
X131164575Y-138931905D01*
X131656979Y-139018729D01*
%TO.C,C_U0_T4_27*%
X135250000Y-138650000D02*
X134750000Y-138650000D01*
X134750000Y-139350000D01*
X135250000Y-139350000D01*
X135250000Y-138650000D01*
%TO.C,C_U0_T4_28*%
X138956979Y-139621271D02*
X138464575Y-139708095D01*
X138343021Y-139018729D01*
X138835425Y-138931905D01*
X138956979Y-139621271D01*
%TO.C,C_U0_T4_29*%
X142534630Y-140513387D02*
X142064784Y-140684397D01*
X141825370Y-140026613D01*
X142295216Y-139855603D01*
X142534630Y-140513387D01*
%TO.C,C_U0_T4_30*%
X145891506Y-141988109D02*
X145458494Y-142238109D01*
X145108494Y-141631891D01*
X145541506Y-141381891D01*
X145891506Y-141988109D01*
%TO.C,C_U0_T4_31*%
X148916487Y-144017419D02*
X148533465Y-144338812D01*
X148083513Y-143802581D01*
X148466535Y-143481188D01*
X148916487Y-144017419D01*
%TO.C,C_U0_T4_32*%
X151518812Y-146533465D02*
X151197419Y-146916487D01*
X150661188Y-146466535D01*
X150982581Y-146083513D01*
X151518812Y-146533465D01*
%TO.C,C_U0_T4_33*%
X153618109Y-149458494D02*
X153368109Y-149891506D01*
X152761891Y-149541506D01*
X153011891Y-149108494D01*
X153618109Y-149458494D01*
%TO.C,C_U0_T4_34*%
X155144397Y-152704784D02*
X154973387Y-153174630D01*
X154315603Y-152935216D01*
X154486613Y-152465370D01*
X155144397Y-152704784D01*
%TO.C,C_U0_T4_35*%
X156068095Y-156164575D02*
X155981271Y-156656979D01*
X155291905Y-156535425D01*
X155378729Y-156043021D01*
X156068095Y-156164575D01*
%TO.C,C_U0_T3_0*%
X151300000Y-159550000D02*
X152700000Y-159550000D01*
X152700000Y-160450000D01*
X151300000Y-160450000D01*
X151300000Y-159550000D01*
%TO.C,C_U0_T3_1*%
X150270000Y-165360000D02*
X151670000Y-165360000D01*
X151670000Y-166260000D01*
X150270000Y-166260000D01*
X150270000Y-165360000D01*
%TO.C,C_U0_T3_2*%
X147320000Y-170480000D02*
X148720000Y-170480000D01*
X148720000Y-171380000D01*
X147320000Y-171380000D01*
X147320000Y-170480000D01*
%TO.C,C_U0_T3_3*%
X142800000Y-174270000D02*
X144200000Y-174270000D01*
X144200000Y-175170000D01*
X142800000Y-175170000D01*
X142800000Y-174270000D01*
%TO.C,C_U0_T3_4*%
X137250000Y-176290000D02*
X138650000Y-176290000D01*
X138650000Y-177190000D01*
X137250000Y-177190000D01*
X137250000Y-176290000D01*
%TO.C,C_U0_T3_5*%
X131350000Y-176290000D02*
X132750000Y-176290000D01*
X132750000Y-177190000D01*
X131350000Y-177190000D01*
X131350000Y-176290000D01*
%TO.C,C_U0_T3_6*%
X125800000Y-174270000D02*
X127200000Y-174270000D01*
X127200000Y-175170000D01*
X125800000Y-175170000D01*
X125800000Y-174270000D01*
%TO.C,C_U0_T3_7*%
X121280000Y-170480000D02*
X122680000Y-170480000D01*
X122680000Y-171380000D01*
X121280000Y-171380000D01*
X121280000Y-170480000D01*
%TO.C,C_U0_T3_8*%
X118330000Y-165360000D02*
X119730000Y-165360000D01*
X119730000Y-166260000D01*
X118330000Y-166260000D01*
X118330000Y-165360000D01*
%TO.C,C_U0_T3_9*%
X117300000Y-159550000D02*
X118700000Y-159550000D01*
X118700000Y-160450000D01*
X117300000Y-160450000D01*
X117300000Y-159550000D01*
%TO.C,C_U0_T3_10*%
X118330000Y-153740000D02*
X119730000Y-153740000D01*
X119730000Y-154640000D01*
X118330000Y-154640000D01*
X118330000Y-153740000D01*
%TO.C,C_U0_T3_11*%
X121280000Y-148620000D02*
X122680000Y-148620000D01*
X122680000Y-149520000D01*
X121280000Y-149520000D01*
X121280000Y-148620000D01*
%TO.C,C_U0_T3_12*%
X125800000Y-144830000D02*
X127200000Y-144830000D01*
X127200000Y-145730000D01*
X125800000Y-145730000D01*
X125800000Y-144830000D01*
%TO.C,C_U0_T3_13*%
X131350000Y-142810000D02*
X132750000Y-142810000D01*
X132750000Y-143710000D01*
X131350000Y-143710000D01*
X131350000Y-142810000D01*
%TO.C,C_U0_T3_14*%
X137250000Y-142810000D02*
X138650000Y-142810000D01*
X138650000Y-143710000D01*
X137250000Y-143710000D01*
X137250000Y-142810000D01*
%TO.C,C_U0_T3_15*%
X142800000Y-144830000D02*
X144200000Y-144830000D01*
X144200000Y-145730000D01*
X142800000Y-145730000D01*
X142800000Y-144830000D01*
%TO.C,C_U0_T3_16*%
X147320000Y-148620000D02*
X148720000Y-148620000D01*
X148720000Y-149520000D01*
X147320000Y-149520000D01*
X147320000Y-148620000D01*
%TO.C,C_U0_T3_17*%
X150270000Y-153740000D02*
X151670000Y-153740000D01*
X151670000Y-154640000D01*
X150270000Y-154640000D01*
X150270000Y-153740000D01*
%TO.C,C_U1_T4_0*%
X305650000Y-159750000D02*
X306350000Y-159750000D01*
X306350000Y-160250000D01*
X305650000Y-160250000D01*
X305650000Y-159750000D01*
%TO.C,C_U1_T4_1*%
X306068095Y-163835425D02*
X305378729Y-163956979D01*
X305291905Y-163464575D01*
X305981271Y-163343021D01*
X306068095Y-163835425D01*
%TO.C,C_U1_T4_2*%
X305144397Y-167295216D02*
X304486613Y-167534630D01*
X304315603Y-167064784D01*
X304973387Y-166825370D01*
X305144397Y-167295216D01*
%TO.C,C_U1_T4_3*%
X303618109Y-170541506D02*
X303011891Y-170891506D01*
X302761891Y-170458494D01*
X303368109Y-170108494D01*
X303618109Y-170541506D01*
%TO.C,C_U1_T4_4*%
X301518812Y-173466535D02*
X300982581Y-173916487D01*
X300661188Y-173533465D01*
X301197419Y-173083513D01*
X301518812Y-173466535D01*
%TO.C,C_U1_T4_5*%
X298916487Y-175982581D02*
X298466535Y-176518812D01*
X298083513Y-176197419D01*
X298533465Y-175661188D01*
X298916487Y-175982581D01*
%TO.C,C_U1_T4_6*%
X295891506Y-178011891D02*
X295541506Y-178618109D01*
X295108494Y-178368109D01*
X295458494Y-177761891D01*
X295891506Y-178011891D01*
%TO.C,C_U1_T4_7*%
X292534630Y-179486613D02*
X292295216Y-180144397D01*
X291825370Y-179973387D01*
X292064784Y-179315603D01*
X292534630Y-179486613D01*
%TO.C,C_U1_T4_8*%
X288956979Y-180378729D02*
X288835425Y-181068095D01*
X288343021Y-180981271D01*
X288464575Y-180291905D01*
X288956979Y-180378729D01*
%TO.C,C_U1_T4_9*%
X284750000Y-181350000D02*
X285250000Y-181350000D01*
X285250000Y-180650000D01*
X284750000Y-180650000D01*
X284750000Y-181350000D01*
%TO.C,C_U1_T4_10*%
X281656979Y-180981271D02*
X281164575Y-181068095D01*
X281043021Y-180378729D01*
X281535425Y-180291905D01*
X281656979Y-180981271D01*
%TO.C,C_U1_T4_11*%
X278174630Y-179973387D02*
X277704784Y-180144397D01*
X277465370Y-179486613D01*
X277935216Y-179315603D01*
X278174630Y-179973387D01*
%TO.C,C_U1_T4_12*%
X274891506Y-178368109D02*
X274458494Y-178618109D01*
X274108494Y-178011891D01*
X274541506Y-177761891D01*
X274891506Y-178368109D01*
%TO.C,C_U1_T4_13*%
X271916487Y-176197419D02*
X271533465Y-176518812D01*
X271083513Y-175982581D01*
X271466535Y-175661188D01*
X271916487Y-176197419D01*
%TO.C,C_U1_T4_14*%
X269338812Y-173533465D02*
X269017419Y-173916487D01*
X268481188Y-173466535D01*
X268802581Y-173083513D01*
X269338812Y-173533465D01*
%TO.C,C_U1_T4_15*%
X267238109Y-170458494D02*
X266988109Y-170891506D01*
X266381891Y-170541506D01*
X266631891Y-170108494D01*
X267238109Y-170458494D01*
%TO.C,C_U1_T4_16*%
X265684397Y-167064784D02*
X265513387Y-167534630D01*
X264855603Y-167295216D01*
X265026613Y-166825370D01*
X265684397Y-167064784D01*
%TO.C,C_U1_T4_17*%
X264708095Y-163464575D02*
X264621271Y-163956979D01*
X263931905Y-163835425D01*
X264018729Y-163343021D01*
X264708095Y-163464575D01*
%TO.C,C_U1_T4_18*%
X264350000Y-160250000D02*
X263650000Y-160250000D01*
X263650000Y-159750000D01*
X264350000Y-159750000D01*
X264350000Y-160250000D01*
%TO.C,C_U1_T4_19*%
X264708095Y-156535425D02*
X264018729Y-156656979D01*
X263931905Y-156164575D01*
X264621271Y-156043021D01*
X264708095Y-156535425D01*
%TO.C,C_U1_T4_20*%
X265684397Y-152935216D02*
X265026613Y-153174630D01*
X264855603Y-152704784D01*
X265513387Y-152465370D01*
X265684397Y-152935216D01*
%TO.C,C_U1_T4_21*%
X267238109Y-149541506D02*
X266631891Y-149891506D01*
X266381891Y-149458494D01*
X266988109Y-149108494D01*
X267238109Y-149541506D01*
%TO.C,C_U1_T4_22*%
X269338812Y-146466535D02*
X268802581Y-146916487D01*
X268481188Y-146533465D01*
X269017419Y-146083513D01*
X269338812Y-146466535D01*
%TO.C,C_U1_T4_23*%
X271916487Y-143802581D02*
X271466535Y-144338812D01*
X271083513Y-144017419D01*
X271533465Y-143481188D01*
X271916487Y-143802581D01*
%TO.C,C_U1_T4_24*%
X274891506Y-141631891D02*
X274541506Y-142238109D01*
X274108494Y-141988109D01*
X274458494Y-141381891D01*
X274891506Y-141631891D01*
%TO.C,C_U1_T4_25*%
X278174630Y-140026613D02*
X277935216Y-140684397D01*
X277465370Y-140513387D01*
X277704784Y-139855603D01*
X278174630Y-140026613D01*
%TO.C,C_U1_T4_26*%
X281656979Y-139018729D02*
X281535425Y-139708095D01*
X281043021Y-139621271D01*
X281164575Y-138931905D01*
X281656979Y-139018729D01*
%TO.C,C_U1_T4_27*%
X285250000Y-138650000D02*
X284750000Y-138650000D01*
X284750000Y-139350000D01*
X285250000Y-139350000D01*
X285250000Y-138650000D01*
%TO.C,C_U1_T4_28*%
X288956979Y-139621271D02*
X288464575Y-139708095D01*
X288343021Y-139018729D01*
X288835425Y-138931905D01*
X288956979Y-139621271D01*
%TO.C,C_U1_T4_29*%
X292534630Y-140513387D02*
X292064784Y-140684397D01*
X291825370Y-140026613D01*
X292295216Y-139855603D01*
X292534630Y-140513387D01*
%TO.C,C_U1_T4_30*%
X295891506Y-141988109D02*
X295458494Y-142238109D01*
X295108494Y-141631891D01*
X295541506Y-141381891D01*
X295891506Y-141988109D01*
%TO.C,C_U1_T4_31*%
X298916487Y-144017419D02*
X298533465Y-144338812D01*
X298083513Y-143802581D01*
X298466535Y-143481188D01*
X298916487Y-144017419D01*
%TO.C,C_U1_T4_32*%
X301518812Y-146533465D02*
X301197419Y-146916487D01*
X300661188Y-146466535D01*
X300982581Y-146083513D01*
X301518812Y-146533465D01*
%TO.C,C_U1_T4_33*%
X303618109Y-149458494D02*
X303368109Y-149891506D01*
X302761891Y-149541506D01*
X303011891Y-149108494D01*
X303618109Y-149458494D01*
%TO.C,C_U1_T4_34*%
X305144397Y-152704784D02*
X304973387Y-153174630D01*
X304315603Y-152935216D01*
X304486613Y-152465370D01*
X305144397Y-152704784D01*
%TO.C,C_U1_T4_35*%
X306068095Y-156164575D02*
X305981271Y-156656979D01*
X305291905Y-156535425D01*
X305378729Y-156043021D01*
X306068095Y-156164575D01*
%TO.C,C_U1_T3_0*%
X301300000Y-159550000D02*
X302700000Y-159550000D01*
X302700000Y-160450000D01*
X301300000Y-160450000D01*
X301300000Y-159550000D01*
%TO.C,C_U1_T3_1*%
X300270000Y-165360000D02*
X301670000Y-165360000D01*
X301670000Y-166260000D01*
X300270000Y-166260000D01*
X300270000Y-165360000D01*
%TO.C,C_U1_T3_2*%
X297320000Y-170480000D02*
X298720000Y-170480000D01*
X298720000Y-171380000D01*
X297320000Y-171380000D01*
X297320000Y-170480000D01*
%TO.C,C_U1_T3_3*%
X292800000Y-174270000D02*
X294200000Y-174270000D01*
X294200000Y-175170000D01*
X292800000Y-175170000D01*
X292800000Y-174270000D01*
%TO.C,C_U1_T3_4*%
X287250000Y-176290000D02*
X288650000Y-176290000D01*
X288650000Y-177190000D01*
X287250000Y-177190000D01*
X287250000Y-176290000D01*
%TO.C,C_U1_T3_5*%
X281350000Y-176290000D02*
X282750000Y-176290000D01*
X282750000Y-177190000D01*
X281350000Y-177190000D01*
X281350000Y-176290000D01*
%TO.C,C_U1_T3_6*%
X275800000Y-174270000D02*
X277200000Y-174270000D01*
X277200000Y-175170000D01*
X275800000Y-175170000D01*
X275800000Y-174270000D01*
%TO.C,C_U1_T3_7*%
X271280000Y-170480000D02*
X272680000Y-170480000D01*
X272680000Y-171380000D01*
X271280000Y-171380000D01*
X271280000Y-170480000D01*
%TO.C,C_U1_T3_8*%
X268330000Y-165360000D02*
X269730000Y-165360000D01*
X269730000Y-166260000D01*
X268330000Y-166260000D01*
X268330000Y-165360000D01*
%TO.C,C_U1_T3_9*%
X267300000Y-159550000D02*
X268700000Y-159550000D01*
X268700000Y-160450000D01*
X267300000Y-160450000D01*
X267300000Y-159550000D01*
%TO.C,C_U1_T3_10*%
X268330000Y-153740000D02*
X269730000Y-153740000D01*
X269730000Y-154640000D01*
X268330000Y-154640000D01*
X268330000Y-153740000D01*
%TO.C,C_U1_T3_11*%
X271280000Y-148620000D02*
X272680000Y-148620000D01*
X272680000Y-149520000D01*
X271280000Y-149520000D01*
X271280000Y-148620000D01*
%TO.C,C_U1_T3_12*%
X275800000Y-144830000D02*
X277200000Y-144830000D01*
X277200000Y-145730000D01*
X275800000Y-145730000D01*
X275800000Y-144830000D01*
%TO.C,C_U1_T3_13*%
X281350000Y-142810000D02*
X282750000Y-142810000D01*
X282750000Y-143710000D01*
X281350000Y-143710000D01*
X281350000Y-142810000D01*
%TO.C,C_U1_T3_14*%
X287250000Y-142810000D02*
X288650000Y-142810000D01*
X288650000Y-143710000D01*
X287250000Y-143710000D01*
X287250000Y-142810000D01*
%TO.C,C_U1_T3_15*%
X292800000Y-144830000D02*
X294200000Y-144830000D01*
X294200000Y-145730000D01*
X292800000Y-145730000D01*
X292800000Y-144830000D01*
%TO.C,C_U1_T3_16*%
X297320000Y-148620000D02*
X298720000Y-148620000D01*
X298720000Y-149520000D01*
X297320000Y-149520000D01*
X297320000Y-148620000D01*
%TO.C,C_U1_T3_17*%
X300270000Y-153740000D02*
X301670000Y-153740000D01*
X301670000Y-154640000D01*
X300270000Y-154640000D01*
X300270000Y-153740000D01*
%TO.C,J1*%
X167000000Y-340000000D02*
X253000000Y-340000000D01*
X253000000Y-346000000D01*
X167000000Y-346000000D01*
X167000000Y-340000000D01*
%TO.C,J10*%
X1500000Y-27500000D02*
X14500000Y-27500000D01*
X14500000Y-32500000D01*
X1500000Y-32500000D01*
X1500000Y-27500000D01*
%TO.C,J11*%
X1500000Y-32300000D02*
X14500000Y-32300000D01*
X14500000Y-37300000D01*
X1500000Y-37300000D01*
X1500000Y-32300000D01*
%TO.C,J12*%
X1500000Y-37100000D02*
X14500000Y-37100000D01*
X14500000Y-42100000D01*
X1500000Y-42100000D01*
X1500000Y-37100000D01*
%TO.C,J13*%
X1500000Y-41900000D02*
X14500000Y-41900000D01*
X14500000Y-46900000D01*
X1500000Y-46900000D01*
X1500000Y-41900000D01*
%TO.C,J14*%
X1500000Y-46700000D02*
X14500000Y-46700000D01*
X14500000Y-51700000D01*
X1500000Y-51700000D01*
X1500000Y-46700000D01*
%TO.C,J15*%
X1500000Y-51500000D02*
X14500000Y-51500000D01*
X14500000Y-56500000D01*
X1500000Y-56500000D01*
X1500000Y-51500000D01*
%TO.C,J16*%
X1500000Y-56300000D02*
X14500000Y-56300000D01*
X14500000Y-61300000D01*
X1500000Y-61300000D01*
X1500000Y-56300000D01*
%TO.C,J17*%
X1500000Y-61100000D02*
X14500000Y-61100000D01*
X14500000Y-66100000D01*
X1500000Y-66100000D01*
X1500000Y-61100000D01*
%TO.C,J18*%
X1500000Y-65900000D02*
X14500000Y-65900000D01*
X14500000Y-70900000D01*
X1500000Y-70900000D01*
X1500000Y-65900000D01*
%TO.C,J19*%
X1500000Y-70700000D02*
X14500000Y-70700000D01*
X14500000Y-75700000D01*
X1500000Y-75700000D01*
X1500000Y-70700000D01*
%TO.C,J20*%
X1500000Y-75500000D02*
X14500000Y-75500000D01*
X14500000Y-80500000D01*
X1500000Y-80500000D01*
X1500000Y-75500000D01*
%TO.C,J21*%
X1500000Y-80300000D02*
X14500000Y-80300000D01*
X14500000Y-85300000D01*
X1500000Y-85300000D01*
X1500000Y-80300000D01*
%TO.C,J22*%
X1500000Y-85100000D02*
X14500000Y-85100000D01*
X14500000Y-90100000D01*
X1500000Y-90100000D01*
X1500000Y-85100000D01*
%TO.C,J23*%
X1500000Y-89900000D02*
X14500000Y-89900000D01*
X14500000Y-94900000D01*
X1500000Y-94900000D01*
X1500000Y-89900000D01*
%TO.C,J24*%
X1500000Y-94700000D02*
X14500000Y-94700000D01*
X14500000Y-99700000D01*
X1500000Y-99700000D01*
X1500000Y-94700000D01*
%TO.C,J25*%
X1500000Y-99500000D02*
X14500000Y-99500000D01*
X14500000Y-104500000D01*
X1500000Y-104500000D01*
X1500000Y-99500000D01*
%TO.C,J26*%
X1500000Y-104300000D02*
X14500000Y-104300000D01*
X14500000Y-109300000D01*
X1500000Y-109300000D01*
X1500000Y-104300000D01*
%TO.C,J27*%
X1500000Y-109100000D02*
X14500000Y-109100000D01*
X14500000Y-114100000D01*
X1500000Y-114100000D01*
X1500000Y-109100000D01*
%TO.C,J28*%
X1500000Y-113900000D02*
X14500000Y-113900000D01*
X14500000Y-118900000D01*
X1500000Y-118900000D01*
X1500000Y-113900000D01*
%TO.C,J29*%
X1500000Y-118700000D02*
X14500000Y-118700000D01*
X14500000Y-123700000D01*
X1500000Y-123700000D01*
X1500000Y-118700000D01*
%TO.C,J30*%
X1500000Y-123500000D02*
X14500000Y-123500000D01*
X14500000Y-128500000D01*
X1500000Y-128500000D01*
X1500000Y-123500000D01*
%TO.C,J31*%
X1500000Y-128300000D02*
X14500000Y-128300000D01*
X14500000Y-133300000D01*
X1500000Y-133300000D01*
X1500000Y-128300000D01*
%TO.C,J32*%
X1500000Y-133100000D02*
X14500000Y-133100000D01*
X14500000Y-138100000D01*
X1500000Y-138100000D01*
X1500000Y-133100000D01*
%TO.C,J33*%
X1500000Y-137900000D02*
X14500000Y-137900000D01*
X14500000Y-142900000D01*
X1500000Y-142900000D01*
X1500000Y-137900000D01*
%TO.C,J34*%
X1500000Y-142700000D02*
X14500000Y-142700000D01*
X14500000Y-147700000D01*
X1500000Y-147700000D01*
X1500000Y-142700000D01*
%TO.C,J35*%
X1500000Y-147500000D02*
X14500000Y-147500000D01*
X14500000Y-152500000D01*
X1500000Y-152500000D01*
X1500000Y-147500000D01*
%TO.C,J36*%
X1500000Y-152300000D02*
X14500000Y-152300000D01*
X14500000Y-157300000D01*
X1500000Y-157300000D01*
X1500000Y-152300000D01*
%TO.C,J37*%
X1500000Y-157100000D02*
X14500000Y-157100000D01*
X14500000Y-162100000D01*
X1500000Y-162100000D01*
X1500000Y-157100000D01*
%TO.C,J38*%
X1500000Y-161900000D02*
X14500000Y-161900000D01*
X14500000Y-166900000D01*
X1500000Y-166900000D01*
X1500000Y-161900000D01*
%TO.C,J39*%
X1500000Y-166700000D02*
X14500000Y-166700000D01*
X14500000Y-171700000D01*
X1500000Y-171700000D01*
X1500000Y-166700000D01*
%TO.C,J40*%
X1500000Y-171500000D02*
X14500000Y-171500000D01*
X14500000Y-176500000D01*
X1500000Y-176500000D01*
X1500000Y-171500000D01*
%TO.C,J41*%
X1500000Y-176300000D02*
X14500000Y-176300000D01*
X14500000Y-181300000D01*
X1500000Y-181300000D01*
X1500000Y-176300000D01*
%TO.C,J42*%
X1500000Y-181100000D02*
X14500000Y-181100000D01*
X14500000Y-186100000D01*
X1500000Y-186100000D01*
X1500000Y-181100000D01*
%TO.C,J43*%
X1500000Y-185900000D02*
X14500000Y-185900000D01*
X14500000Y-190900000D01*
X1500000Y-190900000D01*
X1500000Y-185900000D01*
%TO.C,J44*%
X1500000Y-190700000D02*
X14500000Y-190700000D01*
X14500000Y-195700000D01*
X1500000Y-195700000D01*
X1500000Y-190700000D01*
%TO.C,J45*%
X1500000Y-195500000D02*
X14500000Y-195500000D01*
X14500000Y-200500000D01*
X1500000Y-200500000D01*
X1500000Y-195500000D01*
%TO.C,J46*%
X1500000Y-200300000D02*
X14500000Y-200300000D01*
X14500000Y-205300000D01*
X1500000Y-205300000D01*
X1500000Y-200300000D01*
%TO.C,J47*%
X1500000Y-205100000D02*
X14500000Y-205100000D01*
X14500000Y-210100000D01*
X1500000Y-210100000D01*
X1500000Y-205100000D01*
%TO.C,J48*%
X1500000Y-209900000D02*
X14500000Y-209900000D01*
X14500000Y-214900000D01*
X1500000Y-214900000D01*
X1500000Y-209900000D01*
%TO.C,J49*%
X1500000Y-214700000D02*
X14500000Y-214700000D01*
X14500000Y-219700000D01*
X1500000Y-219700000D01*
X1500000Y-214700000D01*
%TO.C,J50*%
X1500000Y-219500000D02*
X14500000Y-219500000D01*
X14500000Y-224500000D01*
X1500000Y-224500000D01*
X1500000Y-219500000D01*
%TO.C,J51*%
X1500000Y-224300000D02*
X14500000Y-224300000D01*
X14500000Y-229300000D01*
X1500000Y-229300000D01*
X1500000Y-224300000D01*
%TO.C,J52*%
X1500000Y-229100000D02*
X14500000Y-229100000D01*
X14500000Y-234100000D01*
X1500000Y-234100000D01*
X1500000Y-229100000D01*
%TO.C,J53*%
X1500000Y-233900000D02*
X14500000Y-233900000D01*
X14500000Y-238900000D01*
X1500000Y-238900000D01*
X1500000Y-233900000D01*
%TO.C,J54*%
X1500000Y-238700000D02*
X14500000Y-238700000D01*
X14500000Y-243700000D01*
X1500000Y-243700000D01*
X1500000Y-238700000D01*
%TO.C,J55*%
X1500000Y-243500000D02*
X14500000Y-243500000D01*
X14500000Y-248500000D01*
X1500000Y-248500000D01*
X1500000Y-243500000D01*
%TO.C,J56*%
X1500000Y-248300000D02*
X14500000Y-248300000D01*
X14500000Y-253300000D01*
X1500000Y-253300000D01*
X1500000Y-248300000D01*
%TO.C,J57*%
X1500000Y-253100000D02*
X14500000Y-253100000D01*
X14500000Y-258100000D01*
X1500000Y-258100000D01*
X1500000Y-253100000D01*
%TO.C,J58*%
X1500000Y-257900000D02*
X14500000Y-257900000D01*
X14500000Y-262900000D01*
X1500000Y-262900000D01*
X1500000Y-257900000D01*
%TO.C,J59*%
X1500000Y-262700000D02*
X14500000Y-262700000D01*
X14500000Y-267700000D01*
X1500000Y-267700000D01*
X1500000Y-262700000D01*
%TO.C,J60*%
X1500000Y-267500000D02*
X14500000Y-267500000D01*
X14500000Y-272500000D01*
X1500000Y-272500000D01*
X1500000Y-267500000D01*
%TO.C,J61*%
X1500000Y-272300000D02*
X14500000Y-272300000D01*
X14500000Y-277300000D01*
X1500000Y-277300000D01*
X1500000Y-272300000D01*
%TO.C,J62*%
X1500000Y-277100000D02*
X14500000Y-277100000D01*
X14500000Y-282100000D01*
X1500000Y-282100000D01*
X1500000Y-277100000D01*
%TO.C,J63*%
X1500000Y-281900000D02*
X14500000Y-281900000D01*
X14500000Y-286900000D01*
X1500000Y-286900000D01*
X1500000Y-281900000D01*
%TO.C,J64*%
X1500000Y-286700000D02*
X14500000Y-286700000D01*
X14500000Y-291700000D01*
X1500000Y-291700000D01*
X1500000Y-286700000D01*
%TO.C,J65*%
X1500000Y-291500000D02*
X14500000Y-291500000D01*
X14500000Y-296500000D01*
X1500000Y-296500000D01*
X1500000Y-291500000D01*
%TO.C,J66*%
X1500000Y-296300000D02*
X14500000Y-296300000D01*
X14500000Y-301300000D01*
X1500000Y-301300000D01*
X1500000Y-296300000D01*
%TO.C,J67*%
X1500000Y-301100000D02*
X14500000Y-301100000D01*
X14500000Y-306100000D01*
X1500000Y-306100000D01*
X1500000Y-301100000D01*
%TO.C,J68*%
X1500000Y-305900000D02*
X14500000Y-305900000D01*
X14500000Y-310900000D01*
X1500000Y-310900000D01*
X1500000Y-305900000D01*
%TO.C,J69*%
X1500000Y-310700000D02*
X14500000Y-310700000D01*
X14500000Y-315700000D01*
X1500000Y-315700000D01*
X1500000Y-310700000D01*
%TO.C,J70*%
X1500000Y-315500000D02*
X14500000Y-315500000D01*
X14500000Y-320500000D01*
X1500000Y-320500000D01*
X1500000Y-315500000D01*
%TO.C,J71*%
X1500000Y-320300000D02*
X14500000Y-320300000D01*
X14500000Y-325300000D01*
X1500000Y-325300000D01*
X1500000Y-320300000D01*
%TO.C,J72*%
X1500000Y-325100000D02*
X14500000Y-325100000D01*
X14500000Y-330100000D01*
X1500000Y-330100000D01*
X1500000Y-325100000D01*
%TO.C,J73*%
X1500000Y-329900000D02*
X14500000Y-329900000D01*
X14500000Y-334900000D01*
X1500000Y-334900000D01*
X1500000Y-329900000D01*
%TO.C,J2*%
X381500000Y-23500000D02*
X398500000Y-23500000D01*
X398500000Y-36500000D01*
X381500000Y-36500000D01*
X381500000Y-23500000D01*
%TO.C,J3*%
X381500000Y-53500000D02*
X398500000Y-53500000D01*
X398500000Y-66500000D01*
X381500000Y-66500000D01*
X381500000Y-53500000D01*
%TD*%
M02*
