%TF.GenerationSoftware,KiCad,Pcbnew,8.0.9-8.0.9-0~ubuntu22.04.1*%
%TF.CreationDate,2026-06-20T21:10:33+00:00*%
%TF.ProjectId,LightRail_LPO_1.6T,4c696768-7452-4616-996c-5f4c504f5f31,rev?*%
%TF.SameCoordinates,Original*%
%TF.FileFunction,Paste,Bot*%
%TF.FilePolarity,Positive*%
%FSLAX46Y46*%
G04 Gerber Fmt 4.6, Leading zero omitted, Abs format (unit mm)*
G04 Created by KiCad (PCBNEW 8.0.9-8.0.9-0~ubuntu22.04.1) date 2026-06-20 21:10:33*
%MOMM*%
%LPD*%
G01*
G04 APERTURE LIST*
%ADD10R,5.800000X5.800000*%
%ADD11R,0.600000X1.000000*%
%ADD12R,0.600000X0.800000*%
%ADD13R,0.800000X1.200000*%
%ADD14R,0.250000X0.350000*%
G04 APERTURE END LIST*
D10*
%TO.C,U326*%
X80000000Y-195000000D03*
D11*
X76500000Y-190500000D03*
X77500000Y-190500000D03*
X78500000Y-190500000D03*
X79500000Y-190500000D03*
X80500000Y-190500000D03*
X81500000Y-190500000D03*
X82500000Y-190500000D03*
X83500000Y-190500000D03*
X76500000Y-199500000D03*
X77500000Y-199500000D03*
X78500000Y-199500000D03*
X79500000Y-199500000D03*
X80500000Y-199500000D03*
X81500000Y-199500000D03*
X82500000Y-199500000D03*
X83500000Y-199500000D03*
%TD*%
D10*
%TO.C,U327*%
X90000000Y-195000000D03*
D11*
X86500000Y-190500000D03*
X87500000Y-190500000D03*
X88500000Y-190500000D03*
X89500000Y-190500000D03*
X90500000Y-190500000D03*
X91500000Y-190500000D03*
X92500000Y-190500000D03*
X93500000Y-190500000D03*
X86500000Y-199500000D03*
X87500000Y-199500000D03*
X88500000Y-199500000D03*
X89500000Y-199500000D03*
X90500000Y-199500000D03*
X91500000Y-199500000D03*
X92500000Y-199500000D03*
X93500000Y-199500000D03*
%TD*%
D10*
%TO.C,U328*%
X100000000Y-195000000D03*
D11*
X96500000Y-190500000D03*
X97500000Y-190500000D03*
X98500000Y-190500000D03*
X99500000Y-190500000D03*
X100500000Y-190500000D03*
X101500000Y-190500000D03*
X102500000Y-190500000D03*
X103500000Y-190500000D03*
X96500000Y-199500000D03*
X97500000Y-199500000D03*
X98500000Y-199500000D03*
X99500000Y-199500000D03*
X100500000Y-199500000D03*
X101500000Y-199500000D03*
X102500000Y-199500000D03*
X103500000Y-199500000D03*
%TD*%
D10*
%TO.C,U329*%
X110000000Y-195000000D03*
D11*
X106500000Y-190500000D03*
X107500000Y-190500000D03*
X108500000Y-190500000D03*
X109500000Y-190500000D03*
X110500000Y-190500000D03*
X111500000Y-190500000D03*
X112500000Y-190500000D03*
X113500000Y-190500000D03*
X106500000Y-199500000D03*
X107500000Y-199500000D03*
X108500000Y-199500000D03*
X109500000Y-199500000D03*
X110500000Y-199500000D03*
X111500000Y-199500000D03*
X112500000Y-199500000D03*
X113500000Y-199500000D03*
%TD*%
D10*
%TO.C,U330*%
X120000000Y-195000000D03*
D11*
X116500000Y-190500000D03*
X117500000Y-190500000D03*
X118500000Y-190500000D03*
X119500000Y-190500000D03*
X120500000Y-190500000D03*
X121500000Y-190500000D03*
X122500000Y-190500000D03*
X123500000Y-190500000D03*
X116500000Y-199500000D03*
X117500000Y-199500000D03*
X118500000Y-199500000D03*
X119500000Y-199500000D03*
X120500000Y-199500000D03*
X121500000Y-199500000D03*
X122500000Y-199500000D03*
X123500000Y-199500000D03*
%TD*%
D10*
%TO.C,U331*%
X130000000Y-195000000D03*
D11*
X126500000Y-190500000D03*
X127500000Y-190500000D03*
X128500000Y-190500000D03*
X129500000Y-190500000D03*
X130500000Y-190500000D03*
X131500000Y-190500000D03*
X132500000Y-190500000D03*
X133500000Y-190500000D03*
X126500000Y-199500000D03*
X127500000Y-199500000D03*
X128500000Y-199500000D03*
X129500000Y-199500000D03*
X130500000Y-199500000D03*
X131500000Y-199500000D03*
X132500000Y-199500000D03*
X133500000Y-199500000D03*
%TD*%
D10*
%TO.C,U332*%
X140000000Y-195000000D03*
D11*
X136500000Y-190500000D03*
X137500000Y-190500000D03*
X138500000Y-190500000D03*
X139500000Y-190500000D03*
X140500000Y-190500000D03*
X141500000Y-190500000D03*
X142500000Y-190500000D03*
X143500000Y-190500000D03*
X136500000Y-199500000D03*
X137500000Y-199500000D03*
X138500000Y-199500000D03*
X139500000Y-199500000D03*
X140500000Y-199500000D03*
X141500000Y-199500000D03*
X142500000Y-199500000D03*
X143500000Y-199500000D03*
%TD*%
D10*
%TO.C,U333*%
X150000000Y-195000000D03*
D11*
X146500000Y-190500000D03*
X147500000Y-190500000D03*
X148500000Y-190500000D03*
X149500000Y-190500000D03*
X150500000Y-190500000D03*
X151500000Y-190500000D03*
X152500000Y-190500000D03*
X153500000Y-190500000D03*
X146500000Y-199500000D03*
X147500000Y-199500000D03*
X148500000Y-199500000D03*
X149500000Y-199500000D03*
X150500000Y-199500000D03*
X151500000Y-199500000D03*
X152500000Y-199500000D03*
X153500000Y-199500000D03*
%TD*%
D10*
%TO.C,U334*%
X160000000Y-195000000D03*
D11*
X156500000Y-190500000D03*
X157500000Y-190500000D03*
X158500000Y-190500000D03*
X159500000Y-190500000D03*
X160500000Y-190500000D03*
X161500000Y-190500000D03*
X162500000Y-190500000D03*
X163500000Y-190500000D03*
X156500000Y-199500000D03*
X157500000Y-199500000D03*
X158500000Y-199500000D03*
X159500000Y-199500000D03*
X160500000Y-199500000D03*
X161500000Y-199500000D03*
X162500000Y-199500000D03*
X163500000Y-199500000D03*
%TD*%
D10*
%TO.C,U335*%
X170000000Y-195000000D03*
D11*
X166500000Y-190500000D03*
X167500000Y-190500000D03*
X168500000Y-190500000D03*
X169500000Y-190500000D03*
X170500000Y-190500000D03*
X171500000Y-190500000D03*
X172500000Y-190500000D03*
X173500000Y-190500000D03*
X166500000Y-199500000D03*
X167500000Y-199500000D03*
X168500000Y-199500000D03*
X169500000Y-199500000D03*
X170500000Y-199500000D03*
X171500000Y-199500000D03*
X172500000Y-199500000D03*
X173500000Y-199500000D03*
%TD*%
D10*
%TO.C,U336*%
X180000000Y-195000000D03*
D11*
X176500000Y-190500000D03*
X177500000Y-190500000D03*
X178500000Y-190500000D03*
X179500000Y-190500000D03*
X180500000Y-190500000D03*
X181500000Y-190500000D03*
X182500000Y-190500000D03*
X183500000Y-190500000D03*
X176500000Y-199500000D03*
X177500000Y-199500000D03*
X178500000Y-199500000D03*
X179500000Y-199500000D03*
X180500000Y-199500000D03*
X181500000Y-199500000D03*
X182500000Y-199500000D03*
X183500000Y-199500000D03*
%TD*%
D10*
%TO.C,U337*%
X190000000Y-195000000D03*
D11*
X186500000Y-190500000D03*
X187500000Y-190500000D03*
X188500000Y-190500000D03*
X189500000Y-190500000D03*
X190500000Y-190500000D03*
X191500000Y-190500000D03*
X192500000Y-190500000D03*
X193500000Y-190500000D03*
X186500000Y-199500000D03*
X187500000Y-199500000D03*
X188500000Y-199500000D03*
X189500000Y-199500000D03*
X190500000Y-199500000D03*
X191500000Y-199500000D03*
X192500000Y-199500000D03*
X193500000Y-199500000D03*
%TD*%
D10*
%TO.C,U338*%
X230000000Y-195000000D03*
D11*
X226500000Y-190500000D03*
X227500000Y-190500000D03*
X228500000Y-190500000D03*
X229500000Y-190500000D03*
X230500000Y-190500000D03*
X231500000Y-190500000D03*
X232500000Y-190500000D03*
X233500000Y-190500000D03*
X226500000Y-199500000D03*
X227500000Y-199500000D03*
X228500000Y-199500000D03*
X229500000Y-199500000D03*
X230500000Y-199500000D03*
X231500000Y-199500000D03*
X232500000Y-199500000D03*
X233500000Y-199500000D03*
%TD*%
D10*
%TO.C,U339*%
X240000000Y-195000000D03*
D11*
X236500000Y-190500000D03*
X237500000Y-190500000D03*
X238500000Y-190500000D03*
X239500000Y-190500000D03*
X240500000Y-190500000D03*
X241500000Y-190500000D03*
X242500000Y-190500000D03*
X243500000Y-190500000D03*
X236500000Y-199500000D03*
X237500000Y-199500000D03*
X238500000Y-199500000D03*
X239500000Y-199500000D03*
X240500000Y-199500000D03*
X241500000Y-199500000D03*
X242500000Y-199500000D03*
X243500000Y-199500000D03*
%TD*%
D10*
%TO.C,U340*%
X250000000Y-195000000D03*
D11*
X246500000Y-190500000D03*
X247500000Y-190500000D03*
X248500000Y-190500000D03*
X249500000Y-190500000D03*
X250500000Y-190500000D03*
X251500000Y-190500000D03*
X252500000Y-190500000D03*
X253500000Y-190500000D03*
X246500000Y-199500000D03*
X247500000Y-199500000D03*
X248500000Y-199500000D03*
X249500000Y-199500000D03*
X250500000Y-199500000D03*
X251500000Y-199500000D03*
X252500000Y-199500000D03*
X253500000Y-199500000D03*
%TD*%
D10*
%TO.C,U341*%
X260000000Y-195000000D03*
D11*
X256500000Y-190500000D03*
X257500000Y-190500000D03*
X258500000Y-190500000D03*
X259500000Y-190500000D03*
X260500000Y-190500000D03*
X261500000Y-190500000D03*
X262500000Y-190500000D03*
X263500000Y-190500000D03*
X256500000Y-199500000D03*
X257500000Y-199500000D03*
X258500000Y-199500000D03*
X259500000Y-199500000D03*
X260500000Y-199500000D03*
X261500000Y-199500000D03*
X262500000Y-199500000D03*
X263500000Y-199500000D03*
%TD*%
D10*
%TO.C,U342*%
X270000000Y-195000000D03*
D11*
X266500000Y-190500000D03*
X267500000Y-190500000D03*
X268500000Y-190500000D03*
X269500000Y-190500000D03*
X270500000Y-190500000D03*
X271500000Y-190500000D03*
X272500000Y-190500000D03*
X273500000Y-190500000D03*
X266500000Y-199500000D03*
X267500000Y-199500000D03*
X268500000Y-199500000D03*
X269500000Y-199500000D03*
X270500000Y-199500000D03*
X271500000Y-199500000D03*
X272500000Y-199500000D03*
X273500000Y-199500000D03*
%TD*%
D10*
%TO.C,U343*%
X280000000Y-195000000D03*
D11*
X276500000Y-190500000D03*
X277500000Y-190500000D03*
X278500000Y-190500000D03*
X279500000Y-190500000D03*
X280500000Y-190500000D03*
X281500000Y-190500000D03*
X282500000Y-190500000D03*
X283500000Y-190500000D03*
X276500000Y-199500000D03*
X277500000Y-199500000D03*
X278500000Y-199500000D03*
X279500000Y-199500000D03*
X280500000Y-199500000D03*
X281500000Y-199500000D03*
X282500000Y-199500000D03*
X283500000Y-199500000D03*
%TD*%
D10*
%TO.C,U344*%
X290000000Y-195000000D03*
D11*
X286500000Y-190500000D03*
X287500000Y-190500000D03*
X288500000Y-190500000D03*
X289500000Y-190500000D03*
X290500000Y-190500000D03*
X291500000Y-190500000D03*
X292500000Y-190500000D03*
X293500000Y-190500000D03*
X286500000Y-199500000D03*
X287500000Y-199500000D03*
X288500000Y-199500000D03*
X289500000Y-199500000D03*
X290500000Y-199500000D03*
X291500000Y-199500000D03*
X292500000Y-199500000D03*
X293500000Y-199500000D03*
%TD*%
D10*
%TO.C,U345*%
X300000000Y-195000000D03*
D11*
X296500000Y-190500000D03*
X297500000Y-190500000D03*
X298500000Y-190500000D03*
X299500000Y-190500000D03*
X300500000Y-190500000D03*
X301500000Y-190500000D03*
X302500000Y-190500000D03*
X303500000Y-190500000D03*
X296500000Y-199500000D03*
X297500000Y-199500000D03*
X298500000Y-199500000D03*
X299500000Y-199500000D03*
X300500000Y-199500000D03*
X301500000Y-199500000D03*
X302500000Y-199500000D03*
X303500000Y-199500000D03*
%TD*%
D10*
%TO.C,U346*%
X310000000Y-195000000D03*
D11*
X306500000Y-190500000D03*
X307500000Y-190500000D03*
X308500000Y-190500000D03*
X309500000Y-190500000D03*
X310500000Y-190500000D03*
X311500000Y-190500000D03*
X312500000Y-190500000D03*
X313500000Y-190500000D03*
X306500000Y-199500000D03*
X307500000Y-199500000D03*
X308500000Y-199500000D03*
X309500000Y-199500000D03*
X310500000Y-199500000D03*
X311500000Y-199500000D03*
X312500000Y-199500000D03*
X313500000Y-199500000D03*
%TD*%
D10*
%TO.C,U347*%
X320000000Y-195000000D03*
D11*
X316500000Y-190500000D03*
X317500000Y-190500000D03*
X318500000Y-190500000D03*
X319500000Y-190500000D03*
X320500000Y-190500000D03*
X321500000Y-190500000D03*
X322500000Y-190500000D03*
X323500000Y-190500000D03*
X316500000Y-199500000D03*
X317500000Y-199500000D03*
X318500000Y-199500000D03*
X319500000Y-199500000D03*
X320500000Y-199500000D03*
X321500000Y-199500000D03*
X322500000Y-199500000D03*
X323500000Y-199500000D03*
%TD*%
D10*
%TO.C,U348*%
X330000000Y-195000000D03*
D11*
X326500000Y-190500000D03*
X327500000Y-190500000D03*
X328500000Y-190500000D03*
X329500000Y-190500000D03*
X330500000Y-190500000D03*
X331500000Y-190500000D03*
X332500000Y-190500000D03*
X333500000Y-190500000D03*
X326500000Y-199500000D03*
X327500000Y-199500000D03*
X328500000Y-199500000D03*
X329500000Y-199500000D03*
X330500000Y-199500000D03*
X331500000Y-199500000D03*
X332500000Y-199500000D03*
X333500000Y-199500000D03*
%TD*%
D10*
%TO.C,U349*%
X340000000Y-195000000D03*
D11*
X336500000Y-190500000D03*
X337500000Y-190500000D03*
X338500000Y-190500000D03*
X339500000Y-190500000D03*
X340500000Y-190500000D03*
X341500000Y-190500000D03*
X342500000Y-190500000D03*
X343500000Y-190500000D03*
X336500000Y-199500000D03*
X337500000Y-199500000D03*
X338500000Y-199500000D03*
X339500000Y-199500000D03*
X340500000Y-199500000D03*
X341500000Y-199500000D03*
X342500000Y-199500000D03*
X343500000Y-199500000D03*
%TD*%
D12*
%TO.C,C_U0_T2_0*%
X158400000Y-160000000D03*
X159600000Y-160000000D03*
%TD*%
%TO.C,C_U0_T2_1*%
X152790000Y-175430000D03*
X153990000Y-175430000D03*
%TD*%
%TO.C,C_U0_T2_2*%
X138570000Y-183640000D03*
X139770000Y-183640000D03*
%TD*%
%TO.C,C_U0_T2_3*%
X122400000Y-180780000D03*
X123600000Y-180780000D03*
%TD*%
%TO.C,C_U0_T2_4*%
X111850000Y-168210000D03*
X113050000Y-168210000D03*
%TD*%
%TO.C,C_U0_T2_5*%
X111850000Y-151790000D03*
X113050000Y-151790000D03*
%TD*%
%TO.C,C_U0_T2_6*%
X122400000Y-139220000D03*
X123600000Y-139220000D03*
%TD*%
%TO.C,C_U0_T2_7*%
X138570000Y-136360000D03*
X139770000Y-136360000D03*
%TD*%
%TO.C,C_U0_T2_8*%
X152790000Y-144570000D03*
X153990000Y-144570000D03*
%TD*%
D13*
%TO.C,C_U0_T1_0*%
X103800000Y-190000000D03*
X106200000Y-190000000D03*
%TD*%
%TO.C,C_U0_T1_1*%
X115800000Y-190000000D03*
X118200000Y-190000000D03*
%TD*%
%TO.C,C_U0_T1_2*%
X127800000Y-190000000D03*
X130200000Y-190000000D03*
%TD*%
%TO.C,C_U0_T1_3*%
X139800000Y-190000000D03*
X142200000Y-190000000D03*
%TD*%
%TO.C,C_U0_T1_4*%
X151800000Y-190000000D03*
X154200000Y-190000000D03*
%TD*%
%TO.C,C_U0_T1_5*%
X163800000Y-190000000D03*
X166200000Y-190000000D03*
%TD*%
D12*
%TO.C,C_U1_T2_0*%
X308400000Y-160000000D03*
X309600000Y-160000000D03*
%TD*%
%TO.C,C_U1_T2_1*%
X302790000Y-175430000D03*
X303990000Y-175430000D03*
%TD*%
%TO.C,C_U1_T2_2*%
X288570000Y-183640000D03*
X289770000Y-183640000D03*
%TD*%
%TO.C,C_U1_T2_3*%
X272400000Y-180780000D03*
X273600000Y-180780000D03*
%TD*%
%TO.C,C_U1_T2_4*%
X261850000Y-168210000D03*
X263050000Y-168210000D03*
%TD*%
%TO.C,C_U1_T2_5*%
X261850000Y-151790000D03*
X263050000Y-151790000D03*
%TD*%
%TO.C,C_U1_T2_6*%
X272400000Y-139220000D03*
X273600000Y-139220000D03*
%TD*%
%TO.C,C_U1_T2_7*%
X288570000Y-136360000D03*
X289770000Y-136360000D03*
%TD*%
%TO.C,C_U1_T2_8*%
X302790000Y-144570000D03*
X303990000Y-144570000D03*
%TD*%
D13*
%TO.C,C_U1_T1_0*%
X253800000Y-190000000D03*
X256200000Y-190000000D03*
%TD*%
%TO.C,C_U1_T1_1*%
X265800000Y-190000000D03*
X268200000Y-190000000D03*
%TD*%
%TO.C,C_U1_T1_2*%
X277800000Y-190000000D03*
X280200000Y-190000000D03*
%TD*%
%TO.C,C_U1_T1_3*%
X289800000Y-190000000D03*
X292200000Y-190000000D03*
%TD*%
%TO.C,C_U1_T1_4*%
X301800000Y-190000000D03*
X304200000Y-190000000D03*
%TD*%
%TO.C,C_U1_T1_5*%
X313800000Y-190000000D03*
X316200000Y-190000000D03*
%TD*%
D14*
%TO.C,C743*%
X119700000Y-201000000D03*
X120300000Y-201000000D03*
%TD*%
%TO.C,C744*%
X122200000Y-201000000D03*
X122800000Y-201000000D03*
%TD*%
%TO.C,C745*%
X124700000Y-201000000D03*
X125300000Y-201000000D03*
%TD*%
%TO.C,C746*%
X127200000Y-201000000D03*
X127800000Y-201000000D03*
%TD*%
%TO.C,C747*%
X129700000Y-201000000D03*
X130300000Y-201000000D03*
%TD*%
%TO.C,C748*%
X132200000Y-201000000D03*
X132800000Y-201000000D03*
%TD*%
%TO.C,C749*%
X134700000Y-201000000D03*
X135300000Y-201000000D03*
%TD*%
%TO.C,C750*%
X137200000Y-201000000D03*
X137800000Y-201000000D03*
%TD*%
%TO.C,C751*%
X139700000Y-201000000D03*
X140300000Y-201000000D03*
%TD*%
%TO.C,C752*%
X142200000Y-201000000D03*
X142800000Y-201000000D03*
%TD*%
%TO.C,C753*%
X144700000Y-201000000D03*
X145300000Y-201000000D03*
%TD*%
%TO.C,C754*%
X147200000Y-201000000D03*
X147800000Y-201000000D03*
%TD*%
%TO.C,C755*%
X119700000Y-204000000D03*
X120300000Y-204000000D03*
%TD*%
%TO.C,C756*%
X122200000Y-204000000D03*
X122800000Y-204000000D03*
%TD*%
%TO.C,C757*%
X124700000Y-204000000D03*
X125300000Y-204000000D03*
%TD*%
%TO.C,C758*%
X127200000Y-204000000D03*
X127800000Y-204000000D03*
%TD*%
%TO.C,C759*%
X129700000Y-204000000D03*
X130300000Y-204000000D03*
%TD*%
%TO.C,C760*%
X132200000Y-204000000D03*
X132800000Y-204000000D03*
%TD*%
%TO.C,C761*%
X134700000Y-204000000D03*
X135300000Y-204000000D03*
%TD*%
%TO.C,C762*%
X137200000Y-204000000D03*
X137800000Y-204000000D03*
%TD*%
%TO.C,C763*%
X139700000Y-204000000D03*
X140300000Y-204000000D03*
%TD*%
%TO.C,C764*%
X142200000Y-204000000D03*
X142800000Y-204000000D03*
%TD*%
%TO.C,C765*%
X144700000Y-204000000D03*
X145300000Y-204000000D03*
%TD*%
%TO.C,C766*%
X147200000Y-204000000D03*
X147800000Y-204000000D03*
%TD*%
%TO.C,C767*%
X119700000Y-207000000D03*
X120300000Y-207000000D03*
%TD*%
%TO.C,C768*%
X122200000Y-207000000D03*
X122800000Y-207000000D03*
%TD*%
%TO.C,C769*%
X124700000Y-207000000D03*
X125300000Y-207000000D03*
%TD*%
%TO.C,C770*%
X127200000Y-207000000D03*
X127800000Y-207000000D03*
%TD*%
%TO.C,C771*%
X129700000Y-207000000D03*
X130300000Y-207000000D03*
%TD*%
%TO.C,C772*%
X132200000Y-207000000D03*
X132800000Y-207000000D03*
%TD*%
%TO.C,C773*%
X134700000Y-207000000D03*
X135300000Y-207000000D03*
%TD*%
%TO.C,C774*%
X137200000Y-207000000D03*
X137800000Y-207000000D03*
%TD*%
%TO.C,C775*%
X139700000Y-207000000D03*
X140300000Y-207000000D03*
%TD*%
%TO.C,C776*%
X142200000Y-207000000D03*
X142800000Y-207000000D03*
%TD*%
%TO.C,C777*%
X144700000Y-207000000D03*
X145300000Y-207000000D03*
%TD*%
%TO.C,C778*%
X147200000Y-207000000D03*
X147800000Y-207000000D03*
%TD*%
%TO.C,C779*%
X269700000Y-201000000D03*
X270300000Y-201000000D03*
%TD*%
%TO.C,C780*%
X272200000Y-201000000D03*
X272800000Y-201000000D03*
%TD*%
%TO.C,C781*%
X274700000Y-201000000D03*
X275300000Y-201000000D03*
%TD*%
%TO.C,C782*%
X277200000Y-201000000D03*
X277800000Y-201000000D03*
%TD*%
%TO.C,C783*%
X279700000Y-201000000D03*
X280300000Y-201000000D03*
%TD*%
%TO.C,C784*%
X282200000Y-201000000D03*
X282800000Y-201000000D03*
%TD*%
%TO.C,C785*%
X284700000Y-201000000D03*
X285300000Y-201000000D03*
%TD*%
%TO.C,C786*%
X287200000Y-201000000D03*
X287800000Y-201000000D03*
%TD*%
%TO.C,C787*%
X289700000Y-201000000D03*
X290300000Y-201000000D03*
%TD*%
%TO.C,C788*%
X292200000Y-201000000D03*
X292800000Y-201000000D03*
%TD*%
%TO.C,C789*%
X294700000Y-201000000D03*
X295300000Y-201000000D03*
%TD*%
%TO.C,C790*%
X297200000Y-201000000D03*
X297800000Y-201000000D03*
%TD*%
%TO.C,C791*%
X269700000Y-204000000D03*
X270300000Y-204000000D03*
%TD*%
%TO.C,C792*%
X272200000Y-204000000D03*
X272800000Y-204000000D03*
%TD*%
%TO.C,C793*%
X274700000Y-204000000D03*
X275300000Y-204000000D03*
%TD*%
%TO.C,C794*%
X277200000Y-204000000D03*
X277800000Y-204000000D03*
%TD*%
%TO.C,C795*%
X279700000Y-204000000D03*
X280300000Y-204000000D03*
%TD*%
%TO.C,C796*%
X282200000Y-204000000D03*
X282800000Y-204000000D03*
%TD*%
%TO.C,C797*%
X284700000Y-204000000D03*
X285300000Y-204000000D03*
%TD*%
%TO.C,C798*%
X287200000Y-204000000D03*
X287800000Y-204000000D03*
%TD*%
%TO.C,C799*%
X289700000Y-204000000D03*
X290300000Y-204000000D03*
%TD*%
%TO.C,C800*%
X292200000Y-204000000D03*
X292800000Y-204000000D03*
%TD*%
%TO.C,C801*%
X294700000Y-204000000D03*
X295300000Y-204000000D03*
%TD*%
%TO.C,C802*%
X297200000Y-204000000D03*
X297800000Y-204000000D03*
%TD*%
%TO.C,C803*%
X269700000Y-207000000D03*
X270300000Y-207000000D03*
%TD*%
%TO.C,C804*%
X272200000Y-207000000D03*
X272800000Y-207000000D03*
%TD*%
%TO.C,C805*%
X274700000Y-207000000D03*
X275300000Y-207000000D03*
%TD*%
%TO.C,C806*%
X277200000Y-207000000D03*
X277800000Y-207000000D03*
%TD*%
%TO.C,C807*%
X279700000Y-207000000D03*
X280300000Y-207000000D03*
%TD*%
%TO.C,C808*%
X282200000Y-207000000D03*
X282800000Y-207000000D03*
%TD*%
%TO.C,C809*%
X284700000Y-207000000D03*
X285300000Y-207000000D03*
%TD*%
%TO.C,C810*%
X287200000Y-207000000D03*
X287800000Y-207000000D03*
%TD*%
%TO.C,C811*%
X289700000Y-207000000D03*
X290300000Y-207000000D03*
%TD*%
%TO.C,C812*%
X292200000Y-207000000D03*
X292800000Y-207000000D03*
%TD*%
%TO.C,C813*%
X294700000Y-207000000D03*
X295300000Y-207000000D03*
%TD*%
%TO.C,C814*%
X297200000Y-207000000D03*
X297800000Y-207000000D03*
%TD*%
M02*
