%TF.GenerationSoftware,KiCad,Pcbnew,8.0.9-8.0.9-0~ubuntu22.04.1*%
%TF.CreationDate,2026-06-16T06:24:23+00:00*%
%TF.ProjectId,LightRail_LPO_1.6T,4c696768-7452-4616-996c-5f4c504f5f31,rev?*%
%TF.SameCoordinates,Original*%
%TF.FileFunction,Copper,L31,Inr*%
%TF.FilePolarity,Positive*%
%FSLAX46Y46*%
G04 Gerber Fmt 4.6, Leading zero omitted, Abs format (unit mm)*
G04 Created by KiCad (PCBNEW 8.0.9-8.0.9-0~ubuntu22.04.1) date 2026-06-16 06:24:23*
%MOMM*%
%LPD*%
G01*
G04 APERTURE LIST*
%TA.AperFunction,ViaPad*%
%ADD10C,0.600000*%
%TD*%
%TA.AperFunction,ViaPad*%
%ADD11C,0.800000*%
%TD*%
%TA.AperFunction,ViaPad*%
%ADD12C,0.400000*%
%TD*%
%TA.AperFunction,ViaPad*%
%ADD13C,0.350000*%
%TD*%
%TA.AperFunction,ViaPad*%
%ADD14C,0.300000*%
%TD*%
G04 APERTURE END LIST*
D10*
%TO.N,GND*%
X156000000Y-160000000D03*
X155680000Y-163650000D03*
X154730000Y-167180000D03*
X153190000Y-170500000D03*
X151090000Y-173500000D03*
X148500000Y-176090000D03*
X145500000Y-178190000D03*
X142180000Y-179730000D03*
X138650000Y-180680000D03*
X135000000Y-181000000D03*
X131350000Y-180680000D03*
X127820000Y-179730000D03*
X124500000Y-178190000D03*
X121500000Y-176090000D03*
X118910000Y-173500000D03*
X116810000Y-170500000D03*
X115270000Y-167180000D03*
X114320000Y-163650000D03*
X114000000Y-160000000D03*
X114320000Y-156350000D03*
X115270000Y-152820000D03*
X116810000Y-149500000D03*
X118910000Y-146500000D03*
X121500000Y-143910000D03*
X124500000Y-141810000D03*
X127820000Y-140270000D03*
X131350000Y-139320000D03*
X135000000Y-139000000D03*
X138650000Y-139320000D03*
X142180000Y-140270000D03*
X145500000Y-141810000D03*
X148500000Y-143910000D03*
X151090000Y-146500000D03*
X153190000Y-149500000D03*
X154730000Y-152820000D03*
X155680000Y-156350000D03*
X152000000Y-160000000D03*
X150970000Y-165810000D03*
X148020000Y-170930000D03*
X143500000Y-174720000D03*
X137950000Y-176740000D03*
X132050000Y-176740000D03*
X126500000Y-174720000D03*
X121980000Y-170930000D03*
X119030000Y-165810000D03*
X118000000Y-160000000D03*
X119030000Y-154190000D03*
X121980000Y-149070000D03*
X126500000Y-145280000D03*
X132050000Y-143260000D03*
X137950000Y-143260000D03*
X143500000Y-145280000D03*
X148020000Y-149070000D03*
X150970000Y-154190000D03*
X306000000Y-160000000D03*
X305680000Y-163650000D03*
X304730000Y-167180000D03*
X303190000Y-170500000D03*
X301090000Y-173500000D03*
X298500000Y-176090000D03*
X295500000Y-178190000D03*
X292180000Y-179730000D03*
X288650000Y-180680000D03*
X285000000Y-181000000D03*
X281350000Y-180680000D03*
X277820000Y-179730000D03*
X274500000Y-178190000D03*
X271500000Y-176090000D03*
X268910000Y-173500000D03*
X266810000Y-170500000D03*
X265270000Y-167180000D03*
X264320000Y-163650000D03*
X264000000Y-160000000D03*
X264320000Y-156350000D03*
X265270000Y-152820000D03*
X266810000Y-149500000D03*
X268910000Y-146500000D03*
X271500000Y-143910000D03*
X274500000Y-141810000D03*
X277820000Y-140270000D03*
X281350000Y-139320000D03*
X285000000Y-139000000D03*
X288650000Y-139320000D03*
X292180000Y-140270000D03*
X295500000Y-141810000D03*
X298500000Y-143910000D03*
X301090000Y-146500000D03*
X303190000Y-149500000D03*
X304730000Y-152820000D03*
X305680000Y-156350000D03*
X302000000Y-160000000D03*
X300970000Y-165810000D03*
X298020000Y-170930000D03*
X293500000Y-174720000D03*
X287950000Y-176740000D03*
X282050000Y-176740000D03*
X276500000Y-174720000D03*
X271980000Y-170930000D03*
X269030000Y-165810000D03*
X268000000Y-160000000D03*
X269030000Y-154190000D03*
X271980000Y-149070000D03*
X276500000Y-145280000D03*
X282050000Y-143260000D03*
X287950000Y-143260000D03*
X293500000Y-145280000D03*
X298020000Y-149070000D03*
X300970000Y-154190000D03*
D11*
X77500000Y-192500000D03*
X78500000Y-192500000D03*
X79500000Y-192500000D03*
X80500000Y-192500000D03*
X81500000Y-192500000D03*
X82500000Y-192500000D03*
X77500000Y-193500000D03*
X78500000Y-193500000D03*
X79500000Y-193500000D03*
X80500000Y-193500000D03*
X81500000Y-193500000D03*
X82500000Y-193500000D03*
X77500000Y-194500000D03*
X78500000Y-194500000D03*
X79500000Y-194500000D03*
X80500000Y-194500000D03*
X81500000Y-194500000D03*
X82500000Y-194500000D03*
X77500000Y-195500000D03*
X78500000Y-195500000D03*
X79500000Y-195500000D03*
X80500000Y-195500000D03*
X81500000Y-195500000D03*
X82500000Y-195500000D03*
X77500000Y-196500000D03*
X78500000Y-196500000D03*
X79500000Y-196500000D03*
X80500000Y-196500000D03*
X81500000Y-196500000D03*
X82500000Y-196500000D03*
X77500000Y-197500000D03*
X78500000Y-197500000D03*
X79500000Y-197500000D03*
X80500000Y-197500000D03*
X81500000Y-197500000D03*
X82500000Y-197500000D03*
X87500000Y-192500000D03*
X88500000Y-192500000D03*
X89500000Y-192500000D03*
X90500000Y-192500000D03*
X91500000Y-192500000D03*
X92500000Y-192500000D03*
X87500000Y-193500000D03*
X88500000Y-193500000D03*
X89500000Y-193500000D03*
X90500000Y-193500000D03*
X91500000Y-193500000D03*
X92500000Y-193500000D03*
X87500000Y-194500000D03*
X88500000Y-194500000D03*
X89500000Y-194500000D03*
X90500000Y-194500000D03*
X91500000Y-194500000D03*
X92500000Y-194500000D03*
X87500000Y-195500000D03*
X88500000Y-195500000D03*
X89500000Y-195500000D03*
X90500000Y-195500000D03*
X91500000Y-195500000D03*
X92500000Y-195500000D03*
X87500000Y-196500000D03*
X88500000Y-196500000D03*
X89500000Y-196500000D03*
X90500000Y-196500000D03*
X91500000Y-196500000D03*
X92500000Y-196500000D03*
X87500000Y-197500000D03*
X88500000Y-197500000D03*
X89500000Y-197500000D03*
X90500000Y-197500000D03*
X91500000Y-197500000D03*
X92500000Y-197500000D03*
X97500000Y-192500000D03*
X98500000Y-192500000D03*
X99500000Y-192500000D03*
X100500000Y-192500000D03*
X101500000Y-192500000D03*
X102500000Y-192500000D03*
X97500000Y-193500000D03*
X98500000Y-193500000D03*
X99500000Y-193500000D03*
X100500000Y-193500000D03*
X101500000Y-193500000D03*
X102500000Y-193500000D03*
X97500000Y-194500000D03*
X98500000Y-194500000D03*
X99500000Y-194500000D03*
X100500000Y-194500000D03*
X101500000Y-194500000D03*
X102500000Y-194500000D03*
X97500000Y-195500000D03*
X98500000Y-195500000D03*
X99500000Y-195500000D03*
X100500000Y-195500000D03*
X101500000Y-195500000D03*
X102500000Y-195500000D03*
X97500000Y-196500000D03*
X98500000Y-196500000D03*
X99500000Y-196500000D03*
X100500000Y-196500000D03*
X101500000Y-196500000D03*
X102500000Y-196500000D03*
X97500000Y-197500000D03*
X98500000Y-197500000D03*
X99500000Y-197500000D03*
X100500000Y-197500000D03*
X101500000Y-197500000D03*
X102500000Y-197500000D03*
%TO.N,V_CORE_U0*%
X107500000Y-192500000D03*
X108500000Y-192500000D03*
X109500000Y-192500000D03*
X110500000Y-192500000D03*
X111500000Y-192500000D03*
X112500000Y-192500000D03*
X107500000Y-193500000D03*
X108500000Y-193500000D03*
X109500000Y-193500000D03*
X110500000Y-193500000D03*
X111500000Y-193500000D03*
X112500000Y-193500000D03*
X107500000Y-194500000D03*
X108500000Y-194500000D03*
X109500000Y-194500000D03*
X110500000Y-194500000D03*
X111500000Y-194500000D03*
X112500000Y-194500000D03*
X107500000Y-195500000D03*
X108500000Y-195500000D03*
X109500000Y-195500000D03*
X110500000Y-195500000D03*
X111500000Y-195500000D03*
X112500000Y-195500000D03*
X107500000Y-196500000D03*
X108500000Y-196500000D03*
X109500000Y-196500000D03*
X110500000Y-196500000D03*
X111500000Y-196500000D03*
X112500000Y-196500000D03*
X107500000Y-197500000D03*
X108500000Y-197500000D03*
X109500000Y-197500000D03*
X110500000Y-197500000D03*
X111500000Y-197500000D03*
X112500000Y-197500000D03*
%TO.N,GND*%
X117500000Y-192500000D03*
X118500000Y-192500000D03*
X119500000Y-192500000D03*
X120500000Y-192500000D03*
X121500000Y-192500000D03*
X122500000Y-192500000D03*
X117500000Y-193500000D03*
X118500000Y-193500000D03*
X119500000Y-193500000D03*
X120500000Y-193500000D03*
X121500000Y-193500000D03*
X122500000Y-193500000D03*
X117500000Y-194500000D03*
X118500000Y-194500000D03*
X119500000Y-194500000D03*
X120500000Y-194500000D03*
X121500000Y-194500000D03*
X122500000Y-194500000D03*
X117500000Y-195500000D03*
X118500000Y-195500000D03*
X119500000Y-195500000D03*
X120500000Y-195500000D03*
X121500000Y-195500000D03*
X122500000Y-195500000D03*
X117500000Y-196500000D03*
X118500000Y-196500000D03*
X119500000Y-196500000D03*
X120500000Y-196500000D03*
X121500000Y-196500000D03*
X122500000Y-196500000D03*
X117500000Y-197500000D03*
X118500000Y-197500000D03*
X119500000Y-197500000D03*
X120500000Y-197500000D03*
X121500000Y-197500000D03*
X122500000Y-197500000D03*
X127500000Y-192500000D03*
X128500000Y-192500000D03*
X129500000Y-192500000D03*
X130500000Y-192500000D03*
X131500000Y-192500000D03*
X132500000Y-192500000D03*
X127500000Y-193500000D03*
X128500000Y-193500000D03*
X129500000Y-193500000D03*
X130500000Y-193500000D03*
X131500000Y-193500000D03*
X132500000Y-193500000D03*
X127500000Y-194500000D03*
X128500000Y-194500000D03*
X129500000Y-194500000D03*
X130500000Y-194500000D03*
X131500000Y-194500000D03*
X132500000Y-194500000D03*
X127500000Y-195500000D03*
X128500000Y-195500000D03*
X129500000Y-195500000D03*
X130500000Y-195500000D03*
X131500000Y-195500000D03*
X132500000Y-195500000D03*
X127500000Y-196500000D03*
X128500000Y-196500000D03*
X129500000Y-196500000D03*
X130500000Y-196500000D03*
X131500000Y-196500000D03*
X132500000Y-196500000D03*
X127500000Y-197500000D03*
X128500000Y-197500000D03*
X129500000Y-197500000D03*
X130500000Y-197500000D03*
X131500000Y-197500000D03*
X132500000Y-197500000D03*
X137500000Y-192500000D03*
X138500000Y-192500000D03*
X139500000Y-192500000D03*
X140500000Y-192500000D03*
X141500000Y-192500000D03*
X142500000Y-192500000D03*
X137500000Y-193500000D03*
X138500000Y-193500000D03*
X139500000Y-193500000D03*
X140500000Y-193500000D03*
X141500000Y-193500000D03*
X142500000Y-193500000D03*
X137500000Y-194500000D03*
X138500000Y-194500000D03*
X139500000Y-194500000D03*
X140500000Y-194500000D03*
X141500000Y-194500000D03*
X142500000Y-194500000D03*
X137500000Y-195500000D03*
X138500000Y-195500000D03*
X139500000Y-195500000D03*
X140500000Y-195500000D03*
X141500000Y-195500000D03*
X142500000Y-195500000D03*
X137500000Y-196500000D03*
X138500000Y-196500000D03*
X139500000Y-196500000D03*
X140500000Y-196500000D03*
X141500000Y-196500000D03*
X142500000Y-196500000D03*
X137500000Y-197500000D03*
X138500000Y-197500000D03*
X139500000Y-197500000D03*
X140500000Y-197500000D03*
X141500000Y-197500000D03*
X142500000Y-197500000D03*
X147500000Y-192500000D03*
X148500000Y-192500000D03*
X149500000Y-192500000D03*
X150500000Y-192500000D03*
X151500000Y-192500000D03*
X152500000Y-192500000D03*
X147500000Y-193500000D03*
X148500000Y-193500000D03*
X149500000Y-193500000D03*
X150500000Y-193500000D03*
X151500000Y-193500000D03*
X152500000Y-193500000D03*
X147500000Y-194500000D03*
X148500000Y-194500000D03*
X149500000Y-194500000D03*
X150500000Y-194500000D03*
X151500000Y-194500000D03*
X152500000Y-194500000D03*
X147500000Y-195500000D03*
X148500000Y-195500000D03*
X149500000Y-195500000D03*
X150500000Y-195500000D03*
X151500000Y-195500000D03*
X152500000Y-195500000D03*
X147500000Y-196500000D03*
X148500000Y-196500000D03*
X149500000Y-196500000D03*
X150500000Y-196500000D03*
X151500000Y-196500000D03*
X152500000Y-196500000D03*
X147500000Y-197500000D03*
X148500000Y-197500000D03*
X149500000Y-197500000D03*
X150500000Y-197500000D03*
X151500000Y-197500000D03*
X152500000Y-197500000D03*
X157500000Y-192500000D03*
X158500000Y-192500000D03*
X159500000Y-192500000D03*
X160500000Y-192500000D03*
X161500000Y-192500000D03*
X162500000Y-192500000D03*
X157500000Y-193500000D03*
X158500000Y-193500000D03*
X159500000Y-193500000D03*
X160500000Y-193500000D03*
X161500000Y-193500000D03*
X162500000Y-193500000D03*
X157500000Y-194500000D03*
X158500000Y-194500000D03*
X159500000Y-194500000D03*
X160500000Y-194500000D03*
X161500000Y-194500000D03*
X162500000Y-194500000D03*
X157500000Y-195500000D03*
X158500000Y-195500000D03*
X159500000Y-195500000D03*
X160500000Y-195500000D03*
X161500000Y-195500000D03*
X162500000Y-195500000D03*
X157500000Y-196500000D03*
X158500000Y-196500000D03*
X159500000Y-196500000D03*
X160500000Y-196500000D03*
X161500000Y-196500000D03*
X162500000Y-196500000D03*
X157500000Y-197500000D03*
X158500000Y-197500000D03*
X159500000Y-197500000D03*
X160500000Y-197500000D03*
X161500000Y-197500000D03*
X162500000Y-197500000D03*
X167500000Y-192500000D03*
X168500000Y-192500000D03*
X169500000Y-192500000D03*
X170500000Y-192500000D03*
X171500000Y-192500000D03*
X172500000Y-192500000D03*
X167500000Y-193500000D03*
X168500000Y-193500000D03*
X169500000Y-193500000D03*
X170500000Y-193500000D03*
X171500000Y-193500000D03*
X172500000Y-193500000D03*
X167500000Y-194500000D03*
X168500000Y-194500000D03*
X169500000Y-194500000D03*
X170500000Y-194500000D03*
X171500000Y-194500000D03*
X172500000Y-194500000D03*
X167500000Y-195500000D03*
X168500000Y-195500000D03*
X169500000Y-195500000D03*
X170500000Y-195500000D03*
X171500000Y-195500000D03*
X172500000Y-195500000D03*
X167500000Y-196500000D03*
X168500000Y-196500000D03*
X169500000Y-196500000D03*
X170500000Y-196500000D03*
X171500000Y-196500000D03*
X172500000Y-196500000D03*
X167500000Y-197500000D03*
X168500000Y-197500000D03*
X169500000Y-197500000D03*
X170500000Y-197500000D03*
X171500000Y-197500000D03*
X172500000Y-197500000D03*
X177500000Y-192500000D03*
X178500000Y-192500000D03*
X179500000Y-192500000D03*
X180500000Y-192500000D03*
X181500000Y-192500000D03*
X182500000Y-192500000D03*
X177500000Y-193500000D03*
X178500000Y-193500000D03*
X179500000Y-193500000D03*
X180500000Y-193500000D03*
X181500000Y-193500000D03*
X182500000Y-193500000D03*
X177500000Y-194500000D03*
X178500000Y-194500000D03*
X179500000Y-194500000D03*
X180500000Y-194500000D03*
X181500000Y-194500000D03*
X182500000Y-194500000D03*
X177500000Y-195500000D03*
X178500000Y-195500000D03*
X179500000Y-195500000D03*
X180500000Y-195500000D03*
X181500000Y-195500000D03*
X182500000Y-195500000D03*
X177500000Y-196500000D03*
X178500000Y-196500000D03*
X179500000Y-196500000D03*
X180500000Y-196500000D03*
X181500000Y-196500000D03*
X182500000Y-196500000D03*
X177500000Y-197500000D03*
X178500000Y-197500000D03*
X179500000Y-197500000D03*
X180500000Y-197500000D03*
X181500000Y-197500000D03*
X182500000Y-197500000D03*
X187500000Y-192500000D03*
X188500000Y-192500000D03*
X189500000Y-192500000D03*
X190500000Y-192500000D03*
X191500000Y-192500000D03*
X192500000Y-192500000D03*
X187500000Y-193500000D03*
X188500000Y-193500000D03*
X189500000Y-193500000D03*
X190500000Y-193500000D03*
X191500000Y-193500000D03*
X192500000Y-193500000D03*
X187500000Y-194500000D03*
X188500000Y-194500000D03*
X189500000Y-194500000D03*
X190500000Y-194500000D03*
X191500000Y-194500000D03*
X192500000Y-194500000D03*
X187500000Y-195500000D03*
X188500000Y-195500000D03*
X189500000Y-195500000D03*
X190500000Y-195500000D03*
X191500000Y-195500000D03*
X192500000Y-195500000D03*
X187500000Y-196500000D03*
X188500000Y-196500000D03*
X189500000Y-196500000D03*
X190500000Y-196500000D03*
X191500000Y-196500000D03*
X192500000Y-196500000D03*
X187500000Y-197500000D03*
X188500000Y-197500000D03*
X189500000Y-197500000D03*
X190500000Y-197500000D03*
X191500000Y-197500000D03*
X192500000Y-197500000D03*
%TO.N,V_CORE_U1*%
X227500000Y-192500000D03*
X228500000Y-192500000D03*
X229500000Y-192500000D03*
X230500000Y-192500000D03*
X231500000Y-192500000D03*
X232500000Y-192500000D03*
X227500000Y-193500000D03*
X228500000Y-193500000D03*
X229500000Y-193500000D03*
X230500000Y-193500000D03*
X231500000Y-193500000D03*
X232500000Y-193500000D03*
X227500000Y-194500000D03*
X228500000Y-194500000D03*
X229500000Y-194500000D03*
X230500000Y-194500000D03*
X231500000Y-194500000D03*
X232500000Y-194500000D03*
X227500000Y-195500000D03*
X228500000Y-195500000D03*
X229500000Y-195500000D03*
X230500000Y-195500000D03*
X231500000Y-195500000D03*
X232500000Y-195500000D03*
X227500000Y-196500000D03*
X228500000Y-196500000D03*
X229500000Y-196500000D03*
X230500000Y-196500000D03*
X231500000Y-196500000D03*
X232500000Y-196500000D03*
X227500000Y-197500000D03*
X228500000Y-197500000D03*
X229500000Y-197500000D03*
X230500000Y-197500000D03*
X231500000Y-197500000D03*
X232500000Y-197500000D03*
X237500000Y-192500000D03*
X238500000Y-192500000D03*
X239500000Y-192500000D03*
X240500000Y-192500000D03*
X241500000Y-192500000D03*
X242500000Y-192500000D03*
X237500000Y-193500000D03*
X238500000Y-193500000D03*
X239500000Y-193500000D03*
X240500000Y-193500000D03*
X241500000Y-193500000D03*
X242500000Y-193500000D03*
X237500000Y-194500000D03*
X238500000Y-194500000D03*
X239500000Y-194500000D03*
X240500000Y-194500000D03*
X241500000Y-194500000D03*
X242500000Y-194500000D03*
X237500000Y-195500000D03*
X238500000Y-195500000D03*
X239500000Y-195500000D03*
X240500000Y-195500000D03*
X241500000Y-195500000D03*
X242500000Y-195500000D03*
X237500000Y-196500000D03*
X238500000Y-196500000D03*
X239500000Y-196500000D03*
X240500000Y-196500000D03*
X241500000Y-196500000D03*
X242500000Y-196500000D03*
X237500000Y-197500000D03*
X238500000Y-197500000D03*
X239500000Y-197500000D03*
X240500000Y-197500000D03*
X241500000Y-197500000D03*
X242500000Y-197500000D03*
X247500000Y-192500000D03*
X248500000Y-192500000D03*
X249500000Y-192500000D03*
X250500000Y-192500000D03*
X251500000Y-192500000D03*
X252500000Y-192500000D03*
X247500000Y-193500000D03*
X248500000Y-193500000D03*
X249500000Y-193500000D03*
X250500000Y-193500000D03*
X251500000Y-193500000D03*
X252500000Y-193500000D03*
X247500000Y-194500000D03*
X248500000Y-194500000D03*
X249500000Y-194500000D03*
X250500000Y-194500000D03*
X251500000Y-194500000D03*
X252500000Y-194500000D03*
X247500000Y-195500000D03*
X248500000Y-195500000D03*
X249500000Y-195500000D03*
X250500000Y-195500000D03*
X251500000Y-195500000D03*
X252500000Y-195500000D03*
X247500000Y-196500000D03*
X248500000Y-196500000D03*
X249500000Y-196500000D03*
X250500000Y-196500000D03*
X251500000Y-196500000D03*
X252500000Y-196500000D03*
X247500000Y-197500000D03*
X248500000Y-197500000D03*
X249500000Y-197500000D03*
X250500000Y-197500000D03*
X251500000Y-197500000D03*
X252500000Y-197500000D03*
%TO.N,GND*%
X257500000Y-192500000D03*
X258500000Y-192500000D03*
X259500000Y-192500000D03*
X260500000Y-192500000D03*
X261500000Y-192500000D03*
X262500000Y-192500000D03*
X257500000Y-193500000D03*
X258500000Y-193500000D03*
X259500000Y-193500000D03*
X260500000Y-193500000D03*
X261500000Y-193500000D03*
X262500000Y-193500000D03*
X257500000Y-194500000D03*
X258500000Y-194500000D03*
X259500000Y-194500000D03*
X260500000Y-194500000D03*
X261500000Y-194500000D03*
X262500000Y-194500000D03*
X257500000Y-195500000D03*
X258500000Y-195500000D03*
X259500000Y-195500000D03*
X260500000Y-195500000D03*
X261500000Y-195500000D03*
X262500000Y-195500000D03*
X257500000Y-196500000D03*
X258500000Y-196500000D03*
X259500000Y-196500000D03*
X260500000Y-196500000D03*
X261500000Y-196500000D03*
X262500000Y-196500000D03*
X257500000Y-197500000D03*
X258500000Y-197500000D03*
X259500000Y-197500000D03*
X260500000Y-197500000D03*
X261500000Y-197500000D03*
X262500000Y-197500000D03*
X267500000Y-192500000D03*
X268500000Y-192500000D03*
X269500000Y-192500000D03*
X270500000Y-192500000D03*
X271500000Y-192500000D03*
X272500000Y-192500000D03*
X267500000Y-193500000D03*
X268500000Y-193500000D03*
X269500000Y-193500000D03*
X270500000Y-193500000D03*
X271500000Y-193500000D03*
X272500000Y-193500000D03*
X267500000Y-194500000D03*
X268500000Y-194500000D03*
X269500000Y-194500000D03*
X270500000Y-194500000D03*
X271500000Y-194500000D03*
X272500000Y-194500000D03*
X267500000Y-195500000D03*
X268500000Y-195500000D03*
X269500000Y-195500000D03*
X270500000Y-195500000D03*
X271500000Y-195500000D03*
X272500000Y-195500000D03*
X267500000Y-196500000D03*
X268500000Y-196500000D03*
X269500000Y-196500000D03*
X270500000Y-196500000D03*
X271500000Y-196500000D03*
X272500000Y-196500000D03*
X267500000Y-197500000D03*
X268500000Y-197500000D03*
X269500000Y-197500000D03*
X270500000Y-197500000D03*
X271500000Y-197500000D03*
X272500000Y-197500000D03*
X277500000Y-192500000D03*
X278500000Y-192500000D03*
X279500000Y-192500000D03*
X280500000Y-192500000D03*
X281500000Y-192500000D03*
X282500000Y-192500000D03*
X277500000Y-193500000D03*
X278500000Y-193500000D03*
X279500000Y-193500000D03*
X280500000Y-193500000D03*
X281500000Y-193500000D03*
X282500000Y-193500000D03*
X277500000Y-194500000D03*
X278500000Y-194500000D03*
X279500000Y-194500000D03*
X280500000Y-194500000D03*
X281500000Y-194500000D03*
X282500000Y-194500000D03*
X277500000Y-195500000D03*
X278500000Y-195500000D03*
X279500000Y-195500000D03*
X280500000Y-195500000D03*
X281500000Y-195500000D03*
X282500000Y-195500000D03*
X277500000Y-196500000D03*
X278500000Y-196500000D03*
X279500000Y-196500000D03*
X280500000Y-196500000D03*
X281500000Y-196500000D03*
X282500000Y-196500000D03*
X277500000Y-197500000D03*
X278500000Y-197500000D03*
X279500000Y-197500000D03*
X280500000Y-197500000D03*
X281500000Y-197500000D03*
X282500000Y-197500000D03*
X287500000Y-192500000D03*
X288500000Y-192500000D03*
X289500000Y-192500000D03*
X290500000Y-192500000D03*
X291500000Y-192500000D03*
X292500000Y-192500000D03*
X287500000Y-193500000D03*
X288500000Y-193500000D03*
X289500000Y-193500000D03*
X290500000Y-193500000D03*
X291500000Y-193500000D03*
X292500000Y-193500000D03*
X287500000Y-194500000D03*
X288500000Y-194500000D03*
X289500000Y-194500000D03*
X290500000Y-194500000D03*
X291500000Y-194500000D03*
X292500000Y-194500000D03*
X287500000Y-195500000D03*
X288500000Y-195500000D03*
X289500000Y-195500000D03*
X290500000Y-195500000D03*
X291500000Y-195500000D03*
X292500000Y-195500000D03*
X287500000Y-196500000D03*
X288500000Y-196500000D03*
X289500000Y-196500000D03*
X290500000Y-196500000D03*
X291500000Y-196500000D03*
X292500000Y-196500000D03*
X287500000Y-197500000D03*
X288500000Y-197500000D03*
X289500000Y-197500000D03*
X290500000Y-197500000D03*
X291500000Y-197500000D03*
X292500000Y-197500000D03*
X297500000Y-192500000D03*
X298500000Y-192500000D03*
X299500000Y-192500000D03*
X300500000Y-192500000D03*
X301500000Y-192500000D03*
X302500000Y-192500000D03*
X297500000Y-193500000D03*
X298500000Y-193500000D03*
X299500000Y-193500000D03*
X300500000Y-193500000D03*
X301500000Y-193500000D03*
X302500000Y-193500000D03*
X297500000Y-194500000D03*
X298500000Y-194500000D03*
X299500000Y-194500000D03*
X300500000Y-194500000D03*
X301500000Y-194500000D03*
X302500000Y-194500000D03*
X297500000Y-195500000D03*
X298500000Y-195500000D03*
X299500000Y-195500000D03*
X300500000Y-195500000D03*
X301500000Y-195500000D03*
X302500000Y-195500000D03*
X297500000Y-196500000D03*
X298500000Y-196500000D03*
X299500000Y-196500000D03*
X300500000Y-196500000D03*
X301500000Y-196500000D03*
X302500000Y-196500000D03*
X297500000Y-197500000D03*
X298500000Y-197500000D03*
X299500000Y-197500000D03*
X300500000Y-197500000D03*
X301500000Y-197500000D03*
X302500000Y-197500000D03*
%TO.N,V_CORE_U1*%
X307500000Y-192500000D03*
X308500000Y-192500000D03*
X309500000Y-192500000D03*
X310500000Y-192500000D03*
X311500000Y-192500000D03*
X312500000Y-192500000D03*
X307500000Y-193500000D03*
X308500000Y-193500000D03*
X309500000Y-193500000D03*
X310500000Y-193500000D03*
X311500000Y-193500000D03*
X312500000Y-193500000D03*
X307500000Y-194500000D03*
X308500000Y-194500000D03*
X309500000Y-194500000D03*
X310500000Y-194500000D03*
X311500000Y-194500000D03*
X312500000Y-194500000D03*
X307500000Y-195500000D03*
X308500000Y-195500000D03*
X309500000Y-195500000D03*
X310500000Y-195500000D03*
X311500000Y-195500000D03*
X312500000Y-195500000D03*
X307500000Y-196500000D03*
X308500000Y-196500000D03*
X309500000Y-196500000D03*
X310500000Y-196500000D03*
X311500000Y-196500000D03*
X312500000Y-196500000D03*
X307500000Y-197500000D03*
X308500000Y-197500000D03*
X309500000Y-197500000D03*
X310500000Y-197500000D03*
X311500000Y-197500000D03*
X312500000Y-197500000D03*
%TO.N,GND*%
X317500000Y-192500000D03*
X318500000Y-192500000D03*
X319500000Y-192500000D03*
X320500000Y-192500000D03*
X321500000Y-192500000D03*
X322500000Y-192500000D03*
X317500000Y-193500000D03*
X318500000Y-193500000D03*
X319500000Y-193500000D03*
X320500000Y-193500000D03*
X321500000Y-193500000D03*
X322500000Y-193500000D03*
X317500000Y-194500000D03*
X318500000Y-194500000D03*
X319500000Y-194500000D03*
X320500000Y-194500000D03*
X321500000Y-194500000D03*
X322500000Y-194500000D03*
X317500000Y-195500000D03*
X318500000Y-195500000D03*
X319500000Y-195500000D03*
X320500000Y-195500000D03*
X321500000Y-195500000D03*
X322500000Y-195500000D03*
X317500000Y-196500000D03*
X318500000Y-196500000D03*
X319500000Y-196500000D03*
X320500000Y-196500000D03*
X321500000Y-196500000D03*
X322500000Y-196500000D03*
X317500000Y-197500000D03*
X318500000Y-197500000D03*
X319500000Y-197500000D03*
X320500000Y-197500000D03*
X321500000Y-197500000D03*
X322500000Y-197500000D03*
X327500000Y-192500000D03*
X328500000Y-192500000D03*
X329500000Y-192500000D03*
X330500000Y-192500000D03*
X331500000Y-192500000D03*
X332500000Y-192500000D03*
X327500000Y-193500000D03*
X328500000Y-193500000D03*
X329500000Y-193500000D03*
X330500000Y-193500000D03*
X331500000Y-193500000D03*
X332500000Y-193500000D03*
X327500000Y-194500000D03*
X328500000Y-194500000D03*
X329500000Y-194500000D03*
X330500000Y-194500000D03*
X331500000Y-194500000D03*
X332500000Y-194500000D03*
X327500000Y-195500000D03*
X328500000Y-195500000D03*
X329500000Y-195500000D03*
X330500000Y-195500000D03*
X331500000Y-195500000D03*
X332500000Y-195500000D03*
X327500000Y-196500000D03*
X328500000Y-196500000D03*
X329500000Y-196500000D03*
X330500000Y-196500000D03*
X331500000Y-196500000D03*
X332500000Y-196500000D03*
X327500000Y-197500000D03*
X328500000Y-197500000D03*
X329500000Y-197500000D03*
X330500000Y-197500000D03*
X331500000Y-197500000D03*
X332500000Y-197500000D03*
X337500000Y-192500000D03*
X338500000Y-192500000D03*
X339500000Y-192500000D03*
X340500000Y-192500000D03*
X341500000Y-192500000D03*
X342500000Y-192500000D03*
X337500000Y-193500000D03*
X338500000Y-193500000D03*
X339500000Y-193500000D03*
X340500000Y-193500000D03*
X341500000Y-193500000D03*
X342500000Y-193500000D03*
X337500000Y-194500000D03*
X338500000Y-194500000D03*
X339500000Y-194500000D03*
X340500000Y-194500000D03*
X341500000Y-194500000D03*
X342500000Y-194500000D03*
X337500000Y-195500000D03*
X338500000Y-195500000D03*
X339500000Y-195500000D03*
X340500000Y-195500000D03*
X341500000Y-195500000D03*
X342500000Y-195500000D03*
X337500000Y-196500000D03*
X338500000Y-196500000D03*
X339500000Y-196500000D03*
X340500000Y-196500000D03*
X341500000Y-196500000D03*
X342500000Y-196500000D03*
X337500000Y-197500000D03*
X338500000Y-197500000D03*
X339500000Y-197500000D03*
X340500000Y-197500000D03*
X341500000Y-197500000D03*
X342500000Y-197500000D03*
D12*
%TO.N,*%
X150000000Y-180000000D03*
X150300000Y-180000000D03*
X150000000Y-180000000D03*
X150300000Y-180000000D03*
X152500000Y-180000000D03*
X152800000Y-180000000D03*
X152500000Y-180000000D03*
X152800000Y-180000000D03*
X155000000Y-180000000D03*
X155300000Y-180000000D03*
X155000000Y-180000000D03*
X155300000Y-180000000D03*
X157500000Y-180000000D03*
X157800000Y-180000000D03*
X157500000Y-180000000D03*
X157800000Y-180000000D03*
X160000000Y-180000000D03*
X160300000Y-180000000D03*
X160000000Y-180000000D03*
X160300000Y-180000000D03*
X162500000Y-180000000D03*
X162800000Y-180000000D03*
X162500000Y-180000000D03*
X162800000Y-180000000D03*
X165000000Y-180000000D03*
X165300000Y-180000000D03*
X165000000Y-180000000D03*
X165300000Y-180000000D03*
X167500000Y-180000000D03*
X167800000Y-180000000D03*
X167500000Y-180000000D03*
X167800000Y-180000000D03*
X170000000Y-180000000D03*
X170300000Y-180000000D03*
X170000000Y-180000000D03*
X170300000Y-180000000D03*
X172500000Y-180000000D03*
X172800000Y-180000000D03*
X172500000Y-180000000D03*
X172800000Y-180000000D03*
X175000000Y-180000000D03*
X175300000Y-180000000D03*
X175000000Y-180000000D03*
X175300000Y-180000000D03*
X177500000Y-180000000D03*
X177800000Y-180000000D03*
X177500000Y-180000000D03*
X177800000Y-180000000D03*
X180000000Y-180000000D03*
X180300000Y-180000000D03*
X180000000Y-180000000D03*
X180300000Y-180000000D03*
X182500000Y-180000000D03*
X182800000Y-180000000D03*
X182500000Y-180000000D03*
X182800000Y-180000000D03*
X185000000Y-180000000D03*
X185300000Y-180000000D03*
X185000000Y-180000000D03*
X185300000Y-180000000D03*
X187500000Y-180000000D03*
X187800000Y-180000000D03*
X187500000Y-180000000D03*
X187800000Y-180000000D03*
D13*
X155000000Y-153000000D03*
X155000000Y-153180000D03*
X155000000Y-155000000D03*
X155000000Y-155180000D03*
X155000000Y-157000000D03*
X155000000Y-157180000D03*
X155000000Y-159000000D03*
X155000000Y-159180000D03*
X155000000Y-161000000D03*
X155000000Y-161180000D03*
X155000000Y-163000000D03*
X155000000Y-163180000D03*
X155000000Y-165000000D03*
X155000000Y-165180000D03*
X155000000Y-167000000D03*
X155000000Y-167180000D03*
X155000000Y-153000000D03*
X155000000Y-153180000D03*
X155000000Y-155000000D03*
X155000000Y-155180000D03*
X155000000Y-157000000D03*
X155000000Y-157180000D03*
X155000000Y-159000000D03*
X155000000Y-159180000D03*
X155000000Y-161000000D03*
X155000000Y-161180000D03*
X155000000Y-163000000D03*
X155000000Y-163180000D03*
X155000000Y-165000000D03*
X155000000Y-165180000D03*
X155000000Y-167000000D03*
X155000000Y-167180000D03*
X265000000Y-153000000D03*
X265000000Y-153180000D03*
X265000000Y-155000000D03*
X265000000Y-155180000D03*
%TO.N,GND*%
X265000000Y-157000000D03*
X265000000Y-157180000D03*
%TO.N,*%
X265000000Y-159000000D03*
X265000000Y-159180000D03*
X265000000Y-161000000D03*
X265000000Y-161180000D03*
%TO.N,GND*%
X265000000Y-163000000D03*
X265000000Y-163180000D03*
%TO.N,*%
X265000000Y-165000000D03*
X265000000Y-165180000D03*
X265000000Y-167000000D03*
X265000000Y-167180000D03*
X265000000Y-153000000D03*
X265000000Y-153180000D03*
X265000000Y-155000000D03*
X265000000Y-155180000D03*
%TO.N,GND*%
X265000000Y-157000000D03*
X265000000Y-157180000D03*
%TO.N,*%
X265000000Y-159000000D03*
X265000000Y-159180000D03*
X265000000Y-161000000D03*
X265000000Y-161180000D03*
%TO.N,GND*%
X265000000Y-163000000D03*
X265000000Y-163180000D03*
%TO.N,*%
X265000000Y-165000000D03*
X265000000Y-165180000D03*
X265000000Y-167000000D03*
X265000000Y-167180000D03*
X105000000Y-150000000D03*
X135000000Y-150000000D03*
X105000000Y-151500000D03*
X135000000Y-151500000D03*
X135000000Y-153000000D03*
X165000000Y-153000000D03*
X135000000Y-154500000D03*
X165000000Y-154500000D03*
X255000000Y-150000000D03*
X285000000Y-150000000D03*
X255000000Y-151500000D03*
X285000000Y-151500000D03*
X285000000Y-153000000D03*
X315000000Y-153000000D03*
X285000000Y-154500000D03*
X315000000Y-154500000D03*
D12*
X194000000Y-151250000D03*
X114000000Y-151250000D03*
X194000000Y-153750000D03*
X114000000Y-153750000D03*
X194000000Y-156250000D03*
X114000000Y-156250000D03*
X194000000Y-158750000D03*
X114000000Y-158750000D03*
X194000000Y-161250000D03*
X114000000Y-161250000D03*
X194000000Y-163750000D03*
X114000000Y-163750000D03*
X194000000Y-166250000D03*
X114000000Y-166250000D03*
X194000000Y-168750000D03*
X114000000Y-168750000D03*
X226000000Y-151250000D03*
X306000000Y-151250000D03*
X226000000Y-153750000D03*
X306000000Y-153750000D03*
X226000000Y-156250000D03*
X306000000Y-156250000D03*
X226000000Y-158750000D03*
X306000000Y-158750000D03*
X226000000Y-161250000D03*
X306000000Y-161250000D03*
X226000000Y-163750000D03*
X306000000Y-163750000D03*
X226000000Y-166250000D03*
X306000000Y-166250000D03*
X226000000Y-168750000D03*
X306000000Y-168750000D03*
D13*
X128500000Y-153000000D03*
X129500000Y-153000000D03*
X130500000Y-153000000D03*
X131500000Y-153000000D03*
X132500000Y-153000000D03*
X133500000Y-153000000D03*
X134500000Y-153000000D03*
X135500000Y-153000000D03*
X136500000Y-153000000D03*
X137500000Y-153000000D03*
X138500000Y-153000000D03*
X139500000Y-153000000D03*
X140500000Y-153000000D03*
X141500000Y-153000000D03*
X128500000Y-167000000D03*
X129500000Y-167000000D03*
X130500000Y-167000000D03*
X131500000Y-167000000D03*
X132500000Y-167000000D03*
X133500000Y-167000000D03*
X134500000Y-167000000D03*
X135500000Y-167000000D03*
X136500000Y-167000000D03*
X137500000Y-167000000D03*
X138500000Y-167000000D03*
X139500000Y-167000000D03*
X140500000Y-167000000D03*
X141500000Y-167000000D03*
X128000000Y-153500000D03*
X128000000Y-154500000D03*
X128000000Y-155500000D03*
X128000000Y-156500000D03*
X128000000Y-157500000D03*
X128000000Y-158500000D03*
X128000000Y-159500000D03*
X128000000Y-160500000D03*
X128000000Y-161500000D03*
X128000000Y-162500000D03*
X128000000Y-163500000D03*
X128000000Y-164500000D03*
X128000000Y-165500000D03*
X128000000Y-166500000D03*
X142000000Y-153500000D03*
X142000000Y-154500000D03*
X142000000Y-155500000D03*
X142000000Y-156500000D03*
X142000000Y-157500000D03*
X142000000Y-158500000D03*
X142000000Y-159500000D03*
X142000000Y-160500000D03*
X142000000Y-161500000D03*
X142000000Y-162500000D03*
X142000000Y-163500000D03*
X142000000Y-164500000D03*
X142000000Y-165500000D03*
X142000000Y-166500000D03*
X130000000Y-155000000D03*
X140000000Y-155000000D03*
X130000000Y-165000000D03*
X140000000Y-165000000D03*
X131000000Y-156000000D03*
X139000000Y-156000000D03*
X131000000Y-164000000D03*
X139000000Y-164000000D03*
X132000000Y-157000000D03*
X138000000Y-157000000D03*
X132000000Y-163000000D03*
X138000000Y-163000000D03*
X278500000Y-153000000D03*
X279500000Y-153000000D03*
X280500000Y-153000000D03*
X281500000Y-153000000D03*
X282500000Y-153000000D03*
X283500000Y-153000000D03*
X284500000Y-153000000D03*
X285500000Y-153000000D03*
X286500000Y-153000000D03*
X287500000Y-153000000D03*
X288500000Y-153000000D03*
X289500000Y-153000000D03*
X290500000Y-153000000D03*
X291500000Y-153000000D03*
X278500000Y-167000000D03*
X279500000Y-167000000D03*
X280500000Y-167000000D03*
X281500000Y-167000000D03*
X282500000Y-167000000D03*
X283500000Y-167000000D03*
X284500000Y-167000000D03*
X285500000Y-167000000D03*
X286500000Y-167000000D03*
X287500000Y-167000000D03*
X288500000Y-167000000D03*
X289500000Y-167000000D03*
X290500000Y-167000000D03*
X291500000Y-167000000D03*
X278000000Y-153500000D03*
X278000000Y-154500000D03*
X278000000Y-155500000D03*
X278000000Y-156500000D03*
X278000000Y-157500000D03*
X278000000Y-158500000D03*
%TO.N,GND*%
X278000000Y-159500000D03*
%TO.N,*%
X278000000Y-160500000D03*
X278000000Y-161500000D03*
%TO.N,GND*%
X278000000Y-162500000D03*
%TO.N,*%
X278000000Y-163500000D03*
%TO.N,GND*%
X278000000Y-164500000D03*
%TO.N,*%
X278000000Y-165500000D03*
X278000000Y-166500000D03*
X292000000Y-153500000D03*
X292000000Y-154500000D03*
X292000000Y-155500000D03*
X292000000Y-156500000D03*
X292000000Y-157500000D03*
X292000000Y-158500000D03*
%TO.N,GND*%
X292000000Y-159500000D03*
%TO.N,*%
X292000000Y-160500000D03*
X292000000Y-161500000D03*
%TO.N,GND*%
X292000000Y-162500000D03*
%TO.N,*%
X292000000Y-163500000D03*
%TO.N,GND*%
X292000000Y-164500000D03*
%TO.N,*%
X292000000Y-165500000D03*
X292000000Y-166500000D03*
%TO.N,GND*%
X280000000Y-155000000D03*
X290000000Y-155000000D03*
%TO.N,*%
X280000000Y-165000000D03*
X290000000Y-165000000D03*
%TO.N,GND*%
X281000000Y-156000000D03*
X289000000Y-156000000D03*
%TO.N,*%
X281000000Y-164000000D03*
X289000000Y-164000000D03*
%TO.N,GND*%
X282000000Y-157000000D03*
X288000000Y-157000000D03*
%TO.N,*%
X282000000Y-163000000D03*
X288000000Y-163000000D03*
D12*
X190000000Y-341000000D03*
X192500000Y-341000000D03*
X195000000Y-341000000D03*
X197500000Y-341000000D03*
X200000000Y-341000000D03*
X202500000Y-341000000D03*
X205000000Y-341000000D03*
X207500000Y-341000000D03*
X210000000Y-341000000D03*
X212500000Y-341000000D03*
X215000000Y-341000000D03*
X217500000Y-341000000D03*
X220000000Y-341000000D03*
X222500000Y-341000000D03*
X225000000Y-341000000D03*
X227500000Y-341000000D03*
D14*
X155000000Y-160000000D03*
X156500000Y-160000000D03*
X158000000Y-160000000D03*
X159500000Y-160000000D03*
X161000000Y-160000000D03*
X162500000Y-160000000D03*
X164000000Y-160000000D03*
X165500000Y-160000000D03*
X167000000Y-160000000D03*
X168500000Y-160000000D03*
X170000000Y-160000000D03*
X171500000Y-160000000D03*
X173000000Y-160000000D03*
X174500000Y-160000000D03*
X176000000Y-160000000D03*
X177500000Y-160000000D03*
X265000000Y-160000000D03*
X263500000Y-160000000D03*
X262000000Y-160000000D03*
X260500000Y-160000000D03*
X259000000Y-160000000D03*
X257500000Y-160000000D03*
X256000000Y-160000000D03*
X254500000Y-160000000D03*
X253000000Y-160000000D03*
X251500000Y-160000000D03*
X250000000Y-160000000D03*
X248500000Y-160000000D03*
X247000000Y-160000000D03*
X245500000Y-160000000D03*
X244000000Y-160000000D03*
X242500000Y-160000000D03*
X150000000Y-200000000D03*
X151500000Y-200000000D03*
X153000000Y-200000000D03*
X154500000Y-200000000D03*
X156000000Y-200000000D03*
X157500000Y-200000000D03*
X159000000Y-200000000D03*
X160500000Y-200000000D03*
X162000000Y-200000000D03*
X163500000Y-200000000D03*
X165000000Y-200000000D03*
%TO.N,GND*%
X166500000Y-200000000D03*
%TO.N,*%
X168000000Y-200000000D03*
%TO.N,GND*%
X169500000Y-200000000D03*
%TO.N,*%
X171000000Y-200000000D03*
X172500000Y-200000000D03*
X174000000Y-200000000D03*
X175500000Y-200000000D03*
X177000000Y-200000000D03*
X178500000Y-200000000D03*
X180000000Y-200000000D03*
%TO.N,GND*%
X181500000Y-200000000D03*
%TO.N,*%
X183000000Y-200000000D03*
X184500000Y-200000000D03*
X186000000Y-200000000D03*
X187500000Y-200000000D03*
X189000000Y-200000000D03*
%TO.N,GND*%
X190500000Y-200000000D03*
%TO.N,*%
X192000000Y-200000000D03*
%TO.N,GND*%
X193500000Y-200000000D03*
%TO.N,*%
X195000000Y-200000000D03*
X196500000Y-200000000D03*
X194000000Y-160000000D03*
X194800000Y-160000000D03*
X195600000Y-160000000D03*
X196400000Y-160000000D03*
X197200000Y-160000000D03*
X198000000Y-160000000D03*
X198800000Y-160000000D03*
X199600000Y-160000000D03*
X200400000Y-160000000D03*
X201200000Y-160000000D03*
X202000000Y-160000000D03*
X202800000Y-160000000D03*
X203600000Y-160000000D03*
X204400000Y-160000000D03*
X205200000Y-160000000D03*
X206000000Y-160000000D03*
%TD*%
M02*
