%TF.GenerationSoftware,KiCad,Pcbnew,8.0.9-8.0.9-0~ubuntu22.04.1*%
%TF.CreationDate,2026-06-16T06:33:08+00:00*%
%TF.ProjectId,LightRail_Eval_Board,4c696768-7452-4616-996c-5f4576616c5f,rev?*%
%TF.SameCoordinates,Original*%
%TF.FileFunction,Copper,L22,Bot*%
%TF.FilePolarity,Positive*%
%FSLAX46Y46*%
G04 Gerber Fmt 4.6, Leading zero omitted, Abs format (unit mm)*
G04 Created by KiCad (PCBNEW 8.0.9-8.0.9-0~ubuntu22.04.1) date 2026-06-16 06:33:08*
%MOMM*%
%LPD*%
G01*
G04 APERTURE LIST*
%TA.AperFunction,ComponentPad*%
%ADD10R,1.000000X1.000000*%
%TD*%
%TA.AperFunction,ComponentPad*%
%ADD11O,1.000000X1.000000*%
%TD*%
%TA.AperFunction,SMDPad,CuDef*%
%ADD12R,5.080000X1.500000*%
%TD*%
%TA.AperFunction,ViaPad*%
%ADD13C,0.600000*%
%TD*%
%TA.AperFunction,Conductor*%
%ADD14C,0.150000*%
%TD*%
G04 APERTURE END LIST*
D10*
%TO.P,J6,1*%
%TO.N,+3V3*%
X190000000Y-150000000D03*
D11*
%TO.P,J6,2*%
%TO.N,GND*%
X190000000Y-148730000D03*
%TO.P,J6,3*%
%TO.N,FPGA_GPIO0*%
X191270000Y-150000000D03*
%TO.P,J6,4*%
%TO.N,FPGA_GPIO1*%
X191270000Y-148730000D03*
%TO.P,J6,5*%
%TO.N,FPGA_GPIO2*%
X192540000Y-150000000D03*
%TO.P,J6,6*%
%TO.N,FPGA_GPIO3*%
X192540000Y-148730000D03*
%TO.P,J6,7*%
%TO.N,N/C*%
X193810000Y-150000000D03*
%TO.P,J6,8*%
X193810000Y-148730000D03*
%TO.P,J6,9*%
X195080000Y-150000000D03*
%TO.P,J6,10*%
X195080000Y-148730000D03*
%TO.P,J6,11*%
X196350000Y-150000000D03*
%TO.P,J6,12*%
X196350000Y-148730000D03*
%TO.P,J6,13*%
%TO.N,I2C_SCL*%
X197620000Y-150000000D03*
%TO.P,J6,14*%
%TO.N,I2C_SDA*%
X197620000Y-148730000D03*
%TD*%
D10*
%TO.P,J5,1*%
%TO.N,JTAG_TCK*%
X190000000Y-140000000D03*
D11*
%TO.P,J5,2*%
%TO.N,GND*%
X190000000Y-138730000D03*
%TO.P,J5,3*%
%TO.N,JTAG_TDO*%
X191270000Y-140000000D03*
%TO.P,J5,4*%
%TO.N,+3V3*%
X191270000Y-138730000D03*
%TO.P,J5,5*%
%TO.N,JTAG_TMS*%
X192540000Y-140000000D03*
%TO.P,J5,6*%
%TO.N,GND*%
X192540000Y-138730000D03*
%TO.P,J5,7*%
%TO.N,N/C*%
X193810000Y-140000000D03*
%TO.P,J5,8*%
X193810000Y-138730000D03*
%TO.P,J5,9*%
%TO.N,JTAG_TDI*%
X195080000Y-140000000D03*
%TO.P,J5,10*%
%TO.N,JTAG_TRST*%
X195080000Y-138730000D03*
%TD*%
D12*
%TO.P,J8,2*%
%TO.N,GND*%
X135000000Y-100750000D03*
X135000000Y-109250000D03*
%TD*%
%TO.P,J10,2*%
%TO.N,GND*%
X180000000Y-100750000D03*
X180000000Y-109250000D03*
%TD*%
%TO.P,J7,2*%
%TO.N,GND*%
X120000000Y-100750000D03*
X120000000Y-109250000D03*
%TD*%
%TO.P,J9,2*%
%TO.N,GND*%
X165000000Y-100750000D03*
X165000000Y-109250000D03*
%TD*%
D13*
%TO.N,AXI_ACLK*%
X160400000Y-139000000D03*
X140200000Y-149000000D03*
%TO.N,AXI_ARESETN*%
X140600000Y-149000000D03*
X161200000Y-139000000D03*
%TO.N,AXI_AWADDR*%
X141000000Y-149000000D03*
X162000000Y-139000000D03*
%TO.N,AXI_AWVALID*%
X162800000Y-139000000D03*
X141400000Y-149000000D03*
%TO.N,AXI_WDATA*%
X142200000Y-149000000D03*
X163600000Y-139000000D03*
%TO.N,AXI_WVALID*%
X142600000Y-149000000D03*
X164400000Y-139000000D03*
%TO.N,CLK_100M*%
X168537500Y-134750000D03*
X173900000Y-134150000D03*
%TO.N,CLK_CORE*%
X160400000Y-139800000D03*
X144000000Y-145200000D03*
X171462500Y-137250000D03*
%TO.N,DAC_V2*%
X145312000Y-120000000D03*
X162137500Y-125975000D03*
%TO.N,DAC_V3*%
X162137500Y-126625000D03*
X145938000Y-120000000D03*
%TO.N,DAC_V4*%
X146562000Y-120000000D03*
X162137500Y-127275000D03*
%TO.N,FLASH_CS*%
X156400000Y-139800000D03*
X174050000Y-149250000D03*
%TO.N,FLASH_SCK*%
X155600000Y-139800000D03*
X175950000Y-150250000D03*
%TO.N,FPGA_GPIO0*%
X163600000Y-139800000D03*
X191270000Y-150000000D03*
%TO.N,FPGA_GPIO1*%
X164400000Y-139800000D03*
X191270000Y-148730000D03*
%TO.N,FPGA_GPIO2*%
X165200000Y-139800000D03*
X192540000Y-150000000D03*
%TO.N,FT_TXLED*%
X185875000Y-162450000D03*
X154490000Y-170000000D03*
%TO.N,I2C_SCL*%
X197620000Y-150000000D03*
X129050000Y-150750000D03*
X168537500Y-137250000D03*
X136000000Y-142000000D03*
%TO.N,I2C_SDA*%
X136000000Y-142400000D03*
X197620000Y-148730000D03*
X168537500Y-136750000D03*
X129050000Y-150250000D03*
%TO.N,JTAG_TCK*%
X144000000Y-144400000D03*
X190000000Y-140000000D03*
X157200000Y-139800000D03*
%TO.N,JTAG_TMS*%
X192540000Y-140000000D03*
X158000000Y-139800000D03*
X144000000Y-144000000D03*
%TO.N,LED_A*%
X124212500Y-170000000D03*
X165510000Y-170000000D03*
%TO.N,LED_D2*%
X129212500Y-170000000D03*
X155510000Y-170000000D03*
%TO.N,LED_D3*%
X134212500Y-170000000D03*
X160510000Y-170000000D03*
%TO.N,MON_CH2*%
X132137500Y-125600000D03*
X154062000Y-120000000D03*
%TO.N,MON_CH3*%
X154688000Y-120000000D03*
X132137500Y-126000000D03*
%TO.N,MON_CH4*%
X132137500Y-126400000D03*
X155312000Y-120000000D03*
%TO.N,MON_CH5*%
X132137500Y-126800000D03*
X155938000Y-120000000D03*
%TO.N,OPT_RX0*%
X144375000Y-105000000D03*
X150312000Y-120000000D03*
%TO.N,OPT_RX1*%
X150938000Y-120000000D03*
X145125000Y-105000000D03*
%TO.N,OPT_RX2*%
X151562000Y-120000000D03*
X145875000Y-105000000D03*
%TO.N,OPT_RX3*%
X152188000Y-120000000D03*
X146625000Y-105000000D03*
%TO.N,OPT_TX2*%
X149062000Y-120000000D03*
X142875000Y-105000000D03*
%TO.N,OPT_TX3*%
X149688000Y-120000000D03*
X143625000Y-105000000D03*
%TO.N,PLL_LOL*%
X169750000Y-137975000D03*
X170750000Y-137975000D03*
%TO.N,RESET_N*%
X119520000Y-170000000D03*
X136000000Y-146400000D03*
X150510000Y-170000000D03*
X182550000Y-159825000D03*
X169250000Y-137975000D03*
X183300000Y-185000000D03*
%TO.N,SMA_J8*%
X115480000Y-160000000D03*
X135000000Y-105000000D03*
%TO.N,SMA_J9*%
X165000000Y-105000000D03*
X120480000Y-160000000D03*
%TO.N,SPI_CLK*%
X144000000Y-142800000D03*
X137862500Y-126000000D03*
X167862500Y-127275000D03*
%TO.N,SPI_MISO*%
X137862500Y-125200000D03*
X144000000Y-142000000D03*
%TO.N,TEMP_ALERT*%
X130950000Y-150750000D03*
X136000000Y-145200000D03*
%TO.N,TEMP_DIODE*%
X130950000Y-149750000D03*
X147188000Y-120000000D03*
%TO.N,TFLN_TX_N0*%
X142600000Y-141000000D03*
X114520000Y-160000000D03*
X140312000Y-120000000D03*
%TO.N,TFLN_TX_N1*%
X141562000Y-120000000D03*
X124520000Y-160000000D03*
X141800000Y-141000000D03*
%TO.N,TFLN_TX_P0*%
X109520000Y-160000000D03*
X143000000Y-141000000D03*
X139688000Y-120000000D03*
%TO.N,TFLN_TX_P1*%
X119520000Y-160000000D03*
X142200000Y-141000000D03*
X140938000Y-120000000D03*
%TO.N,TFLN_TX_P2*%
X142188000Y-120000000D03*
X141400000Y-141000000D03*
%TO.N,TFLN_TX_P3*%
X140600000Y-141000000D03*
X143438000Y-120000000D03*
%TO.N,USB_DN*%
X190000000Y-166750000D03*
X182550000Y-159475000D03*
X143950000Y-170000000D03*
%TO.N,USB_DP*%
X138950000Y-170000000D03*
X182550000Y-159125000D03*
X190000000Y-167250000D03*
%TD*%
D14*
%TO.N,AXI_RDATA*%
X144000000Y-146000000D02*
X158200000Y-146000000D01*
X158200000Y-146000000D02*
X165200000Y-139000000D01*
%TO.N,CLK_REF*%
X167912500Y-139800000D02*
X171462500Y-136250000D01*
X156200000Y-144800000D02*
X161200000Y-139800000D01*
X161200000Y-139800000D02*
X167912500Y-139800000D01*
X144000000Y-144800000D02*
X156200000Y-144800000D01*
%TO.N,FLASH_MISO*%
X154800000Y-139800000D02*
X164100000Y-139800000D01*
X164100000Y-139800000D02*
X174050000Y-149750000D01*
%TO.N,FPGA_GPIO3*%
X192540000Y-148730000D02*
X174930000Y-148730000D01*
X174930000Y-148730000D02*
X166000000Y-139800000D01*
%TO.N,JTAG_TDI*%
X158800000Y-139800000D02*
X147800000Y-139800000D01*
X147800000Y-139800000D02*
X144000000Y-143600000D01*
X195080000Y-140000000D02*
X159000000Y-140000000D01*
X159000000Y-140000000D02*
X158800000Y-139800000D01*
%TO.N,MON_CH0*%
X148012000Y-124800000D02*
X152812000Y-120000000D01*
X132137500Y-124800000D02*
X148012000Y-124800000D01*
%TO.N,MON_CH6*%
X137862500Y-126800000D02*
X149762000Y-126800000D01*
X149762000Y-126800000D02*
X156562000Y-120000000D01*
%TO.N,OPT_TX0*%
X141375000Y-113563000D02*
X147812000Y-120000000D01*
X141375000Y-105000000D02*
X141375000Y-113563000D01*
%TO.N,SMA_J10*%
X125480000Y-159520000D02*
X180000000Y-105000000D01*
X125480000Y-160000000D02*
X125480000Y-159520000D01*
%TO.N,SPI_MOSI*%
X144000000Y-131737500D02*
X137862500Y-125600000D01*
X167487500Y-125600000D02*
X167862500Y-125975000D01*
X137862500Y-125600000D02*
X167487500Y-125600000D01*
X144000000Y-142400000D02*
X144000000Y-131737500D01*
%TO.N,TFLN_TX_N2*%
X141000000Y-121812000D02*
X142812000Y-120000000D01*
X141000000Y-141000000D02*
X141000000Y-121812000D01*
%TO.N,UART_RX*%
X162800000Y-142525000D02*
X182550000Y-162275000D01*
X162800000Y-139800000D02*
X162800000Y-142525000D01*
X136000000Y-143200000D02*
X159400000Y-143200000D01*
X159400000Y-143200000D02*
X162800000Y-139800000D01*
%TD*%
%TA.AperFunction,Conductor*%
%TO.N,GND*%
G36*
X117127684Y-100519407D02*
G01*
X117139497Y-100529496D01*
X117160001Y-100550000D01*
X122839998Y-100550000D01*
X122860502Y-100529496D01*
X122915019Y-100501719D01*
X122930506Y-100500500D01*
X132069493Y-100500500D01*
X132127684Y-100519407D01*
X132139497Y-100529496D01*
X132160001Y-100550000D01*
X137839998Y-100550000D01*
X137860502Y-100529496D01*
X137915019Y-100501719D01*
X137930506Y-100500500D01*
X162069493Y-100500500D01*
X162127684Y-100519407D01*
X162139497Y-100529496D01*
X162160001Y-100550000D01*
X167839998Y-100550000D01*
X167860502Y-100529496D01*
X167915019Y-100501719D01*
X167930506Y-100500500D01*
X177069493Y-100500500D01*
X177127684Y-100519407D01*
X177139497Y-100529496D01*
X177160001Y-100550000D01*
X182839998Y-100550000D01*
X182860502Y-100529496D01*
X182915019Y-100501719D01*
X182930506Y-100500500D01*
X199400500Y-100500500D01*
X199458691Y-100519407D01*
X199494655Y-100568907D01*
X199499500Y-100599500D01*
X199499500Y-199400500D01*
X199480593Y-199458691D01*
X199431093Y-199494655D01*
X199400500Y-199499500D01*
X100599500Y-199499500D01*
X100541309Y-199480593D01*
X100505345Y-199431093D01*
X100500500Y-199400500D01*
X100500500Y-195878710D01*
X102149500Y-195878710D01*
X102149500Y-196121289D01*
X102181161Y-196361781D01*
X102181161Y-196361786D01*
X102243944Y-196596092D01*
X102243948Y-196596105D01*
X102336772Y-196820204D01*
X102336774Y-196820208D01*
X102336776Y-196820212D01*
X102383756Y-196901583D01*
X102458066Y-197030292D01*
X102605729Y-197222731D01*
X102605731Y-197222733D01*
X102605735Y-197222738D01*
X102777262Y-197394265D01*
X102777266Y-197394268D01*
X102777268Y-197394270D01*
X102889027Y-197480025D01*
X102969711Y-197541936D01*
X103179788Y-197663224D01*
X103403900Y-197756054D01*
X103638211Y-197818838D01*
X103878712Y-197850500D01*
X104041018Y-197850500D01*
X104099209Y-197869407D01*
X104111021Y-197879496D01*
X104185351Y-197953825D01*
X104185354Y-197953828D01*
X104344595Y-198069524D01*
X104519975Y-198158884D01*
X104707174Y-198219709D01*
X104707175Y-198219709D01*
X104707178Y-198219710D01*
X104901580Y-198250500D01*
X104901583Y-198250500D01*
X105098420Y-198250500D01*
X105292821Y-198219710D01*
X105292822Y-198219709D01*
X105292826Y-198219709D01*
X105480025Y-198158884D01*
X105655405Y-198069524D01*
X105814646Y-197953828D01*
X105953828Y-197814646D01*
X106069524Y-197655405D01*
X106158884Y-197480025D01*
X106219709Y-197292826D01*
X106250500Y-197098417D01*
X106250500Y-196901583D01*
X106250500Y-196901579D01*
X106219710Y-196707178D01*
X106183620Y-196596105D01*
X106158884Y-196519975D01*
X106069524Y-196344595D01*
X105953828Y-196185354D01*
X105953825Y-196185351D01*
X105879496Y-196111021D01*
X105851719Y-196056504D01*
X105850500Y-196041018D01*
X105850500Y-195878713D01*
X105850500Y-195878712D01*
X105850500Y-195878710D01*
X194149500Y-195878710D01*
X194149500Y-196121289D01*
X194181161Y-196361781D01*
X194181161Y-196361786D01*
X194243944Y-196596092D01*
X194243948Y-196596105D01*
X194336772Y-196820204D01*
X194336774Y-196820208D01*
X194336776Y-196820212D01*
X194383756Y-196901583D01*
X194458066Y-197030292D01*
X194605729Y-197222731D01*
X194605731Y-197222733D01*
X194605735Y-197222738D01*
X194777262Y-197394265D01*
X194777266Y-197394268D01*
X194777268Y-197394270D01*
X194889027Y-197480025D01*
X194969711Y-197541936D01*
X195179788Y-197663224D01*
X195403900Y-197756054D01*
X195638211Y-197818838D01*
X195878712Y-197850500D01*
X195878713Y-197850500D01*
X196121287Y-197850500D01*
X196121288Y-197850500D01*
X196361789Y-197818838D01*
X196596100Y-197756054D01*
X196820212Y-197663224D01*
X197030289Y-197541936D01*
X197222738Y-197394265D01*
X197394265Y-197222738D01*
X197541936Y-197030289D01*
X197663224Y-196820212D01*
X197756054Y-196596100D01*
X197818838Y-196361789D01*
X197850500Y-196121288D01*
X197850500Y-195878712D01*
X197818838Y-195638211D01*
X197756054Y-195403900D01*
X197663224Y-195179788D01*
X197541936Y-194969711D01*
X197394265Y-194777262D01*
X197222738Y-194605735D01*
X197222733Y-194605731D01*
X197222731Y-194605729D01*
X197030292Y-194458066D01*
X197030289Y-194458064D01*
X196820212Y-194336776D01*
X196820208Y-194336774D01*
X196820204Y-194336772D01*
X196596105Y-194243948D01*
X196596104Y-194243947D01*
X196596100Y-194243946D01*
X196361789Y-194181162D01*
X196361786Y-194181161D01*
X196361784Y-194181161D01*
X196121289Y-194149500D01*
X196121288Y-194149500D01*
X195878712Y-194149500D01*
X195878710Y-194149500D01*
X195638218Y-194181161D01*
X195638213Y-194181161D01*
X195403907Y-194243944D01*
X195403894Y-194243948D01*
X195179795Y-194336772D01*
X194969707Y-194458066D01*
X194777268Y-194605729D01*
X194605729Y-194777268D01*
X194458066Y-194969707D01*
X194336772Y-195179795D01*
X194243948Y-195403894D01*
X194243944Y-195403907D01*
X194181161Y-195638213D01*
X194181161Y-195638218D01*
X194149500Y-195878710D01*
X105850500Y-195878710D01*
X105818838Y-195638211D01*
X105756054Y-195403900D01*
X105663224Y-195179788D01*
X105541936Y-194969711D01*
X105394265Y-194777262D01*
X105222738Y-194605735D01*
X105222733Y-194605731D01*
X105222731Y-194605729D01*
X105030292Y-194458066D01*
X105030289Y-194458064D01*
X104820212Y-194336776D01*
X104820208Y-194336774D01*
X104820204Y-194336772D01*
X104596105Y-194243948D01*
X104596104Y-194243947D01*
X104596100Y-194243946D01*
X104361789Y-194181162D01*
X104361786Y-194181161D01*
X104361784Y-194181161D01*
X104121289Y-194149500D01*
X104121288Y-194149500D01*
X103878712Y-194149500D01*
X103878710Y-194149500D01*
X103638218Y-194181161D01*
X103638213Y-194181161D01*
X103403907Y-194243944D01*
X103403894Y-194243948D01*
X103179795Y-194336772D01*
X102969707Y-194458066D01*
X102777268Y-194605729D01*
X102605729Y-194777268D01*
X102458066Y-194969707D01*
X102336772Y-195179795D01*
X102243948Y-195403894D01*
X102243944Y-195403907D01*
X102181161Y-195638213D01*
X102181161Y-195638218D01*
X102149500Y-195878710D01*
X100500500Y-195878710D01*
X100500500Y-185000000D01*
X182494435Y-185000000D01*
X182514632Y-185179257D01*
X182514633Y-185179261D01*
X182574211Y-185349522D01*
X182574211Y-185349523D01*
X182670181Y-185502258D01*
X182670184Y-185502262D01*
X182797738Y-185629816D01*
X182950478Y-185725789D01*
X183018657Y-185749646D01*
X183120738Y-185785366D01*
X183120742Y-185785367D01*
X183120745Y-185785368D01*
X183300000Y-185805565D01*
X183479255Y-185785368D01*
X183649522Y-185725789D01*
X183802262Y-185629816D01*
X183929816Y-185502262D01*
X184025789Y-185349522D01*
X184085368Y-185179255D01*
X184105565Y-185000000D01*
X184085368Y-184820745D01*
X184025789Y-184650478D01*
X183929816Y-184497738D01*
X183802262Y-184370184D01*
X183802259Y-184370182D01*
X183802258Y-184370181D01*
X183649523Y-184274211D01*
X183479261Y-184214633D01*
X183479257Y-184214632D01*
X183300000Y-184194435D01*
X183120742Y-184214632D01*
X183120738Y-184214633D01*
X182950477Y-184274211D01*
X182950476Y-184274211D01*
X182797741Y-184370181D01*
X182670181Y-184497741D01*
X182574211Y-184650476D01*
X182574211Y-184650477D01*
X182514633Y-184820738D01*
X182514632Y-184820742D01*
X182494435Y-185000000D01*
X100500500Y-185000000D01*
X100500500Y-170000000D01*
X118714435Y-170000000D01*
X118734632Y-170179257D01*
X118734633Y-170179261D01*
X118794211Y-170349522D01*
X118794211Y-170349523D01*
X118890181Y-170502258D01*
X118890184Y-170502262D01*
X119017738Y-170629816D01*
X119017740Y-170629817D01*
X119017741Y-170629818D01*
X119170474Y-170725787D01*
X119170478Y-170725789D01*
X119238657Y-170749646D01*
X119340738Y-170785366D01*
X119340742Y-170785367D01*
X119340745Y-170785368D01*
X119520000Y-170805565D01*
X119699255Y-170785368D01*
X119869522Y-170725789D01*
X120022262Y-170629816D01*
X120149816Y-170502262D01*
X120245789Y-170349522D01*
X120305368Y-170179255D01*
X120325565Y-170000000D01*
X123406935Y-170000000D01*
X123427132Y-170179257D01*
X123427133Y-170179261D01*
X123486711Y-170349522D01*
X123486711Y-170349523D01*
X123582681Y-170502258D01*
X123582684Y-170502262D01*
X123710238Y-170629816D01*
X123710240Y-170629817D01*
X123710241Y-170629818D01*
X123862974Y-170725787D01*
X123862978Y-170725789D01*
X123931157Y-170749646D01*
X124033238Y-170785366D01*
X124033242Y-170785367D01*
X124033245Y-170785368D01*
X124212500Y-170805565D01*
X124391755Y-170785368D01*
X124562022Y-170725789D01*
X124714762Y-170629816D01*
X124842316Y-170502262D01*
X124938289Y-170349522D01*
X124997868Y-170179255D01*
X125018065Y-170000000D01*
X128406935Y-170000000D01*
X128427132Y-170179257D01*
X128427133Y-170179261D01*
X128486711Y-170349522D01*
X128486711Y-170349523D01*
X128582681Y-170502258D01*
X128582684Y-170502262D01*
X128710238Y-170629816D01*
X128710240Y-170629817D01*
X128710241Y-170629818D01*
X128862974Y-170725787D01*
X128862978Y-170725789D01*
X128931157Y-170749646D01*
X129033238Y-170785366D01*
X129033242Y-170785367D01*
X129033245Y-170785368D01*
X129212500Y-170805565D01*
X129391755Y-170785368D01*
X129562022Y-170725789D01*
X129714762Y-170629816D01*
X129842316Y-170502262D01*
X129938289Y-170349522D01*
X129997868Y-170179255D01*
X130018065Y-170000000D01*
X133406935Y-170000000D01*
X133427132Y-170179257D01*
X133427133Y-170179261D01*
X133486711Y-170349522D01*
X133486711Y-170349523D01*
X133582681Y-170502258D01*
X133582684Y-170502262D01*
X133710238Y-170629816D01*
X133710240Y-170629817D01*
X133710241Y-170629818D01*
X133862974Y-170725787D01*
X133862978Y-170725789D01*
X133931157Y-170749646D01*
X134033238Y-170785366D01*
X134033242Y-170785367D01*
X134033245Y-170785368D01*
X134212500Y-170805565D01*
X134391755Y-170785368D01*
X134562022Y-170725789D01*
X134714762Y-170629816D01*
X134842316Y-170502262D01*
X134938289Y-170349522D01*
X134997868Y-170179255D01*
X135018065Y-170000000D01*
X138144435Y-170000000D01*
X138164632Y-170179257D01*
X138164633Y-170179261D01*
X138224211Y-170349522D01*
X138224211Y-170349523D01*
X138320181Y-170502258D01*
X138320184Y-170502262D01*
X138447738Y-170629816D01*
X138447740Y-170629817D01*
X138447741Y-170629818D01*
X138600474Y-170725787D01*
X138600478Y-170725789D01*
X138668657Y-170749646D01*
X138770738Y-170785366D01*
X138770742Y-170785367D01*
X138770745Y-170785368D01*
X138950000Y-170805565D01*
X139129255Y-170785368D01*
X139299522Y-170725789D01*
X139452262Y-170629816D01*
X139579816Y-170502262D01*
X139675789Y-170349522D01*
X139735368Y-170179255D01*
X139755565Y-170000000D01*
X143144435Y-170000000D01*
X143164632Y-170179257D01*
X143164633Y-170179261D01*
X143224211Y-170349522D01*
X143224211Y-170349523D01*
X143320181Y-170502258D01*
X143320184Y-170502262D01*
X143447738Y-170629816D01*
X143447740Y-170629817D01*
X143447741Y-170629818D01*
X143600474Y-170725787D01*
X143600478Y-170725789D01*
X143668657Y-170749646D01*
X143770738Y-170785366D01*
X143770742Y-170785367D01*
X143770745Y-170785368D01*
X143950000Y-170805565D01*
X144129255Y-170785368D01*
X144299522Y-170725789D01*
X144452262Y-170629816D01*
X144579816Y-170502262D01*
X144675789Y-170349522D01*
X144735368Y-170179255D01*
X144755565Y-170000000D01*
X149704435Y-170000000D01*
X149724632Y-170179257D01*
X149724633Y-170179261D01*
X149784211Y-170349522D01*
X149784211Y-170349523D01*
X149880181Y-170502258D01*
X149880184Y-170502262D01*
X150007738Y-170629816D01*
X150007740Y-170629817D01*
X150007741Y-170629818D01*
X150160474Y-170725787D01*
X150160478Y-170725789D01*
X150228657Y-170749646D01*
X150330738Y-170785366D01*
X150330742Y-170785367D01*
X150330745Y-170785368D01*
X150510000Y-170805565D01*
X150689255Y-170785368D01*
X150859522Y-170725789D01*
X151012262Y-170629816D01*
X151139816Y-170502262D01*
X151235789Y-170349522D01*
X151295368Y-170179255D01*
X151315565Y-170000000D01*
X153684435Y-170000000D01*
X153704632Y-170179257D01*
X153704633Y-170179261D01*
X153764211Y-170349522D01*
X153764211Y-170349523D01*
X153860181Y-170502258D01*
X153860184Y-170502262D01*
X153987738Y-170629816D01*
X153987740Y-170629817D01*
X153987741Y-170629818D01*
X154140474Y-170725787D01*
X154140478Y-170725789D01*
X154208657Y-170749646D01*
X154310738Y-170785366D01*
X154310742Y-170785367D01*
X154310745Y-170785368D01*
X154490000Y-170805565D01*
X154669255Y-170785368D01*
X154839522Y-170725789D01*
X154839524Y-170725787D01*
X154839526Y-170725787D01*
X154947328Y-170658050D01*
X155006659Y-170643099D01*
X155052672Y-170658050D01*
X155160473Y-170725787D01*
X155160476Y-170725787D01*
X155160478Y-170725789D01*
X155261145Y-170761014D01*
X155330738Y-170785366D01*
X155330742Y-170785367D01*
X155330745Y-170785368D01*
X155510000Y-170805565D01*
X155689255Y-170785368D01*
X155859522Y-170725789D01*
X156012262Y-170629816D01*
X156139816Y-170502262D01*
X156235789Y-170349522D01*
X156295368Y-170179255D01*
X156315565Y-170000000D01*
X159704435Y-170000000D01*
X159724632Y-170179257D01*
X159724633Y-170179261D01*
X159784211Y-170349522D01*
X159784211Y-170349523D01*
X159880181Y-170502258D01*
X159880184Y-170502262D01*
X160007738Y-170629816D01*
X160007740Y-170629817D01*
X160007741Y-170629818D01*
X160160474Y-170725787D01*
X160160478Y-170725789D01*
X160228657Y-170749646D01*
X160330738Y-170785366D01*
X160330742Y-170785367D01*
X160330745Y-170785368D01*
X160510000Y-170805565D01*
X160689255Y-170785368D01*
X160859522Y-170725789D01*
X161012262Y-170629816D01*
X161139816Y-170502262D01*
X161235789Y-170349522D01*
X161295368Y-170179255D01*
X161315565Y-170000000D01*
X164704435Y-170000000D01*
X164724632Y-170179257D01*
X164724633Y-170179261D01*
X164784211Y-170349522D01*
X164784211Y-170349523D01*
X164880181Y-170502258D01*
X164880184Y-170502262D01*
X165007738Y-170629816D01*
X165007740Y-170629817D01*
X165007741Y-170629818D01*
X165160474Y-170725787D01*
X165160478Y-170725789D01*
X165228657Y-170749646D01*
X165330738Y-170785366D01*
X165330742Y-170785367D01*
X165330745Y-170785368D01*
X165510000Y-170805565D01*
X165689255Y-170785368D01*
X165859522Y-170725789D01*
X166012262Y-170629816D01*
X166139816Y-170502262D01*
X166235789Y-170349522D01*
X166295368Y-170179255D01*
X166315565Y-170000000D01*
X166295368Y-169820745D01*
X166235789Y-169650478D01*
X166139816Y-169497738D01*
X166012262Y-169370184D01*
X166012259Y-169370182D01*
X166012258Y-169370181D01*
X165859523Y-169274211D01*
X165689261Y-169214633D01*
X165689257Y-169214632D01*
X165510000Y-169194435D01*
X165330742Y-169214632D01*
X165330738Y-169214633D01*
X165160477Y-169274211D01*
X165160476Y-169274211D01*
X165007741Y-169370181D01*
X164880181Y-169497741D01*
X164784211Y-169650476D01*
X164784211Y-169650477D01*
X164724633Y-169820738D01*
X164724632Y-169820742D01*
X164704435Y-170000000D01*
X161315565Y-170000000D01*
X161295368Y-169820745D01*
X161235789Y-169650478D01*
X161139816Y-169497738D01*
X161012262Y-169370184D01*
X161012259Y-169370182D01*
X161012258Y-169370181D01*
X160859523Y-169274211D01*
X160689261Y-169214633D01*
X160689257Y-169214632D01*
X160510000Y-169194435D01*
X160330742Y-169214632D01*
X160330738Y-169214633D01*
X160160477Y-169274211D01*
X160160476Y-169274211D01*
X160007741Y-169370181D01*
X159880181Y-169497741D01*
X159784211Y-169650476D01*
X159784211Y-169650477D01*
X159724633Y-169820738D01*
X159724632Y-169820742D01*
X159704435Y-170000000D01*
X156315565Y-170000000D01*
X156295368Y-169820745D01*
X156235789Y-169650478D01*
X156139816Y-169497738D01*
X156012262Y-169370184D01*
X156012259Y-169370182D01*
X156012258Y-169370181D01*
X155859523Y-169274211D01*
X155689261Y-169214633D01*
X155689257Y-169214632D01*
X155510000Y-169194435D01*
X155330742Y-169214632D01*
X155330738Y-169214633D01*
X155160477Y-169274211D01*
X155160476Y-169274211D01*
X155052671Y-169341950D01*
X154993340Y-169356900D01*
X154947329Y-169341950D01*
X154839523Y-169274211D01*
X154669261Y-169214633D01*
X154669257Y-169214632D01*
X154490000Y-169194435D01*
X154310742Y-169214632D01*
X154310738Y-169214633D01*
X154140477Y-169274211D01*
X154140476Y-169274211D01*
X153987741Y-169370181D01*
X153860181Y-169497741D01*
X153764211Y-169650476D01*
X153764211Y-169650477D01*
X153704633Y-169820738D01*
X153704632Y-169820742D01*
X153684435Y-170000000D01*
X151315565Y-170000000D01*
X151295368Y-169820745D01*
X151235789Y-169650478D01*
X151139816Y-169497738D01*
X151012262Y-169370184D01*
X151012259Y-169370182D01*
X151012258Y-169370181D01*
X150859523Y-169274211D01*
X150689261Y-169214633D01*
X150689257Y-169214632D01*
X150510000Y-169194435D01*
X150330742Y-169214632D01*
X150330738Y-169214633D01*
X150160477Y-169274211D01*
X150160476Y-169274211D01*
X150007741Y-169370181D01*
X149880181Y-169497741D01*
X149784211Y-169650476D01*
X149784211Y-169650477D01*
X149724633Y-169820738D01*
X149724632Y-169820742D01*
X149704435Y-170000000D01*
X144755565Y-170000000D01*
X144735368Y-169820745D01*
X144675789Y-169650478D01*
X144579816Y-169497738D01*
X144452262Y-169370184D01*
X144452259Y-169370182D01*
X144452258Y-169370181D01*
X144299523Y-169274211D01*
X144129261Y-169214633D01*
X144129257Y-169214632D01*
X143950000Y-169194435D01*
X143770742Y-169214632D01*
X143770738Y-169214633D01*
X143600477Y-169274211D01*
X143600476Y-169274211D01*
X143447741Y-169370181D01*
X143320181Y-169497741D01*
X143224211Y-169650476D01*
X143224211Y-169650477D01*
X143164633Y-169820738D01*
X143164632Y-169820742D01*
X143144435Y-170000000D01*
X139755565Y-170000000D01*
X139735368Y-169820745D01*
X139675789Y-169650478D01*
X139579816Y-169497738D01*
X139452262Y-169370184D01*
X139452259Y-169370182D01*
X139452258Y-169370181D01*
X139299523Y-169274211D01*
X139129261Y-169214633D01*
X139129257Y-169214632D01*
X138950000Y-169194435D01*
X138770742Y-169214632D01*
X138770738Y-169214633D01*
X138600477Y-169274211D01*
X138600476Y-169274211D01*
X138447741Y-169370181D01*
X138320181Y-169497741D01*
X138224211Y-169650476D01*
X138224211Y-169650477D01*
X138164633Y-169820738D01*
X138164632Y-169820742D01*
X138144435Y-170000000D01*
X135018065Y-170000000D01*
X134997868Y-169820745D01*
X134938289Y-169650478D01*
X134842316Y-169497738D01*
X134714762Y-169370184D01*
X134714759Y-169370182D01*
X134714758Y-169370181D01*
X134562023Y-169274211D01*
X134391761Y-169214633D01*
X134391757Y-169214632D01*
X134212500Y-169194435D01*
X134033242Y-169214632D01*
X134033238Y-169214633D01*
X133862977Y-169274211D01*
X133862976Y-169274211D01*
X133710241Y-169370181D01*
X133582681Y-169497741D01*
X133486711Y-169650476D01*
X133486711Y-169650477D01*
X133427133Y-169820738D01*
X133427132Y-169820742D01*
X133406935Y-170000000D01*
X130018065Y-170000000D01*
X129997868Y-169820745D01*
X129938289Y-169650478D01*
X129842316Y-169497738D01*
X129714762Y-169370184D01*
X129714759Y-169370182D01*
X129714758Y-169370181D01*
X129562023Y-169274211D01*
X129391761Y-169214633D01*
X129391757Y-169214632D01*
X129212500Y-169194435D01*
X129033242Y-169214632D01*
X129033238Y-169214633D01*
X128862977Y-169274211D01*
X128862976Y-169274211D01*
X128710241Y-169370181D01*
X128582681Y-169497741D01*
X128486711Y-169650476D01*
X128486711Y-169650477D01*
X128427133Y-169820738D01*
X128427132Y-169820742D01*
X128406935Y-170000000D01*
X125018065Y-170000000D01*
X124997868Y-169820745D01*
X124938289Y-169650478D01*
X124842316Y-169497738D01*
X124714762Y-169370184D01*
X124714759Y-169370182D01*
X124714758Y-169370181D01*
X124562023Y-169274211D01*
X124391761Y-169214633D01*
X124391757Y-169214632D01*
X124212500Y-169194435D01*
X124033242Y-169214632D01*
X124033238Y-169214633D01*
X123862977Y-169274211D01*
X123862976Y-169274211D01*
X123710241Y-169370181D01*
X123582681Y-169497741D01*
X123486711Y-169650476D01*
X123486711Y-169650477D01*
X123427133Y-169820738D01*
X123427132Y-169820742D01*
X123406935Y-170000000D01*
X120325565Y-170000000D01*
X120305368Y-169820745D01*
X120245789Y-169650478D01*
X120149816Y-169497738D01*
X120022262Y-169370184D01*
X120022259Y-169370182D01*
X120022258Y-169370181D01*
X119869523Y-169274211D01*
X119699261Y-169214633D01*
X119699257Y-169214632D01*
X119520000Y-169194435D01*
X119340742Y-169214632D01*
X119340738Y-169214633D01*
X119170477Y-169274211D01*
X119170476Y-169274211D01*
X119017741Y-169370181D01*
X118890181Y-169497741D01*
X118794211Y-169650476D01*
X118794211Y-169650477D01*
X118734633Y-169820738D01*
X118734632Y-169820742D01*
X118714435Y-170000000D01*
X100500500Y-170000000D01*
X100500500Y-166750000D01*
X189194435Y-166750000D01*
X189214632Y-166929257D01*
X189227945Y-166967304D01*
X189229317Y-167028474D01*
X189227945Y-167032696D01*
X189214632Y-167070742D01*
X189194435Y-167250000D01*
X189214632Y-167429257D01*
X189214633Y-167429261D01*
X189274211Y-167599522D01*
X189274211Y-167599523D01*
X189370181Y-167752258D01*
X189370184Y-167752262D01*
X189497738Y-167879816D01*
X189650478Y-167975789D01*
X189718657Y-167999646D01*
X189820738Y-168035366D01*
X189820742Y-168035367D01*
X189820745Y-168035368D01*
X190000000Y-168055565D01*
X190179255Y-168035368D01*
X190349522Y-167975789D01*
X190502262Y-167879816D01*
X190629816Y-167752262D01*
X190725789Y-167599522D01*
X190785368Y-167429255D01*
X190805565Y-167250000D01*
X190785368Y-167070745D01*
X190772054Y-167032698D01*
X190770680Y-166971530D01*
X190772055Y-166967300D01*
X190785365Y-166929263D01*
X190785367Y-166929257D01*
X190785368Y-166929255D01*
X190805565Y-166750000D01*
X190785368Y-166570745D01*
X190725789Y-166400478D01*
X190629816Y-166247738D01*
X190502262Y-166120184D01*
X190502259Y-166120182D01*
X190502258Y-166120181D01*
X190349523Y-166024211D01*
X190179261Y-165964633D01*
X190179257Y-165964632D01*
X190000000Y-165944435D01*
X189820742Y-165964632D01*
X189820738Y-165964633D01*
X189650477Y-166024211D01*
X189650476Y-166024211D01*
X189497741Y-166120181D01*
X189370181Y-166247741D01*
X189274211Y-166400476D01*
X189274211Y-166400477D01*
X189214633Y-166570738D01*
X189214632Y-166570742D01*
X189194435Y-166750000D01*
X100500500Y-166750000D01*
X100500500Y-160000000D01*
X108714435Y-160000000D01*
X108734632Y-160179257D01*
X108734633Y-160179261D01*
X108794211Y-160349522D01*
X108794211Y-160349523D01*
X108863954Y-160460518D01*
X108890184Y-160502262D01*
X109017738Y-160629816D01*
X109017740Y-160629817D01*
X109017741Y-160629818D01*
X109170474Y-160725787D01*
X109170478Y-160725789D01*
X109238657Y-160749646D01*
X109340738Y-160785366D01*
X109340742Y-160785367D01*
X109340745Y-160785368D01*
X109520000Y-160805565D01*
X109699255Y-160785368D01*
X109869522Y-160725789D01*
X110022262Y-160629816D01*
X110149816Y-160502262D01*
X110245789Y-160349522D01*
X110305368Y-160179255D01*
X110325565Y-160000000D01*
X113714435Y-160000000D01*
X113734632Y-160179257D01*
X113734633Y-160179261D01*
X113794211Y-160349522D01*
X113794211Y-160349523D01*
X113863954Y-160460518D01*
X113890184Y-160502262D01*
X114017738Y-160629816D01*
X114017740Y-160629817D01*
X114017741Y-160629818D01*
X114170474Y-160725787D01*
X114170478Y-160725789D01*
X114238657Y-160749646D01*
X114340738Y-160785366D01*
X114340742Y-160785367D01*
X114340745Y-160785368D01*
X114520000Y-160805565D01*
X114699255Y-160785368D01*
X114869522Y-160725789D01*
X114947328Y-160676899D01*
X115006659Y-160661949D01*
X115052672Y-160676900D01*
X115130474Y-160725787D01*
X115130475Y-160725787D01*
X115130478Y-160725789D01*
X115231145Y-160761014D01*
X115300738Y-160785366D01*
X115300742Y-160785367D01*
X115300745Y-160785368D01*
X115480000Y-160805565D01*
X115659255Y-160785368D01*
X115829522Y-160725789D01*
X115982262Y-160629816D01*
X116109816Y-160502262D01*
X116205789Y-160349522D01*
X116265368Y-160179255D01*
X116285565Y-160000000D01*
X118714435Y-160000000D01*
X118734632Y-160179257D01*
X118734633Y-160179261D01*
X118794211Y-160349522D01*
X118794211Y-160349523D01*
X118863954Y-160460518D01*
X118890184Y-160502262D01*
X119017738Y-160629816D01*
X119017740Y-160629817D01*
X119017741Y-160629818D01*
X119170474Y-160725787D01*
X119170478Y-160725789D01*
X119238657Y-160749646D01*
X119340738Y-160785366D01*
X119340742Y-160785367D01*
X119340745Y-160785368D01*
X119520000Y-160805565D01*
X119699255Y-160785368D01*
X119869522Y-160725789D01*
X119947328Y-160676899D01*
X120006659Y-160661949D01*
X120052672Y-160676900D01*
X120130474Y-160725787D01*
X120130475Y-160725787D01*
X120130478Y-160725789D01*
X120231145Y-160761014D01*
X120300738Y-160785366D01*
X120300742Y-160785367D01*
X120300745Y-160785368D01*
X120480000Y-160805565D01*
X120659255Y-160785368D01*
X120829522Y-160725789D01*
X120982262Y-160629816D01*
X121109816Y-160502262D01*
X121205789Y-160349522D01*
X121265368Y-160179255D01*
X121285565Y-160000000D01*
X123714435Y-160000000D01*
X123734632Y-160179257D01*
X123734633Y-160179261D01*
X123794211Y-160349522D01*
X123794211Y-160349523D01*
X123863954Y-160460518D01*
X123890184Y-160502262D01*
X124017738Y-160629816D01*
X124017740Y-160629817D01*
X124017741Y-160629818D01*
X124170474Y-160725787D01*
X124170478Y-160725789D01*
X124238657Y-160749646D01*
X124340738Y-160785366D01*
X124340742Y-160785367D01*
X124340745Y-160785368D01*
X124520000Y-160805565D01*
X124699255Y-160785368D01*
X124869522Y-160725789D01*
X125022262Y-160629816D01*
X125114083Y-160537994D01*
X125168597Y-160510218D01*
X125229030Y-160519789D01*
X125233586Y-160522263D01*
X125257865Y-160536281D01*
X125404234Y-160575500D01*
X125404236Y-160575500D01*
X125555764Y-160575500D01*
X125555766Y-160575500D01*
X125702135Y-160536281D01*
X125702137Y-160536279D01*
X125702139Y-160536279D01*
X125833360Y-160460518D01*
X125833360Y-160460517D01*
X125833365Y-160460515D01*
X125940515Y-160353365D01*
X126016281Y-160222135D01*
X126055500Y-160075766D01*
X126055500Y-159799388D01*
X126074407Y-159741197D01*
X126084496Y-159729384D01*
X136813880Y-149000000D01*
X139394435Y-149000000D01*
X139414632Y-149179257D01*
X139414633Y-149179261D01*
X139474211Y-149349522D01*
X139474211Y-149349523D01*
X139570181Y-149502258D01*
X139570184Y-149502262D01*
X139697738Y-149629816D01*
X139697740Y-149629817D01*
X139697741Y-149629818D01*
X139849446Y-149725141D01*
X139850478Y-149725789D01*
X139913205Y-149747738D01*
X140020738Y-149785366D01*
X140020742Y-149785367D01*
X140020745Y-149785368D01*
X140200000Y-149805565D01*
X140379255Y-149785368D01*
X140379257Y-149785367D01*
X140384780Y-149784745D01*
X140384883Y-149785661D01*
X140415117Y-149785661D01*
X140415220Y-149784745D01*
X140420742Y-149785367D01*
X140420745Y-149785368D01*
X140600000Y-149805565D01*
X140779255Y-149785368D01*
X140779257Y-149785367D01*
X140784780Y-149784745D01*
X140784883Y-149785661D01*
X140815117Y-149785661D01*
X140815220Y-149784745D01*
X140820742Y-149785367D01*
X140820745Y-149785368D01*
X141000000Y-149805565D01*
X141179255Y-149785368D01*
X141179257Y-149785367D01*
X141184780Y-149784745D01*
X141184883Y-149785661D01*
X141215117Y-149785661D01*
X141215220Y-149784745D01*
X141220742Y-149785367D01*
X141220745Y-149785368D01*
X141400000Y-149805565D01*
X141579255Y-149785368D01*
X141581036Y-149784745D01*
X141664388Y-149755578D01*
X141749522Y-149725789D01*
X141749528Y-149725785D01*
X141754527Y-149723378D01*
X141755376Y-149725141D01*
X141806650Y-149712216D01*
X141844868Y-149724633D01*
X141845473Y-149723378D01*
X141850475Y-149725787D01*
X141850478Y-149725789D01*
X141850481Y-149725790D01*
X141850483Y-149725791D01*
X142020738Y-149785366D01*
X142020742Y-149785367D01*
X142020745Y-149785368D01*
X142200000Y-149805565D01*
X142379255Y-149785368D01*
X142379257Y-149785367D01*
X142384780Y-149784745D01*
X142384883Y-149785661D01*
X142415117Y-149785661D01*
X142415220Y-149784745D01*
X142420742Y-149785367D01*
X142420745Y-149785368D01*
X142600000Y-149805565D01*
X142779255Y-149785368D01*
X142781036Y-149784745D01*
X142800000Y-149778109D01*
X142949522Y-149725789D01*
X143102262Y-149629816D01*
X143229816Y-149502262D01*
X143325789Y-149349522D01*
X143385368Y-149179255D01*
X143405565Y-149000000D01*
X143385368Y-148820745D01*
X143325789Y-148650478D01*
X143229816Y-148497738D01*
X143102262Y-148370184D01*
X143102259Y-148370182D01*
X143102258Y-148370181D01*
X142949523Y-148274211D01*
X142779261Y-148214633D01*
X142779257Y-148214632D01*
X142600000Y-148194435D01*
X142420745Y-148214632D01*
X142420742Y-148214632D01*
X142415221Y-148215255D01*
X142415118Y-148214344D01*
X142384882Y-148214344D01*
X142384779Y-148215255D01*
X142379257Y-148214632D01*
X142379255Y-148214632D01*
X142200000Y-148194435D01*
X142199999Y-148194435D01*
X142020742Y-148214632D01*
X142020738Y-148214633D01*
X141850474Y-148274212D01*
X141845466Y-148276624D01*
X141844618Y-148274863D01*
X141793333Y-148287782D01*
X141755136Y-148275371D01*
X141754534Y-148276624D01*
X141749525Y-148274212D01*
X141579261Y-148214633D01*
X141579257Y-148214632D01*
X141400000Y-148194435D01*
X141220745Y-148214632D01*
X141220742Y-148214632D01*
X141215221Y-148215255D01*
X141215118Y-148214344D01*
X141184882Y-148214344D01*
X141184779Y-148215255D01*
X141179257Y-148214632D01*
X141179255Y-148214632D01*
X141000000Y-148194435D01*
X140820745Y-148214632D01*
X140820742Y-148214632D01*
X140815221Y-148215255D01*
X140815118Y-148214344D01*
X140784882Y-148214344D01*
X140784779Y-148215255D01*
X140779257Y-148214632D01*
X140779255Y-148214632D01*
X140600000Y-148194435D01*
X140420745Y-148214632D01*
X140420742Y-148214632D01*
X140415221Y-148215255D01*
X140415118Y-148214344D01*
X140384882Y-148214344D01*
X140384779Y-148215255D01*
X140379257Y-148214632D01*
X140379255Y-148214632D01*
X140200000Y-148194435D01*
X140199999Y-148194435D01*
X140020742Y-148214632D01*
X140020738Y-148214633D01*
X139850477Y-148274211D01*
X139850476Y-148274211D01*
X139697741Y-148370181D01*
X139570181Y-148497741D01*
X139474211Y-148650476D01*
X139474211Y-148650477D01*
X139414633Y-148820738D01*
X139414632Y-148820742D01*
X139394435Y-149000000D01*
X136813880Y-149000000D01*
X142009384Y-143804496D01*
X142063901Y-143776719D01*
X142079388Y-143775500D01*
X143108949Y-143775500D01*
X143167140Y-143794407D01*
X143203104Y-143843907D01*
X143207326Y-143885581D01*
X143194435Y-144000000D01*
X143214632Y-144179255D01*
X143214632Y-144179257D01*
X143215255Y-144184779D01*
X143214344Y-144184881D01*
X143214344Y-144215118D01*
X143215255Y-144215221D01*
X143214632Y-144220742D01*
X143214632Y-144220745D01*
X143214209Y-144224500D01*
X143194435Y-144400000D01*
X143214632Y-144579257D01*
X143214633Y-144579261D01*
X143274212Y-144749525D01*
X143276624Y-144754534D01*
X143274863Y-144755381D01*
X143287782Y-144806667D01*
X143275371Y-144844863D01*
X143276624Y-144845466D01*
X143274212Y-144850474D01*
X143214633Y-145020738D01*
X143214632Y-145020742D01*
X143194435Y-145200000D01*
X143214632Y-145379257D01*
X143214633Y-145379261D01*
X143274211Y-145549522D01*
X143274211Y-145549523D01*
X143370181Y-145702258D01*
X143370184Y-145702262D01*
X143419514Y-145751592D01*
X143447290Y-145806107D01*
X143445136Y-145847216D01*
X143424500Y-145924234D01*
X143424500Y-146075766D01*
X143459086Y-146204847D01*
X143463720Y-146222139D01*
X143539481Y-146353360D01*
X143539483Y-146353362D01*
X143539485Y-146353365D01*
X143646635Y-146460515D01*
X143646637Y-146460516D01*
X143646639Y-146460518D01*
X143777861Y-146536279D01*
X143777859Y-146536279D01*
X143777863Y-146536280D01*
X143777865Y-146536281D01*
X143924234Y-146575500D01*
X143924236Y-146575500D01*
X158275764Y-146575500D01*
X158275766Y-146575500D01*
X158422135Y-146536281D01*
X158422137Y-146536279D01*
X158422139Y-146536279D01*
X158553360Y-146460518D01*
X158553360Y-146460517D01*
X158553365Y-146460515D01*
X162173597Y-142840281D01*
X162228112Y-142812506D01*
X162288544Y-142822077D01*
X162329335Y-142860785D01*
X162339485Y-142878365D01*
X182196635Y-162735515D01*
X182196637Y-162735516D01*
X182196639Y-162735518D01*
X182327861Y-162811279D01*
X182327859Y-162811279D01*
X182327863Y-162811280D01*
X182327865Y-162811281D01*
X182474234Y-162850500D01*
X182474236Y-162850500D01*
X182625765Y-162850500D01*
X182625767Y-162850500D01*
X182772135Y-162811281D01*
X182772137Y-162811279D01*
X182772139Y-162811279D01*
X182903360Y-162735518D01*
X182903360Y-162735517D01*
X182903365Y-162735515D01*
X183010515Y-162628365D01*
X183086281Y-162497135D01*
X183098911Y-162450000D01*
X185069435Y-162450000D01*
X185089632Y-162629257D01*
X185089633Y-162629261D01*
X185149211Y-162799522D01*
X185149211Y-162799523D01*
X185245181Y-162952258D01*
X185245184Y-162952262D01*
X185372738Y-163079816D01*
X185525478Y-163175789D01*
X185593657Y-163199646D01*
X185695738Y-163235366D01*
X185695742Y-163235367D01*
X185695745Y-163235368D01*
X185875000Y-163255565D01*
X186054255Y-163235368D01*
X186224522Y-163175789D01*
X186377262Y-163079816D01*
X186504816Y-162952262D01*
X186600789Y-162799522D01*
X186660368Y-162629255D01*
X186680565Y-162450000D01*
X186660368Y-162270745D01*
X186600789Y-162100478D01*
X186504816Y-161947738D01*
X186377262Y-161820184D01*
X186377259Y-161820182D01*
X186377258Y-161820181D01*
X186224523Y-161724211D01*
X186054261Y-161664633D01*
X186054257Y-161664632D01*
X185875000Y-161644435D01*
X185695742Y-161664632D01*
X185695738Y-161664633D01*
X185525477Y-161724211D01*
X185525476Y-161724211D01*
X185372741Y-161820181D01*
X185245181Y-161947741D01*
X185149211Y-162100476D01*
X185149211Y-162100477D01*
X185089633Y-162270738D01*
X185089632Y-162270742D01*
X185069435Y-162450000D01*
X183098911Y-162450000D01*
X183125500Y-162350767D01*
X183125500Y-162199234D01*
X183086281Y-162052865D01*
X183086279Y-162052862D01*
X183086279Y-162052860D01*
X183010518Y-161921639D01*
X183010517Y-161921638D01*
X183010516Y-161921637D01*
X183010515Y-161921635D01*
X180213880Y-159125000D01*
X181744435Y-159125000D01*
X181749126Y-159166634D01*
X181762903Y-159288915D01*
X181762903Y-159311083D01*
X181744435Y-159474999D01*
X181744435Y-159475000D01*
X181746997Y-159497738D01*
X181762903Y-159638916D01*
X181762903Y-159661084D01*
X181744435Y-159825000D01*
X181764632Y-160004257D01*
X181764633Y-160004261D01*
X181824211Y-160174522D01*
X181824211Y-160174523D01*
X181920181Y-160327258D01*
X181920184Y-160327262D01*
X182047738Y-160454816D01*
X182047740Y-160454817D01*
X182047741Y-160454818D01*
X182177388Y-160536281D01*
X182200478Y-160550789D01*
X182268657Y-160574646D01*
X182370738Y-160610366D01*
X182370742Y-160610367D01*
X182370745Y-160610368D01*
X182550000Y-160630565D01*
X182729255Y-160610368D01*
X182899522Y-160550789D01*
X183052262Y-160454816D01*
X183179816Y-160327262D01*
X183275789Y-160174522D01*
X183335368Y-160004255D01*
X183355565Y-159825000D01*
X183355565Y-159824996D01*
X183355565Y-159824995D01*
X183337096Y-159661085D01*
X183337096Y-159638915D01*
X183355565Y-159475004D01*
X183355565Y-159474995D01*
X183337096Y-159311085D01*
X183337096Y-159288915D01*
X183355565Y-159125004D01*
X183355565Y-159125003D01*
X183348183Y-159059484D01*
X183335368Y-158945745D01*
X183275789Y-158775478D01*
X183179816Y-158622738D01*
X183052262Y-158495184D01*
X183052259Y-158495182D01*
X183052258Y-158495181D01*
X182899523Y-158399211D01*
X182729261Y-158339633D01*
X182729257Y-158339632D01*
X182550000Y-158319435D01*
X182370742Y-158339632D01*
X182370738Y-158339633D01*
X182200477Y-158399211D01*
X182200476Y-158399211D01*
X182047741Y-158495181D01*
X181920181Y-158622741D01*
X181824211Y-158775476D01*
X181824211Y-158775477D01*
X181764633Y-158945738D01*
X181764632Y-158945742D01*
X181764632Y-158945745D01*
X181744435Y-159125000D01*
X180213880Y-159125000D01*
X163404496Y-142315616D01*
X163376719Y-142261099D01*
X163375500Y-142245612D01*
X163375500Y-141679388D01*
X163394407Y-141621197D01*
X163404496Y-141609384D01*
X163775500Y-141238380D01*
X164179998Y-140833881D01*
X164234513Y-140806106D01*
X164294945Y-140815677D01*
X164320000Y-140833880D01*
X173696635Y-150210515D01*
X173696637Y-150210516D01*
X173696639Y-150210518D01*
X173827861Y-150286279D01*
X173827859Y-150286279D01*
X173827863Y-150286280D01*
X173827865Y-150286281D01*
X173974234Y-150325500D01*
X173974236Y-150325500D01*
X174125765Y-150325500D01*
X174125767Y-150325500D01*
X174272135Y-150286281D01*
X174272137Y-150286279D01*
X174272139Y-150286279D01*
X174403360Y-150210518D01*
X174403360Y-150210517D01*
X174403365Y-150210515D01*
X174510515Y-150103365D01*
X174529352Y-150070738D01*
X174586279Y-149972139D01*
X174586279Y-149972137D01*
X174586281Y-149972135D01*
X174625500Y-149825767D01*
X174625500Y-149825763D01*
X174625657Y-149825178D01*
X174651278Y-149780799D01*
X174679816Y-149752262D01*
X174775789Y-149599522D01*
X174835368Y-149429255D01*
X174839405Y-149393415D01*
X174864708Y-149337709D01*
X174917923Y-149307512D01*
X174937783Y-149305500D01*
X175642846Y-149305500D01*
X175701037Y-149324407D01*
X175737001Y-149373907D01*
X175737001Y-149435093D01*
X175701037Y-149484593D01*
X175675544Y-149497944D01*
X175600477Y-149524211D01*
X175600476Y-149524211D01*
X175447741Y-149620181D01*
X175320181Y-149747741D01*
X175224211Y-149900476D01*
X175224211Y-149900477D01*
X175164633Y-150070738D01*
X175164632Y-150070742D01*
X175144435Y-150250000D01*
X175164632Y-150429257D01*
X175164633Y-150429261D01*
X175224211Y-150599522D01*
X175224211Y-150599523D01*
X175320181Y-150752258D01*
X175320184Y-150752262D01*
X175447738Y-150879816D01*
X175447740Y-150879817D01*
X175447741Y-150879818D01*
X175526419Y-150929255D01*
X175600478Y-150975789D01*
X175652779Y-150994090D01*
X175770738Y-151035366D01*
X175770742Y-151035367D01*
X175770745Y-151035368D01*
X175950000Y-151055565D01*
X176129255Y-151035368D01*
X176299522Y-150975789D01*
X176452262Y-150879816D01*
X176579816Y-150752262D01*
X176675789Y-150599522D01*
X176735368Y-150429255D01*
X176755565Y-150250000D01*
X176735368Y-150070745D01*
X176675789Y-149900478D01*
X176600588Y-149780797D01*
X176579818Y-149747741D01*
X176579817Y-149747740D01*
X176579816Y-149747738D01*
X176452262Y-149620184D01*
X176452259Y-149620182D01*
X176452258Y-149620181D01*
X176299523Y-149524211D01*
X176224456Y-149497944D01*
X176175776Y-149460879D01*
X176158179Y-149402278D01*
X176178387Y-149344527D01*
X176228682Y-149309683D01*
X176257154Y-149305500D01*
X188905050Y-149305500D01*
X188963241Y-149324407D01*
X188999205Y-149373907D01*
X189003482Y-149415082D01*
X189001332Y-149435093D01*
X188999500Y-149452130D01*
X188999500Y-150547866D01*
X188999501Y-150547870D01*
X189005908Y-150607480D01*
X189005909Y-150607485D01*
X189056202Y-150742329D01*
X189142450Y-150857541D01*
X189142454Y-150857546D01*
X189142457Y-150857548D01*
X189142458Y-150857549D01*
X189257670Y-150943797D01*
X189392511Y-150994089D01*
X189392512Y-150994089D01*
X189392517Y-150994091D01*
X189452127Y-151000500D01*
X190547872Y-151000499D01*
X190607483Y-150994091D01*
X190742331Y-150943796D01*
X190763117Y-150928234D01*
X190821028Y-150908497D01*
X190869116Y-150920177D01*
X190885273Y-150928814D01*
X191016657Y-150968669D01*
X191073867Y-150986024D01*
X191073873Y-150986025D01*
X191269997Y-151005341D01*
X191270000Y-151005341D01*
X191270003Y-151005341D01*
X191466126Y-150986025D01*
X191466127Y-150986024D01*
X191466132Y-150986024D01*
X191654727Y-150928814D01*
X191828538Y-150835910D01*
X191842194Y-150824701D01*
X191899168Y-150802401D01*
X191958372Y-150817848D01*
X191967794Y-150824693D01*
X191981462Y-150835910D01*
X192114353Y-150906942D01*
X192154191Y-150928236D01*
X192155273Y-150928814D01*
X192343868Y-150986024D01*
X192343870Y-150986024D01*
X192343873Y-150986025D01*
X192539997Y-151005341D01*
X192540000Y-151005341D01*
X192540003Y-151005341D01*
X192736126Y-150986025D01*
X192736127Y-150986024D01*
X192736132Y-150986024D01*
X192924727Y-150928814D01*
X193098538Y-150835910D01*
X193112194Y-150824701D01*
X193169168Y-150802401D01*
X193228372Y-150817848D01*
X193237794Y-150824693D01*
X193251462Y-150835910D01*
X193384353Y-150906942D01*
X193424191Y-150928236D01*
X193425273Y-150928814D01*
X193613868Y-150986024D01*
X193613870Y-150986024D01*
X193613873Y-150986025D01*
X193809997Y-151005341D01*
X193810000Y-151005341D01*
X193810003Y-151005341D01*
X194006126Y-150986025D01*
X194006127Y-150986024D01*
X194006132Y-150986024D01*
X194194727Y-150928814D01*
X194368538Y-150835910D01*
X194382194Y-150824701D01*
X194439168Y-150802401D01*
X194498372Y-150817848D01*
X194507794Y-150824693D01*
X194521462Y-150835910D01*
X194654353Y-150906942D01*
X194694191Y-150928236D01*
X194695273Y-150928814D01*
X194883868Y-150986024D01*
X194883870Y-150986024D01*
X194883873Y-150986025D01*
X195079997Y-151005341D01*
X195080000Y-151005341D01*
X195080003Y-151005341D01*
X195276126Y-150986025D01*
X195276127Y-150986024D01*
X195276132Y-150986024D01*
X195464727Y-150928814D01*
X195638538Y-150835910D01*
X195652194Y-150824701D01*
X195709168Y-150802401D01*
X195768372Y-150817848D01*
X195777794Y-150824693D01*
X195791462Y-150835910D01*
X195924353Y-150906942D01*
X195964191Y-150928236D01*
X195965273Y-150928814D01*
X196153868Y-150986024D01*
X196153870Y-150986024D01*
X196153873Y-150986025D01*
X196349997Y-151005341D01*
X196350000Y-151005341D01*
X196350003Y-151005341D01*
X196546126Y-150986025D01*
X196546127Y-150986024D01*
X196546132Y-150986024D01*
X196734727Y-150928814D01*
X196908538Y-150835910D01*
X196922194Y-150824701D01*
X196979168Y-150802401D01*
X197038372Y-150817848D01*
X197047794Y-150824693D01*
X197061462Y-150835910D01*
X197194353Y-150906942D01*
X197234191Y-150928236D01*
X197235273Y-150928814D01*
X197423868Y-150986024D01*
X197423870Y-150986024D01*
X197423873Y-150986025D01*
X197619997Y-151005341D01*
X197620000Y-151005341D01*
X197620003Y-151005341D01*
X197816126Y-150986025D01*
X197816127Y-150986024D01*
X197816132Y-150986024D01*
X198004727Y-150928814D01*
X198178538Y-150835910D01*
X198330883Y-150710883D01*
X198455910Y-150558538D01*
X198548814Y-150384727D01*
X198606024Y-150196132D01*
X198618374Y-150070745D01*
X198625341Y-150000003D01*
X198625341Y-149999996D01*
X198606025Y-149803873D01*
X198606024Y-149803870D01*
X198606024Y-149803868D01*
X198548814Y-149615273D01*
X198540395Y-149599523D01*
X198468295Y-149464633D01*
X198455910Y-149441462D01*
X198444701Y-149427805D01*
X198422401Y-149370832D01*
X198437848Y-149311628D01*
X198444693Y-149302205D01*
X198455910Y-149288538D01*
X198548814Y-149114727D01*
X198606024Y-148926132D01*
X198616405Y-148820738D01*
X198625341Y-148730003D01*
X198625341Y-148729996D01*
X198606025Y-148533873D01*
X198606024Y-148533870D01*
X198606024Y-148533868D01*
X198548814Y-148345273D01*
X198455910Y-148171462D01*
X198440989Y-148153281D01*
X198330887Y-148019121D01*
X198330878Y-148019112D01*
X198178542Y-147894093D01*
X198178540Y-147894092D01*
X198178538Y-147894090D01*
X198137618Y-147872218D01*
X198004732Y-147801188D01*
X198004730Y-147801187D01*
X197816129Y-147743975D01*
X197816126Y-147743974D01*
X197620003Y-147724659D01*
X197619997Y-147724659D01*
X197423873Y-147743974D01*
X197423870Y-147743975D01*
X197235269Y-147801187D01*
X197235267Y-147801188D01*
X197061473Y-147894082D01*
X197061464Y-147894088D01*
X197047803Y-147905300D01*
X196990826Y-147927598D01*
X196931623Y-147912148D01*
X196922197Y-147905300D01*
X196908538Y-147894090D01*
X196908536Y-147894089D01*
X196908535Y-147894088D01*
X196908526Y-147894082D01*
X196734732Y-147801188D01*
X196734730Y-147801187D01*
X196546129Y-147743975D01*
X196546126Y-147743974D01*
X196350003Y-147724659D01*
X196349997Y-147724659D01*
X196153873Y-147743974D01*
X196153870Y-147743975D01*
X195965269Y-147801187D01*
X195965267Y-147801188D01*
X195791473Y-147894082D01*
X195791464Y-147894088D01*
X195777803Y-147905300D01*
X195720826Y-147927598D01*
X195661623Y-147912148D01*
X195652197Y-147905300D01*
X195638538Y-147894090D01*
X195638536Y-147894089D01*
X195638535Y-147894088D01*
X195638526Y-147894082D01*
X195464732Y-147801188D01*
X195464730Y-147801187D01*
X195276129Y-147743975D01*
X195276126Y-147743974D01*
X195080003Y-147724659D01*
X195079997Y-147724659D01*
X194883873Y-147743974D01*
X194883870Y-147743975D01*
X194695269Y-147801187D01*
X194695267Y-147801188D01*
X194521473Y-147894082D01*
X194521464Y-147894088D01*
X194507803Y-147905300D01*
X194450826Y-147927598D01*
X194391623Y-147912148D01*
X194382197Y-147905300D01*
X194368538Y-147894090D01*
X194368536Y-147894089D01*
X194368535Y-147894088D01*
X194368526Y-147894082D01*
X194194732Y-147801188D01*
X194194730Y-147801187D01*
X194006129Y-147743975D01*
X194006126Y-147743974D01*
X193810003Y-147724659D01*
X193809997Y-147724659D01*
X193613873Y-147743974D01*
X193613870Y-147743975D01*
X193425269Y-147801187D01*
X193425267Y-147801188D01*
X193251473Y-147894082D01*
X193251464Y-147894088D01*
X193237803Y-147905300D01*
X193180826Y-147927598D01*
X193121623Y-147912148D01*
X193112197Y-147905300D01*
X193098538Y-147894090D01*
X193098536Y-147894089D01*
X193098535Y-147894088D01*
X193098526Y-147894082D01*
X192924732Y-147801188D01*
X192924730Y-147801187D01*
X192736129Y-147743975D01*
X192736126Y-147743974D01*
X192540003Y-147724659D01*
X192539997Y-147724659D01*
X192343873Y-147743974D01*
X192343870Y-147743975D01*
X192155269Y-147801187D01*
X192155267Y-147801188D01*
X191981473Y-147894082D01*
X191981464Y-147894088D01*
X191967803Y-147905300D01*
X191910826Y-147927598D01*
X191851623Y-147912148D01*
X191842197Y-147905300D01*
X191828538Y-147894090D01*
X191828536Y-147894089D01*
X191828535Y-147894088D01*
X191828526Y-147894082D01*
X191654732Y-147801188D01*
X191654730Y-147801187D01*
X191466129Y-147743975D01*
X191466126Y-147743974D01*
X191270003Y-147724659D01*
X191269997Y-147724659D01*
X191073873Y-147743974D01*
X191073870Y-147743975D01*
X190885269Y-147801187D01*
X190885267Y-147801188D01*
X190711467Y-147894087D01*
X190711457Y-147894093D01*
X190559122Y-148019112D01*
X190559113Y-148019121D01*
X190550894Y-148029136D01*
X190499361Y-148062121D01*
X190438282Y-148058515D01*
X190421697Y-148050152D01*
X190349307Y-148004666D01*
X190200000Y-147952421D01*
X190200000Y-148055500D01*
X190181093Y-148113691D01*
X190131593Y-148149655D01*
X190101000Y-148154500D01*
X189899000Y-148154500D01*
X189840809Y-148135593D01*
X189804845Y-148086093D01*
X189800000Y-148055500D01*
X189800000Y-147952421D01*
X189650693Y-148004665D01*
X189498055Y-148100574D01*
X189473126Y-148125504D01*
X189418609Y-148153281D01*
X189403122Y-148154500D01*
X175209388Y-148154500D01*
X175151197Y-148135593D01*
X175139384Y-148125504D01*
X167758384Y-140744504D01*
X167730607Y-140689987D01*
X167740178Y-140629555D01*
X167783443Y-140586290D01*
X167828388Y-140575500D01*
X188925242Y-140575500D01*
X188983433Y-140594407D01*
X189018000Y-140639903D01*
X189056203Y-140742330D01*
X189126256Y-140835909D01*
X189142454Y-140857546D01*
X189142457Y-140857548D01*
X189142458Y-140857549D01*
X189257670Y-140943797D01*
X189392511Y-140994089D01*
X189392512Y-140994089D01*
X189392517Y-140994091D01*
X189452127Y-141000500D01*
X190547872Y-141000499D01*
X190607483Y-140994091D01*
X190742331Y-140943796D01*
X190763117Y-140928234D01*
X190821028Y-140908497D01*
X190869116Y-140920177D01*
X190885273Y-140928814D01*
X191016657Y-140968669D01*
X191073867Y-140986024D01*
X191073873Y-140986025D01*
X191269997Y-141005341D01*
X191270000Y-141005341D01*
X191270003Y-141005341D01*
X191466126Y-140986025D01*
X191466127Y-140986024D01*
X191466132Y-140986024D01*
X191654727Y-140928814D01*
X191828538Y-140835910D01*
X191842194Y-140824701D01*
X191899168Y-140802401D01*
X191958372Y-140817848D01*
X191967794Y-140824693D01*
X191981462Y-140835910D01*
X192114353Y-140906942D01*
X192154191Y-140928236D01*
X192155273Y-140928814D01*
X192343868Y-140986024D01*
X192343870Y-140986024D01*
X192343873Y-140986025D01*
X192539997Y-141005341D01*
X192540000Y-141005341D01*
X192540003Y-141005341D01*
X192736126Y-140986025D01*
X192736127Y-140986024D01*
X192736132Y-140986024D01*
X192924727Y-140928814D01*
X193098538Y-140835910D01*
X193112194Y-140824701D01*
X193169168Y-140802401D01*
X193228372Y-140817848D01*
X193237794Y-140824693D01*
X193251462Y-140835910D01*
X193384353Y-140906942D01*
X193424191Y-140928236D01*
X193425273Y-140928814D01*
X193613868Y-140986024D01*
X193613870Y-140986024D01*
X193613873Y-140986025D01*
X193809997Y-141005341D01*
X193810000Y-141005341D01*
X193810003Y-141005341D01*
X194006126Y-140986025D01*
X194006127Y-140986024D01*
X194006132Y-140986024D01*
X194194727Y-140928814D01*
X194368538Y-140835910D01*
X194382194Y-140824701D01*
X194439168Y-140802401D01*
X194498372Y-140817848D01*
X194507794Y-140824693D01*
X194521462Y-140835910D01*
X194654353Y-140906942D01*
X194694191Y-140928236D01*
X194695273Y-140928814D01*
X194883868Y-140986024D01*
X194883870Y-140986024D01*
X194883873Y-140986025D01*
X195079997Y-141005341D01*
X195080000Y-141005341D01*
X195080003Y-141005341D01*
X195276126Y-140986025D01*
X195276127Y-140986024D01*
X195276132Y-140986024D01*
X195464727Y-140928814D01*
X195638538Y-140835910D01*
X195790883Y-140710883D01*
X195915910Y-140558538D01*
X196008814Y-140384727D01*
X196066024Y-140196132D01*
X196066131Y-140195052D01*
X196085341Y-140000003D01*
X196085341Y-139999996D01*
X196066025Y-139803873D01*
X196066024Y-139803870D01*
X196066024Y-139803868D01*
X196008814Y-139615273D01*
X195915910Y-139441462D01*
X195904701Y-139427805D01*
X195882401Y-139370832D01*
X195897848Y-139311628D01*
X195904693Y-139302205D01*
X195915910Y-139288538D01*
X196008814Y-139114727D01*
X196066024Y-138926132D01*
X196066121Y-138925155D01*
X196085341Y-138730000D01*
X196085341Y-138729996D01*
X196066025Y-138533873D01*
X196066024Y-138533870D01*
X196066024Y-138533868D01*
X196008814Y-138345273D01*
X195915910Y-138171462D01*
X195915906Y-138171457D01*
X195790887Y-138019121D01*
X195790878Y-138019112D01*
X195638542Y-137894093D01*
X195638540Y-137894092D01*
X195638538Y-137894090D01*
X195597618Y-137872218D01*
X195464732Y-137801188D01*
X195464730Y-137801187D01*
X195276129Y-137743975D01*
X195276126Y-137743974D01*
X195080003Y-137724659D01*
X195079997Y-137724659D01*
X194883873Y-137743974D01*
X194883870Y-137743975D01*
X194695269Y-137801187D01*
X194695267Y-137801188D01*
X194521473Y-137894082D01*
X194521464Y-137894088D01*
X194507803Y-137905300D01*
X194450826Y-137927598D01*
X194391623Y-137912148D01*
X194382197Y-137905300D01*
X194368538Y-137894090D01*
X194368536Y-137894089D01*
X194368535Y-137894088D01*
X194368526Y-137894082D01*
X194194732Y-137801188D01*
X194194730Y-137801187D01*
X194006129Y-137743975D01*
X194006126Y-137743974D01*
X193810003Y-137724659D01*
X193809997Y-137724659D01*
X193613873Y-137743974D01*
X193613870Y-137743975D01*
X193425269Y-137801187D01*
X193425267Y-137801188D01*
X193251467Y-137894087D01*
X193251457Y-137894093D01*
X193099122Y-138019112D01*
X193099113Y-138019121D01*
X193090894Y-138029136D01*
X193039361Y-138062121D01*
X192978282Y-138058515D01*
X192961697Y-138050152D01*
X192889307Y-138004666D01*
X192740000Y-137952421D01*
X192740000Y-138470382D01*
X192739554Y-138469936D01*
X192665445Y-138427149D01*
X192582787Y-138405000D01*
X192497213Y-138405000D01*
X192414555Y-138427149D01*
X192340446Y-138469936D01*
X192340000Y-138470382D01*
X192340000Y-137952421D01*
X192190695Y-138004665D01*
X192118301Y-138050153D01*
X192058970Y-138065103D01*
X192002183Y-138042323D01*
X191989102Y-138029132D01*
X191980886Y-138019121D01*
X191980883Y-138019117D01*
X191980881Y-138019115D01*
X191980880Y-138019114D01*
X191828542Y-137894093D01*
X191828540Y-137894092D01*
X191828538Y-137894090D01*
X191787618Y-137872218D01*
X191654732Y-137801188D01*
X191654730Y-137801187D01*
X191466129Y-137743975D01*
X191466126Y-137743974D01*
X191270003Y-137724659D01*
X191269997Y-137724659D01*
X191073873Y-137743974D01*
X191073870Y-137743975D01*
X190885269Y-137801187D01*
X190885267Y-137801188D01*
X190711467Y-137894087D01*
X190711457Y-137894093D01*
X190559122Y-138019112D01*
X190559113Y-138019121D01*
X190550894Y-138029136D01*
X190499361Y-138062121D01*
X190438282Y-138058515D01*
X190421697Y-138050152D01*
X190349307Y-138004666D01*
X190200000Y-137952421D01*
X190200000Y-138470382D01*
X190199554Y-138469936D01*
X190125445Y-138427149D01*
X190042787Y-138405000D01*
X189957213Y-138405000D01*
X189874555Y-138427149D01*
X189800446Y-138469936D01*
X189800000Y-138470382D01*
X189800000Y-137952421D01*
X189650693Y-138004665D01*
X189498055Y-138100574D01*
X189370574Y-138228055D01*
X189274665Y-138380693D01*
X189222422Y-138530000D01*
X189740382Y-138530000D01*
X189739936Y-138530446D01*
X189697149Y-138604555D01*
X189675000Y-138687213D01*
X189675000Y-138772787D01*
X189697149Y-138855445D01*
X189739936Y-138929554D01*
X189740382Y-138930000D01*
X189222421Y-138930000D01*
X189240771Y-138982442D01*
X189242143Y-139043612D01*
X189207298Y-139093906D01*
X189206656Y-139094392D01*
X189142455Y-139142453D01*
X189142450Y-139142458D01*
X189056202Y-139257670D01*
X189018001Y-139360096D01*
X188979951Y-139408011D01*
X188925243Y-139424500D01*
X169340888Y-139424500D01*
X169282697Y-139405593D01*
X169246733Y-139356093D01*
X169246733Y-139294907D01*
X169270884Y-139255497D01*
X169720787Y-138805592D01*
X169775304Y-138777814D01*
X169779669Y-138777222D01*
X169929255Y-138760368D01*
X170099522Y-138700789D01*
X170197328Y-138639332D01*
X170256659Y-138624382D01*
X170302672Y-138639333D01*
X170400474Y-138700787D01*
X170400475Y-138700787D01*
X170400478Y-138700789D01*
X170483961Y-138730001D01*
X170570738Y-138760366D01*
X170570742Y-138760367D01*
X170570745Y-138760368D01*
X170750000Y-138780565D01*
X170929255Y-138760368D01*
X171099522Y-138700789D01*
X171252262Y-138604816D01*
X171379816Y-138477262D01*
X171475789Y-138324522D01*
X171535368Y-138154255D01*
X171538727Y-138124432D01*
X171564030Y-138068727D01*
X171617245Y-138038530D01*
X171626008Y-138037142D01*
X171641755Y-138035368D01*
X171812022Y-137975789D01*
X171964762Y-137879816D01*
X172092316Y-137752262D01*
X172188289Y-137599522D01*
X172247868Y-137429255D01*
X172268065Y-137250000D01*
X172247868Y-137070745D01*
X172234555Y-137032700D01*
X172198359Y-136929257D01*
X172188289Y-136900478D01*
X172092316Y-136747738D01*
X171985852Y-136641274D01*
X171958077Y-136586760D01*
X171967648Y-136526328D01*
X171970102Y-136521806D01*
X171998781Y-136472135D01*
X172038000Y-136325767D01*
X172038000Y-136174234D01*
X171998781Y-136027865D01*
X171998779Y-136027862D01*
X171998779Y-136027860D01*
X171923018Y-135896639D01*
X171923016Y-135896637D01*
X171923015Y-135896635D01*
X171815865Y-135789485D01*
X171815862Y-135789483D01*
X171815860Y-135789481D01*
X171684638Y-135713720D01*
X171684640Y-135713720D01*
X171627847Y-135698503D01*
X171538266Y-135674500D01*
X171386733Y-135674500D01*
X171297152Y-135698502D01*
X171240360Y-135713720D01*
X171109139Y-135789481D01*
X171109134Y-135789485D01*
X169751035Y-137147582D01*
X169696519Y-137175359D01*
X169692117Y-137175955D01*
X169570747Y-137189631D01*
X169570745Y-137189631D01*
X169532696Y-137202945D01*
X169471526Y-137204317D01*
X169467304Y-137202945D01*
X169429254Y-137189631D01*
X169413517Y-137187858D01*
X169357810Y-137162553D01*
X169327617Y-137109336D01*
X169326229Y-137100578D01*
X169322868Y-137070745D01*
X169309554Y-137032698D01*
X169308180Y-136971530D01*
X169309555Y-136967300D01*
X169322865Y-136929263D01*
X169322867Y-136929257D01*
X169322868Y-136929255D01*
X169343065Y-136750000D01*
X169322868Y-136570745D01*
X169263289Y-136400478D01*
X169167316Y-136247738D01*
X169039762Y-136120184D01*
X169039759Y-136120182D01*
X169039758Y-136120181D01*
X168887023Y-136024211D01*
X168716761Y-135964633D01*
X168716757Y-135964632D01*
X168537500Y-135944435D01*
X168358242Y-135964632D01*
X168358238Y-135964633D01*
X168187977Y-136024211D01*
X168187976Y-136024211D01*
X168035241Y-136120181D01*
X167907681Y-136247741D01*
X167811711Y-136400476D01*
X167811711Y-136400477D01*
X167752133Y-136570738D01*
X167752132Y-136570742D01*
X167731935Y-136750000D01*
X167752132Y-136929257D01*
X167765445Y-136967304D01*
X167766817Y-137028474D01*
X167765445Y-137032696D01*
X167752132Y-137070742D01*
X167731935Y-137250000D01*
X167752132Y-137429257D01*
X167752133Y-137429261D01*
X167811711Y-137599522D01*
X167811711Y-137599523D01*
X167907681Y-137752258D01*
X167907684Y-137752262D01*
X168035238Y-137879816D01*
X168035240Y-137879817D01*
X168035241Y-137879818D01*
X168111282Y-137927598D01*
X168187978Y-137975789D01*
X168256157Y-137999646D01*
X168358238Y-138035366D01*
X168358242Y-138035367D01*
X168358245Y-138035368D01*
X168373979Y-138037140D01*
X168429686Y-138062444D01*
X168459882Y-138115659D01*
X168461271Y-138124432D01*
X168464631Y-138154250D01*
X168464633Y-138154261D01*
X168516596Y-138302760D01*
X168517969Y-138363930D01*
X168493156Y-138405461D01*
X167703116Y-139195503D01*
X167648599Y-139223281D01*
X167633112Y-139224500D01*
X165864666Y-139224500D01*
X165806475Y-139205593D01*
X165770511Y-139156093D01*
X165769039Y-139099877D01*
X165775270Y-139076624D01*
X165775500Y-139075766D01*
X165775500Y-138924233D01*
X165736281Y-138777865D01*
X165736279Y-138777862D01*
X165736279Y-138777860D01*
X165660518Y-138646639D01*
X165660516Y-138646637D01*
X165660515Y-138646635D01*
X165553365Y-138539485D01*
X165553362Y-138539483D01*
X165553360Y-138539481D01*
X165422138Y-138463720D01*
X165422140Y-138463720D01*
X165340828Y-138441933D01*
X165275767Y-138424500D01*
X165124234Y-138424500D01*
X165085130Y-138434977D01*
X165047216Y-138445136D01*
X164986114Y-138441933D01*
X164951592Y-138419514D01*
X164902262Y-138370184D01*
X164902259Y-138370182D01*
X164902258Y-138370181D01*
X164749523Y-138274211D01*
X164579261Y-138214633D01*
X164579257Y-138214632D01*
X164400000Y-138194435D01*
X164220742Y-138214632D01*
X164220738Y-138214633D01*
X164050474Y-138274212D01*
X164045466Y-138276624D01*
X164044618Y-138274863D01*
X163993333Y-138287782D01*
X163955136Y-138275371D01*
X163954534Y-138276624D01*
X163949525Y-138274212D01*
X163779261Y-138214633D01*
X163779257Y-138214632D01*
X163600000Y-138194435D01*
X163420742Y-138214632D01*
X163420738Y-138214633D01*
X163250474Y-138274212D01*
X163245466Y-138276624D01*
X163244618Y-138274863D01*
X163193333Y-138287782D01*
X163155136Y-138275371D01*
X163154534Y-138276624D01*
X163149525Y-138274212D01*
X162979261Y-138214633D01*
X162979257Y-138214632D01*
X162800000Y-138194435D01*
X162620742Y-138214632D01*
X162620738Y-138214633D01*
X162450474Y-138274212D01*
X162445466Y-138276624D01*
X162444618Y-138274863D01*
X162393333Y-138287782D01*
X162355136Y-138275371D01*
X162354534Y-138276624D01*
X162349525Y-138274212D01*
X162179261Y-138214633D01*
X162179257Y-138214632D01*
X162000000Y-138194435D01*
X161820742Y-138214632D01*
X161820738Y-138214633D01*
X161650474Y-138274212D01*
X161645466Y-138276624D01*
X161644618Y-138274863D01*
X161593333Y-138287782D01*
X161555136Y-138275371D01*
X161554534Y-138276624D01*
X161549525Y-138274212D01*
X161379261Y-138214633D01*
X161379257Y-138214632D01*
X161200000Y-138194435D01*
X161020742Y-138214632D01*
X161020738Y-138214633D01*
X160850474Y-138274212D01*
X160845466Y-138276624D01*
X160844618Y-138274863D01*
X160793333Y-138287782D01*
X160755136Y-138275371D01*
X160754534Y-138276624D01*
X160749525Y-138274212D01*
X160579261Y-138214633D01*
X160579257Y-138214632D01*
X160400000Y-138194435D01*
X160220742Y-138214632D01*
X160220738Y-138214633D01*
X160050477Y-138274211D01*
X160050476Y-138274211D01*
X159897741Y-138370181D01*
X159770181Y-138497741D01*
X159674211Y-138650476D01*
X159674211Y-138650477D01*
X159614633Y-138820738D01*
X159614632Y-138820742D01*
X159595062Y-138994435D01*
X159594435Y-139000000D01*
X159607326Y-139114417D01*
X159595053Y-139174357D01*
X159549891Y-139215637D01*
X159508949Y-139224500D01*
X158597586Y-139224500D01*
X158539395Y-139205593D01*
X158527584Y-139195505D01*
X158502264Y-139170185D01*
X158502258Y-139170181D01*
X158349523Y-139074211D01*
X158179261Y-139014633D01*
X158179257Y-139014632D01*
X158000000Y-138994435D01*
X157820742Y-139014632D01*
X157820738Y-139014633D01*
X157650474Y-139074212D01*
X157645466Y-139076624D01*
X157644618Y-139074863D01*
X157593333Y-139087782D01*
X157555136Y-139075371D01*
X157554534Y-139076624D01*
X157549525Y-139074212D01*
X157379261Y-139014633D01*
X157379257Y-139014632D01*
X157200000Y-138994435D01*
X157020742Y-139014632D01*
X157020738Y-139014633D01*
X156850474Y-139074212D01*
X156845466Y-139076624D01*
X156844618Y-139074863D01*
X156793333Y-139087782D01*
X156755136Y-139075371D01*
X156754534Y-139076624D01*
X156749525Y-139074212D01*
X156579261Y-139014633D01*
X156579257Y-139014632D01*
X156400000Y-138994435D01*
X156220742Y-139014632D01*
X156220738Y-139014633D01*
X156050474Y-139074212D01*
X156045466Y-139076624D01*
X156044618Y-139074863D01*
X155993333Y-139087782D01*
X155955136Y-139075371D01*
X155954534Y-139076624D01*
X155949525Y-139074212D01*
X155779261Y-139014633D01*
X155779257Y-139014632D01*
X155600000Y-138994435D01*
X155420742Y-139014632D01*
X155420738Y-139014633D01*
X155250477Y-139074211D01*
X155250476Y-139074211D01*
X155097741Y-139170181D01*
X155097735Y-139170185D01*
X155072416Y-139195505D01*
X155017899Y-139223281D01*
X155002414Y-139224500D01*
X147724234Y-139224500D01*
X147634652Y-139248503D01*
X147577860Y-139263720D01*
X147533875Y-139289115D01*
X147533876Y-139289116D01*
X147446636Y-139339484D01*
X144943438Y-141842680D01*
X144888921Y-141870457D01*
X144828489Y-141860886D01*
X144785224Y-141817621D01*
X144779990Y-141805374D01*
X144735905Y-141679388D01*
X144725789Y-141650478D01*
X144718187Y-141638380D01*
X144629818Y-141497741D01*
X144629814Y-141497735D01*
X144604495Y-141472416D01*
X144576719Y-141417899D01*
X144575500Y-141402414D01*
X144575500Y-141279388D01*
X144594407Y-141221197D01*
X144604496Y-141209384D01*
X151063880Y-134750000D01*
X167731935Y-134750000D01*
X167752132Y-134929257D01*
X167752133Y-134929261D01*
X167811711Y-135099522D01*
X167811711Y-135099523D01*
X167907681Y-135252258D01*
X167907684Y-135252262D01*
X168035238Y-135379816D01*
X168187978Y-135475789D01*
X168256157Y-135499646D01*
X168358238Y-135535366D01*
X168358242Y-135535367D01*
X168358245Y-135535368D01*
X168537500Y-135555565D01*
X168716755Y-135535368D01*
X168887022Y-135475789D01*
X169039762Y-135379816D01*
X169167316Y-135252262D01*
X169263289Y-135099522D01*
X169322868Y-134929255D01*
X169343065Y-134750000D01*
X169322868Y-134570745D01*
X169263289Y-134400478D01*
X169218540Y-134329261D01*
X169167318Y-134247741D01*
X169167317Y-134247740D01*
X169167316Y-134247738D01*
X169069578Y-134150000D01*
X173094435Y-134150000D01*
X173114632Y-134329257D01*
X173114633Y-134329261D01*
X173174211Y-134499522D01*
X173174211Y-134499523D01*
X173218963Y-134570745D01*
X173270184Y-134652262D01*
X173397738Y-134779816D01*
X173550478Y-134875789D01*
X173618657Y-134899646D01*
X173720738Y-134935366D01*
X173720742Y-134935367D01*
X173720745Y-134935368D01*
X173900000Y-134955565D01*
X174079255Y-134935368D01*
X174249522Y-134875789D01*
X174402262Y-134779816D01*
X174529816Y-134652262D01*
X174625789Y-134499522D01*
X174685368Y-134329255D01*
X174705565Y-134150000D01*
X174685368Y-133970745D01*
X174683229Y-133964633D01*
X174661014Y-133901145D01*
X174625789Y-133800478D01*
X174529816Y-133647738D01*
X174402262Y-133520184D01*
X174402259Y-133520182D01*
X174402258Y-133520181D01*
X174249523Y-133424211D01*
X174079261Y-133364633D01*
X174079257Y-133364632D01*
X173900000Y-133344435D01*
X173720742Y-133364632D01*
X173720738Y-133364633D01*
X173550477Y-133424211D01*
X173550476Y-133424211D01*
X173397741Y-133520181D01*
X173270181Y-133647741D01*
X173174211Y-133800476D01*
X173174211Y-133800477D01*
X173114633Y-133970738D01*
X173114632Y-133970742D01*
X173094435Y-134150000D01*
X169069578Y-134150000D01*
X169039762Y-134120184D01*
X169039759Y-134120182D01*
X169039758Y-134120181D01*
X168887023Y-134024211D01*
X168716761Y-133964633D01*
X168716757Y-133964632D01*
X168537500Y-133944435D01*
X168358242Y-133964632D01*
X168358238Y-133964633D01*
X168187977Y-134024211D01*
X168187976Y-134024211D01*
X168035241Y-134120181D01*
X167907681Y-134247741D01*
X167811711Y-134400476D01*
X167811711Y-134400477D01*
X167752133Y-134570738D01*
X167752132Y-134570742D01*
X167731935Y-134750000D01*
X151063880Y-134750000D01*
X159609384Y-126204496D01*
X159663901Y-126176719D01*
X159679388Y-126175500D01*
X161289321Y-126175500D01*
X161347512Y-126194407D01*
X161382766Y-126241804D01*
X161391688Y-126267303D01*
X161393060Y-126328473D01*
X161391688Y-126332696D01*
X161352132Y-126445742D01*
X161331935Y-126625000D01*
X161352132Y-126804257D01*
X161391688Y-126917303D01*
X161393060Y-126978473D01*
X161391688Y-126982697D01*
X161352132Y-127095742D01*
X161331935Y-127275000D01*
X161352132Y-127454257D01*
X161352133Y-127454261D01*
X161411711Y-127624522D01*
X161411711Y-127624523D01*
X161507681Y-127777258D01*
X161507684Y-127777262D01*
X161635238Y-127904816D01*
X161787978Y-128000789D01*
X161856157Y-128024646D01*
X161958238Y-128060366D01*
X161958242Y-128060367D01*
X161958245Y-128060368D01*
X162137500Y-128080565D01*
X162316755Y-128060368D01*
X162487022Y-128000789D01*
X162639762Y-127904816D01*
X162767316Y-127777262D01*
X162863289Y-127624522D01*
X162922868Y-127454255D01*
X162943065Y-127275000D01*
X162922868Y-127095745D01*
X162883309Y-126982695D01*
X162881936Y-126921529D01*
X162883296Y-126917341D01*
X162922868Y-126804255D01*
X162943065Y-126625000D01*
X162922868Y-126445745D01*
X162883309Y-126332695D01*
X162881936Y-126271528D01*
X162883287Y-126267366D01*
X162892235Y-126241796D01*
X162929303Y-126193119D01*
X162985678Y-126175500D01*
X167208112Y-126175500D01*
X167266303Y-126194407D01*
X167278115Y-126204496D01*
X167492658Y-126419038D01*
X167520436Y-126473555D01*
X167510865Y-126533987D01*
X167475327Y-126572867D01*
X167360243Y-126645179D01*
X167232681Y-126772741D01*
X167136711Y-126925476D01*
X167136711Y-126925477D01*
X167077133Y-127095738D01*
X167077132Y-127095742D01*
X167056935Y-127275000D01*
X167077132Y-127454257D01*
X167077133Y-127454261D01*
X167136711Y-127624522D01*
X167136711Y-127624523D01*
X167232681Y-127777258D01*
X167232684Y-127777262D01*
X167360238Y-127904816D01*
X167512978Y-128000789D01*
X167581157Y-128024646D01*
X167683238Y-128060366D01*
X167683242Y-128060367D01*
X167683245Y-128060368D01*
X167862500Y-128080565D01*
X168041755Y-128060368D01*
X168212022Y-128000789D01*
X168364762Y-127904816D01*
X168492316Y-127777262D01*
X168588289Y-127624522D01*
X168647868Y-127454255D01*
X168668065Y-127275000D01*
X168647868Y-127095745D01*
X168588289Y-126925478D01*
X168583152Y-126917303D01*
X168492318Y-126772741D01*
X168492317Y-126772740D01*
X168492316Y-126772738D01*
X168364762Y-126645184D01*
X168364759Y-126645182D01*
X168364758Y-126645181D01*
X168249673Y-126572868D01*
X168210460Y-126525899D01*
X168206345Y-126464852D01*
X168232339Y-126419040D01*
X168323015Y-126328365D01*
X168355830Y-126271528D01*
X168398779Y-126197139D01*
X168398779Y-126197137D01*
X168398781Y-126197135D01*
X168438000Y-126050766D01*
X168438000Y-125899233D01*
X168398781Y-125752865D01*
X168398779Y-125752862D01*
X168398779Y-125752860D01*
X168323018Y-125621639D01*
X168323016Y-125621637D01*
X168323015Y-125621635D01*
X167840865Y-125139485D01*
X167840862Y-125139483D01*
X167840860Y-125139481D01*
X167709638Y-125063720D01*
X167709640Y-125063720D01*
X167652493Y-125048408D01*
X167563266Y-125024500D01*
X167563264Y-125024500D01*
X161028388Y-125024500D01*
X160970197Y-125005593D01*
X160934233Y-124956093D01*
X160934233Y-124894907D01*
X160958384Y-124855496D01*
X166787181Y-119026699D01*
X176363878Y-109450001D01*
X177160001Y-109450001D01*
X177160001Y-110044791D01*
X177162909Y-110069874D01*
X177208213Y-110172477D01*
X177287522Y-110251786D01*
X177390127Y-110297090D01*
X177415203Y-110299999D01*
X179799998Y-110299999D01*
X179800000Y-110299998D01*
X179800000Y-109450001D01*
X180200000Y-109450001D01*
X180200000Y-110299998D01*
X180200001Y-110299999D01*
X182584790Y-110299999D01*
X182584791Y-110299998D01*
X182609874Y-110297090D01*
X182712477Y-110251786D01*
X182791786Y-110172477D01*
X182837090Y-110069872D01*
X182839999Y-110044797D01*
X182840000Y-110044795D01*
X182840000Y-109450001D01*
X182839999Y-109450000D01*
X180200001Y-109450000D01*
X180200000Y-109450001D01*
X179800000Y-109450001D01*
X179799999Y-109450000D01*
X177160002Y-109450000D01*
X177160001Y-109450001D01*
X176363878Y-109450001D01*
X176990998Y-108822881D01*
X177045513Y-108795106D01*
X177105945Y-108804677D01*
X177149210Y-108847942D01*
X177160000Y-108892887D01*
X177160000Y-109049999D01*
X177160001Y-109050000D01*
X179799999Y-109050000D01*
X179800000Y-109049999D01*
X179800000Y-108200001D01*
X180200000Y-108200001D01*
X180200000Y-109049999D01*
X180200001Y-109050000D01*
X182839998Y-109050000D01*
X182839999Y-109049999D01*
X182839999Y-108455210D01*
X182839998Y-108455208D01*
X182837090Y-108430125D01*
X182791786Y-108327522D01*
X182712477Y-108248213D01*
X182609872Y-108202909D01*
X182584797Y-108200000D01*
X180200001Y-108200000D01*
X180200000Y-108200001D01*
X179800000Y-108200001D01*
X179799999Y-108200000D01*
X177852887Y-108200000D01*
X177794696Y-108181093D01*
X177758732Y-108131593D01*
X177758732Y-108070407D01*
X177782881Y-108030998D01*
X180460514Y-105353366D01*
X180473074Y-105331612D01*
X180536279Y-105222139D01*
X180536279Y-105222137D01*
X180536281Y-105222135D01*
X180575500Y-105075767D01*
X180575500Y-104924234D01*
X180536281Y-104777866D01*
X180536279Y-104777863D01*
X180536279Y-104777861D01*
X180460517Y-104646639D01*
X180460515Y-104646637D01*
X180460514Y-104646635D01*
X180353365Y-104539486D01*
X180353362Y-104539484D01*
X180353360Y-104539482D01*
X180222137Y-104463720D01*
X180222139Y-104463720D01*
X180165346Y-104448502D01*
X180075766Y-104424500D01*
X179924233Y-104424500D01*
X179834652Y-104448502D01*
X179777860Y-104463720D01*
X179646638Y-104539482D01*
X159190616Y-124995504D01*
X159136099Y-125023281D01*
X159120612Y-125024500D01*
X152590388Y-125024500D01*
X152532197Y-125005593D01*
X152496233Y-124956093D01*
X152496233Y-124894907D01*
X152520384Y-124855496D01*
X153250380Y-124125500D01*
X157022514Y-120353365D01*
X157098281Y-120222135D01*
X157137500Y-120075767D01*
X157137500Y-119924234D01*
X157098281Y-119777865D01*
X157022514Y-119646635D01*
X156915365Y-119539486D01*
X156915356Y-119539481D01*
X156784137Y-119463720D01*
X156784136Y-119463719D01*
X156784135Y-119463719D01*
X156637766Y-119424500D01*
X156637764Y-119424500D01*
X156535586Y-119424500D01*
X156477395Y-119405593D01*
X156465584Y-119395505D01*
X156440264Y-119370185D01*
X156440258Y-119370181D01*
X156287523Y-119274211D01*
X156117261Y-119214633D01*
X156117257Y-119214632D01*
X155938000Y-119194435D01*
X155758742Y-119214632D01*
X155657697Y-119249989D01*
X155596527Y-119251361D01*
X155592303Y-119249989D01*
X155491257Y-119214632D01*
X155312000Y-119194435D01*
X155132742Y-119214632D01*
X155032697Y-119249639D01*
X154971527Y-119251011D01*
X154967303Y-119249639D01*
X154867257Y-119214632D01*
X154688000Y-119194435D01*
X154508742Y-119214632D01*
X154407697Y-119249989D01*
X154346527Y-119251361D01*
X154342303Y-119249989D01*
X154241257Y-119214632D01*
X154062000Y-119194435D01*
X153882742Y-119214632D01*
X153882738Y-119214633D01*
X153712477Y-119274211D01*
X153712476Y-119274211D01*
X153559741Y-119370181D01*
X153432179Y-119497743D01*
X153379161Y-119582121D01*
X153332192Y-119621333D01*
X153271145Y-119625448D01*
X153225334Y-119599454D01*
X153165365Y-119539485D01*
X153165362Y-119539483D01*
X153165360Y-119539481D01*
X153034138Y-119463720D01*
X153034140Y-119463720D01*
X152977347Y-119448503D01*
X152887766Y-119424500D01*
X152887764Y-119424500D01*
X152785586Y-119424500D01*
X152727395Y-119405593D01*
X152715584Y-119395505D01*
X152690264Y-119370185D01*
X152690258Y-119370181D01*
X152537523Y-119274211D01*
X152367261Y-119214633D01*
X152367257Y-119214632D01*
X152188000Y-119194435D01*
X152008742Y-119214632D01*
X151907697Y-119249989D01*
X151846527Y-119251361D01*
X151842303Y-119249989D01*
X151741257Y-119214632D01*
X151562000Y-119194435D01*
X151382742Y-119214632D01*
X151282697Y-119249639D01*
X151221527Y-119251011D01*
X151217303Y-119249639D01*
X151117257Y-119214632D01*
X150938000Y-119194435D01*
X150758742Y-119214632D01*
X150657697Y-119249989D01*
X150596527Y-119251361D01*
X150592303Y-119249989D01*
X150491257Y-119214632D01*
X150312000Y-119194435D01*
X150132742Y-119214632D01*
X150032697Y-119249639D01*
X149971527Y-119251011D01*
X149967303Y-119249639D01*
X149867257Y-119214632D01*
X149688000Y-119194435D01*
X149508742Y-119214632D01*
X149407697Y-119249989D01*
X149346527Y-119251361D01*
X149342303Y-119249989D01*
X149241257Y-119214632D01*
X149062000Y-119194435D01*
X148882742Y-119214632D01*
X148882738Y-119214633D01*
X148712477Y-119274211D01*
X148712476Y-119274211D01*
X148559741Y-119370181D01*
X148432179Y-119497743D01*
X148379161Y-119582121D01*
X148332192Y-119621333D01*
X148271145Y-119625448D01*
X148225334Y-119599454D01*
X141979496Y-113353616D01*
X141951719Y-113299099D01*
X141950500Y-113283612D01*
X141950500Y-109450001D01*
X162160001Y-109450001D01*
X162160001Y-110044791D01*
X162162909Y-110069874D01*
X162208213Y-110172477D01*
X162287522Y-110251786D01*
X162390127Y-110297090D01*
X162415203Y-110299999D01*
X164799998Y-110299999D01*
X164800000Y-110299998D01*
X164800000Y-109450001D01*
X165200000Y-109450001D01*
X165200000Y-110299998D01*
X165200001Y-110299999D01*
X167584790Y-110299999D01*
X167584791Y-110299998D01*
X167609874Y-110297090D01*
X167712477Y-110251786D01*
X167791786Y-110172477D01*
X167837090Y-110069872D01*
X167839999Y-110044797D01*
X167840000Y-110044795D01*
X167840000Y-109450001D01*
X167839999Y-109450000D01*
X165200001Y-109450000D01*
X165200000Y-109450001D01*
X164800000Y-109450001D01*
X164799999Y-109450000D01*
X162160002Y-109450000D01*
X162160001Y-109450001D01*
X141950500Y-109450001D01*
X141950500Y-108455202D01*
X162160000Y-108455202D01*
X162160000Y-109049999D01*
X162160001Y-109050000D01*
X164799999Y-109050000D01*
X164800000Y-109049999D01*
X164800000Y-108200001D01*
X165200000Y-108200001D01*
X165200000Y-109049999D01*
X165200001Y-109050000D01*
X167839998Y-109050000D01*
X167839999Y-109049999D01*
X167839999Y-108455210D01*
X167839998Y-108455208D01*
X167837090Y-108430125D01*
X167791786Y-108327522D01*
X167712477Y-108248213D01*
X167609872Y-108202909D01*
X167584797Y-108200000D01*
X165200001Y-108200000D01*
X165200000Y-108200001D01*
X164800000Y-108200001D01*
X164799999Y-108200000D01*
X162415210Y-108200000D01*
X162415208Y-108200001D01*
X162390125Y-108202909D01*
X162287522Y-108248213D01*
X162208213Y-108327522D01*
X162162909Y-108430127D01*
X162160000Y-108455202D01*
X141950500Y-108455202D01*
X141950500Y-105364310D01*
X141969407Y-105306119D01*
X142018907Y-105270155D01*
X142080093Y-105270155D01*
X142129593Y-105306119D01*
X142142944Y-105331612D01*
X142149211Y-105349522D01*
X142149211Y-105349523D01*
X142245181Y-105502258D01*
X142245184Y-105502262D01*
X142372738Y-105629816D01*
X142372740Y-105629817D01*
X142372741Y-105629818D01*
X142499999Y-105709780D01*
X142525478Y-105725789D01*
X142593657Y-105749646D01*
X142695738Y-105785366D01*
X142695742Y-105785367D01*
X142695745Y-105785368D01*
X142875000Y-105805565D01*
X143054255Y-105785368D01*
X143217303Y-105728314D01*
X143278472Y-105726942D01*
X143282682Y-105728309D01*
X143358163Y-105754721D01*
X143445738Y-105785366D01*
X143445742Y-105785367D01*
X143445745Y-105785368D01*
X143625000Y-105805565D01*
X143804255Y-105785368D01*
X143967303Y-105728314D01*
X144028472Y-105726942D01*
X144032682Y-105728309D01*
X144108163Y-105754721D01*
X144195738Y-105785366D01*
X144195742Y-105785367D01*
X144195745Y-105785368D01*
X144375000Y-105805565D01*
X144554255Y-105785368D01*
X144717303Y-105728314D01*
X144778472Y-105726942D01*
X144782682Y-105728309D01*
X144858163Y-105754721D01*
X144945738Y-105785366D01*
X144945742Y-105785367D01*
X144945745Y-105785368D01*
X145125000Y-105805565D01*
X145304255Y-105785368D01*
X145467303Y-105728314D01*
X145528472Y-105726942D01*
X145532682Y-105728309D01*
X145608163Y-105754721D01*
X145695738Y-105785366D01*
X145695742Y-105785367D01*
X145695745Y-105785368D01*
X145875000Y-105805565D01*
X146054255Y-105785368D01*
X146217303Y-105728314D01*
X146278472Y-105726942D01*
X146282682Y-105728309D01*
X146358163Y-105754721D01*
X146445738Y-105785366D01*
X146445742Y-105785367D01*
X146445745Y-105785368D01*
X146625000Y-105805565D01*
X146804255Y-105785368D01*
X146974522Y-105725789D01*
X147127262Y-105629816D01*
X147254816Y-105502262D01*
X147350789Y-105349522D01*
X147410368Y-105179255D01*
X147430565Y-105000000D01*
X164194435Y-105000000D01*
X164214632Y-105179257D01*
X164214633Y-105179261D01*
X164274211Y-105349522D01*
X164274211Y-105349523D01*
X164370181Y-105502258D01*
X164370184Y-105502262D01*
X164497738Y-105629816D01*
X164497740Y-105629817D01*
X164497741Y-105629818D01*
X164624999Y-105709780D01*
X164650478Y-105725789D01*
X164718657Y-105749646D01*
X164820738Y-105785366D01*
X164820742Y-105785367D01*
X164820745Y-105785368D01*
X165000000Y-105805565D01*
X165179255Y-105785368D01*
X165349522Y-105725789D01*
X165502262Y-105629816D01*
X165629816Y-105502262D01*
X165725789Y-105349522D01*
X165785368Y-105179255D01*
X165805565Y-105000000D01*
X165785368Y-104820745D01*
X165785181Y-104820212D01*
X165761014Y-104751145D01*
X165725789Y-104650478D01*
X165723374Y-104646635D01*
X165629818Y-104497741D01*
X165629817Y-104497740D01*
X165629816Y-104497738D01*
X165502262Y-104370184D01*
X165502259Y-104370182D01*
X165502258Y-104370181D01*
X165349523Y-104274211D01*
X165179261Y-104214633D01*
X165179257Y-104214632D01*
X165000000Y-104194435D01*
X164820742Y-104214632D01*
X164820738Y-104214633D01*
X164650477Y-104274211D01*
X164650476Y-104274211D01*
X164497741Y-104370181D01*
X164370181Y-104497741D01*
X164274211Y-104650476D01*
X164274211Y-104650477D01*
X164214633Y-104820738D01*
X164214632Y-104820742D01*
X164194435Y-105000000D01*
X147430565Y-105000000D01*
X147410368Y-104820745D01*
X147410181Y-104820212D01*
X147386014Y-104751145D01*
X147350789Y-104650478D01*
X147348374Y-104646635D01*
X147254818Y-104497741D01*
X147254817Y-104497740D01*
X147254816Y-104497738D01*
X147127262Y-104370184D01*
X147127259Y-104370182D01*
X147127258Y-104370181D01*
X146974523Y-104274211D01*
X146804261Y-104214633D01*
X146804257Y-104214632D01*
X146625000Y-104194435D01*
X146445742Y-104214632D01*
X146445738Y-104214633D01*
X146282698Y-104271684D01*
X146221528Y-104273057D01*
X146217302Y-104271684D01*
X146054261Y-104214633D01*
X146054257Y-104214632D01*
X145875000Y-104194435D01*
X145695742Y-104214632D01*
X145695738Y-104214633D01*
X145532698Y-104271684D01*
X145471528Y-104273057D01*
X145467302Y-104271684D01*
X145304261Y-104214633D01*
X145304257Y-104214632D01*
X145125000Y-104194435D01*
X144945742Y-104214632D01*
X144945738Y-104214633D01*
X144782698Y-104271684D01*
X144721528Y-104273057D01*
X144717302Y-104271684D01*
X144554261Y-104214633D01*
X144554257Y-104214632D01*
X144375000Y-104194435D01*
X144195742Y-104214632D01*
X144195738Y-104214633D01*
X144032698Y-104271684D01*
X143971528Y-104273057D01*
X143967302Y-104271684D01*
X143804261Y-104214633D01*
X143804257Y-104214632D01*
X143625000Y-104194435D01*
X143445742Y-104214632D01*
X143445738Y-104214633D01*
X143282698Y-104271684D01*
X143221528Y-104273057D01*
X143217302Y-104271684D01*
X143054261Y-104214633D01*
X143054257Y-104214632D01*
X142875000Y-104194435D01*
X142695742Y-104214632D01*
X142695738Y-104214633D01*
X142525477Y-104274211D01*
X142525476Y-104274211D01*
X142372741Y-104370181D01*
X142245181Y-104497741D01*
X142149212Y-104650475D01*
X142101135Y-104787868D01*
X142064069Y-104836548D01*
X142005469Y-104854144D01*
X141947717Y-104833935D01*
X141912873Y-104783640D01*
X141912082Y-104780854D01*
X141911281Y-104777865D01*
X141837734Y-104650478D01*
X141835518Y-104646639D01*
X141835516Y-104646637D01*
X141835515Y-104646635D01*
X141728365Y-104539485D01*
X141728362Y-104539483D01*
X141728360Y-104539481D01*
X141597138Y-104463720D01*
X141597140Y-104463720D01*
X141540347Y-104448503D01*
X141450766Y-104424500D01*
X141299234Y-104424500D01*
X141209652Y-104448503D01*
X141152860Y-104463720D01*
X141021639Y-104539481D01*
X140914481Y-104646639D01*
X140838720Y-104777860D01*
X140827374Y-104820204D01*
X140799500Y-104924234D01*
X140799500Y-113487234D01*
X140799500Y-113638766D01*
X140834086Y-113767847D01*
X140838720Y-113785139D01*
X140914481Y-113916360D01*
X140914482Y-113916361D01*
X140914483Y-113916362D01*
X140914485Y-113916365D01*
X146024819Y-119026699D01*
X146052596Y-119081216D01*
X146043025Y-119141648D01*
X145999760Y-119184913D01*
X145943732Y-119195080D01*
X145938000Y-119194435D01*
X145758742Y-119214632D01*
X145657697Y-119249989D01*
X145596527Y-119251361D01*
X145592303Y-119249989D01*
X145491257Y-119214632D01*
X145312000Y-119194435D01*
X145132742Y-119214632D01*
X145132738Y-119214633D01*
X144962477Y-119274211D01*
X144962476Y-119274211D01*
X144809741Y-119370181D01*
X144682181Y-119497741D01*
X144586211Y-119650476D01*
X144586211Y-119650477D01*
X144526633Y-119820738D01*
X144526632Y-119820742D01*
X144506435Y-120000000D01*
X144526632Y-120179257D01*
X144526633Y-120179261D01*
X144586211Y-120349522D01*
X144586211Y-120349523D01*
X144682180Y-120502256D01*
X144682184Y-120502262D01*
X144809738Y-120629816D01*
X144809740Y-120629817D01*
X144809741Y-120629818D01*
X144913633Y-120695098D01*
X144962478Y-120725789D01*
X145027768Y-120748635D01*
X145132738Y-120785366D01*
X145132742Y-120785367D01*
X145132745Y-120785368D01*
X145312000Y-120805565D01*
X145491255Y-120785368D01*
X145592304Y-120750008D01*
X145653471Y-120748635D01*
X145657658Y-120749995D01*
X145758745Y-120785368D01*
X145938000Y-120805565D01*
X146117255Y-120785368D01*
X146217304Y-120750358D01*
X146278471Y-120748985D01*
X146282658Y-120750345D01*
X146382745Y-120785368D01*
X146562000Y-120805565D01*
X146741255Y-120785368D01*
X146842304Y-120750008D01*
X146903471Y-120748635D01*
X146907658Y-120749995D01*
X147008745Y-120785368D01*
X147188000Y-120805565D01*
X147367255Y-120785368D01*
X147537522Y-120725789D01*
X147690262Y-120629816D01*
X147690264Y-120629814D01*
X147715584Y-120604495D01*
X147770101Y-120576719D01*
X147785586Y-120575500D01*
X147887765Y-120575500D01*
X147887767Y-120575500D01*
X148034135Y-120536281D01*
X148165366Y-120460515D01*
X148225334Y-120400546D01*
X148279848Y-120372770D01*
X148340280Y-120382341D01*
X148379161Y-120417879D01*
X148432179Y-120502256D01*
X148432181Y-120502258D01*
X148432184Y-120502262D01*
X148559738Y-120629816D01*
X148559740Y-120629817D01*
X148559741Y-120629818D01*
X148663633Y-120695098D01*
X148712478Y-120725789D01*
X148777768Y-120748635D01*
X148882738Y-120785366D01*
X148882742Y-120785367D01*
X148882745Y-120785368D01*
X149062000Y-120805565D01*
X149241255Y-120785368D01*
X149342304Y-120750008D01*
X149403471Y-120748635D01*
X149407658Y-120749995D01*
X149508745Y-120785368D01*
X149688000Y-120805565D01*
X149867255Y-120785368D01*
X149967304Y-120750358D01*
X150028471Y-120748985D01*
X150032658Y-120750345D01*
X150132745Y-120785368D01*
X150312000Y-120805565D01*
X150491255Y-120785368D01*
X150592304Y-120750008D01*
X150653471Y-120748635D01*
X150657658Y-120749995D01*
X150758745Y-120785368D01*
X150938000Y-120805565D01*
X150943725Y-120804919D01*
X151003664Y-120817187D01*
X151044948Y-120862346D01*
X151051804Y-120923146D01*
X151024818Y-120973300D01*
X147802616Y-124195504D01*
X147748099Y-124223281D01*
X147732612Y-124224500D01*
X141674500Y-124224500D01*
X141616309Y-124205593D01*
X141580345Y-124156093D01*
X141575500Y-124125500D01*
X141575500Y-122091387D01*
X141594407Y-122033196D01*
X141604490Y-122021389D01*
X142916960Y-120708918D01*
X142971475Y-120681143D01*
X143031907Y-120690714D01*
X143039633Y-120695098D01*
X143061631Y-120708920D01*
X143088478Y-120725789D01*
X143153768Y-120748635D01*
X143258738Y-120785366D01*
X143258742Y-120785367D01*
X143258745Y-120785368D01*
X143438000Y-120805565D01*
X143617255Y-120785368D01*
X143787522Y-120725789D01*
X143940262Y-120629816D01*
X144067816Y-120502262D01*
X144163789Y-120349522D01*
X144223368Y-120179255D01*
X144243565Y-120000000D01*
X144223368Y-119820745D01*
X144163789Y-119650478D01*
X144161374Y-119646635D01*
X144067818Y-119497741D01*
X144067817Y-119497740D01*
X144067816Y-119497738D01*
X143940262Y-119370184D01*
X143940259Y-119370182D01*
X143940258Y-119370181D01*
X143787523Y-119274211D01*
X143617261Y-119214633D01*
X143617257Y-119214632D01*
X143438000Y-119194435D01*
X143258742Y-119214632D01*
X143258738Y-119214633D01*
X143088477Y-119274211D01*
X143088476Y-119274211D01*
X142935741Y-119370181D01*
X142935735Y-119370185D01*
X142910416Y-119395505D01*
X142855899Y-119423281D01*
X142840414Y-119424500D01*
X142785586Y-119424500D01*
X142727395Y-119405593D01*
X142715584Y-119395505D01*
X142690264Y-119370185D01*
X142690258Y-119370181D01*
X142537523Y-119274211D01*
X142367261Y-119214633D01*
X142367257Y-119214632D01*
X142188000Y-119194435D01*
X142008742Y-119214632D01*
X141907697Y-119249989D01*
X141846527Y-119251361D01*
X141842303Y-119249989D01*
X141741257Y-119214632D01*
X141562000Y-119194435D01*
X141382742Y-119214632D01*
X141282697Y-119249639D01*
X141221527Y-119251011D01*
X141217303Y-119249639D01*
X141117257Y-119214632D01*
X140938000Y-119194435D01*
X140758742Y-119214632D01*
X140657697Y-119249989D01*
X140596527Y-119251361D01*
X140592303Y-119249989D01*
X140491257Y-119214632D01*
X140312000Y-119194435D01*
X140132742Y-119214632D01*
X140032697Y-119249639D01*
X139971527Y-119251011D01*
X139967303Y-119249639D01*
X139867257Y-119214632D01*
X139688000Y-119194435D01*
X139508742Y-119214632D01*
X139508738Y-119214633D01*
X139338477Y-119274211D01*
X139338476Y-119274211D01*
X139185741Y-119370181D01*
X139058181Y-119497741D01*
X138962211Y-119650476D01*
X138962211Y-119650477D01*
X138902633Y-119820738D01*
X138902632Y-119820742D01*
X138882435Y-120000000D01*
X138902632Y-120179257D01*
X138902633Y-120179261D01*
X138962211Y-120349522D01*
X138962211Y-120349523D01*
X139058180Y-120502256D01*
X139058184Y-120502262D01*
X139185738Y-120629816D01*
X139185740Y-120629817D01*
X139185741Y-120629818D01*
X139289633Y-120695098D01*
X139338478Y-120725789D01*
X139403768Y-120748635D01*
X139508738Y-120785366D01*
X139508742Y-120785367D01*
X139508745Y-120785368D01*
X139688000Y-120805565D01*
X139867255Y-120785368D01*
X139967304Y-120750358D01*
X140028471Y-120748985D01*
X140032658Y-120750345D01*
X140132745Y-120785368D01*
X140312000Y-120805565D01*
X140491255Y-120785368D01*
X140592304Y-120750008D01*
X140653471Y-120748635D01*
X140657658Y-120749995D01*
X140758745Y-120785368D01*
X140938000Y-120805565D01*
X140943725Y-120804919D01*
X141003664Y-120817187D01*
X141044948Y-120862346D01*
X141051804Y-120923146D01*
X141024818Y-120973299D01*
X140646635Y-121351484D01*
X140539485Y-121458634D01*
X140539481Y-121458639D01*
X140463720Y-121589860D01*
X140424500Y-121736235D01*
X140424500Y-124125500D01*
X140405593Y-124183691D01*
X140356093Y-124219655D01*
X140325500Y-124224500D01*
X132061734Y-124224500D01*
X131972152Y-124248503D01*
X131915360Y-124263720D01*
X131784139Y-124339481D01*
X131676981Y-124446639D01*
X131601220Y-124577860D01*
X131562000Y-124724235D01*
X131562000Y-124875765D01*
X131582636Y-124952783D01*
X131579433Y-125013884D01*
X131557013Y-125048408D01*
X131507685Y-125097736D01*
X131507681Y-125097741D01*
X131411711Y-125250476D01*
X131411711Y-125250477D01*
X131352133Y-125420738D01*
X131352132Y-125420742D01*
X131352132Y-125420745D01*
X131331935Y-125600000D01*
X131352132Y-125779255D01*
X131352132Y-125779257D01*
X131352755Y-125784779D01*
X131351844Y-125784881D01*
X131351844Y-125815118D01*
X131352755Y-125815221D01*
X131352132Y-125820742D01*
X131352132Y-125820745D01*
X131331935Y-126000000D01*
X131352132Y-126179255D01*
X131352132Y-126179257D01*
X131352755Y-126184779D01*
X131351844Y-126184881D01*
X131351844Y-126215118D01*
X131352755Y-126215221D01*
X131352132Y-126220742D01*
X131352132Y-126220745D01*
X131331935Y-126400000D01*
X131352132Y-126579255D01*
X131352132Y-126579257D01*
X131352755Y-126584779D01*
X131351844Y-126584881D01*
X131351844Y-126615118D01*
X131352755Y-126615221D01*
X131352132Y-126620742D01*
X131352132Y-126620745D01*
X131340472Y-126724234D01*
X131331935Y-126800000D01*
X131352132Y-126979257D01*
X131352133Y-126979261D01*
X131411711Y-127149522D01*
X131411711Y-127149523D01*
X131481454Y-127260518D01*
X131507684Y-127302262D01*
X131635238Y-127429816D01*
X131635240Y-127429817D01*
X131635241Y-127429818D01*
X131674135Y-127454257D01*
X131787978Y-127525789D01*
X131856157Y-127549646D01*
X131958238Y-127585366D01*
X131958242Y-127585367D01*
X131958245Y-127585368D01*
X132137500Y-127605565D01*
X132316755Y-127585368D01*
X132487022Y-127525789D01*
X132639762Y-127429816D01*
X132767316Y-127302262D01*
X132863289Y-127149522D01*
X132922868Y-126979255D01*
X132943065Y-126800000D01*
X132922868Y-126620745D01*
X132922867Y-126620742D01*
X132922245Y-126615220D01*
X132923161Y-126615116D01*
X132923161Y-126584883D01*
X132922245Y-126584780D01*
X132922867Y-126579257D01*
X132922868Y-126579255D01*
X132943065Y-126400000D01*
X132922868Y-126220745D01*
X132922867Y-126220742D01*
X132922245Y-126215220D01*
X132923161Y-126215116D01*
X132923161Y-126184883D01*
X132922245Y-126184780D01*
X132922867Y-126179257D01*
X132922868Y-126179255D01*
X132943065Y-126000000D01*
X132922868Y-125820745D01*
X132922867Y-125820742D01*
X132922245Y-125815220D01*
X132923161Y-125815116D01*
X132923161Y-125784883D01*
X132922245Y-125784780D01*
X132922867Y-125779257D01*
X132922868Y-125779255D01*
X132943065Y-125600000D01*
X132930173Y-125485582D01*
X132942447Y-125425643D01*
X132987609Y-125384363D01*
X133028551Y-125375500D01*
X137005574Y-125375500D01*
X137063765Y-125394407D01*
X137099018Y-125441802D01*
X137136712Y-125549525D01*
X137139124Y-125554534D01*
X137137363Y-125555381D01*
X137150282Y-125606667D01*
X137137871Y-125644863D01*
X137139124Y-125645466D01*
X137136712Y-125650474D01*
X137077133Y-125820738D01*
X137077132Y-125820742D01*
X137056935Y-126000000D01*
X137077132Y-126179257D01*
X137077133Y-126179261D01*
X137136711Y-126349522D01*
X137136711Y-126349523D01*
X137214646Y-126473555D01*
X137232684Y-126502262D01*
X137282014Y-126551592D01*
X137309790Y-126606107D01*
X137307636Y-126647216D01*
X137287000Y-126724234D01*
X137287000Y-126875766D01*
X137314730Y-126979257D01*
X137326220Y-127022139D01*
X137401981Y-127153360D01*
X137401983Y-127153362D01*
X137401985Y-127153365D01*
X137509135Y-127260515D01*
X137509137Y-127260516D01*
X137509139Y-127260518D01*
X137640361Y-127336279D01*
X137640359Y-127336279D01*
X137640363Y-127336280D01*
X137640365Y-127336281D01*
X137786734Y-127375500D01*
X138783112Y-127375500D01*
X138841303Y-127394407D01*
X138853116Y-127404496D01*
X140395504Y-128946884D01*
X140423281Y-129001401D01*
X140424500Y-129016888D01*
X140424500Y-140143073D01*
X140405593Y-140201264D01*
X140358198Y-140236517D01*
X140250477Y-140274211D01*
X140250476Y-140274211D01*
X140097741Y-140370181D01*
X139970181Y-140497741D01*
X139874211Y-140650476D01*
X139874211Y-140650477D01*
X139814633Y-140820738D01*
X139814632Y-140820742D01*
X139794435Y-141000000D01*
X139814632Y-141179257D01*
X139814633Y-141179261D01*
X139874211Y-141349522D01*
X139874211Y-141349523D01*
X139907445Y-141402414D01*
X139970184Y-141502262D01*
X140097738Y-141629816D01*
X140097740Y-141629817D01*
X140097741Y-141629818D01*
X140249446Y-141725141D01*
X140250478Y-141725789D01*
X140318657Y-141749646D01*
X140420738Y-141785366D01*
X140420742Y-141785367D01*
X140420745Y-141785368D01*
X140600000Y-141805565D01*
X140779255Y-141785368D01*
X140781036Y-141784745D01*
X140949516Y-141725791D01*
X140949515Y-141725791D01*
X140949522Y-141725789D01*
X140949528Y-141725785D01*
X140954527Y-141723378D01*
X140955376Y-141725141D01*
X141006650Y-141712216D01*
X141044868Y-141724633D01*
X141045473Y-141723378D01*
X141050475Y-141725787D01*
X141050478Y-141725789D01*
X141050481Y-141725790D01*
X141050483Y-141725791D01*
X141220738Y-141785366D01*
X141220742Y-141785367D01*
X141220745Y-141785368D01*
X141400000Y-141805565D01*
X141579255Y-141785368D01*
X141579257Y-141785367D01*
X141584780Y-141784745D01*
X141584883Y-141785661D01*
X141615117Y-141785661D01*
X141615220Y-141784745D01*
X141620742Y-141785367D01*
X141620745Y-141785368D01*
X141800000Y-141805565D01*
X141979255Y-141785368D01*
X141979257Y-141785367D01*
X141984780Y-141784745D01*
X141984883Y-141785661D01*
X142015117Y-141785661D01*
X142015220Y-141784745D01*
X142020742Y-141785367D01*
X142020745Y-141785368D01*
X142157989Y-141800831D01*
X142213694Y-141826134D01*
X142243890Y-141879349D01*
X142237040Y-141940150D01*
X142216906Y-141969211D01*
X141590616Y-142595503D01*
X141536099Y-142623281D01*
X141520612Y-142624500D01*
X136891051Y-142624500D01*
X136832860Y-142605593D01*
X136796896Y-142556093D01*
X136792673Y-142514418D01*
X136805565Y-142400000D01*
X136785368Y-142220745D01*
X136785367Y-142220742D01*
X136784745Y-142215220D01*
X136785661Y-142215116D01*
X136785661Y-142184883D01*
X136784745Y-142184780D01*
X136785367Y-142179257D01*
X136785368Y-142179255D01*
X136805565Y-142000000D01*
X136785368Y-141820745D01*
X136780056Y-141805565D01*
X136747392Y-141712216D01*
X136725789Y-141650478D01*
X136718187Y-141638380D01*
X136629818Y-141497741D01*
X136629817Y-141497740D01*
X136629816Y-141497738D01*
X136502262Y-141370184D01*
X136502259Y-141370182D01*
X136502258Y-141370181D01*
X136349523Y-141274211D01*
X136179261Y-141214633D01*
X136179257Y-141214632D01*
X136000000Y-141194435D01*
X135820742Y-141214632D01*
X135820738Y-141214633D01*
X135650477Y-141274211D01*
X135650476Y-141274211D01*
X135497741Y-141370181D01*
X135370181Y-141497741D01*
X135274211Y-141650476D01*
X135274211Y-141650477D01*
X135214633Y-141820738D01*
X135214632Y-141820742D01*
X135210109Y-141860886D01*
X135194435Y-142000000D01*
X135214632Y-142179255D01*
X135214632Y-142179257D01*
X135215255Y-142184779D01*
X135214344Y-142184881D01*
X135214344Y-142215118D01*
X135215255Y-142215221D01*
X135214632Y-142220742D01*
X135214632Y-142220745D01*
X135207210Y-142286620D01*
X135194435Y-142400000D01*
X135214632Y-142579257D01*
X135214633Y-142579261D01*
X135274211Y-142749522D01*
X135274211Y-142749523D01*
X135370181Y-142902258D01*
X135370184Y-142902262D01*
X135419514Y-142951592D01*
X135447290Y-143006107D01*
X135445136Y-143047216D01*
X135424500Y-143124234D01*
X135424500Y-143275766D01*
X135459086Y-143404847D01*
X135463720Y-143422139D01*
X135539481Y-143553360D01*
X135539483Y-143553362D01*
X135539485Y-143553365D01*
X135646635Y-143660515D01*
X135646637Y-143660516D01*
X135646639Y-143660518D01*
X135777861Y-143736279D01*
X135777859Y-143736279D01*
X135777863Y-143736280D01*
X135777865Y-143736281D01*
X135924234Y-143775500D01*
X140171612Y-143775500D01*
X140229803Y-143794407D01*
X140265767Y-143843907D01*
X140265767Y-143905093D01*
X140241616Y-143944504D01*
X125126635Y-159059485D01*
X125126634Y-159059484D01*
X125019485Y-159166634D01*
X125019483Y-159166637D01*
X124983621Y-159228751D01*
X124938151Y-159269692D01*
X124877300Y-159276086D01*
X124865187Y-159272694D01*
X124699261Y-159214633D01*
X124699257Y-159214632D01*
X124520000Y-159194435D01*
X124340742Y-159214632D01*
X124340738Y-159214633D01*
X124170477Y-159274211D01*
X124170476Y-159274211D01*
X124017741Y-159370181D01*
X123890181Y-159497741D01*
X123794211Y-159650476D01*
X123794211Y-159650477D01*
X123734633Y-159820738D01*
X123734632Y-159820742D01*
X123714435Y-160000000D01*
X121285565Y-160000000D01*
X121265368Y-159820745D01*
X121205789Y-159650478D01*
X121198523Y-159638915D01*
X121109818Y-159497741D01*
X121109817Y-159497740D01*
X121109816Y-159497738D01*
X120982262Y-159370184D01*
X120982259Y-159370182D01*
X120982258Y-159370181D01*
X120829523Y-159274211D01*
X120659261Y-159214633D01*
X120659257Y-159214632D01*
X120480000Y-159194435D01*
X120300742Y-159214632D01*
X120300738Y-159214633D01*
X120130478Y-159274210D01*
X120052671Y-159323100D01*
X119993340Y-159338050D01*
X119947329Y-159323100D01*
X119869521Y-159274210D01*
X119699261Y-159214633D01*
X119699257Y-159214632D01*
X119520000Y-159194435D01*
X119340742Y-159214632D01*
X119340738Y-159214633D01*
X119170477Y-159274211D01*
X119170476Y-159274211D01*
X119017741Y-159370181D01*
X118890181Y-159497741D01*
X118794211Y-159650476D01*
X118794211Y-159650477D01*
X118734633Y-159820738D01*
X118734632Y-159820742D01*
X118714435Y-160000000D01*
X116285565Y-160000000D01*
X116265368Y-159820745D01*
X116205789Y-159650478D01*
X116198523Y-159638915D01*
X116109818Y-159497741D01*
X116109817Y-159497740D01*
X116109816Y-159497738D01*
X115982262Y-159370184D01*
X115982259Y-159370182D01*
X115982258Y-159370181D01*
X115829523Y-159274211D01*
X115659261Y-159214633D01*
X115659257Y-159214632D01*
X115480000Y-159194435D01*
X115300742Y-159214632D01*
X115300738Y-159214633D01*
X115130478Y-159274210D01*
X115052671Y-159323100D01*
X114993340Y-159338050D01*
X114947329Y-159323100D01*
X114869521Y-159274210D01*
X114699261Y-159214633D01*
X114699257Y-159214632D01*
X114520000Y-159194435D01*
X114340742Y-159214632D01*
X114340738Y-159214633D01*
X114170477Y-159274211D01*
X114170476Y-159274211D01*
X114017741Y-159370181D01*
X113890181Y-159497741D01*
X113794211Y-159650476D01*
X113794211Y-159650477D01*
X113734633Y-159820738D01*
X113734632Y-159820742D01*
X113714435Y-160000000D01*
X110325565Y-160000000D01*
X110305368Y-159820745D01*
X110245789Y-159650478D01*
X110238523Y-159638915D01*
X110149818Y-159497741D01*
X110149817Y-159497740D01*
X110149816Y-159497738D01*
X110022262Y-159370184D01*
X110022259Y-159370182D01*
X110022258Y-159370181D01*
X109869523Y-159274211D01*
X109699261Y-159214633D01*
X109699257Y-159214632D01*
X109520000Y-159194435D01*
X109340742Y-159214632D01*
X109340738Y-159214633D01*
X109170477Y-159274211D01*
X109170476Y-159274211D01*
X109017741Y-159370181D01*
X108890181Y-159497741D01*
X108794211Y-159650476D01*
X108794211Y-159650477D01*
X108734633Y-159820738D01*
X108734632Y-159820742D01*
X108714435Y-160000000D01*
X100500500Y-160000000D01*
X100500500Y-150250000D01*
X128244435Y-150250000D01*
X128264632Y-150429257D01*
X128277945Y-150467304D01*
X128279317Y-150528474D01*
X128277945Y-150532696D01*
X128264632Y-150570742D01*
X128244435Y-150750000D01*
X128264632Y-150929257D01*
X128264633Y-150929261D01*
X128324211Y-151099522D01*
X128324211Y-151099523D01*
X128420181Y-151252258D01*
X128420184Y-151252262D01*
X128547738Y-151379816D01*
X128700478Y-151475789D01*
X128768657Y-151499646D01*
X128870738Y-151535366D01*
X128870742Y-151535367D01*
X128870745Y-151535368D01*
X129050000Y-151555565D01*
X129229255Y-151535368D01*
X129399522Y-151475789D01*
X129552262Y-151379816D01*
X129679816Y-151252262D01*
X129775789Y-151099522D01*
X129835368Y-150929255D01*
X129855565Y-150750000D01*
X129835368Y-150570745D01*
X129822054Y-150532698D01*
X129820680Y-150471530D01*
X129822055Y-150467300D01*
X129835365Y-150429263D01*
X129835367Y-150429257D01*
X129835368Y-150429255D01*
X129855565Y-150250000D01*
X129835368Y-150070745D01*
X129775789Y-149900478D01*
X129700588Y-149780797D01*
X129681237Y-149750000D01*
X130144435Y-149750000D01*
X130164632Y-149929257D01*
X130164633Y-149929261D01*
X130224211Y-150099523D01*
X130285666Y-150197330D01*
X130300616Y-150256661D01*
X130285666Y-150302670D01*
X130224211Y-150400476D01*
X130164633Y-150570738D01*
X130164632Y-150570742D01*
X130144435Y-150750000D01*
X130164632Y-150929257D01*
X130164633Y-150929261D01*
X130224211Y-151099522D01*
X130224211Y-151099523D01*
X130320181Y-151252258D01*
X130320184Y-151252262D01*
X130447738Y-151379816D01*
X130600478Y-151475789D01*
X130668657Y-151499646D01*
X130770738Y-151535366D01*
X130770742Y-151535367D01*
X130770745Y-151535368D01*
X130950000Y-151555565D01*
X131129255Y-151535368D01*
X131299522Y-151475789D01*
X131452262Y-151379816D01*
X131579816Y-151252262D01*
X131675789Y-151099522D01*
X131735368Y-150929255D01*
X131755565Y-150750000D01*
X131735368Y-150570745D01*
X131731094Y-150558532D01*
X131685861Y-150429263D01*
X131675789Y-150400478D01*
X131675787Y-150400475D01*
X131675787Y-150400474D01*
X131614333Y-150302672D01*
X131599382Y-150243341D01*
X131614333Y-150197328D01*
X131615087Y-150196129D01*
X131675789Y-150099522D01*
X131735368Y-149929255D01*
X131755565Y-149750000D01*
X131735368Y-149570745D01*
X131675789Y-149400478D01*
X131671352Y-149393417D01*
X131579818Y-149247741D01*
X131579817Y-149247740D01*
X131579816Y-149247738D01*
X131452262Y-149120184D01*
X131452259Y-149120182D01*
X131452258Y-149120181D01*
X131299523Y-149024211D01*
X131129261Y-148964633D01*
X131129257Y-148964632D01*
X130950000Y-148944435D01*
X130770742Y-148964632D01*
X130770738Y-148964633D01*
X130600477Y-149024211D01*
X130600476Y-149024211D01*
X130447741Y-149120181D01*
X130320181Y-149247741D01*
X130224211Y-149400476D01*
X130224211Y-149400477D01*
X130164633Y-149570738D01*
X130164632Y-149570742D01*
X130144435Y-149750000D01*
X129681237Y-149750000D01*
X129679818Y-149747741D01*
X129679817Y-149747740D01*
X129679816Y-149747738D01*
X129552262Y-149620184D01*
X129552259Y-149620182D01*
X129552258Y-149620181D01*
X129399523Y-149524211D01*
X129229261Y-149464633D01*
X129229257Y-149464632D01*
X129050000Y-149444435D01*
X128870742Y-149464632D01*
X128870738Y-149464633D01*
X128700477Y-149524211D01*
X128700476Y-149524211D01*
X128547741Y-149620181D01*
X128420181Y-149747741D01*
X128324211Y-149900476D01*
X128324211Y-149900477D01*
X128264633Y-150070738D01*
X128264632Y-150070742D01*
X128244435Y-150250000D01*
X100500500Y-150250000D01*
X100500500Y-145200000D01*
X135194435Y-145200000D01*
X135214632Y-145379257D01*
X135214633Y-145379261D01*
X135274211Y-145549522D01*
X135274211Y-145549523D01*
X135370181Y-145702258D01*
X135370185Y-145702264D01*
X135397919Y-145729998D01*
X135425695Y-145784515D01*
X135416123Y-145844946D01*
X135397919Y-145870002D01*
X135370185Y-145897735D01*
X135370181Y-145897741D01*
X135274211Y-146050476D01*
X135274211Y-146050477D01*
X135214633Y-146220738D01*
X135214632Y-146220742D01*
X135194435Y-146400000D01*
X135214632Y-146579257D01*
X135214633Y-146579261D01*
X135274211Y-146749522D01*
X135274211Y-146749523D01*
X135370181Y-146902258D01*
X135370184Y-146902262D01*
X135497738Y-147029816D01*
X135650478Y-147125789D01*
X135718657Y-147149646D01*
X135820738Y-147185366D01*
X135820742Y-147185367D01*
X135820745Y-147185368D01*
X136000000Y-147205565D01*
X136179255Y-147185368D01*
X136349522Y-147125789D01*
X136502262Y-147029816D01*
X136629816Y-146902262D01*
X136725789Y-146749522D01*
X136785368Y-146579255D01*
X136805565Y-146400000D01*
X136785368Y-146220745D01*
X136725789Y-146050478D01*
X136629816Y-145897738D01*
X136602079Y-145870001D01*
X136574304Y-145815487D01*
X136583875Y-145755055D01*
X136602080Y-145729998D01*
X136629816Y-145702262D01*
X136725789Y-145549522D01*
X136785368Y-145379255D01*
X136805565Y-145200000D01*
X136785368Y-145020745D01*
X136725789Y-144850478D01*
X136725786Y-144850474D01*
X136629818Y-144697741D01*
X136629817Y-144697740D01*
X136629816Y-144697738D01*
X136502262Y-144570184D01*
X136502259Y-144570182D01*
X136502258Y-144570181D01*
X136349523Y-144474211D01*
X136179261Y-144414633D01*
X136179257Y-144414632D01*
X136000000Y-144394435D01*
X135820742Y-144414632D01*
X135820738Y-144414633D01*
X135650477Y-144474211D01*
X135650476Y-144474211D01*
X135497741Y-144570181D01*
X135370181Y-144697741D01*
X135274211Y-144850476D01*
X135274211Y-144850477D01*
X135214633Y-145020738D01*
X135214632Y-145020742D01*
X135194435Y-145200000D01*
X100500500Y-145200000D01*
X100500500Y-109450001D01*
X117160001Y-109450001D01*
X117160001Y-110044791D01*
X117162909Y-110069874D01*
X117208213Y-110172477D01*
X117287522Y-110251786D01*
X117390127Y-110297090D01*
X117415203Y-110299999D01*
X119799998Y-110299999D01*
X119800000Y-110299998D01*
X119800000Y-109450001D01*
X120200000Y-109450001D01*
X120200000Y-110299998D01*
X120200001Y-110299999D01*
X122584790Y-110299999D01*
X122584791Y-110299998D01*
X122609874Y-110297090D01*
X122712477Y-110251786D01*
X122791786Y-110172477D01*
X122837090Y-110069872D01*
X122839999Y-110044797D01*
X122840000Y-110044795D01*
X122840000Y-109450001D01*
X132160001Y-109450001D01*
X132160001Y-110044791D01*
X132162909Y-110069874D01*
X132208213Y-110172477D01*
X132287522Y-110251786D01*
X132390127Y-110297090D01*
X132415203Y-110299999D01*
X134799998Y-110299999D01*
X134800000Y-110299998D01*
X134800000Y-109450001D01*
X135200000Y-109450001D01*
X135200000Y-110299998D01*
X135200001Y-110299999D01*
X137584790Y-110299999D01*
X137584791Y-110299998D01*
X137609874Y-110297090D01*
X137712477Y-110251786D01*
X137791786Y-110172477D01*
X137837090Y-110069872D01*
X137839999Y-110044797D01*
X137840000Y-110044795D01*
X137840000Y-109450001D01*
X137839999Y-109450000D01*
X135200001Y-109450000D01*
X135200000Y-109450001D01*
X134800000Y-109450001D01*
X134799999Y-109450000D01*
X132160002Y-109450000D01*
X132160001Y-109450001D01*
X122840000Y-109450001D01*
X122839999Y-109450000D01*
X120200001Y-109450000D01*
X120200000Y-109450001D01*
X119800000Y-109450001D01*
X119799999Y-109450000D01*
X117160002Y-109450000D01*
X117160001Y-109450001D01*
X100500500Y-109450001D01*
X100500500Y-108455202D01*
X117160000Y-108455202D01*
X117160000Y-109049999D01*
X117160001Y-109050000D01*
X119799999Y-109050000D01*
X119800000Y-109049999D01*
X119800000Y-108200001D01*
X120200000Y-108200001D01*
X120200000Y-109049999D01*
X120200001Y-109050000D01*
X122839998Y-109050000D01*
X122839999Y-109049999D01*
X122839999Y-108455210D01*
X122839998Y-108455208D01*
X122839997Y-108455202D01*
X132160000Y-108455202D01*
X132160000Y-109049999D01*
X132160001Y-109050000D01*
X134799999Y-109050000D01*
X134800000Y-109049999D01*
X134800000Y-108200001D01*
X135200000Y-108200001D01*
X135200000Y-109049999D01*
X135200001Y-109050000D01*
X137839998Y-109050000D01*
X137839999Y-109049999D01*
X137839999Y-108455210D01*
X137839998Y-108455208D01*
X137837090Y-108430125D01*
X137791786Y-108327522D01*
X137712477Y-108248213D01*
X137609872Y-108202909D01*
X137584797Y-108200000D01*
X135200001Y-108200000D01*
X135200000Y-108200001D01*
X134800000Y-108200001D01*
X134799999Y-108200000D01*
X132415210Y-108200000D01*
X132415208Y-108200001D01*
X132390125Y-108202909D01*
X132287522Y-108248213D01*
X132208213Y-108327522D01*
X132162909Y-108430127D01*
X132160000Y-108455202D01*
X122839997Y-108455202D01*
X122837090Y-108430125D01*
X122791786Y-108327522D01*
X122712477Y-108248213D01*
X122609872Y-108202909D01*
X122584797Y-108200000D01*
X120200001Y-108200000D01*
X120200000Y-108200001D01*
X119800000Y-108200001D01*
X119799999Y-108200000D01*
X117415210Y-108200000D01*
X117415208Y-108200001D01*
X117390125Y-108202909D01*
X117287522Y-108248213D01*
X117208213Y-108327522D01*
X117162909Y-108430127D01*
X117160000Y-108455202D01*
X100500500Y-108455202D01*
X100500500Y-103878710D01*
X102149500Y-103878710D01*
X102149500Y-104121289D01*
X102181161Y-104361781D01*
X102181161Y-104361786D01*
X102243944Y-104596092D01*
X102243948Y-104596105D01*
X102336772Y-104820204D01*
X102336774Y-104820208D01*
X102336776Y-104820212D01*
X102396834Y-104924235D01*
X102458066Y-105030292D01*
X102605729Y-105222731D01*
X102605731Y-105222733D01*
X102605735Y-105222738D01*
X102777262Y-105394265D01*
X102777266Y-105394268D01*
X102777268Y-105394270D01*
X102918007Y-105502262D01*
X102969711Y-105541936D01*
X103179788Y-105663224D01*
X103403900Y-105756054D01*
X103638211Y-105818838D01*
X103878712Y-105850500D01*
X103878713Y-105850500D01*
X104121287Y-105850500D01*
X104121288Y-105850500D01*
X104361789Y-105818838D01*
X104596100Y-105756054D01*
X104820212Y-105663224D01*
X105030289Y-105541936D01*
X105222738Y-105394265D01*
X105394265Y-105222738D01*
X105541936Y-105030289D01*
X105559423Y-105000000D01*
X134194435Y-105000000D01*
X134214632Y-105179257D01*
X134214633Y-105179261D01*
X134274211Y-105349522D01*
X134274211Y-105349523D01*
X134370181Y-105502258D01*
X134370184Y-105502262D01*
X134497738Y-105629816D01*
X134497740Y-105629817D01*
X134497741Y-105629818D01*
X134624999Y-105709780D01*
X134650478Y-105725789D01*
X134718657Y-105749646D01*
X134820738Y-105785366D01*
X134820742Y-105785367D01*
X134820745Y-105785368D01*
X135000000Y-105805565D01*
X135179255Y-105785368D01*
X135349522Y-105725789D01*
X135502262Y-105629816D01*
X135629816Y-105502262D01*
X135725789Y-105349522D01*
X135785368Y-105179255D01*
X135805565Y-105000000D01*
X135785368Y-104820745D01*
X135785181Y-104820212D01*
X135761014Y-104751145D01*
X135725789Y-104650478D01*
X135723374Y-104646635D01*
X135629818Y-104497741D01*
X135629817Y-104497740D01*
X135629816Y-104497738D01*
X135502262Y-104370184D01*
X135502259Y-104370182D01*
X135502258Y-104370181D01*
X135349523Y-104274211D01*
X135179261Y-104214633D01*
X135179257Y-104214632D01*
X135000000Y-104194435D01*
X134820742Y-104214632D01*
X134820738Y-104214633D01*
X134650477Y-104274211D01*
X134650476Y-104274211D01*
X134497741Y-104370181D01*
X134370181Y-104497741D01*
X134274211Y-104650476D01*
X134274211Y-104650477D01*
X134214633Y-104820738D01*
X134214632Y-104820742D01*
X134194435Y-105000000D01*
X105559423Y-105000000D01*
X105663224Y-104820212D01*
X105756054Y-104596100D01*
X105818838Y-104361789D01*
X105850500Y-104121288D01*
X105850500Y-103878712D01*
X105850500Y-103878710D01*
X194149500Y-103878710D01*
X194149500Y-104121289D01*
X194181161Y-104361781D01*
X194181161Y-104361786D01*
X194243944Y-104596092D01*
X194243948Y-104596105D01*
X194336772Y-104820204D01*
X194336774Y-104820208D01*
X194336776Y-104820212D01*
X194396834Y-104924235D01*
X194458066Y-105030292D01*
X194605729Y-105222731D01*
X194605731Y-105222733D01*
X194605735Y-105222738D01*
X194777262Y-105394265D01*
X194777266Y-105394268D01*
X194777268Y-105394270D01*
X194918007Y-105502262D01*
X194969711Y-105541936D01*
X195179788Y-105663224D01*
X195403900Y-105756054D01*
X195638211Y-105818838D01*
X195878712Y-105850500D01*
X195878713Y-105850500D01*
X196121287Y-105850500D01*
X196121288Y-105850500D01*
X196361789Y-105818838D01*
X196596100Y-105756054D01*
X196820212Y-105663224D01*
X197030289Y-105541936D01*
X197222738Y-105394265D01*
X197394265Y-105222738D01*
X197541936Y-105030289D01*
X197663224Y-104820212D01*
X197756054Y-104596100D01*
X197818838Y-104361789D01*
X197850500Y-104121288D01*
X197850500Y-103878712D01*
X197818838Y-103638211D01*
X197756054Y-103403900D01*
X197663224Y-103179788D01*
X197541936Y-102969711D01*
X197394265Y-102777262D01*
X197222738Y-102605735D01*
X197222733Y-102605731D01*
X197222731Y-102605729D01*
X197030292Y-102458066D01*
X197030289Y-102458064D01*
X196820212Y-102336776D01*
X196820208Y-102336774D01*
X196820204Y-102336772D01*
X196596105Y-102243948D01*
X196596104Y-102243947D01*
X196596100Y-102243946D01*
X196361789Y-102181162D01*
X196361786Y-102181161D01*
X196361784Y-102181161D01*
X196121289Y-102149500D01*
X196121288Y-102149500D01*
X195878712Y-102149500D01*
X195878710Y-102149500D01*
X195638218Y-102181161D01*
X195638213Y-102181161D01*
X195403907Y-102243944D01*
X195403894Y-102243948D01*
X195179795Y-102336772D01*
X194969707Y-102458066D01*
X194777268Y-102605729D01*
X194605729Y-102777268D01*
X194458066Y-102969707D01*
X194336772Y-103179795D01*
X194243948Y-103403894D01*
X194243944Y-103403907D01*
X194181161Y-103638213D01*
X194181161Y-103638218D01*
X194149500Y-103878710D01*
X105850500Y-103878710D01*
X105818838Y-103638211D01*
X105756054Y-103403900D01*
X105663224Y-103179788D01*
X105541936Y-102969711D01*
X105394265Y-102777262D01*
X105222738Y-102605735D01*
X105222733Y-102605731D01*
X105222731Y-102605729D01*
X105030292Y-102458066D01*
X105030289Y-102458064D01*
X104820212Y-102336776D01*
X104820208Y-102336774D01*
X104820204Y-102336772D01*
X104596105Y-102243948D01*
X104596104Y-102243947D01*
X104596100Y-102243946D01*
X104361789Y-102181162D01*
X104361786Y-102181161D01*
X104361784Y-102181161D01*
X104121289Y-102149500D01*
X104121288Y-102149500D01*
X103878712Y-102149500D01*
X103878710Y-102149500D01*
X103638218Y-102181161D01*
X103638213Y-102181161D01*
X103403907Y-102243944D01*
X103403894Y-102243948D01*
X103179795Y-102336772D01*
X102969707Y-102458066D01*
X102777268Y-102605729D01*
X102605729Y-102777268D01*
X102458066Y-102969707D01*
X102336772Y-103179795D01*
X102243948Y-103403894D01*
X102243944Y-103403907D01*
X102181161Y-103638213D01*
X102181161Y-103638218D01*
X102149500Y-103878710D01*
X100500500Y-103878710D01*
X100500500Y-100950001D01*
X117160001Y-100950001D01*
X117160001Y-101544791D01*
X117162909Y-101569874D01*
X117208213Y-101672477D01*
X117287522Y-101751786D01*
X117390127Y-101797090D01*
X117415203Y-101799999D01*
X119799998Y-101799999D01*
X119800000Y-101799998D01*
X119800000Y-100950001D01*
X120200000Y-100950001D01*
X120200000Y-101799998D01*
X120200001Y-101799999D01*
X122584790Y-101799999D01*
X122584791Y-101799998D01*
X122609874Y-101797090D01*
X122712477Y-101751786D01*
X122791786Y-101672477D01*
X122837090Y-101569872D01*
X122839999Y-101544797D01*
X122840000Y-101544795D01*
X122840000Y-100950001D01*
X132160001Y-100950001D01*
X132160001Y-101544791D01*
X132162909Y-101569874D01*
X132208213Y-101672477D01*
X132287522Y-101751786D01*
X132390127Y-101797090D01*
X132415203Y-101799999D01*
X134799998Y-101799999D01*
X134800000Y-101799998D01*
X134800000Y-100950001D01*
X135200000Y-100950001D01*
X135200000Y-101799998D01*
X135200001Y-101799999D01*
X137584790Y-101799999D01*
X137584791Y-101799998D01*
X137609874Y-101797090D01*
X137712477Y-101751786D01*
X137791786Y-101672477D01*
X137837090Y-101569872D01*
X137839999Y-101544797D01*
X137840000Y-101544795D01*
X137840000Y-100950001D01*
X162160001Y-100950001D01*
X162160001Y-101544791D01*
X162162909Y-101569874D01*
X162208213Y-101672477D01*
X162287522Y-101751786D01*
X162390127Y-101797090D01*
X162415203Y-101799999D01*
X164799998Y-101799999D01*
X164800000Y-101799998D01*
X164800000Y-100950001D01*
X165200000Y-100950001D01*
X165200000Y-101799998D01*
X165200001Y-101799999D01*
X167584790Y-101799999D01*
X167584791Y-101799998D01*
X167609874Y-101797090D01*
X167712477Y-101751786D01*
X167791786Y-101672477D01*
X167837090Y-101569872D01*
X167839999Y-101544797D01*
X167840000Y-101544795D01*
X167840000Y-100950001D01*
X177160001Y-100950001D01*
X177160001Y-101544791D01*
X177162909Y-101569874D01*
X177208213Y-101672477D01*
X177287522Y-101751786D01*
X177390127Y-101797090D01*
X177415203Y-101799999D01*
X179799998Y-101799999D01*
X179800000Y-101799998D01*
X179800000Y-100950001D01*
X180200000Y-100950001D01*
X180200000Y-101799998D01*
X180200001Y-101799999D01*
X182584790Y-101799999D01*
X182584791Y-101799998D01*
X182609874Y-101797090D01*
X182712477Y-101751786D01*
X182791786Y-101672477D01*
X182837090Y-101569872D01*
X182839999Y-101544797D01*
X182840000Y-101544795D01*
X182840000Y-100950001D01*
X182839999Y-100950000D01*
X180200001Y-100950000D01*
X180200000Y-100950001D01*
X179800000Y-100950001D01*
X179799999Y-100950000D01*
X177160002Y-100950000D01*
X177160001Y-100950001D01*
X167840000Y-100950001D01*
X167839999Y-100950000D01*
X165200001Y-100950000D01*
X165200000Y-100950001D01*
X164800000Y-100950001D01*
X164799999Y-100950000D01*
X162160002Y-100950000D01*
X162160001Y-100950001D01*
X137840000Y-100950001D01*
X137839999Y-100950000D01*
X135200001Y-100950000D01*
X135200000Y-100950001D01*
X134800000Y-100950001D01*
X134799999Y-100950000D01*
X132160002Y-100950000D01*
X132160001Y-100950001D01*
X122840000Y-100950001D01*
X122839999Y-100950000D01*
X120200001Y-100950000D01*
X120200000Y-100950001D01*
X119800000Y-100950001D01*
X119799999Y-100950000D01*
X117160002Y-100950000D01*
X117160001Y-100950001D01*
X100500500Y-100950001D01*
X100500500Y-100599500D01*
X100519407Y-100541309D01*
X100568907Y-100505345D01*
X100599500Y-100500500D01*
X117069493Y-100500500D01*
X117127684Y-100519407D01*
G37*
%TD.AperFunction*%
%TD*%
M02*
