%TF.GenerationSoftware,KiCad,Pcbnew,8.0.9-8.0.9-0~ubuntu22.04.1*%
%TF.CreationDate,2026-06-20T21:10:25+00:00*%
%TF.ProjectId,LightRail_Eval_Board,4c696768-7452-4616-996c-5f4576616c5f,rev?*%
%TF.SameCoordinates,Original*%
%TF.FileFunction,Legend,Top*%
%TF.FilePolarity,Positive*%
%FSLAX46Y46*%
G04 Gerber Fmt 4.6, Leading zero omitted, Abs format (unit mm)*
G04 Created by KiCad (PCBNEW 8.0.9-8.0.9-0~ubuntu22.04.1) date 2026-06-20 21:10:25*
%MOMM*%
%LPD*%
G01*
G04 APERTURE LIST*
%ADD10C,0.150000*%
%ADD11C,0.120000*%
G04 APERTURE END LIST*
D10*
X114380952Y-184284819D02*
X114047619Y-183808628D01*
X113809524Y-184284819D02*
X113809524Y-183284819D01*
X113809524Y-183284819D02*
X114190476Y-183284819D01*
X114190476Y-183284819D02*
X114285714Y-183332438D01*
X114285714Y-183332438D02*
X114333333Y-183380057D01*
X114333333Y-183380057D02*
X114380952Y-183475295D01*
X114380952Y-183475295D02*
X114380952Y-183618152D01*
X114380952Y-183618152D02*
X114333333Y-183713390D01*
X114333333Y-183713390D02*
X114285714Y-183761009D01*
X114285714Y-183761009D02*
X114190476Y-183808628D01*
X114190476Y-183808628D02*
X113809524Y-183808628D01*
X115285714Y-183284819D02*
X114809524Y-183284819D01*
X114809524Y-183284819D02*
X114761905Y-183761009D01*
X114761905Y-183761009D02*
X114809524Y-183713390D01*
X114809524Y-183713390D02*
X114904762Y-183665771D01*
X114904762Y-183665771D02*
X115142857Y-183665771D01*
X115142857Y-183665771D02*
X115238095Y-183713390D01*
X115238095Y-183713390D02*
X115285714Y-183761009D01*
X115285714Y-183761009D02*
X115333333Y-183856247D01*
X115333333Y-183856247D02*
X115333333Y-184094342D01*
X115333333Y-184094342D02*
X115285714Y-184189580D01*
X115285714Y-184189580D02*
X115238095Y-184237200D01*
X115238095Y-184237200D02*
X115142857Y-184284819D01*
X115142857Y-184284819D02*
X114904762Y-184284819D01*
X114904762Y-184284819D02*
X114809524Y-184237200D01*
X114809524Y-184237200D02*
X114761905Y-184189580D01*
X116190476Y-184284819D02*
X116190476Y-183761009D01*
X116190476Y-183761009D02*
X116142857Y-183665771D01*
X116142857Y-183665771D02*
X116047619Y-183618152D01*
X116047619Y-183618152D02*
X115857143Y-183618152D01*
X115857143Y-183618152D02*
X115761905Y-183665771D01*
X116190476Y-184237200D02*
X116095238Y-184284819D01*
X116095238Y-184284819D02*
X115857143Y-184284819D01*
X115857143Y-184284819D02*
X115761905Y-184237200D01*
X115761905Y-184237200D02*
X115714286Y-184141961D01*
X115714286Y-184141961D02*
X115714286Y-184046723D01*
X115714286Y-184046723D02*
X115761905Y-183951485D01*
X115761905Y-183951485D02*
X115857143Y-183903866D01*
X115857143Y-183903866D02*
X116095238Y-183903866D01*
X116095238Y-183903866D02*
X116190476Y-183856247D01*
X199238095Y-113954819D02*
X199238095Y-114764342D01*
X199238095Y-114764342D02*
X199285714Y-114859580D01*
X199285714Y-114859580D02*
X199333333Y-114907200D01*
X199333333Y-114907200D02*
X199428571Y-114954819D01*
X199428571Y-114954819D02*
X199619047Y-114954819D01*
X199619047Y-114954819D02*
X199714285Y-114907200D01*
X199714285Y-114907200D02*
X199761904Y-114859580D01*
X199761904Y-114859580D02*
X199809523Y-114764342D01*
X199809523Y-114764342D02*
X199809523Y-113954819D01*
X200190476Y-113954819D02*
X200809523Y-113954819D01*
X200809523Y-113954819D02*
X200476190Y-114335771D01*
X200476190Y-114335771D02*
X200619047Y-114335771D01*
X200619047Y-114335771D02*
X200714285Y-114383390D01*
X200714285Y-114383390D02*
X200761904Y-114431009D01*
X200761904Y-114431009D02*
X200809523Y-114526247D01*
X200809523Y-114526247D02*
X200809523Y-114764342D01*
X200809523Y-114764342D02*
X200761904Y-114859580D01*
X200761904Y-114859580D02*
X200714285Y-114907200D01*
X200714285Y-114907200D02*
X200619047Y-114954819D01*
X200619047Y-114954819D02*
X200333333Y-114954819D01*
X200333333Y-114954819D02*
X200238095Y-114907200D01*
X200238095Y-114907200D02*
X200190476Y-114859580D01*
X247809524Y-166604819D02*
X247809524Y-165604819D01*
X247809524Y-165604819D02*
X248047619Y-165604819D01*
X248047619Y-165604819D02*
X248190476Y-165652438D01*
X248190476Y-165652438D02*
X248285714Y-165747676D01*
X248285714Y-165747676D02*
X248333333Y-165842914D01*
X248333333Y-165842914D02*
X248380952Y-166033390D01*
X248380952Y-166033390D02*
X248380952Y-166176247D01*
X248380952Y-166176247D02*
X248333333Y-166366723D01*
X248333333Y-166366723D02*
X248285714Y-166461961D01*
X248285714Y-166461961D02*
X248190476Y-166557200D01*
X248190476Y-166557200D02*
X248047619Y-166604819D01*
X248047619Y-166604819D02*
X247809524Y-166604819D01*
X249285714Y-165604819D02*
X248809524Y-165604819D01*
X248809524Y-165604819D02*
X248761905Y-166081009D01*
X248761905Y-166081009D02*
X248809524Y-166033390D01*
X248809524Y-166033390D02*
X248904762Y-165985771D01*
X248904762Y-165985771D02*
X249142857Y-165985771D01*
X249142857Y-165985771D02*
X249238095Y-166033390D01*
X249238095Y-166033390D02*
X249285714Y-166081009D01*
X249285714Y-166081009D02*
X249333333Y-166176247D01*
X249333333Y-166176247D02*
X249333333Y-166414342D01*
X249333333Y-166414342D02*
X249285714Y-166509580D01*
X249285714Y-166509580D02*
X249238095Y-166557200D01*
X249238095Y-166557200D02*
X249142857Y-166604819D01*
X249142857Y-166604819D02*
X248904762Y-166604819D01*
X248904762Y-166604819D02*
X248809524Y-166557200D01*
X248809524Y-166557200D02*
X248761905Y-166509580D01*
X250190476Y-166604819D02*
X250190476Y-166081009D01*
X250190476Y-166081009D02*
X250142857Y-165985771D01*
X250142857Y-165985771D02*
X250047619Y-165938152D01*
X250047619Y-165938152D02*
X249857143Y-165938152D01*
X249857143Y-165938152D02*
X249761905Y-165985771D01*
X250190476Y-166557200D02*
X250095238Y-166604819D01*
X250095238Y-166604819D02*
X249857143Y-166604819D01*
X249857143Y-166604819D02*
X249761905Y-166557200D01*
X249761905Y-166557200D02*
X249714286Y-166461961D01*
X249714286Y-166461961D02*
X249714286Y-166366723D01*
X249714286Y-166366723D02*
X249761905Y-166271485D01*
X249761905Y-166271485D02*
X249857143Y-166223866D01*
X249857143Y-166223866D02*
X250095238Y-166223866D01*
X250095238Y-166223866D02*
X250190476Y-166176247D01*
X207357142Y-111199580D02*
X207309523Y-111247200D01*
X207309523Y-111247200D02*
X207166666Y-111294819D01*
X207166666Y-111294819D02*
X207071428Y-111294819D01*
X207071428Y-111294819D02*
X206928571Y-111247200D01*
X206928571Y-111247200D02*
X206833333Y-111151961D01*
X206833333Y-111151961D02*
X206785714Y-111056723D01*
X206785714Y-111056723D02*
X206738095Y-110866247D01*
X206738095Y-110866247D02*
X206738095Y-110723390D01*
X206738095Y-110723390D02*
X206785714Y-110532914D01*
X206785714Y-110532914D02*
X206833333Y-110437676D01*
X206833333Y-110437676D02*
X206928571Y-110342438D01*
X206928571Y-110342438D02*
X207071428Y-110294819D01*
X207071428Y-110294819D02*
X207166666Y-110294819D01*
X207166666Y-110294819D02*
X207309523Y-110342438D01*
X207309523Y-110342438D02*
X207357142Y-110390057D01*
X208214285Y-110628152D02*
X208214285Y-111294819D01*
X207976190Y-110247200D02*
X207738095Y-110961485D01*
X207738095Y-110961485D02*
X208357142Y-110961485D01*
X209261904Y-111294819D02*
X208690476Y-111294819D01*
X208976190Y-111294819D02*
X208976190Y-110294819D01*
X208976190Y-110294819D02*
X208880952Y-110437676D01*
X208880952Y-110437676D02*
X208785714Y-110532914D01*
X208785714Y-110532914D02*
X208690476Y-110580533D01*
X224499999Y-143199580D02*
X224452380Y-143247200D01*
X224452380Y-143247200D02*
X224309523Y-143294819D01*
X224309523Y-143294819D02*
X224214285Y-143294819D01*
X224214285Y-143294819D02*
X224071428Y-143247200D01*
X224071428Y-143247200D02*
X223976190Y-143151961D01*
X223976190Y-143151961D02*
X223928571Y-143056723D01*
X223928571Y-143056723D02*
X223880952Y-142866247D01*
X223880952Y-142866247D02*
X223880952Y-142723390D01*
X223880952Y-142723390D02*
X223928571Y-142532914D01*
X223928571Y-142532914D02*
X223976190Y-142437676D01*
X223976190Y-142437676D02*
X224071428Y-142342438D01*
X224071428Y-142342438D02*
X224214285Y-142294819D01*
X224214285Y-142294819D02*
X224309523Y-142294819D01*
X224309523Y-142294819D02*
X224452380Y-142342438D01*
X224452380Y-142342438D02*
X224499999Y-142390057D01*
X225404761Y-142294819D02*
X224928571Y-142294819D01*
X224928571Y-142294819D02*
X224880952Y-142771009D01*
X224880952Y-142771009D02*
X224928571Y-142723390D01*
X224928571Y-142723390D02*
X225023809Y-142675771D01*
X225023809Y-142675771D02*
X225261904Y-142675771D01*
X225261904Y-142675771D02*
X225357142Y-142723390D01*
X225357142Y-142723390D02*
X225404761Y-142771009D01*
X225404761Y-142771009D02*
X225452380Y-142866247D01*
X225452380Y-142866247D02*
X225452380Y-143104342D01*
X225452380Y-143104342D02*
X225404761Y-143199580D01*
X225404761Y-143199580D02*
X225357142Y-143247200D01*
X225357142Y-143247200D02*
X225261904Y-143294819D01*
X225261904Y-143294819D02*
X225023809Y-143294819D01*
X225023809Y-143294819D02*
X224928571Y-143247200D01*
X224928571Y-143247200D02*
X224880952Y-143199580D01*
X226071428Y-142294819D02*
X226166666Y-142294819D01*
X226166666Y-142294819D02*
X226261904Y-142342438D01*
X226261904Y-142342438D02*
X226309523Y-142390057D01*
X226309523Y-142390057D02*
X226357142Y-142485295D01*
X226357142Y-142485295D02*
X226404761Y-142675771D01*
X226404761Y-142675771D02*
X226404761Y-142913866D01*
X226404761Y-142913866D02*
X226357142Y-143104342D01*
X226357142Y-143104342D02*
X226309523Y-143199580D01*
X226309523Y-143199580D02*
X226261904Y-143247200D01*
X226261904Y-143247200D02*
X226166666Y-143294819D01*
X226166666Y-143294819D02*
X226071428Y-143294819D01*
X226071428Y-143294819D02*
X225976190Y-143247200D01*
X225976190Y-143247200D02*
X225928571Y-143199580D01*
X225928571Y-143199580D02*
X225880952Y-143104342D01*
X225880952Y-143104342D02*
X225833333Y-142913866D01*
X225833333Y-142913866D02*
X225833333Y-142675771D01*
X225833333Y-142675771D02*
X225880952Y-142485295D01*
X225880952Y-142485295D02*
X225928571Y-142390057D01*
X225928571Y-142390057D02*
X225976190Y-142342438D01*
X225976190Y-142342438D02*
X226071428Y-142294819D01*
X226595238Y-143390057D02*
X227357142Y-143390057D01*
X227785714Y-142294819D02*
X227880952Y-142294819D01*
X227880952Y-142294819D02*
X227976190Y-142342438D01*
X227976190Y-142342438D02*
X228023809Y-142390057D01*
X228023809Y-142390057D02*
X228071428Y-142485295D01*
X228071428Y-142485295D02*
X228119047Y-142675771D01*
X228119047Y-142675771D02*
X228119047Y-142913866D01*
X228119047Y-142913866D02*
X228071428Y-143104342D01*
X228071428Y-143104342D02*
X228023809Y-143199580D01*
X228023809Y-143199580D02*
X227976190Y-143247200D01*
X227976190Y-143247200D02*
X227880952Y-143294819D01*
X227880952Y-143294819D02*
X227785714Y-143294819D01*
X227785714Y-143294819D02*
X227690476Y-143247200D01*
X227690476Y-143247200D02*
X227642857Y-143199580D01*
X227642857Y-143199580D02*
X227595238Y-143104342D01*
X227595238Y-143104342D02*
X227547619Y-142913866D01*
X227547619Y-142913866D02*
X227547619Y-142675771D01*
X227547619Y-142675771D02*
X227595238Y-142485295D01*
X227595238Y-142485295D02*
X227642857Y-142390057D01*
X227642857Y-142390057D02*
X227690476Y-142342438D01*
X227690476Y-142342438D02*
X227785714Y-142294819D01*
X123738095Y-217006819D02*
X124309523Y-217006819D01*
X124023809Y-218006819D02*
X124023809Y-217006819D01*
X124642857Y-218006819D02*
X124642857Y-217006819D01*
X124642857Y-217006819D02*
X125023809Y-217006819D01*
X125023809Y-217006819D02*
X125119047Y-217054438D01*
X125119047Y-217054438D02*
X125166666Y-217102057D01*
X125166666Y-217102057D02*
X125214285Y-217197295D01*
X125214285Y-217197295D02*
X125214285Y-217340152D01*
X125214285Y-217340152D02*
X125166666Y-217435390D01*
X125166666Y-217435390D02*
X125119047Y-217483009D01*
X125119047Y-217483009D02*
X125023809Y-217530628D01*
X125023809Y-217530628D02*
X124642857Y-217530628D01*
X125595238Y-217102057D02*
X125642857Y-217054438D01*
X125642857Y-217054438D02*
X125738095Y-217006819D01*
X125738095Y-217006819D02*
X125976190Y-217006819D01*
X125976190Y-217006819D02*
X126071428Y-217054438D01*
X126071428Y-217054438D02*
X126119047Y-217102057D01*
X126119047Y-217102057D02*
X126166666Y-217197295D01*
X126166666Y-217197295D02*
X126166666Y-217292533D01*
X126166666Y-217292533D02*
X126119047Y-217435390D01*
X126119047Y-217435390D02*
X125547619Y-218006819D01*
X125547619Y-218006819D02*
X126166666Y-218006819D01*
X250023809Y-181199580D02*
X249976190Y-181247200D01*
X249976190Y-181247200D02*
X249833333Y-181294819D01*
X249833333Y-181294819D02*
X249738095Y-181294819D01*
X249738095Y-181294819D02*
X249595238Y-181247200D01*
X249595238Y-181247200D02*
X249500000Y-181151961D01*
X249500000Y-181151961D02*
X249452381Y-181056723D01*
X249452381Y-181056723D02*
X249404762Y-180866247D01*
X249404762Y-180866247D02*
X249404762Y-180723390D01*
X249404762Y-180723390D02*
X249452381Y-180532914D01*
X249452381Y-180532914D02*
X249500000Y-180437676D01*
X249500000Y-180437676D02*
X249595238Y-180342438D01*
X249595238Y-180342438D02*
X249738095Y-180294819D01*
X249738095Y-180294819D02*
X249833333Y-180294819D01*
X249833333Y-180294819D02*
X249976190Y-180342438D01*
X249976190Y-180342438D02*
X250023809Y-180390057D01*
X250928571Y-180294819D02*
X250452381Y-180294819D01*
X250452381Y-180294819D02*
X250404762Y-180771009D01*
X250404762Y-180771009D02*
X250452381Y-180723390D01*
X250452381Y-180723390D02*
X250547619Y-180675771D01*
X250547619Y-180675771D02*
X250785714Y-180675771D01*
X250785714Y-180675771D02*
X250880952Y-180723390D01*
X250880952Y-180723390D02*
X250928571Y-180771009D01*
X250928571Y-180771009D02*
X250976190Y-180866247D01*
X250976190Y-180866247D02*
X250976190Y-181104342D01*
X250976190Y-181104342D02*
X250928571Y-181199580D01*
X250928571Y-181199580D02*
X250880952Y-181247200D01*
X250880952Y-181247200D02*
X250785714Y-181294819D01*
X250785714Y-181294819D02*
X250547619Y-181294819D01*
X250547619Y-181294819D02*
X250452381Y-181247200D01*
X250452381Y-181247200D02*
X250404762Y-181199580D01*
X251166667Y-181390057D02*
X251928571Y-181390057D01*
X252547619Y-181247200D02*
X252452381Y-181294819D01*
X252452381Y-181294819D02*
X252261905Y-181294819D01*
X252261905Y-181294819D02*
X252166667Y-181247200D01*
X252166667Y-181247200D02*
X252119048Y-181151961D01*
X252119048Y-181151961D02*
X252119048Y-180771009D01*
X252119048Y-180771009D02*
X252166667Y-180675771D01*
X252166667Y-180675771D02*
X252261905Y-180628152D01*
X252261905Y-180628152D02*
X252452381Y-180628152D01*
X252452381Y-180628152D02*
X252547619Y-180675771D01*
X252547619Y-180675771D02*
X252595238Y-180771009D01*
X252595238Y-180771009D02*
X252595238Y-180866247D01*
X252595238Y-180866247D02*
X252119048Y-180961485D01*
X147404761Y-198929580D02*
X147357142Y-198977200D01*
X147357142Y-198977200D02*
X147214285Y-199024819D01*
X147214285Y-199024819D02*
X147119047Y-199024819D01*
X147119047Y-199024819D02*
X146976190Y-198977200D01*
X146976190Y-198977200D02*
X146880952Y-198881961D01*
X146880952Y-198881961D02*
X146833333Y-198786723D01*
X146833333Y-198786723D02*
X146785714Y-198596247D01*
X146785714Y-198596247D02*
X146785714Y-198453390D01*
X146785714Y-198453390D02*
X146833333Y-198262914D01*
X146833333Y-198262914D02*
X146880952Y-198167676D01*
X146880952Y-198167676D02*
X146976190Y-198072438D01*
X146976190Y-198072438D02*
X147119047Y-198024819D01*
X147119047Y-198024819D02*
X147214285Y-198024819D01*
X147214285Y-198024819D02*
X147357142Y-198072438D01*
X147357142Y-198072438D02*
X147404761Y-198120057D01*
X147785714Y-198120057D02*
X147833333Y-198072438D01*
X147833333Y-198072438D02*
X147928571Y-198024819D01*
X147928571Y-198024819D02*
X148166666Y-198024819D01*
X148166666Y-198024819D02*
X148261904Y-198072438D01*
X148261904Y-198072438D02*
X148309523Y-198120057D01*
X148309523Y-198120057D02*
X148357142Y-198215295D01*
X148357142Y-198215295D02*
X148357142Y-198310533D01*
X148357142Y-198310533D02*
X148309523Y-198453390D01*
X148309523Y-198453390D02*
X147738095Y-199024819D01*
X147738095Y-199024819D02*
X148357142Y-199024819D01*
X149214285Y-198977200D02*
X149119047Y-199024819D01*
X149119047Y-199024819D02*
X148928571Y-199024819D01*
X148928571Y-199024819D02*
X148833333Y-198977200D01*
X148833333Y-198977200D02*
X148785714Y-198929580D01*
X148785714Y-198929580D02*
X148738095Y-198834342D01*
X148738095Y-198834342D02*
X148738095Y-198548628D01*
X148738095Y-198548628D02*
X148785714Y-198453390D01*
X148785714Y-198453390D02*
X148833333Y-198405771D01*
X148833333Y-198405771D02*
X148928571Y-198358152D01*
X148928571Y-198358152D02*
X149119047Y-198358152D01*
X149119047Y-198358152D02*
X149214285Y-198405771D01*
X180761905Y-108004819D02*
X180761905Y-108814342D01*
X180761905Y-108814342D02*
X180809524Y-108909580D01*
X180809524Y-108909580D02*
X180857143Y-108957200D01*
X180857143Y-108957200D02*
X180952381Y-109004819D01*
X180952381Y-109004819D02*
X181142857Y-109004819D01*
X181142857Y-109004819D02*
X181238095Y-108957200D01*
X181238095Y-108957200D02*
X181285714Y-108909580D01*
X181285714Y-108909580D02*
X181333333Y-108814342D01*
X181333333Y-108814342D02*
X181333333Y-108004819D01*
X181761905Y-108100057D02*
X181809524Y-108052438D01*
X181809524Y-108052438D02*
X181904762Y-108004819D01*
X181904762Y-108004819D02*
X182142857Y-108004819D01*
X182142857Y-108004819D02*
X182238095Y-108052438D01*
X182238095Y-108052438D02*
X182285714Y-108100057D01*
X182285714Y-108100057D02*
X182333333Y-108195295D01*
X182333333Y-108195295D02*
X182333333Y-108290533D01*
X182333333Y-108290533D02*
X182285714Y-108433390D01*
X182285714Y-108433390D02*
X181714286Y-109004819D01*
X181714286Y-109004819D02*
X182333333Y-109004819D01*
X183285714Y-109004819D02*
X182714286Y-109004819D01*
X183000000Y-109004819D02*
X183000000Y-108004819D01*
X183000000Y-108004819D02*
X182904762Y-108147676D01*
X182904762Y-108147676D02*
X182809524Y-108242914D01*
X182809524Y-108242914D02*
X182714286Y-108290533D01*
X197357142Y-167199580D02*
X197309523Y-167247200D01*
X197309523Y-167247200D02*
X197166666Y-167294819D01*
X197166666Y-167294819D02*
X197071428Y-167294819D01*
X197071428Y-167294819D02*
X196928571Y-167247200D01*
X196928571Y-167247200D02*
X196833333Y-167151961D01*
X196833333Y-167151961D02*
X196785714Y-167056723D01*
X196785714Y-167056723D02*
X196738095Y-166866247D01*
X196738095Y-166866247D02*
X196738095Y-166723390D01*
X196738095Y-166723390D02*
X196785714Y-166532914D01*
X196785714Y-166532914D02*
X196833333Y-166437676D01*
X196833333Y-166437676D02*
X196928571Y-166342438D01*
X196928571Y-166342438D02*
X197071428Y-166294819D01*
X197071428Y-166294819D02*
X197166666Y-166294819D01*
X197166666Y-166294819D02*
X197309523Y-166342438D01*
X197309523Y-166342438D02*
X197357142Y-166390057D01*
X197690476Y-166294819D02*
X198309523Y-166294819D01*
X198309523Y-166294819D02*
X197976190Y-166675771D01*
X197976190Y-166675771D02*
X198119047Y-166675771D01*
X198119047Y-166675771D02*
X198214285Y-166723390D01*
X198214285Y-166723390D02*
X198261904Y-166771009D01*
X198261904Y-166771009D02*
X198309523Y-166866247D01*
X198309523Y-166866247D02*
X198309523Y-167104342D01*
X198309523Y-167104342D02*
X198261904Y-167199580D01*
X198261904Y-167199580D02*
X198214285Y-167247200D01*
X198214285Y-167247200D02*
X198119047Y-167294819D01*
X198119047Y-167294819D02*
X197833333Y-167294819D01*
X197833333Y-167294819D02*
X197738095Y-167247200D01*
X197738095Y-167247200D02*
X197690476Y-167199580D01*
X198690476Y-166390057D02*
X198738095Y-166342438D01*
X198738095Y-166342438D02*
X198833333Y-166294819D01*
X198833333Y-166294819D02*
X199071428Y-166294819D01*
X199071428Y-166294819D02*
X199166666Y-166342438D01*
X199166666Y-166342438D02*
X199214285Y-166390057D01*
X199214285Y-166390057D02*
X199261904Y-166485295D01*
X199261904Y-166485295D02*
X199261904Y-166580533D01*
X199261904Y-166580533D02*
X199214285Y-166723390D01*
X199214285Y-166723390D02*
X198642857Y-167294819D01*
X198642857Y-167294819D02*
X199261904Y-167294819D01*
X207357142Y-167199580D02*
X207309523Y-167247200D01*
X207309523Y-167247200D02*
X207166666Y-167294819D01*
X207166666Y-167294819D02*
X207071428Y-167294819D01*
X207071428Y-167294819D02*
X206928571Y-167247200D01*
X206928571Y-167247200D02*
X206833333Y-167151961D01*
X206833333Y-167151961D02*
X206785714Y-167056723D01*
X206785714Y-167056723D02*
X206738095Y-166866247D01*
X206738095Y-166866247D02*
X206738095Y-166723390D01*
X206738095Y-166723390D02*
X206785714Y-166532914D01*
X206785714Y-166532914D02*
X206833333Y-166437676D01*
X206833333Y-166437676D02*
X206928571Y-166342438D01*
X206928571Y-166342438D02*
X207071428Y-166294819D01*
X207071428Y-166294819D02*
X207166666Y-166294819D01*
X207166666Y-166294819D02*
X207309523Y-166342438D01*
X207309523Y-166342438D02*
X207357142Y-166390057D01*
X207690476Y-166294819D02*
X208309523Y-166294819D01*
X208309523Y-166294819D02*
X207976190Y-166675771D01*
X207976190Y-166675771D02*
X208119047Y-166675771D01*
X208119047Y-166675771D02*
X208214285Y-166723390D01*
X208214285Y-166723390D02*
X208261904Y-166771009D01*
X208261904Y-166771009D02*
X208309523Y-166866247D01*
X208309523Y-166866247D02*
X208309523Y-167104342D01*
X208309523Y-167104342D02*
X208261904Y-167199580D01*
X208261904Y-167199580D02*
X208214285Y-167247200D01*
X208214285Y-167247200D02*
X208119047Y-167294819D01*
X208119047Y-167294819D02*
X207833333Y-167294819D01*
X207833333Y-167294819D02*
X207738095Y-167247200D01*
X207738095Y-167247200D02*
X207690476Y-167199580D01*
X209214285Y-166294819D02*
X208738095Y-166294819D01*
X208738095Y-166294819D02*
X208690476Y-166771009D01*
X208690476Y-166771009D02*
X208738095Y-166723390D01*
X208738095Y-166723390D02*
X208833333Y-166675771D01*
X208833333Y-166675771D02*
X209071428Y-166675771D01*
X209071428Y-166675771D02*
X209166666Y-166723390D01*
X209166666Y-166723390D02*
X209214285Y-166771009D01*
X209214285Y-166771009D02*
X209261904Y-166866247D01*
X209261904Y-166866247D02*
X209261904Y-167104342D01*
X209261904Y-167104342D02*
X209214285Y-167199580D01*
X209214285Y-167199580D02*
X209166666Y-167247200D01*
X209166666Y-167247200D02*
X209071428Y-167294819D01*
X209071428Y-167294819D02*
X208833333Y-167294819D01*
X208833333Y-167294819D02*
X208738095Y-167247200D01*
X208738095Y-167247200D02*
X208690476Y-167199580D01*
X253166666Y-181199580D02*
X253119047Y-181247200D01*
X253119047Y-181247200D02*
X252976190Y-181294819D01*
X252976190Y-181294819D02*
X252880952Y-181294819D01*
X252880952Y-181294819D02*
X252738095Y-181247200D01*
X252738095Y-181247200D02*
X252642857Y-181151961D01*
X252642857Y-181151961D02*
X252595238Y-181056723D01*
X252595238Y-181056723D02*
X252547619Y-180866247D01*
X252547619Y-180866247D02*
X252547619Y-180723390D01*
X252547619Y-180723390D02*
X252595238Y-180532914D01*
X252595238Y-180532914D02*
X252642857Y-180437676D01*
X252642857Y-180437676D02*
X252738095Y-180342438D01*
X252738095Y-180342438D02*
X252880952Y-180294819D01*
X252880952Y-180294819D02*
X252976190Y-180294819D01*
X252976190Y-180294819D02*
X253119047Y-180342438D01*
X253119047Y-180342438D02*
X253166666Y-180390057D01*
X254071428Y-180294819D02*
X253595238Y-180294819D01*
X253595238Y-180294819D02*
X253547619Y-180771009D01*
X253547619Y-180771009D02*
X253595238Y-180723390D01*
X253595238Y-180723390D02*
X253690476Y-180675771D01*
X253690476Y-180675771D02*
X253928571Y-180675771D01*
X253928571Y-180675771D02*
X254023809Y-180723390D01*
X254023809Y-180723390D02*
X254071428Y-180771009D01*
X254071428Y-180771009D02*
X254119047Y-180866247D01*
X254119047Y-180866247D02*
X254119047Y-181104342D01*
X254119047Y-181104342D02*
X254071428Y-181199580D01*
X254071428Y-181199580D02*
X254023809Y-181247200D01*
X254023809Y-181247200D02*
X253928571Y-181294819D01*
X253928571Y-181294819D02*
X253690476Y-181294819D01*
X253690476Y-181294819D02*
X253595238Y-181247200D01*
X253595238Y-181247200D02*
X253547619Y-181199580D01*
X254309524Y-181390057D02*
X255071428Y-181390057D01*
X255166667Y-180628152D02*
X255547619Y-180628152D01*
X255309524Y-181294819D02*
X255309524Y-180437676D01*
X255309524Y-180437676D02*
X255357143Y-180342438D01*
X255357143Y-180342438D02*
X255452381Y-180294819D01*
X255452381Y-180294819D02*
X255547619Y-180294819D01*
X129380952Y-198679580D02*
X129333333Y-198727200D01*
X129333333Y-198727200D02*
X129190476Y-198774819D01*
X129190476Y-198774819D02*
X129095238Y-198774819D01*
X129095238Y-198774819D02*
X128952381Y-198727200D01*
X128952381Y-198727200D02*
X128857143Y-198631961D01*
X128857143Y-198631961D02*
X128809524Y-198536723D01*
X128809524Y-198536723D02*
X128761905Y-198346247D01*
X128761905Y-198346247D02*
X128761905Y-198203390D01*
X128761905Y-198203390D02*
X128809524Y-198012914D01*
X128809524Y-198012914D02*
X128857143Y-197917676D01*
X128857143Y-197917676D02*
X128952381Y-197822438D01*
X128952381Y-197822438D02*
X129095238Y-197774819D01*
X129095238Y-197774819D02*
X129190476Y-197774819D01*
X129190476Y-197774819D02*
X129333333Y-197822438D01*
X129333333Y-197822438D02*
X129380952Y-197870057D01*
X130333333Y-198774819D02*
X129761905Y-198774819D01*
X130047619Y-198774819D02*
X130047619Y-197774819D01*
X130047619Y-197774819D02*
X129952381Y-197917676D01*
X129952381Y-197917676D02*
X129857143Y-198012914D01*
X129857143Y-198012914D02*
X129761905Y-198060533D01*
X130761905Y-198774819D02*
X130761905Y-197774819D01*
X130761905Y-198155771D02*
X130857143Y-198108152D01*
X130857143Y-198108152D02*
X131047619Y-198108152D01*
X131047619Y-198108152D02*
X131142857Y-198155771D01*
X131142857Y-198155771D02*
X131190476Y-198203390D01*
X131190476Y-198203390D02*
X131238095Y-198298628D01*
X131238095Y-198298628D02*
X131238095Y-198584342D01*
X131238095Y-198584342D02*
X131190476Y-198679580D01*
X131190476Y-198679580D02*
X131142857Y-198727200D01*
X131142857Y-198727200D02*
X131047619Y-198774819D01*
X131047619Y-198774819D02*
X130857143Y-198774819D01*
X130857143Y-198774819D02*
X130761905Y-198727200D01*
X191357142Y-167199580D02*
X191309523Y-167247200D01*
X191309523Y-167247200D02*
X191166666Y-167294819D01*
X191166666Y-167294819D02*
X191071428Y-167294819D01*
X191071428Y-167294819D02*
X190928571Y-167247200D01*
X190928571Y-167247200D02*
X190833333Y-167151961D01*
X190833333Y-167151961D02*
X190785714Y-167056723D01*
X190785714Y-167056723D02*
X190738095Y-166866247D01*
X190738095Y-166866247D02*
X190738095Y-166723390D01*
X190738095Y-166723390D02*
X190785714Y-166532914D01*
X190785714Y-166532914D02*
X190833333Y-166437676D01*
X190833333Y-166437676D02*
X190928571Y-166342438D01*
X190928571Y-166342438D02*
X191071428Y-166294819D01*
X191071428Y-166294819D02*
X191166666Y-166294819D01*
X191166666Y-166294819D02*
X191309523Y-166342438D01*
X191309523Y-166342438D02*
X191357142Y-166390057D01*
X191690476Y-166294819D02*
X192309523Y-166294819D01*
X192309523Y-166294819D02*
X191976190Y-166675771D01*
X191976190Y-166675771D02*
X192119047Y-166675771D01*
X192119047Y-166675771D02*
X192214285Y-166723390D01*
X192214285Y-166723390D02*
X192261904Y-166771009D01*
X192261904Y-166771009D02*
X192309523Y-166866247D01*
X192309523Y-166866247D02*
X192309523Y-167104342D01*
X192309523Y-167104342D02*
X192261904Y-167199580D01*
X192261904Y-167199580D02*
X192214285Y-167247200D01*
X192214285Y-167247200D02*
X192119047Y-167294819D01*
X192119047Y-167294819D02*
X191833333Y-167294819D01*
X191833333Y-167294819D02*
X191738095Y-167247200D01*
X191738095Y-167247200D02*
X191690476Y-167199580D01*
X192928571Y-166294819D02*
X193023809Y-166294819D01*
X193023809Y-166294819D02*
X193119047Y-166342438D01*
X193119047Y-166342438D02*
X193166666Y-166390057D01*
X193166666Y-166390057D02*
X193214285Y-166485295D01*
X193214285Y-166485295D02*
X193261904Y-166675771D01*
X193261904Y-166675771D02*
X193261904Y-166913866D01*
X193261904Y-166913866D02*
X193214285Y-167104342D01*
X193214285Y-167104342D02*
X193166666Y-167199580D01*
X193166666Y-167199580D02*
X193119047Y-167247200D01*
X193119047Y-167247200D02*
X193023809Y-167294819D01*
X193023809Y-167294819D02*
X192928571Y-167294819D01*
X192928571Y-167294819D02*
X192833333Y-167247200D01*
X192833333Y-167247200D02*
X192785714Y-167199580D01*
X192785714Y-167199580D02*
X192738095Y-167104342D01*
X192738095Y-167104342D02*
X192690476Y-166913866D01*
X192690476Y-166913866D02*
X192690476Y-166675771D01*
X192690476Y-166675771D02*
X192738095Y-166485295D01*
X192738095Y-166485295D02*
X192785714Y-166390057D01*
X192785714Y-166390057D02*
X192833333Y-166342438D01*
X192833333Y-166342438D02*
X192928571Y-166294819D01*
X227499999Y-143199580D02*
X227452380Y-143247200D01*
X227452380Y-143247200D02*
X227309523Y-143294819D01*
X227309523Y-143294819D02*
X227214285Y-143294819D01*
X227214285Y-143294819D02*
X227071428Y-143247200D01*
X227071428Y-143247200D02*
X226976190Y-143151961D01*
X226976190Y-143151961D02*
X226928571Y-143056723D01*
X226928571Y-143056723D02*
X226880952Y-142866247D01*
X226880952Y-142866247D02*
X226880952Y-142723390D01*
X226880952Y-142723390D02*
X226928571Y-142532914D01*
X226928571Y-142532914D02*
X226976190Y-142437676D01*
X226976190Y-142437676D02*
X227071428Y-142342438D01*
X227071428Y-142342438D02*
X227214285Y-142294819D01*
X227214285Y-142294819D02*
X227309523Y-142294819D01*
X227309523Y-142294819D02*
X227452380Y-142342438D01*
X227452380Y-142342438D02*
X227499999Y-142390057D01*
X228404761Y-142294819D02*
X227928571Y-142294819D01*
X227928571Y-142294819D02*
X227880952Y-142771009D01*
X227880952Y-142771009D02*
X227928571Y-142723390D01*
X227928571Y-142723390D02*
X228023809Y-142675771D01*
X228023809Y-142675771D02*
X228261904Y-142675771D01*
X228261904Y-142675771D02*
X228357142Y-142723390D01*
X228357142Y-142723390D02*
X228404761Y-142771009D01*
X228404761Y-142771009D02*
X228452380Y-142866247D01*
X228452380Y-142866247D02*
X228452380Y-143104342D01*
X228452380Y-143104342D02*
X228404761Y-143199580D01*
X228404761Y-143199580D02*
X228357142Y-143247200D01*
X228357142Y-143247200D02*
X228261904Y-143294819D01*
X228261904Y-143294819D02*
X228023809Y-143294819D01*
X228023809Y-143294819D02*
X227928571Y-143247200D01*
X227928571Y-143247200D02*
X227880952Y-143199580D01*
X229071428Y-142294819D02*
X229166666Y-142294819D01*
X229166666Y-142294819D02*
X229261904Y-142342438D01*
X229261904Y-142342438D02*
X229309523Y-142390057D01*
X229309523Y-142390057D02*
X229357142Y-142485295D01*
X229357142Y-142485295D02*
X229404761Y-142675771D01*
X229404761Y-142675771D02*
X229404761Y-142913866D01*
X229404761Y-142913866D02*
X229357142Y-143104342D01*
X229357142Y-143104342D02*
X229309523Y-143199580D01*
X229309523Y-143199580D02*
X229261904Y-143247200D01*
X229261904Y-143247200D02*
X229166666Y-143294819D01*
X229166666Y-143294819D02*
X229071428Y-143294819D01*
X229071428Y-143294819D02*
X228976190Y-143247200D01*
X228976190Y-143247200D02*
X228928571Y-143199580D01*
X228928571Y-143199580D02*
X228880952Y-143104342D01*
X228880952Y-143104342D02*
X228833333Y-142913866D01*
X228833333Y-142913866D02*
X228833333Y-142675771D01*
X228833333Y-142675771D02*
X228880952Y-142485295D01*
X228880952Y-142485295D02*
X228928571Y-142390057D01*
X228928571Y-142390057D02*
X228976190Y-142342438D01*
X228976190Y-142342438D02*
X229071428Y-142294819D01*
X229595238Y-143390057D02*
X230357142Y-143390057D01*
X231119047Y-143294819D02*
X230547619Y-143294819D01*
X230833333Y-143294819D02*
X230833333Y-142294819D01*
X230833333Y-142294819D02*
X230738095Y-142437676D01*
X230738095Y-142437676D02*
X230642857Y-142532914D01*
X230642857Y-142532914D02*
X230547619Y-142580533D01*
X144380952Y-198929580D02*
X144333333Y-198977200D01*
X144333333Y-198977200D02*
X144190476Y-199024819D01*
X144190476Y-199024819D02*
X144095238Y-199024819D01*
X144095238Y-199024819D02*
X143952381Y-198977200D01*
X143952381Y-198977200D02*
X143857143Y-198881961D01*
X143857143Y-198881961D02*
X143809524Y-198786723D01*
X143809524Y-198786723D02*
X143761905Y-198596247D01*
X143761905Y-198596247D02*
X143761905Y-198453390D01*
X143761905Y-198453390D02*
X143809524Y-198262914D01*
X143809524Y-198262914D02*
X143857143Y-198167676D01*
X143857143Y-198167676D02*
X143952381Y-198072438D01*
X143952381Y-198072438D02*
X144095238Y-198024819D01*
X144095238Y-198024819D02*
X144190476Y-198024819D01*
X144190476Y-198024819D02*
X144333333Y-198072438D01*
X144333333Y-198072438D02*
X144380952Y-198120057D01*
X144761905Y-198120057D02*
X144809524Y-198072438D01*
X144809524Y-198072438D02*
X144904762Y-198024819D01*
X144904762Y-198024819D02*
X145142857Y-198024819D01*
X145142857Y-198024819D02*
X145238095Y-198072438D01*
X145238095Y-198072438D02*
X145285714Y-198120057D01*
X145285714Y-198120057D02*
X145333333Y-198215295D01*
X145333333Y-198215295D02*
X145333333Y-198310533D01*
X145333333Y-198310533D02*
X145285714Y-198453390D01*
X145285714Y-198453390D02*
X144714286Y-199024819D01*
X144714286Y-199024819D02*
X145333333Y-199024819D01*
X145761905Y-199024819D02*
X145761905Y-198024819D01*
X145761905Y-198405771D02*
X145857143Y-198358152D01*
X145857143Y-198358152D02*
X146047619Y-198358152D01*
X146047619Y-198358152D02*
X146142857Y-198405771D01*
X146142857Y-198405771D02*
X146190476Y-198453390D01*
X146190476Y-198453390D02*
X146238095Y-198548628D01*
X146238095Y-198548628D02*
X146238095Y-198834342D01*
X146238095Y-198834342D02*
X146190476Y-198929580D01*
X146190476Y-198929580D02*
X146142857Y-198977200D01*
X146142857Y-198977200D02*
X146047619Y-199024819D01*
X146047619Y-199024819D02*
X145857143Y-199024819D01*
X145857143Y-199024819D02*
X145761905Y-198977200D01*
X246999999Y-181199580D02*
X246952380Y-181247200D01*
X246952380Y-181247200D02*
X246809523Y-181294819D01*
X246809523Y-181294819D02*
X246714285Y-181294819D01*
X246714285Y-181294819D02*
X246571428Y-181247200D01*
X246571428Y-181247200D02*
X246476190Y-181151961D01*
X246476190Y-181151961D02*
X246428571Y-181056723D01*
X246428571Y-181056723D02*
X246380952Y-180866247D01*
X246380952Y-180866247D02*
X246380952Y-180723390D01*
X246380952Y-180723390D02*
X246428571Y-180532914D01*
X246428571Y-180532914D02*
X246476190Y-180437676D01*
X246476190Y-180437676D02*
X246571428Y-180342438D01*
X246571428Y-180342438D02*
X246714285Y-180294819D01*
X246714285Y-180294819D02*
X246809523Y-180294819D01*
X246809523Y-180294819D02*
X246952380Y-180342438D01*
X246952380Y-180342438D02*
X246999999Y-180390057D01*
X247904761Y-180294819D02*
X247428571Y-180294819D01*
X247428571Y-180294819D02*
X247380952Y-180771009D01*
X247380952Y-180771009D02*
X247428571Y-180723390D01*
X247428571Y-180723390D02*
X247523809Y-180675771D01*
X247523809Y-180675771D02*
X247761904Y-180675771D01*
X247761904Y-180675771D02*
X247857142Y-180723390D01*
X247857142Y-180723390D02*
X247904761Y-180771009D01*
X247904761Y-180771009D02*
X247952380Y-180866247D01*
X247952380Y-180866247D02*
X247952380Y-181104342D01*
X247952380Y-181104342D02*
X247904761Y-181199580D01*
X247904761Y-181199580D02*
X247857142Y-181247200D01*
X247857142Y-181247200D02*
X247761904Y-181294819D01*
X247761904Y-181294819D02*
X247523809Y-181294819D01*
X247523809Y-181294819D02*
X247428571Y-181247200D01*
X247428571Y-181247200D02*
X247380952Y-181199580D01*
X248142857Y-181390057D02*
X248904761Y-181390057D01*
X249571428Y-181294819D02*
X249571428Y-180294819D01*
X249571428Y-181247200D02*
X249476190Y-181294819D01*
X249476190Y-181294819D02*
X249285714Y-181294819D01*
X249285714Y-181294819D02*
X249190476Y-181247200D01*
X249190476Y-181247200D02*
X249142857Y-181199580D01*
X249142857Y-181199580D02*
X249095238Y-181104342D01*
X249095238Y-181104342D02*
X249095238Y-180818628D01*
X249095238Y-180818628D02*
X249142857Y-180723390D01*
X249142857Y-180723390D02*
X249190476Y-180675771D01*
X249190476Y-180675771D02*
X249285714Y-180628152D01*
X249285714Y-180628152D02*
X249476190Y-180628152D01*
X249476190Y-180628152D02*
X249571428Y-180675771D01*
X153738095Y-217006819D02*
X154309523Y-217006819D01*
X154023809Y-218006819D02*
X154023809Y-217006819D01*
X154642857Y-218006819D02*
X154642857Y-217006819D01*
X154642857Y-217006819D02*
X155023809Y-217006819D01*
X155023809Y-217006819D02*
X155119047Y-217054438D01*
X155119047Y-217054438D02*
X155166666Y-217102057D01*
X155166666Y-217102057D02*
X155214285Y-217197295D01*
X155214285Y-217197295D02*
X155214285Y-217340152D01*
X155214285Y-217340152D02*
X155166666Y-217435390D01*
X155166666Y-217435390D02*
X155119047Y-217483009D01*
X155119047Y-217483009D02*
X155023809Y-217530628D01*
X155023809Y-217530628D02*
X154642857Y-217530628D01*
X156119047Y-217006819D02*
X155642857Y-217006819D01*
X155642857Y-217006819D02*
X155595238Y-217483009D01*
X155595238Y-217483009D02*
X155642857Y-217435390D01*
X155642857Y-217435390D02*
X155738095Y-217387771D01*
X155738095Y-217387771D02*
X155976190Y-217387771D01*
X155976190Y-217387771D02*
X156071428Y-217435390D01*
X156071428Y-217435390D02*
X156119047Y-217483009D01*
X156119047Y-217483009D02*
X156166666Y-217578247D01*
X156166666Y-217578247D02*
X156166666Y-217816342D01*
X156166666Y-217816342D02*
X156119047Y-217911580D01*
X156119047Y-217911580D02*
X156071428Y-217959200D01*
X156071428Y-217959200D02*
X155976190Y-218006819D01*
X155976190Y-218006819D02*
X155738095Y-218006819D01*
X155738095Y-218006819D02*
X155642857Y-217959200D01*
X155642857Y-217959200D02*
X155595238Y-217911580D01*
X217141905Y-165554819D02*
X217141905Y-166364342D01*
X217141905Y-166364342D02*
X217189524Y-166459580D01*
X217189524Y-166459580D02*
X217237143Y-166507200D01*
X217237143Y-166507200D02*
X217332381Y-166554819D01*
X217332381Y-166554819D02*
X217522857Y-166554819D01*
X217522857Y-166554819D02*
X217618095Y-166507200D01*
X217618095Y-166507200D02*
X217665714Y-166459580D01*
X217665714Y-166459580D02*
X217713333Y-166364342D01*
X217713333Y-166364342D02*
X217713333Y-165554819D01*
X218141905Y-165650057D02*
X218189524Y-165602438D01*
X218189524Y-165602438D02*
X218284762Y-165554819D01*
X218284762Y-165554819D02*
X218522857Y-165554819D01*
X218522857Y-165554819D02*
X218618095Y-165602438D01*
X218618095Y-165602438D02*
X218665714Y-165650057D01*
X218665714Y-165650057D02*
X218713333Y-165745295D01*
X218713333Y-165745295D02*
X218713333Y-165840533D01*
X218713333Y-165840533D02*
X218665714Y-165983390D01*
X218665714Y-165983390D02*
X218094286Y-166554819D01*
X218094286Y-166554819D02*
X218713333Y-166554819D01*
X219046667Y-165554819D02*
X219665714Y-165554819D01*
X219665714Y-165554819D02*
X219332381Y-165935771D01*
X219332381Y-165935771D02*
X219475238Y-165935771D01*
X219475238Y-165935771D02*
X219570476Y-165983390D01*
X219570476Y-165983390D02*
X219618095Y-166031009D01*
X219618095Y-166031009D02*
X219665714Y-166126247D01*
X219665714Y-166126247D02*
X219665714Y-166364342D01*
X219665714Y-166364342D02*
X219618095Y-166459580D01*
X219618095Y-166459580D02*
X219570476Y-166507200D01*
X219570476Y-166507200D02*
X219475238Y-166554819D01*
X219475238Y-166554819D02*
X219189524Y-166554819D01*
X219189524Y-166554819D02*
X219094286Y-166507200D01*
X219094286Y-166507200D02*
X219046667Y-166459580D01*
X233499999Y-143199580D02*
X233452380Y-143247200D01*
X233452380Y-143247200D02*
X233309523Y-143294819D01*
X233309523Y-143294819D02*
X233214285Y-143294819D01*
X233214285Y-143294819D02*
X233071428Y-143247200D01*
X233071428Y-143247200D02*
X232976190Y-143151961D01*
X232976190Y-143151961D02*
X232928571Y-143056723D01*
X232928571Y-143056723D02*
X232880952Y-142866247D01*
X232880952Y-142866247D02*
X232880952Y-142723390D01*
X232880952Y-142723390D02*
X232928571Y-142532914D01*
X232928571Y-142532914D02*
X232976190Y-142437676D01*
X232976190Y-142437676D02*
X233071428Y-142342438D01*
X233071428Y-142342438D02*
X233214285Y-142294819D01*
X233214285Y-142294819D02*
X233309523Y-142294819D01*
X233309523Y-142294819D02*
X233452380Y-142342438D01*
X233452380Y-142342438D02*
X233499999Y-142390057D01*
X234404761Y-142294819D02*
X233928571Y-142294819D01*
X233928571Y-142294819D02*
X233880952Y-142771009D01*
X233880952Y-142771009D02*
X233928571Y-142723390D01*
X233928571Y-142723390D02*
X234023809Y-142675771D01*
X234023809Y-142675771D02*
X234261904Y-142675771D01*
X234261904Y-142675771D02*
X234357142Y-142723390D01*
X234357142Y-142723390D02*
X234404761Y-142771009D01*
X234404761Y-142771009D02*
X234452380Y-142866247D01*
X234452380Y-142866247D02*
X234452380Y-143104342D01*
X234452380Y-143104342D02*
X234404761Y-143199580D01*
X234404761Y-143199580D02*
X234357142Y-143247200D01*
X234357142Y-143247200D02*
X234261904Y-143294819D01*
X234261904Y-143294819D02*
X234023809Y-143294819D01*
X234023809Y-143294819D02*
X233928571Y-143247200D01*
X233928571Y-143247200D02*
X233880952Y-143199580D01*
X235071428Y-142294819D02*
X235166666Y-142294819D01*
X235166666Y-142294819D02*
X235261904Y-142342438D01*
X235261904Y-142342438D02*
X235309523Y-142390057D01*
X235309523Y-142390057D02*
X235357142Y-142485295D01*
X235357142Y-142485295D02*
X235404761Y-142675771D01*
X235404761Y-142675771D02*
X235404761Y-142913866D01*
X235404761Y-142913866D02*
X235357142Y-143104342D01*
X235357142Y-143104342D02*
X235309523Y-143199580D01*
X235309523Y-143199580D02*
X235261904Y-143247200D01*
X235261904Y-143247200D02*
X235166666Y-143294819D01*
X235166666Y-143294819D02*
X235071428Y-143294819D01*
X235071428Y-143294819D02*
X234976190Y-143247200D01*
X234976190Y-143247200D02*
X234928571Y-143199580D01*
X234928571Y-143199580D02*
X234880952Y-143104342D01*
X234880952Y-143104342D02*
X234833333Y-142913866D01*
X234833333Y-142913866D02*
X234833333Y-142675771D01*
X234833333Y-142675771D02*
X234880952Y-142485295D01*
X234880952Y-142485295D02*
X234928571Y-142390057D01*
X234928571Y-142390057D02*
X234976190Y-142342438D01*
X234976190Y-142342438D02*
X235071428Y-142294819D01*
X235595238Y-143390057D02*
X236357142Y-143390057D01*
X236500000Y-142294819D02*
X237119047Y-142294819D01*
X237119047Y-142294819D02*
X236785714Y-142675771D01*
X236785714Y-142675771D02*
X236928571Y-142675771D01*
X236928571Y-142675771D02*
X237023809Y-142723390D01*
X237023809Y-142723390D02*
X237071428Y-142771009D01*
X237071428Y-142771009D02*
X237119047Y-142866247D01*
X237119047Y-142866247D02*
X237119047Y-143104342D01*
X237119047Y-143104342D02*
X237071428Y-143199580D01*
X237071428Y-143199580D02*
X237023809Y-143247200D01*
X237023809Y-143247200D02*
X236928571Y-143294819D01*
X236928571Y-143294819D02*
X236642857Y-143294819D01*
X236642857Y-143294819D02*
X236547619Y-143247200D01*
X236547619Y-143247200D02*
X236500000Y-143199580D01*
X141380952Y-198929580D02*
X141333333Y-198977200D01*
X141333333Y-198977200D02*
X141190476Y-199024819D01*
X141190476Y-199024819D02*
X141095238Y-199024819D01*
X141095238Y-199024819D02*
X140952381Y-198977200D01*
X140952381Y-198977200D02*
X140857143Y-198881961D01*
X140857143Y-198881961D02*
X140809524Y-198786723D01*
X140809524Y-198786723D02*
X140761905Y-198596247D01*
X140761905Y-198596247D02*
X140761905Y-198453390D01*
X140761905Y-198453390D02*
X140809524Y-198262914D01*
X140809524Y-198262914D02*
X140857143Y-198167676D01*
X140857143Y-198167676D02*
X140952381Y-198072438D01*
X140952381Y-198072438D02*
X141095238Y-198024819D01*
X141095238Y-198024819D02*
X141190476Y-198024819D01*
X141190476Y-198024819D02*
X141333333Y-198072438D01*
X141333333Y-198072438D02*
X141380952Y-198120057D01*
X141761905Y-198120057D02*
X141809524Y-198072438D01*
X141809524Y-198072438D02*
X141904762Y-198024819D01*
X141904762Y-198024819D02*
X142142857Y-198024819D01*
X142142857Y-198024819D02*
X142238095Y-198072438D01*
X142238095Y-198072438D02*
X142285714Y-198120057D01*
X142285714Y-198120057D02*
X142333333Y-198215295D01*
X142333333Y-198215295D02*
X142333333Y-198310533D01*
X142333333Y-198310533D02*
X142285714Y-198453390D01*
X142285714Y-198453390D02*
X141714286Y-199024819D01*
X141714286Y-199024819D02*
X142333333Y-199024819D01*
X143190476Y-199024819D02*
X143190476Y-198501009D01*
X143190476Y-198501009D02*
X143142857Y-198405771D01*
X143142857Y-198405771D02*
X143047619Y-198358152D01*
X143047619Y-198358152D02*
X142857143Y-198358152D01*
X142857143Y-198358152D02*
X142761905Y-198405771D01*
X143190476Y-198977200D02*
X143095238Y-199024819D01*
X143095238Y-199024819D02*
X142857143Y-199024819D01*
X142857143Y-199024819D02*
X142761905Y-198977200D01*
X142761905Y-198977200D02*
X142714286Y-198881961D01*
X142714286Y-198881961D02*
X142714286Y-198786723D01*
X142714286Y-198786723D02*
X142761905Y-198691485D01*
X142761905Y-198691485D02*
X142857143Y-198643866D01*
X142857143Y-198643866D02*
X143095238Y-198643866D01*
X143095238Y-198643866D02*
X143190476Y-198596247D01*
X113738095Y-217006819D02*
X114309523Y-217006819D01*
X114023809Y-218006819D02*
X114023809Y-217006819D01*
X114642857Y-218006819D02*
X114642857Y-217006819D01*
X114642857Y-217006819D02*
X115023809Y-217006819D01*
X115023809Y-217006819D02*
X115119047Y-217054438D01*
X115119047Y-217054438D02*
X115166666Y-217102057D01*
X115166666Y-217102057D02*
X115214285Y-217197295D01*
X115214285Y-217197295D02*
X115214285Y-217340152D01*
X115214285Y-217340152D02*
X115166666Y-217435390D01*
X115166666Y-217435390D02*
X115119047Y-217483009D01*
X115119047Y-217483009D02*
X115023809Y-217530628D01*
X115023809Y-217530628D02*
X114642857Y-217530628D01*
X116166666Y-218006819D02*
X115595238Y-218006819D01*
X115880952Y-218006819D02*
X115880952Y-217006819D01*
X115880952Y-217006819D02*
X115785714Y-217149676D01*
X115785714Y-217149676D02*
X115690476Y-217244914D01*
X115690476Y-217244914D02*
X115595238Y-217292533D01*
X194357142Y-111199580D02*
X194309523Y-111247200D01*
X194309523Y-111247200D02*
X194166666Y-111294819D01*
X194166666Y-111294819D02*
X194071428Y-111294819D01*
X194071428Y-111294819D02*
X193928571Y-111247200D01*
X193928571Y-111247200D02*
X193833333Y-111151961D01*
X193833333Y-111151961D02*
X193785714Y-111056723D01*
X193785714Y-111056723D02*
X193738095Y-110866247D01*
X193738095Y-110866247D02*
X193738095Y-110723390D01*
X193738095Y-110723390D02*
X193785714Y-110532914D01*
X193785714Y-110532914D02*
X193833333Y-110437676D01*
X193833333Y-110437676D02*
X193928571Y-110342438D01*
X193928571Y-110342438D02*
X194071428Y-110294819D01*
X194071428Y-110294819D02*
X194166666Y-110294819D01*
X194166666Y-110294819D02*
X194309523Y-110342438D01*
X194309523Y-110342438D02*
X194357142Y-110390057D01*
X194690476Y-110294819D02*
X195309523Y-110294819D01*
X195309523Y-110294819D02*
X194976190Y-110675771D01*
X194976190Y-110675771D02*
X195119047Y-110675771D01*
X195119047Y-110675771D02*
X195214285Y-110723390D01*
X195214285Y-110723390D02*
X195261904Y-110771009D01*
X195261904Y-110771009D02*
X195309523Y-110866247D01*
X195309523Y-110866247D02*
X195309523Y-111104342D01*
X195309523Y-111104342D02*
X195261904Y-111199580D01*
X195261904Y-111199580D02*
X195214285Y-111247200D01*
X195214285Y-111247200D02*
X195119047Y-111294819D01*
X195119047Y-111294819D02*
X194833333Y-111294819D01*
X194833333Y-111294819D02*
X194738095Y-111247200D01*
X194738095Y-111247200D02*
X194690476Y-111199580D01*
X195785714Y-111294819D02*
X195976190Y-111294819D01*
X195976190Y-111294819D02*
X196071428Y-111247200D01*
X196071428Y-111247200D02*
X196119047Y-111199580D01*
X196119047Y-111199580D02*
X196214285Y-111056723D01*
X196214285Y-111056723D02*
X196261904Y-110866247D01*
X196261904Y-110866247D02*
X196261904Y-110485295D01*
X196261904Y-110485295D02*
X196214285Y-110390057D01*
X196214285Y-110390057D02*
X196166666Y-110342438D01*
X196166666Y-110342438D02*
X196071428Y-110294819D01*
X196071428Y-110294819D02*
X195880952Y-110294819D01*
X195880952Y-110294819D02*
X195785714Y-110342438D01*
X195785714Y-110342438D02*
X195738095Y-110390057D01*
X195738095Y-110390057D02*
X195690476Y-110485295D01*
X195690476Y-110485295D02*
X195690476Y-110723390D01*
X195690476Y-110723390D02*
X195738095Y-110818628D01*
X195738095Y-110818628D02*
X195785714Y-110866247D01*
X195785714Y-110866247D02*
X195880952Y-110913866D01*
X195880952Y-110913866D02*
X196071428Y-110913866D01*
X196071428Y-110913866D02*
X196166666Y-110866247D01*
X196166666Y-110866247D02*
X196214285Y-110818628D01*
X196214285Y-110818628D02*
X196261904Y-110723390D01*
X164238095Y-128954819D02*
X164238095Y-129764342D01*
X164238095Y-129764342D02*
X164285714Y-129859580D01*
X164285714Y-129859580D02*
X164333333Y-129907200D01*
X164333333Y-129907200D02*
X164428571Y-129954819D01*
X164428571Y-129954819D02*
X164619047Y-129954819D01*
X164619047Y-129954819D02*
X164714285Y-129907200D01*
X164714285Y-129907200D02*
X164761904Y-129859580D01*
X164761904Y-129859580D02*
X164809523Y-129764342D01*
X164809523Y-129764342D02*
X164809523Y-128954819D01*
X165809523Y-129954819D02*
X165238095Y-129954819D01*
X165523809Y-129954819D02*
X165523809Y-128954819D01*
X165523809Y-128954819D02*
X165428571Y-129097676D01*
X165428571Y-129097676D02*
X165333333Y-129192914D01*
X165333333Y-129192914D02*
X165238095Y-129240533D01*
X234238095Y-128954819D02*
X234238095Y-129764342D01*
X234238095Y-129764342D02*
X234285714Y-129859580D01*
X234285714Y-129859580D02*
X234333333Y-129907200D01*
X234333333Y-129907200D02*
X234428571Y-129954819D01*
X234428571Y-129954819D02*
X234619047Y-129954819D01*
X234619047Y-129954819D02*
X234714285Y-129907200D01*
X234714285Y-129907200D02*
X234761904Y-129859580D01*
X234761904Y-129859580D02*
X234809523Y-129764342D01*
X234809523Y-129764342D02*
X234809523Y-128954819D01*
X235714285Y-129288152D02*
X235714285Y-129954819D01*
X235476190Y-128907200D02*
X235238095Y-129621485D01*
X235238095Y-129621485D02*
X235857142Y-129621485D01*
X252880952Y-167199580D02*
X252833333Y-167247200D01*
X252833333Y-167247200D02*
X252690476Y-167294819D01*
X252690476Y-167294819D02*
X252595238Y-167294819D01*
X252595238Y-167294819D02*
X252452381Y-167247200D01*
X252452381Y-167247200D02*
X252357143Y-167151961D01*
X252357143Y-167151961D02*
X252309524Y-167056723D01*
X252309524Y-167056723D02*
X252261905Y-166866247D01*
X252261905Y-166866247D02*
X252261905Y-166723390D01*
X252261905Y-166723390D02*
X252309524Y-166532914D01*
X252309524Y-166532914D02*
X252357143Y-166437676D01*
X252357143Y-166437676D02*
X252452381Y-166342438D01*
X252452381Y-166342438D02*
X252595238Y-166294819D01*
X252595238Y-166294819D02*
X252690476Y-166294819D01*
X252690476Y-166294819D02*
X252833333Y-166342438D01*
X252833333Y-166342438D02*
X252880952Y-166390057D01*
X253738095Y-166628152D02*
X253738095Y-167294819D01*
X253500000Y-166247200D02*
X253261905Y-166961485D01*
X253261905Y-166961485D02*
X253880952Y-166961485D01*
X254261905Y-167294819D02*
X254261905Y-166294819D01*
X254261905Y-166675771D02*
X254357143Y-166628152D01*
X254357143Y-166628152D02*
X254547619Y-166628152D01*
X254547619Y-166628152D02*
X254642857Y-166675771D01*
X254642857Y-166675771D02*
X254690476Y-166723390D01*
X254690476Y-166723390D02*
X254738095Y-166818628D01*
X254738095Y-166818628D02*
X254738095Y-167104342D01*
X254738095Y-167104342D02*
X254690476Y-167199580D01*
X254690476Y-167199580D02*
X254642857Y-167247200D01*
X254642857Y-167247200D02*
X254547619Y-167294819D01*
X254547619Y-167294819D02*
X254357143Y-167294819D01*
X254357143Y-167294819D02*
X254261905Y-167247200D01*
X285759819Y-154698333D02*
X286474104Y-154698333D01*
X286474104Y-154698333D02*
X286616961Y-154745952D01*
X286616961Y-154745952D02*
X286712200Y-154841190D01*
X286712200Y-154841190D02*
X286759819Y-154984047D01*
X286759819Y-154984047D02*
X286759819Y-155079285D01*
X285759819Y-153793571D02*
X285759819Y-153984047D01*
X285759819Y-153984047D02*
X285807438Y-154079285D01*
X285807438Y-154079285D02*
X285855057Y-154126904D01*
X285855057Y-154126904D02*
X285997914Y-154222142D01*
X285997914Y-154222142D02*
X286188390Y-154269761D01*
X286188390Y-154269761D02*
X286569342Y-154269761D01*
X286569342Y-154269761D02*
X286664580Y-154222142D01*
X286664580Y-154222142D02*
X286712200Y-154174523D01*
X286712200Y-154174523D02*
X286759819Y-154079285D01*
X286759819Y-154079285D02*
X286759819Y-153888809D01*
X286759819Y-153888809D02*
X286712200Y-153793571D01*
X286712200Y-153793571D02*
X286664580Y-153745952D01*
X286664580Y-153745952D02*
X286569342Y-153698333D01*
X286569342Y-153698333D02*
X286331247Y-153698333D01*
X286331247Y-153698333D02*
X286236009Y-153745952D01*
X286236009Y-153745952D02*
X286188390Y-153793571D01*
X286188390Y-153793571D02*
X286140771Y-153888809D01*
X286140771Y-153888809D02*
X286140771Y-154079285D01*
X286140771Y-154079285D02*
X286188390Y-154174523D01*
X286188390Y-154174523D02*
X286236009Y-154222142D01*
X286236009Y-154222142D02*
X286331247Y-154269761D01*
X173738095Y-217006819D02*
X174309523Y-217006819D01*
X174023809Y-218006819D02*
X174023809Y-217006819D01*
X174642857Y-218006819D02*
X174642857Y-217006819D01*
X174642857Y-217006819D02*
X175023809Y-217006819D01*
X175023809Y-217006819D02*
X175119047Y-217054438D01*
X175119047Y-217054438D02*
X175166666Y-217102057D01*
X175166666Y-217102057D02*
X175214285Y-217197295D01*
X175214285Y-217197295D02*
X175214285Y-217340152D01*
X175214285Y-217340152D02*
X175166666Y-217435390D01*
X175166666Y-217435390D02*
X175119047Y-217483009D01*
X175119047Y-217483009D02*
X175023809Y-217530628D01*
X175023809Y-217530628D02*
X174642857Y-217530628D01*
X175547619Y-217006819D02*
X176214285Y-217006819D01*
X176214285Y-217006819D02*
X175785714Y-218006819D01*
X133738095Y-217006819D02*
X134309523Y-217006819D01*
X134023809Y-218006819D02*
X134023809Y-217006819D01*
X134642857Y-218006819D02*
X134642857Y-217006819D01*
X134642857Y-217006819D02*
X135023809Y-217006819D01*
X135023809Y-217006819D02*
X135119047Y-217054438D01*
X135119047Y-217054438D02*
X135166666Y-217102057D01*
X135166666Y-217102057D02*
X135214285Y-217197295D01*
X135214285Y-217197295D02*
X135214285Y-217340152D01*
X135214285Y-217340152D02*
X135166666Y-217435390D01*
X135166666Y-217435390D02*
X135119047Y-217483009D01*
X135119047Y-217483009D02*
X135023809Y-217530628D01*
X135023809Y-217530628D02*
X134642857Y-217530628D01*
X135547619Y-217006819D02*
X136166666Y-217006819D01*
X136166666Y-217006819D02*
X135833333Y-217387771D01*
X135833333Y-217387771D02*
X135976190Y-217387771D01*
X135976190Y-217387771D02*
X136071428Y-217435390D01*
X136071428Y-217435390D02*
X136119047Y-217483009D01*
X136119047Y-217483009D02*
X136166666Y-217578247D01*
X136166666Y-217578247D02*
X136166666Y-217816342D01*
X136166666Y-217816342D02*
X136119047Y-217911580D01*
X136119047Y-217911580D02*
X136071428Y-217959200D01*
X136071428Y-217959200D02*
X135976190Y-218006819D01*
X135976190Y-218006819D02*
X135690476Y-218006819D01*
X135690476Y-218006819D02*
X135595238Y-217959200D01*
X135595238Y-217959200D02*
X135547619Y-217911580D01*
X118999999Y-184284819D02*
X118666666Y-183808628D01*
X118428571Y-184284819D02*
X118428571Y-183284819D01*
X118428571Y-183284819D02*
X118809523Y-183284819D01*
X118809523Y-183284819D02*
X118904761Y-183332438D01*
X118904761Y-183332438D02*
X118952380Y-183380057D01*
X118952380Y-183380057D02*
X118999999Y-183475295D01*
X118999999Y-183475295D02*
X118999999Y-183618152D01*
X118999999Y-183618152D02*
X118952380Y-183713390D01*
X118952380Y-183713390D02*
X118904761Y-183761009D01*
X118904761Y-183761009D02*
X118809523Y-183808628D01*
X118809523Y-183808628D02*
X118428571Y-183808628D01*
X119904761Y-183284819D02*
X119428571Y-183284819D01*
X119428571Y-183284819D02*
X119380952Y-183761009D01*
X119380952Y-183761009D02*
X119428571Y-183713390D01*
X119428571Y-183713390D02*
X119523809Y-183665771D01*
X119523809Y-183665771D02*
X119761904Y-183665771D01*
X119761904Y-183665771D02*
X119857142Y-183713390D01*
X119857142Y-183713390D02*
X119904761Y-183761009D01*
X119904761Y-183761009D02*
X119952380Y-183856247D01*
X119952380Y-183856247D02*
X119952380Y-184094342D01*
X119952380Y-184094342D02*
X119904761Y-184189580D01*
X119904761Y-184189580D02*
X119857142Y-184237200D01*
X119857142Y-184237200D02*
X119761904Y-184284819D01*
X119761904Y-184284819D02*
X119523809Y-184284819D01*
X119523809Y-184284819D02*
X119428571Y-184237200D01*
X119428571Y-184237200D02*
X119380952Y-184189580D01*
X120142857Y-184380057D02*
X120904761Y-184380057D01*
X121142857Y-184284819D02*
X121142857Y-183284819D01*
X121142857Y-183665771D02*
X121238095Y-183618152D01*
X121238095Y-183618152D02*
X121428571Y-183618152D01*
X121428571Y-183618152D02*
X121523809Y-183665771D01*
X121523809Y-183665771D02*
X121571428Y-183713390D01*
X121571428Y-183713390D02*
X121619047Y-183808628D01*
X121619047Y-183808628D02*
X121619047Y-184094342D01*
X121619047Y-184094342D02*
X121571428Y-184189580D01*
X121571428Y-184189580D02*
X121523809Y-184237200D01*
X121523809Y-184237200D02*
X121428571Y-184284819D01*
X121428571Y-184284819D02*
X121238095Y-184284819D01*
X121238095Y-184284819D02*
X121142857Y-184237200D01*
X285759819Y-134698333D02*
X286474104Y-134698333D01*
X286474104Y-134698333D02*
X286616961Y-134745952D01*
X286616961Y-134745952D02*
X286712200Y-134841190D01*
X286712200Y-134841190D02*
X286759819Y-134984047D01*
X286759819Y-134984047D02*
X286759819Y-135079285D01*
X285759819Y-133745952D02*
X285759819Y-134222142D01*
X285759819Y-134222142D02*
X286236009Y-134269761D01*
X286236009Y-134269761D02*
X286188390Y-134222142D01*
X286188390Y-134222142D02*
X286140771Y-134126904D01*
X286140771Y-134126904D02*
X286140771Y-133888809D01*
X286140771Y-133888809D02*
X286188390Y-133793571D01*
X286188390Y-133793571D02*
X286236009Y-133745952D01*
X286236009Y-133745952D02*
X286331247Y-133698333D01*
X286331247Y-133698333D02*
X286569342Y-133698333D01*
X286569342Y-133698333D02*
X286664580Y-133745952D01*
X286664580Y-133745952D02*
X286712200Y-133793571D01*
X286712200Y-133793571D02*
X286759819Y-133888809D01*
X286759819Y-133888809D02*
X286759819Y-134126904D01*
X286759819Y-134126904D02*
X286712200Y-134222142D01*
X286712200Y-134222142D02*
X286664580Y-134269761D01*
X243761905Y-170654819D02*
X243761905Y-171464342D01*
X243761905Y-171464342D02*
X243809524Y-171559580D01*
X243809524Y-171559580D02*
X243857143Y-171607200D01*
X243857143Y-171607200D02*
X243952381Y-171654819D01*
X243952381Y-171654819D02*
X244142857Y-171654819D01*
X244142857Y-171654819D02*
X244238095Y-171607200D01*
X244238095Y-171607200D02*
X244285714Y-171559580D01*
X244285714Y-171559580D02*
X244333333Y-171464342D01*
X244333333Y-171464342D02*
X244333333Y-170654819D01*
X244761905Y-170750057D02*
X244809524Y-170702438D01*
X244809524Y-170702438D02*
X244904762Y-170654819D01*
X244904762Y-170654819D02*
X245142857Y-170654819D01*
X245142857Y-170654819D02*
X245238095Y-170702438D01*
X245238095Y-170702438D02*
X245285714Y-170750057D01*
X245285714Y-170750057D02*
X245333333Y-170845295D01*
X245333333Y-170845295D02*
X245333333Y-170940533D01*
X245333333Y-170940533D02*
X245285714Y-171083390D01*
X245285714Y-171083390D02*
X244714286Y-171654819D01*
X244714286Y-171654819D02*
X245333333Y-171654819D01*
X245714286Y-170750057D02*
X245761905Y-170702438D01*
X245761905Y-170702438D02*
X245857143Y-170654819D01*
X245857143Y-170654819D02*
X246095238Y-170654819D01*
X246095238Y-170654819D02*
X246190476Y-170702438D01*
X246190476Y-170702438D02*
X246238095Y-170750057D01*
X246238095Y-170750057D02*
X246285714Y-170845295D01*
X246285714Y-170845295D02*
X246285714Y-170940533D01*
X246285714Y-170940533D02*
X246238095Y-171083390D01*
X246238095Y-171083390D02*
X245666667Y-171654819D01*
X245666667Y-171654819D02*
X246285714Y-171654819D01*
X175494819Y-80333333D02*
X176209104Y-80333333D01*
X176209104Y-80333333D02*
X176351961Y-80380952D01*
X176351961Y-80380952D02*
X176447200Y-80476190D01*
X176447200Y-80476190D02*
X176494819Y-80619047D01*
X176494819Y-80619047D02*
X176494819Y-80714285D01*
X175923390Y-79714285D02*
X175875771Y-79809523D01*
X175875771Y-79809523D02*
X175828152Y-79857142D01*
X175828152Y-79857142D02*
X175732914Y-79904761D01*
X175732914Y-79904761D02*
X175685295Y-79904761D01*
X175685295Y-79904761D02*
X175590057Y-79857142D01*
X175590057Y-79857142D02*
X175542438Y-79809523D01*
X175542438Y-79809523D02*
X175494819Y-79714285D01*
X175494819Y-79714285D02*
X175494819Y-79523809D01*
X175494819Y-79523809D02*
X175542438Y-79428571D01*
X175542438Y-79428571D02*
X175590057Y-79380952D01*
X175590057Y-79380952D02*
X175685295Y-79333333D01*
X175685295Y-79333333D02*
X175732914Y-79333333D01*
X175732914Y-79333333D02*
X175828152Y-79380952D01*
X175828152Y-79380952D02*
X175875771Y-79428571D01*
X175875771Y-79428571D02*
X175923390Y-79523809D01*
X175923390Y-79523809D02*
X175923390Y-79714285D01*
X175923390Y-79714285D02*
X175971009Y-79809523D01*
X175971009Y-79809523D02*
X176018628Y-79857142D01*
X176018628Y-79857142D02*
X176113866Y-79904761D01*
X176113866Y-79904761D02*
X176304342Y-79904761D01*
X176304342Y-79904761D02*
X176399580Y-79857142D01*
X176399580Y-79857142D02*
X176447200Y-79809523D01*
X176447200Y-79809523D02*
X176494819Y-79714285D01*
X176494819Y-79714285D02*
X176494819Y-79523809D01*
X176494819Y-79523809D02*
X176447200Y-79428571D01*
X176447200Y-79428571D02*
X176399580Y-79380952D01*
X176399580Y-79380952D02*
X176304342Y-79333333D01*
X176304342Y-79333333D02*
X176113866Y-79333333D01*
X176113866Y-79333333D02*
X176018628Y-79380952D01*
X176018628Y-79380952D02*
X175971009Y-79428571D01*
X175971009Y-79428571D02*
X175923390Y-79523809D01*
X235494819Y-80809523D02*
X236209104Y-80809523D01*
X236209104Y-80809523D02*
X236351961Y-80857142D01*
X236351961Y-80857142D02*
X236447200Y-80952380D01*
X236447200Y-80952380D02*
X236494819Y-81095237D01*
X236494819Y-81095237D02*
X236494819Y-81190475D01*
X236494819Y-79809523D02*
X236494819Y-80380951D01*
X236494819Y-80095237D02*
X235494819Y-80095237D01*
X235494819Y-80095237D02*
X235637676Y-80190475D01*
X235637676Y-80190475D02*
X235732914Y-80285713D01*
X235732914Y-80285713D02*
X235780533Y-80380951D01*
X235494819Y-79190475D02*
X235494819Y-79095237D01*
X235494819Y-79095237D02*
X235542438Y-78999999D01*
X235542438Y-78999999D02*
X235590057Y-78952380D01*
X235590057Y-78952380D02*
X235685295Y-78904761D01*
X235685295Y-78904761D02*
X235875771Y-78857142D01*
X235875771Y-78857142D02*
X236113866Y-78857142D01*
X236113866Y-78857142D02*
X236304342Y-78904761D01*
X236304342Y-78904761D02*
X236399580Y-78952380D01*
X236399580Y-78952380D02*
X236447200Y-78999999D01*
X236447200Y-78999999D02*
X236494819Y-79095237D01*
X236494819Y-79095237D02*
X236494819Y-79190475D01*
X236494819Y-79190475D02*
X236447200Y-79285713D01*
X236447200Y-79285713D02*
X236399580Y-79333332D01*
X236399580Y-79333332D02*
X236304342Y-79380951D01*
X236304342Y-79380951D02*
X236113866Y-79428570D01*
X236113866Y-79428570D02*
X235875771Y-79428570D01*
X235875771Y-79428570D02*
X235685295Y-79380951D01*
X235685295Y-79380951D02*
X235590057Y-79333332D01*
X235590057Y-79333332D02*
X235542438Y-79285713D01*
X235542438Y-79285713D02*
X235494819Y-79190475D01*
X155494819Y-80333333D02*
X156209104Y-80333333D01*
X156209104Y-80333333D02*
X156351961Y-80380952D01*
X156351961Y-80380952D02*
X156447200Y-80476190D01*
X156447200Y-80476190D02*
X156494819Y-80619047D01*
X156494819Y-80619047D02*
X156494819Y-80714285D01*
X155494819Y-79952380D02*
X155494819Y-79285714D01*
X155494819Y-79285714D02*
X156494819Y-79714285D01*
X294666667Y-75254819D02*
X294666667Y-74254819D01*
X294666667Y-74254819D02*
X295000000Y-74969104D01*
X295000000Y-74969104D02*
X295333333Y-74254819D01*
X295333333Y-74254819D02*
X295333333Y-75254819D01*
X295809524Y-75254819D02*
X295809524Y-74254819D01*
X295809524Y-74731009D02*
X296380952Y-74731009D01*
X296380952Y-75254819D02*
X296380952Y-74254819D01*
X296809524Y-74350057D02*
X296857143Y-74302438D01*
X296857143Y-74302438D02*
X296952381Y-74254819D01*
X296952381Y-74254819D02*
X297190476Y-74254819D01*
X297190476Y-74254819D02*
X297285714Y-74302438D01*
X297285714Y-74302438D02*
X297333333Y-74350057D01*
X297333333Y-74350057D02*
X297380952Y-74445295D01*
X297380952Y-74445295D02*
X297380952Y-74540533D01*
X297380952Y-74540533D02*
X297333333Y-74683390D01*
X297333333Y-74683390D02*
X296761905Y-75254819D01*
X296761905Y-75254819D02*
X297380952Y-75254819D01*
X169357142Y-199199580D02*
X169309523Y-199247200D01*
X169309523Y-199247200D02*
X169166666Y-199294819D01*
X169166666Y-199294819D02*
X169071428Y-199294819D01*
X169071428Y-199294819D02*
X168928571Y-199247200D01*
X168928571Y-199247200D02*
X168833333Y-199151961D01*
X168833333Y-199151961D02*
X168785714Y-199056723D01*
X168785714Y-199056723D02*
X168738095Y-198866247D01*
X168738095Y-198866247D02*
X168738095Y-198723390D01*
X168738095Y-198723390D02*
X168785714Y-198532914D01*
X168785714Y-198532914D02*
X168833333Y-198437676D01*
X168833333Y-198437676D02*
X168928571Y-198342438D01*
X168928571Y-198342438D02*
X169071428Y-198294819D01*
X169071428Y-198294819D02*
X169166666Y-198294819D01*
X169166666Y-198294819D02*
X169309523Y-198342438D01*
X169309523Y-198342438D02*
X169357142Y-198390057D01*
X170214285Y-198628152D02*
X170214285Y-199294819D01*
X169976190Y-198247200D02*
X169738095Y-198961485D01*
X169738095Y-198961485D02*
X170357142Y-198961485D01*
X171166666Y-198628152D02*
X171166666Y-199294819D01*
X170928571Y-198247200D02*
X170690476Y-198961485D01*
X170690476Y-198961485D02*
X171309523Y-198961485D01*
X102666667Y-75254819D02*
X102666667Y-74254819D01*
X102666667Y-74254819D02*
X103000000Y-74969104D01*
X103000000Y-74969104D02*
X103333333Y-74254819D01*
X103333333Y-74254819D02*
X103333333Y-75254819D01*
X103809524Y-75254819D02*
X103809524Y-74254819D01*
X103809524Y-74731009D02*
X104380952Y-74731009D01*
X104380952Y-75254819D02*
X104380952Y-74254819D01*
X105380952Y-75254819D02*
X104809524Y-75254819D01*
X105095238Y-75254819D02*
X105095238Y-74254819D01*
X105095238Y-74254819D02*
X105000000Y-74397676D01*
X105000000Y-74397676D02*
X104904762Y-74492914D01*
X104904762Y-74492914D02*
X104809524Y-74540533D01*
X159357142Y-199199580D02*
X159309523Y-199247200D01*
X159309523Y-199247200D02*
X159166666Y-199294819D01*
X159166666Y-199294819D02*
X159071428Y-199294819D01*
X159071428Y-199294819D02*
X158928571Y-199247200D01*
X158928571Y-199247200D02*
X158833333Y-199151961D01*
X158833333Y-199151961D02*
X158785714Y-199056723D01*
X158785714Y-199056723D02*
X158738095Y-198866247D01*
X158738095Y-198866247D02*
X158738095Y-198723390D01*
X158738095Y-198723390D02*
X158785714Y-198532914D01*
X158785714Y-198532914D02*
X158833333Y-198437676D01*
X158833333Y-198437676D02*
X158928571Y-198342438D01*
X158928571Y-198342438D02*
X159071428Y-198294819D01*
X159071428Y-198294819D02*
X159166666Y-198294819D01*
X159166666Y-198294819D02*
X159309523Y-198342438D01*
X159309523Y-198342438D02*
X159357142Y-198390057D01*
X160214285Y-198628152D02*
X160214285Y-199294819D01*
X159976190Y-198247200D02*
X159738095Y-198961485D01*
X159738095Y-198961485D02*
X160357142Y-198961485D01*
X160642857Y-198294819D02*
X161261904Y-198294819D01*
X161261904Y-198294819D02*
X160928571Y-198675771D01*
X160928571Y-198675771D02*
X161071428Y-198675771D01*
X161071428Y-198675771D02*
X161166666Y-198723390D01*
X161166666Y-198723390D02*
X161214285Y-198771009D01*
X161214285Y-198771009D02*
X161261904Y-198866247D01*
X161261904Y-198866247D02*
X161261904Y-199104342D01*
X161261904Y-199104342D02*
X161214285Y-199199580D01*
X161214285Y-199199580D02*
X161166666Y-199247200D01*
X161166666Y-199247200D02*
X161071428Y-199294819D01*
X161071428Y-199294819D02*
X160785714Y-199294819D01*
X160785714Y-199294819D02*
X160690476Y-199247200D01*
X160690476Y-199247200D02*
X160642857Y-199199580D01*
X149357142Y-199199580D02*
X149309523Y-199247200D01*
X149309523Y-199247200D02*
X149166666Y-199294819D01*
X149166666Y-199294819D02*
X149071428Y-199294819D01*
X149071428Y-199294819D02*
X148928571Y-199247200D01*
X148928571Y-199247200D02*
X148833333Y-199151961D01*
X148833333Y-199151961D02*
X148785714Y-199056723D01*
X148785714Y-199056723D02*
X148738095Y-198866247D01*
X148738095Y-198866247D02*
X148738095Y-198723390D01*
X148738095Y-198723390D02*
X148785714Y-198532914D01*
X148785714Y-198532914D02*
X148833333Y-198437676D01*
X148833333Y-198437676D02*
X148928571Y-198342438D01*
X148928571Y-198342438D02*
X149071428Y-198294819D01*
X149071428Y-198294819D02*
X149166666Y-198294819D01*
X149166666Y-198294819D02*
X149309523Y-198342438D01*
X149309523Y-198342438D02*
X149357142Y-198390057D01*
X150214285Y-198628152D02*
X150214285Y-199294819D01*
X149976190Y-198247200D02*
X149738095Y-198961485D01*
X149738095Y-198961485D02*
X150357142Y-198961485D01*
X150690476Y-198390057D02*
X150738095Y-198342438D01*
X150738095Y-198342438D02*
X150833333Y-198294819D01*
X150833333Y-198294819D02*
X151071428Y-198294819D01*
X151071428Y-198294819D02*
X151166666Y-198342438D01*
X151166666Y-198342438D02*
X151214285Y-198390057D01*
X151214285Y-198390057D02*
X151261904Y-198485295D01*
X151261904Y-198485295D02*
X151261904Y-198580533D01*
X151261904Y-198580533D02*
X151214285Y-198723390D01*
X151214285Y-198723390D02*
X150642857Y-199294819D01*
X150642857Y-199294819D02*
X151261904Y-199294819D01*
X204357142Y-167199580D02*
X204309523Y-167247200D01*
X204309523Y-167247200D02*
X204166666Y-167294819D01*
X204166666Y-167294819D02*
X204071428Y-167294819D01*
X204071428Y-167294819D02*
X203928571Y-167247200D01*
X203928571Y-167247200D02*
X203833333Y-167151961D01*
X203833333Y-167151961D02*
X203785714Y-167056723D01*
X203785714Y-167056723D02*
X203738095Y-166866247D01*
X203738095Y-166866247D02*
X203738095Y-166723390D01*
X203738095Y-166723390D02*
X203785714Y-166532914D01*
X203785714Y-166532914D02*
X203833333Y-166437676D01*
X203833333Y-166437676D02*
X203928571Y-166342438D01*
X203928571Y-166342438D02*
X204071428Y-166294819D01*
X204071428Y-166294819D02*
X204166666Y-166294819D01*
X204166666Y-166294819D02*
X204309523Y-166342438D01*
X204309523Y-166342438D02*
X204357142Y-166390057D01*
X204690476Y-166294819D02*
X205309523Y-166294819D01*
X205309523Y-166294819D02*
X204976190Y-166675771D01*
X204976190Y-166675771D02*
X205119047Y-166675771D01*
X205119047Y-166675771D02*
X205214285Y-166723390D01*
X205214285Y-166723390D02*
X205261904Y-166771009D01*
X205261904Y-166771009D02*
X205309523Y-166866247D01*
X205309523Y-166866247D02*
X205309523Y-167104342D01*
X205309523Y-167104342D02*
X205261904Y-167199580D01*
X205261904Y-167199580D02*
X205214285Y-167247200D01*
X205214285Y-167247200D02*
X205119047Y-167294819D01*
X205119047Y-167294819D02*
X204833333Y-167294819D01*
X204833333Y-167294819D02*
X204738095Y-167247200D01*
X204738095Y-167247200D02*
X204690476Y-167199580D01*
X206166666Y-166628152D02*
X206166666Y-167294819D01*
X205928571Y-166247200D02*
X205690476Y-166961485D01*
X205690476Y-166961485D02*
X206309523Y-166961485D01*
X160761905Y-202054819D02*
X160761905Y-202864342D01*
X160761905Y-202864342D02*
X160809524Y-202959580D01*
X160809524Y-202959580D02*
X160857143Y-203007200D01*
X160857143Y-203007200D02*
X160952381Y-203054819D01*
X160952381Y-203054819D02*
X161142857Y-203054819D01*
X161142857Y-203054819D02*
X161238095Y-203007200D01*
X161238095Y-203007200D02*
X161285714Y-202959580D01*
X161285714Y-202959580D02*
X161333333Y-202864342D01*
X161333333Y-202864342D02*
X161333333Y-202054819D01*
X162333333Y-203054819D02*
X161761905Y-203054819D01*
X162047619Y-203054819D02*
X162047619Y-202054819D01*
X162047619Y-202054819D02*
X161952381Y-202197676D01*
X161952381Y-202197676D02*
X161857143Y-202292914D01*
X161857143Y-202292914D02*
X161761905Y-202340533D01*
X163285714Y-203054819D02*
X162714286Y-203054819D01*
X163000000Y-203054819D02*
X163000000Y-202054819D01*
X163000000Y-202054819D02*
X162904762Y-202197676D01*
X162904762Y-202197676D02*
X162809524Y-202292914D01*
X162809524Y-202292914D02*
X162714286Y-202340533D01*
X256809524Y-166604819D02*
X256809524Y-165604819D01*
X256809524Y-165604819D02*
X257047619Y-165604819D01*
X257047619Y-165604819D02*
X257190476Y-165652438D01*
X257190476Y-165652438D02*
X257285714Y-165747676D01*
X257285714Y-165747676D02*
X257333333Y-165842914D01*
X257333333Y-165842914D02*
X257380952Y-166033390D01*
X257380952Y-166033390D02*
X257380952Y-166176247D01*
X257380952Y-166176247D02*
X257333333Y-166366723D01*
X257333333Y-166366723D02*
X257285714Y-166461961D01*
X257285714Y-166461961D02*
X257190476Y-166557200D01*
X257190476Y-166557200D02*
X257047619Y-166604819D01*
X257047619Y-166604819D02*
X256809524Y-166604819D01*
X258285714Y-165604819D02*
X257809524Y-165604819D01*
X257809524Y-165604819D02*
X257761905Y-166081009D01*
X257761905Y-166081009D02*
X257809524Y-166033390D01*
X257809524Y-166033390D02*
X257904762Y-165985771D01*
X257904762Y-165985771D02*
X258142857Y-165985771D01*
X258142857Y-165985771D02*
X258238095Y-166033390D01*
X258238095Y-166033390D02*
X258285714Y-166081009D01*
X258285714Y-166081009D02*
X258333333Y-166176247D01*
X258333333Y-166176247D02*
X258333333Y-166414342D01*
X258333333Y-166414342D02*
X258285714Y-166509580D01*
X258285714Y-166509580D02*
X258238095Y-166557200D01*
X258238095Y-166557200D02*
X258142857Y-166604819D01*
X258142857Y-166604819D02*
X257904762Y-166604819D01*
X257904762Y-166604819D02*
X257809524Y-166557200D01*
X257809524Y-166557200D02*
X257761905Y-166509580D01*
X258761905Y-166604819D02*
X258761905Y-165604819D01*
X258761905Y-165985771D02*
X258857143Y-165938152D01*
X258857143Y-165938152D02*
X259047619Y-165938152D01*
X259047619Y-165938152D02*
X259142857Y-165985771D01*
X259142857Y-165985771D02*
X259190476Y-166033390D01*
X259190476Y-166033390D02*
X259238095Y-166128628D01*
X259238095Y-166128628D02*
X259238095Y-166414342D01*
X259238095Y-166414342D02*
X259190476Y-166509580D01*
X259190476Y-166509580D02*
X259142857Y-166557200D01*
X259142857Y-166557200D02*
X259047619Y-166604819D01*
X259047619Y-166604819D02*
X258857143Y-166604819D01*
X258857143Y-166604819D02*
X258761905Y-166557200D01*
X199032380Y-159309726D02*
X199032380Y-160337821D01*
X199032380Y-160337821D02*
X199092857Y-160458773D01*
X199092857Y-160458773D02*
X199153333Y-160519250D01*
X199153333Y-160519250D02*
X199274285Y-160579726D01*
X199274285Y-160579726D02*
X199516190Y-160579726D01*
X199516190Y-160579726D02*
X199637142Y-160519250D01*
X199637142Y-160519250D02*
X199697619Y-160458773D01*
X199697619Y-160458773D02*
X199758095Y-160337821D01*
X199758095Y-160337821D02*
X199758095Y-159309726D01*
X200302380Y-159430678D02*
X200362856Y-159370202D01*
X200362856Y-159370202D02*
X200483809Y-159309726D01*
X200483809Y-159309726D02*
X200786190Y-159309726D01*
X200786190Y-159309726D02*
X200907142Y-159370202D01*
X200907142Y-159370202D02*
X200967618Y-159430678D01*
X200967618Y-159430678D02*
X201028095Y-159551630D01*
X201028095Y-159551630D02*
X201028095Y-159672583D01*
X201028095Y-159672583D02*
X200967618Y-159854011D01*
X200967618Y-159854011D02*
X200241904Y-160579726D01*
X200241904Y-160579726D02*
X201028095Y-160579726D01*
X157141905Y-147554819D02*
X157141905Y-148364342D01*
X157141905Y-148364342D02*
X157189524Y-148459580D01*
X157189524Y-148459580D02*
X157237143Y-148507200D01*
X157237143Y-148507200D02*
X157332381Y-148554819D01*
X157332381Y-148554819D02*
X157522857Y-148554819D01*
X157522857Y-148554819D02*
X157618095Y-148507200D01*
X157618095Y-148507200D02*
X157665714Y-148459580D01*
X157665714Y-148459580D02*
X157713333Y-148364342D01*
X157713333Y-148364342D02*
X157713333Y-147554819D01*
X158141905Y-147650057D02*
X158189524Y-147602438D01*
X158189524Y-147602438D02*
X158284762Y-147554819D01*
X158284762Y-147554819D02*
X158522857Y-147554819D01*
X158522857Y-147554819D02*
X158618095Y-147602438D01*
X158618095Y-147602438D02*
X158665714Y-147650057D01*
X158665714Y-147650057D02*
X158713333Y-147745295D01*
X158713333Y-147745295D02*
X158713333Y-147840533D01*
X158713333Y-147840533D02*
X158665714Y-147983390D01*
X158665714Y-147983390D02*
X158094286Y-148554819D01*
X158094286Y-148554819D02*
X158713333Y-148554819D01*
X159618095Y-147554819D02*
X159141905Y-147554819D01*
X159141905Y-147554819D02*
X159094286Y-148031009D01*
X159094286Y-148031009D02*
X159141905Y-147983390D01*
X159141905Y-147983390D02*
X159237143Y-147935771D01*
X159237143Y-147935771D02*
X159475238Y-147935771D01*
X159475238Y-147935771D02*
X159570476Y-147983390D01*
X159570476Y-147983390D02*
X159618095Y-148031009D01*
X159618095Y-148031009D02*
X159665714Y-148126247D01*
X159665714Y-148126247D02*
X159665714Y-148364342D01*
X159665714Y-148364342D02*
X159618095Y-148459580D01*
X159618095Y-148459580D02*
X159570476Y-148507200D01*
X159570476Y-148507200D02*
X159475238Y-148554819D01*
X159475238Y-148554819D02*
X159237143Y-148554819D01*
X159237143Y-148554819D02*
X159141905Y-148507200D01*
X159141905Y-148507200D02*
X159094286Y-148459580D01*
X158523809Y-141199580D02*
X158476190Y-141247200D01*
X158476190Y-141247200D02*
X158333333Y-141294819D01*
X158333333Y-141294819D02*
X158238095Y-141294819D01*
X158238095Y-141294819D02*
X158095238Y-141247200D01*
X158095238Y-141247200D02*
X158000000Y-141151961D01*
X158000000Y-141151961D02*
X157952381Y-141056723D01*
X157952381Y-141056723D02*
X157904762Y-140866247D01*
X157904762Y-140866247D02*
X157904762Y-140723390D01*
X157904762Y-140723390D02*
X157952381Y-140532914D01*
X157952381Y-140532914D02*
X158000000Y-140437676D01*
X158000000Y-140437676D02*
X158095238Y-140342438D01*
X158095238Y-140342438D02*
X158238095Y-140294819D01*
X158238095Y-140294819D02*
X158333333Y-140294819D01*
X158333333Y-140294819D02*
X158476190Y-140342438D01*
X158476190Y-140342438D02*
X158523809Y-140390057D01*
X159476190Y-141294819D02*
X158904762Y-141294819D01*
X159190476Y-141294819D02*
X159190476Y-140294819D01*
X159190476Y-140294819D02*
X159095238Y-140437676D01*
X159095238Y-140437676D02*
X159000000Y-140532914D01*
X159000000Y-140532914D02*
X158904762Y-140580533D01*
X160095238Y-140294819D02*
X160190476Y-140294819D01*
X160190476Y-140294819D02*
X160285714Y-140342438D01*
X160285714Y-140342438D02*
X160333333Y-140390057D01*
X160333333Y-140390057D02*
X160380952Y-140485295D01*
X160380952Y-140485295D02*
X160428571Y-140675771D01*
X160428571Y-140675771D02*
X160428571Y-140913866D01*
X160428571Y-140913866D02*
X160380952Y-141104342D01*
X160380952Y-141104342D02*
X160333333Y-141199580D01*
X160333333Y-141199580D02*
X160285714Y-141247200D01*
X160285714Y-141247200D02*
X160190476Y-141294819D01*
X160190476Y-141294819D02*
X160095238Y-141294819D01*
X160095238Y-141294819D02*
X160000000Y-141247200D01*
X160000000Y-141247200D02*
X159952381Y-141199580D01*
X159952381Y-141199580D02*
X159904762Y-141104342D01*
X159904762Y-141104342D02*
X159857143Y-140913866D01*
X159857143Y-140913866D02*
X159857143Y-140675771D01*
X159857143Y-140675771D02*
X159904762Y-140485295D01*
X159904762Y-140485295D02*
X159952381Y-140390057D01*
X159952381Y-140390057D02*
X160000000Y-140342438D01*
X160000000Y-140342438D02*
X160095238Y-140294819D01*
X160619048Y-141390057D02*
X161380952Y-141390057D01*
X162047619Y-141294819D02*
X162047619Y-140294819D01*
X162047619Y-141247200D02*
X161952381Y-141294819D01*
X161952381Y-141294819D02*
X161761905Y-141294819D01*
X161761905Y-141294819D02*
X161666667Y-141247200D01*
X161666667Y-141247200D02*
X161619048Y-141199580D01*
X161619048Y-141199580D02*
X161571429Y-141104342D01*
X161571429Y-141104342D02*
X161571429Y-140818628D01*
X161571429Y-140818628D02*
X161619048Y-140723390D01*
X161619048Y-140723390D02*
X161666667Y-140675771D01*
X161666667Y-140675771D02*
X161761905Y-140628152D01*
X161761905Y-140628152D02*
X161952381Y-140628152D01*
X161952381Y-140628152D02*
X162047619Y-140675771D01*
X130761905Y-201054819D02*
X130761905Y-201864342D01*
X130761905Y-201864342D02*
X130809524Y-201959580D01*
X130809524Y-201959580D02*
X130857143Y-202007200D01*
X130857143Y-202007200D02*
X130952381Y-202054819D01*
X130952381Y-202054819D02*
X131142857Y-202054819D01*
X131142857Y-202054819D02*
X131238095Y-202007200D01*
X131238095Y-202007200D02*
X131285714Y-201959580D01*
X131285714Y-201959580D02*
X131333333Y-201864342D01*
X131333333Y-201864342D02*
X131333333Y-201054819D01*
X132333333Y-202054819D02*
X131761905Y-202054819D01*
X132047619Y-202054819D02*
X132047619Y-201054819D01*
X132047619Y-201054819D02*
X131952381Y-201197676D01*
X131952381Y-201197676D02*
X131857143Y-201292914D01*
X131857143Y-201292914D02*
X131761905Y-201340533D01*
X133238095Y-201054819D02*
X132761905Y-201054819D01*
X132761905Y-201054819D02*
X132714286Y-201531009D01*
X132714286Y-201531009D02*
X132761905Y-201483390D01*
X132761905Y-201483390D02*
X132857143Y-201435771D01*
X132857143Y-201435771D02*
X133095238Y-201435771D01*
X133095238Y-201435771D02*
X133190476Y-201483390D01*
X133190476Y-201483390D02*
X133238095Y-201531009D01*
X133238095Y-201531009D02*
X133285714Y-201626247D01*
X133285714Y-201626247D02*
X133285714Y-201864342D01*
X133285714Y-201864342D02*
X133238095Y-201959580D01*
X133238095Y-201959580D02*
X133190476Y-202007200D01*
X133190476Y-202007200D02*
X133095238Y-202054819D01*
X133095238Y-202054819D02*
X132857143Y-202054819D01*
X132857143Y-202054819D02*
X132761905Y-202007200D01*
X132761905Y-202007200D02*
X132714286Y-201959580D01*
X170761905Y-202054819D02*
X170761905Y-202864342D01*
X170761905Y-202864342D02*
X170809524Y-202959580D01*
X170809524Y-202959580D02*
X170857143Y-203007200D01*
X170857143Y-203007200D02*
X170952381Y-203054819D01*
X170952381Y-203054819D02*
X171142857Y-203054819D01*
X171142857Y-203054819D02*
X171238095Y-203007200D01*
X171238095Y-203007200D02*
X171285714Y-202959580D01*
X171285714Y-202959580D02*
X171333333Y-202864342D01*
X171333333Y-202864342D02*
X171333333Y-202054819D01*
X172333333Y-203054819D02*
X171761905Y-203054819D01*
X172047619Y-203054819D02*
X172047619Y-202054819D01*
X172047619Y-202054819D02*
X171952381Y-202197676D01*
X171952381Y-202197676D02*
X171857143Y-202292914D01*
X171857143Y-202292914D02*
X171761905Y-202340533D01*
X173190476Y-202388152D02*
X173190476Y-203054819D01*
X172952381Y-202007200D02*
X172714286Y-202721485D01*
X172714286Y-202721485D02*
X173333333Y-202721485D01*
X194357142Y-167199580D02*
X194309523Y-167247200D01*
X194309523Y-167247200D02*
X194166666Y-167294819D01*
X194166666Y-167294819D02*
X194071428Y-167294819D01*
X194071428Y-167294819D02*
X193928571Y-167247200D01*
X193928571Y-167247200D02*
X193833333Y-167151961D01*
X193833333Y-167151961D02*
X193785714Y-167056723D01*
X193785714Y-167056723D02*
X193738095Y-166866247D01*
X193738095Y-166866247D02*
X193738095Y-166723390D01*
X193738095Y-166723390D02*
X193785714Y-166532914D01*
X193785714Y-166532914D02*
X193833333Y-166437676D01*
X193833333Y-166437676D02*
X193928571Y-166342438D01*
X193928571Y-166342438D02*
X194071428Y-166294819D01*
X194071428Y-166294819D02*
X194166666Y-166294819D01*
X194166666Y-166294819D02*
X194309523Y-166342438D01*
X194309523Y-166342438D02*
X194357142Y-166390057D01*
X194690476Y-166294819D02*
X195309523Y-166294819D01*
X195309523Y-166294819D02*
X194976190Y-166675771D01*
X194976190Y-166675771D02*
X195119047Y-166675771D01*
X195119047Y-166675771D02*
X195214285Y-166723390D01*
X195214285Y-166723390D02*
X195261904Y-166771009D01*
X195261904Y-166771009D02*
X195309523Y-166866247D01*
X195309523Y-166866247D02*
X195309523Y-167104342D01*
X195309523Y-167104342D02*
X195261904Y-167199580D01*
X195261904Y-167199580D02*
X195214285Y-167247200D01*
X195214285Y-167247200D02*
X195119047Y-167294819D01*
X195119047Y-167294819D02*
X194833333Y-167294819D01*
X194833333Y-167294819D02*
X194738095Y-167247200D01*
X194738095Y-167247200D02*
X194690476Y-167199580D01*
X196261904Y-167294819D02*
X195690476Y-167294819D01*
X195976190Y-167294819D02*
X195976190Y-166294819D01*
X195976190Y-166294819D02*
X195880952Y-166437676D01*
X195880952Y-166437676D02*
X195785714Y-166532914D01*
X195785714Y-166532914D02*
X195690476Y-166580533D01*
X126380952Y-198679580D02*
X126333333Y-198727200D01*
X126333333Y-198727200D02*
X126190476Y-198774819D01*
X126190476Y-198774819D02*
X126095238Y-198774819D01*
X126095238Y-198774819D02*
X125952381Y-198727200D01*
X125952381Y-198727200D02*
X125857143Y-198631961D01*
X125857143Y-198631961D02*
X125809524Y-198536723D01*
X125809524Y-198536723D02*
X125761905Y-198346247D01*
X125761905Y-198346247D02*
X125761905Y-198203390D01*
X125761905Y-198203390D02*
X125809524Y-198012914D01*
X125809524Y-198012914D02*
X125857143Y-197917676D01*
X125857143Y-197917676D02*
X125952381Y-197822438D01*
X125952381Y-197822438D02*
X126095238Y-197774819D01*
X126095238Y-197774819D02*
X126190476Y-197774819D01*
X126190476Y-197774819D02*
X126333333Y-197822438D01*
X126333333Y-197822438D02*
X126380952Y-197870057D01*
X127333333Y-198774819D02*
X126761905Y-198774819D01*
X127047619Y-198774819D02*
X127047619Y-197774819D01*
X127047619Y-197774819D02*
X126952381Y-197917676D01*
X126952381Y-197917676D02*
X126857143Y-198012914D01*
X126857143Y-198012914D02*
X126761905Y-198060533D01*
X128190476Y-198774819D02*
X128190476Y-198251009D01*
X128190476Y-198251009D02*
X128142857Y-198155771D01*
X128142857Y-198155771D02*
X128047619Y-198108152D01*
X128047619Y-198108152D02*
X127857143Y-198108152D01*
X127857143Y-198108152D02*
X127761905Y-198155771D01*
X128190476Y-198727200D02*
X128095238Y-198774819D01*
X128095238Y-198774819D02*
X127857143Y-198774819D01*
X127857143Y-198774819D02*
X127761905Y-198727200D01*
X127761905Y-198727200D02*
X127714286Y-198631961D01*
X127714286Y-198631961D02*
X127714286Y-198536723D01*
X127714286Y-198536723D02*
X127761905Y-198441485D01*
X127761905Y-198441485D02*
X127857143Y-198393866D01*
X127857143Y-198393866D02*
X128095238Y-198393866D01*
X128095238Y-198393866D02*
X128190476Y-198346247D01*
X164547618Y-127199580D02*
X164499999Y-127247200D01*
X164499999Y-127247200D02*
X164357142Y-127294819D01*
X164357142Y-127294819D02*
X164261904Y-127294819D01*
X164261904Y-127294819D02*
X164119047Y-127247200D01*
X164119047Y-127247200D02*
X164023809Y-127151961D01*
X164023809Y-127151961D02*
X163976190Y-127056723D01*
X163976190Y-127056723D02*
X163928571Y-126866247D01*
X163928571Y-126866247D02*
X163928571Y-126723390D01*
X163928571Y-126723390D02*
X163976190Y-126532914D01*
X163976190Y-126532914D02*
X164023809Y-126437676D01*
X164023809Y-126437676D02*
X164119047Y-126342438D01*
X164119047Y-126342438D02*
X164261904Y-126294819D01*
X164261904Y-126294819D02*
X164357142Y-126294819D01*
X164357142Y-126294819D02*
X164499999Y-126342438D01*
X164499999Y-126342438D02*
X164547618Y-126390057D01*
X165499999Y-127294819D02*
X164928571Y-127294819D01*
X165214285Y-127294819D02*
X165214285Y-126294819D01*
X165214285Y-126294819D02*
X165119047Y-126437676D01*
X165119047Y-126437676D02*
X165023809Y-126532914D01*
X165023809Y-126532914D02*
X164928571Y-126580533D01*
X166119047Y-126294819D02*
X166214285Y-126294819D01*
X166214285Y-126294819D02*
X166309523Y-126342438D01*
X166309523Y-126342438D02*
X166357142Y-126390057D01*
X166357142Y-126390057D02*
X166404761Y-126485295D01*
X166404761Y-126485295D02*
X166452380Y-126675771D01*
X166452380Y-126675771D02*
X166452380Y-126913866D01*
X166452380Y-126913866D02*
X166404761Y-127104342D01*
X166404761Y-127104342D02*
X166357142Y-127199580D01*
X166357142Y-127199580D02*
X166309523Y-127247200D01*
X166309523Y-127247200D02*
X166214285Y-127294819D01*
X166214285Y-127294819D02*
X166119047Y-127294819D01*
X166119047Y-127294819D02*
X166023809Y-127247200D01*
X166023809Y-127247200D02*
X165976190Y-127199580D01*
X165976190Y-127199580D02*
X165928571Y-127104342D01*
X165928571Y-127104342D02*
X165880952Y-126913866D01*
X165880952Y-126913866D02*
X165880952Y-126675771D01*
X165880952Y-126675771D02*
X165928571Y-126485295D01*
X165928571Y-126485295D02*
X165976190Y-126390057D01*
X165976190Y-126390057D02*
X166023809Y-126342438D01*
X166023809Y-126342438D02*
X166119047Y-126294819D01*
X166642857Y-127390057D02*
X167404761Y-127390057D01*
X168071428Y-127247200D02*
X167976190Y-127294819D01*
X167976190Y-127294819D02*
X167785714Y-127294819D01*
X167785714Y-127294819D02*
X167690476Y-127247200D01*
X167690476Y-127247200D02*
X167642857Y-127199580D01*
X167642857Y-127199580D02*
X167595238Y-127104342D01*
X167595238Y-127104342D02*
X167595238Y-126818628D01*
X167595238Y-126818628D02*
X167642857Y-126723390D01*
X167642857Y-126723390D02*
X167690476Y-126675771D01*
X167690476Y-126675771D02*
X167785714Y-126628152D01*
X167785714Y-126628152D02*
X167976190Y-126628152D01*
X167976190Y-126628152D02*
X168071428Y-126675771D01*
X247380952Y-170199580D02*
X247333333Y-170247200D01*
X247333333Y-170247200D02*
X247190476Y-170294819D01*
X247190476Y-170294819D02*
X247095238Y-170294819D01*
X247095238Y-170294819D02*
X246952381Y-170247200D01*
X246952381Y-170247200D02*
X246857143Y-170151961D01*
X246857143Y-170151961D02*
X246809524Y-170056723D01*
X246809524Y-170056723D02*
X246761905Y-169866247D01*
X246761905Y-169866247D02*
X246761905Y-169723390D01*
X246761905Y-169723390D02*
X246809524Y-169532914D01*
X246809524Y-169532914D02*
X246857143Y-169437676D01*
X246857143Y-169437676D02*
X246952381Y-169342438D01*
X246952381Y-169342438D02*
X247095238Y-169294819D01*
X247095238Y-169294819D02*
X247190476Y-169294819D01*
X247190476Y-169294819D02*
X247333333Y-169342438D01*
X247333333Y-169342438D02*
X247380952Y-169390057D01*
X248238095Y-169628152D02*
X248238095Y-170294819D01*
X248000000Y-169247200D02*
X247761905Y-169961485D01*
X247761905Y-169961485D02*
X248380952Y-169961485D01*
X249190476Y-170294819D02*
X249190476Y-169771009D01*
X249190476Y-169771009D02*
X249142857Y-169675771D01*
X249142857Y-169675771D02*
X249047619Y-169628152D01*
X249047619Y-169628152D02*
X248857143Y-169628152D01*
X248857143Y-169628152D02*
X248761905Y-169675771D01*
X249190476Y-170247200D02*
X249095238Y-170294819D01*
X249095238Y-170294819D02*
X248857143Y-170294819D01*
X248857143Y-170294819D02*
X248761905Y-170247200D01*
X248761905Y-170247200D02*
X248714286Y-170151961D01*
X248714286Y-170151961D02*
X248714286Y-170056723D01*
X248714286Y-170056723D02*
X248761905Y-169961485D01*
X248761905Y-169961485D02*
X248857143Y-169913866D01*
X248857143Y-169913866D02*
X249095238Y-169913866D01*
X249095238Y-169913866D02*
X249190476Y-169866247D01*
X241380952Y-181199580D02*
X241333333Y-181247200D01*
X241333333Y-181247200D02*
X241190476Y-181294819D01*
X241190476Y-181294819D02*
X241095238Y-181294819D01*
X241095238Y-181294819D02*
X240952381Y-181247200D01*
X240952381Y-181247200D02*
X240857143Y-181151961D01*
X240857143Y-181151961D02*
X240809524Y-181056723D01*
X240809524Y-181056723D02*
X240761905Y-180866247D01*
X240761905Y-180866247D02*
X240761905Y-180723390D01*
X240761905Y-180723390D02*
X240809524Y-180532914D01*
X240809524Y-180532914D02*
X240857143Y-180437676D01*
X240857143Y-180437676D02*
X240952381Y-180342438D01*
X240952381Y-180342438D02*
X241095238Y-180294819D01*
X241095238Y-180294819D02*
X241190476Y-180294819D01*
X241190476Y-180294819D02*
X241333333Y-180342438D01*
X241333333Y-180342438D02*
X241380952Y-180390057D01*
X242285714Y-180294819D02*
X241809524Y-180294819D01*
X241809524Y-180294819D02*
X241761905Y-180771009D01*
X241761905Y-180771009D02*
X241809524Y-180723390D01*
X241809524Y-180723390D02*
X241904762Y-180675771D01*
X241904762Y-180675771D02*
X242142857Y-180675771D01*
X242142857Y-180675771D02*
X242238095Y-180723390D01*
X242238095Y-180723390D02*
X242285714Y-180771009D01*
X242285714Y-180771009D02*
X242333333Y-180866247D01*
X242333333Y-180866247D02*
X242333333Y-181104342D01*
X242333333Y-181104342D02*
X242285714Y-181199580D01*
X242285714Y-181199580D02*
X242238095Y-181247200D01*
X242238095Y-181247200D02*
X242142857Y-181294819D01*
X242142857Y-181294819D02*
X241904762Y-181294819D01*
X241904762Y-181294819D02*
X241809524Y-181247200D01*
X241809524Y-181247200D02*
X241761905Y-181199580D01*
X243190476Y-181294819D02*
X243190476Y-180771009D01*
X243190476Y-180771009D02*
X243142857Y-180675771D01*
X243142857Y-180675771D02*
X243047619Y-180628152D01*
X243047619Y-180628152D02*
X242857143Y-180628152D01*
X242857143Y-180628152D02*
X242761905Y-180675771D01*
X243190476Y-181247200D02*
X243095238Y-181294819D01*
X243095238Y-181294819D02*
X242857143Y-181294819D01*
X242857143Y-181294819D02*
X242761905Y-181247200D01*
X242761905Y-181247200D02*
X242714286Y-181151961D01*
X242714286Y-181151961D02*
X242714286Y-181056723D01*
X242714286Y-181056723D02*
X242761905Y-180961485D01*
X242761905Y-180961485D02*
X242857143Y-180913866D01*
X242857143Y-180913866D02*
X243095238Y-180913866D01*
X243095238Y-180913866D02*
X243190476Y-180866247D01*
X241380952Y-169199580D02*
X241333333Y-169247200D01*
X241333333Y-169247200D02*
X241190476Y-169294819D01*
X241190476Y-169294819D02*
X241095238Y-169294819D01*
X241095238Y-169294819D02*
X240952381Y-169247200D01*
X240952381Y-169247200D02*
X240857143Y-169151961D01*
X240857143Y-169151961D02*
X240809524Y-169056723D01*
X240809524Y-169056723D02*
X240761905Y-168866247D01*
X240761905Y-168866247D02*
X240761905Y-168723390D01*
X240761905Y-168723390D02*
X240809524Y-168532914D01*
X240809524Y-168532914D02*
X240857143Y-168437676D01*
X240857143Y-168437676D02*
X240952381Y-168342438D01*
X240952381Y-168342438D02*
X241095238Y-168294819D01*
X241095238Y-168294819D02*
X241190476Y-168294819D01*
X241190476Y-168294819D02*
X241333333Y-168342438D01*
X241333333Y-168342438D02*
X241380952Y-168390057D01*
X241857143Y-169294819D02*
X242047619Y-169294819D01*
X242047619Y-169294819D02*
X242142857Y-169247200D01*
X242142857Y-169247200D02*
X242190476Y-169199580D01*
X242190476Y-169199580D02*
X242285714Y-169056723D01*
X242285714Y-169056723D02*
X242333333Y-168866247D01*
X242333333Y-168866247D02*
X242333333Y-168485295D01*
X242333333Y-168485295D02*
X242285714Y-168390057D01*
X242285714Y-168390057D02*
X242238095Y-168342438D01*
X242238095Y-168342438D02*
X242142857Y-168294819D01*
X242142857Y-168294819D02*
X241952381Y-168294819D01*
X241952381Y-168294819D02*
X241857143Y-168342438D01*
X241857143Y-168342438D02*
X241809524Y-168390057D01*
X241809524Y-168390057D02*
X241761905Y-168485295D01*
X241761905Y-168485295D02*
X241761905Y-168723390D01*
X241761905Y-168723390D02*
X241809524Y-168818628D01*
X241809524Y-168818628D02*
X241857143Y-168866247D01*
X241857143Y-168866247D02*
X241952381Y-168913866D01*
X241952381Y-168913866D02*
X242142857Y-168913866D01*
X242142857Y-168913866D02*
X242238095Y-168866247D01*
X242238095Y-168866247D02*
X242285714Y-168818628D01*
X242285714Y-168818628D02*
X242333333Y-168723390D01*
X243190476Y-169294819D02*
X243190476Y-168771009D01*
X243190476Y-168771009D02*
X243142857Y-168675771D01*
X243142857Y-168675771D02*
X243047619Y-168628152D01*
X243047619Y-168628152D02*
X242857143Y-168628152D01*
X242857143Y-168628152D02*
X242761905Y-168675771D01*
X243190476Y-169247200D02*
X243095238Y-169294819D01*
X243095238Y-169294819D02*
X242857143Y-169294819D01*
X242857143Y-169294819D02*
X242761905Y-169247200D01*
X242761905Y-169247200D02*
X242714286Y-169151961D01*
X242714286Y-169151961D02*
X242714286Y-169056723D01*
X242714286Y-169056723D02*
X242761905Y-168961485D01*
X242761905Y-168961485D02*
X242857143Y-168913866D01*
X242857143Y-168913866D02*
X243095238Y-168913866D01*
X243095238Y-168913866D02*
X243190476Y-168866247D01*
X255999999Y-181199580D02*
X255952380Y-181247200D01*
X255952380Y-181247200D02*
X255809523Y-181294819D01*
X255809523Y-181294819D02*
X255714285Y-181294819D01*
X255714285Y-181294819D02*
X255571428Y-181247200D01*
X255571428Y-181247200D02*
X255476190Y-181151961D01*
X255476190Y-181151961D02*
X255428571Y-181056723D01*
X255428571Y-181056723D02*
X255380952Y-180866247D01*
X255380952Y-180866247D02*
X255380952Y-180723390D01*
X255380952Y-180723390D02*
X255428571Y-180532914D01*
X255428571Y-180532914D02*
X255476190Y-180437676D01*
X255476190Y-180437676D02*
X255571428Y-180342438D01*
X255571428Y-180342438D02*
X255714285Y-180294819D01*
X255714285Y-180294819D02*
X255809523Y-180294819D01*
X255809523Y-180294819D02*
X255952380Y-180342438D01*
X255952380Y-180342438D02*
X255999999Y-180390057D01*
X256904761Y-180294819D02*
X256428571Y-180294819D01*
X256428571Y-180294819D02*
X256380952Y-180771009D01*
X256380952Y-180771009D02*
X256428571Y-180723390D01*
X256428571Y-180723390D02*
X256523809Y-180675771D01*
X256523809Y-180675771D02*
X256761904Y-180675771D01*
X256761904Y-180675771D02*
X256857142Y-180723390D01*
X256857142Y-180723390D02*
X256904761Y-180771009D01*
X256904761Y-180771009D02*
X256952380Y-180866247D01*
X256952380Y-180866247D02*
X256952380Y-181104342D01*
X256952380Y-181104342D02*
X256904761Y-181199580D01*
X256904761Y-181199580D02*
X256857142Y-181247200D01*
X256857142Y-181247200D02*
X256761904Y-181294819D01*
X256761904Y-181294819D02*
X256523809Y-181294819D01*
X256523809Y-181294819D02*
X256428571Y-181247200D01*
X256428571Y-181247200D02*
X256380952Y-181199580D01*
X257142857Y-181390057D02*
X257904761Y-181390057D01*
X258571428Y-180628152D02*
X258571428Y-181437676D01*
X258571428Y-181437676D02*
X258523809Y-181532914D01*
X258523809Y-181532914D02*
X258476190Y-181580533D01*
X258476190Y-181580533D02*
X258380952Y-181628152D01*
X258380952Y-181628152D02*
X258238095Y-181628152D01*
X258238095Y-181628152D02*
X258142857Y-181580533D01*
X258571428Y-181247200D02*
X258476190Y-181294819D01*
X258476190Y-181294819D02*
X258285714Y-181294819D01*
X258285714Y-181294819D02*
X258190476Y-181247200D01*
X258190476Y-181247200D02*
X258142857Y-181199580D01*
X258142857Y-181199580D02*
X258095238Y-181104342D01*
X258095238Y-181104342D02*
X258095238Y-180818628D01*
X258095238Y-180818628D02*
X258142857Y-180723390D01*
X258142857Y-180723390D02*
X258190476Y-180675771D01*
X258190476Y-180675771D02*
X258285714Y-180628152D01*
X258285714Y-180628152D02*
X258476190Y-180628152D01*
X258476190Y-180628152D02*
X258571428Y-180675771D01*
X134357142Y-199759580D02*
X134309523Y-199807200D01*
X134309523Y-199807200D02*
X134166666Y-199854819D01*
X134166666Y-199854819D02*
X134071428Y-199854819D01*
X134071428Y-199854819D02*
X133928571Y-199807200D01*
X133928571Y-199807200D02*
X133833333Y-199711961D01*
X133833333Y-199711961D02*
X133785714Y-199616723D01*
X133785714Y-199616723D02*
X133738095Y-199426247D01*
X133738095Y-199426247D02*
X133738095Y-199283390D01*
X133738095Y-199283390D02*
X133785714Y-199092914D01*
X133785714Y-199092914D02*
X133833333Y-198997676D01*
X133833333Y-198997676D02*
X133928571Y-198902438D01*
X133928571Y-198902438D02*
X134071428Y-198854819D01*
X134071428Y-198854819D02*
X134166666Y-198854819D01*
X134166666Y-198854819D02*
X134309523Y-198902438D01*
X134309523Y-198902438D02*
X134357142Y-198950057D01*
X135309523Y-199854819D02*
X134738095Y-199854819D01*
X135023809Y-199854819D02*
X135023809Y-198854819D01*
X135023809Y-198854819D02*
X134928571Y-198997676D01*
X134928571Y-198997676D02*
X134833333Y-199092914D01*
X134833333Y-199092914D02*
X134738095Y-199140533D01*
X136261904Y-199854819D02*
X135690476Y-199854819D01*
X135976190Y-199854819D02*
X135976190Y-198854819D01*
X135976190Y-198854819D02*
X135880952Y-198997676D01*
X135880952Y-198997676D02*
X135785714Y-199092914D01*
X135785714Y-199092914D02*
X135690476Y-199140533D01*
X191357142Y-152199580D02*
X191309523Y-152247200D01*
X191309523Y-152247200D02*
X191166666Y-152294819D01*
X191166666Y-152294819D02*
X191071428Y-152294819D01*
X191071428Y-152294819D02*
X190928571Y-152247200D01*
X190928571Y-152247200D02*
X190833333Y-152151961D01*
X190833333Y-152151961D02*
X190785714Y-152056723D01*
X190785714Y-152056723D02*
X190738095Y-151866247D01*
X190738095Y-151866247D02*
X190738095Y-151723390D01*
X190738095Y-151723390D02*
X190785714Y-151532914D01*
X190785714Y-151532914D02*
X190833333Y-151437676D01*
X190833333Y-151437676D02*
X190928571Y-151342438D01*
X190928571Y-151342438D02*
X191071428Y-151294819D01*
X191071428Y-151294819D02*
X191166666Y-151294819D01*
X191166666Y-151294819D02*
X191309523Y-151342438D01*
X191309523Y-151342438D02*
X191357142Y-151390057D01*
X191690476Y-151294819D02*
X192309523Y-151294819D01*
X192309523Y-151294819D02*
X191976190Y-151675771D01*
X191976190Y-151675771D02*
X192119047Y-151675771D01*
X192119047Y-151675771D02*
X192214285Y-151723390D01*
X192214285Y-151723390D02*
X192261904Y-151771009D01*
X192261904Y-151771009D02*
X192309523Y-151866247D01*
X192309523Y-151866247D02*
X192309523Y-152104342D01*
X192309523Y-152104342D02*
X192261904Y-152199580D01*
X192261904Y-152199580D02*
X192214285Y-152247200D01*
X192214285Y-152247200D02*
X192119047Y-152294819D01*
X192119047Y-152294819D02*
X191833333Y-152294819D01*
X191833333Y-152294819D02*
X191738095Y-152247200D01*
X191738095Y-152247200D02*
X191690476Y-152199580D01*
X193166666Y-151294819D02*
X192976190Y-151294819D01*
X192976190Y-151294819D02*
X192880952Y-151342438D01*
X192880952Y-151342438D02*
X192833333Y-151390057D01*
X192833333Y-151390057D02*
X192738095Y-151532914D01*
X192738095Y-151532914D02*
X192690476Y-151723390D01*
X192690476Y-151723390D02*
X192690476Y-152104342D01*
X192690476Y-152104342D02*
X192738095Y-152199580D01*
X192738095Y-152199580D02*
X192785714Y-152247200D01*
X192785714Y-152247200D02*
X192880952Y-152294819D01*
X192880952Y-152294819D02*
X193071428Y-152294819D01*
X193071428Y-152294819D02*
X193166666Y-152247200D01*
X193166666Y-152247200D02*
X193214285Y-152199580D01*
X193214285Y-152199580D02*
X193261904Y-152104342D01*
X193261904Y-152104342D02*
X193261904Y-151866247D01*
X193261904Y-151866247D02*
X193214285Y-151771009D01*
X193214285Y-151771009D02*
X193166666Y-151723390D01*
X193166666Y-151723390D02*
X193071428Y-151675771D01*
X193071428Y-151675771D02*
X192880952Y-151675771D01*
X192880952Y-151675771D02*
X192785714Y-151723390D01*
X192785714Y-151723390D02*
X192738095Y-151771009D01*
X192738095Y-151771009D02*
X192690476Y-151866247D01*
X239523809Y-142528628D02*
X239523809Y-143004819D01*
X239190476Y-142004819D02*
X239523809Y-142528628D01*
X239523809Y-142528628D02*
X239857142Y-142004819D01*
X240714285Y-143004819D02*
X240142857Y-143004819D01*
X240428571Y-143004819D02*
X240428571Y-142004819D01*
X240428571Y-142004819D02*
X240333333Y-142147676D01*
X240333333Y-142147676D02*
X240238095Y-142242914D01*
X240238095Y-142242914D02*
X240142857Y-142290533D01*
X199190476Y-76954819D02*
X199190476Y-77669104D01*
X199190476Y-77669104D02*
X199142857Y-77811961D01*
X199142857Y-77811961D02*
X199047619Y-77907200D01*
X199047619Y-77907200D02*
X198904762Y-77954819D01*
X198904762Y-77954819D02*
X198809524Y-77954819D01*
X200190476Y-77954819D02*
X199619048Y-77954819D01*
X199904762Y-77954819D02*
X199904762Y-76954819D01*
X199904762Y-76954819D02*
X199809524Y-77097676D01*
X199809524Y-77097676D02*
X199714286Y-77192914D01*
X199714286Y-77192914D02*
X199619048Y-77240533D01*
X201142857Y-77954819D02*
X200571429Y-77954819D01*
X200857143Y-77954819D02*
X200857143Y-76954819D01*
X200857143Y-76954819D02*
X200761905Y-77097676D01*
X200761905Y-77097676D02*
X200666667Y-77192914D01*
X200666667Y-77192914D02*
X200571429Y-77240533D01*
X161523809Y-127199580D02*
X161476190Y-127247200D01*
X161476190Y-127247200D02*
X161333333Y-127294819D01*
X161333333Y-127294819D02*
X161238095Y-127294819D01*
X161238095Y-127294819D02*
X161095238Y-127247200D01*
X161095238Y-127247200D02*
X161000000Y-127151961D01*
X161000000Y-127151961D02*
X160952381Y-127056723D01*
X160952381Y-127056723D02*
X160904762Y-126866247D01*
X160904762Y-126866247D02*
X160904762Y-126723390D01*
X160904762Y-126723390D02*
X160952381Y-126532914D01*
X160952381Y-126532914D02*
X161000000Y-126437676D01*
X161000000Y-126437676D02*
X161095238Y-126342438D01*
X161095238Y-126342438D02*
X161238095Y-126294819D01*
X161238095Y-126294819D02*
X161333333Y-126294819D01*
X161333333Y-126294819D02*
X161476190Y-126342438D01*
X161476190Y-126342438D02*
X161523809Y-126390057D01*
X162476190Y-127294819D02*
X161904762Y-127294819D01*
X162190476Y-127294819D02*
X162190476Y-126294819D01*
X162190476Y-126294819D02*
X162095238Y-126437676D01*
X162095238Y-126437676D02*
X162000000Y-126532914D01*
X162000000Y-126532914D02*
X161904762Y-126580533D01*
X163095238Y-126294819D02*
X163190476Y-126294819D01*
X163190476Y-126294819D02*
X163285714Y-126342438D01*
X163285714Y-126342438D02*
X163333333Y-126390057D01*
X163333333Y-126390057D02*
X163380952Y-126485295D01*
X163380952Y-126485295D02*
X163428571Y-126675771D01*
X163428571Y-126675771D02*
X163428571Y-126913866D01*
X163428571Y-126913866D02*
X163380952Y-127104342D01*
X163380952Y-127104342D02*
X163333333Y-127199580D01*
X163333333Y-127199580D02*
X163285714Y-127247200D01*
X163285714Y-127247200D02*
X163190476Y-127294819D01*
X163190476Y-127294819D02*
X163095238Y-127294819D01*
X163095238Y-127294819D02*
X163000000Y-127247200D01*
X163000000Y-127247200D02*
X162952381Y-127199580D01*
X162952381Y-127199580D02*
X162904762Y-127104342D01*
X162904762Y-127104342D02*
X162857143Y-126913866D01*
X162857143Y-126913866D02*
X162857143Y-126675771D01*
X162857143Y-126675771D02*
X162904762Y-126485295D01*
X162904762Y-126485295D02*
X162952381Y-126390057D01*
X162952381Y-126390057D02*
X163000000Y-126342438D01*
X163000000Y-126342438D02*
X163095238Y-126294819D01*
X163619048Y-127390057D02*
X164380952Y-127390057D01*
X164619048Y-127294819D02*
X164619048Y-126294819D01*
X164619048Y-126675771D02*
X164714286Y-126628152D01*
X164714286Y-126628152D02*
X164904762Y-126628152D01*
X164904762Y-126628152D02*
X165000000Y-126675771D01*
X165000000Y-126675771D02*
X165047619Y-126723390D01*
X165047619Y-126723390D02*
X165095238Y-126818628D01*
X165095238Y-126818628D02*
X165095238Y-127104342D01*
X165095238Y-127104342D02*
X165047619Y-127199580D01*
X165047619Y-127199580D02*
X165000000Y-127247200D01*
X165000000Y-127247200D02*
X164904762Y-127294819D01*
X164904762Y-127294819D02*
X164714286Y-127294819D01*
X164714286Y-127294819D02*
X164619048Y-127247200D01*
X216761905Y-108004819D02*
X216761905Y-108814342D01*
X216761905Y-108814342D02*
X216809524Y-108909580D01*
X216809524Y-108909580D02*
X216857143Y-108957200D01*
X216857143Y-108957200D02*
X216952381Y-109004819D01*
X216952381Y-109004819D02*
X217142857Y-109004819D01*
X217142857Y-109004819D02*
X217238095Y-108957200D01*
X217238095Y-108957200D02*
X217285714Y-108909580D01*
X217285714Y-108909580D02*
X217333333Y-108814342D01*
X217333333Y-108814342D02*
X217333333Y-108004819D01*
X217761905Y-108100057D02*
X217809524Y-108052438D01*
X217809524Y-108052438D02*
X217904762Y-108004819D01*
X217904762Y-108004819D02*
X218142857Y-108004819D01*
X218142857Y-108004819D02*
X218238095Y-108052438D01*
X218238095Y-108052438D02*
X218285714Y-108100057D01*
X218285714Y-108100057D02*
X218333333Y-108195295D01*
X218333333Y-108195295D02*
X218333333Y-108290533D01*
X218333333Y-108290533D02*
X218285714Y-108433390D01*
X218285714Y-108433390D02*
X217714286Y-109004819D01*
X217714286Y-109004819D02*
X218333333Y-109004819D01*
X219190476Y-108338152D02*
X219190476Y-109004819D01*
X218952381Y-107957200D02*
X218714286Y-108671485D01*
X218714286Y-108671485D02*
X219333333Y-108671485D01*
X257309726Y-175423332D02*
X258216869Y-175423332D01*
X258216869Y-175423332D02*
X258398297Y-175483809D01*
X258398297Y-175483809D02*
X258519250Y-175604761D01*
X258519250Y-175604761D02*
X258579726Y-175786190D01*
X258579726Y-175786190D02*
X258579726Y-175907142D01*
X257430678Y-174879047D02*
X257370202Y-174818571D01*
X257370202Y-174818571D02*
X257309726Y-174697618D01*
X257309726Y-174697618D02*
X257309726Y-174395237D01*
X257309726Y-174395237D02*
X257370202Y-174274285D01*
X257370202Y-174274285D02*
X257430678Y-174213809D01*
X257430678Y-174213809D02*
X257551630Y-174153332D01*
X257551630Y-174153332D02*
X257672583Y-174153332D01*
X257672583Y-174153332D02*
X257854011Y-174213809D01*
X257854011Y-174213809D02*
X258579726Y-174939523D01*
X258579726Y-174939523D02*
X258579726Y-174153332D01*
X283666667Y-197907200D02*
X283809524Y-197954819D01*
X283809524Y-197954819D02*
X284047619Y-197954819D01*
X284047619Y-197954819D02*
X284142857Y-197907200D01*
X284142857Y-197907200D02*
X284190476Y-197859580D01*
X284190476Y-197859580D02*
X284238095Y-197764342D01*
X284238095Y-197764342D02*
X284238095Y-197669104D01*
X284238095Y-197669104D02*
X284190476Y-197573866D01*
X284190476Y-197573866D02*
X284142857Y-197526247D01*
X284142857Y-197526247D02*
X284047619Y-197478628D01*
X284047619Y-197478628D02*
X283857143Y-197431009D01*
X283857143Y-197431009D02*
X283761905Y-197383390D01*
X283761905Y-197383390D02*
X283714286Y-197335771D01*
X283714286Y-197335771D02*
X283666667Y-197240533D01*
X283666667Y-197240533D02*
X283666667Y-197145295D01*
X283666667Y-197145295D02*
X283714286Y-197050057D01*
X283714286Y-197050057D02*
X283761905Y-197002438D01*
X283761905Y-197002438D02*
X283857143Y-196954819D01*
X283857143Y-196954819D02*
X284095238Y-196954819D01*
X284095238Y-196954819D02*
X284238095Y-197002438D01*
X284571429Y-196954819D02*
X284809524Y-197954819D01*
X284809524Y-197954819D02*
X285000000Y-197240533D01*
X285000000Y-197240533D02*
X285190476Y-197954819D01*
X285190476Y-197954819D02*
X285428572Y-196954819D01*
X286333333Y-197954819D02*
X285761905Y-197954819D01*
X286047619Y-197954819D02*
X286047619Y-196954819D01*
X286047619Y-196954819D02*
X285952381Y-197097676D01*
X285952381Y-197097676D02*
X285857143Y-197192914D01*
X285857143Y-197192914D02*
X285761905Y-197240533D01*
X190761905Y-202054819D02*
X190761905Y-202864342D01*
X190761905Y-202864342D02*
X190809524Y-202959580D01*
X190809524Y-202959580D02*
X190857143Y-203007200D01*
X190857143Y-203007200D02*
X190952381Y-203054819D01*
X190952381Y-203054819D02*
X191142857Y-203054819D01*
X191142857Y-203054819D02*
X191238095Y-203007200D01*
X191238095Y-203007200D02*
X191285714Y-202959580D01*
X191285714Y-202959580D02*
X191333333Y-202864342D01*
X191333333Y-202864342D02*
X191333333Y-202054819D01*
X192333333Y-203054819D02*
X191761905Y-203054819D01*
X192047619Y-203054819D02*
X192047619Y-202054819D01*
X192047619Y-202054819D02*
X191952381Y-202197676D01*
X191952381Y-202197676D02*
X191857143Y-202292914D01*
X191857143Y-202292914D02*
X191761905Y-202340533D01*
X192714286Y-202150057D02*
X192761905Y-202102438D01*
X192761905Y-202102438D02*
X192857143Y-202054819D01*
X192857143Y-202054819D02*
X193095238Y-202054819D01*
X193095238Y-202054819D02*
X193190476Y-202102438D01*
X193190476Y-202102438D02*
X193238095Y-202150057D01*
X193238095Y-202150057D02*
X193285714Y-202245295D01*
X193285714Y-202245295D02*
X193285714Y-202340533D01*
X193285714Y-202340533D02*
X193238095Y-202483390D01*
X193238095Y-202483390D02*
X192666667Y-203054819D01*
X192666667Y-203054819D02*
X193285714Y-203054819D01*
X143738095Y-217006819D02*
X144309523Y-217006819D01*
X144023809Y-218006819D02*
X144023809Y-217006819D01*
X144642857Y-218006819D02*
X144642857Y-217006819D01*
X144642857Y-217006819D02*
X145023809Y-217006819D01*
X145023809Y-217006819D02*
X145119047Y-217054438D01*
X145119047Y-217054438D02*
X145166666Y-217102057D01*
X145166666Y-217102057D02*
X145214285Y-217197295D01*
X145214285Y-217197295D02*
X145214285Y-217340152D01*
X145214285Y-217340152D02*
X145166666Y-217435390D01*
X145166666Y-217435390D02*
X145119047Y-217483009D01*
X145119047Y-217483009D02*
X145023809Y-217530628D01*
X145023809Y-217530628D02*
X144642857Y-217530628D01*
X146071428Y-217340152D02*
X146071428Y-218006819D01*
X145833333Y-216959200D02*
X145595238Y-217673485D01*
X145595238Y-217673485D02*
X146214285Y-217673485D01*
X124261905Y-179024819D02*
X124261905Y-178024819D01*
X124261905Y-178024819D02*
X124500000Y-178024819D01*
X124500000Y-178024819D02*
X124642857Y-178072438D01*
X124642857Y-178072438D02*
X124738095Y-178167676D01*
X124738095Y-178167676D02*
X124785714Y-178262914D01*
X124785714Y-178262914D02*
X124833333Y-178453390D01*
X124833333Y-178453390D02*
X124833333Y-178596247D01*
X124833333Y-178596247D02*
X124785714Y-178786723D01*
X124785714Y-178786723D02*
X124738095Y-178881961D01*
X124738095Y-178881961D02*
X124642857Y-178977200D01*
X124642857Y-178977200D02*
X124500000Y-179024819D01*
X124500000Y-179024819D02*
X124261905Y-179024819D01*
X125166667Y-178024819D02*
X125785714Y-178024819D01*
X125785714Y-178024819D02*
X125452381Y-178405771D01*
X125452381Y-178405771D02*
X125595238Y-178405771D01*
X125595238Y-178405771D02*
X125690476Y-178453390D01*
X125690476Y-178453390D02*
X125738095Y-178501009D01*
X125738095Y-178501009D02*
X125785714Y-178596247D01*
X125785714Y-178596247D02*
X125785714Y-178834342D01*
X125785714Y-178834342D02*
X125738095Y-178929580D01*
X125738095Y-178929580D02*
X125690476Y-178977200D01*
X125690476Y-178977200D02*
X125595238Y-179024819D01*
X125595238Y-179024819D02*
X125309524Y-179024819D01*
X125309524Y-179024819D02*
X125214286Y-178977200D01*
X125214286Y-178977200D02*
X125166667Y-178929580D01*
X124023809Y-184284819D02*
X123690476Y-183808628D01*
X123452381Y-184284819D02*
X123452381Y-183284819D01*
X123452381Y-183284819D02*
X123833333Y-183284819D01*
X123833333Y-183284819D02*
X123928571Y-183332438D01*
X123928571Y-183332438D02*
X123976190Y-183380057D01*
X123976190Y-183380057D02*
X124023809Y-183475295D01*
X124023809Y-183475295D02*
X124023809Y-183618152D01*
X124023809Y-183618152D02*
X123976190Y-183713390D01*
X123976190Y-183713390D02*
X123928571Y-183761009D01*
X123928571Y-183761009D02*
X123833333Y-183808628D01*
X123833333Y-183808628D02*
X123452381Y-183808628D01*
X124928571Y-183284819D02*
X124452381Y-183284819D01*
X124452381Y-183284819D02*
X124404762Y-183761009D01*
X124404762Y-183761009D02*
X124452381Y-183713390D01*
X124452381Y-183713390D02*
X124547619Y-183665771D01*
X124547619Y-183665771D02*
X124785714Y-183665771D01*
X124785714Y-183665771D02*
X124880952Y-183713390D01*
X124880952Y-183713390D02*
X124928571Y-183761009D01*
X124928571Y-183761009D02*
X124976190Y-183856247D01*
X124976190Y-183856247D02*
X124976190Y-184094342D01*
X124976190Y-184094342D02*
X124928571Y-184189580D01*
X124928571Y-184189580D02*
X124880952Y-184237200D01*
X124880952Y-184237200D02*
X124785714Y-184284819D01*
X124785714Y-184284819D02*
X124547619Y-184284819D01*
X124547619Y-184284819D02*
X124452381Y-184237200D01*
X124452381Y-184237200D02*
X124404762Y-184189580D01*
X125166667Y-184380057D02*
X125928571Y-184380057D01*
X126595238Y-184237200D02*
X126500000Y-184284819D01*
X126500000Y-184284819D02*
X126309524Y-184284819D01*
X126309524Y-184284819D02*
X126214286Y-184237200D01*
X126214286Y-184237200D02*
X126166667Y-184189580D01*
X126166667Y-184189580D02*
X126119048Y-184094342D01*
X126119048Y-184094342D02*
X126119048Y-183808628D01*
X126119048Y-183808628D02*
X126166667Y-183713390D01*
X126166667Y-183713390D02*
X126214286Y-183665771D01*
X126214286Y-183665771D02*
X126309524Y-183618152D01*
X126309524Y-183618152D02*
X126500000Y-183618152D01*
X126500000Y-183618152D02*
X126595238Y-183665771D01*
X244380952Y-181199580D02*
X244333333Y-181247200D01*
X244333333Y-181247200D02*
X244190476Y-181294819D01*
X244190476Y-181294819D02*
X244095238Y-181294819D01*
X244095238Y-181294819D02*
X243952381Y-181247200D01*
X243952381Y-181247200D02*
X243857143Y-181151961D01*
X243857143Y-181151961D02*
X243809524Y-181056723D01*
X243809524Y-181056723D02*
X243761905Y-180866247D01*
X243761905Y-180866247D02*
X243761905Y-180723390D01*
X243761905Y-180723390D02*
X243809524Y-180532914D01*
X243809524Y-180532914D02*
X243857143Y-180437676D01*
X243857143Y-180437676D02*
X243952381Y-180342438D01*
X243952381Y-180342438D02*
X244095238Y-180294819D01*
X244095238Y-180294819D02*
X244190476Y-180294819D01*
X244190476Y-180294819D02*
X244333333Y-180342438D01*
X244333333Y-180342438D02*
X244380952Y-180390057D01*
X245285714Y-180294819D02*
X244809524Y-180294819D01*
X244809524Y-180294819D02*
X244761905Y-180771009D01*
X244761905Y-180771009D02*
X244809524Y-180723390D01*
X244809524Y-180723390D02*
X244904762Y-180675771D01*
X244904762Y-180675771D02*
X245142857Y-180675771D01*
X245142857Y-180675771D02*
X245238095Y-180723390D01*
X245238095Y-180723390D02*
X245285714Y-180771009D01*
X245285714Y-180771009D02*
X245333333Y-180866247D01*
X245333333Y-180866247D02*
X245333333Y-181104342D01*
X245333333Y-181104342D02*
X245285714Y-181199580D01*
X245285714Y-181199580D02*
X245238095Y-181247200D01*
X245238095Y-181247200D02*
X245142857Y-181294819D01*
X245142857Y-181294819D02*
X244904762Y-181294819D01*
X244904762Y-181294819D02*
X244809524Y-181247200D01*
X244809524Y-181247200D02*
X244761905Y-181199580D01*
X245761905Y-181294819D02*
X245761905Y-180294819D01*
X245761905Y-180675771D02*
X245857143Y-180628152D01*
X245857143Y-180628152D02*
X246047619Y-180628152D01*
X246047619Y-180628152D02*
X246142857Y-180675771D01*
X246142857Y-180675771D02*
X246190476Y-180723390D01*
X246190476Y-180723390D02*
X246238095Y-180818628D01*
X246238095Y-180818628D02*
X246238095Y-181104342D01*
X246238095Y-181104342D02*
X246190476Y-181199580D01*
X246190476Y-181199580D02*
X246142857Y-181247200D01*
X246142857Y-181247200D02*
X246047619Y-181294819D01*
X246047619Y-181294819D02*
X245857143Y-181294819D01*
X245857143Y-181294819D02*
X245761905Y-181247200D01*
X191357142Y-111199580D02*
X191309523Y-111247200D01*
X191309523Y-111247200D02*
X191166666Y-111294819D01*
X191166666Y-111294819D02*
X191071428Y-111294819D01*
X191071428Y-111294819D02*
X190928571Y-111247200D01*
X190928571Y-111247200D02*
X190833333Y-111151961D01*
X190833333Y-111151961D02*
X190785714Y-111056723D01*
X190785714Y-111056723D02*
X190738095Y-110866247D01*
X190738095Y-110866247D02*
X190738095Y-110723390D01*
X190738095Y-110723390D02*
X190785714Y-110532914D01*
X190785714Y-110532914D02*
X190833333Y-110437676D01*
X190833333Y-110437676D02*
X190928571Y-110342438D01*
X190928571Y-110342438D02*
X191071428Y-110294819D01*
X191071428Y-110294819D02*
X191166666Y-110294819D01*
X191166666Y-110294819D02*
X191309523Y-110342438D01*
X191309523Y-110342438D02*
X191357142Y-110390057D01*
X191690476Y-110294819D02*
X192309523Y-110294819D01*
X192309523Y-110294819D02*
X191976190Y-110675771D01*
X191976190Y-110675771D02*
X192119047Y-110675771D01*
X192119047Y-110675771D02*
X192214285Y-110723390D01*
X192214285Y-110723390D02*
X192261904Y-110771009D01*
X192261904Y-110771009D02*
X192309523Y-110866247D01*
X192309523Y-110866247D02*
X192309523Y-111104342D01*
X192309523Y-111104342D02*
X192261904Y-111199580D01*
X192261904Y-111199580D02*
X192214285Y-111247200D01*
X192214285Y-111247200D02*
X192119047Y-111294819D01*
X192119047Y-111294819D02*
X191833333Y-111294819D01*
X191833333Y-111294819D02*
X191738095Y-111247200D01*
X191738095Y-111247200D02*
X191690476Y-111199580D01*
X192880952Y-110723390D02*
X192785714Y-110675771D01*
X192785714Y-110675771D02*
X192738095Y-110628152D01*
X192738095Y-110628152D02*
X192690476Y-110532914D01*
X192690476Y-110532914D02*
X192690476Y-110485295D01*
X192690476Y-110485295D02*
X192738095Y-110390057D01*
X192738095Y-110390057D02*
X192785714Y-110342438D01*
X192785714Y-110342438D02*
X192880952Y-110294819D01*
X192880952Y-110294819D02*
X193071428Y-110294819D01*
X193071428Y-110294819D02*
X193166666Y-110342438D01*
X193166666Y-110342438D02*
X193214285Y-110390057D01*
X193214285Y-110390057D02*
X193261904Y-110485295D01*
X193261904Y-110485295D02*
X193261904Y-110532914D01*
X193261904Y-110532914D02*
X193214285Y-110628152D01*
X193214285Y-110628152D02*
X193166666Y-110675771D01*
X193166666Y-110675771D02*
X193071428Y-110723390D01*
X193071428Y-110723390D02*
X192880952Y-110723390D01*
X192880952Y-110723390D02*
X192785714Y-110771009D01*
X192785714Y-110771009D02*
X192738095Y-110818628D01*
X192738095Y-110818628D02*
X192690476Y-110913866D01*
X192690476Y-110913866D02*
X192690476Y-111104342D01*
X192690476Y-111104342D02*
X192738095Y-111199580D01*
X192738095Y-111199580D02*
X192785714Y-111247200D01*
X192785714Y-111247200D02*
X192880952Y-111294819D01*
X192880952Y-111294819D02*
X193071428Y-111294819D01*
X193071428Y-111294819D02*
X193166666Y-111247200D01*
X193166666Y-111247200D02*
X193214285Y-111199580D01*
X193214285Y-111199580D02*
X193261904Y-111104342D01*
X193261904Y-111104342D02*
X193261904Y-110913866D01*
X193261904Y-110913866D02*
X193214285Y-110818628D01*
X193214285Y-110818628D02*
X193166666Y-110771009D01*
X193166666Y-110771009D02*
X193071428Y-110723390D01*
X231380952Y-167284819D02*
X231047619Y-166808628D01*
X230809524Y-167284819D02*
X230809524Y-166284819D01*
X230809524Y-166284819D02*
X231190476Y-166284819D01*
X231190476Y-166284819D02*
X231285714Y-166332438D01*
X231285714Y-166332438D02*
X231333333Y-166380057D01*
X231333333Y-166380057D02*
X231380952Y-166475295D01*
X231380952Y-166475295D02*
X231380952Y-166618152D01*
X231380952Y-166618152D02*
X231333333Y-166713390D01*
X231333333Y-166713390D02*
X231285714Y-166761009D01*
X231285714Y-166761009D02*
X231190476Y-166808628D01*
X231190476Y-166808628D02*
X230809524Y-166808628D01*
X232333333Y-167284819D02*
X231761905Y-167284819D01*
X232047619Y-167284819D02*
X232047619Y-166284819D01*
X232047619Y-166284819D02*
X231952381Y-166427676D01*
X231952381Y-166427676D02*
X231857143Y-166522914D01*
X231857143Y-166522914D02*
X231761905Y-166570533D01*
X233190476Y-167284819D02*
X233190476Y-166761009D01*
X233190476Y-166761009D02*
X233142857Y-166665771D01*
X233142857Y-166665771D02*
X233047619Y-166618152D01*
X233047619Y-166618152D02*
X232857143Y-166618152D01*
X232857143Y-166618152D02*
X232761905Y-166665771D01*
X233190476Y-167237200D02*
X233095238Y-167284819D01*
X233095238Y-167284819D02*
X232857143Y-167284819D01*
X232857143Y-167284819D02*
X232761905Y-167237200D01*
X232761905Y-167237200D02*
X232714286Y-167141961D01*
X232714286Y-167141961D02*
X232714286Y-167046723D01*
X232714286Y-167046723D02*
X232761905Y-166951485D01*
X232761905Y-166951485D02*
X232857143Y-166903866D01*
X232857143Y-166903866D02*
X233095238Y-166903866D01*
X233095238Y-166903866D02*
X233190476Y-166856247D01*
X119261905Y-179024819D02*
X119261905Y-178024819D01*
X119261905Y-178024819D02*
X119500000Y-178024819D01*
X119500000Y-178024819D02*
X119642857Y-178072438D01*
X119642857Y-178072438D02*
X119738095Y-178167676D01*
X119738095Y-178167676D02*
X119785714Y-178262914D01*
X119785714Y-178262914D02*
X119833333Y-178453390D01*
X119833333Y-178453390D02*
X119833333Y-178596247D01*
X119833333Y-178596247D02*
X119785714Y-178786723D01*
X119785714Y-178786723D02*
X119738095Y-178881961D01*
X119738095Y-178881961D02*
X119642857Y-178977200D01*
X119642857Y-178977200D02*
X119500000Y-179024819D01*
X119500000Y-179024819D02*
X119261905Y-179024819D01*
X120214286Y-178120057D02*
X120261905Y-178072438D01*
X120261905Y-178072438D02*
X120357143Y-178024819D01*
X120357143Y-178024819D02*
X120595238Y-178024819D01*
X120595238Y-178024819D02*
X120690476Y-178072438D01*
X120690476Y-178072438D02*
X120738095Y-178120057D01*
X120738095Y-178120057D02*
X120785714Y-178215295D01*
X120785714Y-178215295D02*
X120785714Y-178310533D01*
X120785714Y-178310533D02*
X120738095Y-178453390D01*
X120738095Y-178453390D02*
X120166667Y-179024819D01*
X120166667Y-179024819D02*
X120785714Y-179024819D01*
X163738095Y-217006819D02*
X164309523Y-217006819D01*
X164023809Y-218006819D02*
X164023809Y-217006819D01*
X164642857Y-218006819D02*
X164642857Y-217006819D01*
X164642857Y-217006819D02*
X165023809Y-217006819D01*
X165023809Y-217006819D02*
X165119047Y-217054438D01*
X165119047Y-217054438D02*
X165166666Y-217102057D01*
X165166666Y-217102057D02*
X165214285Y-217197295D01*
X165214285Y-217197295D02*
X165214285Y-217340152D01*
X165214285Y-217340152D02*
X165166666Y-217435390D01*
X165166666Y-217435390D02*
X165119047Y-217483009D01*
X165119047Y-217483009D02*
X165023809Y-217530628D01*
X165023809Y-217530628D02*
X164642857Y-217530628D01*
X166071428Y-217006819D02*
X165880952Y-217006819D01*
X165880952Y-217006819D02*
X165785714Y-217054438D01*
X165785714Y-217054438D02*
X165738095Y-217102057D01*
X165738095Y-217102057D02*
X165642857Y-217244914D01*
X165642857Y-217244914D02*
X165595238Y-217435390D01*
X165595238Y-217435390D02*
X165595238Y-217816342D01*
X165595238Y-217816342D02*
X165642857Y-217911580D01*
X165642857Y-217911580D02*
X165690476Y-217959200D01*
X165690476Y-217959200D02*
X165785714Y-218006819D01*
X165785714Y-218006819D02*
X165976190Y-218006819D01*
X165976190Y-218006819D02*
X166071428Y-217959200D01*
X166071428Y-217959200D02*
X166119047Y-217911580D01*
X166119047Y-217911580D02*
X166166666Y-217816342D01*
X166166666Y-217816342D02*
X166166666Y-217578247D01*
X166166666Y-217578247D02*
X166119047Y-217483009D01*
X166119047Y-217483009D02*
X166071428Y-217435390D01*
X166071428Y-217435390D02*
X165976190Y-217387771D01*
X165976190Y-217387771D02*
X165785714Y-217387771D01*
X165785714Y-217387771D02*
X165690476Y-217435390D01*
X165690476Y-217435390D02*
X165642857Y-217483009D01*
X165642857Y-217483009D02*
X165595238Y-217578247D01*
X228761905Y-145124819D02*
X228761905Y-145934342D01*
X228761905Y-145934342D02*
X228809524Y-146029580D01*
X228809524Y-146029580D02*
X228857143Y-146077200D01*
X228857143Y-146077200D02*
X228952381Y-146124819D01*
X228952381Y-146124819D02*
X229142857Y-146124819D01*
X229142857Y-146124819D02*
X229238095Y-146077200D01*
X229238095Y-146077200D02*
X229285714Y-146029580D01*
X229285714Y-146029580D02*
X229333333Y-145934342D01*
X229333333Y-145934342D02*
X229333333Y-145124819D01*
X229761905Y-145220057D02*
X229809524Y-145172438D01*
X229809524Y-145172438D02*
X229904762Y-145124819D01*
X229904762Y-145124819D02*
X230142857Y-145124819D01*
X230142857Y-145124819D02*
X230238095Y-145172438D01*
X230238095Y-145172438D02*
X230285714Y-145220057D01*
X230285714Y-145220057D02*
X230333333Y-145315295D01*
X230333333Y-145315295D02*
X230333333Y-145410533D01*
X230333333Y-145410533D02*
X230285714Y-145553390D01*
X230285714Y-145553390D02*
X229714286Y-146124819D01*
X229714286Y-146124819D02*
X230333333Y-146124819D01*
X230952381Y-145124819D02*
X231047619Y-145124819D01*
X231047619Y-145124819D02*
X231142857Y-145172438D01*
X231142857Y-145172438D02*
X231190476Y-145220057D01*
X231190476Y-145220057D02*
X231238095Y-145315295D01*
X231238095Y-145315295D02*
X231285714Y-145505771D01*
X231285714Y-145505771D02*
X231285714Y-145743866D01*
X231285714Y-145743866D02*
X231238095Y-145934342D01*
X231238095Y-145934342D02*
X231190476Y-146029580D01*
X231190476Y-146029580D02*
X231142857Y-146077200D01*
X231142857Y-146077200D02*
X231047619Y-146124819D01*
X231047619Y-146124819D02*
X230952381Y-146124819D01*
X230952381Y-146124819D02*
X230857143Y-146077200D01*
X230857143Y-146077200D02*
X230809524Y-146029580D01*
X230809524Y-146029580D02*
X230761905Y-145934342D01*
X230761905Y-145934342D02*
X230714286Y-145743866D01*
X230714286Y-145743866D02*
X230714286Y-145505771D01*
X230714286Y-145505771D02*
X230761905Y-145315295D01*
X230761905Y-145315295D02*
X230809524Y-145220057D01*
X230809524Y-145220057D02*
X230857143Y-145172438D01*
X230857143Y-145172438D02*
X230952381Y-145124819D01*
X204357142Y-111199580D02*
X204309523Y-111247200D01*
X204309523Y-111247200D02*
X204166666Y-111294819D01*
X204166666Y-111294819D02*
X204071428Y-111294819D01*
X204071428Y-111294819D02*
X203928571Y-111247200D01*
X203928571Y-111247200D02*
X203833333Y-111151961D01*
X203833333Y-111151961D02*
X203785714Y-111056723D01*
X203785714Y-111056723D02*
X203738095Y-110866247D01*
X203738095Y-110866247D02*
X203738095Y-110723390D01*
X203738095Y-110723390D02*
X203785714Y-110532914D01*
X203785714Y-110532914D02*
X203833333Y-110437676D01*
X203833333Y-110437676D02*
X203928571Y-110342438D01*
X203928571Y-110342438D02*
X204071428Y-110294819D01*
X204071428Y-110294819D02*
X204166666Y-110294819D01*
X204166666Y-110294819D02*
X204309523Y-110342438D01*
X204309523Y-110342438D02*
X204357142Y-110390057D01*
X205214285Y-110628152D02*
X205214285Y-111294819D01*
X204976190Y-110247200D02*
X204738095Y-110961485D01*
X204738095Y-110961485D02*
X205357142Y-110961485D01*
X205928571Y-110294819D02*
X206023809Y-110294819D01*
X206023809Y-110294819D02*
X206119047Y-110342438D01*
X206119047Y-110342438D02*
X206166666Y-110390057D01*
X206166666Y-110390057D02*
X206214285Y-110485295D01*
X206214285Y-110485295D02*
X206261904Y-110675771D01*
X206261904Y-110675771D02*
X206261904Y-110913866D01*
X206261904Y-110913866D02*
X206214285Y-111104342D01*
X206214285Y-111104342D02*
X206166666Y-111199580D01*
X206166666Y-111199580D02*
X206119047Y-111247200D01*
X206119047Y-111247200D02*
X206023809Y-111294819D01*
X206023809Y-111294819D02*
X205928571Y-111294819D01*
X205928571Y-111294819D02*
X205833333Y-111247200D01*
X205833333Y-111247200D02*
X205785714Y-111199580D01*
X205785714Y-111199580D02*
X205738095Y-111104342D01*
X205738095Y-111104342D02*
X205690476Y-110913866D01*
X205690476Y-110913866D02*
X205690476Y-110675771D01*
X205690476Y-110675771D02*
X205738095Y-110485295D01*
X205738095Y-110485295D02*
X205785714Y-110390057D01*
X205785714Y-110390057D02*
X205833333Y-110342438D01*
X205833333Y-110342438D02*
X205928571Y-110294819D01*
X150761905Y-202054819D02*
X150761905Y-202864342D01*
X150761905Y-202864342D02*
X150809524Y-202959580D01*
X150809524Y-202959580D02*
X150857143Y-203007200D01*
X150857143Y-203007200D02*
X150952381Y-203054819D01*
X150952381Y-203054819D02*
X151142857Y-203054819D01*
X151142857Y-203054819D02*
X151238095Y-203007200D01*
X151238095Y-203007200D02*
X151285714Y-202959580D01*
X151285714Y-202959580D02*
X151333333Y-202864342D01*
X151333333Y-202864342D02*
X151333333Y-202054819D01*
X152333333Y-203054819D02*
X151761905Y-203054819D01*
X152047619Y-203054819D02*
X152047619Y-202054819D01*
X152047619Y-202054819D02*
X151952381Y-202197676D01*
X151952381Y-202197676D02*
X151857143Y-202292914D01*
X151857143Y-202292914D02*
X151761905Y-202340533D01*
X152666667Y-202054819D02*
X153285714Y-202054819D01*
X153285714Y-202054819D02*
X152952381Y-202435771D01*
X152952381Y-202435771D02*
X153095238Y-202435771D01*
X153095238Y-202435771D02*
X153190476Y-202483390D01*
X153190476Y-202483390D02*
X153238095Y-202531009D01*
X153238095Y-202531009D02*
X153285714Y-202626247D01*
X153285714Y-202626247D02*
X153285714Y-202864342D01*
X153285714Y-202864342D02*
X153238095Y-202959580D01*
X153238095Y-202959580D02*
X153190476Y-203007200D01*
X153190476Y-203007200D02*
X153095238Y-203054819D01*
X153095238Y-203054819D02*
X152809524Y-203054819D01*
X152809524Y-203054819D02*
X152714286Y-203007200D01*
X152714286Y-203007200D02*
X152666667Y-202959580D01*
X294666667Y-217254819D02*
X294666667Y-216254819D01*
X294666667Y-216254819D02*
X295000000Y-216969104D01*
X295000000Y-216969104D02*
X295333333Y-216254819D01*
X295333333Y-216254819D02*
X295333333Y-217254819D01*
X295809524Y-217254819D02*
X295809524Y-216254819D01*
X295809524Y-216731009D02*
X296380952Y-216731009D01*
X296380952Y-217254819D02*
X296380952Y-216254819D01*
X297285714Y-216588152D02*
X297285714Y-217254819D01*
X297047619Y-216207200D02*
X296809524Y-216921485D01*
X296809524Y-216921485D02*
X297428571Y-216921485D01*
X119666666Y-208281009D02*
X119333333Y-208281009D01*
X119333333Y-208804819D02*
X119333333Y-207804819D01*
X119333333Y-207804819D02*
X119809523Y-207804819D01*
X120714285Y-208804819D02*
X120142857Y-208804819D01*
X120428571Y-208804819D02*
X120428571Y-207804819D01*
X120428571Y-207804819D02*
X120333333Y-207947676D01*
X120333333Y-207947676D02*
X120238095Y-208042914D01*
X120238095Y-208042914D02*
X120142857Y-208090533D01*
X207357142Y-152199580D02*
X207309523Y-152247200D01*
X207309523Y-152247200D02*
X207166666Y-152294819D01*
X207166666Y-152294819D02*
X207071428Y-152294819D01*
X207071428Y-152294819D02*
X206928571Y-152247200D01*
X206928571Y-152247200D02*
X206833333Y-152151961D01*
X206833333Y-152151961D02*
X206785714Y-152056723D01*
X206785714Y-152056723D02*
X206738095Y-151866247D01*
X206738095Y-151866247D02*
X206738095Y-151723390D01*
X206738095Y-151723390D02*
X206785714Y-151532914D01*
X206785714Y-151532914D02*
X206833333Y-151437676D01*
X206833333Y-151437676D02*
X206928571Y-151342438D01*
X206928571Y-151342438D02*
X207071428Y-151294819D01*
X207071428Y-151294819D02*
X207166666Y-151294819D01*
X207166666Y-151294819D02*
X207309523Y-151342438D01*
X207309523Y-151342438D02*
X207357142Y-151390057D01*
X207690476Y-151294819D02*
X208309523Y-151294819D01*
X208309523Y-151294819D02*
X207976190Y-151675771D01*
X207976190Y-151675771D02*
X208119047Y-151675771D01*
X208119047Y-151675771D02*
X208214285Y-151723390D01*
X208214285Y-151723390D02*
X208261904Y-151771009D01*
X208261904Y-151771009D02*
X208309523Y-151866247D01*
X208309523Y-151866247D02*
X208309523Y-152104342D01*
X208309523Y-152104342D02*
X208261904Y-152199580D01*
X208261904Y-152199580D02*
X208214285Y-152247200D01*
X208214285Y-152247200D02*
X208119047Y-152294819D01*
X208119047Y-152294819D02*
X207833333Y-152294819D01*
X207833333Y-152294819D02*
X207738095Y-152247200D01*
X207738095Y-152247200D02*
X207690476Y-152199580D01*
X208642857Y-151294819D02*
X209309523Y-151294819D01*
X209309523Y-151294819D02*
X208880952Y-152294819D01*
X105166666Y-203704819D02*
X105166666Y-204419104D01*
X105166666Y-204419104D02*
X105119047Y-204561961D01*
X105119047Y-204561961D02*
X105023809Y-204657200D01*
X105023809Y-204657200D02*
X104880952Y-204704819D01*
X104880952Y-204704819D02*
X104785714Y-204704819D01*
X106166666Y-204704819D02*
X105595238Y-204704819D01*
X105880952Y-204704819D02*
X105880952Y-203704819D01*
X105880952Y-203704819D02*
X105785714Y-203847676D01*
X105785714Y-203847676D02*
X105690476Y-203942914D01*
X105690476Y-203942914D02*
X105595238Y-203990533D01*
X180761905Y-202054819D02*
X180761905Y-202864342D01*
X180761905Y-202864342D02*
X180809524Y-202959580D01*
X180809524Y-202959580D02*
X180857143Y-203007200D01*
X180857143Y-203007200D02*
X180952381Y-203054819D01*
X180952381Y-203054819D02*
X181142857Y-203054819D01*
X181142857Y-203054819D02*
X181238095Y-203007200D01*
X181238095Y-203007200D02*
X181285714Y-202959580D01*
X181285714Y-202959580D02*
X181333333Y-202864342D01*
X181333333Y-202864342D02*
X181333333Y-202054819D01*
X182333333Y-203054819D02*
X181761905Y-203054819D01*
X182047619Y-203054819D02*
X182047619Y-202054819D01*
X182047619Y-202054819D02*
X181952381Y-202197676D01*
X181952381Y-202197676D02*
X181857143Y-202292914D01*
X181857143Y-202292914D02*
X181761905Y-202340533D01*
X182952381Y-202054819D02*
X183047619Y-202054819D01*
X183047619Y-202054819D02*
X183142857Y-202102438D01*
X183142857Y-202102438D02*
X183190476Y-202150057D01*
X183190476Y-202150057D02*
X183238095Y-202245295D01*
X183238095Y-202245295D02*
X183285714Y-202435771D01*
X183285714Y-202435771D02*
X183285714Y-202673866D01*
X183285714Y-202673866D02*
X183238095Y-202864342D01*
X183238095Y-202864342D02*
X183190476Y-202959580D01*
X183190476Y-202959580D02*
X183142857Y-203007200D01*
X183142857Y-203007200D02*
X183047619Y-203054819D01*
X183047619Y-203054819D02*
X182952381Y-203054819D01*
X182952381Y-203054819D02*
X182857143Y-203007200D01*
X182857143Y-203007200D02*
X182809524Y-202959580D01*
X182809524Y-202959580D02*
X182761905Y-202864342D01*
X182761905Y-202864342D02*
X182714286Y-202673866D01*
X182714286Y-202673866D02*
X182714286Y-202435771D01*
X182714286Y-202435771D02*
X182761905Y-202245295D01*
X182761905Y-202245295D02*
X182809524Y-202150057D01*
X182809524Y-202150057D02*
X182857143Y-202102438D01*
X182857143Y-202102438D02*
X182952381Y-202054819D01*
X102666667Y-217254819D02*
X102666667Y-216254819D01*
X102666667Y-216254819D02*
X103000000Y-216969104D01*
X103000000Y-216969104D02*
X103333333Y-216254819D01*
X103333333Y-216254819D02*
X103333333Y-217254819D01*
X103809524Y-217254819D02*
X103809524Y-216254819D01*
X103809524Y-216731009D02*
X104380952Y-216731009D01*
X104380952Y-217254819D02*
X104380952Y-216254819D01*
X104761905Y-216254819D02*
X105380952Y-216254819D01*
X105380952Y-216254819D02*
X105047619Y-216635771D01*
X105047619Y-216635771D02*
X105190476Y-216635771D01*
X105190476Y-216635771D02*
X105285714Y-216683390D01*
X105285714Y-216683390D02*
X105333333Y-216731009D01*
X105333333Y-216731009D02*
X105380952Y-216826247D01*
X105380952Y-216826247D02*
X105380952Y-217064342D01*
X105380952Y-217064342D02*
X105333333Y-217159580D01*
X105333333Y-217159580D02*
X105285714Y-217207200D01*
X105285714Y-217207200D02*
X105190476Y-217254819D01*
X105190476Y-217254819D02*
X104904762Y-217254819D01*
X104904762Y-217254819D02*
X104809524Y-217207200D01*
X104809524Y-217207200D02*
X104761905Y-217159580D01*
X137833333Y-203564819D02*
X137357143Y-203564819D01*
X137357143Y-203564819D02*
X137357143Y-202564819D01*
X138690476Y-203564819D02*
X138119048Y-203564819D01*
X138404762Y-203564819D02*
X138404762Y-202564819D01*
X138404762Y-202564819D02*
X138309524Y-202707676D01*
X138309524Y-202707676D02*
X138214286Y-202802914D01*
X138214286Y-202802914D02*
X138119048Y-202850533D01*
X158523809Y-127199580D02*
X158476190Y-127247200D01*
X158476190Y-127247200D02*
X158333333Y-127294819D01*
X158333333Y-127294819D02*
X158238095Y-127294819D01*
X158238095Y-127294819D02*
X158095238Y-127247200D01*
X158095238Y-127247200D02*
X158000000Y-127151961D01*
X158000000Y-127151961D02*
X157952381Y-127056723D01*
X157952381Y-127056723D02*
X157904762Y-126866247D01*
X157904762Y-126866247D02*
X157904762Y-126723390D01*
X157904762Y-126723390D02*
X157952381Y-126532914D01*
X157952381Y-126532914D02*
X158000000Y-126437676D01*
X158000000Y-126437676D02*
X158095238Y-126342438D01*
X158095238Y-126342438D02*
X158238095Y-126294819D01*
X158238095Y-126294819D02*
X158333333Y-126294819D01*
X158333333Y-126294819D02*
X158476190Y-126342438D01*
X158476190Y-126342438D02*
X158523809Y-126390057D01*
X159476190Y-127294819D02*
X158904762Y-127294819D01*
X159190476Y-127294819D02*
X159190476Y-126294819D01*
X159190476Y-126294819D02*
X159095238Y-126437676D01*
X159095238Y-126437676D02*
X159000000Y-126532914D01*
X159000000Y-126532914D02*
X158904762Y-126580533D01*
X160095238Y-126294819D02*
X160190476Y-126294819D01*
X160190476Y-126294819D02*
X160285714Y-126342438D01*
X160285714Y-126342438D02*
X160333333Y-126390057D01*
X160333333Y-126390057D02*
X160380952Y-126485295D01*
X160380952Y-126485295D02*
X160428571Y-126675771D01*
X160428571Y-126675771D02*
X160428571Y-126913866D01*
X160428571Y-126913866D02*
X160380952Y-127104342D01*
X160380952Y-127104342D02*
X160333333Y-127199580D01*
X160333333Y-127199580D02*
X160285714Y-127247200D01*
X160285714Y-127247200D02*
X160190476Y-127294819D01*
X160190476Y-127294819D02*
X160095238Y-127294819D01*
X160095238Y-127294819D02*
X160000000Y-127247200D01*
X160000000Y-127247200D02*
X159952381Y-127199580D01*
X159952381Y-127199580D02*
X159904762Y-127104342D01*
X159904762Y-127104342D02*
X159857143Y-126913866D01*
X159857143Y-126913866D02*
X159857143Y-126675771D01*
X159857143Y-126675771D02*
X159904762Y-126485295D01*
X159904762Y-126485295D02*
X159952381Y-126390057D01*
X159952381Y-126390057D02*
X160000000Y-126342438D01*
X160000000Y-126342438D02*
X160095238Y-126294819D01*
X160619048Y-127390057D02*
X161380952Y-127390057D01*
X162047619Y-127294819D02*
X162047619Y-126771009D01*
X162047619Y-126771009D02*
X162000000Y-126675771D01*
X162000000Y-126675771D02*
X161904762Y-126628152D01*
X161904762Y-126628152D02*
X161714286Y-126628152D01*
X161714286Y-126628152D02*
X161619048Y-126675771D01*
X162047619Y-127247200D02*
X161952381Y-127294819D01*
X161952381Y-127294819D02*
X161714286Y-127294819D01*
X161714286Y-127294819D02*
X161619048Y-127247200D01*
X161619048Y-127247200D02*
X161571429Y-127151961D01*
X161571429Y-127151961D02*
X161571429Y-127056723D01*
X161571429Y-127056723D02*
X161619048Y-126961485D01*
X161619048Y-126961485D02*
X161714286Y-126913866D01*
X161714286Y-126913866D02*
X161952381Y-126913866D01*
X161952381Y-126913866D02*
X162047619Y-126866247D01*
X114261905Y-179024819D02*
X114261905Y-178024819D01*
X114261905Y-178024819D02*
X114500000Y-178024819D01*
X114500000Y-178024819D02*
X114642857Y-178072438D01*
X114642857Y-178072438D02*
X114738095Y-178167676D01*
X114738095Y-178167676D02*
X114785714Y-178262914D01*
X114785714Y-178262914D02*
X114833333Y-178453390D01*
X114833333Y-178453390D02*
X114833333Y-178596247D01*
X114833333Y-178596247D02*
X114785714Y-178786723D01*
X114785714Y-178786723D02*
X114738095Y-178881961D01*
X114738095Y-178881961D02*
X114642857Y-178977200D01*
X114642857Y-178977200D02*
X114500000Y-179024819D01*
X114500000Y-179024819D02*
X114261905Y-179024819D01*
X115785714Y-179024819D02*
X115214286Y-179024819D01*
X115500000Y-179024819D02*
X115500000Y-178024819D01*
X115500000Y-178024819D02*
X115404762Y-178167676D01*
X115404762Y-178167676D02*
X115309524Y-178262914D01*
X115309524Y-178262914D02*
X115214286Y-178310533D01*
X230499999Y-143199580D02*
X230452380Y-143247200D01*
X230452380Y-143247200D02*
X230309523Y-143294819D01*
X230309523Y-143294819D02*
X230214285Y-143294819D01*
X230214285Y-143294819D02*
X230071428Y-143247200D01*
X230071428Y-143247200D02*
X229976190Y-143151961D01*
X229976190Y-143151961D02*
X229928571Y-143056723D01*
X229928571Y-143056723D02*
X229880952Y-142866247D01*
X229880952Y-142866247D02*
X229880952Y-142723390D01*
X229880952Y-142723390D02*
X229928571Y-142532914D01*
X229928571Y-142532914D02*
X229976190Y-142437676D01*
X229976190Y-142437676D02*
X230071428Y-142342438D01*
X230071428Y-142342438D02*
X230214285Y-142294819D01*
X230214285Y-142294819D02*
X230309523Y-142294819D01*
X230309523Y-142294819D02*
X230452380Y-142342438D01*
X230452380Y-142342438D02*
X230499999Y-142390057D01*
X231404761Y-142294819D02*
X230928571Y-142294819D01*
X230928571Y-142294819D02*
X230880952Y-142771009D01*
X230880952Y-142771009D02*
X230928571Y-142723390D01*
X230928571Y-142723390D02*
X231023809Y-142675771D01*
X231023809Y-142675771D02*
X231261904Y-142675771D01*
X231261904Y-142675771D02*
X231357142Y-142723390D01*
X231357142Y-142723390D02*
X231404761Y-142771009D01*
X231404761Y-142771009D02*
X231452380Y-142866247D01*
X231452380Y-142866247D02*
X231452380Y-143104342D01*
X231452380Y-143104342D02*
X231404761Y-143199580D01*
X231404761Y-143199580D02*
X231357142Y-143247200D01*
X231357142Y-143247200D02*
X231261904Y-143294819D01*
X231261904Y-143294819D02*
X231023809Y-143294819D01*
X231023809Y-143294819D02*
X230928571Y-143247200D01*
X230928571Y-143247200D02*
X230880952Y-143199580D01*
X232071428Y-142294819D02*
X232166666Y-142294819D01*
X232166666Y-142294819D02*
X232261904Y-142342438D01*
X232261904Y-142342438D02*
X232309523Y-142390057D01*
X232309523Y-142390057D02*
X232357142Y-142485295D01*
X232357142Y-142485295D02*
X232404761Y-142675771D01*
X232404761Y-142675771D02*
X232404761Y-142913866D01*
X232404761Y-142913866D02*
X232357142Y-143104342D01*
X232357142Y-143104342D02*
X232309523Y-143199580D01*
X232309523Y-143199580D02*
X232261904Y-143247200D01*
X232261904Y-143247200D02*
X232166666Y-143294819D01*
X232166666Y-143294819D02*
X232071428Y-143294819D01*
X232071428Y-143294819D02*
X231976190Y-143247200D01*
X231976190Y-143247200D02*
X231928571Y-143199580D01*
X231928571Y-143199580D02*
X231880952Y-143104342D01*
X231880952Y-143104342D02*
X231833333Y-142913866D01*
X231833333Y-142913866D02*
X231833333Y-142675771D01*
X231833333Y-142675771D02*
X231880952Y-142485295D01*
X231880952Y-142485295D02*
X231928571Y-142390057D01*
X231928571Y-142390057D02*
X231976190Y-142342438D01*
X231976190Y-142342438D02*
X232071428Y-142294819D01*
X232595238Y-143390057D02*
X233357142Y-143390057D01*
X233547619Y-142390057D02*
X233595238Y-142342438D01*
X233595238Y-142342438D02*
X233690476Y-142294819D01*
X233690476Y-142294819D02*
X233928571Y-142294819D01*
X233928571Y-142294819D02*
X234023809Y-142342438D01*
X234023809Y-142342438D02*
X234071428Y-142390057D01*
X234071428Y-142390057D02*
X234119047Y-142485295D01*
X234119047Y-142485295D02*
X234119047Y-142580533D01*
X234119047Y-142580533D02*
X234071428Y-142723390D01*
X234071428Y-142723390D02*
X233500000Y-143294819D01*
X233500000Y-143294819D02*
X234119047Y-143294819D01*
X215494819Y-80333333D02*
X216209104Y-80333333D01*
X216209104Y-80333333D02*
X216351961Y-80380952D01*
X216351961Y-80380952D02*
X216447200Y-80476190D01*
X216447200Y-80476190D02*
X216494819Y-80619047D01*
X216494819Y-80619047D02*
X216494819Y-80714285D01*
X216494819Y-79809523D02*
X216494819Y-79619047D01*
X216494819Y-79619047D02*
X216447200Y-79523809D01*
X216447200Y-79523809D02*
X216399580Y-79476190D01*
X216399580Y-79476190D02*
X216256723Y-79380952D01*
X216256723Y-79380952D02*
X216066247Y-79333333D01*
X216066247Y-79333333D02*
X215685295Y-79333333D01*
X215685295Y-79333333D02*
X215590057Y-79380952D01*
X215590057Y-79380952D02*
X215542438Y-79428571D01*
X215542438Y-79428571D02*
X215494819Y-79523809D01*
X215494819Y-79523809D02*
X215494819Y-79714285D01*
X215494819Y-79714285D02*
X215542438Y-79809523D01*
X215542438Y-79809523D02*
X215590057Y-79857142D01*
X215590057Y-79857142D02*
X215685295Y-79904761D01*
X215685295Y-79904761D02*
X215923390Y-79904761D01*
X215923390Y-79904761D02*
X216018628Y-79857142D01*
X216018628Y-79857142D02*
X216066247Y-79809523D01*
X216066247Y-79809523D02*
X216113866Y-79714285D01*
X216113866Y-79714285D02*
X216113866Y-79523809D01*
X216113866Y-79523809D02*
X216066247Y-79428571D01*
X216066247Y-79428571D02*
X216018628Y-79380952D01*
X216018628Y-79380952D02*
X215923390Y-79333333D01*
X179357142Y-199199580D02*
X179309523Y-199247200D01*
X179309523Y-199247200D02*
X179166666Y-199294819D01*
X179166666Y-199294819D02*
X179071428Y-199294819D01*
X179071428Y-199294819D02*
X178928571Y-199247200D01*
X178928571Y-199247200D02*
X178833333Y-199151961D01*
X178833333Y-199151961D02*
X178785714Y-199056723D01*
X178785714Y-199056723D02*
X178738095Y-198866247D01*
X178738095Y-198866247D02*
X178738095Y-198723390D01*
X178738095Y-198723390D02*
X178785714Y-198532914D01*
X178785714Y-198532914D02*
X178833333Y-198437676D01*
X178833333Y-198437676D02*
X178928571Y-198342438D01*
X178928571Y-198342438D02*
X179071428Y-198294819D01*
X179071428Y-198294819D02*
X179166666Y-198294819D01*
X179166666Y-198294819D02*
X179309523Y-198342438D01*
X179309523Y-198342438D02*
X179357142Y-198390057D01*
X180214285Y-198628152D02*
X180214285Y-199294819D01*
X179976190Y-198247200D02*
X179738095Y-198961485D01*
X179738095Y-198961485D02*
X180357142Y-198961485D01*
X181214285Y-198294819D02*
X180738095Y-198294819D01*
X180738095Y-198294819D02*
X180690476Y-198771009D01*
X180690476Y-198771009D02*
X180738095Y-198723390D01*
X180738095Y-198723390D02*
X180833333Y-198675771D01*
X180833333Y-198675771D02*
X181071428Y-198675771D01*
X181071428Y-198675771D02*
X181166666Y-198723390D01*
X181166666Y-198723390D02*
X181214285Y-198771009D01*
X181214285Y-198771009D02*
X181261904Y-198866247D01*
X181261904Y-198866247D02*
X181261904Y-199104342D01*
X181261904Y-199104342D02*
X181214285Y-199199580D01*
X181214285Y-199199580D02*
X181166666Y-199247200D01*
X181166666Y-199247200D02*
X181071428Y-199294819D01*
X181071428Y-199294819D02*
X180833333Y-199294819D01*
X180833333Y-199294819D02*
X180738095Y-199247200D01*
X180738095Y-199247200D02*
X180690476Y-199199580D01*
X201357142Y-167199580D02*
X201309523Y-167247200D01*
X201309523Y-167247200D02*
X201166666Y-167294819D01*
X201166666Y-167294819D02*
X201071428Y-167294819D01*
X201071428Y-167294819D02*
X200928571Y-167247200D01*
X200928571Y-167247200D02*
X200833333Y-167151961D01*
X200833333Y-167151961D02*
X200785714Y-167056723D01*
X200785714Y-167056723D02*
X200738095Y-166866247D01*
X200738095Y-166866247D02*
X200738095Y-166723390D01*
X200738095Y-166723390D02*
X200785714Y-166532914D01*
X200785714Y-166532914D02*
X200833333Y-166437676D01*
X200833333Y-166437676D02*
X200928571Y-166342438D01*
X200928571Y-166342438D02*
X201071428Y-166294819D01*
X201071428Y-166294819D02*
X201166666Y-166294819D01*
X201166666Y-166294819D02*
X201309523Y-166342438D01*
X201309523Y-166342438D02*
X201357142Y-166390057D01*
X201690476Y-166294819D02*
X202309523Y-166294819D01*
X202309523Y-166294819D02*
X201976190Y-166675771D01*
X201976190Y-166675771D02*
X202119047Y-166675771D01*
X202119047Y-166675771D02*
X202214285Y-166723390D01*
X202214285Y-166723390D02*
X202261904Y-166771009D01*
X202261904Y-166771009D02*
X202309523Y-166866247D01*
X202309523Y-166866247D02*
X202309523Y-167104342D01*
X202309523Y-167104342D02*
X202261904Y-167199580D01*
X202261904Y-167199580D02*
X202214285Y-167247200D01*
X202214285Y-167247200D02*
X202119047Y-167294819D01*
X202119047Y-167294819D02*
X201833333Y-167294819D01*
X201833333Y-167294819D02*
X201738095Y-167247200D01*
X201738095Y-167247200D02*
X201690476Y-167199580D01*
X202642857Y-166294819D02*
X203261904Y-166294819D01*
X203261904Y-166294819D02*
X202928571Y-166675771D01*
X202928571Y-166675771D02*
X203071428Y-166675771D01*
X203071428Y-166675771D02*
X203166666Y-166723390D01*
X203166666Y-166723390D02*
X203214285Y-166771009D01*
X203214285Y-166771009D02*
X203261904Y-166866247D01*
X203261904Y-166866247D02*
X203261904Y-167104342D01*
X203261904Y-167104342D02*
X203214285Y-167199580D01*
X203214285Y-167199580D02*
X203166666Y-167247200D01*
X203166666Y-167247200D02*
X203071428Y-167294819D01*
X203071428Y-167294819D02*
X202785714Y-167294819D01*
X202785714Y-167294819D02*
X202690476Y-167247200D01*
X202690476Y-167247200D02*
X202642857Y-167199580D01*
D11*
%TO.C,R5a*%
X114846359Y-184620000D02*
X115153641Y-184620000D01*
X114846359Y-185380000D02*
X115153641Y-185380000D01*
%TO.C,D5a*%
X247390000Y-167150000D02*
X247390000Y-168850000D01*
X247390000Y-167150000D02*
X250050000Y-167150000D01*
X247390000Y-168850000D02*
X250050000Y-168850000D01*
%TO.C,C41*%
X207892164Y-111640000D02*
X208107836Y-111640000D01*
X207892164Y-112360000D02*
X208107836Y-112360000D01*
%TO.C,C50_0*%
X225892164Y-143640000D02*
X226107836Y-143640000D01*
X225892164Y-144360000D02*
X226107836Y-144360000D01*
%TO.C,TP2*%
X125700000Y-219000000D02*
G75*
G02*
X124300000Y-219000000I-700000J0D01*
G01*
X124300000Y-219000000D02*
G75*
G02*
X125700000Y-219000000I700000J0D01*
G01*
%TO.C,C5_e*%
X250892164Y-181640000D02*
X251107836Y-181640000D01*
X250892164Y-182360000D02*
X251107836Y-182360000D01*
%TO.C,C2c*%
X147859420Y-199490000D02*
X148140580Y-199490000D01*
X147859420Y-200510000D02*
X148140580Y-200510000D01*
%TO.C,U21*%
X179690000Y-109390000D02*
X179690000Y-109815000D01*
X179690000Y-114610000D02*
X179690000Y-114185000D01*
X182000000Y-109390000D02*
X179690000Y-109390000D01*
X182000000Y-109390000D02*
X184310000Y-109390000D01*
X182000000Y-114610000D02*
X179690000Y-114610000D01*
X182000000Y-114610000D02*
X184310000Y-114610000D01*
X184310000Y-109390000D02*
X184310000Y-109815000D01*
X184310000Y-114610000D02*
X184310000Y-114185000D01*
X179100000Y-109815000D02*
X178860000Y-109485000D01*
X179340000Y-109485000D01*
X179100000Y-109815000D01*
G36*
X179100000Y-109815000D02*
G01*
X178860000Y-109485000D01*
X179340000Y-109485000D01*
X179100000Y-109815000D01*
G37*
%TO.C,C32*%
X197892164Y-167640000D02*
X198107836Y-167640000D01*
X197892164Y-168360000D02*
X198107836Y-168360000D01*
%TO.C,C35*%
X207892164Y-167640000D02*
X208107836Y-167640000D01*
X207892164Y-168360000D02*
X208107836Y-168360000D01*
%TO.C,C5_f*%
X253892164Y-181640000D02*
X254107836Y-181640000D01*
X253892164Y-182360000D02*
X254107836Y-182360000D01*
%TO.C,C1b*%
X129738748Y-199265000D02*
X130261252Y-199265000D01*
X129738748Y-200735000D02*
X130261252Y-200735000D01*
%TO.C,C30*%
X191892164Y-167640000D02*
X192107836Y-167640000D01*
X191892164Y-168360000D02*
X192107836Y-168360000D01*
%TO.C,C50_1*%
X228892164Y-143640000D02*
X229107836Y-143640000D01*
X228892164Y-144360000D02*
X229107836Y-144360000D01*
%TO.C,C2b*%
X144859420Y-199490000D02*
X145140580Y-199490000D01*
X144859420Y-200510000D02*
X145140580Y-200510000D01*
%TO.C,C5_d*%
X247892164Y-181640000D02*
X248107836Y-181640000D01*
X247892164Y-182360000D02*
X248107836Y-182360000D01*
%TO.C,TP5*%
X155700000Y-219000000D02*
G75*
G02*
X154300000Y-219000000I-700000J0D01*
G01*
X154300000Y-219000000D02*
G75*
G02*
X155700000Y-219000000I700000J0D01*
G01*
%TO.C,U23*%
X216990000Y-166860000D02*
X218990000Y-166860000D01*
X217000000Y-169140000D02*
X219000000Y-169140000D01*
X216630000Y-166930000D02*
X216350000Y-166930000D01*
X216630000Y-166650000D01*
X216630000Y-166930000D01*
G36*
X216630000Y-166930000D02*
G01*
X216350000Y-166930000D01*
X216630000Y-166650000D01*
X216630000Y-166930000D01*
G37*
%TO.C,C50_3*%
X234892164Y-143640000D02*
X235107836Y-143640000D01*
X234892164Y-144360000D02*
X235107836Y-144360000D01*
%TO.C,C2a*%
X141859420Y-199490000D02*
X142140580Y-199490000D01*
X141859420Y-200510000D02*
X142140580Y-200510000D01*
%TO.C,TP1*%
X115700000Y-219000000D02*
G75*
G02*
X114300000Y-219000000I-700000J0D01*
G01*
X114300000Y-219000000D02*
G75*
G02*
X115700000Y-219000000I700000J0D01*
G01*
%TO.C,C39*%
X194892164Y-111640000D02*
X195107836Y-111640000D01*
X194892164Y-112360000D02*
X195107836Y-112360000D01*
%TO.C,C4b*%
X253392164Y-167640000D02*
X253607836Y-167640000D01*
X253392164Y-168360000D02*
X253607836Y-168360000D01*
%TO.C,J6*%
X287240000Y-156130000D02*
X287240000Y-155000000D01*
X287305000Y-152600000D02*
X296315000Y-152600000D01*
X287305000Y-153422470D02*
X287305000Y-152600000D01*
X287305000Y-154240000D02*
X287305000Y-154037530D01*
X287436529Y-154240000D02*
X287305000Y-154240000D01*
X288000000Y-156130000D02*
X287240000Y-156130000D01*
X288706529Y-154240000D02*
X288563471Y-154240000D01*
X288760000Y-154436529D02*
X288760000Y-154293471D01*
X288760000Y-156130000D02*
X288760000Y-155563471D01*
X288760000Y-156130000D02*
X296315000Y-156130000D01*
X296315000Y-153422470D02*
X296315000Y-152600000D01*
X296315000Y-154692470D02*
X296315000Y-154037530D01*
X296315000Y-156130000D02*
X296315000Y-155307530D01*
%TO.C,TP7*%
X175700000Y-219000000D02*
G75*
G02*
X174300000Y-219000000I-700000J0D01*
G01*
X174300000Y-219000000D02*
G75*
G02*
X175700000Y-219000000I700000J0D01*
G01*
%TO.C,TP3*%
X135700000Y-219000000D02*
G75*
G02*
X134300000Y-219000000I-700000J0D01*
G01*
X134300000Y-219000000D02*
G75*
G02*
X135700000Y-219000000I700000J0D01*
G01*
%TO.C,R5_b*%
X119846359Y-184620000D02*
X120153641Y-184620000D01*
X119846359Y-185380000D02*
X120153641Y-185380000D01*
%TO.C,J5*%
X287240000Y-136130000D02*
X287240000Y-135000000D01*
X287305000Y-132600000D02*
X293775000Y-132600000D01*
X287305000Y-133422470D02*
X287305000Y-132600000D01*
X287305000Y-134240000D02*
X287305000Y-134037530D01*
X287436529Y-134240000D02*
X287305000Y-134240000D01*
X288000000Y-136130000D02*
X287240000Y-136130000D01*
X288706529Y-134240000D02*
X288563471Y-134240000D01*
X288760000Y-134436529D02*
X288760000Y-134293471D01*
X288760000Y-136130000D02*
X288760000Y-135563471D01*
X288760000Y-136130000D02*
X293775000Y-136130000D01*
X293775000Y-133422470D02*
X293775000Y-132600000D01*
X293775000Y-134692470D02*
X293775000Y-134037530D01*
X293775000Y-136130000D02*
X293775000Y-135307530D01*
%TO.C,U22*%
X243065000Y-172390000D02*
X242690000Y-172390000D01*
X243065000Y-177610000D02*
X242390000Y-177610000D01*
X246935000Y-172390000D02*
X247610000Y-172390000D01*
X246935000Y-177610000D02*
X247610000Y-177610000D01*
X242390000Y-172390000D02*
X242150000Y-172060000D01*
X242630000Y-172060000D01*
X242390000Y-172390000D01*
G36*
X242390000Y-172390000D02*
G01*
X242150000Y-172060000D01*
X242630000Y-172060000D01*
X242390000Y-172390000D01*
G37*
%TO.C,J8*%
X176290000Y-82750000D02*
X176290000Y-83250000D01*
X176290000Y-83250000D02*
X176790000Y-83000000D01*
X176790000Y-83000000D02*
X176290000Y-82750000D01*
%TO.C,J10*%
X236290000Y-82750000D02*
X236290000Y-83250000D01*
X236290000Y-83250000D02*
X236790000Y-83000000D01*
X236790000Y-83000000D02*
X236290000Y-82750000D01*
%TO.C,J7*%
X156290000Y-82750000D02*
X156290000Y-83250000D01*
X156290000Y-83250000D02*
X156790000Y-83000000D01*
X156790000Y-83000000D02*
X156290000Y-82750000D01*
%TO.C,C44*%
X169892164Y-199640000D02*
X170107836Y-199640000D01*
X169892164Y-200360000D02*
X170107836Y-200360000D01*
%TO.C,C43*%
X159892164Y-199640000D02*
X160107836Y-199640000D01*
X159892164Y-200360000D02*
X160107836Y-200360000D01*
%TO.C,C42*%
X149892164Y-199640000D02*
X150107836Y-199640000D01*
X149892164Y-200360000D02*
X150107836Y-200360000D01*
%TO.C,C34*%
X204892164Y-167640000D02*
X205107836Y-167640000D01*
X204892164Y-168360000D02*
X205107836Y-168360000D01*
%TO.C,U11*%
X162000000Y-203440000D02*
X161200000Y-203440000D01*
X162000000Y-203440000D02*
X162800000Y-203440000D01*
X162000000Y-206560000D02*
X161200000Y-206560000D01*
X162000000Y-206560000D02*
X162800000Y-206560000D01*
X160700000Y-203490000D02*
X160460000Y-203160000D01*
X160940000Y-203160000D01*
X160700000Y-203490000D01*
G36*
X160700000Y-203490000D02*
G01*
X160460000Y-203160000D01*
X160940000Y-203160000D01*
X160700000Y-203490000D01*
G37*
%TO.C,D5b*%
X256390000Y-167150000D02*
X256390000Y-168850000D01*
X256390000Y-167150000D02*
X259050000Y-167150000D01*
X256390000Y-168850000D02*
X259050000Y-168850000D01*
%TO.C,U25*%
X156990000Y-148860000D02*
X158990000Y-148860000D01*
X157000000Y-151140000D02*
X159000000Y-151140000D01*
X156630000Y-148930000D02*
X156350000Y-148930000D01*
X156630000Y-148650000D01*
X156630000Y-148930000D01*
G36*
X156630000Y-148930000D02*
G01*
X156350000Y-148930000D01*
X156630000Y-148650000D01*
X156630000Y-148930000D01*
G37*
%TO.C,C10_d*%
X159892164Y-141640000D02*
X160107836Y-141640000D01*
X159892164Y-142360000D02*
X160107836Y-142360000D01*
%TO.C,U15*%
X132000000Y-202440000D02*
X130050000Y-202440000D01*
X132000000Y-202440000D02*
X133950000Y-202440000D01*
X132000000Y-207560000D02*
X130050000Y-207560000D01*
X132000000Y-207560000D02*
X133950000Y-207560000D01*
X129300000Y-202535000D02*
X129060000Y-202205000D01*
X129540000Y-202205000D01*
X129300000Y-202535000D01*
G36*
X129300000Y-202535000D02*
G01*
X129060000Y-202205000D01*
X129540000Y-202205000D01*
X129300000Y-202535000D01*
G37*
%TO.C,U14*%
X172000000Y-203440000D02*
X171200000Y-203440000D01*
X172000000Y-203440000D02*
X172800000Y-203440000D01*
X172000000Y-206560000D02*
X171200000Y-206560000D01*
X172000000Y-206560000D02*
X172800000Y-206560000D01*
X170700000Y-203490000D02*
X170460000Y-203160000D01*
X170940000Y-203160000D01*
X170700000Y-203490000D01*
G36*
X170700000Y-203490000D02*
G01*
X170460000Y-203160000D01*
X170940000Y-203160000D01*
X170700000Y-203490000D01*
G37*
%TO.C,C31*%
X194892164Y-167640000D02*
X195107836Y-167640000D01*
X194892164Y-168360000D02*
X195107836Y-168360000D01*
%TO.C,C1a*%
X126738748Y-199265000D02*
X127261252Y-199265000D01*
X126738748Y-200735000D02*
X127261252Y-200735000D01*
%TO.C,C10_c*%
X165892164Y-127640000D02*
X166107836Y-127640000D01*
X165892164Y-128360000D02*
X166107836Y-128360000D01*
%TO.C,C4a*%
X247892164Y-170640000D02*
X248107836Y-170640000D01*
X247892164Y-171360000D02*
X248107836Y-171360000D01*
%TO.C,C5a*%
X241892164Y-181640000D02*
X242107836Y-181640000D01*
X241892164Y-182360000D02*
X242107836Y-182360000D01*
%TO.C,C9a*%
X241892164Y-169640000D02*
X242107836Y-169640000D01*
X241892164Y-170360000D02*
X242107836Y-170360000D01*
%TO.C,C5_g*%
X256892164Y-181640000D02*
X257107836Y-181640000D01*
X256892164Y-182360000D02*
X257107836Y-182360000D01*
%TO.C,C11*%
X130590000Y-200240000D02*
X130590000Y-204760000D01*
X130590000Y-204760000D02*
X138650000Y-204760000D01*
X138650000Y-200240000D02*
X130590000Y-200240000D01*
%TO.C,C36*%
X191892164Y-152640000D02*
X192107836Y-152640000D01*
X191892164Y-153360000D02*
X192107836Y-153360000D01*
%TO.C,Y1*%
X238000000Y-143350000D02*
X238000000Y-146650000D01*
X238000000Y-146650000D02*
X242000000Y-146650000D01*
%TO.C,C10_b*%
X162892164Y-127640000D02*
X163107836Y-127640000D01*
X162892164Y-128360000D02*
X163107836Y-128360000D01*
%TO.C,U24*%
X218000000Y-109265000D02*
X215800000Y-109265000D01*
X218000000Y-109265000D02*
X220200000Y-109265000D01*
X218000000Y-114735000D02*
X215800000Y-114735000D01*
X218000000Y-114735000D02*
X220200000Y-114735000D01*
X214140000Y-109725000D02*
X213810000Y-109965000D01*
X213810000Y-109485000D01*
X214140000Y-109725000D01*
G36*
X214140000Y-109725000D02*
G01*
X213810000Y-109965000D01*
X213810000Y-109485000D01*
X214140000Y-109725000D01*
G37*
%TO.C,SW1*%
X283350000Y-198600000D02*
X286650000Y-198600000D01*
X283350000Y-198900000D02*
X283350000Y-198600000D01*
X283350000Y-201100000D02*
X283350000Y-201400000D01*
X283350000Y-201400000D02*
X286650000Y-201400000D01*
X286650000Y-198600000D02*
X286650000Y-198900000D01*
X286650000Y-201400000D02*
X286650000Y-201100000D01*
%TO.C,U12*%
X192000000Y-203440000D02*
X191200000Y-203440000D01*
X192000000Y-203440000D02*
X192800000Y-203440000D01*
X192000000Y-206560000D02*
X191200000Y-206560000D01*
X192000000Y-206560000D02*
X192800000Y-206560000D01*
X190700000Y-203490000D02*
X190460000Y-203160000D01*
X190940000Y-203160000D01*
X190700000Y-203490000D01*
G36*
X190700000Y-203490000D02*
G01*
X190460000Y-203160000D01*
X190940000Y-203160000D01*
X190700000Y-203490000D01*
G37*
%TO.C,TP4*%
X145700000Y-219000000D02*
G75*
G02*
X144300000Y-219000000I-700000J0D01*
G01*
X144300000Y-219000000D02*
G75*
G02*
X145700000Y-219000000I700000J0D01*
G01*
%TO.C,D3*%
X123515000Y-179265000D02*
X123515000Y-180735000D01*
X123515000Y-180735000D02*
X125800000Y-180735000D01*
X125800000Y-179265000D02*
X123515000Y-179265000D01*
%TO.C,R5_c*%
X124846359Y-184620000D02*
X125153641Y-184620000D01*
X124846359Y-185380000D02*
X125153641Y-185380000D01*
%TO.C,C5b*%
X244892164Y-181640000D02*
X245107836Y-181640000D01*
X244892164Y-182360000D02*
X245107836Y-182360000D01*
%TO.C,C38*%
X191892164Y-111640000D02*
X192107836Y-111640000D01*
X191892164Y-112360000D02*
X192107836Y-112360000D01*
%TO.C,R1a*%
X231846359Y-167620000D02*
X232153641Y-167620000D01*
X231846359Y-168380000D02*
X232153641Y-168380000D01*
%TO.C,D2*%
X118515000Y-179265000D02*
X118515000Y-180735000D01*
X118515000Y-180735000D02*
X120800000Y-180735000D01*
X120800000Y-179265000D02*
X118515000Y-179265000D01*
%TO.C,TP6*%
X165700000Y-219000000D02*
G75*
G02*
X164300000Y-219000000I-700000J0D01*
G01*
X164300000Y-219000000D02*
G75*
G02*
X165700000Y-219000000I700000J0D01*
G01*
%TO.C,U20*%
X228390000Y-147365000D02*
X228390000Y-147130000D01*
X228390000Y-153110000D02*
X228390000Y-152635000D01*
X228865000Y-146890000D02*
X228690000Y-146890000D01*
X228865000Y-153110000D02*
X228390000Y-153110000D01*
X231135000Y-146890000D02*
X231610000Y-146890000D01*
X231135000Y-153110000D02*
X231610000Y-153110000D01*
X231610000Y-146890000D02*
X231610000Y-147365000D01*
X231610000Y-153110000D02*
X231610000Y-152635000D01*
X228390000Y-146890000D02*
X228150000Y-146560000D01*
X228630000Y-146560000D01*
X228390000Y-146890000D01*
G36*
X228390000Y-146890000D02*
G01*
X228150000Y-146560000D01*
X228630000Y-146560000D01*
X228390000Y-146890000D01*
G37*
%TO.C,C40*%
X204892164Y-111640000D02*
X205107836Y-111640000D01*
X204892164Y-112360000D02*
X205107836Y-112360000D01*
%TO.C,U13*%
X152000000Y-203440000D02*
X151200000Y-203440000D01*
X152000000Y-203440000D02*
X152800000Y-203440000D01*
X152000000Y-206560000D02*
X151200000Y-206560000D01*
X152000000Y-206560000D02*
X152800000Y-206560000D01*
X150700000Y-203490000D02*
X150460000Y-203160000D01*
X150940000Y-203160000D01*
X150700000Y-203490000D01*
G36*
X150700000Y-203490000D02*
G01*
X150460000Y-203160000D01*
X150940000Y-203160000D01*
X150700000Y-203490000D01*
G37*
%TO.C,F1*%
X119741422Y-209290000D02*
X120258578Y-209290000D01*
X119741422Y-210710000D02*
X120258578Y-210710000D01*
%TO.C,C37*%
X207892164Y-152640000D02*
X208107836Y-152640000D01*
X207892164Y-153360000D02*
X208107836Y-153360000D01*
%TO.C,J1*%
X105400000Y-207400000D02*
X105800000Y-207400000D01*
X105400000Y-209850000D02*
X105400000Y-207400000D01*
X105400000Y-220100000D02*
X105400000Y-216550000D01*
X105800000Y-205400000D02*
X108800000Y-205400000D01*
X105800000Y-207400000D02*
X105800000Y-205400000D01*
X108810000Y-201760000D02*
X110550000Y-201760000D01*
X108810000Y-203500000D02*
X108810000Y-201760000D01*
X112600000Y-205400000D02*
X114200000Y-205400000D01*
X114200000Y-205400000D02*
X114200000Y-207400000D01*
X114200000Y-207400000D02*
X114600000Y-207400000D01*
X114600000Y-207400000D02*
X114600000Y-209850000D01*
X114600000Y-216550000D02*
X114600000Y-220100000D01*
X114600000Y-220100000D02*
X105400000Y-220100000D01*
%TO.C,U10*%
X182000000Y-203440000D02*
X181200000Y-203440000D01*
X182000000Y-203440000D02*
X182800000Y-203440000D01*
X182000000Y-206560000D02*
X181200000Y-206560000D01*
X182000000Y-206560000D02*
X182800000Y-206560000D01*
X180700000Y-203490000D02*
X180460000Y-203160000D01*
X180940000Y-203160000D01*
X180700000Y-203490000D01*
G36*
X180700000Y-203490000D02*
G01*
X180460000Y-203160000D01*
X180940000Y-203160000D01*
X180700000Y-203490000D01*
G37*
%TO.C,L1*%
X131700000Y-205700000D02*
X144300000Y-205700000D01*
X131700000Y-208700000D02*
X131700000Y-205700000D01*
X131700000Y-218300000D02*
X131700000Y-215300000D01*
X144300000Y-205700000D02*
X144300000Y-208700000D01*
X144300000Y-215300000D02*
X144300000Y-218300000D01*
X144300000Y-218300000D02*
X131700000Y-218300000D01*
%TO.C,C10_a*%
X159892164Y-127640000D02*
X160107836Y-127640000D01*
X159892164Y-128360000D02*
X160107836Y-128360000D01*
%TO.C,D1*%
X113515000Y-179265000D02*
X113515000Y-180735000D01*
X113515000Y-180735000D02*
X115800000Y-180735000D01*
X115800000Y-179265000D02*
X113515000Y-179265000D01*
%TO.C,C50_2*%
X231892164Y-143640000D02*
X232107836Y-143640000D01*
X231892164Y-144360000D02*
X232107836Y-144360000D01*
%TO.C,J9*%
X216290000Y-82750000D02*
X216290000Y-83250000D01*
X216290000Y-83250000D02*
X216790000Y-83000000D01*
X216790000Y-83000000D02*
X216290000Y-82750000D01*
%TO.C,C45*%
X179892164Y-199640000D02*
X180107836Y-199640000D01*
X179892164Y-200360000D02*
X180107836Y-200360000D01*
%TO.C,C33*%
X201892164Y-167640000D02*
X202107836Y-167640000D01*
X201892164Y-168360000D02*
X202107836Y-168360000D01*
%TD*%
M02*
