%TF.GenerationSoftware,KiCad,Pcbnew,8.0.9-8.0.9-0~ubuntu22.04.1*%
%TF.CreationDate,2026-06-20T21:10:25+00:00*%
%TF.ProjectId,LightRail_Eval_Board,4c696768-7452-4616-996c-5f4576616c5f,rev?*%
%TF.SameCoordinates,Original*%
%TF.FileFunction,Soldermask,Top*%
%TF.FilePolarity,Negative*%
%FSLAX46Y46*%
G04 Gerber Fmt 4.6, Leading zero omitted, Abs format (unit mm)*
G04 Created by KiCad (PCBNEW 8.0.9-8.0.9-0~ubuntu22.04.1) date 2026-06-20 21:10:25*
%MOMM*%
%LPD*%
G01*
G04 APERTURE LIST*
G04 Aperture macros list*
%AMRoundRect*
0 Rectangle with rounded corners*
0 $1 Rounding radius*
0 $2 $3 $4 $5 $6 $7 $8 $9 X,Y pos of 4 corners*
0 Add a 4 corners polygon primitive as box body*
4,1,4,$2,$3,$4,$5,$6,$7,$8,$9,$2,$3,0*
0 Add four circle primitives for the rounded corners*
1,1,$1+$1,$2,$3*
1,1,$1+$1,$4,$5*
1,1,$1+$1,$6,$7*
1,1,$1+$1,$8,$9*
0 Add four rect primitives between the rounded corners*
20,1,$1+$1,$2,$3,$4,$5,0*
20,1,$1+$1,$4,$5,$6,$7,0*
20,1,$1+$1,$6,$7,$8,$9,0*
20,1,$1+$1,$8,$9,$2,$3,0*%
G04 Aperture macros list end*
%ADD10RoundRect,0.135000X-0.135000X-0.185000X0.135000X-0.185000X0.135000X0.185000X-0.135000X0.185000X0*%
%ADD11R,0.500000X0.800000*%
%ADD12RoundRect,0.112500X-0.187500X-0.112500X0.187500X-0.112500X0.187500X0.112500X-0.187500X0.112500X0*%
%ADD13RoundRect,0.140000X-0.140000X-0.170000X0.140000X-0.170000X0.140000X0.170000X-0.140000X0.170000X0*%
%ADD14C,1.000000*%
%ADD15RoundRect,0.225000X-0.225000X-0.250000X0.225000X-0.250000X0.225000X0.250000X-0.225000X0.250000X0*%
%ADD16RoundRect,0.062500X-0.675000X-0.062500X0.675000X-0.062500X0.675000X0.062500X-0.675000X0.062500X0*%
%ADD17RoundRect,0.250000X-0.250000X-0.475000X0.250000X-0.475000X0.250000X0.475000X-0.250000X0.475000X0*%
%ADD18RoundRect,0.062500X-0.187500X-0.062500X0.187500X-0.062500X0.187500X0.062500X-0.187500X0.062500X0*%
%ADD19R,0.900000X1.600000*%
%ADD20R,0.200000X0.800000*%
%ADD21R,0.800000X0.200000*%
%ADD22R,5.500000X5.500000*%
%ADD23R,1.000000X1.000000*%
%ADD24O,1.000000X1.000000*%
%ADD25RoundRect,0.050000X-0.350000X-0.050000X0.350000X-0.050000X0.350000X0.050000X-0.350000X0.050000X0*%
%ADD26RoundRect,0.050000X-0.050000X-0.350000X0.050000X-0.350000X0.050000X0.350000X-0.050000X0.350000X0*%
%ADD27R,3.700000X3.700000*%
%ADD28R,5.080000X1.500000*%
%ADD29C,3.200000*%
%ADD30RoundRect,0.150000X-0.512500X-0.150000X0.512500X-0.150000X0.512500X0.150000X-0.512500X0.150000X0*%
%ADD31C,0.350000*%
%ADD32RoundRect,0.150000X-0.825000X-0.150000X0.825000X-0.150000X0.825000X0.150000X-0.825000X0.150000X0*%
%ADD33R,2.300000X2.300000*%
%ADD34RoundRect,0.250000X-0.787500X-1.025000X0.787500X-1.025000X0.787500X1.025000X-0.787500X1.025000X0*%
%ADD35R,1.400000X1.200000*%
%ADD36RoundRect,0.100000X-0.637500X-0.100000X0.637500X-0.100000X0.637500X0.100000X-0.637500X0.100000X0*%
%ADD37R,1.000000X0.300000*%
%ADD38R,0.900000X1.700000*%
%ADD39RoundRect,0.218750X-0.218750X-0.256250X0.218750X-0.256250X0.218750X0.256250X-0.218750X0.256250X0*%
%ADD40RoundRect,0.062500X-0.350000X-0.062500X0.350000X-0.062500X0.350000X0.062500X-0.350000X0.062500X0*%
%ADD41RoundRect,0.062500X-0.062500X-0.337500X0.062500X-0.337500X0.062500X0.337500X-0.062500X0.337500X0*%
%ADD42R,1.700000X4.750000*%
%ADD43RoundRect,0.243750X-0.243750X-0.456250X0.243750X-0.456250X0.243750X0.456250X-0.243750X0.456250X0*%
%ADD44C,2.000000*%
%ADD45R,3.300000X4.400000*%
%ADD46R,3.900000X6.200000*%
%ADD47R,2.900000X5.400000*%
G04 APERTURE END LIST*
D10*
%TO.C,R5a*%
X114490000Y-185000000D03*
X115510000Y-185000000D03*
%TD*%
D11*
%TO.C,U3*%
X187812000Y-120000000D03*
X188438000Y-120000000D03*
X189062000Y-120000000D03*
X189688000Y-120000000D03*
X190312000Y-120000000D03*
X190938000Y-120000000D03*
X191562000Y-120000000D03*
X192188000Y-120000000D03*
X192812000Y-120000000D03*
X193438000Y-120000000D03*
X194062000Y-120000000D03*
X194688000Y-120000000D03*
X195312000Y-120000000D03*
X195938000Y-120000000D03*
X196562000Y-120000000D03*
X197188000Y-120000000D03*
X197812000Y-120000000D03*
X198438000Y-120000000D03*
X199062000Y-120000000D03*
X199688000Y-120000000D03*
X200312000Y-120000000D03*
X200938000Y-120000000D03*
X201562000Y-120000000D03*
X202188000Y-120000000D03*
X202812000Y-120000000D03*
X203438000Y-120000000D03*
X204062000Y-120000000D03*
X204688000Y-120000000D03*
X205312000Y-120000000D03*
X205938000Y-120000000D03*
X206562000Y-120000000D03*
X207188000Y-120000000D03*
X207812000Y-120000000D03*
X208438000Y-120000000D03*
X209062000Y-120000000D03*
X209688000Y-120000000D03*
X210312000Y-120000000D03*
X210938000Y-120000000D03*
X211562000Y-120000000D03*
X212188000Y-120000000D03*
%TD*%
D12*
%TO.C,D5a*%
X247950000Y-168000000D03*
X250050000Y-168000000D03*
%TD*%
D13*
%TO.C,C41*%
X207520000Y-112000000D03*
X208480000Y-112000000D03*
%TD*%
%TO.C,C50_0*%
X225520000Y-144000000D03*
X226480000Y-144000000D03*
%TD*%
D14*
%TO.C,TP2*%
X125000000Y-219000000D03*
%TD*%
D13*
%TO.C,C5_e*%
X250520000Y-182000000D03*
X251480000Y-182000000D03*
%TD*%
D15*
%TO.C,C2c*%
X147225000Y-200000000D03*
X148775000Y-200000000D03*
%TD*%
D16*
%TO.C,U21*%
X179137500Y-110200000D03*
X179137500Y-110600000D03*
X179137500Y-111000000D03*
X179137500Y-111400000D03*
X179137500Y-111800000D03*
X179137500Y-112200000D03*
X179137500Y-112600000D03*
X179137500Y-113000000D03*
X179137500Y-113400000D03*
X179137500Y-113800000D03*
X184862500Y-113800000D03*
X184862500Y-113400000D03*
X184862500Y-113000000D03*
X184862500Y-112600000D03*
X184862500Y-112200000D03*
X184862500Y-111800000D03*
X184862500Y-111400000D03*
X184862500Y-111000000D03*
X184862500Y-110600000D03*
X184862500Y-110200000D03*
%TD*%
D13*
%TO.C,C32*%
X197520000Y-168000000D03*
X198480000Y-168000000D03*
%TD*%
%TO.C,C35*%
X207520000Y-168000000D03*
X208480000Y-168000000D03*
%TD*%
%TO.C,C5_f*%
X253520000Y-182000000D03*
X254480000Y-182000000D03*
%TD*%
D17*
%TO.C,C1b*%
X129050000Y-200000000D03*
X130950000Y-200000000D03*
%TD*%
D13*
%TO.C,C30*%
X191520000Y-168000000D03*
X192480000Y-168000000D03*
%TD*%
%TO.C,C50_1*%
X228520000Y-144000000D03*
X229480000Y-144000000D03*
%TD*%
D15*
%TO.C,C2b*%
X144225000Y-200000000D03*
X145775000Y-200000000D03*
%TD*%
D13*
%TO.C,C5_d*%
X247520000Y-182000000D03*
X248480000Y-182000000D03*
%TD*%
D14*
%TO.C,TP5*%
X155000000Y-219000000D03*
%TD*%
D18*
%TO.C,U23*%
X217050000Y-167250000D03*
X217050000Y-167750000D03*
X217050000Y-168250000D03*
X217050000Y-168750000D03*
X218950000Y-168750000D03*
X218950000Y-168250000D03*
X218950000Y-167750000D03*
X218950000Y-167250000D03*
D19*
X218000000Y-168000000D03*
%TD*%
D13*
%TO.C,C50_3*%
X234520000Y-144000000D03*
X235480000Y-144000000D03*
%TD*%
D15*
%TO.C,C2a*%
X141225000Y-200000000D03*
X142775000Y-200000000D03*
%TD*%
D14*
%TO.C,TP1*%
X115000000Y-219000000D03*
%TD*%
D13*
%TO.C,C39*%
X194520000Y-112000000D03*
X195480000Y-112000000D03*
%TD*%
D20*
%TO.C,U1*%
X162000000Y-139000000D03*
X162400000Y-139000000D03*
X162800000Y-139000000D03*
X163200000Y-139000000D03*
X163600000Y-139000000D03*
X164000000Y-139000000D03*
X164400000Y-139000000D03*
X164800000Y-139000000D03*
X165200000Y-139000000D03*
X165600000Y-139000000D03*
X166000000Y-139000000D03*
X166400000Y-139000000D03*
X166800000Y-139000000D03*
X167200000Y-139000000D03*
X167600000Y-139000000D03*
X168000000Y-139000000D03*
D21*
X169000000Y-138000000D03*
X169000000Y-137600000D03*
X169000000Y-137200000D03*
X169000000Y-136800000D03*
X169000000Y-136400000D03*
X169000000Y-136000000D03*
X169000000Y-135600000D03*
X169000000Y-135200000D03*
X169000000Y-134800000D03*
X169000000Y-134400000D03*
X169000000Y-134000000D03*
X169000000Y-133600000D03*
X169000000Y-133200000D03*
X169000000Y-132800000D03*
X169000000Y-132400000D03*
X169000000Y-132000000D03*
D20*
X168000000Y-131000000D03*
X167600000Y-131000000D03*
X167200000Y-131000000D03*
X166800000Y-131000000D03*
X166400000Y-131000000D03*
X166000000Y-131000000D03*
X165600000Y-131000000D03*
X165200000Y-131000000D03*
X164800000Y-131000000D03*
X164400000Y-131000000D03*
X164000000Y-131000000D03*
X163600000Y-131000000D03*
X163200000Y-131000000D03*
X162800000Y-131000000D03*
X162400000Y-131000000D03*
X162000000Y-131000000D03*
D21*
X161000000Y-132000000D03*
X161000000Y-132400000D03*
X161000000Y-132800000D03*
X161000000Y-133200000D03*
X161000000Y-133600000D03*
X161000000Y-134000000D03*
X161000000Y-134400000D03*
X161000000Y-134800000D03*
X161000000Y-135200000D03*
X161000000Y-135600000D03*
X161000000Y-136000000D03*
X161000000Y-136400000D03*
X161000000Y-136800000D03*
X161000000Y-137200000D03*
X161000000Y-137600000D03*
X161000000Y-138000000D03*
D22*
X165000000Y-135000000D03*
%TD*%
D20*
%TO.C,U4*%
X232000000Y-139000000D03*
X232400000Y-139000000D03*
X232800000Y-139000000D03*
X233200000Y-139000000D03*
X233600000Y-139000000D03*
X234000000Y-139000000D03*
X234400000Y-139000000D03*
X234800000Y-139000000D03*
X235200000Y-139000000D03*
X235600000Y-139000000D03*
X236000000Y-139000000D03*
X236400000Y-139000000D03*
X236800000Y-139000000D03*
X237200000Y-139000000D03*
X237600000Y-139000000D03*
X238000000Y-139000000D03*
D21*
X239000000Y-138000000D03*
X239000000Y-137600000D03*
X239000000Y-137200000D03*
X239000000Y-136800000D03*
X239000000Y-136400000D03*
X239000000Y-136000000D03*
X239000000Y-135600000D03*
X239000000Y-135200000D03*
X239000000Y-134800000D03*
X239000000Y-134400000D03*
X239000000Y-134000000D03*
X239000000Y-133600000D03*
X239000000Y-133200000D03*
X239000000Y-132800000D03*
X239000000Y-132400000D03*
X239000000Y-132000000D03*
D20*
X238000000Y-131000000D03*
X237600000Y-131000000D03*
X237200000Y-131000000D03*
X236800000Y-131000000D03*
X236400000Y-131000000D03*
X236000000Y-131000000D03*
X235600000Y-131000000D03*
X235200000Y-131000000D03*
X234800000Y-131000000D03*
X234400000Y-131000000D03*
X234000000Y-131000000D03*
X233600000Y-131000000D03*
X233200000Y-131000000D03*
X232800000Y-131000000D03*
X232400000Y-131000000D03*
X232000000Y-131000000D03*
D21*
X231000000Y-132000000D03*
X231000000Y-132400000D03*
X231000000Y-132800000D03*
X231000000Y-133200000D03*
X231000000Y-133600000D03*
X231000000Y-134000000D03*
X231000000Y-134400000D03*
X231000000Y-134800000D03*
X231000000Y-135200000D03*
X231000000Y-135600000D03*
X231000000Y-136000000D03*
X231000000Y-136400000D03*
X231000000Y-136800000D03*
X231000000Y-137200000D03*
X231000000Y-137600000D03*
X231000000Y-138000000D03*
D22*
X235000000Y-135000000D03*
%TD*%
D13*
%TO.C,C4b*%
X253020000Y-168000000D03*
X253980000Y-168000000D03*
%TD*%
D23*
%TO.C,J6*%
X288000000Y-155000000D03*
D24*
X288000000Y-153730000D03*
X289270000Y-155000000D03*
X289270000Y-153730000D03*
X290540000Y-155000000D03*
X290540000Y-153730000D03*
X291810000Y-155000000D03*
X291810000Y-153730000D03*
X293080000Y-155000000D03*
X293080000Y-153730000D03*
X294350000Y-155000000D03*
X294350000Y-153730000D03*
X295620000Y-155000000D03*
X295620000Y-153730000D03*
%TD*%
D14*
%TO.C,TP7*%
X175000000Y-219000000D03*
%TD*%
%TO.C,TP3*%
X135000000Y-219000000D03*
%TD*%
D10*
%TO.C,R5_b*%
X119490000Y-185000000D03*
X120510000Y-185000000D03*
%TD*%
D23*
%TO.C,J5*%
X288000000Y-135000000D03*
D24*
X288000000Y-133730000D03*
X289270000Y-135000000D03*
X289270000Y-133730000D03*
X290540000Y-135000000D03*
X290540000Y-133730000D03*
X291810000Y-135000000D03*
X291810000Y-133730000D03*
X293080000Y-135000000D03*
X293080000Y-133730000D03*
%TD*%
D25*
%TO.C,U22*%
X242550000Y-172725000D03*
X242550000Y-173075000D03*
X242550000Y-173425000D03*
X242550000Y-173775000D03*
X242550000Y-174125000D03*
X242550000Y-174475000D03*
X242550000Y-174825000D03*
X242550000Y-175175000D03*
X242550000Y-175525000D03*
X242550000Y-175875000D03*
X242550000Y-176225000D03*
X242550000Y-176575000D03*
X242550000Y-176925000D03*
X242550000Y-177275000D03*
D26*
X243425000Y-177450000D03*
X243775000Y-177450000D03*
X244125000Y-177450000D03*
X244475000Y-177450000D03*
X244825000Y-177450000D03*
X245175000Y-177450000D03*
X245525000Y-177450000D03*
X245875000Y-177450000D03*
X246225000Y-177450000D03*
X246575000Y-177450000D03*
D25*
X247450000Y-177275000D03*
X247450000Y-176925000D03*
X247450000Y-176575000D03*
X247450000Y-176225000D03*
X247450000Y-175875000D03*
X247450000Y-175525000D03*
X247450000Y-175175000D03*
X247450000Y-174825000D03*
X247450000Y-174475000D03*
X247450000Y-174125000D03*
X247450000Y-173775000D03*
X247450000Y-173425000D03*
X247450000Y-173075000D03*
X247450000Y-172725000D03*
D26*
X246575000Y-172550000D03*
X246225000Y-172550000D03*
X245875000Y-172550000D03*
X245525000Y-172550000D03*
X245175000Y-172550000D03*
X244825000Y-172550000D03*
X244475000Y-172550000D03*
X244125000Y-172550000D03*
X243775000Y-172550000D03*
X243425000Y-172550000D03*
D27*
X245000000Y-175000000D03*
%TD*%
D28*
%TO.C,J8*%
X180000000Y-83000000D03*
X180000000Y-78750000D03*
X180000000Y-87250000D03*
%TD*%
%TO.C,J10*%
X240000000Y-83000000D03*
X240000000Y-78750000D03*
X240000000Y-87250000D03*
%TD*%
%TO.C,J7*%
X160000000Y-83000000D03*
X160000000Y-78750000D03*
X160000000Y-87250000D03*
%TD*%
D29*
%TO.C,MH2*%
X296000000Y-79000000D03*
%TD*%
D13*
%TO.C,C44*%
X169520000Y-200000000D03*
X170480000Y-200000000D03*
%TD*%
D29*
%TO.C,MH1*%
X104000000Y-79000000D03*
%TD*%
D13*
%TO.C,C43*%
X159520000Y-200000000D03*
X160480000Y-200000000D03*
%TD*%
%TO.C,C42*%
X149520000Y-200000000D03*
X150480000Y-200000000D03*
%TD*%
%TO.C,C34*%
X204520000Y-168000000D03*
X205480000Y-168000000D03*
%TD*%
D30*
%TO.C,U11*%
X160862500Y-204050000D03*
X160862500Y-205000000D03*
X160862500Y-205950000D03*
X163137500Y-205950000D03*
X163137500Y-204050000D03*
%TD*%
D12*
%TO.C,D5b*%
X256950000Y-168000000D03*
X259050000Y-168000000D03*
%TD*%
D31*
%TO.C,U2*%
X194000000Y-154000000D03*
X194800000Y-154000000D03*
X195600000Y-154000000D03*
X196400000Y-154000000D03*
X197200000Y-154000000D03*
X198000000Y-154000000D03*
X198800000Y-154000000D03*
X199600000Y-154000000D03*
X200400000Y-154000000D03*
X201200000Y-154000000D03*
X202000000Y-154000000D03*
X202800000Y-154000000D03*
X203600000Y-154000000D03*
X204400000Y-154000000D03*
X205200000Y-154000000D03*
X206000000Y-154000000D03*
X194000000Y-154800000D03*
X194800000Y-154800000D03*
X195600000Y-154800000D03*
X196400000Y-154800000D03*
X197200000Y-154800000D03*
X198000000Y-154800000D03*
X198800000Y-154800000D03*
X199600000Y-154800000D03*
X200400000Y-154800000D03*
X201200000Y-154800000D03*
X202000000Y-154800000D03*
X202800000Y-154800000D03*
X203600000Y-154800000D03*
X204400000Y-154800000D03*
X205200000Y-154800000D03*
X206000000Y-154800000D03*
X194000000Y-155600000D03*
X194800000Y-155600000D03*
X195600000Y-155600000D03*
X196400000Y-155600000D03*
X197200000Y-155600000D03*
X198000000Y-155600000D03*
X198800000Y-155600000D03*
X199600000Y-155600000D03*
X200400000Y-155600000D03*
X201200000Y-155600000D03*
X202000000Y-155600000D03*
X202800000Y-155600000D03*
X203600000Y-155600000D03*
X204400000Y-155600000D03*
X205200000Y-155600000D03*
X206000000Y-155600000D03*
X194000000Y-156400000D03*
X194800000Y-156400000D03*
X195600000Y-156400000D03*
X196400000Y-156400000D03*
X197200000Y-156400000D03*
X198000000Y-156400000D03*
X198800000Y-156400000D03*
X199600000Y-156400000D03*
X200400000Y-156400000D03*
X201200000Y-156400000D03*
X202000000Y-156400000D03*
X202800000Y-156400000D03*
X203600000Y-156400000D03*
X204400000Y-156400000D03*
X205200000Y-156400000D03*
X206000000Y-156400000D03*
X194000000Y-157200000D03*
X194800000Y-157200000D03*
X195600000Y-157200000D03*
X196400000Y-157200000D03*
X197200000Y-157200000D03*
X198000000Y-157200000D03*
X198800000Y-157200000D03*
X199600000Y-157200000D03*
X200400000Y-157200000D03*
X201200000Y-157200000D03*
X202000000Y-157200000D03*
X202800000Y-157200000D03*
X203600000Y-157200000D03*
X204400000Y-157200000D03*
X205200000Y-157200000D03*
X206000000Y-157200000D03*
X194000000Y-158000000D03*
X194800000Y-158000000D03*
X195600000Y-158000000D03*
X196400000Y-158000000D03*
X197200000Y-158000000D03*
X198000000Y-158000000D03*
X198800000Y-158000000D03*
X199600000Y-158000000D03*
X200400000Y-158000000D03*
X201200000Y-158000000D03*
X202000000Y-158000000D03*
X202800000Y-158000000D03*
X203600000Y-158000000D03*
X204400000Y-158000000D03*
X205200000Y-158000000D03*
X206000000Y-158000000D03*
X194000000Y-158800000D03*
X194800000Y-158800000D03*
X195600000Y-158800000D03*
X196400000Y-158800000D03*
X197200000Y-158800000D03*
X198000000Y-158800000D03*
X198800000Y-158800000D03*
X199600000Y-158800000D03*
X200400000Y-158800000D03*
X201200000Y-158800000D03*
X202000000Y-158800000D03*
X202800000Y-158800000D03*
X203600000Y-158800000D03*
X204400000Y-158800000D03*
X205200000Y-158800000D03*
X206000000Y-158800000D03*
X194000000Y-159600000D03*
X194800000Y-159600000D03*
X195600000Y-159600000D03*
X196400000Y-159600000D03*
X197200000Y-159600000D03*
X198000000Y-159600000D03*
X198800000Y-159600000D03*
X199600000Y-159600000D03*
X200400000Y-159600000D03*
X201200000Y-159600000D03*
X202000000Y-159600000D03*
X202800000Y-159600000D03*
X203600000Y-159600000D03*
X204400000Y-159600000D03*
X205200000Y-159600000D03*
X206000000Y-159600000D03*
X194000000Y-160400000D03*
X194800000Y-160400000D03*
X195600000Y-160400000D03*
X196400000Y-160400000D03*
X197200000Y-160400000D03*
X198000000Y-160400000D03*
X198800000Y-160400000D03*
X199600000Y-160400000D03*
X200400000Y-160400000D03*
X201200000Y-160400000D03*
X202000000Y-160400000D03*
X202800000Y-160400000D03*
X203600000Y-160400000D03*
X204400000Y-160400000D03*
X205200000Y-160400000D03*
X206000000Y-160400000D03*
X194000000Y-161200000D03*
X194800000Y-161200000D03*
X195600000Y-161200000D03*
X196400000Y-161200000D03*
X197200000Y-161200000D03*
X198000000Y-161200000D03*
X198800000Y-161200000D03*
X199600000Y-161200000D03*
X200400000Y-161200000D03*
X201200000Y-161200000D03*
X202000000Y-161200000D03*
X202800000Y-161200000D03*
X203600000Y-161200000D03*
X204400000Y-161200000D03*
X205200000Y-161200000D03*
X206000000Y-161200000D03*
X194000000Y-162000000D03*
X194800000Y-162000000D03*
X195600000Y-162000000D03*
X196400000Y-162000000D03*
X197200000Y-162000000D03*
X198000000Y-162000000D03*
X198800000Y-162000000D03*
X199600000Y-162000000D03*
X200400000Y-162000000D03*
X201200000Y-162000000D03*
X202000000Y-162000000D03*
X202800000Y-162000000D03*
X203600000Y-162000000D03*
X204400000Y-162000000D03*
X205200000Y-162000000D03*
X206000000Y-162000000D03*
X194000000Y-162800000D03*
X194800000Y-162800000D03*
X195600000Y-162800000D03*
X196400000Y-162800000D03*
X197200000Y-162800000D03*
X198000000Y-162800000D03*
X198800000Y-162800000D03*
X199600000Y-162800000D03*
X200400000Y-162800000D03*
X201200000Y-162800000D03*
X202000000Y-162800000D03*
X202800000Y-162800000D03*
X203600000Y-162800000D03*
X204400000Y-162800000D03*
X205200000Y-162800000D03*
X206000000Y-162800000D03*
X194000000Y-163600000D03*
X194800000Y-163600000D03*
X195600000Y-163600000D03*
X196400000Y-163600000D03*
X197200000Y-163600000D03*
X198000000Y-163600000D03*
X198800000Y-163600000D03*
X199600000Y-163600000D03*
X200400000Y-163600000D03*
X201200000Y-163600000D03*
X202000000Y-163600000D03*
X202800000Y-163600000D03*
X203600000Y-163600000D03*
X204400000Y-163600000D03*
X205200000Y-163600000D03*
X206000000Y-163600000D03*
X194000000Y-164400000D03*
X194800000Y-164400000D03*
X195600000Y-164400000D03*
X196400000Y-164400000D03*
X197200000Y-164400000D03*
X198000000Y-164400000D03*
X198800000Y-164400000D03*
X199600000Y-164400000D03*
X200400000Y-164400000D03*
X201200000Y-164400000D03*
X202000000Y-164400000D03*
X202800000Y-164400000D03*
X203600000Y-164400000D03*
X204400000Y-164400000D03*
X205200000Y-164400000D03*
X206000000Y-164400000D03*
X194000000Y-165200000D03*
X194800000Y-165200000D03*
X195600000Y-165200000D03*
X196400000Y-165200000D03*
X197200000Y-165200000D03*
X198000000Y-165200000D03*
X198800000Y-165200000D03*
X199600000Y-165200000D03*
X200400000Y-165200000D03*
X201200000Y-165200000D03*
X202000000Y-165200000D03*
X202800000Y-165200000D03*
X203600000Y-165200000D03*
X204400000Y-165200000D03*
X205200000Y-165200000D03*
X206000000Y-165200000D03*
X194000000Y-166000000D03*
X194800000Y-166000000D03*
X195600000Y-166000000D03*
X196400000Y-166000000D03*
X197200000Y-166000000D03*
X198000000Y-166000000D03*
X198800000Y-166000000D03*
X199600000Y-166000000D03*
X200400000Y-166000000D03*
X201200000Y-166000000D03*
X202000000Y-166000000D03*
X202800000Y-166000000D03*
X203600000Y-166000000D03*
X204400000Y-166000000D03*
X205200000Y-166000000D03*
X206000000Y-166000000D03*
%TD*%
D18*
%TO.C,U25*%
X157050000Y-149250000D03*
X157050000Y-149750000D03*
X157050000Y-150250000D03*
X157050000Y-150750000D03*
X158950000Y-150750000D03*
X158950000Y-150250000D03*
X158950000Y-149750000D03*
X158950000Y-149250000D03*
D19*
X158000000Y-150000000D03*
%TD*%
D13*
%TO.C,C10_d*%
X159520000Y-142000000D03*
X160480000Y-142000000D03*
%TD*%
D32*
%TO.C,U15*%
X129525000Y-203095000D03*
X129525000Y-204365000D03*
X129525000Y-205635000D03*
X129525000Y-206905000D03*
X134475000Y-206905000D03*
X134475000Y-205635000D03*
X134475000Y-204365000D03*
X134475000Y-203095000D03*
D33*
X132000000Y-205000000D03*
%TD*%
D30*
%TO.C,U14*%
X170862500Y-204050000D03*
X170862500Y-205000000D03*
X170862500Y-205950000D03*
X173137500Y-205950000D03*
X173137500Y-204050000D03*
%TD*%
D13*
%TO.C,C31*%
X194520000Y-168000000D03*
X195480000Y-168000000D03*
%TD*%
D17*
%TO.C,C1a*%
X126050000Y-200000000D03*
X127950000Y-200000000D03*
%TD*%
D13*
%TO.C,C10_c*%
X165520000Y-128000000D03*
X166480000Y-128000000D03*
%TD*%
%TO.C,C4a*%
X247520000Y-171000000D03*
X248480000Y-171000000D03*
%TD*%
%TO.C,C5a*%
X241520000Y-182000000D03*
X242480000Y-182000000D03*
%TD*%
%TO.C,C9a*%
X241520000Y-170000000D03*
X242480000Y-170000000D03*
%TD*%
%TO.C,C5_g*%
X256520000Y-182000000D03*
X257480000Y-182000000D03*
%TD*%
D34*
%TO.C,C11*%
X131887500Y-202500000D03*
X138112500Y-202500000D03*
%TD*%
D13*
%TO.C,C36*%
X191520000Y-153000000D03*
X192480000Y-153000000D03*
%TD*%
D35*
%TO.C,Y1*%
X238900000Y-145850000D03*
X241100000Y-145850000D03*
X241100000Y-144150000D03*
X238900000Y-144150000D03*
%TD*%
D11*
%TO.C,J11*%
X191375000Y-83000000D03*
X192125000Y-83000000D03*
X192875000Y-83000000D03*
X193625000Y-83000000D03*
X194375000Y-83000000D03*
X195125000Y-83000000D03*
X195875000Y-83000000D03*
X196625000Y-83000000D03*
X197375000Y-83000000D03*
X198125000Y-83000000D03*
X198875000Y-83000000D03*
X199625000Y-83000000D03*
X200375000Y-83000000D03*
X201125000Y-83000000D03*
X201875000Y-83000000D03*
X202625000Y-83000000D03*
X203375000Y-83000000D03*
X204125000Y-83000000D03*
X204875000Y-83000000D03*
X205625000Y-83000000D03*
X206375000Y-83000000D03*
X207125000Y-83000000D03*
X207875000Y-83000000D03*
X208625000Y-83000000D03*
%TD*%
D13*
%TO.C,C10_b*%
X162520000Y-128000000D03*
X163480000Y-128000000D03*
%TD*%
D36*
%TO.C,U24*%
X215137500Y-109725000D03*
X215137500Y-110375000D03*
X215137500Y-111025000D03*
X215137500Y-111675000D03*
X215137500Y-112325000D03*
X215137500Y-112975000D03*
X215137500Y-113625000D03*
X215137500Y-114275000D03*
X220862500Y-114275000D03*
X220862500Y-113625000D03*
X220862500Y-112975000D03*
X220862500Y-112325000D03*
X220862500Y-111675000D03*
X220862500Y-111025000D03*
X220862500Y-110375000D03*
X220862500Y-109725000D03*
%TD*%
D37*
%TO.C,J2*%
X258000000Y-178750000D03*
X258000000Y-178250000D03*
X258000000Y-177750000D03*
X258000000Y-177250000D03*
X258000000Y-176750000D03*
X258000000Y-176250000D03*
X258000000Y-175750000D03*
X258000000Y-175250000D03*
X258000000Y-174750000D03*
X258000000Y-174250000D03*
X258000000Y-173750000D03*
X258000000Y-173250000D03*
X258000000Y-172750000D03*
X258000000Y-172250000D03*
X258000000Y-171750000D03*
X258000000Y-171250000D03*
%TD*%
D38*
%TO.C,SW1*%
X283300000Y-200000000D03*
X286700000Y-200000000D03*
%TD*%
D30*
%TO.C,U12*%
X190862500Y-204050000D03*
X190862500Y-205000000D03*
X190862500Y-205950000D03*
X193137500Y-205950000D03*
X193137500Y-204050000D03*
%TD*%
D14*
%TO.C,TP4*%
X145000000Y-219000000D03*
%TD*%
D39*
%TO.C,D3*%
X124212500Y-180000000D03*
X125787500Y-180000000D03*
%TD*%
D10*
%TO.C,R5_c*%
X124490000Y-185000000D03*
X125510000Y-185000000D03*
%TD*%
D13*
%TO.C,C5b*%
X244520000Y-182000000D03*
X245480000Y-182000000D03*
%TD*%
%TO.C,C38*%
X191520000Y-112000000D03*
X192480000Y-112000000D03*
%TD*%
D10*
%TO.C,R1a*%
X231490000Y-168000000D03*
X232510000Y-168000000D03*
%TD*%
D39*
%TO.C,D2*%
X119212500Y-180000000D03*
X120787500Y-180000000D03*
%TD*%
D14*
%TO.C,TP6*%
X165000000Y-219000000D03*
%TD*%
D40*
%TO.C,U20*%
X228537500Y-147750000D03*
X228537500Y-148250000D03*
X228537500Y-148750000D03*
X228537500Y-149250000D03*
X228537500Y-149750000D03*
X228537500Y-150250000D03*
X228537500Y-150750000D03*
X228537500Y-151250000D03*
X228537500Y-151750000D03*
X228537500Y-152250000D03*
D41*
X229250000Y-152975000D03*
X229750000Y-152975000D03*
X230250000Y-152975000D03*
X230750000Y-152975000D03*
D40*
X231462500Y-152250000D03*
X231462500Y-151750000D03*
X231462500Y-151250000D03*
X231462500Y-150750000D03*
X231462500Y-150250000D03*
X231462500Y-149750000D03*
X231462500Y-149250000D03*
X231462500Y-148750000D03*
X231462500Y-148250000D03*
X231462500Y-147750000D03*
D41*
X230750000Y-147025000D03*
X230250000Y-147025000D03*
X229750000Y-147025000D03*
X229250000Y-147025000D03*
D42*
X230000000Y-150000000D03*
%TD*%
D13*
%TO.C,C40*%
X204520000Y-112000000D03*
X205480000Y-112000000D03*
%TD*%
D30*
%TO.C,U13*%
X150862500Y-204050000D03*
X150862500Y-205000000D03*
X150862500Y-205950000D03*
X153137500Y-205950000D03*
X153137500Y-204050000D03*
%TD*%
D29*
%TO.C,MH4*%
X296000000Y-221000000D03*
%TD*%
D43*
%TO.C,F1*%
X119062500Y-210000000D03*
X120937500Y-210000000D03*
%TD*%
D13*
%TO.C,C37*%
X207520000Y-153000000D03*
X208480000Y-153000000D03*
%TD*%
D44*
%TO.C,J1*%
X110000000Y-217000000D03*
D45*
X110700000Y-204200000D03*
D46*
X103550000Y-213200000D03*
X116450000Y-213200000D03*
%TD*%
D30*
%TO.C,U10*%
X180862500Y-204050000D03*
X180862500Y-205000000D03*
X180862500Y-205950000D03*
X183137500Y-205950000D03*
X183137500Y-204050000D03*
%TD*%
D29*
%TO.C,MH3*%
X104000000Y-221000000D03*
%TD*%
D47*
%TO.C,L1*%
X133050000Y-212000000D03*
X142950000Y-212000000D03*
%TD*%
D13*
%TO.C,C10_a*%
X159520000Y-128000000D03*
X160480000Y-128000000D03*
%TD*%
D39*
%TO.C,D1*%
X114212500Y-180000000D03*
X115787500Y-180000000D03*
%TD*%
D13*
%TO.C,C50_2*%
X231520000Y-144000000D03*
X232480000Y-144000000D03*
%TD*%
D28*
%TO.C,J9*%
X220000000Y-83000000D03*
X220000000Y-78750000D03*
X220000000Y-87250000D03*
%TD*%
D13*
%TO.C,C45*%
X179520000Y-200000000D03*
X180480000Y-200000000D03*
%TD*%
%TO.C,C33*%
X201520000Y-168000000D03*
X202480000Y-168000000D03*
%TD*%
M02*
