M48
; DRILL file {KiCad 8.0.9-8.0.9-0~ubuntu22.04.1} date 2026-06-20T21:10:25+0000
; FORMAT={-:-/ absolute / metric / decimal}
; #@! TF.CreationDate,2026-06-20T21:10:25+00:00
; #@! TF.GenerationSoftware,Kicad,Pcbnew,8.0.9-8.0.9-0~ubuntu22.04.1
; #@! TF.FileFunction,MixedPlating,1,22
FMAT,2
METRIC
; #@! TA.AperFunction,Plated,PTH,ViaDrill
T1C0.300
; #@! TA.AperFunction,Plated,PTH,ComponentDrill
T2C0.650
; #@! TA.AperFunction,NonPlated,NPTH,ComponentDrill
T3C2.000
; #@! TA.AperFunction,NonPlated,NPTH,ComponentDrill
T4C3.200
%
G90
G05
T1
X112.3Y-186.2
X117.5Y-219.0
X120.0Y-93.0
X120.0Y-128.0
X120.0Y-163.0
X123.4Y-210.0
X124.8Y-202.2
X126.5Y-204.4
X126.5Y-205.6
X127.5Y-219.0
X129.1Y-197.0
X129.5Y-206.4
X134.4Y-200.0
X137.5Y-219.0
X141.2Y-203.0
X144.2Y-203.0
X145.0Y-217.0
X145.4Y-212.0
X147.2Y-202.0
X147.2Y-203.0
X147.5Y-219.0
X147.9Y-204.1
X147.9Y-206.8
X149.5Y-197.0
X149.5Y-202.0
X150.9Y-206.1
X154.1Y-149.2
X155.3Y-207.2
X157.3Y-201.2
X157.5Y-219.0
X157.9Y-204.1
X157.9Y-206.8
X158.0Y-93.0
X158.0Y-135.8
X158.0Y-138.0
X158.0Y-139.0
X158.0Y-163.0
X162.0Y-141.0
X162.4Y-141.0
X162.8Y-141.0
X163.2Y-141.0
X164.6Y-142.0
X165.0Y-217.0
X165.3Y-207.2
X167.3Y-201.2
X167.5Y-219.0
X167.9Y-204.1
X167.9Y-206.8
X169.5Y-202.0
X173.1Y-207.9
X175.3Y-207.2
X176.1Y-110.6
X177.3Y-201.2
X177.8Y-108.0
X177.9Y-204.1
X177.9Y-206.8
X180.9Y-206.1
X183.1Y-207.9
X185.3Y-120.0
X185.3Y-207.2
X187.8Y-122.0
X187.9Y-111.4
X188.7Y-202.8
X189.3Y-113.2
X189.3Y-154.2
X189.3Y-169.2
X189.7Y-202.8
X190.5Y-156.0
X190.9Y-207.0
X191.5Y-170.0
X194.5Y-115.0
X194.5Y-170.0
X194.5Y-171.0
X195.3Y-207.2
X195.6Y-151.0
X196.0Y-93.0
X196.6Y-151.0
X197.5Y-170.0
X197.5Y-171.0
X198.2Y-151.0
X201.5Y-170.0
X201.5Y-171.0
X202.3Y-113.2
X204.5Y-171.0
X207.5Y-115.0
X207.5Y-150.0
X207.5Y-155.0
X207.5Y-170.0
X207.5Y-171.0
X213.8Y-107.5
X214.1Y-168.2
X215.1Y-107.9
X218.9Y-164.2
X221.9Y-167.8
X223.3Y-145.2
X223.9Y-111.7
X223.9Y-112.8
X225.5Y-146.0
X225.5Y-147.8
X225.5Y-149.9
X228.0Y-135.8
X228.0Y-138.0
X228.0Y-139.0
X228.5Y-141.0
X229.3Y-169.2
X229.8Y-149.0
X230.2Y-156.0
X231.5Y-146.0
X232.0Y-141.0
X232.4Y-141.0
X232.8Y-141.0
X233.2Y-141.0
X234.0Y-93.0
X234.0Y-198.0
X234.5Y-146.0
X234.5Y-147.0
X239.3Y-183.2
X239.6Y-173.1
X239.6Y-174.4
X240.2Y-148.0
X242.3Y-148.0
X244.5Y-185.0
X245.3Y-166.8
X247.5Y-185.0
X250.5Y-170.0
X250.5Y-171.0
X250.5Y-185.0
X253.5Y-185.0
X256.5Y-185.0
X272.0Y-93.0
X272.0Y-128.0
X272.0Y-163.0
X272.0Y-198.0
X288.0Y-158.0
X289.3Y-130.7
X289.3Y-135.7
T2
X288.0Y-133.73
X288.0Y-135.0
X288.0Y-153.73
X288.0Y-155.0
X289.27Y-133.73
X289.27Y-135.0
X289.27Y-153.73
X289.27Y-155.0
X290.54Y-133.73
X290.54Y-135.0
X290.54Y-153.73
X290.54Y-155.0
X291.81Y-133.73
X291.81Y-135.0
X291.81Y-153.73
X291.81Y-155.0
X293.08Y-133.73
X293.08Y-135.0
X293.08Y-153.73
X293.08Y-155.0
X294.35Y-153.73
X294.35Y-155.0
X295.62Y-153.73
X295.62Y-155.0
T3
X110.0Y-217.0
T4
X104.0Y-79.0
X104.0Y-221.0
X296.0Y-79.0
X296.0Y-221.0
M30
