%TF.GenerationSoftware,KiCad,Pcbnew,8.0.9-8.0.9-0~ubuntu22.04.1*%
%TF.CreationDate,2026-06-20T21:10:25+00:00*%
%TF.ProjectId,LightRail_Eval_Board,4c696768-7452-4616-996c-5f4576616c5f,rev?*%
%TF.SameCoordinates,Original*%
%TF.FileFunction,Copper,L3,Inr*%
%TF.FilePolarity,Positive*%
%FSLAX46Y46*%
G04 Gerber Fmt 4.6, Leading zero omitted, Abs format (unit mm)*
G04 Created by KiCad (PCBNEW 8.0.9-8.0.9-0~ubuntu22.04.1) date 2026-06-20 21:10:25*
%MOMM*%
%LPD*%
G01*
G04 APERTURE LIST*
%TA.AperFunction,ComponentPad*%
%ADD10R,1.000000X1.000000*%
%TD*%
%TA.AperFunction,ComponentPad*%
%ADD11O,1.000000X1.000000*%
%TD*%
%TA.AperFunction,ViaPad*%
%ADD12C,0.600000*%
%TD*%
G04 APERTURE END LIST*
D10*
%TO.N,+3V3*%
%TO.C,J6*%
X288000000Y-155000000D03*
D11*
%TO.N,GND*%
X288000000Y-153730000D03*
%TO.N,FPGA_GPIO0*%
X289270000Y-155000000D03*
%TO.N,FPGA_GPIO1*%
X289270000Y-153730000D03*
%TO.N,FPGA_GPIO2*%
X290540000Y-155000000D03*
%TO.N,FPGA_GPIO3*%
X290540000Y-153730000D03*
%TO.N,N/C*%
X291810000Y-155000000D03*
X291810000Y-153730000D03*
X293080000Y-155000000D03*
X293080000Y-153730000D03*
X294350000Y-155000000D03*
X294350000Y-153730000D03*
%TO.N,I2C_SCL*%
X295620000Y-155000000D03*
%TO.N,I2C_SDA*%
X295620000Y-153730000D03*
%TD*%
D10*
%TO.N,JTAG_TCK*%
%TO.C,J5*%
X288000000Y-135000000D03*
D11*
%TO.N,GND*%
X288000000Y-133730000D03*
%TO.N,JTAG_TDO*%
X289270000Y-135000000D03*
%TO.N,+3V3*%
X289270000Y-133730000D03*
%TO.N,JTAG_TMS*%
X290540000Y-135000000D03*
%TO.N,GND*%
X290540000Y-133730000D03*
%TO.N,N/C*%
X291810000Y-135000000D03*
X291810000Y-133730000D03*
%TO.N,JTAG_TDI*%
X293080000Y-135000000D03*
%TO.N,JTAG_TRST*%
X293080000Y-133730000D03*
%TD*%
D12*
%TO.N,+0V9*%
X250500000Y-171000000D03*
X228000000Y-135800000D03*
X167500000Y-219000000D03*
X228000000Y-139000000D03*
X194500000Y-171000000D03*
X197500000Y-171000000D03*
X158000000Y-135800000D03*
X201500000Y-171000000D03*
X158000000Y-139000000D03*
X189300000Y-169200000D03*
X185300000Y-207200000D03*
%TO.N,+12V*%
X124800000Y-202200000D03*
X117500000Y-219000000D03*
X126500000Y-204400000D03*
X134400000Y-200000000D03*
X126500000Y-205600000D03*
X123400000Y-210000000D03*
%TO.N,+1V0*%
X157500000Y-219000000D03*
X202300000Y-113200000D03*
X195300000Y-207200000D03*
X207500000Y-115000000D03*
X189300000Y-113200000D03*
X245300000Y-166800000D03*
X196600000Y-151000000D03*
X190500000Y-156000000D03*
X194500000Y-115000000D03*
%TO.N,+1V8*%
X207500000Y-171000000D03*
X189300000Y-154200000D03*
X185300000Y-120000000D03*
X147200000Y-203000000D03*
X204500000Y-171000000D03*
X175300000Y-207200000D03*
X144200000Y-203000000D03*
X189700000Y-202800000D03*
X198200000Y-151000000D03*
X188700000Y-202800000D03*
X147500000Y-219000000D03*
X225500000Y-149900000D03*
X167300000Y-201200000D03*
X223300000Y-145200000D03*
X164600000Y-142000000D03*
X228500000Y-141000000D03*
X177900000Y-206800000D03*
X228000000Y-138000000D03*
X157300000Y-201200000D03*
X207500000Y-150000000D03*
X177900000Y-204100000D03*
X244500000Y-185000000D03*
X234500000Y-147000000D03*
X177300000Y-201200000D03*
X195600000Y-151000000D03*
X149500000Y-197000000D03*
X158000000Y-138000000D03*
X165300000Y-207200000D03*
%TO.N,+3V3*%
X247500000Y-185000000D03*
X223900000Y-111700000D03*
X288000000Y-158000000D03*
X253500000Y-185000000D03*
X218900000Y-164200000D03*
X112300000Y-186200000D03*
X176100000Y-110600000D03*
X242300000Y-148000000D03*
X223900000Y-112800000D03*
X167900000Y-204100000D03*
X289300000Y-130699999D03*
X177800000Y-108000000D03*
X215100000Y-107900000D03*
X167900000Y-206800000D03*
X240200000Y-148000000D03*
X157900000Y-206800000D03*
X155300000Y-207200000D03*
X221900000Y-167800000D03*
X187900000Y-111400000D03*
X213800000Y-107500000D03*
X230200000Y-156000000D03*
X250500000Y-185000000D03*
X137500000Y-219000000D03*
X256500000Y-185000000D03*
X141200000Y-203000000D03*
X239300000Y-183200000D03*
X239600000Y-174400000D03*
X229300000Y-169200000D03*
X154100000Y-149200000D03*
X157900000Y-204100000D03*
X225500000Y-147800000D03*
X239600000Y-173100000D03*
X214100000Y-168200000D03*
%TO.N,+5V*%
X147900000Y-206800000D03*
X145400000Y-212000000D03*
X127500000Y-219000000D03*
X147900000Y-204100000D03*
X129100000Y-197000000D03*
%TO.N,GND*%
X180900000Y-206100000D03*
X232800000Y-141000000D03*
X120000000Y-93000000D03*
X229800000Y-149000000D03*
X162800000Y-141000000D03*
X272000000Y-163000000D03*
X272000000Y-128000000D03*
X165000000Y-217000000D03*
X120000000Y-163000000D03*
X147200000Y-202000000D03*
X201500000Y-170000000D03*
X162000000Y-141000000D03*
X234000000Y-93000000D03*
X187800000Y-122000000D03*
X232000000Y-141000000D03*
X120000000Y-128000000D03*
X163200000Y-141000000D03*
X233200000Y-141000000D03*
X149500000Y-202000000D03*
X158000000Y-163000000D03*
X272000000Y-93000000D03*
X158000000Y-93000000D03*
X129500000Y-206400000D03*
X197500000Y-170000000D03*
X234000000Y-198000000D03*
X191500000Y-170000000D03*
X196000000Y-93000000D03*
X234500000Y-146000000D03*
X169500000Y-202000000D03*
X173100000Y-207900000D03*
X232400000Y-141000000D03*
X183100000Y-207900000D03*
X162400000Y-141000000D03*
X231500000Y-146000000D03*
X194500000Y-170000000D03*
X225500000Y-146000000D03*
X207500000Y-155000000D03*
X145000000Y-217000000D03*
X272000000Y-198000000D03*
X207500000Y-170000000D03*
X250500000Y-170000000D03*
X190900000Y-207000000D03*
%TO.N,JTAG_TDO*%
X289300000Y-135700000D03*
%TO.N,NR_3V3*%
X150900000Y-206100000D03*
%TD*%
%TA.AperFunction,Conductor*%
%TO.N,GND*%
G36*
X294293068Y-78019685D02*
G01*
X294338823Y-78072489D01*
X294348767Y-78141647D01*
X294338135Y-78175957D01*
X294338329Y-78176038D01*
X294337463Y-78178128D01*
X294337242Y-78178842D01*
X294336776Y-78179785D01*
X294243947Y-78403895D01*
X294181161Y-78638214D01*
X294149500Y-78878711D01*
X294149500Y-79121288D01*
X294181161Y-79361785D01*
X294243947Y-79596104D01*
X294336773Y-79820205D01*
X294336776Y-79820212D01*
X294458064Y-80030289D01*
X294458066Y-80030292D01*
X294458067Y-80030293D01*
X294605733Y-80222736D01*
X294605739Y-80222743D01*
X294777256Y-80394260D01*
X294777262Y-80394265D01*
X294969711Y-80541936D01*
X295179788Y-80663224D01*
X295403900Y-80756054D01*
X295638211Y-80818838D01*
X295818586Y-80842584D01*
X295878711Y-80850500D01*
X295878712Y-80850500D01*
X296121289Y-80850500D01*
X296169388Y-80844167D01*
X296361789Y-80818838D01*
X296596100Y-80756054D01*
X296820212Y-80663224D01*
X296820223Y-80663217D01*
X296821138Y-80662767D01*
X296821445Y-80662713D01*
X296823962Y-80661671D01*
X296824195Y-80662233D01*
X296889968Y-80650759D01*
X296954364Y-80677870D01*
X296993879Y-80735492D01*
X297000000Y-80773970D01*
X297000000Y-219226029D01*
X296980315Y-219293068D01*
X296927511Y-219338823D01*
X296858353Y-219348767D01*
X296824042Y-219338135D01*
X296823962Y-219338329D01*
X296821871Y-219337463D01*
X296821158Y-219337242D01*
X296820214Y-219336776D01*
X296596104Y-219243947D01*
X296361785Y-219181161D01*
X296121289Y-219149500D01*
X296121288Y-219149500D01*
X295878712Y-219149500D01*
X295878711Y-219149500D01*
X295638214Y-219181161D01*
X295403895Y-219243947D01*
X295179794Y-219336773D01*
X295179785Y-219336777D01*
X294969706Y-219458067D01*
X294777263Y-219605733D01*
X294777256Y-219605739D01*
X294605739Y-219777256D01*
X294605733Y-219777263D01*
X294458067Y-219969706D01*
X294336777Y-220179785D01*
X294336773Y-220179794D01*
X294243947Y-220403895D01*
X294181161Y-220638214D01*
X294149500Y-220878711D01*
X294149500Y-221121288D01*
X294181161Y-221361785D01*
X294243947Y-221596104D01*
X294336776Y-221820214D01*
X294337242Y-221821158D01*
X294337296Y-221821468D01*
X294338329Y-221823962D01*
X294337770Y-221824193D01*
X294349237Y-221889990D01*
X294322115Y-221954380D01*
X294264486Y-221993886D01*
X294226029Y-222000000D01*
X105773971Y-222000000D01*
X105706932Y-221980315D01*
X105661177Y-221927511D01*
X105651233Y-221858353D01*
X105661864Y-221824042D01*
X105661671Y-221823962D01*
X105662536Y-221821871D01*
X105662758Y-221821158D01*
X105663223Y-221820214D01*
X105756052Y-221596104D01*
X105756054Y-221596100D01*
X105818838Y-221361789D01*
X105850500Y-221121288D01*
X105850500Y-220878712D01*
X105818838Y-220638211D01*
X105756054Y-220403900D01*
X105663224Y-220179788D01*
X105541936Y-219969711D01*
X105394265Y-219777262D01*
X105394260Y-219777256D01*
X105222743Y-219605739D01*
X105222736Y-219605733D01*
X105030293Y-219458067D01*
X105030292Y-219458066D01*
X105030289Y-219458064D01*
X104858661Y-219358974D01*
X104820214Y-219336777D01*
X104820205Y-219336773D01*
X104596104Y-219243947D01*
X104361785Y-219181161D01*
X104121289Y-219149500D01*
X104121288Y-219149500D01*
X103878712Y-219149500D01*
X103878711Y-219149500D01*
X103638214Y-219181161D01*
X103403895Y-219243947D01*
X103179785Y-219336776D01*
X103178842Y-219337242D01*
X103178531Y-219337296D01*
X103176038Y-219338329D01*
X103175806Y-219337770D01*
X103110010Y-219349237D01*
X103045620Y-219322115D01*
X103006114Y-219264486D01*
X103000000Y-219226029D01*
X103000000Y-218999996D01*
X116694435Y-218999996D01*
X116694435Y-219000003D01*
X116714630Y-219179249D01*
X116714631Y-219179254D01*
X116774211Y-219349523D01*
X116842414Y-219458067D01*
X116870184Y-219502262D01*
X116997738Y-219629816D01*
X117150478Y-219725789D01*
X117297562Y-219777256D01*
X117320745Y-219785368D01*
X117320750Y-219785369D01*
X117499996Y-219805565D01*
X117500000Y-219805565D01*
X117500004Y-219805565D01*
X117679249Y-219785369D01*
X117679252Y-219785368D01*
X117679255Y-219785368D01*
X117849522Y-219725789D01*
X118002262Y-219629816D01*
X118129816Y-219502262D01*
X118225789Y-219349522D01*
X118285368Y-219179255D01*
X118305565Y-219000000D01*
X118305565Y-218999996D01*
X126694435Y-218999996D01*
X126694435Y-219000003D01*
X126714630Y-219179249D01*
X126714631Y-219179254D01*
X126774211Y-219349523D01*
X126842414Y-219458067D01*
X126870184Y-219502262D01*
X126997738Y-219629816D01*
X127150478Y-219725789D01*
X127297562Y-219777256D01*
X127320745Y-219785368D01*
X127320750Y-219785369D01*
X127499996Y-219805565D01*
X127500000Y-219805565D01*
X127500004Y-219805565D01*
X127679249Y-219785369D01*
X127679252Y-219785368D01*
X127679255Y-219785368D01*
X127849522Y-219725789D01*
X128002262Y-219629816D01*
X128129816Y-219502262D01*
X128225789Y-219349522D01*
X128285368Y-219179255D01*
X128305565Y-219000000D01*
X128305565Y-218999996D01*
X136694435Y-218999996D01*
X136694435Y-219000003D01*
X136714630Y-219179249D01*
X136714631Y-219179254D01*
X136774211Y-219349523D01*
X136842414Y-219458067D01*
X136870184Y-219502262D01*
X136997738Y-219629816D01*
X137150478Y-219725789D01*
X137297562Y-219777256D01*
X137320745Y-219785368D01*
X137320750Y-219785369D01*
X137499996Y-219805565D01*
X137500000Y-219805565D01*
X137500004Y-219805565D01*
X137679249Y-219785369D01*
X137679252Y-219785368D01*
X137679255Y-219785368D01*
X137849522Y-219725789D01*
X138002262Y-219629816D01*
X138129816Y-219502262D01*
X138225789Y-219349522D01*
X138285368Y-219179255D01*
X138305565Y-219000000D01*
X138305565Y-218999996D01*
X146694435Y-218999996D01*
X146694435Y-219000003D01*
X146714630Y-219179249D01*
X146714631Y-219179254D01*
X146774211Y-219349523D01*
X146842414Y-219458067D01*
X146870184Y-219502262D01*
X146997738Y-219629816D01*
X147150478Y-219725789D01*
X147297562Y-219777256D01*
X147320745Y-219785368D01*
X147320750Y-219785369D01*
X147499996Y-219805565D01*
X147500000Y-219805565D01*
X147500004Y-219805565D01*
X147679249Y-219785369D01*
X147679252Y-219785368D01*
X147679255Y-219785368D01*
X147849522Y-219725789D01*
X148002262Y-219629816D01*
X148129816Y-219502262D01*
X148225789Y-219349522D01*
X148285368Y-219179255D01*
X148305565Y-219000000D01*
X148305565Y-218999996D01*
X156694435Y-218999996D01*
X156694435Y-219000003D01*
X156714630Y-219179249D01*
X156714631Y-219179254D01*
X156774211Y-219349523D01*
X156842414Y-219458067D01*
X156870184Y-219502262D01*
X156997738Y-219629816D01*
X157150478Y-219725789D01*
X157297562Y-219777256D01*
X157320745Y-219785368D01*
X157320750Y-219785369D01*
X157499996Y-219805565D01*
X157500000Y-219805565D01*
X157500004Y-219805565D01*
X157679249Y-219785369D01*
X157679252Y-219785368D01*
X157679255Y-219785368D01*
X157849522Y-219725789D01*
X158002262Y-219629816D01*
X158129816Y-219502262D01*
X158225789Y-219349522D01*
X158285368Y-219179255D01*
X158305565Y-219000000D01*
X158305565Y-218999996D01*
X166694435Y-218999996D01*
X166694435Y-219000003D01*
X166714630Y-219179249D01*
X166714631Y-219179254D01*
X166774211Y-219349523D01*
X166842414Y-219458067D01*
X166870184Y-219502262D01*
X166997738Y-219629816D01*
X167150478Y-219725789D01*
X167297562Y-219777256D01*
X167320745Y-219785368D01*
X167320750Y-219785369D01*
X167499996Y-219805565D01*
X167500000Y-219805565D01*
X167500004Y-219805565D01*
X167679249Y-219785369D01*
X167679252Y-219785368D01*
X167679255Y-219785368D01*
X167849522Y-219725789D01*
X168002262Y-219629816D01*
X168129816Y-219502262D01*
X168225789Y-219349522D01*
X168285368Y-219179255D01*
X168305565Y-219000000D01*
X168285368Y-218820745D01*
X168225789Y-218650478D01*
X168129816Y-218497738D01*
X168002262Y-218370184D01*
X167849523Y-218274211D01*
X167679254Y-218214631D01*
X167679249Y-218214630D01*
X167500004Y-218194435D01*
X167499996Y-218194435D01*
X167320750Y-218214630D01*
X167320745Y-218214631D01*
X167150476Y-218274211D01*
X166997737Y-218370184D01*
X166870184Y-218497737D01*
X166774211Y-218650476D01*
X166714631Y-218820745D01*
X166714630Y-218820750D01*
X166694435Y-218999996D01*
X158305565Y-218999996D01*
X158285368Y-218820745D01*
X158225789Y-218650478D01*
X158129816Y-218497738D01*
X158002262Y-218370184D01*
X157849523Y-218274211D01*
X157679254Y-218214631D01*
X157679249Y-218214630D01*
X157500004Y-218194435D01*
X157499996Y-218194435D01*
X157320750Y-218214630D01*
X157320745Y-218214631D01*
X157150476Y-218274211D01*
X156997737Y-218370184D01*
X156870184Y-218497737D01*
X156774211Y-218650476D01*
X156714631Y-218820745D01*
X156714630Y-218820750D01*
X156694435Y-218999996D01*
X148305565Y-218999996D01*
X148285368Y-218820745D01*
X148225789Y-218650478D01*
X148129816Y-218497738D01*
X148002262Y-218370184D01*
X147849523Y-218274211D01*
X147679254Y-218214631D01*
X147679249Y-218214630D01*
X147500004Y-218194435D01*
X147499996Y-218194435D01*
X147320750Y-218214630D01*
X147320745Y-218214631D01*
X147150476Y-218274211D01*
X146997737Y-218370184D01*
X146870184Y-218497737D01*
X146774211Y-218650476D01*
X146714631Y-218820745D01*
X146714630Y-218820750D01*
X146694435Y-218999996D01*
X138305565Y-218999996D01*
X138285368Y-218820745D01*
X138225789Y-218650478D01*
X138129816Y-218497738D01*
X138002262Y-218370184D01*
X137849523Y-218274211D01*
X137679254Y-218214631D01*
X137679249Y-218214630D01*
X137500004Y-218194435D01*
X137499996Y-218194435D01*
X137320750Y-218214630D01*
X137320745Y-218214631D01*
X137150476Y-218274211D01*
X136997737Y-218370184D01*
X136870184Y-218497737D01*
X136774211Y-218650476D01*
X136714631Y-218820745D01*
X136714630Y-218820750D01*
X136694435Y-218999996D01*
X128305565Y-218999996D01*
X128285368Y-218820745D01*
X128225789Y-218650478D01*
X128129816Y-218497738D01*
X128002262Y-218370184D01*
X127849523Y-218274211D01*
X127679254Y-218214631D01*
X127679249Y-218214630D01*
X127500004Y-218194435D01*
X127499996Y-218194435D01*
X127320750Y-218214630D01*
X127320745Y-218214631D01*
X127150476Y-218274211D01*
X126997737Y-218370184D01*
X126870184Y-218497737D01*
X126774211Y-218650476D01*
X126714631Y-218820745D01*
X126714630Y-218820750D01*
X126694435Y-218999996D01*
X118305565Y-218999996D01*
X118285368Y-218820745D01*
X118225789Y-218650478D01*
X118129816Y-218497738D01*
X118002262Y-218370184D01*
X117849523Y-218274211D01*
X117679254Y-218214631D01*
X117679249Y-218214630D01*
X117500004Y-218194435D01*
X117499996Y-218194435D01*
X117320750Y-218214630D01*
X117320745Y-218214631D01*
X117150476Y-218274211D01*
X116997737Y-218370184D01*
X116870184Y-218497737D01*
X116774211Y-218650476D01*
X116714631Y-218820745D01*
X116714630Y-218820750D01*
X116694435Y-218999996D01*
X103000000Y-218999996D01*
X103000000Y-216901577D01*
X108749500Y-216901577D01*
X108749500Y-217098422D01*
X108780290Y-217292826D01*
X108841117Y-217480029D01*
X108930476Y-217655405D01*
X109046172Y-217814646D01*
X109185354Y-217953828D01*
X109344595Y-218069524D01*
X109427455Y-218111743D01*
X109519970Y-218158882D01*
X109519972Y-218158882D01*
X109519975Y-218158884D01*
X109620317Y-218191487D01*
X109707173Y-218219709D01*
X109901578Y-218250500D01*
X109901583Y-218250500D01*
X110098422Y-218250500D01*
X110292826Y-218219709D01*
X110308457Y-218214630D01*
X110480025Y-218158884D01*
X110655405Y-218069524D01*
X110814646Y-217953828D01*
X110953828Y-217814646D01*
X111069524Y-217655405D01*
X111158884Y-217480025D01*
X111219709Y-217292826D01*
X111250500Y-217098422D01*
X111250500Y-216901577D01*
X111219709Y-216707173D01*
X111158882Y-216519970D01*
X111069523Y-216344594D01*
X110953828Y-216185354D01*
X110814646Y-216046172D01*
X110655405Y-215930476D01*
X110480029Y-215841117D01*
X110292826Y-215780290D01*
X110098422Y-215749500D01*
X110098417Y-215749500D01*
X109901583Y-215749500D01*
X109901578Y-215749500D01*
X109707173Y-215780290D01*
X109519970Y-215841117D01*
X109344594Y-215930476D01*
X109253741Y-215996485D01*
X109185354Y-216046172D01*
X109185352Y-216046174D01*
X109185351Y-216046174D01*
X109046174Y-216185351D01*
X109046174Y-216185352D01*
X109046172Y-216185354D01*
X108996485Y-216253741D01*
X108930476Y-216344594D01*
X108841117Y-216519970D01*
X108780290Y-216707173D01*
X108749500Y-216901577D01*
X103000000Y-216901577D01*
X103000000Y-211999996D01*
X144594435Y-211999996D01*
X144594435Y-212000003D01*
X144614630Y-212179249D01*
X144614631Y-212179254D01*
X144674211Y-212349523D01*
X144770184Y-212502262D01*
X144897738Y-212629816D01*
X145050478Y-212725789D01*
X145220745Y-212785368D01*
X145220750Y-212785369D01*
X145399996Y-212805565D01*
X145400000Y-212805565D01*
X145400004Y-212805565D01*
X145579249Y-212785369D01*
X145579252Y-212785368D01*
X145579255Y-212785368D01*
X145749522Y-212725789D01*
X145902262Y-212629816D01*
X146029816Y-212502262D01*
X146125789Y-212349522D01*
X146185368Y-212179255D01*
X146205565Y-212000000D01*
X146185368Y-211820745D01*
X146125789Y-211650478D01*
X146029816Y-211497738D01*
X145902262Y-211370184D01*
X145749523Y-211274211D01*
X145579254Y-211214631D01*
X145579249Y-211214630D01*
X145400004Y-211194435D01*
X145399996Y-211194435D01*
X145220750Y-211214630D01*
X145220745Y-211214631D01*
X145050476Y-211274211D01*
X144897737Y-211370184D01*
X144770184Y-211497737D01*
X144674211Y-211650476D01*
X144614631Y-211820745D01*
X144614630Y-211820750D01*
X144594435Y-211999996D01*
X103000000Y-211999996D01*
X103000000Y-209999996D01*
X122594435Y-209999996D01*
X122594435Y-210000003D01*
X122614630Y-210179249D01*
X122614631Y-210179254D01*
X122674211Y-210349523D01*
X122770184Y-210502262D01*
X122897738Y-210629816D01*
X123050478Y-210725789D01*
X123220745Y-210785368D01*
X123220750Y-210785369D01*
X123399996Y-210805565D01*
X123400000Y-210805565D01*
X123400004Y-210805565D01*
X123579249Y-210785369D01*
X123579252Y-210785368D01*
X123579255Y-210785368D01*
X123749522Y-210725789D01*
X123902262Y-210629816D01*
X124029816Y-210502262D01*
X124125789Y-210349522D01*
X124185368Y-210179255D01*
X124205565Y-210000000D01*
X124185368Y-209820745D01*
X124125789Y-209650478D01*
X124029816Y-209497738D01*
X123902262Y-209370184D01*
X123749523Y-209274211D01*
X123579254Y-209214631D01*
X123579249Y-209214630D01*
X123400004Y-209194435D01*
X123399996Y-209194435D01*
X123220750Y-209214630D01*
X123220745Y-209214631D01*
X123050476Y-209274211D01*
X122897737Y-209370184D01*
X122770184Y-209497737D01*
X122674211Y-209650476D01*
X122614631Y-209820745D01*
X122614630Y-209820750D01*
X122594435Y-209999996D01*
X103000000Y-209999996D01*
X103000000Y-206799996D01*
X147094435Y-206799996D01*
X147094435Y-206800003D01*
X147114630Y-206979249D01*
X147114631Y-206979254D01*
X147174211Y-207149523D01*
X147205926Y-207199996D01*
X147270184Y-207302262D01*
X147397738Y-207429816D01*
X147550478Y-207525789D01*
X147618306Y-207549523D01*
X147720745Y-207585368D01*
X147720750Y-207585369D01*
X147899996Y-207605565D01*
X147900000Y-207605565D01*
X147900004Y-207605565D01*
X148079249Y-207585369D01*
X148079252Y-207585368D01*
X148079255Y-207585368D01*
X148249522Y-207525789D01*
X148402262Y-207429816D01*
X148529816Y-207302262D01*
X148594074Y-207199996D01*
X154494435Y-207199996D01*
X154494435Y-207200003D01*
X154514630Y-207379249D01*
X154514631Y-207379254D01*
X154574211Y-207549523D01*
X154596735Y-207585369D01*
X154670184Y-207702262D01*
X154797738Y-207829816D01*
X154950478Y-207925789D01*
X155120745Y-207985368D01*
X155120750Y-207985369D01*
X155299996Y-208005565D01*
X155300000Y-208005565D01*
X155300004Y-208005565D01*
X155479249Y-207985369D01*
X155479252Y-207985368D01*
X155479255Y-207985368D01*
X155649522Y-207925789D01*
X155802262Y-207829816D01*
X155929816Y-207702262D01*
X156025789Y-207549522D01*
X156085368Y-207379255D01*
X156105565Y-207200000D01*
X156085368Y-207020745D01*
X156025789Y-206850478D01*
X155994069Y-206799996D01*
X157094435Y-206799996D01*
X157094435Y-206800003D01*
X157114630Y-206979249D01*
X157114631Y-206979254D01*
X157174211Y-207149523D01*
X157205926Y-207199996D01*
X157270184Y-207302262D01*
X157397738Y-207429816D01*
X157550478Y-207525789D01*
X157618306Y-207549523D01*
X157720745Y-207585368D01*
X157720750Y-207585369D01*
X157899996Y-207605565D01*
X157900000Y-207605565D01*
X157900004Y-207605565D01*
X158079249Y-207585369D01*
X158079252Y-207585368D01*
X158079255Y-207585368D01*
X158249522Y-207525789D01*
X158402262Y-207429816D01*
X158529816Y-207302262D01*
X158594074Y-207199996D01*
X164494435Y-207199996D01*
X164494435Y-207200003D01*
X164514630Y-207379249D01*
X164514631Y-207379254D01*
X164574211Y-207549523D01*
X164596735Y-207585369D01*
X164670184Y-207702262D01*
X164797738Y-207829816D01*
X164950478Y-207925789D01*
X165120745Y-207985368D01*
X165120750Y-207985369D01*
X165299996Y-208005565D01*
X165300000Y-208005565D01*
X165300004Y-208005565D01*
X165479249Y-207985369D01*
X165479252Y-207985368D01*
X165479255Y-207985368D01*
X165649522Y-207925789D01*
X165802262Y-207829816D01*
X165929816Y-207702262D01*
X166025789Y-207549522D01*
X166085368Y-207379255D01*
X166105565Y-207200000D01*
X166085368Y-207020745D01*
X166025789Y-206850478D01*
X165994069Y-206799996D01*
X167094435Y-206799996D01*
X167094435Y-206800003D01*
X167114630Y-206979249D01*
X167114631Y-206979254D01*
X167174211Y-207149523D01*
X167205926Y-207199996D01*
X167270184Y-207302262D01*
X167397738Y-207429816D01*
X167550478Y-207525789D01*
X167618306Y-207549523D01*
X167720745Y-207585368D01*
X167720750Y-207585369D01*
X167899996Y-207605565D01*
X167900000Y-207605565D01*
X167900004Y-207605565D01*
X168079249Y-207585369D01*
X168079252Y-207585368D01*
X168079255Y-207585368D01*
X168249522Y-207525789D01*
X168402262Y-207429816D01*
X168529816Y-207302262D01*
X168594074Y-207199996D01*
X174494435Y-207199996D01*
X174494435Y-207200003D01*
X174514630Y-207379249D01*
X174514631Y-207379254D01*
X174574211Y-207549523D01*
X174596735Y-207585369D01*
X174670184Y-207702262D01*
X174797738Y-207829816D01*
X174950478Y-207925789D01*
X175120745Y-207985368D01*
X175120750Y-207985369D01*
X175299996Y-208005565D01*
X175300000Y-208005565D01*
X175300004Y-208005565D01*
X175479249Y-207985369D01*
X175479252Y-207985368D01*
X175479255Y-207985368D01*
X175649522Y-207925789D01*
X175802262Y-207829816D01*
X175929816Y-207702262D01*
X176025789Y-207549522D01*
X176085368Y-207379255D01*
X176105565Y-207200000D01*
X176085368Y-207020745D01*
X176025789Y-206850478D01*
X175994069Y-206799996D01*
X177094435Y-206799996D01*
X177094435Y-206800003D01*
X177114630Y-206979249D01*
X177114631Y-206979254D01*
X177174211Y-207149523D01*
X177205926Y-207199996D01*
X177270184Y-207302262D01*
X177397738Y-207429816D01*
X177550478Y-207525789D01*
X177618306Y-207549523D01*
X177720745Y-207585368D01*
X177720750Y-207585369D01*
X177899996Y-207605565D01*
X177900000Y-207605565D01*
X177900004Y-207605565D01*
X178079249Y-207585369D01*
X178079252Y-207585368D01*
X178079255Y-207585368D01*
X178249522Y-207525789D01*
X178402262Y-207429816D01*
X178529816Y-207302262D01*
X178594074Y-207199996D01*
X184494435Y-207199996D01*
X184494435Y-207200003D01*
X184514630Y-207379249D01*
X184514631Y-207379254D01*
X184574211Y-207549523D01*
X184596735Y-207585369D01*
X184670184Y-207702262D01*
X184797738Y-207829816D01*
X184950478Y-207925789D01*
X185120745Y-207985368D01*
X185120750Y-207985369D01*
X185299996Y-208005565D01*
X185300000Y-208005565D01*
X185300004Y-208005565D01*
X185479249Y-207985369D01*
X185479252Y-207985368D01*
X185479255Y-207985368D01*
X185649522Y-207925789D01*
X185802262Y-207829816D01*
X185929816Y-207702262D01*
X186025789Y-207549522D01*
X186085368Y-207379255D01*
X186105565Y-207200000D01*
X186105565Y-207199996D01*
X194494435Y-207199996D01*
X194494435Y-207200003D01*
X194514630Y-207379249D01*
X194514631Y-207379254D01*
X194574211Y-207549523D01*
X194596735Y-207585369D01*
X194670184Y-207702262D01*
X194797738Y-207829816D01*
X194950478Y-207925789D01*
X195120745Y-207985368D01*
X195120750Y-207985369D01*
X195299996Y-208005565D01*
X195300000Y-208005565D01*
X195300004Y-208005565D01*
X195479249Y-207985369D01*
X195479252Y-207985368D01*
X195479255Y-207985368D01*
X195649522Y-207925789D01*
X195802262Y-207829816D01*
X195929816Y-207702262D01*
X196025789Y-207549522D01*
X196085368Y-207379255D01*
X196105565Y-207200000D01*
X196085368Y-207020745D01*
X196025789Y-206850478D01*
X195929816Y-206697738D01*
X195802262Y-206570184D01*
X195649523Y-206474211D01*
X195479254Y-206414631D01*
X195479249Y-206414630D01*
X195300004Y-206394435D01*
X195299996Y-206394435D01*
X195120750Y-206414630D01*
X195120745Y-206414631D01*
X194950476Y-206474211D01*
X194797737Y-206570184D01*
X194670184Y-206697737D01*
X194574211Y-206850476D01*
X194514631Y-207020745D01*
X194514630Y-207020750D01*
X194494435Y-207199996D01*
X186105565Y-207199996D01*
X186085368Y-207020745D01*
X186025789Y-206850478D01*
X185929816Y-206697738D01*
X185802262Y-206570184D01*
X185649523Y-206474211D01*
X185479254Y-206414631D01*
X185479249Y-206414630D01*
X185300004Y-206394435D01*
X185299996Y-206394435D01*
X185120750Y-206414630D01*
X185120745Y-206414631D01*
X184950476Y-206474211D01*
X184797737Y-206570184D01*
X184670184Y-206697737D01*
X184574211Y-206850476D01*
X184514631Y-207020745D01*
X184514630Y-207020750D01*
X184494435Y-207199996D01*
X178594074Y-207199996D01*
X178625789Y-207149522D01*
X178685368Y-206979255D01*
X178693671Y-206905565D01*
X178705565Y-206800003D01*
X178705565Y-206799996D01*
X178685369Y-206620750D01*
X178685368Y-206620745D01*
X178625789Y-206450478D01*
X178625188Y-206449522D01*
X178584878Y-206385368D01*
X178529816Y-206297738D01*
X178402262Y-206170184D01*
X178249523Y-206074211D01*
X178079254Y-206014631D01*
X178079249Y-206014630D01*
X177900004Y-205994435D01*
X177899996Y-205994435D01*
X177720750Y-206014630D01*
X177720745Y-206014631D01*
X177550476Y-206074211D01*
X177397737Y-206170184D01*
X177270184Y-206297737D01*
X177174211Y-206450476D01*
X177114631Y-206620745D01*
X177114630Y-206620750D01*
X177094435Y-206799996D01*
X175994069Y-206799996D01*
X175929816Y-206697738D01*
X175802262Y-206570184D01*
X175649523Y-206474211D01*
X175479254Y-206414631D01*
X175479249Y-206414630D01*
X175300004Y-206394435D01*
X175299996Y-206394435D01*
X175120750Y-206414630D01*
X175120745Y-206414631D01*
X174950476Y-206474211D01*
X174797737Y-206570184D01*
X174670184Y-206697737D01*
X174574211Y-206850476D01*
X174514631Y-207020745D01*
X174514630Y-207020750D01*
X174494435Y-207199996D01*
X168594074Y-207199996D01*
X168625789Y-207149522D01*
X168685368Y-206979255D01*
X168693671Y-206905565D01*
X168705565Y-206800003D01*
X168705565Y-206799996D01*
X168685369Y-206620750D01*
X168685368Y-206620745D01*
X168625789Y-206450478D01*
X168625188Y-206449522D01*
X168584878Y-206385368D01*
X168529816Y-206297738D01*
X168402262Y-206170184D01*
X168249523Y-206074211D01*
X168079254Y-206014631D01*
X168079249Y-206014630D01*
X167900004Y-205994435D01*
X167899996Y-205994435D01*
X167720750Y-206014630D01*
X167720745Y-206014631D01*
X167550476Y-206074211D01*
X167397737Y-206170184D01*
X167270184Y-206297737D01*
X167174211Y-206450476D01*
X167114631Y-206620745D01*
X167114630Y-206620750D01*
X167094435Y-206799996D01*
X165994069Y-206799996D01*
X165929816Y-206697738D01*
X165802262Y-206570184D01*
X165649523Y-206474211D01*
X165479254Y-206414631D01*
X165479249Y-206414630D01*
X165300004Y-206394435D01*
X165299996Y-206394435D01*
X165120750Y-206414630D01*
X165120745Y-206414631D01*
X164950476Y-206474211D01*
X164797737Y-206570184D01*
X164670184Y-206697737D01*
X164574211Y-206850476D01*
X164514631Y-207020745D01*
X164514630Y-207020750D01*
X164494435Y-207199996D01*
X158594074Y-207199996D01*
X158625789Y-207149522D01*
X158685368Y-206979255D01*
X158693671Y-206905565D01*
X158705565Y-206800003D01*
X158705565Y-206799996D01*
X158685369Y-206620750D01*
X158685368Y-206620745D01*
X158625789Y-206450478D01*
X158625188Y-206449522D01*
X158584878Y-206385368D01*
X158529816Y-206297738D01*
X158402262Y-206170184D01*
X158249523Y-206074211D01*
X158079254Y-206014631D01*
X158079249Y-206014630D01*
X157900004Y-205994435D01*
X157899996Y-205994435D01*
X157720750Y-206014630D01*
X157720745Y-206014631D01*
X157550476Y-206074211D01*
X157397737Y-206170184D01*
X157270184Y-206297737D01*
X157174211Y-206450476D01*
X157114631Y-206620745D01*
X157114630Y-206620750D01*
X157094435Y-206799996D01*
X155994069Y-206799996D01*
X155929816Y-206697738D01*
X155802262Y-206570184D01*
X155649523Y-206474211D01*
X155479254Y-206414631D01*
X155479249Y-206414630D01*
X155300004Y-206394435D01*
X155299996Y-206394435D01*
X155120750Y-206414630D01*
X155120745Y-206414631D01*
X154950476Y-206474211D01*
X154797737Y-206570184D01*
X154670184Y-206697737D01*
X154574211Y-206850476D01*
X154514631Y-207020745D01*
X154514630Y-207020750D01*
X154494435Y-207199996D01*
X148594074Y-207199996D01*
X148625789Y-207149522D01*
X148685368Y-206979255D01*
X148693671Y-206905565D01*
X148705565Y-206800003D01*
X148705565Y-206799996D01*
X148685369Y-206620750D01*
X148685368Y-206620745D01*
X148625789Y-206450478D01*
X148625188Y-206449522D01*
X148584878Y-206385368D01*
X148529816Y-206297738D01*
X148402262Y-206170184D01*
X148290559Y-206099996D01*
X150094435Y-206099996D01*
X150094435Y-206100003D01*
X150114630Y-206279249D01*
X150114631Y-206279254D01*
X150174211Y-206449523D01*
X150189724Y-206474211D01*
X150270184Y-206602262D01*
X150397738Y-206729816D01*
X150550478Y-206825789D01*
X150720745Y-206885368D01*
X150720750Y-206885369D01*
X150899996Y-206905565D01*
X150900000Y-206905565D01*
X150900004Y-206905565D01*
X151079249Y-206885369D01*
X151079252Y-206885368D01*
X151079255Y-206885368D01*
X151249522Y-206825789D01*
X151402262Y-206729816D01*
X151529816Y-206602262D01*
X151625789Y-206449522D01*
X151685368Y-206279255D01*
X151685369Y-206279249D01*
X151705565Y-206100003D01*
X151705565Y-206099996D01*
X151685369Y-205920750D01*
X151685368Y-205920745D01*
X151625789Y-205750478D01*
X151529816Y-205597738D01*
X151402262Y-205470184D01*
X151249523Y-205374211D01*
X151079254Y-205314631D01*
X151079249Y-205314630D01*
X150900004Y-205294435D01*
X150899996Y-205294435D01*
X150720750Y-205314630D01*
X150720745Y-205314631D01*
X150550476Y-205374211D01*
X150397737Y-205470184D01*
X150270184Y-205597737D01*
X150174211Y-205750476D01*
X150114631Y-205920745D01*
X150114630Y-205920750D01*
X150094435Y-206099996D01*
X148290559Y-206099996D01*
X148249523Y-206074211D01*
X148079254Y-206014631D01*
X148079249Y-206014630D01*
X147900004Y-205994435D01*
X147899996Y-205994435D01*
X147720750Y-206014630D01*
X147720745Y-206014631D01*
X147550476Y-206074211D01*
X147397737Y-206170184D01*
X147270184Y-206297737D01*
X147174211Y-206450476D01*
X147114631Y-206620745D01*
X147114630Y-206620750D01*
X147094435Y-206799996D01*
X103000000Y-206799996D01*
X103000000Y-204399996D01*
X125694435Y-204399996D01*
X125694435Y-204400003D01*
X125714630Y-204579249D01*
X125714631Y-204579254D01*
X125774211Y-204749523D01*
X125870184Y-204902262D01*
X125880241Y-204912319D01*
X125913726Y-204973642D01*
X125908742Y-205043334D01*
X125880241Y-205087681D01*
X125870184Y-205097737D01*
X125774211Y-205250476D01*
X125714631Y-205420745D01*
X125714630Y-205420750D01*
X125694435Y-205599996D01*
X125694435Y-205600003D01*
X125714630Y-205779249D01*
X125714631Y-205779254D01*
X125774211Y-205949523D01*
X125815122Y-206014632D01*
X125870184Y-206102262D01*
X125997738Y-206229816D01*
X126076410Y-206279249D01*
X126105833Y-206297737D01*
X126150478Y-206325789D01*
X126320745Y-206385368D01*
X126320750Y-206385369D01*
X126499996Y-206405565D01*
X126500000Y-206405565D01*
X126500004Y-206405565D01*
X126679249Y-206385369D01*
X126679252Y-206385368D01*
X126679255Y-206385368D01*
X126849522Y-206325789D01*
X127002262Y-206229816D01*
X127129816Y-206102262D01*
X127225789Y-205949522D01*
X127285368Y-205779255D01*
X127285369Y-205779249D01*
X127305565Y-205600003D01*
X127305565Y-205599996D01*
X127285369Y-205420750D01*
X127285368Y-205420745D01*
X127225788Y-205250476D01*
X127129815Y-205097737D01*
X127119759Y-205087681D01*
X127086274Y-205026358D01*
X127091258Y-204956666D01*
X127119759Y-204912319D01*
X127129816Y-204902262D01*
X127225789Y-204749522D01*
X127285368Y-204579255D01*
X127299985Y-204449523D01*
X127305565Y-204400003D01*
X127305565Y-204399996D01*
X127285369Y-204220750D01*
X127285368Y-204220745D01*
X127225789Y-204050478D01*
X127129816Y-203897738D01*
X127002262Y-203770184D01*
X126931608Y-203725789D01*
X126849523Y-203674211D01*
X126679254Y-203614631D01*
X126679249Y-203614630D01*
X126500004Y-203594435D01*
X126499996Y-203594435D01*
X126320750Y-203614630D01*
X126320745Y-203614631D01*
X126150476Y-203674211D01*
X125997737Y-203770184D01*
X125870184Y-203897737D01*
X125774211Y-204050476D01*
X125714631Y-204220745D01*
X125714630Y-204220750D01*
X125694435Y-204399996D01*
X103000000Y-204399996D01*
X103000000Y-202199996D01*
X123994435Y-202199996D01*
X123994435Y-202200003D01*
X124014630Y-202379249D01*
X124014631Y-202379254D01*
X124074211Y-202549523D01*
X124137646Y-202650478D01*
X124170184Y-202702262D01*
X124297738Y-202829816D01*
X124450478Y-202925789D01*
X124603258Y-202979249D01*
X124620745Y-202985368D01*
X124620750Y-202985369D01*
X124799996Y-203005565D01*
X124800000Y-203005565D01*
X124800004Y-203005565D01*
X124849430Y-202999996D01*
X140394435Y-202999996D01*
X140394435Y-203000003D01*
X140414630Y-203179249D01*
X140414631Y-203179254D01*
X140474211Y-203349523D01*
X140489724Y-203374211D01*
X140570184Y-203502262D01*
X140697738Y-203629816D01*
X140850478Y-203725789D01*
X140977352Y-203770184D01*
X141020745Y-203785368D01*
X141020750Y-203785369D01*
X141199996Y-203805565D01*
X141200000Y-203805565D01*
X141200004Y-203805565D01*
X141379249Y-203785369D01*
X141379252Y-203785368D01*
X141379255Y-203785368D01*
X141549522Y-203725789D01*
X141702262Y-203629816D01*
X141829816Y-203502262D01*
X141925789Y-203349522D01*
X141985368Y-203179255D01*
X142005565Y-203000000D01*
X142005565Y-202999996D01*
X143394435Y-202999996D01*
X143394435Y-203000003D01*
X143414630Y-203179249D01*
X143414631Y-203179254D01*
X143474211Y-203349523D01*
X143489724Y-203374211D01*
X143570184Y-203502262D01*
X143697738Y-203629816D01*
X143850478Y-203725789D01*
X143977352Y-203770184D01*
X144020745Y-203785368D01*
X144020750Y-203785369D01*
X144199996Y-203805565D01*
X144200000Y-203805565D01*
X144200004Y-203805565D01*
X144379249Y-203785369D01*
X144379252Y-203785368D01*
X144379255Y-203785368D01*
X144549522Y-203725789D01*
X144702262Y-203629816D01*
X144829816Y-203502262D01*
X144925789Y-203349522D01*
X144985368Y-203179255D01*
X145005565Y-203000000D01*
X145005565Y-202999996D01*
X146394435Y-202999996D01*
X146394435Y-203000003D01*
X146414630Y-203179249D01*
X146414631Y-203179254D01*
X146474211Y-203349523D01*
X146489724Y-203374211D01*
X146570184Y-203502262D01*
X146697738Y-203629816D01*
X146850478Y-203725789D01*
X146977352Y-203770184D01*
X147027318Y-203787668D01*
X147026756Y-203789273D01*
X147080088Y-203819100D01*
X147112948Y-203880760D01*
X147114741Y-203919770D01*
X147094435Y-204099996D01*
X147094435Y-204100003D01*
X147114630Y-204279249D01*
X147114631Y-204279254D01*
X147174211Y-204449523D01*
X147255724Y-204579249D01*
X147270184Y-204602262D01*
X147397738Y-204729816D01*
X147550478Y-204825789D01*
X147720745Y-204885368D01*
X147720750Y-204885369D01*
X147899996Y-204905565D01*
X147900000Y-204905565D01*
X147900004Y-204905565D01*
X148079249Y-204885369D01*
X148079252Y-204885368D01*
X148079255Y-204885368D01*
X148249522Y-204825789D01*
X148402262Y-204729816D01*
X148529816Y-204602262D01*
X148625789Y-204449522D01*
X148685368Y-204279255D01*
X148691960Y-204220750D01*
X148705565Y-204100003D01*
X148705565Y-204099996D01*
X157094435Y-204099996D01*
X157094435Y-204100003D01*
X157114630Y-204279249D01*
X157114631Y-204279254D01*
X157174211Y-204449523D01*
X157255724Y-204579249D01*
X157270184Y-204602262D01*
X157397738Y-204729816D01*
X157550478Y-204825789D01*
X157720745Y-204885368D01*
X157720750Y-204885369D01*
X157899996Y-204905565D01*
X157900000Y-204905565D01*
X157900004Y-204905565D01*
X158079249Y-204885369D01*
X158079252Y-204885368D01*
X158079255Y-204885368D01*
X158249522Y-204825789D01*
X158402262Y-204729816D01*
X158529816Y-204602262D01*
X158625789Y-204449522D01*
X158685368Y-204279255D01*
X158691960Y-204220750D01*
X158705565Y-204100003D01*
X158705565Y-204099996D01*
X167094435Y-204099996D01*
X167094435Y-204100003D01*
X167114630Y-204279249D01*
X167114631Y-204279254D01*
X167174211Y-204449523D01*
X167255724Y-204579249D01*
X167270184Y-204602262D01*
X167397738Y-204729816D01*
X167550478Y-204825789D01*
X167720745Y-204885368D01*
X167720750Y-204885369D01*
X167899996Y-204905565D01*
X167900000Y-204905565D01*
X167900004Y-204905565D01*
X168079249Y-204885369D01*
X168079252Y-204885368D01*
X168079255Y-204885368D01*
X168249522Y-204825789D01*
X168402262Y-204729816D01*
X168529816Y-204602262D01*
X168625789Y-204449522D01*
X168685368Y-204279255D01*
X168691960Y-204220750D01*
X168705565Y-204100003D01*
X168705565Y-204099996D01*
X177094435Y-204099996D01*
X177094435Y-204100003D01*
X177114630Y-204279249D01*
X177114631Y-204279254D01*
X177174211Y-204449523D01*
X177255724Y-204579249D01*
X177270184Y-204602262D01*
X177397738Y-204729816D01*
X177550478Y-204825789D01*
X177720745Y-204885368D01*
X177720750Y-204885369D01*
X177899996Y-204905565D01*
X177900000Y-204905565D01*
X177900004Y-204905565D01*
X178079249Y-204885369D01*
X178079252Y-204885368D01*
X178079255Y-204885368D01*
X178249522Y-204825789D01*
X178402262Y-204729816D01*
X178529816Y-204602262D01*
X178625789Y-204449522D01*
X178685368Y-204279255D01*
X178691960Y-204220750D01*
X178705565Y-204100003D01*
X178705565Y-204099996D01*
X178685369Y-203920750D01*
X178685368Y-203920745D01*
X178685027Y-203919770D01*
X178625789Y-203750478D01*
X178529816Y-203597738D01*
X178402262Y-203470184D01*
X178376012Y-203453690D01*
X178249523Y-203374211D01*
X178079254Y-203314631D01*
X178079249Y-203314630D01*
X177900004Y-203294435D01*
X177899996Y-203294435D01*
X177720750Y-203314630D01*
X177720745Y-203314631D01*
X177550476Y-203374211D01*
X177397737Y-203470184D01*
X177270184Y-203597737D01*
X177174211Y-203750476D01*
X177114631Y-203920745D01*
X177114630Y-203920750D01*
X177094435Y-204099996D01*
X168705565Y-204099996D01*
X168685369Y-203920750D01*
X168685368Y-203920745D01*
X168685027Y-203919770D01*
X168625789Y-203750478D01*
X168529816Y-203597738D01*
X168402262Y-203470184D01*
X168376012Y-203453690D01*
X168249523Y-203374211D01*
X168079254Y-203314631D01*
X168079249Y-203314630D01*
X167900004Y-203294435D01*
X167899996Y-203294435D01*
X167720750Y-203314630D01*
X167720745Y-203314631D01*
X167550476Y-203374211D01*
X167397737Y-203470184D01*
X167270184Y-203597737D01*
X167174211Y-203750476D01*
X167114631Y-203920745D01*
X167114630Y-203920750D01*
X167094435Y-204099996D01*
X158705565Y-204099996D01*
X158685369Y-203920750D01*
X158685368Y-203920745D01*
X158685027Y-203919770D01*
X158625789Y-203750478D01*
X158529816Y-203597738D01*
X158402262Y-203470184D01*
X158376012Y-203453690D01*
X158249523Y-203374211D01*
X158079254Y-203314631D01*
X158079249Y-203314630D01*
X157900004Y-203294435D01*
X157899996Y-203294435D01*
X157720750Y-203314630D01*
X157720745Y-203314631D01*
X157550476Y-203374211D01*
X157397737Y-203470184D01*
X157270184Y-203597737D01*
X157174211Y-203750476D01*
X157114631Y-203920745D01*
X157114630Y-203920750D01*
X157094435Y-204099996D01*
X148705565Y-204099996D01*
X148685369Y-203920750D01*
X148685368Y-203920745D01*
X148685027Y-203919770D01*
X148625789Y-203750478D01*
X148529816Y-203597738D01*
X148402262Y-203470184D01*
X148376012Y-203453690D01*
X148249521Y-203374210D01*
X148160566Y-203343084D01*
X148079255Y-203314632D01*
X148079252Y-203314631D01*
X148072683Y-203312333D01*
X148073243Y-203310732D01*
X148019899Y-203280887D01*
X147987047Y-203219223D01*
X147985258Y-203180229D01*
X147985369Y-203179249D01*
X148005565Y-203000000D01*
X148003916Y-202985369D01*
X147985369Y-202820750D01*
X147985368Y-202820745D01*
X147978108Y-202799996D01*
X187894435Y-202799996D01*
X187894435Y-202800003D01*
X187914630Y-202979249D01*
X187914631Y-202979254D01*
X187974211Y-203149523D01*
X188018007Y-203219223D01*
X188070184Y-203302262D01*
X188197738Y-203429816D01*
X188350478Y-203525789D01*
X188520745Y-203585368D01*
X188520750Y-203585369D01*
X188699996Y-203605565D01*
X188700000Y-203605565D01*
X188700004Y-203605565D01*
X188879249Y-203585369D01*
X188879252Y-203585368D01*
X188879255Y-203585368D01*
X189049522Y-203525789D01*
X189134027Y-203472691D01*
X189201264Y-203453690D01*
X189265973Y-203472691D01*
X189350475Y-203525788D01*
X189520745Y-203585368D01*
X189520750Y-203585369D01*
X189699996Y-203605565D01*
X189700000Y-203605565D01*
X189700004Y-203605565D01*
X189879249Y-203585369D01*
X189879252Y-203585368D01*
X189879255Y-203585368D01*
X190049522Y-203525789D01*
X190202262Y-203429816D01*
X190329816Y-203302262D01*
X190425789Y-203149522D01*
X190485368Y-202979255D01*
X190491392Y-202925789D01*
X190505565Y-202800003D01*
X190505565Y-202799996D01*
X190485369Y-202620750D01*
X190485368Y-202620745D01*
X190442326Y-202497738D01*
X190425789Y-202450478D01*
X190329816Y-202297738D01*
X190202262Y-202170184D01*
X190134027Y-202127309D01*
X190049523Y-202074211D01*
X189879254Y-202014631D01*
X189879249Y-202014630D01*
X189700004Y-201994435D01*
X189699996Y-201994435D01*
X189520750Y-202014630D01*
X189520737Y-202014633D01*
X189350479Y-202074209D01*
X189265971Y-202127309D01*
X189198734Y-202146309D01*
X189134029Y-202127309D01*
X189049520Y-202074209D01*
X188879262Y-202014633D01*
X188879249Y-202014630D01*
X188700004Y-201994435D01*
X188699996Y-201994435D01*
X188520750Y-202014630D01*
X188520745Y-202014631D01*
X188350476Y-202074211D01*
X188197737Y-202170184D01*
X188070184Y-202297737D01*
X187974211Y-202450476D01*
X187914631Y-202620745D01*
X187914630Y-202620750D01*
X187894435Y-202799996D01*
X147978108Y-202799996D01*
X147925788Y-202650476D01*
X147829815Y-202497737D01*
X147702262Y-202370184D01*
X147549523Y-202274211D01*
X147379254Y-202214631D01*
X147379249Y-202214630D01*
X147200004Y-202194435D01*
X147199996Y-202194435D01*
X147020750Y-202214630D01*
X147020745Y-202214631D01*
X146850476Y-202274211D01*
X146697737Y-202370184D01*
X146570184Y-202497737D01*
X146474211Y-202650476D01*
X146414631Y-202820745D01*
X146414630Y-202820750D01*
X146394435Y-202999996D01*
X145005565Y-202999996D01*
X145003916Y-202985369D01*
X144985369Y-202820750D01*
X144985368Y-202820745D01*
X144925788Y-202650476D01*
X144829815Y-202497737D01*
X144702262Y-202370184D01*
X144549523Y-202274211D01*
X144379254Y-202214631D01*
X144379249Y-202214630D01*
X144200004Y-202194435D01*
X144199996Y-202194435D01*
X144020750Y-202214630D01*
X144020745Y-202214631D01*
X143850476Y-202274211D01*
X143697737Y-202370184D01*
X143570184Y-202497737D01*
X143474211Y-202650476D01*
X143414631Y-202820745D01*
X143414630Y-202820750D01*
X143394435Y-202999996D01*
X142005565Y-202999996D01*
X142003916Y-202985369D01*
X141985369Y-202820750D01*
X141985368Y-202820745D01*
X141925788Y-202650476D01*
X141829815Y-202497737D01*
X141702262Y-202370184D01*
X141549523Y-202274211D01*
X141379254Y-202214631D01*
X141379249Y-202214630D01*
X141200004Y-202194435D01*
X141199996Y-202194435D01*
X141020750Y-202214630D01*
X141020745Y-202214631D01*
X140850476Y-202274211D01*
X140697737Y-202370184D01*
X140570184Y-202497737D01*
X140474211Y-202650476D01*
X140414631Y-202820745D01*
X140414630Y-202820750D01*
X140394435Y-202999996D01*
X124849430Y-202999996D01*
X124979249Y-202985369D01*
X124979252Y-202985368D01*
X124979255Y-202985368D01*
X125149522Y-202925789D01*
X125302262Y-202829816D01*
X125429816Y-202702262D01*
X125525789Y-202549522D01*
X125585368Y-202379255D01*
X125597204Y-202274211D01*
X125605565Y-202200003D01*
X125605565Y-202199996D01*
X125585369Y-202020750D01*
X125585368Y-202020745D01*
X125525788Y-201850476D01*
X125486582Y-201788080D01*
X125429816Y-201697738D01*
X125302262Y-201570184D01*
X125269379Y-201549522D01*
X125149523Y-201474211D01*
X124979254Y-201414631D01*
X124979249Y-201414630D01*
X124800004Y-201394435D01*
X124799996Y-201394435D01*
X124620750Y-201414630D01*
X124620745Y-201414631D01*
X124450476Y-201474211D01*
X124297737Y-201570184D01*
X124170184Y-201697737D01*
X124074211Y-201850476D01*
X124014631Y-202020745D01*
X124014630Y-202020750D01*
X123994435Y-202199996D01*
X103000000Y-202199996D01*
X103000000Y-201199996D01*
X156494435Y-201199996D01*
X156494435Y-201200003D01*
X156514630Y-201379249D01*
X156514631Y-201379254D01*
X156574211Y-201549523D01*
X156667341Y-201697737D01*
X156670184Y-201702262D01*
X156797738Y-201829816D01*
X156950478Y-201925789D01*
X157120745Y-201985368D01*
X157120750Y-201985369D01*
X157299996Y-202005565D01*
X157300000Y-202005565D01*
X157300004Y-202005565D01*
X157479249Y-201985369D01*
X157479252Y-201985368D01*
X157479255Y-201985368D01*
X157649522Y-201925789D01*
X157802262Y-201829816D01*
X157929816Y-201702262D01*
X158025789Y-201549522D01*
X158085368Y-201379255D01*
X158105565Y-201200000D01*
X158105565Y-201199996D01*
X166494435Y-201199996D01*
X166494435Y-201200003D01*
X166514630Y-201379249D01*
X166514631Y-201379254D01*
X166574211Y-201549523D01*
X166667341Y-201697737D01*
X166670184Y-201702262D01*
X166797738Y-201829816D01*
X166950478Y-201925789D01*
X167120745Y-201985368D01*
X167120750Y-201985369D01*
X167299996Y-202005565D01*
X167300000Y-202005565D01*
X167300004Y-202005565D01*
X167479249Y-201985369D01*
X167479252Y-201985368D01*
X167479255Y-201985368D01*
X167649522Y-201925789D01*
X167802262Y-201829816D01*
X167929816Y-201702262D01*
X168025789Y-201549522D01*
X168085368Y-201379255D01*
X168105565Y-201200000D01*
X168105565Y-201199996D01*
X176494435Y-201199996D01*
X176494435Y-201200003D01*
X176514630Y-201379249D01*
X176514631Y-201379254D01*
X176574211Y-201549523D01*
X176667341Y-201697737D01*
X176670184Y-201702262D01*
X176797738Y-201829816D01*
X176950478Y-201925789D01*
X177120745Y-201985368D01*
X177120750Y-201985369D01*
X177299996Y-202005565D01*
X177300000Y-202005565D01*
X177300004Y-202005565D01*
X177479249Y-201985369D01*
X177479252Y-201985368D01*
X177479255Y-201985368D01*
X177649522Y-201925789D01*
X177802262Y-201829816D01*
X177929816Y-201702262D01*
X178025789Y-201549522D01*
X178085368Y-201379255D01*
X178105565Y-201200000D01*
X178085368Y-201020745D01*
X178025789Y-200850478D01*
X177929816Y-200697738D01*
X177802262Y-200570184D01*
X177649523Y-200474211D01*
X177479254Y-200414631D01*
X177479249Y-200414630D01*
X177300004Y-200394435D01*
X177299996Y-200394435D01*
X177120750Y-200414630D01*
X177120745Y-200414631D01*
X176950476Y-200474211D01*
X176797737Y-200570184D01*
X176670184Y-200697737D01*
X176574211Y-200850476D01*
X176514631Y-201020745D01*
X176514630Y-201020750D01*
X176494435Y-201199996D01*
X168105565Y-201199996D01*
X168085368Y-201020745D01*
X168025789Y-200850478D01*
X167929816Y-200697738D01*
X167802262Y-200570184D01*
X167649523Y-200474211D01*
X167479254Y-200414631D01*
X167479249Y-200414630D01*
X167300004Y-200394435D01*
X167299996Y-200394435D01*
X167120750Y-200414630D01*
X167120745Y-200414631D01*
X166950476Y-200474211D01*
X166797737Y-200570184D01*
X166670184Y-200697737D01*
X166574211Y-200850476D01*
X166514631Y-201020745D01*
X166514630Y-201020750D01*
X166494435Y-201199996D01*
X158105565Y-201199996D01*
X158085368Y-201020745D01*
X158025789Y-200850478D01*
X157929816Y-200697738D01*
X157802262Y-200570184D01*
X157649523Y-200474211D01*
X157479254Y-200414631D01*
X157479249Y-200414630D01*
X157300004Y-200394435D01*
X157299996Y-200394435D01*
X157120750Y-200414630D01*
X157120745Y-200414631D01*
X156950476Y-200474211D01*
X156797737Y-200570184D01*
X156670184Y-200697737D01*
X156574211Y-200850476D01*
X156514631Y-201020745D01*
X156514630Y-201020750D01*
X156494435Y-201199996D01*
X103000000Y-201199996D01*
X103000000Y-199999996D01*
X133594435Y-199999996D01*
X133594435Y-200000003D01*
X133614630Y-200179249D01*
X133614631Y-200179254D01*
X133674211Y-200349523D01*
X133715122Y-200414632D01*
X133770184Y-200502262D01*
X133897738Y-200629816D01*
X133988080Y-200686582D01*
X134005833Y-200697737D01*
X134050478Y-200725789D01*
X134220745Y-200785368D01*
X134220750Y-200785369D01*
X134399996Y-200805565D01*
X134400000Y-200805565D01*
X134400004Y-200805565D01*
X134579249Y-200785369D01*
X134579252Y-200785368D01*
X134579255Y-200785368D01*
X134749522Y-200725789D01*
X134902262Y-200629816D01*
X135029816Y-200502262D01*
X135125789Y-200349522D01*
X135185368Y-200179255D01*
X135205565Y-200000000D01*
X135185368Y-199820745D01*
X135125789Y-199650478D01*
X135029816Y-199497738D01*
X134902262Y-199370184D01*
X134749523Y-199274211D01*
X134579254Y-199214631D01*
X134579249Y-199214630D01*
X134400004Y-199194435D01*
X134399996Y-199194435D01*
X134220750Y-199214630D01*
X134220745Y-199214631D01*
X134050476Y-199274211D01*
X133897737Y-199370184D01*
X133770184Y-199497737D01*
X133674211Y-199650476D01*
X133614631Y-199820745D01*
X133614630Y-199820750D01*
X133594435Y-199999996D01*
X103000000Y-199999996D01*
X103000000Y-196999996D01*
X128294435Y-196999996D01*
X128294435Y-197000003D01*
X128314630Y-197179249D01*
X128314631Y-197179254D01*
X128374211Y-197349523D01*
X128470184Y-197502262D01*
X128597738Y-197629816D01*
X128750478Y-197725789D01*
X128920745Y-197785368D01*
X128920750Y-197785369D01*
X129099996Y-197805565D01*
X129100000Y-197805565D01*
X129100004Y-197805565D01*
X129279249Y-197785369D01*
X129279252Y-197785368D01*
X129279255Y-197785368D01*
X129449522Y-197725789D01*
X129602262Y-197629816D01*
X129729816Y-197502262D01*
X129825789Y-197349522D01*
X129885368Y-197179255D01*
X129905565Y-197000000D01*
X129905565Y-196999996D01*
X148694435Y-196999996D01*
X148694435Y-197000003D01*
X148714630Y-197179249D01*
X148714631Y-197179254D01*
X148774211Y-197349523D01*
X148870184Y-197502262D01*
X148997738Y-197629816D01*
X149150478Y-197725789D01*
X149320745Y-197785368D01*
X149320750Y-197785369D01*
X149499996Y-197805565D01*
X149500000Y-197805565D01*
X149500004Y-197805565D01*
X149679249Y-197785369D01*
X149679252Y-197785368D01*
X149679255Y-197785368D01*
X149849522Y-197725789D01*
X150002262Y-197629816D01*
X150129816Y-197502262D01*
X150225789Y-197349522D01*
X150285368Y-197179255D01*
X150305565Y-197000000D01*
X150285368Y-196820745D01*
X150225789Y-196650478D01*
X150129816Y-196497738D01*
X150002262Y-196370184D01*
X149849523Y-196274211D01*
X149679254Y-196214631D01*
X149679249Y-196214630D01*
X149500004Y-196194435D01*
X149499996Y-196194435D01*
X149320750Y-196214630D01*
X149320745Y-196214631D01*
X149150476Y-196274211D01*
X148997737Y-196370184D01*
X148870184Y-196497737D01*
X148774211Y-196650476D01*
X148714631Y-196820745D01*
X148714630Y-196820750D01*
X148694435Y-196999996D01*
X129905565Y-196999996D01*
X129885368Y-196820745D01*
X129825789Y-196650478D01*
X129729816Y-196497738D01*
X129602262Y-196370184D01*
X129449523Y-196274211D01*
X129279254Y-196214631D01*
X129279249Y-196214630D01*
X129100004Y-196194435D01*
X129099996Y-196194435D01*
X128920750Y-196214630D01*
X128920745Y-196214631D01*
X128750476Y-196274211D01*
X128597737Y-196370184D01*
X128470184Y-196497737D01*
X128374211Y-196650476D01*
X128314631Y-196820745D01*
X128314630Y-196820750D01*
X128294435Y-196999996D01*
X103000000Y-196999996D01*
X103000000Y-186199996D01*
X111494435Y-186199996D01*
X111494435Y-186200003D01*
X111514630Y-186379249D01*
X111514631Y-186379254D01*
X111574211Y-186549523D01*
X111670184Y-186702262D01*
X111797738Y-186829816D01*
X111950478Y-186925789D01*
X112120745Y-186985368D01*
X112120750Y-186985369D01*
X112299996Y-187005565D01*
X112300000Y-187005565D01*
X112300004Y-187005565D01*
X112479249Y-186985369D01*
X112479252Y-186985368D01*
X112479255Y-186985368D01*
X112649522Y-186925789D01*
X112802262Y-186829816D01*
X112929816Y-186702262D01*
X113025789Y-186549522D01*
X113085368Y-186379255D01*
X113105565Y-186200000D01*
X113085368Y-186020745D01*
X113025789Y-185850478D01*
X112929816Y-185697738D01*
X112802262Y-185570184D01*
X112649523Y-185474211D01*
X112479254Y-185414631D01*
X112479249Y-185414630D01*
X112300004Y-185394435D01*
X112299996Y-185394435D01*
X112120750Y-185414630D01*
X112120745Y-185414631D01*
X111950476Y-185474211D01*
X111797737Y-185570184D01*
X111670184Y-185697737D01*
X111574211Y-185850476D01*
X111514631Y-186020745D01*
X111514630Y-186020750D01*
X111494435Y-186199996D01*
X103000000Y-186199996D01*
X103000000Y-184999996D01*
X243694435Y-184999996D01*
X243694435Y-185000003D01*
X243714630Y-185179249D01*
X243714631Y-185179254D01*
X243774211Y-185349523D01*
X243815122Y-185414632D01*
X243870184Y-185502262D01*
X243997738Y-185629816D01*
X244088080Y-185686582D01*
X244105833Y-185697737D01*
X244150478Y-185725789D01*
X244320745Y-185785368D01*
X244320750Y-185785369D01*
X244499996Y-185805565D01*
X244500000Y-185805565D01*
X244500004Y-185805565D01*
X244679249Y-185785369D01*
X244679252Y-185785368D01*
X244679255Y-185785368D01*
X244849522Y-185725789D01*
X245002262Y-185629816D01*
X245129816Y-185502262D01*
X245225789Y-185349522D01*
X245285368Y-185179255D01*
X245305565Y-185000000D01*
X245305565Y-184999996D01*
X246694435Y-184999996D01*
X246694435Y-185000003D01*
X246714630Y-185179249D01*
X246714631Y-185179254D01*
X246774211Y-185349523D01*
X246815122Y-185414632D01*
X246870184Y-185502262D01*
X246997738Y-185629816D01*
X247088080Y-185686582D01*
X247105833Y-185697737D01*
X247150478Y-185725789D01*
X247320745Y-185785368D01*
X247320750Y-185785369D01*
X247499996Y-185805565D01*
X247500000Y-185805565D01*
X247500004Y-185805565D01*
X247679249Y-185785369D01*
X247679252Y-185785368D01*
X247679255Y-185785368D01*
X247849522Y-185725789D01*
X248002262Y-185629816D01*
X248129816Y-185502262D01*
X248225789Y-185349522D01*
X248285368Y-185179255D01*
X248305565Y-185000000D01*
X248305565Y-184999996D01*
X249694435Y-184999996D01*
X249694435Y-185000003D01*
X249714630Y-185179249D01*
X249714631Y-185179254D01*
X249774211Y-185349523D01*
X249815122Y-185414632D01*
X249870184Y-185502262D01*
X249997738Y-185629816D01*
X250088080Y-185686582D01*
X250105833Y-185697737D01*
X250150478Y-185725789D01*
X250320745Y-185785368D01*
X250320750Y-185785369D01*
X250499996Y-185805565D01*
X250500000Y-185805565D01*
X250500004Y-185805565D01*
X250679249Y-185785369D01*
X250679252Y-185785368D01*
X250679255Y-185785368D01*
X250849522Y-185725789D01*
X251002262Y-185629816D01*
X251129816Y-185502262D01*
X251225789Y-185349522D01*
X251285368Y-185179255D01*
X251305565Y-185000000D01*
X251305565Y-184999996D01*
X252694435Y-184999996D01*
X252694435Y-185000003D01*
X252714630Y-185179249D01*
X252714631Y-185179254D01*
X252774211Y-185349523D01*
X252815122Y-185414632D01*
X252870184Y-185502262D01*
X252997738Y-185629816D01*
X253088080Y-185686582D01*
X253105833Y-185697737D01*
X253150478Y-185725789D01*
X253320745Y-185785368D01*
X253320750Y-185785369D01*
X253499996Y-185805565D01*
X253500000Y-185805565D01*
X253500004Y-185805565D01*
X253679249Y-185785369D01*
X253679252Y-185785368D01*
X253679255Y-185785368D01*
X253849522Y-185725789D01*
X254002262Y-185629816D01*
X254129816Y-185502262D01*
X254225789Y-185349522D01*
X254285368Y-185179255D01*
X254305565Y-185000000D01*
X254305565Y-184999996D01*
X255694435Y-184999996D01*
X255694435Y-185000003D01*
X255714630Y-185179249D01*
X255714631Y-185179254D01*
X255774211Y-185349523D01*
X255815122Y-185414632D01*
X255870184Y-185502262D01*
X255997738Y-185629816D01*
X256088080Y-185686582D01*
X256105833Y-185697737D01*
X256150478Y-185725789D01*
X256320745Y-185785368D01*
X256320750Y-185785369D01*
X256499996Y-185805565D01*
X256500000Y-185805565D01*
X256500004Y-185805565D01*
X256679249Y-185785369D01*
X256679252Y-185785368D01*
X256679255Y-185785368D01*
X256849522Y-185725789D01*
X257002262Y-185629816D01*
X257129816Y-185502262D01*
X257225789Y-185349522D01*
X257285368Y-185179255D01*
X257305565Y-185000000D01*
X257285368Y-184820745D01*
X257225789Y-184650478D01*
X257129816Y-184497738D01*
X257002262Y-184370184D01*
X256849523Y-184274211D01*
X256679254Y-184214631D01*
X256679249Y-184214630D01*
X256500004Y-184194435D01*
X256499996Y-184194435D01*
X256320750Y-184214630D01*
X256320745Y-184214631D01*
X256150476Y-184274211D01*
X255997737Y-184370184D01*
X255870184Y-184497737D01*
X255774211Y-184650476D01*
X255714631Y-184820745D01*
X255714630Y-184820750D01*
X255694435Y-184999996D01*
X254305565Y-184999996D01*
X254285368Y-184820745D01*
X254225789Y-184650478D01*
X254129816Y-184497738D01*
X254002262Y-184370184D01*
X253849523Y-184274211D01*
X253679254Y-184214631D01*
X253679249Y-184214630D01*
X253500004Y-184194435D01*
X253499996Y-184194435D01*
X253320750Y-184214630D01*
X253320745Y-184214631D01*
X253150476Y-184274211D01*
X252997737Y-184370184D01*
X252870184Y-184497737D01*
X252774211Y-184650476D01*
X252714631Y-184820745D01*
X252714630Y-184820750D01*
X252694435Y-184999996D01*
X251305565Y-184999996D01*
X251285368Y-184820745D01*
X251225789Y-184650478D01*
X251129816Y-184497738D01*
X251002262Y-184370184D01*
X250849523Y-184274211D01*
X250679254Y-184214631D01*
X250679249Y-184214630D01*
X250500004Y-184194435D01*
X250499996Y-184194435D01*
X250320750Y-184214630D01*
X250320745Y-184214631D01*
X250150476Y-184274211D01*
X249997737Y-184370184D01*
X249870184Y-184497737D01*
X249774211Y-184650476D01*
X249714631Y-184820745D01*
X249714630Y-184820750D01*
X249694435Y-184999996D01*
X248305565Y-184999996D01*
X248285368Y-184820745D01*
X248225789Y-184650478D01*
X248129816Y-184497738D01*
X248002262Y-184370184D01*
X247849523Y-184274211D01*
X247679254Y-184214631D01*
X247679249Y-184214630D01*
X247500004Y-184194435D01*
X247499996Y-184194435D01*
X247320750Y-184214630D01*
X247320745Y-184214631D01*
X247150476Y-184274211D01*
X246997737Y-184370184D01*
X246870184Y-184497737D01*
X246774211Y-184650476D01*
X246714631Y-184820745D01*
X246714630Y-184820750D01*
X246694435Y-184999996D01*
X245305565Y-184999996D01*
X245285368Y-184820745D01*
X245225789Y-184650478D01*
X245129816Y-184497738D01*
X245002262Y-184370184D01*
X244849523Y-184274211D01*
X244679254Y-184214631D01*
X244679249Y-184214630D01*
X244500004Y-184194435D01*
X244499996Y-184194435D01*
X244320750Y-184214630D01*
X244320745Y-184214631D01*
X244150476Y-184274211D01*
X243997737Y-184370184D01*
X243870184Y-184497737D01*
X243774211Y-184650476D01*
X243714631Y-184820745D01*
X243714630Y-184820750D01*
X243694435Y-184999996D01*
X103000000Y-184999996D01*
X103000000Y-183199996D01*
X238494435Y-183199996D01*
X238494435Y-183200003D01*
X238514630Y-183379249D01*
X238514631Y-183379254D01*
X238574211Y-183549523D01*
X238670184Y-183702262D01*
X238797738Y-183829816D01*
X238950478Y-183925789D01*
X239120745Y-183985368D01*
X239120750Y-183985369D01*
X239299996Y-184005565D01*
X239300000Y-184005565D01*
X239300004Y-184005565D01*
X239479249Y-183985369D01*
X239479252Y-183985368D01*
X239479255Y-183985368D01*
X239649522Y-183925789D01*
X239802262Y-183829816D01*
X239929816Y-183702262D01*
X240025789Y-183549522D01*
X240085368Y-183379255D01*
X240105565Y-183200000D01*
X240085368Y-183020745D01*
X240025789Y-182850478D01*
X239929816Y-182697738D01*
X239802262Y-182570184D01*
X239649523Y-182474211D01*
X239479254Y-182414631D01*
X239479249Y-182414630D01*
X239300004Y-182394435D01*
X239299996Y-182394435D01*
X239120750Y-182414630D01*
X239120745Y-182414631D01*
X238950476Y-182474211D01*
X238797737Y-182570184D01*
X238670184Y-182697737D01*
X238574211Y-182850476D01*
X238514631Y-183020745D01*
X238514630Y-183020750D01*
X238494435Y-183199996D01*
X103000000Y-183199996D01*
X103000000Y-173099996D01*
X238794435Y-173099996D01*
X238794435Y-173100003D01*
X238814630Y-173279249D01*
X238814631Y-173279254D01*
X238874211Y-173449523D01*
X238970184Y-173602262D01*
X239030241Y-173662319D01*
X239063726Y-173723642D01*
X239058742Y-173793334D01*
X239030241Y-173837681D01*
X238970184Y-173897737D01*
X238874211Y-174050476D01*
X238814631Y-174220745D01*
X238814630Y-174220750D01*
X238794435Y-174399996D01*
X238794435Y-174400003D01*
X238814630Y-174579249D01*
X238814631Y-174579254D01*
X238874211Y-174749523D01*
X238970184Y-174902262D01*
X239097738Y-175029816D01*
X239250478Y-175125789D01*
X239420745Y-175185368D01*
X239420750Y-175185369D01*
X239599996Y-175205565D01*
X239600000Y-175205565D01*
X239600004Y-175205565D01*
X239779249Y-175185369D01*
X239779252Y-175185368D01*
X239779255Y-175185368D01*
X239949522Y-175125789D01*
X240102262Y-175029816D01*
X240229816Y-174902262D01*
X240325789Y-174749522D01*
X240385368Y-174579255D01*
X240405565Y-174400000D01*
X240385368Y-174220745D01*
X240325789Y-174050478D01*
X240229816Y-173897738D01*
X240169759Y-173837681D01*
X240136274Y-173776358D01*
X240141258Y-173706666D01*
X240169759Y-173662319D01*
X240229816Y-173602262D01*
X240325789Y-173449522D01*
X240385368Y-173279255D01*
X240405565Y-173100000D01*
X240385368Y-172920745D01*
X240325789Y-172750478D01*
X240229816Y-172597738D01*
X240102262Y-172470184D01*
X239949523Y-172374211D01*
X239779254Y-172314631D01*
X239779249Y-172314630D01*
X239600004Y-172294435D01*
X239599996Y-172294435D01*
X239420750Y-172314630D01*
X239420745Y-172314631D01*
X239250476Y-172374211D01*
X239097737Y-172470184D01*
X238970184Y-172597737D01*
X238874211Y-172750476D01*
X238814631Y-172920745D01*
X238814630Y-172920750D01*
X238794435Y-173099996D01*
X103000000Y-173099996D01*
X103000000Y-170999996D01*
X193694435Y-170999996D01*
X193694435Y-171000003D01*
X193714630Y-171179249D01*
X193714631Y-171179254D01*
X193774211Y-171349523D01*
X193870184Y-171502262D01*
X193997738Y-171629816D01*
X194150478Y-171725789D01*
X194320745Y-171785368D01*
X194320750Y-171785369D01*
X194499996Y-171805565D01*
X194500000Y-171805565D01*
X194500004Y-171805565D01*
X194679249Y-171785369D01*
X194679252Y-171785368D01*
X194679255Y-171785368D01*
X194849522Y-171725789D01*
X195002262Y-171629816D01*
X195129816Y-171502262D01*
X195225789Y-171349522D01*
X195285368Y-171179255D01*
X195305565Y-171000000D01*
X195305565Y-170999996D01*
X196694435Y-170999996D01*
X196694435Y-171000003D01*
X196714630Y-171179249D01*
X196714631Y-171179254D01*
X196774211Y-171349523D01*
X196870184Y-171502262D01*
X196997738Y-171629816D01*
X197150478Y-171725789D01*
X197320745Y-171785368D01*
X197320750Y-171785369D01*
X197499996Y-171805565D01*
X197500000Y-171805565D01*
X197500004Y-171805565D01*
X197679249Y-171785369D01*
X197679252Y-171785368D01*
X197679255Y-171785368D01*
X197849522Y-171725789D01*
X198002262Y-171629816D01*
X198129816Y-171502262D01*
X198225789Y-171349522D01*
X198285368Y-171179255D01*
X198305565Y-171000000D01*
X198305565Y-170999996D01*
X200694435Y-170999996D01*
X200694435Y-171000003D01*
X200714630Y-171179249D01*
X200714631Y-171179254D01*
X200774211Y-171349523D01*
X200870184Y-171502262D01*
X200997738Y-171629816D01*
X201150478Y-171725789D01*
X201320745Y-171785368D01*
X201320750Y-171785369D01*
X201499996Y-171805565D01*
X201500000Y-171805565D01*
X201500004Y-171805565D01*
X201679249Y-171785369D01*
X201679252Y-171785368D01*
X201679255Y-171785368D01*
X201849522Y-171725789D01*
X202002262Y-171629816D01*
X202129816Y-171502262D01*
X202225789Y-171349522D01*
X202285368Y-171179255D01*
X202305565Y-171000000D01*
X202305565Y-170999996D01*
X203694435Y-170999996D01*
X203694435Y-171000003D01*
X203714630Y-171179249D01*
X203714631Y-171179254D01*
X203774211Y-171349523D01*
X203870184Y-171502262D01*
X203997738Y-171629816D01*
X204150478Y-171725789D01*
X204320745Y-171785368D01*
X204320750Y-171785369D01*
X204499996Y-171805565D01*
X204500000Y-171805565D01*
X204500004Y-171805565D01*
X204679249Y-171785369D01*
X204679252Y-171785368D01*
X204679255Y-171785368D01*
X204849522Y-171725789D01*
X205002262Y-171629816D01*
X205129816Y-171502262D01*
X205225789Y-171349522D01*
X205285368Y-171179255D01*
X205305565Y-171000000D01*
X205305565Y-170999996D01*
X206694435Y-170999996D01*
X206694435Y-171000003D01*
X206714630Y-171179249D01*
X206714631Y-171179254D01*
X206774211Y-171349523D01*
X206870184Y-171502262D01*
X206997738Y-171629816D01*
X207150478Y-171725789D01*
X207320745Y-171785368D01*
X207320750Y-171785369D01*
X207499996Y-171805565D01*
X207500000Y-171805565D01*
X207500004Y-171805565D01*
X207679249Y-171785369D01*
X207679252Y-171785368D01*
X207679255Y-171785368D01*
X207849522Y-171725789D01*
X208002262Y-171629816D01*
X208129816Y-171502262D01*
X208225789Y-171349522D01*
X208285368Y-171179255D01*
X208305565Y-171000000D01*
X208305565Y-170999996D01*
X249694435Y-170999996D01*
X249694435Y-171000003D01*
X249714630Y-171179249D01*
X249714631Y-171179254D01*
X249774211Y-171349523D01*
X249870184Y-171502262D01*
X249997738Y-171629816D01*
X250150478Y-171725789D01*
X250320745Y-171785368D01*
X250320750Y-171785369D01*
X250499996Y-171805565D01*
X250500000Y-171805565D01*
X250500004Y-171805565D01*
X250679249Y-171785369D01*
X250679252Y-171785368D01*
X250679255Y-171785368D01*
X250849522Y-171725789D01*
X251002262Y-171629816D01*
X251129816Y-171502262D01*
X251225789Y-171349522D01*
X251285368Y-171179255D01*
X251305565Y-171000000D01*
X251285368Y-170820745D01*
X251225789Y-170650478D01*
X251129816Y-170497738D01*
X251002262Y-170370184D01*
X250849523Y-170274211D01*
X250679254Y-170214631D01*
X250679249Y-170214630D01*
X250500004Y-170194435D01*
X250499996Y-170194435D01*
X250320750Y-170214630D01*
X250320745Y-170214631D01*
X250150476Y-170274211D01*
X249997737Y-170370184D01*
X249870184Y-170497737D01*
X249774211Y-170650476D01*
X249714631Y-170820745D01*
X249714630Y-170820750D01*
X249694435Y-170999996D01*
X208305565Y-170999996D01*
X208285368Y-170820745D01*
X208225789Y-170650478D01*
X208129816Y-170497738D01*
X208002262Y-170370184D01*
X207849523Y-170274211D01*
X207679254Y-170214631D01*
X207679249Y-170214630D01*
X207500004Y-170194435D01*
X207499996Y-170194435D01*
X207320750Y-170214630D01*
X207320745Y-170214631D01*
X207150476Y-170274211D01*
X206997737Y-170370184D01*
X206870184Y-170497737D01*
X206774211Y-170650476D01*
X206714631Y-170820745D01*
X206714630Y-170820750D01*
X206694435Y-170999996D01*
X205305565Y-170999996D01*
X205285368Y-170820745D01*
X205225789Y-170650478D01*
X205129816Y-170497738D01*
X205002262Y-170370184D01*
X204849523Y-170274211D01*
X204679254Y-170214631D01*
X204679249Y-170214630D01*
X204500004Y-170194435D01*
X204499996Y-170194435D01*
X204320750Y-170214630D01*
X204320745Y-170214631D01*
X204150476Y-170274211D01*
X203997737Y-170370184D01*
X203870184Y-170497737D01*
X203774211Y-170650476D01*
X203714631Y-170820745D01*
X203714630Y-170820750D01*
X203694435Y-170999996D01*
X202305565Y-170999996D01*
X202285368Y-170820745D01*
X202225789Y-170650478D01*
X202129816Y-170497738D01*
X202002262Y-170370184D01*
X201849523Y-170274211D01*
X201679254Y-170214631D01*
X201679249Y-170214630D01*
X201500004Y-170194435D01*
X201499996Y-170194435D01*
X201320750Y-170214630D01*
X201320745Y-170214631D01*
X201150476Y-170274211D01*
X200997737Y-170370184D01*
X200870184Y-170497737D01*
X200774211Y-170650476D01*
X200714631Y-170820745D01*
X200714630Y-170820750D01*
X200694435Y-170999996D01*
X198305565Y-170999996D01*
X198285368Y-170820745D01*
X198225789Y-170650478D01*
X198129816Y-170497738D01*
X198002262Y-170370184D01*
X197849523Y-170274211D01*
X197679254Y-170214631D01*
X197679249Y-170214630D01*
X197500004Y-170194435D01*
X197499996Y-170194435D01*
X197320750Y-170214630D01*
X197320745Y-170214631D01*
X197150476Y-170274211D01*
X196997737Y-170370184D01*
X196870184Y-170497737D01*
X196774211Y-170650476D01*
X196714631Y-170820745D01*
X196714630Y-170820750D01*
X196694435Y-170999996D01*
X195305565Y-170999996D01*
X195285368Y-170820745D01*
X195225789Y-170650478D01*
X195129816Y-170497738D01*
X195002262Y-170370184D01*
X194849523Y-170274211D01*
X194679254Y-170214631D01*
X194679249Y-170214630D01*
X194500004Y-170194435D01*
X194499996Y-170194435D01*
X194320750Y-170214630D01*
X194320745Y-170214631D01*
X194150476Y-170274211D01*
X193997737Y-170370184D01*
X193870184Y-170497737D01*
X193774211Y-170650476D01*
X193714631Y-170820745D01*
X193714630Y-170820750D01*
X193694435Y-170999996D01*
X103000000Y-170999996D01*
X103000000Y-169199996D01*
X188494435Y-169199996D01*
X188494435Y-169200003D01*
X188514630Y-169379249D01*
X188514631Y-169379254D01*
X188574211Y-169549523D01*
X188670184Y-169702262D01*
X188797738Y-169829816D01*
X188950478Y-169925789D01*
X189120745Y-169985368D01*
X189120750Y-169985369D01*
X189299996Y-170005565D01*
X189300000Y-170005565D01*
X189300004Y-170005565D01*
X189479249Y-169985369D01*
X189479252Y-169985368D01*
X189479255Y-169985368D01*
X189649522Y-169925789D01*
X189802262Y-169829816D01*
X189929816Y-169702262D01*
X190025789Y-169549522D01*
X190085368Y-169379255D01*
X190105565Y-169200000D01*
X190105565Y-169199996D01*
X228494435Y-169199996D01*
X228494435Y-169200003D01*
X228514630Y-169379249D01*
X228514631Y-169379254D01*
X228574211Y-169549523D01*
X228670184Y-169702262D01*
X228797738Y-169829816D01*
X228950478Y-169925789D01*
X229120745Y-169985368D01*
X229120750Y-169985369D01*
X229299996Y-170005565D01*
X229300000Y-170005565D01*
X229300004Y-170005565D01*
X229479249Y-169985369D01*
X229479252Y-169985368D01*
X229479255Y-169985368D01*
X229649522Y-169925789D01*
X229802262Y-169829816D01*
X229929816Y-169702262D01*
X230025789Y-169549522D01*
X230085368Y-169379255D01*
X230105565Y-169200000D01*
X230085368Y-169020745D01*
X230025789Y-168850478D01*
X229929816Y-168697738D01*
X229802262Y-168570184D01*
X229731608Y-168525789D01*
X229649523Y-168474211D01*
X229479254Y-168414631D01*
X229479249Y-168414630D01*
X229300004Y-168394435D01*
X229299996Y-168394435D01*
X229120750Y-168414630D01*
X229120745Y-168414631D01*
X228950476Y-168474211D01*
X228797737Y-168570184D01*
X228670184Y-168697737D01*
X228574211Y-168850476D01*
X228514631Y-169020745D01*
X228514630Y-169020750D01*
X228494435Y-169199996D01*
X190105565Y-169199996D01*
X190085368Y-169020745D01*
X190025789Y-168850478D01*
X189929816Y-168697738D01*
X189802262Y-168570184D01*
X189731608Y-168525789D01*
X189649523Y-168474211D01*
X189479254Y-168414631D01*
X189479249Y-168414630D01*
X189300004Y-168394435D01*
X189299996Y-168394435D01*
X189120750Y-168414630D01*
X189120745Y-168414631D01*
X188950476Y-168474211D01*
X188797737Y-168570184D01*
X188670184Y-168697737D01*
X188574211Y-168850476D01*
X188514631Y-169020745D01*
X188514630Y-169020750D01*
X188494435Y-169199996D01*
X103000000Y-169199996D01*
X103000000Y-168199996D01*
X213294435Y-168199996D01*
X213294435Y-168200003D01*
X213314630Y-168379249D01*
X213314631Y-168379254D01*
X213374211Y-168549523D01*
X213396735Y-168585369D01*
X213470184Y-168702262D01*
X213597738Y-168829816D01*
X213750478Y-168925789D01*
X213920745Y-168985368D01*
X213920750Y-168985369D01*
X214099996Y-169005565D01*
X214100000Y-169005565D01*
X214100004Y-169005565D01*
X214279249Y-168985369D01*
X214279252Y-168985368D01*
X214279255Y-168985368D01*
X214449522Y-168925789D01*
X214602262Y-168829816D01*
X214729816Y-168702262D01*
X214825789Y-168549522D01*
X214885368Y-168379255D01*
X214905565Y-168200000D01*
X214885368Y-168020745D01*
X214825789Y-167850478D01*
X214794069Y-167799996D01*
X221094435Y-167799996D01*
X221094435Y-167800003D01*
X221114630Y-167979249D01*
X221114631Y-167979254D01*
X221174211Y-168149523D01*
X221205926Y-168199996D01*
X221270184Y-168302262D01*
X221397738Y-168429816D01*
X221550478Y-168525789D01*
X221618306Y-168549523D01*
X221720745Y-168585368D01*
X221720750Y-168585369D01*
X221899996Y-168605565D01*
X221900000Y-168605565D01*
X221900004Y-168605565D01*
X222079249Y-168585369D01*
X222079252Y-168585368D01*
X222079255Y-168585368D01*
X222249522Y-168525789D01*
X222402262Y-168429816D01*
X222529816Y-168302262D01*
X222625789Y-168149522D01*
X222685368Y-167979255D01*
X222705565Y-167800000D01*
X222685368Y-167620745D01*
X222625789Y-167450478D01*
X222603265Y-167414632D01*
X222586582Y-167388080D01*
X222529816Y-167297738D01*
X222402262Y-167170184D01*
X222369379Y-167149522D01*
X222249523Y-167074211D01*
X222079254Y-167014631D01*
X222079249Y-167014630D01*
X221900004Y-166994435D01*
X221899996Y-166994435D01*
X221720750Y-167014630D01*
X221720745Y-167014631D01*
X221550476Y-167074211D01*
X221397737Y-167170184D01*
X221270184Y-167297737D01*
X221174211Y-167450476D01*
X221114631Y-167620745D01*
X221114630Y-167620750D01*
X221094435Y-167799996D01*
X214794069Y-167799996D01*
X214729816Y-167697738D01*
X214602262Y-167570184D01*
X214531608Y-167525789D01*
X214449523Y-167474211D01*
X214279254Y-167414631D01*
X214279249Y-167414630D01*
X214100004Y-167394435D01*
X214099996Y-167394435D01*
X213920750Y-167414630D01*
X213920745Y-167414631D01*
X213750476Y-167474211D01*
X213597737Y-167570184D01*
X213470184Y-167697737D01*
X213374211Y-167850476D01*
X213314631Y-168020745D01*
X213314630Y-168020750D01*
X213294435Y-168199996D01*
X103000000Y-168199996D01*
X103000000Y-166799996D01*
X244494435Y-166799996D01*
X244494435Y-166800003D01*
X244514630Y-166979249D01*
X244514631Y-166979254D01*
X244574211Y-167149523D01*
X244667341Y-167297737D01*
X244670184Y-167302262D01*
X244797738Y-167429816D01*
X244950478Y-167525789D01*
X245077352Y-167570184D01*
X245120745Y-167585368D01*
X245120750Y-167585369D01*
X245299996Y-167605565D01*
X245300000Y-167605565D01*
X245300004Y-167605565D01*
X245479249Y-167585369D01*
X245479252Y-167585368D01*
X245479255Y-167585368D01*
X245649522Y-167525789D01*
X245802262Y-167429816D01*
X245929816Y-167302262D01*
X246025789Y-167149522D01*
X246085368Y-166979255D01*
X246105565Y-166800000D01*
X246085368Y-166620745D01*
X246025789Y-166450478D01*
X245929816Y-166297738D01*
X245802262Y-166170184D01*
X245649523Y-166074211D01*
X245479254Y-166014631D01*
X245479249Y-166014630D01*
X245300004Y-165994435D01*
X245299996Y-165994435D01*
X245120750Y-166014630D01*
X245120745Y-166014631D01*
X244950476Y-166074211D01*
X244797737Y-166170184D01*
X244670184Y-166297737D01*
X244574211Y-166450476D01*
X244514631Y-166620745D01*
X244514630Y-166620750D01*
X244494435Y-166799996D01*
X103000000Y-166799996D01*
X103000000Y-164199996D01*
X218094435Y-164199996D01*
X218094435Y-164200003D01*
X218114630Y-164379249D01*
X218114631Y-164379254D01*
X218174211Y-164549523D01*
X218270184Y-164702262D01*
X218397738Y-164829816D01*
X218550478Y-164925789D01*
X218720745Y-164985368D01*
X218720750Y-164985369D01*
X218899996Y-165005565D01*
X218900000Y-165005565D01*
X218900004Y-165005565D01*
X219079249Y-164985369D01*
X219079252Y-164985368D01*
X219079255Y-164985368D01*
X219249522Y-164925789D01*
X219402262Y-164829816D01*
X219529816Y-164702262D01*
X219625789Y-164549522D01*
X219685368Y-164379255D01*
X219705565Y-164200000D01*
X219685368Y-164020745D01*
X219625789Y-163850478D01*
X219529816Y-163697738D01*
X219402262Y-163570184D01*
X219249523Y-163474211D01*
X219079254Y-163414631D01*
X219079249Y-163414630D01*
X218900004Y-163394435D01*
X218899996Y-163394435D01*
X218720750Y-163414630D01*
X218720745Y-163414631D01*
X218550476Y-163474211D01*
X218397737Y-163570184D01*
X218270184Y-163697737D01*
X218174211Y-163850476D01*
X218114631Y-164020745D01*
X218114630Y-164020750D01*
X218094435Y-164199996D01*
X103000000Y-164199996D01*
X103000000Y-157999996D01*
X287194435Y-157999996D01*
X287194435Y-158000003D01*
X287214630Y-158179249D01*
X287214631Y-158179254D01*
X287274211Y-158349523D01*
X287370184Y-158502262D01*
X287497738Y-158629816D01*
X287650478Y-158725789D01*
X287820745Y-158785368D01*
X287820750Y-158785369D01*
X287999996Y-158805565D01*
X288000000Y-158805565D01*
X288000004Y-158805565D01*
X288179249Y-158785369D01*
X288179252Y-158785368D01*
X288179255Y-158785368D01*
X288349522Y-158725789D01*
X288502262Y-158629816D01*
X288629816Y-158502262D01*
X288725789Y-158349522D01*
X288785368Y-158179255D01*
X288805565Y-158000000D01*
X288785368Y-157820745D01*
X288725789Y-157650478D01*
X288629816Y-157497738D01*
X288502262Y-157370184D01*
X288349523Y-157274211D01*
X288179254Y-157214631D01*
X288179249Y-157214630D01*
X288000004Y-157194435D01*
X287999996Y-157194435D01*
X287820750Y-157214630D01*
X287820745Y-157214631D01*
X287650476Y-157274211D01*
X287497737Y-157370184D01*
X287370184Y-157497737D01*
X287274211Y-157650476D01*
X287214631Y-157820745D01*
X287214630Y-157820750D01*
X287194435Y-157999996D01*
X103000000Y-157999996D01*
X103000000Y-155999996D01*
X189694435Y-155999996D01*
X189694435Y-156000003D01*
X189714630Y-156179249D01*
X189714631Y-156179254D01*
X189774211Y-156349523D01*
X189870184Y-156502262D01*
X189997738Y-156629816D01*
X190150478Y-156725789D01*
X190320745Y-156785368D01*
X190320750Y-156785369D01*
X190499996Y-156805565D01*
X190500000Y-156805565D01*
X190500004Y-156805565D01*
X190679249Y-156785369D01*
X190679252Y-156785368D01*
X190679255Y-156785368D01*
X190849522Y-156725789D01*
X191002262Y-156629816D01*
X191129816Y-156502262D01*
X191225789Y-156349522D01*
X191285368Y-156179255D01*
X191285369Y-156179249D01*
X191305565Y-156000003D01*
X191305565Y-155999996D01*
X229394435Y-155999996D01*
X229394435Y-156000003D01*
X229414630Y-156179249D01*
X229414631Y-156179254D01*
X229474211Y-156349523D01*
X229570184Y-156502262D01*
X229697738Y-156629816D01*
X229850478Y-156725789D01*
X230020745Y-156785368D01*
X230020750Y-156785369D01*
X230199996Y-156805565D01*
X230200000Y-156805565D01*
X230200004Y-156805565D01*
X230379249Y-156785369D01*
X230379252Y-156785368D01*
X230379255Y-156785368D01*
X230549522Y-156725789D01*
X230702262Y-156629816D01*
X230829816Y-156502262D01*
X230925789Y-156349522D01*
X230985368Y-156179255D01*
X230985369Y-156179249D01*
X231005565Y-156000003D01*
X231005565Y-155999996D01*
X230985369Y-155820750D01*
X230985368Y-155820745D01*
X230957929Y-155742328D01*
X230925789Y-155650478D01*
X230898773Y-155607483D01*
X230829815Y-155497737D01*
X230702262Y-155370184D01*
X230549523Y-155274211D01*
X230379254Y-155214631D01*
X230379249Y-155214630D01*
X230200004Y-155194435D01*
X230199996Y-155194435D01*
X230020750Y-155214630D01*
X230020745Y-155214631D01*
X229850476Y-155274211D01*
X229697737Y-155370184D01*
X229570184Y-155497737D01*
X229474211Y-155650476D01*
X229414631Y-155820745D01*
X229414630Y-155820750D01*
X229394435Y-155999996D01*
X191305565Y-155999996D01*
X191285369Y-155820750D01*
X191285368Y-155820745D01*
X191257929Y-155742328D01*
X191225789Y-155650478D01*
X191198773Y-155607483D01*
X191129815Y-155497737D01*
X191002262Y-155370184D01*
X190849523Y-155274211D01*
X190679254Y-155214631D01*
X190679249Y-155214630D01*
X190500004Y-155194435D01*
X190499996Y-155194435D01*
X190320750Y-155214630D01*
X190320745Y-155214631D01*
X190150476Y-155274211D01*
X189997737Y-155370184D01*
X189870184Y-155497737D01*
X189774211Y-155650476D01*
X189714631Y-155820745D01*
X189714630Y-155820750D01*
X189694435Y-155999996D01*
X103000000Y-155999996D01*
X103000000Y-154199996D01*
X188494435Y-154199996D01*
X188494435Y-154200003D01*
X188514630Y-154379249D01*
X188514631Y-154379254D01*
X188574211Y-154549523D01*
X188615525Y-154615273D01*
X188670184Y-154702262D01*
X188797738Y-154829816D01*
X188950478Y-154925789D01*
X189120745Y-154985368D01*
X189120750Y-154985369D01*
X189299996Y-155005565D01*
X189300000Y-155005565D01*
X189300004Y-155005565D01*
X189479249Y-154985369D01*
X189479252Y-154985368D01*
X189479255Y-154985368D01*
X189649522Y-154925789D01*
X189802262Y-154829816D01*
X189929816Y-154702262D01*
X190025789Y-154549522D01*
X190059866Y-154452135D01*
X286999500Y-154452135D01*
X286999500Y-155547870D01*
X286999501Y-155547876D01*
X287005908Y-155607483D01*
X287056202Y-155742328D01*
X287056206Y-155742335D01*
X287142452Y-155857544D01*
X287142455Y-155857547D01*
X287257664Y-155943793D01*
X287257671Y-155943797D01*
X287392517Y-155994091D01*
X287392516Y-155994091D01*
X287399444Y-155994835D01*
X287452127Y-156000500D01*
X288547872Y-156000499D01*
X288607483Y-155994091D01*
X288742331Y-155943796D01*
X288750379Y-155937770D01*
X288815842Y-155913351D01*
X288879474Y-155926895D01*
X288879645Y-155926483D01*
X288881875Y-155927406D01*
X288883146Y-155927677D01*
X288885273Y-155928814D01*
X289073868Y-155986024D01*
X289270000Y-156005341D01*
X289466132Y-155986024D01*
X289654727Y-155928814D01*
X289828538Y-155835910D01*
X289828544Y-155835904D01*
X289833607Y-155832523D01*
X289834703Y-155834164D01*
X289890639Y-155810405D01*
X289959507Y-155822194D01*
X289976148Y-155832888D01*
X289976393Y-155832523D01*
X289981458Y-155835907D01*
X289981462Y-155835910D01*
X290126344Y-155913351D01*
X290153147Y-155927678D01*
X290155273Y-155928814D01*
X290343868Y-155986024D01*
X290540000Y-156005341D01*
X290736132Y-155986024D01*
X290924727Y-155928814D01*
X291098538Y-155835910D01*
X291098544Y-155835904D01*
X291103607Y-155832523D01*
X291104703Y-155834164D01*
X291160639Y-155810405D01*
X291229507Y-155822194D01*
X291246148Y-155832888D01*
X291246393Y-155832523D01*
X291251458Y-155835907D01*
X291251462Y-155835910D01*
X291396344Y-155913351D01*
X291423147Y-155927678D01*
X291425273Y-155928814D01*
X291613868Y-155986024D01*
X291810000Y-156005341D01*
X292006132Y-155986024D01*
X292194727Y-155928814D01*
X292368538Y-155835910D01*
X292368544Y-155835904D01*
X292373607Y-155832523D01*
X292374703Y-155834164D01*
X292430639Y-155810405D01*
X292499507Y-155822194D01*
X292516148Y-155832888D01*
X292516393Y-155832523D01*
X292521458Y-155835907D01*
X292521462Y-155835910D01*
X292666344Y-155913351D01*
X292693147Y-155927678D01*
X292695273Y-155928814D01*
X292883868Y-155986024D01*
X293080000Y-156005341D01*
X293276132Y-155986024D01*
X293464727Y-155928814D01*
X293638538Y-155835910D01*
X293638544Y-155835904D01*
X293643607Y-155832523D01*
X293644703Y-155834164D01*
X293700639Y-155810405D01*
X293769507Y-155822194D01*
X293786148Y-155832888D01*
X293786393Y-155832523D01*
X293791458Y-155835907D01*
X293791462Y-155835910D01*
X293936344Y-155913351D01*
X293963147Y-155927678D01*
X293965273Y-155928814D01*
X294153868Y-155986024D01*
X294350000Y-156005341D01*
X294546132Y-155986024D01*
X294734727Y-155928814D01*
X294908538Y-155835910D01*
X294908544Y-155835904D01*
X294913607Y-155832523D01*
X294914703Y-155834164D01*
X294970639Y-155810405D01*
X295039507Y-155822194D01*
X295056148Y-155832888D01*
X295056393Y-155832523D01*
X295061458Y-155835907D01*
X295061462Y-155835910D01*
X295206344Y-155913351D01*
X295233147Y-155927678D01*
X295235273Y-155928814D01*
X295423868Y-155986024D01*
X295620000Y-156005341D01*
X295816132Y-155986024D01*
X296004727Y-155928814D01*
X296006853Y-155927678D01*
X296138060Y-155857546D01*
X296178538Y-155835910D01*
X296330883Y-155710883D01*
X296455910Y-155558538D01*
X296548814Y-155384727D01*
X296606024Y-155196132D01*
X296625341Y-155000000D01*
X296606024Y-154803868D01*
X296548814Y-154615273D01*
X296455910Y-154441462D01*
X296455907Y-154441458D01*
X296452523Y-154436393D01*
X296454164Y-154435296D01*
X296430405Y-154379361D01*
X296442194Y-154310493D01*
X296452888Y-154293851D01*
X296452523Y-154293607D01*
X296455904Y-154288544D01*
X296455910Y-154288538D01*
X296548814Y-154114727D01*
X296606024Y-153926132D01*
X296625341Y-153730000D01*
X296606024Y-153533868D01*
X296548814Y-153345273D01*
X296548811Y-153345269D01*
X296548811Y-153345266D01*
X296455913Y-153171467D01*
X296455909Y-153171460D01*
X296330883Y-153019116D01*
X296178539Y-152894090D01*
X296178532Y-152894086D01*
X296004733Y-152801188D01*
X296004727Y-152801186D01*
X295816132Y-152743976D01*
X295816129Y-152743975D01*
X295620000Y-152724659D01*
X295423870Y-152743975D01*
X295235266Y-152801188D01*
X295061467Y-152894086D01*
X295056399Y-152897473D01*
X295055305Y-152895836D01*
X294999337Y-152919596D01*
X294930471Y-152907795D01*
X294913843Y-152897109D01*
X294913601Y-152897473D01*
X294908532Y-152894086D01*
X294734733Y-152801188D01*
X294734727Y-152801186D01*
X294546132Y-152743976D01*
X294546129Y-152743975D01*
X294350000Y-152724659D01*
X294153870Y-152743975D01*
X293965266Y-152801188D01*
X293791467Y-152894086D01*
X293786399Y-152897473D01*
X293785305Y-152895836D01*
X293729337Y-152919596D01*
X293660471Y-152907795D01*
X293643843Y-152897109D01*
X293643601Y-152897473D01*
X293638532Y-152894086D01*
X293464733Y-152801188D01*
X293464727Y-152801186D01*
X293276132Y-152743976D01*
X293276129Y-152743975D01*
X293080000Y-152724659D01*
X292883870Y-152743975D01*
X292695266Y-152801188D01*
X292521467Y-152894086D01*
X292516399Y-152897473D01*
X292515305Y-152895836D01*
X292459337Y-152919596D01*
X292390471Y-152907795D01*
X292373843Y-152897109D01*
X292373601Y-152897473D01*
X292368532Y-152894086D01*
X292194733Y-152801188D01*
X292194727Y-152801186D01*
X292006132Y-152743976D01*
X292006129Y-152743975D01*
X291810000Y-152724659D01*
X291613870Y-152743975D01*
X291425266Y-152801188D01*
X291251467Y-152894086D01*
X291246399Y-152897473D01*
X291245305Y-152895836D01*
X291189337Y-152919596D01*
X291120471Y-152907795D01*
X291103843Y-152897109D01*
X291103601Y-152897473D01*
X291098532Y-152894086D01*
X290924733Y-152801188D01*
X290924727Y-152801186D01*
X290736132Y-152743976D01*
X290736129Y-152743975D01*
X290540000Y-152724659D01*
X290343870Y-152743975D01*
X290155266Y-152801188D01*
X289981467Y-152894086D01*
X289976399Y-152897473D01*
X289975305Y-152895836D01*
X289919337Y-152919596D01*
X289850471Y-152907795D01*
X289833843Y-152897109D01*
X289833601Y-152897473D01*
X289828532Y-152894086D01*
X289654733Y-152801188D01*
X289654727Y-152801186D01*
X289466132Y-152743976D01*
X289466129Y-152743975D01*
X289270000Y-152724659D01*
X289073870Y-152743975D01*
X288885266Y-152801188D01*
X288711467Y-152894086D01*
X288706399Y-152897473D01*
X288705386Y-152895958D01*
X288648936Y-152919920D01*
X288580071Y-152908115D01*
X288563574Y-152897511D01*
X288563322Y-152897890D01*
X288558253Y-152894503D01*
X288384541Y-152801652D01*
X288250000Y-152760839D01*
X288250000Y-153520382D01*
X288199554Y-153469936D01*
X288125445Y-153427149D01*
X288042787Y-153405000D01*
X287957213Y-153405000D01*
X287874555Y-153427149D01*
X287800446Y-153469936D01*
X287739936Y-153530446D01*
X287697149Y-153604555D01*
X287675000Y-153687213D01*
X287675000Y-153772787D01*
X287697149Y-153855445D01*
X287739936Y-153929554D01*
X287790382Y-153980000D01*
X287030840Y-153980000D01*
X287071651Y-154114537D01*
X287072651Y-154116407D01*
X287072878Y-154117501D01*
X287073981Y-154120162D01*
X287073476Y-154120370D01*
X287086896Y-154184809D01*
X287062564Y-154249172D01*
X287056205Y-154257666D01*
X287056202Y-154257671D01*
X287005908Y-154392517D01*
X286999501Y-154452116D01*
X286999500Y-154452135D01*
X190059866Y-154452135D01*
X190085368Y-154379255D01*
X190095589Y-154288541D01*
X190105565Y-154200003D01*
X190105565Y-154199996D01*
X190085369Y-154020750D01*
X190085368Y-154020745D01*
X190071111Y-153980000D01*
X190025789Y-153850478D01*
X189929816Y-153697738D01*
X189802262Y-153570184D01*
X189744469Y-153533870D01*
X189658734Y-153479999D01*
X287030839Y-153479999D01*
X287030840Y-153480000D01*
X287750000Y-153480000D01*
X287750000Y-152760839D01*
X287749999Y-152760839D01*
X287615458Y-152801652D01*
X287441746Y-152894503D01*
X287441739Y-152894507D01*
X287289471Y-153019471D01*
X287164507Y-153171739D01*
X287164503Y-153171746D01*
X287071652Y-153345458D01*
X287030839Y-153479999D01*
X189658734Y-153479999D01*
X189649523Y-153474211D01*
X189479254Y-153414631D01*
X189479249Y-153414630D01*
X189300004Y-153394435D01*
X189299996Y-153394435D01*
X189120750Y-153414630D01*
X189120745Y-153414631D01*
X188950476Y-153474211D01*
X188797737Y-153570184D01*
X188670184Y-153697737D01*
X188574211Y-153850476D01*
X188514631Y-154020745D01*
X188514630Y-154020750D01*
X188494435Y-154199996D01*
X103000000Y-154199996D01*
X103000000Y-150999996D01*
X194794435Y-150999996D01*
X194794435Y-151000003D01*
X194814630Y-151179249D01*
X194814631Y-151179254D01*
X194874211Y-151349523D01*
X194904993Y-151398512D01*
X194970184Y-151502262D01*
X195097738Y-151629816D01*
X195250478Y-151725789D01*
X195420745Y-151785368D01*
X195420750Y-151785369D01*
X195599996Y-151805565D01*
X195600000Y-151805565D01*
X195600004Y-151805565D01*
X195779249Y-151785369D01*
X195779252Y-151785368D01*
X195779255Y-151785368D01*
X195949522Y-151725789D01*
X196034027Y-151672691D01*
X196101264Y-151653690D01*
X196165973Y-151672691D01*
X196250475Y-151725788D01*
X196420745Y-151785368D01*
X196420750Y-151785369D01*
X196599996Y-151805565D01*
X196600000Y-151805565D01*
X196600004Y-151805565D01*
X196779249Y-151785369D01*
X196779252Y-151785368D01*
X196779255Y-151785368D01*
X196949522Y-151725789D01*
X197102262Y-151629816D01*
X197229816Y-151502262D01*
X197295007Y-151398510D01*
X197347341Y-151352221D01*
X197416394Y-151341573D01*
X197480243Y-151369948D01*
X197504992Y-151398509D01*
X197570184Y-151502262D01*
X197697738Y-151629816D01*
X197850478Y-151725789D01*
X198020745Y-151785368D01*
X198020750Y-151785369D01*
X198199996Y-151805565D01*
X198200000Y-151805565D01*
X198200004Y-151805565D01*
X198379249Y-151785369D01*
X198379252Y-151785368D01*
X198379255Y-151785368D01*
X198549522Y-151725789D01*
X198702262Y-151629816D01*
X198829816Y-151502262D01*
X198925789Y-151349522D01*
X198985368Y-151179255D01*
X199005565Y-151000000D01*
X198985368Y-150820745D01*
X198925789Y-150650478D01*
X198924092Y-150647778D01*
X198849971Y-150529815D01*
X198829816Y-150497738D01*
X198702262Y-150370184D01*
X198634027Y-150327309D01*
X198549523Y-150274211D01*
X198379254Y-150214631D01*
X198379249Y-150214630D01*
X198200004Y-150194435D01*
X198199996Y-150194435D01*
X198020750Y-150214630D01*
X198020745Y-150214631D01*
X197850476Y-150274211D01*
X197697737Y-150370184D01*
X197570184Y-150497737D01*
X197504994Y-150601487D01*
X197452659Y-150647778D01*
X197383605Y-150658426D01*
X197319757Y-150630051D01*
X197295006Y-150601487D01*
X197249971Y-150529815D01*
X197229816Y-150497738D01*
X197102262Y-150370184D01*
X197034027Y-150327309D01*
X196949523Y-150274211D01*
X196779254Y-150214631D01*
X196779249Y-150214630D01*
X196600004Y-150194435D01*
X196599996Y-150194435D01*
X196420750Y-150214630D01*
X196420737Y-150214633D01*
X196250479Y-150274209D01*
X196165971Y-150327309D01*
X196098734Y-150346309D01*
X196034029Y-150327309D01*
X195949520Y-150274209D01*
X195779262Y-150214633D01*
X195779249Y-150214630D01*
X195600004Y-150194435D01*
X195599996Y-150194435D01*
X195420750Y-150214630D01*
X195420745Y-150214631D01*
X195250476Y-150274211D01*
X195097737Y-150370184D01*
X194970184Y-150497737D01*
X194874211Y-150650476D01*
X194814631Y-150820745D01*
X194814630Y-150820750D01*
X194794435Y-150999996D01*
X103000000Y-150999996D01*
X103000000Y-149199996D01*
X153294435Y-149199996D01*
X153294435Y-149200003D01*
X153314630Y-149379249D01*
X153314631Y-149379254D01*
X153374211Y-149549523D01*
X153437646Y-149650478D01*
X153470184Y-149702262D01*
X153597738Y-149829816D01*
X153750478Y-149925789D01*
X153920745Y-149985368D01*
X153920750Y-149985369D01*
X154099996Y-150005565D01*
X154100000Y-150005565D01*
X154100004Y-150005565D01*
X154149430Y-149999996D01*
X206694435Y-149999996D01*
X206694435Y-150000003D01*
X206714630Y-150179249D01*
X206714631Y-150179254D01*
X206774211Y-150349523D01*
X206867341Y-150497737D01*
X206870184Y-150502262D01*
X206997738Y-150629816D01*
X207150478Y-150725789D01*
X207320745Y-150785368D01*
X207320750Y-150785369D01*
X207499996Y-150805565D01*
X207500000Y-150805565D01*
X207500004Y-150805565D01*
X207679249Y-150785369D01*
X207679252Y-150785368D01*
X207679255Y-150785368D01*
X207849522Y-150725789D01*
X208002262Y-150629816D01*
X208129816Y-150502262D01*
X208225789Y-150349522D01*
X208285368Y-150179255D01*
X208285369Y-150179249D01*
X208305565Y-150000003D01*
X208305565Y-149999996D01*
X208294298Y-149899996D01*
X224694435Y-149899996D01*
X224694435Y-149900003D01*
X224714630Y-150079249D01*
X224714631Y-150079254D01*
X224774211Y-150249523D01*
X224850028Y-150370184D01*
X224870184Y-150402262D01*
X224997738Y-150529816D01*
X225088080Y-150586582D01*
X225111801Y-150601487D01*
X225150478Y-150625789D01*
X225320745Y-150685368D01*
X225320750Y-150685369D01*
X225499996Y-150705565D01*
X225500000Y-150705565D01*
X225500004Y-150705565D01*
X225679249Y-150685369D01*
X225679252Y-150685368D01*
X225679255Y-150685368D01*
X225849522Y-150625789D01*
X226002262Y-150529816D01*
X226129816Y-150402262D01*
X226225789Y-150249522D01*
X226285368Y-150079255D01*
X226293671Y-150005565D01*
X226305565Y-149900003D01*
X226305565Y-149899996D01*
X226285369Y-149720750D01*
X226285368Y-149720745D01*
X226225789Y-149550478D01*
X226225188Y-149549522D01*
X226129815Y-149397737D01*
X226002262Y-149270184D01*
X225849523Y-149174211D01*
X225679254Y-149114631D01*
X225679249Y-149114630D01*
X225500004Y-149094435D01*
X225499996Y-149094435D01*
X225320750Y-149114630D01*
X225320745Y-149114631D01*
X225150476Y-149174211D01*
X224997737Y-149270184D01*
X224870184Y-149397737D01*
X224774211Y-149550476D01*
X224714631Y-149720745D01*
X224714630Y-149720750D01*
X224694435Y-149899996D01*
X208294298Y-149899996D01*
X208285369Y-149820750D01*
X208285368Y-149820745D01*
X208225788Y-149650476D01*
X208162955Y-149550478D01*
X208129816Y-149497738D01*
X208002262Y-149370184D01*
X207849523Y-149274211D01*
X207679254Y-149214631D01*
X207679249Y-149214630D01*
X207500004Y-149194435D01*
X207499996Y-149194435D01*
X207320750Y-149214630D01*
X207320745Y-149214631D01*
X207150476Y-149274211D01*
X206997737Y-149370184D01*
X206870184Y-149497737D01*
X206774211Y-149650476D01*
X206714631Y-149820745D01*
X206714630Y-149820750D01*
X206694435Y-149999996D01*
X154149430Y-149999996D01*
X154279249Y-149985369D01*
X154279252Y-149985368D01*
X154279255Y-149985368D01*
X154449522Y-149925789D01*
X154602262Y-149829816D01*
X154729816Y-149702262D01*
X154825789Y-149549522D01*
X154885368Y-149379255D01*
X154897204Y-149274211D01*
X154905565Y-149200003D01*
X154905565Y-149199996D01*
X154885369Y-149020750D01*
X154885368Y-149020745D01*
X154825788Y-148850476D01*
X154784878Y-148785368D01*
X154729816Y-148697738D01*
X154602262Y-148570184D01*
X154531608Y-148525789D01*
X154449523Y-148474211D01*
X154279254Y-148414631D01*
X154279249Y-148414630D01*
X154100004Y-148394435D01*
X154099996Y-148394435D01*
X153920750Y-148414630D01*
X153920745Y-148414631D01*
X153750476Y-148474211D01*
X153597737Y-148570184D01*
X153470184Y-148697737D01*
X153374211Y-148850476D01*
X153314631Y-149020745D01*
X153314630Y-149020750D01*
X153294435Y-149199996D01*
X103000000Y-149199996D01*
X103000000Y-147799996D01*
X224694435Y-147799996D01*
X224694435Y-147800003D01*
X224714630Y-147979249D01*
X224714631Y-147979254D01*
X224774211Y-148149523D01*
X224870184Y-148302262D01*
X224997738Y-148429816D01*
X225150478Y-148525789D01*
X225277352Y-148570184D01*
X225320745Y-148585368D01*
X225320750Y-148585369D01*
X225499996Y-148605565D01*
X225500000Y-148605565D01*
X225500004Y-148605565D01*
X225679249Y-148585369D01*
X225679252Y-148585368D01*
X225679255Y-148585368D01*
X225849522Y-148525789D01*
X226002262Y-148429816D01*
X226129816Y-148302262D01*
X226225789Y-148149522D01*
X226278110Y-147999996D01*
X239394435Y-147999996D01*
X239394435Y-148000003D01*
X239414630Y-148179249D01*
X239414631Y-148179254D01*
X239474211Y-148349523D01*
X239515122Y-148414632D01*
X239570184Y-148502262D01*
X239697738Y-148629816D01*
X239788080Y-148686582D01*
X239805833Y-148697737D01*
X239850478Y-148725789D01*
X240020745Y-148785368D01*
X240020750Y-148785369D01*
X240199996Y-148805565D01*
X240200000Y-148805565D01*
X240200004Y-148805565D01*
X240379249Y-148785369D01*
X240379252Y-148785368D01*
X240379255Y-148785368D01*
X240549522Y-148725789D01*
X240702262Y-148629816D01*
X240829816Y-148502262D01*
X240925789Y-148349522D01*
X240985368Y-148179255D01*
X241005565Y-148000000D01*
X241005565Y-147999996D01*
X241494435Y-147999996D01*
X241494435Y-148000003D01*
X241514630Y-148179249D01*
X241514631Y-148179254D01*
X241574211Y-148349523D01*
X241615122Y-148414632D01*
X241670184Y-148502262D01*
X241797738Y-148629816D01*
X241888080Y-148686582D01*
X241905833Y-148697737D01*
X241950478Y-148725789D01*
X242120745Y-148785368D01*
X242120750Y-148785369D01*
X242299996Y-148805565D01*
X242300000Y-148805565D01*
X242300004Y-148805565D01*
X242479249Y-148785369D01*
X242479252Y-148785368D01*
X242479255Y-148785368D01*
X242649522Y-148725789D01*
X242802262Y-148629816D01*
X242929816Y-148502262D01*
X243025789Y-148349522D01*
X243085368Y-148179255D01*
X243105565Y-148000000D01*
X243085368Y-147820745D01*
X243025789Y-147650478D01*
X243007106Y-147620745D01*
X242986582Y-147588080D01*
X242929816Y-147497738D01*
X242802262Y-147370184D01*
X242769379Y-147349522D01*
X242649523Y-147274211D01*
X242479254Y-147214631D01*
X242479249Y-147214630D01*
X242300004Y-147194435D01*
X242299996Y-147194435D01*
X242120750Y-147214630D01*
X242120745Y-147214631D01*
X241950476Y-147274211D01*
X241797737Y-147370184D01*
X241670184Y-147497737D01*
X241574211Y-147650476D01*
X241514631Y-147820745D01*
X241514630Y-147820750D01*
X241494435Y-147999996D01*
X241005565Y-147999996D01*
X240985368Y-147820745D01*
X240925789Y-147650478D01*
X240907106Y-147620745D01*
X240886582Y-147588080D01*
X240829816Y-147497738D01*
X240702262Y-147370184D01*
X240669379Y-147349522D01*
X240549523Y-147274211D01*
X240379254Y-147214631D01*
X240379249Y-147214630D01*
X240200004Y-147194435D01*
X240199996Y-147194435D01*
X240020750Y-147214630D01*
X240020745Y-147214631D01*
X239850476Y-147274211D01*
X239697737Y-147370184D01*
X239570184Y-147497737D01*
X239474211Y-147650476D01*
X239414631Y-147820745D01*
X239414630Y-147820750D01*
X239394435Y-147999996D01*
X226278110Y-147999996D01*
X226285368Y-147979255D01*
X226305565Y-147800000D01*
X226303916Y-147785369D01*
X226285369Y-147620750D01*
X226285368Y-147620745D01*
X226242326Y-147497738D01*
X226225789Y-147450478D01*
X226129816Y-147297738D01*
X226002262Y-147170184D01*
X225849523Y-147074211D01*
X225679254Y-147014631D01*
X225679249Y-147014630D01*
X225549362Y-146999996D01*
X233694435Y-146999996D01*
X233694435Y-147000003D01*
X233714630Y-147179249D01*
X233714631Y-147179254D01*
X233774211Y-147349523D01*
X233837646Y-147450478D01*
X233870184Y-147502262D01*
X233997738Y-147629816D01*
X234150478Y-147725789D01*
X234320745Y-147785368D01*
X234320750Y-147785369D01*
X234499996Y-147805565D01*
X234500000Y-147805565D01*
X234500004Y-147805565D01*
X234679249Y-147785369D01*
X234679252Y-147785368D01*
X234679255Y-147785368D01*
X234849522Y-147725789D01*
X235002262Y-147629816D01*
X235129816Y-147502262D01*
X235225789Y-147349522D01*
X235285368Y-147179255D01*
X235297204Y-147074211D01*
X235305565Y-147000003D01*
X235305565Y-146999996D01*
X235285369Y-146820750D01*
X235285368Y-146820745D01*
X235225788Y-146650476D01*
X235129815Y-146497737D01*
X235002262Y-146370184D01*
X234849523Y-146274211D01*
X234679254Y-146214631D01*
X234679249Y-146214630D01*
X234500004Y-146194435D01*
X234499996Y-146194435D01*
X234320750Y-146214630D01*
X234320745Y-146214631D01*
X234150476Y-146274211D01*
X233997737Y-146370184D01*
X233870184Y-146497737D01*
X233774211Y-146650476D01*
X233714631Y-146820745D01*
X233714630Y-146820750D01*
X233694435Y-146999996D01*
X225549362Y-146999996D01*
X225500004Y-146994435D01*
X225499996Y-146994435D01*
X225320750Y-147014630D01*
X225320745Y-147014631D01*
X225150476Y-147074211D01*
X224997737Y-147170184D01*
X224870184Y-147297737D01*
X224774211Y-147450476D01*
X224714631Y-147620745D01*
X224714630Y-147620750D01*
X224694435Y-147799996D01*
X103000000Y-147799996D01*
X103000000Y-145199996D01*
X222494435Y-145199996D01*
X222494435Y-145200003D01*
X222514630Y-145379249D01*
X222514631Y-145379254D01*
X222574211Y-145549523D01*
X222670184Y-145702262D01*
X222797738Y-145829816D01*
X222950478Y-145925789D01*
X223120745Y-145985368D01*
X223120750Y-145985369D01*
X223299996Y-146005565D01*
X223300000Y-146005565D01*
X223300004Y-146005565D01*
X223479249Y-145985369D01*
X223479252Y-145985368D01*
X223479255Y-145985368D01*
X223649522Y-145925789D01*
X223802262Y-145829816D01*
X223929816Y-145702262D01*
X224025789Y-145549522D01*
X224085368Y-145379255D01*
X224105565Y-145200000D01*
X224085368Y-145020745D01*
X224025789Y-144850478D01*
X223929816Y-144697738D01*
X223802262Y-144570184D01*
X223649523Y-144474211D01*
X223479254Y-144414631D01*
X223479249Y-144414630D01*
X223300004Y-144394435D01*
X223299996Y-144394435D01*
X223120750Y-144414630D01*
X223120745Y-144414631D01*
X222950476Y-144474211D01*
X222797737Y-144570184D01*
X222670184Y-144697737D01*
X222574211Y-144850476D01*
X222514631Y-145020745D01*
X222514630Y-145020750D01*
X222494435Y-145199996D01*
X103000000Y-145199996D01*
X103000000Y-141999996D01*
X163794435Y-141999996D01*
X163794435Y-142000003D01*
X163814630Y-142179249D01*
X163814631Y-142179254D01*
X163874211Y-142349523D01*
X163970184Y-142502262D01*
X164097738Y-142629816D01*
X164250478Y-142725789D01*
X164420745Y-142785368D01*
X164420750Y-142785369D01*
X164599996Y-142805565D01*
X164600000Y-142805565D01*
X164600004Y-142805565D01*
X164779249Y-142785369D01*
X164779252Y-142785368D01*
X164779255Y-142785368D01*
X164949522Y-142725789D01*
X165102262Y-142629816D01*
X165229816Y-142502262D01*
X165325789Y-142349522D01*
X165385368Y-142179255D01*
X165405565Y-142000000D01*
X165385368Y-141820745D01*
X165325789Y-141650478D01*
X165229816Y-141497738D01*
X165102262Y-141370184D01*
X165069379Y-141349522D01*
X164949523Y-141274211D01*
X164779254Y-141214631D01*
X164779249Y-141214630D01*
X164600004Y-141194435D01*
X164599996Y-141194435D01*
X164420750Y-141214630D01*
X164420745Y-141214631D01*
X164250476Y-141274211D01*
X164097737Y-141370184D01*
X163970184Y-141497737D01*
X163874211Y-141650476D01*
X163814631Y-141820745D01*
X163814630Y-141820750D01*
X163794435Y-141999996D01*
X103000000Y-141999996D01*
X103000000Y-140999996D01*
X227694435Y-140999996D01*
X227694435Y-141000003D01*
X227714630Y-141179249D01*
X227714631Y-141179254D01*
X227774211Y-141349523D01*
X227867341Y-141497737D01*
X227870184Y-141502262D01*
X227997738Y-141629816D01*
X228150478Y-141725789D01*
X228320745Y-141785368D01*
X228320750Y-141785369D01*
X228499996Y-141805565D01*
X228500000Y-141805565D01*
X228500004Y-141805565D01*
X228679249Y-141785369D01*
X228679252Y-141785368D01*
X228679255Y-141785368D01*
X228849522Y-141725789D01*
X229002262Y-141629816D01*
X229129816Y-141502262D01*
X229225789Y-141349522D01*
X229285368Y-141179255D01*
X229305565Y-141000000D01*
X229285368Y-140820745D01*
X229225789Y-140650478D01*
X229129816Y-140497738D01*
X229002262Y-140370184D01*
X228849523Y-140274211D01*
X228679254Y-140214631D01*
X228679249Y-140214630D01*
X228500004Y-140194435D01*
X228499996Y-140194435D01*
X228320750Y-140214630D01*
X228320745Y-140214631D01*
X228150476Y-140274211D01*
X227997737Y-140370184D01*
X227870184Y-140497737D01*
X227774211Y-140650476D01*
X227714631Y-140820745D01*
X227714630Y-140820750D01*
X227694435Y-140999996D01*
X103000000Y-140999996D01*
X103000000Y-137999996D01*
X157194435Y-137999996D01*
X157194435Y-138000003D01*
X157214630Y-138179249D01*
X157214633Y-138179262D01*
X157274209Y-138349520D01*
X157327309Y-138434029D01*
X157346309Y-138501266D01*
X157327309Y-138565971D01*
X157274209Y-138650479D01*
X157214633Y-138820737D01*
X157214630Y-138820750D01*
X157194435Y-138999996D01*
X157194435Y-139000003D01*
X157214630Y-139179249D01*
X157214631Y-139179254D01*
X157274211Y-139349523D01*
X157370184Y-139502262D01*
X157497738Y-139629816D01*
X157650478Y-139725789D01*
X157820745Y-139785368D01*
X157820750Y-139785369D01*
X157999996Y-139805565D01*
X158000000Y-139805565D01*
X158000004Y-139805565D01*
X158179249Y-139785369D01*
X158179252Y-139785368D01*
X158179255Y-139785368D01*
X158349522Y-139725789D01*
X158502262Y-139629816D01*
X158629816Y-139502262D01*
X158725789Y-139349522D01*
X158785368Y-139179255D01*
X158805565Y-139000000D01*
X158785368Y-138820745D01*
X158725789Y-138650478D01*
X158725788Y-138650475D01*
X158672691Y-138565973D01*
X158653690Y-138498736D01*
X158672691Y-138434027D01*
X158725788Y-138349524D01*
X158725789Y-138349522D01*
X158785368Y-138179255D01*
X158805565Y-138000000D01*
X158805565Y-137999996D01*
X227194435Y-137999996D01*
X227194435Y-138000003D01*
X227214630Y-138179249D01*
X227214633Y-138179262D01*
X227274209Y-138349520D01*
X227327309Y-138434029D01*
X227346309Y-138501266D01*
X227327309Y-138565971D01*
X227274209Y-138650479D01*
X227214633Y-138820737D01*
X227214630Y-138820750D01*
X227194435Y-138999996D01*
X227194435Y-139000003D01*
X227214630Y-139179249D01*
X227214631Y-139179254D01*
X227274211Y-139349523D01*
X227370184Y-139502262D01*
X227497738Y-139629816D01*
X227650478Y-139725789D01*
X227820745Y-139785368D01*
X227820750Y-139785369D01*
X227999996Y-139805565D01*
X228000000Y-139805565D01*
X228000004Y-139805565D01*
X228179249Y-139785369D01*
X228179252Y-139785368D01*
X228179255Y-139785368D01*
X228349522Y-139725789D01*
X228502262Y-139629816D01*
X228629816Y-139502262D01*
X228725789Y-139349522D01*
X228785368Y-139179255D01*
X228805565Y-139000000D01*
X228785368Y-138820745D01*
X228725789Y-138650478D01*
X228725788Y-138650475D01*
X228672691Y-138565973D01*
X228653690Y-138498736D01*
X228672691Y-138434027D01*
X228725788Y-138349524D01*
X228725789Y-138349522D01*
X228785368Y-138179255D01*
X228805565Y-138000000D01*
X228785368Y-137820745D01*
X228725789Y-137650478D01*
X228629816Y-137497738D01*
X228502262Y-137370184D01*
X228349523Y-137274211D01*
X228179254Y-137214631D01*
X228179249Y-137214630D01*
X228000004Y-137194435D01*
X227999996Y-137194435D01*
X227820750Y-137214630D01*
X227820745Y-137214631D01*
X227650476Y-137274211D01*
X227497737Y-137370184D01*
X227370184Y-137497737D01*
X227274211Y-137650476D01*
X227214631Y-137820745D01*
X227214630Y-137820750D01*
X227194435Y-137999996D01*
X158805565Y-137999996D01*
X158785368Y-137820745D01*
X158725789Y-137650478D01*
X158629816Y-137497738D01*
X158502262Y-137370184D01*
X158349523Y-137274211D01*
X158179254Y-137214631D01*
X158179249Y-137214630D01*
X158000004Y-137194435D01*
X157999996Y-137194435D01*
X157820750Y-137214630D01*
X157820745Y-137214631D01*
X157650476Y-137274211D01*
X157497737Y-137370184D01*
X157370184Y-137497737D01*
X157274211Y-137650476D01*
X157214631Y-137820745D01*
X157214630Y-137820750D01*
X157194435Y-137999996D01*
X103000000Y-137999996D01*
X103000000Y-135799996D01*
X157194435Y-135799996D01*
X157194435Y-135800003D01*
X157214630Y-135979249D01*
X157214631Y-135979254D01*
X157274211Y-136149523D01*
X157370184Y-136302262D01*
X157497738Y-136429816D01*
X157650478Y-136525789D01*
X157820745Y-136585368D01*
X157820750Y-136585369D01*
X157999996Y-136605565D01*
X158000000Y-136605565D01*
X158000004Y-136605565D01*
X158179249Y-136585369D01*
X158179252Y-136585368D01*
X158179255Y-136585368D01*
X158349522Y-136525789D01*
X158502262Y-136429816D01*
X158629816Y-136302262D01*
X158725789Y-136149522D01*
X158785368Y-135979255D01*
X158785369Y-135979249D01*
X158805565Y-135800003D01*
X158805565Y-135799996D01*
X227194435Y-135799996D01*
X227194435Y-135800003D01*
X227214630Y-135979249D01*
X227214631Y-135979254D01*
X227274211Y-136149523D01*
X227370184Y-136302262D01*
X227497738Y-136429816D01*
X227650478Y-136525789D01*
X227820745Y-136585368D01*
X227820750Y-136585369D01*
X227999996Y-136605565D01*
X228000000Y-136605565D01*
X228000004Y-136605565D01*
X228179249Y-136585369D01*
X228179252Y-136585368D01*
X228179255Y-136585368D01*
X228349522Y-136525789D01*
X228502262Y-136429816D01*
X228629816Y-136302262D01*
X228725789Y-136149522D01*
X228785368Y-135979255D01*
X228785369Y-135979249D01*
X228805565Y-135800003D01*
X228805565Y-135799996D01*
X228785369Y-135620750D01*
X228785368Y-135620745D01*
X228725788Y-135450476D01*
X228629815Y-135297737D01*
X228502262Y-135170184D01*
X228349523Y-135074211D01*
X228179254Y-135014631D01*
X228179249Y-135014630D01*
X228000004Y-134994435D01*
X227999996Y-134994435D01*
X227820750Y-135014630D01*
X227820745Y-135014631D01*
X227650476Y-135074211D01*
X227497737Y-135170184D01*
X227370184Y-135297737D01*
X227274211Y-135450476D01*
X227214631Y-135620745D01*
X227214630Y-135620750D01*
X227194435Y-135799996D01*
X158805565Y-135799996D01*
X158785369Y-135620750D01*
X158785368Y-135620745D01*
X158725788Y-135450476D01*
X158629815Y-135297737D01*
X158502262Y-135170184D01*
X158349523Y-135074211D01*
X158179254Y-135014631D01*
X158179249Y-135014630D01*
X158000004Y-134994435D01*
X157999996Y-134994435D01*
X157820750Y-135014630D01*
X157820745Y-135014631D01*
X157650476Y-135074211D01*
X157497737Y-135170184D01*
X157370184Y-135297737D01*
X157274211Y-135450476D01*
X157214631Y-135620745D01*
X157214630Y-135620750D01*
X157194435Y-135799996D01*
X103000000Y-135799996D01*
X103000000Y-134452135D01*
X286999500Y-134452135D01*
X286999500Y-135547870D01*
X286999501Y-135547876D01*
X287005908Y-135607483D01*
X287056202Y-135742328D01*
X287056206Y-135742335D01*
X287142452Y-135857544D01*
X287142455Y-135857547D01*
X287257664Y-135943793D01*
X287257671Y-135943797D01*
X287392517Y-135994091D01*
X287392516Y-135994091D01*
X287399444Y-135994835D01*
X287452127Y-136000500D01*
X288474875Y-136000499D01*
X288541914Y-136020183D01*
X288579869Y-136058527D01*
X288670184Y-136202262D01*
X288797738Y-136329816D01*
X288950478Y-136425789D01*
X288961984Y-136429815D01*
X289120745Y-136485368D01*
X289120750Y-136485369D01*
X289299996Y-136505565D01*
X289300000Y-136505565D01*
X289300004Y-136505565D01*
X289479249Y-136485369D01*
X289479252Y-136485368D01*
X289479255Y-136485368D01*
X289649522Y-136425789D01*
X289802262Y-136329816D01*
X289929816Y-136202262D01*
X290025789Y-136049522D01*
X290037131Y-136017107D01*
X290077851Y-135960331D01*
X290142803Y-135934582D01*
X290190165Y-135939398D01*
X290343868Y-135986024D01*
X290540000Y-136005341D01*
X290736132Y-135986024D01*
X290924727Y-135928814D01*
X291098538Y-135835910D01*
X291098544Y-135835904D01*
X291103607Y-135832523D01*
X291104703Y-135834164D01*
X291160639Y-135810405D01*
X291229507Y-135822194D01*
X291246148Y-135832888D01*
X291246393Y-135832523D01*
X291251458Y-135835907D01*
X291251462Y-135835910D01*
X291425273Y-135928814D01*
X291613868Y-135986024D01*
X291810000Y-136005341D01*
X292006132Y-135986024D01*
X292194727Y-135928814D01*
X292368538Y-135835910D01*
X292368544Y-135835904D01*
X292373607Y-135832523D01*
X292374703Y-135834164D01*
X292430639Y-135810405D01*
X292499507Y-135822194D01*
X292516148Y-135832888D01*
X292516393Y-135832523D01*
X292521458Y-135835907D01*
X292521462Y-135835910D01*
X292695273Y-135928814D01*
X292883868Y-135986024D01*
X293080000Y-136005341D01*
X293276132Y-135986024D01*
X293464727Y-135928814D01*
X293638538Y-135835910D01*
X293790883Y-135710883D01*
X293915910Y-135558538D01*
X294008814Y-135384727D01*
X294066024Y-135196132D01*
X294085341Y-135000000D01*
X294066024Y-134803868D01*
X294008814Y-134615273D01*
X293915910Y-134441462D01*
X293915907Y-134441458D01*
X293912523Y-134436393D01*
X293914164Y-134435296D01*
X293890405Y-134379361D01*
X293902194Y-134310493D01*
X293912888Y-134293851D01*
X293912523Y-134293607D01*
X293915904Y-134288544D01*
X293915910Y-134288538D01*
X294008814Y-134114727D01*
X294066024Y-133926132D01*
X294085341Y-133730000D01*
X294066024Y-133533868D01*
X294008814Y-133345273D01*
X294008811Y-133345269D01*
X294008811Y-133345266D01*
X293915913Y-133171467D01*
X293915909Y-133171460D01*
X293790883Y-133019116D01*
X293638539Y-132894090D01*
X293638532Y-132894086D01*
X293464733Y-132801188D01*
X293464727Y-132801186D01*
X293276132Y-132743976D01*
X293276129Y-132743975D01*
X293080000Y-132724659D01*
X292883870Y-132743975D01*
X292695266Y-132801188D01*
X292521467Y-132894086D01*
X292516399Y-132897473D01*
X292515305Y-132895836D01*
X292459337Y-132919596D01*
X292390471Y-132907795D01*
X292373843Y-132897109D01*
X292373601Y-132897473D01*
X292368532Y-132894086D01*
X292194733Y-132801188D01*
X292194727Y-132801186D01*
X292006132Y-132743976D01*
X292006129Y-132743975D01*
X291810000Y-132724659D01*
X291613870Y-132743975D01*
X291425266Y-132801188D01*
X291251467Y-132894086D01*
X291246399Y-132897473D01*
X291245386Y-132895958D01*
X291188936Y-132919920D01*
X291120071Y-132908115D01*
X291103574Y-132897511D01*
X291103322Y-132897890D01*
X291098253Y-132894503D01*
X290924541Y-132801652D01*
X290790000Y-132760839D01*
X290790000Y-133520382D01*
X290739554Y-133469936D01*
X290665445Y-133427149D01*
X290582787Y-133405000D01*
X290497213Y-133405000D01*
X290414555Y-133427149D01*
X290340446Y-133469936D01*
X290290000Y-133520382D01*
X290290000Y-132760839D01*
X290289999Y-132760839D01*
X290155458Y-132801652D01*
X289981742Y-132894505D01*
X289976673Y-132897893D01*
X289975556Y-132896221D01*
X289919715Y-132919921D01*
X289850851Y-132908111D01*
X289833811Y-132897158D01*
X289833601Y-132897473D01*
X289828532Y-132894086D01*
X289654733Y-132801188D01*
X289654727Y-132801186D01*
X289466132Y-132743976D01*
X289466129Y-132743975D01*
X289270000Y-132724659D01*
X289073870Y-132743975D01*
X288885266Y-132801188D01*
X288711467Y-132894086D01*
X288706399Y-132897473D01*
X288705386Y-132895958D01*
X288648936Y-132919920D01*
X288580071Y-132908115D01*
X288563574Y-132897511D01*
X288563322Y-132897890D01*
X288558253Y-132894503D01*
X288384541Y-132801652D01*
X288250000Y-132760839D01*
X288250000Y-133520382D01*
X288199554Y-133469936D01*
X288125445Y-133427149D01*
X288042787Y-133405000D01*
X287957213Y-133405000D01*
X287874555Y-133427149D01*
X287800446Y-133469936D01*
X287739936Y-133530446D01*
X287697149Y-133604555D01*
X287675000Y-133687213D01*
X287675000Y-133772787D01*
X287697149Y-133855445D01*
X287739936Y-133929554D01*
X287790382Y-133980000D01*
X287030840Y-133980000D01*
X287071651Y-134114537D01*
X287072651Y-134116407D01*
X287072878Y-134117501D01*
X287073981Y-134120162D01*
X287073476Y-134120370D01*
X287086896Y-134184809D01*
X287062564Y-134249172D01*
X287056205Y-134257666D01*
X287056202Y-134257671D01*
X287005908Y-134392517D01*
X286999501Y-134452116D01*
X286999500Y-134452135D01*
X103000000Y-134452135D01*
X103000000Y-133479999D01*
X287030839Y-133479999D01*
X287030840Y-133480000D01*
X287750000Y-133480000D01*
X287750000Y-132760839D01*
X287749999Y-132760839D01*
X287615458Y-132801652D01*
X287441746Y-132894503D01*
X287441739Y-132894507D01*
X287289471Y-133019471D01*
X287164507Y-133171739D01*
X287164503Y-133171746D01*
X287071652Y-133345458D01*
X287030839Y-133479999D01*
X103000000Y-133479999D01*
X103000000Y-130699995D01*
X288494435Y-130699995D01*
X288494435Y-130700002D01*
X288514630Y-130879248D01*
X288514631Y-130879253D01*
X288574211Y-131049522D01*
X288670184Y-131202261D01*
X288797738Y-131329815D01*
X288950478Y-131425788D01*
X289120745Y-131485367D01*
X289120750Y-131485368D01*
X289299996Y-131505564D01*
X289300000Y-131505564D01*
X289300004Y-131505564D01*
X289479249Y-131485368D01*
X289479252Y-131485367D01*
X289479255Y-131485367D01*
X289649522Y-131425788D01*
X289802262Y-131329815D01*
X289929816Y-131202261D01*
X290025789Y-131049521D01*
X290085368Y-130879254D01*
X290105565Y-130699999D01*
X290085368Y-130520744D01*
X290025789Y-130350477D01*
X289929816Y-130197737D01*
X289802262Y-130070183D01*
X289649523Y-129974210D01*
X289479254Y-129914630D01*
X289479249Y-129914629D01*
X289300004Y-129894434D01*
X289299996Y-129894434D01*
X289120750Y-129914629D01*
X289120745Y-129914630D01*
X288950476Y-129974210D01*
X288797737Y-130070183D01*
X288670184Y-130197736D01*
X288574211Y-130350475D01*
X288514631Y-130520744D01*
X288514630Y-130520749D01*
X288494435Y-130699995D01*
X103000000Y-130699995D01*
X103000000Y-119999996D01*
X184494435Y-119999996D01*
X184494435Y-120000003D01*
X184514630Y-120179249D01*
X184514631Y-120179254D01*
X184574211Y-120349523D01*
X184670184Y-120502262D01*
X184797738Y-120629816D01*
X184950478Y-120725789D01*
X185120745Y-120785368D01*
X185120750Y-120785369D01*
X185299996Y-120805565D01*
X185300000Y-120805565D01*
X185300004Y-120805565D01*
X185479249Y-120785369D01*
X185479252Y-120785368D01*
X185479255Y-120785368D01*
X185649522Y-120725789D01*
X185802262Y-120629816D01*
X185929816Y-120502262D01*
X186025789Y-120349522D01*
X186085368Y-120179255D01*
X186105565Y-120000000D01*
X186085368Y-119820745D01*
X186025789Y-119650478D01*
X185929816Y-119497738D01*
X185802262Y-119370184D01*
X185649523Y-119274211D01*
X185479254Y-119214631D01*
X185479249Y-119214630D01*
X185300004Y-119194435D01*
X185299996Y-119194435D01*
X185120750Y-119214630D01*
X185120745Y-119214631D01*
X184950476Y-119274211D01*
X184797737Y-119370184D01*
X184670184Y-119497737D01*
X184574211Y-119650476D01*
X184514631Y-119820745D01*
X184514630Y-119820750D01*
X184494435Y-119999996D01*
X103000000Y-119999996D01*
X103000000Y-114999996D01*
X193694435Y-114999996D01*
X193694435Y-115000003D01*
X193714630Y-115179249D01*
X193714631Y-115179254D01*
X193774211Y-115349523D01*
X193870184Y-115502262D01*
X193997738Y-115629816D01*
X194150478Y-115725789D01*
X194320745Y-115785368D01*
X194320750Y-115785369D01*
X194499996Y-115805565D01*
X194500000Y-115805565D01*
X194500004Y-115805565D01*
X194679249Y-115785369D01*
X194679252Y-115785368D01*
X194679255Y-115785368D01*
X194849522Y-115725789D01*
X195002262Y-115629816D01*
X195129816Y-115502262D01*
X195225789Y-115349522D01*
X195285368Y-115179255D01*
X195305565Y-115000000D01*
X195305565Y-114999996D01*
X206694435Y-114999996D01*
X206694435Y-115000003D01*
X206714630Y-115179249D01*
X206714631Y-115179254D01*
X206774211Y-115349523D01*
X206870184Y-115502262D01*
X206997738Y-115629816D01*
X207150478Y-115725789D01*
X207320745Y-115785368D01*
X207320750Y-115785369D01*
X207499996Y-115805565D01*
X207500000Y-115805565D01*
X207500004Y-115805565D01*
X207679249Y-115785369D01*
X207679252Y-115785368D01*
X207679255Y-115785368D01*
X207849522Y-115725789D01*
X208002262Y-115629816D01*
X208129816Y-115502262D01*
X208225789Y-115349522D01*
X208285368Y-115179255D01*
X208305565Y-115000000D01*
X208285368Y-114820745D01*
X208225789Y-114650478D01*
X208129816Y-114497738D01*
X208002262Y-114370184D01*
X207849523Y-114274211D01*
X207679254Y-114214631D01*
X207679249Y-114214630D01*
X207500004Y-114194435D01*
X207499996Y-114194435D01*
X207320750Y-114214630D01*
X207320745Y-114214631D01*
X207150476Y-114274211D01*
X206997737Y-114370184D01*
X206870184Y-114497737D01*
X206774211Y-114650476D01*
X206714631Y-114820745D01*
X206714630Y-114820750D01*
X206694435Y-114999996D01*
X195305565Y-114999996D01*
X195285368Y-114820745D01*
X195225789Y-114650478D01*
X195129816Y-114497738D01*
X195002262Y-114370184D01*
X194849523Y-114274211D01*
X194679254Y-114214631D01*
X194679249Y-114214630D01*
X194500004Y-114194435D01*
X194499996Y-114194435D01*
X194320750Y-114214630D01*
X194320745Y-114214631D01*
X194150476Y-114274211D01*
X193997737Y-114370184D01*
X193870184Y-114497737D01*
X193774211Y-114650476D01*
X193714631Y-114820745D01*
X193714630Y-114820750D01*
X193694435Y-114999996D01*
X103000000Y-114999996D01*
X103000000Y-113199996D01*
X188494435Y-113199996D01*
X188494435Y-113200003D01*
X188514630Y-113379249D01*
X188514631Y-113379254D01*
X188574211Y-113549523D01*
X188596735Y-113585369D01*
X188670184Y-113702262D01*
X188797738Y-113829816D01*
X188950478Y-113925789D01*
X189120745Y-113985368D01*
X189120750Y-113985369D01*
X189299996Y-114005565D01*
X189300000Y-114005565D01*
X189300004Y-114005565D01*
X189479249Y-113985369D01*
X189479252Y-113985368D01*
X189479255Y-113985368D01*
X189649522Y-113925789D01*
X189802262Y-113829816D01*
X189929816Y-113702262D01*
X190025789Y-113549522D01*
X190085368Y-113379255D01*
X190105565Y-113200000D01*
X190105565Y-113199996D01*
X201494435Y-113199996D01*
X201494435Y-113200003D01*
X201514630Y-113379249D01*
X201514631Y-113379254D01*
X201574211Y-113549523D01*
X201596735Y-113585369D01*
X201670184Y-113702262D01*
X201797738Y-113829816D01*
X201950478Y-113925789D01*
X202120745Y-113985368D01*
X202120750Y-113985369D01*
X202299996Y-114005565D01*
X202300000Y-114005565D01*
X202300004Y-114005565D01*
X202479249Y-113985369D01*
X202479252Y-113985368D01*
X202479255Y-113985368D01*
X202649522Y-113925789D01*
X202802262Y-113829816D01*
X202929816Y-113702262D01*
X203025789Y-113549522D01*
X203085368Y-113379255D01*
X203105565Y-113200000D01*
X203085368Y-113020745D01*
X203025789Y-112850478D01*
X202929816Y-112697738D01*
X202802262Y-112570184D01*
X202649523Y-112474211D01*
X202479254Y-112414631D01*
X202479249Y-112414630D01*
X202300004Y-112394435D01*
X202299996Y-112394435D01*
X202120750Y-112414630D01*
X202120745Y-112414631D01*
X201950476Y-112474211D01*
X201797737Y-112570184D01*
X201670184Y-112697737D01*
X201574211Y-112850476D01*
X201514631Y-113020745D01*
X201514630Y-113020750D01*
X201494435Y-113199996D01*
X190105565Y-113199996D01*
X190085368Y-113020745D01*
X190025789Y-112850478D01*
X189929816Y-112697738D01*
X189802262Y-112570184D01*
X189649523Y-112474211D01*
X189479254Y-112414631D01*
X189479249Y-112414630D01*
X189300004Y-112394435D01*
X189299996Y-112394435D01*
X189120750Y-112414630D01*
X189120745Y-112414631D01*
X188950476Y-112474211D01*
X188797737Y-112570184D01*
X188670184Y-112697737D01*
X188574211Y-112850476D01*
X188514631Y-113020745D01*
X188514630Y-113020750D01*
X188494435Y-113199996D01*
X103000000Y-113199996D01*
X103000000Y-110599996D01*
X175294435Y-110599996D01*
X175294435Y-110600003D01*
X175314630Y-110779249D01*
X175314631Y-110779254D01*
X175374211Y-110949523D01*
X175437646Y-111050478D01*
X175470184Y-111102262D01*
X175597738Y-111229816D01*
X175750478Y-111325789D01*
X175920745Y-111385368D01*
X175920750Y-111385369D01*
X176099996Y-111405565D01*
X176100000Y-111405565D01*
X176100004Y-111405565D01*
X176149430Y-111399996D01*
X187094435Y-111399996D01*
X187094435Y-111400003D01*
X187114630Y-111579249D01*
X187114631Y-111579254D01*
X187174211Y-111749523D01*
X187255724Y-111879249D01*
X187270184Y-111902262D01*
X187397738Y-112029816D01*
X187550478Y-112125789D01*
X187716913Y-112184027D01*
X187720745Y-112185368D01*
X187720750Y-112185369D01*
X187899996Y-112205565D01*
X187900000Y-112205565D01*
X187900004Y-112205565D01*
X188079249Y-112185369D01*
X188079252Y-112185368D01*
X188079255Y-112185368D01*
X188249522Y-112125789D01*
X188402262Y-112029816D01*
X188529816Y-111902262D01*
X188625789Y-111749522D01*
X188643119Y-111699996D01*
X223094435Y-111699996D01*
X223094435Y-111700003D01*
X223114630Y-111879249D01*
X223114631Y-111879254D01*
X223174211Y-112049523D01*
X223258727Y-112184028D01*
X223277727Y-112251264D01*
X223258727Y-112315972D01*
X223174211Y-112450476D01*
X223114631Y-112620745D01*
X223114630Y-112620750D01*
X223094435Y-112799996D01*
X223094435Y-112800003D01*
X223114630Y-112979249D01*
X223114631Y-112979254D01*
X223174211Y-113149523D01*
X223205926Y-113199996D01*
X223270184Y-113302262D01*
X223397738Y-113429816D01*
X223550478Y-113525789D01*
X223618306Y-113549523D01*
X223720745Y-113585368D01*
X223720750Y-113585369D01*
X223899996Y-113605565D01*
X223900000Y-113605565D01*
X223900004Y-113605565D01*
X224079249Y-113585369D01*
X224079252Y-113585368D01*
X224079255Y-113585368D01*
X224249522Y-113525789D01*
X224402262Y-113429816D01*
X224529816Y-113302262D01*
X224625789Y-113149522D01*
X224685368Y-112979255D01*
X224705565Y-112800000D01*
X224685368Y-112620745D01*
X224625789Y-112450478D01*
X224625788Y-112450476D01*
X224625788Y-112450475D01*
X224581957Y-112380720D01*
X224541272Y-112315970D01*
X224522272Y-112248736D01*
X224541273Y-112184028D01*
X224625789Y-112049522D01*
X224685368Y-111879255D01*
X224699985Y-111749523D01*
X224705565Y-111700003D01*
X224705565Y-111699996D01*
X224685369Y-111520750D01*
X224685368Y-111520745D01*
X224645065Y-111405565D01*
X224625789Y-111350478D01*
X224529816Y-111197738D01*
X224402262Y-111070184D01*
X224370897Y-111050476D01*
X224249523Y-110974211D01*
X224079254Y-110914631D01*
X224079249Y-110914630D01*
X223900004Y-110894435D01*
X223899996Y-110894435D01*
X223720750Y-110914630D01*
X223720745Y-110914631D01*
X223550476Y-110974211D01*
X223397737Y-111070184D01*
X223270184Y-111197737D01*
X223174211Y-111350476D01*
X223114631Y-111520745D01*
X223114630Y-111520750D01*
X223094435Y-111699996D01*
X188643119Y-111699996D01*
X188685368Y-111579255D01*
X188691960Y-111520750D01*
X188705565Y-111400003D01*
X188705565Y-111399996D01*
X188685369Y-111220750D01*
X188685368Y-111220745D01*
X188625789Y-111050478D01*
X188529816Y-110897738D01*
X188402262Y-110770184D01*
X188249523Y-110674211D01*
X188079254Y-110614631D01*
X188079249Y-110614630D01*
X187900004Y-110594435D01*
X187899996Y-110594435D01*
X187720750Y-110614630D01*
X187720745Y-110614631D01*
X187550476Y-110674211D01*
X187397737Y-110770184D01*
X187270184Y-110897737D01*
X187174211Y-111050476D01*
X187114631Y-111220745D01*
X187114630Y-111220750D01*
X187094435Y-111399996D01*
X176149430Y-111399996D01*
X176279249Y-111385369D01*
X176279252Y-111385368D01*
X176279255Y-111385368D01*
X176449522Y-111325789D01*
X176602262Y-111229816D01*
X176729816Y-111102262D01*
X176825789Y-110949522D01*
X176885368Y-110779255D01*
X176897204Y-110674211D01*
X176905565Y-110600003D01*
X176905565Y-110599996D01*
X176885369Y-110420750D01*
X176885368Y-110420745D01*
X176825788Y-110250476D01*
X176729815Y-110097737D01*
X176602262Y-109970184D01*
X176449523Y-109874211D01*
X176279254Y-109814631D01*
X176279249Y-109814630D01*
X176100004Y-109794435D01*
X176099996Y-109794435D01*
X175920750Y-109814630D01*
X175920745Y-109814631D01*
X175750476Y-109874211D01*
X175597737Y-109970184D01*
X175470184Y-110097737D01*
X175374211Y-110250476D01*
X175314631Y-110420745D01*
X175314630Y-110420750D01*
X175294435Y-110599996D01*
X103000000Y-110599996D01*
X103000000Y-107999996D01*
X176994435Y-107999996D01*
X176994435Y-108000003D01*
X177014630Y-108179249D01*
X177014631Y-108179254D01*
X177074211Y-108349523D01*
X177170184Y-108502262D01*
X177297738Y-108629816D01*
X177450478Y-108725789D01*
X177620745Y-108785368D01*
X177620750Y-108785369D01*
X177799996Y-108805565D01*
X177800000Y-108805565D01*
X177800004Y-108805565D01*
X177979249Y-108785369D01*
X177979252Y-108785368D01*
X177979255Y-108785368D01*
X178149522Y-108725789D01*
X178302262Y-108629816D01*
X178429816Y-108502262D01*
X178525789Y-108349522D01*
X178585368Y-108179255D01*
X178585539Y-108177739D01*
X178605565Y-108000003D01*
X178605565Y-107999996D01*
X178585369Y-107820750D01*
X178585368Y-107820745D01*
X178550376Y-107720745D01*
X178525789Y-107650478D01*
X178431235Y-107499996D01*
X212994435Y-107499996D01*
X212994435Y-107500003D01*
X213014630Y-107679249D01*
X213014631Y-107679254D01*
X213074211Y-107849523D01*
X213105926Y-107899996D01*
X213170184Y-108002262D01*
X213297738Y-108129816D01*
X213374007Y-108177739D01*
X213450474Y-108225787D01*
X213450478Y-108225789D01*
X213518306Y-108249523D01*
X213620745Y-108285368D01*
X213620750Y-108285369D01*
X213799996Y-108305565D01*
X213800000Y-108305565D01*
X213800004Y-108305565D01*
X213979249Y-108285369D01*
X213979252Y-108285368D01*
X213979255Y-108285368D01*
X214149522Y-108225789D01*
X214195752Y-108196740D01*
X214262987Y-108177739D01*
X214329823Y-108198105D01*
X214369968Y-108243963D01*
X214370506Y-108243626D01*
X214372623Y-108246996D01*
X214373448Y-108247938D01*
X214374210Y-108249521D01*
X214396735Y-108285369D01*
X214470184Y-108402262D01*
X214597738Y-108529816D01*
X214750478Y-108625789D01*
X214761984Y-108629815D01*
X214920745Y-108685368D01*
X214920750Y-108685369D01*
X215099996Y-108705565D01*
X215100000Y-108705565D01*
X215100004Y-108705565D01*
X215279249Y-108685369D01*
X215279252Y-108685368D01*
X215279255Y-108685368D01*
X215449522Y-108625789D01*
X215602262Y-108529816D01*
X215729816Y-108402262D01*
X215825789Y-108249522D01*
X215885368Y-108079255D01*
X215894043Y-108002262D01*
X215905565Y-107900003D01*
X215905565Y-107899996D01*
X215885369Y-107720750D01*
X215885368Y-107720745D01*
X215870848Y-107679249D01*
X215825789Y-107550478D01*
X215729816Y-107397738D01*
X215602262Y-107270184D01*
X215513852Y-107214632D01*
X215449523Y-107174211D01*
X215279254Y-107114631D01*
X215279249Y-107114630D01*
X215100004Y-107094435D01*
X215099996Y-107094435D01*
X214920750Y-107114630D01*
X214920745Y-107114631D01*
X214750475Y-107174211D01*
X214704244Y-107203260D01*
X214637007Y-107222259D01*
X214570172Y-107201890D01*
X214530031Y-107156036D01*
X214529494Y-107156374D01*
X214527374Y-107153000D01*
X214526550Y-107152059D01*
X214525787Y-107150474D01*
X214429815Y-106997737D01*
X214302262Y-106870184D01*
X214149523Y-106774211D01*
X213979254Y-106714631D01*
X213979249Y-106714630D01*
X213800004Y-106694435D01*
X213799996Y-106694435D01*
X213620750Y-106714630D01*
X213620745Y-106714631D01*
X213450476Y-106774211D01*
X213297737Y-106870184D01*
X213170184Y-106997737D01*
X213074211Y-107150476D01*
X213014631Y-107320745D01*
X213014630Y-107320750D01*
X212994435Y-107499996D01*
X178431235Y-107499996D01*
X178429816Y-107497738D01*
X178302262Y-107370184D01*
X178149523Y-107274211D01*
X177979254Y-107214631D01*
X177979249Y-107214630D01*
X177800004Y-107194435D01*
X177799996Y-107194435D01*
X177620750Y-107214630D01*
X177620745Y-107214631D01*
X177450476Y-107274211D01*
X177297737Y-107370184D01*
X177170184Y-107497737D01*
X177074211Y-107650476D01*
X177014631Y-107820745D01*
X177014630Y-107820750D01*
X176994435Y-107999996D01*
X103000000Y-107999996D01*
X103000000Y-80773970D01*
X103019685Y-80706931D01*
X103072489Y-80661176D01*
X103141647Y-80651232D01*
X103175956Y-80661866D01*
X103176038Y-80661671D01*
X103178154Y-80662547D01*
X103178862Y-80662767D01*
X103179782Y-80663220D01*
X103179788Y-80663224D01*
X103403900Y-80756054D01*
X103638211Y-80818838D01*
X103818586Y-80842584D01*
X103878711Y-80850500D01*
X103878712Y-80850500D01*
X104121289Y-80850500D01*
X104169388Y-80844167D01*
X104361789Y-80818838D01*
X104596100Y-80756054D01*
X104820212Y-80663224D01*
X105030289Y-80541936D01*
X105222738Y-80394265D01*
X105394265Y-80222738D01*
X105541936Y-80030289D01*
X105663224Y-79820212D01*
X105756054Y-79596100D01*
X105818838Y-79361789D01*
X105850500Y-79121288D01*
X105850500Y-78878712D01*
X105818838Y-78638211D01*
X105756054Y-78403900D01*
X105663224Y-78179788D01*
X105663223Y-78179785D01*
X105662758Y-78178842D01*
X105662703Y-78178531D01*
X105661671Y-78176038D01*
X105662229Y-78175806D01*
X105650763Y-78110010D01*
X105677885Y-78045620D01*
X105735514Y-78006114D01*
X105773971Y-78000000D01*
X294226029Y-78000000D01*
X294293068Y-78019685D01*
G37*
%TD.AperFunction*%
%TD*%
M02*
