M48
; DRILL file {KiCad 8.0.9-8.0.9-0~ubuntu22.04.1} date 2026-06-16T06:33:23+0000
; FORMAT={-:-/ absolute / metric / decimal}
; #@! TF.CreationDate,2026-06-16T06:33:23+00:00
; #@! TF.GenerationSoftware,Kicad,Pcbnew,8.0.9-8.0.9-0~ubuntu22.04.1
; #@! TF.FileFunction,MixedPlating,1,22
FMAT,2
METRIC
; #@! TA.AperFunction,Plated,PTH,ViaDrill
T1C0.300
; #@! TA.AperFunction,Plated,PTH,ComponentDrill
T2C0.650
; #@! TA.AperFunction,NonPlated,NPTH,ComponentDrill
T3C2.000
; #@! TA.AperFunction,NonPlated,NPTH,ComponentDrill
T4C3.200
%
G90
G05
T1
X109.52Y-160.0
X114.52Y-160.0
X115.48Y-160.0
X119.52Y-160.0
X119.52Y-170.0
X120.48Y-160.0
X124.212Y-170.0
X124.52Y-160.0
X129.05Y-150.25
X129.05Y-150.75
X129.213Y-170.0
X130.95Y-149.75
X130.95Y-150.75
X132.137Y-125.6
X132.137Y-126.0
X132.137Y-126.4
X132.137Y-126.8
X134.213Y-170.0
X135.0Y-105.0
X136.0Y-142.0
X136.0Y-142.4
X136.0Y-145.2
X136.0Y-146.4
X137.862Y-125.2
X137.862Y-126.0
X138.95Y-170.0
X139.688Y-120.0
X140.2Y-149.0
X140.312Y-120.0
X140.6Y-141.0
X140.6Y-149.0
X140.938Y-120.0
X141.0Y-149.0
X141.4Y-141.0
X141.4Y-149.0
X141.562Y-120.0
X141.8Y-141.0
X142.188Y-120.0
X142.2Y-141.0
X142.2Y-149.0
X142.6Y-141.0
X142.6Y-149.0
X142.875Y-105.0
X143.0Y-141.0
X143.438Y-120.0
X143.625Y-105.0
X143.95Y-170.0
X144.0Y-142.0
X144.0Y-142.8
X144.0Y-144.0
X144.0Y-144.4
X144.0Y-145.2
X144.375Y-105.0
X145.125Y-105.0
X145.312Y-120.0
X145.875Y-105.0
X145.938Y-120.0
X146.562Y-120.0
X146.625Y-105.0
X147.188Y-120.0
X149.062Y-120.0
X149.688Y-120.0
X150.312Y-120.0
X150.51Y-170.0
X150.938Y-120.0
X151.562Y-120.0
X152.188Y-120.0
X154.062Y-120.0
X154.49Y-170.0
X154.688Y-120.0
X155.312Y-120.0
X155.51Y-170.0
X155.6Y-139.8
X155.938Y-120.0
X156.4Y-139.8
X157.2Y-139.8
X158.0Y-139.8
X160.4Y-139.0
X160.4Y-139.8
X160.51Y-170.0
X161.2Y-139.0
X162.0Y-139.0
X162.137Y-125.975
X162.137Y-126.625
X162.137Y-127.275
X162.8Y-139.0
X163.6Y-139.0
X163.6Y-139.8
X164.4Y-139.0
X164.4Y-139.8
X165.0Y-105.0
X165.2Y-139.8
X165.51Y-170.0
X167.862Y-127.275
X168.537Y-134.75
X168.537Y-136.75
X168.537Y-137.25
X169.25Y-137.975
X169.75Y-137.975
X170.75Y-137.975
X171.463Y-137.25
X173.9Y-134.15
X174.05Y-149.25
X175.95Y-150.25
X182.55Y-159.125
X182.55Y-159.475
X182.55Y-159.825
X183.3Y-185.0
X185.875Y-162.45
X190.0Y-140.0
X190.0Y-166.75
X190.0Y-167.25
X191.27Y-148.73
X191.27Y-150.0
X192.54Y-140.0
X192.54Y-150.0
X197.62Y-148.73
X197.62Y-150.0
T2
X190.0Y-138.73
X190.0Y-140.0
X190.0Y-148.73
X190.0Y-150.0
X191.27Y-138.73
X191.27Y-140.0
X191.27Y-148.73
X191.27Y-150.0
X192.54Y-138.73
X192.54Y-140.0
X192.54Y-148.73
X192.54Y-150.0
X193.81Y-138.73
X193.81Y-140.0
X193.81Y-148.73
X193.81Y-150.0
X195.08Y-138.73
X195.08Y-140.0
X195.08Y-148.73
X195.08Y-150.0
X196.35Y-148.73
X196.35Y-150.0
X197.62Y-148.73
X197.62Y-150.0
T3
X105.0Y-197.0
T4
X104.0Y-104.0
X104.0Y-196.0
X196.0Y-104.0
X196.0Y-196.0
M30
