%TF.GenerationSoftware,KiCad,Pcbnew,8.0.9-8.0.9-0~ubuntu22.04.1*%
%TF.CreationDate,2026-06-20T21:10:25+00:00*%
%TF.ProjectId,LightRail_Eval_Board,4c696768-7452-4616-996c-5f4576616c5f,rev?*%
%TF.SameCoordinates,Original*%
%TF.FileFunction,Copper,L5,Inr*%
%TF.FilePolarity,Positive*%
%FSLAX46Y46*%
G04 Gerber Fmt 4.6, Leading zero omitted, Abs format (unit mm)*
G04 Created by KiCad (PCBNEW 8.0.9-8.0.9-0~ubuntu22.04.1) date 2026-06-20 21:10:25*
%MOMM*%
%LPD*%
G01*
G04 APERTURE LIST*
%TA.AperFunction,ComponentPad*%
%ADD10R,1.000000X1.000000*%
%TD*%
%TA.AperFunction,ComponentPad*%
%ADD11O,1.000000X1.000000*%
%TD*%
%TA.AperFunction,ViaPad*%
%ADD12C,0.600000*%
%TD*%
G04 APERTURE END LIST*
D10*
%TO.N,+3V3*%
%TO.C,J6*%
X288000000Y-155000000D03*
D11*
%TO.N,GND*%
X288000000Y-153730000D03*
%TO.N,FPGA_GPIO0*%
X289270000Y-155000000D03*
%TO.N,FPGA_GPIO1*%
X289270000Y-153730000D03*
%TO.N,FPGA_GPIO2*%
X290540000Y-155000000D03*
%TO.N,FPGA_GPIO3*%
X290540000Y-153730000D03*
%TO.N,N/C*%
X291810000Y-155000000D03*
X291810000Y-153730000D03*
X293080000Y-155000000D03*
X293080000Y-153730000D03*
X294350000Y-155000000D03*
X294350000Y-153730000D03*
%TO.N,I2C_SCL*%
X295620000Y-155000000D03*
%TO.N,I2C_SDA*%
X295620000Y-153730000D03*
%TD*%
D10*
%TO.N,JTAG_TCK*%
%TO.C,J5*%
X288000000Y-135000000D03*
D11*
%TO.N,GND*%
X288000000Y-133730000D03*
%TO.N,JTAG_TDO*%
X289270000Y-135000000D03*
%TO.N,+3V3*%
X289270000Y-133730000D03*
%TO.N,JTAG_TMS*%
X290540000Y-135000000D03*
%TO.N,GND*%
X290540000Y-133730000D03*
%TO.N,N/C*%
X291810000Y-135000000D03*
X291810000Y-133730000D03*
%TO.N,JTAG_TDI*%
X293080000Y-135000000D03*
%TO.N,JTAG_TRST*%
X293080000Y-133730000D03*
%TD*%
D12*
%TO.N,+0V9*%
X250500000Y-171000000D03*
X228000000Y-135800000D03*
X167500000Y-219000000D03*
X228000000Y-139000000D03*
X194500000Y-171000000D03*
X197500000Y-171000000D03*
X158000000Y-135800000D03*
X201500000Y-171000000D03*
X158000000Y-139000000D03*
X189300000Y-169200000D03*
X185300000Y-207200000D03*
%TO.N,+12V*%
X124800000Y-202200000D03*
X117500000Y-219000000D03*
X126500000Y-204400000D03*
X134400000Y-200000000D03*
X126500000Y-205600000D03*
X123400000Y-210000000D03*
%TO.N,+1V0*%
X157500000Y-219000000D03*
X202300000Y-113200000D03*
X195300000Y-207200000D03*
X207500000Y-115000000D03*
X189300000Y-113200000D03*
X245300000Y-166800000D03*
X196600000Y-151000000D03*
X190500000Y-156000000D03*
X194500000Y-115000000D03*
%TO.N,+1V8*%
X207500000Y-171000000D03*
X189300000Y-154200000D03*
X185300000Y-120000000D03*
X147200000Y-203000000D03*
X204500000Y-171000000D03*
X175300000Y-207200000D03*
X144200000Y-203000000D03*
X189700000Y-202800000D03*
X198200000Y-151000000D03*
X188700000Y-202800000D03*
X147500000Y-219000000D03*
X225500000Y-149900000D03*
X167300000Y-201200000D03*
X223300000Y-145200000D03*
X164600000Y-142000000D03*
X228500000Y-141000000D03*
X177900000Y-206800000D03*
X228000000Y-138000000D03*
X157300000Y-201200000D03*
X207500000Y-150000000D03*
X177900000Y-204100000D03*
X244500000Y-185000000D03*
X234500000Y-147000000D03*
X177300000Y-201200000D03*
X195600000Y-151000000D03*
X149500000Y-197000000D03*
X158000000Y-138000000D03*
X165300000Y-207200000D03*
%TO.N,+3V3*%
X247500000Y-185000000D03*
X223900000Y-111700000D03*
X288000000Y-158000000D03*
X253500000Y-185000000D03*
X218900000Y-164200000D03*
X112300000Y-186200000D03*
X176100000Y-110600000D03*
X242300000Y-148000000D03*
X223900000Y-112800000D03*
X167900000Y-204100000D03*
X289300000Y-130699999D03*
X177800000Y-108000000D03*
X215100000Y-107900000D03*
X167900000Y-206800000D03*
X240200000Y-148000000D03*
X157900000Y-206800000D03*
X155300000Y-207200000D03*
X221900000Y-167800000D03*
X187900000Y-111400000D03*
X213800000Y-107500000D03*
X230200000Y-156000000D03*
X250500000Y-185000000D03*
X137500000Y-219000000D03*
X256500000Y-185000000D03*
X141200000Y-203000000D03*
X239300000Y-183200000D03*
X239600000Y-174400000D03*
X229300000Y-169200000D03*
X154100000Y-149200000D03*
X157900000Y-204100000D03*
X225500000Y-147800000D03*
X239600000Y-173100000D03*
X214100000Y-168200000D03*
%TO.N,+5V*%
X147900000Y-206800000D03*
X145400000Y-212000000D03*
X127500000Y-219000000D03*
X147900000Y-204100000D03*
X129100000Y-197000000D03*
%TO.N,GND*%
X180900000Y-206100000D03*
X232800000Y-141000000D03*
X120000000Y-93000000D03*
X229800000Y-149000000D03*
X162800000Y-141000000D03*
X272000000Y-163000000D03*
X272000000Y-128000000D03*
X165000000Y-217000000D03*
X120000000Y-163000000D03*
X147200000Y-202000000D03*
X201500000Y-170000000D03*
X162000000Y-141000000D03*
X234000000Y-93000000D03*
X187800000Y-122000000D03*
X232000000Y-141000000D03*
X120000000Y-128000000D03*
X163200000Y-141000000D03*
X233200000Y-141000000D03*
X149500000Y-202000000D03*
X158000000Y-163000000D03*
X272000000Y-93000000D03*
X158000000Y-93000000D03*
X129500000Y-206400000D03*
X197500000Y-170000000D03*
X234000000Y-198000000D03*
X191500000Y-170000000D03*
X196000000Y-93000000D03*
X234500000Y-146000000D03*
X169500000Y-202000000D03*
X173100000Y-207900000D03*
X232400000Y-141000000D03*
X183100000Y-207900000D03*
X162400000Y-141000000D03*
X231500000Y-146000000D03*
X194500000Y-170000000D03*
X225500000Y-146000000D03*
X207500000Y-155000000D03*
X145000000Y-217000000D03*
X272000000Y-198000000D03*
X207500000Y-170000000D03*
X250500000Y-170000000D03*
X190900000Y-207000000D03*
%TO.N,JTAG_TDO*%
X289300000Y-135700000D03*
%TO.N,NR_3V3*%
X150900000Y-206100000D03*
%TD*%
M02*
