%TF.GenerationSoftware,KiCad,Pcbnew,8.0.9-8.0.9-0~ubuntu22.04.1*%
%TF.CreationDate,2026-06-16T06:33:08+00:00*%
%TF.ProjectId,LightRail_Eval_Board,4c696768-7452-4616-996c-5f4576616c5f,rev?*%
%TF.SameCoordinates,Original*%
%TF.FileFunction,Paste,Top*%
%TF.FilePolarity,Positive*%
%FSLAX46Y46*%
G04 Gerber Fmt 4.6, Leading zero omitted, Abs format (unit mm)*
G04 Created by KiCad (PCBNEW 8.0.9-8.0.9-0~ubuntu22.04.1) date 2026-06-16 06:33:08*
%MOMM*%
%LPD*%
G01*
G04 APERTURE LIST*
G04 Aperture macros list*
%AMRoundRect*
0 Rectangle with rounded corners*
0 $1 Rounding radius*
0 $2 $3 $4 $5 $6 $7 $8 $9 X,Y pos of 4 corners*
0 Add a 4 corners polygon primitive as box body*
4,1,4,$2,$3,$4,$5,$6,$7,$8,$9,$2,$3,0*
0 Add four circle primitives for the rounded corners*
1,1,$1+$1,$2,$3*
1,1,$1+$1,$4,$5*
1,1,$1+$1,$6,$7*
1,1,$1+$1,$8,$9*
0 Add four rect primitives between the rounded corners*
20,1,$1+$1,$2,$3,$4,$5,0*
20,1,$1+$1,$4,$5,$6,$7,0*
20,1,$1+$1,$6,$7,$8,$9,0*
20,1,$1+$1,$8,$9,$2,$3,0*%
G04 Aperture macros list end*
%ADD10RoundRect,0.135000X-0.135000X-0.185000X0.135000X-0.185000X0.135000X0.185000X-0.135000X0.185000X0*%
%ADD11R,0.500000X0.800000*%
%ADD12RoundRect,0.112500X-0.187500X-0.112500X0.187500X-0.112500X0.187500X0.112500X-0.187500X0.112500X0*%
%ADD13RoundRect,0.140000X-0.140000X-0.170000X0.140000X-0.170000X0.140000X0.170000X-0.140000X0.170000X0*%
%ADD14RoundRect,0.225000X-0.225000X-0.250000X0.225000X-0.250000X0.225000X0.250000X-0.225000X0.250000X0*%
%ADD15RoundRect,0.062500X-0.675000X-0.062500X0.675000X-0.062500X0.675000X0.062500X-0.675000X0.062500X0*%
%ADD16RoundRect,0.250000X-0.250000X-0.475000X0.250000X-0.475000X0.250000X0.475000X-0.250000X0.475000X0*%
%ADD17R,0.750000X0.650000*%
%ADD18RoundRect,0.062500X-0.187500X-0.062500X0.187500X-0.062500X0.187500X0.062500X-0.187500X0.062500X0*%
%ADD19R,0.200000X0.800000*%
%ADD20R,0.800000X0.200000*%
%ADD21R,5.500000X5.500000*%
%ADD22RoundRect,0.247500X-0.247500X-0.247500X0.247500X-0.247500X0.247500X0.247500X-0.247500X0.247500X0*%
%ADD23RoundRect,0.050000X-0.350000X-0.050000X0.350000X-0.050000X0.350000X0.050000X-0.350000X0.050000X0*%
%ADD24RoundRect,0.050000X-0.050000X-0.350000X0.050000X-0.350000X0.050000X0.350000X-0.050000X0.350000X0*%
%ADD25R,5.080000X1.500000*%
%ADD26RoundRect,0.150000X-0.512500X-0.150000X0.512500X-0.150000X0.512500X0.150000X-0.512500X0.150000X0*%
%ADD27C,0.350000*%
%ADD28RoundRect,0.232500X-0.232500X-0.232500X0.232500X-0.232500X0.232500X0.232500X-0.232500X0.232500X0*%
%ADD29RoundRect,0.150000X-0.825000X-0.150000X0.825000X-0.150000X0.825000X0.150000X-0.825000X0.150000X0*%
%ADD30RoundRect,0.250000X-0.787500X-1.025000X0.787500X-1.025000X0.787500X1.025000X-0.787500X1.025000X0*%
%ADD31R,1.400000X1.200000*%
%ADD32RoundRect,0.100000X-0.637500X-0.100000X0.637500X-0.100000X0.637500X0.100000X-0.637500X0.100000X0*%
%ADD33R,1.000000X0.300000*%
%ADD34R,0.900000X1.700000*%
%ADD35RoundRect,0.218750X-0.218750X-0.256250X0.218750X-0.256250X0.218750X0.256250X-0.218750X0.256250X0*%
%ADD36RoundRect,0.172500X-0.172500X-0.307500X0.172500X-0.307500X0.172500X0.307500X-0.172500X0.307500X0*%
%ADD37RoundRect,0.062500X-0.350000X-0.062500X0.350000X-0.062500X0.350000X0.062500X-0.350000X0.062500X0*%
%ADD38RoundRect,0.062500X-0.062500X-0.337500X0.062500X-0.337500X0.062500X0.337500X-0.062500X0.337500X0*%
%ADD39RoundRect,0.243750X-0.243750X-0.456250X0.243750X-0.456250X0.243750X0.456250X-0.243750X0.456250X0*%
%ADD40R,3.300000X4.400000*%
%ADD41R,3.900000X6.200000*%
%ADD42R,2.900000X5.400000*%
G04 APERTURE END LIST*
D10*
%TO.C,R5a*%
X164490000Y-170000000D03*
X165510000Y-170000000D03*
%TD*%
D11*
%TO.C,U3*%
X137812000Y-120000000D03*
X138438000Y-120000000D03*
X139062000Y-120000000D03*
X139688000Y-120000000D03*
X140312000Y-120000000D03*
X140938000Y-120000000D03*
X141562000Y-120000000D03*
X142188000Y-120000000D03*
X142812000Y-120000000D03*
X143438000Y-120000000D03*
X144062000Y-120000000D03*
X144688000Y-120000000D03*
X145312000Y-120000000D03*
X145938000Y-120000000D03*
X146562000Y-120000000D03*
X147188000Y-120000000D03*
X147812000Y-120000000D03*
X148438000Y-120000000D03*
X149062000Y-120000000D03*
X149688000Y-120000000D03*
X150312000Y-120000000D03*
X150938000Y-120000000D03*
X151562000Y-120000000D03*
X152188000Y-120000000D03*
X152812000Y-120000000D03*
X153438000Y-120000000D03*
X154062000Y-120000000D03*
X154688000Y-120000000D03*
X155312000Y-120000000D03*
X155938000Y-120000000D03*
X156562000Y-120000000D03*
X157188000Y-120000000D03*
X157812000Y-120000000D03*
X158438000Y-120000000D03*
X159062000Y-120000000D03*
X159688000Y-120000000D03*
X160312000Y-120000000D03*
X160938000Y-120000000D03*
X161562000Y-120000000D03*
X162188000Y-120000000D03*
%TD*%
D12*
%TO.C,D5a*%
X138950000Y-170000000D03*
X141050000Y-170000000D03*
%TD*%
D13*
%TO.C,C41*%
X124520000Y-165000000D03*
X125480000Y-165000000D03*
%TD*%
%TO.C,C50_0*%
X159520000Y-165000000D03*
X160480000Y-165000000D03*
%TD*%
%TO.C,C5_e*%
X184520000Y-165000000D03*
X185480000Y-165000000D03*
%TD*%
D14*
%TO.C,C2c*%
X154225000Y-160000000D03*
X155775000Y-160000000D03*
%TD*%
D15*
%TO.C,U21*%
X132137500Y-123200000D03*
X132137500Y-123600000D03*
X132137500Y-124000000D03*
X132137500Y-124400000D03*
X132137500Y-124800000D03*
X132137500Y-125200000D03*
X132137500Y-125600000D03*
X132137500Y-126000000D03*
X132137500Y-126400000D03*
X132137500Y-126800000D03*
X137862500Y-126800000D03*
X137862500Y-126400000D03*
X137862500Y-126000000D03*
X137862500Y-125600000D03*
X137862500Y-125200000D03*
X137862500Y-124800000D03*
X137862500Y-124400000D03*
X137862500Y-124000000D03*
X137862500Y-123600000D03*
X137862500Y-123200000D03*
%TD*%
D13*
%TO.C,C32*%
X169520000Y-160000000D03*
X170480000Y-160000000D03*
%TD*%
%TO.C,C35*%
X184520000Y-160000000D03*
X185480000Y-160000000D03*
%TD*%
%TO.C,C5_f*%
X189520000Y-165000000D03*
X190480000Y-165000000D03*
%TD*%
D16*
%TO.C,C1b*%
X139050000Y-160000000D03*
X140950000Y-160000000D03*
%TD*%
D13*
%TO.C,C30*%
X159520000Y-160000000D03*
X160480000Y-160000000D03*
%TD*%
%TO.C,C50_1*%
X164520000Y-165000000D03*
X165480000Y-165000000D03*
%TD*%
D14*
%TO.C,C2b*%
X149225000Y-160000000D03*
X150775000Y-160000000D03*
%TD*%
D13*
%TO.C,C5_d*%
X179520000Y-165000000D03*
X180480000Y-165000000D03*
%TD*%
D17*
%TO.C,U23*%
X175000000Y-149600000D03*
X175000000Y-150400000D03*
D18*
X174050000Y-149250000D03*
X174050000Y-149750000D03*
X174050000Y-150250000D03*
X174050000Y-150750000D03*
X175950000Y-150750000D03*
X175950000Y-150250000D03*
X175950000Y-149750000D03*
X175950000Y-149250000D03*
%TD*%
D13*
%TO.C,C50_3*%
X174520000Y-165000000D03*
X175480000Y-165000000D03*
%TD*%
D14*
%TO.C,C2a*%
X144225000Y-160000000D03*
X145775000Y-160000000D03*
%TD*%
D13*
%TO.C,C39*%
X114520000Y-165000000D03*
X115480000Y-165000000D03*
%TD*%
D19*
%TO.C,U1*%
X137000000Y-149000000D03*
X137400000Y-149000000D03*
X137800000Y-149000000D03*
X138200000Y-149000000D03*
X138600000Y-149000000D03*
X139000000Y-149000000D03*
X139400000Y-149000000D03*
X139800000Y-149000000D03*
X140200000Y-149000000D03*
X140600000Y-149000000D03*
X141000000Y-149000000D03*
X141400000Y-149000000D03*
X141800000Y-149000000D03*
X142200000Y-149000000D03*
X142600000Y-149000000D03*
X143000000Y-149000000D03*
D20*
X144000000Y-148000000D03*
X144000000Y-147600000D03*
X144000000Y-147200000D03*
X144000000Y-146800000D03*
X144000000Y-146400000D03*
X144000000Y-146000000D03*
X144000000Y-145600000D03*
X144000000Y-145200000D03*
X144000000Y-144800000D03*
X144000000Y-144400000D03*
X144000000Y-144000000D03*
X144000000Y-143600000D03*
X144000000Y-143200000D03*
X144000000Y-142800000D03*
X144000000Y-142400000D03*
X144000000Y-142000000D03*
D19*
X143000000Y-141000000D03*
X142600000Y-141000000D03*
X142200000Y-141000000D03*
X141800000Y-141000000D03*
X141400000Y-141000000D03*
X141000000Y-141000000D03*
X140600000Y-141000000D03*
X140200000Y-141000000D03*
X139800000Y-141000000D03*
X139400000Y-141000000D03*
X139000000Y-141000000D03*
X138600000Y-141000000D03*
X138200000Y-141000000D03*
X137800000Y-141000000D03*
X137400000Y-141000000D03*
X137000000Y-141000000D03*
D20*
X136000000Y-142000000D03*
X136000000Y-142400000D03*
X136000000Y-142800000D03*
X136000000Y-143200000D03*
X136000000Y-143600000D03*
X136000000Y-144000000D03*
X136000000Y-144400000D03*
X136000000Y-144800000D03*
X136000000Y-145200000D03*
X136000000Y-145600000D03*
X136000000Y-146000000D03*
X136000000Y-146400000D03*
X136000000Y-146800000D03*
X136000000Y-147200000D03*
X136000000Y-147600000D03*
X136000000Y-148000000D03*
D21*
X140000000Y-145000000D03*
%TD*%
D13*
%TO.C,C4b*%
X154520000Y-165000000D03*
X155480000Y-165000000D03*
%TD*%
D10*
%TO.C,R5_b*%
X154490000Y-170000000D03*
X155510000Y-170000000D03*
%TD*%
D22*
%TO.C,U22*%
X183770000Y-158770000D03*
X183770000Y-160000000D03*
X183770000Y-161230000D03*
X185000000Y-158770000D03*
X185000000Y-160000000D03*
X185000000Y-161230000D03*
X186230000Y-158770000D03*
X186230000Y-160000000D03*
X186230000Y-161230000D03*
D23*
X182550000Y-157725000D03*
X182550000Y-158075000D03*
X182550000Y-158425000D03*
X182550000Y-158775000D03*
X182550000Y-159125000D03*
X182550000Y-159475000D03*
X182550000Y-159825000D03*
X182550000Y-160175000D03*
X182550000Y-160525000D03*
X182550000Y-160875000D03*
X182550000Y-161225000D03*
X182550000Y-161575000D03*
X182550000Y-161925000D03*
X182550000Y-162275000D03*
D24*
X183425000Y-162450000D03*
X183775000Y-162450000D03*
X184125000Y-162450000D03*
X184475000Y-162450000D03*
X184825000Y-162450000D03*
X185175000Y-162450000D03*
X185525000Y-162450000D03*
X185875000Y-162450000D03*
X186225000Y-162450000D03*
X186575000Y-162450000D03*
D23*
X187450000Y-162275000D03*
X187450000Y-161925000D03*
X187450000Y-161575000D03*
X187450000Y-161225000D03*
X187450000Y-160875000D03*
X187450000Y-160525000D03*
X187450000Y-160175000D03*
X187450000Y-159825000D03*
X187450000Y-159475000D03*
X187450000Y-159125000D03*
X187450000Y-158775000D03*
X187450000Y-158425000D03*
X187450000Y-158075000D03*
X187450000Y-157725000D03*
D24*
X186575000Y-157550000D03*
X186225000Y-157550000D03*
X185875000Y-157550000D03*
X185525000Y-157550000D03*
X185175000Y-157550000D03*
X184825000Y-157550000D03*
X184475000Y-157550000D03*
X184125000Y-157550000D03*
X183775000Y-157550000D03*
X183425000Y-157550000D03*
%TD*%
D25*
%TO.C,J8*%
X135000000Y-105000000D03*
X135000000Y-100750000D03*
X135000000Y-109250000D03*
%TD*%
%TO.C,J10*%
X180000000Y-105000000D03*
X180000000Y-100750000D03*
X180000000Y-109250000D03*
%TD*%
%TO.C,J7*%
X120000000Y-105000000D03*
X120000000Y-100750000D03*
X120000000Y-109250000D03*
%TD*%
D13*
%TO.C,C44*%
X139520000Y-165000000D03*
X140480000Y-165000000D03*
%TD*%
%TO.C,C43*%
X134520000Y-165000000D03*
X135480000Y-165000000D03*
%TD*%
%TO.C,C42*%
X129520000Y-165000000D03*
X130480000Y-165000000D03*
%TD*%
%TO.C,C34*%
X179520000Y-160000000D03*
X180480000Y-160000000D03*
%TD*%
D26*
%TO.C,U11*%
X133862500Y-184050000D03*
X133862500Y-185000000D03*
X133862500Y-185950000D03*
X136137500Y-185950000D03*
X136137500Y-184050000D03*
%TD*%
D12*
%TO.C,D5b*%
X143950000Y-170000000D03*
X146050000Y-170000000D03*
%TD*%
D27*
%TO.C,U2*%
X154000000Y-139000000D03*
X154800000Y-139000000D03*
X155600000Y-139000000D03*
X156400000Y-139000000D03*
X157200000Y-139000000D03*
X158000000Y-139000000D03*
X158800000Y-139000000D03*
X159600000Y-139000000D03*
X160400000Y-139000000D03*
X161200000Y-139000000D03*
X162000000Y-139000000D03*
X162800000Y-139000000D03*
X163600000Y-139000000D03*
X164400000Y-139000000D03*
X165200000Y-139000000D03*
X166000000Y-139000000D03*
X154000000Y-139800000D03*
X154800000Y-139800000D03*
X155600000Y-139800000D03*
X156400000Y-139800000D03*
X157200000Y-139800000D03*
X158000000Y-139800000D03*
X158800000Y-139800000D03*
X159600000Y-139800000D03*
X160400000Y-139800000D03*
X161200000Y-139800000D03*
X162000000Y-139800000D03*
X162800000Y-139800000D03*
X163600000Y-139800000D03*
X164400000Y-139800000D03*
X165200000Y-139800000D03*
X166000000Y-139800000D03*
X154000000Y-140600000D03*
X154800000Y-140600000D03*
X155600000Y-140600000D03*
X156400000Y-140600000D03*
X157200000Y-140600000D03*
X158000000Y-140600000D03*
X158800000Y-140600000D03*
X159600000Y-140600000D03*
X160400000Y-140600000D03*
X161200000Y-140600000D03*
X162000000Y-140600000D03*
X162800000Y-140600000D03*
X163600000Y-140600000D03*
X164400000Y-140600000D03*
X165200000Y-140600000D03*
X166000000Y-140600000D03*
X154000000Y-141400000D03*
X154800000Y-141400000D03*
X155600000Y-141400000D03*
X156400000Y-141400000D03*
X157200000Y-141400000D03*
X158000000Y-141400000D03*
X158800000Y-141400000D03*
X159600000Y-141400000D03*
X160400000Y-141400000D03*
X161200000Y-141400000D03*
X162000000Y-141400000D03*
X162800000Y-141400000D03*
X163600000Y-141400000D03*
X164400000Y-141400000D03*
X165200000Y-141400000D03*
X166000000Y-141400000D03*
X154000000Y-142200000D03*
X154800000Y-142200000D03*
X155600000Y-142200000D03*
X156400000Y-142200000D03*
X157200000Y-142200000D03*
X158000000Y-142200000D03*
X158800000Y-142200000D03*
X159600000Y-142200000D03*
X160400000Y-142200000D03*
X161200000Y-142200000D03*
X162000000Y-142200000D03*
X162800000Y-142200000D03*
X163600000Y-142200000D03*
X164400000Y-142200000D03*
X165200000Y-142200000D03*
X166000000Y-142200000D03*
X154000000Y-143000000D03*
X154800000Y-143000000D03*
X155600000Y-143000000D03*
X156400000Y-143000000D03*
X157200000Y-143000000D03*
X158000000Y-143000000D03*
X158800000Y-143000000D03*
X159600000Y-143000000D03*
X160400000Y-143000000D03*
X161200000Y-143000000D03*
X162000000Y-143000000D03*
X162800000Y-143000000D03*
X163600000Y-143000000D03*
X164400000Y-143000000D03*
X165200000Y-143000000D03*
X166000000Y-143000000D03*
X154000000Y-143800000D03*
X154800000Y-143800000D03*
X155600000Y-143800000D03*
X156400000Y-143800000D03*
X157200000Y-143800000D03*
X158000000Y-143800000D03*
X158800000Y-143800000D03*
X159600000Y-143800000D03*
X160400000Y-143800000D03*
X161200000Y-143800000D03*
X162000000Y-143800000D03*
X162800000Y-143800000D03*
X163600000Y-143800000D03*
X164400000Y-143800000D03*
X165200000Y-143800000D03*
X166000000Y-143800000D03*
X154000000Y-144600000D03*
X154800000Y-144600000D03*
X155600000Y-144600000D03*
X156400000Y-144600000D03*
X157200000Y-144600000D03*
X158000000Y-144600000D03*
X158800000Y-144600000D03*
X159600000Y-144600000D03*
X160400000Y-144600000D03*
X161200000Y-144600000D03*
X162000000Y-144600000D03*
X162800000Y-144600000D03*
X163600000Y-144600000D03*
X164400000Y-144600000D03*
X165200000Y-144600000D03*
X166000000Y-144600000D03*
X154000000Y-145400000D03*
X154800000Y-145400000D03*
X155600000Y-145400000D03*
X156400000Y-145400000D03*
X157200000Y-145400000D03*
X158000000Y-145400000D03*
X158800000Y-145400000D03*
X159600000Y-145400000D03*
X160400000Y-145400000D03*
X161200000Y-145400000D03*
X162000000Y-145400000D03*
X162800000Y-145400000D03*
X163600000Y-145400000D03*
X164400000Y-145400000D03*
X165200000Y-145400000D03*
X166000000Y-145400000D03*
X154000000Y-146200000D03*
X154800000Y-146200000D03*
X155600000Y-146200000D03*
X156400000Y-146200000D03*
X157200000Y-146200000D03*
X158000000Y-146200000D03*
X158800000Y-146200000D03*
X159600000Y-146200000D03*
X160400000Y-146200000D03*
X161200000Y-146200000D03*
X162000000Y-146200000D03*
X162800000Y-146200000D03*
X163600000Y-146200000D03*
X164400000Y-146200000D03*
X165200000Y-146200000D03*
X166000000Y-146200000D03*
X154000000Y-147000000D03*
X154800000Y-147000000D03*
X155600000Y-147000000D03*
X156400000Y-147000000D03*
X157200000Y-147000000D03*
X158000000Y-147000000D03*
X158800000Y-147000000D03*
X159600000Y-147000000D03*
X160400000Y-147000000D03*
X161200000Y-147000000D03*
X162000000Y-147000000D03*
X162800000Y-147000000D03*
X163600000Y-147000000D03*
X164400000Y-147000000D03*
X165200000Y-147000000D03*
X166000000Y-147000000D03*
X154000000Y-147800000D03*
X154800000Y-147800000D03*
X155600000Y-147800000D03*
X156400000Y-147800000D03*
X157200000Y-147800000D03*
X158000000Y-147800000D03*
X158800000Y-147800000D03*
X159600000Y-147800000D03*
X160400000Y-147800000D03*
X161200000Y-147800000D03*
X162000000Y-147800000D03*
X162800000Y-147800000D03*
X163600000Y-147800000D03*
X164400000Y-147800000D03*
X165200000Y-147800000D03*
X166000000Y-147800000D03*
X154000000Y-148600000D03*
X154800000Y-148600000D03*
X155600000Y-148600000D03*
X156400000Y-148600000D03*
X157200000Y-148600000D03*
X158000000Y-148600000D03*
X158800000Y-148600000D03*
X159600000Y-148600000D03*
X160400000Y-148600000D03*
X161200000Y-148600000D03*
X162000000Y-148600000D03*
X162800000Y-148600000D03*
X163600000Y-148600000D03*
X164400000Y-148600000D03*
X165200000Y-148600000D03*
X166000000Y-148600000D03*
X154000000Y-149400000D03*
X154800000Y-149400000D03*
X155600000Y-149400000D03*
X156400000Y-149400000D03*
X157200000Y-149400000D03*
X158000000Y-149400000D03*
X158800000Y-149400000D03*
X159600000Y-149400000D03*
X160400000Y-149400000D03*
X161200000Y-149400000D03*
X162000000Y-149400000D03*
X162800000Y-149400000D03*
X163600000Y-149400000D03*
X164400000Y-149400000D03*
X165200000Y-149400000D03*
X166000000Y-149400000D03*
X154000000Y-150200000D03*
X154800000Y-150200000D03*
X155600000Y-150200000D03*
X156400000Y-150200000D03*
X157200000Y-150200000D03*
X158000000Y-150200000D03*
X158800000Y-150200000D03*
X159600000Y-150200000D03*
X160400000Y-150200000D03*
X161200000Y-150200000D03*
X162000000Y-150200000D03*
X162800000Y-150200000D03*
X163600000Y-150200000D03*
X164400000Y-150200000D03*
X165200000Y-150200000D03*
X166000000Y-150200000D03*
X154000000Y-151000000D03*
X154800000Y-151000000D03*
X155600000Y-151000000D03*
X156400000Y-151000000D03*
X157200000Y-151000000D03*
X158000000Y-151000000D03*
X158800000Y-151000000D03*
X159600000Y-151000000D03*
X160400000Y-151000000D03*
X161200000Y-151000000D03*
X162000000Y-151000000D03*
X162800000Y-151000000D03*
X163600000Y-151000000D03*
X164400000Y-151000000D03*
X165200000Y-151000000D03*
X166000000Y-151000000D03*
%TD*%
D17*
%TO.C,U25*%
X130000000Y-149600000D03*
X130000000Y-150400000D03*
D18*
X129050000Y-149250000D03*
X129050000Y-149750000D03*
X129050000Y-150250000D03*
X129050000Y-150750000D03*
X130950000Y-150750000D03*
X130950000Y-150250000D03*
X130950000Y-149750000D03*
X130950000Y-149250000D03*
%TD*%
D13*
%TO.C,C10_d*%
X124520000Y-160000000D03*
X125480000Y-160000000D03*
%TD*%
D28*
%TO.C,U15*%
X114425000Y-179425000D03*
X114425000Y-180575000D03*
X115575000Y-179425000D03*
X115575000Y-180575000D03*
D29*
X112525000Y-178095000D03*
X112525000Y-179365000D03*
X112525000Y-180635000D03*
X112525000Y-181905000D03*
X117475000Y-181905000D03*
X117475000Y-180635000D03*
X117475000Y-179365000D03*
X117475000Y-178095000D03*
%TD*%
D26*
%TO.C,U14*%
X133862500Y-179050000D03*
X133862500Y-180000000D03*
X133862500Y-180950000D03*
X136137500Y-180950000D03*
X136137500Y-179050000D03*
%TD*%
D13*
%TO.C,C31*%
X164520000Y-160000000D03*
X165480000Y-160000000D03*
%TD*%
D16*
%TO.C,C1a*%
X134050000Y-160000000D03*
X135950000Y-160000000D03*
%TD*%
D13*
%TO.C,C10_c*%
X119520000Y-160000000D03*
X120480000Y-160000000D03*
%TD*%
%TO.C,C4a*%
X149520000Y-165000000D03*
X150480000Y-165000000D03*
%TD*%
%TO.C,C5a*%
X109520000Y-170000000D03*
X110480000Y-170000000D03*
%TD*%
%TO.C,C9a*%
X119520000Y-170000000D03*
X120480000Y-170000000D03*
%TD*%
%TO.C,C5_g*%
X194520000Y-165000000D03*
X195480000Y-165000000D03*
%TD*%
D30*
%TO.C,C11*%
X126887500Y-160000000D03*
X133112500Y-160000000D03*
%TD*%
D13*
%TO.C,C36*%
X189520000Y-160000000D03*
X190480000Y-160000000D03*
%TD*%
D31*
%TO.C,Y1*%
X173900000Y-135850000D03*
X176100000Y-135850000D03*
X176100000Y-134150000D03*
X173900000Y-134150000D03*
%TD*%
D11*
%TO.C,J11*%
X141375000Y-105000000D03*
X142125000Y-105000000D03*
X142875000Y-105000000D03*
X143625000Y-105000000D03*
X144375000Y-105000000D03*
X145125000Y-105000000D03*
X145875000Y-105000000D03*
X146625000Y-105000000D03*
X147375000Y-105000000D03*
X148125000Y-105000000D03*
X148875000Y-105000000D03*
X149625000Y-105000000D03*
X150375000Y-105000000D03*
X151125000Y-105000000D03*
X151875000Y-105000000D03*
X152625000Y-105000000D03*
X153375000Y-105000000D03*
X154125000Y-105000000D03*
X154875000Y-105000000D03*
X155625000Y-105000000D03*
X156375000Y-105000000D03*
X157125000Y-105000000D03*
X157875000Y-105000000D03*
X158625000Y-105000000D03*
%TD*%
D13*
%TO.C,C10_b*%
X114520000Y-160000000D03*
X115480000Y-160000000D03*
%TD*%
D32*
%TO.C,U24*%
X162137500Y-122725000D03*
X162137500Y-123375000D03*
X162137500Y-124025000D03*
X162137500Y-124675000D03*
X162137500Y-125325000D03*
X162137500Y-125975000D03*
X162137500Y-126625000D03*
X162137500Y-127275000D03*
X167862500Y-127275000D03*
X167862500Y-126625000D03*
X167862500Y-125975000D03*
X167862500Y-125325000D03*
X167862500Y-124675000D03*
X167862500Y-124025000D03*
X167862500Y-123375000D03*
X167862500Y-122725000D03*
%TD*%
D33*
%TO.C,J2*%
X190000000Y-168750000D03*
X190000000Y-168250000D03*
X190000000Y-167750000D03*
X190000000Y-167250000D03*
X190000000Y-166750000D03*
X190000000Y-166250000D03*
X190000000Y-165750000D03*
X190000000Y-165250000D03*
X190000000Y-164750000D03*
X190000000Y-164250000D03*
X190000000Y-163750000D03*
X190000000Y-163250000D03*
X190000000Y-162750000D03*
X190000000Y-162250000D03*
X190000000Y-161750000D03*
X190000000Y-161250000D03*
%TD*%
D34*
%TO.C,SW1*%
X183300000Y-185000000D03*
X186700000Y-185000000D03*
%TD*%
D26*
%TO.C,U12*%
X143862500Y-184050000D03*
X143862500Y-185000000D03*
X143862500Y-185950000D03*
X146137500Y-185950000D03*
X146137500Y-184050000D03*
%TD*%
D35*
%TO.C,D3*%
X134212500Y-170000000D03*
X135787500Y-170000000D03*
%TD*%
D10*
%TO.C,R5_c*%
X159490000Y-170000000D03*
X160510000Y-170000000D03*
%TD*%
D13*
%TO.C,C5b*%
X114520000Y-170000000D03*
X115480000Y-170000000D03*
%TD*%
%TO.C,C38*%
X109520000Y-165000000D03*
X110480000Y-165000000D03*
%TD*%
D10*
%TO.C,R1a*%
X149490000Y-170000000D03*
X150510000Y-170000000D03*
%TD*%
D35*
%TO.C,D2*%
X129212500Y-170000000D03*
X130787500Y-170000000D03*
%TD*%
D36*
%TO.C,U20*%
X169575000Y-133215000D03*
X169575000Y-134405000D03*
X169575000Y-135595000D03*
X169575000Y-136785000D03*
X170425000Y-133215000D03*
X170425000Y-134405000D03*
X170425000Y-135595000D03*
X170425000Y-136785000D03*
D37*
X168537500Y-132750000D03*
X168537500Y-133250000D03*
X168537500Y-133750000D03*
X168537500Y-134250000D03*
X168537500Y-134750000D03*
X168537500Y-135250000D03*
X168537500Y-135750000D03*
X168537500Y-136250000D03*
X168537500Y-136750000D03*
X168537500Y-137250000D03*
D38*
X169250000Y-137975000D03*
X169750000Y-137975000D03*
X170250000Y-137975000D03*
X170750000Y-137975000D03*
D37*
X171462500Y-137250000D03*
X171462500Y-136750000D03*
X171462500Y-136250000D03*
X171462500Y-135750000D03*
X171462500Y-135250000D03*
X171462500Y-134750000D03*
X171462500Y-134250000D03*
X171462500Y-133750000D03*
X171462500Y-133250000D03*
X171462500Y-132750000D03*
D38*
X170750000Y-132025000D03*
X170250000Y-132025000D03*
X169750000Y-132025000D03*
X169250000Y-132025000D03*
%TD*%
D13*
%TO.C,C40*%
X119520000Y-165000000D03*
X120480000Y-165000000D03*
%TD*%
D26*
%TO.C,U13*%
X123862500Y-179050000D03*
X123862500Y-180000000D03*
X123862500Y-180950000D03*
X126137500Y-180950000D03*
X126137500Y-179050000D03*
%TD*%
D39*
%TO.C,F1*%
X109062500Y-185000000D03*
X110937500Y-185000000D03*
%TD*%
D13*
%TO.C,C37*%
X194520000Y-160000000D03*
X195480000Y-160000000D03*
%TD*%
D40*
%TO.C,J1*%
X105700000Y-184200000D03*
D41*
X98550000Y-193200000D03*
X111450000Y-193200000D03*
%TD*%
D26*
%TO.C,U10*%
X143862500Y-179050000D03*
X143862500Y-180000000D03*
X143862500Y-180950000D03*
X146137500Y-180950000D03*
X146137500Y-179050000D03*
%TD*%
D42*
%TO.C,L1*%
X110050000Y-175000000D03*
X119950000Y-175000000D03*
%TD*%
D13*
%TO.C,C10_a*%
X109520000Y-160000000D03*
X110480000Y-160000000D03*
%TD*%
D35*
%TO.C,D1*%
X124212500Y-170000000D03*
X125787500Y-170000000D03*
%TD*%
D13*
%TO.C,C50_2*%
X169520000Y-165000000D03*
X170480000Y-165000000D03*
%TD*%
D25*
%TO.C,J9*%
X165000000Y-105000000D03*
X165000000Y-100750000D03*
X165000000Y-109250000D03*
%TD*%
D13*
%TO.C,C45*%
X144520000Y-165000000D03*
X145480000Y-165000000D03*
%TD*%
%TO.C,C33*%
X174520000Y-160000000D03*
X175480000Y-160000000D03*
%TD*%
M02*
