%TF.GenerationSoftware,KiCad,Pcbnew,8.0.9-8.0.9-0~ubuntu22.04.1*%
%TF.CreationDate,2026-06-16T06:33:08+00:00*%
%TF.ProjectId,LightRail_Eval_Board,4c696768-7452-4616-996c-5f4576616c5f,rev?*%
%TF.SameCoordinates,Original*%
%TF.FileFunction,Other,User*%
%FSLAX46Y46*%
G04 Gerber Fmt 4.6, Leading zero omitted, Abs format (unit mm)*
G04 Created by KiCad (PCBNEW 8.0.9-8.0.9-0~ubuntu22.04.1) date 2026-06-16 06:33:08*
%MOMM*%
%LPD*%
G01*
G04 APERTURE LIST*
%ADD10C,0.050000*%
G04 APERTURE END LIST*
D10*
%TO.C,R5a*%
X164070000Y-169530000D02*
X165930000Y-169530000D01*
X164070000Y-170470000D02*
X164070000Y-169530000D01*
X165930000Y-169530000D02*
X165930000Y-170470000D01*
X165930000Y-170470000D02*
X164070000Y-170470000D01*
%TO.C,U3*%
X137250000Y-115750000D02*
X162750000Y-115750000D01*
X162750000Y-124250000D01*
X137250000Y-124250000D01*
X137250000Y-115750000D01*
%TO.C,D5a*%
X138400000Y-169050000D02*
X138400000Y-170950000D01*
X138400000Y-169050000D02*
X141600000Y-169050000D01*
X138400000Y-170950000D02*
X141600000Y-170950000D01*
X141600000Y-169050000D02*
X141600000Y-170950000D01*
%TO.C,C41*%
X124090000Y-164540000D02*
X125910000Y-164540000D01*
X124090000Y-165460000D02*
X124090000Y-164540000D01*
X125910000Y-164540000D02*
X125910000Y-165460000D01*
X125910000Y-165460000D02*
X124090000Y-165460000D01*
%TO.C,C50_0*%
X159090000Y-164540000D02*
X160910000Y-164540000D01*
X159090000Y-165460000D02*
X159090000Y-164540000D01*
X160910000Y-164540000D02*
X160910000Y-165460000D01*
X160910000Y-165460000D02*
X159090000Y-165460000D01*
%TO.C,TP2*%
X119000000Y-195000000D02*
G75*
G02*
X117000000Y-195000000I-1000000J0D01*
G01*
X117000000Y-195000000D02*
G75*
G02*
X119000000Y-195000000I1000000J0D01*
G01*
%TO.C,C5_e*%
X184090000Y-164540000D02*
X185910000Y-164540000D01*
X184090000Y-165460000D02*
X184090000Y-164540000D01*
X185910000Y-164540000D02*
X185910000Y-165460000D01*
X185910000Y-165460000D02*
X184090000Y-165460000D01*
%TO.C,C2c*%
X153520000Y-159270000D02*
X156480000Y-159270000D01*
X153520000Y-160730000D02*
X153520000Y-159270000D01*
X156480000Y-159270000D02*
X156480000Y-160730000D01*
X156480000Y-160730000D02*
X153520000Y-160730000D01*
%TO.C,U21*%
X131150000Y-122250000D02*
X131150000Y-127750000D01*
X131150000Y-127750000D02*
X138850000Y-127750000D01*
X138850000Y-122250000D02*
X131150000Y-122250000D01*
X138850000Y-127750000D02*
X138850000Y-122250000D01*
%TO.C,C32*%
X169090000Y-159540000D02*
X170910000Y-159540000D01*
X169090000Y-160460000D02*
X169090000Y-159540000D01*
X170910000Y-159540000D02*
X170910000Y-160460000D01*
X170910000Y-160460000D02*
X169090000Y-160460000D01*
%TO.C,C35*%
X184090000Y-159540000D02*
X185910000Y-159540000D01*
X184090000Y-160460000D02*
X184090000Y-159540000D01*
X185910000Y-159540000D02*
X185910000Y-160460000D01*
X185910000Y-160460000D02*
X184090000Y-160460000D01*
%TO.C,C5_f*%
X189090000Y-164540000D02*
X190910000Y-164540000D01*
X189090000Y-165460000D02*
X189090000Y-164540000D01*
X190910000Y-164540000D02*
X190910000Y-165460000D01*
X190910000Y-165460000D02*
X189090000Y-165460000D01*
%TO.C,C1b*%
X138300000Y-159020000D02*
X141700000Y-159020000D01*
X138300000Y-160980000D02*
X138300000Y-159020000D01*
X141700000Y-159020000D02*
X141700000Y-160980000D01*
X141700000Y-160980000D02*
X138300000Y-160980000D01*
%TO.C,C30*%
X159090000Y-159540000D02*
X160910000Y-159540000D01*
X159090000Y-160460000D02*
X159090000Y-159540000D01*
X160910000Y-159540000D02*
X160910000Y-160460000D01*
X160910000Y-160460000D02*
X159090000Y-160460000D01*
%TO.C,C50_1*%
X164090000Y-164540000D02*
X165910000Y-164540000D01*
X164090000Y-165460000D02*
X164090000Y-164540000D01*
X165910000Y-164540000D02*
X165910000Y-165460000D01*
X165910000Y-165460000D02*
X164090000Y-165460000D01*
%TO.C,C2b*%
X148520000Y-159270000D02*
X151480000Y-159270000D01*
X148520000Y-160730000D02*
X148520000Y-159270000D01*
X151480000Y-159270000D02*
X151480000Y-160730000D01*
X151480000Y-160730000D02*
X148520000Y-160730000D01*
%TO.C,C5_d*%
X179090000Y-164540000D02*
X180910000Y-164540000D01*
X179090000Y-165460000D02*
X179090000Y-164540000D01*
X180910000Y-164540000D02*
X180910000Y-165460000D01*
X180910000Y-165460000D02*
X179090000Y-165460000D01*
%TO.C,TP5*%
X131000000Y-195000000D02*
G75*
G02*
X129000000Y-195000000I-1000000J0D01*
G01*
X129000000Y-195000000D02*
G75*
G02*
X131000000Y-195000000I1000000J0D01*
G01*
%TO.C,U23*%
X173400000Y-148750000D02*
X173400000Y-151250000D01*
X173400000Y-148750000D02*
X176600000Y-148750000D01*
X173400000Y-151250000D02*
X176600000Y-151250000D01*
X176600000Y-148750000D02*
X176600000Y-151250000D01*
%TO.C,C50_3*%
X174090000Y-164540000D02*
X175910000Y-164540000D01*
X174090000Y-165460000D02*
X174090000Y-164540000D01*
X175910000Y-164540000D02*
X175910000Y-165460000D01*
X175910000Y-165460000D02*
X174090000Y-165460000D01*
%TO.C,C2a*%
X143520000Y-159270000D02*
X146480000Y-159270000D01*
X143520000Y-160730000D02*
X143520000Y-159270000D01*
X146480000Y-159270000D02*
X146480000Y-160730000D01*
X146480000Y-160730000D02*
X143520000Y-160730000D01*
%TO.C,TP1*%
X115000000Y-195000000D02*
G75*
G02*
X113000000Y-195000000I-1000000J0D01*
G01*
X113000000Y-195000000D02*
G75*
G02*
X115000000Y-195000000I1000000J0D01*
G01*
%TO.C,C39*%
X114090000Y-164540000D02*
X115910000Y-164540000D01*
X114090000Y-165460000D02*
X114090000Y-164540000D01*
X115910000Y-164540000D02*
X115910000Y-165460000D01*
X115910000Y-165460000D02*
X114090000Y-165460000D01*
%TO.C,U1*%
X135750000Y-140750000D02*
X144250000Y-140750000D01*
X144250000Y-149250000D01*
X135750000Y-149250000D01*
X135750000Y-140750000D01*
%TO.C,C4b*%
X154090000Y-164540000D02*
X155910000Y-164540000D01*
X154090000Y-165460000D02*
X154090000Y-164540000D01*
X155910000Y-164540000D02*
X155910000Y-165460000D01*
X155910000Y-165460000D02*
X154090000Y-165460000D01*
%TO.C,J6*%
X188850000Y-147150000D02*
X188850000Y-151600000D01*
X188850000Y-151600000D02*
X198800000Y-151600000D01*
X198800000Y-147150000D02*
X188850000Y-147150000D01*
X198800000Y-151600000D02*
X198800000Y-147150000D01*
%TO.C,TP7*%
X139000000Y-195000000D02*
G75*
G02*
X137000000Y-195000000I-1000000J0D01*
G01*
X137000000Y-195000000D02*
G75*
G02*
X139000000Y-195000000I1000000J0D01*
G01*
%TO.C,TP3*%
X123000000Y-195000000D02*
G75*
G02*
X121000000Y-195000000I-1000000J0D01*
G01*
X121000000Y-195000000D02*
G75*
G02*
X123000000Y-195000000I1000000J0D01*
G01*
%TO.C,R5_b*%
X154070000Y-169530000D02*
X155930000Y-169530000D01*
X154070000Y-170470000D02*
X154070000Y-169530000D01*
X155930000Y-169530000D02*
X155930000Y-170470000D01*
X155930000Y-170470000D02*
X154070000Y-170470000D01*
%TO.C,J5*%
X188850000Y-137150000D02*
X188850000Y-141600000D01*
X188850000Y-141600000D02*
X196250000Y-141600000D01*
X196250000Y-137150000D02*
X188850000Y-137150000D01*
X196250000Y-141600000D02*
X196250000Y-137150000D01*
%TO.C,U22*%
X181900000Y-156900000D02*
X181900000Y-163100000D01*
X181900000Y-163100000D02*
X188100000Y-163100000D01*
X188100000Y-156900000D02*
X181900000Y-156900000D01*
X188100000Y-163100000D02*
X188100000Y-156900000D01*
%TO.C,J8*%
X131960000Y-110580000D02*
X131960000Y-99420000D01*
X149470000Y-99420000D02*
X131960000Y-99420000D01*
X149470000Y-99420000D02*
X149470000Y-110580000D01*
X149470000Y-110580000D02*
X131960000Y-110580000D01*
%TO.C,J10*%
X176960000Y-110580000D02*
X176960000Y-99420000D01*
X194470000Y-99420000D02*
X176960000Y-99420000D01*
X194470000Y-99420000D02*
X194470000Y-110580000D01*
X194470000Y-110580000D02*
X176960000Y-110580000D01*
%TO.C,J7*%
X116960000Y-110580000D02*
X116960000Y-99420000D01*
X134470000Y-99420000D02*
X116960000Y-99420000D01*
X134470000Y-99420000D02*
X134470000Y-110580000D01*
X134470000Y-110580000D02*
X116960000Y-110580000D01*
%TO.C,MH2*%
X199450000Y-104000000D02*
G75*
G02*
X192550000Y-104000000I-3450000J0D01*
G01*
X192550000Y-104000000D02*
G75*
G02*
X199450000Y-104000000I3450000J0D01*
G01*
%TO.C,C44*%
X139090000Y-164540000D02*
X140910000Y-164540000D01*
X139090000Y-165460000D02*
X139090000Y-164540000D01*
X140910000Y-164540000D02*
X140910000Y-165460000D01*
X140910000Y-165460000D02*
X139090000Y-165460000D01*
%TO.C,MH1*%
X107450000Y-104000000D02*
G75*
G02*
X100550000Y-104000000I-3450000J0D01*
G01*
X100550000Y-104000000D02*
G75*
G02*
X107450000Y-104000000I3450000J0D01*
G01*
%TO.C,C43*%
X134090000Y-164540000D02*
X135910000Y-164540000D01*
X134090000Y-165460000D02*
X134090000Y-164540000D01*
X135910000Y-164540000D02*
X135910000Y-165460000D01*
X135910000Y-165460000D02*
X134090000Y-165460000D01*
%TO.C,C42*%
X129090000Y-164540000D02*
X130910000Y-164540000D01*
X129090000Y-165460000D02*
X129090000Y-164540000D01*
X130910000Y-164540000D02*
X130910000Y-165460000D01*
X130910000Y-165460000D02*
X129090000Y-165460000D01*
%TO.C,C34*%
X179090000Y-159540000D02*
X180910000Y-159540000D01*
X179090000Y-160460000D02*
X179090000Y-159540000D01*
X180910000Y-159540000D02*
X180910000Y-160460000D01*
X180910000Y-160460000D02*
X179090000Y-160460000D01*
%TO.C,U11*%
X132950000Y-183300000D02*
X132950000Y-186700000D01*
X132950000Y-186700000D02*
X137050000Y-186700000D01*
X137050000Y-183300000D02*
X132950000Y-183300000D01*
X137050000Y-186700000D02*
X137050000Y-183300000D01*
%TO.C,D5b*%
X143400000Y-169050000D02*
X143400000Y-170950000D01*
X143400000Y-169050000D02*
X146600000Y-169050000D01*
X143400000Y-170950000D02*
X146600000Y-170950000D01*
X146600000Y-169050000D02*
X146600000Y-170950000D01*
%TO.C,U25*%
X128400000Y-148750000D02*
X128400000Y-151250000D01*
X128400000Y-148750000D02*
X131600000Y-148750000D01*
X128400000Y-151250000D02*
X131600000Y-151250000D01*
X131600000Y-148750000D02*
X131600000Y-151250000D01*
%TO.C,C10_d*%
X124090000Y-159540000D02*
X125910000Y-159540000D01*
X124090000Y-160460000D02*
X124090000Y-159540000D01*
X125910000Y-159540000D02*
X125910000Y-160460000D01*
X125910000Y-160460000D02*
X124090000Y-160460000D01*
%TO.C,U15*%
X111300000Y-177300000D02*
X111300000Y-182700000D01*
X111300000Y-182700000D02*
X118700000Y-182700000D01*
X118700000Y-177300000D02*
X111300000Y-177300000D01*
X118700000Y-182700000D02*
X118700000Y-177300000D01*
%TO.C,U14*%
X132950000Y-178300000D02*
X132950000Y-181700000D01*
X132950000Y-181700000D02*
X137050000Y-181700000D01*
X137050000Y-178300000D02*
X132950000Y-178300000D01*
X137050000Y-181700000D02*
X137050000Y-178300000D01*
%TO.C,C31*%
X164090000Y-159540000D02*
X165910000Y-159540000D01*
X164090000Y-160460000D02*
X164090000Y-159540000D01*
X165910000Y-159540000D02*
X165910000Y-160460000D01*
X165910000Y-160460000D02*
X164090000Y-160460000D01*
%TO.C,C1a*%
X133300000Y-159020000D02*
X136700000Y-159020000D01*
X133300000Y-160980000D02*
X133300000Y-159020000D01*
X136700000Y-159020000D02*
X136700000Y-160980000D01*
X136700000Y-160980000D02*
X133300000Y-160980000D01*
%TO.C,C10_c*%
X119090000Y-159540000D02*
X120910000Y-159540000D01*
X119090000Y-160460000D02*
X119090000Y-159540000D01*
X120910000Y-159540000D02*
X120910000Y-160460000D01*
X120910000Y-160460000D02*
X119090000Y-160460000D01*
%TO.C,C4a*%
X149090000Y-164540000D02*
X150910000Y-164540000D01*
X149090000Y-165460000D02*
X149090000Y-164540000D01*
X150910000Y-164540000D02*
X150910000Y-165460000D01*
X150910000Y-165460000D02*
X149090000Y-165460000D01*
%TO.C,C5a*%
X109090000Y-169540000D02*
X110910000Y-169540000D01*
X109090000Y-170460000D02*
X109090000Y-169540000D01*
X110910000Y-169540000D02*
X110910000Y-170460000D01*
X110910000Y-170460000D02*
X109090000Y-170460000D01*
%TO.C,C9a*%
X119090000Y-169540000D02*
X120910000Y-169540000D01*
X119090000Y-170460000D02*
X119090000Y-169540000D01*
X120910000Y-169540000D02*
X120910000Y-170460000D01*
X120910000Y-170460000D02*
X119090000Y-170460000D01*
%TO.C,C5_g*%
X194090000Y-164540000D02*
X195910000Y-164540000D01*
X194090000Y-165460000D02*
X194090000Y-164540000D01*
X195910000Y-164540000D02*
X195910000Y-165460000D01*
X195910000Y-165460000D02*
X194090000Y-165460000D01*
%TO.C,C11*%
X125600000Y-157600000D02*
X134400000Y-157600000D01*
X125600000Y-162400000D02*
X125600000Y-157600000D01*
X134400000Y-157600000D02*
X134400000Y-162400000D01*
X134400000Y-162400000D02*
X125600000Y-162400000D01*
%TO.C,C36*%
X189090000Y-159540000D02*
X190910000Y-159540000D01*
X189090000Y-160460000D02*
X189090000Y-159540000D01*
X190910000Y-159540000D02*
X190910000Y-160460000D01*
X190910000Y-160460000D02*
X189090000Y-160460000D01*
%TO.C,Y1*%
X172900000Y-133300000D02*
X172900000Y-136700000D01*
X172900000Y-136700000D02*
X177100000Y-136700000D01*
X177100000Y-133300000D02*
X172900000Y-133300000D01*
X177100000Y-136700000D02*
X177100000Y-133300000D01*
%TO.C,J11*%
X140750000Y-100750000D02*
X159250000Y-100750000D01*
X159250000Y-109250000D01*
X140750000Y-109250000D01*
X140750000Y-100750000D01*
%TO.C,C10_b*%
X114090000Y-159540000D02*
X115910000Y-159540000D01*
X114090000Y-160460000D02*
X114090000Y-159540000D01*
X115910000Y-159540000D02*
X115910000Y-160460000D01*
X115910000Y-160460000D02*
X114090000Y-160460000D01*
%TO.C,U24*%
X161150000Y-122250000D02*
X161150000Y-127750000D01*
X161150000Y-127750000D02*
X168850000Y-127750000D01*
X168850000Y-122250000D02*
X161150000Y-122250000D01*
X168850000Y-127750000D02*
X168850000Y-122250000D01*
%TO.C,SW1*%
X182600000Y-183350000D02*
X182600000Y-186650000D01*
X182600000Y-186650000D02*
X187400000Y-186650000D01*
X187400000Y-183350000D02*
X182600000Y-183350000D01*
X187400000Y-186650000D02*
X187400000Y-183350000D01*
%TO.C,U12*%
X142950000Y-183300000D02*
X142950000Y-186700000D01*
X142950000Y-186700000D02*
X147050000Y-186700000D01*
X147050000Y-183300000D02*
X142950000Y-183300000D01*
X147050000Y-186700000D02*
X147050000Y-183300000D01*
%TO.C,TP4*%
X127000000Y-195000000D02*
G75*
G02*
X125000000Y-195000000I-1000000J0D01*
G01*
X125000000Y-195000000D02*
G75*
G02*
X127000000Y-195000000I1000000J0D01*
G01*
%TO.C,D3*%
X133520000Y-169270000D02*
X136480000Y-169270000D01*
X133520000Y-170730000D02*
X133520000Y-169270000D01*
X136480000Y-169270000D02*
X136480000Y-170730000D01*
X136480000Y-170730000D02*
X133520000Y-170730000D01*
%TO.C,R5_c*%
X159070000Y-169530000D02*
X160930000Y-169530000D01*
X159070000Y-170470000D02*
X159070000Y-169530000D01*
X160930000Y-169530000D02*
X160930000Y-170470000D01*
X160930000Y-170470000D02*
X159070000Y-170470000D01*
%TO.C,C5b*%
X114090000Y-169540000D02*
X115910000Y-169540000D01*
X114090000Y-170460000D02*
X114090000Y-169540000D01*
X115910000Y-169540000D02*
X115910000Y-170460000D01*
X115910000Y-170460000D02*
X114090000Y-170460000D01*
%TO.C,C38*%
X109090000Y-164540000D02*
X110910000Y-164540000D01*
X109090000Y-165460000D02*
X109090000Y-164540000D01*
X110910000Y-164540000D02*
X110910000Y-165460000D01*
X110910000Y-165460000D02*
X109090000Y-165460000D01*
%TO.C,R1a*%
X149070000Y-169530000D02*
X150930000Y-169530000D01*
X149070000Y-170470000D02*
X149070000Y-169530000D01*
X150930000Y-169530000D02*
X150930000Y-170470000D01*
X150930000Y-170470000D02*
X149070000Y-170470000D01*
%TO.C,D2*%
X128520000Y-169270000D02*
X131480000Y-169270000D01*
X128520000Y-170730000D02*
X128520000Y-169270000D01*
X131480000Y-169270000D02*
X131480000Y-170730000D01*
X131480000Y-170730000D02*
X128520000Y-170730000D01*
%TO.C,TP6*%
X135000000Y-195000000D02*
G75*
G02*
X133000000Y-195000000I-1000000J0D01*
G01*
X133000000Y-195000000D02*
G75*
G02*
X135000000Y-195000000I1000000J0D01*
G01*
%TO.C,U20*%
X167870000Y-131370000D02*
X167870000Y-138630000D01*
X167870000Y-138630000D02*
X172130000Y-138630000D01*
X172130000Y-131370000D02*
X167870000Y-131370000D01*
X172130000Y-138630000D02*
X172130000Y-131370000D01*
%TO.C,C40*%
X119090000Y-164540000D02*
X120910000Y-164540000D01*
X119090000Y-165460000D02*
X119090000Y-164540000D01*
X120910000Y-164540000D02*
X120910000Y-165460000D01*
X120910000Y-165460000D02*
X119090000Y-165460000D01*
%TO.C,U13*%
X122950000Y-178300000D02*
X122950000Y-181700000D01*
X122950000Y-181700000D02*
X127050000Y-181700000D01*
X127050000Y-178300000D02*
X122950000Y-178300000D01*
X127050000Y-181700000D02*
X127050000Y-178300000D01*
%TO.C,MH4*%
X199450000Y-196000000D02*
G75*
G02*
X192550000Y-196000000I-3450000J0D01*
G01*
X192550000Y-196000000D02*
G75*
G02*
X199450000Y-196000000I3450000J0D01*
G01*
%TO.C,F1*%
X108320000Y-184050000D02*
X111680000Y-184050000D01*
X108320000Y-185950000D02*
X108320000Y-184050000D01*
X111680000Y-184050000D02*
X111680000Y-185950000D01*
X111680000Y-185950000D02*
X108320000Y-185950000D01*
%TO.C,C37*%
X194090000Y-159540000D02*
X195910000Y-159540000D01*
X194090000Y-160460000D02*
X194090000Y-159540000D01*
X195910000Y-159540000D02*
X195910000Y-160460000D01*
X195910000Y-160460000D02*
X194090000Y-160460000D01*
%TO.C,J1*%
X96100000Y-181500000D02*
X96100000Y-200500000D01*
X96100000Y-200500000D02*
X113900000Y-200500000D01*
X113900000Y-181500000D02*
X96100000Y-181500000D01*
X113900000Y-200500000D02*
X113900000Y-181500000D01*
%TO.C,U10*%
X142950000Y-178300000D02*
X142950000Y-181700000D01*
X142950000Y-181700000D02*
X147050000Y-181700000D01*
X147050000Y-178300000D02*
X142950000Y-178300000D01*
X147050000Y-181700000D02*
X147050000Y-178300000D01*
%TO.C,MH3*%
X107450000Y-196000000D02*
G75*
G02*
X100550000Y-196000000I-3450000J0D01*
G01*
X100550000Y-196000000D02*
G75*
G02*
X107450000Y-196000000I3450000J0D01*
G01*
%TO.C,L1*%
X108140000Y-168400000D02*
X121860000Y-168400000D01*
X108140000Y-181600000D02*
X108140000Y-168400000D01*
X121860000Y-168400000D02*
X121860000Y-181600000D01*
X121860000Y-181600000D02*
X108140000Y-181600000D01*
%TO.C,C10_a*%
X109090000Y-159540000D02*
X110910000Y-159540000D01*
X109090000Y-160460000D02*
X109090000Y-159540000D01*
X110910000Y-159540000D02*
X110910000Y-160460000D01*
X110910000Y-160460000D02*
X109090000Y-160460000D01*
%TO.C,D1*%
X123520000Y-169270000D02*
X126480000Y-169270000D01*
X123520000Y-170730000D02*
X123520000Y-169270000D01*
X126480000Y-169270000D02*
X126480000Y-170730000D01*
X126480000Y-170730000D02*
X123520000Y-170730000D01*
%TO.C,C50_2*%
X169090000Y-164540000D02*
X170910000Y-164540000D01*
X169090000Y-165460000D02*
X169090000Y-164540000D01*
X170910000Y-164540000D02*
X170910000Y-165460000D01*
X170910000Y-165460000D02*
X169090000Y-165460000D01*
%TO.C,J9*%
X161960000Y-110580000D02*
X161960000Y-99420000D01*
X179470000Y-99420000D02*
X161960000Y-99420000D01*
X179470000Y-99420000D02*
X179470000Y-110580000D01*
X179470000Y-110580000D02*
X161960000Y-110580000D01*
%TO.C,C45*%
X144090000Y-164540000D02*
X145910000Y-164540000D01*
X144090000Y-165460000D02*
X144090000Y-164540000D01*
X145910000Y-164540000D02*
X145910000Y-165460000D01*
X145910000Y-165460000D02*
X144090000Y-165460000D01*
%TO.C,C33*%
X174090000Y-159540000D02*
X175910000Y-159540000D01*
X174090000Y-160460000D02*
X174090000Y-159540000D01*
X175910000Y-159540000D02*
X175910000Y-160460000D01*
X175910000Y-160460000D02*
X174090000Y-160460000D01*
%TD*%
M02*
