%TF.GenerationSoftware,KiCad,Pcbnew,8.0.9-8.0.9-0~ubuntu22.04.1*%
%TF.CreationDate,2026-06-20T21:10:25+00:00*%
%TF.ProjectId,LightRail_Eval_Board,4c696768-7452-4616-996c-5f4576616c5f,rev?*%
%TF.SameCoordinates,Original*%
%TF.FileFunction,Copper,L13,Inr*%
%TF.FilePolarity,Positive*%
%FSLAX46Y46*%
G04 Gerber Fmt 4.6, Leading zero omitted, Abs format (unit mm)*
G04 Created by KiCad (PCBNEW 8.0.9-8.0.9-0~ubuntu22.04.1) date 2026-06-20 21:10:25*
%MOMM*%
%LPD*%
G01*
G04 APERTURE LIST*
%TA.AperFunction,ComponentPad*%
%ADD10R,1.000000X1.000000*%
%TD*%
%TA.AperFunction,ComponentPad*%
%ADD11O,1.000000X1.000000*%
%TD*%
%TA.AperFunction,ViaPad*%
%ADD12C,0.600000*%
%TD*%
G04 APERTURE END LIST*
D10*
%TO.N,+3V3*%
%TO.C,J6*%
X288000000Y-155000000D03*
D11*
%TO.N,GND*%
X288000000Y-153730000D03*
%TO.N,FPGA_GPIO0*%
X289270000Y-155000000D03*
%TO.N,FPGA_GPIO1*%
X289270000Y-153730000D03*
%TO.N,FPGA_GPIO2*%
X290540000Y-155000000D03*
%TO.N,FPGA_GPIO3*%
X290540000Y-153730000D03*
%TO.N,N/C*%
X291810000Y-155000000D03*
X291810000Y-153730000D03*
X293080000Y-155000000D03*
X293080000Y-153730000D03*
X294350000Y-155000000D03*
X294350000Y-153730000D03*
%TO.N,I2C_SCL*%
X295620000Y-155000000D03*
%TO.N,I2C_SDA*%
X295620000Y-153730000D03*
%TD*%
D10*
%TO.N,JTAG_TCK*%
%TO.C,J5*%
X288000000Y-135000000D03*
D11*
%TO.N,GND*%
X288000000Y-133730000D03*
%TO.N,JTAG_TDO*%
X289270000Y-135000000D03*
%TO.N,+3V3*%
X289270000Y-133730000D03*
%TO.N,JTAG_TMS*%
X290540000Y-135000000D03*
%TO.N,GND*%
X290540000Y-133730000D03*
%TO.N,N/C*%
X291810000Y-135000000D03*
X291810000Y-133730000D03*
%TO.N,JTAG_TDI*%
X293080000Y-135000000D03*
%TO.N,JTAG_TRST*%
X293080000Y-133730000D03*
%TD*%
D12*
%TO.N,+0V9*%
X250500000Y-171000000D03*
X228000000Y-135800000D03*
X167500000Y-219000000D03*
X228000000Y-139000000D03*
X194500000Y-171000000D03*
X197500000Y-171000000D03*
X158000000Y-135800000D03*
X201500000Y-171000000D03*
X158000000Y-139000000D03*
X189300000Y-169200000D03*
X185300000Y-207200000D03*
%TO.N,+12V*%
X124800000Y-202200000D03*
X117500000Y-219000000D03*
X126500000Y-204400000D03*
X134400000Y-200000000D03*
X126500000Y-205600000D03*
X123400000Y-210000000D03*
%TO.N,+1V0*%
X157500000Y-219000000D03*
X202300000Y-113200000D03*
X195300000Y-207200000D03*
X207500000Y-115000000D03*
X189300000Y-113200000D03*
X245300000Y-166800000D03*
X196600000Y-151000000D03*
X190500000Y-156000000D03*
X194500000Y-115000000D03*
%TO.N,+1V8*%
X207500000Y-171000000D03*
X189300000Y-154200000D03*
X185300000Y-120000000D03*
X147200000Y-203000000D03*
X204500000Y-171000000D03*
X175300000Y-207200000D03*
X144200000Y-203000000D03*
X189700000Y-202800000D03*
X198200000Y-151000000D03*
X188700000Y-202800000D03*
X147500000Y-219000000D03*
X225500000Y-149900000D03*
X167300000Y-201200000D03*
X223300000Y-145200000D03*
X164600000Y-142000000D03*
X228500000Y-141000000D03*
X177900000Y-206800000D03*
X228000000Y-138000000D03*
X157300000Y-201200000D03*
X207500000Y-150000000D03*
X177900000Y-204100000D03*
X244500000Y-185000000D03*
X234500000Y-147000000D03*
X177300000Y-201200000D03*
X195600000Y-151000000D03*
X149500000Y-197000000D03*
X158000000Y-138000000D03*
X165300000Y-207200000D03*
%TO.N,+3V3*%
X247500000Y-185000000D03*
X223900000Y-111700000D03*
X288000000Y-158000000D03*
X253500000Y-185000000D03*
X218900000Y-164200000D03*
X112300000Y-186200000D03*
X176100000Y-110600000D03*
X242300000Y-148000000D03*
X223900000Y-112800000D03*
X167900000Y-204100000D03*
X289300000Y-130699999D03*
X177800000Y-108000000D03*
X215100000Y-107900000D03*
X167900000Y-206800000D03*
X240200000Y-148000000D03*
X157900000Y-206800000D03*
X155300000Y-207200000D03*
X221900000Y-167800000D03*
X187900000Y-111400000D03*
X213800000Y-107500000D03*
X230200000Y-156000000D03*
X250500000Y-185000000D03*
X137500000Y-219000000D03*
X256500000Y-185000000D03*
X141200000Y-203000000D03*
X239300000Y-183200000D03*
X239600000Y-174400000D03*
X229300000Y-169200000D03*
X154100000Y-149200000D03*
X157900000Y-204100000D03*
X225500000Y-147800000D03*
X239600000Y-173100000D03*
X214100000Y-168200000D03*
%TO.N,+5V*%
X147900000Y-206800000D03*
X145400000Y-212000000D03*
X127500000Y-219000000D03*
X147900000Y-204100000D03*
X129100000Y-197000000D03*
%TO.N,GND*%
X180900000Y-206100000D03*
X232800000Y-141000000D03*
X120000000Y-93000000D03*
X229800000Y-149000000D03*
X162800000Y-141000000D03*
X272000000Y-163000000D03*
X272000000Y-128000000D03*
X165000000Y-217000000D03*
X120000000Y-163000000D03*
X147200000Y-202000000D03*
X201500000Y-170000000D03*
X162000000Y-141000000D03*
X234000000Y-93000000D03*
X187800000Y-122000000D03*
X232000000Y-141000000D03*
X120000000Y-128000000D03*
X163200000Y-141000000D03*
X233200000Y-141000000D03*
X149500000Y-202000000D03*
X158000000Y-163000000D03*
X272000000Y-93000000D03*
X158000000Y-93000000D03*
X129500000Y-206400000D03*
X197500000Y-170000000D03*
X234000000Y-198000000D03*
X191500000Y-170000000D03*
X196000000Y-93000000D03*
X234500000Y-146000000D03*
X169500000Y-202000000D03*
X173100000Y-207900000D03*
X232400000Y-141000000D03*
X183100000Y-207900000D03*
X162400000Y-141000000D03*
X231500000Y-146000000D03*
X194500000Y-170000000D03*
X225500000Y-146000000D03*
X207500000Y-155000000D03*
X145000000Y-217000000D03*
X272000000Y-198000000D03*
X207500000Y-170000000D03*
X250500000Y-170000000D03*
X190900000Y-207000000D03*
%TO.N,JTAG_TDO*%
X289300000Y-135700000D03*
%TO.N,NR_3V3*%
X150900000Y-206100000D03*
%TD*%
%TA.AperFunction,Conductor*%
%TO.N,+1V8*%
G36*
X294293068Y-78019685D02*
G01*
X294338823Y-78072489D01*
X294348767Y-78141647D01*
X294338135Y-78175957D01*
X294338329Y-78176038D01*
X294337463Y-78178128D01*
X294337242Y-78178842D01*
X294336776Y-78179785D01*
X294243947Y-78403895D01*
X294181161Y-78638214D01*
X294149500Y-78878711D01*
X294149500Y-79121288D01*
X294181161Y-79361785D01*
X294243947Y-79596104D01*
X294336773Y-79820205D01*
X294336776Y-79820212D01*
X294458064Y-80030289D01*
X294458066Y-80030292D01*
X294458067Y-80030293D01*
X294605733Y-80222736D01*
X294605739Y-80222743D01*
X294777256Y-80394260D01*
X294777262Y-80394265D01*
X294969711Y-80541936D01*
X295179788Y-80663224D01*
X295403900Y-80756054D01*
X295638211Y-80818838D01*
X295818586Y-80842584D01*
X295878711Y-80850500D01*
X295878712Y-80850500D01*
X296121289Y-80850500D01*
X296169388Y-80844167D01*
X296361789Y-80818838D01*
X296596100Y-80756054D01*
X296820212Y-80663224D01*
X296820223Y-80663217D01*
X296821138Y-80662767D01*
X296821445Y-80662713D01*
X296823962Y-80661671D01*
X296824195Y-80662233D01*
X296889968Y-80650759D01*
X296954364Y-80677870D01*
X296993879Y-80735492D01*
X297000000Y-80773970D01*
X297000000Y-219226029D01*
X296980315Y-219293068D01*
X296927511Y-219338823D01*
X296858353Y-219348767D01*
X296824042Y-219338135D01*
X296823962Y-219338329D01*
X296821871Y-219337463D01*
X296821158Y-219337242D01*
X296820214Y-219336776D01*
X296596104Y-219243947D01*
X296361785Y-219181161D01*
X296121289Y-219149500D01*
X296121288Y-219149500D01*
X295878712Y-219149500D01*
X295878711Y-219149500D01*
X295638214Y-219181161D01*
X295403895Y-219243947D01*
X295179794Y-219336773D01*
X295179785Y-219336777D01*
X294969706Y-219458067D01*
X294777263Y-219605733D01*
X294777256Y-219605739D01*
X294605739Y-219777256D01*
X294605733Y-219777263D01*
X294458067Y-219969706D01*
X294336777Y-220179785D01*
X294336773Y-220179794D01*
X294243947Y-220403895D01*
X294181161Y-220638214D01*
X294149500Y-220878711D01*
X294149500Y-221121288D01*
X294181161Y-221361785D01*
X294243947Y-221596104D01*
X294336776Y-221820214D01*
X294337242Y-221821158D01*
X294337296Y-221821468D01*
X294338329Y-221823962D01*
X294337770Y-221824193D01*
X294349237Y-221889990D01*
X294322115Y-221954380D01*
X294264486Y-221993886D01*
X294226029Y-222000000D01*
X105773971Y-222000000D01*
X105706932Y-221980315D01*
X105661177Y-221927511D01*
X105651233Y-221858353D01*
X105661864Y-221824042D01*
X105661671Y-221823962D01*
X105662536Y-221821871D01*
X105662758Y-221821158D01*
X105663223Y-221820214D01*
X105756052Y-221596104D01*
X105756054Y-221596100D01*
X105818838Y-221361789D01*
X105850500Y-221121288D01*
X105850500Y-220878712D01*
X105818838Y-220638211D01*
X105756054Y-220403900D01*
X105663224Y-220179788D01*
X105541936Y-219969711D01*
X105394265Y-219777262D01*
X105394260Y-219777256D01*
X105222743Y-219605739D01*
X105222736Y-219605733D01*
X105030293Y-219458067D01*
X105030292Y-219458066D01*
X105030289Y-219458064D01*
X104858661Y-219358974D01*
X104820214Y-219336777D01*
X104820205Y-219336773D01*
X104596104Y-219243947D01*
X104361785Y-219181161D01*
X104121289Y-219149500D01*
X104121288Y-219149500D01*
X103878712Y-219149500D01*
X103878711Y-219149500D01*
X103638214Y-219181161D01*
X103403895Y-219243947D01*
X103179785Y-219336776D01*
X103178842Y-219337242D01*
X103178531Y-219337296D01*
X103176038Y-219338329D01*
X103175806Y-219337770D01*
X103110010Y-219349237D01*
X103045620Y-219322115D01*
X103006114Y-219264486D01*
X103000000Y-219226029D01*
X103000000Y-218999996D01*
X116694435Y-218999996D01*
X116694435Y-219000003D01*
X116714630Y-219179249D01*
X116714631Y-219179254D01*
X116774211Y-219349523D01*
X116842414Y-219458067D01*
X116870184Y-219502262D01*
X116997738Y-219629816D01*
X117150478Y-219725789D01*
X117297562Y-219777256D01*
X117320745Y-219785368D01*
X117320750Y-219785369D01*
X117499996Y-219805565D01*
X117500000Y-219805565D01*
X117500004Y-219805565D01*
X117679249Y-219785369D01*
X117679252Y-219785368D01*
X117679255Y-219785368D01*
X117849522Y-219725789D01*
X118002262Y-219629816D01*
X118129816Y-219502262D01*
X118225789Y-219349522D01*
X118285368Y-219179255D01*
X118305565Y-219000000D01*
X118305565Y-218999996D01*
X126694435Y-218999996D01*
X126694435Y-219000003D01*
X126714630Y-219179249D01*
X126714631Y-219179254D01*
X126774211Y-219349523D01*
X126842414Y-219458067D01*
X126870184Y-219502262D01*
X126997738Y-219629816D01*
X127150478Y-219725789D01*
X127297562Y-219777256D01*
X127320745Y-219785368D01*
X127320750Y-219785369D01*
X127499996Y-219805565D01*
X127500000Y-219805565D01*
X127500004Y-219805565D01*
X127679249Y-219785369D01*
X127679252Y-219785368D01*
X127679255Y-219785368D01*
X127849522Y-219725789D01*
X128002262Y-219629816D01*
X128129816Y-219502262D01*
X128225789Y-219349522D01*
X128285368Y-219179255D01*
X128305565Y-219000000D01*
X128305565Y-218999996D01*
X136694435Y-218999996D01*
X136694435Y-219000003D01*
X136714630Y-219179249D01*
X136714631Y-219179254D01*
X136774211Y-219349523D01*
X136842414Y-219458067D01*
X136870184Y-219502262D01*
X136997738Y-219629816D01*
X137150478Y-219725789D01*
X137297562Y-219777256D01*
X137320745Y-219785368D01*
X137320750Y-219785369D01*
X137499996Y-219805565D01*
X137500000Y-219805565D01*
X137500004Y-219805565D01*
X137679249Y-219785369D01*
X137679252Y-219785368D01*
X137679255Y-219785368D01*
X137849522Y-219725789D01*
X138002262Y-219629816D01*
X138129816Y-219502262D01*
X138225789Y-219349522D01*
X138285368Y-219179255D01*
X138305565Y-219000000D01*
X138305565Y-218999996D01*
X156694435Y-218999996D01*
X156694435Y-219000003D01*
X156714630Y-219179249D01*
X156714631Y-219179254D01*
X156774211Y-219349523D01*
X156842414Y-219458067D01*
X156870184Y-219502262D01*
X156997738Y-219629816D01*
X157150478Y-219725789D01*
X157297562Y-219777256D01*
X157320745Y-219785368D01*
X157320750Y-219785369D01*
X157499996Y-219805565D01*
X157500000Y-219805565D01*
X157500004Y-219805565D01*
X157679249Y-219785369D01*
X157679252Y-219785368D01*
X157679255Y-219785368D01*
X157849522Y-219725789D01*
X158002262Y-219629816D01*
X158129816Y-219502262D01*
X158225789Y-219349522D01*
X158285368Y-219179255D01*
X158305565Y-219000000D01*
X158305565Y-218999996D01*
X166694435Y-218999996D01*
X166694435Y-219000003D01*
X166714630Y-219179249D01*
X166714631Y-219179254D01*
X166774211Y-219349523D01*
X166842414Y-219458067D01*
X166870184Y-219502262D01*
X166997738Y-219629816D01*
X167150478Y-219725789D01*
X167297562Y-219777256D01*
X167320745Y-219785368D01*
X167320750Y-219785369D01*
X167499996Y-219805565D01*
X167500000Y-219805565D01*
X167500004Y-219805565D01*
X167679249Y-219785369D01*
X167679252Y-219785368D01*
X167679255Y-219785368D01*
X167849522Y-219725789D01*
X168002262Y-219629816D01*
X168129816Y-219502262D01*
X168225789Y-219349522D01*
X168285368Y-219179255D01*
X168305565Y-219000000D01*
X168285368Y-218820745D01*
X168225789Y-218650478D01*
X168129816Y-218497738D01*
X168002262Y-218370184D01*
X167849523Y-218274211D01*
X167679254Y-218214631D01*
X167679249Y-218214630D01*
X167500004Y-218194435D01*
X167499996Y-218194435D01*
X167320750Y-218214630D01*
X167320745Y-218214631D01*
X167150476Y-218274211D01*
X166997737Y-218370184D01*
X166870184Y-218497737D01*
X166774211Y-218650476D01*
X166714631Y-218820745D01*
X166714630Y-218820750D01*
X166694435Y-218999996D01*
X158305565Y-218999996D01*
X158285368Y-218820745D01*
X158225789Y-218650478D01*
X158129816Y-218497738D01*
X158002262Y-218370184D01*
X157849523Y-218274211D01*
X157679254Y-218214631D01*
X157679249Y-218214630D01*
X157500004Y-218194435D01*
X157499996Y-218194435D01*
X157320750Y-218214630D01*
X157320745Y-218214631D01*
X157150476Y-218274211D01*
X156997737Y-218370184D01*
X156870184Y-218497737D01*
X156774211Y-218650476D01*
X156714631Y-218820745D01*
X156714630Y-218820750D01*
X156694435Y-218999996D01*
X138305565Y-218999996D01*
X138285368Y-218820745D01*
X138225789Y-218650478D01*
X138129816Y-218497738D01*
X138002262Y-218370184D01*
X137849523Y-218274211D01*
X137679254Y-218214631D01*
X137679249Y-218214630D01*
X137500004Y-218194435D01*
X137499996Y-218194435D01*
X137320750Y-218214630D01*
X137320745Y-218214631D01*
X137150476Y-218274211D01*
X136997737Y-218370184D01*
X136870184Y-218497737D01*
X136774211Y-218650476D01*
X136714631Y-218820745D01*
X136714630Y-218820750D01*
X136694435Y-218999996D01*
X128305565Y-218999996D01*
X128285368Y-218820745D01*
X128225789Y-218650478D01*
X128129816Y-218497738D01*
X128002262Y-218370184D01*
X127849523Y-218274211D01*
X127679254Y-218214631D01*
X127679249Y-218214630D01*
X127500004Y-218194435D01*
X127499996Y-218194435D01*
X127320750Y-218214630D01*
X127320745Y-218214631D01*
X127150476Y-218274211D01*
X126997737Y-218370184D01*
X126870184Y-218497737D01*
X126774211Y-218650476D01*
X126714631Y-218820745D01*
X126714630Y-218820750D01*
X126694435Y-218999996D01*
X118305565Y-218999996D01*
X118285368Y-218820745D01*
X118225789Y-218650478D01*
X118129816Y-218497738D01*
X118002262Y-218370184D01*
X117849523Y-218274211D01*
X117679254Y-218214631D01*
X117679249Y-218214630D01*
X117500004Y-218194435D01*
X117499996Y-218194435D01*
X117320750Y-218214630D01*
X117320745Y-218214631D01*
X117150476Y-218274211D01*
X116997737Y-218370184D01*
X116870184Y-218497737D01*
X116774211Y-218650476D01*
X116714631Y-218820745D01*
X116714630Y-218820750D01*
X116694435Y-218999996D01*
X103000000Y-218999996D01*
X103000000Y-216901577D01*
X108749500Y-216901577D01*
X108749500Y-217098422D01*
X108780290Y-217292826D01*
X108841117Y-217480029D01*
X108917437Y-217629815D01*
X108930476Y-217655405D01*
X109046172Y-217814646D01*
X109185354Y-217953828D01*
X109344595Y-218069524D01*
X109427455Y-218111743D01*
X109519970Y-218158882D01*
X109519972Y-218158882D01*
X109519975Y-218158884D01*
X109620317Y-218191487D01*
X109707173Y-218219709D01*
X109901578Y-218250500D01*
X109901583Y-218250500D01*
X110098422Y-218250500D01*
X110292826Y-218219709D01*
X110308457Y-218214630D01*
X110480025Y-218158884D01*
X110655405Y-218069524D01*
X110814646Y-217953828D01*
X110953828Y-217814646D01*
X111069524Y-217655405D01*
X111158884Y-217480025D01*
X111219709Y-217292826D01*
X111237698Y-217179249D01*
X111250500Y-217098422D01*
X111250500Y-216999996D01*
X144194435Y-216999996D01*
X144194435Y-217000003D01*
X144214630Y-217179249D01*
X144214631Y-217179254D01*
X144274211Y-217349523D01*
X144356214Y-217480029D01*
X144370184Y-217502262D01*
X144497738Y-217629816D01*
X144650478Y-217725789D01*
X144820745Y-217785368D01*
X144820750Y-217785369D01*
X144999996Y-217805565D01*
X145000000Y-217805565D01*
X145000004Y-217805565D01*
X145179249Y-217785369D01*
X145179252Y-217785368D01*
X145179255Y-217785368D01*
X145349522Y-217725789D01*
X145502262Y-217629816D01*
X145629816Y-217502262D01*
X145725789Y-217349522D01*
X145785368Y-217179255D01*
X145794476Y-217098422D01*
X145805565Y-217000003D01*
X145805565Y-216999996D01*
X164194435Y-216999996D01*
X164194435Y-217000003D01*
X164214630Y-217179249D01*
X164214631Y-217179254D01*
X164274211Y-217349523D01*
X164356214Y-217480029D01*
X164370184Y-217502262D01*
X164497738Y-217629816D01*
X164650478Y-217725789D01*
X164820745Y-217785368D01*
X164820750Y-217785369D01*
X164999996Y-217805565D01*
X165000000Y-217805565D01*
X165000004Y-217805565D01*
X165179249Y-217785369D01*
X165179252Y-217785368D01*
X165179255Y-217785368D01*
X165349522Y-217725789D01*
X165502262Y-217629816D01*
X165629816Y-217502262D01*
X165725789Y-217349522D01*
X165785368Y-217179255D01*
X165794476Y-217098422D01*
X165805565Y-217000003D01*
X165805565Y-216999996D01*
X165785369Y-216820750D01*
X165785368Y-216820745D01*
X165725788Y-216650476D01*
X165629815Y-216497737D01*
X165502262Y-216370184D01*
X165349523Y-216274211D01*
X165179254Y-216214631D01*
X165179249Y-216214630D01*
X165000004Y-216194435D01*
X164999996Y-216194435D01*
X164820750Y-216214630D01*
X164820745Y-216214631D01*
X164650476Y-216274211D01*
X164497737Y-216370184D01*
X164370184Y-216497737D01*
X164274211Y-216650476D01*
X164214631Y-216820745D01*
X164214630Y-216820750D01*
X164194435Y-216999996D01*
X145805565Y-216999996D01*
X145785369Y-216820750D01*
X145785368Y-216820745D01*
X145725788Y-216650476D01*
X145629815Y-216497737D01*
X145502262Y-216370184D01*
X145349523Y-216274211D01*
X145179254Y-216214631D01*
X145179249Y-216214630D01*
X145000004Y-216194435D01*
X144999996Y-216194435D01*
X144820750Y-216214630D01*
X144820745Y-216214631D01*
X144650476Y-216274211D01*
X144497737Y-216370184D01*
X144370184Y-216497737D01*
X144274211Y-216650476D01*
X144214631Y-216820745D01*
X144214630Y-216820750D01*
X144194435Y-216999996D01*
X111250500Y-216999996D01*
X111250500Y-216901577D01*
X111219709Y-216707173D01*
X111158882Y-216519970D01*
X111069523Y-216344594D01*
X110953828Y-216185354D01*
X110814646Y-216046172D01*
X110655405Y-215930476D01*
X110480029Y-215841117D01*
X110292826Y-215780290D01*
X110098422Y-215749500D01*
X110098417Y-215749500D01*
X109901583Y-215749500D01*
X109901578Y-215749500D01*
X109707173Y-215780290D01*
X109519970Y-215841117D01*
X109344594Y-215930476D01*
X109253741Y-215996485D01*
X109185354Y-216046172D01*
X109185352Y-216046174D01*
X109185351Y-216046174D01*
X109046174Y-216185351D01*
X109046174Y-216185352D01*
X109046172Y-216185354D01*
X109024902Y-216214630D01*
X108930476Y-216344594D01*
X108841117Y-216519970D01*
X108780290Y-216707173D01*
X108749500Y-216901577D01*
X103000000Y-216901577D01*
X103000000Y-211999996D01*
X144594435Y-211999996D01*
X144594435Y-212000003D01*
X144614630Y-212179249D01*
X144614631Y-212179254D01*
X144674211Y-212349523D01*
X144770184Y-212502262D01*
X144897738Y-212629816D01*
X145050478Y-212725789D01*
X145220745Y-212785368D01*
X145220750Y-212785369D01*
X145399996Y-212805565D01*
X145400000Y-212805565D01*
X145400004Y-212805565D01*
X145579249Y-212785369D01*
X145579252Y-212785368D01*
X145579255Y-212785368D01*
X145749522Y-212725789D01*
X145902262Y-212629816D01*
X146029816Y-212502262D01*
X146125789Y-212349522D01*
X146185368Y-212179255D01*
X146205565Y-212000000D01*
X146185368Y-211820745D01*
X146125789Y-211650478D01*
X146029816Y-211497738D01*
X145902262Y-211370184D01*
X145749523Y-211274211D01*
X145579254Y-211214631D01*
X145579249Y-211214630D01*
X145400004Y-211194435D01*
X145399996Y-211194435D01*
X145220750Y-211214630D01*
X145220745Y-211214631D01*
X145050476Y-211274211D01*
X144897737Y-211370184D01*
X144770184Y-211497737D01*
X144674211Y-211650476D01*
X144614631Y-211820745D01*
X144614630Y-211820750D01*
X144594435Y-211999996D01*
X103000000Y-211999996D01*
X103000000Y-209999996D01*
X122594435Y-209999996D01*
X122594435Y-210000003D01*
X122614630Y-210179249D01*
X122614631Y-210179254D01*
X122674211Y-210349523D01*
X122770184Y-210502262D01*
X122897738Y-210629816D01*
X123050478Y-210725789D01*
X123220745Y-210785368D01*
X123220750Y-210785369D01*
X123399996Y-210805565D01*
X123400000Y-210805565D01*
X123400004Y-210805565D01*
X123579249Y-210785369D01*
X123579252Y-210785368D01*
X123579255Y-210785368D01*
X123749522Y-210725789D01*
X123902262Y-210629816D01*
X124029816Y-210502262D01*
X124125789Y-210349522D01*
X124185368Y-210179255D01*
X124205565Y-210000000D01*
X124185368Y-209820745D01*
X124125789Y-209650478D01*
X124029816Y-209497738D01*
X123902262Y-209370184D01*
X123749523Y-209274211D01*
X123579254Y-209214631D01*
X123579249Y-209214630D01*
X123400004Y-209194435D01*
X123399996Y-209194435D01*
X123220750Y-209214630D01*
X123220745Y-209214631D01*
X123050476Y-209274211D01*
X122897737Y-209370184D01*
X122770184Y-209497737D01*
X122674211Y-209650476D01*
X122614631Y-209820745D01*
X122614630Y-209820750D01*
X122594435Y-209999996D01*
X103000000Y-209999996D01*
X103000000Y-204399996D01*
X125694435Y-204399996D01*
X125694435Y-204400003D01*
X125714630Y-204579249D01*
X125714631Y-204579254D01*
X125774211Y-204749523D01*
X125870184Y-204902262D01*
X125880241Y-204912319D01*
X125913726Y-204973642D01*
X125908742Y-205043334D01*
X125880241Y-205087681D01*
X125870184Y-205097737D01*
X125774211Y-205250476D01*
X125714631Y-205420745D01*
X125714630Y-205420750D01*
X125694435Y-205599996D01*
X125694435Y-205600003D01*
X125714630Y-205779249D01*
X125714631Y-205779254D01*
X125774211Y-205949523D01*
X125837646Y-206050478D01*
X125870184Y-206102262D01*
X125997738Y-206229816D01*
X126068392Y-206274211D01*
X126105833Y-206297737D01*
X126150478Y-206325789D01*
X126277352Y-206370184D01*
X126320745Y-206385368D01*
X126320750Y-206385369D01*
X126499996Y-206405565D01*
X126500000Y-206405565D01*
X126500004Y-206405565D01*
X126549430Y-206399996D01*
X128694435Y-206399996D01*
X128694435Y-206400003D01*
X128714630Y-206579249D01*
X128714631Y-206579254D01*
X128774211Y-206749523D01*
X128837646Y-206850478D01*
X128870184Y-206902262D01*
X128997738Y-207029816D01*
X129088080Y-207086582D01*
X129132721Y-207114632D01*
X129150478Y-207125789D01*
X129218306Y-207149523D01*
X129320745Y-207185368D01*
X129320750Y-207185369D01*
X129499996Y-207205565D01*
X129500000Y-207205565D01*
X129500004Y-207205565D01*
X129679249Y-207185369D01*
X129679252Y-207185368D01*
X129679255Y-207185368D01*
X129849522Y-207125789D01*
X130002262Y-207029816D01*
X130129816Y-206902262D01*
X130194074Y-206799996D01*
X147094435Y-206799996D01*
X147094435Y-206800003D01*
X147114630Y-206979249D01*
X147114631Y-206979254D01*
X147174211Y-207149523D01*
X147196735Y-207185369D01*
X147270184Y-207302262D01*
X147397738Y-207429816D01*
X147550478Y-207525789D01*
X147720745Y-207585368D01*
X147720750Y-207585369D01*
X147899996Y-207605565D01*
X147900000Y-207605565D01*
X147900004Y-207605565D01*
X148079249Y-207585369D01*
X148079252Y-207585368D01*
X148079255Y-207585368D01*
X148249522Y-207525789D01*
X148402262Y-207429816D01*
X148529816Y-207302262D01*
X148594074Y-207199996D01*
X154494435Y-207199996D01*
X154494435Y-207200003D01*
X154514630Y-207379249D01*
X154514631Y-207379254D01*
X154574211Y-207549523D01*
X154596735Y-207585369D01*
X154670184Y-207702262D01*
X154797738Y-207829816D01*
X154950478Y-207925789D01*
X155120745Y-207985368D01*
X155120750Y-207985369D01*
X155299996Y-208005565D01*
X155300000Y-208005565D01*
X155300004Y-208005565D01*
X155479249Y-207985369D01*
X155479252Y-207985368D01*
X155479255Y-207985368D01*
X155649522Y-207925789D01*
X155690571Y-207899996D01*
X172294435Y-207899996D01*
X172294435Y-207900003D01*
X172314630Y-208079249D01*
X172314631Y-208079254D01*
X172374211Y-208249523D01*
X172470184Y-208402262D01*
X172597738Y-208529816D01*
X172750478Y-208625789D01*
X172920745Y-208685368D01*
X172920750Y-208685369D01*
X173099996Y-208705565D01*
X173100000Y-208705565D01*
X173100004Y-208705565D01*
X173279249Y-208685369D01*
X173279252Y-208685368D01*
X173279255Y-208685368D01*
X173449522Y-208625789D01*
X173602262Y-208529816D01*
X173729816Y-208402262D01*
X173825789Y-208249522D01*
X173885368Y-208079255D01*
X173893671Y-208005565D01*
X173905565Y-207900003D01*
X173905565Y-207899996D01*
X182294435Y-207899996D01*
X182294435Y-207900003D01*
X182314630Y-208079249D01*
X182314631Y-208079254D01*
X182374211Y-208249523D01*
X182470184Y-208402262D01*
X182597738Y-208529816D01*
X182750478Y-208625789D01*
X182920745Y-208685368D01*
X182920750Y-208685369D01*
X183099996Y-208705565D01*
X183100000Y-208705565D01*
X183100004Y-208705565D01*
X183279249Y-208685369D01*
X183279252Y-208685368D01*
X183279255Y-208685368D01*
X183449522Y-208625789D01*
X183602262Y-208529816D01*
X183729816Y-208402262D01*
X183825789Y-208249522D01*
X183885368Y-208079255D01*
X183893671Y-208005565D01*
X183905565Y-207900003D01*
X183905565Y-207899996D01*
X183885369Y-207720750D01*
X183885368Y-207720745D01*
X183825789Y-207550478D01*
X183825188Y-207549522D01*
X183729815Y-207397737D01*
X183602262Y-207270184D01*
X183490559Y-207199996D01*
X184494435Y-207199996D01*
X184494435Y-207200003D01*
X184514630Y-207379249D01*
X184514631Y-207379254D01*
X184574211Y-207549523D01*
X184596735Y-207585369D01*
X184670184Y-207702262D01*
X184797738Y-207829816D01*
X184950478Y-207925789D01*
X185120745Y-207985368D01*
X185120750Y-207985369D01*
X185299996Y-208005565D01*
X185300000Y-208005565D01*
X185300004Y-208005565D01*
X185479249Y-207985369D01*
X185479252Y-207985368D01*
X185479255Y-207985368D01*
X185649522Y-207925789D01*
X185802262Y-207829816D01*
X185929816Y-207702262D01*
X186025789Y-207549522D01*
X186085368Y-207379255D01*
X186094043Y-207302262D01*
X186105565Y-207200003D01*
X186105565Y-207199996D01*
X186085369Y-207020750D01*
X186085368Y-207020745D01*
X186078108Y-206999996D01*
X190094435Y-206999996D01*
X190094435Y-207000003D01*
X190114630Y-207179249D01*
X190114631Y-207179254D01*
X190174211Y-207349523D01*
X190204507Y-207397738D01*
X190270184Y-207502262D01*
X190397738Y-207629816D01*
X190488080Y-207686582D01*
X190542450Y-207720745D01*
X190550478Y-207725789D01*
X190720745Y-207785368D01*
X190720750Y-207785369D01*
X190899996Y-207805565D01*
X190900000Y-207805565D01*
X190900004Y-207805565D01*
X191079249Y-207785369D01*
X191079252Y-207785368D01*
X191079255Y-207785368D01*
X191249522Y-207725789D01*
X191402262Y-207629816D01*
X191529816Y-207502262D01*
X191625789Y-207349522D01*
X191678110Y-207199996D01*
X194494435Y-207199996D01*
X194494435Y-207200003D01*
X194514630Y-207379249D01*
X194514631Y-207379254D01*
X194574211Y-207549523D01*
X194596735Y-207585369D01*
X194670184Y-207702262D01*
X194797738Y-207829816D01*
X194950478Y-207925789D01*
X195120745Y-207985368D01*
X195120750Y-207985369D01*
X195299996Y-208005565D01*
X195300000Y-208005565D01*
X195300004Y-208005565D01*
X195479249Y-207985369D01*
X195479252Y-207985368D01*
X195479255Y-207985368D01*
X195649522Y-207925789D01*
X195802262Y-207829816D01*
X195929816Y-207702262D01*
X196025789Y-207549522D01*
X196085368Y-207379255D01*
X196094043Y-207302262D01*
X196105565Y-207200003D01*
X196105565Y-207199996D01*
X196085369Y-207020750D01*
X196085368Y-207020745D01*
X196037998Y-206885369D01*
X196025789Y-206850478D01*
X196007106Y-206820745D01*
X195929815Y-206697737D01*
X195802262Y-206570184D01*
X195649523Y-206474211D01*
X195479254Y-206414631D01*
X195479249Y-206414630D01*
X195300004Y-206394435D01*
X195299996Y-206394435D01*
X195120750Y-206414630D01*
X195120745Y-206414631D01*
X194950476Y-206474211D01*
X194797737Y-206570184D01*
X194670184Y-206697737D01*
X194574211Y-206850476D01*
X194514631Y-207020745D01*
X194514630Y-207020750D01*
X194494435Y-207199996D01*
X191678110Y-207199996D01*
X191685368Y-207179255D01*
X191685369Y-207179249D01*
X191705565Y-207000003D01*
X191705565Y-206999996D01*
X191685369Y-206820750D01*
X191685368Y-206820745D01*
X191660446Y-206749522D01*
X191625789Y-206650478D01*
X191607106Y-206620745D01*
X191529815Y-206497737D01*
X191402262Y-206370184D01*
X191249523Y-206274211D01*
X191079254Y-206214631D01*
X191079249Y-206214630D01*
X190900004Y-206194435D01*
X190899996Y-206194435D01*
X190720750Y-206214630D01*
X190720745Y-206214631D01*
X190550476Y-206274211D01*
X190397737Y-206370184D01*
X190270184Y-206497737D01*
X190174211Y-206650476D01*
X190114631Y-206820745D01*
X190114630Y-206820750D01*
X190094435Y-206999996D01*
X186078108Y-206999996D01*
X186037998Y-206885369D01*
X186025789Y-206850478D01*
X186007106Y-206820745D01*
X185929815Y-206697737D01*
X185802262Y-206570184D01*
X185649523Y-206474211D01*
X185479254Y-206414631D01*
X185479249Y-206414630D01*
X185300004Y-206394435D01*
X185299996Y-206394435D01*
X185120750Y-206414630D01*
X185120745Y-206414631D01*
X184950476Y-206474211D01*
X184797737Y-206570184D01*
X184670184Y-206697737D01*
X184574211Y-206850476D01*
X184514631Y-207020745D01*
X184514630Y-207020750D01*
X184494435Y-207199996D01*
X183490559Y-207199996D01*
X183449523Y-207174211D01*
X183279254Y-207114631D01*
X183279249Y-207114630D01*
X183100004Y-207094435D01*
X183099996Y-207094435D01*
X182920750Y-207114630D01*
X182920745Y-207114631D01*
X182750476Y-207174211D01*
X182597737Y-207270184D01*
X182470184Y-207397737D01*
X182374211Y-207550476D01*
X182314631Y-207720745D01*
X182314630Y-207720750D01*
X182294435Y-207899996D01*
X173905565Y-207899996D01*
X173885369Y-207720750D01*
X173885368Y-207720745D01*
X173825789Y-207550478D01*
X173825188Y-207549522D01*
X173729815Y-207397737D01*
X173602262Y-207270184D01*
X173449523Y-207174211D01*
X173279254Y-207114631D01*
X173279249Y-207114630D01*
X173100004Y-207094435D01*
X173099996Y-207094435D01*
X172920750Y-207114630D01*
X172920745Y-207114631D01*
X172750476Y-207174211D01*
X172597737Y-207270184D01*
X172470184Y-207397737D01*
X172374211Y-207550476D01*
X172314631Y-207720745D01*
X172314630Y-207720750D01*
X172294435Y-207899996D01*
X155690571Y-207899996D01*
X155802262Y-207829816D01*
X155929816Y-207702262D01*
X156025789Y-207549522D01*
X156085368Y-207379255D01*
X156094043Y-207302262D01*
X156105565Y-207200003D01*
X156105565Y-207199996D01*
X156085369Y-207020750D01*
X156085368Y-207020745D01*
X156037998Y-206885369D01*
X156025789Y-206850478D01*
X156007106Y-206820745D01*
X155994069Y-206799996D01*
X157094435Y-206799996D01*
X157094435Y-206800003D01*
X157114630Y-206979249D01*
X157114631Y-206979254D01*
X157174211Y-207149523D01*
X157196735Y-207185369D01*
X157270184Y-207302262D01*
X157397738Y-207429816D01*
X157550478Y-207525789D01*
X157720745Y-207585368D01*
X157720750Y-207585369D01*
X157899996Y-207605565D01*
X157900000Y-207605565D01*
X157900004Y-207605565D01*
X158079249Y-207585369D01*
X158079252Y-207585368D01*
X158079255Y-207585368D01*
X158249522Y-207525789D01*
X158402262Y-207429816D01*
X158529816Y-207302262D01*
X158625789Y-207149522D01*
X158685368Y-206979255D01*
X158694043Y-206902262D01*
X158705565Y-206800003D01*
X158705565Y-206799996D01*
X167094435Y-206799996D01*
X167094435Y-206800003D01*
X167114630Y-206979249D01*
X167114631Y-206979254D01*
X167174211Y-207149523D01*
X167196735Y-207185369D01*
X167270184Y-207302262D01*
X167397738Y-207429816D01*
X167550478Y-207525789D01*
X167720745Y-207585368D01*
X167720750Y-207585369D01*
X167899996Y-207605565D01*
X167900000Y-207605565D01*
X167900004Y-207605565D01*
X168079249Y-207585369D01*
X168079252Y-207585368D01*
X168079255Y-207585368D01*
X168249522Y-207525789D01*
X168402262Y-207429816D01*
X168529816Y-207302262D01*
X168625789Y-207149522D01*
X168685368Y-206979255D01*
X168694043Y-206902262D01*
X168705565Y-206800003D01*
X168705565Y-206799996D01*
X168685369Y-206620750D01*
X168685368Y-206620745D01*
X168625789Y-206450478D01*
X168625188Y-206449522D01*
X168575337Y-206370184D01*
X168529816Y-206297738D01*
X168402262Y-206170184D01*
X168290559Y-206099996D01*
X180094435Y-206099996D01*
X180094435Y-206100003D01*
X180114630Y-206279249D01*
X180114631Y-206279254D01*
X180174211Y-206449523D01*
X180204507Y-206497738D01*
X180270184Y-206602262D01*
X180397738Y-206729816D01*
X180488080Y-206786582D01*
X180542450Y-206820745D01*
X180550478Y-206825789D01*
X180720745Y-206885368D01*
X180720750Y-206885369D01*
X180899996Y-206905565D01*
X180900000Y-206905565D01*
X180900004Y-206905565D01*
X181079249Y-206885369D01*
X181079252Y-206885368D01*
X181079255Y-206885368D01*
X181249522Y-206825789D01*
X181402262Y-206729816D01*
X181529816Y-206602262D01*
X181625789Y-206449522D01*
X181685368Y-206279255D01*
X181685369Y-206279249D01*
X181705565Y-206100003D01*
X181705565Y-206099996D01*
X181685369Y-205920750D01*
X181685368Y-205920745D01*
X181625789Y-205750478D01*
X181529816Y-205597738D01*
X181402262Y-205470184D01*
X181249523Y-205374211D01*
X181079254Y-205314631D01*
X181079249Y-205314630D01*
X180900004Y-205294435D01*
X180899996Y-205294435D01*
X180720750Y-205314630D01*
X180720745Y-205314631D01*
X180550476Y-205374211D01*
X180397737Y-205470184D01*
X180270184Y-205597737D01*
X180174211Y-205750476D01*
X180114631Y-205920745D01*
X180114630Y-205920750D01*
X180094435Y-206099996D01*
X168290559Y-206099996D01*
X168249523Y-206074211D01*
X168079254Y-206014631D01*
X168079249Y-206014630D01*
X167900004Y-205994435D01*
X167899996Y-205994435D01*
X167720750Y-206014630D01*
X167720745Y-206014631D01*
X167550476Y-206074211D01*
X167397737Y-206170184D01*
X167270184Y-206297737D01*
X167174211Y-206450476D01*
X167114631Y-206620745D01*
X167114630Y-206620750D01*
X167094435Y-206799996D01*
X158705565Y-206799996D01*
X158685369Y-206620750D01*
X158685368Y-206620745D01*
X158625789Y-206450478D01*
X158625188Y-206449522D01*
X158575337Y-206370184D01*
X158529816Y-206297738D01*
X158402262Y-206170184D01*
X158249523Y-206074211D01*
X158079254Y-206014631D01*
X158079249Y-206014630D01*
X157900004Y-205994435D01*
X157899996Y-205994435D01*
X157720750Y-206014630D01*
X157720745Y-206014631D01*
X157550476Y-206074211D01*
X157397737Y-206170184D01*
X157270184Y-206297737D01*
X157174211Y-206450476D01*
X157114631Y-206620745D01*
X157114630Y-206620750D01*
X157094435Y-206799996D01*
X155994069Y-206799996D01*
X155929815Y-206697737D01*
X155802262Y-206570184D01*
X155649523Y-206474211D01*
X155479254Y-206414631D01*
X155479249Y-206414630D01*
X155300004Y-206394435D01*
X155299996Y-206394435D01*
X155120750Y-206414630D01*
X155120745Y-206414631D01*
X154950476Y-206474211D01*
X154797737Y-206570184D01*
X154670184Y-206697737D01*
X154574211Y-206850476D01*
X154514631Y-207020745D01*
X154514630Y-207020750D01*
X154494435Y-207199996D01*
X148594074Y-207199996D01*
X148625789Y-207149522D01*
X148685368Y-206979255D01*
X148694043Y-206902262D01*
X148705565Y-206800003D01*
X148705565Y-206799996D01*
X148685369Y-206620750D01*
X148685368Y-206620745D01*
X148625789Y-206450478D01*
X148625188Y-206449522D01*
X148575337Y-206370184D01*
X148529816Y-206297738D01*
X148402262Y-206170184D01*
X148290559Y-206099996D01*
X150094435Y-206099996D01*
X150094435Y-206100003D01*
X150114630Y-206279249D01*
X150114631Y-206279254D01*
X150174211Y-206449523D01*
X150204507Y-206497738D01*
X150270184Y-206602262D01*
X150397738Y-206729816D01*
X150488080Y-206786582D01*
X150542450Y-206820745D01*
X150550478Y-206825789D01*
X150720745Y-206885368D01*
X150720750Y-206885369D01*
X150899996Y-206905565D01*
X150900000Y-206905565D01*
X150900004Y-206905565D01*
X151079249Y-206885369D01*
X151079252Y-206885368D01*
X151079255Y-206885368D01*
X151249522Y-206825789D01*
X151402262Y-206729816D01*
X151529816Y-206602262D01*
X151625789Y-206449522D01*
X151685368Y-206279255D01*
X151685369Y-206279249D01*
X151705565Y-206100003D01*
X151705565Y-206099996D01*
X151685369Y-205920750D01*
X151685368Y-205920745D01*
X151625789Y-205750478D01*
X151529816Y-205597738D01*
X151402262Y-205470184D01*
X151249523Y-205374211D01*
X151079254Y-205314631D01*
X151079249Y-205314630D01*
X150900004Y-205294435D01*
X150899996Y-205294435D01*
X150720750Y-205314630D01*
X150720745Y-205314631D01*
X150550476Y-205374211D01*
X150397737Y-205470184D01*
X150270184Y-205597737D01*
X150174211Y-205750476D01*
X150114631Y-205920745D01*
X150114630Y-205920750D01*
X150094435Y-206099996D01*
X148290559Y-206099996D01*
X148249523Y-206074211D01*
X148079254Y-206014631D01*
X148079249Y-206014630D01*
X147900004Y-205994435D01*
X147899996Y-205994435D01*
X147720750Y-206014630D01*
X147720745Y-206014631D01*
X147550476Y-206074211D01*
X147397737Y-206170184D01*
X147270184Y-206297737D01*
X147174211Y-206450476D01*
X147114631Y-206620745D01*
X147114630Y-206620750D01*
X147094435Y-206799996D01*
X130194074Y-206799996D01*
X130225789Y-206749522D01*
X130285368Y-206579255D01*
X130299985Y-206449523D01*
X130305565Y-206400003D01*
X130305565Y-206399996D01*
X130285369Y-206220750D01*
X130285368Y-206220745D01*
X130243909Y-206102262D01*
X130225789Y-206050478D01*
X130203265Y-206014632D01*
X130129815Y-205897737D01*
X130002262Y-205770184D01*
X129849523Y-205674211D01*
X129679254Y-205614631D01*
X129679249Y-205614630D01*
X129500004Y-205594435D01*
X129499996Y-205594435D01*
X129320750Y-205614630D01*
X129320745Y-205614631D01*
X129150476Y-205674211D01*
X128997737Y-205770184D01*
X128870184Y-205897737D01*
X128774211Y-206050476D01*
X128714631Y-206220745D01*
X128714630Y-206220750D01*
X128694435Y-206399996D01*
X126549430Y-206399996D01*
X126679249Y-206385369D01*
X126679252Y-206385368D01*
X126679255Y-206385368D01*
X126849522Y-206325789D01*
X127002262Y-206229816D01*
X127129816Y-206102262D01*
X127225789Y-205949522D01*
X127285368Y-205779255D01*
X127286390Y-205770184D01*
X127305565Y-205600003D01*
X127305565Y-205599996D01*
X127285369Y-205420750D01*
X127285368Y-205420745D01*
X127225788Y-205250476D01*
X127129815Y-205097737D01*
X127119759Y-205087681D01*
X127086274Y-205026358D01*
X127091258Y-204956666D01*
X127119759Y-204912319D01*
X127129816Y-204902262D01*
X127225789Y-204749522D01*
X127285368Y-204579255D01*
X127299985Y-204449523D01*
X127305565Y-204400003D01*
X127305565Y-204399996D01*
X127285369Y-204220750D01*
X127285368Y-204220745D01*
X127243116Y-204099996D01*
X147094435Y-204099996D01*
X147094435Y-204100003D01*
X147114630Y-204279249D01*
X147114631Y-204279254D01*
X147174211Y-204449523D01*
X147255724Y-204579249D01*
X147270184Y-204602262D01*
X147397738Y-204729816D01*
X147550478Y-204825789D01*
X147720745Y-204885368D01*
X147720750Y-204885369D01*
X147899996Y-204905565D01*
X147900000Y-204905565D01*
X147900004Y-204905565D01*
X148079249Y-204885369D01*
X148079252Y-204885368D01*
X148079255Y-204885368D01*
X148249522Y-204825789D01*
X148402262Y-204729816D01*
X148529816Y-204602262D01*
X148625789Y-204449522D01*
X148685368Y-204279255D01*
X148691960Y-204220750D01*
X148705565Y-204100003D01*
X148705565Y-204099996D01*
X157094435Y-204099996D01*
X157094435Y-204100003D01*
X157114630Y-204279249D01*
X157114631Y-204279254D01*
X157174211Y-204449523D01*
X157255724Y-204579249D01*
X157270184Y-204602262D01*
X157397738Y-204729816D01*
X157550478Y-204825789D01*
X157720745Y-204885368D01*
X157720750Y-204885369D01*
X157899996Y-204905565D01*
X157900000Y-204905565D01*
X157900004Y-204905565D01*
X158079249Y-204885369D01*
X158079252Y-204885368D01*
X158079255Y-204885368D01*
X158249522Y-204825789D01*
X158402262Y-204729816D01*
X158529816Y-204602262D01*
X158625789Y-204449522D01*
X158685368Y-204279255D01*
X158691960Y-204220750D01*
X158705565Y-204100003D01*
X158705565Y-204099996D01*
X167094435Y-204099996D01*
X167094435Y-204100003D01*
X167114630Y-204279249D01*
X167114631Y-204279254D01*
X167174211Y-204449523D01*
X167255724Y-204579249D01*
X167270184Y-204602262D01*
X167397738Y-204729816D01*
X167550478Y-204825789D01*
X167720745Y-204885368D01*
X167720750Y-204885369D01*
X167899996Y-204905565D01*
X167900000Y-204905565D01*
X167900004Y-204905565D01*
X168079249Y-204885369D01*
X168079252Y-204885368D01*
X168079255Y-204885368D01*
X168249522Y-204825789D01*
X168402262Y-204729816D01*
X168529816Y-204602262D01*
X168625789Y-204449522D01*
X168685368Y-204279255D01*
X168691960Y-204220750D01*
X168705565Y-204100003D01*
X168705565Y-204099996D01*
X168685369Y-203920750D01*
X168685368Y-203920745D01*
X168625789Y-203750478D01*
X168529816Y-203597738D01*
X168402262Y-203470184D01*
X168249523Y-203374211D01*
X168079254Y-203314631D01*
X168079249Y-203314630D01*
X167900004Y-203294435D01*
X167899996Y-203294435D01*
X167720750Y-203314630D01*
X167720745Y-203314631D01*
X167550476Y-203374211D01*
X167397737Y-203470184D01*
X167270184Y-203597737D01*
X167174211Y-203750476D01*
X167114631Y-203920745D01*
X167114630Y-203920750D01*
X167094435Y-204099996D01*
X158705565Y-204099996D01*
X158685369Y-203920750D01*
X158685368Y-203920745D01*
X158625789Y-203750478D01*
X158529816Y-203597738D01*
X158402262Y-203470184D01*
X158249523Y-203374211D01*
X158079254Y-203314631D01*
X158079249Y-203314630D01*
X157900004Y-203294435D01*
X157899996Y-203294435D01*
X157720750Y-203314630D01*
X157720745Y-203314631D01*
X157550476Y-203374211D01*
X157397737Y-203470184D01*
X157270184Y-203597737D01*
X157174211Y-203750476D01*
X157114631Y-203920745D01*
X157114630Y-203920750D01*
X157094435Y-204099996D01*
X148705565Y-204099996D01*
X148685369Y-203920750D01*
X148685368Y-203920745D01*
X148625789Y-203750478D01*
X148529816Y-203597738D01*
X148402262Y-203470184D01*
X148249523Y-203374211D01*
X148079254Y-203314631D01*
X148079249Y-203314630D01*
X147900004Y-203294435D01*
X147899996Y-203294435D01*
X147720750Y-203314630D01*
X147720745Y-203314631D01*
X147550476Y-203374211D01*
X147397737Y-203470184D01*
X147270184Y-203597737D01*
X147174211Y-203750476D01*
X147114631Y-203920745D01*
X147114630Y-203920750D01*
X147094435Y-204099996D01*
X127243116Y-204099996D01*
X127225789Y-204050478D01*
X127129816Y-203897738D01*
X127002262Y-203770184D01*
X126931608Y-203725789D01*
X126849523Y-203674211D01*
X126679254Y-203614631D01*
X126679249Y-203614630D01*
X126500004Y-203594435D01*
X126499996Y-203594435D01*
X126320750Y-203614630D01*
X126320745Y-203614631D01*
X126150476Y-203674211D01*
X125997737Y-203770184D01*
X125870184Y-203897737D01*
X125774211Y-204050476D01*
X125714631Y-204220745D01*
X125714630Y-204220750D01*
X125694435Y-204399996D01*
X103000000Y-204399996D01*
X103000000Y-202199996D01*
X123994435Y-202199996D01*
X123994435Y-202200003D01*
X124014630Y-202379249D01*
X124014631Y-202379254D01*
X124074211Y-202549523D01*
X124137646Y-202650478D01*
X124170184Y-202702262D01*
X124297738Y-202829816D01*
X124450478Y-202925789D01*
X124620745Y-202985368D01*
X124620750Y-202985369D01*
X124799996Y-203005565D01*
X124800000Y-203005565D01*
X124800004Y-203005565D01*
X124849430Y-202999996D01*
X140394435Y-202999996D01*
X140394435Y-203000003D01*
X140414630Y-203179249D01*
X140414631Y-203179254D01*
X140474211Y-203349523D01*
X140489724Y-203374211D01*
X140570184Y-203502262D01*
X140697738Y-203629816D01*
X140850478Y-203725789D01*
X140977352Y-203770184D01*
X141020745Y-203785368D01*
X141020750Y-203785369D01*
X141199996Y-203805565D01*
X141200000Y-203805565D01*
X141200004Y-203805565D01*
X141379249Y-203785369D01*
X141379252Y-203785368D01*
X141379255Y-203785368D01*
X141549522Y-203725789D01*
X141702262Y-203629816D01*
X141829816Y-203502262D01*
X141925789Y-203349522D01*
X141985368Y-203179255D01*
X142005565Y-203000000D01*
X142003916Y-202985369D01*
X141985369Y-202820750D01*
X141985368Y-202820745D01*
X141925788Y-202650476D01*
X141862354Y-202549522D01*
X141829816Y-202497738D01*
X141702262Y-202370184D01*
X141669379Y-202349522D01*
X141549523Y-202274211D01*
X141379254Y-202214631D01*
X141379249Y-202214630D01*
X141200004Y-202194435D01*
X141199996Y-202194435D01*
X141020750Y-202214630D01*
X141020745Y-202214631D01*
X140850476Y-202274211D01*
X140697737Y-202370184D01*
X140570184Y-202497737D01*
X140474211Y-202650476D01*
X140414631Y-202820745D01*
X140414630Y-202820750D01*
X140394435Y-202999996D01*
X124849430Y-202999996D01*
X124979249Y-202985369D01*
X124979252Y-202985368D01*
X124979255Y-202985368D01*
X125149522Y-202925789D01*
X125302262Y-202829816D01*
X125429816Y-202702262D01*
X125525789Y-202549522D01*
X125585368Y-202379255D01*
X125597204Y-202274211D01*
X125605565Y-202200003D01*
X125605565Y-202199996D01*
X125585369Y-202020750D01*
X125585368Y-202020745D01*
X125578108Y-201999996D01*
X146394435Y-201999996D01*
X146394435Y-202000003D01*
X146414630Y-202179249D01*
X146414631Y-202179254D01*
X146474211Y-202349523D01*
X146567341Y-202497737D01*
X146570184Y-202502262D01*
X146697738Y-202629816D01*
X146850478Y-202725789D01*
X147020745Y-202785368D01*
X147020750Y-202785369D01*
X147199996Y-202805565D01*
X147200000Y-202805565D01*
X147200004Y-202805565D01*
X147379249Y-202785369D01*
X147379252Y-202785368D01*
X147379255Y-202785368D01*
X147549522Y-202725789D01*
X147702262Y-202629816D01*
X147829816Y-202502262D01*
X147925789Y-202349522D01*
X147985368Y-202179255D01*
X148005565Y-202000000D01*
X148005565Y-201999996D01*
X148694435Y-201999996D01*
X148694435Y-202000003D01*
X148714630Y-202179249D01*
X148714631Y-202179254D01*
X148774211Y-202349523D01*
X148867341Y-202497737D01*
X148870184Y-202502262D01*
X148997738Y-202629816D01*
X149150478Y-202725789D01*
X149320745Y-202785368D01*
X149320750Y-202785369D01*
X149499996Y-202805565D01*
X149500000Y-202805565D01*
X149500004Y-202805565D01*
X149679249Y-202785369D01*
X149679252Y-202785368D01*
X149679255Y-202785368D01*
X149849522Y-202725789D01*
X150002262Y-202629816D01*
X150129816Y-202502262D01*
X150225789Y-202349522D01*
X150285368Y-202179255D01*
X150305565Y-202000000D01*
X150305565Y-201999996D01*
X168694435Y-201999996D01*
X168694435Y-202000003D01*
X168714630Y-202179249D01*
X168714631Y-202179254D01*
X168774211Y-202349523D01*
X168867341Y-202497737D01*
X168870184Y-202502262D01*
X168997738Y-202629816D01*
X169150478Y-202725789D01*
X169320745Y-202785368D01*
X169320750Y-202785369D01*
X169499996Y-202805565D01*
X169500000Y-202805565D01*
X169500004Y-202805565D01*
X169679249Y-202785369D01*
X169679252Y-202785368D01*
X169679255Y-202785368D01*
X169849522Y-202725789D01*
X170002262Y-202629816D01*
X170129816Y-202502262D01*
X170225789Y-202349522D01*
X170285368Y-202179255D01*
X170305565Y-202000000D01*
X170288718Y-201850478D01*
X170285369Y-201820750D01*
X170285368Y-201820745D01*
X170242326Y-201697738D01*
X170225789Y-201650478D01*
X170129816Y-201497738D01*
X170002262Y-201370184D01*
X169849523Y-201274211D01*
X169679254Y-201214631D01*
X169679249Y-201214630D01*
X169500004Y-201194435D01*
X169499996Y-201194435D01*
X169320750Y-201214630D01*
X169320745Y-201214631D01*
X169150476Y-201274211D01*
X168997737Y-201370184D01*
X168870184Y-201497737D01*
X168774211Y-201650476D01*
X168714631Y-201820745D01*
X168714630Y-201820750D01*
X168694435Y-201999996D01*
X150305565Y-201999996D01*
X150288718Y-201850478D01*
X150285369Y-201820750D01*
X150285368Y-201820745D01*
X150242326Y-201697738D01*
X150225789Y-201650478D01*
X150129816Y-201497738D01*
X150002262Y-201370184D01*
X149849523Y-201274211D01*
X149679254Y-201214631D01*
X149679249Y-201214630D01*
X149500004Y-201194435D01*
X149499996Y-201194435D01*
X149320750Y-201214630D01*
X149320745Y-201214631D01*
X149150476Y-201274211D01*
X148997737Y-201370184D01*
X148870184Y-201497737D01*
X148774211Y-201650476D01*
X148714631Y-201820745D01*
X148714630Y-201820750D01*
X148694435Y-201999996D01*
X148005565Y-201999996D01*
X147988718Y-201850478D01*
X147985369Y-201820750D01*
X147985368Y-201820745D01*
X147942326Y-201697738D01*
X147925789Y-201650478D01*
X147829816Y-201497738D01*
X147702262Y-201370184D01*
X147549523Y-201274211D01*
X147379254Y-201214631D01*
X147379249Y-201214630D01*
X147200004Y-201194435D01*
X147199996Y-201194435D01*
X147020750Y-201214630D01*
X147020745Y-201214631D01*
X146850476Y-201274211D01*
X146697737Y-201370184D01*
X146570184Y-201497737D01*
X146474211Y-201650476D01*
X146414631Y-201820745D01*
X146414630Y-201820750D01*
X146394435Y-201999996D01*
X125578108Y-201999996D01*
X125525788Y-201850476D01*
X125429815Y-201697737D01*
X125302262Y-201570184D01*
X125149523Y-201474211D01*
X124979254Y-201414631D01*
X124979249Y-201414630D01*
X124800004Y-201394435D01*
X124799996Y-201394435D01*
X124620750Y-201414630D01*
X124620745Y-201414631D01*
X124450476Y-201474211D01*
X124297737Y-201570184D01*
X124170184Y-201697737D01*
X124074211Y-201850476D01*
X124014631Y-202020745D01*
X124014630Y-202020750D01*
X123994435Y-202199996D01*
X103000000Y-202199996D01*
X103000000Y-199999996D01*
X133594435Y-199999996D01*
X133594435Y-200000003D01*
X133614630Y-200179249D01*
X133614631Y-200179254D01*
X133674211Y-200349523D01*
X133770184Y-200502262D01*
X133897738Y-200629816D01*
X134050478Y-200725789D01*
X134220745Y-200785368D01*
X134220750Y-200785369D01*
X134399996Y-200805565D01*
X134400000Y-200805565D01*
X134400004Y-200805565D01*
X134579249Y-200785369D01*
X134579252Y-200785368D01*
X134579255Y-200785368D01*
X134749522Y-200725789D01*
X134902262Y-200629816D01*
X135029816Y-200502262D01*
X135125789Y-200349522D01*
X135185368Y-200179255D01*
X135205565Y-200000000D01*
X135185368Y-199820745D01*
X135125789Y-199650478D01*
X135029816Y-199497738D01*
X134902262Y-199370184D01*
X134749523Y-199274211D01*
X134579254Y-199214631D01*
X134579249Y-199214630D01*
X134400004Y-199194435D01*
X134399996Y-199194435D01*
X134220750Y-199214630D01*
X134220745Y-199214631D01*
X134050476Y-199274211D01*
X133897737Y-199370184D01*
X133770184Y-199497737D01*
X133674211Y-199650476D01*
X133614631Y-199820745D01*
X133614630Y-199820750D01*
X133594435Y-199999996D01*
X103000000Y-199999996D01*
X103000000Y-197999996D01*
X233194435Y-197999996D01*
X233194435Y-198000003D01*
X233214630Y-198179249D01*
X233214631Y-198179254D01*
X233274211Y-198349523D01*
X233370184Y-198502262D01*
X233497738Y-198629816D01*
X233650478Y-198725789D01*
X233820745Y-198785368D01*
X233820750Y-198785369D01*
X233999996Y-198805565D01*
X234000000Y-198805565D01*
X234000004Y-198805565D01*
X234179249Y-198785369D01*
X234179252Y-198785368D01*
X234179255Y-198785368D01*
X234349522Y-198725789D01*
X234502262Y-198629816D01*
X234629816Y-198502262D01*
X234725789Y-198349522D01*
X234785368Y-198179255D01*
X234805565Y-198000000D01*
X234805565Y-197999996D01*
X271194435Y-197999996D01*
X271194435Y-198000003D01*
X271214630Y-198179249D01*
X271214631Y-198179254D01*
X271274211Y-198349523D01*
X271370184Y-198502262D01*
X271497738Y-198629816D01*
X271650478Y-198725789D01*
X271820745Y-198785368D01*
X271820750Y-198785369D01*
X271999996Y-198805565D01*
X272000000Y-198805565D01*
X272000004Y-198805565D01*
X272179249Y-198785369D01*
X272179252Y-198785368D01*
X272179255Y-198785368D01*
X272349522Y-198725789D01*
X272502262Y-198629816D01*
X272629816Y-198502262D01*
X272725789Y-198349522D01*
X272785368Y-198179255D01*
X272805565Y-198000000D01*
X272785368Y-197820745D01*
X272725789Y-197650478D01*
X272629816Y-197497738D01*
X272502262Y-197370184D01*
X272469379Y-197349522D01*
X272349523Y-197274211D01*
X272179254Y-197214631D01*
X272179249Y-197214630D01*
X272000004Y-197194435D01*
X271999996Y-197194435D01*
X271820750Y-197214630D01*
X271820745Y-197214631D01*
X271650476Y-197274211D01*
X271497737Y-197370184D01*
X271370184Y-197497737D01*
X271274211Y-197650476D01*
X271214631Y-197820745D01*
X271214630Y-197820750D01*
X271194435Y-197999996D01*
X234805565Y-197999996D01*
X234785368Y-197820745D01*
X234725789Y-197650478D01*
X234629816Y-197497738D01*
X234502262Y-197370184D01*
X234469379Y-197349522D01*
X234349523Y-197274211D01*
X234179254Y-197214631D01*
X234179249Y-197214630D01*
X234000004Y-197194435D01*
X233999996Y-197194435D01*
X233820750Y-197214630D01*
X233820745Y-197214631D01*
X233650476Y-197274211D01*
X233497737Y-197370184D01*
X233370184Y-197497737D01*
X233274211Y-197650476D01*
X233214631Y-197820745D01*
X233214630Y-197820750D01*
X233194435Y-197999996D01*
X103000000Y-197999996D01*
X103000000Y-196999996D01*
X128294435Y-196999996D01*
X128294435Y-197000003D01*
X128314630Y-197179249D01*
X128314631Y-197179254D01*
X128374211Y-197349523D01*
X128467341Y-197497737D01*
X128470184Y-197502262D01*
X128597738Y-197629816D01*
X128750478Y-197725789D01*
X128920745Y-197785368D01*
X128920750Y-197785369D01*
X129099996Y-197805565D01*
X129100000Y-197805565D01*
X129100004Y-197805565D01*
X129279249Y-197785369D01*
X129279252Y-197785368D01*
X129279255Y-197785368D01*
X129449522Y-197725789D01*
X129602262Y-197629816D01*
X129729816Y-197502262D01*
X129825789Y-197349522D01*
X129885368Y-197179255D01*
X129905565Y-197000000D01*
X129885368Y-196820745D01*
X129825789Y-196650478D01*
X129729816Y-196497738D01*
X129602262Y-196370184D01*
X129449523Y-196274211D01*
X129279254Y-196214631D01*
X129279249Y-196214630D01*
X129100004Y-196194435D01*
X129099996Y-196194435D01*
X128920750Y-196214630D01*
X128920745Y-196214631D01*
X128750476Y-196274211D01*
X128597737Y-196370184D01*
X128470184Y-196497737D01*
X128374211Y-196650476D01*
X128314631Y-196820745D01*
X128314630Y-196820750D01*
X128294435Y-196999996D01*
X103000000Y-196999996D01*
X103000000Y-186199996D01*
X111494435Y-186199996D01*
X111494435Y-186200003D01*
X111514630Y-186379249D01*
X111514631Y-186379254D01*
X111574211Y-186549523D01*
X111670184Y-186702262D01*
X111797738Y-186829816D01*
X111950478Y-186925789D01*
X112120745Y-186985368D01*
X112120750Y-186985369D01*
X112299996Y-187005565D01*
X112300000Y-187005565D01*
X112300004Y-187005565D01*
X112479249Y-186985369D01*
X112479252Y-186985368D01*
X112479255Y-186985368D01*
X112649522Y-186925789D01*
X112802262Y-186829816D01*
X112929816Y-186702262D01*
X113025789Y-186549522D01*
X113085368Y-186379255D01*
X113105565Y-186200000D01*
X113085368Y-186020745D01*
X113025789Y-185850478D01*
X112929816Y-185697738D01*
X112802262Y-185570184D01*
X112649523Y-185474211D01*
X112479254Y-185414631D01*
X112479249Y-185414630D01*
X112300004Y-185394435D01*
X112299996Y-185394435D01*
X112120750Y-185414630D01*
X112120745Y-185414631D01*
X111950476Y-185474211D01*
X111797737Y-185570184D01*
X111670184Y-185697737D01*
X111574211Y-185850476D01*
X111514631Y-186020745D01*
X111514630Y-186020750D01*
X111494435Y-186199996D01*
X103000000Y-186199996D01*
X103000000Y-184999996D01*
X246694435Y-184999996D01*
X246694435Y-185000003D01*
X246714630Y-185179249D01*
X246714631Y-185179254D01*
X246774211Y-185349523D01*
X246815122Y-185414632D01*
X246870184Y-185502262D01*
X246997738Y-185629816D01*
X247088080Y-185686582D01*
X247105833Y-185697737D01*
X247150478Y-185725789D01*
X247320745Y-185785368D01*
X247320750Y-185785369D01*
X247499996Y-185805565D01*
X247500000Y-185805565D01*
X247500004Y-185805565D01*
X247679249Y-185785369D01*
X247679252Y-185785368D01*
X247679255Y-185785368D01*
X247849522Y-185725789D01*
X248002262Y-185629816D01*
X248129816Y-185502262D01*
X248225789Y-185349522D01*
X248285368Y-185179255D01*
X248305565Y-185000000D01*
X248305565Y-184999996D01*
X249694435Y-184999996D01*
X249694435Y-185000003D01*
X249714630Y-185179249D01*
X249714631Y-185179254D01*
X249774211Y-185349523D01*
X249815122Y-185414632D01*
X249870184Y-185502262D01*
X249997738Y-185629816D01*
X250088080Y-185686582D01*
X250105833Y-185697737D01*
X250150478Y-185725789D01*
X250320745Y-185785368D01*
X250320750Y-185785369D01*
X250499996Y-185805565D01*
X250500000Y-185805565D01*
X250500004Y-185805565D01*
X250679249Y-185785369D01*
X250679252Y-185785368D01*
X250679255Y-185785368D01*
X250849522Y-185725789D01*
X251002262Y-185629816D01*
X251129816Y-185502262D01*
X251225789Y-185349522D01*
X251285368Y-185179255D01*
X251305565Y-185000000D01*
X251305565Y-184999996D01*
X252694435Y-184999996D01*
X252694435Y-185000003D01*
X252714630Y-185179249D01*
X252714631Y-185179254D01*
X252774211Y-185349523D01*
X252815122Y-185414632D01*
X252870184Y-185502262D01*
X252997738Y-185629816D01*
X253088080Y-185686582D01*
X253105833Y-185697737D01*
X253150478Y-185725789D01*
X253320745Y-185785368D01*
X253320750Y-185785369D01*
X253499996Y-185805565D01*
X253500000Y-185805565D01*
X253500004Y-185805565D01*
X253679249Y-185785369D01*
X253679252Y-185785368D01*
X253679255Y-185785368D01*
X253849522Y-185725789D01*
X254002262Y-185629816D01*
X254129816Y-185502262D01*
X254225789Y-185349522D01*
X254285368Y-185179255D01*
X254305565Y-185000000D01*
X254305565Y-184999996D01*
X255694435Y-184999996D01*
X255694435Y-185000003D01*
X255714630Y-185179249D01*
X255714631Y-185179254D01*
X255774211Y-185349523D01*
X255815122Y-185414632D01*
X255870184Y-185502262D01*
X255997738Y-185629816D01*
X256088080Y-185686582D01*
X256105833Y-185697737D01*
X256150478Y-185725789D01*
X256320745Y-185785368D01*
X256320750Y-185785369D01*
X256499996Y-185805565D01*
X256500000Y-185805565D01*
X256500004Y-185805565D01*
X256679249Y-185785369D01*
X256679252Y-185785368D01*
X256679255Y-185785368D01*
X256849522Y-185725789D01*
X257002262Y-185629816D01*
X257129816Y-185502262D01*
X257225789Y-185349522D01*
X257285368Y-185179255D01*
X257305565Y-185000000D01*
X257285368Y-184820745D01*
X257225789Y-184650478D01*
X257129816Y-184497738D01*
X257002262Y-184370184D01*
X256849523Y-184274211D01*
X256679254Y-184214631D01*
X256679249Y-184214630D01*
X256500004Y-184194435D01*
X256499996Y-184194435D01*
X256320750Y-184214630D01*
X256320745Y-184214631D01*
X256150476Y-184274211D01*
X255997737Y-184370184D01*
X255870184Y-184497737D01*
X255774211Y-184650476D01*
X255714631Y-184820745D01*
X255714630Y-184820750D01*
X255694435Y-184999996D01*
X254305565Y-184999996D01*
X254285368Y-184820745D01*
X254225789Y-184650478D01*
X254129816Y-184497738D01*
X254002262Y-184370184D01*
X253849523Y-184274211D01*
X253679254Y-184214631D01*
X253679249Y-184214630D01*
X253500004Y-184194435D01*
X253499996Y-184194435D01*
X253320750Y-184214630D01*
X253320745Y-184214631D01*
X253150476Y-184274211D01*
X252997737Y-184370184D01*
X252870184Y-184497737D01*
X252774211Y-184650476D01*
X252714631Y-184820745D01*
X252714630Y-184820750D01*
X252694435Y-184999996D01*
X251305565Y-184999996D01*
X251285368Y-184820745D01*
X251225789Y-184650478D01*
X251129816Y-184497738D01*
X251002262Y-184370184D01*
X250849523Y-184274211D01*
X250679254Y-184214631D01*
X250679249Y-184214630D01*
X250500004Y-184194435D01*
X250499996Y-184194435D01*
X250320750Y-184214630D01*
X250320745Y-184214631D01*
X250150476Y-184274211D01*
X249997737Y-184370184D01*
X249870184Y-184497737D01*
X249774211Y-184650476D01*
X249714631Y-184820745D01*
X249714630Y-184820750D01*
X249694435Y-184999996D01*
X248305565Y-184999996D01*
X248285368Y-184820745D01*
X248225789Y-184650478D01*
X248129816Y-184497738D01*
X248002262Y-184370184D01*
X247849523Y-184274211D01*
X247679254Y-184214631D01*
X247679249Y-184214630D01*
X247500004Y-184194435D01*
X247499996Y-184194435D01*
X247320750Y-184214630D01*
X247320745Y-184214631D01*
X247150476Y-184274211D01*
X246997737Y-184370184D01*
X246870184Y-184497737D01*
X246774211Y-184650476D01*
X246714631Y-184820745D01*
X246714630Y-184820750D01*
X246694435Y-184999996D01*
X103000000Y-184999996D01*
X103000000Y-183199996D01*
X238494435Y-183199996D01*
X238494435Y-183200003D01*
X238514630Y-183379249D01*
X238514631Y-183379254D01*
X238574211Y-183549523D01*
X238670184Y-183702262D01*
X238797738Y-183829816D01*
X238950478Y-183925789D01*
X239120745Y-183985368D01*
X239120750Y-183985369D01*
X239299996Y-184005565D01*
X239300000Y-184005565D01*
X239300004Y-184005565D01*
X239479249Y-183985369D01*
X239479252Y-183985368D01*
X239479255Y-183985368D01*
X239649522Y-183925789D01*
X239802262Y-183829816D01*
X239929816Y-183702262D01*
X240025789Y-183549522D01*
X240085368Y-183379255D01*
X240105565Y-183200000D01*
X240085368Y-183020745D01*
X240025789Y-182850478D01*
X239929816Y-182697738D01*
X239802262Y-182570184D01*
X239649523Y-182474211D01*
X239479254Y-182414631D01*
X239479249Y-182414630D01*
X239300004Y-182394435D01*
X239299996Y-182394435D01*
X239120750Y-182414630D01*
X239120745Y-182414631D01*
X238950476Y-182474211D01*
X238797737Y-182570184D01*
X238670184Y-182697737D01*
X238574211Y-182850476D01*
X238514631Y-183020745D01*
X238514630Y-183020750D01*
X238494435Y-183199996D01*
X103000000Y-183199996D01*
X103000000Y-173099996D01*
X238794435Y-173099996D01*
X238794435Y-173100003D01*
X238814630Y-173279249D01*
X238814631Y-173279254D01*
X238874211Y-173449523D01*
X238970184Y-173602262D01*
X239030241Y-173662319D01*
X239063726Y-173723642D01*
X239058742Y-173793334D01*
X239030241Y-173837681D01*
X238970184Y-173897737D01*
X238874211Y-174050476D01*
X238814631Y-174220745D01*
X238814630Y-174220750D01*
X238794435Y-174399996D01*
X238794435Y-174400003D01*
X238814630Y-174579249D01*
X238814631Y-174579254D01*
X238874211Y-174749523D01*
X238970184Y-174902262D01*
X239097738Y-175029816D01*
X239250478Y-175125789D01*
X239420745Y-175185368D01*
X239420750Y-175185369D01*
X239599996Y-175205565D01*
X239600000Y-175205565D01*
X239600004Y-175205565D01*
X239779249Y-175185369D01*
X239779252Y-175185368D01*
X239779255Y-175185368D01*
X239949522Y-175125789D01*
X240102262Y-175029816D01*
X240229816Y-174902262D01*
X240325789Y-174749522D01*
X240385368Y-174579255D01*
X240405565Y-174400000D01*
X240385368Y-174220745D01*
X240325789Y-174050478D01*
X240229816Y-173897738D01*
X240169759Y-173837681D01*
X240136274Y-173776358D01*
X240141258Y-173706666D01*
X240169759Y-173662319D01*
X240229816Y-173602262D01*
X240325789Y-173449522D01*
X240385368Y-173279255D01*
X240405565Y-173100000D01*
X240385368Y-172920745D01*
X240325789Y-172750478D01*
X240229816Y-172597738D01*
X240102262Y-172470184D01*
X239949523Y-172374211D01*
X239779254Y-172314631D01*
X239779249Y-172314630D01*
X239600004Y-172294435D01*
X239599996Y-172294435D01*
X239420750Y-172314630D01*
X239420745Y-172314631D01*
X239250476Y-172374211D01*
X239097737Y-172470184D01*
X238970184Y-172597737D01*
X238874211Y-172750476D01*
X238814631Y-172920745D01*
X238814630Y-172920750D01*
X238794435Y-173099996D01*
X103000000Y-173099996D01*
X103000000Y-169199996D01*
X188494435Y-169199996D01*
X188494435Y-169200003D01*
X188514630Y-169379249D01*
X188514631Y-169379254D01*
X188574211Y-169549523D01*
X188637646Y-169650478D01*
X188670184Y-169702262D01*
X188797738Y-169829816D01*
X188950478Y-169925789D01*
X189120745Y-169985368D01*
X189120750Y-169985369D01*
X189299996Y-170005565D01*
X189300000Y-170005565D01*
X189300004Y-170005565D01*
X189349430Y-169999996D01*
X190694435Y-169999996D01*
X190694435Y-170000003D01*
X190714630Y-170179249D01*
X190714631Y-170179254D01*
X190774211Y-170349523D01*
X190774212Y-170349524D01*
X190870184Y-170502262D01*
X190997738Y-170629816D01*
X191150478Y-170725789D01*
X191320745Y-170785368D01*
X191320750Y-170785369D01*
X191499996Y-170805565D01*
X191500000Y-170805565D01*
X191500004Y-170805565D01*
X191679249Y-170785369D01*
X191679252Y-170785368D01*
X191679255Y-170785368D01*
X191849522Y-170725789D01*
X192002262Y-170629816D01*
X192129816Y-170502262D01*
X192225789Y-170349522D01*
X192285368Y-170179255D01*
X192305565Y-170000000D01*
X192305565Y-169999996D01*
X193694435Y-169999996D01*
X193694435Y-170000003D01*
X193714630Y-170179249D01*
X193714633Y-170179262D01*
X193774209Y-170349520D01*
X193827309Y-170434029D01*
X193846309Y-170501266D01*
X193827309Y-170565971D01*
X193774209Y-170650479D01*
X193714633Y-170820737D01*
X193714630Y-170820750D01*
X193694435Y-170999996D01*
X193694435Y-171000003D01*
X193714630Y-171179249D01*
X193714631Y-171179254D01*
X193774211Y-171349523D01*
X193870184Y-171502262D01*
X193997738Y-171629816D01*
X194150478Y-171725789D01*
X194320745Y-171785368D01*
X194320750Y-171785369D01*
X194499996Y-171805565D01*
X194500000Y-171805565D01*
X194500004Y-171805565D01*
X194679249Y-171785369D01*
X194679252Y-171785368D01*
X194679255Y-171785368D01*
X194849522Y-171725789D01*
X195002262Y-171629816D01*
X195129816Y-171502262D01*
X195225789Y-171349522D01*
X195285368Y-171179255D01*
X195305565Y-171000000D01*
X195285368Y-170820745D01*
X195225789Y-170650478D01*
X195225788Y-170650475D01*
X195172691Y-170565973D01*
X195153690Y-170498736D01*
X195172691Y-170434027D01*
X195225788Y-170349524D01*
X195225789Y-170349522D01*
X195285368Y-170179255D01*
X195305565Y-170000000D01*
X195305565Y-169999996D01*
X196694435Y-169999996D01*
X196694435Y-170000003D01*
X196714630Y-170179249D01*
X196714633Y-170179262D01*
X196774209Y-170349520D01*
X196827309Y-170434029D01*
X196846309Y-170501266D01*
X196827309Y-170565971D01*
X196774209Y-170650479D01*
X196714633Y-170820737D01*
X196714630Y-170820750D01*
X196694435Y-170999996D01*
X196694435Y-171000003D01*
X196714630Y-171179249D01*
X196714631Y-171179254D01*
X196774211Y-171349523D01*
X196870184Y-171502262D01*
X196997738Y-171629816D01*
X197150478Y-171725789D01*
X197320745Y-171785368D01*
X197320750Y-171785369D01*
X197499996Y-171805565D01*
X197500000Y-171805565D01*
X197500004Y-171805565D01*
X197679249Y-171785369D01*
X197679252Y-171785368D01*
X197679255Y-171785368D01*
X197849522Y-171725789D01*
X198002262Y-171629816D01*
X198129816Y-171502262D01*
X198225789Y-171349522D01*
X198285368Y-171179255D01*
X198305565Y-171000000D01*
X198285368Y-170820745D01*
X198225789Y-170650478D01*
X198225788Y-170650475D01*
X198172691Y-170565973D01*
X198153690Y-170498736D01*
X198172691Y-170434027D01*
X198225788Y-170349524D01*
X198225789Y-170349522D01*
X198285368Y-170179255D01*
X198305565Y-170000000D01*
X198305565Y-169999996D01*
X200694435Y-169999996D01*
X200694435Y-170000003D01*
X200714630Y-170179249D01*
X200714633Y-170179262D01*
X200774209Y-170349520D01*
X200827309Y-170434029D01*
X200846309Y-170501266D01*
X200827309Y-170565971D01*
X200774209Y-170650479D01*
X200714633Y-170820737D01*
X200714630Y-170820750D01*
X200694435Y-170999996D01*
X200694435Y-171000003D01*
X200714630Y-171179249D01*
X200714631Y-171179254D01*
X200774211Y-171349523D01*
X200870184Y-171502262D01*
X200997738Y-171629816D01*
X201150478Y-171725789D01*
X201320745Y-171785368D01*
X201320750Y-171785369D01*
X201499996Y-171805565D01*
X201500000Y-171805565D01*
X201500004Y-171805565D01*
X201679249Y-171785369D01*
X201679252Y-171785368D01*
X201679255Y-171785368D01*
X201849522Y-171725789D01*
X202002262Y-171629816D01*
X202129816Y-171502262D01*
X202225789Y-171349522D01*
X202285368Y-171179255D01*
X202305565Y-171000000D01*
X202285368Y-170820745D01*
X202225789Y-170650478D01*
X202225788Y-170650475D01*
X202172691Y-170565973D01*
X202153690Y-170498736D01*
X202172691Y-170434027D01*
X202225788Y-170349524D01*
X202225789Y-170349522D01*
X202285368Y-170179255D01*
X202305565Y-170000000D01*
X202305565Y-169999996D01*
X206694435Y-169999996D01*
X206694435Y-170000003D01*
X206714630Y-170179249D01*
X206714631Y-170179254D01*
X206774211Y-170349523D01*
X206774212Y-170349524D01*
X206870184Y-170502262D01*
X206997738Y-170629816D01*
X207150478Y-170725789D01*
X207320745Y-170785368D01*
X207320750Y-170785369D01*
X207499996Y-170805565D01*
X207500000Y-170805565D01*
X207500004Y-170805565D01*
X207679249Y-170785369D01*
X207679252Y-170785368D01*
X207679255Y-170785368D01*
X207849522Y-170725789D01*
X208002262Y-170629816D01*
X208129816Y-170502262D01*
X208225789Y-170349522D01*
X208285368Y-170179255D01*
X208305565Y-170000000D01*
X208303916Y-169985369D01*
X208285369Y-169820750D01*
X208285368Y-169820745D01*
X208225788Y-169650476D01*
X208129815Y-169497737D01*
X208002262Y-169370184D01*
X207849523Y-169274211D01*
X207679254Y-169214631D01*
X207679249Y-169214630D01*
X207549362Y-169199996D01*
X228494435Y-169199996D01*
X228494435Y-169200003D01*
X228514630Y-169379249D01*
X228514631Y-169379254D01*
X228574211Y-169549523D01*
X228637646Y-169650478D01*
X228670184Y-169702262D01*
X228797738Y-169829816D01*
X228950478Y-169925789D01*
X229120745Y-169985368D01*
X229120750Y-169985369D01*
X229299996Y-170005565D01*
X229300000Y-170005565D01*
X229300004Y-170005565D01*
X229349430Y-169999996D01*
X249694435Y-169999996D01*
X249694435Y-170000003D01*
X249714630Y-170179249D01*
X249714633Y-170179262D01*
X249774209Y-170349520D01*
X249827309Y-170434029D01*
X249846309Y-170501266D01*
X249827309Y-170565971D01*
X249774209Y-170650479D01*
X249714633Y-170820737D01*
X249714630Y-170820750D01*
X249694435Y-170999996D01*
X249694435Y-171000003D01*
X249714630Y-171179249D01*
X249714631Y-171179254D01*
X249774211Y-171349523D01*
X249870184Y-171502262D01*
X249997738Y-171629816D01*
X250150478Y-171725789D01*
X250320745Y-171785368D01*
X250320750Y-171785369D01*
X250499996Y-171805565D01*
X250500000Y-171805565D01*
X250500004Y-171805565D01*
X250679249Y-171785369D01*
X250679252Y-171785368D01*
X250679255Y-171785368D01*
X250849522Y-171725789D01*
X251002262Y-171629816D01*
X251129816Y-171502262D01*
X251225789Y-171349522D01*
X251285368Y-171179255D01*
X251305565Y-171000000D01*
X251285368Y-170820745D01*
X251225789Y-170650478D01*
X251225788Y-170650475D01*
X251172691Y-170565973D01*
X251153690Y-170498736D01*
X251172691Y-170434027D01*
X251225788Y-170349524D01*
X251225789Y-170349522D01*
X251285368Y-170179255D01*
X251305565Y-170000000D01*
X251303916Y-169985369D01*
X251285369Y-169820750D01*
X251285368Y-169820745D01*
X251225788Y-169650476D01*
X251129815Y-169497737D01*
X251002262Y-169370184D01*
X250849523Y-169274211D01*
X250679254Y-169214631D01*
X250679249Y-169214630D01*
X250500004Y-169194435D01*
X250499996Y-169194435D01*
X250320750Y-169214630D01*
X250320745Y-169214631D01*
X250150476Y-169274211D01*
X249997737Y-169370184D01*
X249870184Y-169497737D01*
X249774211Y-169650476D01*
X249714631Y-169820745D01*
X249714630Y-169820750D01*
X249694435Y-169999996D01*
X229349430Y-169999996D01*
X229479249Y-169985369D01*
X229479252Y-169985368D01*
X229479255Y-169985368D01*
X229649522Y-169925789D01*
X229802262Y-169829816D01*
X229929816Y-169702262D01*
X230025789Y-169549522D01*
X230085368Y-169379255D01*
X230097204Y-169274211D01*
X230105565Y-169200003D01*
X230105565Y-169199996D01*
X230085369Y-169020750D01*
X230085368Y-169020745D01*
X230025788Y-168850476D01*
X229986582Y-168788080D01*
X229929816Y-168697738D01*
X229802262Y-168570184D01*
X229731608Y-168525789D01*
X229649523Y-168474211D01*
X229479254Y-168414631D01*
X229479249Y-168414630D01*
X229300004Y-168394435D01*
X229299996Y-168394435D01*
X229120750Y-168414630D01*
X229120745Y-168414631D01*
X228950476Y-168474211D01*
X228797737Y-168570184D01*
X228670184Y-168697737D01*
X228574211Y-168850476D01*
X228514631Y-169020745D01*
X228514630Y-169020750D01*
X228494435Y-169199996D01*
X207549362Y-169199996D01*
X207500004Y-169194435D01*
X207499996Y-169194435D01*
X207320750Y-169214630D01*
X207320745Y-169214631D01*
X207150476Y-169274211D01*
X206997737Y-169370184D01*
X206870184Y-169497737D01*
X206774211Y-169650476D01*
X206714631Y-169820745D01*
X206714630Y-169820750D01*
X206694435Y-169999996D01*
X202305565Y-169999996D01*
X202303916Y-169985369D01*
X202285369Y-169820750D01*
X202285368Y-169820745D01*
X202225788Y-169650476D01*
X202129815Y-169497737D01*
X202002262Y-169370184D01*
X201849523Y-169274211D01*
X201679254Y-169214631D01*
X201679249Y-169214630D01*
X201500004Y-169194435D01*
X201499996Y-169194435D01*
X201320750Y-169214630D01*
X201320745Y-169214631D01*
X201150476Y-169274211D01*
X200997737Y-169370184D01*
X200870184Y-169497737D01*
X200774211Y-169650476D01*
X200714631Y-169820745D01*
X200714630Y-169820750D01*
X200694435Y-169999996D01*
X198305565Y-169999996D01*
X198303916Y-169985369D01*
X198285369Y-169820750D01*
X198285368Y-169820745D01*
X198225788Y-169650476D01*
X198129815Y-169497737D01*
X198002262Y-169370184D01*
X197849523Y-169274211D01*
X197679254Y-169214631D01*
X197679249Y-169214630D01*
X197500004Y-169194435D01*
X197499996Y-169194435D01*
X197320750Y-169214630D01*
X197320745Y-169214631D01*
X197150476Y-169274211D01*
X196997737Y-169370184D01*
X196870184Y-169497737D01*
X196774211Y-169650476D01*
X196714631Y-169820745D01*
X196714630Y-169820750D01*
X196694435Y-169999996D01*
X195305565Y-169999996D01*
X195303916Y-169985369D01*
X195285369Y-169820750D01*
X195285368Y-169820745D01*
X195225788Y-169650476D01*
X195129815Y-169497737D01*
X195002262Y-169370184D01*
X194849523Y-169274211D01*
X194679254Y-169214631D01*
X194679249Y-169214630D01*
X194500004Y-169194435D01*
X194499996Y-169194435D01*
X194320750Y-169214630D01*
X194320745Y-169214631D01*
X194150476Y-169274211D01*
X193997737Y-169370184D01*
X193870184Y-169497737D01*
X193774211Y-169650476D01*
X193714631Y-169820745D01*
X193714630Y-169820750D01*
X193694435Y-169999996D01*
X192305565Y-169999996D01*
X192303916Y-169985369D01*
X192285369Y-169820750D01*
X192285368Y-169820745D01*
X192225788Y-169650476D01*
X192129815Y-169497737D01*
X192002262Y-169370184D01*
X191849523Y-169274211D01*
X191679254Y-169214631D01*
X191679249Y-169214630D01*
X191500004Y-169194435D01*
X191499996Y-169194435D01*
X191320750Y-169214630D01*
X191320745Y-169214631D01*
X191150476Y-169274211D01*
X190997737Y-169370184D01*
X190870184Y-169497737D01*
X190774211Y-169650476D01*
X190714631Y-169820745D01*
X190714630Y-169820750D01*
X190694435Y-169999996D01*
X189349430Y-169999996D01*
X189479249Y-169985369D01*
X189479252Y-169985368D01*
X189479255Y-169985368D01*
X189649522Y-169925789D01*
X189802262Y-169829816D01*
X189929816Y-169702262D01*
X190025789Y-169549522D01*
X190085368Y-169379255D01*
X190097204Y-169274211D01*
X190105565Y-169200003D01*
X190105565Y-169199996D01*
X190085369Y-169020750D01*
X190085368Y-169020745D01*
X190025788Y-168850476D01*
X189986582Y-168788080D01*
X189929816Y-168697738D01*
X189802262Y-168570184D01*
X189731608Y-168525789D01*
X189649523Y-168474211D01*
X189479254Y-168414631D01*
X189479249Y-168414630D01*
X189300004Y-168394435D01*
X189299996Y-168394435D01*
X189120750Y-168414630D01*
X189120745Y-168414631D01*
X188950476Y-168474211D01*
X188797737Y-168570184D01*
X188670184Y-168697737D01*
X188574211Y-168850476D01*
X188514631Y-169020745D01*
X188514630Y-169020750D01*
X188494435Y-169199996D01*
X103000000Y-169199996D01*
X103000000Y-168199996D01*
X213294435Y-168199996D01*
X213294435Y-168200003D01*
X213314630Y-168379249D01*
X213314631Y-168379254D01*
X213374211Y-168549523D01*
X213396735Y-168585369D01*
X213470184Y-168702262D01*
X213597738Y-168829816D01*
X213750478Y-168925789D01*
X213920745Y-168985368D01*
X213920750Y-168985369D01*
X214099996Y-169005565D01*
X214100000Y-169005565D01*
X214100004Y-169005565D01*
X214279249Y-168985369D01*
X214279252Y-168985368D01*
X214279255Y-168985368D01*
X214449522Y-168925789D01*
X214602262Y-168829816D01*
X214729816Y-168702262D01*
X214825789Y-168549522D01*
X214885368Y-168379255D01*
X214905565Y-168200000D01*
X214885368Y-168020745D01*
X214825789Y-167850478D01*
X214794069Y-167799996D01*
X221094435Y-167799996D01*
X221094435Y-167800003D01*
X221114630Y-167979249D01*
X221114631Y-167979254D01*
X221174211Y-168149523D01*
X221205926Y-168199996D01*
X221270184Y-168302262D01*
X221397738Y-168429816D01*
X221550478Y-168525789D01*
X221618306Y-168549523D01*
X221720745Y-168585368D01*
X221720750Y-168585369D01*
X221899996Y-168605565D01*
X221900000Y-168605565D01*
X221900004Y-168605565D01*
X222079249Y-168585369D01*
X222079252Y-168585368D01*
X222079255Y-168585368D01*
X222249522Y-168525789D01*
X222402262Y-168429816D01*
X222529816Y-168302262D01*
X222625789Y-168149522D01*
X222685368Y-167979255D01*
X222705565Y-167800000D01*
X222685368Y-167620745D01*
X222625789Y-167450478D01*
X222603265Y-167414632D01*
X222586582Y-167388080D01*
X222529816Y-167297738D01*
X222402262Y-167170184D01*
X222369379Y-167149522D01*
X222249523Y-167074211D01*
X222079254Y-167014631D01*
X222079249Y-167014630D01*
X221900004Y-166994435D01*
X221899996Y-166994435D01*
X221720750Y-167014630D01*
X221720745Y-167014631D01*
X221550476Y-167074211D01*
X221397737Y-167170184D01*
X221270184Y-167297737D01*
X221174211Y-167450476D01*
X221114631Y-167620745D01*
X221114630Y-167620750D01*
X221094435Y-167799996D01*
X214794069Y-167799996D01*
X214729816Y-167697738D01*
X214602262Y-167570184D01*
X214531608Y-167525789D01*
X214449523Y-167474211D01*
X214279254Y-167414631D01*
X214279249Y-167414630D01*
X214100004Y-167394435D01*
X214099996Y-167394435D01*
X213920750Y-167414630D01*
X213920745Y-167414631D01*
X213750476Y-167474211D01*
X213597737Y-167570184D01*
X213470184Y-167697737D01*
X213374211Y-167850476D01*
X213314631Y-168020745D01*
X213314630Y-168020750D01*
X213294435Y-168199996D01*
X103000000Y-168199996D01*
X103000000Y-166799996D01*
X244494435Y-166799996D01*
X244494435Y-166800003D01*
X244514630Y-166979249D01*
X244514631Y-166979254D01*
X244574211Y-167149523D01*
X244667341Y-167297737D01*
X244670184Y-167302262D01*
X244797738Y-167429816D01*
X244950478Y-167525789D01*
X245077352Y-167570184D01*
X245120745Y-167585368D01*
X245120750Y-167585369D01*
X245299996Y-167605565D01*
X245300000Y-167605565D01*
X245300004Y-167605565D01*
X245479249Y-167585369D01*
X245479252Y-167585368D01*
X245479255Y-167585368D01*
X245649522Y-167525789D01*
X245802262Y-167429816D01*
X245929816Y-167302262D01*
X246025789Y-167149522D01*
X246085368Y-166979255D01*
X246105565Y-166800000D01*
X246085368Y-166620745D01*
X246025789Y-166450478D01*
X245929816Y-166297738D01*
X245802262Y-166170184D01*
X245649523Y-166074211D01*
X245479254Y-166014631D01*
X245479249Y-166014630D01*
X245300004Y-165994435D01*
X245299996Y-165994435D01*
X245120750Y-166014630D01*
X245120745Y-166014631D01*
X244950476Y-166074211D01*
X244797737Y-166170184D01*
X244670184Y-166297737D01*
X244574211Y-166450476D01*
X244514631Y-166620745D01*
X244514630Y-166620750D01*
X244494435Y-166799996D01*
X103000000Y-166799996D01*
X103000000Y-164199996D01*
X218094435Y-164199996D01*
X218094435Y-164200003D01*
X218114630Y-164379249D01*
X218114631Y-164379254D01*
X218174211Y-164549523D01*
X218270184Y-164702262D01*
X218397738Y-164829816D01*
X218550478Y-164925789D01*
X218720745Y-164985368D01*
X218720750Y-164985369D01*
X218899996Y-165005565D01*
X218900000Y-165005565D01*
X218900004Y-165005565D01*
X219079249Y-164985369D01*
X219079252Y-164985368D01*
X219079255Y-164985368D01*
X219249522Y-164925789D01*
X219402262Y-164829816D01*
X219529816Y-164702262D01*
X219625789Y-164549522D01*
X219685368Y-164379255D01*
X219705565Y-164200000D01*
X219685368Y-164020745D01*
X219625789Y-163850478D01*
X219529816Y-163697738D01*
X219402262Y-163570184D01*
X219249523Y-163474211D01*
X219079254Y-163414631D01*
X219079249Y-163414630D01*
X218900004Y-163394435D01*
X218899996Y-163394435D01*
X218720750Y-163414630D01*
X218720745Y-163414631D01*
X218550476Y-163474211D01*
X218397737Y-163570184D01*
X218270184Y-163697737D01*
X218174211Y-163850476D01*
X218114631Y-164020745D01*
X218114630Y-164020750D01*
X218094435Y-164199996D01*
X103000000Y-164199996D01*
X103000000Y-162999996D01*
X119194435Y-162999996D01*
X119194435Y-163000003D01*
X119214630Y-163179249D01*
X119214631Y-163179254D01*
X119274211Y-163349523D01*
X119315122Y-163414632D01*
X119370184Y-163502262D01*
X119497738Y-163629816D01*
X119588080Y-163686582D01*
X119605833Y-163697737D01*
X119650478Y-163725789D01*
X119820745Y-163785368D01*
X119820750Y-163785369D01*
X119999996Y-163805565D01*
X120000000Y-163805565D01*
X120000004Y-163805565D01*
X120179249Y-163785369D01*
X120179252Y-163785368D01*
X120179255Y-163785368D01*
X120349522Y-163725789D01*
X120502262Y-163629816D01*
X120629816Y-163502262D01*
X120725789Y-163349522D01*
X120785368Y-163179255D01*
X120805565Y-163000000D01*
X120805565Y-162999996D01*
X157194435Y-162999996D01*
X157194435Y-163000003D01*
X157214630Y-163179249D01*
X157214631Y-163179254D01*
X157274211Y-163349523D01*
X157315122Y-163414632D01*
X157370184Y-163502262D01*
X157497738Y-163629816D01*
X157588080Y-163686582D01*
X157605833Y-163697737D01*
X157650478Y-163725789D01*
X157820745Y-163785368D01*
X157820750Y-163785369D01*
X157999996Y-163805565D01*
X158000000Y-163805565D01*
X158000004Y-163805565D01*
X158179249Y-163785369D01*
X158179252Y-163785368D01*
X158179255Y-163785368D01*
X158349522Y-163725789D01*
X158502262Y-163629816D01*
X158629816Y-163502262D01*
X158725789Y-163349522D01*
X158785368Y-163179255D01*
X158805565Y-163000000D01*
X158805565Y-162999996D01*
X271194435Y-162999996D01*
X271194435Y-163000003D01*
X271214630Y-163179249D01*
X271214631Y-163179254D01*
X271274211Y-163349523D01*
X271315122Y-163414632D01*
X271370184Y-163502262D01*
X271497738Y-163629816D01*
X271588080Y-163686582D01*
X271605833Y-163697737D01*
X271650478Y-163725789D01*
X271820745Y-163785368D01*
X271820750Y-163785369D01*
X271999996Y-163805565D01*
X272000000Y-163805565D01*
X272000004Y-163805565D01*
X272179249Y-163785369D01*
X272179252Y-163785368D01*
X272179255Y-163785368D01*
X272349522Y-163725789D01*
X272502262Y-163629816D01*
X272629816Y-163502262D01*
X272725789Y-163349522D01*
X272785368Y-163179255D01*
X272805565Y-163000000D01*
X272785368Y-162820745D01*
X272725789Y-162650478D01*
X272629816Y-162497738D01*
X272502262Y-162370184D01*
X272349523Y-162274211D01*
X272179254Y-162214631D01*
X272179249Y-162214630D01*
X272000004Y-162194435D01*
X271999996Y-162194435D01*
X271820750Y-162214630D01*
X271820745Y-162214631D01*
X271650476Y-162274211D01*
X271497737Y-162370184D01*
X271370184Y-162497737D01*
X271274211Y-162650476D01*
X271214631Y-162820745D01*
X271214630Y-162820750D01*
X271194435Y-162999996D01*
X158805565Y-162999996D01*
X158785368Y-162820745D01*
X158725789Y-162650478D01*
X158629816Y-162497738D01*
X158502262Y-162370184D01*
X158349523Y-162274211D01*
X158179254Y-162214631D01*
X158179249Y-162214630D01*
X158000004Y-162194435D01*
X157999996Y-162194435D01*
X157820750Y-162214630D01*
X157820745Y-162214631D01*
X157650476Y-162274211D01*
X157497737Y-162370184D01*
X157370184Y-162497737D01*
X157274211Y-162650476D01*
X157214631Y-162820745D01*
X157214630Y-162820750D01*
X157194435Y-162999996D01*
X120805565Y-162999996D01*
X120785368Y-162820745D01*
X120725789Y-162650478D01*
X120629816Y-162497738D01*
X120502262Y-162370184D01*
X120349523Y-162274211D01*
X120179254Y-162214631D01*
X120179249Y-162214630D01*
X120000004Y-162194435D01*
X119999996Y-162194435D01*
X119820750Y-162214630D01*
X119820745Y-162214631D01*
X119650476Y-162274211D01*
X119497737Y-162370184D01*
X119370184Y-162497737D01*
X119274211Y-162650476D01*
X119214631Y-162820745D01*
X119214630Y-162820750D01*
X119194435Y-162999996D01*
X103000000Y-162999996D01*
X103000000Y-157999996D01*
X287194435Y-157999996D01*
X287194435Y-158000003D01*
X287214630Y-158179249D01*
X287214631Y-158179254D01*
X287274211Y-158349523D01*
X287370184Y-158502262D01*
X287497738Y-158629816D01*
X287650478Y-158725789D01*
X287820745Y-158785368D01*
X287820750Y-158785369D01*
X287999996Y-158805565D01*
X288000000Y-158805565D01*
X288000004Y-158805565D01*
X288179249Y-158785369D01*
X288179252Y-158785368D01*
X288179255Y-158785368D01*
X288349522Y-158725789D01*
X288502262Y-158629816D01*
X288629816Y-158502262D01*
X288725789Y-158349522D01*
X288785368Y-158179255D01*
X288805565Y-158000000D01*
X288785368Y-157820745D01*
X288725789Y-157650478D01*
X288629816Y-157497738D01*
X288502262Y-157370184D01*
X288349523Y-157274211D01*
X288179254Y-157214631D01*
X288179249Y-157214630D01*
X288000004Y-157194435D01*
X287999996Y-157194435D01*
X287820750Y-157214630D01*
X287820745Y-157214631D01*
X287650476Y-157274211D01*
X287497737Y-157370184D01*
X287370184Y-157497737D01*
X287274211Y-157650476D01*
X287214631Y-157820745D01*
X287214630Y-157820750D01*
X287194435Y-157999996D01*
X103000000Y-157999996D01*
X103000000Y-155999996D01*
X189694435Y-155999996D01*
X189694435Y-156000003D01*
X189714630Y-156179249D01*
X189714631Y-156179254D01*
X189774211Y-156349523D01*
X189870184Y-156502262D01*
X189997738Y-156629816D01*
X190150478Y-156725789D01*
X190320745Y-156785368D01*
X190320750Y-156785369D01*
X190499996Y-156805565D01*
X190500000Y-156805565D01*
X190500004Y-156805565D01*
X190679249Y-156785369D01*
X190679252Y-156785368D01*
X190679255Y-156785368D01*
X190849522Y-156725789D01*
X191002262Y-156629816D01*
X191129816Y-156502262D01*
X191225789Y-156349522D01*
X191285368Y-156179255D01*
X191285369Y-156179249D01*
X191305565Y-156000003D01*
X191305565Y-155999996D01*
X229394435Y-155999996D01*
X229394435Y-156000003D01*
X229414630Y-156179249D01*
X229414631Y-156179254D01*
X229474211Y-156349523D01*
X229570184Y-156502262D01*
X229697738Y-156629816D01*
X229850478Y-156725789D01*
X230020745Y-156785368D01*
X230020750Y-156785369D01*
X230199996Y-156805565D01*
X230200000Y-156805565D01*
X230200004Y-156805565D01*
X230379249Y-156785369D01*
X230379252Y-156785368D01*
X230379255Y-156785368D01*
X230549522Y-156725789D01*
X230702262Y-156629816D01*
X230829816Y-156502262D01*
X230925789Y-156349522D01*
X230985368Y-156179255D01*
X230985369Y-156179249D01*
X231005565Y-156000003D01*
X231005565Y-155999996D01*
X230985369Y-155820750D01*
X230985368Y-155820745D01*
X230952141Y-155725788D01*
X230925789Y-155650478D01*
X230898773Y-155607483D01*
X230861316Y-155547870D01*
X230829816Y-155497738D01*
X230702262Y-155370184D01*
X230669379Y-155349522D01*
X230549523Y-155274211D01*
X230379254Y-155214631D01*
X230379249Y-155214630D01*
X230200004Y-155194435D01*
X230199996Y-155194435D01*
X230020750Y-155214630D01*
X230020745Y-155214631D01*
X229850476Y-155274211D01*
X229697737Y-155370184D01*
X229570184Y-155497737D01*
X229474211Y-155650476D01*
X229414631Y-155820745D01*
X229414630Y-155820750D01*
X229394435Y-155999996D01*
X191305565Y-155999996D01*
X191285369Y-155820750D01*
X191285368Y-155820745D01*
X191252141Y-155725788D01*
X191225789Y-155650478D01*
X191198773Y-155607483D01*
X191161316Y-155547870D01*
X191129816Y-155497738D01*
X191002262Y-155370184D01*
X190969379Y-155349522D01*
X190849523Y-155274211D01*
X190679254Y-155214631D01*
X190679249Y-155214630D01*
X190500004Y-155194435D01*
X190499996Y-155194435D01*
X190320750Y-155214630D01*
X190320745Y-155214631D01*
X190150476Y-155274211D01*
X189997737Y-155370184D01*
X189870184Y-155497737D01*
X189774211Y-155650476D01*
X189714631Y-155820745D01*
X189714630Y-155820750D01*
X189694435Y-155999996D01*
X103000000Y-155999996D01*
X103000000Y-154999996D01*
X206694435Y-154999996D01*
X206694435Y-155000003D01*
X206714630Y-155179249D01*
X206714631Y-155179254D01*
X206774211Y-155349523D01*
X206867341Y-155497737D01*
X206870184Y-155502262D01*
X206997738Y-155629816D01*
X207150478Y-155725789D01*
X207197764Y-155742335D01*
X207320745Y-155785368D01*
X207320750Y-155785369D01*
X207499996Y-155805565D01*
X207500000Y-155805565D01*
X207500004Y-155805565D01*
X207679249Y-155785369D01*
X207679252Y-155785368D01*
X207679255Y-155785368D01*
X207849522Y-155725789D01*
X208002262Y-155629816D01*
X208129816Y-155502262D01*
X208225789Y-155349522D01*
X208285368Y-155179255D01*
X208305565Y-155000000D01*
X208285368Y-154820745D01*
X208225789Y-154650478D01*
X208129816Y-154497738D01*
X208002262Y-154370184D01*
X207994012Y-154365000D01*
X207849523Y-154274211D01*
X207679254Y-154214631D01*
X207679249Y-154214630D01*
X207500004Y-154194435D01*
X207499996Y-154194435D01*
X207320750Y-154214630D01*
X207320745Y-154214631D01*
X207150476Y-154274211D01*
X206997737Y-154370184D01*
X206870184Y-154497737D01*
X206774211Y-154650476D01*
X206714631Y-154820745D01*
X206714630Y-154820750D01*
X206694435Y-154999996D01*
X103000000Y-154999996D01*
X103000000Y-153730000D01*
X286994659Y-153730000D01*
X287013975Y-153926129D01*
X287071187Y-154114729D01*
X287072321Y-154116850D01*
X287072580Y-154118094D01*
X287073518Y-154120359D01*
X287073088Y-154120536D01*
X287086564Y-154185253D01*
X287062233Y-154249614D01*
X287056205Y-154257666D01*
X287056202Y-154257671D01*
X287005908Y-154392517D01*
X286999501Y-154452116D01*
X286999500Y-154452135D01*
X286999500Y-155547870D01*
X286999501Y-155547876D01*
X287005908Y-155607483D01*
X287056202Y-155742328D01*
X287056206Y-155742335D01*
X287142452Y-155857544D01*
X287142455Y-155857547D01*
X287257664Y-155943793D01*
X287257671Y-155943797D01*
X287392517Y-155994091D01*
X287392516Y-155994091D01*
X287399444Y-155994835D01*
X287452127Y-156000500D01*
X288547872Y-156000499D01*
X288607483Y-155994091D01*
X288742331Y-155943796D01*
X288750379Y-155937770D01*
X288815842Y-155913351D01*
X288879474Y-155926895D01*
X288879645Y-155926483D01*
X288881875Y-155927406D01*
X288883146Y-155927677D01*
X288885273Y-155928814D01*
X289073868Y-155986024D01*
X289270000Y-156005341D01*
X289466132Y-155986024D01*
X289654727Y-155928814D01*
X289828538Y-155835910D01*
X289828544Y-155835904D01*
X289833607Y-155832523D01*
X289834703Y-155834164D01*
X289890639Y-155810405D01*
X289959507Y-155822194D01*
X289976148Y-155832888D01*
X289976393Y-155832523D01*
X289981458Y-155835907D01*
X289981462Y-155835910D01*
X290126344Y-155913351D01*
X290153147Y-155927678D01*
X290155273Y-155928814D01*
X290343868Y-155986024D01*
X290540000Y-156005341D01*
X290736132Y-155986024D01*
X290924727Y-155928814D01*
X291098538Y-155835910D01*
X291098544Y-155835904D01*
X291103607Y-155832523D01*
X291104703Y-155834164D01*
X291160639Y-155810405D01*
X291229507Y-155822194D01*
X291246148Y-155832888D01*
X291246393Y-155832523D01*
X291251458Y-155835907D01*
X291251462Y-155835910D01*
X291396344Y-155913351D01*
X291423147Y-155927678D01*
X291425273Y-155928814D01*
X291613868Y-155986024D01*
X291810000Y-156005341D01*
X292006132Y-155986024D01*
X292194727Y-155928814D01*
X292368538Y-155835910D01*
X292368544Y-155835904D01*
X292373607Y-155832523D01*
X292374703Y-155834164D01*
X292430639Y-155810405D01*
X292499507Y-155822194D01*
X292516148Y-155832888D01*
X292516393Y-155832523D01*
X292521458Y-155835907D01*
X292521462Y-155835910D01*
X292666344Y-155913351D01*
X292693147Y-155927678D01*
X292695273Y-155928814D01*
X292883868Y-155986024D01*
X293080000Y-156005341D01*
X293276132Y-155986024D01*
X293464727Y-155928814D01*
X293638538Y-155835910D01*
X293638544Y-155835904D01*
X293643607Y-155832523D01*
X293644703Y-155834164D01*
X293700639Y-155810405D01*
X293769507Y-155822194D01*
X293786148Y-155832888D01*
X293786393Y-155832523D01*
X293791458Y-155835907D01*
X293791462Y-155835910D01*
X293936344Y-155913351D01*
X293963147Y-155927678D01*
X293965273Y-155928814D01*
X294153868Y-155986024D01*
X294350000Y-156005341D01*
X294546132Y-155986024D01*
X294734727Y-155928814D01*
X294908538Y-155835910D01*
X294908544Y-155835904D01*
X294913607Y-155832523D01*
X294914703Y-155834164D01*
X294970639Y-155810405D01*
X295039507Y-155822194D01*
X295056148Y-155832888D01*
X295056393Y-155832523D01*
X295061458Y-155835907D01*
X295061462Y-155835910D01*
X295206344Y-155913351D01*
X295233147Y-155927678D01*
X295235273Y-155928814D01*
X295423868Y-155986024D01*
X295620000Y-156005341D01*
X295816132Y-155986024D01*
X296004727Y-155928814D01*
X296006853Y-155927678D01*
X296138060Y-155857546D01*
X296178538Y-155835910D01*
X296330883Y-155710883D01*
X296455910Y-155558538D01*
X296548814Y-155384727D01*
X296606024Y-155196132D01*
X296625341Y-155000000D01*
X296606024Y-154803868D01*
X296548814Y-154615273D01*
X296455910Y-154441462D01*
X296455907Y-154441458D01*
X296452523Y-154436393D01*
X296454164Y-154435296D01*
X296430405Y-154379361D01*
X296442194Y-154310493D01*
X296452888Y-154293851D01*
X296452523Y-154293607D01*
X296455904Y-154288544D01*
X296455910Y-154288538D01*
X296548814Y-154114727D01*
X296606024Y-153926132D01*
X296625341Y-153730000D01*
X296606024Y-153533868D01*
X296548814Y-153345273D01*
X296548811Y-153345269D01*
X296548811Y-153345266D01*
X296455913Y-153171467D01*
X296455909Y-153171460D01*
X296330883Y-153019116D01*
X296178539Y-152894090D01*
X296178532Y-152894086D01*
X296004733Y-152801188D01*
X296004727Y-152801186D01*
X295816132Y-152743976D01*
X295816129Y-152743975D01*
X295620000Y-152724659D01*
X295423870Y-152743975D01*
X295235266Y-152801188D01*
X295061467Y-152894086D01*
X295056399Y-152897473D01*
X295055305Y-152895836D01*
X294999337Y-152919596D01*
X294930471Y-152907795D01*
X294913843Y-152897109D01*
X294913601Y-152897473D01*
X294908532Y-152894086D01*
X294734733Y-152801188D01*
X294734727Y-152801186D01*
X294546132Y-152743976D01*
X294546129Y-152743975D01*
X294350000Y-152724659D01*
X294153870Y-152743975D01*
X293965266Y-152801188D01*
X293791467Y-152894086D01*
X293786399Y-152897473D01*
X293785305Y-152895836D01*
X293729337Y-152919596D01*
X293660471Y-152907795D01*
X293643843Y-152897109D01*
X293643601Y-152897473D01*
X293638532Y-152894086D01*
X293464733Y-152801188D01*
X293464727Y-152801186D01*
X293276132Y-152743976D01*
X293276129Y-152743975D01*
X293080000Y-152724659D01*
X292883870Y-152743975D01*
X292695266Y-152801188D01*
X292521467Y-152894086D01*
X292516399Y-152897473D01*
X292515305Y-152895836D01*
X292459337Y-152919596D01*
X292390471Y-152907795D01*
X292373843Y-152897109D01*
X292373601Y-152897473D01*
X292368532Y-152894086D01*
X292194733Y-152801188D01*
X292194727Y-152801186D01*
X292006132Y-152743976D01*
X292006129Y-152743975D01*
X291810000Y-152724659D01*
X291613870Y-152743975D01*
X291425266Y-152801188D01*
X291251467Y-152894086D01*
X291246399Y-152897473D01*
X291245305Y-152895836D01*
X291189337Y-152919596D01*
X291120471Y-152907795D01*
X291103843Y-152897109D01*
X291103601Y-152897473D01*
X291098532Y-152894086D01*
X290924733Y-152801188D01*
X290924727Y-152801186D01*
X290736132Y-152743976D01*
X290736129Y-152743975D01*
X290540000Y-152724659D01*
X290343870Y-152743975D01*
X290155266Y-152801188D01*
X289981467Y-152894086D01*
X289976399Y-152897473D01*
X289975305Y-152895836D01*
X289919337Y-152919596D01*
X289850471Y-152907795D01*
X289833843Y-152897109D01*
X289833601Y-152897473D01*
X289828532Y-152894086D01*
X289654733Y-152801188D01*
X289654727Y-152801186D01*
X289466132Y-152743976D01*
X289466129Y-152743975D01*
X289270000Y-152724659D01*
X289073870Y-152743975D01*
X288885266Y-152801188D01*
X288711467Y-152894086D01*
X288706399Y-152897473D01*
X288705305Y-152895836D01*
X288649337Y-152919596D01*
X288580471Y-152907795D01*
X288563843Y-152897109D01*
X288563601Y-152897473D01*
X288558532Y-152894086D01*
X288384733Y-152801188D01*
X288384727Y-152801186D01*
X288196132Y-152743976D01*
X288196129Y-152743975D01*
X288000000Y-152724659D01*
X287803870Y-152743975D01*
X287615266Y-152801188D01*
X287441467Y-152894086D01*
X287441460Y-152894090D01*
X287289116Y-153019116D01*
X287164090Y-153171460D01*
X287164086Y-153171467D01*
X287071188Y-153345266D01*
X287013975Y-153533870D01*
X286994659Y-153730000D01*
X103000000Y-153730000D01*
X103000000Y-150999996D01*
X195794435Y-150999996D01*
X195794435Y-151000003D01*
X195814630Y-151179249D01*
X195814631Y-151179254D01*
X195874211Y-151349523D01*
X195970184Y-151502262D01*
X196097738Y-151629816D01*
X196250478Y-151725789D01*
X196420745Y-151785368D01*
X196420750Y-151785369D01*
X196599996Y-151805565D01*
X196600000Y-151805565D01*
X196600004Y-151805565D01*
X196779249Y-151785369D01*
X196779252Y-151785368D01*
X196779255Y-151785368D01*
X196949522Y-151725789D01*
X197102262Y-151629816D01*
X197229816Y-151502262D01*
X197325789Y-151349522D01*
X197385368Y-151179255D01*
X197405565Y-151000000D01*
X197385368Y-150820745D01*
X197325789Y-150650478D01*
X197229816Y-150497738D01*
X197102262Y-150370184D01*
X196949523Y-150274211D01*
X196779254Y-150214631D01*
X196779249Y-150214630D01*
X196600004Y-150194435D01*
X196599996Y-150194435D01*
X196420750Y-150214630D01*
X196420745Y-150214631D01*
X196250476Y-150274211D01*
X196097737Y-150370184D01*
X195970184Y-150497737D01*
X195874211Y-150650476D01*
X195814631Y-150820745D01*
X195814630Y-150820750D01*
X195794435Y-150999996D01*
X103000000Y-150999996D01*
X103000000Y-149199996D01*
X153294435Y-149199996D01*
X153294435Y-149200003D01*
X153314630Y-149379249D01*
X153314631Y-149379254D01*
X153374211Y-149549523D01*
X153424662Y-149629815D01*
X153470184Y-149702262D01*
X153597738Y-149829816D01*
X153750478Y-149925789D01*
X153920745Y-149985368D01*
X153920750Y-149985369D01*
X154099996Y-150005565D01*
X154100000Y-150005565D01*
X154100004Y-150005565D01*
X154279249Y-149985369D01*
X154279252Y-149985368D01*
X154279255Y-149985368D01*
X154449522Y-149925789D01*
X154602262Y-149829816D01*
X154729816Y-149702262D01*
X154825789Y-149549522D01*
X154885368Y-149379255D01*
X154905565Y-149200000D01*
X154885368Y-149020745D01*
X154878108Y-148999996D01*
X228994435Y-148999996D01*
X228994435Y-149000003D01*
X229014630Y-149179249D01*
X229014631Y-149179254D01*
X229074211Y-149349523D01*
X229170184Y-149502262D01*
X229297738Y-149629816D01*
X229450478Y-149725789D01*
X229620745Y-149785368D01*
X229620750Y-149785369D01*
X229799996Y-149805565D01*
X229800000Y-149805565D01*
X229800004Y-149805565D01*
X229979249Y-149785369D01*
X229979252Y-149785368D01*
X229979255Y-149785368D01*
X230149522Y-149725789D01*
X230302262Y-149629816D01*
X230429816Y-149502262D01*
X230525789Y-149349522D01*
X230585368Y-149179255D01*
X230605565Y-149000000D01*
X230588718Y-148850478D01*
X230585369Y-148820750D01*
X230585368Y-148820745D01*
X230542326Y-148697738D01*
X230525789Y-148650478D01*
X230429816Y-148497738D01*
X230302262Y-148370184D01*
X230269379Y-148349522D01*
X230149523Y-148274211D01*
X229979254Y-148214631D01*
X229979249Y-148214630D01*
X229800004Y-148194435D01*
X229799996Y-148194435D01*
X229620750Y-148214630D01*
X229620745Y-148214631D01*
X229450476Y-148274211D01*
X229297737Y-148370184D01*
X229170184Y-148497737D01*
X229074211Y-148650476D01*
X229014631Y-148820745D01*
X229014630Y-148820750D01*
X228994435Y-148999996D01*
X154878108Y-148999996D01*
X154825789Y-148850478D01*
X154807106Y-148820745D01*
X154784878Y-148785368D01*
X154729816Y-148697738D01*
X154602262Y-148570184D01*
X154531608Y-148525789D01*
X154449523Y-148474211D01*
X154279254Y-148414631D01*
X154279249Y-148414630D01*
X154100004Y-148394435D01*
X154099996Y-148394435D01*
X153920750Y-148414630D01*
X153920745Y-148414631D01*
X153750476Y-148474211D01*
X153597737Y-148570184D01*
X153470184Y-148697737D01*
X153374211Y-148850476D01*
X153314631Y-149020745D01*
X153314630Y-149020750D01*
X153294435Y-149199996D01*
X103000000Y-149199996D01*
X103000000Y-145999996D01*
X224694435Y-145999996D01*
X224694435Y-146000003D01*
X224714630Y-146179249D01*
X224714631Y-146179254D01*
X224774211Y-146349523D01*
X224870184Y-146502262D01*
X224997738Y-146629816D01*
X225150478Y-146725789D01*
X225150480Y-146725790D01*
X225313857Y-146782959D01*
X225370633Y-146823680D01*
X225396380Y-146888633D01*
X225382924Y-146957195D01*
X225334536Y-147007597D01*
X225313857Y-147017041D01*
X225150480Y-147074209D01*
X224997737Y-147170184D01*
X224870184Y-147297737D01*
X224774211Y-147450476D01*
X224714631Y-147620745D01*
X224714630Y-147620750D01*
X224694435Y-147799996D01*
X224694435Y-147800003D01*
X224714630Y-147979249D01*
X224714631Y-147979254D01*
X224774211Y-148149523D01*
X224815122Y-148214632D01*
X224870184Y-148302262D01*
X224997738Y-148429816D01*
X225068392Y-148474211D01*
X225105833Y-148497737D01*
X225150478Y-148525789D01*
X225277352Y-148570184D01*
X225320745Y-148585368D01*
X225320750Y-148585369D01*
X225499996Y-148605565D01*
X225500000Y-148605565D01*
X225500004Y-148605565D01*
X225679249Y-148585369D01*
X225679252Y-148585368D01*
X225679255Y-148585368D01*
X225849522Y-148525789D01*
X226002262Y-148429816D01*
X226129816Y-148302262D01*
X226225789Y-148149522D01*
X226278110Y-147999996D01*
X239394435Y-147999996D01*
X239394435Y-148000003D01*
X239414630Y-148179249D01*
X239414631Y-148179254D01*
X239474211Y-148349523D01*
X239515122Y-148414632D01*
X239570184Y-148502262D01*
X239697738Y-148629816D01*
X239788080Y-148686582D01*
X239805833Y-148697737D01*
X239850478Y-148725789D01*
X240020745Y-148785368D01*
X240020750Y-148785369D01*
X240199996Y-148805565D01*
X240200000Y-148805565D01*
X240200004Y-148805565D01*
X240379249Y-148785369D01*
X240379252Y-148785368D01*
X240379255Y-148785368D01*
X240549522Y-148725789D01*
X240702262Y-148629816D01*
X240829816Y-148502262D01*
X240925789Y-148349522D01*
X240985368Y-148179255D01*
X241005565Y-148000000D01*
X241005565Y-147999996D01*
X241494435Y-147999996D01*
X241494435Y-148000003D01*
X241514630Y-148179249D01*
X241514631Y-148179254D01*
X241574211Y-148349523D01*
X241615122Y-148414632D01*
X241670184Y-148502262D01*
X241797738Y-148629816D01*
X241888080Y-148686582D01*
X241905833Y-148697737D01*
X241950478Y-148725789D01*
X242120745Y-148785368D01*
X242120750Y-148785369D01*
X242299996Y-148805565D01*
X242300000Y-148805565D01*
X242300004Y-148805565D01*
X242479249Y-148785369D01*
X242479252Y-148785368D01*
X242479255Y-148785368D01*
X242649522Y-148725789D01*
X242802262Y-148629816D01*
X242929816Y-148502262D01*
X243025789Y-148349522D01*
X243085368Y-148179255D01*
X243105565Y-148000000D01*
X243085368Y-147820745D01*
X243025789Y-147650478D01*
X243007106Y-147620745D01*
X242929815Y-147497737D01*
X242802262Y-147370184D01*
X242649523Y-147274211D01*
X242479254Y-147214631D01*
X242479249Y-147214630D01*
X242300004Y-147194435D01*
X242299996Y-147194435D01*
X242120750Y-147214630D01*
X242120745Y-147214631D01*
X241950476Y-147274211D01*
X241797737Y-147370184D01*
X241670184Y-147497737D01*
X241574211Y-147650476D01*
X241514631Y-147820745D01*
X241514630Y-147820750D01*
X241494435Y-147999996D01*
X241005565Y-147999996D01*
X240985368Y-147820745D01*
X240925789Y-147650478D01*
X240907106Y-147620745D01*
X240829815Y-147497737D01*
X240702262Y-147370184D01*
X240549523Y-147274211D01*
X240379254Y-147214631D01*
X240379249Y-147214630D01*
X240200004Y-147194435D01*
X240199996Y-147194435D01*
X240020750Y-147214630D01*
X240020745Y-147214631D01*
X239850476Y-147274211D01*
X239697737Y-147370184D01*
X239570184Y-147497737D01*
X239474211Y-147650476D01*
X239414631Y-147820745D01*
X239414630Y-147820750D01*
X239394435Y-147999996D01*
X226278110Y-147999996D01*
X226285368Y-147979255D01*
X226305565Y-147800000D01*
X226288718Y-147650478D01*
X226285369Y-147620750D01*
X226285368Y-147620745D01*
X226242326Y-147497738D01*
X226225789Y-147450478D01*
X226129816Y-147297738D01*
X226002262Y-147170184D01*
X225849523Y-147074211D01*
X225686142Y-147017042D01*
X225629366Y-146976320D01*
X225603619Y-146911367D01*
X225617075Y-146842806D01*
X225665462Y-146792403D01*
X225686142Y-146782958D01*
X225849522Y-146725789D01*
X226002262Y-146629816D01*
X226129816Y-146502262D01*
X226225789Y-146349522D01*
X226285368Y-146179255D01*
X226305565Y-146000000D01*
X226305565Y-145999996D01*
X230694435Y-145999996D01*
X230694435Y-146000003D01*
X230714630Y-146179249D01*
X230714631Y-146179254D01*
X230774211Y-146349523D01*
X230870184Y-146502262D01*
X230997738Y-146629816D01*
X231150478Y-146725789D01*
X231320745Y-146785368D01*
X231320750Y-146785369D01*
X231499996Y-146805565D01*
X231500000Y-146805565D01*
X231500004Y-146805565D01*
X231679249Y-146785369D01*
X231679252Y-146785368D01*
X231679255Y-146785368D01*
X231849522Y-146725789D01*
X232002262Y-146629816D01*
X232129816Y-146502262D01*
X232225789Y-146349522D01*
X232285368Y-146179255D01*
X232305565Y-146000000D01*
X232305565Y-145999996D01*
X233694435Y-145999996D01*
X233694435Y-146000003D01*
X233714630Y-146179249D01*
X233714631Y-146179254D01*
X233774211Y-146349523D01*
X233870184Y-146502262D01*
X233997738Y-146629816D01*
X234150478Y-146725789D01*
X234320745Y-146785368D01*
X234320750Y-146785369D01*
X234499996Y-146805565D01*
X234500000Y-146805565D01*
X234500004Y-146805565D01*
X234679249Y-146785369D01*
X234679252Y-146785368D01*
X234679255Y-146785368D01*
X234849522Y-146725789D01*
X235002262Y-146629816D01*
X235129816Y-146502262D01*
X235225789Y-146349522D01*
X235285368Y-146179255D01*
X235305565Y-146000000D01*
X235285368Y-145820745D01*
X235225789Y-145650478D01*
X235129816Y-145497738D01*
X235002262Y-145370184D01*
X234849523Y-145274211D01*
X234679254Y-145214631D01*
X234679249Y-145214630D01*
X234500004Y-145194435D01*
X234499996Y-145194435D01*
X234320750Y-145214630D01*
X234320745Y-145214631D01*
X234150476Y-145274211D01*
X233997737Y-145370184D01*
X233870184Y-145497737D01*
X233774211Y-145650476D01*
X233714631Y-145820745D01*
X233714630Y-145820750D01*
X233694435Y-145999996D01*
X232305565Y-145999996D01*
X232285368Y-145820745D01*
X232225789Y-145650478D01*
X232129816Y-145497738D01*
X232002262Y-145370184D01*
X231849523Y-145274211D01*
X231679254Y-145214631D01*
X231679249Y-145214630D01*
X231500004Y-145194435D01*
X231499996Y-145194435D01*
X231320750Y-145214630D01*
X231320745Y-145214631D01*
X231150476Y-145274211D01*
X230997737Y-145370184D01*
X230870184Y-145497737D01*
X230774211Y-145650476D01*
X230714631Y-145820745D01*
X230714630Y-145820750D01*
X230694435Y-145999996D01*
X226305565Y-145999996D01*
X226285368Y-145820745D01*
X226225789Y-145650478D01*
X226129816Y-145497738D01*
X226002262Y-145370184D01*
X225849523Y-145274211D01*
X225679254Y-145214631D01*
X225679249Y-145214630D01*
X225500004Y-145194435D01*
X225499996Y-145194435D01*
X225320750Y-145214630D01*
X225320745Y-145214631D01*
X225150476Y-145274211D01*
X224997737Y-145370184D01*
X224870184Y-145497737D01*
X224774211Y-145650476D01*
X224714631Y-145820745D01*
X224714630Y-145820750D01*
X224694435Y-145999996D01*
X103000000Y-145999996D01*
X103000000Y-140999996D01*
X161194435Y-140999996D01*
X161194435Y-141000003D01*
X161214630Y-141179249D01*
X161214631Y-141179254D01*
X161274211Y-141349523D01*
X161370184Y-141502262D01*
X161497738Y-141629816D01*
X161650478Y-141725789D01*
X161800000Y-141778109D01*
X161820745Y-141785368D01*
X161820750Y-141785369D01*
X161999996Y-141805565D01*
X162000000Y-141805565D01*
X162000003Y-141805565D01*
X162186116Y-141784595D01*
X162213884Y-141784595D01*
X162399997Y-141805565D01*
X162400000Y-141805565D01*
X162400003Y-141805565D01*
X162586116Y-141784595D01*
X162613884Y-141784595D01*
X162799997Y-141805565D01*
X162800000Y-141805565D01*
X162800003Y-141805565D01*
X162986116Y-141784595D01*
X163013884Y-141784595D01*
X163199997Y-141805565D01*
X163200000Y-141805565D01*
X163200004Y-141805565D01*
X163379249Y-141785369D01*
X163379252Y-141785368D01*
X163379255Y-141785368D01*
X163549522Y-141725789D01*
X163702262Y-141629816D01*
X163829816Y-141502262D01*
X163925789Y-141349522D01*
X163985368Y-141179255D01*
X164005565Y-141000000D01*
X164005565Y-140999996D01*
X231194435Y-140999996D01*
X231194435Y-141000003D01*
X231214630Y-141179249D01*
X231214631Y-141179254D01*
X231274211Y-141349523D01*
X231370184Y-141502262D01*
X231497738Y-141629816D01*
X231650478Y-141725789D01*
X231800000Y-141778109D01*
X231820745Y-141785368D01*
X231820750Y-141785369D01*
X231999996Y-141805565D01*
X232000000Y-141805565D01*
X232000003Y-141805565D01*
X232186116Y-141784595D01*
X232213884Y-141784595D01*
X232399997Y-141805565D01*
X232400000Y-141805565D01*
X232400003Y-141805565D01*
X232586116Y-141784595D01*
X232613884Y-141784595D01*
X232799997Y-141805565D01*
X232800000Y-141805565D01*
X232800003Y-141805565D01*
X232986116Y-141784595D01*
X233013884Y-141784595D01*
X233199997Y-141805565D01*
X233200000Y-141805565D01*
X233200004Y-141805565D01*
X233379249Y-141785369D01*
X233379252Y-141785368D01*
X233379255Y-141785368D01*
X233549522Y-141725789D01*
X233702262Y-141629816D01*
X233829816Y-141502262D01*
X233925789Y-141349522D01*
X233985368Y-141179255D01*
X234005565Y-141000000D01*
X233985368Y-140820745D01*
X233925789Y-140650478D01*
X233829816Y-140497738D01*
X233702262Y-140370184D01*
X233549523Y-140274211D01*
X233379254Y-140214631D01*
X233379249Y-140214630D01*
X233200004Y-140194435D01*
X233199996Y-140194435D01*
X233013883Y-140215404D01*
X232986117Y-140215404D01*
X232800004Y-140194435D01*
X232799996Y-140194435D01*
X232613883Y-140215404D01*
X232586117Y-140215404D01*
X232400004Y-140194435D01*
X232399996Y-140194435D01*
X232213883Y-140215404D01*
X232186117Y-140215404D01*
X232000004Y-140194435D01*
X231999996Y-140194435D01*
X231820750Y-140214630D01*
X231820745Y-140214631D01*
X231650476Y-140274211D01*
X231497737Y-140370184D01*
X231370184Y-140497737D01*
X231274211Y-140650476D01*
X231214631Y-140820745D01*
X231214630Y-140820750D01*
X231194435Y-140999996D01*
X164005565Y-140999996D01*
X163985368Y-140820745D01*
X163925789Y-140650478D01*
X163829816Y-140497738D01*
X163702262Y-140370184D01*
X163549523Y-140274211D01*
X163379254Y-140214631D01*
X163379249Y-140214630D01*
X163200004Y-140194435D01*
X163199996Y-140194435D01*
X163013883Y-140215404D01*
X162986117Y-140215404D01*
X162800004Y-140194435D01*
X162799996Y-140194435D01*
X162613883Y-140215404D01*
X162586117Y-140215404D01*
X162400004Y-140194435D01*
X162399996Y-140194435D01*
X162213883Y-140215404D01*
X162186117Y-140215404D01*
X162000004Y-140194435D01*
X161999996Y-140194435D01*
X161820750Y-140214630D01*
X161820745Y-140214631D01*
X161650476Y-140274211D01*
X161497737Y-140370184D01*
X161370184Y-140497737D01*
X161274211Y-140650476D01*
X161214631Y-140820745D01*
X161214630Y-140820750D01*
X161194435Y-140999996D01*
X103000000Y-140999996D01*
X103000000Y-138999996D01*
X157194435Y-138999996D01*
X157194435Y-139000003D01*
X157214630Y-139179249D01*
X157214631Y-139179254D01*
X157274211Y-139349523D01*
X157370184Y-139502262D01*
X157497738Y-139629816D01*
X157650478Y-139725789D01*
X157820745Y-139785368D01*
X157820750Y-139785369D01*
X157999996Y-139805565D01*
X158000000Y-139805565D01*
X158000004Y-139805565D01*
X158179249Y-139785369D01*
X158179252Y-139785368D01*
X158179255Y-139785368D01*
X158349522Y-139725789D01*
X158502262Y-139629816D01*
X158629816Y-139502262D01*
X158725789Y-139349522D01*
X158785368Y-139179255D01*
X158805565Y-139000000D01*
X158805565Y-138999996D01*
X227194435Y-138999996D01*
X227194435Y-139000003D01*
X227214630Y-139179249D01*
X227214631Y-139179254D01*
X227274211Y-139349523D01*
X227370184Y-139502262D01*
X227497738Y-139629816D01*
X227650478Y-139725789D01*
X227820745Y-139785368D01*
X227820750Y-139785369D01*
X227999996Y-139805565D01*
X228000000Y-139805565D01*
X228000004Y-139805565D01*
X228179249Y-139785369D01*
X228179252Y-139785368D01*
X228179255Y-139785368D01*
X228349522Y-139725789D01*
X228502262Y-139629816D01*
X228629816Y-139502262D01*
X228725789Y-139349522D01*
X228785368Y-139179255D01*
X228805565Y-139000000D01*
X228785368Y-138820745D01*
X228725789Y-138650478D01*
X228629816Y-138497738D01*
X228502262Y-138370184D01*
X228349523Y-138274211D01*
X228179254Y-138214631D01*
X228179249Y-138214630D01*
X228000004Y-138194435D01*
X227999996Y-138194435D01*
X227820750Y-138214630D01*
X227820745Y-138214631D01*
X227650476Y-138274211D01*
X227497737Y-138370184D01*
X227370184Y-138497737D01*
X227274211Y-138650476D01*
X227214631Y-138820745D01*
X227214630Y-138820750D01*
X227194435Y-138999996D01*
X158805565Y-138999996D01*
X158785368Y-138820745D01*
X158725789Y-138650478D01*
X158629816Y-138497738D01*
X158502262Y-138370184D01*
X158349523Y-138274211D01*
X158179254Y-138214631D01*
X158179249Y-138214630D01*
X158000004Y-138194435D01*
X157999996Y-138194435D01*
X157820750Y-138214630D01*
X157820745Y-138214631D01*
X157650476Y-138274211D01*
X157497737Y-138370184D01*
X157370184Y-138497737D01*
X157274211Y-138650476D01*
X157214631Y-138820745D01*
X157214630Y-138820750D01*
X157194435Y-138999996D01*
X103000000Y-138999996D01*
X103000000Y-135799996D01*
X157194435Y-135799996D01*
X157194435Y-135800003D01*
X157214630Y-135979249D01*
X157214631Y-135979254D01*
X157274211Y-136149523D01*
X157370184Y-136302262D01*
X157497738Y-136429816D01*
X157650478Y-136525789D01*
X157820745Y-136585368D01*
X157820750Y-136585369D01*
X157999996Y-136605565D01*
X158000000Y-136605565D01*
X158000004Y-136605565D01*
X158179249Y-136585369D01*
X158179252Y-136585368D01*
X158179255Y-136585368D01*
X158349522Y-136525789D01*
X158502262Y-136429816D01*
X158629816Y-136302262D01*
X158725789Y-136149522D01*
X158785368Y-135979255D01*
X158785369Y-135979249D01*
X158805565Y-135800003D01*
X158805565Y-135799996D01*
X227194435Y-135799996D01*
X227194435Y-135800003D01*
X227214630Y-135979249D01*
X227214631Y-135979254D01*
X227274211Y-136149523D01*
X227370184Y-136302262D01*
X227497738Y-136429816D01*
X227650478Y-136525789D01*
X227820745Y-136585368D01*
X227820750Y-136585369D01*
X227999996Y-136605565D01*
X228000000Y-136605565D01*
X228000004Y-136605565D01*
X228179249Y-136585369D01*
X228179252Y-136585368D01*
X228179255Y-136585368D01*
X228349522Y-136525789D01*
X228502262Y-136429816D01*
X228629816Y-136302262D01*
X228725789Y-136149522D01*
X228785368Y-135979255D01*
X228785369Y-135979249D01*
X228805565Y-135800003D01*
X228805565Y-135799996D01*
X228785369Y-135620750D01*
X228785368Y-135620745D01*
X228725788Y-135450476D01*
X228629815Y-135297737D01*
X228502262Y-135170184D01*
X228349523Y-135074211D01*
X228179254Y-135014631D01*
X228179249Y-135014630D01*
X228000004Y-134994435D01*
X227999996Y-134994435D01*
X227820750Y-135014630D01*
X227820745Y-135014631D01*
X227650476Y-135074211D01*
X227497737Y-135170184D01*
X227370184Y-135297737D01*
X227274211Y-135450476D01*
X227214631Y-135620745D01*
X227214630Y-135620750D01*
X227194435Y-135799996D01*
X158805565Y-135799996D01*
X158785369Y-135620750D01*
X158785368Y-135620745D01*
X158725788Y-135450476D01*
X158629815Y-135297737D01*
X158502262Y-135170184D01*
X158349523Y-135074211D01*
X158179254Y-135014631D01*
X158179249Y-135014630D01*
X158000004Y-134994435D01*
X157999996Y-134994435D01*
X157820750Y-135014630D01*
X157820745Y-135014631D01*
X157650476Y-135074211D01*
X157497737Y-135170184D01*
X157370184Y-135297737D01*
X157274211Y-135450476D01*
X157214631Y-135620745D01*
X157214630Y-135620750D01*
X157194435Y-135799996D01*
X103000000Y-135799996D01*
X103000000Y-133730000D01*
X286994659Y-133730000D01*
X287013975Y-133926129D01*
X287071187Y-134114729D01*
X287072321Y-134116850D01*
X287072580Y-134118094D01*
X287073518Y-134120359D01*
X287073088Y-134120536D01*
X287086564Y-134185253D01*
X287062233Y-134249614D01*
X287056205Y-134257666D01*
X287056202Y-134257671D01*
X287005908Y-134392517D01*
X286999501Y-134452116D01*
X286999500Y-134452135D01*
X286999500Y-135547870D01*
X286999501Y-135547876D01*
X287005908Y-135607483D01*
X287056202Y-135742328D01*
X287056206Y-135742335D01*
X287142452Y-135857544D01*
X287142455Y-135857547D01*
X287257664Y-135943793D01*
X287257671Y-135943797D01*
X287392517Y-135994091D01*
X287392516Y-135994091D01*
X287399444Y-135994835D01*
X287452127Y-136000500D01*
X288474875Y-136000499D01*
X288541914Y-136020183D01*
X288579869Y-136058527D01*
X288670184Y-136202262D01*
X288797738Y-136329816D01*
X288950478Y-136425789D01*
X288961984Y-136429815D01*
X289120745Y-136485368D01*
X289120750Y-136485369D01*
X289299996Y-136505565D01*
X289300000Y-136505565D01*
X289300004Y-136505565D01*
X289479249Y-136485369D01*
X289479252Y-136485368D01*
X289479255Y-136485368D01*
X289649522Y-136425789D01*
X289802262Y-136329816D01*
X289929816Y-136202262D01*
X290025789Y-136049522D01*
X290037131Y-136017107D01*
X290077851Y-135960331D01*
X290142803Y-135934582D01*
X290190165Y-135939398D01*
X290343868Y-135986024D01*
X290540000Y-136005341D01*
X290736132Y-135986024D01*
X290924727Y-135928814D01*
X291098538Y-135835910D01*
X291098544Y-135835904D01*
X291103607Y-135832523D01*
X291104703Y-135834164D01*
X291160639Y-135810405D01*
X291229507Y-135822194D01*
X291246148Y-135832888D01*
X291246393Y-135832523D01*
X291251458Y-135835907D01*
X291251462Y-135835910D01*
X291425273Y-135928814D01*
X291613868Y-135986024D01*
X291810000Y-136005341D01*
X292006132Y-135986024D01*
X292194727Y-135928814D01*
X292368538Y-135835910D01*
X292368544Y-135835904D01*
X292373607Y-135832523D01*
X292374703Y-135834164D01*
X292430639Y-135810405D01*
X292499507Y-135822194D01*
X292516148Y-135832888D01*
X292516393Y-135832523D01*
X292521458Y-135835907D01*
X292521462Y-135835910D01*
X292695273Y-135928814D01*
X292883868Y-135986024D01*
X293080000Y-136005341D01*
X293276132Y-135986024D01*
X293464727Y-135928814D01*
X293638538Y-135835910D01*
X293790883Y-135710883D01*
X293915910Y-135558538D01*
X294008814Y-135384727D01*
X294066024Y-135196132D01*
X294085341Y-135000000D01*
X294066024Y-134803868D01*
X294008814Y-134615273D01*
X293915910Y-134441462D01*
X293915907Y-134441458D01*
X293912523Y-134436393D01*
X293914164Y-134435296D01*
X293890405Y-134379361D01*
X293902194Y-134310493D01*
X293912888Y-134293851D01*
X293912523Y-134293607D01*
X293915904Y-134288544D01*
X293915910Y-134288538D01*
X294008814Y-134114727D01*
X294066024Y-133926132D01*
X294085341Y-133730000D01*
X294066024Y-133533868D01*
X294008814Y-133345273D01*
X294008811Y-133345269D01*
X294008811Y-133345266D01*
X293915913Y-133171467D01*
X293915909Y-133171460D01*
X293790883Y-133019116D01*
X293638539Y-132894090D01*
X293638532Y-132894086D01*
X293464733Y-132801188D01*
X293464727Y-132801186D01*
X293276132Y-132743976D01*
X293276129Y-132743975D01*
X293080000Y-132724659D01*
X292883870Y-132743975D01*
X292695266Y-132801188D01*
X292521467Y-132894086D01*
X292516399Y-132897473D01*
X292515305Y-132895836D01*
X292459337Y-132919596D01*
X292390471Y-132907795D01*
X292373843Y-132897109D01*
X292373601Y-132897473D01*
X292368532Y-132894086D01*
X292194733Y-132801188D01*
X292194727Y-132801186D01*
X292006132Y-132743976D01*
X292006129Y-132743975D01*
X291810000Y-132724659D01*
X291613870Y-132743975D01*
X291425266Y-132801188D01*
X291251467Y-132894086D01*
X291246399Y-132897473D01*
X291245305Y-132895836D01*
X291189337Y-132919596D01*
X291120471Y-132907795D01*
X291103843Y-132897109D01*
X291103601Y-132897473D01*
X291098532Y-132894086D01*
X290924733Y-132801188D01*
X290924727Y-132801186D01*
X290736132Y-132743976D01*
X290736129Y-132743975D01*
X290540000Y-132724659D01*
X290343870Y-132743975D01*
X290155266Y-132801188D01*
X289981467Y-132894086D01*
X289976399Y-132897473D01*
X289975305Y-132895836D01*
X289919337Y-132919596D01*
X289850471Y-132907795D01*
X289833843Y-132897109D01*
X289833601Y-132897473D01*
X289828532Y-132894086D01*
X289654733Y-132801188D01*
X289654727Y-132801186D01*
X289466132Y-132743976D01*
X289466129Y-132743975D01*
X289270000Y-132724659D01*
X289073870Y-132743975D01*
X288885266Y-132801188D01*
X288711467Y-132894086D01*
X288706399Y-132897473D01*
X288705305Y-132895836D01*
X288649337Y-132919596D01*
X288580471Y-132907795D01*
X288563843Y-132897109D01*
X288563601Y-132897473D01*
X288558532Y-132894086D01*
X288384733Y-132801188D01*
X288384727Y-132801186D01*
X288196132Y-132743976D01*
X288196129Y-132743975D01*
X288000000Y-132724659D01*
X287803870Y-132743975D01*
X287615266Y-132801188D01*
X287441467Y-132894086D01*
X287441460Y-132894090D01*
X287289116Y-133019116D01*
X287164090Y-133171460D01*
X287164086Y-133171467D01*
X287071188Y-133345266D01*
X287013975Y-133533870D01*
X286994659Y-133730000D01*
X103000000Y-133730000D01*
X103000000Y-130699995D01*
X288494435Y-130699995D01*
X288494435Y-130700002D01*
X288514630Y-130879248D01*
X288514631Y-130879253D01*
X288574211Y-131049522D01*
X288670184Y-131202261D01*
X288797738Y-131329815D01*
X288950478Y-131425788D01*
X289120745Y-131485367D01*
X289120750Y-131485368D01*
X289299996Y-131505564D01*
X289300000Y-131505564D01*
X289300004Y-131505564D01*
X289479249Y-131485368D01*
X289479252Y-131485367D01*
X289479255Y-131485367D01*
X289649522Y-131425788D01*
X289802262Y-131329815D01*
X289929816Y-131202261D01*
X290025789Y-131049521D01*
X290085368Y-130879254D01*
X290105565Y-130699999D01*
X290085368Y-130520744D01*
X290025789Y-130350477D01*
X289929816Y-130197737D01*
X289802262Y-130070183D01*
X289649523Y-129974210D01*
X289479254Y-129914630D01*
X289479249Y-129914629D01*
X289300004Y-129894434D01*
X289299996Y-129894434D01*
X289120750Y-129914629D01*
X289120745Y-129914630D01*
X288950476Y-129974210D01*
X288797737Y-130070183D01*
X288670184Y-130197736D01*
X288574211Y-130350475D01*
X288514631Y-130520744D01*
X288514630Y-130520749D01*
X288494435Y-130699995D01*
X103000000Y-130699995D01*
X103000000Y-127999996D01*
X119194435Y-127999996D01*
X119194435Y-128000003D01*
X119214630Y-128179249D01*
X119214631Y-128179254D01*
X119274211Y-128349523D01*
X119370184Y-128502262D01*
X119497738Y-128629816D01*
X119650478Y-128725789D01*
X119820745Y-128785368D01*
X119820750Y-128785369D01*
X119999996Y-128805565D01*
X120000000Y-128805565D01*
X120000004Y-128805565D01*
X120179249Y-128785369D01*
X120179252Y-128785368D01*
X120179255Y-128785368D01*
X120349522Y-128725789D01*
X120502262Y-128629816D01*
X120629816Y-128502262D01*
X120725789Y-128349522D01*
X120785368Y-128179255D01*
X120805565Y-128000000D01*
X120805565Y-127999996D01*
X271194435Y-127999996D01*
X271194435Y-128000003D01*
X271214630Y-128179249D01*
X271214631Y-128179254D01*
X271274211Y-128349523D01*
X271370184Y-128502262D01*
X271497738Y-128629816D01*
X271650478Y-128725789D01*
X271820745Y-128785368D01*
X271820750Y-128785369D01*
X271999996Y-128805565D01*
X272000000Y-128805565D01*
X272000004Y-128805565D01*
X272179249Y-128785369D01*
X272179252Y-128785368D01*
X272179255Y-128785368D01*
X272349522Y-128725789D01*
X272502262Y-128629816D01*
X272629816Y-128502262D01*
X272725789Y-128349522D01*
X272785368Y-128179255D01*
X272805565Y-128000000D01*
X272785368Y-127820745D01*
X272725789Y-127650478D01*
X272629816Y-127497738D01*
X272502262Y-127370184D01*
X272349523Y-127274211D01*
X272179254Y-127214631D01*
X272179249Y-127214630D01*
X272000004Y-127194435D01*
X271999996Y-127194435D01*
X271820750Y-127214630D01*
X271820745Y-127214631D01*
X271650476Y-127274211D01*
X271497737Y-127370184D01*
X271370184Y-127497737D01*
X271274211Y-127650476D01*
X271214631Y-127820745D01*
X271214630Y-127820750D01*
X271194435Y-127999996D01*
X120805565Y-127999996D01*
X120785368Y-127820745D01*
X120725789Y-127650478D01*
X120629816Y-127497738D01*
X120502262Y-127370184D01*
X120349523Y-127274211D01*
X120179254Y-127214631D01*
X120179249Y-127214630D01*
X120000004Y-127194435D01*
X119999996Y-127194435D01*
X119820750Y-127214630D01*
X119820745Y-127214631D01*
X119650476Y-127274211D01*
X119497737Y-127370184D01*
X119370184Y-127497737D01*
X119274211Y-127650476D01*
X119214631Y-127820745D01*
X119214630Y-127820750D01*
X119194435Y-127999996D01*
X103000000Y-127999996D01*
X103000000Y-121999996D01*
X186994435Y-121999996D01*
X186994435Y-122000003D01*
X187014630Y-122179249D01*
X187014631Y-122179254D01*
X187074211Y-122349523D01*
X187170184Y-122502262D01*
X187297738Y-122629816D01*
X187450478Y-122725789D01*
X187620745Y-122785368D01*
X187620750Y-122785369D01*
X187799996Y-122805565D01*
X187800000Y-122805565D01*
X187800004Y-122805565D01*
X187979249Y-122785369D01*
X187979252Y-122785368D01*
X187979255Y-122785368D01*
X188149522Y-122725789D01*
X188302262Y-122629816D01*
X188429816Y-122502262D01*
X188525789Y-122349522D01*
X188585368Y-122179255D01*
X188605565Y-122000000D01*
X188585368Y-121820745D01*
X188525789Y-121650478D01*
X188429816Y-121497738D01*
X188302262Y-121370184D01*
X188149523Y-121274211D01*
X187979254Y-121214631D01*
X187979249Y-121214630D01*
X187800004Y-121194435D01*
X187799996Y-121194435D01*
X187620750Y-121214630D01*
X187620745Y-121214631D01*
X187450476Y-121274211D01*
X187297737Y-121370184D01*
X187170184Y-121497737D01*
X187074211Y-121650476D01*
X187014631Y-121820745D01*
X187014630Y-121820750D01*
X186994435Y-121999996D01*
X103000000Y-121999996D01*
X103000000Y-114999996D01*
X193694435Y-114999996D01*
X193694435Y-115000003D01*
X193714630Y-115179249D01*
X193714631Y-115179254D01*
X193774211Y-115349523D01*
X193870184Y-115502262D01*
X193997738Y-115629816D01*
X194150478Y-115725789D01*
X194320745Y-115785368D01*
X194320750Y-115785369D01*
X194499996Y-115805565D01*
X194500000Y-115805565D01*
X194500004Y-115805565D01*
X194679249Y-115785369D01*
X194679252Y-115785368D01*
X194679255Y-115785368D01*
X194849522Y-115725789D01*
X195002262Y-115629816D01*
X195129816Y-115502262D01*
X195225789Y-115349522D01*
X195285368Y-115179255D01*
X195305565Y-115000000D01*
X195305565Y-114999996D01*
X206694435Y-114999996D01*
X206694435Y-115000003D01*
X206714630Y-115179249D01*
X206714631Y-115179254D01*
X206774211Y-115349523D01*
X206870184Y-115502262D01*
X206997738Y-115629816D01*
X207150478Y-115725789D01*
X207320745Y-115785368D01*
X207320750Y-115785369D01*
X207499996Y-115805565D01*
X207500000Y-115805565D01*
X207500004Y-115805565D01*
X207679249Y-115785369D01*
X207679252Y-115785368D01*
X207679255Y-115785368D01*
X207849522Y-115725789D01*
X208002262Y-115629816D01*
X208129816Y-115502262D01*
X208225789Y-115349522D01*
X208285368Y-115179255D01*
X208305565Y-115000000D01*
X208285368Y-114820745D01*
X208225789Y-114650478D01*
X208129816Y-114497738D01*
X208002262Y-114370184D01*
X207849523Y-114274211D01*
X207679254Y-114214631D01*
X207679249Y-114214630D01*
X207500004Y-114194435D01*
X207499996Y-114194435D01*
X207320750Y-114214630D01*
X207320745Y-114214631D01*
X207150476Y-114274211D01*
X206997737Y-114370184D01*
X206870184Y-114497737D01*
X206774211Y-114650476D01*
X206714631Y-114820745D01*
X206714630Y-114820750D01*
X206694435Y-114999996D01*
X195305565Y-114999996D01*
X195285368Y-114820745D01*
X195225789Y-114650478D01*
X195129816Y-114497738D01*
X195002262Y-114370184D01*
X194849523Y-114274211D01*
X194679254Y-114214631D01*
X194679249Y-114214630D01*
X194500004Y-114194435D01*
X194499996Y-114194435D01*
X194320750Y-114214630D01*
X194320745Y-114214631D01*
X194150476Y-114274211D01*
X193997737Y-114370184D01*
X193870184Y-114497737D01*
X193774211Y-114650476D01*
X193714631Y-114820745D01*
X193714630Y-114820750D01*
X193694435Y-114999996D01*
X103000000Y-114999996D01*
X103000000Y-113199996D01*
X188494435Y-113199996D01*
X188494435Y-113200003D01*
X188514630Y-113379249D01*
X188514631Y-113379254D01*
X188574211Y-113549523D01*
X188596735Y-113585369D01*
X188670184Y-113702262D01*
X188797738Y-113829816D01*
X188950478Y-113925789D01*
X189120745Y-113985368D01*
X189120750Y-113985369D01*
X189299996Y-114005565D01*
X189300000Y-114005565D01*
X189300004Y-114005565D01*
X189479249Y-113985369D01*
X189479252Y-113985368D01*
X189479255Y-113985368D01*
X189649522Y-113925789D01*
X189802262Y-113829816D01*
X189929816Y-113702262D01*
X190025789Y-113549522D01*
X190085368Y-113379255D01*
X190105565Y-113200000D01*
X190105565Y-113199996D01*
X201494435Y-113199996D01*
X201494435Y-113200003D01*
X201514630Y-113379249D01*
X201514631Y-113379254D01*
X201574211Y-113549523D01*
X201596735Y-113585369D01*
X201670184Y-113702262D01*
X201797738Y-113829816D01*
X201950478Y-113925789D01*
X202120745Y-113985368D01*
X202120750Y-113985369D01*
X202299996Y-114005565D01*
X202300000Y-114005565D01*
X202300004Y-114005565D01*
X202479249Y-113985369D01*
X202479252Y-113985368D01*
X202479255Y-113985368D01*
X202649522Y-113925789D01*
X202802262Y-113829816D01*
X202929816Y-113702262D01*
X203025789Y-113549522D01*
X203085368Y-113379255D01*
X203105565Y-113200000D01*
X203085368Y-113020745D01*
X203025789Y-112850478D01*
X202929816Y-112697738D01*
X202802262Y-112570184D01*
X202649523Y-112474211D01*
X202479254Y-112414631D01*
X202479249Y-112414630D01*
X202300004Y-112394435D01*
X202299996Y-112394435D01*
X202120750Y-112414630D01*
X202120745Y-112414631D01*
X201950476Y-112474211D01*
X201797737Y-112570184D01*
X201670184Y-112697737D01*
X201574211Y-112850476D01*
X201514631Y-113020745D01*
X201514630Y-113020750D01*
X201494435Y-113199996D01*
X190105565Y-113199996D01*
X190085368Y-113020745D01*
X190025789Y-112850478D01*
X189929816Y-112697738D01*
X189802262Y-112570184D01*
X189649523Y-112474211D01*
X189479254Y-112414631D01*
X189479249Y-112414630D01*
X189300004Y-112394435D01*
X189299996Y-112394435D01*
X189120750Y-112414630D01*
X189120745Y-112414631D01*
X188950476Y-112474211D01*
X188797737Y-112570184D01*
X188670184Y-112697737D01*
X188574211Y-112850476D01*
X188514631Y-113020745D01*
X188514630Y-113020750D01*
X188494435Y-113199996D01*
X103000000Y-113199996D01*
X103000000Y-110599996D01*
X175294435Y-110599996D01*
X175294435Y-110600003D01*
X175314630Y-110779249D01*
X175314631Y-110779254D01*
X175374211Y-110949523D01*
X175437646Y-111050478D01*
X175470184Y-111102262D01*
X175597738Y-111229816D01*
X175750478Y-111325789D01*
X175920745Y-111385368D01*
X175920750Y-111385369D01*
X176099996Y-111405565D01*
X176100000Y-111405565D01*
X176100004Y-111405565D01*
X176149430Y-111399996D01*
X187094435Y-111399996D01*
X187094435Y-111400003D01*
X187114630Y-111579249D01*
X187114631Y-111579254D01*
X187174211Y-111749523D01*
X187255724Y-111879249D01*
X187270184Y-111902262D01*
X187397738Y-112029816D01*
X187550478Y-112125789D01*
X187716913Y-112184027D01*
X187720745Y-112185368D01*
X187720750Y-112185369D01*
X187899996Y-112205565D01*
X187900000Y-112205565D01*
X187900004Y-112205565D01*
X188079249Y-112185369D01*
X188079252Y-112185368D01*
X188079255Y-112185368D01*
X188249522Y-112125789D01*
X188402262Y-112029816D01*
X188529816Y-111902262D01*
X188625789Y-111749522D01*
X188643119Y-111699996D01*
X223094435Y-111699996D01*
X223094435Y-111700003D01*
X223114630Y-111879249D01*
X223114631Y-111879254D01*
X223174211Y-112049523D01*
X223258727Y-112184028D01*
X223277727Y-112251264D01*
X223258727Y-112315972D01*
X223174211Y-112450476D01*
X223114631Y-112620745D01*
X223114630Y-112620750D01*
X223094435Y-112799996D01*
X223094435Y-112800003D01*
X223114630Y-112979249D01*
X223114631Y-112979254D01*
X223174211Y-113149523D01*
X223205926Y-113199996D01*
X223270184Y-113302262D01*
X223397738Y-113429816D01*
X223550478Y-113525789D01*
X223618306Y-113549523D01*
X223720745Y-113585368D01*
X223720750Y-113585369D01*
X223899996Y-113605565D01*
X223900000Y-113605565D01*
X223900004Y-113605565D01*
X224079249Y-113585369D01*
X224079252Y-113585368D01*
X224079255Y-113585368D01*
X224249522Y-113525789D01*
X224402262Y-113429816D01*
X224529816Y-113302262D01*
X224625789Y-113149522D01*
X224685368Y-112979255D01*
X224705565Y-112800000D01*
X224685368Y-112620745D01*
X224625789Y-112450478D01*
X224625788Y-112450476D01*
X224625788Y-112450475D01*
X224581957Y-112380720D01*
X224541272Y-112315970D01*
X224522272Y-112248736D01*
X224541273Y-112184028D01*
X224625789Y-112049522D01*
X224685368Y-111879255D01*
X224699985Y-111749523D01*
X224705565Y-111700003D01*
X224705565Y-111699996D01*
X224685369Y-111520750D01*
X224685368Y-111520745D01*
X224645065Y-111405565D01*
X224625789Y-111350478D01*
X224529816Y-111197738D01*
X224402262Y-111070184D01*
X224370897Y-111050476D01*
X224249523Y-110974211D01*
X224079254Y-110914631D01*
X224079249Y-110914630D01*
X223900004Y-110894435D01*
X223899996Y-110894435D01*
X223720750Y-110914630D01*
X223720745Y-110914631D01*
X223550476Y-110974211D01*
X223397737Y-111070184D01*
X223270184Y-111197737D01*
X223174211Y-111350476D01*
X223114631Y-111520745D01*
X223114630Y-111520750D01*
X223094435Y-111699996D01*
X188643119Y-111699996D01*
X188685368Y-111579255D01*
X188691960Y-111520750D01*
X188705565Y-111400003D01*
X188705565Y-111399996D01*
X188685369Y-111220750D01*
X188685368Y-111220745D01*
X188625789Y-111050478D01*
X188529816Y-110897738D01*
X188402262Y-110770184D01*
X188249523Y-110674211D01*
X188079254Y-110614631D01*
X188079249Y-110614630D01*
X187900004Y-110594435D01*
X187899996Y-110594435D01*
X187720750Y-110614630D01*
X187720745Y-110614631D01*
X187550476Y-110674211D01*
X187397737Y-110770184D01*
X187270184Y-110897737D01*
X187174211Y-111050476D01*
X187114631Y-111220745D01*
X187114630Y-111220750D01*
X187094435Y-111399996D01*
X176149430Y-111399996D01*
X176279249Y-111385369D01*
X176279252Y-111385368D01*
X176279255Y-111385368D01*
X176449522Y-111325789D01*
X176602262Y-111229816D01*
X176729816Y-111102262D01*
X176825789Y-110949522D01*
X176885368Y-110779255D01*
X176897204Y-110674211D01*
X176905565Y-110600003D01*
X176905565Y-110599996D01*
X176885369Y-110420750D01*
X176885368Y-110420745D01*
X176825788Y-110250476D01*
X176729815Y-110097737D01*
X176602262Y-109970184D01*
X176449523Y-109874211D01*
X176279254Y-109814631D01*
X176279249Y-109814630D01*
X176100004Y-109794435D01*
X176099996Y-109794435D01*
X175920750Y-109814630D01*
X175920745Y-109814631D01*
X175750476Y-109874211D01*
X175597737Y-109970184D01*
X175470184Y-110097737D01*
X175374211Y-110250476D01*
X175314631Y-110420745D01*
X175314630Y-110420750D01*
X175294435Y-110599996D01*
X103000000Y-110599996D01*
X103000000Y-107999996D01*
X176994435Y-107999996D01*
X176994435Y-108000003D01*
X177014630Y-108179249D01*
X177014631Y-108179254D01*
X177074211Y-108349523D01*
X177170184Y-108502262D01*
X177297738Y-108629816D01*
X177450478Y-108725789D01*
X177620745Y-108785368D01*
X177620750Y-108785369D01*
X177799996Y-108805565D01*
X177800000Y-108805565D01*
X177800004Y-108805565D01*
X177979249Y-108785369D01*
X177979252Y-108785368D01*
X177979255Y-108785368D01*
X178149522Y-108725789D01*
X178302262Y-108629816D01*
X178429816Y-108502262D01*
X178525789Y-108349522D01*
X178585368Y-108179255D01*
X178585539Y-108177739D01*
X178605565Y-108000003D01*
X178605565Y-107999996D01*
X178585369Y-107820750D01*
X178585368Y-107820745D01*
X178550376Y-107720745D01*
X178525789Y-107650478D01*
X178431235Y-107499996D01*
X212994435Y-107499996D01*
X212994435Y-107500003D01*
X213014630Y-107679249D01*
X213014631Y-107679254D01*
X213074211Y-107849523D01*
X213105926Y-107899996D01*
X213170184Y-108002262D01*
X213297738Y-108129816D01*
X213374007Y-108177739D01*
X213450474Y-108225787D01*
X213450478Y-108225789D01*
X213518306Y-108249523D01*
X213620745Y-108285368D01*
X213620750Y-108285369D01*
X213799996Y-108305565D01*
X213800000Y-108305565D01*
X213800004Y-108305565D01*
X213979249Y-108285369D01*
X213979252Y-108285368D01*
X213979255Y-108285368D01*
X214149522Y-108225789D01*
X214195752Y-108196740D01*
X214262987Y-108177739D01*
X214329823Y-108198105D01*
X214369968Y-108243963D01*
X214370506Y-108243626D01*
X214372623Y-108246996D01*
X214373448Y-108247938D01*
X214374210Y-108249521D01*
X214396735Y-108285369D01*
X214470184Y-108402262D01*
X214597738Y-108529816D01*
X214750478Y-108625789D01*
X214761984Y-108629815D01*
X214920745Y-108685368D01*
X214920750Y-108685369D01*
X215099996Y-108705565D01*
X215100000Y-108705565D01*
X215100004Y-108705565D01*
X215279249Y-108685369D01*
X215279252Y-108685368D01*
X215279255Y-108685368D01*
X215449522Y-108625789D01*
X215602262Y-108529816D01*
X215729816Y-108402262D01*
X215825789Y-108249522D01*
X215885368Y-108079255D01*
X215894043Y-108002262D01*
X215905565Y-107900003D01*
X215905565Y-107899996D01*
X215885369Y-107720750D01*
X215885368Y-107720745D01*
X215870848Y-107679249D01*
X215825789Y-107550478D01*
X215729816Y-107397738D01*
X215602262Y-107270184D01*
X215513852Y-107214632D01*
X215449523Y-107174211D01*
X215279254Y-107114631D01*
X215279249Y-107114630D01*
X215100004Y-107094435D01*
X215099996Y-107094435D01*
X214920750Y-107114630D01*
X214920745Y-107114631D01*
X214750475Y-107174211D01*
X214704244Y-107203260D01*
X214637007Y-107222259D01*
X214570172Y-107201890D01*
X214530031Y-107156036D01*
X214529494Y-107156374D01*
X214527374Y-107153000D01*
X214526550Y-107152059D01*
X214525787Y-107150474D01*
X214429815Y-106997737D01*
X214302262Y-106870184D01*
X214149523Y-106774211D01*
X213979254Y-106714631D01*
X213979249Y-106714630D01*
X213800004Y-106694435D01*
X213799996Y-106694435D01*
X213620750Y-106714630D01*
X213620745Y-106714631D01*
X213450476Y-106774211D01*
X213297737Y-106870184D01*
X213170184Y-106997737D01*
X213074211Y-107150476D01*
X213014631Y-107320745D01*
X213014630Y-107320750D01*
X212994435Y-107499996D01*
X178431235Y-107499996D01*
X178429816Y-107497738D01*
X178302262Y-107370184D01*
X178149523Y-107274211D01*
X177979254Y-107214631D01*
X177979249Y-107214630D01*
X177800004Y-107194435D01*
X177799996Y-107194435D01*
X177620750Y-107214630D01*
X177620745Y-107214631D01*
X177450476Y-107274211D01*
X177297737Y-107370184D01*
X177170184Y-107497737D01*
X177074211Y-107650476D01*
X177014631Y-107820745D01*
X177014630Y-107820750D01*
X176994435Y-107999996D01*
X103000000Y-107999996D01*
X103000000Y-92999996D01*
X119194435Y-92999996D01*
X119194435Y-93000003D01*
X119214630Y-93179249D01*
X119214631Y-93179254D01*
X119274211Y-93349523D01*
X119370184Y-93502262D01*
X119497738Y-93629816D01*
X119650478Y-93725789D01*
X119820745Y-93785368D01*
X119820750Y-93785369D01*
X119999996Y-93805565D01*
X120000000Y-93805565D01*
X120000004Y-93805565D01*
X120179249Y-93785369D01*
X120179252Y-93785368D01*
X120179255Y-93785368D01*
X120349522Y-93725789D01*
X120502262Y-93629816D01*
X120629816Y-93502262D01*
X120725789Y-93349522D01*
X120785368Y-93179255D01*
X120805565Y-93000000D01*
X120805565Y-92999996D01*
X157194435Y-92999996D01*
X157194435Y-93000003D01*
X157214630Y-93179249D01*
X157214631Y-93179254D01*
X157274211Y-93349523D01*
X157370184Y-93502262D01*
X157497738Y-93629816D01*
X157650478Y-93725789D01*
X157820745Y-93785368D01*
X157820750Y-93785369D01*
X157999996Y-93805565D01*
X158000000Y-93805565D01*
X158000004Y-93805565D01*
X158179249Y-93785369D01*
X158179252Y-93785368D01*
X158179255Y-93785368D01*
X158349522Y-93725789D01*
X158502262Y-93629816D01*
X158629816Y-93502262D01*
X158725789Y-93349522D01*
X158785368Y-93179255D01*
X158805565Y-93000000D01*
X158805565Y-92999996D01*
X195194435Y-92999996D01*
X195194435Y-93000003D01*
X195214630Y-93179249D01*
X195214631Y-93179254D01*
X195274211Y-93349523D01*
X195370184Y-93502262D01*
X195497738Y-93629816D01*
X195650478Y-93725789D01*
X195820745Y-93785368D01*
X195820750Y-93785369D01*
X195999996Y-93805565D01*
X196000000Y-93805565D01*
X196000004Y-93805565D01*
X196179249Y-93785369D01*
X196179252Y-93785368D01*
X196179255Y-93785368D01*
X196349522Y-93725789D01*
X196502262Y-93629816D01*
X196629816Y-93502262D01*
X196725789Y-93349522D01*
X196785368Y-93179255D01*
X196805565Y-93000000D01*
X196805565Y-92999996D01*
X233194435Y-92999996D01*
X233194435Y-93000003D01*
X233214630Y-93179249D01*
X233214631Y-93179254D01*
X233274211Y-93349523D01*
X233370184Y-93502262D01*
X233497738Y-93629816D01*
X233650478Y-93725789D01*
X233820745Y-93785368D01*
X233820750Y-93785369D01*
X233999996Y-93805565D01*
X234000000Y-93805565D01*
X234000004Y-93805565D01*
X234179249Y-93785369D01*
X234179252Y-93785368D01*
X234179255Y-93785368D01*
X234349522Y-93725789D01*
X234502262Y-93629816D01*
X234629816Y-93502262D01*
X234725789Y-93349522D01*
X234785368Y-93179255D01*
X234805565Y-93000000D01*
X234805565Y-92999996D01*
X271194435Y-92999996D01*
X271194435Y-93000003D01*
X271214630Y-93179249D01*
X271214631Y-93179254D01*
X271274211Y-93349523D01*
X271370184Y-93502262D01*
X271497738Y-93629816D01*
X271650478Y-93725789D01*
X271820745Y-93785368D01*
X271820750Y-93785369D01*
X271999996Y-93805565D01*
X272000000Y-93805565D01*
X272000004Y-93805565D01*
X272179249Y-93785369D01*
X272179252Y-93785368D01*
X272179255Y-93785368D01*
X272349522Y-93725789D01*
X272502262Y-93629816D01*
X272629816Y-93502262D01*
X272725789Y-93349522D01*
X272785368Y-93179255D01*
X272805565Y-93000000D01*
X272785368Y-92820745D01*
X272725789Y-92650478D01*
X272629816Y-92497738D01*
X272502262Y-92370184D01*
X272349523Y-92274211D01*
X272179254Y-92214631D01*
X272179249Y-92214630D01*
X272000004Y-92194435D01*
X271999996Y-92194435D01*
X271820750Y-92214630D01*
X271820745Y-92214631D01*
X271650476Y-92274211D01*
X271497737Y-92370184D01*
X271370184Y-92497737D01*
X271274211Y-92650476D01*
X271214631Y-92820745D01*
X271214630Y-92820750D01*
X271194435Y-92999996D01*
X234805565Y-92999996D01*
X234785368Y-92820745D01*
X234725789Y-92650478D01*
X234629816Y-92497738D01*
X234502262Y-92370184D01*
X234349523Y-92274211D01*
X234179254Y-92214631D01*
X234179249Y-92214630D01*
X234000004Y-92194435D01*
X233999996Y-92194435D01*
X233820750Y-92214630D01*
X233820745Y-92214631D01*
X233650476Y-92274211D01*
X233497737Y-92370184D01*
X233370184Y-92497737D01*
X233274211Y-92650476D01*
X233214631Y-92820745D01*
X233214630Y-92820750D01*
X233194435Y-92999996D01*
X196805565Y-92999996D01*
X196785368Y-92820745D01*
X196725789Y-92650478D01*
X196629816Y-92497738D01*
X196502262Y-92370184D01*
X196349523Y-92274211D01*
X196179254Y-92214631D01*
X196179249Y-92214630D01*
X196000004Y-92194435D01*
X195999996Y-92194435D01*
X195820750Y-92214630D01*
X195820745Y-92214631D01*
X195650476Y-92274211D01*
X195497737Y-92370184D01*
X195370184Y-92497737D01*
X195274211Y-92650476D01*
X195214631Y-92820745D01*
X195214630Y-92820750D01*
X195194435Y-92999996D01*
X158805565Y-92999996D01*
X158785368Y-92820745D01*
X158725789Y-92650478D01*
X158629816Y-92497738D01*
X158502262Y-92370184D01*
X158349523Y-92274211D01*
X158179254Y-92214631D01*
X158179249Y-92214630D01*
X158000004Y-92194435D01*
X157999996Y-92194435D01*
X157820750Y-92214630D01*
X157820745Y-92214631D01*
X157650476Y-92274211D01*
X157497737Y-92370184D01*
X157370184Y-92497737D01*
X157274211Y-92650476D01*
X157214631Y-92820745D01*
X157214630Y-92820750D01*
X157194435Y-92999996D01*
X120805565Y-92999996D01*
X120785368Y-92820745D01*
X120725789Y-92650478D01*
X120629816Y-92497738D01*
X120502262Y-92370184D01*
X120349523Y-92274211D01*
X120179254Y-92214631D01*
X120179249Y-92214630D01*
X120000004Y-92194435D01*
X119999996Y-92194435D01*
X119820750Y-92214630D01*
X119820745Y-92214631D01*
X119650476Y-92274211D01*
X119497737Y-92370184D01*
X119370184Y-92497737D01*
X119274211Y-92650476D01*
X119214631Y-92820745D01*
X119214630Y-92820750D01*
X119194435Y-92999996D01*
X103000000Y-92999996D01*
X103000000Y-80773970D01*
X103019685Y-80706931D01*
X103072489Y-80661176D01*
X103141647Y-80651232D01*
X103175956Y-80661866D01*
X103176038Y-80661671D01*
X103178154Y-80662547D01*
X103178862Y-80662767D01*
X103179782Y-80663220D01*
X103179788Y-80663224D01*
X103403900Y-80756054D01*
X103638211Y-80818838D01*
X103818586Y-80842584D01*
X103878711Y-80850500D01*
X103878712Y-80850500D01*
X104121289Y-80850500D01*
X104169388Y-80844167D01*
X104361789Y-80818838D01*
X104596100Y-80756054D01*
X104820212Y-80663224D01*
X105030289Y-80541936D01*
X105222738Y-80394265D01*
X105394265Y-80222738D01*
X105541936Y-80030289D01*
X105663224Y-79820212D01*
X105756054Y-79596100D01*
X105818838Y-79361789D01*
X105850500Y-79121288D01*
X105850500Y-78878712D01*
X105818838Y-78638211D01*
X105756054Y-78403900D01*
X105663224Y-78179788D01*
X105663223Y-78179785D01*
X105662758Y-78178842D01*
X105662703Y-78178531D01*
X105661671Y-78176038D01*
X105662229Y-78175806D01*
X105650763Y-78110010D01*
X105677885Y-78045620D01*
X105735514Y-78006114D01*
X105773971Y-78000000D01*
X294226029Y-78000000D01*
X294293068Y-78019685D01*
G37*
%TD.AperFunction*%
%TD*%
M02*
