%TF.GenerationSoftware,KiCad,Pcbnew,8.0.9-8.0.9-0~ubuntu22.04.1*%
%TF.CreationDate,2026-06-16T06:33:08+00:00*%
%TF.ProjectId,LightRail_Eval_Board,4c696768-7452-4616-996c-5f4576616c5f,rev?*%
%TF.SameCoordinates,Original*%
%TF.FileFunction,Copper,L9,Inr*%
%TF.FilePolarity,Positive*%
%FSLAX46Y46*%
G04 Gerber Fmt 4.6, Leading zero omitted, Abs format (unit mm)*
G04 Created by KiCad (PCBNEW 8.0.9-8.0.9-0~ubuntu22.04.1) date 2026-06-16 06:33:08*
%MOMM*%
%LPD*%
G01*
G04 APERTURE LIST*
%TA.AperFunction,ComponentPad*%
%ADD10R,1.000000X1.000000*%
%TD*%
%TA.AperFunction,ComponentPad*%
%ADD11O,1.000000X1.000000*%
%TD*%
%TA.AperFunction,ViaPad*%
%ADD12C,0.600000*%
%TD*%
G04 APERTURE END LIST*
D10*
%TO.N,+3V3*%
%TO.C,J6*%
X190000000Y-150000000D03*
D11*
%TO.N,GND*%
X190000000Y-148730000D03*
%TO.N,FPGA_GPIO0*%
X191270000Y-150000000D03*
%TO.N,FPGA_GPIO1*%
X191270000Y-148730000D03*
%TO.N,FPGA_GPIO2*%
X192540000Y-150000000D03*
%TO.N,FPGA_GPIO3*%
X192540000Y-148730000D03*
%TO.N,N/C*%
X193810000Y-150000000D03*
X193810000Y-148730000D03*
X195080000Y-150000000D03*
X195080000Y-148730000D03*
X196350000Y-150000000D03*
X196350000Y-148730000D03*
%TO.N,I2C_SCL*%
X197620000Y-150000000D03*
%TO.N,I2C_SDA*%
X197620000Y-148730000D03*
%TD*%
D10*
%TO.N,JTAG_TCK*%
%TO.C,J5*%
X190000000Y-140000000D03*
D11*
%TO.N,GND*%
X190000000Y-138730000D03*
%TO.N,JTAG_TDO*%
X191270000Y-140000000D03*
%TO.N,+3V3*%
X191270000Y-138730000D03*
%TO.N,JTAG_TMS*%
X192540000Y-140000000D03*
%TO.N,GND*%
X192540000Y-138730000D03*
%TO.N,N/C*%
X193810000Y-140000000D03*
X193810000Y-138730000D03*
%TO.N,JTAG_TDI*%
X195080000Y-140000000D03*
%TO.N,JTAG_TRST*%
X195080000Y-138730000D03*
%TD*%
D12*
%TO.N,AXI_ACLK*%
X160400000Y-139000000D03*
X140200000Y-149000000D03*
%TO.N,AXI_ARESETN*%
X140600000Y-149000000D03*
X161200000Y-139000000D03*
%TO.N,AXI_AWADDR*%
X141000000Y-149000000D03*
X162000000Y-139000000D03*
%TO.N,AXI_AWVALID*%
X162800000Y-139000000D03*
X141400000Y-149000000D03*
%TO.N,AXI_WDATA*%
X142200000Y-149000000D03*
X163600000Y-139000000D03*
%TO.N,AXI_WVALID*%
X142600000Y-149000000D03*
X164400000Y-139000000D03*
%TO.N,CLK_100M*%
X168537500Y-134750000D03*
X173900000Y-134150000D03*
%TO.N,CLK_CORE*%
X160400000Y-139800000D03*
X144000000Y-145200000D03*
X171462500Y-137250000D03*
%TO.N,DAC_V2*%
X145312000Y-120000000D03*
X162137500Y-125975000D03*
%TO.N,DAC_V3*%
X162137500Y-126625000D03*
X145938000Y-120000000D03*
%TO.N,DAC_V4*%
X146562000Y-120000000D03*
X162137500Y-127275000D03*
%TO.N,FLASH_CS*%
X156400000Y-139800000D03*
X174050000Y-149250000D03*
%TO.N,FLASH_SCK*%
X155600000Y-139800000D03*
X175950000Y-150250000D03*
%TO.N,FPGA_GPIO0*%
X163600000Y-139800000D03*
X191270000Y-150000000D03*
%TO.N,FPGA_GPIO1*%
X164400000Y-139800000D03*
X191270000Y-148730000D03*
%TO.N,FPGA_GPIO2*%
X165200000Y-139800000D03*
X192540000Y-150000000D03*
%TO.N,FT_TXLED*%
X185875000Y-162450000D03*
X154490000Y-170000000D03*
%TO.N,I2C_SCL*%
X197620000Y-150000000D03*
X129050000Y-150750000D03*
X168537500Y-137250000D03*
X136000000Y-142000000D03*
%TO.N,I2C_SDA*%
X136000000Y-142400000D03*
X197620000Y-148730000D03*
X168537500Y-136750000D03*
X129050000Y-150250000D03*
%TO.N,JTAG_TCK*%
X144000000Y-144400000D03*
X190000000Y-140000000D03*
X157200000Y-139800000D03*
%TO.N,JTAG_TMS*%
X192540000Y-140000000D03*
X158000000Y-139800000D03*
X144000000Y-144000000D03*
%TO.N,LED_A*%
X124212500Y-170000000D03*
X165510000Y-170000000D03*
%TO.N,LED_D2*%
X129212500Y-170000000D03*
X155510000Y-170000000D03*
%TO.N,LED_D3*%
X134212500Y-170000000D03*
X160510000Y-170000000D03*
%TO.N,MON_CH2*%
X132137500Y-125600000D03*
X154062000Y-120000000D03*
%TO.N,MON_CH3*%
X154688000Y-120000000D03*
X132137500Y-126000000D03*
%TO.N,MON_CH4*%
X132137500Y-126400000D03*
X155312000Y-120000000D03*
%TO.N,MON_CH5*%
X132137500Y-126800000D03*
X155938000Y-120000000D03*
%TO.N,OPT_RX0*%
X144375000Y-105000000D03*
X150312000Y-120000000D03*
%TO.N,OPT_RX1*%
X150938000Y-120000000D03*
X145125000Y-105000000D03*
%TO.N,OPT_RX2*%
X151562000Y-120000000D03*
X145875000Y-105000000D03*
%TO.N,OPT_RX3*%
X152188000Y-120000000D03*
X146625000Y-105000000D03*
%TO.N,OPT_TX2*%
X149062000Y-120000000D03*
X142875000Y-105000000D03*
%TO.N,OPT_TX3*%
X149688000Y-120000000D03*
X143625000Y-105000000D03*
%TO.N,PLL_LOL*%
X169750000Y-137975000D03*
X170750000Y-137975000D03*
%TO.N,RESET_N*%
X119520000Y-170000000D03*
X136000000Y-146400000D03*
X150510000Y-170000000D03*
X182550000Y-159825000D03*
X169250000Y-137975000D03*
X183300000Y-185000000D03*
%TO.N,SMA_J8*%
X115480000Y-160000000D03*
X135000000Y-105000000D03*
%TO.N,SMA_J9*%
X165000000Y-105000000D03*
X120480000Y-160000000D03*
%TO.N,SPI_CLK*%
X144000000Y-142800000D03*
X137862500Y-126000000D03*
X167862500Y-127275000D03*
%TO.N,SPI_MISO*%
X137862500Y-125200000D03*
X144000000Y-142000000D03*
%TO.N,TEMP_ALERT*%
X130950000Y-150750000D03*
X136000000Y-145200000D03*
%TO.N,TEMP_DIODE*%
X130950000Y-149750000D03*
X147188000Y-120000000D03*
%TO.N,TFLN_TX_N0*%
X142600000Y-141000000D03*
X114520000Y-160000000D03*
X140312000Y-120000000D03*
%TO.N,TFLN_TX_N1*%
X141562000Y-120000000D03*
X124520000Y-160000000D03*
X141800000Y-141000000D03*
%TO.N,TFLN_TX_P0*%
X109520000Y-160000000D03*
X143000000Y-141000000D03*
X139688000Y-120000000D03*
%TO.N,TFLN_TX_P1*%
X119520000Y-160000000D03*
X142200000Y-141000000D03*
X140938000Y-120000000D03*
%TO.N,TFLN_TX_P2*%
X142188000Y-120000000D03*
X141400000Y-141000000D03*
%TO.N,TFLN_TX_P3*%
X140600000Y-141000000D03*
X143438000Y-120000000D03*
%TO.N,USB_DN*%
X190000000Y-166750000D03*
X182550000Y-159475000D03*
X143950000Y-170000000D03*
%TO.N,USB_DP*%
X138950000Y-170000000D03*
X182550000Y-159125000D03*
X190000000Y-167250000D03*
%TD*%
%TA.AperFunction,Conductor*%
%TO.N,GND*%
G36*
X199458691Y-100519407D02*
G01*
X199494655Y-100568907D01*
X199499500Y-100599500D01*
X199499500Y-199400500D01*
X199480593Y-199458691D01*
X199431093Y-199494655D01*
X199400500Y-199499500D01*
X100599500Y-199499500D01*
X100541309Y-199480593D01*
X100505345Y-199431093D01*
X100500500Y-199400500D01*
X100500500Y-195878710D01*
X102149500Y-195878710D01*
X102149500Y-196121289D01*
X102181161Y-196361781D01*
X102181161Y-196361786D01*
X102243944Y-196596092D01*
X102243948Y-196596105D01*
X102336772Y-196820204D01*
X102336774Y-196820208D01*
X102336776Y-196820212D01*
X102383756Y-196901583D01*
X102458066Y-197030292D01*
X102605729Y-197222731D01*
X102605731Y-197222733D01*
X102605735Y-197222738D01*
X102777262Y-197394265D01*
X102777266Y-197394268D01*
X102777268Y-197394270D01*
X102889027Y-197480025D01*
X102969711Y-197541936D01*
X103179788Y-197663224D01*
X103403900Y-197756054D01*
X103638211Y-197818838D01*
X103878712Y-197850500D01*
X104041018Y-197850500D01*
X104099209Y-197869407D01*
X104111021Y-197879496D01*
X104185351Y-197953825D01*
X104185354Y-197953828D01*
X104344595Y-198069524D01*
X104519975Y-198158884D01*
X104707174Y-198219709D01*
X104707175Y-198219709D01*
X104707178Y-198219710D01*
X104901580Y-198250500D01*
X104901583Y-198250500D01*
X105098420Y-198250500D01*
X105292821Y-198219710D01*
X105292822Y-198219709D01*
X105292826Y-198219709D01*
X105480025Y-198158884D01*
X105655405Y-198069524D01*
X105814646Y-197953828D01*
X105953828Y-197814646D01*
X106069524Y-197655405D01*
X106158884Y-197480025D01*
X106219709Y-197292826D01*
X106250500Y-197098417D01*
X106250500Y-196901583D01*
X106250500Y-196901579D01*
X106219710Y-196707178D01*
X106183620Y-196596105D01*
X106158884Y-196519975D01*
X106069524Y-196344595D01*
X105953828Y-196185354D01*
X105953825Y-196185351D01*
X105879496Y-196111021D01*
X105851719Y-196056504D01*
X105850500Y-196041018D01*
X105850500Y-195878713D01*
X105850500Y-195878712D01*
X105850500Y-195878710D01*
X194149500Y-195878710D01*
X194149500Y-196121289D01*
X194181161Y-196361781D01*
X194181161Y-196361786D01*
X194243944Y-196596092D01*
X194243948Y-196596105D01*
X194336772Y-196820204D01*
X194336774Y-196820208D01*
X194336776Y-196820212D01*
X194383756Y-196901583D01*
X194458066Y-197030292D01*
X194605729Y-197222731D01*
X194605731Y-197222733D01*
X194605735Y-197222738D01*
X194777262Y-197394265D01*
X194777266Y-197394268D01*
X194777268Y-197394270D01*
X194889027Y-197480025D01*
X194969711Y-197541936D01*
X195179788Y-197663224D01*
X195403900Y-197756054D01*
X195638211Y-197818838D01*
X195878712Y-197850500D01*
X195878713Y-197850500D01*
X196121287Y-197850500D01*
X196121288Y-197850500D01*
X196361789Y-197818838D01*
X196596100Y-197756054D01*
X196820212Y-197663224D01*
X197030289Y-197541936D01*
X197222738Y-197394265D01*
X197394265Y-197222738D01*
X197541936Y-197030289D01*
X197663224Y-196820212D01*
X197756054Y-196596100D01*
X197818838Y-196361789D01*
X197850500Y-196121288D01*
X197850500Y-195878712D01*
X197818838Y-195638211D01*
X197756054Y-195403900D01*
X197663224Y-195179788D01*
X197541936Y-194969711D01*
X197394265Y-194777262D01*
X197222738Y-194605735D01*
X197222733Y-194605731D01*
X197222731Y-194605729D01*
X197030292Y-194458066D01*
X197030289Y-194458064D01*
X196820212Y-194336776D01*
X196820208Y-194336774D01*
X196820204Y-194336772D01*
X196596105Y-194243948D01*
X196596104Y-194243947D01*
X196596100Y-194243946D01*
X196361789Y-194181162D01*
X196361786Y-194181161D01*
X196361784Y-194181161D01*
X196121289Y-194149500D01*
X196121288Y-194149500D01*
X195878712Y-194149500D01*
X195878710Y-194149500D01*
X195638218Y-194181161D01*
X195638213Y-194181161D01*
X195403907Y-194243944D01*
X195403894Y-194243948D01*
X195179795Y-194336772D01*
X194969707Y-194458066D01*
X194777268Y-194605729D01*
X194605729Y-194777268D01*
X194458066Y-194969707D01*
X194336772Y-195179795D01*
X194243948Y-195403894D01*
X194243944Y-195403907D01*
X194181161Y-195638213D01*
X194181161Y-195638218D01*
X194149500Y-195878710D01*
X105850500Y-195878710D01*
X105818838Y-195638211D01*
X105756054Y-195403900D01*
X105663224Y-195179788D01*
X105541936Y-194969711D01*
X105394265Y-194777262D01*
X105222738Y-194605735D01*
X105222733Y-194605731D01*
X105222731Y-194605729D01*
X105030292Y-194458066D01*
X105030289Y-194458064D01*
X104820212Y-194336776D01*
X104820208Y-194336774D01*
X104820204Y-194336772D01*
X104596105Y-194243948D01*
X104596104Y-194243947D01*
X104596100Y-194243946D01*
X104361789Y-194181162D01*
X104361786Y-194181161D01*
X104361784Y-194181161D01*
X104121289Y-194149500D01*
X104121288Y-194149500D01*
X103878712Y-194149500D01*
X103878710Y-194149500D01*
X103638218Y-194181161D01*
X103638213Y-194181161D01*
X103403907Y-194243944D01*
X103403894Y-194243948D01*
X103179795Y-194336772D01*
X102969707Y-194458066D01*
X102777268Y-194605729D01*
X102605729Y-194777268D01*
X102458066Y-194969707D01*
X102336772Y-195179795D01*
X102243948Y-195403894D01*
X102243944Y-195403907D01*
X102181161Y-195638213D01*
X102181161Y-195638218D01*
X102149500Y-195878710D01*
X100500500Y-195878710D01*
X100500500Y-185000000D01*
X182494435Y-185000000D01*
X182514632Y-185179257D01*
X182514633Y-185179261D01*
X182574211Y-185349522D01*
X182574211Y-185349523D01*
X182670181Y-185502258D01*
X182670184Y-185502262D01*
X182797738Y-185629816D01*
X182950478Y-185725789D01*
X183018657Y-185749646D01*
X183120738Y-185785366D01*
X183120742Y-185785367D01*
X183120745Y-185785368D01*
X183300000Y-185805565D01*
X183479255Y-185785368D01*
X183649522Y-185725789D01*
X183802262Y-185629816D01*
X183929816Y-185502262D01*
X184025789Y-185349522D01*
X184085368Y-185179255D01*
X184105565Y-185000000D01*
X184085368Y-184820745D01*
X184025789Y-184650478D01*
X183929816Y-184497738D01*
X183802262Y-184370184D01*
X183802259Y-184370182D01*
X183802258Y-184370181D01*
X183649523Y-184274211D01*
X183479261Y-184214633D01*
X183479257Y-184214632D01*
X183300000Y-184194435D01*
X183120742Y-184214632D01*
X183120738Y-184214633D01*
X182950477Y-184274211D01*
X182950476Y-184274211D01*
X182797741Y-184370181D01*
X182670181Y-184497741D01*
X182574211Y-184650476D01*
X182574211Y-184650477D01*
X182514633Y-184820738D01*
X182514632Y-184820742D01*
X182494435Y-185000000D01*
X100500500Y-185000000D01*
X100500500Y-170000000D01*
X118714435Y-170000000D01*
X118734632Y-170179257D01*
X118734633Y-170179261D01*
X118794211Y-170349522D01*
X118794211Y-170349523D01*
X118890181Y-170502258D01*
X118890184Y-170502262D01*
X119017738Y-170629816D01*
X119017740Y-170629817D01*
X119017741Y-170629818D01*
X119170474Y-170725787D01*
X119170478Y-170725789D01*
X119238657Y-170749646D01*
X119340738Y-170785366D01*
X119340742Y-170785367D01*
X119340745Y-170785368D01*
X119520000Y-170805565D01*
X119699255Y-170785368D01*
X119869522Y-170725789D01*
X120022262Y-170629816D01*
X120149816Y-170502262D01*
X120245789Y-170349522D01*
X120305368Y-170179255D01*
X120325565Y-170000000D01*
X123406935Y-170000000D01*
X123427132Y-170179257D01*
X123427133Y-170179261D01*
X123486711Y-170349522D01*
X123486711Y-170349523D01*
X123582681Y-170502258D01*
X123582684Y-170502262D01*
X123710238Y-170629816D01*
X123710240Y-170629817D01*
X123710241Y-170629818D01*
X123862974Y-170725787D01*
X123862978Y-170725789D01*
X123931157Y-170749646D01*
X124033238Y-170785366D01*
X124033242Y-170785367D01*
X124033245Y-170785368D01*
X124212500Y-170805565D01*
X124391755Y-170785368D01*
X124562022Y-170725789D01*
X124714762Y-170629816D01*
X124842316Y-170502262D01*
X124938289Y-170349522D01*
X124997868Y-170179255D01*
X125018065Y-170000000D01*
X128406935Y-170000000D01*
X128427132Y-170179257D01*
X128427133Y-170179261D01*
X128486711Y-170349522D01*
X128486711Y-170349523D01*
X128582681Y-170502258D01*
X128582684Y-170502262D01*
X128710238Y-170629816D01*
X128710240Y-170629817D01*
X128710241Y-170629818D01*
X128862974Y-170725787D01*
X128862978Y-170725789D01*
X128931157Y-170749646D01*
X129033238Y-170785366D01*
X129033242Y-170785367D01*
X129033245Y-170785368D01*
X129212500Y-170805565D01*
X129391755Y-170785368D01*
X129562022Y-170725789D01*
X129714762Y-170629816D01*
X129842316Y-170502262D01*
X129938289Y-170349522D01*
X129997868Y-170179255D01*
X130018065Y-170000000D01*
X133406935Y-170000000D01*
X133427132Y-170179257D01*
X133427133Y-170179261D01*
X133486711Y-170349522D01*
X133486711Y-170349523D01*
X133582681Y-170502258D01*
X133582684Y-170502262D01*
X133710238Y-170629816D01*
X133710240Y-170629817D01*
X133710241Y-170629818D01*
X133862974Y-170725787D01*
X133862978Y-170725789D01*
X133931157Y-170749646D01*
X134033238Y-170785366D01*
X134033242Y-170785367D01*
X134033245Y-170785368D01*
X134212500Y-170805565D01*
X134391755Y-170785368D01*
X134562022Y-170725789D01*
X134714762Y-170629816D01*
X134842316Y-170502262D01*
X134938289Y-170349522D01*
X134997868Y-170179255D01*
X135018065Y-170000000D01*
X138144435Y-170000000D01*
X138164632Y-170179257D01*
X138164633Y-170179261D01*
X138224211Y-170349522D01*
X138224211Y-170349523D01*
X138320181Y-170502258D01*
X138320184Y-170502262D01*
X138447738Y-170629816D01*
X138447740Y-170629817D01*
X138447741Y-170629818D01*
X138600474Y-170725787D01*
X138600478Y-170725789D01*
X138668657Y-170749646D01*
X138770738Y-170785366D01*
X138770742Y-170785367D01*
X138770745Y-170785368D01*
X138950000Y-170805565D01*
X139129255Y-170785368D01*
X139299522Y-170725789D01*
X139452262Y-170629816D01*
X139579816Y-170502262D01*
X139675789Y-170349522D01*
X139735368Y-170179255D01*
X139755565Y-170000000D01*
X143144435Y-170000000D01*
X143164632Y-170179257D01*
X143164633Y-170179261D01*
X143224211Y-170349522D01*
X143224211Y-170349523D01*
X143320181Y-170502258D01*
X143320184Y-170502262D01*
X143447738Y-170629816D01*
X143447740Y-170629817D01*
X143447741Y-170629818D01*
X143600474Y-170725787D01*
X143600478Y-170725789D01*
X143668657Y-170749646D01*
X143770738Y-170785366D01*
X143770742Y-170785367D01*
X143770745Y-170785368D01*
X143950000Y-170805565D01*
X144129255Y-170785368D01*
X144299522Y-170725789D01*
X144452262Y-170629816D01*
X144579816Y-170502262D01*
X144675789Y-170349522D01*
X144735368Y-170179255D01*
X144755565Y-170000000D01*
X149704435Y-170000000D01*
X149724632Y-170179257D01*
X149724633Y-170179261D01*
X149784211Y-170349522D01*
X149784211Y-170349523D01*
X149880181Y-170502258D01*
X149880184Y-170502262D01*
X150007738Y-170629816D01*
X150007740Y-170629817D01*
X150007741Y-170629818D01*
X150160474Y-170725787D01*
X150160478Y-170725789D01*
X150228657Y-170749646D01*
X150330738Y-170785366D01*
X150330742Y-170785367D01*
X150330745Y-170785368D01*
X150510000Y-170805565D01*
X150689255Y-170785368D01*
X150859522Y-170725789D01*
X151012262Y-170629816D01*
X151139816Y-170502262D01*
X151235789Y-170349522D01*
X151295368Y-170179255D01*
X151315565Y-170000000D01*
X153684435Y-170000000D01*
X153704632Y-170179257D01*
X153704633Y-170179261D01*
X153764211Y-170349522D01*
X153764211Y-170349523D01*
X153860181Y-170502258D01*
X153860184Y-170502262D01*
X153987738Y-170629816D01*
X153987740Y-170629817D01*
X153987741Y-170629818D01*
X154140474Y-170725787D01*
X154140478Y-170725789D01*
X154208657Y-170749646D01*
X154310738Y-170785366D01*
X154310742Y-170785367D01*
X154310745Y-170785368D01*
X154490000Y-170805565D01*
X154669255Y-170785368D01*
X154839522Y-170725789D01*
X154839524Y-170725787D01*
X154839526Y-170725787D01*
X154947328Y-170658050D01*
X155006659Y-170643099D01*
X155052672Y-170658050D01*
X155160473Y-170725787D01*
X155160476Y-170725787D01*
X155160478Y-170725789D01*
X155261145Y-170761014D01*
X155330738Y-170785366D01*
X155330742Y-170785367D01*
X155330745Y-170785368D01*
X155510000Y-170805565D01*
X155689255Y-170785368D01*
X155859522Y-170725789D01*
X156012262Y-170629816D01*
X156139816Y-170502262D01*
X156235789Y-170349522D01*
X156295368Y-170179255D01*
X156315565Y-170000000D01*
X159704435Y-170000000D01*
X159724632Y-170179257D01*
X159724633Y-170179261D01*
X159784211Y-170349522D01*
X159784211Y-170349523D01*
X159880181Y-170502258D01*
X159880184Y-170502262D01*
X160007738Y-170629816D01*
X160007740Y-170629817D01*
X160007741Y-170629818D01*
X160160474Y-170725787D01*
X160160478Y-170725789D01*
X160228657Y-170749646D01*
X160330738Y-170785366D01*
X160330742Y-170785367D01*
X160330745Y-170785368D01*
X160510000Y-170805565D01*
X160689255Y-170785368D01*
X160859522Y-170725789D01*
X161012262Y-170629816D01*
X161139816Y-170502262D01*
X161235789Y-170349522D01*
X161295368Y-170179255D01*
X161315565Y-170000000D01*
X164704435Y-170000000D01*
X164724632Y-170179257D01*
X164724633Y-170179261D01*
X164784211Y-170349522D01*
X164784211Y-170349523D01*
X164880181Y-170502258D01*
X164880184Y-170502262D01*
X165007738Y-170629816D01*
X165007740Y-170629817D01*
X165007741Y-170629818D01*
X165160474Y-170725787D01*
X165160478Y-170725789D01*
X165228657Y-170749646D01*
X165330738Y-170785366D01*
X165330742Y-170785367D01*
X165330745Y-170785368D01*
X165510000Y-170805565D01*
X165689255Y-170785368D01*
X165859522Y-170725789D01*
X166012262Y-170629816D01*
X166139816Y-170502262D01*
X166235789Y-170349522D01*
X166295368Y-170179255D01*
X166315565Y-170000000D01*
X166295368Y-169820745D01*
X166235789Y-169650478D01*
X166139816Y-169497738D01*
X166012262Y-169370184D01*
X166012259Y-169370182D01*
X166012258Y-169370181D01*
X165859523Y-169274211D01*
X165689261Y-169214633D01*
X165689257Y-169214632D01*
X165510000Y-169194435D01*
X165330742Y-169214632D01*
X165330738Y-169214633D01*
X165160477Y-169274211D01*
X165160476Y-169274211D01*
X165007741Y-169370181D01*
X164880181Y-169497741D01*
X164784211Y-169650476D01*
X164784211Y-169650477D01*
X164724633Y-169820738D01*
X164724632Y-169820742D01*
X164704435Y-170000000D01*
X161315565Y-170000000D01*
X161295368Y-169820745D01*
X161235789Y-169650478D01*
X161139816Y-169497738D01*
X161012262Y-169370184D01*
X161012259Y-169370182D01*
X161012258Y-169370181D01*
X160859523Y-169274211D01*
X160689261Y-169214633D01*
X160689257Y-169214632D01*
X160510000Y-169194435D01*
X160330742Y-169214632D01*
X160330738Y-169214633D01*
X160160477Y-169274211D01*
X160160476Y-169274211D01*
X160007741Y-169370181D01*
X159880181Y-169497741D01*
X159784211Y-169650476D01*
X159784211Y-169650477D01*
X159724633Y-169820738D01*
X159724632Y-169820742D01*
X159704435Y-170000000D01*
X156315565Y-170000000D01*
X156295368Y-169820745D01*
X156235789Y-169650478D01*
X156139816Y-169497738D01*
X156012262Y-169370184D01*
X156012259Y-169370182D01*
X156012258Y-169370181D01*
X155859523Y-169274211D01*
X155689261Y-169214633D01*
X155689257Y-169214632D01*
X155510000Y-169194435D01*
X155330742Y-169214632D01*
X155330738Y-169214633D01*
X155160477Y-169274211D01*
X155160476Y-169274211D01*
X155052671Y-169341950D01*
X154993340Y-169356900D01*
X154947329Y-169341950D01*
X154839523Y-169274211D01*
X154669261Y-169214633D01*
X154669257Y-169214632D01*
X154490000Y-169194435D01*
X154310742Y-169214632D01*
X154310738Y-169214633D01*
X154140477Y-169274211D01*
X154140476Y-169274211D01*
X153987741Y-169370181D01*
X153860181Y-169497741D01*
X153764211Y-169650476D01*
X153764211Y-169650477D01*
X153704633Y-169820738D01*
X153704632Y-169820742D01*
X153684435Y-170000000D01*
X151315565Y-170000000D01*
X151295368Y-169820745D01*
X151235789Y-169650478D01*
X151139816Y-169497738D01*
X151012262Y-169370184D01*
X151012259Y-169370182D01*
X151012258Y-169370181D01*
X150859523Y-169274211D01*
X150689261Y-169214633D01*
X150689257Y-169214632D01*
X150510000Y-169194435D01*
X150330742Y-169214632D01*
X150330738Y-169214633D01*
X150160477Y-169274211D01*
X150160476Y-169274211D01*
X150007741Y-169370181D01*
X149880181Y-169497741D01*
X149784211Y-169650476D01*
X149784211Y-169650477D01*
X149724633Y-169820738D01*
X149724632Y-169820742D01*
X149704435Y-170000000D01*
X144755565Y-170000000D01*
X144735368Y-169820745D01*
X144675789Y-169650478D01*
X144579816Y-169497738D01*
X144452262Y-169370184D01*
X144452259Y-169370182D01*
X144452258Y-169370181D01*
X144299523Y-169274211D01*
X144129261Y-169214633D01*
X144129257Y-169214632D01*
X143950000Y-169194435D01*
X143770742Y-169214632D01*
X143770738Y-169214633D01*
X143600477Y-169274211D01*
X143600476Y-169274211D01*
X143447741Y-169370181D01*
X143320181Y-169497741D01*
X143224211Y-169650476D01*
X143224211Y-169650477D01*
X143164633Y-169820738D01*
X143164632Y-169820742D01*
X143144435Y-170000000D01*
X139755565Y-170000000D01*
X139735368Y-169820745D01*
X139675789Y-169650478D01*
X139579816Y-169497738D01*
X139452262Y-169370184D01*
X139452259Y-169370182D01*
X139452258Y-169370181D01*
X139299523Y-169274211D01*
X139129261Y-169214633D01*
X139129257Y-169214632D01*
X138950000Y-169194435D01*
X138770742Y-169214632D01*
X138770738Y-169214633D01*
X138600477Y-169274211D01*
X138600476Y-169274211D01*
X138447741Y-169370181D01*
X138320181Y-169497741D01*
X138224211Y-169650476D01*
X138224211Y-169650477D01*
X138164633Y-169820738D01*
X138164632Y-169820742D01*
X138144435Y-170000000D01*
X135018065Y-170000000D01*
X134997868Y-169820745D01*
X134938289Y-169650478D01*
X134842316Y-169497738D01*
X134714762Y-169370184D01*
X134714759Y-169370182D01*
X134714758Y-169370181D01*
X134562023Y-169274211D01*
X134391761Y-169214633D01*
X134391757Y-169214632D01*
X134212500Y-169194435D01*
X134033242Y-169214632D01*
X134033238Y-169214633D01*
X133862977Y-169274211D01*
X133862976Y-169274211D01*
X133710241Y-169370181D01*
X133582681Y-169497741D01*
X133486711Y-169650476D01*
X133486711Y-169650477D01*
X133427133Y-169820738D01*
X133427132Y-169820742D01*
X133406935Y-170000000D01*
X130018065Y-170000000D01*
X129997868Y-169820745D01*
X129938289Y-169650478D01*
X129842316Y-169497738D01*
X129714762Y-169370184D01*
X129714759Y-169370182D01*
X129714758Y-169370181D01*
X129562023Y-169274211D01*
X129391761Y-169214633D01*
X129391757Y-169214632D01*
X129212500Y-169194435D01*
X129033242Y-169214632D01*
X129033238Y-169214633D01*
X128862977Y-169274211D01*
X128862976Y-169274211D01*
X128710241Y-169370181D01*
X128582681Y-169497741D01*
X128486711Y-169650476D01*
X128486711Y-169650477D01*
X128427133Y-169820738D01*
X128427132Y-169820742D01*
X128406935Y-170000000D01*
X125018065Y-170000000D01*
X124997868Y-169820745D01*
X124938289Y-169650478D01*
X124842316Y-169497738D01*
X124714762Y-169370184D01*
X124714759Y-169370182D01*
X124714758Y-169370181D01*
X124562023Y-169274211D01*
X124391761Y-169214633D01*
X124391757Y-169214632D01*
X124212500Y-169194435D01*
X124033242Y-169214632D01*
X124033238Y-169214633D01*
X123862977Y-169274211D01*
X123862976Y-169274211D01*
X123710241Y-169370181D01*
X123582681Y-169497741D01*
X123486711Y-169650476D01*
X123486711Y-169650477D01*
X123427133Y-169820738D01*
X123427132Y-169820742D01*
X123406935Y-170000000D01*
X120325565Y-170000000D01*
X120305368Y-169820745D01*
X120245789Y-169650478D01*
X120149816Y-169497738D01*
X120022262Y-169370184D01*
X120022259Y-169370182D01*
X120022258Y-169370181D01*
X119869523Y-169274211D01*
X119699261Y-169214633D01*
X119699257Y-169214632D01*
X119520000Y-169194435D01*
X119340742Y-169214632D01*
X119340738Y-169214633D01*
X119170477Y-169274211D01*
X119170476Y-169274211D01*
X119017741Y-169370181D01*
X118890181Y-169497741D01*
X118794211Y-169650476D01*
X118794211Y-169650477D01*
X118734633Y-169820738D01*
X118734632Y-169820742D01*
X118714435Y-170000000D01*
X100500500Y-170000000D01*
X100500500Y-166750000D01*
X189194435Y-166750000D01*
X189214632Y-166929257D01*
X189227945Y-166967304D01*
X189229317Y-167028474D01*
X189227945Y-167032696D01*
X189214632Y-167070742D01*
X189194435Y-167250000D01*
X189214632Y-167429257D01*
X189214633Y-167429261D01*
X189274211Y-167599522D01*
X189274211Y-167599523D01*
X189370181Y-167752258D01*
X189370184Y-167752262D01*
X189497738Y-167879816D01*
X189650478Y-167975789D01*
X189718657Y-167999646D01*
X189820738Y-168035366D01*
X189820742Y-168035367D01*
X189820745Y-168035368D01*
X190000000Y-168055565D01*
X190179255Y-168035368D01*
X190349522Y-167975789D01*
X190502262Y-167879816D01*
X190629816Y-167752262D01*
X190725789Y-167599522D01*
X190785368Y-167429255D01*
X190805565Y-167250000D01*
X190785368Y-167070745D01*
X190772054Y-167032698D01*
X190770680Y-166971530D01*
X190772055Y-166967300D01*
X190785365Y-166929263D01*
X190785367Y-166929257D01*
X190785368Y-166929255D01*
X190805565Y-166750000D01*
X190785368Y-166570745D01*
X190725789Y-166400478D01*
X190629816Y-166247738D01*
X190502262Y-166120184D01*
X190502259Y-166120182D01*
X190502258Y-166120181D01*
X190349523Y-166024211D01*
X190179261Y-165964633D01*
X190179257Y-165964632D01*
X190000000Y-165944435D01*
X189820742Y-165964632D01*
X189820738Y-165964633D01*
X189650477Y-166024211D01*
X189650476Y-166024211D01*
X189497741Y-166120181D01*
X189370181Y-166247741D01*
X189274211Y-166400476D01*
X189274211Y-166400477D01*
X189214633Y-166570738D01*
X189214632Y-166570742D01*
X189194435Y-166750000D01*
X100500500Y-166750000D01*
X100500500Y-162450000D01*
X185069435Y-162450000D01*
X185089632Y-162629257D01*
X185089633Y-162629261D01*
X185149211Y-162799522D01*
X185149211Y-162799523D01*
X185245181Y-162952258D01*
X185245184Y-162952262D01*
X185372738Y-163079816D01*
X185525478Y-163175789D01*
X185593657Y-163199646D01*
X185695738Y-163235366D01*
X185695742Y-163235367D01*
X185695745Y-163235368D01*
X185875000Y-163255565D01*
X186054255Y-163235368D01*
X186224522Y-163175789D01*
X186377262Y-163079816D01*
X186504816Y-162952262D01*
X186600789Y-162799522D01*
X186660368Y-162629255D01*
X186680565Y-162450000D01*
X186660368Y-162270745D01*
X186600789Y-162100478D01*
X186504816Y-161947738D01*
X186377262Y-161820184D01*
X186377259Y-161820182D01*
X186377258Y-161820181D01*
X186224523Y-161724211D01*
X186054261Y-161664633D01*
X186054257Y-161664632D01*
X185875000Y-161644435D01*
X185695742Y-161664632D01*
X185695738Y-161664633D01*
X185525477Y-161724211D01*
X185525476Y-161724211D01*
X185372741Y-161820181D01*
X185245181Y-161947741D01*
X185149211Y-162100476D01*
X185149211Y-162100477D01*
X185089633Y-162270738D01*
X185089632Y-162270742D01*
X185069435Y-162450000D01*
X100500500Y-162450000D01*
X100500500Y-160000000D01*
X108714435Y-160000000D01*
X108734632Y-160179257D01*
X108734633Y-160179261D01*
X108794211Y-160349522D01*
X108794211Y-160349523D01*
X108890181Y-160502258D01*
X108890184Y-160502262D01*
X109017738Y-160629816D01*
X109017740Y-160629817D01*
X109017741Y-160629818D01*
X109170474Y-160725787D01*
X109170478Y-160725789D01*
X109238657Y-160749646D01*
X109340738Y-160785366D01*
X109340742Y-160785367D01*
X109340745Y-160785368D01*
X109520000Y-160805565D01*
X109699255Y-160785368D01*
X109869522Y-160725789D01*
X110022262Y-160629816D01*
X110149816Y-160502262D01*
X110245789Y-160349522D01*
X110305368Y-160179255D01*
X110325565Y-160000000D01*
X113714435Y-160000000D01*
X113734632Y-160179257D01*
X113734633Y-160179261D01*
X113794211Y-160349522D01*
X113794211Y-160349523D01*
X113890181Y-160502258D01*
X113890184Y-160502262D01*
X114017738Y-160629816D01*
X114017740Y-160629817D01*
X114017741Y-160629818D01*
X114170474Y-160725787D01*
X114170478Y-160725789D01*
X114238657Y-160749646D01*
X114340738Y-160785366D01*
X114340742Y-160785367D01*
X114340745Y-160785368D01*
X114520000Y-160805565D01*
X114699255Y-160785368D01*
X114869522Y-160725789D01*
X114947328Y-160676899D01*
X115006659Y-160661949D01*
X115052672Y-160676900D01*
X115130474Y-160725787D01*
X115130475Y-160725787D01*
X115130478Y-160725789D01*
X115231145Y-160761014D01*
X115300738Y-160785366D01*
X115300742Y-160785367D01*
X115300745Y-160785368D01*
X115480000Y-160805565D01*
X115659255Y-160785368D01*
X115829522Y-160725789D01*
X115982262Y-160629816D01*
X116109816Y-160502262D01*
X116205789Y-160349522D01*
X116265368Y-160179255D01*
X116285565Y-160000000D01*
X118714435Y-160000000D01*
X118734632Y-160179257D01*
X118734633Y-160179261D01*
X118794211Y-160349522D01*
X118794211Y-160349523D01*
X118890181Y-160502258D01*
X118890184Y-160502262D01*
X119017738Y-160629816D01*
X119017740Y-160629817D01*
X119017741Y-160629818D01*
X119170474Y-160725787D01*
X119170478Y-160725789D01*
X119238657Y-160749646D01*
X119340738Y-160785366D01*
X119340742Y-160785367D01*
X119340745Y-160785368D01*
X119520000Y-160805565D01*
X119699255Y-160785368D01*
X119869522Y-160725789D01*
X119947328Y-160676899D01*
X120006659Y-160661949D01*
X120052672Y-160676900D01*
X120130474Y-160725787D01*
X120130475Y-160725787D01*
X120130478Y-160725789D01*
X120231145Y-160761014D01*
X120300738Y-160785366D01*
X120300742Y-160785367D01*
X120300745Y-160785368D01*
X120480000Y-160805565D01*
X120659255Y-160785368D01*
X120829522Y-160725789D01*
X120982262Y-160629816D01*
X121109816Y-160502262D01*
X121205789Y-160349522D01*
X121265368Y-160179255D01*
X121285565Y-160000000D01*
X123714435Y-160000000D01*
X123734632Y-160179257D01*
X123734633Y-160179261D01*
X123794211Y-160349522D01*
X123794211Y-160349523D01*
X123890181Y-160502258D01*
X123890184Y-160502262D01*
X124017738Y-160629816D01*
X124017740Y-160629817D01*
X124017741Y-160629818D01*
X124170474Y-160725787D01*
X124170478Y-160725789D01*
X124238657Y-160749646D01*
X124340738Y-160785366D01*
X124340742Y-160785367D01*
X124340745Y-160785368D01*
X124520000Y-160805565D01*
X124699255Y-160785368D01*
X124869522Y-160725789D01*
X125022262Y-160629816D01*
X125149816Y-160502262D01*
X125245789Y-160349522D01*
X125305368Y-160179255D01*
X125325565Y-160000000D01*
X125305368Y-159820745D01*
X125245789Y-159650478D01*
X125238523Y-159638915D01*
X125149818Y-159497741D01*
X125149817Y-159497740D01*
X125149816Y-159497738D01*
X125022262Y-159370184D01*
X125022259Y-159370182D01*
X125022258Y-159370181D01*
X124869523Y-159274211D01*
X124699261Y-159214633D01*
X124699257Y-159214632D01*
X124520000Y-159194435D01*
X124340742Y-159214632D01*
X124340738Y-159214633D01*
X124170477Y-159274211D01*
X124170476Y-159274211D01*
X124017741Y-159370181D01*
X123890181Y-159497741D01*
X123794211Y-159650476D01*
X123794211Y-159650477D01*
X123734633Y-159820738D01*
X123734632Y-159820742D01*
X123714435Y-160000000D01*
X121285565Y-160000000D01*
X121265368Y-159820745D01*
X121205789Y-159650478D01*
X121198523Y-159638915D01*
X121109818Y-159497741D01*
X121109817Y-159497740D01*
X121109816Y-159497738D01*
X120982262Y-159370184D01*
X120982259Y-159370182D01*
X120982258Y-159370181D01*
X120829523Y-159274211D01*
X120659261Y-159214633D01*
X120659257Y-159214632D01*
X120480000Y-159194435D01*
X120300742Y-159214632D01*
X120300738Y-159214633D01*
X120130478Y-159274210D01*
X120052671Y-159323100D01*
X119993340Y-159338050D01*
X119947329Y-159323100D01*
X119869521Y-159274210D01*
X119699261Y-159214633D01*
X119699257Y-159214632D01*
X119520000Y-159194435D01*
X119340742Y-159214632D01*
X119340738Y-159214633D01*
X119170477Y-159274211D01*
X119170476Y-159274211D01*
X119017741Y-159370181D01*
X118890181Y-159497741D01*
X118794211Y-159650476D01*
X118794211Y-159650477D01*
X118734633Y-159820738D01*
X118734632Y-159820742D01*
X118714435Y-160000000D01*
X116285565Y-160000000D01*
X116265368Y-159820745D01*
X116205789Y-159650478D01*
X116198523Y-159638915D01*
X116109818Y-159497741D01*
X116109817Y-159497740D01*
X116109816Y-159497738D01*
X115982262Y-159370184D01*
X115982259Y-159370182D01*
X115982258Y-159370181D01*
X115829523Y-159274211D01*
X115659261Y-159214633D01*
X115659257Y-159214632D01*
X115480000Y-159194435D01*
X115300742Y-159214632D01*
X115300738Y-159214633D01*
X115130478Y-159274210D01*
X115052671Y-159323100D01*
X114993340Y-159338050D01*
X114947329Y-159323100D01*
X114869521Y-159274210D01*
X114699261Y-159214633D01*
X114699257Y-159214632D01*
X114520000Y-159194435D01*
X114340742Y-159214632D01*
X114340738Y-159214633D01*
X114170477Y-159274211D01*
X114170476Y-159274211D01*
X114017741Y-159370181D01*
X113890181Y-159497741D01*
X113794211Y-159650476D01*
X113794211Y-159650477D01*
X113734633Y-159820738D01*
X113734632Y-159820742D01*
X113714435Y-160000000D01*
X110325565Y-160000000D01*
X110305368Y-159820745D01*
X110245789Y-159650478D01*
X110238523Y-159638915D01*
X110149818Y-159497741D01*
X110149817Y-159497740D01*
X110149816Y-159497738D01*
X110022262Y-159370184D01*
X110022259Y-159370182D01*
X110022258Y-159370181D01*
X109869523Y-159274211D01*
X109699261Y-159214633D01*
X109699257Y-159214632D01*
X109520000Y-159194435D01*
X109340742Y-159214632D01*
X109340738Y-159214633D01*
X109170477Y-159274211D01*
X109170476Y-159274211D01*
X109017741Y-159370181D01*
X108890181Y-159497741D01*
X108794211Y-159650476D01*
X108794211Y-159650477D01*
X108734633Y-159820738D01*
X108734632Y-159820742D01*
X108714435Y-160000000D01*
X100500500Y-160000000D01*
X100500500Y-159125000D01*
X181744435Y-159125000D01*
X181752258Y-159194435D01*
X181762903Y-159288915D01*
X181762903Y-159311083D01*
X181744435Y-159474999D01*
X181744435Y-159475000D01*
X181746997Y-159497738D01*
X181762903Y-159638916D01*
X181762903Y-159661084D01*
X181744435Y-159825000D01*
X181764632Y-160004257D01*
X181764633Y-160004261D01*
X181824211Y-160174522D01*
X181824211Y-160174523D01*
X181920181Y-160327258D01*
X181920184Y-160327262D01*
X182047738Y-160454816D01*
X182200478Y-160550789D01*
X182268657Y-160574646D01*
X182370738Y-160610366D01*
X182370742Y-160610367D01*
X182370745Y-160610368D01*
X182550000Y-160630565D01*
X182729255Y-160610368D01*
X182899522Y-160550789D01*
X183052262Y-160454816D01*
X183179816Y-160327262D01*
X183275789Y-160174522D01*
X183335368Y-160004255D01*
X183355565Y-159825000D01*
X183355565Y-159824996D01*
X183355565Y-159824995D01*
X183337096Y-159661085D01*
X183337096Y-159638915D01*
X183355565Y-159475004D01*
X183355565Y-159474995D01*
X183337096Y-159311085D01*
X183337096Y-159288915D01*
X183355565Y-159125004D01*
X183355565Y-159125003D01*
X183355565Y-159124999D01*
X183335368Y-158945745D01*
X183275789Y-158775478D01*
X183179816Y-158622738D01*
X183052262Y-158495184D01*
X183052259Y-158495182D01*
X183052258Y-158495181D01*
X182899523Y-158399211D01*
X182729261Y-158339633D01*
X182729257Y-158339632D01*
X182550000Y-158319435D01*
X182370742Y-158339632D01*
X182370738Y-158339633D01*
X182200477Y-158399211D01*
X182200476Y-158399211D01*
X182047741Y-158495181D01*
X181920181Y-158622741D01*
X181824211Y-158775476D01*
X181824211Y-158775477D01*
X181764633Y-158945738D01*
X181764632Y-158945742D01*
X181764632Y-158945745D01*
X181744435Y-159125000D01*
X100500500Y-159125000D01*
X100500500Y-150250000D01*
X128244435Y-150250000D01*
X128264632Y-150429257D01*
X128277945Y-150467304D01*
X128279317Y-150528474D01*
X128277945Y-150532696D01*
X128264632Y-150570742D01*
X128244435Y-150750000D01*
X128264632Y-150929257D01*
X128264633Y-150929261D01*
X128324211Y-151099522D01*
X128324211Y-151099523D01*
X128420181Y-151252258D01*
X128420184Y-151252262D01*
X128547738Y-151379816D01*
X128700478Y-151475789D01*
X128768657Y-151499646D01*
X128870738Y-151535366D01*
X128870742Y-151535367D01*
X128870745Y-151535368D01*
X129050000Y-151555565D01*
X129229255Y-151535368D01*
X129399522Y-151475789D01*
X129552262Y-151379816D01*
X129679816Y-151252262D01*
X129775789Y-151099522D01*
X129835368Y-150929255D01*
X129855565Y-150750000D01*
X129835368Y-150570745D01*
X129822054Y-150532698D01*
X129820680Y-150471530D01*
X129822055Y-150467300D01*
X129835365Y-150429263D01*
X129835367Y-150429257D01*
X129835368Y-150429255D01*
X129855565Y-150250000D01*
X129835368Y-150070745D01*
X129830056Y-150055565D01*
X129802141Y-149975788D01*
X129775789Y-149900478D01*
X129762807Y-149879818D01*
X129681237Y-149750000D01*
X130144435Y-149750000D01*
X130164632Y-149929257D01*
X130164633Y-149929261D01*
X130224211Y-150099523D01*
X130285666Y-150197330D01*
X130300616Y-150256661D01*
X130285666Y-150302670D01*
X130224211Y-150400476D01*
X130164633Y-150570738D01*
X130164632Y-150570742D01*
X130144435Y-150750000D01*
X130164632Y-150929257D01*
X130164633Y-150929261D01*
X130224211Y-151099522D01*
X130224211Y-151099523D01*
X130320181Y-151252258D01*
X130320184Y-151252262D01*
X130447738Y-151379816D01*
X130600478Y-151475789D01*
X130668657Y-151499646D01*
X130770738Y-151535366D01*
X130770742Y-151535367D01*
X130770745Y-151535368D01*
X130950000Y-151555565D01*
X131129255Y-151535368D01*
X131299522Y-151475789D01*
X131452262Y-151379816D01*
X131579816Y-151252262D01*
X131675789Y-151099522D01*
X131735368Y-150929255D01*
X131755565Y-150750000D01*
X131735368Y-150570745D01*
X131731094Y-150558532D01*
X131685861Y-150429263D01*
X131675789Y-150400478D01*
X131675787Y-150400475D01*
X131675787Y-150400474D01*
X131614333Y-150302672D01*
X131601060Y-150250000D01*
X175144435Y-150250000D01*
X175164632Y-150429257D01*
X175164633Y-150429261D01*
X175224211Y-150599522D01*
X175224211Y-150599523D01*
X175320181Y-150752258D01*
X175320184Y-150752262D01*
X175447738Y-150879816D01*
X175447740Y-150879817D01*
X175447741Y-150879818D01*
X175526419Y-150929255D01*
X175600478Y-150975789D01*
X175652779Y-150994090D01*
X175770738Y-151035366D01*
X175770742Y-151035367D01*
X175770745Y-151035368D01*
X175950000Y-151055565D01*
X176129255Y-151035368D01*
X176299522Y-150975789D01*
X176452262Y-150879816D01*
X176579816Y-150752262D01*
X176675789Y-150599522D01*
X176735368Y-150429255D01*
X176755565Y-150250000D01*
X176735368Y-150070745D01*
X176730056Y-150055565D01*
X176702141Y-149975788D01*
X176675789Y-149900478D01*
X176662807Y-149879818D01*
X176579818Y-149747741D01*
X176579817Y-149747740D01*
X176579816Y-149747738D01*
X176452262Y-149620184D01*
X176452259Y-149620182D01*
X176452258Y-149620181D01*
X176299523Y-149524211D01*
X176129261Y-149464633D01*
X176129257Y-149464632D01*
X176018288Y-149452129D01*
X188999500Y-149452129D01*
X188999500Y-150547866D01*
X188999501Y-150547870D01*
X189005908Y-150607480D01*
X189005909Y-150607485D01*
X189056202Y-150742329D01*
X189142450Y-150857541D01*
X189142454Y-150857546D01*
X189142457Y-150857548D01*
X189142458Y-150857549D01*
X189257670Y-150943797D01*
X189392511Y-150994089D01*
X189392512Y-150994089D01*
X189392517Y-150994091D01*
X189452127Y-151000500D01*
X190547872Y-151000499D01*
X190607483Y-150994091D01*
X190742331Y-150943796D01*
X190763117Y-150928234D01*
X190821028Y-150908497D01*
X190869116Y-150920177D01*
X190885273Y-150928814D01*
X191016657Y-150968669D01*
X191073867Y-150986024D01*
X191073873Y-150986025D01*
X191269997Y-151005341D01*
X191270000Y-151005341D01*
X191270003Y-151005341D01*
X191466126Y-150986025D01*
X191466127Y-150986024D01*
X191466132Y-150986024D01*
X191654727Y-150928814D01*
X191828538Y-150835910D01*
X191842194Y-150824701D01*
X191899168Y-150802401D01*
X191958372Y-150817848D01*
X191967794Y-150824693D01*
X191981462Y-150835910D01*
X192114353Y-150906942D01*
X192154191Y-150928236D01*
X192155273Y-150928814D01*
X192343868Y-150986024D01*
X192343870Y-150986024D01*
X192343873Y-150986025D01*
X192539997Y-151005341D01*
X192540000Y-151005341D01*
X192540003Y-151005341D01*
X192736126Y-150986025D01*
X192736127Y-150986024D01*
X192736132Y-150986024D01*
X192924727Y-150928814D01*
X193098538Y-150835910D01*
X193112194Y-150824701D01*
X193169168Y-150802401D01*
X193228372Y-150817848D01*
X193237794Y-150824693D01*
X193251462Y-150835910D01*
X193384353Y-150906942D01*
X193424191Y-150928236D01*
X193425273Y-150928814D01*
X193613868Y-150986024D01*
X193613870Y-150986024D01*
X193613873Y-150986025D01*
X193809997Y-151005341D01*
X193810000Y-151005341D01*
X193810003Y-151005341D01*
X194006126Y-150986025D01*
X194006127Y-150986024D01*
X194006132Y-150986024D01*
X194194727Y-150928814D01*
X194368538Y-150835910D01*
X194382194Y-150824701D01*
X194439168Y-150802401D01*
X194498372Y-150817848D01*
X194507794Y-150824693D01*
X194521462Y-150835910D01*
X194654353Y-150906942D01*
X194694191Y-150928236D01*
X194695273Y-150928814D01*
X194883868Y-150986024D01*
X194883870Y-150986024D01*
X194883873Y-150986025D01*
X195079997Y-151005341D01*
X195080000Y-151005341D01*
X195080003Y-151005341D01*
X195276126Y-150986025D01*
X195276127Y-150986024D01*
X195276132Y-150986024D01*
X195464727Y-150928814D01*
X195638538Y-150835910D01*
X195652194Y-150824701D01*
X195709168Y-150802401D01*
X195768372Y-150817848D01*
X195777794Y-150824693D01*
X195791462Y-150835910D01*
X195924353Y-150906942D01*
X195964191Y-150928236D01*
X195965273Y-150928814D01*
X196153868Y-150986024D01*
X196153870Y-150986024D01*
X196153873Y-150986025D01*
X196349997Y-151005341D01*
X196350000Y-151005341D01*
X196350003Y-151005341D01*
X196546126Y-150986025D01*
X196546127Y-150986024D01*
X196546132Y-150986024D01*
X196734727Y-150928814D01*
X196908538Y-150835910D01*
X196922194Y-150824701D01*
X196979168Y-150802401D01*
X197038372Y-150817848D01*
X197047794Y-150824693D01*
X197061462Y-150835910D01*
X197194353Y-150906942D01*
X197234191Y-150928236D01*
X197235273Y-150928814D01*
X197423868Y-150986024D01*
X197423870Y-150986024D01*
X197423873Y-150986025D01*
X197619997Y-151005341D01*
X197620000Y-151005341D01*
X197620003Y-151005341D01*
X197816126Y-150986025D01*
X197816127Y-150986024D01*
X197816132Y-150986024D01*
X198004727Y-150928814D01*
X198178538Y-150835910D01*
X198330883Y-150710883D01*
X198455910Y-150558538D01*
X198548814Y-150384727D01*
X198606024Y-150196132D01*
X198618374Y-150070745D01*
X198625341Y-150000003D01*
X198625341Y-149999996D01*
X198606025Y-149803873D01*
X198606024Y-149803870D01*
X198606024Y-149803868D01*
X198548814Y-149615273D01*
X198540395Y-149599523D01*
X198468295Y-149464633D01*
X198455910Y-149441462D01*
X198444701Y-149427805D01*
X198422401Y-149370832D01*
X198437848Y-149311628D01*
X198444693Y-149302205D01*
X198455910Y-149288538D01*
X198548814Y-149114727D01*
X198606024Y-148926132D01*
X198606121Y-148925155D01*
X198625341Y-148730000D01*
X198625341Y-148729996D01*
X198606025Y-148533873D01*
X198606024Y-148533870D01*
X198606024Y-148533868D01*
X198548814Y-148345273D01*
X198455910Y-148171462D01*
X198455906Y-148171457D01*
X198330887Y-148019121D01*
X198330878Y-148019112D01*
X198178542Y-147894093D01*
X198178540Y-147894092D01*
X198178538Y-147894090D01*
X198137618Y-147872218D01*
X198004732Y-147801188D01*
X198004730Y-147801187D01*
X197816129Y-147743975D01*
X197816126Y-147743974D01*
X197620003Y-147724659D01*
X197619997Y-147724659D01*
X197423873Y-147743974D01*
X197423870Y-147743975D01*
X197235269Y-147801187D01*
X197235267Y-147801188D01*
X197061473Y-147894082D01*
X197061464Y-147894088D01*
X197047803Y-147905300D01*
X196990826Y-147927598D01*
X196931623Y-147912148D01*
X196922197Y-147905300D01*
X196908538Y-147894090D01*
X196908536Y-147894089D01*
X196908535Y-147894088D01*
X196908526Y-147894082D01*
X196734732Y-147801188D01*
X196734730Y-147801187D01*
X196546129Y-147743975D01*
X196546126Y-147743974D01*
X196350003Y-147724659D01*
X196349997Y-147724659D01*
X196153873Y-147743974D01*
X196153870Y-147743975D01*
X195965269Y-147801187D01*
X195965267Y-147801188D01*
X195791473Y-147894082D01*
X195791464Y-147894088D01*
X195777803Y-147905300D01*
X195720826Y-147927598D01*
X195661623Y-147912148D01*
X195652197Y-147905300D01*
X195638538Y-147894090D01*
X195638536Y-147894089D01*
X195638535Y-147894088D01*
X195638526Y-147894082D01*
X195464732Y-147801188D01*
X195464730Y-147801187D01*
X195276129Y-147743975D01*
X195276126Y-147743974D01*
X195080003Y-147724659D01*
X195079997Y-147724659D01*
X194883873Y-147743974D01*
X194883870Y-147743975D01*
X194695269Y-147801187D01*
X194695267Y-147801188D01*
X194521473Y-147894082D01*
X194521464Y-147894088D01*
X194507803Y-147905300D01*
X194450826Y-147927598D01*
X194391623Y-147912148D01*
X194382197Y-147905300D01*
X194368538Y-147894090D01*
X194368536Y-147894089D01*
X194368535Y-147894088D01*
X194368526Y-147894082D01*
X194194732Y-147801188D01*
X194194730Y-147801187D01*
X194006129Y-147743975D01*
X194006126Y-147743974D01*
X193810003Y-147724659D01*
X193809997Y-147724659D01*
X193613873Y-147743974D01*
X193613870Y-147743975D01*
X193425269Y-147801187D01*
X193425267Y-147801188D01*
X193251473Y-147894082D01*
X193251464Y-147894088D01*
X193237803Y-147905300D01*
X193180826Y-147927598D01*
X193121623Y-147912148D01*
X193112197Y-147905300D01*
X193098538Y-147894090D01*
X193098536Y-147894089D01*
X193098535Y-147894088D01*
X193098526Y-147894082D01*
X192924732Y-147801188D01*
X192924730Y-147801187D01*
X192736129Y-147743975D01*
X192736126Y-147743974D01*
X192540003Y-147724659D01*
X192539997Y-147724659D01*
X192343873Y-147743974D01*
X192343870Y-147743975D01*
X192155269Y-147801187D01*
X192155267Y-147801188D01*
X191981473Y-147894082D01*
X191981464Y-147894088D01*
X191967803Y-147905300D01*
X191910826Y-147927598D01*
X191851623Y-147912148D01*
X191842197Y-147905300D01*
X191828538Y-147894090D01*
X191828536Y-147894089D01*
X191828535Y-147894088D01*
X191828526Y-147894082D01*
X191654732Y-147801188D01*
X191654730Y-147801187D01*
X191466129Y-147743975D01*
X191466126Y-147743974D01*
X191270003Y-147724659D01*
X191269997Y-147724659D01*
X191073873Y-147743974D01*
X191073870Y-147743975D01*
X190885269Y-147801187D01*
X190885267Y-147801188D01*
X190711467Y-147894087D01*
X190711457Y-147894093D01*
X190559122Y-148019112D01*
X190559113Y-148019121D01*
X190550894Y-148029136D01*
X190499361Y-148062121D01*
X190438282Y-148058515D01*
X190421697Y-148050152D01*
X190349307Y-148004666D01*
X190200000Y-147952421D01*
X190200000Y-148470382D01*
X190199554Y-148469936D01*
X190125445Y-148427149D01*
X190042787Y-148405000D01*
X189957213Y-148405000D01*
X189874555Y-148427149D01*
X189800446Y-148469936D01*
X189800000Y-148470382D01*
X189800000Y-147952421D01*
X189650693Y-148004665D01*
X189498055Y-148100574D01*
X189370574Y-148228055D01*
X189274665Y-148380693D01*
X189222422Y-148530000D01*
X189740382Y-148530000D01*
X189739936Y-148530446D01*
X189697149Y-148604555D01*
X189675000Y-148687213D01*
X189675000Y-148772787D01*
X189697149Y-148855445D01*
X189739936Y-148929554D01*
X189740382Y-148930000D01*
X189222421Y-148930000D01*
X189240771Y-148982442D01*
X189242143Y-149043612D01*
X189207298Y-149093906D01*
X189206656Y-149094392D01*
X189142455Y-149142453D01*
X189142450Y-149142458D01*
X189056202Y-149257670D01*
X189005910Y-149392511D01*
X189005908Y-149392522D01*
X188999500Y-149452129D01*
X176018288Y-149452129D01*
X175950000Y-149444435D01*
X175770742Y-149464632D01*
X175770738Y-149464633D01*
X175600477Y-149524211D01*
X175600476Y-149524211D01*
X175447741Y-149620181D01*
X175320181Y-149747741D01*
X175224211Y-149900476D01*
X175224211Y-149900477D01*
X175164633Y-150070738D01*
X175164632Y-150070742D01*
X175144435Y-150250000D01*
X131601060Y-150250000D01*
X131599382Y-150243341D01*
X131614333Y-150197328D01*
X131615087Y-150196129D01*
X131675789Y-150099522D01*
X131735368Y-149929255D01*
X131755565Y-149750000D01*
X131735368Y-149570745D01*
X131675789Y-149400478D01*
X131605452Y-149288538D01*
X131579818Y-149247741D01*
X131579817Y-149247740D01*
X131579816Y-149247738D01*
X131452262Y-149120184D01*
X131452259Y-149120182D01*
X131452258Y-149120181D01*
X131299523Y-149024211D01*
X131230333Y-149000000D01*
X139394435Y-149000000D01*
X139414632Y-149179257D01*
X139414633Y-149179261D01*
X139474211Y-149349522D01*
X139474211Y-149349523D01*
X139538682Y-149452127D01*
X139570184Y-149502262D01*
X139697738Y-149629816D01*
X139697740Y-149629817D01*
X139697741Y-149629818D01*
X139849446Y-149725141D01*
X139850478Y-149725789D01*
X139913205Y-149747738D01*
X140020738Y-149785366D01*
X140020742Y-149785367D01*
X140020745Y-149785368D01*
X140200000Y-149805565D01*
X140379255Y-149785368D01*
X140379257Y-149785367D01*
X140384780Y-149784745D01*
X140384883Y-149785661D01*
X140415117Y-149785661D01*
X140415220Y-149784745D01*
X140420742Y-149785367D01*
X140420745Y-149785368D01*
X140600000Y-149805565D01*
X140779255Y-149785368D01*
X140779257Y-149785367D01*
X140784780Y-149784745D01*
X140784883Y-149785661D01*
X140815117Y-149785661D01*
X140815220Y-149784745D01*
X140820742Y-149785367D01*
X140820745Y-149785368D01*
X141000000Y-149805565D01*
X141179255Y-149785368D01*
X141179257Y-149785367D01*
X141184780Y-149784745D01*
X141184883Y-149785661D01*
X141215117Y-149785661D01*
X141215220Y-149784745D01*
X141220742Y-149785367D01*
X141220745Y-149785368D01*
X141400000Y-149805565D01*
X141579255Y-149785368D01*
X141581036Y-149784745D01*
X141664388Y-149755578D01*
X141749522Y-149725789D01*
X141749528Y-149725785D01*
X141754527Y-149723378D01*
X141755376Y-149725141D01*
X141806650Y-149712216D01*
X141844868Y-149724633D01*
X141845473Y-149723378D01*
X141850475Y-149725787D01*
X141850478Y-149725789D01*
X141850481Y-149725790D01*
X141850483Y-149725791D01*
X142020738Y-149785366D01*
X142020742Y-149785367D01*
X142020745Y-149785368D01*
X142200000Y-149805565D01*
X142379255Y-149785368D01*
X142379257Y-149785367D01*
X142384780Y-149784745D01*
X142384883Y-149785661D01*
X142415117Y-149785661D01*
X142415220Y-149784745D01*
X142420742Y-149785367D01*
X142420745Y-149785368D01*
X142600000Y-149805565D01*
X142779255Y-149785368D01*
X142781036Y-149784745D01*
X142800000Y-149778109D01*
X142949522Y-149725789D01*
X143102262Y-149629816D01*
X143229816Y-149502262D01*
X143325789Y-149349522D01*
X143360613Y-149250000D01*
X173244435Y-149250000D01*
X173264632Y-149429257D01*
X173264633Y-149429261D01*
X173324211Y-149599522D01*
X173324211Y-149599523D01*
X173420181Y-149752258D01*
X173420184Y-149752262D01*
X173547738Y-149879816D01*
X173547740Y-149879817D01*
X173547741Y-149879818D01*
X173626419Y-149929255D01*
X173700478Y-149975789D01*
X173768657Y-149999646D01*
X173870738Y-150035366D01*
X173870742Y-150035367D01*
X173870745Y-150035368D01*
X174050000Y-150055565D01*
X174229255Y-150035368D01*
X174399522Y-149975789D01*
X174552262Y-149879816D01*
X174679816Y-149752262D01*
X174775789Y-149599522D01*
X174835368Y-149429255D01*
X174855565Y-149250000D01*
X174835368Y-149070745D01*
X174822108Y-149032851D01*
X174785963Y-148929554D01*
X174775789Y-148900478D01*
X174725689Y-148820745D01*
X174679818Y-148747741D01*
X174679817Y-148747740D01*
X174679816Y-148747738D01*
X174552262Y-148620184D01*
X174552259Y-148620182D01*
X174552258Y-148620181D01*
X174399523Y-148524211D01*
X174229261Y-148464633D01*
X174229257Y-148464632D01*
X174050000Y-148444435D01*
X173870742Y-148464632D01*
X173870738Y-148464633D01*
X173700477Y-148524211D01*
X173700476Y-148524211D01*
X173547741Y-148620181D01*
X173420181Y-148747741D01*
X173324211Y-148900476D01*
X173324211Y-148900477D01*
X173264633Y-149070738D01*
X173264632Y-149070742D01*
X173244435Y-149250000D01*
X143360613Y-149250000D01*
X143385368Y-149179255D01*
X143405565Y-149000000D01*
X143385368Y-148820745D01*
X143325789Y-148650478D01*
X143229816Y-148497738D01*
X143102262Y-148370184D01*
X143102259Y-148370182D01*
X143102258Y-148370181D01*
X142949523Y-148274211D01*
X142779261Y-148214633D01*
X142779257Y-148214632D01*
X142600000Y-148194435D01*
X142420745Y-148214632D01*
X142420742Y-148214632D01*
X142415221Y-148215255D01*
X142415118Y-148214344D01*
X142384882Y-148214344D01*
X142384779Y-148215255D01*
X142379257Y-148214632D01*
X142379255Y-148214632D01*
X142200000Y-148194435D01*
X142199999Y-148194435D01*
X142020742Y-148214632D01*
X142020738Y-148214633D01*
X141850474Y-148274212D01*
X141845466Y-148276624D01*
X141844618Y-148274863D01*
X141793333Y-148287782D01*
X141755136Y-148275371D01*
X141754534Y-148276624D01*
X141749525Y-148274212D01*
X141579261Y-148214633D01*
X141579257Y-148214632D01*
X141400000Y-148194435D01*
X141220745Y-148214632D01*
X141220742Y-148214632D01*
X141215221Y-148215255D01*
X141215118Y-148214344D01*
X141184882Y-148214344D01*
X141184779Y-148215255D01*
X141179257Y-148214632D01*
X141179255Y-148214632D01*
X141000000Y-148194435D01*
X140820745Y-148214632D01*
X140820742Y-148214632D01*
X140815221Y-148215255D01*
X140815118Y-148214344D01*
X140784882Y-148214344D01*
X140784779Y-148215255D01*
X140779257Y-148214632D01*
X140779255Y-148214632D01*
X140600000Y-148194435D01*
X140420745Y-148214632D01*
X140420742Y-148214632D01*
X140415221Y-148215255D01*
X140415118Y-148214344D01*
X140384882Y-148214344D01*
X140384779Y-148215255D01*
X140379257Y-148214632D01*
X140379255Y-148214632D01*
X140200000Y-148194435D01*
X140199999Y-148194435D01*
X140020742Y-148214632D01*
X140020738Y-148214633D01*
X139850477Y-148274211D01*
X139850476Y-148274211D01*
X139697741Y-148370181D01*
X139570181Y-148497741D01*
X139474211Y-148650476D01*
X139474211Y-148650477D01*
X139414633Y-148820738D01*
X139414632Y-148820742D01*
X139394435Y-149000000D01*
X131230333Y-149000000D01*
X131129261Y-148964633D01*
X131129257Y-148964632D01*
X130950000Y-148944435D01*
X130770742Y-148964632D01*
X130770738Y-148964633D01*
X130600477Y-149024211D01*
X130600476Y-149024211D01*
X130447741Y-149120181D01*
X130320181Y-149247741D01*
X130224211Y-149400476D01*
X130224211Y-149400477D01*
X130164633Y-149570738D01*
X130164632Y-149570742D01*
X130144435Y-149750000D01*
X129681237Y-149750000D01*
X129679818Y-149747741D01*
X129679817Y-149747740D01*
X129679816Y-149747738D01*
X129552262Y-149620184D01*
X129552259Y-149620182D01*
X129552258Y-149620181D01*
X129399523Y-149524211D01*
X129229261Y-149464633D01*
X129229257Y-149464632D01*
X129050000Y-149444435D01*
X128870742Y-149464632D01*
X128870738Y-149464633D01*
X128700477Y-149524211D01*
X128700476Y-149524211D01*
X128547741Y-149620181D01*
X128420181Y-149747741D01*
X128324211Y-149900476D01*
X128324211Y-149900477D01*
X128264633Y-150070738D01*
X128264632Y-150070742D01*
X128244435Y-150250000D01*
X100500500Y-150250000D01*
X100500500Y-145200000D01*
X135194435Y-145200000D01*
X135214632Y-145379257D01*
X135214633Y-145379261D01*
X135274211Y-145549522D01*
X135274211Y-145549523D01*
X135370181Y-145702258D01*
X135370185Y-145702264D01*
X135397919Y-145729998D01*
X135425695Y-145784515D01*
X135416123Y-145844946D01*
X135397919Y-145870002D01*
X135370185Y-145897735D01*
X135370181Y-145897741D01*
X135274211Y-146050476D01*
X135274211Y-146050477D01*
X135214633Y-146220738D01*
X135214632Y-146220742D01*
X135194435Y-146400000D01*
X135214632Y-146579257D01*
X135214633Y-146579261D01*
X135274211Y-146749522D01*
X135274211Y-146749523D01*
X135370181Y-146902258D01*
X135370184Y-146902262D01*
X135497738Y-147029816D01*
X135650478Y-147125789D01*
X135718657Y-147149646D01*
X135820738Y-147185366D01*
X135820742Y-147185367D01*
X135820745Y-147185368D01*
X136000000Y-147205565D01*
X136179255Y-147185368D01*
X136349522Y-147125789D01*
X136502262Y-147029816D01*
X136629816Y-146902262D01*
X136725789Y-146749522D01*
X136785368Y-146579255D01*
X136805565Y-146400000D01*
X136785368Y-146220745D01*
X136725789Y-146050478D01*
X136684876Y-145985366D01*
X136629818Y-145897741D01*
X136629817Y-145897740D01*
X136629816Y-145897738D01*
X136602079Y-145870001D01*
X136574304Y-145815487D01*
X136583875Y-145755055D01*
X136602080Y-145729998D01*
X136629816Y-145702262D01*
X136725789Y-145549522D01*
X136785368Y-145379255D01*
X136805565Y-145200000D01*
X136785368Y-145020745D01*
X136725789Y-144850478D01*
X136725786Y-144850474D01*
X136629818Y-144697741D01*
X136629817Y-144697740D01*
X136629816Y-144697738D01*
X136502262Y-144570184D01*
X136502259Y-144570182D01*
X136502258Y-144570181D01*
X136349523Y-144474211D01*
X136179261Y-144414633D01*
X136179257Y-144414632D01*
X136000000Y-144394435D01*
X135820742Y-144414632D01*
X135820738Y-144414633D01*
X135650477Y-144474211D01*
X135650476Y-144474211D01*
X135497741Y-144570181D01*
X135370181Y-144697741D01*
X135274211Y-144850476D01*
X135274211Y-144850477D01*
X135214633Y-145020738D01*
X135214632Y-145020742D01*
X135194435Y-145200000D01*
X100500500Y-145200000D01*
X100500500Y-142000000D01*
X135194435Y-142000000D01*
X135214632Y-142179255D01*
X135214632Y-142179257D01*
X135215255Y-142184779D01*
X135214344Y-142184881D01*
X135214344Y-142215118D01*
X135215255Y-142215221D01*
X135214632Y-142220742D01*
X135214632Y-142220745D01*
X135199462Y-142355381D01*
X135194435Y-142400000D01*
X135214632Y-142579257D01*
X135214633Y-142579261D01*
X135274211Y-142749522D01*
X135274211Y-142749523D01*
X135305928Y-142800000D01*
X135370184Y-142902262D01*
X135497738Y-143029816D01*
X135650478Y-143125789D01*
X135718303Y-143149522D01*
X135820738Y-143185366D01*
X135820742Y-143185367D01*
X135820745Y-143185368D01*
X136000000Y-143205565D01*
X136179255Y-143185368D01*
X136349522Y-143125789D01*
X136502262Y-143029816D01*
X136629816Y-142902262D01*
X136725789Y-142749522D01*
X136785368Y-142579255D01*
X136805565Y-142400000D01*
X136785368Y-142220745D01*
X136785367Y-142220742D01*
X136784745Y-142215220D01*
X136785661Y-142215116D01*
X136785661Y-142184883D01*
X136784745Y-142184780D01*
X136785367Y-142179257D01*
X136785368Y-142179255D01*
X136805565Y-142000000D01*
X136785368Y-141820745D01*
X136780056Y-141805565D01*
X136747392Y-141712216D01*
X136725789Y-141650478D01*
X136712807Y-141629818D01*
X136629818Y-141497741D01*
X136629817Y-141497740D01*
X136629816Y-141497738D01*
X136502262Y-141370184D01*
X136502259Y-141370182D01*
X136502258Y-141370181D01*
X136349523Y-141274211D01*
X136179261Y-141214633D01*
X136179257Y-141214632D01*
X136000000Y-141194435D01*
X135820742Y-141214632D01*
X135820738Y-141214633D01*
X135650477Y-141274211D01*
X135650476Y-141274211D01*
X135497741Y-141370181D01*
X135370181Y-141497741D01*
X135274211Y-141650476D01*
X135274211Y-141650477D01*
X135214633Y-141820738D01*
X135214632Y-141820742D01*
X135214632Y-141820745D01*
X135194435Y-142000000D01*
X100500500Y-142000000D01*
X100500500Y-141000000D01*
X139794435Y-141000000D01*
X139814632Y-141179257D01*
X139814633Y-141179261D01*
X139874211Y-141349522D01*
X139874211Y-141349523D01*
X139967341Y-141497738D01*
X139970184Y-141502262D01*
X140097738Y-141629816D01*
X140097740Y-141629817D01*
X140097741Y-141629818D01*
X140249446Y-141725141D01*
X140250478Y-141725789D01*
X140318657Y-141749646D01*
X140420738Y-141785366D01*
X140420742Y-141785367D01*
X140420745Y-141785368D01*
X140600000Y-141805565D01*
X140779255Y-141785368D01*
X140781036Y-141784745D01*
X140949516Y-141725791D01*
X140949515Y-141725791D01*
X140949522Y-141725789D01*
X140949528Y-141725785D01*
X140954527Y-141723378D01*
X140955376Y-141725141D01*
X141006650Y-141712216D01*
X141044868Y-141724633D01*
X141045473Y-141723378D01*
X141050475Y-141725787D01*
X141050478Y-141725789D01*
X141050481Y-141725790D01*
X141050483Y-141725791D01*
X141220738Y-141785366D01*
X141220742Y-141785367D01*
X141220745Y-141785368D01*
X141400000Y-141805565D01*
X141579255Y-141785368D01*
X141579257Y-141785367D01*
X141584780Y-141784745D01*
X141584883Y-141785661D01*
X141615117Y-141785661D01*
X141615220Y-141784745D01*
X141620742Y-141785367D01*
X141620745Y-141785368D01*
X141800000Y-141805565D01*
X141979255Y-141785368D01*
X141979257Y-141785367D01*
X141984780Y-141784745D01*
X141984883Y-141785661D01*
X142015117Y-141785661D01*
X142015220Y-141784745D01*
X142020742Y-141785367D01*
X142020745Y-141785368D01*
X142200000Y-141805565D01*
X142379255Y-141785368D01*
X142379257Y-141785367D01*
X142384780Y-141784745D01*
X142384883Y-141785661D01*
X142415117Y-141785661D01*
X142415220Y-141784745D01*
X142420742Y-141785367D01*
X142420745Y-141785368D01*
X142600000Y-141805565D01*
X142779255Y-141785368D01*
X142779257Y-141785367D01*
X142784780Y-141784745D01*
X142784883Y-141785661D01*
X142815117Y-141785661D01*
X142815220Y-141784745D01*
X142820742Y-141785367D01*
X142820745Y-141785368D01*
X143000000Y-141805565D01*
X143000001Y-141805564D01*
X143000003Y-141805565D01*
X143049624Y-141799973D01*
X143095762Y-141794775D01*
X143155704Y-141807047D01*
X143196984Y-141852209D01*
X143205225Y-141904236D01*
X143194435Y-141999999D01*
X143214632Y-142179257D01*
X143214633Y-142179261D01*
X143274212Y-142349525D01*
X143276624Y-142354534D01*
X143274863Y-142355381D01*
X143287782Y-142406667D01*
X143275371Y-142444863D01*
X143276624Y-142445466D01*
X143274212Y-142450474D01*
X143214633Y-142620738D01*
X143214632Y-142620742D01*
X143194435Y-142800000D01*
X143214632Y-142979257D01*
X143214633Y-142979261D01*
X143274211Y-143149522D01*
X143274211Y-143149523D01*
X143370181Y-143302258D01*
X143370185Y-143302264D01*
X143397919Y-143329998D01*
X143425695Y-143384515D01*
X143416123Y-143444946D01*
X143397919Y-143470002D01*
X143370185Y-143497735D01*
X143370181Y-143497741D01*
X143274211Y-143650476D01*
X143274211Y-143650477D01*
X143214633Y-143820738D01*
X143214632Y-143820742D01*
X143214632Y-143820745D01*
X143194435Y-144000000D01*
X143214632Y-144179255D01*
X143214632Y-144179257D01*
X143215255Y-144184779D01*
X143214344Y-144184881D01*
X143214344Y-144215118D01*
X143215255Y-144215221D01*
X143214632Y-144220742D01*
X143214632Y-144220745D01*
X143195062Y-144394435D01*
X143194435Y-144400000D01*
X143214632Y-144579257D01*
X143214633Y-144579261D01*
X143274212Y-144749525D01*
X143276624Y-144754534D01*
X143274863Y-144755381D01*
X143287782Y-144806667D01*
X143275371Y-144844863D01*
X143276624Y-144845466D01*
X143274212Y-144850474D01*
X143214633Y-145020738D01*
X143214632Y-145020742D01*
X143194435Y-145200000D01*
X143214632Y-145379257D01*
X143214633Y-145379261D01*
X143274211Y-145549522D01*
X143274211Y-145549523D01*
X143370181Y-145702258D01*
X143370184Y-145702262D01*
X143497738Y-145829816D01*
X143497740Y-145829817D01*
X143497741Y-145829818D01*
X143561696Y-145870004D01*
X143650478Y-145925789D01*
X143718657Y-145949646D01*
X143820738Y-145985366D01*
X143820742Y-145985367D01*
X143820745Y-145985368D01*
X144000000Y-146005565D01*
X144179255Y-145985368D01*
X144349522Y-145925789D01*
X144502262Y-145829816D01*
X144629816Y-145702262D01*
X144725789Y-145549522D01*
X144785368Y-145379255D01*
X144805565Y-145200000D01*
X144785368Y-145020745D01*
X144725789Y-144850478D01*
X144725787Y-144850475D01*
X144723378Y-144845473D01*
X144725141Y-144844623D01*
X144712216Y-144793350D01*
X144724633Y-144755131D01*
X144723378Y-144754527D01*
X144725787Y-144749525D01*
X144725789Y-144749522D01*
X144785368Y-144579255D01*
X144805565Y-144400000D01*
X144785368Y-144220745D01*
X144785367Y-144220742D01*
X144784745Y-144215220D01*
X144785661Y-144215116D01*
X144785661Y-144184883D01*
X144784745Y-144184780D01*
X144785367Y-144179257D01*
X144785368Y-144179255D01*
X144805565Y-144000000D01*
X144785368Y-143820745D01*
X144725789Y-143650478D01*
X144629816Y-143497738D01*
X144602079Y-143470001D01*
X144574304Y-143415487D01*
X144583875Y-143355055D01*
X144602080Y-143329998D01*
X144629816Y-143302262D01*
X144725789Y-143149522D01*
X144785368Y-142979255D01*
X144805565Y-142800000D01*
X144785368Y-142620745D01*
X144770852Y-142579261D01*
X144725791Y-142450483D01*
X144723378Y-142445473D01*
X144725141Y-142444623D01*
X144712216Y-142393350D01*
X144724633Y-142355131D01*
X144723378Y-142354527D01*
X144725787Y-142349525D01*
X144725789Y-142349522D01*
X144785368Y-142179255D01*
X144805565Y-142000000D01*
X144785368Y-141820745D01*
X144780056Y-141805565D01*
X144747392Y-141712216D01*
X144725789Y-141650478D01*
X144712807Y-141629818D01*
X144629818Y-141497741D01*
X144629817Y-141497740D01*
X144629816Y-141497738D01*
X144502262Y-141370184D01*
X144502259Y-141370182D01*
X144502258Y-141370181D01*
X144349523Y-141274211D01*
X144179261Y-141214633D01*
X144179257Y-141214632D01*
X144059751Y-141201167D01*
X144000000Y-141194435D01*
X143999999Y-141194435D01*
X143946479Y-141200465D01*
X143904235Y-141205224D01*
X143844294Y-141192951D01*
X143803015Y-141147789D01*
X143794775Y-141095762D01*
X143805565Y-141000003D01*
X143803990Y-140986024D01*
X143785368Y-140820745D01*
X143784354Y-140817848D01*
X143746927Y-140710887D01*
X143725789Y-140650478D01*
X143698773Y-140607483D01*
X143629818Y-140497741D01*
X143629817Y-140497740D01*
X143629816Y-140497738D01*
X143502262Y-140370184D01*
X143502259Y-140370182D01*
X143502258Y-140370181D01*
X143349523Y-140274211D01*
X143179261Y-140214633D01*
X143179257Y-140214632D01*
X143000000Y-140194435D01*
X142820745Y-140214632D01*
X142820742Y-140214632D01*
X142815221Y-140215255D01*
X142815118Y-140214344D01*
X142784882Y-140214344D01*
X142784779Y-140215255D01*
X142779257Y-140214632D01*
X142779255Y-140214632D01*
X142600000Y-140194435D01*
X142420745Y-140214632D01*
X142420742Y-140214632D01*
X142415221Y-140215255D01*
X142415118Y-140214344D01*
X142384882Y-140214344D01*
X142384779Y-140215255D01*
X142379257Y-140214632D01*
X142379255Y-140214632D01*
X142200000Y-140194435D01*
X142020745Y-140214632D01*
X142020742Y-140214632D01*
X142015221Y-140215255D01*
X142015118Y-140214344D01*
X141984882Y-140214344D01*
X141984779Y-140215255D01*
X141979257Y-140214632D01*
X141979255Y-140214632D01*
X141800000Y-140194435D01*
X141620745Y-140214632D01*
X141620742Y-140214632D01*
X141615221Y-140215255D01*
X141615118Y-140214344D01*
X141584882Y-140214344D01*
X141584779Y-140215255D01*
X141579257Y-140214632D01*
X141579255Y-140214632D01*
X141400000Y-140194435D01*
X141399999Y-140194435D01*
X141220742Y-140214632D01*
X141220738Y-140214633D01*
X141050474Y-140274212D01*
X141045466Y-140276624D01*
X141044618Y-140274863D01*
X140993333Y-140287782D01*
X140955136Y-140275371D01*
X140954534Y-140276624D01*
X140949525Y-140274212D01*
X140779261Y-140214633D01*
X140779257Y-140214632D01*
X140600000Y-140194435D01*
X140420742Y-140214632D01*
X140420738Y-140214633D01*
X140250477Y-140274211D01*
X140250476Y-140274211D01*
X140097741Y-140370181D01*
X139970181Y-140497741D01*
X139874211Y-140650476D01*
X139874211Y-140650477D01*
X139814633Y-140820738D01*
X139814632Y-140820742D01*
X139794435Y-141000000D01*
X100500500Y-141000000D01*
X100500500Y-139800000D01*
X154794435Y-139800000D01*
X154814632Y-139979257D01*
X154814633Y-139979261D01*
X154874211Y-140149522D01*
X154874211Y-140149523D01*
X154970181Y-140302258D01*
X154970184Y-140302262D01*
X155097738Y-140429816D01*
X155097740Y-140429817D01*
X155097741Y-140429818D01*
X155249446Y-140525141D01*
X155250478Y-140525789D01*
X155313582Y-140547870D01*
X155420738Y-140585366D01*
X155420742Y-140585367D01*
X155420745Y-140585368D01*
X155600000Y-140605565D01*
X155779255Y-140585368D01*
X155949522Y-140525789D01*
X155949528Y-140525785D01*
X155954527Y-140523378D01*
X155955376Y-140525141D01*
X156006650Y-140512216D01*
X156044868Y-140524633D01*
X156045473Y-140523378D01*
X156050475Y-140525787D01*
X156050478Y-140525789D01*
X156050481Y-140525790D01*
X156050483Y-140525791D01*
X156220738Y-140585366D01*
X156220742Y-140585367D01*
X156220745Y-140585368D01*
X156400000Y-140605565D01*
X156579255Y-140585368D01*
X156749522Y-140525789D01*
X156749528Y-140525785D01*
X156754527Y-140523378D01*
X156755376Y-140525141D01*
X156806650Y-140512216D01*
X156844868Y-140524633D01*
X156845473Y-140523378D01*
X156850475Y-140525787D01*
X156850478Y-140525789D01*
X156850481Y-140525790D01*
X156850483Y-140525791D01*
X157020738Y-140585366D01*
X157020742Y-140585367D01*
X157020745Y-140585368D01*
X157200000Y-140605565D01*
X157379255Y-140585368D01*
X157549522Y-140525789D01*
X157549528Y-140525785D01*
X157554527Y-140523378D01*
X157555376Y-140525141D01*
X157606650Y-140512216D01*
X157644868Y-140524633D01*
X157645473Y-140523378D01*
X157650475Y-140525787D01*
X157650478Y-140525789D01*
X157650481Y-140525790D01*
X157650483Y-140525791D01*
X157820738Y-140585366D01*
X157820742Y-140585367D01*
X157820745Y-140585368D01*
X158000000Y-140605565D01*
X158179255Y-140585368D01*
X158349522Y-140525789D01*
X158502262Y-140429816D01*
X158629816Y-140302262D01*
X158725789Y-140149522D01*
X158785368Y-139979255D01*
X158805565Y-139800000D01*
X158785368Y-139620745D01*
X158783453Y-139615273D01*
X158761014Y-139551145D01*
X158725789Y-139450478D01*
X158725786Y-139450474D01*
X158629818Y-139297741D01*
X158629817Y-139297740D01*
X158629816Y-139297738D01*
X158502262Y-139170184D01*
X158502259Y-139170182D01*
X158502258Y-139170181D01*
X158349523Y-139074211D01*
X158179261Y-139014633D01*
X158179257Y-139014632D01*
X158049392Y-139000000D01*
X159594435Y-139000000D01*
X159614632Y-139179257D01*
X159614633Y-139179261D01*
X159674212Y-139349525D01*
X159676624Y-139354534D01*
X159674863Y-139355381D01*
X159687782Y-139406667D01*
X159675371Y-139444863D01*
X159676624Y-139445466D01*
X159674212Y-139450474D01*
X159614633Y-139620738D01*
X159614632Y-139620742D01*
X159594435Y-139800000D01*
X159614632Y-139979257D01*
X159614633Y-139979261D01*
X159674211Y-140149522D01*
X159674211Y-140149523D01*
X159770181Y-140302258D01*
X159770184Y-140302262D01*
X159897738Y-140429816D01*
X159897740Y-140429817D01*
X159897741Y-140429818D01*
X160049446Y-140525141D01*
X160050478Y-140525789D01*
X160113582Y-140547870D01*
X160220738Y-140585366D01*
X160220742Y-140585367D01*
X160220745Y-140585368D01*
X160400000Y-140605565D01*
X160579255Y-140585368D01*
X160749522Y-140525789D01*
X160902262Y-140429816D01*
X161029816Y-140302262D01*
X161125789Y-140149522D01*
X161185368Y-139979255D01*
X161196161Y-139883453D01*
X161221465Y-139827747D01*
X161274680Y-139797551D01*
X161283440Y-139796163D01*
X161379255Y-139785368D01*
X161549522Y-139725789D01*
X161549528Y-139725785D01*
X161554527Y-139723378D01*
X161555376Y-139725141D01*
X161606650Y-139712216D01*
X161644868Y-139724633D01*
X161645473Y-139723378D01*
X161650475Y-139725787D01*
X161650478Y-139725789D01*
X161650481Y-139725790D01*
X161650483Y-139725791D01*
X161820738Y-139785366D01*
X161820742Y-139785367D01*
X161820745Y-139785368D01*
X162000000Y-139805565D01*
X162179255Y-139785368D01*
X162349522Y-139725789D01*
X162349528Y-139725785D01*
X162354527Y-139723378D01*
X162355376Y-139725141D01*
X162406650Y-139712216D01*
X162444868Y-139724633D01*
X162445473Y-139723378D01*
X162450475Y-139725787D01*
X162450478Y-139725789D01*
X162450481Y-139725790D01*
X162450483Y-139725791D01*
X162620738Y-139785366D01*
X162620742Y-139785367D01*
X162620745Y-139785368D01*
X162716545Y-139796161D01*
X162772252Y-139821465D01*
X162802448Y-139874680D01*
X162803837Y-139883454D01*
X162814630Y-139979249D01*
X162814633Y-139979261D01*
X162874211Y-140149522D01*
X162874211Y-140149523D01*
X162970181Y-140302258D01*
X162970184Y-140302262D01*
X163097738Y-140429816D01*
X163097740Y-140429817D01*
X163097741Y-140429818D01*
X163249446Y-140525141D01*
X163250478Y-140525789D01*
X163313582Y-140547870D01*
X163420738Y-140585366D01*
X163420742Y-140585367D01*
X163420745Y-140585368D01*
X163600000Y-140605565D01*
X163779255Y-140585368D01*
X163949522Y-140525789D01*
X163949528Y-140525785D01*
X163954527Y-140523378D01*
X163955376Y-140525141D01*
X164006650Y-140512216D01*
X164044868Y-140524633D01*
X164045473Y-140523378D01*
X164050475Y-140525787D01*
X164050478Y-140525789D01*
X164050481Y-140525790D01*
X164050483Y-140525791D01*
X164220738Y-140585366D01*
X164220742Y-140585367D01*
X164220745Y-140585368D01*
X164400000Y-140605565D01*
X164579255Y-140585368D01*
X164749522Y-140525789D01*
X164749528Y-140525785D01*
X164754527Y-140523378D01*
X164755376Y-140525141D01*
X164806650Y-140512216D01*
X164844868Y-140524633D01*
X164845473Y-140523378D01*
X164850475Y-140525787D01*
X164850478Y-140525789D01*
X164850481Y-140525790D01*
X164850483Y-140525791D01*
X165020738Y-140585366D01*
X165020742Y-140585367D01*
X165020745Y-140585368D01*
X165200000Y-140605565D01*
X165379255Y-140585368D01*
X165549522Y-140525789D01*
X165702262Y-140429816D01*
X165829816Y-140302262D01*
X165925789Y-140149522D01*
X165985368Y-139979255D01*
X166005565Y-139800000D01*
X165985368Y-139620745D01*
X165983453Y-139615273D01*
X165961014Y-139551145D01*
X165926367Y-139452129D01*
X188999500Y-139452129D01*
X188999500Y-140547866D01*
X188999501Y-140547870D01*
X189005908Y-140607480D01*
X189005909Y-140607485D01*
X189056202Y-140742329D01*
X189142450Y-140857541D01*
X189142454Y-140857546D01*
X189142457Y-140857548D01*
X189142458Y-140857549D01*
X189257670Y-140943797D01*
X189392511Y-140994089D01*
X189392512Y-140994089D01*
X189392517Y-140994091D01*
X189452127Y-141000500D01*
X190547872Y-141000499D01*
X190607483Y-140994091D01*
X190742331Y-140943796D01*
X190763117Y-140928234D01*
X190821028Y-140908497D01*
X190869116Y-140920177D01*
X190885273Y-140928814D01*
X191016657Y-140968669D01*
X191073867Y-140986024D01*
X191073873Y-140986025D01*
X191269997Y-141005341D01*
X191270000Y-141005341D01*
X191270003Y-141005341D01*
X191466126Y-140986025D01*
X191466127Y-140986024D01*
X191466132Y-140986024D01*
X191654727Y-140928814D01*
X191828538Y-140835910D01*
X191842194Y-140824701D01*
X191899168Y-140802401D01*
X191958372Y-140817848D01*
X191967794Y-140824693D01*
X191981462Y-140835910D01*
X192114353Y-140906942D01*
X192154191Y-140928236D01*
X192155273Y-140928814D01*
X192343868Y-140986024D01*
X192343870Y-140986024D01*
X192343873Y-140986025D01*
X192539997Y-141005341D01*
X192540000Y-141005341D01*
X192540003Y-141005341D01*
X192736126Y-140986025D01*
X192736127Y-140986024D01*
X192736132Y-140986024D01*
X192924727Y-140928814D01*
X193098538Y-140835910D01*
X193112194Y-140824701D01*
X193169168Y-140802401D01*
X193228372Y-140817848D01*
X193237794Y-140824693D01*
X193251462Y-140835910D01*
X193384353Y-140906942D01*
X193424191Y-140928236D01*
X193425273Y-140928814D01*
X193613868Y-140986024D01*
X193613870Y-140986024D01*
X193613873Y-140986025D01*
X193809997Y-141005341D01*
X193810000Y-141005341D01*
X193810003Y-141005341D01*
X194006126Y-140986025D01*
X194006127Y-140986024D01*
X194006132Y-140986024D01*
X194194727Y-140928814D01*
X194368538Y-140835910D01*
X194382194Y-140824701D01*
X194439168Y-140802401D01*
X194498372Y-140817848D01*
X194507794Y-140824693D01*
X194521462Y-140835910D01*
X194654353Y-140906942D01*
X194694191Y-140928236D01*
X194695273Y-140928814D01*
X194883868Y-140986024D01*
X194883870Y-140986024D01*
X194883873Y-140986025D01*
X195079997Y-141005341D01*
X195080000Y-141005341D01*
X195080003Y-141005341D01*
X195276126Y-140986025D01*
X195276127Y-140986024D01*
X195276132Y-140986024D01*
X195464727Y-140928814D01*
X195638538Y-140835910D01*
X195790883Y-140710883D01*
X195915910Y-140558538D01*
X196008814Y-140384727D01*
X196066024Y-140196132D01*
X196066192Y-140194435D01*
X196085341Y-140000003D01*
X196085341Y-139999996D01*
X196066025Y-139803873D01*
X196066024Y-139803870D01*
X196066024Y-139803868D01*
X196008814Y-139615273D01*
X195915910Y-139441462D01*
X195904701Y-139427805D01*
X195882401Y-139370832D01*
X195897848Y-139311628D01*
X195904693Y-139302205D01*
X195915910Y-139288538D01*
X196008814Y-139114727D01*
X196066024Y-138926132D01*
X196066105Y-138925318D01*
X196085341Y-138730000D01*
X196085341Y-138729996D01*
X196066025Y-138533873D01*
X196066024Y-138533870D01*
X196066024Y-138533868D01*
X196008814Y-138345273D01*
X195915910Y-138171462D01*
X195915906Y-138171457D01*
X195790887Y-138019121D01*
X195790878Y-138019112D01*
X195638542Y-137894093D01*
X195638540Y-137894092D01*
X195638538Y-137894090D01*
X195597618Y-137872218D01*
X195464732Y-137801188D01*
X195464730Y-137801187D01*
X195276129Y-137743975D01*
X195276126Y-137743974D01*
X195080003Y-137724659D01*
X195079997Y-137724659D01*
X194883873Y-137743974D01*
X194883870Y-137743975D01*
X194695269Y-137801187D01*
X194695267Y-137801188D01*
X194521473Y-137894082D01*
X194521464Y-137894088D01*
X194507803Y-137905300D01*
X194450826Y-137927598D01*
X194391623Y-137912148D01*
X194382197Y-137905300D01*
X194368538Y-137894090D01*
X194368536Y-137894089D01*
X194368535Y-137894088D01*
X194368526Y-137894082D01*
X194194732Y-137801188D01*
X194194730Y-137801187D01*
X194006129Y-137743975D01*
X194006126Y-137743974D01*
X193810003Y-137724659D01*
X193809997Y-137724659D01*
X193613873Y-137743974D01*
X193613870Y-137743975D01*
X193425269Y-137801187D01*
X193425267Y-137801188D01*
X193251467Y-137894087D01*
X193251457Y-137894093D01*
X193099122Y-138019112D01*
X193099113Y-138019121D01*
X193090894Y-138029136D01*
X193039361Y-138062121D01*
X192978282Y-138058515D01*
X192961697Y-138050152D01*
X192889307Y-138004666D01*
X192740000Y-137952421D01*
X192740000Y-138470382D01*
X192739554Y-138469936D01*
X192665445Y-138427149D01*
X192582787Y-138405000D01*
X192497213Y-138405000D01*
X192414555Y-138427149D01*
X192340446Y-138469936D01*
X192340000Y-138470382D01*
X192340000Y-137952421D01*
X192190695Y-138004665D01*
X192118301Y-138050153D01*
X192058970Y-138065103D01*
X192002183Y-138042323D01*
X191989102Y-138029132D01*
X191980886Y-138019121D01*
X191980883Y-138019117D01*
X191980881Y-138019115D01*
X191980880Y-138019114D01*
X191828542Y-137894093D01*
X191828540Y-137894092D01*
X191828538Y-137894090D01*
X191787618Y-137872218D01*
X191654732Y-137801188D01*
X191654730Y-137801187D01*
X191466129Y-137743975D01*
X191466126Y-137743974D01*
X191270003Y-137724659D01*
X191269997Y-137724659D01*
X191073873Y-137743974D01*
X191073870Y-137743975D01*
X190885269Y-137801187D01*
X190885267Y-137801188D01*
X190711467Y-137894087D01*
X190711457Y-137894093D01*
X190559122Y-138019112D01*
X190559113Y-138019121D01*
X190550894Y-138029136D01*
X190499361Y-138062121D01*
X190438282Y-138058515D01*
X190421697Y-138050152D01*
X190349307Y-138004666D01*
X190200000Y-137952421D01*
X190200000Y-138470382D01*
X190199554Y-138469936D01*
X190125445Y-138427149D01*
X190042787Y-138405000D01*
X189957213Y-138405000D01*
X189874555Y-138427149D01*
X189800446Y-138469936D01*
X189800000Y-138470382D01*
X189800000Y-137952421D01*
X189650693Y-138004665D01*
X189498055Y-138100574D01*
X189370574Y-138228055D01*
X189274665Y-138380693D01*
X189222422Y-138530000D01*
X189740382Y-138530000D01*
X189739936Y-138530446D01*
X189697149Y-138604555D01*
X189675000Y-138687213D01*
X189675000Y-138772787D01*
X189697149Y-138855445D01*
X189739936Y-138929554D01*
X189740382Y-138930000D01*
X189222421Y-138930000D01*
X189240771Y-138982442D01*
X189242143Y-139043612D01*
X189207298Y-139093906D01*
X189206656Y-139094392D01*
X189142455Y-139142453D01*
X189142450Y-139142458D01*
X189056202Y-139257670D01*
X189005910Y-139392511D01*
X189005908Y-139392522D01*
X189002115Y-139427808D01*
X188999678Y-139450477D01*
X188999500Y-139452129D01*
X165926367Y-139452129D01*
X165925789Y-139450478D01*
X165925786Y-139450474D01*
X165829818Y-139297741D01*
X165829817Y-139297740D01*
X165829816Y-139297738D01*
X165702262Y-139170184D01*
X165702259Y-139170182D01*
X165702258Y-139170181D01*
X165549523Y-139074211D01*
X165379261Y-139014633D01*
X165379249Y-139014630D01*
X165283454Y-139003837D01*
X165227746Y-138978534D01*
X165197551Y-138925318D01*
X165196163Y-138916557D01*
X165185368Y-138820745D01*
X165171308Y-138780565D01*
X165153615Y-138730000D01*
X165125789Y-138650478D01*
X165029816Y-138497738D01*
X164902262Y-138370184D01*
X164902259Y-138370182D01*
X164902258Y-138370181D01*
X164749523Y-138274211D01*
X164579261Y-138214633D01*
X164579257Y-138214632D01*
X164400000Y-138194435D01*
X164220742Y-138214632D01*
X164220738Y-138214633D01*
X164050474Y-138274212D01*
X164045466Y-138276624D01*
X164044618Y-138274863D01*
X163993333Y-138287782D01*
X163955136Y-138275371D01*
X163954534Y-138276624D01*
X163949525Y-138274212D01*
X163779261Y-138214633D01*
X163779257Y-138214632D01*
X163600000Y-138194435D01*
X163420742Y-138214632D01*
X163420738Y-138214633D01*
X163250474Y-138274212D01*
X163245466Y-138276624D01*
X163244618Y-138274863D01*
X163193333Y-138287782D01*
X163155136Y-138275371D01*
X163154534Y-138276624D01*
X163149525Y-138274212D01*
X162979261Y-138214633D01*
X162979257Y-138214632D01*
X162800000Y-138194435D01*
X162620742Y-138214632D01*
X162620738Y-138214633D01*
X162450474Y-138274212D01*
X162445466Y-138276624D01*
X162444618Y-138274863D01*
X162393333Y-138287782D01*
X162355136Y-138275371D01*
X162354534Y-138276624D01*
X162349525Y-138274212D01*
X162179261Y-138214633D01*
X162179257Y-138214632D01*
X162000000Y-138194435D01*
X161820742Y-138214632D01*
X161820738Y-138214633D01*
X161650474Y-138274212D01*
X161645466Y-138276624D01*
X161644618Y-138274863D01*
X161593333Y-138287782D01*
X161555136Y-138275371D01*
X161554534Y-138276624D01*
X161549525Y-138274212D01*
X161379261Y-138214633D01*
X161379257Y-138214632D01*
X161200000Y-138194435D01*
X161020742Y-138214632D01*
X161020738Y-138214633D01*
X160850474Y-138274212D01*
X160845466Y-138276624D01*
X160844618Y-138274863D01*
X160793333Y-138287782D01*
X160755136Y-138275371D01*
X160754534Y-138276624D01*
X160749525Y-138274212D01*
X160579261Y-138214633D01*
X160579257Y-138214632D01*
X160400000Y-138194435D01*
X160220742Y-138214632D01*
X160220738Y-138214633D01*
X160050477Y-138274211D01*
X160050476Y-138274211D01*
X159897741Y-138370181D01*
X159770181Y-138497741D01*
X159674211Y-138650476D01*
X159674211Y-138650477D01*
X159614633Y-138820738D01*
X159614632Y-138820742D01*
X159594435Y-139000000D01*
X158049392Y-139000000D01*
X158000000Y-138994435D01*
X157820742Y-139014632D01*
X157820738Y-139014633D01*
X157650474Y-139074212D01*
X157645466Y-139076624D01*
X157644618Y-139074863D01*
X157593333Y-139087782D01*
X157555136Y-139075371D01*
X157554534Y-139076624D01*
X157549525Y-139074212D01*
X157379261Y-139014633D01*
X157379257Y-139014632D01*
X157200000Y-138994435D01*
X157020742Y-139014632D01*
X157020738Y-139014633D01*
X156850474Y-139074212D01*
X156845466Y-139076624D01*
X156844618Y-139074863D01*
X156793333Y-139087782D01*
X156755136Y-139075371D01*
X156754534Y-139076624D01*
X156749525Y-139074212D01*
X156579261Y-139014633D01*
X156579257Y-139014632D01*
X156400000Y-138994435D01*
X156220742Y-139014632D01*
X156220738Y-139014633D01*
X156050474Y-139074212D01*
X156045466Y-139076624D01*
X156044618Y-139074863D01*
X155993333Y-139087782D01*
X155955136Y-139075371D01*
X155954534Y-139076624D01*
X155949525Y-139074212D01*
X155779261Y-139014633D01*
X155779257Y-139014632D01*
X155600000Y-138994435D01*
X155420742Y-139014632D01*
X155420738Y-139014633D01*
X155250477Y-139074211D01*
X155250476Y-139074211D01*
X155097741Y-139170181D01*
X154970181Y-139297741D01*
X154874211Y-139450476D01*
X154874211Y-139450477D01*
X154814633Y-139620738D01*
X154814632Y-139620742D01*
X154794435Y-139800000D01*
X100500500Y-139800000D01*
X100500500Y-136750000D01*
X167731935Y-136750000D01*
X167752132Y-136929257D01*
X167765445Y-136967304D01*
X167766817Y-137028474D01*
X167765445Y-137032696D01*
X167752132Y-137070742D01*
X167731935Y-137250000D01*
X167752132Y-137429257D01*
X167752133Y-137429261D01*
X167811711Y-137599522D01*
X167811711Y-137599523D01*
X167907681Y-137752258D01*
X167907684Y-137752262D01*
X168035238Y-137879816D01*
X168035240Y-137879817D01*
X168035241Y-137879818D01*
X168111282Y-137927598D01*
X168187978Y-137975789D01*
X168256157Y-137999646D01*
X168358238Y-138035366D01*
X168358242Y-138035367D01*
X168358245Y-138035368D01*
X168373979Y-138037140D01*
X168429686Y-138062444D01*
X168459882Y-138115659D01*
X168461271Y-138124432D01*
X168464631Y-138154250D01*
X168464633Y-138154261D01*
X168524211Y-138324522D01*
X168524211Y-138324523D01*
X168620181Y-138477258D01*
X168620184Y-138477262D01*
X168747738Y-138604816D01*
X168747740Y-138604817D01*
X168747741Y-138604818D01*
X168900474Y-138700787D01*
X168900478Y-138700789D01*
X168968657Y-138724646D01*
X169070738Y-138760366D01*
X169070742Y-138760367D01*
X169070745Y-138760368D01*
X169250000Y-138780565D01*
X169429255Y-138760368D01*
X169467301Y-138747054D01*
X169528470Y-138745680D01*
X169532686Y-138747050D01*
X169570745Y-138760368D01*
X169750000Y-138780565D01*
X169929255Y-138760368D01*
X170099522Y-138700789D01*
X170197328Y-138639332D01*
X170256659Y-138624382D01*
X170302672Y-138639333D01*
X170400474Y-138700787D01*
X170400475Y-138700787D01*
X170400478Y-138700789D01*
X170483961Y-138730001D01*
X170570738Y-138760366D01*
X170570742Y-138760367D01*
X170570745Y-138760368D01*
X170750000Y-138780565D01*
X170929255Y-138760368D01*
X171099522Y-138700789D01*
X171252262Y-138604816D01*
X171379816Y-138477262D01*
X171475789Y-138324522D01*
X171535368Y-138154255D01*
X171538727Y-138124432D01*
X171564030Y-138068727D01*
X171617245Y-138038530D01*
X171626008Y-138037142D01*
X171641755Y-138035368D01*
X171812022Y-137975789D01*
X171964762Y-137879816D01*
X172092316Y-137752262D01*
X172188289Y-137599522D01*
X172247868Y-137429255D01*
X172268065Y-137250000D01*
X172247868Y-137070745D01*
X172234555Y-137032700D01*
X172198359Y-136929257D01*
X172188289Y-136900478D01*
X172092316Y-136747738D01*
X171964762Y-136620184D01*
X171964759Y-136620182D01*
X171964758Y-136620181D01*
X171812023Y-136524211D01*
X171641761Y-136464633D01*
X171641757Y-136464632D01*
X171462500Y-136444435D01*
X171283242Y-136464632D01*
X171283238Y-136464633D01*
X171112977Y-136524211D01*
X171112976Y-136524211D01*
X170960241Y-136620181D01*
X170832681Y-136747741D01*
X170736711Y-136900476D01*
X170736711Y-136900477D01*
X170677131Y-137070743D01*
X170677131Y-137070745D01*
X170673771Y-137100567D01*
X170648467Y-137156274D01*
X170595251Y-137186469D01*
X170586482Y-137187858D01*
X170570744Y-137189631D01*
X170570743Y-137189631D01*
X170400476Y-137249211D01*
X170302670Y-137310666D01*
X170243339Y-137325616D01*
X170197330Y-137310666D01*
X170099523Y-137249211D01*
X169929261Y-137189633D01*
X169929257Y-137189632D01*
X169750000Y-137169435D01*
X169570742Y-137189632D01*
X169532696Y-137202945D01*
X169471526Y-137204317D01*
X169467304Y-137202945D01*
X169429254Y-137189631D01*
X169413517Y-137187858D01*
X169357810Y-137162553D01*
X169327617Y-137109336D01*
X169326229Y-137100578D01*
X169322868Y-137070745D01*
X169309554Y-137032698D01*
X169308180Y-136971530D01*
X169309555Y-136967300D01*
X169322865Y-136929263D01*
X169322867Y-136929257D01*
X169322868Y-136929255D01*
X169343065Y-136750000D01*
X169322868Y-136570745D01*
X169263289Y-136400478D01*
X169167316Y-136247738D01*
X169039762Y-136120184D01*
X169039759Y-136120182D01*
X169039758Y-136120181D01*
X168887023Y-136024211D01*
X168716761Y-135964633D01*
X168716757Y-135964632D01*
X168537500Y-135944435D01*
X168358242Y-135964632D01*
X168358238Y-135964633D01*
X168187977Y-136024211D01*
X168187976Y-136024211D01*
X168035241Y-136120181D01*
X167907681Y-136247741D01*
X167811711Y-136400476D01*
X167811711Y-136400477D01*
X167752133Y-136570738D01*
X167752132Y-136570742D01*
X167731935Y-136750000D01*
X100500500Y-136750000D01*
X100500500Y-134750000D01*
X167731935Y-134750000D01*
X167752132Y-134929257D01*
X167752133Y-134929261D01*
X167811711Y-135099522D01*
X167811711Y-135099523D01*
X167907681Y-135252258D01*
X167907684Y-135252262D01*
X168035238Y-135379816D01*
X168187978Y-135475789D01*
X168256157Y-135499646D01*
X168358238Y-135535366D01*
X168358242Y-135535367D01*
X168358245Y-135535368D01*
X168537500Y-135555565D01*
X168716755Y-135535368D01*
X168887022Y-135475789D01*
X169039762Y-135379816D01*
X169167316Y-135252262D01*
X169263289Y-135099522D01*
X169322868Y-134929255D01*
X169343065Y-134750000D01*
X169322868Y-134570745D01*
X169263289Y-134400478D01*
X169218540Y-134329261D01*
X169167318Y-134247741D01*
X169167317Y-134247740D01*
X169167316Y-134247738D01*
X169069578Y-134150000D01*
X173094435Y-134150000D01*
X173114632Y-134329257D01*
X173114633Y-134329261D01*
X173174211Y-134499522D01*
X173174211Y-134499523D01*
X173218963Y-134570745D01*
X173270184Y-134652262D01*
X173397738Y-134779816D01*
X173550478Y-134875789D01*
X173618657Y-134899646D01*
X173720738Y-134935366D01*
X173720742Y-134935367D01*
X173720745Y-134935368D01*
X173900000Y-134955565D01*
X174079255Y-134935368D01*
X174249522Y-134875789D01*
X174402262Y-134779816D01*
X174529816Y-134652262D01*
X174625789Y-134499522D01*
X174685368Y-134329255D01*
X174705565Y-134150000D01*
X174685368Y-133970745D01*
X174683229Y-133964633D01*
X174661014Y-133901145D01*
X174625789Y-133800478D01*
X174529816Y-133647738D01*
X174402262Y-133520184D01*
X174402259Y-133520182D01*
X174402258Y-133520181D01*
X174249523Y-133424211D01*
X174079261Y-133364633D01*
X174079257Y-133364632D01*
X173900000Y-133344435D01*
X173720742Y-133364632D01*
X173720738Y-133364633D01*
X173550477Y-133424211D01*
X173550476Y-133424211D01*
X173397741Y-133520181D01*
X173270181Y-133647741D01*
X173174211Y-133800476D01*
X173174211Y-133800477D01*
X173114633Y-133970738D01*
X173114632Y-133970742D01*
X173094435Y-134150000D01*
X169069578Y-134150000D01*
X169039762Y-134120184D01*
X169039759Y-134120182D01*
X169039758Y-134120181D01*
X168887023Y-134024211D01*
X168716761Y-133964633D01*
X168716757Y-133964632D01*
X168537500Y-133944435D01*
X168358242Y-133964632D01*
X168358238Y-133964633D01*
X168187977Y-134024211D01*
X168187976Y-134024211D01*
X168035241Y-134120181D01*
X167907681Y-134247741D01*
X167811711Y-134400476D01*
X167811711Y-134400477D01*
X167752133Y-134570738D01*
X167752132Y-134570742D01*
X167731935Y-134750000D01*
X100500500Y-134750000D01*
X100500500Y-125600000D01*
X131331935Y-125600000D01*
X131352132Y-125779255D01*
X131352132Y-125779257D01*
X131352755Y-125784779D01*
X131351844Y-125784881D01*
X131351844Y-125815118D01*
X131352755Y-125815221D01*
X131352132Y-125820742D01*
X131352132Y-125820745D01*
X131331935Y-126000000D01*
X131352132Y-126179255D01*
X131352132Y-126179257D01*
X131352755Y-126184779D01*
X131351844Y-126184881D01*
X131351844Y-126215118D01*
X131352755Y-126215221D01*
X131352132Y-126220742D01*
X131352132Y-126220745D01*
X131331935Y-126400000D01*
X131352132Y-126579255D01*
X131352132Y-126579257D01*
X131352755Y-126584779D01*
X131351844Y-126584881D01*
X131351844Y-126615118D01*
X131352755Y-126615221D01*
X131352132Y-126620742D01*
X131352132Y-126620745D01*
X131335007Y-126772738D01*
X131331935Y-126800000D01*
X131352132Y-126979257D01*
X131352133Y-126979261D01*
X131411711Y-127149522D01*
X131411711Y-127149523D01*
X131490554Y-127275000D01*
X131507684Y-127302262D01*
X131635238Y-127429816D01*
X131635240Y-127429817D01*
X131635241Y-127429818D01*
X131674135Y-127454257D01*
X131787978Y-127525789D01*
X131856157Y-127549646D01*
X131958238Y-127585366D01*
X131958242Y-127585367D01*
X131958245Y-127585368D01*
X132137500Y-127605565D01*
X132316755Y-127585368D01*
X132487022Y-127525789D01*
X132639762Y-127429816D01*
X132767316Y-127302262D01*
X132863289Y-127149522D01*
X132922868Y-126979255D01*
X132943065Y-126800000D01*
X132922868Y-126620745D01*
X132922867Y-126620742D01*
X132922245Y-126615220D01*
X132923161Y-126615116D01*
X132923161Y-126584883D01*
X132922245Y-126584780D01*
X132922867Y-126579257D01*
X132922868Y-126579255D01*
X132943065Y-126400000D01*
X132922868Y-126220745D01*
X132922867Y-126220742D01*
X132922245Y-126215220D01*
X132923161Y-126215116D01*
X132923161Y-126184883D01*
X132922245Y-126184780D01*
X132922867Y-126179257D01*
X132922868Y-126179255D01*
X132943065Y-126000000D01*
X132922868Y-125820745D01*
X132922867Y-125820742D01*
X132922245Y-125815220D01*
X132923161Y-125815116D01*
X132923161Y-125784883D01*
X132922245Y-125784780D01*
X132922867Y-125779257D01*
X132922868Y-125779255D01*
X132943065Y-125600000D01*
X132922868Y-125420745D01*
X132863289Y-125250478D01*
X132831572Y-125200000D01*
X137056935Y-125200000D01*
X137077132Y-125379257D01*
X137077133Y-125379261D01*
X137136712Y-125549525D01*
X137139124Y-125554534D01*
X137137363Y-125555381D01*
X137150282Y-125606667D01*
X137137871Y-125644863D01*
X137139124Y-125645466D01*
X137136712Y-125650474D01*
X137077133Y-125820738D01*
X137077132Y-125820742D01*
X137056935Y-126000000D01*
X137077132Y-126179257D01*
X137077133Y-126179261D01*
X137136711Y-126349522D01*
X137136711Y-126349523D01*
X137232681Y-126502258D01*
X137232684Y-126502262D01*
X137360238Y-126629816D01*
X137512978Y-126725789D01*
X137581157Y-126749646D01*
X137683238Y-126785366D01*
X137683242Y-126785367D01*
X137683245Y-126785368D01*
X137862500Y-126805565D01*
X138041755Y-126785368D01*
X138212022Y-126725789D01*
X138364762Y-126629816D01*
X138492316Y-126502262D01*
X138588289Y-126349522D01*
X138647868Y-126179255D01*
X138668065Y-126000000D01*
X138665248Y-125975000D01*
X161331935Y-125975000D01*
X161352132Y-126154257D01*
X161391688Y-126267303D01*
X161393060Y-126328473D01*
X161391688Y-126332697D01*
X161352132Y-126445742D01*
X161331935Y-126625000D01*
X161352132Y-126804257D01*
X161391688Y-126917303D01*
X161393060Y-126978473D01*
X161391688Y-126982697D01*
X161352132Y-127095742D01*
X161331935Y-127275000D01*
X161352132Y-127454257D01*
X161352133Y-127454261D01*
X161411711Y-127624522D01*
X161411711Y-127624523D01*
X161507681Y-127777258D01*
X161507684Y-127777262D01*
X161635238Y-127904816D01*
X161787978Y-128000789D01*
X161856157Y-128024646D01*
X161958238Y-128060366D01*
X161958242Y-128060367D01*
X161958245Y-128060368D01*
X162137500Y-128080565D01*
X162316755Y-128060368D01*
X162487022Y-128000789D01*
X162639762Y-127904816D01*
X162767316Y-127777262D01*
X162863289Y-127624522D01*
X162922868Y-127454255D01*
X162943065Y-127275000D01*
X167056935Y-127275000D01*
X167077132Y-127454257D01*
X167077133Y-127454261D01*
X167136711Y-127624522D01*
X167136711Y-127624523D01*
X167232681Y-127777258D01*
X167232684Y-127777262D01*
X167360238Y-127904816D01*
X167512978Y-128000789D01*
X167581157Y-128024646D01*
X167683238Y-128060366D01*
X167683242Y-128060367D01*
X167683245Y-128060368D01*
X167862500Y-128080565D01*
X168041755Y-128060368D01*
X168212022Y-128000789D01*
X168364762Y-127904816D01*
X168492316Y-127777262D01*
X168588289Y-127624522D01*
X168647868Y-127454255D01*
X168668065Y-127275000D01*
X168647868Y-127095745D01*
X168588289Y-126925478D01*
X168583152Y-126917303D01*
X168492318Y-126772741D01*
X168492317Y-126772740D01*
X168492316Y-126772738D01*
X168364762Y-126645184D01*
X168364759Y-126645182D01*
X168364758Y-126645181D01*
X168212023Y-126549211D01*
X168041761Y-126489633D01*
X168041757Y-126489632D01*
X167862500Y-126469435D01*
X167683242Y-126489632D01*
X167683238Y-126489633D01*
X167512977Y-126549211D01*
X167512976Y-126549211D01*
X167360241Y-126645181D01*
X167232681Y-126772741D01*
X167136711Y-126925476D01*
X167136711Y-126925477D01*
X167077133Y-127095738D01*
X167077132Y-127095742D01*
X167056935Y-127275000D01*
X162943065Y-127275000D01*
X162922868Y-127095745D01*
X162883309Y-126982695D01*
X162881936Y-126921529D01*
X162883296Y-126917341D01*
X162922868Y-126804255D01*
X162943065Y-126625000D01*
X162922868Y-126445745D01*
X162883309Y-126332695D01*
X162881936Y-126271529D01*
X162883296Y-126267341D01*
X162922868Y-126154255D01*
X162943065Y-125975000D01*
X162922868Y-125795745D01*
X162919067Y-125784883D01*
X162898514Y-125726145D01*
X162863289Y-125625478D01*
X162847279Y-125599999D01*
X162767318Y-125472741D01*
X162767317Y-125472740D01*
X162767316Y-125472738D01*
X162639762Y-125345184D01*
X162639759Y-125345182D01*
X162639758Y-125345181D01*
X162487023Y-125249211D01*
X162316761Y-125189633D01*
X162316757Y-125189632D01*
X162137500Y-125169435D01*
X161958242Y-125189632D01*
X161958238Y-125189633D01*
X161787977Y-125249211D01*
X161787976Y-125249211D01*
X161635241Y-125345181D01*
X161507681Y-125472741D01*
X161411711Y-125625476D01*
X161411711Y-125625477D01*
X161352133Y-125795738D01*
X161352132Y-125795742D01*
X161331935Y-125975000D01*
X138665248Y-125975000D01*
X138647868Y-125820745D01*
X138645935Y-125815221D01*
X138588291Y-125650483D01*
X138585878Y-125645473D01*
X138587641Y-125644623D01*
X138574716Y-125593350D01*
X138587133Y-125555131D01*
X138585878Y-125554527D01*
X138588287Y-125549525D01*
X138588289Y-125549522D01*
X138633351Y-125420742D01*
X138647866Y-125379261D01*
X138647867Y-125379257D01*
X138647868Y-125379255D01*
X138668065Y-125200000D01*
X138647868Y-125020745D01*
X138588289Y-124850478D01*
X138565765Y-124814632D01*
X138492318Y-124697741D01*
X138492317Y-124697740D01*
X138492316Y-124697738D01*
X138364762Y-124570184D01*
X138364759Y-124570182D01*
X138364758Y-124570181D01*
X138212023Y-124474211D01*
X138041761Y-124414633D01*
X138041757Y-124414632D01*
X137862500Y-124394435D01*
X137683242Y-124414632D01*
X137683238Y-124414633D01*
X137512977Y-124474211D01*
X137512976Y-124474211D01*
X137360241Y-124570181D01*
X137232681Y-124697741D01*
X137136711Y-124850476D01*
X137136711Y-124850477D01*
X137077133Y-125020738D01*
X137077132Y-125020742D01*
X137056935Y-125200000D01*
X132831572Y-125200000D01*
X132767316Y-125097738D01*
X132639762Y-124970184D01*
X132639759Y-124970182D01*
X132639758Y-124970181D01*
X132487023Y-124874211D01*
X132316761Y-124814633D01*
X132316757Y-124814632D01*
X132137500Y-124794435D01*
X131958242Y-124814632D01*
X131958238Y-124814633D01*
X131787977Y-124874211D01*
X131787976Y-124874211D01*
X131635241Y-124970181D01*
X131507681Y-125097741D01*
X131411711Y-125250476D01*
X131411711Y-125250477D01*
X131352133Y-125420738D01*
X131352132Y-125420742D01*
X131337058Y-125554534D01*
X131331935Y-125600000D01*
X100500500Y-125600000D01*
X100500500Y-120000000D01*
X138882435Y-120000000D01*
X138902632Y-120179257D01*
X138902633Y-120179261D01*
X138962211Y-120349522D01*
X138962211Y-120349523D01*
X139058181Y-120502258D01*
X139058184Y-120502262D01*
X139185738Y-120629816D01*
X139338478Y-120725789D01*
X139375999Y-120738918D01*
X139508738Y-120785366D01*
X139508742Y-120785367D01*
X139508745Y-120785368D01*
X139688000Y-120805565D01*
X139867255Y-120785368D01*
X139967304Y-120750358D01*
X140028471Y-120748985D01*
X140032658Y-120750345D01*
X140132745Y-120785368D01*
X140312000Y-120805565D01*
X140491255Y-120785368D01*
X140592304Y-120750008D01*
X140653471Y-120748635D01*
X140657658Y-120749995D01*
X140758745Y-120785368D01*
X140938000Y-120805565D01*
X141117255Y-120785368D01*
X141217304Y-120750358D01*
X141278471Y-120748985D01*
X141282658Y-120750345D01*
X141382745Y-120785368D01*
X141562000Y-120805565D01*
X141741255Y-120785368D01*
X141842304Y-120750008D01*
X141903471Y-120748635D01*
X141907658Y-120749995D01*
X142008745Y-120785368D01*
X142188000Y-120805565D01*
X142367255Y-120785368D01*
X142537522Y-120725789D01*
X142690262Y-120629816D01*
X142742998Y-120577079D01*
X142797513Y-120549304D01*
X142857945Y-120558875D01*
X142883000Y-120577078D01*
X142935738Y-120629816D01*
X143088478Y-120725789D01*
X143125999Y-120738918D01*
X143258738Y-120785366D01*
X143258742Y-120785367D01*
X143258745Y-120785368D01*
X143438000Y-120805565D01*
X143617255Y-120785368D01*
X143787522Y-120725789D01*
X143940262Y-120629816D01*
X144067816Y-120502262D01*
X144163789Y-120349522D01*
X144223368Y-120179255D01*
X144243565Y-120000000D01*
X144506435Y-120000000D01*
X144526632Y-120179257D01*
X144526633Y-120179261D01*
X144586211Y-120349522D01*
X144586211Y-120349523D01*
X144682181Y-120502258D01*
X144682184Y-120502262D01*
X144809738Y-120629816D01*
X144962478Y-120725789D01*
X144999999Y-120738918D01*
X145132738Y-120785366D01*
X145132742Y-120785367D01*
X145132745Y-120785368D01*
X145312000Y-120805565D01*
X145491255Y-120785368D01*
X145592304Y-120750008D01*
X145653471Y-120748635D01*
X145657658Y-120749995D01*
X145758745Y-120785368D01*
X145938000Y-120805565D01*
X146117255Y-120785368D01*
X146217304Y-120750358D01*
X146278471Y-120748985D01*
X146282658Y-120750345D01*
X146382745Y-120785368D01*
X146562000Y-120805565D01*
X146741255Y-120785368D01*
X146842304Y-120750008D01*
X146903471Y-120748635D01*
X146907658Y-120749995D01*
X147008745Y-120785368D01*
X147188000Y-120805565D01*
X147367255Y-120785368D01*
X147537522Y-120725789D01*
X147690262Y-120629816D01*
X147817816Y-120502262D01*
X147913789Y-120349522D01*
X147973368Y-120179255D01*
X147993565Y-120000000D01*
X148256435Y-120000000D01*
X148276632Y-120179257D01*
X148276633Y-120179261D01*
X148336211Y-120349522D01*
X148336211Y-120349523D01*
X148432181Y-120502258D01*
X148432184Y-120502262D01*
X148559738Y-120629816D01*
X148712478Y-120725789D01*
X148749999Y-120738918D01*
X148882738Y-120785366D01*
X148882742Y-120785367D01*
X148882745Y-120785368D01*
X149062000Y-120805565D01*
X149241255Y-120785368D01*
X149342304Y-120750008D01*
X149403471Y-120748635D01*
X149407658Y-120749995D01*
X149508745Y-120785368D01*
X149688000Y-120805565D01*
X149867255Y-120785368D01*
X149967304Y-120750358D01*
X150028471Y-120748985D01*
X150032658Y-120750345D01*
X150132745Y-120785368D01*
X150312000Y-120805565D01*
X150491255Y-120785368D01*
X150592304Y-120750008D01*
X150653471Y-120748635D01*
X150657658Y-120749995D01*
X150758745Y-120785368D01*
X150938000Y-120805565D01*
X151117255Y-120785368D01*
X151217304Y-120750358D01*
X151278471Y-120748985D01*
X151282658Y-120750345D01*
X151382745Y-120785368D01*
X151562000Y-120805565D01*
X151741255Y-120785368D01*
X151842304Y-120750008D01*
X151903471Y-120748635D01*
X151907658Y-120749995D01*
X152008745Y-120785368D01*
X152188000Y-120805565D01*
X152367255Y-120785368D01*
X152537522Y-120725789D01*
X152690262Y-120629816D01*
X152817816Y-120502262D01*
X152913789Y-120349522D01*
X152973368Y-120179255D01*
X152993565Y-120000000D01*
X153256435Y-120000000D01*
X153276632Y-120179257D01*
X153276633Y-120179261D01*
X153336211Y-120349522D01*
X153336211Y-120349523D01*
X153432181Y-120502258D01*
X153432184Y-120502262D01*
X153559738Y-120629816D01*
X153712478Y-120725789D01*
X153749999Y-120738918D01*
X153882738Y-120785366D01*
X153882742Y-120785367D01*
X153882745Y-120785368D01*
X154062000Y-120805565D01*
X154241255Y-120785368D01*
X154342304Y-120750008D01*
X154403471Y-120748635D01*
X154407658Y-120749995D01*
X154508745Y-120785368D01*
X154688000Y-120805565D01*
X154867255Y-120785368D01*
X154967304Y-120750358D01*
X155028471Y-120748985D01*
X155032658Y-120750345D01*
X155132745Y-120785368D01*
X155312000Y-120805565D01*
X155491255Y-120785368D01*
X155592304Y-120750008D01*
X155653471Y-120748635D01*
X155657658Y-120749995D01*
X155758745Y-120785368D01*
X155938000Y-120805565D01*
X156117255Y-120785368D01*
X156287522Y-120725789D01*
X156440262Y-120629816D01*
X156567816Y-120502262D01*
X156663789Y-120349522D01*
X156723368Y-120179255D01*
X156743565Y-120000000D01*
X156723368Y-119820745D01*
X156663789Y-119650478D01*
X156567816Y-119497738D01*
X156440262Y-119370184D01*
X156440259Y-119370182D01*
X156440258Y-119370181D01*
X156287523Y-119274211D01*
X156117261Y-119214633D01*
X156117257Y-119214632D01*
X155938000Y-119194435D01*
X155758742Y-119214632D01*
X155657697Y-119249989D01*
X155596527Y-119251361D01*
X155592303Y-119249989D01*
X155491257Y-119214632D01*
X155312000Y-119194435D01*
X155132742Y-119214632D01*
X155032697Y-119249639D01*
X154971527Y-119251011D01*
X154967303Y-119249639D01*
X154867257Y-119214632D01*
X154688000Y-119194435D01*
X154508742Y-119214632D01*
X154407697Y-119249989D01*
X154346527Y-119251361D01*
X154342303Y-119249989D01*
X154241257Y-119214632D01*
X154062000Y-119194435D01*
X153882742Y-119214632D01*
X153882738Y-119214633D01*
X153712477Y-119274211D01*
X153712476Y-119274211D01*
X153559741Y-119370181D01*
X153432181Y-119497741D01*
X153336211Y-119650476D01*
X153336211Y-119650477D01*
X153276633Y-119820738D01*
X153276632Y-119820742D01*
X153256435Y-120000000D01*
X152993565Y-120000000D01*
X152973368Y-119820745D01*
X152913789Y-119650478D01*
X152817816Y-119497738D01*
X152690262Y-119370184D01*
X152690259Y-119370182D01*
X152690258Y-119370181D01*
X152537523Y-119274211D01*
X152367261Y-119214633D01*
X152367257Y-119214632D01*
X152188000Y-119194435D01*
X152008742Y-119214632D01*
X151907697Y-119249989D01*
X151846527Y-119251361D01*
X151842303Y-119249989D01*
X151741257Y-119214632D01*
X151562000Y-119194435D01*
X151382742Y-119214632D01*
X151282697Y-119249639D01*
X151221527Y-119251011D01*
X151217303Y-119249639D01*
X151117257Y-119214632D01*
X150938000Y-119194435D01*
X150758742Y-119214632D01*
X150657697Y-119249989D01*
X150596527Y-119251361D01*
X150592303Y-119249989D01*
X150491257Y-119214632D01*
X150312000Y-119194435D01*
X150132742Y-119214632D01*
X150032697Y-119249639D01*
X149971527Y-119251011D01*
X149967303Y-119249639D01*
X149867257Y-119214632D01*
X149688000Y-119194435D01*
X149508742Y-119214632D01*
X149407697Y-119249989D01*
X149346527Y-119251361D01*
X149342303Y-119249989D01*
X149241257Y-119214632D01*
X149062000Y-119194435D01*
X148882742Y-119214632D01*
X148882738Y-119214633D01*
X148712477Y-119274211D01*
X148712476Y-119274211D01*
X148559741Y-119370181D01*
X148432181Y-119497741D01*
X148336211Y-119650476D01*
X148336211Y-119650477D01*
X148276633Y-119820738D01*
X148276632Y-119820742D01*
X148256435Y-120000000D01*
X147993565Y-120000000D01*
X147973368Y-119820745D01*
X147913789Y-119650478D01*
X147817816Y-119497738D01*
X147690262Y-119370184D01*
X147690259Y-119370182D01*
X147690258Y-119370181D01*
X147537523Y-119274211D01*
X147367261Y-119214633D01*
X147367257Y-119214632D01*
X147188000Y-119194435D01*
X147008742Y-119214632D01*
X146907697Y-119249989D01*
X146846527Y-119251361D01*
X146842303Y-119249989D01*
X146741257Y-119214632D01*
X146562000Y-119194435D01*
X146382742Y-119214632D01*
X146282697Y-119249639D01*
X146221527Y-119251011D01*
X146217303Y-119249639D01*
X146117257Y-119214632D01*
X145938000Y-119194435D01*
X145758742Y-119214632D01*
X145657697Y-119249989D01*
X145596527Y-119251361D01*
X145592303Y-119249989D01*
X145491257Y-119214632D01*
X145312000Y-119194435D01*
X145132742Y-119214632D01*
X145132738Y-119214633D01*
X144962477Y-119274211D01*
X144962476Y-119274211D01*
X144809741Y-119370181D01*
X144682181Y-119497741D01*
X144586211Y-119650476D01*
X144586211Y-119650477D01*
X144526633Y-119820738D01*
X144526632Y-119820742D01*
X144506435Y-120000000D01*
X144243565Y-120000000D01*
X144223368Y-119820745D01*
X144163789Y-119650478D01*
X144067816Y-119497738D01*
X143940262Y-119370184D01*
X143940259Y-119370182D01*
X143940258Y-119370181D01*
X143787523Y-119274211D01*
X143617261Y-119214633D01*
X143617257Y-119214632D01*
X143438000Y-119194435D01*
X143258742Y-119214632D01*
X143258738Y-119214633D01*
X143088477Y-119274211D01*
X143088476Y-119274211D01*
X142935741Y-119370181D01*
X142935736Y-119370185D01*
X142883003Y-119422918D01*
X142828486Y-119450695D01*
X142768054Y-119441123D01*
X142742997Y-119422918D01*
X142690263Y-119370185D01*
X142690258Y-119370181D01*
X142537523Y-119274211D01*
X142367261Y-119214633D01*
X142367257Y-119214632D01*
X142188000Y-119194435D01*
X142008742Y-119214632D01*
X141907697Y-119249989D01*
X141846527Y-119251361D01*
X141842303Y-119249989D01*
X141741257Y-119214632D01*
X141562000Y-119194435D01*
X141382742Y-119214632D01*
X141282697Y-119249639D01*
X141221527Y-119251011D01*
X141217303Y-119249639D01*
X141117257Y-119214632D01*
X140938000Y-119194435D01*
X140758742Y-119214632D01*
X140657697Y-119249989D01*
X140596527Y-119251361D01*
X140592303Y-119249989D01*
X140491257Y-119214632D01*
X140312000Y-119194435D01*
X140132742Y-119214632D01*
X140032697Y-119249639D01*
X139971527Y-119251011D01*
X139967303Y-119249639D01*
X139867257Y-119214632D01*
X139688000Y-119194435D01*
X139508742Y-119214632D01*
X139508738Y-119214633D01*
X139338477Y-119274211D01*
X139338476Y-119274211D01*
X139185741Y-119370181D01*
X139058181Y-119497741D01*
X138962211Y-119650476D01*
X138962211Y-119650477D01*
X138902633Y-119820738D01*
X138902632Y-119820742D01*
X138882435Y-120000000D01*
X100500500Y-120000000D01*
X100500500Y-103878710D01*
X102149500Y-103878710D01*
X102149500Y-104121289D01*
X102181161Y-104361781D01*
X102181161Y-104361786D01*
X102243944Y-104596092D01*
X102243948Y-104596105D01*
X102336772Y-104820204D01*
X102336774Y-104820208D01*
X102336776Y-104820212D01*
X102337084Y-104820745D01*
X102458066Y-105030292D01*
X102605729Y-105222731D01*
X102605731Y-105222733D01*
X102605735Y-105222738D01*
X102777262Y-105394265D01*
X102777266Y-105394268D01*
X102777268Y-105394270D01*
X102918007Y-105502262D01*
X102969711Y-105541936D01*
X103179788Y-105663224D01*
X103403900Y-105756054D01*
X103638211Y-105818838D01*
X103878712Y-105850500D01*
X103878713Y-105850500D01*
X104121287Y-105850500D01*
X104121288Y-105850500D01*
X104361789Y-105818838D01*
X104596100Y-105756054D01*
X104820212Y-105663224D01*
X105030289Y-105541936D01*
X105222738Y-105394265D01*
X105394265Y-105222738D01*
X105541936Y-105030289D01*
X105559423Y-105000000D01*
X134194435Y-105000000D01*
X134214632Y-105179257D01*
X134214633Y-105179261D01*
X134274211Y-105349522D01*
X134274211Y-105349523D01*
X134370181Y-105502258D01*
X134370184Y-105502262D01*
X134497738Y-105629816D01*
X134497740Y-105629817D01*
X134497741Y-105629818D01*
X134624999Y-105709780D01*
X134650478Y-105725789D01*
X134718657Y-105749646D01*
X134820738Y-105785366D01*
X134820742Y-105785367D01*
X134820745Y-105785368D01*
X135000000Y-105805565D01*
X135179255Y-105785368D01*
X135349522Y-105725789D01*
X135502262Y-105629816D01*
X135629816Y-105502262D01*
X135725789Y-105349522D01*
X135785368Y-105179255D01*
X135805565Y-105000000D01*
X142069435Y-105000000D01*
X142089632Y-105179257D01*
X142089633Y-105179261D01*
X142149211Y-105349522D01*
X142149211Y-105349523D01*
X142245181Y-105502258D01*
X142245184Y-105502262D01*
X142372738Y-105629816D01*
X142372740Y-105629817D01*
X142372741Y-105629818D01*
X142499999Y-105709780D01*
X142525478Y-105725789D01*
X142593657Y-105749646D01*
X142695738Y-105785366D01*
X142695742Y-105785367D01*
X142695745Y-105785368D01*
X142875000Y-105805565D01*
X143054255Y-105785368D01*
X143217303Y-105728314D01*
X143278472Y-105726942D01*
X143282682Y-105728309D01*
X143358163Y-105754721D01*
X143445738Y-105785366D01*
X143445742Y-105785367D01*
X143445745Y-105785368D01*
X143625000Y-105805565D01*
X143804255Y-105785368D01*
X143967303Y-105728314D01*
X144028472Y-105726942D01*
X144032682Y-105728309D01*
X144108163Y-105754721D01*
X144195738Y-105785366D01*
X144195742Y-105785367D01*
X144195745Y-105785368D01*
X144375000Y-105805565D01*
X144554255Y-105785368D01*
X144717303Y-105728314D01*
X144778472Y-105726942D01*
X144782682Y-105728309D01*
X144858163Y-105754721D01*
X144945738Y-105785366D01*
X144945742Y-105785367D01*
X144945745Y-105785368D01*
X145125000Y-105805565D01*
X145304255Y-105785368D01*
X145467303Y-105728314D01*
X145528472Y-105726942D01*
X145532682Y-105728309D01*
X145608163Y-105754721D01*
X145695738Y-105785366D01*
X145695742Y-105785367D01*
X145695745Y-105785368D01*
X145875000Y-105805565D01*
X146054255Y-105785368D01*
X146217303Y-105728314D01*
X146278472Y-105726942D01*
X146282682Y-105728309D01*
X146358163Y-105754721D01*
X146445738Y-105785366D01*
X146445742Y-105785367D01*
X146445745Y-105785368D01*
X146625000Y-105805565D01*
X146804255Y-105785368D01*
X146974522Y-105725789D01*
X147127262Y-105629816D01*
X147254816Y-105502262D01*
X147350789Y-105349522D01*
X147410368Y-105179255D01*
X147430565Y-105000000D01*
X164194435Y-105000000D01*
X164214632Y-105179257D01*
X164214633Y-105179261D01*
X164274211Y-105349522D01*
X164274211Y-105349523D01*
X164370181Y-105502258D01*
X164370184Y-105502262D01*
X164497738Y-105629816D01*
X164497740Y-105629817D01*
X164497741Y-105629818D01*
X164624999Y-105709780D01*
X164650478Y-105725789D01*
X164718657Y-105749646D01*
X164820738Y-105785366D01*
X164820742Y-105785367D01*
X164820745Y-105785368D01*
X165000000Y-105805565D01*
X165179255Y-105785368D01*
X165349522Y-105725789D01*
X165502262Y-105629816D01*
X165629816Y-105502262D01*
X165725789Y-105349522D01*
X165785368Y-105179255D01*
X165805565Y-105000000D01*
X165785368Y-104820745D01*
X165785181Y-104820212D01*
X165761014Y-104751145D01*
X165725789Y-104650478D01*
X165629816Y-104497738D01*
X165502262Y-104370184D01*
X165502259Y-104370182D01*
X165502258Y-104370181D01*
X165349523Y-104274211D01*
X165179261Y-104214633D01*
X165179257Y-104214632D01*
X165000000Y-104194435D01*
X164820742Y-104214632D01*
X164820738Y-104214633D01*
X164650477Y-104274211D01*
X164650476Y-104274211D01*
X164497741Y-104370181D01*
X164370181Y-104497741D01*
X164274211Y-104650476D01*
X164274211Y-104650477D01*
X164214633Y-104820738D01*
X164214632Y-104820742D01*
X164194435Y-105000000D01*
X147430565Y-105000000D01*
X147410368Y-104820745D01*
X147410181Y-104820212D01*
X147386014Y-104751145D01*
X147350789Y-104650478D01*
X147254816Y-104497738D01*
X147127262Y-104370184D01*
X147127259Y-104370182D01*
X147127258Y-104370181D01*
X146974523Y-104274211D01*
X146804261Y-104214633D01*
X146804257Y-104214632D01*
X146625000Y-104194435D01*
X146445742Y-104214632D01*
X146445738Y-104214633D01*
X146282698Y-104271684D01*
X146221528Y-104273057D01*
X146217302Y-104271684D01*
X146054261Y-104214633D01*
X146054257Y-104214632D01*
X145875000Y-104194435D01*
X145695742Y-104214632D01*
X145695738Y-104214633D01*
X145532698Y-104271684D01*
X145471528Y-104273057D01*
X145467302Y-104271684D01*
X145304261Y-104214633D01*
X145304257Y-104214632D01*
X145125000Y-104194435D01*
X144945742Y-104214632D01*
X144945738Y-104214633D01*
X144782698Y-104271684D01*
X144721528Y-104273057D01*
X144717302Y-104271684D01*
X144554261Y-104214633D01*
X144554257Y-104214632D01*
X144375000Y-104194435D01*
X144195742Y-104214632D01*
X144195738Y-104214633D01*
X144032698Y-104271684D01*
X143971528Y-104273057D01*
X143967302Y-104271684D01*
X143804261Y-104214633D01*
X143804257Y-104214632D01*
X143625000Y-104194435D01*
X143445742Y-104214632D01*
X143445738Y-104214633D01*
X143282698Y-104271684D01*
X143221528Y-104273057D01*
X143217302Y-104271684D01*
X143054261Y-104214633D01*
X143054257Y-104214632D01*
X142875000Y-104194435D01*
X142695742Y-104214632D01*
X142695738Y-104214633D01*
X142525477Y-104274211D01*
X142525476Y-104274211D01*
X142372741Y-104370181D01*
X142245181Y-104497741D01*
X142149211Y-104650476D01*
X142149211Y-104650477D01*
X142089633Y-104820738D01*
X142089632Y-104820742D01*
X142069435Y-105000000D01*
X135805565Y-105000000D01*
X135785368Y-104820745D01*
X135785181Y-104820212D01*
X135761014Y-104751145D01*
X135725789Y-104650478D01*
X135629816Y-104497738D01*
X135502262Y-104370184D01*
X135502259Y-104370182D01*
X135502258Y-104370181D01*
X135349523Y-104274211D01*
X135179261Y-104214633D01*
X135179257Y-104214632D01*
X135000000Y-104194435D01*
X134820742Y-104214632D01*
X134820738Y-104214633D01*
X134650477Y-104274211D01*
X134650476Y-104274211D01*
X134497741Y-104370181D01*
X134370181Y-104497741D01*
X134274211Y-104650476D01*
X134274211Y-104650477D01*
X134214633Y-104820738D01*
X134214632Y-104820742D01*
X134194435Y-105000000D01*
X105559423Y-105000000D01*
X105663224Y-104820212D01*
X105756054Y-104596100D01*
X105818838Y-104361789D01*
X105850500Y-104121288D01*
X105850500Y-103878712D01*
X105850500Y-103878710D01*
X194149500Y-103878710D01*
X194149500Y-104121289D01*
X194181161Y-104361781D01*
X194181161Y-104361786D01*
X194243944Y-104596092D01*
X194243948Y-104596105D01*
X194336772Y-104820204D01*
X194336774Y-104820208D01*
X194336776Y-104820212D01*
X194337084Y-104820745D01*
X194458066Y-105030292D01*
X194605729Y-105222731D01*
X194605731Y-105222733D01*
X194605735Y-105222738D01*
X194777262Y-105394265D01*
X194777266Y-105394268D01*
X194777268Y-105394270D01*
X194918007Y-105502262D01*
X194969711Y-105541936D01*
X195179788Y-105663224D01*
X195403900Y-105756054D01*
X195638211Y-105818838D01*
X195878712Y-105850500D01*
X195878713Y-105850500D01*
X196121287Y-105850500D01*
X196121288Y-105850500D01*
X196361789Y-105818838D01*
X196596100Y-105756054D01*
X196820212Y-105663224D01*
X197030289Y-105541936D01*
X197222738Y-105394265D01*
X197394265Y-105222738D01*
X197541936Y-105030289D01*
X197663224Y-104820212D01*
X197756054Y-104596100D01*
X197818838Y-104361789D01*
X197850500Y-104121288D01*
X197850500Y-103878712D01*
X197818838Y-103638211D01*
X197756054Y-103403900D01*
X197663224Y-103179788D01*
X197541936Y-102969711D01*
X197394265Y-102777262D01*
X197222738Y-102605735D01*
X197222733Y-102605731D01*
X197222731Y-102605729D01*
X197030292Y-102458066D01*
X197030289Y-102458064D01*
X196820212Y-102336776D01*
X196820208Y-102336774D01*
X196820204Y-102336772D01*
X196596105Y-102243948D01*
X196596104Y-102243947D01*
X196596100Y-102243946D01*
X196361789Y-102181162D01*
X196361786Y-102181161D01*
X196361784Y-102181161D01*
X196121289Y-102149500D01*
X196121288Y-102149500D01*
X195878712Y-102149500D01*
X195878710Y-102149500D01*
X195638218Y-102181161D01*
X195638213Y-102181161D01*
X195403907Y-102243944D01*
X195403894Y-102243948D01*
X195179795Y-102336772D01*
X194969707Y-102458066D01*
X194777268Y-102605729D01*
X194605729Y-102777268D01*
X194458066Y-102969707D01*
X194336772Y-103179795D01*
X194243948Y-103403894D01*
X194243944Y-103403907D01*
X194181161Y-103638213D01*
X194181161Y-103638218D01*
X194149500Y-103878710D01*
X105850500Y-103878710D01*
X105818838Y-103638211D01*
X105756054Y-103403900D01*
X105663224Y-103179788D01*
X105541936Y-102969711D01*
X105394265Y-102777262D01*
X105222738Y-102605735D01*
X105222733Y-102605731D01*
X105222731Y-102605729D01*
X105030292Y-102458066D01*
X105030289Y-102458064D01*
X104820212Y-102336776D01*
X104820208Y-102336774D01*
X104820204Y-102336772D01*
X104596105Y-102243948D01*
X104596104Y-102243947D01*
X104596100Y-102243946D01*
X104361789Y-102181162D01*
X104361786Y-102181161D01*
X104361784Y-102181161D01*
X104121289Y-102149500D01*
X104121288Y-102149500D01*
X103878712Y-102149500D01*
X103878710Y-102149500D01*
X103638218Y-102181161D01*
X103638213Y-102181161D01*
X103403907Y-102243944D01*
X103403894Y-102243948D01*
X103179795Y-102336772D01*
X102969707Y-102458066D01*
X102777268Y-102605729D01*
X102605729Y-102777268D01*
X102458066Y-102969707D01*
X102336772Y-103179795D01*
X102243948Y-103403894D01*
X102243944Y-103403907D01*
X102181161Y-103638213D01*
X102181161Y-103638218D01*
X102149500Y-103878710D01*
X100500500Y-103878710D01*
X100500500Y-100599500D01*
X100519407Y-100541309D01*
X100568907Y-100505345D01*
X100599500Y-100500500D01*
X199400500Y-100500500D01*
X199458691Y-100519407D01*
G37*
%TD.AperFunction*%
%TD*%
M02*
