0
SECTION
2
HEADER
9
$ACADVER
1
AC1014
9
$INSUNITS
70
4
0
ENDSEC
0
SECTION
2
TABLES
0
TABLE
2
LAYER
70
10
0
LAYER
2
RF_CPW_SIGNAL
70
0
62
1
6
CONTINUOUS
0
LAYER
2
RF_CPW_GROUND
70
0
62
3
6
CONTINUOUS
0
LAYER
2
MZI_WAVEGUIDE
70
0
62
5
6
CONTINUOUS
0
LAYER
2
MZI_ELECTRODE_S
70
0
62
6
6
CONTINUOUS
0
LAYER
2
MZI_ELECTRODE_G
70
0
62
8
6
CONTINUOUS
0
LAYER
2
BOARD_OUTLINE
70
0
62
7
6
CONTINUOUS
0
LAYER
2
TFLN_REGION
70
0
62
4
6
CONTINUOUS
0
LAYER
2
CXL_TRACES
70
0
62
2
6
CONTINUOUS
0
LAYER
2
SNSPD_READOUT
70
0
62
30
6
CONTINUOUS
0
LAYER
2
ANNOTATIONS
70
0
62
7
6
CONTINUOUS
0
ENDTAB
0
ENDSEC
0
SECTION
2
ENTITIES
0
LWPOLYLINE
8
BOARD_OUTLINE
90
4
70
1
10
0.000000
20
0.000000
10
420.000000
20
0.000000
10
420.000000
20
350.000000
10
0.000000
20
350.000000
0
LWPOLYLINE
8
TFLN_REGION
90
4
70
1
10
150.000000
20
150.000000
10
200.000000
20
150.000000
10
200.000000
20
200.000000
10
150.000000
20
200.000000
0
TEXT
8
ANNOTATIONS
10
155.000000
20
202.000000
30
0.0
40
1.5000
1
TFLN_PIC_A
0
LWPOLYLINE
8
TFLN_REGION
90
4
70
1
10
220.000000
20
150.000000
10
270.000000
20
150.000000
10
270.000000
20
200.000000
10
220.000000
20
200.000000
0
TEXT
8
ANNOTATIONS
10
225.000000
20
202.000000
30
0.0
40
1.5000
1
TFLN_PIC_B
0
LWPOLYLINE
8
RF_CPW_SIGNAL
90
4
70
1
10
130.000000
20
160.960000
10
150.000000
20
160.960000
10
150.000000
20
161.040000
10
130.000000
20
161.040000
0
LWPOLYLINE
8
RF_CPW_GROUND
90
4
70
1
10
130.000000
20
161.080000
10
150.000000
20
161.080000
10
150.000000
20
161.280000
10
130.000000
20
161.280000
0
LWPOLYLINE
8
RF_CPW_GROUND
90
4
70
1
10
130.000000
20
160.720000
10
150.000000
20
160.720000
10
150.000000
20
160.920000
10
130.000000
20
160.920000
0
LWPOLYLINE
8
RF_CPW_SIGNAL
90
4
70
1
10
130.000000
20
164.960000
10
150.000000
20
164.960000
10
150.000000
20
165.040000
10
130.000000
20
165.040000
0
LWPOLYLINE
8
RF_CPW_GROUND
90
4
70
1
10
130.000000
20
165.080000
10
150.000000
20
165.080000
10
150.000000
20
165.280000
10
130.000000
20
165.280000
0
LWPOLYLINE
8
RF_CPW_GROUND
90
4
70
1
10
130.000000
20
164.720000
10
150.000000
20
164.720000
10
150.000000
20
164.920000
10
130.000000
20
164.920000
0
LWPOLYLINE
8
RF_CPW_SIGNAL
90
4
70
1
10
130.000000
20
168.960000
10
150.000000
20
168.960000
10
150.000000
20
169.040000
10
130.000000
20
169.040000
0
LWPOLYLINE
8
RF_CPW_GROUND
90
4
70
1
10
130.000000
20
169.080000
10
150.000000
20
169.080000
10
150.000000
20
169.280000
10
130.000000
20
169.280000
0
LWPOLYLINE
8
RF_CPW_GROUND
90
4
70
1
10
130.000000
20
168.720000
10
150.000000
20
168.720000
10
150.000000
20
168.920000
10
130.000000
20
168.920000
0
LWPOLYLINE
8
RF_CPW_SIGNAL
90
4
70
1
10
130.000000
20
172.960000
10
150.000000
20
172.960000
10
150.000000
20
173.040000
10
130.000000
20
173.040000
0
LWPOLYLINE
8
RF_CPW_GROUND
90
4
70
1
10
130.000000
20
173.080000
10
150.000000
20
173.080000
10
150.000000
20
173.280000
10
130.000000
20
173.280000
0
LWPOLYLINE
8
RF_CPW_GROUND
90
4
70
1
10
130.000000
20
172.720000
10
150.000000
20
172.720000
10
150.000000
20
172.920000
10
130.000000
20
172.920000
0
LWPOLYLINE
8
RF_CPW_SIGNAL
90
4
70
1
10
130.000000
20
176.960000
10
150.000000
20
176.960000
10
150.000000
20
177.040000
10
130.000000
20
177.040000
0
LWPOLYLINE
8
RF_CPW_GROUND
90
4
70
1
10
130.000000
20
177.080000
10
150.000000
20
177.080000
10
150.000000
20
177.280000
10
130.000000
20
177.280000
0
LWPOLYLINE
8
RF_CPW_GROUND
90
4
70
1
10
130.000000
20
176.720000
10
150.000000
20
176.720000
10
150.000000
20
176.920000
10
130.000000
20
176.920000
0
LWPOLYLINE
8
RF_CPW_SIGNAL
90
4
70
1
10
130.000000
20
180.960000
10
150.000000
20
180.960000
10
150.000000
20
181.040000
10
130.000000
20
181.040000
0
LWPOLYLINE
8
RF_CPW_GROUND
90
4
70
1
10
130.000000
20
181.080000
10
150.000000
20
181.080000
10
150.000000
20
181.280000
10
130.000000
20
181.280000
0
LWPOLYLINE
8
RF_CPW_GROUND
90
4
70
1
10
130.000000
20
180.720000
10
150.000000
20
180.720000
10
150.000000
20
180.920000
10
130.000000
20
180.920000
0
LWPOLYLINE
8
RF_CPW_SIGNAL
90
4
70
1
10
130.000000
20
184.960000
10
150.000000
20
184.960000
10
150.000000
20
185.040000
10
130.000000
20
185.040000
0
LWPOLYLINE
8
RF_CPW_GROUND
90
4
70
1
10
130.000000
20
185.080000
10
150.000000
20
185.080000
10
150.000000
20
185.280000
10
130.000000
20
185.280000
0
LWPOLYLINE
8
RF_CPW_GROUND
90
4
70
1
10
130.000000
20
184.720000
10
150.000000
20
184.720000
10
150.000000
20
184.920000
10
130.000000
20
184.920000
0
LWPOLYLINE
8
RF_CPW_SIGNAL
90
4
70
1
10
130.000000
20
188.960000
10
150.000000
20
188.960000
10
150.000000
20
189.040000
10
130.000000
20
189.040000
0
LWPOLYLINE
8
RF_CPW_GROUND
90
4
70
1
10
130.000000
20
189.080000
10
150.000000
20
189.080000
10
150.000000
20
189.280000
10
130.000000
20
189.280000
0
LWPOLYLINE
8
RF_CPW_GROUND
90
4
70
1
10
130.000000
20
188.720000
10
150.000000
20
188.720000
10
150.000000
20
188.920000
10
130.000000
20
188.920000
0
TEXT
8
ANNOTATIONS
10
132.000000
20
195.000000
30
0.0
40
1.0000
1
RF_CPW_8CH_A
0
LWPOLYLINE
8
RF_CPW_SIGNAL
90
4
70
1
10
270.000000
20
160.960000
10
250.000000
20
160.960000
10
250.000000
20
161.040000
10
270.000000
20
161.040000
0
LWPOLYLINE
8
RF_CPW_GROUND
90
4
70
1
10
270.000000
20
161.080000
10
250.000000
20
161.080000
10
250.000000
20
161.280000
10
270.000000
20
161.280000
0
LWPOLYLINE
8
RF_CPW_GROUND
90
4
70
1
10
270.000000
20
160.720000
10
250.000000
20
160.720000
10
250.000000
20
160.920000
10
270.000000
20
160.920000
0
LWPOLYLINE
8
RF_CPW_SIGNAL
90
4
70
1
10
270.000000
20
164.960000
10
250.000000
20
164.960000
10
250.000000
20
165.040000
10
270.000000
20
165.040000
0
LWPOLYLINE
8
RF_CPW_GROUND
90
4
70
1
10
270.000000
20
165.080000
10
250.000000
20
165.080000
10
250.000000
20
165.280000
10
270.000000
20
165.280000
0
LWPOLYLINE
8
RF_CPW_GROUND
90
4
70
1
10
270.000000
20
164.720000
10
250.000000
20
164.720000
10
250.000000
20
164.920000
10
270.000000
20
164.920000
0
LWPOLYLINE
8
RF_CPW_SIGNAL
90
4
70
1
10
270.000000
20
168.960000
10
250.000000
20
168.960000
10
250.000000
20
169.040000
10
270.000000
20
169.040000
0
LWPOLYLINE
8
RF_CPW_GROUND
90
4
70
1
10
270.000000
20
169.080000
10
250.000000
20
169.080000
10
250.000000
20
169.280000
10
270.000000
20
169.280000
0
LWPOLYLINE
8
RF_CPW_GROUND
90
4
70
1
10
270.000000
20
168.720000
10
250.000000
20
168.720000
10
250.000000
20
168.920000
10
270.000000
20
168.920000
0
LWPOLYLINE
8
RF_CPW_SIGNAL
90
4
70
1
10
270.000000
20
172.960000
10
250.000000
20
172.960000
10
250.000000
20
173.040000
10
270.000000
20
173.040000
0
LWPOLYLINE
8
RF_CPW_GROUND
90
4
70
1
10
270.000000
20
173.080000
10
250.000000
20
173.080000
10
250.000000
20
173.280000
10
270.000000
20
173.280000
0
LWPOLYLINE
8
RF_CPW_GROUND
90
4
70
1
10
270.000000
20
172.720000
10
250.000000
20
172.720000
10
250.000000
20
172.920000
10
270.000000
20
172.920000
0
LWPOLYLINE
8
RF_CPW_SIGNAL
90
4
70
1
10
270.000000
20
176.960000
10
250.000000
20
176.960000
10
250.000000
20
177.040000
10
270.000000
20
177.040000
0
LWPOLYLINE
8
RF_CPW_GROUND
90
4
70
1
10
270.000000
20
177.080000
10
250.000000
20
177.080000
10
250.000000
20
177.280000
10
270.000000
20
177.280000
0
LWPOLYLINE
8
RF_CPW_GROUND
90
4
70
1
10
270.000000
20
176.720000
10
250.000000
20
176.720000
10
250.000000
20
176.920000
10
270.000000
20
176.920000
0
LWPOLYLINE
8
RF_CPW_SIGNAL
90
4
70
1
10
270.000000
20
180.960000
10
250.000000
20
180.960000
10
250.000000
20
181.040000
10
270.000000
20
181.040000
0
LWPOLYLINE
8
RF_CPW_GROUND
90
4
70
1
10
270.000000
20
181.080000
10
250.000000
20
181.080000
10
250.000000
20
181.280000
10
270.000000
20
181.280000
0
LWPOLYLINE
8
RF_CPW_GROUND
90
4
70
1
10
270.000000
20
180.720000
10
250.000000
20
180.720000
10
250.000000
20
180.920000
10
270.000000
20
180.920000
0
LWPOLYLINE
8
RF_CPW_SIGNAL
90
4
70
1
10
270.000000
20
184.960000
10
250.000000
20
184.960000
10
250.000000
20
185.040000
10
270.000000
20
185.040000
0
LWPOLYLINE
8
RF_CPW_GROUND
90
4
70
1
10
270.000000
20
185.080000
10
250.000000
20
185.080000
10
250.000000
20
185.280000
10
270.000000
20
185.280000
0
LWPOLYLINE
8
RF_CPW_GROUND
90
4
70
1
10
270.000000
20
184.720000
10
250.000000
20
184.720000
10
250.000000
20
184.920000
10
270.000000
20
184.920000
0
LWPOLYLINE
8
RF_CPW_SIGNAL
90
4
70
1
10
270.000000
20
188.960000
10
250.000000
20
188.960000
10
250.000000
20
189.040000
10
270.000000
20
189.040000
0
LWPOLYLINE
8
RF_CPW_GROUND
90
4
70
1
10
270.000000
20
189.080000
10
250.000000
20
189.080000
10
250.000000
20
189.280000
10
270.000000
20
189.280000
0
LWPOLYLINE
8
RF_CPW_GROUND
90
4
70
1
10
270.000000
20
188.720000
10
250.000000
20
188.720000
10
250.000000
20
188.920000
10
270.000000
20
188.920000
0
TEXT
8
ANNOTATIONS
10
252.000000
20
195.000000
30
0.0
40
1.0000
1
RF_CPW_8CH_B
0
LINE
8
CXL_TRACES
10
180.000000
20
147.000000
30
0.0
11
240.000000
21
147.000000
31
0.0
0
LINE
8
CXL_TRACES
10
180.000000
20
147.150000
30
0.0
11
240.000000
21
147.150000
31
0.0
0
LINE
8
CXL_TRACES
10
180.000000
20
155.000000
30
0.0
11
240.000000
21
155.000000
31
0.0
0
LINE
8
CXL_TRACES
10
180.000000
20
155.150000
30
0.0
11
240.000000
21
155.150000
31
0.0
0
LINE
8
CXL_TRACES
10
180.000000
20
163.000000
30
0.0
11
240.000000
21
163.000000
31
0.0
0
LINE
8
CXL_TRACES
10
180.000000
20
163.150000
30
0.0
11
240.000000
21
163.150000
31
0.0
0
LINE
8
CXL_TRACES
10
180.000000
20
171.000000
30
0.0
11
240.000000
21
171.000000
31
0.0
0
LINE
8
CXL_TRACES
10
180.000000
20
171.150000
30
0.0
11
240.000000
21
171.150000
31
0.0
0
LINE
8
CXL_TRACES
10
180.000000
20
179.000000
30
0.0
11
240.000000
21
179.000000
31
0.0
0
LINE
8
CXL_TRACES
10
180.000000
20
179.150000
30
0.0
11
240.000000
21
179.150000
31
0.0
0
LINE
8
CXL_TRACES
10
180.000000
20
187.000000
30
0.0
11
240.000000
21
187.000000
31
0.0
0
LINE
8
CXL_TRACES
10
180.000000
20
187.150000
30
0.0
11
240.000000
21
187.150000
31
0.0
0
LINE
8
CXL_TRACES
10
180.000000
20
195.000000
30
0.0
11
240.000000
21
195.000000
31
0.0
0
LINE
8
CXL_TRACES
10
180.000000
20
195.150000
30
0.0
11
240.000000
21
195.150000
31
0.0
0
LINE
8
CXL_TRACES
10
180.000000
20
203.000000
30
0.0
11
240.000000
21
203.000000
31
0.0
0
LINE
8
CXL_TRACES
10
180.000000
20
203.150000
30
0.0
11
240.000000
21
203.150000
31
0.0
0
LINE
8
SNSPD_READOUT
10
165.000000
20
165.000000
30
0.0
11
180.000000
21
165.000000
31
0.0
0
LINE
8
SNSPD_READOUT
10
165.000000
20
167.500000
30
0.0
11
180.000000
21
167.500000
31
0.0
0
LINE
8
SNSPD_READOUT
10
165.000000
20
170.000000
30
0.0
11
180.000000
21
170.000000
31
0.0
0
LINE
8
SNSPD_READOUT
10
165.000000
20
172.500000
30
0.0
11
180.000000
21
172.500000
31
0.0
0
LINE
8
SNSPD_READOUT
10
165.000000
20
175.000000
30
0.0
11
180.000000
21
175.000000
31
0.0
0
LINE
8
SNSPD_READOUT
10
165.000000
20
177.500000
30
0.0
11
180.000000
21
177.500000
31
0.0
0
LINE
8
SNSPD_READOUT
10
165.000000
20
180.000000
30
0.0
11
180.000000
21
180.000000
31
0.0
0
LINE
8
SNSPD_READOUT
10
165.000000
20
182.500000
30
0.0
11
180.000000
21
182.500000
31
0.0
0
LINE
8
SNSPD_READOUT
10
255.000000
20
165.000000
30
0.0
11
240.000000
21
165.000000
31
0.0
0
LINE
8
SNSPD_READOUT
10
255.000000
20
167.500000
30
0.0
11
240.000000
21
167.500000
31
0.0
0
LINE
8
SNSPD_READOUT
10
255.000000
20
170.000000
30
0.0
11
240.000000
21
170.000000
31
0.0
0
LINE
8
SNSPD_READOUT
10
255.000000
20
172.500000
30
0.0
11
240.000000
21
172.500000
31
0.0
0
LINE
8
SNSPD_READOUT
10
255.000000
20
175.000000
30
0.0
11
240.000000
21
175.000000
31
0.0
0
LINE
8
SNSPD_READOUT
10
255.000000
20
177.500000
30
0.0
11
240.000000
21
177.500000
31
0.0
0
LINE
8
SNSPD_READOUT
10
255.000000
20
180.000000
30
0.0
11
240.000000
21
180.000000
31
0.0
0
LINE
8
SNSPD_READOUT
10
255.000000
20
182.500000
30
0.0
11
240.000000
21
182.500000
31
0.0
0
ENDSEC
0
EOF
