0
SECTION
2
HEADER
9
$ACADVER
1
AC1014
9
$INSUNITS
70
4
0
ENDSEC
0
SECTION
2
TABLES
0
TABLE
2
LAYER
70
10
0
LAYER
2
RF_CPW_SIGNAL
70
0
62
1
6
CONTINUOUS
0
LAYER
2
RF_CPW_GROUND
70
0
62
3
6
CONTINUOUS
0
LAYER
2
MZI_WAVEGUIDE
70
0
62
5
6
CONTINUOUS
0
LAYER
2
MZI_ELECTRODE_S
70
0
62
6
6
CONTINUOUS
0
LAYER
2
MZI_ELECTRODE_G
70
0
62
8
6
CONTINUOUS
0
LAYER
2
BOARD_OUTLINE
70
0
62
7
6
CONTINUOUS
0
LAYER
2
TFLN_REGION
70
0
62
4
6
CONTINUOUS
0
LAYER
2
CXL_TRACES
70
0
62
2
6
CONTINUOUS
0
LAYER
2
SNSPD_READOUT
70
0
62
30
6
CONTINUOUS
0
LAYER
2
ANNOTATIONS
70
0
62
7
6
CONTINUOUS
0
ENDTAB
0
ENDSEC
0
SECTION
2
ENTITIES
0
LWPOLYLINE
8
MZI_WAVEGUIDE
90
4
70
1
10
-0.250000
20
0.002100
10
0.250000
20
0.002100
10
0.250000
20
0.002900
10
-0.250000
20
0.002900
0
LWPOLYLINE
8
MZI_WAVEGUIDE
90
4
70
1
10
-0.250000
20
-0.002900
10
0.250000
20
-0.002900
10
0.250000
20
-0.002100
10
-0.250000
20
-0.002100
0
LWPOLYLINE
8
MZI_WAVEGUIDE
90
3
70
1
10
-0.280000
20
0.000000
10
-0.250000
20
0.002500
10
-0.250000
20
-0.002500
0
LWPOLYLINE
8
MZI_WAVEGUIDE
90
3
70
1
10
0.280000
20
0.000000
10
0.250000
20
0.002500
10
0.250000
20
-0.002500
0
LWPOLYLINE
8
MZI_ELECTRODE_S
90
4
70
1
10
-0.240000
20
0.005900
10
0.240000
20
0.005900
10
0.240000
20
0.010900
10
-0.240000
20
0.010900
0
LWPOLYLINE
8
MZI_ELECTRODE_G
90
4
70
1
10
-0.240000
20
0.012900
10
0.240000
20
0.012900
10
0.240000
20
0.022900
10
-0.240000
20
0.022900
0
LWPOLYLINE
8
MZI_ELECTRODE_G
90
4
70
1
10
-0.240000
20
-0.010900
10
0.240000
20
-0.010900
10
0.240000
20
-0.005900
10
-0.240000
20
-0.005900
0
TEXT
8
ANNOTATIONS
10
-0.250000
20
0.022500
30
0.0
40
0.0030
1
TFLN MZI Unit Cell
0
TEXT
8
ANNOTATIONS
10
-0.250000
20
0.018500
30
0.0
40
0.0020
1
Arm length: 500 um
0
TEXT
8
ANNOTATIONS
10
-0.250000
20
0.015500
30
0.0
40
0.0020
1
Arm spacing: 5.0 um
0
TEXT
8
ANNOTATIONS
10
-0.250000
20
0.012500
30
0.0
40
0.0020
1
WG width: 800 nm
0
ENDSEC
0
EOF
