; LightRail NCE+TFLN Evaluation Board — Drill File
; Generated: 2026-06-05 21:56:07
; Board: 100x100mm 22-Layer Intelligence Stack
; Units: MM
M48
; Drill tool definitions
T1C0.150
T2C0.200
T3C0.250
T4C0.300
T5C0.400
T6C1.000
T7C3.200
%
G90
G05
T7
X3.500Y3.500
X96.500Y3.500
X3.500Y96.500
X96.500Y96.500
T6
X-0.080Y90.000
X2.460Y90.000
X5.000Y90.000
X7.540Y90.000
X10.080Y90.000
X-0.080Y80.000
X2.460Y80.000
X5.000Y80.000
X7.540Y80.000
X10.080Y80.000
X84.920Y40.000
X87.460Y40.000
X90.000Y40.000
X92.540Y40.000
X95.080Y40.000
X84.920Y50.000
X87.460Y50.000
X90.000Y50.000
X92.540Y50.000
X95.080Y50.000
X14.920Y5.000
X17.460Y5.000
X20.000Y5.000
X22.540Y5.000
X25.080Y5.000
X29.920Y5.000
X32.460Y5.000
X35.000Y5.000
X37.540Y5.000
X40.080Y5.000
X59.920Y5.000
X62.460Y5.000
X65.000Y5.000
X67.540Y5.000
X70.080Y5.000
X74.920Y5.000
X77.460Y5.000
X80.000Y5.000
X82.540Y5.000
X85.080Y5.000
X44.920Y5.000
X47.460Y5.000
X50.000Y5.000
X52.540Y5.000
X55.080Y5.000
X79.920Y85.000
X82.460Y85.000
X85.000Y85.000
X87.540Y85.000
X90.080Y85.000
T4
X40.000Y50.000
X60.000Y50.000
X50.000Y80.000
X50.000Y45.000
X40.000Y60.000
X60.000Y60.000
T5
X15.000Y78.000
X25.000Y78.000
X35.000Y78.000
X45.000Y78.000
X40.000Y48.000
X60.000Y48.000
T1
X45.000Y30.000
X46.500Y30.000
X48.000Y30.000
X49.500Y30.000
X51.000Y30.000
X52.500Y30.000
X54.000Y30.000
X55.500Y30.000
T2
X50.000Y45.000
X50.000Y50.000
M30