M48
; DRILL file {KiCad 8.0.9-8.0.9-0~ubuntu22.04.1} date 2026-06-06T00:14:43+0000
; FORMAT={-:-/ absolute / metric / decimal}
; #@! TF.CreationDate,2026-06-06T00:14:43+00:00
; #@! TF.GenerationSoftware,Kicad,Pcbnew,8.0.9-8.0.9-0~ubuntu22.04.1
; #@! TF.FileFunction,MixedPlating,1,22
FMAT,2
METRIC
; #@! TA.AperFunction,Plated,PTH,ViaDrill
T1C0.150
; #@! TA.AperFunction,Plated,PTH,ViaDrill
T2C0.200
; #@! TA.AperFunction,Plated,PTH,ViaDrill
T3C0.400
; #@! TA.AperFunction,Plated,PTH,ComponentDrill
T4C1.000
; #@! TA.AperFunction,Plated,PTH,ComponentDrill
T5C3.200
; #@! TA.AperFunction,NonPlated,NPTH,ComponentDrill
T6C3.200
%
G90
G05
T1
X145.0Y-130.0
X148.0Y-130.0
X151.0Y-130.0
X154.0Y-130.0
T2
X150.0Y-145.0
T3
X140.0Y-150.0
X150.0Y-180.0
X160.0Y-150.0
T4
X102.46Y-190.0
X103.73Y-180.0
X105.0Y-190.0
X106.27Y-180.0
X107.54Y-190.0
X114.92Y-105.0
X117.46Y-105.0
X120.0Y-105.0
X120.79Y-105.0
X122.54Y-105.0
X123.33Y-105.0
X125.08Y-105.0
X125.87Y-105.0
X128.41Y-105.0
X129.92Y-105.0
X130.95Y-105.0
X132.46Y-105.0
X133.49Y-105.0
X135.0Y-105.0
X136.03Y-105.0
X137.54Y-105.0
X138.57Y-105.0
X140.08Y-105.0
X141.11Y-105.0
X143.65Y-105.0
X146.19Y-105.0
X148.73Y-105.0
X151.27Y-105.0
X153.81Y-105.0
X156.35Y-105.0
X158.89Y-105.0
X159.92Y-105.0
X161.43Y-105.0
X162.46Y-105.0
X163.97Y-105.0
X165.0Y-105.0
X166.51Y-105.0
X167.54Y-105.0
X169.05Y-105.0
X170.08Y-105.0
X171.59Y-105.0
X174.13Y-105.0
X174.92Y-105.0
X176.67Y-105.0
X177.46Y-105.0
X179.21Y-105.0
X180.0Y-105.0
X181.19Y-185.0
X182.54Y-105.0
X183.73Y-185.0
X185.08Y-105.0
X186.27Y-185.0
X188.81Y-185.0
X190.0Y-128.57
X190.0Y-131.11
X190.0Y-133.49
X190.0Y-133.65
X190.0Y-136.03
X190.0Y-136.19
X190.0Y-138.57
X190.0Y-138.73
X190.0Y-141.11
X190.0Y-141.27
X190.0Y-143.65
X190.0Y-143.81
X190.0Y-146.19
X190.0Y-146.35
X190.0Y-148.73
X190.0Y-148.89
X190.0Y-151.27
X190.0Y-151.43
X190.0Y-153.81
X190.0Y-156.35
X190.0Y-158.89
X190.0Y-161.43
X190.0Y-163.97
X190.0Y-166.51
T5
X103.5Y-103.5
X103.5Y-196.5
X196.5Y-103.5
X196.5Y-196.5
T6
X103.5Y-103.5
X103.5Y-196.5
X196.5Y-103.5
X196.5Y-196.5
M30
