%TF.GenerationSoftware,KiCad,Pcbnew,8.0.9-8.0.9-0~ubuntu22.04.1*%
%TF.CreationDate,2026-05-11T03:50:06+00:00*%
%TF.ProjectId,LR-S1A_Rev1.0,4c522d53-3141-45f5-9265-76312e302e6b,1.0*%
%TF.SameCoordinates,Original*%
%TF.FileFunction,Copper,L1,Top*%
%TF.FilePolarity,Positive*%
%FSLAX46Y46*%
G04 Gerber Fmt 4.6, Leading zero omitted, Abs format (unit mm)*
G04 Created by KiCad (PCBNEW 8.0.9-8.0.9-0~ubuntu22.04.1) date 2026-05-11 03:50:06*
%MOMM*%
%LPD*%
G01*
G04 APERTURE LIST*
%TA.AperFunction,SMDPad,CuDef*%
%ADD10C,0.600000*%
%TD*%
%TA.AperFunction,SMDPad,CuDef*%
%ADD11R,0.250000X0.300000*%
%TD*%
%TA.AperFunction,SMDPad,CuDef*%
%ADD12R,0.800000X1.500000*%
%TD*%
%TA.AperFunction,SMDPad,CuDef*%
%ADD13R,0.300000X2.000000*%
%TD*%
%TA.AperFunction,SMDPad,CuDef*%
%ADD14R,1.500000X1.500000*%
%TD*%
%TA.AperFunction,SMDPad,CuDef*%
%ADD15R,1.000000X4.000000*%
%TD*%
%TA.AperFunction,ComponentPad*%
%ADD16R,2.500000X5.000000*%
%TD*%
%TA.AperFunction,SMDPad,CuDef*%
%ADD17R,1.200000X2.000000*%
%TD*%
%TA.AperFunction,ComponentPad*%
%ADD18R,1.600000X2.500000*%
%TD*%
%TA.AperFunction,SMDPad,CuDef*%
%ADD19R,2.000000X1.500000*%
%TD*%
%TA.AperFunction,SMDPad,CuDef*%
%ADD20R,4.500000X1.500000*%
%TD*%
%TA.AperFunction,SMDPad,CuDef*%
%ADD21R,1.000000X1.400000*%
%TD*%
%TA.AperFunction,ComponentPad*%
%ADD22C,4.500000*%
%TD*%
%TA.AperFunction,SMDPad,CuDef*%
%ADD23C,1.000000*%
%TD*%
%TA.AperFunction,ViaPad*%
%ADD24C,0.550000*%
%TD*%
G04 APERTURE END LIST*
D10*
%TO.P,U1,1*%
%TO.N,GND*%
X216400000Y-261400000D03*
%TO.P,U1,2*%
X219600000Y-261400000D03*
%TO.P,U1,3*%
X222800000Y-261400000D03*
%TO.P,U1,4*%
X226000000Y-261400000D03*
%TO.P,U1,5*%
X229200000Y-261400000D03*
%TO.P,U1,6*%
X232400000Y-261400000D03*
%TO.P,U1,7*%
X235600000Y-261400000D03*
%TO.P,U1,8*%
X238800000Y-261400000D03*
%TO.P,U1,9*%
X242000000Y-261400000D03*
%TO.P,U1,10*%
X245200000Y-261400000D03*
%TO.P,U1,11*%
X248400000Y-261400000D03*
%TO.P,U1,12*%
X251600000Y-261400000D03*
%TO.P,U1,13*%
X254800000Y-261400000D03*
%TO.P,U1,14*%
X258000000Y-261400000D03*
%TO.P,U1,15*%
X261200000Y-261400000D03*
%TO.P,U1,16*%
X264400000Y-261400000D03*
%TO.P,U1,17*%
X267600000Y-261400000D03*
%TO.P,U1,18*%
X270800000Y-261400000D03*
%TO.P,U1,19*%
X274000000Y-261400000D03*
%TO.P,U1,20*%
X277200000Y-261400000D03*
%TO.P,U1,21*%
X280400000Y-261400000D03*
%TO.P,U1,22*%
X283600000Y-261400000D03*
%TO.P,U1,23*%
X216400000Y-264600000D03*
%TO.P,U1,24*%
X219600000Y-264600000D03*
%TO.P,U1,25*%
X222800000Y-264600000D03*
%TO.P,U1,26*%
X226000000Y-264600000D03*
%TO.P,U1,27*%
X229200000Y-264600000D03*
%TO.P,U1,28*%
X232400000Y-264600000D03*
%TO.P,U1,29*%
X235600000Y-264600000D03*
%TO.P,U1,30*%
X238800000Y-264600000D03*
%TO.P,U1,31*%
X242000000Y-264600000D03*
%TO.P,U1,32*%
X245200000Y-264600000D03*
%TO.P,U1,33*%
X248400000Y-264600000D03*
%TO.P,U1,34*%
X251600000Y-264600000D03*
%TO.P,U1,35*%
X254800000Y-264600000D03*
%TO.P,U1,36*%
X258000000Y-264600000D03*
%TO.P,U1,37*%
X261200000Y-264600000D03*
%TO.P,U1,38*%
X264400000Y-264600000D03*
%TO.P,U1,39*%
X267600000Y-264600000D03*
%TO.P,U1,40*%
X270800000Y-264600000D03*
%TO.P,U1,41*%
X274000000Y-264600000D03*
%TO.P,U1,42*%
X277200000Y-264600000D03*
%TO.P,U1,43*%
X280400000Y-264600000D03*
%TO.P,U1,44*%
X283600000Y-264600000D03*
%TO.P,U1,45*%
X216400000Y-267800000D03*
%TO.P,U1,46*%
X219600000Y-267800000D03*
%TO.P,U1,47*%
X222800000Y-267800000D03*
%TO.P,U1,48*%
X226000000Y-267800000D03*
%TO.P,U1,49*%
X229200000Y-267800000D03*
%TO.P,U1,50*%
X232400000Y-267800000D03*
%TO.P,U1,51*%
X235600000Y-267800000D03*
%TO.P,U1,52*%
X238800000Y-267800000D03*
%TO.P,U1,53*%
X242000000Y-267800000D03*
%TO.P,U1,54*%
X245200000Y-267800000D03*
%TO.P,U1,55*%
X248400000Y-267800000D03*
%TO.P,U1,56*%
X251600000Y-267800000D03*
%TO.P,U1,57*%
X254800000Y-267800000D03*
%TO.P,U1,58*%
X258000000Y-267800000D03*
%TO.P,U1,59*%
X261200000Y-267800000D03*
%TO.P,U1,60*%
X264400000Y-267800000D03*
%TO.P,U1,61*%
X267600000Y-267800000D03*
%TO.P,U1,62*%
X270800000Y-267800000D03*
%TO.P,U1,63*%
X274000000Y-267800000D03*
%TO.P,U1,64*%
X277200000Y-267800000D03*
%TO.P,U1,65*%
X280400000Y-267800000D03*
%TO.P,U1,66*%
X283600000Y-267800000D03*
%TO.P,U1,67*%
X216400000Y-271000000D03*
%TO.P,U1,68*%
X219600000Y-271000000D03*
%TO.P,U1,69*%
X222800000Y-271000000D03*
%TO.P,U1,70*%
X226000000Y-271000000D03*
%TO.P,U1,71*%
X229200000Y-271000000D03*
%TO.P,U1,72*%
X232400000Y-271000000D03*
%TO.P,U1,73*%
X235600000Y-271000000D03*
%TO.P,U1,74*%
X238800000Y-271000000D03*
%TO.P,U1,75*%
X242000000Y-271000000D03*
%TO.P,U1,76*%
X245200000Y-271000000D03*
%TO.P,U1,77*%
X248400000Y-271000000D03*
%TO.P,U1,78*%
X251600000Y-271000000D03*
%TO.P,U1,79*%
X254800000Y-271000000D03*
%TO.P,U1,80*%
X258000000Y-271000000D03*
%TO.P,U1,81*%
X261200000Y-271000000D03*
%TO.P,U1,82*%
X264400000Y-271000000D03*
%TO.P,U1,83*%
X267600000Y-271000000D03*
%TO.P,U1,84*%
X270800000Y-271000000D03*
%TO.P,U1,85*%
X274000000Y-271000000D03*
%TO.P,U1,86*%
X277200000Y-271000000D03*
%TO.P,U1,87*%
X280400000Y-271000000D03*
%TO.P,U1,88*%
X283600000Y-271000000D03*
%TO.P,U1,89*%
X216400000Y-274200000D03*
%TO.P,U1,90*%
X219600000Y-274200000D03*
%TO.P,U1,91*%
X222800000Y-274200000D03*
%TO.P,U1,92*%
X226000000Y-274200000D03*
%TO.P,U1,93*%
X229200000Y-274200000D03*
%TO.P,U1,94*%
%TO.N,V_ASIC_0V85*%
X232400000Y-274200000D03*
%TO.P,U1,95*%
%TO.N,GND*%
X235600000Y-274200000D03*
%TO.P,U1,96*%
%TO.N,V_ASIC_0V85*%
X238800000Y-274200000D03*
%TO.P,U1,97*%
%TO.N,GND*%
X242000000Y-274200000D03*
%TO.P,U1,98*%
%TO.N,V_ASIC_0V85*%
X245200000Y-274200000D03*
%TO.P,U1,99*%
%TO.N,GND*%
X248400000Y-274200000D03*
%TO.P,U1,100*%
%TO.N,V_ASIC_0V85*%
X251600000Y-274200000D03*
%TO.P,U1,101*%
%TO.N,GND*%
X254800000Y-274200000D03*
%TO.P,U1,102*%
%TO.N,V_ASIC_0V85*%
X258000000Y-274200000D03*
%TO.P,U1,103*%
%TO.N,GND*%
X261200000Y-274200000D03*
%TO.P,U1,104*%
%TO.N,V_ASIC_0V85*%
X264400000Y-274200000D03*
%TO.P,U1,105*%
%TO.N,GND*%
X267600000Y-274200000D03*
%TO.P,U1,106*%
%TO.N,V_ASIC_0V85*%
X270800000Y-274200000D03*
%TO.P,U1,107*%
%TO.N,GND*%
X274000000Y-274200000D03*
%TO.P,U1,108*%
X277200000Y-274200000D03*
%TO.P,U1,109*%
X280400000Y-274200000D03*
%TO.P,U1,110*%
X283600000Y-274200000D03*
%TO.P,U1,111*%
X216400000Y-277400000D03*
%TO.P,U1,112*%
X219600000Y-277400000D03*
%TO.P,U1,113*%
X222800000Y-277400000D03*
%TO.P,U1,114*%
X226000000Y-277400000D03*
%TO.P,U1,115*%
%TO.N,V_ASIC_0V85*%
X229200000Y-277400000D03*
%TO.P,U1,116*%
%TO.N,GND*%
X232400000Y-277400000D03*
%TO.P,U1,117*%
%TO.N,V_ASIC_0V85*%
X235600000Y-277400000D03*
%TO.P,U1,118*%
%TO.N,GND*%
X238800000Y-277400000D03*
%TO.P,U1,119*%
%TO.N,V_ASIC_0V85*%
X242000000Y-277400000D03*
%TO.P,U1,120*%
%TO.N,GND*%
X245200000Y-277400000D03*
%TO.P,U1,121*%
%TO.N,V_ASIC_0V85*%
X248400000Y-277400000D03*
%TO.P,U1,122*%
%TO.N,GND*%
X251600000Y-277400000D03*
%TO.P,U1,123*%
%TO.N,V_ASIC_0V85*%
X254800000Y-277400000D03*
%TO.P,U1,124*%
%TO.N,GND*%
X258000000Y-277400000D03*
%TO.P,U1,125*%
%TO.N,V_ASIC_0V85*%
X261200000Y-277400000D03*
%TO.P,U1,126*%
%TO.N,GND*%
X264400000Y-277400000D03*
%TO.P,U1,127*%
%TO.N,V_ASIC_0V85*%
X267600000Y-277400000D03*
%TO.P,U1,128*%
%TO.N,GND*%
X270800000Y-277400000D03*
%TO.P,U1,129*%
X274000000Y-277400000D03*
%TO.P,U1,130*%
X277200000Y-277400000D03*
%TO.P,U1,131*%
X280400000Y-277400000D03*
%TO.P,U1,132*%
X283600000Y-277400000D03*
%TO.P,U1,133*%
X216400000Y-280600000D03*
%TO.P,U1,134*%
X219600000Y-280600000D03*
%TO.P,U1,135*%
X222800000Y-280600000D03*
%TO.P,U1,136*%
X226000000Y-280600000D03*
%TO.P,U1,137*%
X229200000Y-280600000D03*
%TO.P,U1,138*%
%TO.N,V_ASIC_0V85*%
X232400000Y-280600000D03*
%TO.P,U1,139*%
%TO.N,GND*%
X235600000Y-280600000D03*
%TO.P,U1,140*%
%TO.N,V_ASIC_0V85*%
X238800000Y-280600000D03*
%TO.P,U1,141*%
%TO.N,GND*%
X242000000Y-280600000D03*
%TO.P,U1,142*%
%TO.N,V_ASIC_0V85*%
X245200000Y-280600000D03*
%TO.P,U1,143*%
%TO.N,GND*%
X248400000Y-280600000D03*
%TO.P,U1,144*%
%TO.N,V_ASIC_0V85*%
X251600000Y-280600000D03*
%TO.P,U1,145*%
%TO.N,GND*%
X254800000Y-280600000D03*
%TO.P,U1,146*%
%TO.N,V_ASIC_0V85*%
X258000000Y-280600000D03*
%TO.P,U1,147*%
%TO.N,GND*%
X261200000Y-280600000D03*
%TO.P,U1,148*%
%TO.N,V_ASIC_0V85*%
X264400000Y-280600000D03*
%TO.P,U1,149*%
%TO.N,GND*%
X267600000Y-280600000D03*
%TO.P,U1,150*%
%TO.N,V_ASIC_0V85*%
X270800000Y-280600000D03*
%TO.P,U1,151*%
%TO.N,GND*%
X274000000Y-280600000D03*
%TO.P,U1,152*%
X277200000Y-280600000D03*
%TO.P,U1,153*%
X280400000Y-280600000D03*
%TO.P,U1,154*%
X283600000Y-280600000D03*
%TO.P,U1,155*%
X216400000Y-283800000D03*
%TO.P,U1,156*%
X219600000Y-283800000D03*
%TO.P,U1,157*%
X222800000Y-283800000D03*
%TO.P,U1,158*%
X226000000Y-283800000D03*
%TO.P,U1,159*%
%TO.N,V_ASIC_0V85*%
X229200000Y-283800000D03*
%TO.P,U1,160*%
%TO.N,GND*%
X232400000Y-283800000D03*
%TO.P,U1,161*%
%TO.N,V_ASIC_0V85*%
X235600000Y-283800000D03*
%TO.P,U1,162*%
X238800000Y-283800000D03*
%TO.P,U1,163*%
X242000000Y-283800000D03*
%TO.P,U1,164*%
X245200000Y-283800000D03*
%TO.P,U1,165*%
X248400000Y-283800000D03*
%TO.P,U1,166*%
X251600000Y-283800000D03*
%TO.P,U1,167*%
X254800000Y-283800000D03*
%TO.P,U1,168*%
X258000000Y-283800000D03*
%TO.P,U1,169*%
X261200000Y-283800000D03*
%TO.P,U1,170*%
%TO.N,GND*%
X264400000Y-283800000D03*
%TO.P,U1,171*%
%TO.N,V_ASIC_0V85*%
X267600000Y-283800000D03*
%TO.P,U1,172*%
%TO.N,GND*%
X270800000Y-283800000D03*
%TO.P,U1,173*%
X274000000Y-283800000D03*
%TO.P,U1,174*%
X277200000Y-283800000D03*
%TO.P,U1,175*%
X280400000Y-283800000D03*
%TO.P,U1,176*%
X283600000Y-283800000D03*
%TO.P,U1,177*%
X216400000Y-287000000D03*
%TO.P,U1,178*%
X219600000Y-287000000D03*
%TO.P,U1,179*%
X222800000Y-287000000D03*
%TO.P,U1,180*%
X226000000Y-287000000D03*
%TO.P,U1,181*%
X229200000Y-287000000D03*
%TO.P,U1,182*%
%TO.N,V_ASIC_0V85*%
X232400000Y-287000000D03*
%TO.P,U1,183*%
%TO.N,GND*%
X235600000Y-287000000D03*
%TO.P,U1,184*%
%TO.N,V_ASIC_0V85*%
X238800000Y-287000000D03*
%TO.P,U1,185*%
X242000000Y-287000000D03*
%TO.P,U1,186*%
X245200000Y-287000000D03*
%TO.P,U1,187*%
X248400000Y-287000000D03*
%TO.P,U1,188*%
X251600000Y-287000000D03*
%TO.P,U1,189*%
X254800000Y-287000000D03*
%TO.P,U1,190*%
X258000000Y-287000000D03*
%TO.P,U1,191*%
X261200000Y-287000000D03*
%TO.P,U1,192*%
X264400000Y-287000000D03*
%TO.P,U1,193*%
%TO.N,GND*%
X267600000Y-287000000D03*
%TO.P,U1,194*%
%TO.N,V_ASIC_0V85*%
X270800000Y-287000000D03*
%TO.P,U1,195*%
%TO.N,GND*%
X274000000Y-287000000D03*
%TO.P,U1,196*%
X277200000Y-287000000D03*
%TO.P,U1,197*%
X280400000Y-287000000D03*
%TO.P,U1,198*%
X283600000Y-287000000D03*
%TO.P,U1,199*%
X216400000Y-290200000D03*
%TO.P,U1,200*%
X219600000Y-290200000D03*
%TO.P,U1,201*%
X222800000Y-290200000D03*
%TO.P,U1,202*%
X226000000Y-290200000D03*
%TO.P,U1,203*%
%TO.N,V_ASIC_0V85*%
X229200000Y-290200000D03*
%TO.P,U1,204*%
%TO.N,GND*%
X232400000Y-290200000D03*
%TO.P,U1,205*%
%TO.N,V_ASIC_0V85*%
X235600000Y-290200000D03*
%TO.P,U1,206*%
X238800000Y-290200000D03*
%TO.P,U1,207*%
X242000000Y-290200000D03*
%TO.P,U1,208*%
X245200000Y-290200000D03*
%TO.P,U1,209*%
X248400000Y-290200000D03*
%TO.P,U1,210*%
X251600000Y-290200000D03*
%TO.P,U1,211*%
X254800000Y-290200000D03*
%TO.P,U1,212*%
X258000000Y-290200000D03*
%TO.P,U1,213*%
X261200000Y-290200000D03*
%TO.P,U1,214*%
%TO.N,GND*%
X264400000Y-290200000D03*
%TO.P,U1,215*%
%TO.N,V_ASIC_0V85*%
X267600000Y-290200000D03*
%TO.P,U1,216*%
%TO.N,GND*%
X270800000Y-290200000D03*
%TO.P,U1,217*%
X274000000Y-290200000D03*
%TO.P,U1,218*%
X277200000Y-290200000D03*
%TO.P,U1,219*%
X280400000Y-290200000D03*
%TO.P,U1,220*%
X283600000Y-290200000D03*
%TO.P,U1,221*%
X216400000Y-293400000D03*
%TO.P,U1,222*%
X219600000Y-293400000D03*
%TO.P,U1,223*%
X222800000Y-293400000D03*
%TO.P,U1,224*%
X226000000Y-293400000D03*
%TO.P,U1,225*%
X229200000Y-293400000D03*
%TO.P,U1,226*%
%TO.N,V_ASIC_0V85*%
X232400000Y-293400000D03*
%TO.P,U1,227*%
%TO.N,GND*%
X235600000Y-293400000D03*
%TO.P,U1,228*%
%TO.N,V_ASIC_0V85*%
X238800000Y-293400000D03*
%TO.P,U1,229*%
X242000000Y-293400000D03*
%TO.P,U1,230*%
X245200000Y-293400000D03*
%TO.P,U1,231*%
X248400000Y-293400000D03*
%TO.P,U1,232*%
X251600000Y-293400000D03*
%TO.P,U1,233*%
X254800000Y-293400000D03*
%TO.P,U1,234*%
X258000000Y-293400000D03*
%TO.P,U1,235*%
X261200000Y-293400000D03*
%TO.P,U1,236*%
X264400000Y-293400000D03*
%TO.P,U1,237*%
%TO.N,GND*%
X267600000Y-293400000D03*
%TO.P,U1,238*%
%TO.N,V_ASIC_0V85*%
X270800000Y-293400000D03*
%TO.P,U1,239*%
%TO.N,GND*%
X274000000Y-293400000D03*
%TO.P,U1,240*%
X277200000Y-293400000D03*
%TO.P,U1,241*%
X280400000Y-293400000D03*
%TO.P,U1,242*%
X283600000Y-293400000D03*
%TO.P,U1,243*%
X216400000Y-296600000D03*
%TO.P,U1,244*%
X219600000Y-296600000D03*
%TO.P,U1,245*%
X222800000Y-296600000D03*
%TO.P,U1,246*%
X226000000Y-296600000D03*
%TO.P,U1,247*%
%TO.N,V_ASIC_0V85*%
X229200000Y-296600000D03*
%TO.P,U1,248*%
%TO.N,GND*%
X232400000Y-296600000D03*
%TO.P,U1,249*%
%TO.N,V_ASIC_0V85*%
X235600000Y-296600000D03*
%TO.P,U1,250*%
X238800000Y-296600000D03*
%TO.P,U1,251*%
X242000000Y-296600000D03*
%TO.P,U1,252*%
X245200000Y-296600000D03*
%TO.P,U1,253*%
X248400000Y-296600000D03*
%TO.P,U1,254*%
X251600000Y-296600000D03*
%TO.P,U1,255*%
X254800000Y-296600000D03*
%TO.P,U1,256*%
X258000000Y-296600000D03*
%TO.P,U1,257*%
X261200000Y-296600000D03*
%TO.P,U1,258*%
%TO.N,GND*%
X264400000Y-296600000D03*
%TO.P,U1,259*%
%TO.N,V_ASIC_0V85*%
X267600000Y-296600000D03*
%TO.P,U1,260*%
%TO.N,GND*%
X270800000Y-296600000D03*
%TO.P,U1,261*%
X274000000Y-296600000D03*
%TO.P,U1,262*%
X277200000Y-296600000D03*
%TO.P,U1,263*%
X280400000Y-296600000D03*
%TO.P,U1,264*%
X283600000Y-296600000D03*
%TO.P,U1,265*%
X216400000Y-299800000D03*
%TO.P,U1,266*%
X219600000Y-299800000D03*
%TO.P,U1,267*%
X222800000Y-299800000D03*
%TO.P,U1,268*%
X226000000Y-299800000D03*
%TO.P,U1,269*%
X229200000Y-299800000D03*
%TO.P,U1,270*%
%TO.N,V_ASIC_0V85*%
X232400000Y-299800000D03*
%TO.P,U1,271*%
%TO.N,GND*%
X235600000Y-299800000D03*
%TO.P,U1,272*%
%TO.N,V_ASIC_0V85*%
X238800000Y-299800000D03*
%TO.P,U1,273*%
X242000000Y-299800000D03*
%TO.P,U1,274*%
X245200000Y-299800000D03*
%TO.P,U1,275*%
X248400000Y-299800000D03*
%TO.P,U1,276*%
X251600000Y-299800000D03*
%TO.P,U1,277*%
X254800000Y-299800000D03*
%TO.P,U1,278*%
X258000000Y-299800000D03*
%TO.P,U1,279*%
X261200000Y-299800000D03*
%TO.P,U1,280*%
X264400000Y-299800000D03*
%TO.P,U1,281*%
%TO.N,GND*%
X267600000Y-299800000D03*
%TO.P,U1,282*%
%TO.N,V_ASIC_0V85*%
X270800000Y-299800000D03*
%TO.P,U1,283*%
%TO.N,GND*%
X274000000Y-299800000D03*
%TO.P,U1,284*%
X277200000Y-299800000D03*
%TO.P,U1,285*%
X280400000Y-299800000D03*
%TO.P,U1,286*%
X283600000Y-299800000D03*
%TO.P,U1,287*%
X216400000Y-303000000D03*
%TO.P,U1,288*%
X219600000Y-303000000D03*
%TO.P,U1,289*%
X222800000Y-303000000D03*
%TO.P,U1,290*%
X226000000Y-303000000D03*
%TO.P,U1,291*%
%TO.N,V_ASIC_0V85*%
X229200000Y-303000000D03*
%TO.P,U1,292*%
%TO.N,GND*%
X232400000Y-303000000D03*
%TO.P,U1,293*%
%TO.N,V_ASIC_0V85*%
X235600000Y-303000000D03*
%TO.P,U1,294*%
X238800000Y-303000000D03*
%TO.P,U1,295*%
X242000000Y-303000000D03*
%TO.P,U1,296*%
X245200000Y-303000000D03*
%TO.P,U1,297*%
X248400000Y-303000000D03*
%TO.P,U1,298*%
X251600000Y-303000000D03*
%TO.P,U1,299*%
X254800000Y-303000000D03*
%TO.P,U1,300*%
X258000000Y-303000000D03*
%TO.P,U1,301*%
X261200000Y-303000000D03*
%TO.P,U1,302*%
%TO.N,GND*%
X264400000Y-303000000D03*
%TO.P,U1,303*%
%TO.N,V_ASIC_0V85*%
X267600000Y-303000000D03*
%TO.P,U1,304*%
%TO.N,GND*%
X270800000Y-303000000D03*
%TO.P,U1,305*%
X274000000Y-303000000D03*
%TO.P,U1,306*%
X277200000Y-303000000D03*
%TO.P,U1,307*%
X280400000Y-303000000D03*
%TO.P,U1,308*%
X283600000Y-303000000D03*
%TO.P,U1,309*%
X216400000Y-306200000D03*
%TO.P,U1,310*%
X219600000Y-306200000D03*
%TO.P,U1,311*%
X222800000Y-306200000D03*
%TO.P,U1,312*%
X226000000Y-306200000D03*
%TO.P,U1,313*%
X229200000Y-306200000D03*
%TO.P,U1,314*%
%TO.N,V_ASIC_0V85*%
X232400000Y-306200000D03*
%TO.P,U1,315*%
%TO.N,GND*%
X235600000Y-306200000D03*
%TO.P,U1,316*%
%TO.N,V_ASIC_0V85*%
X238800000Y-306200000D03*
%TO.P,U1,317*%
X242000000Y-306200000D03*
%TO.P,U1,318*%
X245200000Y-306200000D03*
%TO.P,U1,319*%
X248400000Y-306200000D03*
%TO.P,U1,320*%
X251600000Y-306200000D03*
%TO.P,U1,321*%
X254800000Y-306200000D03*
%TO.P,U1,322*%
X258000000Y-306200000D03*
%TO.P,U1,323*%
X261200000Y-306200000D03*
%TO.P,U1,324*%
X264400000Y-306200000D03*
%TO.P,U1,325*%
%TO.N,GND*%
X267600000Y-306200000D03*
%TO.P,U1,326*%
%TO.N,V_ASIC_0V85*%
X270800000Y-306200000D03*
%TO.P,U1,327*%
%TO.N,GND*%
X274000000Y-306200000D03*
%TO.P,U1,328*%
X277200000Y-306200000D03*
%TO.P,U1,329*%
X280400000Y-306200000D03*
%TO.P,U1,330*%
X283600000Y-306200000D03*
%TO.P,U1,331*%
X216400000Y-309400000D03*
%TO.P,U1,332*%
X219600000Y-309400000D03*
%TO.P,U1,333*%
X222800000Y-309400000D03*
%TO.P,U1,334*%
X226000000Y-309400000D03*
%TO.P,U1,335*%
%TO.N,V_ASIC_0V85*%
X229200000Y-309400000D03*
%TO.P,U1,336*%
%TO.N,GND*%
X232400000Y-309400000D03*
%TO.P,U1,337*%
%TO.N,V_ASIC_0V85*%
X235600000Y-309400000D03*
%TO.P,U1,338*%
%TO.N,GND*%
X238800000Y-309400000D03*
%TO.P,U1,339*%
%TO.N,V_ASIC_0V85*%
X242000000Y-309400000D03*
%TO.P,U1,340*%
%TO.N,GND*%
X245200000Y-309400000D03*
%TO.P,U1,341*%
%TO.N,V_ASIC_0V85*%
X248400000Y-309400000D03*
%TO.P,U1,342*%
%TO.N,GND*%
X251600000Y-309400000D03*
%TO.P,U1,343*%
%TO.N,V_ASIC_0V85*%
X254800000Y-309400000D03*
%TO.P,U1,344*%
%TO.N,GND*%
X258000000Y-309400000D03*
%TO.P,U1,345*%
%TO.N,V_ASIC_0V85*%
X261200000Y-309400000D03*
%TO.P,U1,346*%
%TO.N,GND*%
X264400000Y-309400000D03*
%TO.P,U1,347*%
%TO.N,V_ASIC_0V85*%
X267600000Y-309400000D03*
%TO.P,U1,348*%
%TO.N,GND*%
X270800000Y-309400000D03*
%TO.P,U1,349*%
X274000000Y-309400000D03*
%TO.P,U1,350*%
X277200000Y-309400000D03*
%TO.P,U1,351*%
X280400000Y-309400000D03*
%TO.P,U1,352*%
X283600000Y-309400000D03*
%TO.P,U1,353*%
X216400000Y-312600000D03*
%TO.P,U1,354*%
X219600000Y-312600000D03*
%TO.P,U1,355*%
X222800000Y-312600000D03*
%TO.P,U1,356*%
X226000000Y-312600000D03*
%TO.P,U1,357*%
X229200000Y-312600000D03*
%TO.P,U1,358*%
%TO.N,V_ASIC_0V85*%
X232400000Y-312600000D03*
%TO.P,U1,359*%
%TO.N,GND*%
X235600000Y-312600000D03*
%TO.P,U1,360*%
%TO.N,V_ASIC_0V85*%
X238800000Y-312600000D03*
%TO.P,U1,361*%
%TO.N,GND*%
X242000000Y-312600000D03*
%TO.P,U1,362*%
%TO.N,V_ASIC_0V85*%
X245200000Y-312600000D03*
%TO.P,U1,363*%
%TO.N,GND*%
X248400000Y-312600000D03*
%TO.P,U1,364*%
%TO.N,V_ASIC_0V85*%
X251600000Y-312600000D03*
%TO.P,U1,365*%
%TO.N,GND*%
X254800000Y-312600000D03*
%TO.P,U1,366*%
%TO.N,V_ASIC_0V85*%
X258000000Y-312600000D03*
%TO.P,U1,367*%
%TO.N,GND*%
X261200000Y-312600000D03*
%TO.P,U1,368*%
%TO.N,V_ASIC_0V85*%
X264400000Y-312600000D03*
%TO.P,U1,369*%
%TO.N,GND*%
X267600000Y-312600000D03*
%TO.P,U1,370*%
%TO.N,V_ASIC_0V85*%
X270800000Y-312600000D03*
%TO.P,U1,371*%
%TO.N,GND*%
X274000000Y-312600000D03*
%TO.P,U1,372*%
X277200000Y-312600000D03*
%TO.P,U1,373*%
X280400000Y-312600000D03*
%TO.P,U1,374*%
X283600000Y-312600000D03*
%TO.P,U1,375*%
X216400000Y-315800000D03*
%TO.P,U1,376*%
X219600000Y-315800000D03*
%TO.P,U1,377*%
X222800000Y-315800000D03*
%TO.P,U1,378*%
X226000000Y-315800000D03*
%TO.P,U1,379*%
%TO.N,V_ASIC_0V85*%
X229200000Y-315800000D03*
%TO.P,U1,380*%
%TO.N,GND*%
X232400000Y-315800000D03*
%TO.P,U1,381*%
%TO.N,V_ASIC_0V85*%
X235600000Y-315800000D03*
%TO.P,U1,382*%
%TO.N,GND*%
X238800000Y-315800000D03*
%TO.P,U1,383*%
%TO.N,V_ASIC_0V85*%
X242000000Y-315800000D03*
%TO.P,U1,384*%
%TO.N,GND*%
X245200000Y-315800000D03*
%TO.P,U1,385*%
%TO.N,V_ASIC_0V85*%
X248400000Y-315800000D03*
%TO.P,U1,386*%
%TO.N,GND*%
X251600000Y-315800000D03*
%TO.P,U1,387*%
%TO.N,V_ASIC_0V85*%
X254800000Y-315800000D03*
%TO.P,U1,388*%
%TO.N,GND*%
X258000000Y-315800000D03*
%TO.P,U1,389*%
%TO.N,V_ASIC_0V85*%
X261200000Y-315800000D03*
%TO.P,U1,390*%
%TO.N,GND*%
X264400000Y-315800000D03*
%TO.P,U1,391*%
%TO.N,V_ASIC_0V85*%
X267600000Y-315800000D03*
%TO.P,U1,392*%
%TO.N,GND*%
X270800000Y-315800000D03*
%TO.P,U1,393*%
X274000000Y-315800000D03*
%TO.P,U1,394*%
X277200000Y-315800000D03*
%TO.P,U1,395*%
X280400000Y-315800000D03*
%TO.P,U1,396*%
X283600000Y-315800000D03*
%TO.P,U1,397*%
X216400000Y-319000000D03*
%TO.P,U1,398*%
X219600000Y-319000000D03*
%TO.P,U1,399*%
X222800000Y-319000000D03*
%TO.P,U1,400*%
X226000000Y-319000000D03*
%TO.P,U1,401*%
X229200000Y-319000000D03*
%TO.P,U1,402*%
X232400000Y-319000000D03*
%TO.P,U1,403*%
X235600000Y-319000000D03*
%TO.P,U1,404*%
X238800000Y-319000000D03*
%TO.P,U1,405*%
X242000000Y-319000000D03*
%TO.P,U1,406*%
X245200000Y-319000000D03*
%TO.P,U1,407*%
X248400000Y-319000000D03*
%TO.P,U1,408*%
X251600000Y-319000000D03*
%TO.P,U1,409*%
X254800000Y-319000000D03*
%TO.P,U1,410*%
X258000000Y-319000000D03*
%TO.P,U1,411*%
X261200000Y-319000000D03*
%TO.P,U1,412*%
X264400000Y-319000000D03*
%TO.P,U1,413*%
X267600000Y-319000000D03*
%TO.P,U1,414*%
X270800000Y-319000000D03*
%TO.P,U1,415*%
X274000000Y-319000000D03*
%TO.P,U1,416*%
X277200000Y-319000000D03*
%TO.P,U1,417*%
X280400000Y-319000000D03*
%TO.P,U1,418*%
X283600000Y-319000000D03*
%TO.P,U1,419*%
X216400000Y-322200000D03*
%TO.P,U1,420*%
X219600000Y-322200000D03*
%TO.P,U1,421*%
X222800000Y-322200000D03*
%TO.P,U1,422*%
X226000000Y-322200000D03*
%TO.P,U1,423*%
X229200000Y-322200000D03*
%TO.P,U1,424*%
X232400000Y-322200000D03*
%TO.P,U1,425*%
X235600000Y-322200000D03*
%TO.P,U1,426*%
X238800000Y-322200000D03*
%TO.P,U1,427*%
X242000000Y-322200000D03*
%TO.P,U1,428*%
X245200000Y-322200000D03*
%TO.P,U1,429*%
X248400000Y-322200000D03*
%TO.P,U1,430*%
X251600000Y-322200000D03*
%TO.P,U1,431*%
X254800000Y-322200000D03*
%TO.P,U1,432*%
X258000000Y-322200000D03*
%TO.P,U1,433*%
X261200000Y-322200000D03*
%TO.P,U1,434*%
X264400000Y-322200000D03*
%TO.P,U1,435*%
X267600000Y-322200000D03*
%TO.P,U1,436*%
X270800000Y-322200000D03*
%TO.P,U1,437*%
X274000000Y-322200000D03*
%TO.P,U1,438*%
X277200000Y-322200000D03*
%TO.P,U1,439*%
X280400000Y-322200000D03*
%TO.P,U1,440*%
X283600000Y-322200000D03*
%TO.P,U1,441*%
X216400000Y-325400000D03*
%TO.P,U1,442*%
X219600000Y-325400000D03*
%TO.P,U1,443*%
X222800000Y-325400000D03*
%TO.P,U1,444*%
X226000000Y-325400000D03*
%TO.P,U1,445*%
X229200000Y-325400000D03*
%TO.P,U1,446*%
X232400000Y-325400000D03*
%TO.P,U1,447*%
X235600000Y-325400000D03*
%TO.P,U1,448*%
X238800000Y-325400000D03*
%TO.P,U1,449*%
X242000000Y-325400000D03*
%TO.P,U1,450*%
X245200000Y-325400000D03*
%TO.P,U1,451*%
X248400000Y-325400000D03*
%TO.P,U1,452*%
X251600000Y-325400000D03*
%TO.P,U1,453*%
X254800000Y-325400000D03*
%TO.P,U1,454*%
X258000000Y-325400000D03*
%TO.P,U1,455*%
X261200000Y-325400000D03*
%TO.P,U1,456*%
X264400000Y-325400000D03*
%TO.P,U1,457*%
X267600000Y-325400000D03*
%TO.P,U1,458*%
X270800000Y-325400000D03*
%TO.P,U1,459*%
X274000000Y-325400000D03*
%TO.P,U1,460*%
X277200000Y-325400000D03*
%TO.P,U1,461*%
X280400000Y-325400000D03*
%TO.P,U1,462*%
X283600000Y-325400000D03*
%TO.P,U1,463*%
X216400000Y-328600000D03*
%TO.P,U1,464*%
X219600000Y-328600000D03*
%TO.P,U1,465*%
X222800000Y-328600000D03*
%TO.P,U1,466*%
X226000000Y-328600000D03*
%TO.P,U1,467*%
X229200000Y-328600000D03*
%TO.P,U1,468*%
X232400000Y-328600000D03*
%TO.P,U1,469*%
X235600000Y-328600000D03*
%TO.P,U1,470*%
X238800000Y-328600000D03*
%TO.P,U1,471*%
X242000000Y-328600000D03*
%TO.P,U1,472*%
X245200000Y-328600000D03*
%TO.P,U1,473*%
X248400000Y-328600000D03*
%TO.P,U1,474*%
X251600000Y-328600000D03*
%TO.P,U1,475*%
X254800000Y-328600000D03*
%TO.P,U1,476*%
X258000000Y-328600000D03*
%TO.P,U1,477*%
X261200000Y-328600000D03*
%TO.P,U1,478*%
X264400000Y-328600000D03*
%TO.P,U1,479*%
X267600000Y-328600000D03*
%TO.P,U1,480*%
X270800000Y-328600000D03*
%TO.P,U1,481*%
X274000000Y-328600000D03*
%TO.P,U1,482*%
X277200000Y-328600000D03*
%TO.P,U1,483*%
X280400000Y-328600000D03*
%TO.P,U1,484*%
X283600000Y-328600000D03*
%TD*%
D11*
%TO.P,J101,1*%
%TO.N,DB_CTL_00*%
X55000000Y-140500000D03*
%TO.P,J101,2*%
%TO.N,DB_CTL_01*%
X55000000Y-141000000D03*
%TO.P,J101,3*%
%TO.N,DB_CTL_02*%
X55000000Y-141500000D03*
%TO.P,J101,4*%
%TO.N,DB_CTL_03*%
X55000000Y-142000000D03*
%TO.P,J101,5*%
%TO.N,DB_CTL_04*%
X55000000Y-142500000D03*
%TO.P,J101,6*%
%TO.N,DB_CTL_05*%
X55000000Y-143000000D03*
%TO.P,J101,7*%
%TO.N,DB_CTL_06*%
X55000000Y-143500000D03*
%TO.P,J101,8*%
%TO.N,DB_CTL_07*%
X55000000Y-144000000D03*
%TO.P,J101,9*%
%TO.N,DB_CTL_08*%
X55000000Y-144500000D03*
%TO.P,J101,10*%
%TO.N,DB_CTL_09*%
X55000000Y-145000000D03*
%TO.P,J101,11*%
%TO.N,DB_CTL_10*%
X55000000Y-145500000D03*
%TO.P,J101,12*%
%TO.N,DB_CTL_11*%
X55000000Y-146000000D03*
%TO.P,J101,13*%
%TO.N,DB_CTL_12*%
X55000000Y-146500000D03*
%TO.P,J101,14*%
%TO.N,DB_CTL_13*%
X55000000Y-147000000D03*
%TO.P,J101,15*%
%TO.N,DB_CTL_14*%
X55000000Y-147500000D03*
%TO.P,J101,16*%
%TO.N,DB_CTL_15*%
X55000000Y-148000000D03*
%TO.P,J101,17*%
%TO.N,DB_CTL_16*%
X55000000Y-148500000D03*
%TO.P,J101,18*%
%TO.N,DB_CTL_17*%
X55000000Y-149000000D03*
%TO.P,J101,19*%
%TO.N,DB_CTL_18*%
X55000000Y-149500000D03*
%TO.P,J101,20*%
%TO.N,DB_CTL_19*%
X55000000Y-150000000D03*
%TO.P,J101,21*%
%TO.N,DB_CTL_20*%
X55000000Y-150500000D03*
%TO.P,J101,22*%
%TO.N,DB_CTL_21*%
X55000000Y-151000000D03*
%TO.P,J101,23*%
%TO.N,DB_CTL_22*%
X55000000Y-151500000D03*
%TO.P,J101,24*%
%TO.N,DB_CTL_23*%
X55000000Y-152000000D03*
%TO.P,J101,25*%
%TO.N,DB_CTL_24*%
X55000000Y-152500000D03*
%TO.P,J101,26*%
%TO.N,DB_CTL_25*%
X55000000Y-153000000D03*
%TO.P,J101,27*%
%TO.N,DB_CTL_26*%
X55000000Y-153500000D03*
%TO.P,J101,28*%
%TO.N,DB_CTL_27*%
X55000000Y-154000000D03*
%TO.P,J101,29*%
%TO.N,DB_CTL_28*%
X55000000Y-154500000D03*
%TO.P,J101,30*%
%TO.N,DB_CTL_29*%
X55000000Y-155000000D03*
%TO.P,J101,31*%
%TO.N,DB_CTL_30*%
X55000000Y-155500000D03*
%TO.P,J101,32*%
%TO.N,DB_CTL_31*%
X55000000Y-156000000D03*
%TO.P,J101,33*%
%TO.N,DB_CTL_00*%
X55000000Y-156500000D03*
%TO.P,J101,34*%
%TO.N,DB_CTL_01*%
X55000000Y-157000000D03*
%TO.P,J101,35*%
%TO.N,DB_CTL_02*%
X55000000Y-157500000D03*
%TO.P,J101,36*%
%TO.N,DB_CTL_03*%
X55000000Y-158000000D03*
%TO.P,J101,37*%
%TO.N,DB_CTL_04*%
X55000000Y-158500000D03*
%TO.P,J101,38*%
%TO.N,DB_CTL_05*%
X55000000Y-159000000D03*
%TO.P,J101,39*%
%TO.N,DB_CTL_06*%
X55000000Y-159500000D03*
%TO.P,J101,40*%
%TO.N,DB_CTL_07*%
X55000000Y-160000000D03*
%TO.P,J101,41*%
%TO.N,DB_CTL_08*%
X55000000Y-160500000D03*
%TO.P,J101,42*%
%TO.N,DB_CTL_09*%
X55000000Y-161000000D03*
%TO.P,J101,43*%
%TO.N,DB_CTL_10*%
X55000000Y-161500000D03*
%TO.P,J101,44*%
%TO.N,DB_CTL_11*%
X55000000Y-162000000D03*
%TO.P,J101,45*%
%TO.N,DB_CTL_12*%
X55000000Y-162500000D03*
%TO.P,J101,46*%
%TO.N,DB_CTL_13*%
X55000000Y-163000000D03*
%TO.P,J101,47*%
%TO.N,DB_CTL_14*%
X55000000Y-163500000D03*
%TO.P,J101,48*%
%TO.N,DB_CTL_15*%
X55000000Y-164000000D03*
%TO.P,J101,49*%
%TO.N,DB_CTL_16*%
X55000000Y-164500000D03*
%TO.P,J101,50*%
%TO.N,DB_CTL_17*%
X55000000Y-165000000D03*
%TO.P,J101,51*%
%TO.N,DB_CTL_18*%
X55000000Y-165500000D03*
%TO.P,J101,52*%
%TO.N,DB_CTL_19*%
X55000000Y-166000000D03*
%TO.P,J101,53*%
%TO.N,DB_CTL_20*%
X55000000Y-166500000D03*
%TO.P,J101,54*%
%TO.N,DB_CTL_21*%
X55000000Y-167000000D03*
%TO.P,J101,55*%
%TO.N,DB_CTL_22*%
X55000000Y-167500000D03*
%TO.P,J101,56*%
%TO.N,DB_CTL_23*%
X55000000Y-168000000D03*
%TO.P,J101,57*%
%TO.N,DB_CTL_24*%
X55000000Y-168500000D03*
%TO.P,J101,58*%
%TO.N,DB_CTL_25*%
X55000000Y-169000000D03*
%TO.P,J101,59*%
%TO.N,DB_CTL_26*%
X55000000Y-169500000D03*
%TO.P,J101,60*%
%TO.N,DB_CTL_27*%
X55000000Y-170000000D03*
%TO.P,J101,61*%
%TO.N,DB_CTL_28*%
X55000000Y-170500000D03*
%TO.P,J101,62*%
%TO.N,DB_CTL_29*%
X55000000Y-171000000D03*
%TO.P,J101,63*%
%TO.N,DB_CTL_30*%
X55000000Y-171500000D03*
%TO.P,J101,64*%
%TO.N,DB_CTL_31*%
X55000000Y-172000000D03*
%TO.P,J101,65*%
%TO.N,DB_CTL_00*%
X55000000Y-172500000D03*
%TO.P,J101,66*%
%TO.N,DB_CTL_01*%
X55000000Y-173000000D03*
%TO.P,J101,67*%
%TO.N,DB_CTL_02*%
X55000000Y-173500000D03*
%TO.P,J101,68*%
%TO.N,DB_CTL_03*%
X55000000Y-174000000D03*
%TO.P,J101,69*%
%TO.N,DB_CTL_04*%
X55000000Y-174500000D03*
%TO.P,J101,70*%
%TO.N,DB_CTL_05*%
X55000000Y-175000000D03*
%TO.P,J101,71*%
%TO.N,DB_CTL_06*%
X55000000Y-175500000D03*
%TO.P,J101,72*%
%TO.N,DB_CTL_07*%
X55000000Y-176000000D03*
%TO.P,J101,73*%
%TO.N,DB_CTL_08*%
X55000000Y-176500000D03*
%TO.P,J101,74*%
%TO.N,DB_CTL_09*%
X55000000Y-177000000D03*
%TO.P,J101,75*%
%TO.N,DB_CTL_10*%
X55000000Y-177500000D03*
%TO.P,J101,76*%
%TO.N,DB_CTL_11*%
X55000000Y-178000000D03*
%TO.P,J101,77*%
%TO.N,DB_CTL_12*%
X55000000Y-178500000D03*
%TO.P,J101,78*%
%TO.N,DB_CTL_13*%
X55000000Y-179000000D03*
%TO.P,J101,79*%
%TO.N,DB_CTL_14*%
X55000000Y-179500000D03*
%TO.P,J101,80*%
%TO.N,DB_CTL_15*%
X55000000Y-180000000D03*
%TO.P,J101,81*%
%TO.N,DB_CTL_16*%
X55000000Y-180500000D03*
%TO.P,J101,82*%
%TO.N,DB_CTL_17*%
X55000000Y-181000000D03*
%TO.P,J101,83*%
%TO.N,DB_CTL_18*%
X55000000Y-181500000D03*
%TO.P,J101,84*%
%TO.N,DB_CTL_19*%
X55000000Y-182000000D03*
%TO.P,J101,85*%
%TO.N,DB_CTL_20*%
X55000000Y-182500000D03*
%TO.P,J101,86*%
%TO.N,DB_CTL_21*%
X55000000Y-183000000D03*
%TO.P,J101,87*%
%TO.N,DB_CTL_22*%
X55000000Y-183500000D03*
%TO.P,J101,88*%
%TO.N,DB_CTL_23*%
X55000000Y-184000000D03*
%TO.P,J101,89*%
%TO.N,DB_CTL_24*%
X55000000Y-184500000D03*
%TO.P,J101,90*%
%TO.N,DB_CTL_25*%
X55000000Y-185000000D03*
%TO.P,J101,91*%
%TO.N,DB_CTL_26*%
X55000000Y-185500000D03*
%TO.P,J101,92*%
%TO.N,DB_CTL_27*%
X55000000Y-186000000D03*
%TO.P,J101,93*%
%TO.N,DB_CTL_28*%
X55000000Y-186500000D03*
%TO.P,J101,94*%
%TO.N,DB_CTL_29*%
X55000000Y-187000000D03*
%TO.P,J101,95*%
%TO.N,DB_CTL_30*%
X55000000Y-187500000D03*
%TO.P,J101,96*%
%TO.N,DB_CTL_31*%
X55000000Y-188000000D03*
%TO.P,J101,97*%
%TO.N,DB_CTL_00*%
X55000000Y-188500000D03*
%TO.P,J101,98*%
%TO.N,DB_CTL_01*%
X55000000Y-189000000D03*
%TO.P,J101,99*%
%TO.N,DB_CTL_02*%
X55000000Y-189500000D03*
%TO.P,J101,100*%
%TO.N,DB_CTL_03*%
X55000000Y-190000000D03*
%TO.P,J101,101*%
%TO.N,DB_CTL_04*%
X55000000Y-190500000D03*
%TO.P,J101,102*%
%TO.N,DB_CTL_05*%
X55000000Y-191000000D03*
%TO.P,J101,103*%
%TO.N,DB_CTL_06*%
X55000000Y-191500000D03*
%TO.P,J101,104*%
%TO.N,DB_CTL_07*%
X55000000Y-192000000D03*
%TO.P,J101,105*%
%TO.N,DB_CTL_08*%
X55000000Y-192500000D03*
%TO.P,J101,106*%
%TO.N,DB_CTL_09*%
X55000000Y-193000000D03*
%TO.P,J101,107*%
%TO.N,DB_CTL_10*%
X55000000Y-193500000D03*
%TO.P,J101,108*%
%TO.N,DB_CTL_11*%
X55000000Y-194000000D03*
%TO.P,J101,109*%
%TO.N,DB_CTL_12*%
X55000000Y-194500000D03*
%TO.P,J101,110*%
%TO.N,DB_CTL_13*%
X55000000Y-195000000D03*
%TO.P,J101,111*%
%TO.N,DB_CTL_14*%
X55000000Y-195500000D03*
%TO.P,J101,112*%
%TO.N,DB_CTL_15*%
X55000000Y-196000000D03*
%TO.P,J101,113*%
%TO.N,DB_CTL_16*%
X55000000Y-196500000D03*
%TO.P,J101,114*%
%TO.N,DB_CTL_17*%
X55000000Y-197000000D03*
%TO.P,J101,115*%
%TO.N,DB_CTL_18*%
X55000000Y-197500000D03*
%TO.P,J101,116*%
%TO.N,DB_CTL_19*%
X55000000Y-198000000D03*
%TO.P,J101,117*%
%TO.N,DB_CTL_20*%
X55000000Y-198500000D03*
%TO.P,J101,118*%
%TO.N,DB_CTL_21*%
X55000000Y-199000000D03*
%TO.P,J101,119*%
%TO.N,DB_CTL_22*%
X55000000Y-199500000D03*
%TO.P,J101,120*%
%TO.N,DB_CTL_23*%
X55000000Y-200000000D03*
%TD*%
%TO.P,J102,1*%
%TO.N,DB_CTL_00*%
X67000000Y-140500000D03*
%TO.P,J102,2*%
%TO.N,DB_CTL_01*%
X67000000Y-141000000D03*
%TO.P,J102,3*%
%TO.N,DB_CTL_02*%
X67000000Y-141500000D03*
%TO.P,J102,4*%
%TO.N,DB_CTL_03*%
X67000000Y-142000000D03*
%TO.P,J102,5*%
%TO.N,DB_CTL_04*%
X67000000Y-142500000D03*
%TO.P,J102,6*%
%TO.N,DB_CTL_05*%
X67000000Y-143000000D03*
%TO.P,J102,7*%
%TO.N,DB_CTL_06*%
X67000000Y-143500000D03*
%TO.P,J102,8*%
%TO.N,DB_CTL_07*%
X67000000Y-144000000D03*
%TO.P,J102,9*%
%TO.N,DB_CTL_08*%
X67000000Y-144500000D03*
%TO.P,J102,10*%
%TO.N,DB_CTL_09*%
X67000000Y-145000000D03*
%TO.P,J102,11*%
%TO.N,DB_CTL_10*%
X67000000Y-145500000D03*
%TO.P,J102,12*%
%TO.N,DB_CTL_11*%
X67000000Y-146000000D03*
%TO.P,J102,13*%
%TO.N,DB_CTL_12*%
X67000000Y-146500000D03*
%TO.P,J102,14*%
%TO.N,DB_CTL_13*%
X67000000Y-147000000D03*
%TO.P,J102,15*%
%TO.N,DB_CTL_14*%
X67000000Y-147500000D03*
%TO.P,J102,16*%
%TO.N,DB_CTL_15*%
X67000000Y-148000000D03*
%TO.P,J102,17*%
%TO.N,DB_CTL_16*%
X67000000Y-148500000D03*
%TO.P,J102,18*%
%TO.N,DB_CTL_17*%
X67000000Y-149000000D03*
%TO.P,J102,19*%
%TO.N,DB_CTL_18*%
X67000000Y-149500000D03*
%TO.P,J102,20*%
%TO.N,DB_CTL_19*%
X67000000Y-150000000D03*
%TO.P,J102,21*%
%TO.N,DB_CTL_20*%
X67000000Y-150500000D03*
%TO.P,J102,22*%
%TO.N,DB_CTL_21*%
X67000000Y-151000000D03*
%TO.P,J102,23*%
%TO.N,DB_CTL_22*%
X67000000Y-151500000D03*
%TO.P,J102,24*%
%TO.N,DB_CTL_23*%
X67000000Y-152000000D03*
%TO.P,J102,25*%
%TO.N,DB_CTL_24*%
X67000000Y-152500000D03*
%TO.P,J102,26*%
%TO.N,DB_CTL_25*%
X67000000Y-153000000D03*
%TO.P,J102,27*%
%TO.N,DB_CTL_26*%
X67000000Y-153500000D03*
%TO.P,J102,28*%
%TO.N,DB_CTL_27*%
X67000000Y-154000000D03*
%TO.P,J102,29*%
%TO.N,DB_CTL_28*%
X67000000Y-154500000D03*
%TO.P,J102,30*%
%TO.N,DB_CTL_29*%
X67000000Y-155000000D03*
%TO.P,J102,31*%
%TO.N,DB_CTL_30*%
X67000000Y-155500000D03*
%TO.P,J102,32*%
%TO.N,DB_CTL_31*%
X67000000Y-156000000D03*
%TO.P,J102,33*%
%TO.N,DB_CTL_00*%
X67000000Y-156500000D03*
%TO.P,J102,34*%
%TO.N,DB_CTL_01*%
X67000000Y-157000000D03*
%TO.P,J102,35*%
%TO.N,DB_CTL_02*%
X67000000Y-157500000D03*
%TO.P,J102,36*%
%TO.N,DB_CTL_03*%
X67000000Y-158000000D03*
%TO.P,J102,37*%
%TO.N,DB_CTL_04*%
X67000000Y-158500000D03*
%TO.P,J102,38*%
%TO.N,DB_CTL_05*%
X67000000Y-159000000D03*
%TO.P,J102,39*%
%TO.N,DB_CTL_06*%
X67000000Y-159500000D03*
%TO.P,J102,40*%
%TO.N,DB_CTL_07*%
X67000000Y-160000000D03*
%TO.P,J102,41*%
%TO.N,DB_CTL_08*%
X67000000Y-160500000D03*
%TO.P,J102,42*%
%TO.N,DB_CTL_09*%
X67000000Y-161000000D03*
%TO.P,J102,43*%
%TO.N,DB_CTL_10*%
X67000000Y-161500000D03*
%TO.P,J102,44*%
%TO.N,DB_CTL_11*%
X67000000Y-162000000D03*
%TO.P,J102,45*%
%TO.N,DB_CTL_12*%
X67000000Y-162500000D03*
%TO.P,J102,46*%
%TO.N,DB_CTL_13*%
X67000000Y-163000000D03*
%TO.P,J102,47*%
%TO.N,DB_CTL_14*%
X67000000Y-163500000D03*
%TO.P,J102,48*%
%TO.N,DB_CTL_15*%
X67000000Y-164000000D03*
%TO.P,J102,49*%
%TO.N,DB_CTL_16*%
X67000000Y-164500000D03*
%TO.P,J102,50*%
%TO.N,DB_CTL_17*%
X67000000Y-165000000D03*
%TO.P,J102,51*%
%TO.N,DB_CTL_18*%
X67000000Y-165500000D03*
%TO.P,J102,52*%
%TO.N,DB_CTL_19*%
X67000000Y-166000000D03*
%TO.P,J102,53*%
%TO.N,DB_CTL_20*%
X67000000Y-166500000D03*
%TO.P,J102,54*%
%TO.N,DB_CTL_21*%
X67000000Y-167000000D03*
%TO.P,J102,55*%
%TO.N,DB_CTL_22*%
X67000000Y-167500000D03*
%TO.P,J102,56*%
%TO.N,DB_CTL_23*%
X67000000Y-168000000D03*
%TO.P,J102,57*%
%TO.N,DB_CTL_24*%
X67000000Y-168500000D03*
%TO.P,J102,58*%
%TO.N,DB_CTL_25*%
X67000000Y-169000000D03*
%TO.P,J102,59*%
%TO.N,DB_CTL_26*%
X67000000Y-169500000D03*
%TO.P,J102,60*%
%TO.N,DB_CTL_27*%
X67000000Y-170000000D03*
%TO.P,J102,61*%
%TO.N,DB_CTL_28*%
X67000000Y-170500000D03*
%TO.P,J102,62*%
%TO.N,DB_CTL_29*%
X67000000Y-171000000D03*
%TO.P,J102,63*%
%TO.N,DB_CTL_30*%
X67000000Y-171500000D03*
%TO.P,J102,64*%
%TO.N,DB_CTL_31*%
X67000000Y-172000000D03*
%TO.P,J102,65*%
%TO.N,DB_CTL_00*%
X67000000Y-172500000D03*
%TO.P,J102,66*%
%TO.N,DB_CTL_01*%
X67000000Y-173000000D03*
%TO.P,J102,67*%
%TO.N,DB_CTL_02*%
X67000000Y-173500000D03*
%TO.P,J102,68*%
%TO.N,DB_CTL_03*%
X67000000Y-174000000D03*
%TO.P,J102,69*%
%TO.N,DB_CTL_04*%
X67000000Y-174500000D03*
%TO.P,J102,70*%
%TO.N,DB_CTL_05*%
X67000000Y-175000000D03*
%TO.P,J102,71*%
%TO.N,DB_CTL_06*%
X67000000Y-175500000D03*
%TO.P,J102,72*%
%TO.N,DB_CTL_07*%
X67000000Y-176000000D03*
%TO.P,J102,73*%
%TO.N,DB_CTL_08*%
X67000000Y-176500000D03*
%TO.P,J102,74*%
%TO.N,DB_CTL_09*%
X67000000Y-177000000D03*
%TO.P,J102,75*%
%TO.N,DB_CTL_10*%
X67000000Y-177500000D03*
%TO.P,J102,76*%
%TO.N,DB_CTL_11*%
X67000000Y-178000000D03*
%TO.P,J102,77*%
%TO.N,DB_CTL_12*%
X67000000Y-178500000D03*
%TO.P,J102,78*%
%TO.N,DB_CTL_13*%
X67000000Y-179000000D03*
%TO.P,J102,79*%
%TO.N,DB_CTL_14*%
X67000000Y-179500000D03*
%TO.P,J102,80*%
%TO.N,DB_CTL_15*%
X67000000Y-180000000D03*
%TO.P,J102,81*%
%TO.N,DB_CTL_16*%
X67000000Y-180500000D03*
%TO.P,J102,82*%
%TO.N,DB_CTL_17*%
X67000000Y-181000000D03*
%TO.P,J102,83*%
%TO.N,DB_CTL_18*%
X67000000Y-181500000D03*
%TO.P,J102,84*%
%TO.N,DB_CTL_19*%
X67000000Y-182000000D03*
%TO.P,J102,85*%
%TO.N,DB_CTL_20*%
X67000000Y-182500000D03*
%TO.P,J102,86*%
%TO.N,DB_CTL_21*%
X67000000Y-183000000D03*
%TO.P,J102,87*%
%TO.N,DB_CTL_22*%
X67000000Y-183500000D03*
%TO.P,J102,88*%
%TO.N,DB_CTL_23*%
X67000000Y-184000000D03*
%TO.P,J102,89*%
%TO.N,DB_CTL_24*%
X67000000Y-184500000D03*
%TO.P,J102,90*%
%TO.N,DB_CTL_25*%
X67000000Y-185000000D03*
%TO.P,J102,91*%
%TO.N,DB_CTL_26*%
X67000000Y-185500000D03*
%TO.P,J102,92*%
%TO.N,DB_CTL_27*%
X67000000Y-186000000D03*
%TO.P,J102,93*%
%TO.N,DB_CTL_28*%
X67000000Y-186500000D03*
%TO.P,J102,94*%
%TO.N,DB_CTL_29*%
X67000000Y-187000000D03*
%TO.P,J102,95*%
%TO.N,DB_CTL_30*%
X67000000Y-187500000D03*
%TO.P,J102,96*%
%TO.N,DB_CTL_31*%
X67000000Y-188000000D03*
%TO.P,J102,97*%
%TO.N,DB_CTL_00*%
X67000000Y-188500000D03*
%TO.P,J102,98*%
%TO.N,DB_CTL_01*%
X67000000Y-189000000D03*
%TO.P,J102,99*%
%TO.N,DB_CTL_02*%
X67000000Y-189500000D03*
%TO.P,J102,100*%
%TO.N,DB_CTL_03*%
X67000000Y-190000000D03*
%TO.P,J102,101*%
%TO.N,DB_CTL_04*%
X67000000Y-190500000D03*
%TO.P,J102,102*%
%TO.N,DB_CTL_05*%
X67000000Y-191000000D03*
%TO.P,J102,103*%
%TO.N,DB_CTL_06*%
X67000000Y-191500000D03*
%TO.P,J102,104*%
%TO.N,DB_CTL_07*%
X67000000Y-192000000D03*
%TO.P,J102,105*%
%TO.N,DB_CTL_08*%
X67000000Y-192500000D03*
%TO.P,J102,106*%
%TO.N,DB_CTL_09*%
X67000000Y-193000000D03*
%TO.P,J102,107*%
%TO.N,DB_CTL_10*%
X67000000Y-193500000D03*
%TO.P,J102,108*%
%TO.N,DB_CTL_11*%
X67000000Y-194000000D03*
%TO.P,J102,109*%
%TO.N,DB_CTL_12*%
X67000000Y-194500000D03*
%TO.P,J102,110*%
%TO.N,DB_CTL_13*%
X67000000Y-195000000D03*
%TO.P,J102,111*%
%TO.N,DB_CTL_14*%
X67000000Y-195500000D03*
%TO.P,J102,112*%
%TO.N,DB_CTL_15*%
X67000000Y-196000000D03*
%TO.P,J102,113*%
%TO.N,DB_CTL_16*%
X67000000Y-196500000D03*
%TO.P,J102,114*%
%TO.N,DB_CTL_17*%
X67000000Y-197000000D03*
%TO.P,J102,115*%
%TO.N,DB_CTL_18*%
X67000000Y-197500000D03*
%TO.P,J102,116*%
%TO.N,DB_CTL_19*%
X67000000Y-198000000D03*
%TO.P,J102,117*%
%TO.N,DB_CTL_20*%
X67000000Y-198500000D03*
%TO.P,J102,118*%
%TO.N,DB_CTL_21*%
X67000000Y-199000000D03*
%TO.P,J102,119*%
%TO.N,DB_CTL_22*%
X67000000Y-199500000D03*
%TO.P,J102,120*%
%TO.N,DB_CTL_23*%
X67000000Y-200000000D03*
%TD*%
%TO.P,J103,1*%
%TO.N,DB_CTL_00*%
X79000000Y-140500000D03*
%TO.P,J103,2*%
%TO.N,DB_CTL_01*%
X79000000Y-141000000D03*
%TO.P,J103,3*%
%TO.N,DB_CTL_02*%
X79000000Y-141500000D03*
%TO.P,J103,4*%
%TO.N,DB_CTL_03*%
X79000000Y-142000000D03*
%TO.P,J103,5*%
%TO.N,DB_CTL_04*%
X79000000Y-142500000D03*
%TO.P,J103,6*%
%TO.N,DB_CTL_05*%
X79000000Y-143000000D03*
%TO.P,J103,7*%
%TO.N,DB_CTL_06*%
X79000000Y-143500000D03*
%TO.P,J103,8*%
%TO.N,DB_CTL_07*%
X79000000Y-144000000D03*
%TO.P,J103,9*%
%TO.N,DB_CTL_08*%
X79000000Y-144500000D03*
%TO.P,J103,10*%
%TO.N,DB_CTL_09*%
X79000000Y-145000000D03*
%TO.P,J103,11*%
%TO.N,DB_CTL_10*%
X79000000Y-145500000D03*
%TO.P,J103,12*%
%TO.N,DB_CTL_11*%
X79000000Y-146000000D03*
%TO.P,J103,13*%
%TO.N,DB_CTL_12*%
X79000000Y-146500000D03*
%TO.P,J103,14*%
%TO.N,DB_CTL_13*%
X79000000Y-147000000D03*
%TO.P,J103,15*%
%TO.N,DB_CTL_14*%
X79000000Y-147500000D03*
%TO.P,J103,16*%
%TO.N,DB_CTL_15*%
X79000000Y-148000000D03*
%TO.P,J103,17*%
%TO.N,DB_CTL_16*%
X79000000Y-148500000D03*
%TO.P,J103,18*%
%TO.N,DB_CTL_17*%
X79000000Y-149000000D03*
%TO.P,J103,19*%
%TO.N,DB_CTL_18*%
X79000000Y-149500000D03*
%TO.P,J103,20*%
%TO.N,DB_CTL_19*%
X79000000Y-150000000D03*
%TO.P,J103,21*%
%TO.N,DB_CTL_20*%
X79000000Y-150500000D03*
%TO.P,J103,22*%
%TO.N,DB_CTL_21*%
X79000000Y-151000000D03*
%TO.P,J103,23*%
%TO.N,DB_CTL_22*%
X79000000Y-151500000D03*
%TO.P,J103,24*%
%TO.N,DB_CTL_23*%
X79000000Y-152000000D03*
%TO.P,J103,25*%
%TO.N,DB_CTL_24*%
X79000000Y-152500000D03*
%TO.P,J103,26*%
%TO.N,DB_CTL_25*%
X79000000Y-153000000D03*
%TO.P,J103,27*%
%TO.N,DB_CTL_26*%
X79000000Y-153500000D03*
%TO.P,J103,28*%
%TO.N,DB_CTL_27*%
X79000000Y-154000000D03*
%TO.P,J103,29*%
%TO.N,DB_CTL_28*%
X79000000Y-154500000D03*
%TO.P,J103,30*%
%TO.N,DB_CTL_29*%
X79000000Y-155000000D03*
%TO.P,J103,31*%
%TO.N,DB_CTL_30*%
X79000000Y-155500000D03*
%TO.P,J103,32*%
%TO.N,DB_CTL_31*%
X79000000Y-156000000D03*
%TO.P,J103,33*%
%TO.N,DB_CTL_00*%
X79000000Y-156500000D03*
%TO.P,J103,34*%
%TO.N,DB_CTL_01*%
X79000000Y-157000000D03*
%TO.P,J103,35*%
%TO.N,DB_CTL_02*%
X79000000Y-157500000D03*
%TO.P,J103,36*%
%TO.N,DB_CTL_03*%
X79000000Y-158000000D03*
%TO.P,J103,37*%
%TO.N,DB_CTL_04*%
X79000000Y-158500000D03*
%TO.P,J103,38*%
%TO.N,DB_CTL_05*%
X79000000Y-159000000D03*
%TO.P,J103,39*%
%TO.N,DB_CTL_06*%
X79000000Y-159500000D03*
%TO.P,J103,40*%
%TO.N,DB_CTL_07*%
X79000000Y-160000000D03*
%TO.P,J103,41*%
%TO.N,DB_CTL_08*%
X79000000Y-160500000D03*
%TO.P,J103,42*%
%TO.N,DB_CTL_09*%
X79000000Y-161000000D03*
%TO.P,J103,43*%
%TO.N,DB_CTL_10*%
X79000000Y-161500000D03*
%TO.P,J103,44*%
%TO.N,DB_CTL_11*%
X79000000Y-162000000D03*
%TO.P,J103,45*%
%TO.N,DB_CTL_12*%
X79000000Y-162500000D03*
%TO.P,J103,46*%
%TO.N,DB_CTL_13*%
X79000000Y-163000000D03*
%TO.P,J103,47*%
%TO.N,DB_CTL_14*%
X79000000Y-163500000D03*
%TO.P,J103,48*%
%TO.N,DB_CTL_15*%
X79000000Y-164000000D03*
%TO.P,J103,49*%
%TO.N,DB_CTL_16*%
X79000000Y-164500000D03*
%TO.P,J103,50*%
%TO.N,DB_CTL_17*%
X79000000Y-165000000D03*
%TO.P,J103,51*%
%TO.N,DB_CTL_18*%
X79000000Y-165500000D03*
%TO.P,J103,52*%
%TO.N,DB_CTL_19*%
X79000000Y-166000000D03*
%TO.P,J103,53*%
%TO.N,DB_CTL_20*%
X79000000Y-166500000D03*
%TO.P,J103,54*%
%TO.N,DB_CTL_21*%
X79000000Y-167000000D03*
%TO.P,J103,55*%
%TO.N,DB_CTL_22*%
X79000000Y-167500000D03*
%TO.P,J103,56*%
%TO.N,DB_CTL_23*%
X79000000Y-168000000D03*
%TO.P,J103,57*%
%TO.N,DB_CTL_24*%
X79000000Y-168500000D03*
%TO.P,J103,58*%
%TO.N,DB_CTL_25*%
X79000000Y-169000000D03*
%TO.P,J103,59*%
%TO.N,DB_CTL_26*%
X79000000Y-169500000D03*
%TO.P,J103,60*%
%TO.N,DB_CTL_27*%
X79000000Y-170000000D03*
%TO.P,J103,61*%
%TO.N,DB_CTL_28*%
X79000000Y-170500000D03*
%TO.P,J103,62*%
%TO.N,DB_CTL_29*%
X79000000Y-171000000D03*
%TO.P,J103,63*%
%TO.N,DB_CTL_30*%
X79000000Y-171500000D03*
%TO.P,J103,64*%
%TO.N,DB_CTL_31*%
X79000000Y-172000000D03*
%TO.P,J103,65*%
%TO.N,DB_CTL_00*%
X79000000Y-172500000D03*
%TO.P,J103,66*%
%TO.N,DB_CTL_01*%
X79000000Y-173000000D03*
%TO.P,J103,67*%
%TO.N,DB_CTL_02*%
X79000000Y-173500000D03*
%TO.P,J103,68*%
%TO.N,DB_CTL_03*%
X79000000Y-174000000D03*
%TO.P,J103,69*%
%TO.N,DB_CTL_04*%
X79000000Y-174500000D03*
%TO.P,J103,70*%
%TO.N,DB_CTL_05*%
X79000000Y-175000000D03*
%TO.P,J103,71*%
%TO.N,DB_CTL_06*%
X79000000Y-175500000D03*
%TO.P,J103,72*%
%TO.N,DB_CTL_07*%
X79000000Y-176000000D03*
%TO.P,J103,73*%
%TO.N,DB_CTL_08*%
X79000000Y-176500000D03*
%TO.P,J103,74*%
%TO.N,DB_CTL_09*%
X79000000Y-177000000D03*
%TO.P,J103,75*%
%TO.N,DB_CTL_10*%
X79000000Y-177500000D03*
%TO.P,J103,76*%
%TO.N,DB_CTL_11*%
X79000000Y-178000000D03*
%TO.P,J103,77*%
%TO.N,DB_CTL_12*%
X79000000Y-178500000D03*
%TO.P,J103,78*%
%TO.N,DB_CTL_13*%
X79000000Y-179000000D03*
%TO.P,J103,79*%
%TO.N,DB_CTL_14*%
X79000000Y-179500000D03*
%TO.P,J103,80*%
%TO.N,DB_CTL_15*%
X79000000Y-180000000D03*
%TO.P,J103,81*%
%TO.N,DB_CTL_16*%
X79000000Y-180500000D03*
%TO.P,J103,82*%
%TO.N,DB_CTL_17*%
X79000000Y-181000000D03*
%TO.P,J103,83*%
%TO.N,DB_CTL_18*%
X79000000Y-181500000D03*
%TO.P,J103,84*%
%TO.N,DB_CTL_19*%
X79000000Y-182000000D03*
%TO.P,J103,85*%
%TO.N,DB_CTL_20*%
X79000000Y-182500000D03*
%TO.P,J103,86*%
%TO.N,DB_CTL_21*%
X79000000Y-183000000D03*
%TO.P,J103,87*%
%TO.N,DB_CTL_22*%
X79000000Y-183500000D03*
%TO.P,J103,88*%
%TO.N,DB_CTL_23*%
X79000000Y-184000000D03*
%TO.P,J103,89*%
%TO.N,DB_CTL_24*%
X79000000Y-184500000D03*
%TO.P,J103,90*%
%TO.N,DB_CTL_25*%
X79000000Y-185000000D03*
%TO.P,J103,91*%
%TO.N,DB_CTL_26*%
X79000000Y-185500000D03*
%TO.P,J103,92*%
%TO.N,DB_CTL_27*%
X79000000Y-186000000D03*
%TO.P,J103,93*%
%TO.N,DB_CTL_28*%
X79000000Y-186500000D03*
%TO.P,J103,94*%
%TO.N,DB_CTL_29*%
X79000000Y-187000000D03*
%TO.P,J103,95*%
%TO.N,DB_CTL_30*%
X79000000Y-187500000D03*
%TO.P,J103,96*%
%TO.N,DB_CTL_31*%
X79000000Y-188000000D03*
%TO.P,J103,97*%
%TO.N,DB_CTL_00*%
X79000000Y-188500000D03*
%TO.P,J103,98*%
%TO.N,DB_CTL_01*%
X79000000Y-189000000D03*
%TO.P,J103,99*%
%TO.N,DB_CTL_02*%
X79000000Y-189500000D03*
%TO.P,J103,100*%
%TO.N,DB_CTL_03*%
X79000000Y-190000000D03*
%TO.P,J103,101*%
%TO.N,DB_CTL_04*%
X79000000Y-190500000D03*
%TO.P,J103,102*%
%TO.N,DB_CTL_05*%
X79000000Y-191000000D03*
%TO.P,J103,103*%
%TO.N,DB_CTL_06*%
X79000000Y-191500000D03*
%TO.P,J103,104*%
%TO.N,DB_CTL_07*%
X79000000Y-192000000D03*
%TO.P,J103,105*%
%TO.N,DB_CTL_08*%
X79000000Y-192500000D03*
%TO.P,J103,106*%
%TO.N,DB_CTL_09*%
X79000000Y-193000000D03*
%TO.P,J103,107*%
%TO.N,DB_CTL_10*%
X79000000Y-193500000D03*
%TO.P,J103,108*%
%TO.N,DB_CTL_11*%
X79000000Y-194000000D03*
%TO.P,J103,109*%
%TO.N,DB_CTL_12*%
X79000000Y-194500000D03*
%TO.P,J103,110*%
%TO.N,DB_CTL_13*%
X79000000Y-195000000D03*
%TO.P,J103,111*%
%TO.N,DB_CTL_14*%
X79000000Y-195500000D03*
%TO.P,J103,112*%
%TO.N,DB_CTL_15*%
X79000000Y-196000000D03*
%TO.P,J103,113*%
%TO.N,DB_CTL_16*%
X79000000Y-196500000D03*
%TO.P,J103,114*%
%TO.N,DB_CTL_17*%
X79000000Y-197000000D03*
%TO.P,J103,115*%
%TO.N,DB_CTL_18*%
X79000000Y-197500000D03*
%TO.P,J103,116*%
%TO.N,DB_CTL_19*%
X79000000Y-198000000D03*
%TO.P,J103,117*%
%TO.N,DB_CTL_20*%
X79000000Y-198500000D03*
%TO.P,J103,118*%
%TO.N,DB_CTL_21*%
X79000000Y-199000000D03*
%TO.P,J103,119*%
%TO.N,DB_CTL_22*%
X79000000Y-199500000D03*
%TO.P,J103,120*%
%TO.N,DB_CTL_23*%
X79000000Y-200000000D03*
%TD*%
%TO.P,J104,1*%
%TO.N,DB_CTL_00*%
X91000000Y-140500000D03*
%TO.P,J104,2*%
%TO.N,DB_CTL_01*%
X91000000Y-141000000D03*
%TO.P,J104,3*%
%TO.N,DB_CTL_02*%
X91000000Y-141500000D03*
%TO.P,J104,4*%
%TO.N,DB_CTL_03*%
X91000000Y-142000000D03*
%TO.P,J104,5*%
%TO.N,DB_CTL_04*%
X91000000Y-142500000D03*
%TO.P,J104,6*%
%TO.N,DB_CTL_05*%
X91000000Y-143000000D03*
%TO.P,J104,7*%
%TO.N,DB_CTL_06*%
X91000000Y-143500000D03*
%TO.P,J104,8*%
%TO.N,DB_CTL_07*%
X91000000Y-144000000D03*
%TO.P,J104,9*%
%TO.N,DB_CTL_08*%
X91000000Y-144500000D03*
%TO.P,J104,10*%
%TO.N,DB_CTL_09*%
X91000000Y-145000000D03*
%TO.P,J104,11*%
%TO.N,DB_CTL_10*%
X91000000Y-145500000D03*
%TO.P,J104,12*%
%TO.N,DB_CTL_11*%
X91000000Y-146000000D03*
%TO.P,J104,13*%
%TO.N,DB_CTL_12*%
X91000000Y-146500000D03*
%TO.P,J104,14*%
%TO.N,DB_CTL_13*%
X91000000Y-147000000D03*
%TO.P,J104,15*%
%TO.N,DB_CTL_14*%
X91000000Y-147500000D03*
%TO.P,J104,16*%
%TO.N,DB_CTL_15*%
X91000000Y-148000000D03*
%TO.P,J104,17*%
%TO.N,DB_CTL_16*%
X91000000Y-148500000D03*
%TO.P,J104,18*%
%TO.N,DB_CTL_17*%
X91000000Y-149000000D03*
%TO.P,J104,19*%
%TO.N,DB_CTL_18*%
X91000000Y-149500000D03*
%TO.P,J104,20*%
%TO.N,DB_CTL_19*%
X91000000Y-150000000D03*
%TO.P,J104,21*%
%TO.N,DB_CTL_20*%
X91000000Y-150500000D03*
%TO.P,J104,22*%
%TO.N,DB_CTL_21*%
X91000000Y-151000000D03*
%TO.P,J104,23*%
%TO.N,DB_CTL_22*%
X91000000Y-151500000D03*
%TO.P,J104,24*%
%TO.N,DB_CTL_23*%
X91000000Y-152000000D03*
%TO.P,J104,25*%
%TO.N,DB_CTL_24*%
X91000000Y-152500000D03*
%TO.P,J104,26*%
%TO.N,DB_CTL_25*%
X91000000Y-153000000D03*
%TO.P,J104,27*%
%TO.N,DB_CTL_26*%
X91000000Y-153500000D03*
%TO.P,J104,28*%
%TO.N,DB_CTL_27*%
X91000000Y-154000000D03*
%TO.P,J104,29*%
%TO.N,DB_CTL_28*%
X91000000Y-154500000D03*
%TO.P,J104,30*%
%TO.N,DB_CTL_29*%
X91000000Y-155000000D03*
%TO.P,J104,31*%
%TO.N,DB_CTL_30*%
X91000000Y-155500000D03*
%TO.P,J104,32*%
%TO.N,DB_CTL_31*%
X91000000Y-156000000D03*
%TO.P,J104,33*%
%TO.N,DB_CTL_00*%
X91000000Y-156500000D03*
%TO.P,J104,34*%
%TO.N,DB_CTL_01*%
X91000000Y-157000000D03*
%TO.P,J104,35*%
%TO.N,DB_CTL_02*%
X91000000Y-157500000D03*
%TO.P,J104,36*%
%TO.N,DB_CTL_03*%
X91000000Y-158000000D03*
%TO.P,J104,37*%
%TO.N,DB_CTL_04*%
X91000000Y-158500000D03*
%TO.P,J104,38*%
%TO.N,DB_CTL_05*%
X91000000Y-159000000D03*
%TO.P,J104,39*%
%TO.N,DB_CTL_06*%
X91000000Y-159500000D03*
%TO.P,J104,40*%
%TO.N,DB_CTL_07*%
X91000000Y-160000000D03*
%TO.P,J104,41*%
%TO.N,DB_CTL_08*%
X91000000Y-160500000D03*
%TO.P,J104,42*%
%TO.N,DB_CTL_09*%
X91000000Y-161000000D03*
%TO.P,J104,43*%
%TO.N,DB_CTL_10*%
X91000000Y-161500000D03*
%TO.P,J104,44*%
%TO.N,DB_CTL_11*%
X91000000Y-162000000D03*
%TO.P,J104,45*%
%TO.N,DB_CTL_12*%
X91000000Y-162500000D03*
%TO.P,J104,46*%
%TO.N,DB_CTL_13*%
X91000000Y-163000000D03*
%TO.P,J104,47*%
%TO.N,DB_CTL_14*%
X91000000Y-163500000D03*
%TO.P,J104,48*%
%TO.N,DB_CTL_15*%
X91000000Y-164000000D03*
%TO.P,J104,49*%
%TO.N,DB_CTL_16*%
X91000000Y-164500000D03*
%TO.P,J104,50*%
%TO.N,DB_CTL_17*%
X91000000Y-165000000D03*
%TO.P,J104,51*%
%TO.N,DB_CTL_18*%
X91000000Y-165500000D03*
%TO.P,J104,52*%
%TO.N,DB_CTL_19*%
X91000000Y-166000000D03*
%TO.P,J104,53*%
%TO.N,DB_CTL_20*%
X91000000Y-166500000D03*
%TO.P,J104,54*%
%TO.N,DB_CTL_21*%
X91000000Y-167000000D03*
%TO.P,J104,55*%
%TO.N,DB_CTL_22*%
X91000000Y-167500000D03*
%TO.P,J104,56*%
%TO.N,DB_CTL_23*%
X91000000Y-168000000D03*
%TO.P,J104,57*%
%TO.N,DB_CTL_24*%
X91000000Y-168500000D03*
%TO.P,J104,58*%
%TO.N,DB_CTL_25*%
X91000000Y-169000000D03*
%TO.P,J104,59*%
%TO.N,DB_CTL_26*%
X91000000Y-169500000D03*
%TO.P,J104,60*%
%TO.N,DB_CTL_27*%
X91000000Y-170000000D03*
%TO.P,J104,61*%
%TO.N,DB_CTL_28*%
X91000000Y-170500000D03*
%TO.P,J104,62*%
%TO.N,DB_CTL_29*%
X91000000Y-171000000D03*
%TO.P,J104,63*%
%TO.N,DB_CTL_30*%
X91000000Y-171500000D03*
%TO.P,J104,64*%
%TO.N,DB_CTL_31*%
X91000000Y-172000000D03*
%TO.P,J104,65*%
%TO.N,DB_CTL_00*%
X91000000Y-172500000D03*
%TO.P,J104,66*%
%TO.N,DB_CTL_01*%
X91000000Y-173000000D03*
%TO.P,J104,67*%
%TO.N,DB_CTL_02*%
X91000000Y-173500000D03*
%TO.P,J104,68*%
%TO.N,DB_CTL_03*%
X91000000Y-174000000D03*
%TO.P,J104,69*%
%TO.N,DB_CTL_04*%
X91000000Y-174500000D03*
%TO.P,J104,70*%
%TO.N,DB_CTL_05*%
X91000000Y-175000000D03*
%TO.P,J104,71*%
%TO.N,DB_CTL_06*%
X91000000Y-175500000D03*
%TO.P,J104,72*%
%TO.N,DB_CTL_07*%
X91000000Y-176000000D03*
%TO.P,J104,73*%
%TO.N,DB_CTL_08*%
X91000000Y-176500000D03*
%TO.P,J104,74*%
%TO.N,DB_CTL_09*%
X91000000Y-177000000D03*
%TO.P,J104,75*%
%TO.N,DB_CTL_10*%
X91000000Y-177500000D03*
%TO.P,J104,76*%
%TO.N,DB_CTL_11*%
X91000000Y-178000000D03*
%TO.P,J104,77*%
%TO.N,DB_CTL_12*%
X91000000Y-178500000D03*
%TO.P,J104,78*%
%TO.N,DB_CTL_13*%
X91000000Y-179000000D03*
%TO.P,J104,79*%
%TO.N,DB_CTL_14*%
X91000000Y-179500000D03*
%TO.P,J104,80*%
%TO.N,DB_CTL_15*%
X91000000Y-180000000D03*
%TO.P,J104,81*%
%TO.N,DB_CTL_16*%
X91000000Y-180500000D03*
%TO.P,J104,82*%
%TO.N,DB_CTL_17*%
X91000000Y-181000000D03*
%TO.P,J104,83*%
%TO.N,DB_CTL_18*%
X91000000Y-181500000D03*
%TO.P,J104,84*%
%TO.N,DB_CTL_19*%
X91000000Y-182000000D03*
%TO.P,J104,85*%
%TO.N,DB_CTL_20*%
X91000000Y-182500000D03*
%TO.P,J104,86*%
%TO.N,DB_CTL_21*%
X91000000Y-183000000D03*
%TO.P,J104,87*%
%TO.N,DB_CTL_22*%
X91000000Y-183500000D03*
%TO.P,J104,88*%
%TO.N,DB_CTL_23*%
X91000000Y-184000000D03*
%TO.P,J104,89*%
%TO.N,DB_CTL_24*%
X91000000Y-184500000D03*
%TO.P,J104,90*%
%TO.N,DB_CTL_25*%
X91000000Y-185000000D03*
%TO.P,J104,91*%
%TO.N,DB_CTL_26*%
X91000000Y-185500000D03*
%TO.P,J104,92*%
%TO.N,DB_CTL_27*%
X91000000Y-186000000D03*
%TO.P,J104,93*%
%TO.N,DB_CTL_28*%
X91000000Y-186500000D03*
%TO.P,J104,94*%
%TO.N,DB_CTL_29*%
X91000000Y-187000000D03*
%TO.P,J104,95*%
%TO.N,DB_CTL_30*%
X91000000Y-187500000D03*
%TO.P,J104,96*%
%TO.N,DB_CTL_31*%
X91000000Y-188000000D03*
%TO.P,J104,97*%
%TO.N,DB_CTL_00*%
X91000000Y-188500000D03*
%TO.P,J104,98*%
%TO.N,DB_CTL_01*%
X91000000Y-189000000D03*
%TO.P,J104,99*%
%TO.N,DB_CTL_02*%
X91000000Y-189500000D03*
%TO.P,J104,100*%
%TO.N,DB_CTL_03*%
X91000000Y-190000000D03*
%TO.P,J104,101*%
%TO.N,DB_CTL_04*%
X91000000Y-190500000D03*
%TO.P,J104,102*%
%TO.N,DB_CTL_05*%
X91000000Y-191000000D03*
%TO.P,J104,103*%
%TO.N,DB_CTL_06*%
X91000000Y-191500000D03*
%TO.P,J104,104*%
%TO.N,DB_CTL_07*%
X91000000Y-192000000D03*
%TO.P,J104,105*%
%TO.N,DB_CTL_08*%
X91000000Y-192500000D03*
%TO.P,J104,106*%
%TO.N,DB_CTL_09*%
X91000000Y-193000000D03*
%TO.P,J104,107*%
%TO.N,DB_CTL_10*%
X91000000Y-193500000D03*
%TO.P,J104,108*%
%TO.N,DB_CTL_11*%
X91000000Y-194000000D03*
%TO.P,J104,109*%
%TO.N,DB_CTL_12*%
X91000000Y-194500000D03*
%TO.P,J104,110*%
%TO.N,DB_CTL_13*%
X91000000Y-195000000D03*
%TO.P,J104,111*%
%TO.N,DB_CTL_14*%
X91000000Y-195500000D03*
%TO.P,J104,112*%
%TO.N,DB_CTL_15*%
X91000000Y-196000000D03*
%TO.P,J104,113*%
%TO.N,DB_CTL_16*%
X91000000Y-196500000D03*
%TO.P,J104,114*%
%TO.N,DB_CTL_17*%
X91000000Y-197000000D03*
%TO.P,J104,115*%
%TO.N,DB_CTL_18*%
X91000000Y-197500000D03*
%TO.P,J104,116*%
%TO.N,DB_CTL_19*%
X91000000Y-198000000D03*
%TO.P,J104,117*%
%TO.N,DB_CTL_20*%
X91000000Y-198500000D03*
%TO.P,J104,118*%
%TO.N,DB_CTL_21*%
X91000000Y-199000000D03*
%TO.P,J104,119*%
%TO.N,DB_CTL_22*%
X91000000Y-199500000D03*
%TO.P,J104,120*%
%TO.N,DB_CTL_23*%
X91000000Y-200000000D03*
%TD*%
D12*
%TO.P,J1,1*%
%TO.N,ELSFP0_I2C_SDA*%
X168600000Y-549000000D03*
%TO.P,J1,2*%
%TO.N,ELSFP0_I2C_SCL*%
X169870000Y-549000000D03*
%TO.P,J1,3*%
%TO.N,ELSFP0_PWR_EN*%
X171140000Y-549000000D03*
%TO.P,J1,4*%
%TO.N,ELSFP0_RST_N*%
X172410000Y-549000000D03*
%TO.P,J1,5*%
%TO.N,ELSFP0_TX_DIS*%
X173680000Y-549000000D03*
%TO.P,J1,6*%
%TO.N,ELSFP0_LOS_N*%
X174950000Y-549000000D03*
%TO.P,J1,7*%
%TO.N,ELSFP0_TEMP_ALR_N*%
X176220000Y-549000000D03*
%TO.P,J1,8*%
%TO.N,ELSFP0_PRESENT_N*%
X177490000Y-549000000D03*
%TD*%
%TO.P,J2,1*%
%TO.N,ELSFP1_I2C_SDA*%
X190600000Y-549000000D03*
%TO.P,J2,2*%
%TO.N,ELSFP1_I2C_SCL*%
X191870000Y-549000000D03*
%TO.P,J2,3*%
%TO.N,ELSFP1_PWR_EN*%
X193140000Y-549000000D03*
%TO.P,J2,4*%
%TO.N,ELSFP1_RST_N*%
X194410000Y-549000000D03*
%TO.P,J2,5*%
%TO.N,ELSFP1_TX_DIS*%
X195680000Y-549000000D03*
%TO.P,J2,6*%
%TO.N,ELSFP1_LOS_N*%
X196950000Y-549000000D03*
%TO.P,J2,7*%
%TO.N,ELSFP1_TEMP_ALR_N*%
X198220000Y-549000000D03*
%TO.P,J2,8*%
%TO.N,ELSFP1_PRESENT_N*%
X199490000Y-549000000D03*
%TD*%
%TO.P,J3,1*%
%TO.N,ELSFP2_I2C_SDA*%
X212600000Y-549000000D03*
%TO.P,J3,2*%
%TO.N,ELSFP2_I2C_SCL*%
X213870000Y-549000000D03*
%TO.P,J3,3*%
%TO.N,ELSFP2_PWR_EN*%
X215140000Y-549000000D03*
%TO.P,J3,4*%
%TO.N,ELSFP2_RST_N*%
X216410000Y-549000000D03*
%TO.P,J3,5*%
%TO.N,ELSFP2_TX_DIS*%
X217680000Y-549000000D03*
%TO.P,J3,6*%
%TO.N,ELSFP2_LOS_N*%
X218950000Y-549000000D03*
%TO.P,J3,7*%
%TO.N,ELSFP2_TEMP_ALR_N*%
X220220000Y-549000000D03*
%TO.P,J3,8*%
%TO.N,ELSFP2_PRESENT_N*%
X221490000Y-549000000D03*
%TD*%
%TO.P,J4,1*%
%TO.N,ELSFP3_I2C_SDA*%
X234600000Y-549000000D03*
%TO.P,J4,2*%
%TO.N,ELSFP3_I2C_SCL*%
X235870000Y-549000000D03*
%TO.P,J4,3*%
%TO.N,ELSFP3_PWR_EN*%
X237140000Y-549000000D03*
%TO.P,J4,4*%
%TO.N,ELSFP3_RST_N*%
X238410000Y-549000000D03*
%TO.P,J4,5*%
%TO.N,ELSFP3_TX_DIS*%
X239680000Y-549000000D03*
%TO.P,J4,6*%
%TO.N,ELSFP3_LOS_N*%
X240950000Y-549000000D03*
%TO.P,J4,7*%
%TO.N,ELSFP3_TEMP_ALR_N*%
X242220000Y-549000000D03*
%TO.P,J4,8*%
%TO.N,ELSFP3_PRESENT_N*%
X243490000Y-549000000D03*
%TD*%
%TO.P,J5,1*%
%TO.N,ELSFP4_I2C_SDA*%
X256600000Y-549000000D03*
%TO.P,J5,2*%
%TO.N,ELSFP4_I2C_SCL*%
X257870000Y-549000000D03*
%TO.P,J5,3*%
%TO.N,ELSFP4_PWR_EN*%
X259140000Y-549000000D03*
%TO.P,J5,4*%
%TO.N,ELSFP4_RST_N*%
X260410000Y-549000000D03*
%TO.P,J5,5*%
%TO.N,ELSFP4_TX_DIS*%
X261680000Y-549000000D03*
%TO.P,J5,6*%
%TO.N,ELSFP4_LOS_N*%
X262950000Y-549000000D03*
%TO.P,J5,7*%
%TO.N,ELSFP4_TEMP_ALR_N*%
X264220000Y-549000000D03*
%TO.P,J5,8*%
%TO.N,ELSFP4_PRESENT_N*%
X265490000Y-549000000D03*
%TD*%
%TO.P,J6,1*%
%TO.N,ELSFP5_I2C_SDA*%
X278600000Y-549000000D03*
%TO.P,J6,2*%
%TO.N,ELSFP5_I2C_SCL*%
X279870000Y-549000000D03*
%TO.P,J6,3*%
%TO.N,ELSFP5_PWR_EN*%
X281140000Y-549000000D03*
%TO.P,J6,4*%
%TO.N,ELSFP5_RST_N*%
X282410000Y-549000000D03*
%TO.P,J6,5*%
%TO.N,ELSFP5_TX_DIS*%
X283680000Y-549000000D03*
%TO.P,J6,6*%
%TO.N,ELSFP5_LOS_N*%
X284950000Y-549000000D03*
%TO.P,J6,7*%
%TO.N,ELSFP5_TEMP_ALR_N*%
X286220000Y-549000000D03*
%TO.P,J6,8*%
%TO.N,ELSFP5_PRESENT_N*%
X287490000Y-549000000D03*
%TD*%
%TO.P,J7,1*%
%TO.N,ELSFP6_I2C_SDA*%
X300600000Y-549000000D03*
%TO.P,J7,2*%
%TO.N,ELSFP6_I2C_SCL*%
X301870000Y-549000000D03*
%TO.P,J7,3*%
%TO.N,ELSFP6_PWR_EN*%
X303140000Y-549000000D03*
%TO.P,J7,4*%
%TO.N,ELSFP6_RST_N*%
X304410000Y-549000000D03*
%TO.P,J7,5*%
%TO.N,ELSFP6_TX_DIS*%
X305680000Y-549000000D03*
%TO.P,J7,6*%
%TO.N,ELSFP6_LOS_N*%
X306950000Y-549000000D03*
%TO.P,J7,7*%
%TO.N,ELSFP6_TEMP_ALR_N*%
X308220000Y-549000000D03*
%TO.P,J7,8*%
%TO.N,ELSFP6_PRESENT_N*%
X309490000Y-549000000D03*
%TD*%
%TO.P,J8,1*%
%TO.N,ELSFP7_I2C_SDA*%
X322600000Y-549000000D03*
%TO.P,J8,2*%
%TO.N,ELSFP7_I2C_SCL*%
X323870000Y-549000000D03*
%TO.P,J8,3*%
%TO.N,ELSFP7_PWR_EN*%
X325140000Y-549000000D03*
%TO.P,J8,4*%
%TO.N,ELSFP7_RST_N*%
X326410000Y-549000000D03*
%TO.P,J8,5*%
%TO.N,ELSFP7_TX_DIS*%
X327680000Y-549000000D03*
%TO.P,J8,6*%
%TO.N,ELSFP7_LOS_N*%
X328950000Y-549000000D03*
%TO.P,J8,7*%
%TO.N,ELSFP7_TEMP_ALR_N*%
X330220000Y-549000000D03*
%TO.P,J8,8*%
%TO.N,ELSFP7_PRESENT_N*%
X331490000Y-549000000D03*
%TD*%
D13*
%TO.P,J9,1*%
%TO.N,OSFP00_TX0_P*%
X43500000Y-536500000D03*
%TO.P,J9,2*%
%TO.N,OSFP00_TX0_N*%
X44150000Y-536500000D03*
%TO.P,J9,3*%
%TO.N,OSFP00_RX0_P*%
X44800000Y-536500000D03*
%TO.P,J9,4*%
%TO.N,OSFP00_RX0_N*%
X45450000Y-536500000D03*
%TO.P,J9,5*%
%TO.N,OSFP00_TX4_P*%
X46100000Y-536500000D03*
%TO.P,J9,6*%
%TO.N,OSFP00_TX4_N*%
X46750000Y-536500000D03*
%TO.P,J9,7*%
%TO.N,OSFP00_RX4_P*%
X47400000Y-536500000D03*
%TO.P,J9,8*%
%TO.N,OSFP00_RX4_N*%
X48050000Y-536500000D03*
%TD*%
%TO.P,J10,1*%
%TO.N,OSFP01_TX0_P*%
X56000000Y-536500000D03*
%TO.P,J10,2*%
%TO.N,OSFP01_TX0_N*%
X56650000Y-536500000D03*
%TO.P,J10,3*%
%TO.N,OSFP01_RX0_P*%
X57300000Y-536500000D03*
%TO.P,J10,4*%
%TO.N,OSFP01_RX0_N*%
X57950000Y-536500000D03*
%TO.P,J10,5*%
%TO.N,OSFP01_TX4_P*%
X58600000Y-536500000D03*
%TO.P,J10,6*%
%TO.N,OSFP01_TX4_N*%
X59250000Y-536500000D03*
%TO.P,J10,7*%
%TO.N,OSFP01_RX4_P*%
X59900000Y-536500000D03*
%TO.P,J10,8*%
%TO.N,OSFP01_RX4_N*%
X60550000Y-536500000D03*
%TD*%
%TO.P,J11,1*%
%TO.N,OSFP02_TX0_P*%
X68500000Y-536500000D03*
%TO.P,J11,2*%
%TO.N,OSFP02_TX0_N*%
X69150000Y-536500000D03*
%TO.P,J11,3*%
%TO.N,OSFP02_RX0_P*%
X69800000Y-536500000D03*
%TO.P,J11,4*%
%TO.N,OSFP02_RX0_N*%
X70450000Y-536500000D03*
%TO.P,J11,5*%
%TO.N,OSFP02_TX4_P*%
X71100000Y-536500000D03*
%TO.P,J11,6*%
%TO.N,OSFP02_TX4_N*%
X71750000Y-536500000D03*
%TO.P,J11,7*%
%TO.N,OSFP02_RX4_P*%
X72400000Y-536500000D03*
%TO.P,J11,8*%
%TO.N,OSFP02_RX4_N*%
X73050000Y-536500000D03*
%TD*%
%TO.P,J12,1*%
%TO.N,OSFP03_TX0_P*%
X81000000Y-536500000D03*
%TO.P,J12,2*%
%TO.N,OSFP03_TX0_N*%
X81650000Y-536500000D03*
%TO.P,J12,3*%
%TO.N,OSFP03_RX0_P*%
X82300000Y-536500000D03*
%TO.P,J12,4*%
%TO.N,OSFP03_RX0_N*%
X82950000Y-536500000D03*
%TO.P,J12,5*%
%TO.N,OSFP03_TX4_P*%
X83600000Y-536500000D03*
%TO.P,J12,6*%
%TO.N,OSFP03_TX4_N*%
X84250000Y-536500000D03*
%TO.P,J12,7*%
%TO.N,OSFP03_RX4_P*%
X84900000Y-536500000D03*
%TO.P,J12,8*%
%TO.N,OSFP03_RX4_N*%
X85550000Y-536500000D03*
%TD*%
%TO.P,J13,1*%
%TO.N,OSFP04_TX0_P*%
X93500000Y-536500000D03*
%TO.P,J13,2*%
%TO.N,OSFP04_TX0_N*%
X94150000Y-536500000D03*
%TO.P,J13,3*%
%TO.N,OSFP04_RX0_P*%
X94800000Y-536500000D03*
%TO.P,J13,4*%
%TO.N,OSFP04_RX0_N*%
X95450000Y-536500000D03*
%TO.P,J13,5*%
%TO.N,OSFP04_TX4_P*%
X96100000Y-536500000D03*
%TO.P,J13,6*%
%TO.N,OSFP04_TX4_N*%
X96750000Y-536500000D03*
%TO.P,J13,7*%
%TO.N,OSFP04_RX4_P*%
X97400000Y-536500000D03*
%TO.P,J13,8*%
%TO.N,OSFP04_RX4_N*%
X98050000Y-536500000D03*
%TD*%
%TO.P,J14,1*%
%TO.N,OSFP05_TX0_P*%
X106000000Y-536500000D03*
%TO.P,J14,2*%
%TO.N,OSFP05_TX0_N*%
X106650000Y-536500000D03*
%TO.P,J14,3*%
%TO.N,OSFP05_RX0_P*%
X107300000Y-536500000D03*
%TO.P,J14,4*%
%TO.N,OSFP05_RX0_N*%
X107950000Y-536500000D03*
%TO.P,J14,5*%
%TO.N,OSFP05_TX4_P*%
X108600000Y-536500000D03*
%TO.P,J14,6*%
%TO.N,OSFP05_TX4_N*%
X109250000Y-536500000D03*
%TO.P,J14,7*%
%TO.N,OSFP05_RX4_P*%
X109900000Y-536500000D03*
%TO.P,J14,8*%
%TO.N,OSFP05_RX4_N*%
X110550000Y-536500000D03*
%TD*%
%TO.P,J15,1*%
%TO.N,OSFP06_TX0_P*%
X118500000Y-536500000D03*
%TO.P,J15,2*%
%TO.N,OSFP06_TX0_N*%
X119150000Y-536500000D03*
%TO.P,J15,3*%
%TO.N,OSFP06_RX0_P*%
X119800000Y-536500000D03*
%TO.P,J15,4*%
%TO.N,OSFP06_RX0_N*%
X120450000Y-536500000D03*
%TO.P,J15,5*%
%TO.N,OSFP06_TX4_P*%
X121100000Y-536500000D03*
%TO.P,J15,6*%
%TO.N,OSFP06_TX4_N*%
X121750000Y-536500000D03*
%TO.P,J15,7*%
%TO.N,OSFP06_RX4_P*%
X122400000Y-536500000D03*
%TO.P,J15,8*%
%TO.N,OSFP06_RX4_N*%
X123050000Y-536500000D03*
%TD*%
%TO.P,J16,1*%
%TO.N,OSFP07_TX0_P*%
X131000000Y-536500000D03*
%TO.P,J16,2*%
%TO.N,OSFP07_TX0_N*%
X131650000Y-536500000D03*
%TO.P,J16,3*%
%TO.N,OSFP07_RX0_P*%
X132300000Y-536500000D03*
%TO.P,J16,4*%
%TO.N,OSFP07_RX0_N*%
X132950000Y-536500000D03*
%TO.P,J16,5*%
%TO.N,OSFP07_TX4_P*%
X133600000Y-536500000D03*
%TO.P,J16,6*%
%TO.N,OSFP07_TX4_N*%
X134250000Y-536500000D03*
%TO.P,J16,7*%
%TO.N,OSFP07_RX4_P*%
X134900000Y-536500000D03*
%TO.P,J16,8*%
%TO.N,OSFP07_RX4_N*%
X135550000Y-536500000D03*
%TD*%
%TO.P,J17,1*%
%TO.N,OSFP08_TX0_P*%
X43500000Y-522000000D03*
%TO.P,J17,2*%
%TO.N,OSFP08_TX0_N*%
X44150000Y-522000000D03*
%TO.P,J17,3*%
%TO.N,OSFP08_RX0_P*%
X44800000Y-522000000D03*
%TO.P,J17,4*%
%TO.N,OSFP08_RX0_N*%
X45450000Y-522000000D03*
%TO.P,J17,5*%
%TO.N,OSFP08_TX4_P*%
X46100000Y-522000000D03*
%TO.P,J17,6*%
%TO.N,OSFP08_TX4_N*%
X46750000Y-522000000D03*
%TO.P,J17,7*%
%TO.N,OSFP08_RX4_P*%
X47400000Y-522000000D03*
%TO.P,J17,8*%
%TO.N,OSFP08_RX4_N*%
X48050000Y-522000000D03*
%TD*%
%TO.P,J18,1*%
%TO.N,OSFP09_TX0_P*%
X56000000Y-522000000D03*
%TO.P,J18,2*%
%TO.N,OSFP09_TX0_N*%
X56650000Y-522000000D03*
%TO.P,J18,3*%
%TO.N,OSFP09_RX0_P*%
X57300000Y-522000000D03*
%TO.P,J18,4*%
%TO.N,OSFP09_RX0_N*%
X57950000Y-522000000D03*
%TO.P,J18,5*%
%TO.N,OSFP09_TX4_P*%
X58600000Y-522000000D03*
%TO.P,J18,6*%
%TO.N,OSFP09_TX4_N*%
X59250000Y-522000000D03*
%TO.P,J18,7*%
%TO.N,OSFP09_RX4_P*%
X59900000Y-522000000D03*
%TO.P,J18,8*%
%TO.N,OSFP09_RX4_N*%
X60550000Y-522000000D03*
%TD*%
%TO.P,J19,1*%
%TO.N,OSFP10_TX0_P*%
X68500000Y-522000000D03*
%TO.P,J19,2*%
%TO.N,OSFP10_TX0_N*%
X69150000Y-522000000D03*
%TO.P,J19,3*%
%TO.N,OSFP10_RX0_P*%
X69800000Y-522000000D03*
%TO.P,J19,4*%
%TO.N,OSFP10_RX0_N*%
X70450000Y-522000000D03*
%TO.P,J19,5*%
%TO.N,OSFP10_TX4_P*%
X71100000Y-522000000D03*
%TO.P,J19,6*%
%TO.N,OSFP10_TX4_N*%
X71750000Y-522000000D03*
%TO.P,J19,7*%
%TO.N,OSFP10_RX4_P*%
X72400000Y-522000000D03*
%TO.P,J19,8*%
%TO.N,OSFP10_RX4_N*%
X73050000Y-522000000D03*
%TD*%
%TO.P,J20,1*%
%TO.N,OSFP11_TX0_P*%
X81000000Y-522000000D03*
%TO.P,J20,2*%
%TO.N,OSFP11_TX0_N*%
X81650000Y-522000000D03*
%TO.P,J20,3*%
%TO.N,OSFP11_RX0_P*%
X82300000Y-522000000D03*
%TO.P,J20,4*%
%TO.N,OSFP11_RX0_N*%
X82950000Y-522000000D03*
%TO.P,J20,5*%
%TO.N,OSFP11_TX4_P*%
X83600000Y-522000000D03*
%TO.P,J20,6*%
%TO.N,OSFP11_TX4_N*%
X84250000Y-522000000D03*
%TO.P,J20,7*%
%TO.N,OSFP11_RX4_P*%
X84900000Y-522000000D03*
%TO.P,J20,8*%
%TO.N,OSFP11_RX4_N*%
X85550000Y-522000000D03*
%TD*%
%TO.P,J21,1*%
%TO.N,OSFP12_TX0_P*%
X93500000Y-522000000D03*
%TO.P,J21,2*%
%TO.N,OSFP12_TX0_N*%
X94150000Y-522000000D03*
%TO.P,J21,3*%
%TO.N,OSFP12_RX0_P*%
X94800000Y-522000000D03*
%TO.P,J21,4*%
%TO.N,OSFP12_RX0_N*%
X95450000Y-522000000D03*
%TO.P,J21,5*%
%TO.N,OSFP12_TX4_P*%
X96100000Y-522000000D03*
%TO.P,J21,6*%
%TO.N,OSFP12_TX4_N*%
X96750000Y-522000000D03*
%TO.P,J21,7*%
%TO.N,OSFP12_RX4_P*%
X97400000Y-522000000D03*
%TO.P,J21,8*%
%TO.N,OSFP12_RX4_N*%
X98050000Y-522000000D03*
%TD*%
%TO.P,J22,1*%
%TO.N,OSFP13_TX0_P*%
X106000000Y-522000000D03*
%TO.P,J22,2*%
%TO.N,OSFP13_TX0_N*%
X106650000Y-522000000D03*
%TO.P,J22,3*%
%TO.N,OSFP13_RX0_P*%
X107300000Y-522000000D03*
%TO.P,J22,4*%
%TO.N,OSFP13_RX0_N*%
X107950000Y-522000000D03*
%TO.P,J22,5*%
%TO.N,OSFP13_TX4_P*%
X108600000Y-522000000D03*
%TO.P,J22,6*%
%TO.N,OSFP13_TX4_N*%
X109250000Y-522000000D03*
%TO.P,J22,7*%
%TO.N,OSFP13_RX4_P*%
X109900000Y-522000000D03*
%TO.P,J22,8*%
%TO.N,OSFP13_RX4_N*%
X110550000Y-522000000D03*
%TD*%
%TO.P,J23,1*%
%TO.N,OSFP14_TX0_P*%
X118500000Y-522000000D03*
%TO.P,J23,2*%
%TO.N,OSFP14_TX0_N*%
X119150000Y-522000000D03*
%TO.P,J23,3*%
%TO.N,OSFP14_RX0_P*%
X119800000Y-522000000D03*
%TO.P,J23,4*%
%TO.N,OSFP14_RX0_N*%
X120450000Y-522000000D03*
%TO.P,J23,5*%
%TO.N,OSFP14_TX4_P*%
X121100000Y-522000000D03*
%TO.P,J23,6*%
%TO.N,OSFP14_TX4_N*%
X121750000Y-522000000D03*
%TO.P,J23,7*%
%TO.N,OSFP14_RX4_P*%
X122400000Y-522000000D03*
%TO.P,J23,8*%
%TO.N,OSFP14_RX4_N*%
X123050000Y-522000000D03*
%TD*%
%TO.P,J24,1*%
%TO.N,OSFP15_TX0_P*%
X131000000Y-522000000D03*
%TO.P,J24,2*%
%TO.N,OSFP15_TX0_N*%
X131650000Y-522000000D03*
%TO.P,J24,3*%
%TO.N,OSFP15_RX0_P*%
X132300000Y-522000000D03*
%TO.P,J24,4*%
%TO.N,OSFP15_RX0_N*%
X132950000Y-522000000D03*
%TO.P,J24,5*%
%TO.N,OSFP15_TX4_P*%
X133600000Y-522000000D03*
%TO.P,J24,6*%
%TO.N,OSFP15_TX4_N*%
X134250000Y-522000000D03*
%TO.P,J24,7*%
%TO.N,OSFP15_RX4_P*%
X134900000Y-522000000D03*
%TO.P,J24,8*%
%TO.N,OSFP15_RX4_N*%
X135550000Y-522000000D03*
%TD*%
%TO.P,J25,1*%
%TO.N,OSFP16_TX0_P*%
X340000000Y-536500000D03*
%TO.P,J25,2*%
%TO.N,OSFP16_TX0_N*%
X340650000Y-536500000D03*
%TO.P,J25,3*%
%TO.N,OSFP16_RX0_P*%
X341300000Y-536500000D03*
%TO.P,J25,4*%
%TO.N,OSFP16_RX0_N*%
X341950000Y-536500000D03*
%TO.P,J25,5*%
%TO.N,OSFP16_TX4_P*%
X342600000Y-536500000D03*
%TO.P,J25,6*%
%TO.N,OSFP16_TX4_N*%
X343250000Y-536500000D03*
%TO.P,J25,7*%
%TO.N,OSFP16_RX4_P*%
X343900000Y-536500000D03*
%TO.P,J25,8*%
%TO.N,OSFP16_RX4_N*%
X344550000Y-536500000D03*
%TD*%
%TO.P,J26,1*%
%TO.N,OSFP17_TX0_P*%
X352500000Y-536500000D03*
%TO.P,J26,2*%
%TO.N,OSFP17_TX0_N*%
X353150000Y-536500000D03*
%TO.P,J26,3*%
%TO.N,OSFP17_RX0_P*%
X353800000Y-536500000D03*
%TO.P,J26,4*%
%TO.N,OSFP17_RX0_N*%
X354450000Y-536500000D03*
%TO.P,J26,5*%
%TO.N,OSFP17_TX4_P*%
X355100000Y-536500000D03*
%TO.P,J26,6*%
%TO.N,OSFP17_TX4_N*%
X355750000Y-536500000D03*
%TO.P,J26,7*%
%TO.N,OSFP17_RX4_P*%
X356400000Y-536500000D03*
%TO.P,J26,8*%
%TO.N,OSFP17_RX4_N*%
X357050000Y-536500000D03*
%TD*%
%TO.P,J27,1*%
%TO.N,OSFP18_TX0_P*%
X365000000Y-536500000D03*
%TO.P,J27,2*%
%TO.N,OSFP18_TX0_N*%
X365650000Y-536500000D03*
%TO.P,J27,3*%
%TO.N,OSFP18_RX0_P*%
X366300000Y-536500000D03*
%TO.P,J27,4*%
%TO.N,OSFP18_RX0_N*%
X366950000Y-536500000D03*
%TO.P,J27,5*%
%TO.N,OSFP18_TX4_P*%
X367600000Y-536500000D03*
%TO.P,J27,6*%
%TO.N,OSFP18_TX4_N*%
X368250000Y-536500000D03*
%TO.P,J27,7*%
%TO.N,OSFP18_RX4_P*%
X368900000Y-536500000D03*
%TO.P,J27,8*%
%TO.N,OSFP18_RX4_N*%
X369550000Y-536500000D03*
%TD*%
%TO.P,J28,1*%
%TO.N,OSFP19_TX0_P*%
X377500000Y-536500000D03*
%TO.P,J28,2*%
%TO.N,OSFP19_TX0_N*%
X378150000Y-536500000D03*
%TO.P,J28,3*%
%TO.N,OSFP19_RX0_P*%
X378800000Y-536500000D03*
%TO.P,J28,4*%
%TO.N,OSFP19_RX0_N*%
X379450000Y-536500000D03*
%TO.P,J28,5*%
%TO.N,OSFP19_TX4_P*%
X380100000Y-536500000D03*
%TO.P,J28,6*%
%TO.N,OSFP19_TX4_N*%
X380750000Y-536500000D03*
%TO.P,J28,7*%
%TO.N,OSFP19_RX4_P*%
X381400000Y-536500000D03*
%TO.P,J28,8*%
%TO.N,OSFP19_RX4_N*%
X382050000Y-536500000D03*
%TD*%
%TO.P,J29,1*%
%TO.N,OSFP20_TX0_P*%
X390000000Y-536500000D03*
%TO.P,J29,2*%
%TO.N,OSFP20_TX0_N*%
X390650000Y-536500000D03*
%TO.P,J29,3*%
%TO.N,OSFP20_RX0_P*%
X391300000Y-536500000D03*
%TO.P,J29,4*%
%TO.N,OSFP20_RX0_N*%
X391950000Y-536500000D03*
%TO.P,J29,5*%
%TO.N,OSFP20_TX4_P*%
X392600000Y-536500000D03*
%TO.P,J29,6*%
%TO.N,OSFP20_TX4_N*%
X393250000Y-536500000D03*
%TO.P,J29,7*%
%TO.N,OSFP20_RX4_P*%
X393900000Y-536500000D03*
%TO.P,J29,8*%
%TO.N,OSFP20_RX4_N*%
X394550000Y-536500000D03*
%TD*%
%TO.P,J30,1*%
%TO.N,OSFP21_TX0_P*%
X402500000Y-536500000D03*
%TO.P,J30,2*%
%TO.N,OSFP21_TX0_N*%
X403150000Y-536500000D03*
%TO.P,J30,3*%
%TO.N,OSFP21_RX0_P*%
X403800000Y-536500000D03*
%TO.P,J30,4*%
%TO.N,OSFP21_RX0_N*%
X404450000Y-536500000D03*
%TO.P,J30,5*%
%TO.N,OSFP21_TX4_P*%
X405100000Y-536500000D03*
%TO.P,J30,6*%
%TO.N,OSFP21_TX4_N*%
X405750000Y-536500000D03*
%TO.P,J30,7*%
%TO.N,OSFP21_RX4_P*%
X406400000Y-536500000D03*
%TO.P,J30,8*%
%TO.N,OSFP21_RX4_N*%
X407050000Y-536500000D03*
%TD*%
%TO.P,J31,1*%
%TO.N,OSFP22_TX0_P*%
X415000000Y-536500000D03*
%TO.P,J31,2*%
%TO.N,OSFP22_TX0_N*%
X415650000Y-536500000D03*
%TO.P,J31,3*%
%TO.N,OSFP22_RX0_P*%
X416300000Y-536500000D03*
%TO.P,J31,4*%
%TO.N,OSFP22_RX0_N*%
X416950000Y-536500000D03*
%TO.P,J31,5*%
%TO.N,OSFP22_TX4_P*%
X417600000Y-536500000D03*
%TO.P,J31,6*%
%TO.N,OSFP22_TX4_N*%
X418250000Y-536500000D03*
%TO.P,J31,7*%
%TO.N,OSFP22_RX4_P*%
X418900000Y-536500000D03*
%TO.P,J31,8*%
%TO.N,OSFP22_RX4_N*%
X419550000Y-536500000D03*
%TD*%
%TO.P,J32,1*%
%TO.N,OSFP23_TX0_P*%
X427500000Y-536500000D03*
%TO.P,J32,2*%
%TO.N,OSFP23_TX0_N*%
X428150000Y-536500000D03*
%TO.P,J32,3*%
%TO.N,OSFP23_RX0_P*%
X428800000Y-536500000D03*
%TO.P,J32,4*%
%TO.N,OSFP23_RX0_N*%
X429450000Y-536500000D03*
%TO.P,J32,5*%
%TO.N,OSFP23_TX4_P*%
X430100000Y-536500000D03*
%TO.P,J32,6*%
%TO.N,OSFP23_TX4_N*%
X430750000Y-536500000D03*
%TO.P,J32,7*%
%TO.N,OSFP23_RX4_P*%
X431400000Y-536500000D03*
%TO.P,J32,8*%
%TO.N,OSFP23_RX4_N*%
X432050000Y-536500000D03*
%TD*%
%TO.P,J33,1*%
%TO.N,OSFP24_TX0_P*%
X340000000Y-522000000D03*
%TO.P,J33,2*%
%TO.N,OSFP24_TX0_N*%
X340650000Y-522000000D03*
%TO.P,J33,3*%
%TO.N,OSFP24_RX0_P*%
X341300000Y-522000000D03*
%TO.P,J33,4*%
%TO.N,OSFP24_RX0_N*%
X341950000Y-522000000D03*
%TO.P,J33,5*%
%TO.N,OSFP24_TX4_P*%
X342600000Y-522000000D03*
%TO.P,J33,6*%
%TO.N,OSFP24_TX4_N*%
X343250000Y-522000000D03*
%TO.P,J33,7*%
%TO.N,OSFP24_RX4_P*%
X343900000Y-522000000D03*
%TO.P,J33,8*%
%TO.N,OSFP24_RX4_N*%
X344550000Y-522000000D03*
%TD*%
%TO.P,J34,1*%
%TO.N,OSFP25_TX0_P*%
X352500000Y-522000000D03*
%TO.P,J34,2*%
%TO.N,OSFP25_TX0_N*%
X353150000Y-522000000D03*
%TO.P,J34,3*%
%TO.N,OSFP25_RX0_P*%
X353800000Y-522000000D03*
%TO.P,J34,4*%
%TO.N,OSFP25_RX0_N*%
X354450000Y-522000000D03*
%TO.P,J34,5*%
%TO.N,OSFP25_TX4_P*%
X355100000Y-522000000D03*
%TO.P,J34,6*%
%TO.N,OSFP25_TX4_N*%
X355750000Y-522000000D03*
%TO.P,J34,7*%
%TO.N,OSFP25_RX4_P*%
X356400000Y-522000000D03*
%TO.P,J34,8*%
%TO.N,OSFP25_RX4_N*%
X357050000Y-522000000D03*
%TD*%
%TO.P,J35,1*%
%TO.N,OSFP26_TX0_P*%
X365000000Y-522000000D03*
%TO.P,J35,2*%
%TO.N,OSFP26_TX0_N*%
X365650000Y-522000000D03*
%TO.P,J35,3*%
%TO.N,OSFP26_RX0_P*%
X366300000Y-522000000D03*
%TO.P,J35,4*%
%TO.N,OSFP26_RX0_N*%
X366950000Y-522000000D03*
%TO.P,J35,5*%
%TO.N,OSFP26_TX4_P*%
X367600000Y-522000000D03*
%TO.P,J35,6*%
%TO.N,OSFP26_TX4_N*%
X368250000Y-522000000D03*
%TO.P,J35,7*%
%TO.N,OSFP26_RX4_P*%
X368900000Y-522000000D03*
%TO.P,J35,8*%
%TO.N,OSFP26_RX4_N*%
X369550000Y-522000000D03*
%TD*%
%TO.P,J36,1*%
%TO.N,OSFP27_TX0_P*%
X377500000Y-522000000D03*
%TO.P,J36,2*%
%TO.N,OSFP27_TX0_N*%
X378150000Y-522000000D03*
%TO.P,J36,3*%
%TO.N,OSFP27_RX0_P*%
X378800000Y-522000000D03*
%TO.P,J36,4*%
%TO.N,OSFP27_RX0_N*%
X379450000Y-522000000D03*
%TO.P,J36,5*%
%TO.N,OSFP27_TX4_P*%
X380100000Y-522000000D03*
%TO.P,J36,6*%
%TO.N,OSFP27_TX4_N*%
X380750000Y-522000000D03*
%TO.P,J36,7*%
%TO.N,OSFP27_RX4_P*%
X381400000Y-522000000D03*
%TO.P,J36,8*%
%TO.N,OSFP27_RX4_N*%
X382050000Y-522000000D03*
%TD*%
%TO.P,J37,1*%
%TO.N,OSFP28_TX0_P*%
X390000000Y-522000000D03*
%TO.P,J37,2*%
%TO.N,OSFP28_TX0_N*%
X390650000Y-522000000D03*
%TO.P,J37,3*%
%TO.N,OSFP28_RX0_P*%
X391300000Y-522000000D03*
%TO.P,J37,4*%
%TO.N,OSFP28_RX0_N*%
X391950000Y-522000000D03*
%TO.P,J37,5*%
%TO.N,OSFP28_TX4_P*%
X392600000Y-522000000D03*
%TO.P,J37,6*%
%TO.N,OSFP28_TX4_N*%
X393250000Y-522000000D03*
%TO.P,J37,7*%
%TO.N,OSFP28_RX4_P*%
X393900000Y-522000000D03*
%TO.P,J37,8*%
%TO.N,OSFP28_RX4_N*%
X394550000Y-522000000D03*
%TD*%
%TO.P,J38,1*%
%TO.N,OSFP29_TX0_P*%
X402500000Y-522000000D03*
%TO.P,J38,2*%
%TO.N,OSFP29_TX0_N*%
X403150000Y-522000000D03*
%TO.P,J38,3*%
%TO.N,OSFP29_RX0_P*%
X403800000Y-522000000D03*
%TO.P,J38,4*%
%TO.N,OSFP29_RX0_N*%
X404450000Y-522000000D03*
%TO.P,J38,5*%
%TO.N,OSFP29_TX4_P*%
X405100000Y-522000000D03*
%TO.P,J38,6*%
%TO.N,OSFP29_TX4_N*%
X405750000Y-522000000D03*
%TO.P,J38,7*%
%TO.N,OSFP29_RX4_P*%
X406400000Y-522000000D03*
%TO.P,J38,8*%
%TO.N,OSFP29_RX4_N*%
X407050000Y-522000000D03*
%TD*%
%TO.P,J39,1*%
%TO.N,OSFP30_TX0_P*%
X415000000Y-522000000D03*
%TO.P,J39,2*%
%TO.N,OSFP30_TX0_N*%
X415650000Y-522000000D03*
%TO.P,J39,3*%
%TO.N,OSFP30_RX0_P*%
X416300000Y-522000000D03*
%TO.P,J39,4*%
%TO.N,OSFP30_RX0_N*%
X416950000Y-522000000D03*
%TO.P,J39,5*%
%TO.N,OSFP30_TX4_P*%
X417600000Y-522000000D03*
%TO.P,J39,6*%
%TO.N,OSFP30_TX4_N*%
X418250000Y-522000000D03*
%TO.P,J39,7*%
%TO.N,OSFP30_RX4_P*%
X418900000Y-522000000D03*
%TO.P,J39,8*%
%TO.N,OSFP30_RX4_N*%
X419550000Y-522000000D03*
%TD*%
%TO.P,J40,1*%
%TO.N,OSFP31_TX0_P*%
X427500000Y-522000000D03*
%TO.P,J40,2*%
%TO.N,OSFP31_TX0_N*%
X428150000Y-522000000D03*
%TO.P,J40,3*%
%TO.N,OSFP31_RX0_P*%
X428800000Y-522000000D03*
%TO.P,J40,4*%
%TO.N,OSFP31_RX0_N*%
X429450000Y-522000000D03*
%TO.P,J40,5*%
%TO.N,OSFP31_TX4_P*%
X430100000Y-522000000D03*
%TO.P,J40,6*%
%TO.N,OSFP31_TX4_N*%
X430750000Y-522000000D03*
%TO.P,J40,7*%
%TO.N,OSFP31_RX4_P*%
X431400000Y-522000000D03*
%TO.P,J40,8*%
%TO.N,OSFP31_RX4_N*%
X432050000Y-522000000D03*
%TD*%
D14*
%TO.P,J41,1*%
%TO.N,MGMT_TX_P*%
X449000000Y-552000000D03*
%TO.P,J41,2*%
X451000000Y-552000000D03*
%TO.P,J41,3*%
X453000000Y-552000000D03*
%TO.P,J41,4*%
X455000000Y-552000000D03*
%TO.P,J41,5*%
X457000000Y-552000000D03*
%TO.P,J41,6*%
X459000000Y-552000000D03*
%TO.P,J41,7*%
X461000000Y-552000000D03*
%TO.P,J41,8*%
X463000000Y-552000000D03*
%TD*%
D15*
%TO.P,J42,1*%
%TO.N,MGMT_USB_DP*%
X453000000Y-535000000D03*
%TO.P,J42,2*%
X455000000Y-535000000D03*
%TO.P,J42,3*%
X457000000Y-535000000D03*
%TO.P,J42,4*%
X459000000Y-535000000D03*
%TD*%
D14*
%TO.P,J43,1*%
%TO.N,CONSOLE_TX*%
X449000000Y-518000000D03*
%TO.P,J43,2*%
X451000000Y-518000000D03*
%TO.P,J43,3*%
X453000000Y-518000000D03*
%TO.P,J43,4*%
X455000000Y-518000000D03*
%TO.P,J43,5*%
X457000000Y-518000000D03*
%TO.P,J43,6*%
X459000000Y-518000000D03*
%TO.P,J43,7*%
X461000000Y-518000000D03*
%TO.P,J43,8*%
X463000000Y-518000000D03*
%TD*%
D16*
%TO.P,J44,1*%
%TO.N,V_PSU_12V_A*%
X84000000Y-32000000D03*
%TO.P,J44,2*%
X87000000Y-32000000D03*
%TO.P,J44,3*%
X90000000Y-32000000D03*
%TO.P,J44,4*%
X93000000Y-32000000D03*
%TO.P,J44,5*%
X96000000Y-32000000D03*
%TO.P,J44,6*%
X99000000Y-32000000D03*
%TO.P,J44,7*%
X102000000Y-32000000D03*
%TO.P,J44,8*%
X105000000Y-32000000D03*
%TO.P,J44,9*%
X108000000Y-32000000D03*
%TO.P,J44,10*%
X111000000Y-32000000D03*
%TO.P,J44,11*%
X114000000Y-32000000D03*
%TO.P,J44,12*%
X117000000Y-32000000D03*
%TO.P,J44,13*%
X84000000Y-38000000D03*
%TO.P,J44,14*%
X87000000Y-38000000D03*
%TO.P,J44,15*%
X90000000Y-38000000D03*
%TO.P,J44,16*%
X93000000Y-38000000D03*
%TO.P,J44,17*%
X96000000Y-38000000D03*
%TO.P,J44,18*%
X99000000Y-38000000D03*
%TO.P,J44,19*%
X102000000Y-38000000D03*
%TO.P,J44,20*%
X105000000Y-38000000D03*
%TO.P,J44,21*%
X108000000Y-38000000D03*
%TO.P,J44,22*%
X111000000Y-38000000D03*
%TO.P,J44,23*%
X114000000Y-38000000D03*
%TO.P,J44,24*%
X117000000Y-38000000D03*
D17*
%TO.P,J44,25*%
%TO.N,PSU_PWR_GOOD_B*%
X86000000Y-28000000D03*
%TO.P,J44,26*%
X88000000Y-28000000D03*
%TO.P,J44,27*%
X90000000Y-28000000D03*
%TO.P,J44,28*%
X92000000Y-28000000D03*
%TO.P,J44,29*%
X94000000Y-28000000D03*
%TO.P,J44,30*%
X96000000Y-28000000D03*
%TO.P,J44,31*%
X98000000Y-28000000D03*
%TO.P,J44,32*%
X100000000Y-28000000D03*
%TO.P,J44,33*%
X102000000Y-28000000D03*
%TO.P,J44,34*%
X104000000Y-28000000D03*
%TO.P,J44,35*%
X106000000Y-28000000D03*
%TO.P,J44,36*%
X108000000Y-28000000D03*
%TO.P,J44,37*%
X110000000Y-28000000D03*
%TO.P,J44,38*%
X112000000Y-28000000D03*
%TO.P,J44,39*%
X114000000Y-28000000D03*
%TO.P,J44,40*%
X86000000Y-28000000D03*
%TO.P,J44,41*%
X88000000Y-28000000D03*
%TO.P,J44,42*%
X90000000Y-28000000D03*
%TO.P,J44,43*%
X92000000Y-28000000D03*
%TO.P,J44,44*%
X94000000Y-28000000D03*
%TO.P,J44,45*%
X96000000Y-28000000D03*
%TO.P,J44,46*%
X98000000Y-28000000D03*
%TO.P,J44,47*%
X100000000Y-28000000D03*
%TO.P,J44,48*%
X102000000Y-28000000D03*
%TO.P,J44,49*%
X104000000Y-28000000D03*
%TO.P,J44,50*%
X106000000Y-28000000D03*
%TO.P,J44,51*%
X108000000Y-28000000D03*
%TO.P,J44,52*%
X110000000Y-28000000D03*
%TO.P,J44,53*%
X112000000Y-28000000D03*
%TO.P,J44,54*%
X114000000Y-28000000D03*
%TD*%
D16*
%TO.P,J45,1*%
%TO.N,V_PSU_12V_B*%
X384000000Y-32000000D03*
%TO.P,J45,2*%
X387000000Y-32000000D03*
%TO.P,J45,3*%
X390000000Y-32000000D03*
%TO.P,J45,4*%
X393000000Y-32000000D03*
%TO.P,J45,5*%
X396000000Y-32000000D03*
%TO.P,J45,6*%
X399000000Y-32000000D03*
%TO.P,J45,7*%
X402000000Y-32000000D03*
%TO.P,J45,8*%
X405000000Y-32000000D03*
%TO.P,J45,9*%
X408000000Y-32000000D03*
%TO.P,J45,10*%
X411000000Y-32000000D03*
%TO.P,J45,11*%
X414000000Y-32000000D03*
%TO.P,J45,12*%
X417000000Y-32000000D03*
%TO.P,J45,13*%
X384000000Y-38000000D03*
%TO.P,J45,14*%
X387000000Y-38000000D03*
%TO.P,J45,15*%
X390000000Y-38000000D03*
%TO.P,J45,16*%
X393000000Y-38000000D03*
%TO.P,J45,17*%
X396000000Y-38000000D03*
%TO.P,J45,18*%
X399000000Y-38000000D03*
%TO.P,J45,19*%
X402000000Y-38000000D03*
%TO.P,J45,20*%
X405000000Y-38000000D03*
%TO.P,J45,21*%
X408000000Y-38000000D03*
%TO.P,J45,22*%
X411000000Y-38000000D03*
%TO.P,J45,23*%
X414000000Y-38000000D03*
%TO.P,J45,24*%
X417000000Y-38000000D03*
D17*
%TO.P,J45,25*%
%TO.N,PSU_PWR_GOOD_B*%
X386000000Y-28000000D03*
%TO.P,J45,26*%
X388000000Y-28000000D03*
%TO.P,J45,27*%
X390000000Y-28000000D03*
%TO.P,J45,28*%
X392000000Y-28000000D03*
%TO.P,J45,29*%
X394000000Y-28000000D03*
%TO.P,J45,30*%
X396000000Y-28000000D03*
%TO.P,J45,31*%
X398000000Y-28000000D03*
%TO.P,J45,32*%
X400000000Y-28000000D03*
%TO.P,J45,33*%
X402000000Y-28000000D03*
%TO.P,J45,34*%
X404000000Y-28000000D03*
%TO.P,J45,35*%
X406000000Y-28000000D03*
%TO.P,J45,36*%
X408000000Y-28000000D03*
%TO.P,J45,37*%
X410000000Y-28000000D03*
%TO.P,J45,38*%
X412000000Y-28000000D03*
%TO.P,J45,39*%
X414000000Y-28000000D03*
%TO.P,J45,40*%
X386000000Y-28000000D03*
%TO.P,J45,41*%
X388000000Y-28000000D03*
%TO.P,J45,42*%
X390000000Y-28000000D03*
%TO.P,J45,43*%
X392000000Y-28000000D03*
%TO.P,J45,44*%
X394000000Y-28000000D03*
%TO.P,J45,45*%
X396000000Y-28000000D03*
%TO.P,J45,46*%
X398000000Y-28000000D03*
%TO.P,J45,47*%
X400000000Y-28000000D03*
%TO.P,J45,48*%
X402000000Y-28000000D03*
%TO.P,J45,49*%
X404000000Y-28000000D03*
%TO.P,J45,50*%
X406000000Y-28000000D03*
%TO.P,J45,51*%
X408000000Y-28000000D03*
%TO.P,J45,52*%
X410000000Y-28000000D03*
%TO.P,J45,53*%
X412000000Y-28000000D03*
%TO.P,J45,54*%
X414000000Y-28000000D03*
%TD*%
D18*
%TO.P,J46,1*%
%TO.N,FAN_PWM_0*%
X95000000Y-58000000D03*
%TO.P,J46,2*%
X97000000Y-58000000D03*
%TO.P,J46,3*%
X99000000Y-58000000D03*
%TO.P,J46,4*%
X101000000Y-58000000D03*
%TO.P,J46,5*%
X103000000Y-58000000D03*
%TO.P,J46,6*%
X105000000Y-58000000D03*
%TD*%
%TO.P,J47,1*%
%TO.N,FAN_PWM_1*%
X145000000Y-58000000D03*
%TO.P,J47,2*%
X147000000Y-58000000D03*
%TO.P,J47,3*%
X149000000Y-58000000D03*
%TO.P,J47,4*%
X151000000Y-58000000D03*
%TO.P,J47,5*%
X153000000Y-58000000D03*
%TO.P,J47,6*%
X155000000Y-58000000D03*
%TD*%
%TO.P,J48,1*%
%TO.N,FAN_PWM_2*%
X195000000Y-58000000D03*
%TO.P,J48,2*%
X197000000Y-58000000D03*
%TO.P,J48,3*%
X199000000Y-58000000D03*
%TO.P,J48,4*%
X201000000Y-58000000D03*
%TO.P,J48,5*%
X203000000Y-58000000D03*
%TO.P,J48,6*%
X205000000Y-58000000D03*
%TD*%
%TO.P,J49,1*%
%TO.N,FAN_PWM_3*%
X245000000Y-58000000D03*
%TO.P,J49,2*%
X247000000Y-58000000D03*
%TO.P,J49,3*%
X249000000Y-58000000D03*
%TO.P,J49,4*%
X251000000Y-58000000D03*
%TO.P,J49,5*%
X253000000Y-58000000D03*
%TO.P,J49,6*%
X255000000Y-58000000D03*
%TD*%
%TO.P,J50,1*%
%TO.N,FAN_PWM_4*%
X295000000Y-58000000D03*
%TO.P,J50,2*%
X297000000Y-58000000D03*
%TO.P,J50,3*%
X299000000Y-58000000D03*
%TO.P,J50,4*%
X301000000Y-58000000D03*
%TO.P,J50,5*%
X303000000Y-58000000D03*
%TO.P,J50,6*%
X305000000Y-58000000D03*
%TD*%
%TO.P,J51,1*%
%TO.N,FAN_PWM_5*%
X345000000Y-58000000D03*
%TO.P,J51,2*%
X347000000Y-58000000D03*
%TO.P,J51,3*%
X349000000Y-58000000D03*
%TO.P,J51,4*%
X351000000Y-58000000D03*
%TO.P,J51,5*%
X353000000Y-58000000D03*
%TO.P,J51,6*%
X355000000Y-58000000D03*
%TD*%
%TO.P,J52,1*%
%TO.N,FAN_PWM_6*%
X395000000Y-58000000D03*
%TO.P,J52,2*%
X397000000Y-58000000D03*
%TO.P,J52,3*%
X399000000Y-58000000D03*
%TO.P,J52,4*%
X401000000Y-58000000D03*
%TO.P,J52,5*%
X403000000Y-58000000D03*
%TO.P,J52,6*%
X405000000Y-58000000D03*
%TD*%
D19*
%TO.P,U201,VIN*%
%TO.N,V_PSU_12V_A*%
X218000000Y-237000000D03*
%TO.P,U201,VOUT*%
%TO.N,V_ASIC_0V85*%
X222000000Y-237000000D03*
D20*
%TO.P,U201,GND*%
%TO.N,GND*%
X220000000Y-241000000D03*
%TD*%
D19*
%TO.P,U202,VIN*%
%TO.N,V_PSU_12V_A*%
X230000000Y-237000000D03*
%TO.P,U202,VOUT*%
%TO.N,V_ASIC_0V85*%
X234000000Y-237000000D03*
D20*
%TO.P,U202,GND*%
%TO.N,GND*%
X232000000Y-241000000D03*
%TD*%
D19*
%TO.P,U203,VIN*%
%TO.N,V_PSU_12V_A*%
X242000000Y-237000000D03*
%TO.P,U203,VOUT*%
%TO.N,V_ASIC_0V85*%
X246000000Y-237000000D03*
D20*
%TO.P,U203,GND*%
%TO.N,GND*%
X244000000Y-241000000D03*
%TD*%
D19*
%TO.P,U204,VIN*%
%TO.N,V_PSU_12V_A*%
X254000000Y-237000000D03*
%TO.P,U204,VOUT*%
%TO.N,V_ASIC_0V85*%
X258000000Y-237000000D03*
D20*
%TO.P,U204,GND*%
%TO.N,GND*%
X256000000Y-241000000D03*
%TD*%
D19*
%TO.P,U205,VIN*%
%TO.N,V_PSU_12V_A*%
X266000000Y-237000000D03*
%TO.P,U205,VOUT*%
%TO.N,V_ASIC_0V85*%
X270000000Y-237000000D03*
D20*
%TO.P,U205,GND*%
%TO.N,GND*%
X268000000Y-241000000D03*
%TD*%
D19*
%TO.P,U206,VIN*%
%TO.N,V_PSU_12V_A*%
X278000000Y-237000000D03*
%TO.P,U206,VOUT*%
%TO.N,V_ASIC_0V85*%
X282000000Y-237000000D03*
D20*
%TO.P,U206,GND*%
%TO.N,GND*%
X280000000Y-241000000D03*
%TD*%
D19*
%TO.P,U207,VIN*%
%TO.N,V_PSU_12V_A*%
X218000000Y-349000000D03*
%TO.P,U207,VOUT*%
%TO.N,V_ASIC_0V85*%
X222000000Y-349000000D03*
D20*
%TO.P,U207,GND*%
%TO.N,GND*%
X220000000Y-353000000D03*
%TD*%
D19*
%TO.P,U208,VIN*%
%TO.N,V_PSU_12V_A*%
X230000000Y-349000000D03*
%TO.P,U208,VOUT*%
%TO.N,V_ASIC_0V85*%
X234000000Y-349000000D03*
D20*
%TO.P,U208,GND*%
%TO.N,GND*%
X232000000Y-353000000D03*
%TD*%
D19*
%TO.P,U209,VIN*%
%TO.N,V_PSU_12V_A*%
X242000000Y-349000000D03*
%TO.P,U209,VOUT*%
%TO.N,V_ASIC_0V85*%
X246000000Y-349000000D03*
D20*
%TO.P,U209,GND*%
%TO.N,GND*%
X244000000Y-353000000D03*
%TD*%
D19*
%TO.P,U210,VIN*%
%TO.N,V_PSU_12V_A*%
X254000000Y-349000000D03*
%TO.P,U210,VOUT*%
%TO.N,V_ASIC_0V85*%
X258000000Y-349000000D03*
D20*
%TO.P,U210,GND*%
%TO.N,GND*%
X256000000Y-353000000D03*
%TD*%
D19*
%TO.P,U211,VIN*%
%TO.N,V_PSU_12V_A*%
X266000000Y-349000000D03*
%TO.P,U211,VOUT*%
%TO.N,V_ASIC_0V85*%
X270000000Y-349000000D03*
D20*
%TO.P,U211,GND*%
%TO.N,GND*%
X268000000Y-353000000D03*
%TD*%
D19*
%TO.P,U212,VIN*%
%TO.N,V_PSU_12V_A*%
X278000000Y-349000000D03*
%TO.P,U212,VOUT*%
%TO.N,V_ASIC_0V85*%
X282000000Y-349000000D03*
D20*
%TO.P,U212,GND*%
%TO.N,GND*%
X280000000Y-353000000D03*
%TD*%
D19*
%TO.P,U213,VIN*%
%TO.N,V_PSU_12V_A*%
X192000000Y-267000000D03*
%TO.P,U213,VOUT*%
%TO.N,V_ASIC_0V85*%
X192000000Y-263000000D03*
D20*
%TO.P,U213,GND*%
%TO.N,GND*%
X196000000Y-265000000D03*
%TD*%
D19*
%TO.P,U214,VIN*%
%TO.N,V_PSU_12V_A*%
X192000000Y-279000000D03*
%TO.P,U214,VOUT*%
%TO.N,V_ASIC_0V85*%
X192000000Y-275000000D03*
D20*
%TO.P,U214,GND*%
%TO.N,GND*%
X196000000Y-277000000D03*
%TD*%
D19*
%TO.P,U215,VIN*%
%TO.N,V_PSU_12V_A*%
X192000000Y-291000000D03*
%TO.P,U215,VOUT*%
%TO.N,V_ASIC_0V85*%
X192000000Y-287000000D03*
D20*
%TO.P,U215,GND*%
%TO.N,GND*%
X196000000Y-289000000D03*
%TD*%
D19*
%TO.P,U216,VIN*%
%TO.N,V_PSU_12V_A*%
X192000000Y-303000000D03*
%TO.P,U216,VOUT*%
%TO.N,V_ASIC_0V85*%
X192000000Y-299000000D03*
D20*
%TO.P,U216,GND*%
%TO.N,GND*%
X196000000Y-301000000D03*
%TD*%
D19*
%TO.P,U217,VIN*%
%TO.N,V_PSU_12V_A*%
X192000000Y-315000000D03*
%TO.P,U217,VOUT*%
%TO.N,V_ASIC_0V85*%
X192000000Y-311000000D03*
D20*
%TO.P,U217,GND*%
%TO.N,GND*%
X196000000Y-313000000D03*
%TD*%
D19*
%TO.P,U218,VIN*%
%TO.N,V_PSU_12V_A*%
X192000000Y-327000000D03*
%TO.P,U218,VOUT*%
%TO.N,V_ASIC_0V85*%
X192000000Y-323000000D03*
D20*
%TO.P,U218,GND*%
%TO.N,GND*%
X196000000Y-325000000D03*
%TD*%
D19*
%TO.P,U219,VIN*%
%TO.N,V_PSU_12V_A*%
X304000000Y-267000000D03*
%TO.P,U219,VOUT*%
%TO.N,V_ASIC_0V85*%
X304000000Y-263000000D03*
D20*
%TO.P,U219,GND*%
%TO.N,GND*%
X308000000Y-265000000D03*
%TD*%
D19*
%TO.P,U220,VIN*%
%TO.N,V_PSU_12V_A*%
X304000000Y-279000000D03*
%TO.P,U220,VOUT*%
%TO.N,V_ASIC_0V85*%
X304000000Y-275000000D03*
D20*
%TO.P,U220,GND*%
%TO.N,GND*%
X308000000Y-277000000D03*
%TD*%
D19*
%TO.P,U221,VIN*%
%TO.N,V_PSU_12V_A*%
X304000000Y-291000000D03*
%TO.P,U221,VOUT*%
%TO.N,V_ASIC_0V85*%
X304000000Y-287000000D03*
D20*
%TO.P,U221,GND*%
%TO.N,GND*%
X308000000Y-289000000D03*
%TD*%
D19*
%TO.P,U222,VIN*%
%TO.N,V_PSU_12V_A*%
X304000000Y-303000000D03*
%TO.P,U222,VOUT*%
%TO.N,V_ASIC_0V85*%
X304000000Y-299000000D03*
D20*
%TO.P,U222,GND*%
%TO.N,GND*%
X308000000Y-301000000D03*
%TD*%
D19*
%TO.P,U223,VIN*%
%TO.N,V_PSU_12V_A*%
X304000000Y-315000000D03*
%TO.P,U223,VOUT*%
%TO.N,V_ASIC_0V85*%
X304000000Y-311000000D03*
D20*
%TO.P,U223,GND*%
%TO.N,GND*%
X308000000Y-313000000D03*
%TD*%
D19*
%TO.P,U224,VIN*%
%TO.N,V_PSU_12V_A*%
X304000000Y-327000000D03*
%TO.P,U224,VOUT*%
%TO.N,V_ASIC_0V85*%
X304000000Y-323000000D03*
D20*
%TO.P,U224,GND*%
%TO.N,GND*%
X308000000Y-325000000D03*
%TD*%
D19*
%TO.P,U301,VIN*%
%TO.N,V_PSU_12V_A*%
X316677874Y-322618608D03*
%TO.P,U301,VOUT*%
%TO.N,V_OPT_1V2*%
X320373392Y-321087874D03*
D20*
%TO.P,U301,GND*%
%TO.N,GND*%
X320056367Y-325548759D03*
%TD*%
D19*
%TO.P,U302,VIN*%
%TO.N,V_PSU_12V_A*%
X276087874Y-365373392D03*
%TO.P,U302,VOUT*%
%TO.N,V_OPT_1V2*%
X277618608Y-361677874D03*
D20*
%TO.P,U302,GND*%
%TO.N,GND*%
X280548759Y-365056367D03*
%TD*%
D19*
%TO.P,U303,VIN*%
%TO.N,V_PSU_12V_A*%
X220216608Y-366904126D03*
%TO.P,U303,VOUT*%
%TO.N,V_OPT_1V2*%
X218685874Y-363208608D03*
D20*
%TO.P,U303,GND*%
%TO.N,GND*%
X223146759Y-363525633D03*
%TD*%
D19*
%TO.P,U304,VIN*%
%TO.N,V_PSU_12V_A*%
X181791392Y-326314126D03*
%TO.P,U304,VOUT*%
%TO.N,V_OPT_1V2*%
X178095874Y-324783392D03*
D20*
%TO.P,U304,GND*%
%TO.N,GND*%
X181474367Y-321853241D03*
%TD*%
D19*
%TO.P,U305,VIN*%
%TO.N,V_PSU_12V_A*%
X183322126Y-267381392D03*
%TO.P,U305,VOUT*%
%TO.N,V_OPT_1V2*%
X179626608Y-268912126D03*
D20*
%TO.P,U305,GND*%
%TO.N,GND*%
X179943633Y-264451241D03*
%TD*%
D19*
%TO.P,U306,VIN*%
%TO.N,V_PSU_12V_A*%
X223912126Y-224626608D03*
%TO.P,U306,VOUT*%
%TO.N,V_OPT_1V2*%
X222381392Y-228322126D03*
D20*
%TO.P,U306,GND*%
%TO.N,GND*%
X219451241Y-224943633D03*
%TD*%
D19*
%TO.P,U307,VIN*%
%TO.N,V_PSU_12V_A*%
X279783392Y-223095874D03*
%TO.P,U307,VOUT*%
%TO.N,V_OPT_1V2*%
X281314126Y-226791392D03*
D20*
%TO.P,U307,GND*%
%TO.N,GND*%
X276853241Y-226474367D03*
%TD*%
D19*
%TO.P,U308,VIN*%
%TO.N,V_PSU_12V_A*%
X318208608Y-263685874D03*
%TO.P,U308,VOUT*%
%TO.N,V_OPT_1V2*%
X321904126Y-265216608D03*
D20*
%TO.P,U308,GND*%
%TO.N,GND*%
X318525633Y-268146759D03*
%TD*%
D21*
%TO.P,C1001,1*%
%TO.N,V_ASIC_0V85*%
X222500000Y-252500000D03*
%TO.P,C1001,2*%
%TO.N,GND*%
X222500000Y-250500000D03*
%TD*%
%TO.P,C1002,1*%
%TO.N,V_ASIC_0V85*%
X227500000Y-252500000D03*
%TO.P,C1002,2*%
%TO.N,GND*%
X227500000Y-250500000D03*
%TD*%
%TO.P,C1003,1*%
%TO.N,V_ASIC_0V85*%
X232500000Y-252500000D03*
%TO.P,C1003,2*%
%TO.N,GND*%
X232500000Y-250500000D03*
%TD*%
%TO.P,C1004,1*%
%TO.N,V_ASIC_0V85*%
X237500000Y-252500000D03*
%TO.P,C1004,2*%
%TO.N,GND*%
X237500000Y-250500000D03*
%TD*%
%TO.P,C1005,1*%
%TO.N,V_ASIC_0V85*%
X242500000Y-252500000D03*
%TO.P,C1005,2*%
%TO.N,GND*%
X242500000Y-250500000D03*
%TD*%
%TO.P,C1006,1*%
%TO.N,V_ASIC_0V85*%
X247500000Y-252500000D03*
%TO.P,C1006,2*%
%TO.N,GND*%
X247500000Y-250500000D03*
%TD*%
%TO.P,C1007,1*%
%TO.N,V_ASIC_0V85*%
X252500000Y-252500000D03*
%TO.P,C1007,2*%
%TO.N,GND*%
X252500000Y-250500000D03*
%TD*%
%TO.P,C1008,1*%
%TO.N,V_ASIC_0V85*%
X257500000Y-252500000D03*
%TO.P,C1008,2*%
%TO.N,GND*%
X257500000Y-250500000D03*
%TD*%
%TO.P,C1009,1*%
%TO.N,V_ASIC_0V85*%
X262500000Y-252500000D03*
%TO.P,C1009,2*%
%TO.N,GND*%
X262500000Y-250500000D03*
%TD*%
%TO.P,C1010,1*%
%TO.N,V_ASIC_0V85*%
X267500000Y-252500000D03*
%TO.P,C1010,2*%
%TO.N,GND*%
X267500000Y-250500000D03*
%TD*%
%TO.P,C1011,1*%
%TO.N,V_ASIC_0V85*%
X272500000Y-252500000D03*
%TO.P,C1011,2*%
%TO.N,GND*%
X272500000Y-250500000D03*
%TD*%
%TO.P,C1012,1*%
%TO.N,V_ASIC_0V85*%
X277500000Y-252500000D03*
%TO.P,C1012,2*%
%TO.N,GND*%
X277500000Y-250500000D03*
%TD*%
%TO.P,C1013,1*%
%TO.N,V_ASIC_0V85*%
X222500000Y-248500000D03*
%TO.P,C1013,2*%
%TO.N,GND*%
X222500000Y-246500000D03*
%TD*%
%TO.P,C1014,1*%
%TO.N,V_ASIC_0V85*%
X227500000Y-248500000D03*
%TO.P,C1014,2*%
%TO.N,GND*%
X227500000Y-246500000D03*
%TD*%
%TO.P,C1015,1*%
%TO.N,V_ASIC_0V85*%
X232500000Y-248500000D03*
%TO.P,C1015,2*%
%TO.N,GND*%
X232500000Y-246500000D03*
%TD*%
%TO.P,C1016,1*%
%TO.N,V_ASIC_0V85*%
X237500000Y-248500000D03*
%TO.P,C1016,2*%
%TO.N,GND*%
X237500000Y-246500000D03*
%TD*%
%TO.P,C1017,1*%
%TO.N,V_ASIC_0V85*%
X242500000Y-248500000D03*
%TO.P,C1017,2*%
%TO.N,GND*%
X242500000Y-246500000D03*
%TD*%
%TO.P,C1018,1*%
%TO.N,V_ASIC_0V85*%
X247500000Y-248500000D03*
%TO.P,C1018,2*%
%TO.N,GND*%
X247500000Y-246500000D03*
%TD*%
%TO.P,C1019,1*%
%TO.N,V_ASIC_0V85*%
X252500000Y-248500000D03*
%TO.P,C1019,2*%
%TO.N,GND*%
X252500000Y-246500000D03*
%TD*%
%TO.P,C1020,1*%
%TO.N,V_ASIC_0V85*%
X257500000Y-248500000D03*
%TO.P,C1020,2*%
%TO.N,GND*%
X257500000Y-246500000D03*
%TD*%
%TO.P,C1021,1*%
%TO.N,V_ASIC_0V85*%
X262500000Y-248500000D03*
%TO.P,C1021,2*%
%TO.N,GND*%
X262500000Y-246500000D03*
%TD*%
%TO.P,C1022,1*%
%TO.N,V_ASIC_0V85*%
X267500000Y-248500000D03*
%TO.P,C1022,2*%
%TO.N,GND*%
X267500000Y-246500000D03*
%TD*%
%TO.P,C1023,1*%
%TO.N,V_ASIC_0V85*%
X272500000Y-248500000D03*
%TO.P,C1023,2*%
%TO.N,GND*%
X272500000Y-246500000D03*
%TD*%
%TO.P,C1024,1*%
%TO.N,V_ASIC_0V85*%
X277500000Y-248500000D03*
%TO.P,C1024,2*%
%TO.N,GND*%
X277500000Y-246500000D03*
%TD*%
%TO.P,C1025,1*%
%TO.N,V_ASIC_0V85*%
X222500000Y-339500000D03*
%TO.P,C1025,2*%
%TO.N,GND*%
X222500000Y-337500000D03*
%TD*%
%TO.P,C1026,1*%
%TO.N,V_ASIC_0V85*%
X227500000Y-339500000D03*
%TO.P,C1026,2*%
%TO.N,GND*%
X227500000Y-337500000D03*
%TD*%
%TO.P,C1027,1*%
%TO.N,V_ASIC_0V85*%
X232500000Y-339500000D03*
%TO.P,C1027,2*%
%TO.N,GND*%
X232500000Y-337500000D03*
%TD*%
%TO.P,C1028,1*%
%TO.N,V_ASIC_0V85*%
X237500000Y-339500000D03*
%TO.P,C1028,2*%
%TO.N,GND*%
X237500000Y-337500000D03*
%TD*%
%TO.P,C1029,1*%
%TO.N,V_ASIC_0V85*%
X242500000Y-339500000D03*
%TO.P,C1029,2*%
%TO.N,GND*%
X242500000Y-337500000D03*
%TD*%
%TO.P,C1030,1*%
%TO.N,V_ASIC_0V85*%
X247500000Y-339500000D03*
%TO.P,C1030,2*%
%TO.N,GND*%
X247500000Y-337500000D03*
%TD*%
%TO.P,C1031,1*%
%TO.N,V_ASIC_0V85*%
X252500000Y-339500000D03*
%TO.P,C1031,2*%
%TO.N,GND*%
X252500000Y-337500000D03*
%TD*%
%TO.P,C1032,1*%
%TO.N,V_ASIC_0V85*%
X257500000Y-339500000D03*
%TO.P,C1032,2*%
%TO.N,GND*%
X257500000Y-337500000D03*
%TD*%
%TO.P,C1033,1*%
%TO.N,V_ASIC_0V85*%
X262500000Y-339500000D03*
%TO.P,C1033,2*%
%TO.N,GND*%
X262500000Y-337500000D03*
%TD*%
%TO.P,C1034,1*%
%TO.N,V_ASIC_0V85*%
X267500000Y-339500000D03*
%TO.P,C1034,2*%
%TO.N,GND*%
X267500000Y-337500000D03*
%TD*%
%TO.P,C1035,1*%
%TO.N,V_ASIC_0V85*%
X272500000Y-339500000D03*
%TO.P,C1035,2*%
%TO.N,GND*%
X272500000Y-337500000D03*
%TD*%
%TO.P,C1036,1*%
%TO.N,V_ASIC_0V85*%
X277500000Y-339500000D03*
%TO.P,C1036,2*%
%TO.N,GND*%
X277500000Y-337500000D03*
%TD*%
%TO.P,C1037,1*%
%TO.N,V_ASIC_0V85*%
X222500000Y-343500000D03*
%TO.P,C1037,2*%
%TO.N,GND*%
X222500000Y-341500000D03*
%TD*%
%TO.P,C1038,1*%
%TO.N,V_ASIC_0V85*%
X227500000Y-343500000D03*
%TO.P,C1038,2*%
%TO.N,GND*%
X227500000Y-341500000D03*
%TD*%
%TO.P,C1039,1*%
%TO.N,V_ASIC_0V85*%
X232500000Y-343500000D03*
%TO.P,C1039,2*%
%TO.N,GND*%
X232500000Y-341500000D03*
%TD*%
%TO.P,C1040,1*%
%TO.N,V_ASIC_0V85*%
X237500000Y-343500000D03*
%TO.P,C1040,2*%
%TO.N,GND*%
X237500000Y-341500000D03*
%TD*%
%TO.P,C1041,1*%
%TO.N,V_ASIC_0V85*%
X242500000Y-343500000D03*
%TO.P,C1041,2*%
%TO.N,GND*%
X242500000Y-341500000D03*
%TD*%
%TO.P,C1042,1*%
%TO.N,V_ASIC_0V85*%
X247500000Y-343500000D03*
%TO.P,C1042,2*%
%TO.N,GND*%
X247500000Y-341500000D03*
%TD*%
%TO.P,C1043,1*%
%TO.N,V_ASIC_0V85*%
X252500000Y-343500000D03*
%TO.P,C1043,2*%
%TO.N,GND*%
X252500000Y-341500000D03*
%TD*%
%TO.P,C1044,1*%
%TO.N,V_ASIC_0V85*%
X257500000Y-343500000D03*
%TO.P,C1044,2*%
%TO.N,GND*%
X257500000Y-341500000D03*
%TD*%
%TO.P,C1045,1*%
%TO.N,V_ASIC_0V85*%
X262500000Y-343500000D03*
%TO.P,C1045,2*%
%TO.N,GND*%
X262500000Y-341500000D03*
%TD*%
%TO.P,C1046,1*%
%TO.N,V_ASIC_0V85*%
X267500000Y-343500000D03*
%TO.P,C1046,2*%
%TO.N,GND*%
X267500000Y-341500000D03*
%TD*%
%TO.P,C1047,1*%
%TO.N,V_ASIC_0V85*%
X272500000Y-343500000D03*
%TO.P,C1047,2*%
%TO.N,GND*%
X272500000Y-341500000D03*
%TD*%
%TO.P,C1048,1*%
%TO.N,V_ASIC_0V85*%
X277500000Y-343500000D03*
%TO.P,C1048,2*%
%TO.N,GND*%
X277500000Y-341500000D03*
%TD*%
%TO.P,C1049,1*%
%TO.N,V_ASIC_0V85*%
X292500000Y-267500000D03*
%TO.P,C1049,2*%
%TO.N,GND*%
X294500000Y-267500000D03*
%TD*%
%TO.P,C1050,1*%
%TO.N,V_ASIC_0V85*%
X292500000Y-272500000D03*
%TO.P,C1050,2*%
%TO.N,GND*%
X294500000Y-272500000D03*
%TD*%
%TO.P,C1051,1*%
%TO.N,V_ASIC_0V85*%
X292500000Y-277500000D03*
%TO.P,C1051,2*%
%TO.N,GND*%
X294500000Y-277500000D03*
%TD*%
%TO.P,C1052,1*%
%TO.N,V_ASIC_0V85*%
X292500000Y-282500000D03*
%TO.P,C1052,2*%
%TO.N,GND*%
X294500000Y-282500000D03*
%TD*%
%TO.P,C1053,1*%
%TO.N,V_ASIC_0V85*%
X292500000Y-287500000D03*
%TO.P,C1053,2*%
%TO.N,GND*%
X294500000Y-287500000D03*
%TD*%
%TO.P,C1054,1*%
%TO.N,V_ASIC_0V85*%
X292500000Y-292500000D03*
%TO.P,C1054,2*%
%TO.N,GND*%
X294500000Y-292500000D03*
%TD*%
%TO.P,C1055,1*%
%TO.N,V_ASIC_0V85*%
X292500000Y-297500000D03*
%TO.P,C1055,2*%
%TO.N,GND*%
X294500000Y-297500000D03*
%TD*%
%TO.P,C1056,1*%
%TO.N,V_ASIC_0V85*%
X292500000Y-302500000D03*
%TO.P,C1056,2*%
%TO.N,GND*%
X294500000Y-302500000D03*
%TD*%
%TO.P,C1057,1*%
%TO.N,V_ASIC_0V85*%
X292500000Y-307500000D03*
%TO.P,C1057,2*%
%TO.N,GND*%
X294500000Y-307500000D03*
%TD*%
%TO.P,C1058,1*%
%TO.N,V_ASIC_0V85*%
X292500000Y-312500000D03*
%TO.P,C1058,2*%
%TO.N,GND*%
X294500000Y-312500000D03*
%TD*%
%TO.P,C1059,1*%
%TO.N,V_ASIC_0V85*%
X292500000Y-317500000D03*
%TO.P,C1059,2*%
%TO.N,GND*%
X294500000Y-317500000D03*
%TD*%
%TO.P,C1060,1*%
%TO.N,V_ASIC_0V85*%
X292500000Y-322500000D03*
%TO.P,C1060,2*%
%TO.N,GND*%
X294500000Y-322500000D03*
%TD*%
%TO.P,C1061,1*%
%TO.N,V_ASIC_0V85*%
X296500000Y-267500000D03*
%TO.P,C1061,2*%
%TO.N,GND*%
X298500000Y-267500000D03*
%TD*%
%TO.P,C1062,1*%
%TO.N,V_ASIC_0V85*%
X296500000Y-272500000D03*
%TO.P,C1062,2*%
%TO.N,GND*%
X298500000Y-272500000D03*
%TD*%
%TO.P,C1063,1*%
%TO.N,V_ASIC_0V85*%
X296500000Y-277500000D03*
%TO.P,C1063,2*%
%TO.N,GND*%
X298500000Y-277500000D03*
%TD*%
%TO.P,C1064,1*%
%TO.N,V_ASIC_0V85*%
X296500000Y-282500000D03*
%TO.P,C1064,2*%
%TO.N,GND*%
X298500000Y-282500000D03*
%TD*%
%TO.P,C1065,1*%
%TO.N,V_ASIC_0V85*%
X296500000Y-287500000D03*
%TO.P,C1065,2*%
%TO.N,GND*%
X298500000Y-287500000D03*
%TD*%
%TO.P,C1066,1*%
%TO.N,V_ASIC_0V85*%
X296500000Y-292500000D03*
%TO.P,C1066,2*%
%TO.N,GND*%
X298500000Y-292500000D03*
%TD*%
%TO.P,C1067,1*%
%TO.N,V_ASIC_0V85*%
X296500000Y-297500000D03*
%TO.P,C1067,2*%
%TO.N,GND*%
X298500000Y-297500000D03*
%TD*%
%TO.P,C1068,1*%
%TO.N,V_ASIC_0V85*%
X296500000Y-302500000D03*
%TO.P,C1068,2*%
%TO.N,GND*%
X298500000Y-302500000D03*
%TD*%
%TO.P,C1069,1*%
%TO.N,V_ASIC_0V85*%
X296500000Y-307500000D03*
%TO.P,C1069,2*%
%TO.N,GND*%
X298500000Y-307500000D03*
%TD*%
%TO.P,C1070,1*%
%TO.N,V_ASIC_0V85*%
X296500000Y-312500000D03*
%TO.P,C1070,2*%
%TO.N,GND*%
X298500000Y-312500000D03*
%TD*%
%TO.P,C1071,1*%
%TO.N,V_ASIC_0V85*%
X296500000Y-317500000D03*
%TO.P,C1071,2*%
%TO.N,GND*%
X298500000Y-317500000D03*
%TD*%
%TO.P,C1072,1*%
%TO.N,V_ASIC_0V85*%
X296500000Y-322500000D03*
%TO.P,C1072,2*%
%TO.N,GND*%
X298500000Y-322500000D03*
%TD*%
%TO.P,C1073,1*%
%TO.N,V_ASIC_0V85*%
X205500000Y-267500000D03*
%TO.P,C1073,2*%
%TO.N,GND*%
X207500000Y-267500000D03*
%TD*%
%TO.P,C1074,1*%
%TO.N,V_ASIC_0V85*%
X205500000Y-272500000D03*
%TO.P,C1074,2*%
%TO.N,GND*%
X207500000Y-272500000D03*
%TD*%
%TO.P,C1075,1*%
%TO.N,V_ASIC_0V85*%
X205500000Y-277500000D03*
%TO.P,C1075,2*%
%TO.N,GND*%
X207500000Y-277500000D03*
%TD*%
%TO.P,C1076,1*%
%TO.N,V_ASIC_0V85*%
X205500000Y-282500000D03*
%TO.P,C1076,2*%
%TO.N,GND*%
X207500000Y-282500000D03*
%TD*%
%TO.P,C1077,1*%
%TO.N,V_ASIC_0V85*%
X205500000Y-287500000D03*
%TO.P,C1077,2*%
%TO.N,GND*%
X207500000Y-287500000D03*
%TD*%
%TO.P,C1078,1*%
%TO.N,V_ASIC_0V85*%
X205500000Y-292500000D03*
%TO.P,C1078,2*%
%TO.N,GND*%
X207500000Y-292500000D03*
%TD*%
%TO.P,C1079,1*%
%TO.N,V_ASIC_0V85*%
X205500000Y-297500000D03*
%TO.P,C1079,2*%
%TO.N,GND*%
X207500000Y-297500000D03*
%TD*%
%TO.P,C1080,1*%
%TO.N,V_ASIC_0V85*%
X205500000Y-302500000D03*
%TO.P,C1080,2*%
%TO.N,GND*%
X207500000Y-302500000D03*
%TD*%
%TO.P,C1081,1*%
%TO.N,V_ASIC_0V85*%
X205500000Y-307500000D03*
%TO.P,C1081,2*%
%TO.N,GND*%
X207500000Y-307500000D03*
%TD*%
%TO.P,C1082,1*%
%TO.N,V_ASIC_0V85*%
X205500000Y-312500000D03*
%TO.P,C1082,2*%
%TO.N,GND*%
X207500000Y-312500000D03*
%TD*%
%TO.P,C1083,1*%
%TO.N,V_ASIC_0V85*%
X205500000Y-317500000D03*
%TO.P,C1083,2*%
%TO.N,GND*%
X207500000Y-317500000D03*
%TD*%
%TO.P,C1084,1*%
%TO.N,V_ASIC_0V85*%
X205500000Y-322500000D03*
%TO.P,C1084,2*%
%TO.N,GND*%
X207500000Y-322500000D03*
%TD*%
%TO.P,C1085,1*%
%TO.N,V_ASIC_0V85*%
X201500000Y-267500000D03*
%TO.P,C1085,2*%
%TO.N,GND*%
X203500000Y-267500000D03*
%TD*%
%TO.P,C1086,1*%
%TO.N,V_ASIC_0V85*%
X201500000Y-272500000D03*
%TO.P,C1086,2*%
%TO.N,GND*%
X203500000Y-272500000D03*
%TD*%
%TO.P,C1087,1*%
%TO.N,V_ASIC_0V85*%
X201500000Y-277500000D03*
%TO.P,C1087,2*%
%TO.N,GND*%
X203500000Y-277500000D03*
%TD*%
%TO.P,C1088,1*%
%TO.N,V_ASIC_0V85*%
X201500000Y-282500000D03*
%TO.P,C1088,2*%
%TO.N,GND*%
X203500000Y-282500000D03*
%TD*%
%TO.P,C1089,1*%
%TO.N,V_ASIC_0V85*%
X201500000Y-287500000D03*
%TO.P,C1089,2*%
%TO.N,GND*%
X203500000Y-287500000D03*
%TD*%
%TO.P,C1090,1*%
%TO.N,V_ASIC_0V85*%
X201500000Y-292500000D03*
%TO.P,C1090,2*%
%TO.N,GND*%
X203500000Y-292500000D03*
%TD*%
%TO.P,C1091,1*%
%TO.N,V_ASIC_0V85*%
X201500000Y-297500000D03*
%TO.P,C1091,2*%
%TO.N,GND*%
X203500000Y-297500000D03*
%TD*%
%TO.P,C1092,1*%
%TO.N,V_ASIC_0V85*%
X201500000Y-302500000D03*
%TO.P,C1092,2*%
%TO.N,GND*%
X203500000Y-302500000D03*
%TD*%
%TO.P,C1093,1*%
%TO.N,V_ASIC_0V85*%
X201500000Y-307500000D03*
%TO.P,C1093,2*%
%TO.N,GND*%
X203500000Y-307500000D03*
%TD*%
%TO.P,C1094,1*%
%TO.N,V_ASIC_0V85*%
X201500000Y-312500000D03*
%TO.P,C1094,2*%
%TO.N,GND*%
X203500000Y-312500000D03*
%TD*%
%TO.P,C1095,1*%
%TO.N,V_ASIC_0V85*%
X201500000Y-317500000D03*
%TO.P,C1095,2*%
%TO.N,GND*%
X203500000Y-317500000D03*
%TD*%
%TO.P,C1096,1*%
%TO.N,V_ASIC_0V85*%
X201500000Y-322500000D03*
%TO.P,C1096,2*%
%TO.N,GND*%
X203500000Y-322500000D03*
%TD*%
D22*
%TO.P,MH1,1*%
%TO.N,GND*%
X48000000Y-38000000D03*
%TD*%
%TO.P,MH2,1*%
%TO.N,GND*%
X452000000Y-38000000D03*
%TD*%
%TO.P,MH3,1*%
%TO.N,GND*%
X48000000Y-552000000D03*
%TD*%
%TO.P,MH4,1*%
%TO.N,GND*%
X440000000Y-505000000D03*
%TD*%
%TO.P,MH5,1*%
%TO.N,GND*%
X48000000Y-295000000D03*
%TD*%
%TO.P,MH6,1*%
%TO.N,GND*%
X452000000Y-295000000D03*
%TD*%
%TO.P,MH7,1*%
%TO.N,GND*%
X250000000Y-38000000D03*
%TD*%
%TO.P,MH8,1*%
%TO.N,GND*%
X250000000Y-495000000D03*
%TD*%
D23*
%TO.P,FID1,1*%
%TO.N,N/C*%
X35000000Y-287000000D03*
%TD*%
%TO.P,FID2,1*%
%TO.N,N/C*%
X465000000Y-287000000D03*
%TD*%
%TO.P,FID3,1*%
%TO.N,N/C*%
X35000000Y-303000000D03*
%TD*%
%TO.P,FID4,1*%
%TO.N,N/C*%
X465000000Y-303000000D03*
%TD*%
D24*
%TO.N,GND*%
X44000000Y-30000000D03*
X44000000Y-560000000D03*
X56000000Y-30000000D03*
X56000000Y-560000000D03*
X68000000Y-30000000D03*
X68000000Y-560000000D03*
X80000000Y-30000000D03*
X80000000Y-560000000D03*
%TO.N,V_PSU_12V_A*%
X92000000Y-30000000D03*
%TO.N,GND*%
X92000000Y-560000000D03*
%TO.N,V_PSU_12V_A*%
X104000000Y-30000000D03*
%TO.N,GND*%
X104000000Y-560000000D03*
%TO.N,V_PSU_12V_A*%
X116000000Y-30000000D03*
%TO.N,GND*%
X116000000Y-560000000D03*
X128000000Y-30000000D03*
X128000000Y-560000000D03*
X140000000Y-30000000D03*
X140000000Y-560000000D03*
X152000000Y-30000000D03*
X152000000Y-560000000D03*
X164000000Y-30000000D03*
X164000000Y-560000000D03*
X176000000Y-30000000D03*
X176000000Y-560000000D03*
X188000000Y-30000000D03*
X188000000Y-560000000D03*
X200000000Y-30000000D03*
X200000000Y-560000000D03*
X212000000Y-30000000D03*
X212000000Y-560000000D03*
X224000000Y-30000000D03*
X224000000Y-560000000D03*
X236000000Y-30000000D03*
X236000000Y-560000000D03*
X248000000Y-30000000D03*
X248000000Y-560000000D03*
X260000000Y-30000000D03*
X260000000Y-560000000D03*
X272000000Y-30000000D03*
X272000000Y-560000000D03*
X284000000Y-30000000D03*
X284000000Y-560000000D03*
X296000000Y-30000000D03*
X296000000Y-560000000D03*
X308000000Y-30000000D03*
X308000000Y-560000000D03*
X320000000Y-30000000D03*
X320000000Y-560000000D03*
X332000000Y-30000000D03*
X332000000Y-560000000D03*
X344000000Y-30000000D03*
X344000000Y-560000000D03*
X356000000Y-30000000D03*
X356000000Y-560000000D03*
X368000000Y-30000000D03*
X368000000Y-560000000D03*
X380000000Y-30000000D03*
X380000000Y-560000000D03*
%TO.N,V_PSU_12V_B*%
X392000000Y-30000000D03*
%TO.N,GND*%
X392000000Y-560000000D03*
%TO.N,V_PSU_12V_B*%
X404000000Y-30000000D03*
%TO.N,GND*%
X404000000Y-560000000D03*
%TO.N,V_PSU_12V_B*%
X416000000Y-30000000D03*
%TO.N,GND*%
X416000000Y-560000000D03*
X428000000Y-30000000D03*
X428000000Y-560000000D03*
X440000000Y-30000000D03*
X440000000Y-560000000D03*
X452000000Y-30000000D03*
X452000000Y-560000000D03*
X40000000Y-34000000D03*
X460000000Y-34000000D03*
X40000000Y-46000000D03*
X460000000Y-46000000D03*
X40000000Y-58000000D03*
X460000000Y-58000000D03*
X40000000Y-70000000D03*
X460000000Y-70000000D03*
X40000000Y-82000000D03*
X460000000Y-82000000D03*
X40000000Y-94000000D03*
X460000000Y-94000000D03*
X40000000Y-106000000D03*
X460000000Y-106000000D03*
X40000000Y-118000000D03*
X460000000Y-118000000D03*
X40000000Y-130000000D03*
X460000000Y-130000000D03*
X40000000Y-142000000D03*
X460000000Y-142000000D03*
X40000000Y-154000000D03*
X460000000Y-154000000D03*
X40000000Y-166000000D03*
X460000000Y-166000000D03*
X40000000Y-178000000D03*
X460000000Y-178000000D03*
X40000000Y-190000000D03*
X460000000Y-190000000D03*
X40000000Y-202000000D03*
X460000000Y-202000000D03*
X40000000Y-214000000D03*
X460000000Y-214000000D03*
X40000000Y-226000000D03*
X460000000Y-226000000D03*
X40000000Y-238000000D03*
X460000000Y-238000000D03*
X40000000Y-250000000D03*
X460000000Y-250000000D03*
X40000000Y-262000000D03*
X460000000Y-262000000D03*
X40000000Y-274000000D03*
X460000000Y-274000000D03*
X40000000Y-322000000D03*
X460000000Y-322000000D03*
X40000000Y-334000000D03*
X460000000Y-334000000D03*
X40000000Y-346000000D03*
X460000000Y-346000000D03*
X40000000Y-358000000D03*
X460000000Y-358000000D03*
X40000000Y-370000000D03*
X460000000Y-370000000D03*
X40000000Y-382000000D03*
X460000000Y-382000000D03*
X40000000Y-394000000D03*
X460000000Y-394000000D03*
X40000000Y-406000000D03*
X460000000Y-406000000D03*
X40000000Y-418000000D03*
X460000000Y-418000000D03*
X40000000Y-430000000D03*
X460000000Y-430000000D03*
X40000000Y-442000000D03*
X460000000Y-442000000D03*
X40000000Y-454000000D03*
X460000000Y-454000000D03*
X40000000Y-466000000D03*
X460000000Y-466000000D03*
X40000000Y-478000000D03*
X460000000Y-478000000D03*
X40000000Y-490000000D03*
X460000000Y-490000000D03*
X40000000Y-502000000D03*
X460000000Y-502000000D03*
X40000000Y-514000000D03*
X40000000Y-526000000D03*
X460000000Y-526000000D03*
X40000000Y-538000000D03*
X40000000Y-550000000D03*
%TD*%
M02*
