%TF.GenerationSoftware,KiCad,Pcbnew,8.0.9-8.0.9-0~ubuntu22.04.1*%
%TF.CreationDate,2026-06-06T00:14:38+00:00*%
%TF.ProjectId,LightRail_Eval_Board,4c696768-7452-4616-996c-5f4576616c5f,rev?*%
%TF.SameCoordinates,Original*%
%TF.FileFunction,Copper,L1,Top*%
%TF.FilePolarity,Positive*%
%FSLAX46Y46*%
G04 Gerber Fmt 4.6, Leading zero omitted, Abs format (unit mm)*
G04 Created by KiCad (PCBNEW 8.0.9-8.0.9-0~ubuntu22.04.1) date 2026-06-06 00:14:38*
%MOMM*%
%LPD*%
G01*
G04 APERTURE LIST*
%TA.AperFunction,ComponentPad*%
%ADD10C,7.000000*%
%TD*%
%TA.AperFunction,SMDPad,CuDef*%
%ADD11R,0.200000X0.800000*%
%TD*%
%TA.AperFunction,SMDPad,CuDef*%
%ADD12R,0.800000X0.200000*%
%TD*%
%TA.AperFunction,SMDPad,CuDef*%
%ADD13R,5.500000X5.500000*%
%TD*%
%TA.AperFunction,SMDPad,CuDef*%
%ADD14C,0.400000*%
%TD*%
%TA.AperFunction,SMDPad,CuDef*%
%ADD15R,1.200000X6.400000*%
%TD*%
%TA.AperFunction,SMDPad,CuDef*%
%ADD16R,0.300000X0.300000*%
%TD*%
%TA.AperFunction,SMDPad,CuDef*%
%ADD17R,0.600000X0.700000*%
%TD*%
%TA.AperFunction,SMDPad,CuDef*%
%ADD18R,0.600000X1.000000*%
%TD*%
%TA.AperFunction,SMDPad,CuDef*%
%ADD19R,0.250000X0.700000*%
%TD*%
%TA.AperFunction,SMDPad,CuDef*%
%ADD20R,0.700000X0.250000*%
%TD*%
%TA.AperFunction,SMDPad,CuDef*%
%ADD21R,3.000000X3.000000*%
%TD*%
%TA.AperFunction,SMDPad,CuDef*%
%ADD22R,0.250000X0.800000*%
%TD*%
%TA.AperFunction,SMDPad,CuDef*%
%ADD23R,0.800000X0.250000*%
%TD*%
%TA.AperFunction,SMDPad,CuDef*%
%ADD24R,5.000000X5.000000*%
%TD*%
%TA.AperFunction,SMDPad,CuDef*%
%ADD25R,1.200000X1.600000*%
%TD*%
%TA.AperFunction,SMDPad,CuDef*%
%ADD26R,0.800000X1.600000*%
%TD*%
%TA.AperFunction,SMDPad,CuDef*%
%ADD27R,1.200000X2.000000*%
%TD*%
%TA.AperFunction,SMDPad,CuDef*%
%ADD28R,1.200000X4.000000*%
%TD*%
%TA.AperFunction,SMDPad,CuDef*%
%ADD29R,0.640000X0.640000*%
%TD*%
%TA.AperFunction,SMDPad,CuDef*%
%ADD30R,0.800000X1.000000*%
%TD*%
%TA.AperFunction,SMDPad,CuDef*%
%ADD31R,0.400000X0.400000*%
%TD*%
%TA.AperFunction,SMDPad,CuDef*%
%ADD32R,0.240000X0.240000*%
%TD*%
%TA.AperFunction,SMDPad,CuDef*%
%ADD33R,1.200000X3.440000*%
%TD*%
%TA.AperFunction,SMDPad,CuDef*%
%ADD34R,0.720000X1.000000*%
%TD*%
%TA.AperFunction,ComponentPad*%
%ADD35C,1.700000*%
%TD*%
%TA.AperFunction,SMDPad,CuDef*%
%ADD36R,1.200000X5.840000*%
%TD*%
%TA.AperFunction,SMDPad,CuDef*%
%ADD37C,0.800000*%
%TD*%
%TA.AperFunction,ViaPad*%
%ADD38C,0.800000*%
%TD*%
%TA.AperFunction,ViaPad*%
%ADD39C,0.500000*%
%TD*%
%TA.AperFunction,Conductor*%
%ADD40C,1.000000*%
%TD*%
%TA.AperFunction,Conductor*%
%ADD41C,0.500000*%
%TD*%
G04 APERTURE END LIST*
D10*
%TO.P,MH1,1*%
%TO.N,GND*%
X103500000Y-103500000D03*
%TD*%
%TO.P,MH2,1*%
%TO.N,GND*%
X196500000Y-103500000D03*
%TD*%
%TO.P,MH3,1*%
%TO.N,GND*%
X103500000Y-196500000D03*
%TD*%
%TO.P,MH4,1*%
%TO.N,GND*%
X196500000Y-196500000D03*
%TD*%
D11*
%TO.P,U1,1*%
%TO.N,net_U1_1*%
X137000000Y-148700000D03*
%TO.P,U1,2*%
%TO.N,net_U1_2*%
X137400000Y-148700000D03*
%TO.P,U1,3*%
%TO.N,net_U1_3*%
X137800000Y-148700000D03*
%TO.P,U1,4*%
%TO.N,net_U1_4*%
X138200000Y-148700000D03*
%TO.P,U1,5*%
%TO.N,net_U1_5*%
X138600000Y-148700000D03*
%TO.P,U1,6*%
%TO.N,net_U1_6*%
X139000000Y-148700000D03*
%TO.P,U1,7*%
%TO.N,net_U1_7*%
X139400000Y-148700000D03*
%TO.P,U1,8*%
%TO.N,net_U1_8*%
X139800000Y-148700000D03*
%TO.P,U1,9*%
%TO.N,net_U1_9*%
X140200000Y-148700000D03*
%TO.P,U1,10*%
%TO.N,net_U1_10*%
X140600000Y-148700000D03*
%TO.P,U1,11*%
%TO.N,net_U1_11*%
X141000000Y-148700000D03*
%TO.P,U1,12*%
%TO.N,net_U1_12*%
X141400000Y-148700000D03*
%TO.P,U1,13*%
%TO.N,net_U1_13*%
X141800000Y-148700000D03*
%TO.P,U1,14*%
%TO.N,net_U1_14*%
X142200000Y-148700000D03*
%TO.P,U1,15*%
%TO.N,net_U1_15*%
X142600000Y-148700000D03*
%TO.P,U1,16*%
%TO.N,net_U1_16*%
X143000000Y-148700000D03*
D12*
%TO.P,U1,17*%
%TO.N,net_U1_17*%
X143700000Y-148000000D03*
%TO.P,U1,18*%
%TO.N,net_U1_18*%
X143700000Y-147600000D03*
%TO.P,U1,19*%
%TO.N,net_U1_19*%
X143700000Y-147200000D03*
%TO.P,U1,20*%
%TO.N,net_U1_20*%
X143700000Y-146800000D03*
%TO.P,U1,21*%
%TO.N,net_U1_21*%
X143700000Y-146400000D03*
%TO.P,U1,22*%
%TO.N,net_U1_22*%
X143700000Y-146000000D03*
%TO.P,U1,23*%
%TO.N,net_U1_23*%
X143700000Y-145600000D03*
%TO.P,U1,24*%
%TO.N,net_U1_24*%
X143700000Y-145200000D03*
%TO.P,U1,25*%
%TO.N,net_U1_25*%
X143700000Y-144800000D03*
%TO.P,U1,26*%
%TO.N,net_U1_26*%
X143700000Y-144400000D03*
%TO.P,U1,27*%
%TO.N,net_U1_27*%
X143700000Y-144000000D03*
%TO.P,U1,28*%
%TO.N,net_U1_28*%
X143700000Y-143600000D03*
%TO.P,U1,29*%
%TO.N,net_U1_29*%
X143700000Y-143200000D03*
%TO.P,U1,30*%
%TO.N,net_U1_30*%
X143700000Y-142800000D03*
%TO.P,U1,31*%
%TO.N,net_U1_31*%
X143700000Y-142400000D03*
%TO.P,U1,32*%
%TO.N,net_U1_32*%
X143700000Y-142000000D03*
D11*
%TO.P,U1,33*%
%TO.N,net_U1_33*%
X143000000Y-141300000D03*
%TO.P,U1,34*%
%TO.N,net_U1_34*%
X142600000Y-141300000D03*
%TO.P,U1,35*%
%TO.N,net_U1_35*%
X142200000Y-141300000D03*
%TO.P,U1,36*%
%TO.N,net_U1_36*%
X141800000Y-141300000D03*
%TO.P,U1,37*%
%TO.N,net_U1_37*%
X141400000Y-141300000D03*
%TO.P,U1,38*%
%TO.N,net_U1_38*%
X141000000Y-141300000D03*
%TO.P,U1,39*%
%TO.N,net_U1_39*%
X140600000Y-141300000D03*
%TO.P,U1,40*%
%TO.N,net_U1_40*%
X140200000Y-141300000D03*
%TO.P,U1,41*%
%TO.N,net_U1_41*%
X139800000Y-141300000D03*
%TO.P,U1,42*%
%TO.N,net_U1_42*%
X139400000Y-141300000D03*
%TO.P,U1,43*%
%TO.N,net_U1_43*%
X139000000Y-141300000D03*
%TO.P,U1,44*%
%TO.N,net_U1_44*%
X138600000Y-141300000D03*
%TO.P,U1,45*%
%TO.N,net_U1_45*%
X138200000Y-141300000D03*
%TO.P,U1,46*%
%TO.N,net_U1_46*%
X137800000Y-141300000D03*
%TO.P,U1,47*%
%TO.N,net_U1_47*%
X137400000Y-141300000D03*
%TO.P,U1,48*%
%TO.N,net_U1_48*%
X137000000Y-141300000D03*
D12*
%TO.P,U1,49*%
%TO.N,net_U1_49*%
X136300000Y-142000000D03*
%TO.P,U1,50*%
%TO.N,net_U1_50*%
X136300000Y-142400000D03*
%TO.P,U1,51*%
%TO.N,net_U1_51*%
X136300000Y-142800000D03*
%TO.P,U1,52*%
%TO.N,net_U1_52*%
X136300000Y-143200000D03*
%TO.P,U1,53*%
%TO.N,net_U1_53*%
X136300000Y-143600000D03*
%TO.P,U1,54*%
%TO.N,net_U1_54*%
X136300000Y-144000000D03*
%TO.P,U1,55*%
%TO.N,net_U1_55*%
X136300000Y-144400000D03*
%TO.P,U1,56*%
%TO.N,net_U1_56*%
X136300000Y-144800000D03*
%TO.P,U1,57*%
%TO.N,net_U1_57*%
X136300000Y-145200000D03*
%TO.P,U1,58*%
%TO.N,net_U1_58*%
X136300000Y-145600000D03*
%TO.P,U1,59*%
%TO.N,net_U1_59*%
X136300000Y-146000000D03*
%TO.P,U1,60*%
%TO.N,net_U1_60*%
X136300000Y-146400000D03*
%TO.P,U1,61*%
%TO.N,net_U1_61*%
X136300000Y-146800000D03*
%TO.P,U1,62*%
%TO.N,net_U1_62*%
X136300000Y-147200000D03*
%TO.P,U1,63*%
%TO.N,net_U1_63*%
X136300000Y-147600000D03*
%TO.P,U1,64*%
%TO.N,net_U1_64*%
X136300000Y-148000000D03*
D13*
%TO.P,U1,65*%
%TO.N,GND*%
X140000000Y-145000000D03*
%TD*%
D14*
%TO.P,U2,A1*%
%TO.N,net_U2_A1*%
X154000000Y-139000000D03*
%TO.P,U2,A2*%
%TO.N,net_U2_A2*%
X154800000Y-139000000D03*
%TO.P,U2,A3*%
%TO.N,net_U2_A3*%
X155600000Y-139000000D03*
%TO.P,U2,A4*%
%TO.N,net_U2_A4*%
X156400000Y-139000000D03*
%TO.P,U2,A5*%
%TO.N,net_U2_A5*%
X157200000Y-139000000D03*
%TO.P,U2,A6*%
%TO.N,net_U2_A6*%
X158000000Y-139000000D03*
%TO.P,U2,A7*%
%TO.N,net_U2_A7*%
X158800000Y-139000000D03*
%TO.P,U2,A8*%
%TO.N,net_U2_A8*%
X159600000Y-139000000D03*
%TO.P,U2,A9*%
%TO.N,net_U2_A9*%
X160400000Y-139000000D03*
%TO.P,U2,A10*%
%TO.N,net_U2_A10*%
X161200000Y-139000000D03*
%TO.P,U2,A11*%
%TO.N,net_U2_A11*%
X162000000Y-139000000D03*
%TO.P,U2,A12*%
%TO.N,net_U2_A12*%
X162800000Y-139000000D03*
%TO.P,U2,A13*%
%TO.N,net_U2_A13*%
X163600000Y-139000000D03*
%TO.P,U2,A14*%
%TO.N,net_U2_A14*%
X164400000Y-139000000D03*
%TO.P,U2,A15*%
%TO.N,net_U2_A15*%
X165200000Y-139000000D03*
%TO.P,U2,A16*%
%TO.N,net_U2_A16*%
X166000000Y-139000000D03*
%TO.P,U2,B1*%
%TO.N,net_U2_B1*%
X154000000Y-139800000D03*
%TO.P,U2,B2*%
%TO.N,net_U2_B2*%
X154800000Y-139800000D03*
%TO.P,U2,B3*%
%TO.N,net_U2_B3*%
X155600000Y-139800000D03*
%TO.P,U2,B4*%
%TO.N,net_U2_B4*%
X156400000Y-139800000D03*
%TO.P,U2,B5*%
%TO.N,net_U2_B5*%
X157200000Y-139800000D03*
%TO.P,U2,B6*%
%TO.N,net_U2_B6*%
X158000000Y-139800000D03*
%TO.P,U2,B7*%
%TO.N,net_U2_B7*%
X158800000Y-139800000D03*
%TO.P,U2,B8*%
%TO.N,net_U2_B8*%
X159600000Y-139800000D03*
%TO.P,U2,B9*%
%TO.N,net_U2_B9*%
X160400000Y-139800000D03*
%TO.P,U2,B10*%
%TO.N,net_U2_B10*%
X161200000Y-139800000D03*
%TO.P,U2,B11*%
%TO.N,net_U2_B11*%
X162000000Y-139800000D03*
%TO.P,U2,B12*%
%TO.N,net_U2_B12*%
X162800000Y-139800000D03*
%TO.P,U2,B13*%
%TO.N,net_U2_B13*%
X163600000Y-139800000D03*
%TO.P,U2,B14*%
%TO.N,net_U2_B14*%
X164400000Y-139800000D03*
%TO.P,U2,B15*%
%TO.N,net_U2_B15*%
X165200000Y-139800000D03*
%TO.P,U2,B16*%
%TO.N,net_U2_B16*%
X166000000Y-139800000D03*
%TO.P,U2,C1*%
%TO.N,net_U2_C1*%
X154000000Y-140600000D03*
%TO.P,U2,C2*%
%TO.N,net_U2_C2*%
X154800000Y-140600000D03*
%TO.P,U2,C3*%
%TO.N,net_U2_C3*%
X155600000Y-140600000D03*
%TO.P,U2,C4*%
%TO.N,net_U2_C4*%
X156400000Y-140600000D03*
%TO.P,U2,C5*%
%TO.N,net_U2_C5*%
X157200000Y-140600000D03*
%TO.P,U2,C6*%
%TO.N,net_U2_C6*%
X158000000Y-140600000D03*
%TO.P,U2,C7*%
%TO.N,net_U2_C7*%
X158800000Y-140600000D03*
%TO.P,U2,C8*%
%TO.N,net_U2_C8*%
X159600000Y-140600000D03*
%TO.P,U2,C9*%
%TO.N,net_U2_C9*%
X160400000Y-140600000D03*
%TO.P,U2,C10*%
%TO.N,net_U2_C10*%
X161200000Y-140600000D03*
%TO.P,U2,C11*%
%TO.N,net_U2_C11*%
X162000000Y-140600000D03*
%TO.P,U2,C12*%
%TO.N,net_U2_C12*%
X162800000Y-140600000D03*
%TO.P,U2,C13*%
%TO.N,net_U2_C13*%
X163600000Y-140600000D03*
%TO.P,U2,C14*%
%TO.N,net_U2_C14*%
X164400000Y-140600000D03*
%TO.P,U2,C15*%
%TO.N,net_U2_C15*%
X165200000Y-140600000D03*
%TO.P,U2,C16*%
%TO.N,net_U2_C16*%
X166000000Y-140600000D03*
%TO.P,U2,D1*%
%TO.N,net_U2_D1*%
X154000000Y-141400000D03*
%TO.P,U2,D2*%
%TO.N,net_U2_D2*%
X154800000Y-141400000D03*
%TO.P,U2,D3*%
%TO.N,net_U2_D3*%
X155600000Y-141400000D03*
%TO.P,U2,D4*%
%TO.N,net_U2_D4*%
X156400000Y-141400000D03*
%TO.P,U2,D5*%
%TO.N,net_U2_D5*%
X157200000Y-141400000D03*
%TO.P,U2,D6*%
%TO.N,net_U2_D6*%
X158000000Y-141400000D03*
%TO.P,U2,D7*%
%TO.N,net_U2_D7*%
X158800000Y-141400000D03*
%TO.P,U2,D8*%
%TO.N,net_U2_D8*%
X159600000Y-141400000D03*
%TO.P,U2,D9*%
%TO.N,net_U2_D9*%
X160400000Y-141400000D03*
%TO.P,U2,D10*%
%TO.N,net_U2_D10*%
X161200000Y-141400000D03*
%TO.P,U2,D11*%
%TO.N,net_U2_D11*%
X162000000Y-141400000D03*
%TO.P,U2,D12*%
%TO.N,net_U2_D12*%
X162800000Y-141400000D03*
%TO.P,U2,D13*%
%TO.N,net_U2_D13*%
X163600000Y-141400000D03*
%TO.P,U2,D14*%
%TO.N,net_U2_D14*%
X164400000Y-141400000D03*
%TO.P,U2,D15*%
%TO.N,net_U2_D15*%
X165200000Y-141400000D03*
%TO.P,U2,D16*%
%TO.N,net_U2_D16*%
X166000000Y-141400000D03*
%TO.P,U2,E1*%
%TO.N,net_U2_E1*%
X154000000Y-142200000D03*
%TO.P,U2,E2*%
%TO.N,net_U2_E2*%
X154800000Y-142200000D03*
%TO.P,U2,E3*%
%TO.N,net_U2_E3*%
X155600000Y-142200000D03*
%TO.P,U2,E4*%
%TO.N,net_U2_E4*%
X156400000Y-142200000D03*
%TO.P,U2,E5*%
%TO.N,net_U2_E5*%
X157200000Y-142200000D03*
%TO.P,U2,E6*%
%TO.N,net_U2_E6*%
X158000000Y-142200000D03*
%TO.P,U2,E7*%
%TO.N,net_U2_E7*%
X158800000Y-142200000D03*
%TO.P,U2,E8*%
%TO.N,net_U2_E8*%
X159600000Y-142200000D03*
%TO.P,U2,E9*%
%TO.N,net_U2_E9*%
X160400000Y-142200000D03*
%TO.P,U2,E10*%
%TO.N,net_U2_E10*%
X161200000Y-142200000D03*
%TO.P,U2,E11*%
%TO.N,net_U2_E11*%
X162000000Y-142200000D03*
%TO.P,U2,E12*%
%TO.N,net_U2_E12*%
X162800000Y-142200000D03*
%TO.P,U2,E13*%
%TO.N,net_U2_E13*%
X163600000Y-142200000D03*
%TO.P,U2,E14*%
%TO.N,net_U2_E14*%
X164400000Y-142200000D03*
%TO.P,U2,E15*%
%TO.N,net_U2_E15*%
X165200000Y-142200000D03*
%TO.P,U2,E16*%
%TO.N,net_U2_E16*%
X166000000Y-142200000D03*
%TO.P,U2,F1*%
%TO.N,net_U2_F1*%
X154000000Y-143000000D03*
%TO.P,U2,F2*%
%TO.N,net_U2_F2*%
X154800000Y-143000000D03*
%TO.P,U2,F3*%
%TO.N,net_U2_F3*%
X155600000Y-143000000D03*
%TO.P,U2,F4*%
%TO.N,net_U2_F4*%
X156400000Y-143000000D03*
%TO.P,U2,F5*%
%TO.N,net_U2_F5*%
X157200000Y-143000000D03*
%TO.P,U2,F6*%
%TO.N,net_U2_F6*%
X158000000Y-143000000D03*
%TO.P,U2,F7*%
%TO.N,net_U2_F7*%
X158800000Y-143000000D03*
%TO.P,U2,F8*%
%TO.N,net_U2_F8*%
X159600000Y-143000000D03*
%TO.P,U2,F9*%
%TO.N,net_U2_F9*%
X160400000Y-143000000D03*
%TO.P,U2,F10*%
%TO.N,net_U2_F10*%
X161200000Y-143000000D03*
%TO.P,U2,F11*%
%TO.N,net_U2_F11*%
X162000000Y-143000000D03*
%TO.P,U2,F12*%
%TO.N,net_U2_F12*%
X162800000Y-143000000D03*
%TO.P,U2,F13*%
%TO.N,net_U2_F13*%
X163600000Y-143000000D03*
%TO.P,U2,F14*%
%TO.N,net_U2_F14*%
X164400000Y-143000000D03*
%TO.P,U2,F15*%
%TO.N,net_U2_F15*%
X165200000Y-143000000D03*
%TO.P,U2,F16*%
%TO.N,net_U2_F16*%
X166000000Y-143000000D03*
%TO.P,U2,G1*%
%TO.N,net_U2_G1*%
X154000000Y-143800000D03*
%TO.P,U2,G2*%
%TO.N,net_U2_G2*%
X154800000Y-143800000D03*
%TO.P,U2,G3*%
%TO.N,net_U2_G3*%
X155600000Y-143800000D03*
%TO.P,U2,G4*%
%TO.N,net_U2_G4*%
X156400000Y-143800000D03*
%TO.P,U2,G5*%
%TO.N,net_U2_G5*%
X157200000Y-143800000D03*
%TO.P,U2,G6*%
%TO.N,net_U2_G6*%
X158000000Y-143800000D03*
%TO.P,U2,G7*%
%TO.N,net_U2_G7*%
X158800000Y-143800000D03*
%TO.P,U2,G8*%
%TO.N,net_U2_G8*%
X159600000Y-143800000D03*
%TO.P,U2,G9*%
%TO.N,net_U2_G9*%
X160400000Y-143800000D03*
%TO.P,U2,G10*%
%TO.N,net_U2_G10*%
X161200000Y-143800000D03*
%TO.P,U2,G11*%
%TO.N,net_U2_G11*%
X162000000Y-143800000D03*
%TO.P,U2,G12*%
%TO.N,net_U2_G12*%
X162800000Y-143800000D03*
%TO.P,U2,G13*%
%TO.N,net_U2_G13*%
X163600000Y-143800000D03*
%TO.P,U2,G14*%
%TO.N,net_U2_G14*%
X164400000Y-143800000D03*
%TO.P,U2,G15*%
%TO.N,net_U2_G15*%
X165200000Y-143800000D03*
%TO.P,U2,G16*%
%TO.N,net_U2_G16*%
X166000000Y-143800000D03*
%TO.P,U2,H1*%
%TO.N,net_U2_H1*%
X154000000Y-144600000D03*
%TO.P,U2,H2*%
%TO.N,net_U2_H2*%
X154800000Y-144600000D03*
%TO.P,U2,H3*%
%TO.N,net_U2_H3*%
X155600000Y-144600000D03*
%TO.P,U2,H4*%
%TO.N,net_U2_H4*%
X156400000Y-144600000D03*
%TO.P,U2,H5*%
%TO.N,net_U2_H5*%
X157200000Y-144600000D03*
%TO.P,U2,H6*%
%TO.N,net_U2_H6*%
X158000000Y-144600000D03*
%TO.P,U2,H7*%
%TO.N,net_U2_H7*%
X158800000Y-144600000D03*
%TO.P,U2,H8*%
%TO.N,net_U2_H8*%
X159600000Y-144600000D03*
%TO.P,U2,H9*%
%TO.N,net_U2_H9*%
X160400000Y-144600000D03*
%TO.P,U2,H10*%
%TO.N,net_U2_H10*%
X161200000Y-144600000D03*
%TO.P,U2,H11*%
%TO.N,net_U2_H11*%
X162000000Y-144600000D03*
%TO.P,U2,H12*%
%TO.N,net_U2_H12*%
X162800000Y-144600000D03*
%TO.P,U2,H13*%
%TO.N,net_U2_H13*%
X163600000Y-144600000D03*
%TO.P,U2,H14*%
%TO.N,net_U2_H14*%
X164400000Y-144600000D03*
%TO.P,U2,H15*%
%TO.N,net_U2_H15*%
X165200000Y-144600000D03*
%TO.P,U2,H16*%
%TO.N,net_U2_H16*%
X166000000Y-144600000D03*
%TO.P,U2,I1*%
%TO.N,net_U2_I1*%
X154000000Y-145400000D03*
%TO.P,U2,I2*%
%TO.N,net_U2_I2*%
X154800000Y-145400000D03*
%TO.P,U2,I3*%
%TO.N,net_U2_I3*%
X155600000Y-145400000D03*
%TO.P,U2,I4*%
%TO.N,net_U2_I4*%
X156400000Y-145400000D03*
%TO.P,U2,I5*%
%TO.N,net_U2_I5*%
X157200000Y-145400000D03*
%TO.P,U2,I6*%
%TO.N,net_U2_I6*%
X158000000Y-145400000D03*
%TO.P,U2,I7*%
%TO.N,net_U2_I7*%
X158800000Y-145400000D03*
%TO.P,U2,I8*%
%TO.N,net_U2_I8*%
X159600000Y-145400000D03*
%TO.P,U2,I9*%
%TO.N,net_U2_I9*%
X160400000Y-145400000D03*
%TO.P,U2,I10*%
%TO.N,net_U2_I10*%
X161200000Y-145400000D03*
%TO.P,U2,I11*%
%TO.N,net_U2_I11*%
X162000000Y-145400000D03*
%TO.P,U2,I12*%
%TO.N,net_U2_I12*%
X162800000Y-145400000D03*
%TO.P,U2,I13*%
%TO.N,net_U2_I13*%
X163600000Y-145400000D03*
%TO.P,U2,I14*%
%TO.N,net_U2_I14*%
X164400000Y-145400000D03*
%TO.P,U2,I15*%
%TO.N,net_U2_I15*%
X165200000Y-145400000D03*
%TO.P,U2,I16*%
%TO.N,net_U2_I16*%
X166000000Y-145400000D03*
%TO.P,U2,J1*%
%TO.N,net_U2_J1*%
X154000000Y-146200000D03*
%TO.P,U2,J2*%
%TO.N,net_U2_J2*%
X154800000Y-146200000D03*
%TO.P,U2,J3*%
%TO.N,net_U2_J3*%
X155600000Y-146200000D03*
%TO.P,U2,J4*%
%TO.N,net_U2_J4*%
X156400000Y-146200000D03*
%TO.P,U2,J5*%
%TO.N,net_U2_J5*%
X157200000Y-146200000D03*
%TO.P,U2,J6*%
%TO.N,net_U2_J6*%
X158000000Y-146200000D03*
%TO.P,U2,J7*%
%TO.N,net_U2_J7*%
X158800000Y-146200000D03*
%TO.P,U2,J8*%
%TO.N,net_U2_J8*%
X159600000Y-146200000D03*
%TO.P,U2,J9*%
%TO.N,net_U2_J9*%
X160400000Y-146200000D03*
%TO.P,U2,J10*%
%TO.N,net_U2_J10*%
X161200000Y-146200000D03*
%TO.P,U2,J11*%
%TO.N,net_U2_J11*%
X162000000Y-146200000D03*
%TO.P,U2,J12*%
%TO.N,net_U2_J12*%
X162800000Y-146200000D03*
%TO.P,U2,J13*%
%TO.N,net_U2_J13*%
X163600000Y-146200000D03*
%TO.P,U2,J14*%
%TO.N,net_U2_J14*%
X164400000Y-146200000D03*
%TO.P,U2,J15*%
%TO.N,net_U2_J15*%
X165200000Y-146200000D03*
%TO.P,U2,J16*%
%TO.N,net_U2_J16*%
X166000000Y-146200000D03*
%TO.P,U2,K1*%
%TO.N,net_U2_K1*%
X154000000Y-147000000D03*
%TO.P,U2,K2*%
%TO.N,net_U2_K2*%
X154800000Y-147000000D03*
%TO.P,U2,K3*%
%TO.N,net_U2_K3*%
X155600000Y-147000000D03*
%TO.P,U2,K4*%
%TO.N,net_U2_K4*%
X156400000Y-147000000D03*
%TO.P,U2,K5*%
%TO.N,net_U2_K5*%
X157200000Y-147000000D03*
%TO.P,U2,K6*%
%TO.N,net_U2_K6*%
X158000000Y-147000000D03*
%TO.P,U2,K7*%
%TO.N,net_U2_K7*%
X158800000Y-147000000D03*
%TO.P,U2,K8*%
%TO.N,net_U2_K8*%
X159600000Y-147000000D03*
%TO.P,U2,K9*%
%TO.N,net_U2_K9*%
X160400000Y-147000000D03*
%TO.P,U2,K10*%
%TO.N,net_U2_K10*%
X161200000Y-147000000D03*
%TO.P,U2,K11*%
%TO.N,net_U2_K11*%
X162000000Y-147000000D03*
%TO.P,U2,K12*%
%TO.N,net_U2_K12*%
X162800000Y-147000000D03*
%TO.P,U2,K13*%
%TO.N,net_U2_K13*%
X163600000Y-147000000D03*
%TO.P,U2,K14*%
%TO.N,net_U2_K14*%
X164400000Y-147000000D03*
%TO.P,U2,K15*%
%TO.N,net_U2_K15*%
X165200000Y-147000000D03*
%TO.P,U2,K16*%
%TO.N,net_U2_K16*%
X166000000Y-147000000D03*
%TO.P,U2,L1*%
%TO.N,net_U2_L1*%
X154000000Y-147800000D03*
%TO.P,U2,L2*%
%TO.N,net_U2_L2*%
X154800000Y-147800000D03*
%TO.P,U2,L3*%
%TO.N,net_U2_L3*%
X155600000Y-147800000D03*
%TO.P,U2,L4*%
%TO.N,net_U2_L4*%
X156400000Y-147800000D03*
%TO.P,U2,L5*%
%TO.N,net_U2_L5*%
X157200000Y-147800000D03*
%TO.P,U2,L6*%
%TO.N,net_U2_L6*%
X158000000Y-147800000D03*
%TO.P,U2,L7*%
%TO.N,net_U2_L7*%
X158800000Y-147800000D03*
%TO.P,U2,L8*%
%TO.N,net_U2_L8*%
X159600000Y-147800000D03*
%TO.P,U2,L9*%
%TO.N,net_U2_L9*%
X160400000Y-147800000D03*
%TO.P,U2,L10*%
%TO.N,net_U2_L10*%
X161200000Y-147800000D03*
%TO.P,U2,L11*%
%TO.N,net_U2_L11*%
X162000000Y-147800000D03*
%TO.P,U2,L12*%
%TO.N,net_U2_L12*%
X162800000Y-147800000D03*
%TO.P,U2,L13*%
%TO.N,net_U2_L13*%
X163600000Y-147800000D03*
%TO.P,U2,L14*%
%TO.N,net_U2_L14*%
X164400000Y-147800000D03*
%TO.P,U2,L15*%
%TO.N,net_U2_L15*%
X165200000Y-147800000D03*
%TO.P,U2,L16*%
%TO.N,net_U2_L16*%
X166000000Y-147800000D03*
%TO.P,U2,M1*%
%TO.N,net_U2_M1*%
X154000000Y-148600000D03*
%TO.P,U2,M2*%
%TO.N,net_U2_M2*%
X154800000Y-148600000D03*
%TO.P,U2,M3*%
%TO.N,net_U2_M3*%
X155600000Y-148600000D03*
%TO.P,U2,M4*%
%TO.N,net_U2_M4*%
X156400000Y-148600000D03*
%TO.P,U2,M5*%
%TO.N,net_U2_M5*%
X157200000Y-148600000D03*
%TO.P,U2,M6*%
%TO.N,net_U2_M6*%
X158000000Y-148600000D03*
%TO.P,U2,M7*%
%TO.N,net_U2_M7*%
X158800000Y-148600000D03*
%TO.P,U2,M8*%
%TO.N,net_U2_M8*%
X159600000Y-148600000D03*
%TO.P,U2,M9*%
%TO.N,net_U2_M9*%
X160400000Y-148600000D03*
%TO.P,U2,M10*%
%TO.N,net_U2_M10*%
X161200000Y-148600000D03*
%TO.P,U2,M11*%
%TO.N,net_U2_M11*%
X162000000Y-148600000D03*
%TO.P,U2,M12*%
%TO.N,net_U2_M12*%
X162800000Y-148600000D03*
%TO.P,U2,M13*%
%TO.N,net_U2_M13*%
X163600000Y-148600000D03*
%TO.P,U2,M14*%
%TO.N,net_U2_M14*%
X164400000Y-148600000D03*
%TO.P,U2,M15*%
%TO.N,net_U2_M15*%
X165200000Y-148600000D03*
%TO.P,U2,M16*%
%TO.N,net_U2_M16*%
X166000000Y-148600000D03*
%TO.P,U2,N1*%
%TO.N,net_U2_N1*%
X154000000Y-149400000D03*
%TO.P,U2,N2*%
%TO.N,net_U2_N2*%
X154800000Y-149400000D03*
%TO.P,U2,N3*%
%TO.N,net_U2_N3*%
X155600000Y-149400000D03*
%TO.P,U2,N4*%
%TO.N,net_U2_N4*%
X156400000Y-149400000D03*
%TO.P,U2,N5*%
%TO.N,net_U2_N5*%
X157200000Y-149400000D03*
%TO.P,U2,N6*%
%TO.N,net_U2_N6*%
X158000000Y-149400000D03*
%TO.P,U2,N7*%
%TO.N,net_U2_N7*%
X158800000Y-149400000D03*
%TO.P,U2,N8*%
%TO.N,net_U2_N8*%
X159600000Y-149400000D03*
%TO.P,U2,N9*%
%TO.N,net_U2_N9*%
X160400000Y-149400000D03*
%TO.P,U2,N10*%
%TO.N,net_U2_N10*%
X161200000Y-149400000D03*
%TO.P,U2,N11*%
%TO.N,net_U2_N11*%
X162000000Y-149400000D03*
%TO.P,U2,N12*%
%TO.N,net_U2_N12*%
X162800000Y-149400000D03*
%TO.P,U2,N13*%
%TO.N,net_U2_N13*%
X163600000Y-149400000D03*
%TO.P,U2,N14*%
%TO.N,net_U2_N14*%
X164400000Y-149400000D03*
%TO.P,U2,N15*%
%TO.N,net_U2_N15*%
X165200000Y-149400000D03*
%TO.P,U2,N16*%
%TO.N,net_U2_N16*%
X166000000Y-149400000D03*
%TO.P,U2,O1*%
%TO.N,net_U2_O1*%
X154000000Y-150200000D03*
%TO.P,U2,O2*%
%TO.N,net_U2_O2*%
X154800000Y-150200000D03*
%TO.P,U2,O3*%
%TO.N,net_U2_O3*%
X155600000Y-150200000D03*
%TO.P,U2,O4*%
%TO.N,net_U2_O4*%
X156400000Y-150200000D03*
%TO.P,U2,O5*%
%TO.N,net_U2_O5*%
X157200000Y-150200000D03*
%TO.P,U2,O6*%
%TO.N,net_U2_O6*%
X158000000Y-150200000D03*
%TO.P,U2,O7*%
%TO.N,net_U2_O7*%
X158800000Y-150200000D03*
%TO.P,U2,O8*%
%TO.N,net_U2_O8*%
X159600000Y-150200000D03*
%TO.P,U2,O9*%
%TO.N,net_U2_O9*%
X160400000Y-150200000D03*
%TO.P,U2,O10*%
%TO.N,net_U2_O10*%
X161200000Y-150200000D03*
%TO.P,U2,O11*%
%TO.N,net_U2_O11*%
X162000000Y-150200000D03*
%TO.P,U2,O12*%
%TO.N,net_U2_O12*%
X162800000Y-150200000D03*
%TO.P,U2,O13*%
%TO.N,net_U2_O13*%
X163600000Y-150200000D03*
%TO.P,U2,O14*%
%TO.N,net_U2_O14*%
X164400000Y-150200000D03*
%TO.P,U2,O15*%
%TO.N,net_U2_O15*%
X165200000Y-150200000D03*
%TO.P,U2,O16*%
%TO.N,net_U2_O16*%
X166000000Y-150200000D03*
%TO.P,U2,P1*%
%TO.N,net_U2_P1*%
X154000000Y-151000000D03*
%TO.P,U2,P2*%
%TO.N,net_U2_P2*%
X154800000Y-151000000D03*
%TO.P,U2,P3*%
%TO.N,net_U2_P3*%
X155600000Y-151000000D03*
%TO.P,U2,P4*%
%TO.N,net_U2_P4*%
X156400000Y-151000000D03*
%TO.P,U2,P5*%
%TO.N,net_U2_P5*%
X157200000Y-151000000D03*
%TO.P,U2,P6*%
%TO.N,net_U2_P6*%
X158000000Y-151000000D03*
%TO.P,U2,P7*%
%TO.N,net_U2_P7*%
X158800000Y-151000000D03*
%TO.P,U2,P8*%
%TO.N,net_U2_P8*%
X159600000Y-151000000D03*
%TO.P,U2,P9*%
%TO.N,net_U2_P9*%
X160400000Y-151000000D03*
%TO.P,U2,P10*%
%TO.N,net_U2_P10*%
X161200000Y-151000000D03*
%TO.P,U2,P11*%
%TO.N,net_U2_P11*%
X162000000Y-151000000D03*
%TO.P,U2,P12*%
%TO.N,net_U2_P12*%
X162800000Y-151000000D03*
%TO.P,U2,P13*%
%TO.N,net_U2_P13*%
X163600000Y-151000000D03*
%TO.P,U2,P14*%
%TO.N,net_U2_P14*%
X164400000Y-151000000D03*
%TO.P,U2,P15*%
%TO.N,net_U2_P15*%
X165200000Y-151000000D03*
%TO.P,U2,P16*%
%TO.N,net_U2_P16*%
X166000000Y-151000000D03*
%TD*%
D15*
%TO.P,U3,1*%
%TO.N,net_U3_1*%
X137700000Y-120000000D03*
%TO.P,U3,2*%
%TO.N,net_U3_2*%
X162300000Y-120000000D03*
D16*
%TO.P,U3,3*%
%TO.N,net_U3_3*%
X150000000Y-120250000D03*
%TO.P,U3,4*%
%TO.N,net_U3_4*%
X150000000Y-120750000D03*
%TO.P,U3,5*%
%TO.N,net_U3_5*%
X150000000Y-121250000D03*
%TO.P,U3,6*%
%TO.N,net_U3_6*%
X150000000Y-121750000D03*
%TO.P,U3,7*%
%TO.N,net_U3_7*%
X150000000Y-122250000D03*
%TO.P,U3,8*%
%TO.N,net_U3_8*%
X150000000Y-122750000D03*
%TO.P,U3,9*%
%TO.N,net_U3_9*%
X150000000Y-123250000D03*
%TO.P,U3,10*%
%TO.N,net_U3_10*%
X150000000Y-123750000D03*
%TO.P,U3,11*%
%TO.N,net_U3_11*%
X150000000Y-124250000D03*
%TO.P,U3,12*%
%TO.N,net_U3_12*%
X150000000Y-124750000D03*
%TO.P,U3,13*%
%TO.N,net_U3_13*%
X150000000Y-125250000D03*
%TO.P,U3,14*%
%TO.N,net_U3_14*%
X150000000Y-125750000D03*
%TO.P,U3,15*%
%TO.N,net_U3_15*%
X150000000Y-126250000D03*
%TO.P,U3,16*%
%TO.N,net_U3_16*%
X150000000Y-126750000D03*
%TO.P,U3,17*%
%TO.N,net_U3_17*%
X150000000Y-127250000D03*
%TO.P,U3,18*%
%TO.N,net_U3_18*%
X150000000Y-127750000D03*
%TO.P,U3,19*%
%TO.N,net_U3_19*%
X150000000Y-128250000D03*
%TO.P,U3,20*%
%TO.N,net_U3_20*%
X150000000Y-128750000D03*
%TO.P,U3,21*%
%TO.N,net_U3_21*%
X150000000Y-129250000D03*
%TO.P,U3,22*%
%TO.N,net_U3_22*%
X150000000Y-129750000D03*
%TO.P,U3,23*%
%TO.N,net_U3_23*%
X150000000Y-130250000D03*
%TO.P,U3,24*%
%TO.N,net_U3_24*%
X150000000Y-130750000D03*
%TO.P,U3,25*%
%TO.N,net_U3_25*%
X150000000Y-131250000D03*
%TO.P,U3,26*%
%TO.N,net_U3_26*%
X150000000Y-131750000D03*
%TO.P,U3,27*%
%TO.N,net_U3_27*%
X150000000Y-132250000D03*
%TO.P,U3,28*%
%TO.N,net_U3_28*%
X150000000Y-132750000D03*
%TO.P,U3,29*%
%TO.N,net_U3_29*%
X150000000Y-133250000D03*
%TO.P,U3,30*%
%TO.N,net_U3_30*%
X150000000Y-133750000D03*
%TO.P,U3,31*%
%TO.N,net_U3_31*%
X150000000Y-134250000D03*
%TO.P,U3,32*%
%TO.N,net_U3_32*%
X150000000Y-134750000D03*
%TO.P,U3,33*%
%TO.N,net_U3_33*%
X150000000Y-135250000D03*
%TO.P,U3,34*%
%TO.N,net_U3_34*%
X150000000Y-135750000D03*
%TO.P,U3,35*%
%TO.N,net_U3_35*%
X150000000Y-136250000D03*
%TO.P,U3,36*%
%TO.N,net_U3_36*%
X150000000Y-136750000D03*
%TO.P,U3,37*%
%TO.N,net_U3_37*%
X150000000Y-137250000D03*
%TO.P,U3,38*%
%TO.N,net_U3_38*%
X150000000Y-137750000D03*
%TO.P,U3,39*%
%TO.N,net_U3_39*%
X150000000Y-138250000D03*
%TO.P,U3,40*%
%TO.N,net_U3_40*%
X150000000Y-138750000D03*
%TD*%
D17*
%TO.P,U10,1*%
%TO.N,net_U10_1*%
X144050000Y-181000000D03*
%TO.P,U10,2*%
%TO.N,net_U10_2*%
X145000000Y-181000000D03*
%TO.P,U10,3*%
%TO.N,net_U10_3*%
X145950000Y-181000000D03*
%TO.P,U10,4*%
%TO.N,net_U10_4*%
X145950000Y-179000000D03*
%TO.P,U10,5*%
%TO.N,net_U10_5*%
X145000000Y-179000000D03*
%TD*%
%TO.P,U11,1*%
%TO.N,net_U11_1*%
X134050000Y-186000000D03*
%TO.P,U11,2*%
%TO.N,net_U11_2*%
X135000000Y-186000000D03*
%TO.P,U11,3*%
%TO.N,net_U11_3*%
X135950000Y-186000000D03*
%TO.P,U11,4*%
%TO.N,net_U11_4*%
X135950000Y-184000000D03*
%TO.P,U11,5*%
%TO.N,net_U11_5*%
X135000000Y-184000000D03*
%TD*%
%TO.P,U12,1*%
%TO.N,net_U12_1*%
X144050000Y-186000000D03*
%TO.P,U12,2*%
%TO.N,net_U12_2*%
X145000000Y-186000000D03*
%TO.P,U12,3*%
%TO.N,net_U12_3*%
X145950000Y-186000000D03*
%TO.P,U12,4*%
%TO.N,net_U12_4*%
X145950000Y-184000000D03*
%TO.P,U12,5*%
%TO.N,net_U12_5*%
X145000000Y-184000000D03*
%TD*%
%TO.P,U13,1*%
%TO.N,net_U13_1*%
X124050000Y-181000000D03*
%TO.P,U13,2*%
%TO.N,net_U13_2*%
X125000000Y-181000000D03*
%TO.P,U13,3*%
%TO.N,net_U13_3*%
X125950000Y-181000000D03*
%TO.P,U13,4*%
%TO.N,net_U13_4*%
X125950000Y-179000000D03*
%TO.P,U13,5*%
%TO.N,net_U13_5*%
X125000000Y-179000000D03*
%TD*%
%TO.P,U14,1*%
%TO.N,net_U14_1*%
X134050000Y-181000000D03*
%TO.P,U14,2*%
%TO.N,net_U14_2*%
X135000000Y-181000000D03*
%TO.P,U14,3*%
%TO.N,net_U14_3*%
X135950000Y-181000000D03*
%TO.P,U14,4*%
%TO.N,net_U14_4*%
X135950000Y-179000000D03*
%TO.P,U14,5*%
%TO.N,net_U14_5*%
X135000000Y-179000000D03*
%TD*%
D18*
%TO.P,U15,1*%
%TO.N,net_U15_1*%
X113095000Y-183400000D03*
%TO.P,U15,8*%
%TO.N,net_U15_8*%
X113095000Y-176600000D03*
%TO.P,U15,2*%
%TO.N,net_U15_2*%
X114365000Y-183400000D03*
%TO.P,U15,7*%
%TO.N,net_U15_7*%
X114365000Y-176600000D03*
%TO.P,U15,3*%
%TO.N,net_U15_3*%
X115635000Y-183400000D03*
%TO.P,U15,6*%
%TO.N,net_U15_6*%
X115635000Y-176600000D03*
%TO.P,U15,4*%
%TO.N,net_U15_4*%
X116905000Y-183400000D03*
%TO.P,U15,5*%
%TO.N,net_U15_5*%
X116905000Y-176600000D03*
%TD*%
D19*
%TO.P,U20,1*%
%TO.N,net_U20_1*%
X168500000Y-137250000D03*
%TO.P,U20,2*%
%TO.N,net_U20_2*%
X169000000Y-137250000D03*
%TO.P,U20,3*%
%TO.N,net_U20_3*%
X169500000Y-137250000D03*
%TO.P,U20,4*%
%TO.N,net_U20_4*%
X170000000Y-137250000D03*
%TO.P,U20,5*%
%TO.N,net_U20_5*%
X170500000Y-137250000D03*
%TO.P,U20,6*%
%TO.N,net_U20_6*%
X171000000Y-137250000D03*
%TO.P,U20,7*%
%TO.N,net_U20_7*%
X171500000Y-137250000D03*
D20*
%TO.P,U20,8*%
%TO.N,net_U20_8*%
X172250000Y-136500000D03*
%TO.P,U20,9*%
%TO.N,net_U20_9*%
X172250000Y-136000000D03*
%TO.P,U20,10*%
%TO.N,net_U20_10*%
X172250000Y-135500000D03*
%TO.P,U20,11*%
%TO.N,net_U20_11*%
X172250000Y-135000000D03*
%TO.P,U20,12*%
%TO.N,net_U20_12*%
X172250000Y-134500000D03*
%TO.P,U20,13*%
%TO.N,net_U20_13*%
X172250000Y-134000000D03*
%TO.P,U20,14*%
%TO.N,net_U20_14*%
X172250000Y-133500000D03*
D19*
%TO.P,U20,15*%
%TO.N,net_U20_15*%
X171500000Y-132750000D03*
%TO.P,U20,16*%
%TO.N,net_U20_16*%
X171000000Y-132750000D03*
%TO.P,U20,17*%
%TO.N,net_U20_17*%
X170500000Y-132750000D03*
%TO.P,U20,18*%
%TO.N,net_U20_18*%
X170000000Y-132750000D03*
%TO.P,U20,19*%
%TO.N,net_U20_19*%
X169500000Y-132750000D03*
%TO.P,U20,20*%
%TO.N,net_U20_20*%
X169000000Y-132750000D03*
%TO.P,U20,21*%
%TO.N,net_U20_21*%
X168500000Y-132750000D03*
D20*
%TO.P,U20,22*%
%TO.N,net_U20_22*%
X167750000Y-133500000D03*
%TO.P,U20,23*%
%TO.N,net_U20_23*%
X167750000Y-134000000D03*
%TO.P,U20,24*%
%TO.N,net_U20_24*%
X167750000Y-134500000D03*
%TO.P,U20,25*%
%TO.N,net_U20_25*%
X167750000Y-135000000D03*
%TO.P,U20,26*%
%TO.N,net_U20_26*%
X167750000Y-135500000D03*
%TO.P,U20,27*%
%TO.N,net_U20_27*%
X167750000Y-136000000D03*
%TO.P,U20,28*%
%TO.N,net_U20_28*%
X167750000Y-136500000D03*
D21*
%TO.P,U20,29*%
%TO.N,GND*%
X170000000Y-135000000D03*
%TD*%
D18*
%TO.P,U21,1*%
%TO.N,net_U21_1*%
X132075000Y-127500000D03*
%TO.P,U21,20*%
%TO.N,net_U21_20*%
X132075000Y-122500000D03*
%TO.P,U21,2*%
%TO.N,net_U21_2*%
X132725000Y-127500000D03*
%TO.P,U21,19*%
%TO.N,net_U21_19*%
X132725000Y-122500000D03*
%TO.P,U21,3*%
%TO.N,net_U21_3*%
X133375000Y-127500000D03*
%TO.P,U21,18*%
%TO.N,net_U21_18*%
X133375000Y-122500000D03*
%TO.P,U21,4*%
%TO.N,net_U21_4*%
X134025000Y-127500000D03*
%TO.P,U21,17*%
%TO.N,net_U21_17*%
X134025000Y-122500000D03*
%TO.P,U21,5*%
%TO.N,net_U21_5*%
X134675000Y-127500000D03*
%TO.P,U21,16*%
%TO.N,net_U21_16*%
X134675000Y-122500000D03*
%TO.P,U21,6*%
%TO.N,net_U21_6*%
X135325000Y-127500000D03*
%TO.P,U21,15*%
%TO.N,net_U21_15*%
X135325000Y-122500000D03*
%TO.P,U21,7*%
%TO.N,net_U21_7*%
X135975000Y-127500000D03*
%TO.P,U21,14*%
%TO.N,net_U21_14*%
X135975000Y-122500000D03*
%TO.P,U21,8*%
%TO.N,net_U21_8*%
X136625000Y-127500000D03*
%TO.P,U21,13*%
%TO.N,net_U21_13*%
X136625000Y-122500000D03*
%TO.P,U21,9*%
%TO.N,net_U21_9*%
X137275000Y-127500000D03*
%TO.P,U21,12*%
%TO.N,net_U21_12*%
X137275000Y-122500000D03*
%TO.P,U21,10*%
%TO.N,net_U21_10*%
X137925000Y-127500000D03*
%TO.P,U21,11*%
%TO.N,net_U21_11*%
X137925000Y-122500000D03*
%TD*%
D22*
%TO.P,U22,1*%
%TO.N,net_U22_1*%
X182250000Y-163200000D03*
%TO.P,U22,2*%
%TO.N,net_U22_2*%
X182750000Y-163200000D03*
%TO.P,U22,3*%
%TO.N,net_U22_3*%
X183250000Y-163200000D03*
%TO.P,U22,4*%
%TO.N,net_U22_4*%
X183750000Y-163200000D03*
%TO.P,U22,5*%
%TO.N,net_U22_5*%
X184250000Y-163200000D03*
%TO.P,U22,6*%
%TO.N,net_U22_6*%
X184750000Y-163200000D03*
%TO.P,U22,7*%
%TO.N,net_U22_7*%
X185250000Y-163200000D03*
%TO.P,U22,8*%
%TO.N,net_U22_8*%
X185750000Y-163200000D03*
%TO.P,U22,9*%
%TO.N,net_U22_9*%
X186250000Y-163200000D03*
%TO.P,U22,10*%
%TO.N,net_U22_10*%
X186750000Y-163200000D03*
%TO.P,U22,11*%
%TO.N,net_U22_11*%
X187250000Y-163200000D03*
%TO.P,U22,12*%
%TO.N,net_U22_12*%
X187750000Y-163200000D03*
D23*
%TO.P,U22,13*%
%TO.N,net_U22_13*%
X188200000Y-162750000D03*
%TO.P,U22,14*%
%TO.N,net_U22_14*%
X188200000Y-162250000D03*
%TO.P,U22,15*%
%TO.N,net_U22_15*%
X188200000Y-161750000D03*
%TO.P,U22,16*%
%TO.N,net_U22_16*%
X188200000Y-161250000D03*
%TO.P,U22,17*%
%TO.N,net_U22_17*%
X188200000Y-160750000D03*
%TO.P,U22,18*%
%TO.N,net_U22_18*%
X188200000Y-160250000D03*
%TO.P,U22,19*%
%TO.N,net_U22_19*%
X188200000Y-159750000D03*
%TO.P,U22,20*%
%TO.N,net_U22_20*%
X188200000Y-159250000D03*
%TO.P,U22,21*%
%TO.N,net_U22_21*%
X188200000Y-158750000D03*
%TO.P,U22,22*%
%TO.N,net_U22_22*%
X188200000Y-158250000D03*
%TO.P,U22,23*%
%TO.N,net_U22_23*%
X188200000Y-157750000D03*
%TO.P,U22,24*%
%TO.N,net_U22_24*%
X188200000Y-157250000D03*
D22*
%TO.P,U22,25*%
%TO.N,net_U22_25*%
X187750000Y-156800000D03*
%TO.P,U22,26*%
%TO.N,net_U22_26*%
X187250000Y-156800000D03*
%TO.P,U22,27*%
%TO.N,net_U22_27*%
X186750000Y-156800000D03*
%TO.P,U22,28*%
%TO.N,net_U22_28*%
X186250000Y-156800000D03*
%TO.P,U22,29*%
%TO.N,net_U22_29*%
X185750000Y-156800000D03*
%TO.P,U22,30*%
%TO.N,net_U22_30*%
X185250000Y-156800000D03*
%TO.P,U22,31*%
%TO.N,net_U22_31*%
X184750000Y-156800000D03*
%TO.P,U22,32*%
%TO.N,net_U22_32*%
X184250000Y-156800000D03*
%TO.P,U22,33*%
%TO.N,net_U22_33*%
X183750000Y-156800000D03*
%TO.P,U22,34*%
%TO.N,net_U22_34*%
X183250000Y-156800000D03*
%TO.P,U22,35*%
%TO.N,net_U22_35*%
X182750000Y-156800000D03*
%TO.P,U22,36*%
%TO.N,net_U22_36*%
X182250000Y-156800000D03*
D23*
%TO.P,U22,37*%
%TO.N,net_U22_37*%
X181800000Y-157250000D03*
%TO.P,U22,38*%
%TO.N,net_U22_38*%
X181800000Y-157750000D03*
%TO.P,U22,39*%
%TO.N,net_U22_39*%
X181800000Y-158250000D03*
%TO.P,U22,40*%
%TO.N,net_U22_40*%
X181800000Y-158750000D03*
%TO.P,U22,41*%
%TO.N,net_U22_41*%
X181800000Y-159250000D03*
%TO.P,U22,42*%
%TO.N,net_U22_42*%
X181800000Y-159750000D03*
%TO.P,U22,43*%
%TO.N,net_U22_43*%
X181800000Y-160250000D03*
%TO.P,U22,44*%
%TO.N,net_U22_44*%
X181800000Y-160750000D03*
%TO.P,U22,45*%
%TO.N,net_U22_45*%
X181800000Y-161250000D03*
%TO.P,U22,46*%
%TO.N,net_U22_46*%
X181800000Y-161750000D03*
%TO.P,U22,47*%
%TO.N,net_U22_47*%
X181800000Y-162250000D03*
%TO.P,U22,48*%
%TO.N,net_U22_48*%
X181800000Y-162750000D03*
D24*
%TO.P,U22,49*%
%TO.N,GND*%
X185000000Y-160000000D03*
%TD*%
D25*
%TO.P,U23,1*%
%TO.N,net_U23_1*%
X173700000Y-150000000D03*
%TO.P,U23,2*%
%TO.N,net_U23_2*%
X176300000Y-150000000D03*
D16*
%TO.P,U23,3*%
%TO.N,net_U23_3*%
X175000000Y-150250000D03*
%TO.P,U23,4*%
%TO.N,net_U23_4*%
X175000000Y-150750000D03*
%TO.P,U23,5*%
%TO.N,net_U23_5*%
X175000000Y-151250000D03*
%TO.P,U23,6*%
%TO.N,net_U23_6*%
X175000000Y-151750000D03*
%TO.P,U23,7*%
%TO.N,net_U23_7*%
X175000000Y-152250000D03*
%TO.P,U23,8*%
%TO.N,net_U23_8*%
X175000000Y-152750000D03*
%TD*%
D18*
%TO.P,U24,1*%
%TO.N,net_U24_1*%
X162725000Y-127500000D03*
%TO.P,U24,16*%
%TO.N,net_U24_16*%
X162725000Y-122500000D03*
%TO.P,U24,2*%
%TO.N,net_U24_2*%
X163375000Y-127500000D03*
%TO.P,U24,15*%
%TO.N,net_U24_15*%
X163375000Y-122500000D03*
%TO.P,U24,3*%
%TO.N,net_U24_3*%
X164025000Y-127500000D03*
%TO.P,U24,14*%
%TO.N,net_U24_14*%
X164025000Y-122500000D03*
%TO.P,U24,4*%
%TO.N,net_U24_4*%
X164675000Y-127500000D03*
%TO.P,U24,13*%
%TO.N,net_U24_13*%
X164675000Y-122500000D03*
%TO.P,U24,5*%
%TO.N,net_U24_5*%
X165325000Y-127500000D03*
%TO.P,U24,12*%
%TO.N,net_U24_12*%
X165325000Y-122500000D03*
%TO.P,U24,6*%
%TO.N,net_U24_6*%
X165975000Y-127500000D03*
%TO.P,U24,11*%
%TO.N,net_U24_11*%
X165975000Y-122500000D03*
%TO.P,U24,7*%
%TO.N,net_U24_7*%
X166625000Y-127500000D03*
%TO.P,U24,10*%
%TO.N,net_U24_10*%
X166625000Y-122500000D03*
%TO.P,U24,8*%
%TO.N,net_U24_8*%
X167275000Y-127500000D03*
%TO.P,U24,9*%
%TO.N,net_U24_9*%
X167275000Y-122500000D03*
%TD*%
D26*
%TO.P,U25,1*%
%TO.N,net_U25_1*%
X129200000Y-150000000D03*
%TO.P,U25,2*%
%TO.N,net_U25_2*%
X130800000Y-150000000D03*
D16*
%TO.P,U25,3*%
%TO.N,net_U25_3*%
X130000000Y-150250000D03*
%TO.P,U25,4*%
%TO.N,net_U25_4*%
X130000000Y-150750000D03*
%TO.P,U25,5*%
%TO.N,net_U25_5*%
X130000000Y-151250000D03*
%TO.P,U25,6*%
%TO.N,net_U25_6*%
X130000000Y-151750000D03*
%TO.P,U25,7*%
%TO.N,net_U25_7*%
X130000000Y-152250000D03*
%TO.P,U25,8*%
%TO.N,net_U25_8*%
X130000000Y-152750000D03*
%TD*%
D27*
%TO.P,Y1,1*%
%TO.N,net_Y1_1*%
X173600000Y-135000000D03*
%TO.P,Y1,2*%
%TO.N,net_Y1_2*%
X176400000Y-135000000D03*
D16*
%TO.P,Y1,3*%
%TO.N,net_Y1_3*%
X175000000Y-135250000D03*
%TO.P,Y1,4*%
%TO.N,net_Y1_4*%
X175000000Y-135750000D03*
%TD*%
D28*
%TO.P,L1,1*%
%TO.N,net_L1_1*%
X112700000Y-175000000D03*
%TO.P,L1,2*%
%TO.N,net_L1_2*%
X117300000Y-175000000D03*
%TD*%
D29*
%TO.P,L2,1*%
%TO.N,net_L2_1*%
X124400000Y-175000000D03*
%TO.P,L2,2*%
%TO.N,net_L2_2*%
X125600000Y-175000000D03*
%TD*%
%TO.P,L3,1*%
%TO.N,net_L3_1*%
X134400000Y-175000000D03*
%TO.P,L3,2*%
%TO.N,net_L3_2*%
X135600000Y-175000000D03*
%TD*%
D30*
%TO.P,C1,1*%
%TO.N,net_C1_1*%
X127200000Y-155000000D03*
%TO.P,C1,2*%
%TO.N,net_C1_2*%
X128800000Y-155000000D03*
%TD*%
%TO.P,C1_2,1*%
%TO.N,net_C1_2_1*%
X129700000Y-155000000D03*
%TO.P,C1_2,2*%
%TO.N,net_C1_2_2*%
X131300000Y-155000000D03*
%TD*%
D29*
%TO.P,C2,1*%
%TO.N,net_C2_1*%
X135400000Y-155000000D03*
%TO.P,C2,2*%
%TO.N,net_C2_2*%
X136600000Y-155000000D03*
%TD*%
%TO.P,C2_2,1*%
%TO.N,net_C2_2_1*%
X137900000Y-155000000D03*
%TO.P,C2_2,2*%
%TO.N,net_C2_2_2*%
X139100000Y-155000000D03*
%TD*%
%TO.P,C2_3,1*%
%TO.N,net_C2_3_1*%
X140400000Y-155000000D03*
%TO.P,C2_3,2*%
%TO.N,net_C2_3_2*%
X141600000Y-155000000D03*
%TD*%
%TO.P,C2_4,1*%
%TO.N,net_C2_4_1*%
X142900000Y-155000000D03*
%TO.P,C2_4,2*%
%TO.N,net_C2_4_2*%
X144100000Y-155000000D03*
%TD*%
D31*
%TO.P,C3,1*%
%TO.N,net_C3_1*%
X143700000Y-155000000D03*
%TO.P,C3,2*%
%TO.N,net_C3_2*%
X144300000Y-155000000D03*
%TD*%
%TO.P,C3_2,1*%
%TO.N,net_C3_2_1*%
X146200000Y-155000000D03*
%TO.P,C3_2,2*%
%TO.N,net_C3_2_2*%
X146800000Y-155000000D03*
%TD*%
%TO.P,C3_3,1*%
%TO.N,net_C3_3_1*%
X148700000Y-155000000D03*
%TO.P,C3_3,2*%
%TO.N,net_C3_3_2*%
X149300000Y-155000000D03*
%TD*%
%TO.P,C3_4,1*%
%TO.N,net_C3_4_1*%
X151200000Y-155000000D03*
%TO.P,C3_4,2*%
%TO.N,net_C3_4_2*%
X151800000Y-155000000D03*
%TD*%
%TO.P,C3_5,1*%
%TO.N,net_C3_5_1*%
X143700000Y-157000000D03*
%TO.P,C3_5,2*%
%TO.N,net_C3_5_2*%
X144300000Y-157000000D03*
%TD*%
%TO.P,C3_6,1*%
%TO.N,net_C3_6_1*%
X146200000Y-157000000D03*
%TO.P,C3_6,2*%
%TO.N,net_C3_6_2*%
X146800000Y-157000000D03*
%TD*%
%TO.P,C3_7,1*%
%TO.N,net_C3_7_1*%
X148700000Y-157000000D03*
%TO.P,C3_7,2*%
%TO.N,net_C3_7_2*%
X149300000Y-157000000D03*
%TD*%
%TO.P,C3_8,1*%
%TO.N,net_C3_8_1*%
X151200000Y-157000000D03*
%TO.P,C3_8,2*%
%TO.N,net_C3_8_2*%
X151800000Y-157000000D03*
%TD*%
%TO.P,C4,1*%
%TO.N,net_C4_1*%
X151700000Y-155000000D03*
%TO.P,C4,2*%
%TO.N,net_C4_2*%
X152300000Y-155000000D03*
%TD*%
%TO.P,C4_2,1*%
%TO.N,net_C4_2_1*%
X154200000Y-155000000D03*
%TO.P,C4_2,2*%
%TO.N,net_C4_2_2*%
X154800000Y-155000000D03*
%TD*%
%TO.P,C4_3,1*%
%TO.N,net_C4_3_1*%
X156700000Y-155000000D03*
%TO.P,C4_3,2*%
%TO.N,net_C4_3_2*%
X157300000Y-155000000D03*
%TD*%
%TO.P,C4_4,1*%
%TO.N,net_C4_4_1*%
X159200000Y-155000000D03*
%TO.P,C4_4,2*%
%TO.N,net_C4_4_2*%
X159800000Y-155000000D03*
%TD*%
%TO.P,C4_5,1*%
%TO.N,net_C4_5_1*%
X151700000Y-157000000D03*
%TO.P,C4_5,2*%
%TO.N,net_C4_5_2*%
X152300000Y-157000000D03*
%TD*%
%TO.P,C4_6,1*%
%TO.N,net_C4_6_1*%
X154200000Y-157000000D03*
%TO.P,C4_6,2*%
%TO.N,net_C4_6_2*%
X154800000Y-157000000D03*
%TD*%
%TO.P,C4_7,1*%
%TO.N,net_C4_7_1*%
X156700000Y-157000000D03*
%TO.P,C4_7,2*%
%TO.N,net_C4_7_2*%
X157300000Y-157000000D03*
%TD*%
%TO.P,C4_8,1*%
%TO.N,net_C4_8_1*%
X159200000Y-157000000D03*
%TO.P,C4_8,2*%
%TO.N,net_C4_8_2*%
X159800000Y-157000000D03*
%TD*%
%TO.P,C4_9,1*%
%TO.N,net_C4_9_1*%
X151700000Y-159000000D03*
%TO.P,C4_9,2*%
%TO.N,net_C4_9_2*%
X152300000Y-159000000D03*
%TD*%
%TO.P,C4_10,1*%
%TO.N,net_C4_10_1*%
X154200000Y-159000000D03*
%TO.P,C4_10,2*%
%TO.N,net_C4_10_2*%
X154800000Y-159000000D03*
%TD*%
%TO.P,C4_11,1*%
%TO.N,net_C4_11_1*%
X156700000Y-159000000D03*
%TO.P,C4_11,2*%
%TO.N,net_C4_11_2*%
X157300000Y-159000000D03*
%TD*%
%TO.P,C4_12,1*%
%TO.N,net_C4_12_1*%
X159200000Y-159000000D03*
%TO.P,C4_12,2*%
%TO.N,net_C4_12_2*%
X159800000Y-159000000D03*
%TD*%
%TO.P,C5,1*%
%TO.N,net_C5_1*%
X159700000Y-155000000D03*
%TO.P,C5,2*%
%TO.N,net_C5_2*%
X160300000Y-155000000D03*
%TD*%
%TO.P,C5_2,1*%
%TO.N,net_C5_2_1*%
X162200000Y-155000000D03*
%TO.P,C5_2,2*%
%TO.N,net_C5_2_2*%
X162800000Y-155000000D03*
%TD*%
%TO.P,C5_3,1*%
%TO.N,net_C5_3_1*%
X164700000Y-155000000D03*
%TO.P,C5_3,2*%
%TO.N,net_C5_3_2*%
X165300000Y-155000000D03*
%TD*%
%TO.P,C5_4,1*%
%TO.N,net_C5_4_1*%
X167200000Y-155000000D03*
%TO.P,C5_4,2*%
%TO.N,net_C5_4_2*%
X167800000Y-155000000D03*
%TD*%
%TO.P,C5_5,1*%
%TO.N,net_C5_5_1*%
X159700000Y-157000000D03*
%TO.P,C5_5,2*%
%TO.N,net_C5_5_2*%
X160300000Y-157000000D03*
%TD*%
%TO.P,C5_6,1*%
%TO.N,net_C5_6_1*%
X162200000Y-157000000D03*
%TO.P,C5_6,2*%
%TO.N,net_C5_6_2*%
X162800000Y-157000000D03*
%TD*%
%TO.P,C5_7,1*%
%TO.N,net_C5_7_1*%
X164700000Y-157000000D03*
%TO.P,C5_7,2*%
%TO.N,net_C5_7_2*%
X165300000Y-157000000D03*
%TD*%
%TO.P,C5_8,1*%
%TO.N,net_C5_8_1*%
X167200000Y-157000000D03*
%TO.P,C5_8,2*%
%TO.N,net_C5_8_2*%
X167800000Y-157000000D03*
%TD*%
%TO.P,C5_9,1*%
%TO.N,net_C5_9_1*%
X159700000Y-159000000D03*
%TO.P,C5_9,2*%
%TO.N,net_C5_9_2*%
X160300000Y-159000000D03*
%TD*%
%TO.P,C5_10,1*%
%TO.N,net_C5_10_1*%
X162200000Y-159000000D03*
%TO.P,C5_10,2*%
%TO.N,net_C5_10_2*%
X162800000Y-159000000D03*
%TD*%
%TO.P,C5_11,1*%
%TO.N,net_C5_11_1*%
X164700000Y-159000000D03*
%TO.P,C5_11,2*%
%TO.N,net_C5_11_2*%
X165300000Y-159000000D03*
%TD*%
%TO.P,C5_12,1*%
%TO.N,net_C5_12_1*%
X167200000Y-159000000D03*
%TO.P,C5_12,2*%
%TO.N,net_C5_12_2*%
X167800000Y-159000000D03*
%TD*%
%TO.P,C5_13,1*%
%TO.N,net_C5_13_1*%
X159700000Y-161000000D03*
%TO.P,C5_13,2*%
%TO.N,net_C5_13_2*%
X160300000Y-161000000D03*
%TD*%
%TO.P,C5_14,1*%
%TO.N,net_C5_14_1*%
X162200000Y-161000000D03*
%TO.P,C5_14,2*%
%TO.N,net_C5_14_2*%
X162800000Y-161000000D03*
%TD*%
%TO.P,C5_15,1*%
%TO.N,net_C5_15_1*%
X164700000Y-161000000D03*
%TO.P,C5_15,2*%
%TO.N,net_C5_15_2*%
X165300000Y-161000000D03*
%TD*%
%TO.P,C5_16,1*%
%TO.N,net_C5_16_1*%
X167200000Y-161000000D03*
%TO.P,C5_16,2*%
%TO.N,net_C5_16_2*%
X167800000Y-161000000D03*
%TD*%
%TO.P,C5_17,1*%
%TO.N,net_C5_17_1*%
X159700000Y-163000000D03*
%TO.P,C5_17,2*%
%TO.N,net_C5_17_2*%
X160300000Y-163000000D03*
%TD*%
%TO.P,C5_18,1*%
%TO.N,net_C5_18_1*%
X162200000Y-163000000D03*
%TO.P,C5_18,2*%
%TO.N,net_C5_18_2*%
X162800000Y-163000000D03*
%TD*%
%TO.P,C5_19,1*%
%TO.N,net_C5_19_1*%
X164700000Y-163000000D03*
%TO.P,C5_19,2*%
%TO.N,net_C5_19_2*%
X165300000Y-163000000D03*
%TD*%
%TO.P,C5_20,1*%
%TO.N,net_C5_20_1*%
X167200000Y-163000000D03*
%TO.P,C5_20,2*%
%TO.N,net_C5_20_2*%
X167800000Y-163000000D03*
%TD*%
%TO.P,C5_21,1*%
%TO.N,net_C5_21_1*%
X159700000Y-165000000D03*
%TO.P,C5_21,2*%
%TO.N,net_C5_21_2*%
X160300000Y-165000000D03*
%TD*%
%TO.P,C5_22,1*%
%TO.N,net_C5_22_1*%
X162200000Y-165000000D03*
%TO.P,C5_22,2*%
%TO.N,net_C5_22_2*%
X162800000Y-165000000D03*
%TD*%
%TO.P,C5_23,1*%
%TO.N,net_C5_23_1*%
X164700000Y-165000000D03*
%TO.P,C5_23,2*%
%TO.N,net_C5_23_2*%
X165300000Y-165000000D03*
%TD*%
%TO.P,C5_24,1*%
%TO.N,net_C5_24_1*%
X167200000Y-165000000D03*
%TO.P,C5_24,2*%
%TO.N,net_C5_24_2*%
X167800000Y-165000000D03*
%TD*%
%TO.P,C6,1*%
%TO.N,net_C6_1*%
X167700000Y-155000000D03*
%TO.P,C6,2*%
%TO.N,net_C6_2*%
X168300000Y-155000000D03*
%TD*%
%TO.P,C6_2,1*%
%TO.N,net_C6_2_1*%
X170200000Y-155000000D03*
%TO.P,C6_2,2*%
%TO.N,net_C6_2_2*%
X170800000Y-155000000D03*
%TD*%
%TO.P,C6_3,1*%
%TO.N,net_C6_3_1*%
X172700000Y-155000000D03*
%TO.P,C6_3,2*%
%TO.N,net_C6_3_2*%
X173300000Y-155000000D03*
%TD*%
%TO.P,C6_4,1*%
%TO.N,net_C6_4_1*%
X175200000Y-155000000D03*
%TO.P,C6_4,2*%
%TO.N,net_C6_4_2*%
X175800000Y-155000000D03*
%TD*%
%TO.P,C6_5,1*%
%TO.N,net_C6_5_1*%
X167700000Y-157000000D03*
%TO.P,C6_5,2*%
%TO.N,net_C6_5_2*%
X168300000Y-157000000D03*
%TD*%
%TO.P,C6_6,1*%
%TO.N,net_C6_6_1*%
X170200000Y-157000000D03*
%TO.P,C6_6,2*%
%TO.N,net_C6_6_2*%
X170800000Y-157000000D03*
%TD*%
%TO.P,C6_7,1*%
%TO.N,net_C6_7_1*%
X172700000Y-157000000D03*
%TO.P,C6_7,2*%
%TO.N,net_C6_7_2*%
X173300000Y-157000000D03*
%TD*%
%TO.P,C6_8,1*%
%TO.N,net_C6_8_1*%
X175200000Y-157000000D03*
%TO.P,C6_8,2*%
%TO.N,net_C6_8_2*%
X175800000Y-157000000D03*
%TD*%
%TO.P,C7,1*%
%TO.N,net_C7_1*%
X175700000Y-155000000D03*
%TO.P,C7,2*%
%TO.N,net_C7_2*%
X176300000Y-155000000D03*
%TD*%
%TO.P,C7_2,1*%
%TO.N,net_C7_2_1*%
X178200000Y-155000000D03*
%TO.P,C7_2,2*%
%TO.N,net_C7_2_2*%
X178800000Y-155000000D03*
%TD*%
%TO.P,C7_3,1*%
%TO.N,net_C7_3_1*%
X180700000Y-155000000D03*
%TO.P,C7_3,2*%
%TO.N,net_C7_3_2*%
X181300000Y-155000000D03*
%TD*%
%TO.P,C7_4,1*%
%TO.N,net_C7_4_1*%
X183200000Y-155000000D03*
%TO.P,C7_4,2*%
%TO.N,net_C7_4_2*%
X183800000Y-155000000D03*
%TD*%
%TO.P,C8,1*%
%TO.N,net_C8_1*%
X119700000Y-160000000D03*
%TO.P,C8,2*%
%TO.N,net_C8_2*%
X120300000Y-160000000D03*
%TD*%
%TO.P,C8_2,1*%
%TO.N,net_C8_2_1*%
X122200000Y-160000000D03*
%TO.P,C8_2,2*%
%TO.N,net_C8_2_2*%
X122800000Y-160000000D03*
%TD*%
%TO.P,C8_3,1*%
%TO.N,net_C8_3_1*%
X124700000Y-160000000D03*
%TO.P,C8_3,2*%
%TO.N,net_C8_3_2*%
X125300000Y-160000000D03*
%TD*%
%TO.P,C8_4,1*%
%TO.N,net_C8_4_1*%
X127200000Y-160000000D03*
%TO.P,C8_4,2*%
%TO.N,net_C8_4_2*%
X127800000Y-160000000D03*
%TD*%
%TO.P,C8_5,1*%
%TO.N,net_C8_5_1*%
X119700000Y-162000000D03*
%TO.P,C8_5,2*%
%TO.N,net_C8_5_2*%
X120300000Y-162000000D03*
%TD*%
%TO.P,C8_6,1*%
%TO.N,net_C8_6_1*%
X122200000Y-162000000D03*
%TO.P,C8_6,2*%
%TO.N,net_C8_6_2*%
X122800000Y-162000000D03*
%TD*%
%TO.P,C8_7,1*%
%TO.N,net_C8_7_1*%
X124700000Y-162000000D03*
%TO.P,C8_7,2*%
%TO.N,net_C8_7_2*%
X125300000Y-162000000D03*
%TD*%
%TO.P,C8_8,1*%
%TO.N,net_C8_8_1*%
X127200000Y-162000000D03*
%TO.P,C8_8,2*%
%TO.N,net_C8_8_2*%
X127800000Y-162000000D03*
%TD*%
%TO.P,C9,1*%
%TO.N,net_C9_1*%
X127700000Y-160000000D03*
%TO.P,C9,2*%
%TO.N,net_C9_2*%
X128300000Y-160000000D03*
%TD*%
%TO.P,C9_2,1*%
%TO.N,net_C9_2_1*%
X130200000Y-160000000D03*
%TO.P,C9_2,2*%
%TO.N,net_C9_2_2*%
X130800000Y-160000000D03*
%TD*%
%TO.P,C9_3,1*%
%TO.N,net_C9_3_1*%
X132700000Y-160000000D03*
%TO.P,C9_3,2*%
%TO.N,net_C9_3_2*%
X133300000Y-160000000D03*
%TD*%
%TO.P,C9_4,1*%
%TO.N,net_C9_4_1*%
X135200000Y-160000000D03*
%TO.P,C9_4,2*%
%TO.N,net_C9_4_2*%
X135800000Y-160000000D03*
%TD*%
D32*
%TO.P,C10,1*%
%TO.N,net_C10_1*%
X135900000Y-160000000D03*
%TO.P,C10,2*%
%TO.N,net_C10_2*%
X136100000Y-160000000D03*
%TD*%
%TO.P,C10_2,1*%
%TO.N,net_C10_2_1*%
X138400000Y-160000000D03*
%TO.P,C10_2,2*%
%TO.N,net_C10_2_2*%
X138600000Y-160000000D03*
%TD*%
%TO.P,C10_3,1*%
%TO.N,net_C10_3_1*%
X140900000Y-160000000D03*
%TO.P,C10_3,2*%
%TO.N,net_C10_3_2*%
X141100000Y-160000000D03*
%TD*%
%TO.P,C10_4,1*%
%TO.N,net_C10_4_1*%
X143400000Y-160000000D03*
%TO.P,C10_4,2*%
%TO.N,net_C10_4_2*%
X143600000Y-160000000D03*
%TD*%
%TO.P,C10_5,1*%
%TO.N,net_C10_5_1*%
X135900000Y-162000000D03*
%TO.P,C10_5,2*%
%TO.N,net_C10_5_2*%
X136100000Y-162000000D03*
%TD*%
%TO.P,C10_6,1*%
%TO.N,net_C10_6_1*%
X138400000Y-162000000D03*
%TO.P,C10_6,2*%
%TO.N,net_C10_6_2*%
X138600000Y-162000000D03*
%TD*%
%TO.P,C10_7,1*%
%TO.N,net_C10_7_1*%
X140900000Y-162000000D03*
%TO.P,C10_7,2*%
%TO.N,net_C10_7_2*%
X141100000Y-162000000D03*
%TD*%
%TO.P,C10_8,1*%
%TO.N,net_C10_8_1*%
X143400000Y-162000000D03*
%TO.P,C10_8,2*%
%TO.N,net_C10_8_2*%
X143600000Y-162000000D03*
%TD*%
%TO.P,C10_9,1*%
%TO.N,net_C10_9_1*%
X135900000Y-164000000D03*
%TO.P,C10_9,2*%
%TO.N,net_C10_9_2*%
X136100000Y-164000000D03*
%TD*%
%TO.P,C10_10,1*%
%TO.N,net_C10_10_1*%
X138400000Y-164000000D03*
%TO.P,C10_10,2*%
%TO.N,net_C10_10_2*%
X138600000Y-164000000D03*
%TD*%
%TO.P,C10_11,1*%
%TO.N,net_C10_11_1*%
X140900000Y-164000000D03*
%TO.P,C10_11,2*%
%TO.N,net_C10_11_2*%
X141100000Y-164000000D03*
%TD*%
%TO.P,C10_12,1*%
%TO.N,net_C10_12_1*%
X143400000Y-164000000D03*
%TO.P,C10_12,2*%
%TO.N,net_C10_12_2*%
X143600000Y-164000000D03*
%TD*%
%TO.P,C10_13,1*%
%TO.N,net_C10_13_1*%
X135900000Y-166000000D03*
%TO.P,C10_13,2*%
%TO.N,net_C10_13_2*%
X136100000Y-166000000D03*
%TD*%
%TO.P,C10_14,1*%
%TO.N,net_C10_14_1*%
X138400000Y-166000000D03*
%TO.P,C10_14,2*%
%TO.N,net_C10_14_2*%
X138600000Y-166000000D03*
%TD*%
%TO.P,C10_15,1*%
%TO.N,net_C10_15_1*%
X140900000Y-166000000D03*
%TO.P,C10_15,2*%
%TO.N,net_C10_15_2*%
X141100000Y-166000000D03*
%TD*%
%TO.P,C10_16,1*%
%TO.N,net_C10_16_1*%
X143400000Y-166000000D03*
%TO.P,C10_16,2*%
%TO.N,net_C10_16_2*%
X143600000Y-166000000D03*
%TD*%
D33*
%TO.P,C11,1*%
%TO.N,net_C11_1*%
X140550000Y-160000000D03*
%TO.P,C11,2*%
%TO.N,net_C11_2*%
X147450000Y-160000000D03*
%TD*%
%TO.P,C11_2,1*%
%TO.N,net_C11_2_1*%
X143050000Y-160000000D03*
%TO.P,C11_2,2*%
%TO.N,net_C11_2_2*%
X149950000Y-160000000D03*
%TD*%
D31*
%TO.P,R1,1*%
%TO.N,net_R1_1*%
X127700000Y-162000000D03*
%TO.P,R1,2*%
%TO.N,net_R1_2*%
X128300000Y-162000000D03*
%TD*%
%TO.P,R1_2,1*%
%TO.N,net_R1_2_1*%
X130200000Y-162000000D03*
%TO.P,R1_2,2*%
%TO.N,net_R1_2_2*%
X130800000Y-162000000D03*
%TD*%
%TO.P,R1_3,1*%
%TO.N,net_R1_3_1*%
X132700000Y-162000000D03*
%TO.P,R1_3,2*%
%TO.N,net_R1_3_2*%
X133300000Y-162000000D03*
%TD*%
%TO.P,R1_4,1*%
%TO.N,net_R1_4_1*%
X135200000Y-162000000D03*
%TO.P,R1_4,2*%
%TO.N,net_R1_4_2*%
X135800000Y-162000000D03*
%TD*%
%TO.P,R1_5,1*%
%TO.N,net_R1_5_1*%
X127700000Y-164000000D03*
%TO.P,R1_5,2*%
%TO.N,net_R1_5_2*%
X128300000Y-164000000D03*
%TD*%
%TO.P,R1_6,1*%
%TO.N,net_R1_6_1*%
X130200000Y-164000000D03*
%TO.P,R1_6,2*%
%TO.N,net_R1_6_2*%
X130800000Y-164000000D03*
%TD*%
%TO.P,R1_7,1*%
%TO.N,net_R1_7_1*%
X132700000Y-164000000D03*
%TO.P,R1_7,2*%
%TO.N,net_R1_7_2*%
X133300000Y-164000000D03*
%TD*%
%TO.P,R1_8,1*%
%TO.N,net_R1_8_1*%
X135200000Y-164000000D03*
%TO.P,R1_8,2*%
%TO.N,net_R1_8_2*%
X135800000Y-164000000D03*
%TD*%
%TO.P,R1_9,1*%
%TO.N,net_R1_9_1*%
X127700000Y-166000000D03*
%TO.P,R1_9,2*%
%TO.N,net_R1_9_2*%
X128300000Y-166000000D03*
%TD*%
%TO.P,R1_10,1*%
%TO.N,net_R1_10_1*%
X130200000Y-166000000D03*
%TO.P,R1_10,2*%
%TO.N,net_R1_10_2*%
X130800000Y-166000000D03*
%TD*%
%TO.P,R1_11,1*%
%TO.N,net_R1_11_1*%
X132700000Y-166000000D03*
%TO.P,R1_11,2*%
%TO.N,net_R1_11_2*%
X133300000Y-166000000D03*
%TD*%
%TO.P,R1_12,1*%
%TO.N,net_R1_12_1*%
X135200000Y-166000000D03*
%TO.P,R1_12,2*%
%TO.N,net_R1_12_2*%
X135800000Y-166000000D03*
%TD*%
%TO.P,R2,1*%
%TO.N,net_R2_1*%
X135700000Y-162000000D03*
%TO.P,R2,2*%
%TO.N,net_R2_2*%
X136300000Y-162000000D03*
%TD*%
%TO.P,R2_2,1*%
%TO.N,net_R2_2_1*%
X138200000Y-162000000D03*
%TO.P,R2_2,2*%
%TO.N,net_R2_2_2*%
X138800000Y-162000000D03*
%TD*%
%TO.P,R2_3,1*%
%TO.N,net_R2_3_1*%
X140700000Y-162000000D03*
%TO.P,R2_3,2*%
%TO.N,net_R2_3_2*%
X141300000Y-162000000D03*
%TD*%
%TO.P,R2_4,1*%
%TO.N,net_R2_4_1*%
X143200000Y-162000000D03*
%TO.P,R2_4,2*%
%TO.N,net_R2_4_2*%
X143800000Y-162000000D03*
%TD*%
%TO.P,R2_5,1*%
%TO.N,net_R2_5_1*%
X135700000Y-164000000D03*
%TO.P,R2_5,2*%
%TO.N,net_R2_5_2*%
X136300000Y-164000000D03*
%TD*%
%TO.P,R2_6,1*%
%TO.N,net_R2_6_1*%
X138200000Y-164000000D03*
%TO.P,R2_6,2*%
%TO.N,net_R2_6_2*%
X138800000Y-164000000D03*
%TD*%
%TO.P,R3,1*%
%TO.N,net_R3_1*%
X143700000Y-162000000D03*
%TO.P,R3,2*%
%TO.N,net_R3_2*%
X144300000Y-162000000D03*
%TD*%
%TO.P,R3_2,1*%
%TO.N,net_R3_2_1*%
X146200000Y-162000000D03*
%TO.P,R3_2,2*%
%TO.N,net_R3_2_2*%
X146800000Y-162000000D03*
%TD*%
%TO.P,R3_3,1*%
%TO.N,net_R3_3_1*%
X148700000Y-162000000D03*
%TO.P,R3_3,2*%
%TO.N,net_R3_3_2*%
X149300000Y-162000000D03*
%TD*%
%TO.P,R3_4,1*%
%TO.N,net_R3_4_1*%
X151200000Y-162000000D03*
%TO.P,R3_4,2*%
%TO.N,net_R3_4_2*%
X151800000Y-162000000D03*
%TD*%
%TO.P,R3_5,1*%
%TO.N,net_R3_5_1*%
X143700000Y-164000000D03*
%TO.P,R3_5,2*%
%TO.N,net_R3_5_2*%
X144300000Y-164000000D03*
%TD*%
%TO.P,R3_6,1*%
%TO.N,net_R3_6_1*%
X146200000Y-164000000D03*
%TO.P,R3_6,2*%
%TO.N,net_R3_6_2*%
X146800000Y-164000000D03*
%TD*%
%TO.P,R3_7,1*%
%TO.N,net_R3_7_1*%
X148700000Y-164000000D03*
%TO.P,R3_7,2*%
%TO.N,net_R3_7_2*%
X149300000Y-164000000D03*
%TD*%
%TO.P,R3_8,1*%
%TO.N,net_R3_8_1*%
X151200000Y-164000000D03*
%TO.P,R3_8,2*%
%TO.N,net_R3_8_2*%
X151800000Y-164000000D03*
%TD*%
%TO.P,R4,1*%
%TO.N,net_R4_1*%
X151700000Y-162000000D03*
%TO.P,R4,2*%
%TO.N,net_R4_2*%
X152300000Y-162000000D03*
%TD*%
%TO.P,R4_2,1*%
%TO.N,net_R4_2_1*%
X154200000Y-162000000D03*
%TO.P,R4_2,2*%
%TO.N,net_R4_2_2*%
X154800000Y-162000000D03*
%TD*%
%TO.P,R4_3,1*%
%TO.N,net_R4_3_1*%
X156700000Y-162000000D03*
%TO.P,R4_3,2*%
%TO.N,net_R4_3_2*%
X157300000Y-162000000D03*
%TD*%
%TO.P,R4_4,1*%
%TO.N,net_R4_4_1*%
X159200000Y-162000000D03*
%TO.P,R4_4,2*%
%TO.N,net_R4_4_2*%
X159800000Y-162000000D03*
%TD*%
%TO.P,R5,1*%
%TO.N,net_R5_1*%
X159700000Y-162000000D03*
%TO.P,R5,2*%
%TO.N,net_R5_2*%
X160300000Y-162000000D03*
%TD*%
%TO.P,R5_2,1*%
%TO.N,net_R5_2_1*%
X162200000Y-162000000D03*
%TO.P,R5_2,2*%
%TO.N,net_R5_2_2*%
X162800000Y-162000000D03*
%TD*%
%TO.P,R5_3,1*%
%TO.N,net_R5_3_1*%
X164700000Y-162000000D03*
%TO.P,R5_3,2*%
%TO.N,net_R5_3_2*%
X165300000Y-162000000D03*
%TD*%
%TO.P,R5_4,1*%
%TO.N,net_R5_4_1*%
X167200000Y-162000000D03*
%TO.P,R5_4,2*%
%TO.N,net_R5_4_2*%
X167800000Y-162000000D03*
%TD*%
%TO.P,R6,1*%
%TO.N,net_R6_1*%
X167700000Y-162000000D03*
%TO.P,R6,2*%
%TO.N,net_R6_2*%
X168300000Y-162000000D03*
%TD*%
%TO.P,R6_2,1*%
%TO.N,net_R6_2_1*%
X170200000Y-162000000D03*
%TO.P,R6_2,2*%
%TO.N,net_R6_2_2*%
X170800000Y-162000000D03*
%TD*%
%TO.P,R6_3,1*%
%TO.N,net_R6_3_1*%
X172700000Y-162000000D03*
%TO.P,R6_3,2*%
%TO.N,net_R6_3_2*%
X173300000Y-162000000D03*
%TD*%
%TO.P,R6_4,1*%
%TO.N,net_R6_4_1*%
X175200000Y-162000000D03*
%TO.P,R6_4,2*%
%TO.N,net_R6_4_2*%
X175800000Y-162000000D03*
%TD*%
%TO.P,R7,1*%
%TO.N,net_R7_1*%
X175700000Y-162000000D03*
%TO.P,R7,2*%
%TO.N,net_R7_2*%
X176300000Y-162000000D03*
%TD*%
%TO.P,R7_2,1*%
%TO.N,net_R7_2_1*%
X178200000Y-162000000D03*
%TO.P,R7_2,2*%
%TO.N,net_R7_2_2*%
X178800000Y-162000000D03*
%TD*%
%TO.P,R7_3,1*%
%TO.N,net_R7_3_1*%
X180700000Y-162000000D03*
%TO.P,R7_3,2*%
%TO.N,net_R7_3_2*%
X181300000Y-162000000D03*
%TD*%
%TO.P,R7_4,1*%
%TO.N,net_R7_4_1*%
X183200000Y-162000000D03*
%TO.P,R7_4,2*%
%TO.N,net_R7_4_2*%
X183800000Y-162000000D03*
%TD*%
D29*
%TO.P,D1,1*%
%TO.N,net_D1_1*%
X184400000Y-175000000D03*
%TO.P,D1,2*%
%TO.N,net_D1_2*%
X185600000Y-175000000D03*
%TD*%
%TO.P,D2,1*%
%TO.N,net_D2_1*%
X179400000Y-180000000D03*
%TO.P,D2,2*%
%TO.N,net_D2_2*%
X180600000Y-180000000D03*
%TD*%
%TO.P,D3,1*%
%TO.N,net_D3_1*%
X184400000Y-180000000D03*
%TO.P,D3,2*%
%TO.N,net_D3_2*%
X185600000Y-180000000D03*
%TD*%
%TO.P,D4,1*%
%TO.N,net_D4_1*%
X179400000Y-185000000D03*
%TO.P,D4,2*%
%TO.N,net_D4_2*%
X180600000Y-185000000D03*
%TD*%
D34*
%TO.P,D5,1*%
%TO.N,net_D5_1*%
X184300000Y-185000000D03*
%TO.P,D5,2*%
%TO.N,net_D5_2*%
X185700000Y-185000000D03*
%TD*%
%TO.P,D5_2,1*%
%TO.N,net_D5_2_1*%
X186800000Y-185000000D03*
%TO.P,D5_2,2*%
%TO.N,net_D5_2_2*%
X188200000Y-185000000D03*
%TD*%
D35*
%TO.P,J1,1*%
%TO.N,net_J1_1*%
X102460000Y-190000000D03*
%TO.P,J1,2*%
%TO.N,net_J1_2*%
X105000000Y-190000000D03*
%TO.P,J1,3*%
%TO.N,net_J1_3*%
X107540000Y-190000000D03*
%TD*%
D36*
%TO.P,J2,1*%
%TO.N,net_J2_1*%
X190000000Y-169270000D03*
%TO.P,J2,2*%
%TO.N,net_J2_2*%
X190000000Y-160730000D03*
D16*
%TO.P,J2,3*%
%TO.N,net_J2_3*%
X190250000Y-165000000D03*
%TO.P,J2,4*%
%TO.N,net_J2_4*%
X190750000Y-165000000D03*
%TO.P,J2,5*%
%TO.N,net_J2_5*%
X191250000Y-165000000D03*
%TO.P,J2,6*%
%TO.N,net_J2_6*%
X191750000Y-165000000D03*
%TO.P,J2,7*%
%TO.N,net_J2_7*%
X192250000Y-165000000D03*
%TO.P,J2,8*%
%TO.N,net_J2_8*%
X192750000Y-165000000D03*
%TO.P,J2,9*%
%TO.N,net_J2_9*%
X193250000Y-165000000D03*
%TO.P,J2,10*%
%TO.N,net_J2_10*%
X193750000Y-165000000D03*
%TO.P,J2,11*%
%TO.N,net_J2_11*%
X194250000Y-165000000D03*
%TO.P,J2,12*%
%TO.N,net_J2_12*%
X194750000Y-165000000D03*
%TO.P,J2,13*%
%TO.N,net_J2_13*%
X195250000Y-165000000D03*
%TO.P,J2,14*%
%TO.N,net_J2_14*%
X195750000Y-165000000D03*
%TO.P,J2,15*%
%TO.N,net_J2_15*%
X196250000Y-165000000D03*
%TO.P,J2,16*%
%TO.N,net_J2_16*%
X196750000Y-165000000D03*
%TD*%
D35*
%TO.P,J3,1*%
%TO.N,net_J3_1*%
X103730000Y-180000000D03*
%TO.P,J3,2*%
%TO.N,net_J3_2*%
X106270000Y-180000000D03*
%TD*%
%TO.P,J5,1*%
%TO.N,net_J5_1*%
X190000000Y-151430000D03*
%TO.P,J5,2*%
%TO.N,net_J5_2*%
X190000000Y-148890000D03*
%TO.P,J5,3*%
%TO.N,net_J5_3*%
X190000000Y-146350000D03*
%TO.P,J5,4*%
%TO.N,net_J5_4*%
X190000000Y-143810000D03*
%TO.P,J5,5*%
%TO.N,net_J5_5*%
X190000000Y-141270000D03*
%TO.P,J5,6*%
%TO.N,net_J5_6*%
X190000000Y-138730000D03*
%TO.P,J5,7*%
%TO.N,net_J5_7*%
X190000000Y-136190000D03*
%TO.P,J5,8*%
%TO.N,net_J5_8*%
X190000000Y-133650000D03*
%TO.P,J5,9*%
%TO.N,net_J5_9*%
X190000000Y-131110000D03*
%TO.P,J5,10*%
%TO.N,net_J5_10*%
X190000000Y-128570000D03*
%TD*%
%TO.P,J6,1*%
%TO.N,net_J6_1*%
X190000000Y-166510000D03*
%TO.P,J6,2*%
%TO.N,net_J6_2*%
X190000000Y-163970000D03*
%TO.P,J6,3*%
%TO.N,net_J6_3*%
X190000000Y-161430000D03*
%TO.P,J6,4*%
%TO.N,net_J6_4*%
X190000000Y-158890000D03*
%TO.P,J6,5*%
%TO.N,net_J6_5*%
X190000000Y-156350000D03*
%TO.P,J6,6*%
%TO.N,net_J6_6*%
X190000000Y-153810000D03*
%TO.P,J6,7*%
%TO.N,net_J6_7*%
X190000000Y-151270000D03*
%TO.P,J6,8*%
%TO.N,net_J6_8*%
X190000000Y-148730000D03*
%TO.P,J6,9*%
%TO.N,net_J6_9*%
X190000000Y-146190000D03*
%TO.P,J6,10*%
%TO.N,net_J6_10*%
X190000000Y-143650000D03*
%TO.P,J6,11*%
%TO.N,net_J6_11*%
X190000000Y-141110000D03*
%TO.P,J6,12*%
%TO.N,net_J6_12*%
X190000000Y-138570000D03*
%TO.P,J6,13*%
%TO.N,net_J6_13*%
X190000000Y-136030000D03*
%TO.P,J6,14*%
%TO.N,net_J6_14*%
X190000000Y-133490000D03*
%TD*%
%TO.P,J7,1*%
%TO.N,net_J7_1*%
X114920000Y-105000000D03*
%TO.P,J7,2*%
%TO.N,net_J7_2*%
X117460000Y-105000000D03*
%TO.P,J7,3*%
%TO.N,net_J7_3*%
X120000000Y-105000000D03*
%TO.P,J7,4*%
%TO.N,net_J7_4*%
X122540000Y-105000000D03*
%TO.P,J7,5*%
%TO.N,net_J7_5*%
X125080000Y-105000000D03*
%TD*%
%TO.P,J8,1*%
%TO.N,net_J8_1*%
X129920000Y-105000000D03*
%TO.P,J8,2*%
%TO.N,net_J8_2*%
X132460000Y-105000000D03*
%TO.P,J8,3*%
%TO.N,net_J8_3*%
X135000000Y-105000000D03*
%TO.P,J8,4*%
%TO.N,net_J8_4*%
X137540000Y-105000000D03*
%TO.P,J8,5*%
%TO.N,net_J8_5*%
X140080000Y-105000000D03*
%TD*%
%TO.P,J9,1*%
%TO.N,net_J9_1*%
X159920000Y-105000000D03*
%TO.P,J9,2*%
%TO.N,net_J9_2*%
X162460000Y-105000000D03*
%TO.P,J9,3*%
%TO.N,net_J9_3*%
X165000000Y-105000000D03*
%TO.P,J9,4*%
%TO.N,net_J9_4*%
X167540000Y-105000000D03*
%TO.P,J9,5*%
%TO.N,net_J9_5*%
X170080000Y-105000000D03*
%TD*%
%TO.P,J10,1*%
%TO.N,net_J10_1*%
X174920000Y-105000000D03*
%TO.P,J10,2*%
%TO.N,net_J10_2*%
X177460000Y-105000000D03*
%TO.P,J10,3*%
%TO.N,net_J10_3*%
X180000000Y-105000000D03*
%TO.P,J10,4*%
%TO.N,net_J10_4*%
X182540000Y-105000000D03*
%TO.P,J10,5*%
%TO.N,net_J10_5*%
X185080000Y-105000000D03*
%TD*%
%TO.P,J11,1*%
%TO.N,net_J11_1*%
X120790000Y-105000000D03*
%TO.P,J11,2*%
%TO.N,net_J11_2*%
X123330000Y-105000000D03*
%TO.P,J11,3*%
%TO.N,net_J11_3*%
X125870000Y-105000000D03*
%TO.P,J11,4*%
%TO.N,net_J11_4*%
X128410000Y-105000000D03*
%TO.P,J11,5*%
%TO.N,net_J11_5*%
X130950000Y-105000000D03*
%TO.P,J11,6*%
%TO.N,net_J11_6*%
X133490000Y-105000000D03*
%TO.P,J11,7*%
%TO.N,net_J11_7*%
X136030000Y-105000000D03*
%TO.P,J11,8*%
%TO.N,net_J11_8*%
X138570000Y-105000000D03*
%TO.P,J11,9*%
%TO.N,net_J11_9*%
X141110000Y-105000000D03*
%TO.P,J11,10*%
%TO.N,net_J11_10*%
X143650000Y-105000000D03*
%TO.P,J11,11*%
%TO.N,net_J11_11*%
X146190000Y-105000000D03*
%TO.P,J11,12*%
%TO.N,net_J11_12*%
X148730000Y-105000000D03*
%TO.P,J11,13*%
%TO.N,net_J11_13*%
X151270000Y-105000000D03*
%TO.P,J11,14*%
%TO.N,net_J11_14*%
X153810000Y-105000000D03*
%TO.P,J11,15*%
%TO.N,net_J11_15*%
X156350000Y-105000000D03*
%TO.P,J11,16*%
%TO.N,net_J11_16*%
X158890000Y-105000000D03*
%TO.P,J11,17*%
%TO.N,net_J11_17*%
X161430000Y-105000000D03*
%TO.P,J11,18*%
%TO.N,net_J11_18*%
X163970000Y-105000000D03*
%TO.P,J11,19*%
%TO.N,net_J11_19*%
X166510000Y-105000000D03*
%TO.P,J11,20*%
%TO.N,net_J11_20*%
X169050000Y-105000000D03*
%TO.P,J11,21*%
%TO.N,net_J11_21*%
X171590000Y-105000000D03*
%TO.P,J11,22*%
%TO.N,net_J11_22*%
X174130000Y-105000000D03*
%TO.P,J11,23*%
%TO.N,net_J11_23*%
X176670000Y-105000000D03*
%TO.P,J11,24*%
%TO.N,net_J11_24*%
X179210000Y-105000000D03*
%TD*%
%TO.P,SW1,1*%
%TO.N,net_SW1_1*%
X181190000Y-185000000D03*
%TO.P,SW1,2*%
%TO.N,net_SW1_2*%
X183730000Y-185000000D03*
%TO.P,SW1,3*%
%TO.N,net_SW1_3*%
X186270000Y-185000000D03*
%TO.P,SW1,4*%
%TO.N,net_SW1_4*%
X188810000Y-185000000D03*
%TD*%
D37*
%TO.P,TP1,1*%
%TO.N,net_TP1_1*%
X110000000Y-185000000D03*
%TD*%
%TO.P,TP2,1*%
%TO.N,net_TP2_1*%
X115500000Y-185000000D03*
%TD*%
%TO.P,TP3,1*%
%TO.N,net_TP3_1*%
X121000000Y-185000000D03*
%TD*%
%TO.P,TP4,1*%
%TO.N,net_TP4_1*%
X126500000Y-185000000D03*
%TD*%
%TO.P,TP5,1*%
%TO.N,net_TP5_1*%
X132000000Y-185000000D03*
%TD*%
%TO.P,TP6,1*%
%TO.N,net_TP6_1*%
X137500000Y-185000000D03*
%TD*%
%TO.P,TP7,1*%
%TO.N,net_TP7_1*%
X143000000Y-185000000D03*
%TD*%
%TO.P,TP8,1*%
%TO.N,net_TP8_1*%
X148500000Y-185000000D03*
%TD*%
%TO.P,TP9,1*%
%TO.N,net_TP9_1*%
X154000000Y-185000000D03*
%TD*%
%TO.P,TP10,1*%
%TO.N,net_TP10_1*%
X159500000Y-185000000D03*
%TD*%
%TO.P,TP11,1*%
%TO.N,net_TP11_1*%
X165000000Y-185000000D03*
%TD*%
%TO.P,TP12,1*%
%TO.N,net_TP12_1*%
X170500000Y-185000000D03*
%TD*%
%TO.P,TP13,1*%
%TO.N,net_TP13_1*%
X176000000Y-185000000D03*
%TD*%
%TO.P,TP14,1*%
%TO.N,net_TP14_1*%
X181500000Y-185000000D03*
%TD*%
%TO.P,TP15,1*%
%TO.N,net_TP15_1*%
X187000000Y-185000000D03*
%TD*%
%TO.P,TP16,1*%
%TO.N,net_TP16_1*%
X192500000Y-185000000D03*
%TD*%
D30*
%TO.P,F1,1*%
%TO.N,net_F1_1*%
X109200000Y-185000000D03*
%TO.P,F1,2*%
%TO.N,net_F1_2*%
X110800000Y-185000000D03*
%TD*%
D38*
%TO.N,GND*%
X140000000Y-150000000D03*
X160000000Y-150000000D03*
X150000000Y-180000000D03*
D39*
%TO.N,TFLN_TX2_N*%
X145000000Y-130000000D03*
%TO.N,TFLN_TX1_P*%
X148000000Y-130000000D03*
%TO.N,TFLN_TX2_P*%
X151000000Y-130000000D03*
%TO.N,TFLN_TX3_P*%
X154000000Y-130000000D03*
%TO.N,JTAG_TCK*%
X150000000Y-145000000D03*
%TD*%
D40*
%TO.N,+12V*%
X105000000Y-190000000D02*
X115000000Y-180000000D01*
D41*
%TO.N,+5V*%
X115000000Y-180000000D02*
X125000000Y-180000000D01*
%TO.N,+3V3*%
X125000000Y-180000000D02*
X135000000Y-180000000D01*
%TO.N,+0V9*%
X145000000Y-180000000D02*
X140000000Y-145000000D01*
%TD*%
M02*
