%TF.GenerationSoftware,KiCad,Pcbnew,8.0.9-8.0.9-0~ubuntu22.04.1*%
%TF.CreationDate,2026-06-06T00:14:38+00:00*%
%TF.ProjectId,LightRail_Eval_Board,4c696768-7452-4616-996c-5f4576616c5f,rev?*%
%TF.SameCoordinates,Original*%
%TF.FileFunction,Paste,Top*%
%TF.FilePolarity,Positive*%
%FSLAX46Y46*%
G04 Gerber Fmt 4.6, Leading zero omitted, Abs format (unit mm)*
G04 Created by KiCad (PCBNEW 8.0.9-8.0.9-0~ubuntu22.04.1) date 2026-06-06 00:14:38*
%MOMM*%
%LPD*%
G01*
G04 APERTURE LIST*
%ADD10R,0.200000X0.800000*%
%ADD11R,0.800000X0.200000*%
%ADD12R,5.500000X5.500000*%
%ADD13C,0.400000*%
%ADD14R,1.200000X6.400000*%
%ADD15R,0.300000X0.300000*%
%ADD16R,0.600000X0.700000*%
%ADD17R,0.600000X1.000000*%
%ADD18R,0.250000X0.700000*%
%ADD19R,0.700000X0.250000*%
%ADD20R,3.000000X3.000000*%
%ADD21R,0.250000X0.800000*%
%ADD22R,0.800000X0.250000*%
%ADD23R,5.000000X5.000000*%
%ADD24R,1.200000X1.600000*%
%ADD25R,0.800000X1.600000*%
%ADD26R,1.200000X2.000000*%
%ADD27R,1.200000X4.000000*%
%ADD28R,0.640000X0.640000*%
%ADD29R,0.800000X1.000000*%
%ADD30R,0.400000X0.400000*%
%ADD31R,0.240000X0.240000*%
%ADD32R,1.200000X3.440000*%
%ADD33R,0.720000X1.000000*%
%ADD34R,1.200000X5.840000*%
G04 APERTURE END LIST*
D10*
%TO.C,U1*%
X137000000Y-148700000D03*
X137400000Y-148700000D03*
X137800000Y-148700000D03*
X138200000Y-148700000D03*
X138600000Y-148700000D03*
X139000000Y-148700000D03*
X139400000Y-148700000D03*
X139800000Y-148700000D03*
X140200000Y-148700000D03*
X140600000Y-148700000D03*
X141000000Y-148700000D03*
X141400000Y-148700000D03*
X141800000Y-148700000D03*
X142200000Y-148700000D03*
X142600000Y-148700000D03*
X143000000Y-148700000D03*
D11*
X143700000Y-148000000D03*
X143700000Y-147600000D03*
X143700000Y-147200000D03*
X143700000Y-146800000D03*
X143700000Y-146400000D03*
X143700000Y-146000000D03*
X143700000Y-145600000D03*
X143700000Y-145200000D03*
X143700000Y-144800000D03*
X143700000Y-144400000D03*
X143700000Y-144000000D03*
X143700000Y-143600000D03*
X143700000Y-143200000D03*
X143700000Y-142800000D03*
X143700000Y-142400000D03*
X143700000Y-142000000D03*
D10*
X143000000Y-141300000D03*
X142600000Y-141300000D03*
X142200000Y-141300000D03*
X141800000Y-141300000D03*
X141400000Y-141300000D03*
X141000000Y-141300000D03*
X140600000Y-141300000D03*
X140200000Y-141300000D03*
X139800000Y-141300000D03*
X139400000Y-141300000D03*
X139000000Y-141300000D03*
X138600000Y-141300000D03*
X138200000Y-141300000D03*
X137800000Y-141300000D03*
X137400000Y-141300000D03*
X137000000Y-141300000D03*
D11*
X136300000Y-142000000D03*
X136300000Y-142400000D03*
X136300000Y-142800000D03*
X136300000Y-143200000D03*
X136300000Y-143600000D03*
X136300000Y-144000000D03*
X136300000Y-144400000D03*
X136300000Y-144800000D03*
X136300000Y-145200000D03*
X136300000Y-145600000D03*
X136300000Y-146000000D03*
X136300000Y-146400000D03*
X136300000Y-146800000D03*
X136300000Y-147200000D03*
X136300000Y-147600000D03*
X136300000Y-148000000D03*
D12*
X140000000Y-145000000D03*
%TD*%
D13*
%TO.C,U2*%
X154000000Y-139000000D03*
X154800000Y-139000000D03*
X155600000Y-139000000D03*
X156400000Y-139000000D03*
X157200000Y-139000000D03*
X158000000Y-139000000D03*
X158800000Y-139000000D03*
X159600000Y-139000000D03*
X160400000Y-139000000D03*
X161200000Y-139000000D03*
X162000000Y-139000000D03*
X162800000Y-139000000D03*
X163600000Y-139000000D03*
X164400000Y-139000000D03*
X165200000Y-139000000D03*
X166000000Y-139000000D03*
X154000000Y-139800000D03*
X154800000Y-139800000D03*
X155600000Y-139800000D03*
X156400000Y-139800000D03*
X157200000Y-139800000D03*
X158000000Y-139800000D03*
X158800000Y-139800000D03*
X159600000Y-139800000D03*
X160400000Y-139800000D03*
X161200000Y-139800000D03*
X162000000Y-139800000D03*
X162800000Y-139800000D03*
X163600000Y-139800000D03*
X164400000Y-139800000D03*
X165200000Y-139800000D03*
X166000000Y-139800000D03*
X154000000Y-140600000D03*
X154800000Y-140600000D03*
X155600000Y-140600000D03*
X156400000Y-140600000D03*
X157200000Y-140600000D03*
X158000000Y-140600000D03*
X158800000Y-140600000D03*
X159600000Y-140600000D03*
X160400000Y-140600000D03*
X161200000Y-140600000D03*
X162000000Y-140600000D03*
X162800000Y-140600000D03*
X163600000Y-140600000D03*
X164400000Y-140600000D03*
X165200000Y-140600000D03*
X166000000Y-140600000D03*
X154000000Y-141400000D03*
X154800000Y-141400000D03*
X155600000Y-141400000D03*
X156400000Y-141400000D03*
X157200000Y-141400000D03*
X158000000Y-141400000D03*
X158800000Y-141400000D03*
X159600000Y-141400000D03*
X160400000Y-141400000D03*
X161200000Y-141400000D03*
X162000000Y-141400000D03*
X162800000Y-141400000D03*
X163600000Y-141400000D03*
X164400000Y-141400000D03*
X165200000Y-141400000D03*
X166000000Y-141400000D03*
X154000000Y-142200000D03*
X154800000Y-142200000D03*
X155600000Y-142200000D03*
X156400000Y-142200000D03*
X157200000Y-142200000D03*
X158000000Y-142200000D03*
X158800000Y-142200000D03*
X159600000Y-142200000D03*
X160400000Y-142200000D03*
X161200000Y-142200000D03*
X162000000Y-142200000D03*
X162800000Y-142200000D03*
X163600000Y-142200000D03*
X164400000Y-142200000D03*
X165200000Y-142200000D03*
X166000000Y-142200000D03*
X154000000Y-143000000D03*
X154800000Y-143000000D03*
X155600000Y-143000000D03*
X156400000Y-143000000D03*
X157200000Y-143000000D03*
X158000000Y-143000000D03*
X158800000Y-143000000D03*
X159600000Y-143000000D03*
X160400000Y-143000000D03*
X161200000Y-143000000D03*
X162000000Y-143000000D03*
X162800000Y-143000000D03*
X163600000Y-143000000D03*
X164400000Y-143000000D03*
X165200000Y-143000000D03*
X166000000Y-143000000D03*
X154000000Y-143800000D03*
X154800000Y-143800000D03*
X155600000Y-143800000D03*
X156400000Y-143800000D03*
X157200000Y-143800000D03*
X158000000Y-143800000D03*
X158800000Y-143800000D03*
X159600000Y-143800000D03*
X160400000Y-143800000D03*
X161200000Y-143800000D03*
X162000000Y-143800000D03*
X162800000Y-143800000D03*
X163600000Y-143800000D03*
X164400000Y-143800000D03*
X165200000Y-143800000D03*
X166000000Y-143800000D03*
X154000000Y-144600000D03*
X154800000Y-144600000D03*
X155600000Y-144600000D03*
X156400000Y-144600000D03*
X157200000Y-144600000D03*
X158000000Y-144600000D03*
X158800000Y-144600000D03*
X159600000Y-144600000D03*
X160400000Y-144600000D03*
X161200000Y-144600000D03*
X162000000Y-144600000D03*
X162800000Y-144600000D03*
X163600000Y-144600000D03*
X164400000Y-144600000D03*
X165200000Y-144600000D03*
X166000000Y-144600000D03*
X154000000Y-145400000D03*
X154800000Y-145400000D03*
X155600000Y-145400000D03*
X156400000Y-145400000D03*
X157200000Y-145400000D03*
X158000000Y-145400000D03*
X158800000Y-145400000D03*
X159600000Y-145400000D03*
X160400000Y-145400000D03*
X161200000Y-145400000D03*
X162000000Y-145400000D03*
X162800000Y-145400000D03*
X163600000Y-145400000D03*
X164400000Y-145400000D03*
X165200000Y-145400000D03*
X166000000Y-145400000D03*
X154000000Y-146200000D03*
X154800000Y-146200000D03*
X155600000Y-146200000D03*
X156400000Y-146200000D03*
X157200000Y-146200000D03*
X158000000Y-146200000D03*
X158800000Y-146200000D03*
X159600000Y-146200000D03*
X160400000Y-146200000D03*
X161200000Y-146200000D03*
X162000000Y-146200000D03*
X162800000Y-146200000D03*
X163600000Y-146200000D03*
X164400000Y-146200000D03*
X165200000Y-146200000D03*
X166000000Y-146200000D03*
X154000000Y-147000000D03*
X154800000Y-147000000D03*
X155600000Y-147000000D03*
X156400000Y-147000000D03*
X157200000Y-147000000D03*
X158000000Y-147000000D03*
X158800000Y-147000000D03*
X159600000Y-147000000D03*
X160400000Y-147000000D03*
X161200000Y-147000000D03*
X162000000Y-147000000D03*
X162800000Y-147000000D03*
X163600000Y-147000000D03*
X164400000Y-147000000D03*
X165200000Y-147000000D03*
X166000000Y-147000000D03*
X154000000Y-147800000D03*
X154800000Y-147800000D03*
X155600000Y-147800000D03*
X156400000Y-147800000D03*
X157200000Y-147800000D03*
X158000000Y-147800000D03*
X158800000Y-147800000D03*
X159600000Y-147800000D03*
X160400000Y-147800000D03*
X161200000Y-147800000D03*
X162000000Y-147800000D03*
X162800000Y-147800000D03*
X163600000Y-147800000D03*
X164400000Y-147800000D03*
X165200000Y-147800000D03*
X166000000Y-147800000D03*
X154000000Y-148600000D03*
X154800000Y-148600000D03*
X155600000Y-148600000D03*
X156400000Y-148600000D03*
X157200000Y-148600000D03*
X158000000Y-148600000D03*
X158800000Y-148600000D03*
X159600000Y-148600000D03*
X160400000Y-148600000D03*
X161200000Y-148600000D03*
X162000000Y-148600000D03*
X162800000Y-148600000D03*
X163600000Y-148600000D03*
X164400000Y-148600000D03*
X165200000Y-148600000D03*
X166000000Y-148600000D03*
X154000000Y-149400000D03*
X154800000Y-149400000D03*
X155600000Y-149400000D03*
X156400000Y-149400000D03*
X157200000Y-149400000D03*
X158000000Y-149400000D03*
X158800000Y-149400000D03*
X159600000Y-149400000D03*
X160400000Y-149400000D03*
X161200000Y-149400000D03*
X162000000Y-149400000D03*
X162800000Y-149400000D03*
X163600000Y-149400000D03*
X164400000Y-149400000D03*
X165200000Y-149400000D03*
X166000000Y-149400000D03*
X154000000Y-150200000D03*
X154800000Y-150200000D03*
X155600000Y-150200000D03*
X156400000Y-150200000D03*
X157200000Y-150200000D03*
X158000000Y-150200000D03*
X158800000Y-150200000D03*
X159600000Y-150200000D03*
X160400000Y-150200000D03*
X161200000Y-150200000D03*
X162000000Y-150200000D03*
X162800000Y-150200000D03*
X163600000Y-150200000D03*
X164400000Y-150200000D03*
X165200000Y-150200000D03*
X166000000Y-150200000D03*
X154000000Y-151000000D03*
X154800000Y-151000000D03*
X155600000Y-151000000D03*
X156400000Y-151000000D03*
X157200000Y-151000000D03*
X158000000Y-151000000D03*
X158800000Y-151000000D03*
X159600000Y-151000000D03*
X160400000Y-151000000D03*
X161200000Y-151000000D03*
X162000000Y-151000000D03*
X162800000Y-151000000D03*
X163600000Y-151000000D03*
X164400000Y-151000000D03*
X165200000Y-151000000D03*
X166000000Y-151000000D03*
%TD*%
D14*
%TO.C,U3*%
X137700000Y-120000000D03*
X162300000Y-120000000D03*
D15*
X150000000Y-120250000D03*
X150000000Y-120750000D03*
X150000000Y-121250000D03*
X150000000Y-121750000D03*
X150000000Y-122250000D03*
X150000000Y-122750000D03*
X150000000Y-123250000D03*
X150000000Y-123750000D03*
X150000000Y-124250000D03*
X150000000Y-124750000D03*
X150000000Y-125250000D03*
X150000000Y-125750000D03*
X150000000Y-126250000D03*
X150000000Y-126750000D03*
X150000000Y-127250000D03*
X150000000Y-127750000D03*
X150000000Y-128250000D03*
X150000000Y-128750000D03*
X150000000Y-129250000D03*
X150000000Y-129750000D03*
X150000000Y-130250000D03*
X150000000Y-130750000D03*
X150000000Y-131250000D03*
X150000000Y-131750000D03*
X150000000Y-132250000D03*
X150000000Y-132750000D03*
X150000000Y-133250000D03*
X150000000Y-133750000D03*
X150000000Y-134250000D03*
X150000000Y-134750000D03*
X150000000Y-135250000D03*
X150000000Y-135750000D03*
X150000000Y-136250000D03*
X150000000Y-136750000D03*
X150000000Y-137250000D03*
X150000000Y-137750000D03*
X150000000Y-138250000D03*
X150000000Y-138750000D03*
%TD*%
D16*
%TO.C,U10*%
X144050000Y-181000000D03*
X145000000Y-181000000D03*
X145950000Y-181000000D03*
X145950000Y-179000000D03*
X145000000Y-179000000D03*
%TD*%
%TO.C,U11*%
X134050000Y-186000000D03*
X135000000Y-186000000D03*
X135950000Y-186000000D03*
X135950000Y-184000000D03*
X135000000Y-184000000D03*
%TD*%
%TO.C,U12*%
X144050000Y-186000000D03*
X145000000Y-186000000D03*
X145950000Y-186000000D03*
X145950000Y-184000000D03*
X145000000Y-184000000D03*
%TD*%
%TO.C,U13*%
X124050000Y-181000000D03*
X125000000Y-181000000D03*
X125950000Y-181000000D03*
X125950000Y-179000000D03*
X125000000Y-179000000D03*
%TD*%
%TO.C,U14*%
X134050000Y-181000000D03*
X135000000Y-181000000D03*
X135950000Y-181000000D03*
X135950000Y-179000000D03*
X135000000Y-179000000D03*
%TD*%
D17*
%TO.C,U15*%
X113095000Y-183400000D03*
X113095000Y-176600000D03*
X114365000Y-183400000D03*
X114365000Y-176600000D03*
X115635000Y-183400000D03*
X115635000Y-176600000D03*
X116905000Y-183400000D03*
X116905000Y-176600000D03*
%TD*%
D18*
%TO.C,U20*%
X168500000Y-137250000D03*
X169000000Y-137250000D03*
X169500000Y-137250000D03*
X170000000Y-137250000D03*
X170500000Y-137250000D03*
X171000000Y-137250000D03*
X171500000Y-137250000D03*
D19*
X172250000Y-136500000D03*
X172250000Y-136000000D03*
X172250000Y-135500000D03*
X172250000Y-135000000D03*
X172250000Y-134500000D03*
X172250000Y-134000000D03*
X172250000Y-133500000D03*
D18*
X171500000Y-132750000D03*
X171000000Y-132750000D03*
X170500000Y-132750000D03*
X170000000Y-132750000D03*
X169500000Y-132750000D03*
X169000000Y-132750000D03*
X168500000Y-132750000D03*
D19*
X167750000Y-133500000D03*
X167750000Y-134000000D03*
X167750000Y-134500000D03*
X167750000Y-135000000D03*
X167750000Y-135500000D03*
X167750000Y-136000000D03*
X167750000Y-136500000D03*
D20*
X170000000Y-135000000D03*
%TD*%
D17*
%TO.C,U21*%
X132075000Y-127500000D03*
X132075000Y-122500000D03*
X132725000Y-127500000D03*
X132725000Y-122500000D03*
X133375000Y-127500000D03*
X133375000Y-122500000D03*
X134025000Y-127500000D03*
X134025000Y-122500000D03*
X134675000Y-127500000D03*
X134675000Y-122500000D03*
X135325000Y-127500000D03*
X135325000Y-122500000D03*
X135975000Y-127500000D03*
X135975000Y-122500000D03*
X136625000Y-127500000D03*
X136625000Y-122500000D03*
X137275000Y-127500000D03*
X137275000Y-122500000D03*
X137925000Y-127500000D03*
X137925000Y-122500000D03*
%TD*%
D21*
%TO.C,U22*%
X182250000Y-163200000D03*
X182750000Y-163200000D03*
X183250000Y-163200000D03*
X183750000Y-163200000D03*
X184250000Y-163200000D03*
X184750000Y-163200000D03*
X185250000Y-163200000D03*
X185750000Y-163200000D03*
X186250000Y-163200000D03*
X186750000Y-163200000D03*
X187250000Y-163200000D03*
X187750000Y-163200000D03*
D22*
X188200000Y-162750000D03*
X188200000Y-162250000D03*
X188200000Y-161750000D03*
X188200000Y-161250000D03*
X188200000Y-160750000D03*
X188200000Y-160250000D03*
X188200000Y-159750000D03*
X188200000Y-159250000D03*
X188200000Y-158750000D03*
X188200000Y-158250000D03*
X188200000Y-157750000D03*
X188200000Y-157250000D03*
D21*
X187750000Y-156800000D03*
X187250000Y-156800000D03*
X186750000Y-156800000D03*
X186250000Y-156800000D03*
X185750000Y-156800000D03*
X185250000Y-156800000D03*
X184750000Y-156800000D03*
X184250000Y-156800000D03*
X183750000Y-156800000D03*
X183250000Y-156800000D03*
X182750000Y-156800000D03*
X182250000Y-156800000D03*
D22*
X181800000Y-157250000D03*
X181800000Y-157750000D03*
X181800000Y-158250000D03*
X181800000Y-158750000D03*
X181800000Y-159250000D03*
X181800000Y-159750000D03*
X181800000Y-160250000D03*
X181800000Y-160750000D03*
X181800000Y-161250000D03*
X181800000Y-161750000D03*
X181800000Y-162250000D03*
X181800000Y-162750000D03*
D23*
X185000000Y-160000000D03*
%TD*%
D24*
%TO.C,U23*%
X173700000Y-150000000D03*
X176300000Y-150000000D03*
D15*
X175000000Y-150250000D03*
X175000000Y-150750000D03*
X175000000Y-151250000D03*
X175000000Y-151750000D03*
X175000000Y-152250000D03*
X175000000Y-152750000D03*
%TD*%
D17*
%TO.C,U24*%
X162725000Y-127500000D03*
X162725000Y-122500000D03*
X163375000Y-127500000D03*
X163375000Y-122500000D03*
X164025000Y-127500000D03*
X164025000Y-122500000D03*
X164675000Y-127500000D03*
X164675000Y-122500000D03*
X165325000Y-127500000D03*
X165325000Y-122500000D03*
X165975000Y-127500000D03*
X165975000Y-122500000D03*
X166625000Y-127500000D03*
X166625000Y-122500000D03*
X167275000Y-127500000D03*
X167275000Y-122500000D03*
%TD*%
D25*
%TO.C,U25*%
X129200000Y-150000000D03*
X130800000Y-150000000D03*
D15*
X130000000Y-150250000D03*
X130000000Y-150750000D03*
X130000000Y-151250000D03*
X130000000Y-151750000D03*
X130000000Y-152250000D03*
X130000000Y-152750000D03*
%TD*%
D26*
%TO.C,Y1*%
X173600000Y-135000000D03*
X176400000Y-135000000D03*
D15*
X175000000Y-135250000D03*
X175000000Y-135750000D03*
%TD*%
D27*
%TO.C,L1*%
X112700000Y-175000000D03*
X117300000Y-175000000D03*
%TD*%
D28*
%TO.C,L2*%
X124400000Y-175000000D03*
X125600000Y-175000000D03*
%TD*%
%TO.C,L3*%
X134400000Y-175000000D03*
X135600000Y-175000000D03*
%TD*%
D29*
%TO.C,C1*%
X127200000Y-155000000D03*
X128800000Y-155000000D03*
%TD*%
%TO.C,C1_2*%
X129700000Y-155000000D03*
X131300000Y-155000000D03*
%TD*%
D28*
%TO.C,C2*%
X135400000Y-155000000D03*
X136600000Y-155000000D03*
%TD*%
%TO.C,C2_2*%
X137900000Y-155000000D03*
X139100000Y-155000000D03*
%TD*%
%TO.C,C2_3*%
X140400000Y-155000000D03*
X141600000Y-155000000D03*
%TD*%
%TO.C,C2_4*%
X142900000Y-155000000D03*
X144100000Y-155000000D03*
%TD*%
D30*
%TO.C,C3*%
X143700000Y-155000000D03*
X144300000Y-155000000D03*
%TD*%
%TO.C,C3_2*%
X146200000Y-155000000D03*
X146800000Y-155000000D03*
%TD*%
%TO.C,C3_3*%
X148700000Y-155000000D03*
X149300000Y-155000000D03*
%TD*%
%TO.C,C3_4*%
X151200000Y-155000000D03*
X151800000Y-155000000D03*
%TD*%
%TO.C,C3_5*%
X143700000Y-157000000D03*
X144300000Y-157000000D03*
%TD*%
%TO.C,C3_6*%
X146200000Y-157000000D03*
X146800000Y-157000000D03*
%TD*%
%TO.C,C3_7*%
X148700000Y-157000000D03*
X149300000Y-157000000D03*
%TD*%
%TO.C,C3_8*%
X151200000Y-157000000D03*
X151800000Y-157000000D03*
%TD*%
%TO.C,C4*%
X151700000Y-155000000D03*
X152300000Y-155000000D03*
%TD*%
%TO.C,C4_2*%
X154200000Y-155000000D03*
X154800000Y-155000000D03*
%TD*%
%TO.C,C4_3*%
X156700000Y-155000000D03*
X157300000Y-155000000D03*
%TD*%
%TO.C,C4_4*%
X159200000Y-155000000D03*
X159800000Y-155000000D03*
%TD*%
%TO.C,C4_5*%
X151700000Y-157000000D03*
X152300000Y-157000000D03*
%TD*%
%TO.C,C4_6*%
X154200000Y-157000000D03*
X154800000Y-157000000D03*
%TD*%
%TO.C,C4_7*%
X156700000Y-157000000D03*
X157300000Y-157000000D03*
%TD*%
%TO.C,C4_8*%
X159200000Y-157000000D03*
X159800000Y-157000000D03*
%TD*%
%TO.C,C4_9*%
X151700000Y-159000000D03*
X152300000Y-159000000D03*
%TD*%
%TO.C,C4_10*%
X154200000Y-159000000D03*
X154800000Y-159000000D03*
%TD*%
%TO.C,C4_11*%
X156700000Y-159000000D03*
X157300000Y-159000000D03*
%TD*%
%TO.C,C4_12*%
X159200000Y-159000000D03*
X159800000Y-159000000D03*
%TD*%
%TO.C,C5*%
X159700000Y-155000000D03*
X160300000Y-155000000D03*
%TD*%
%TO.C,C5_2*%
X162200000Y-155000000D03*
X162800000Y-155000000D03*
%TD*%
%TO.C,C5_3*%
X164700000Y-155000000D03*
X165300000Y-155000000D03*
%TD*%
%TO.C,C5_4*%
X167200000Y-155000000D03*
X167800000Y-155000000D03*
%TD*%
%TO.C,C5_5*%
X159700000Y-157000000D03*
X160300000Y-157000000D03*
%TD*%
%TO.C,C5_6*%
X162200000Y-157000000D03*
X162800000Y-157000000D03*
%TD*%
%TO.C,C5_7*%
X164700000Y-157000000D03*
X165300000Y-157000000D03*
%TD*%
%TO.C,C5_8*%
X167200000Y-157000000D03*
X167800000Y-157000000D03*
%TD*%
%TO.C,C5_9*%
X159700000Y-159000000D03*
X160300000Y-159000000D03*
%TD*%
%TO.C,C5_10*%
X162200000Y-159000000D03*
X162800000Y-159000000D03*
%TD*%
%TO.C,C5_11*%
X164700000Y-159000000D03*
X165300000Y-159000000D03*
%TD*%
%TO.C,C5_12*%
X167200000Y-159000000D03*
X167800000Y-159000000D03*
%TD*%
%TO.C,C5_13*%
X159700000Y-161000000D03*
X160300000Y-161000000D03*
%TD*%
%TO.C,C5_14*%
X162200000Y-161000000D03*
X162800000Y-161000000D03*
%TD*%
%TO.C,C5_15*%
X164700000Y-161000000D03*
X165300000Y-161000000D03*
%TD*%
%TO.C,C5_16*%
X167200000Y-161000000D03*
X167800000Y-161000000D03*
%TD*%
%TO.C,C5_17*%
X159700000Y-163000000D03*
X160300000Y-163000000D03*
%TD*%
%TO.C,C5_18*%
X162200000Y-163000000D03*
X162800000Y-163000000D03*
%TD*%
%TO.C,C5_19*%
X164700000Y-163000000D03*
X165300000Y-163000000D03*
%TD*%
%TO.C,C5_20*%
X167200000Y-163000000D03*
X167800000Y-163000000D03*
%TD*%
%TO.C,C5_21*%
X159700000Y-165000000D03*
X160300000Y-165000000D03*
%TD*%
%TO.C,C5_22*%
X162200000Y-165000000D03*
X162800000Y-165000000D03*
%TD*%
%TO.C,C5_23*%
X164700000Y-165000000D03*
X165300000Y-165000000D03*
%TD*%
%TO.C,C5_24*%
X167200000Y-165000000D03*
X167800000Y-165000000D03*
%TD*%
%TO.C,C6*%
X167700000Y-155000000D03*
X168300000Y-155000000D03*
%TD*%
%TO.C,C6_2*%
X170200000Y-155000000D03*
X170800000Y-155000000D03*
%TD*%
%TO.C,C6_3*%
X172700000Y-155000000D03*
X173300000Y-155000000D03*
%TD*%
%TO.C,C6_4*%
X175200000Y-155000000D03*
X175800000Y-155000000D03*
%TD*%
%TO.C,C6_5*%
X167700000Y-157000000D03*
X168300000Y-157000000D03*
%TD*%
%TO.C,C6_6*%
X170200000Y-157000000D03*
X170800000Y-157000000D03*
%TD*%
%TO.C,C6_7*%
X172700000Y-157000000D03*
X173300000Y-157000000D03*
%TD*%
%TO.C,C6_8*%
X175200000Y-157000000D03*
X175800000Y-157000000D03*
%TD*%
%TO.C,C7*%
X175700000Y-155000000D03*
X176300000Y-155000000D03*
%TD*%
%TO.C,C7_2*%
X178200000Y-155000000D03*
X178800000Y-155000000D03*
%TD*%
%TO.C,C7_3*%
X180700000Y-155000000D03*
X181300000Y-155000000D03*
%TD*%
%TO.C,C7_4*%
X183200000Y-155000000D03*
X183800000Y-155000000D03*
%TD*%
%TO.C,C8*%
X119700000Y-160000000D03*
X120300000Y-160000000D03*
%TD*%
%TO.C,C8_2*%
X122200000Y-160000000D03*
X122800000Y-160000000D03*
%TD*%
%TO.C,C8_3*%
X124700000Y-160000000D03*
X125300000Y-160000000D03*
%TD*%
%TO.C,C8_4*%
X127200000Y-160000000D03*
X127800000Y-160000000D03*
%TD*%
%TO.C,C8_5*%
X119700000Y-162000000D03*
X120300000Y-162000000D03*
%TD*%
%TO.C,C8_6*%
X122200000Y-162000000D03*
X122800000Y-162000000D03*
%TD*%
%TO.C,C8_7*%
X124700000Y-162000000D03*
X125300000Y-162000000D03*
%TD*%
%TO.C,C8_8*%
X127200000Y-162000000D03*
X127800000Y-162000000D03*
%TD*%
%TO.C,C9*%
X127700000Y-160000000D03*
X128300000Y-160000000D03*
%TD*%
%TO.C,C9_2*%
X130200000Y-160000000D03*
X130800000Y-160000000D03*
%TD*%
%TO.C,C9_3*%
X132700000Y-160000000D03*
X133300000Y-160000000D03*
%TD*%
%TO.C,C9_4*%
X135200000Y-160000000D03*
X135800000Y-160000000D03*
%TD*%
D31*
%TO.C,C10*%
X135900000Y-160000000D03*
X136100000Y-160000000D03*
%TD*%
%TO.C,C10_2*%
X138400000Y-160000000D03*
X138600000Y-160000000D03*
%TD*%
%TO.C,C10_3*%
X140900000Y-160000000D03*
X141100000Y-160000000D03*
%TD*%
%TO.C,C10_4*%
X143400000Y-160000000D03*
X143600000Y-160000000D03*
%TD*%
%TO.C,C10_5*%
X135900000Y-162000000D03*
X136100000Y-162000000D03*
%TD*%
%TO.C,C10_6*%
X138400000Y-162000000D03*
X138600000Y-162000000D03*
%TD*%
%TO.C,C10_7*%
X140900000Y-162000000D03*
X141100000Y-162000000D03*
%TD*%
%TO.C,C10_8*%
X143400000Y-162000000D03*
X143600000Y-162000000D03*
%TD*%
%TO.C,C10_9*%
X135900000Y-164000000D03*
X136100000Y-164000000D03*
%TD*%
%TO.C,C10_10*%
X138400000Y-164000000D03*
X138600000Y-164000000D03*
%TD*%
%TO.C,C10_11*%
X140900000Y-164000000D03*
X141100000Y-164000000D03*
%TD*%
%TO.C,C10_12*%
X143400000Y-164000000D03*
X143600000Y-164000000D03*
%TD*%
%TO.C,C10_13*%
X135900000Y-166000000D03*
X136100000Y-166000000D03*
%TD*%
%TO.C,C10_14*%
X138400000Y-166000000D03*
X138600000Y-166000000D03*
%TD*%
%TO.C,C10_15*%
X140900000Y-166000000D03*
X141100000Y-166000000D03*
%TD*%
%TO.C,C10_16*%
X143400000Y-166000000D03*
X143600000Y-166000000D03*
%TD*%
D32*
%TO.C,C11*%
X140550000Y-160000000D03*
X147450000Y-160000000D03*
%TD*%
%TO.C,C11_2*%
X143050000Y-160000000D03*
X149950000Y-160000000D03*
%TD*%
D30*
%TO.C,R1*%
X127700000Y-162000000D03*
X128300000Y-162000000D03*
%TD*%
%TO.C,R1_2*%
X130200000Y-162000000D03*
X130800000Y-162000000D03*
%TD*%
%TO.C,R1_3*%
X132700000Y-162000000D03*
X133300000Y-162000000D03*
%TD*%
%TO.C,R1_4*%
X135200000Y-162000000D03*
X135800000Y-162000000D03*
%TD*%
%TO.C,R1_5*%
X127700000Y-164000000D03*
X128300000Y-164000000D03*
%TD*%
%TO.C,R1_6*%
X130200000Y-164000000D03*
X130800000Y-164000000D03*
%TD*%
%TO.C,R1_7*%
X132700000Y-164000000D03*
X133300000Y-164000000D03*
%TD*%
%TO.C,R1_8*%
X135200000Y-164000000D03*
X135800000Y-164000000D03*
%TD*%
%TO.C,R1_9*%
X127700000Y-166000000D03*
X128300000Y-166000000D03*
%TD*%
%TO.C,R1_10*%
X130200000Y-166000000D03*
X130800000Y-166000000D03*
%TD*%
%TO.C,R1_11*%
X132700000Y-166000000D03*
X133300000Y-166000000D03*
%TD*%
%TO.C,R1_12*%
X135200000Y-166000000D03*
X135800000Y-166000000D03*
%TD*%
%TO.C,R2*%
X135700000Y-162000000D03*
X136300000Y-162000000D03*
%TD*%
%TO.C,R2_2*%
X138200000Y-162000000D03*
X138800000Y-162000000D03*
%TD*%
%TO.C,R2_3*%
X140700000Y-162000000D03*
X141300000Y-162000000D03*
%TD*%
%TO.C,R2_4*%
X143200000Y-162000000D03*
X143800000Y-162000000D03*
%TD*%
%TO.C,R2_5*%
X135700000Y-164000000D03*
X136300000Y-164000000D03*
%TD*%
%TO.C,R2_6*%
X138200000Y-164000000D03*
X138800000Y-164000000D03*
%TD*%
%TO.C,R3*%
X143700000Y-162000000D03*
X144300000Y-162000000D03*
%TD*%
%TO.C,R3_2*%
X146200000Y-162000000D03*
X146800000Y-162000000D03*
%TD*%
%TO.C,R3_3*%
X148700000Y-162000000D03*
X149300000Y-162000000D03*
%TD*%
%TO.C,R3_4*%
X151200000Y-162000000D03*
X151800000Y-162000000D03*
%TD*%
%TO.C,R3_5*%
X143700000Y-164000000D03*
X144300000Y-164000000D03*
%TD*%
%TO.C,R3_6*%
X146200000Y-164000000D03*
X146800000Y-164000000D03*
%TD*%
%TO.C,R3_7*%
X148700000Y-164000000D03*
X149300000Y-164000000D03*
%TD*%
%TO.C,R3_8*%
X151200000Y-164000000D03*
X151800000Y-164000000D03*
%TD*%
%TO.C,R4*%
X151700000Y-162000000D03*
X152300000Y-162000000D03*
%TD*%
%TO.C,R4_2*%
X154200000Y-162000000D03*
X154800000Y-162000000D03*
%TD*%
%TO.C,R4_3*%
X156700000Y-162000000D03*
X157300000Y-162000000D03*
%TD*%
%TO.C,R4_4*%
X159200000Y-162000000D03*
X159800000Y-162000000D03*
%TD*%
%TO.C,R5*%
X159700000Y-162000000D03*
X160300000Y-162000000D03*
%TD*%
%TO.C,R5_2*%
X162200000Y-162000000D03*
X162800000Y-162000000D03*
%TD*%
%TO.C,R5_3*%
X164700000Y-162000000D03*
X165300000Y-162000000D03*
%TD*%
%TO.C,R5_4*%
X167200000Y-162000000D03*
X167800000Y-162000000D03*
%TD*%
%TO.C,R6*%
X167700000Y-162000000D03*
X168300000Y-162000000D03*
%TD*%
%TO.C,R6_2*%
X170200000Y-162000000D03*
X170800000Y-162000000D03*
%TD*%
%TO.C,R6_3*%
X172700000Y-162000000D03*
X173300000Y-162000000D03*
%TD*%
%TO.C,R6_4*%
X175200000Y-162000000D03*
X175800000Y-162000000D03*
%TD*%
%TO.C,R7*%
X175700000Y-162000000D03*
X176300000Y-162000000D03*
%TD*%
%TO.C,R7_2*%
X178200000Y-162000000D03*
X178800000Y-162000000D03*
%TD*%
%TO.C,R7_3*%
X180700000Y-162000000D03*
X181300000Y-162000000D03*
%TD*%
%TO.C,R7_4*%
X183200000Y-162000000D03*
X183800000Y-162000000D03*
%TD*%
D28*
%TO.C,D1*%
X184400000Y-175000000D03*
X185600000Y-175000000D03*
%TD*%
%TO.C,D2*%
X179400000Y-180000000D03*
X180600000Y-180000000D03*
%TD*%
%TO.C,D3*%
X184400000Y-180000000D03*
X185600000Y-180000000D03*
%TD*%
%TO.C,D4*%
X179400000Y-185000000D03*
X180600000Y-185000000D03*
%TD*%
D33*
%TO.C,D5*%
X184300000Y-185000000D03*
X185700000Y-185000000D03*
%TD*%
%TO.C,D5_2*%
X186800000Y-185000000D03*
X188200000Y-185000000D03*
%TD*%
D34*
%TO.C,J2*%
X190000000Y-169270000D03*
X190000000Y-160730000D03*
D15*
X190250000Y-165000000D03*
X190750000Y-165000000D03*
X191250000Y-165000000D03*
X191750000Y-165000000D03*
X192250000Y-165000000D03*
X192750000Y-165000000D03*
X193250000Y-165000000D03*
X193750000Y-165000000D03*
X194250000Y-165000000D03*
X194750000Y-165000000D03*
X195250000Y-165000000D03*
X195750000Y-165000000D03*
X196250000Y-165000000D03*
X196750000Y-165000000D03*
%TD*%
D29*
%TO.C,F1*%
X109200000Y-185000000D03*
X110800000Y-185000000D03*
%TD*%
M02*
