%TF.GenerationSoftware,KiCad,Pcbnew,8.0.9-8.0.9-0~ubuntu22.04.1*%
%TF.CreationDate,2026-06-06T00:14:38+00:00*%
%TF.ProjectId,LightRail_Eval_Board,4c696768-7452-4616-996c-5f4576616c5f,rev?*%
%TF.SameCoordinates,Original*%
%TF.FileFunction,Copper,L22,Bot*%
%TF.FilePolarity,Positive*%
%FSLAX46Y46*%
G04 Gerber Fmt 4.6, Leading zero omitted, Abs format (unit mm)*
G04 Created by KiCad (PCBNEW 8.0.9-8.0.9-0~ubuntu22.04.1) date 2026-06-06 00:14:38*
%MOMM*%
%LPD*%
G01*
G04 APERTURE LIST*
%TA.AperFunction,ComponentPad*%
%ADD10C,7.000000*%
%TD*%
%TA.AperFunction,ComponentPad*%
%ADD11C,1.700000*%
%TD*%
%TA.AperFunction,ViaPad*%
%ADD12C,0.800000*%
%TD*%
%TA.AperFunction,ViaPad*%
%ADD13C,0.500000*%
%TD*%
G04 APERTURE END LIST*
D10*
%TO.P,MH1,1*%
%TO.N,GND*%
X103500000Y-103500000D03*
%TD*%
%TO.P,MH2,1*%
%TO.N,GND*%
X196500000Y-103500000D03*
%TD*%
%TO.P,MH3,1*%
%TO.N,GND*%
X103500000Y-196500000D03*
%TD*%
%TO.P,MH4,1*%
%TO.N,GND*%
X196500000Y-196500000D03*
%TD*%
D11*
%TO.P,J1,1*%
%TO.N,net_J1_1*%
X102460000Y-190000000D03*
%TO.P,J1,2*%
%TO.N,net_J1_2*%
X105000000Y-190000000D03*
%TO.P,J1,3*%
%TO.N,net_J1_3*%
X107540000Y-190000000D03*
%TD*%
%TO.P,J3,1*%
%TO.N,net_J3_1*%
X103730000Y-180000000D03*
%TO.P,J3,2*%
%TO.N,net_J3_2*%
X106270000Y-180000000D03*
%TD*%
%TO.P,J5,1*%
%TO.N,net_J5_1*%
X190000000Y-151430000D03*
%TO.P,J5,2*%
%TO.N,net_J5_2*%
X190000000Y-148890000D03*
%TO.P,J5,3*%
%TO.N,net_J5_3*%
X190000000Y-146350000D03*
%TO.P,J5,4*%
%TO.N,net_J5_4*%
X190000000Y-143810000D03*
%TO.P,J5,5*%
%TO.N,net_J5_5*%
X190000000Y-141270000D03*
%TO.P,J5,6*%
%TO.N,net_J5_6*%
X190000000Y-138730000D03*
%TO.P,J5,7*%
%TO.N,net_J5_7*%
X190000000Y-136190000D03*
%TO.P,J5,8*%
%TO.N,net_J5_8*%
X190000000Y-133650000D03*
%TO.P,J5,9*%
%TO.N,net_J5_9*%
X190000000Y-131110000D03*
%TO.P,J5,10*%
%TO.N,net_J5_10*%
X190000000Y-128570000D03*
%TD*%
%TO.P,J6,1*%
%TO.N,net_J6_1*%
X190000000Y-166510000D03*
%TO.P,J6,2*%
%TO.N,net_J6_2*%
X190000000Y-163970000D03*
%TO.P,J6,3*%
%TO.N,net_J6_3*%
X190000000Y-161430000D03*
%TO.P,J6,4*%
%TO.N,net_J6_4*%
X190000000Y-158890000D03*
%TO.P,J6,5*%
%TO.N,net_J6_5*%
X190000000Y-156350000D03*
%TO.P,J6,6*%
%TO.N,net_J6_6*%
X190000000Y-153810000D03*
%TO.P,J6,7*%
%TO.N,net_J6_7*%
X190000000Y-151270000D03*
%TO.P,J6,8*%
%TO.N,net_J6_8*%
X190000000Y-148730000D03*
%TO.P,J6,9*%
%TO.N,net_J6_9*%
X190000000Y-146190000D03*
%TO.P,J6,10*%
%TO.N,net_J6_10*%
X190000000Y-143650000D03*
%TO.P,J6,11*%
%TO.N,net_J6_11*%
X190000000Y-141110000D03*
%TO.P,J6,12*%
%TO.N,net_J6_12*%
X190000000Y-138570000D03*
%TO.P,J6,13*%
%TO.N,net_J6_13*%
X190000000Y-136030000D03*
%TO.P,J6,14*%
%TO.N,net_J6_14*%
X190000000Y-133490000D03*
%TD*%
%TO.P,J7,1*%
%TO.N,net_J7_1*%
X114920000Y-105000000D03*
%TO.P,J7,2*%
%TO.N,net_J7_2*%
X117460000Y-105000000D03*
%TO.P,J7,3*%
%TO.N,net_J7_3*%
X120000000Y-105000000D03*
%TO.P,J7,4*%
%TO.N,net_J7_4*%
X122540000Y-105000000D03*
%TO.P,J7,5*%
%TO.N,net_J7_5*%
X125080000Y-105000000D03*
%TD*%
%TO.P,J8,1*%
%TO.N,net_J8_1*%
X129920000Y-105000000D03*
%TO.P,J8,2*%
%TO.N,net_J8_2*%
X132460000Y-105000000D03*
%TO.P,J8,3*%
%TO.N,net_J8_3*%
X135000000Y-105000000D03*
%TO.P,J8,4*%
%TO.N,net_J8_4*%
X137540000Y-105000000D03*
%TO.P,J8,5*%
%TO.N,net_J8_5*%
X140080000Y-105000000D03*
%TD*%
%TO.P,J9,1*%
%TO.N,net_J9_1*%
X159920000Y-105000000D03*
%TO.P,J9,2*%
%TO.N,net_J9_2*%
X162460000Y-105000000D03*
%TO.P,J9,3*%
%TO.N,net_J9_3*%
X165000000Y-105000000D03*
%TO.P,J9,4*%
%TO.N,net_J9_4*%
X167540000Y-105000000D03*
%TO.P,J9,5*%
%TO.N,net_J9_5*%
X170080000Y-105000000D03*
%TD*%
%TO.P,J10,1*%
%TO.N,net_J10_1*%
X174920000Y-105000000D03*
%TO.P,J10,2*%
%TO.N,net_J10_2*%
X177460000Y-105000000D03*
%TO.P,J10,3*%
%TO.N,net_J10_3*%
X180000000Y-105000000D03*
%TO.P,J10,4*%
%TO.N,net_J10_4*%
X182540000Y-105000000D03*
%TO.P,J10,5*%
%TO.N,net_J10_5*%
X185080000Y-105000000D03*
%TD*%
%TO.P,J11,1*%
%TO.N,net_J11_1*%
X120790000Y-105000000D03*
%TO.P,J11,2*%
%TO.N,net_J11_2*%
X123330000Y-105000000D03*
%TO.P,J11,3*%
%TO.N,net_J11_3*%
X125870000Y-105000000D03*
%TO.P,J11,4*%
%TO.N,net_J11_4*%
X128410000Y-105000000D03*
%TO.P,J11,5*%
%TO.N,net_J11_5*%
X130950000Y-105000000D03*
%TO.P,J11,6*%
%TO.N,net_J11_6*%
X133490000Y-105000000D03*
%TO.P,J11,7*%
%TO.N,net_J11_7*%
X136030000Y-105000000D03*
%TO.P,J11,8*%
%TO.N,net_J11_8*%
X138570000Y-105000000D03*
%TO.P,J11,9*%
%TO.N,net_J11_9*%
X141110000Y-105000000D03*
%TO.P,J11,10*%
%TO.N,net_J11_10*%
X143650000Y-105000000D03*
%TO.P,J11,11*%
%TO.N,net_J11_11*%
X146190000Y-105000000D03*
%TO.P,J11,12*%
%TO.N,net_J11_12*%
X148730000Y-105000000D03*
%TO.P,J11,13*%
%TO.N,net_J11_13*%
X151270000Y-105000000D03*
%TO.P,J11,14*%
%TO.N,net_J11_14*%
X153810000Y-105000000D03*
%TO.P,J11,15*%
%TO.N,net_J11_15*%
X156350000Y-105000000D03*
%TO.P,J11,16*%
%TO.N,net_J11_16*%
X158890000Y-105000000D03*
%TO.P,J11,17*%
%TO.N,net_J11_17*%
X161430000Y-105000000D03*
%TO.P,J11,18*%
%TO.N,net_J11_18*%
X163970000Y-105000000D03*
%TO.P,J11,19*%
%TO.N,net_J11_19*%
X166510000Y-105000000D03*
%TO.P,J11,20*%
%TO.N,net_J11_20*%
X169050000Y-105000000D03*
%TO.P,J11,21*%
%TO.N,net_J11_21*%
X171590000Y-105000000D03*
%TO.P,J11,22*%
%TO.N,net_J11_22*%
X174130000Y-105000000D03*
%TO.P,J11,23*%
%TO.N,net_J11_23*%
X176670000Y-105000000D03*
%TO.P,J11,24*%
%TO.N,net_J11_24*%
X179210000Y-105000000D03*
%TD*%
%TO.P,SW1,1*%
%TO.N,net_SW1_1*%
X181190000Y-185000000D03*
%TO.P,SW1,2*%
%TO.N,net_SW1_2*%
X183730000Y-185000000D03*
%TO.P,SW1,3*%
%TO.N,net_SW1_3*%
X186270000Y-185000000D03*
%TO.P,SW1,4*%
%TO.N,net_SW1_4*%
X188810000Y-185000000D03*
%TD*%
D12*
%TO.N,GND*%
X140000000Y-150000000D03*
X160000000Y-150000000D03*
X150000000Y-180000000D03*
D13*
%TO.N,TFLN_TX2_N*%
X145000000Y-130000000D03*
%TO.N,TFLN_TX1_P*%
X148000000Y-130000000D03*
%TO.N,TFLN_TX2_P*%
X151000000Y-130000000D03*
%TO.N,TFLN_TX3_P*%
X154000000Y-130000000D03*
%TO.N,JTAG_TCK*%
X150000000Y-145000000D03*
%TD*%
M02*
