G04 LightRail NCE+TFLN Evaluation Board*
G04 Layer: L1_PHYSICAL_FABRIC*
G04 Generated: 2026-06-05 21:56:07*
G04 Board: 100x100mm 22-Layer Intelligence Stack*
%TF.GenerationSoftware,KiCad,Pcbnew,8.0*%
%TF.CreationDate,2026-06-05T21:56:07*%
%TF.ProjectId,LightRail_Eval_Board,PA-2026-001,rev1.0*%
%TF.FileFunction,Copper*%
%TF.FilePolarity,Positive*%
%FSLAX46Y46*%
%MOMM*%

G04 Aperture Definitions*
%ADD10C,0.100000*%
%ADD11C,0.150000*%
%ADD12C,0.200000*%
%ADD13C,0.500000*%
%ADD14C,1.000000*%
%ADD15R,0.200000X0.800000*%
%ADD16R,0.600000X1.000000*%
%ADD17R,0.400000X0.400000*%
%ADD18C,0.800000*%
%ADD19C,7.000000*%
G04 Component Pads — F.Cu*
D15*
X037000000Y049000000D03*
X037000000Y041000000D03*
X037400000Y049000000D03*
X037400000Y041000000D03*
X037800000Y049000000D03*
X037800000Y041000000D03*
X038200000Y049000000D03*
X038200000Y041000000D03*
X038600000Y049000000D03*
X038600000Y041000000D03*
X039000000Y049000000D03*
X039000000Y041000000D03*
X039400000Y049000000D03*
X039400000Y041000000D03*
X039800000Y049000000D03*
X039800000Y041000000D03*
X040200000Y049000000D03*
X040200000Y041000000D03*
X040600000Y049000000D03*
X040600000Y041000000D03*
X041000000Y049000000D03*
X041000000Y041000000D03*
X041400000Y049000000D03*
X041400000Y041000000D03*
X041800000Y049000000D03*
X041800000Y041000000D03*
X042200000Y049000000D03*
X042200000Y041000000D03*
X042600000Y049000000D03*
X042600000Y041000000D03*
X043000000Y049000000D03*
X043000000Y041000000D03*
X036000000Y042000000D03*
X044000000Y042000000D03*
X036000000Y042400000D03*
X044000000Y042400000D03*
X036000000Y042800000D03*
X044000000Y042800000D03*
X036000000Y043200000D03*
X044000000Y043200000D03*
X036000000Y043600000D03*
X044000000Y043600000D03*
X036000000Y044000000D03*
X044000000Y044000000D03*
X036000000Y044400000D03*
X044000000Y044400000D03*
X036000000Y044800000D03*
X044000000Y044800000D03*
X036000000Y045200000D03*
X044000000Y045200000D03*
X036000000Y045600000D03*
X044000000Y045600000D03*
X036000000Y046000000D03*
X044000000Y046000000D03*
X036000000Y046400000D03*
X044000000Y046400000D03*
X036000000Y046800000D03*
X044000000Y046800000D03*
X036000000Y047200000D03*
X044000000Y047200000D03*
X036000000Y047600000D03*
X044000000Y047600000D03*
X036000000Y048000000D03*
X044000000Y048000000D03*
D17*
X054000000Y039000000D03*
X054800000Y039000000D03*
X055600000Y039000000D03*
X056400000Y039000000D03*
X057200000Y039000000D03*
X058000000Y039000000D03*
X058800000Y039000000D03*
X059600000Y039000000D03*
X060400000Y039000000D03*
X061200000Y039000000D03*
X062000000Y039000000D03*
X062800000Y039000000D03*
X063600000Y039000000D03*
X064400000Y039000000D03*
X065200000Y039000000D03*
X066000000Y039000000D03*
X054000000Y039800000D03*
X054800000Y039800000D03*
X055600000Y039800000D03*
X056400000Y039800000D03*
X057200000Y039800000D03*
X058000000Y039800000D03*
X058800000Y039800000D03*
X059600000Y039800000D03*
X060400000Y039800000D03*
X061200000Y039800000D03*
X062000000Y039800000D03*
X062800000Y039800000D03*
X063600000Y039800000D03*
X064400000Y039800000D03*
X065200000Y039800000D03*
X066000000Y039800000D03*
X054000000Y040600000D03*
X054800000Y040600000D03*
X055600000Y040600000D03*
X056400000Y040600000D03*
X057200000Y040600000D03*
X058000000Y040600000D03*
X058800000Y040600000D03*
X059600000Y040600000D03*
X060400000Y040600000D03*
X061200000Y040600000D03*
X062000000Y040600000D03*
X062800000Y040600000D03*
X063600000Y040600000D03*
X064400000Y040600000D03*
X065200000Y040600000D03*
X066000000Y040600000D03*
X054000000Y041400000D03*
X054800000Y041400000D03*
X055600000Y041400000D03*
X056400000Y041400000D03*
X057200000Y041400000D03*
X058000000Y041400000D03*
X058800000Y041400000D03*
X059600000Y041400000D03*
X060400000Y041400000D03*
X061200000Y041400000D03*
X062000000Y041400000D03*
X062800000Y041400000D03*
X063600000Y041400000D03*
X064400000Y041400000D03*
X065200000Y041400000D03*
X066000000Y041400000D03*
X054000000Y042200000D03*
X054800000Y042200000D03*
X055600000Y042200000D03*
X056400000Y042200000D03*
X057200000Y042200000D03*
X058000000Y042200000D03*
X058800000Y042200000D03*
X059600000Y042200000D03*
X060400000Y042200000D03*
X061200000Y042200000D03*
X062000000Y042200000D03*
X062800000Y042200000D03*
X063600000Y042200000D03*
X064400000Y042200000D03*
X065200000Y042200000D03*
X066000000Y042200000D03*
X054000000Y043000000D03*
X054800000Y043000000D03*
X055600000Y043000000D03*
X056400000Y043000000D03*
X057200000Y043000000D03*
X058000000Y043000000D03*
X058800000Y043000000D03*
X059600000Y043000000D03*
X060400000Y043000000D03*
X061200000Y043000000D03*
X062000000Y043000000D03*
X062800000Y043000000D03*
X063600000Y043000000D03*
X064400000Y043000000D03*
X065200000Y043000000D03*
X066000000Y043000000D03*
X054000000Y043800000D03*
X054800000Y043800000D03*
X055600000Y043800000D03*
X056400000Y043800000D03*
X057200000Y043800000D03*
X058000000Y043800000D03*
X058800000Y043800000D03*
X059600000Y043800000D03*
X060400000Y043800000D03*
X061200000Y043800000D03*
X062000000Y043800000D03*
X062800000Y043800000D03*
X063600000Y043800000D03*
X064400000Y043800000D03*
X065200000Y043800000D03*
X066000000Y043800000D03*
X054000000Y044600000D03*
X054800000Y044600000D03*
X055600000Y044600000D03*
X056400000Y044600000D03*
X057200000Y044600000D03*
X058000000Y044600000D03*
X058800000Y044600000D03*
X059600000Y044600000D03*
X060400000Y044600000D03*
X061200000Y044600000D03*
X062000000Y044600000D03*
X062800000Y044600000D03*
X063600000Y044600000D03*
X064400000Y044600000D03*
X065200000Y044600000D03*
X066000000Y044600000D03*
X054000000Y045400000D03*
X054800000Y045400000D03*
X055600000Y045400000D03*
X056400000Y045400000D03*
X057200000Y045400000D03*
X058000000Y045400000D03*
X058800000Y045400000D03*
X059600000Y045400000D03*
X060400000Y045400000D03*
X061200000Y045400000D03*
X062000000Y045400000D03*
X062800000Y045400000D03*
X063600000Y045400000D03*
X064400000Y045400000D03*
X065200000Y045400000D03*
X066000000Y045400000D03*
X054000000Y046200000D03*
X054800000Y046200000D03*
X055600000Y046200000D03*
X056400000Y046200000D03*
X057200000Y046200000D03*
X058000000Y046200000D03*
X058800000Y046200000D03*
X059600000Y046200000D03*
X060400000Y046200000D03*
X061200000Y046200000D03*
X062000000Y046200000D03*
X062800000Y046200000D03*
X063600000Y046200000D03*
X064400000Y046200000D03*
X065200000Y046200000D03*
X066000000Y046200000D03*
X054000000Y047000000D03*
X054800000Y047000000D03*
X055600000Y047000000D03*
X056400000Y047000000D03*
X057200000Y047000000D03*
X058000000Y047000000D03*
X058800000Y047000000D03*
X059600000Y047000000D03*
X060400000Y047000000D03*
X061200000Y047000000D03*
X062000000Y047000000D03*
X062800000Y047000000D03*
X063600000Y047000000D03*
X064400000Y047000000D03*
X065200000Y047000000D03*
X066000000Y047000000D03*
X054000000Y047800000D03*
X054800000Y047800000D03*
X055600000Y047800000D03*
X056400000Y047800000D03*
X057200000Y047800000D03*
X058000000Y047800000D03*
X058800000Y047800000D03*
X059600000Y047800000D03*
X060400000Y047800000D03*
X061200000Y047800000D03*
X062000000Y047800000D03*
X062800000Y047800000D03*
X063600000Y047800000D03*
X064400000Y047800000D03*
X065200000Y047800000D03*
X066000000Y047800000D03*
X054000000Y048600000D03*
X054800000Y048600000D03*
X055600000Y048600000D03*
X056400000Y048600000D03*
X057200000Y048600000D03*
X058000000Y048600000D03*
X058800000Y048600000D03*
X059600000Y048600000D03*
X060400000Y048600000D03*
X061200000Y048600000D03*
X062000000Y048600000D03*
X062800000Y048600000D03*
X063600000Y048600000D03*
X064400000Y048600000D03*
X065200000Y048600000D03*
X066000000Y048600000D03*
X054000000Y049400000D03*
X054800000Y049400000D03*
X055600000Y049400000D03*
X056400000Y049400000D03*
X057200000Y049400000D03*
X058000000Y049400000D03*
X058800000Y049400000D03*
X059600000Y049400000D03*
X060400000Y049400000D03*
X061200000Y049400000D03*
X062000000Y049400000D03*
X062800000Y049400000D03*
X063600000Y049400000D03*
X064400000Y049400000D03*
X065200000Y049400000D03*
X066000000Y049400000D03*
X054000000Y050200000D03*
X054800000Y050200000D03*
X055600000Y050200000D03*
X056400000Y050200000D03*
X057200000Y050200000D03*
X058000000Y050200000D03*
X058800000Y050200000D03*
X059600000Y050200000D03*
X060400000Y050200000D03*
X061200000Y050200000D03*
X062000000Y050200000D03*
X062800000Y050200000D03*
X063600000Y050200000D03*
X064400000Y050200000D03*
X065200000Y050200000D03*
X066000000Y050200000D03*
X054000000Y051000000D03*
X054800000Y051000000D03*
X055600000Y051000000D03*
X056400000Y051000000D03*
X057200000Y051000000D03*
X058000000Y051000000D03*
X058800000Y051000000D03*
X059600000Y051000000D03*
X060400000Y051000000D03*
X061200000Y051000000D03*
X062000000Y051000000D03*
X062800000Y051000000D03*
X063600000Y051000000D03*
X064400000Y051000000D03*
X065200000Y051000000D03*
X066000000Y051000000D03*
D16*
X038125000Y020000000D03*
X039375000Y020000000D03*
X040625000Y020000000D03*
X041875000Y020000000D03*
X043125000Y020000000D03*
X044375000Y020000000D03*
X045625000Y020000000D03*
X046875000Y020000000D03*
X048125000Y020000000D03*
X049375000Y020000000D03*
X050625000Y020000000D03*
X051875000Y020000000D03*
X053125000Y020000000D03*
X054375000Y020000000D03*
X055625000Y020000000D03*
X056875000Y020000000D03*
X058125000Y020000000D03*
X059375000Y020000000D03*
X060625000Y020000000D03*
X061875000Y020000000D03*
D16*
X013100000Y080000000D03*
X014050000Y080000000D03*
X015000000Y080000000D03*
X015950000Y080000000D03*
X016900000Y080000000D03*
X023100000Y080000000D03*
X024050000Y080000000D03*
X025000000Y080000000D03*
X025950000Y080000000D03*
X026900000Y080000000D03*
X033100000Y085000000D03*
X034050000Y085000000D03*
X035000000Y085000000D03*
X035950000Y085000000D03*
X036900000Y085000000D03*
X033100000Y080000000D03*
X034050000Y080000000D03*
X035000000Y080000000D03*
X035950000Y080000000D03*
X036900000Y080000000D03*
X043100000Y085000000D03*
X044050000Y085000000D03*
X045000000Y085000000D03*
X045950000Y085000000D03*
X046900000Y085000000D03*
X043100000Y080000000D03*
X044050000Y080000000D03*
X045000000Y080000000D03*
X045950000Y080000000D03*
X046900000Y080000000D03*
G04 Power Traces — F.Cu*
D14*
X005000000Y090000000D02*
X015000000Y080000000D01*
D13*
X015000000Y080000000D02*
X025000000Y080000000D01*
X025000000Y080000000D02*
X035000000Y080000000D01*
X045000000Y080000000D02*
X040000000Y045000000D01*
G04 Mounting Holes*
D19*
X003500000Y003500000D03*
X096500000Y003500000D03*
X003500000Y096500000D03*
X096500000Y096500000D03*
M02*
