M48
; DRILL file {KiCad 8.0.9-8.0.9-0~ubuntu22.04.1} date 2026-05-19T06:17:49+0000
; FORMAT={-:-/ absolute / metric / decimal}
; #@! TF.CreationDate,2026-05-19T06:17:49+00:00
; #@! TF.GenerationSoftware,Kicad,Pcbnew,8.0.9-8.0.9-0~ubuntu22.04.1
; #@! TF.FileFunction,Plated,1,32,PTH
FMAT,2
METRIC
; #@! TA.AperFunction,Plated,PTH,ViaDrill
T1C0.150
; #@! TA.AperFunction,Plated,PTH,ViaDrill
T2C0.200
; #@! TA.AperFunction,Plated,PTH,ViaDrill
T3C0.300
; #@! TA.AperFunction,Plated,PTH,ViaDrill
T4C0.400
%
G90
G05
T1
X105.0Y-150.0
X105.0Y-151.5
X128.0Y-153.5
X128.0Y-154.5
X128.0Y-155.5
X128.0Y-156.5
X128.0Y-157.5
X128.0Y-158.5
X128.0Y-159.5
X128.0Y-160.5
X128.0Y-161.5
X128.0Y-162.5
X128.0Y-163.5
X128.0Y-164.5
X128.0Y-165.5
X128.0Y-166.5
X128.5Y-153.0
X128.5Y-167.0
X129.5Y-153.0
X129.5Y-167.0
X130.0Y-155.0
X130.0Y-165.0
X130.5Y-153.0
X130.5Y-167.0
X131.0Y-156.0
X131.0Y-164.0
X131.5Y-153.0
X131.5Y-167.0
X132.0Y-157.0
X132.0Y-163.0
X132.5Y-153.0
X132.5Y-167.0
X133.5Y-153.0
X133.5Y-167.0
X134.5Y-153.0
X134.5Y-167.0
X135.0Y-150.0
X135.0Y-151.5
X135.0Y-153.0
X135.0Y-154.5
X135.5Y-153.0
X135.5Y-167.0
X136.5Y-153.0
X136.5Y-167.0
X137.5Y-153.0
X137.5Y-167.0
X138.0Y-157.0
X138.0Y-163.0
X138.5Y-153.0
X138.5Y-167.0
X139.0Y-156.0
X139.0Y-164.0
X139.5Y-153.0
X139.5Y-167.0
X140.0Y-155.0
X140.0Y-165.0
X140.5Y-153.0
X140.5Y-167.0
X141.5Y-153.0
X141.5Y-167.0
X142.0Y-153.5
X142.0Y-154.5
X142.0Y-155.5
X142.0Y-156.5
X142.0Y-157.5
X142.0Y-158.5
X142.0Y-159.5
X142.0Y-160.5
X142.0Y-161.5
X142.0Y-162.5
X142.0Y-163.5
X142.0Y-164.5
X142.0Y-165.5
X142.0Y-166.5
X150.0Y-200.0
X151.5Y-200.0
X153.0Y-200.0
X154.5Y-200.0
X155.0Y-153.0
X155.0Y-153.0
X155.0Y-153.18
X155.0Y-153.18
X155.0Y-155.0
X155.0Y-155.0
X155.0Y-155.18
X155.0Y-155.18
X155.0Y-157.0
X155.0Y-157.0
X155.0Y-157.18
X155.0Y-157.18
X155.0Y-159.0
X155.0Y-159.0
X155.0Y-159.18
X155.0Y-159.18
X155.0Y-160.0
X155.0Y-161.0
X155.0Y-161.0
X155.0Y-161.18
X155.0Y-161.18
X155.0Y-163.0
X155.0Y-163.0
X155.0Y-163.18
X155.0Y-163.18
X155.0Y-165.0
X155.0Y-165.0
X155.0Y-165.18
X155.0Y-165.18
X155.0Y-167.0
X155.0Y-167.0
X155.0Y-167.18
X155.0Y-167.18
X156.0Y-200.0
X156.5Y-160.0
X157.5Y-200.0
X158.0Y-160.0
X159.0Y-200.0
X159.5Y-160.0
X160.5Y-200.0
X161.0Y-160.0
X162.0Y-200.0
X162.5Y-160.0
X163.5Y-200.0
X164.0Y-160.0
X165.0Y-153.0
X165.0Y-154.5
X165.0Y-200.0
X165.5Y-160.0
X166.5Y-200.0
X167.0Y-160.0
X168.0Y-200.0
X168.5Y-160.0
X169.5Y-200.0
X170.0Y-160.0
X171.0Y-200.0
X171.5Y-160.0
X172.5Y-200.0
X173.0Y-160.0
X174.0Y-200.0
X174.5Y-160.0
X175.5Y-200.0
X176.0Y-160.0
X177.0Y-200.0
X177.5Y-160.0
X178.5Y-200.0
X180.0Y-200.0
X181.5Y-200.0
X183.0Y-200.0
X184.5Y-200.0
X186.0Y-200.0
X187.5Y-200.0
X189.0Y-200.0
X190.5Y-200.0
X192.0Y-200.0
X193.5Y-200.0
X194.0Y-160.0
X194.8Y-160.0
X195.0Y-200.0
X195.6Y-160.0
X196.4Y-160.0
X196.5Y-200.0
X197.2Y-160.0
X198.0Y-160.0
X198.8Y-160.0
X199.6Y-160.0
X200.4Y-160.0
X201.2Y-160.0
X202.0Y-160.0
X202.8Y-160.0
X203.6Y-160.0
X204.4Y-160.0
X205.2Y-160.0
X206.0Y-160.0
X242.5Y-160.0
X244.0Y-160.0
X245.5Y-160.0
X247.0Y-160.0
X248.5Y-160.0
X250.0Y-160.0
X251.5Y-160.0
X253.0Y-160.0
X254.5Y-160.0
X255.0Y-150.0
X255.0Y-151.5
X256.0Y-160.0
X257.5Y-160.0
X259.0Y-160.0
X260.5Y-160.0
X262.0Y-160.0
X263.5Y-160.0
X265.0Y-153.0
X265.0Y-153.0
X265.0Y-153.18
X265.0Y-153.18
X265.0Y-155.0
X265.0Y-155.0
X265.0Y-155.18
X265.0Y-155.18
X265.0Y-157.0
X265.0Y-157.0
X265.0Y-157.18
X265.0Y-157.18
X265.0Y-159.0
X265.0Y-159.0
X265.0Y-159.18
X265.0Y-159.18
X265.0Y-160.0
X265.0Y-161.0
X265.0Y-161.0
X265.0Y-161.18
X265.0Y-161.18
X265.0Y-163.0
X265.0Y-163.0
X265.0Y-163.18
X265.0Y-163.18
X265.0Y-165.0
X265.0Y-165.0
X265.0Y-165.18
X265.0Y-165.18
X265.0Y-167.0
X265.0Y-167.0
X265.0Y-167.18
X265.0Y-167.18
X278.0Y-153.5
X278.0Y-154.5
X278.0Y-155.5
X278.0Y-156.5
X278.0Y-157.5
X278.0Y-158.5
X278.0Y-159.5
X278.0Y-160.5
X278.0Y-161.5
X278.0Y-162.5
X278.0Y-163.5
X278.0Y-164.5
X278.0Y-165.5
X278.0Y-166.5
X278.5Y-153.0
X278.5Y-167.0
X279.5Y-153.0
X279.5Y-167.0
X280.0Y-155.0
X280.0Y-165.0
X280.5Y-153.0
X280.5Y-167.0
X281.0Y-156.0
X281.0Y-164.0
X281.5Y-153.0
X281.5Y-167.0
X282.0Y-157.0
X282.0Y-163.0
X282.5Y-153.0
X282.5Y-167.0
X283.5Y-153.0
X283.5Y-167.0
X284.5Y-153.0
X284.5Y-167.0
X285.0Y-150.0
X285.0Y-151.5
X285.0Y-153.0
X285.0Y-154.5
X285.5Y-153.0
X285.5Y-167.0
X286.5Y-153.0
X286.5Y-167.0
X287.5Y-153.0
X287.5Y-167.0
X288.0Y-157.0
X288.0Y-163.0
X288.5Y-153.0
X288.5Y-167.0
X289.0Y-156.0
X289.0Y-164.0
X289.5Y-153.0
X289.5Y-167.0
X290.0Y-155.0
X290.0Y-165.0
X290.5Y-153.0
X290.5Y-167.0
X291.5Y-153.0
X291.5Y-167.0
X292.0Y-153.5
X292.0Y-154.5
X292.0Y-155.5
X292.0Y-156.5
X292.0Y-157.5
X292.0Y-158.5
X292.0Y-159.5
X292.0Y-160.5
X292.0Y-161.5
X292.0Y-162.5
X292.0Y-163.5
X292.0Y-164.5
X292.0Y-165.5
X292.0Y-166.5
X315.0Y-153.0
X315.0Y-154.5
T2
X114.0Y-151.25
X114.0Y-153.75
X114.0Y-156.25
X114.0Y-158.75
X114.0Y-161.25
X114.0Y-163.75
X114.0Y-166.25
X114.0Y-168.75
X150.0Y-180.0
X150.0Y-180.0
X150.3Y-180.0
X150.3Y-180.0
X152.5Y-180.0
X152.5Y-180.0
X152.8Y-180.0
X152.8Y-180.0
X155.0Y-180.0
X155.0Y-180.0
X155.3Y-180.0
X155.3Y-180.0
X157.5Y-180.0
X157.5Y-180.0
X157.8Y-180.0
X157.8Y-180.0
X160.0Y-180.0
X160.0Y-180.0
X160.3Y-180.0
X160.3Y-180.0
X162.5Y-180.0
X162.5Y-180.0
X162.8Y-180.0
X162.8Y-180.0
X165.0Y-180.0
X165.0Y-180.0
X165.3Y-180.0
X165.3Y-180.0
X167.5Y-180.0
X167.5Y-180.0
X167.8Y-180.0
X167.8Y-180.0
X170.0Y-180.0
X170.0Y-180.0
X170.3Y-180.0
X170.3Y-180.0
X172.5Y-180.0
X172.5Y-180.0
X172.8Y-180.0
X172.8Y-180.0
X175.0Y-180.0
X175.0Y-180.0
X175.3Y-180.0
X175.3Y-180.0
X177.5Y-180.0
X177.5Y-180.0
X177.8Y-180.0
X177.8Y-180.0
X180.0Y-180.0
X180.0Y-180.0
X180.3Y-180.0
X180.3Y-180.0
X182.5Y-180.0
X182.5Y-180.0
X182.8Y-180.0
X182.8Y-180.0
X185.0Y-180.0
X185.0Y-180.0
X185.3Y-180.0
X185.3Y-180.0
X187.5Y-180.0
X187.5Y-180.0
X187.8Y-180.0
X187.8Y-180.0
X190.0Y-341.0
X192.5Y-341.0
X194.0Y-151.25
X194.0Y-153.75
X194.0Y-156.25
X194.0Y-158.75
X194.0Y-161.25
X194.0Y-163.75
X194.0Y-166.25
X194.0Y-168.75
X195.0Y-341.0
X197.5Y-341.0
X200.0Y-341.0
X202.5Y-341.0
X205.0Y-341.0
X207.5Y-341.0
X210.0Y-341.0
X212.5Y-341.0
X215.0Y-341.0
X217.5Y-341.0
X220.0Y-341.0
X222.5Y-341.0
X225.0Y-341.0
X226.0Y-151.25
X226.0Y-153.75
X226.0Y-156.25
X226.0Y-158.75
X226.0Y-161.25
X226.0Y-163.75
X226.0Y-166.25
X226.0Y-168.75
X227.5Y-341.0
X306.0Y-151.25
X306.0Y-153.75
X306.0Y-156.25
X306.0Y-158.75
X306.0Y-161.25
X306.0Y-163.75
X306.0Y-166.25
X306.0Y-168.75
T3
X114.0Y-160.0
X114.32Y-156.35
X114.32Y-163.65
X115.27Y-152.82
X115.27Y-167.18
X116.81Y-149.5
X116.81Y-170.5
X118.0Y-160.0
X118.91Y-146.5
X118.91Y-173.5
X119.03Y-154.19
X119.03Y-165.81
X121.5Y-143.91
X121.5Y-176.09
X121.98Y-149.07
X121.98Y-170.93
X124.5Y-141.81
X124.5Y-178.19
X126.5Y-145.28
X126.5Y-174.72
X127.82Y-140.27
X127.82Y-179.73
X131.35Y-139.32
X131.35Y-180.68
X132.05Y-143.26
X132.05Y-176.74
X135.0Y-139.0
X135.0Y-181.0
X137.95Y-143.26
X137.95Y-176.74
X138.65Y-139.32
X138.65Y-180.68
X142.18Y-140.27
X142.18Y-179.73
X143.5Y-145.28
X143.5Y-174.72
X145.5Y-141.81
X145.5Y-178.19
X148.02Y-149.07
X148.02Y-170.93
X148.5Y-143.91
X148.5Y-176.09
X150.97Y-154.19
X150.97Y-165.81
X151.09Y-146.5
X151.09Y-173.5
X152.0Y-160.0
X153.19Y-149.5
X153.19Y-170.5
X154.73Y-152.82
X154.73Y-167.18
X155.68Y-156.35
X155.68Y-163.65
X156.0Y-160.0
X264.0Y-160.0
X264.32Y-156.35
X264.32Y-163.65
X265.27Y-152.82
X265.27Y-167.18
X266.81Y-149.5
X266.81Y-170.5
X268.0Y-160.0
X268.91Y-146.5
X268.91Y-173.5
X269.03Y-154.19
X269.03Y-165.81
X271.5Y-143.91
X271.5Y-176.09
X271.98Y-149.07
X271.98Y-170.93
X274.5Y-141.81
X274.5Y-178.19
X276.5Y-145.28
X276.5Y-174.72
X277.82Y-140.27
X277.82Y-179.73
X281.35Y-139.32
X281.35Y-180.68
X282.05Y-143.26
X282.05Y-176.74
X285.0Y-139.0
X285.0Y-181.0
X287.95Y-143.26
X287.95Y-176.74
X288.65Y-139.32
X288.65Y-180.68
X292.18Y-140.27
X292.18Y-179.73
X293.5Y-145.28
X293.5Y-174.72
X295.5Y-141.81
X295.5Y-178.19
X298.02Y-149.07
X298.02Y-170.93
X298.5Y-143.91
X298.5Y-176.09
X300.97Y-154.19
X300.97Y-165.81
X301.09Y-146.5
X301.09Y-173.5
X302.0Y-160.0
X303.19Y-149.5
X303.19Y-170.5
X304.73Y-152.82
X304.73Y-167.18
X305.68Y-156.35
X305.68Y-163.65
X306.0Y-160.0
T4
X77.5Y-192.5
X77.5Y-193.5
X77.5Y-194.5
X77.5Y-195.5
X77.5Y-196.5
X77.5Y-197.5
X78.5Y-192.5
X78.5Y-193.5
X78.5Y-194.5
X78.5Y-195.5
X78.5Y-196.5
X78.5Y-197.5
X79.5Y-192.5
X79.5Y-193.5
X79.5Y-194.5
X79.5Y-195.5
X79.5Y-196.5
X79.5Y-197.5
X80.5Y-192.5
X80.5Y-193.5
X80.5Y-194.5
X80.5Y-195.5
X80.5Y-196.5
X80.5Y-197.5
X81.5Y-192.5
X81.5Y-193.5
X81.5Y-194.5
X81.5Y-195.5
X81.5Y-196.5
X81.5Y-197.5
X82.5Y-192.5
X82.5Y-193.5
X82.5Y-194.5
X82.5Y-195.5
X82.5Y-196.5
X82.5Y-197.5
X87.5Y-192.5
X87.5Y-193.5
X87.5Y-194.5
X87.5Y-195.5
X87.5Y-196.5
X87.5Y-197.5
X88.5Y-192.5
X88.5Y-193.5
X88.5Y-194.5
X88.5Y-195.5
X88.5Y-196.5
X88.5Y-197.5
X89.5Y-192.5
X89.5Y-193.5
X89.5Y-194.5
X89.5Y-195.5
X89.5Y-196.5
X89.5Y-197.5
X90.5Y-192.5
X90.5Y-193.5
X90.5Y-194.5
X90.5Y-195.5
X90.5Y-196.5
X90.5Y-197.5
X91.5Y-192.5
X91.5Y-193.5
X91.5Y-194.5
X91.5Y-195.5
X91.5Y-196.5
X91.5Y-197.5
X92.5Y-192.5
X92.5Y-193.5
X92.5Y-194.5
X92.5Y-195.5
X92.5Y-196.5
X92.5Y-197.5
X97.5Y-192.5
X97.5Y-193.5
X97.5Y-194.5
X97.5Y-195.5
X97.5Y-196.5
X97.5Y-197.5
X98.5Y-192.5
X98.5Y-193.5
X98.5Y-194.5
X98.5Y-195.5
X98.5Y-196.5
X98.5Y-197.5
X99.5Y-192.5
X99.5Y-193.5
X99.5Y-194.5
X99.5Y-195.5
X99.5Y-196.5
X99.5Y-197.5
X100.5Y-192.5
X100.5Y-193.5
X100.5Y-194.5
X100.5Y-195.5
X100.5Y-196.5
X100.5Y-197.5
X101.5Y-192.5
X101.5Y-193.5
X101.5Y-194.5
X101.5Y-195.5
X101.5Y-196.5
X101.5Y-197.5
X102.5Y-192.5
X102.5Y-193.5
X102.5Y-194.5
X102.5Y-195.5
X102.5Y-196.5
X102.5Y-197.5
X107.5Y-192.5
X107.5Y-193.5
X107.5Y-194.5
X107.5Y-195.5
X107.5Y-196.5
X107.5Y-197.5
X108.5Y-192.5
X108.5Y-193.5
X108.5Y-194.5
X108.5Y-195.5
X108.5Y-196.5
X108.5Y-197.5
X109.5Y-192.5
X109.5Y-193.5
X109.5Y-194.5
X109.5Y-195.5
X109.5Y-196.5
X109.5Y-197.5
X110.5Y-192.5
X110.5Y-193.5
X110.5Y-194.5
X110.5Y-195.5
X110.5Y-196.5
X110.5Y-197.5
X111.5Y-192.5
X111.5Y-193.5
X111.5Y-194.5
X111.5Y-195.5
X111.5Y-196.5
X111.5Y-197.5
X112.5Y-192.5
X112.5Y-193.5
X112.5Y-194.5
X112.5Y-195.5
X112.5Y-196.5
X112.5Y-197.5
X117.5Y-192.5
X117.5Y-193.5
X117.5Y-194.5
X117.5Y-195.5
X117.5Y-196.5
X117.5Y-197.5
X118.5Y-192.5
X118.5Y-193.5
X118.5Y-194.5
X118.5Y-195.5
X118.5Y-196.5
X118.5Y-197.5
X119.5Y-192.5
X119.5Y-193.5
X119.5Y-194.5
X119.5Y-195.5
X119.5Y-196.5
X119.5Y-197.5
X120.5Y-192.5
X120.5Y-193.5
X120.5Y-194.5
X120.5Y-195.5
X120.5Y-196.5
X120.5Y-197.5
X121.5Y-192.5
X121.5Y-193.5
X121.5Y-194.5
X121.5Y-195.5
X121.5Y-196.5
X121.5Y-197.5
X122.5Y-192.5
X122.5Y-193.5
X122.5Y-194.5
X122.5Y-195.5
X122.5Y-196.5
X122.5Y-197.5
X127.5Y-192.5
X127.5Y-193.5
X127.5Y-194.5
X127.5Y-195.5
X127.5Y-196.5
X127.5Y-197.5
X128.5Y-192.5
X128.5Y-193.5
X128.5Y-194.5
X128.5Y-195.5
X128.5Y-196.5
X128.5Y-197.5
X129.5Y-192.5
X129.5Y-193.5
X129.5Y-194.5
X129.5Y-195.5
X129.5Y-196.5
X129.5Y-197.5
X130.5Y-192.5
X130.5Y-193.5
X130.5Y-194.5
X130.5Y-195.5
X130.5Y-196.5
X130.5Y-197.5
X131.5Y-192.5
X131.5Y-193.5
X131.5Y-194.5
X131.5Y-195.5
X131.5Y-196.5
X131.5Y-197.5
X132.5Y-192.5
X132.5Y-193.5
X132.5Y-194.5
X132.5Y-195.5
X132.5Y-196.5
X132.5Y-197.5
X137.5Y-192.5
X137.5Y-193.5
X137.5Y-194.5
X137.5Y-195.5
X137.5Y-196.5
X137.5Y-197.5
X138.5Y-192.5
X138.5Y-193.5
X138.5Y-194.5
X138.5Y-195.5
X138.5Y-196.5
X138.5Y-197.5
X139.5Y-192.5
X139.5Y-193.5
X139.5Y-194.5
X139.5Y-195.5
X139.5Y-196.5
X139.5Y-197.5
X140.5Y-192.5
X140.5Y-193.5
X140.5Y-194.5
X140.5Y-195.5
X140.5Y-196.5
X140.5Y-197.5
X141.5Y-192.5
X141.5Y-193.5
X141.5Y-194.5
X141.5Y-195.5
X141.5Y-196.5
X141.5Y-197.5
X142.5Y-192.5
X142.5Y-193.5
X142.5Y-194.5
X142.5Y-195.5
X142.5Y-196.5
X142.5Y-197.5
X147.5Y-192.5
X147.5Y-193.5
X147.5Y-194.5
X147.5Y-195.5
X147.5Y-196.5
X147.5Y-197.5
X148.5Y-192.5
X148.5Y-193.5
X148.5Y-194.5
X148.5Y-195.5
X148.5Y-196.5
X148.5Y-197.5
X149.5Y-192.5
X149.5Y-193.5
X149.5Y-194.5
X149.5Y-195.5
X149.5Y-196.5
X149.5Y-197.5
X150.5Y-192.5
X150.5Y-193.5
X150.5Y-194.5
X150.5Y-195.5
X150.5Y-196.5
X150.5Y-197.5
X151.5Y-192.5
X151.5Y-193.5
X151.5Y-194.5
X151.5Y-195.5
X151.5Y-196.5
X151.5Y-197.5
X152.5Y-192.5
X152.5Y-193.5
X152.5Y-194.5
X152.5Y-195.5
X152.5Y-196.5
X152.5Y-197.5
X157.5Y-192.5
X157.5Y-193.5
X157.5Y-194.5
X157.5Y-195.5
X157.5Y-196.5
X157.5Y-197.5
X158.5Y-192.5
X158.5Y-193.5
X158.5Y-194.5
X158.5Y-195.5
X158.5Y-196.5
X158.5Y-197.5
X159.5Y-192.5
X159.5Y-193.5
X159.5Y-194.5
X159.5Y-195.5
X159.5Y-196.5
X159.5Y-197.5
X160.5Y-192.5
X160.5Y-193.5
X160.5Y-194.5
X160.5Y-195.5
X160.5Y-196.5
X160.5Y-197.5
X161.5Y-192.5
X161.5Y-193.5
X161.5Y-194.5
X161.5Y-195.5
X161.5Y-196.5
X161.5Y-197.5
X162.5Y-192.5
X162.5Y-193.5
X162.5Y-194.5
X162.5Y-195.5
X162.5Y-196.5
X162.5Y-197.5
X167.5Y-192.5
X167.5Y-193.5
X167.5Y-194.5
X167.5Y-195.5
X167.5Y-196.5
X167.5Y-197.5
X168.5Y-192.5
X168.5Y-193.5
X168.5Y-194.5
X168.5Y-195.5
X168.5Y-196.5
X168.5Y-197.5
X169.5Y-192.5
X169.5Y-193.5
X169.5Y-194.5
X169.5Y-195.5
X169.5Y-196.5
X169.5Y-197.5
X170.5Y-192.5
X170.5Y-193.5
X170.5Y-194.5
X170.5Y-195.5
X170.5Y-196.5
X170.5Y-197.5
X171.5Y-192.5
X171.5Y-193.5
X171.5Y-194.5
X171.5Y-195.5
X171.5Y-196.5
X171.5Y-197.5
X172.5Y-192.5
X172.5Y-193.5
X172.5Y-194.5
X172.5Y-195.5
X172.5Y-196.5
X172.5Y-197.5
X177.5Y-192.5
X177.5Y-193.5
X177.5Y-194.5
X177.5Y-195.5
X177.5Y-196.5
X177.5Y-197.5
X178.5Y-192.5
X178.5Y-193.5
X178.5Y-194.5
X178.5Y-195.5
X178.5Y-196.5
X178.5Y-197.5
X179.5Y-192.5
X179.5Y-193.5
X179.5Y-194.5
X179.5Y-195.5
X179.5Y-196.5
X179.5Y-197.5
X180.5Y-192.5
X180.5Y-193.5
X180.5Y-194.5
X180.5Y-195.5
X180.5Y-196.5
X180.5Y-197.5
X181.5Y-192.5
X181.5Y-193.5
X181.5Y-194.5
X181.5Y-195.5
X181.5Y-196.5
X181.5Y-197.5
X182.5Y-192.5
X182.5Y-193.5
X182.5Y-194.5
X182.5Y-195.5
X182.5Y-196.5
X182.5Y-197.5
X187.5Y-192.5
X187.5Y-193.5
X187.5Y-194.5
X187.5Y-195.5
X187.5Y-196.5
X187.5Y-197.5
X188.5Y-192.5
X188.5Y-193.5
X188.5Y-194.5
X188.5Y-195.5
X188.5Y-196.5
X188.5Y-197.5
X189.5Y-192.5
X189.5Y-193.5
X189.5Y-194.5
X189.5Y-195.5
X189.5Y-196.5
X189.5Y-197.5
X190.5Y-192.5
X190.5Y-193.5
X190.5Y-194.5
X190.5Y-195.5
X190.5Y-196.5
X190.5Y-197.5
X191.5Y-192.5
X191.5Y-193.5
X191.5Y-194.5
X191.5Y-195.5
X191.5Y-196.5
X191.5Y-197.5
X192.5Y-192.5
X192.5Y-193.5
X192.5Y-194.5
X192.5Y-195.5
X192.5Y-196.5
X192.5Y-197.5
X227.5Y-192.5
X227.5Y-193.5
X227.5Y-194.5
X227.5Y-195.5
X227.5Y-196.5
X227.5Y-197.5
X228.5Y-192.5
X228.5Y-193.5
X228.5Y-194.5
X228.5Y-195.5
X228.5Y-196.5
X228.5Y-197.5
X229.5Y-192.5
X229.5Y-193.5
X229.5Y-194.5
X229.5Y-195.5
X229.5Y-196.5
X229.5Y-197.5
X230.5Y-192.5
X230.5Y-193.5
X230.5Y-194.5
X230.5Y-195.5
X230.5Y-196.5
X230.5Y-197.5
X231.5Y-192.5
X231.5Y-193.5
X231.5Y-194.5
X231.5Y-195.5
X231.5Y-196.5
X231.5Y-197.5
X232.5Y-192.5
X232.5Y-193.5
X232.5Y-194.5
X232.5Y-195.5
X232.5Y-196.5
X232.5Y-197.5
X237.5Y-192.5
X237.5Y-193.5
X237.5Y-194.5
X237.5Y-195.5
X237.5Y-196.5
X237.5Y-197.5
X238.5Y-192.5
X238.5Y-193.5
X238.5Y-194.5
X238.5Y-195.5
X238.5Y-196.5
X238.5Y-197.5
X239.5Y-192.5
X239.5Y-193.5
X239.5Y-194.5
X239.5Y-195.5
X239.5Y-196.5
X239.5Y-197.5
X240.5Y-192.5
X240.5Y-193.5
X240.5Y-194.5
X240.5Y-195.5
X240.5Y-196.5
X240.5Y-197.5
X241.5Y-192.5
X241.5Y-193.5
X241.5Y-194.5
X241.5Y-195.5
X241.5Y-196.5
X241.5Y-197.5
X242.5Y-192.5
X242.5Y-193.5
X242.5Y-194.5
X242.5Y-195.5
X242.5Y-196.5
X242.5Y-197.5
X247.5Y-192.5
X247.5Y-193.5
X247.5Y-194.5
X247.5Y-195.5
X247.5Y-196.5
X247.5Y-197.5
X248.5Y-192.5
X248.5Y-193.5
X248.5Y-194.5
X248.5Y-195.5
X248.5Y-196.5
X248.5Y-197.5
X249.5Y-192.5
X249.5Y-193.5
X249.5Y-194.5
X249.5Y-195.5
X249.5Y-196.5
X249.5Y-197.5
X250.5Y-192.5
X250.5Y-193.5
X250.5Y-194.5
X250.5Y-195.5
X250.5Y-196.5
X250.5Y-197.5
X251.5Y-192.5
X251.5Y-193.5
X251.5Y-194.5
X251.5Y-195.5
X251.5Y-196.5
X251.5Y-197.5
X252.5Y-192.5
X252.5Y-193.5
X252.5Y-194.5
X252.5Y-195.5
X252.5Y-196.5
X252.5Y-197.5
X257.5Y-192.5
X257.5Y-193.5
X257.5Y-194.5
X257.5Y-195.5
X257.5Y-196.5
X257.5Y-197.5
X258.5Y-192.5
X258.5Y-193.5
X258.5Y-194.5
X258.5Y-195.5
X258.5Y-196.5
X258.5Y-197.5
X259.5Y-192.5
X259.5Y-193.5
X259.5Y-194.5
X259.5Y-195.5
X259.5Y-196.5
X259.5Y-197.5
X260.5Y-192.5
X260.5Y-193.5
X260.5Y-194.5
X260.5Y-195.5
X260.5Y-196.5
X260.5Y-197.5
X261.5Y-192.5
X261.5Y-193.5
X261.5Y-194.5
X261.5Y-195.5
X261.5Y-196.5
X261.5Y-197.5
X262.5Y-192.5
X262.5Y-193.5
X262.5Y-194.5
X262.5Y-195.5
X262.5Y-196.5
X262.5Y-197.5
X267.5Y-192.5
X267.5Y-193.5
X267.5Y-194.5
X267.5Y-195.5
X267.5Y-196.5
X267.5Y-197.5
X268.5Y-192.5
X268.5Y-193.5
X268.5Y-194.5
X268.5Y-195.5
X268.5Y-196.5
X268.5Y-197.5
X269.5Y-192.5
X269.5Y-193.5
X269.5Y-194.5
X269.5Y-195.5
X269.5Y-196.5
X269.5Y-197.5
X270.5Y-192.5
X270.5Y-193.5
X270.5Y-194.5
X270.5Y-195.5
X270.5Y-196.5
X270.5Y-197.5
X271.5Y-192.5
X271.5Y-193.5
X271.5Y-194.5
X271.5Y-195.5
X271.5Y-196.5
X271.5Y-197.5
X272.5Y-192.5
X272.5Y-193.5
X272.5Y-194.5
X272.5Y-195.5
X272.5Y-196.5
X272.5Y-197.5
X277.5Y-192.5
X277.5Y-193.5
X277.5Y-194.5
X277.5Y-195.5
X277.5Y-196.5
X277.5Y-197.5
X278.5Y-192.5
X278.5Y-193.5
X278.5Y-194.5
X278.5Y-195.5
X278.5Y-196.5
X278.5Y-197.5
X279.5Y-192.5
X279.5Y-193.5
X279.5Y-194.5
X279.5Y-195.5
X279.5Y-196.5
X279.5Y-197.5
X280.5Y-192.5
X280.5Y-193.5
X280.5Y-194.5
X280.5Y-195.5
X280.5Y-196.5
X280.5Y-197.5
X281.5Y-192.5
X281.5Y-193.5
X281.5Y-194.5
X281.5Y-195.5
X281.5Y-196.5
X281.5Y-197.5
X282.5Y-192.5
X282.5Y-193.5
X282.5Y-194.5
X282.5Y-195.5
X282.5Y-196.5
X282.5Y-197.5
X287.5Y-192.5
X287.5Y-193.5
X287.5Y-194.5
X287.5Y-195.5
X287.5Y-196.5
X287.5Y-197.5
X288.5Y-192.5
X288.5Y-193.5
X288.5Y-194.5
X288.5Y-195.5
X288.5Y-196.5
X288.5Y-197.5
X289.5Y-192.5
X289.5Y-193.5
X289.5Y-194.5
X289.5Y-195.5
X289.5Y-196.5
X289.5Y-197.5
X290.5Y-192.5
X290.5Y-193.5
X290.5Y-194.5
X290.5Y-195.5
X290.5Y-196.5
X290.5Y-197.5
X291.5Y-192.5
X291.5Y-193.5
X291.5Y-194.5
X291.5Y-195.5
X291.5Y-196.5
X291.5Y-197.5
X292.5Y-192.5
X292.5Y-193.5
X292.5Y-194.5
X292.5Y-195.5
X292.5Y-196.5
X292.5Y-197.5
X297.5Y-192.5
X297.5Y-193.5
X297.5Y-194.5
X297.5Y-195.5
X297.5Y-196.5
X297.5Y-197.5
X298.5Y-192.5
X298.5Y-193.5
X298.5Y-194.5
X298.5Y-195.5
X298.5Y-196.5
X298.5Y-197.5
X299.5Y-192.5
X299.5Y-193.5
X299.5Y-194.5
X299.5Y-195.5
X299.5Y-196.5
X299.5Y-197.5
X300.5Y-192.5
X300.5Y-193.5
X300.5Y-194.5
X300.5Y-195.5
X300.5Y-196.5
X300.5Y-197.5
X301.5Y-192.5
X301.5Y-193.5
X301.5Y-194.5
X301.5Y-195.5
X301.5Y-196.5
X301.5Y-197.5
X302.5Y-192.5
X302.5Y-193.5
X302.5Y-194.5
X302.5Y-195.5
X302.5Y-196.5
X302.5Y-197.5
X307.5Y-192.5
X307.5Y-193.5
X307.5Y-194.5
X307.5Y-195.5
X307.5Y-196.5
X307.5Y-197.5
X308.5Y-192.5
X308.5Y-193.5
X308.5Y-194.5
X308.5Y-195.5
X308.5Y-196.5
X308.5Y-197.5
X309.5Y-192.5
X309.5Y-193.5
X309.5Y-194.5
X309.5Y-195.5
X309.5Y-196.5
X309.5Y-197.5
X310.5Y-192.5
X310.5Y-193.5
X310.5Y-194.5
X310.5Y-195.5
X310.5Y-196.5
X310.5Y-197.5
X311.5Y-192.5
X311.5Y-193.5
X311.5Y-194.5
X311.5Y-195.5
X311.5Y-196.5
X311.5Y-197.5
X312.5Y-192.5
X312.5Y-193.5
X312.5Y-194.5
X312.5Y-195.5
X312.5Y-196.5
X312.5Y-197.5
X317.5Y-192.5
X317.5Y-193.5
X317.5Y-194.5
X317.5Y-195.5
X317.5Y-196.5
X317.5Y-197.5
X318.5Y-192.5
X318.5Y-193.5
X318.5Y-194.5
X318.5Y-195.5
X318.5Y-196.5
X318.5Y-197.5
X319.5Y-192.5
X319.5Y-193.5
X319.5Y-194.5
X319.5Y-195.5
X319.5Y-196.5
X319.5Y-197.5
X320.5Y-192.5
X320.5Y-193.5
X320.5Y-194.5
X320.5Y-195.5
X320.5Y-196.5
X320.5Y-197.5
X321.5Y-192.5
X321.5Y-193.5
X321.5Y-194.5
X321.5Y-195.5
X321.5Y-196.5
X321.5Y-197.5
X322.5Y-192.5
X322.5Y-193.5
X322.5Y-194.5
X322.5Y-195.5
X322.5Y-196.5
X322.5Y-197.5
X327.5Y-192.5
X327.5Y-193.5
X327.5Y-194.5
X327.5Y-195.5
X327.5Y-196.5
X327.5Y-197.5
X328.5Y-192.5
X328.5Y-193.5
X328.5Y-194.5
X328.5Y-195.5
X328.5Y-196.5
X328.5Y-197.5
X329.5Y-192.5
X329.5Y-193.5
X329.5Y-194.5
X329.5Y-195.5
X329.5Y-196.5
X329.5Y-197.5
X330.5Y-192.5
X330.5Y-193.5
X330.5Y-194.5
X330.5Y-195.5
X330.5Y-196.5
X330.5Y-197.5
X331.5Y-192.5
X331.5Y-193.5
X331.5Y-194.5
X331.5Y-195.5
X331.5Y-196.5
X331.5Y-197.5
X332.5Y-192.5
X332.5Y-193.5
X332.5Y-194.5
X332.5Y-195.5
X332.5Y-196.5
X332.5Y-197.5
X337.5Y-192.5
X337.5Y-193.5
X337.5Y-194.5
X337.5Y-195.5
X337.5Y-196.5
X337.5Y-197.5
X338.5Y-192.5
X338.5Y-193.5
X338.5Y-194.5
X338.5Y-195.5
X338.5Y-196.5
X338.5Y-197.5
X339.5Y-192.5
X339.5Y-193.5
X339.5Y-194.5
X339.5Y-195.5
X339.5Y-196.5
X339.5Y-197.5
X340.5Y-192.5
X340.5Y-193.5
X340.5Y-194.5
X340.5Y-195.5
X340.5Y-196.5
X340.5Y-197.5
X341.5Y-192.5
X341.5Y-193.5
X341.5Y-194.5
X341.5Y-195.5
X341.5Y-196.5
X341.5Y-197.5
X342.5Y-192.5
X342.5Y-193.5
X342.5Y-194.5
X342.5Y-195.5
X342.5Y-196.5
X342.5Y-197.5
M30
