%TF.GenerationSoftware,KiCad,Pcbnew,8.0.9-8.0.9-0~ubuntu22.04.1*%
%TF.CreationDate,2026-05-19T06:17:49+00:00*%
%TF.ProjectId,LightRail_LPO_1.6T,4c696768-7452-4616-996c-5f4c504f5f31,rev?*%
%TF.SameCoordinates,Original*%
%TF.FileFunction,Drillmap*%
%TF.FilePolarity,Positive*%
%FSLAX45Y45*%
G04 Gerber Fmt 4.5, Leading zero omitted, Abs format (unit mm)*
G04 Created by KiCad (PCBNEW 8.0.9-8.0.9-0~ubuntu22.04.1) date 2026-05-19 06:17:49*
%MOMM*%
%LPD*%
G01*
G04 APERTURE LIST*
%ADD10C,0.050000*%
%ADD11C,0.200000*%
%ADD12C,0.320000*%
G04 APERTURE END LIST*
D10*
X0Y0D02*
X42000000Y0D01*
X42000000Y0D02*
X42000000Y-35000000D01*
X42000000Y-35000000D02*
X29300000Y-35000000D01*
X29300000Y-35000000D02*
X29300000Y-35500000D01*
X29300000Y-35500000D02*
X12700000Y-35500000D01*
X12700000Y-35500000D02*
X12700000Y-35000000D01*
X12700000Y-35000000D02*
X0Y-35000000D01*
X0Y-35000000D02*
X0Y0D01*
D11*
D12*
X340000Y-340000D02*
X660000Y-660000D01*
X660000Y-340000D02*
X340000Y-660000D01*
X340000Y-34340000D02*
X660000Y-34660000D01*
X660000Y-34340000D02*
X340000Y-34660000D01*
X10840000Y-13340000D02*
X11160000Y-13660000D01*
X11160000Y-13340000D02*
X10840000Y-13660000D01*
X10840000Y-18340000D02*
X11160000Y-18660000D01*
X11160000Y-18340000D02*
X10840000Y-18660000D01*
X15840000Y-13340000D02*
X16160000Y-13660000D01*
X16160000Y-13340000D02*
X15840000Y-13660000D01*
X15840000Y-18340000D02*
X16160000Y-18660000D01*
X16160000Y-18340000D02*
X15840000Y-18660000D01*
X25840000Y-13340000D02*
X26160000Y-13660000D01*
X26160000Y-13340000D02*
X25840000Y-13660000D01*
X25840000Y-18340000D02*
X26160000Y-18660000D01*
X26160000Y-18340000D02*
X25840000Y-18660000D01*
X30840000Y-13340000D02*
X31160000Y-13660000D01*
X31160000Y-13340000D02*
X30840000Y-13660000D01*
X30840000Y-18340000D02*
X31160000Y-18660000D01*
X31160000Y-18340000D02*
X30840000Y-18660000D01*
X41340000Y-340000D02*
X41660000Y-660000D01*
X41660000Y-340000D02*
X41340000Y-660000D01*
X41340000Y-34340000D02*
X41660000Y-34660000D01*
X41660000Y-34340000D02*
X41340000Y-34660000D01*
D11*
X258277Y-35813984D02*
X258277Y-35613984D01*
X258277Y-35613984D02*
X305896Y-35613984D01*
X305896Y-35613984D02*
X334467Y-35623508D01*
X334467Y-35623508D02*
X353515Y-35642555D01*
X353515Y-35642555D02*
X363039Y-35661603D01*
X363039Y-35661603D02*
X372562Y-35699698D01*
X372562Y-35699698D02*
X372562Y-35728270D01*
X372562Y-35728270D02*
X363039Y-35766365D01*
X363039Y-35766365D02*
X353515Y-35785412D01*
X353515Y-35785412D02*
X334467Y-35804460D01*
X334467Y-35804460D02*
X305896Y-35813984D01*
X305896Y-35813984D02*
X258277Y-35813984D01*
X458277Y-35813984D02*
X458277Y-35680650D01*
X458277Y-35718746D02*
X467801Y-35699698D01*
X467801Y-35699698D02*
X477324Y-35690174D01*
X477324Y-35690174D02*
X496372Y-35680650D01*
X496372Y-35680650D02*
X515420Y-35680650D01*
X582086Y-35813984D02*
X582086Y-35680650D01*
X582086Y-35613984D02*
X572563Y-35623508D01*
X572563Y-35623508D02*
X582086Y-35633031D01*
X582086Y-35633031D02*
X591610Y-35623508D01*
X591610Y-35623508D02*
X582086Y-35613984D01*
X582086Y-35613984D02*
X582086Y-35633031D01*
X705896Y-35813984D02*
X686848Y-35804460D01*
X686848Y-35804460D02*
X677324Y-35785412D01*
X677324Y-35785412D02*
X677324Y-35613984D01*
X810658Y-35813984D02*
X791610Y-35804460D01*
X791610Y-35804460D02*
X782086Y-35785412D01*
X782086Y-35785412D02*
X782086Y-35613984D01*
X1039229Y-35813984D02*
X1039229Y-35613984D01*
X1039229Y-35613984D02*
X1105896Y-35756841D01*
X1105896Y-35756841D02*
X1172563Y-35613984D01*
X1172563Y-35613984D02*
X1172563Y-35813984D01*
X1353515Y-35813984D02*
X1353515Y-35709222D01*
X1353515Y-35709222D02*
X1343991Y-35690174D01*
X1343991Y-35690174D02*
X1324944Y-35680650D01*
X1324944Y-35680650D02*
X1286848Y-35680650D01*
X1286848Y-35680650D02*
X1267801Y-35690174D01*
X1353515Y-35804460D02*
X1334467Y-35813984D01*
X1334467Y-35813984D02*
X1286848Y-35813984D01*
X1286848Y-35813984D02*
X1267801Y-35804460D01*
X1267801Y-35804460D02*
X1258277Y-35785412D01*
X1258277Y-35785412D02*
X1258277Y-35766365D01*
X1258277Y-35766365D02*
X1267801Y-35747317D01*
X1267801Y-35747317D02*
X1286848Y-35737793D01*
X1286848Y-35737793D02*
X1334467Y-35737793D01*
X1334467Y-35737793D02*
X1353515Y-35728270D01*
X1448753Y-35680650D02*
X1448753Y-35880650D01*
X1448753Y-35690174D02*
X1467801Y-35680650D01*
X1467801Y-35680650D02*
X1505896Y-35680650D01*
X1505896Y-35680650D02*
X1524943Y-35690174D01*
X1524943Y-35690174D02*
X1534467Y-35699698D01*
X1534467Y-35699698D02*
X1543991Y-35718746D01*
X1543991Y-35718746D02*
X1543991Y-35775889D01*
X1543991Y-35775889D02*
X1534467Y-35794936D01*
X1534467Y-35794936D02*
X1524943Y-35804460D01*
X1524943Y-35804460D02*
X1505896Y-35813984D01*
X1505896Y-35813984D02*
X1467801Y-35813984D01*
X1467801Y-35813984D02*
X1448753Y-35804460D01*
X1629705Y-35794936D02*
X1639229Y-35804460D01*
X1639229Y-35804460D02*
X1629705Y-35813984D01*
X1629705Y-35813984D02*
X1620182Y-35804460D01*
X1620182Y-35804460D02*
X1629705Y-35794936D01*
X1629705Y-35794936D02*
X1629705Y-35813984D01*
X1629705Y-35690174D02*
X1639229Y-35699698D01*
X1639229Y-35699698D02*
X1629705Y-35709222D01*
X1629705Y-35709222D02*
X1620182Y-35699698D01*
X1620182Y-35699698D02*
X1629705Y-35690174D01*
X1629705Y-35690174D02*
X1629705Y-35709222D01*
X-202500Y-36042500D02*
X-2500Y-36242500D01*
X-2500Y-36042500D02*
X-202500Y-36242500D01*
X239229Y-36033984D02*
X363039Y-36033984D01*
X363039Y-36033984D02*
X296372Y-36110174D01*
X296372Y-36110174D02*
X324944Y-36110174D01*
X324944Y-36110174D02*
X343991Y-36119698D01*
X343991Y-36119698D02*
X353515Y-36129222D01*
X353515Y-36129222D02*
X363039Y-36148270D01*
X363039Y-36148270D02*
X363039Y-36195889D01*
X363039Y-36195889D02*
X353515Y-36214936D01*
X353515Y-36214936D02*
X343991Y-36224460D01*
X343991Y-36224460D02*
X324944Y-36233984D01*
X324944Y-36233984D02*
X267801Y-36233984D01*
X267801Y-36233984D02*
X248753Y-36224460D01*
X248753Y-36224460D02*
X239229Y-36214936D01*
X448753Y-36214936D02*
X458277Y-36224460D01*
X458277Y-36224460D02*
X448753Y-36233984D01*
X448753Y-36233984D02*
X439229Y-36224460D01*
X439229Y-36224460D02*
X448753Y-36214936D01*
X448753Y-36214936D02*
X448753Y-36233984D01*
X534467Y-36053031D02*
X543991Y-36043508D01*
X543991Y-36043508D02*
X563039Y-36033984D01*
X563039Y-36033984D02*
X610658Y-36033984D01*
X610658Y-36033984D02*
X629705Y-36043508D01*
X629705Y-36043508D02*
X639229Y-36053031D01*
X639229Y-36053031D02*
X648753Y-36072079D01*
X648753Y-36072079D02*
X648753Y-36091127D01*
X648753Y-36091127D02*
X639229Y-36119698D01*
X639229Y-36119698D02*
X524944Y-36233984D01*
X524944Y-36233984D02*
X648753Y-36233984D01*
X772562Y-36033984D02*
X791610Y-36033984D01*
X791610Y-36033984D02*
X810658Y-36043508D01*
X810658Y-36043508D02*
X820182Y-36053031D01*
X820182Y-36053031D02*
X829705Y-36072079D01*
X829705Y-36072079D02*
X839229Y-36110174D01*
X839229Y-36110174D02*
X839229Y-36157793D01*
X839229Y-36157793D02*
X829705Y-36195889D01*
X829705Y-36195889D02*
X820182Y-36214936D01*
X820182Y-36214936D02*
X810658Y-36224460D01*
X810658Y-36224460D02*
X791610Y-36233984D01*
X791610Y-36233984D02*
X772562Y-36233984D01*
X772562Y-36233984D02*
X753515Y-36224460D01*
X753515Y-36224460D02*
X743991Y-36214936D01*
X743991Y-36214936D02*
X734467Y-36195889D01*
X734467Y-36195889D02*
X724943Y-36157793D01*
X724943Y-36157793D02*
X724943Y-36110174D01*
X724943Y-36110174D02*
X734467Y-36072079D01*
X734467Y-36072079D02*
X743991Y-36053031D01*
X743991Y-36053031D02*
X753515Y-36043508D01*
X753515Y-36043508D02*
X772562Y-36033984D01*
X963039Y-36033984D02*
X982086Y-36033984D01*
X982086Y-36033984D02*
X1001134Y-36043508D01*
X1001134Y-36043508D02*
X1010658Y-36053031D01*
X1010658Y-36053031D02*
X1020182Y-36072079D01*
X1020182Y-36072079D02*
X1029705Y-36110174D01*
X1029705Y-36110174D02*
X1029705Y-36157793D01*
X1029705Y-36157793D02*
X1020182Y-36195889D01*
X1020182Y-36195889D02*
X1010658Y-36214936D01*
X1010658Y-36214936D02*
X1001134Y-36224460D01*
X1001134Y-36224460D02*
X982086Y-36233984D01*
X982086Y-36233984D02*
X963039Y-36233984D01*
X963039Y-36233984D02*
X943991Y-36224460D01*
X943991Y-36224460D02*
X934467Y-36214936D01*
X934467Y-36214936D02*
X924943Y-36195889D01*
X924943Y-36195889D02*
X915420Y-36157793D01*
X915420Y-36157793D02*
X915420Y-36110174D01*
X915420Y-36110174D02*
X924943Y-36072079D01*
X924943Y-36072079D02*
X934467Y-36053031D01*
X934467Y-36053031D02*
X943991Y-36043508D01*
X943991Y-36043508D02*
X963039Y-36033984D01*
X1115420Y-36233984D02*
X1115420Y-36100650D01*
X1115420Y-36119698D02*
X1124944Y-36110174D01*
X1124944Y-36110174D02*
X1143991Y-36100650D01*
X1143991Y-36100650D02*
X1172563Y-36100650D01*
X1172563Y-36100650D02*
X1191610Y-36110174D01*
X1191610Y-36110174D02*
X1201134Y-36129222D01*
X1201134Y-36129222D02*
X1201134Y-36233984D01*
X1201134Y-36129222D02*
X1210658Y-36110174D01*
X1210658Y-36110174D02*
X1229705Y-36100650D01*
X1229705Y-36100650D02*
X1258277Y-36100650D01*
X1258277Y-36100650D02*
X1277325Y-36110174D01*
X1277325Y-36110174D02*
X1286848Y-36129222D01*
X1286848Y-36129222D02*
X1286848Y-36233984D01*
X1382086Y-36233984D02*
X1382086Y-36100650D01*
X1382086Y-36119698D02*
X1391610Y-36110174D01*
X1391610Y-36110174D02*
X1410658Y-36100650D01*
X1410658Y-36100650D02*
X1439229Y-36100650D01*
X1439229Y-36100650D02*
X1458277Y-36110174D01*
X1458277Y-36110174D02*
X1467801Y-36129222D01*
X1467801Y-36129222D02*
X1467801Y-36233984D01*
X1467801Y-36129222D02*
X1477324Y-36110174D01*
X1477324Y-36110174D02*
X1496372Y-36100650D01*
X1496372Y-36100650D02*
X1524943Y-36100650D01*
X1524943Y-36100650D02*
X1543991Y-36110174D01*
X1543991Y-36110174D02*
X1553515Y-36129222D01*
X1553515Y-36129222D02*
X1553515Y-36233984D01*
X1943991Y-36024460D02*
X1772563Y-36281603D01*
X2201134Y-36033984D02*
X2220182Y-36033984D01*
X2220182Y-36033984D02*
X2239229Y-36043508D01*
X2239229Y-36043508D02*
X2248753Y-36053031D01*
X2248753Y-36053031D02*
X2258277Y-36072079D01*
X2258277Y-36072079D02*
X2267801Y-36110174D01*
X2267801Y-36110174D02*
X2267801Y-36157793D01*
X2267801Y-36157793D02*
X2258277Y-36195889D01*
X2258277Y-36195889D02*
X2248753Y-36214936D01*
X2248753Y-36214936D02*
X2239229Y-36224460D01*
X2239229Y-36224460D02*
X2220182Y-36233984D01*
X2220182Y-36233984D02*
X2201134Y-36233984D01*
X2201134Y-36233984D02*
X2182087Y-36224460D01*
X2182087Y-36224460D02*
X2172563Y-36214936D01*
X2172563Y-36214936D02*
X2163039Y-36195889D01*
X2163039Y-36195889D02*
X2153515Y-36157793D01*
X2153515Y-36157793D02*
X2153515Y-36110174D01*
X2153515Y-36110174D02*
X2163039Y-36072079D01*
X2163039Y-36072079D02*
X2172563Y-36053031D01*
X2172563Y-36053031D02*
X2182087Y-36043508D01*
X2182087Y-36043508D02*
X2201134Y-36033984D01*
X2353515Y-36214936D02*
X2363039Y-36224460D01*
X2363039Y-36224460D02*
X2353515Y-36233984D01*
X2353515Y-36233984D02*
X2343991Y-36224460D01*
X2343991Y-36224460D02*
X2353515Y-36214936D01*
X2353515Y-36214936D02*
X2353515Y-36233984D01*
X2553515Y-36233984D02*
X2439229Y-36233984D01*
X2496372Y-36233984D02*
X2496372Y-36033984D01*
X2496372Y-36033984D02*
X2477325Y-36062555D01*
X2477325Y-36062555D02*
X2458277Y-36081603D01*
X2458277Y-36081603D02*
X2439229Y-36091127D01*
X2629706Y-36053031D02*
X2639229Y-36043508D01*
X2639229Y-36043508D02*
X2658277Y-36033984D01*
X2658277Y-36033984D02*
X2705896Y-36033984D01*
X2705896Y-36033984D02*
X2724944Y-36043508D01*
X2724944Y-36043508D02*
X2734468Y-36053031D01*
X2734468Y-36053031D02*
X2743991Y-36072079D01*
X2743991Y-36072079D02*
X2743991Y-36091127D01*
X2743991Y-36091127D02*
X2734468Y-36119698D01*
X2734468Y-36119698D02*
X2620182Y-36233984D01*
X2620182Y-36233984D02*
X2743991Y-36233984D01*
X2915420Y-36033984D02*
X2877325Y-36033984D01*
X2877325Y-36033984D02*
X2858277Y-36043508D01*
X2858277Y-36043508D02*
X2848753Y-36053031D01*
X2848753Y-36053031D02*
X2829706Y-36081603D01*
X2829706Y-36081603D02*
X2820182Y-36119698D01*
X2820182Y-36119698D02*
X2820182Y-36195889D01*
X2820182Y-36195889D02*
X2829706Y-36214936D01*
X2829706Y-36214936D02*
X2839229Y-36224460D01*
X2839229Y-36224460D02*
X2858277Y-36233984D01*
X2858277Y-36233984D02*
X2896372Y-36233984D01*
X2896372Y-36233984D02*
X2915420Y-36224460D01*
X2915420Y-36224460D02*
X2924944Y-36214936D01*
X2924944Y-36214936D02*
X2934467Y-36195889D01*
X2934467Y-36195889D02*
X2934467Y-36148270D01*
X2934467Y-36148270D02*
X2924944Y-36129222D01*
X2924944Y-36129222D02*
X2915420Y-36119698D01*
X2915420Y-36119698D02*
X2896372Y-36110174D01*
X2896372Y-36110174D02*
X2858277Y-36110174D01*
X2858277Y-36110174D02*
X2839229Y-36119698D01*
X2839229Y-36119698D02*
X2829706Y-36129222D01*
X2829706Y-36129222D02*
X2820182Y-36148270D01*
X3058277Y-36033984D02*
X3077325Y-36033984D01*
X3077325Y-36033984D02*
X3096372Y-36043508D01*
X3096372Y-36043508D02*
X3105896Y-36053031D01*
X3105896Y-36053031D02*
X3115420Y-36072079D01*
X3115420Y-36072079D02*
X3124944Y-36110174D01*
X3124944Y-36110174D02*
X3124944Y-36157793D01*
X3124944Y-36157793D02*
X3115420Y-36195889D01*
X3115420Y-36195889D02*
X3105896Y-36214936D01*
X3105896Y-36214936D02*
X3096372Y-36224460D01*
X3096372Y-36224460D02*
X3077325Y-36233984D01*
X3077325Y-36233984D02*
X3058277Y-36233984D01*
X3058277Y-36233984D02*
X3039229Y-36224460D01*
X3039229Y-36224460D02*
X3029706Y-36214936D01*
X3029706Y-36214936D02*
X3020182Y-36195889D01*
X3020182Y-36195889D02*
X3010658Y-36157793D01*
X3010658Y-36157793D02*
X3010658Y-36110174D01*
X3010658Y-36110174D02*
X3020182Y-36072079D01*
X3020182Y-36072079D02*
X3029706Y-36053031D01*
X3029706Y-36053031D02*
X3039229Y-36043508D01*
X3039229Y-36043508D02*
X3058277Y-36033984D01*
X3201134Y-36033984D02*
X3201134Y-36072079D01*
X3277325Y-36033984D02*
X3277325Y-36072079D01*
X3572563Y-36310174D02*
X3563039Y-36300650D01*
X3563039Y-36300650D02*
X3543991Y-36272079D01*
X3543991Y-36272079D02*
X3534468Y-36253031D01*
X3534468Y-36253031D02*
X3524944Y-36224460D01*
X3524944Y-36224460D02*
X3515420Y-36176841D01*
X3515420Y-36176841D02*
X3515420Y-36138746D01*
X3515420Y-36138746D02*
X3524944Y-36091127D01*
X3524944Y-36091127D02*
X3534468Y-36062555D01*
X3534468Y-36062555D02*
X3543991Y-36043508D01*
X3543991Y-36043508D02*
X3563039Y-36014936D01*
X3563039Y-36014936D02*
X3572563Y-36005412D01*
X3753515Y-36233984D02*
X3639229Y-36233984D01*
X3696372Y-36233984D02*
X3696372Y-36033984D01*
X3696372Y-36033984D02*
X3677325Y-36062555D01*
X3677325Y-36062555D02*
X3658277Y-36081603D01*
X3658277Y-36081603D02*
X3639229Y-36091127D01*
X3829706Y-36053031D02*
X3839229Y-36043508D01*
X3839229Y-36043508D02*
X3858277Y-36033984D01*
X3858277Y-36033984D02*
X3905896Y-36033984D01*
X3905896Y-36033984D02*
X3924944Y-36043508D01*
X3924944Y-36043508D02*
X3934468Y-36053031D01*
X3934468Y-36053031D02*
X3943991Y-36072079D01*
X3943991Y-36072079D02*
X3943991Y-36091127D01*
X3943991Y-36091127D02*
X3934468Y-36119698D01*
X3934468Y-36119698D02*
X3820182Y-36233984D01*
X3820182Y-36233984D02*
X3943991Y-36233984D01*
X4182087Y-36233984D02*
X4182087Y-36033984D01*
X4267801Y-36233984D02*
X4267801Y-36129222D01*
X4267801Y-36129222D02*
X4258277Y-36110174D01*
X4258277Y-36110174D02*
X4239230Y-36100650D01*
X4239230Y-36100650D02*
X4210658Y-36100650D01*
X4210658Y-36100650D02*
X4191610Y-36110174D01*
X4191610Y-36110174D02*
X4182087Y-36119698D01*
X4391611Y-36233984D02*
X4372563Y-36224460D01*
X4372563Y-36224460D02*
X4363039Y-36214936D01*
X4363039Y-36214936D02*
X4353515Y-36195889D01*
X4353515Y-36195889D02*
X4353515Y-36138746D01*
X4353515Y-36138746D02*
X4363039Y-36119698D01*
X4363039Y-36119698D02*
X4372563Y-36110174D01*
X4372563Y-36110174D02*
X4391611Y-36100650D01*
X4391611Y-36100650D02*
X4420182Y-36100650D01*
X4420182Y-36100650D02*
X4439230Y-36110174D01*
X4439230Y-36110174D02*
X4448753Y-36119698D01*
X4448753Y-36119698D02*
X4458277Y-36138746D01*
X4458277Y-36138746D02*
X4458277Y-36195889D01*
X4458277Y-36195889D02*
X4448753Y-36214936D01*
X4448753Y-36214936D02*
X4439230Y-36224460D01*
X4439230Y-36224460D02*
X4420182Y-36233984D01*
X4420182Y-36233984D02*
X4391611Y-36233984D01*
X4572563Y-36233984D02*
X4553515Y-36224460D01*
X4553515Y-36224460D02*
X4543992Y-36205412D01*
X4543992Y-36205412D02*
X4543992Y-36033984D01*
X4724944Y-36224460D02*
X4705896Y-36233984D01*
X4705896Y-36233984D02*
X4667801Y-36233984D01*
X4667801Y-36233984D02*
X4648753Y-36224460D01*
X4648753Y-36224460D02*
X4639230Y-36205412D01*
X4639230Y-36205412D02*
X4639230Y-36129222D01*
X4639230Y-36129222D02*
X4648753Y-36110174D01*
X4648753Y-36110174D02*
X4667801Y-36100650D01*
X4667801Y-36100650D02*
X4705896Y-36100650D01*
X4705896Y-36100650D02*
X4724944Y-36110174D01*
X4724944Y-36110174D02*
X4734468Y-36129222D01*
X4734468Y-36129222D02*
X4734468Y-36148270D01*
X4734468Y-36148270D02*
X4639230Y-36167317D01*
X4810658Y-36224460D02*
X4829706Y-36233984D01*
X4829706Y-36233984D02*
X4867801Y-36233984D01*
X4867801Y-36233984D02*
X4886849Y-36224460D01*
X4886849Y-36224460D02*
X4896373Y-36205412D01*
X4896373Y-36205412D02*
X4896373Y-36195889D01*
X4896373Y-36195889D02*
X4886849Y-36176841D01*
X4886849Y-36176841D02*
X4867801Y-36167317D01*
X4867801Y-36167317D02*
X4839230Y-36167317D01*
X4839230Y-36167317D02*
X4820182Y-36157793D01*
X4820182Y-36157793D02*
X4810658Y-36138746D01*
X4810658Y-36138746D02*
X4810658Y-36129222D01*
X4810658Y-36129222D02*
X4820182Y-36110174D01*
X4820182Y-36110174D02*
X4839230Y-36100650D01*
X4839230Y-36100650D02*
X4867801Y-36100650D01*
X4867801Y-36100650D02*
X4886849Y-36110174D01*
X4963039Y-36310174D02*
X4972563Y-36300650D01*
X4972563Y-36300650D02*
X4991611Y-36272079D01*
X4991611Y-36272079D02*
X5001134Y-36253031D01*
X5001134Y-36253031D02*
X5010658Y-36224460D01*
X5010658Y-36224460D02*
X5020182Y-36176841D01*
X5020182Y-36176841D02*
X5020182Y-36138746D01*
X5020182Y-36138746D02*
X5010658Y-36091127D01*
X5010658Y-36091127D02*
X5001134Y-36062555D01*
X5001134Y-36062555D02*
X4991611Y-36043508D01*
X4991611Y-36043508D02*
X4972563Y-36014936D01*
X4972563Y-36014936D02*
X4963039Y-36005412D01*
X5324944Y-36310174D02*
X5315420Y-36300650D01*
X5315420Y-36300650D02*
X5296373Y-36272079D01*
X5296373Y-36272079D02*
X5286849Y-36253031D01*
X5286849Y-36253031D02*
X5277325Y-36224460D01*
X5277325Y-36224460D02*
X5267801Y-36176841D01*
X5267801Y-36176841D02*
X5267801Y-36138746D01*
X5267801Y-36138746D02*
X5277325Y-36091127D01*
X5277325Y-36091127D02*
X5286849Y-36062555D01*
X5286849Y-36062555D02*
X5296373Y-36043508D01*
X5296373Y-36043508D02*
X5315420Y-36014936D01*
X5315420Y-36014936D02*
X5324944Y-36005412D01*
X5401134Y-36100650D02*
X5401134Y-36233984D01*
X5401134Y-36119698D02*
X5410658Y-36110174D01*
X5410658Y-36110174D02*
X5429706Y-36100650D01*
X5429706Y-36100650D02*
X5458277Y-36100650D01*
X5458277Y-36100650D02*
X5477325Y-36110174D01*
X5477325Y-36110174D02*
X5486849Y-36129222D01*
X5486849Y-36129222D02*
X5486849Y-36233984D01*
X5610658Y-36233984D02*
X5591611Y-36224460D01*
X5591611Y-36224460D02*
X5582087Y-36214936D01*
X5582087Y-36214936D02*
X5572563Y-36195889D01*
X5572563Y-36195889D02*
X5572563Y-36138746D01*
X5572563Y-36138746D02*
X5582087Y-36119698D01*
X5582087Y-36119698D02*
X5591611Y-36110174D01*
X5591611Y-36110174D02*
X5610658Y-36100650D01*
X5610658Y-36100650D02*
X5639230Y-36100650D01*
X5639230Y-36100650D02*
X5658277Y-36110174D01*
X5658277Y-36110174D02*
X5667801Y-36119698D01*
X5667801Y-36119698D02*
X5677325Y-36138746D01*
X5677325Y-36138746D02*
X5677325Y-36195889D01*
X5677325Y-36195889D02*
X5667801Y-36214936D01*
X5667801Y-36214936D02*
X5658277Y-36224460D01*
X5658277Y-36224460D02*
X5639230Y-36233984D01*
X5639230Y-36233984D02*
X5610658Y-36233984D01*
X5734468Y-36100650D02*
X5810658Y-36100650D01*
X5763039Y-36033984D02*
X5763039Y-36205412D01*
X5763039Y-36205412D02*
X5772563Y-36224460D01*
X5772563Y-36224460D02*
X5791611Y-36233984D01*
X5791611Y-36233984D02*
X5810658Y-36233984D01*
X6029706Y-36100650D02*
X6029706Y-36300650D01*
X6029706Y-36110174D02*
X6048753Y-36100650D01*
X6048753Y-36100650D02*
X6086849Y-36100650D01*
X6086849Y-36100650D02*
X6105896Y-36110174D01*
X6105896Y-36110174D02*
X6115420Y-36119698D01*
X6115420Y-36119698D02*
X6124944Y-36138746D01*
X6124944Y-36138746D02*
X6124944Y-36195889D01*
X6124944Y-36195889D02*
X6115420Y-36214936D01*
X6115420Y-36214936D02*
X6105896Y-36224460D01*
X6105896Y-36224460D02*
X6086849Y-36233984D01*
X6086849Y-36233984D02*
X6048753Y-36233984D01*
X6048753Y-36233984D02*
X6029706Y-36224460D01*
X6239230Y-36233984D02*
X6220182Y-36224460D01*
X6220182Y-36224460D02*
X6210658Y-36205412D01*
X6210658Y-36205412D02*
X6210658Y-36033984D01*
X6401134Y-36233984D02*
X6401134Y-36129222D01*
X6401134Y-36129222D02*
X6391611Y-36110174D01*
X6391611Y-36110174D02*
X6372563Y-36100650D01*
X6372563Y-36100650D02*
X6334468Y-36100650D01*
X6334468Y-36100650D02*
X6315420Y-36110174D01*
X6401134Y-36224460D02*
X6382087Y-36233984D01*
X6382087Y-36233984D02*
X6334468Y-36233984D01*
X6334468Y-36233984D02*
X6315420Y-36224460D01*
X6315420Y-36224460D02*
X6305896Y-36205412D01*
X6305896Y-36205412D02*
X6305896Y-36186365D01*
X6305896Y-36186365D02*
X6315420Y-36167317D01*
X6315420Y-36167317D02*
X6334468Y-36157793D01*
X6334468Y-36157793D02*
X6382087Y-36157793D01*
X6382087Y-36157793D02*
X6401134Y-36148270D01*
X6467801Y-36100650D02*
X6543992Y-36100650D01*
X6496373Y-36033984D02*
X6496373Y-36205412D01*
X6496373Y-36205412D02*
X6505896Y-36224460D01*
X6505896Y-36224460D02*
X6524944Y-36233984D01*
X6524944Y-36233984D02*
X6543992Y-36233984D01*
X6686849Y-36224460D02*
X6667801Y-36233984D01*
X6667801Y-36233984D02*
X6629706Y-36233984D01*
X6629706Y-36233984D02*
X6610658Y-36224460D01*
X6610658Y-36224460D02*
X6601134Y-36205412D01*
X6601134Y-36205412D02*
X6601134Y-36129222D01*
X6601134Y-36129222D02*
X6610658Y-36110174D01*
X6610658Y-36110174D02*
X6629706Y-36100650D01*
X6629706Y-36100650D02*
X6667801Y-36100650D01*
X6667801Y-36100650D02*
X6686849Y-36110174D01*
X6686849Y-36110174D02*
X6696373Y-36129222D01*
X6696373Y-36129222D02*
X6696373Y-36148270D01*
X6696373Y-36148270D02*
X6601134Y-36167317D01*
X6867801Y-36233984D02*
X6867801Y-36033984D01*
X6867801Y-36224460D02*
X6848754Y-36233984D01*
X6848754Y-36233984D02*
X6810658Y-36233984D01*
X6810658Y-36233984D02*
X6791611Y-36224460D01*
X6791611Y-36224460D02*
X6782087Y-36214936D01*
X6782087Y-36214936D02*
X6772563Y-36195889D01*
X6772563Y-36195889D02*
X6772563Y-36138746D01*
X6772563Y-36138746D02*
X6782087Y-36119698D01*
X6782087Y-36119698D02*
X6791611Y-36110174D01*
X6791611Y-36110174D02*
X6810658Y-36100650D01*
X6810658Y-36100650D02*
X6848754Y-36100650D01*
X6848754Y-36100650D02*
X6867801Y-36110174D01*
X6943992Y-36310174D02*
X6953515Y-36300650D01*
X6953515Y-36300650D02*
X6972563Y-36272079D01*
X6972563Y-36272079D02*
X6982087Y-36253031D01*
X6982087Y-36253031D02*
X6991611Y-36224460D01*
X6991611Y-36224460D02*
X7001134Y-36176841D01*
X7001134Y-36176841D02*
X7001134Y-36138746D01*
X7001134Y-36138746D02*
X6991611Y-36091127D01*
X6991611Y-36091127D02*
X6982087Y-36062555D01*
X6982087Y-36062555D02*
X6972563Y-36043508D01*
X6972563Y-36043508D02*
X6953515Y-36014936D01*
X6953515Y-36014936D02*
X6943992Y-36005412D01*
M02*
